<svg xmlns="http://www.w3.org/2000/svg" xmlns:xlink="http://www.w3.org/1999/xlink" width="0" height="0" style="display:none;"><symbol viewBox="0 0 24 24" id="aw-icon-apple"><path d="M15.265 2.062 C 14.668 2.181,13.910 2.509,13.412 2.864 C 12.296 3.661,11.529 5.030,11.507 6.267 C 11.503 6.490,11.512 6.686,11.528 6.701 C 11.582 6.755,12.194 6.718,12.488 6.643 C 13.117 6.482,13.667 6.159,14.242 5.612 C 14.841 5.042,15.279 4.386,15.519 3.700 C 15.702 3.177,15.810 2.371,15.735 2.090 C 15.707 1.986,15.662 1.983,15.265 2.062 M14.380 6.858 C 14.138 6.908,13.472 7.109,12.900 7.303 C 12.033 7.598,11.820 7.657,11.620 7.655 C 11.370 7.653,11.053 7.562,9.920 7.167 C 8.895 6.811,8.293 6.735,7.468 6.860 C 6.433 7.016,5.473 7.516,4.678 8.316 C 3.497 9.502,2.944 11.094,3.013 13.100 C 3.052 14.210,3.216 15.090,3.600 16.240 C 4.117 17.789,4.749 18.947,5.772 20.220 C 6.487 21.111,7.073 21.614,7.680 21.856 C 7.945 21.963,8.029 21.977,8.400 21.978 C 8.898 21.980,9.167 21.919,10.012 21.613 C 10.939 21.276,11.196 21.223,11.900 21.223 C 12.600 21.223,12.870 21.278,13.725 21.594 C 14.368 21.833,14.652 21.909,15.044 21.950 C 15.992 22.049,16.824 21.647,17.653 20.687 C 18.319 19.916,18.947 18.990,19.368 18.160 C 19.580 17.742,20.020 16.684,19.992 16.660 C 19.985 16.655,19.894 16.613,19.789 16.567 C 19.143 16.285,18.203 15.445,17.828 14.814 C 17.246 13.836,17.067 12.676,17.320 11.513 C 17.551 10.448,18.241 9.529,19.360 8.796 L 19.458 8.731 19.224 8.445 C 18.857 7.996,18.342 7.593,17.766 7.303 C 16.790 6.812,15.442 6.635,14.380 6.858 " fill="#373B4D" stroke="none" fill-rule="evenodd"></path></symbol><symbol viewBox="0 0 20 20" id="aw-icon-arrow-down"><path d="M9.817 4.939 C 9.662 4.997,9.538 5.095,9.474 5.211 C 9.421 5.309,9.416 5.587,9.407 9.179 L 9.398 13.042 7.707 11.362 C 6.777 10.438,5.944 9.623,5.855 9.551 C 5.715 9.437,5.671 9.420,5.522 9.418 C 5.082 9.414,4.785 9.828,4.953 10.210 C 4.999 10.313,5.619 10.955,7.316 12.654 C 8.581 13.922,9.669 14.990,9.733 15.029 C 9.882 15.119,10.113 15.122,10.254 15.036 C 10.382 14.958,13.497 11.874,14.386 10.945 C 15.131 10.166,15.157 10.121,15.048 9.806 C 14.958 9.546,14.778 9.418,14.503 9.418 C 14.327 9.418,14.294 9.430,14.146 9.550 C 14.057 9.623,13.223 10.438,12.293 11.362 L 10.602 13.042 10.593 9.196 C 10.582 4.894,10.600 5.189,10.343 5.019 C 10.195 4.921,9.961 4.885,9.817 4.939 " stroke="none" fill-rule="evenodd"></path></symbol><symbol viewBox="0 0 20 20" id="aw-icon-arrow-ext-link"><path d="M9.717 6.598 L 6.583 6.617 6.471 6.697 C 6.274 6.837,6.181 7.157,6.269 7.389 C 6.312 7.504,6.452 7.657,6.573 7.720 C 6.648 7.759,7.059 7.767,9.007 7.770 C 10.296 7.771,11.425 7.783,11.517 7.795 L 11.683 7.817 9.056 10.463 C 7.610 11.918,6.384 13.169,6.331 13.243 C 6.095 13.568,6.312 14.058,6.719 14.119 C 7.049 14.168,6.904 14.296,9.848 11.365 L 12.556 8.667 12.578 9.142 C 12.590 9.403,12.600 10.547,12.600 11.684 L 12.600 13.751 12.682 13.872 C 12.775 14.009,13.003 14.133,13.162 14.133 C 13.295 14.133,13.491 14.053,13.594 13.957 C 13.775 13.788,13.767 13.955,13.766 10.477 C 13.766 8.583,13.753 7.167,13.734 7.050 C 13.708 6.883,13.683 6.833,13.585 6.747 C 13.441 6.620,13.264 6.565,13.029 6.573 C 12.931 6.577,11.440 6.588,9.717 6.598 " stroke="none" fill-rule="evenodd"></path></symbol><symbol viewBox="0 0 20 20" id="aw-icon-arrow-left"><path d="M9.767 4.971 C 9.660 5.025,8.954 5.709,7.329 7.332 C 6.071 8.588,5.010 9.669,4.971 9.733 C 4.880 9.883,4.878 10.113,4.965 10.256 C 5.043 10.384,8.075 13.445,9.054 14.384 C 9.670 14.976,9.774 15.062,9.891 15.082 C 10.178 15.130,10.452 14.978,10.552 14.716 C 10.633 14.503,10.602 14.333,10.445 14.140 C 10.375 14.054,9.561 13.222,8.637 12.292 L 6.956 10.600 10.805 10.600 L 14.655 10.600 14.809 10.498 C 15.200 10.239,15.190 9.729,14.788 9.499 L 14.617 9.401 10.786 9.400 L 6.956 9.400 8.637 7.708 C 9.561 6.778,10.374 5.948,10.442 5.863 C 10.604 5.664,10.633 5.480,10.538 5.260 C 10.408 4.959,10.055 4.827,9.767 4.971 " stroke="none" fill-rule="evenodd"></path></symbol><symbol viewBox="0 0 20 20" id="aw-icon-arrow-right"><path d="M9.817 4.940 C 9.643 5.001,9.508 5.126,9.449 5.282 C 9.367 5.497,9.398 5.666,9.555 5.860 C 9.625 5.946,10.439 6.778,11.363 7.708 L 13.044 9.400 9.214 9.400 L 5.383 9.401 5.212 9.499 C 4.810 9.729,4.800 10.239,5.191 10.498 L 5.345 10.600 9.195 10.600 L 13.044 10.600 11.363 12.292 C 10.439 13.222,9.625 14.054,9.555 14.140 C 9.473 14.241,9.421 14.344,9.410 14.428 C 9.358 14.813,9.697 15.143,10.083 15.085 C 10.226 15.064,10.281 15.019,10.927 14.403 C 11.858 13.512,14.957 10.385,15.036 10.254 C 15.122 10.113,15.119 9.882,15.029 9.733 C 14.990 9.669,13.929 8.588,12.671 7.331 C 10.347 5.009,10.222 4.895,9.998 4.903 C 9.953 4.904,9.872 4.921,9.817 4.940 " stroke="none" fill-rule="evenodd"></path></symbol><symbol viewBox="0 0 20 20" id="aw-icon-arrow-up"><path d="M9.773 4.950 C 9.651 5.004,7.166 7.457,5.798 8.875 C 4.993 9.710,4.936 9.776,4.915 9.915 C 4.872 10.200,5.043 10.476,5.320 10.568 C 5.507 10.630,5.681 10.590,5.860 10.445 C 5.946 10.375,6.778 9.561,7.708 8.637 L 9.400 6.956 9.400 10.805 L 9.400 14.655 9.502 14.809 C 9.754 15.189,10.246 15.189,10.498 14.809 L 10.600 14.655 10.600 10.805 L 10.600 6.956 12.292 8.637 C 13.222 9.561,14.055 10.376,14.143 10.447 C 14.351 10.616,14.546 10.641,14.766 10.527 C 14.947 10.434,15.055 10.281,15.086 10.074 C 15.105 9.948,15.095 9.893,15.031 9.768 C 14.923 9.560,10.394 5.022,10.222 4.950 C 10.073 4.888,9.917 4.888,9.773 4.950 " stroke="none" fill-rule="evenodd"></path></symbol><symbol viewBox="0 0 20 20" id="aw-icon-calendar"><path d="M6.804 3.441 C 6.644 3.495,6.480 3.662,6.437 3.817 C 6.417 3.890,6.400 4.051,6.400 4.175 L 6.400 4.400 6.208 4.401 C 5.902 4.402,5.397 4.463,5.217 4.521 C 4.774 4.664,4.340 4.962,3.997 5.357 C 3.810 5.573,3.530 6.118,3.461 6.400 C 3.396 6.670,3.396 14.330,3.461 14.600 C 3.486 14.701,3.579 14.933,3.668 15.117 C 3.936 15.669,4.331 16.064,4.883 16.332 C 5.067 16.421,5.299 16.514,5.400 16.539 C 5.549 16.575,6.419 16.583,10.033 16.581 L 14.483 16.579 14.750 16.490 C 15.198 16.340,15.480 16.161,15.834 15.804 C 16.101 15.535,16.177 15.433,16.310 15.167 C 16.601 14.582,16.581 14.924,16.581 10.500 C 16.581 6.085,16.599 6.414,16.317 5.850 C 16.008 5.235,15.451 4.746,14.817 4.534 C 14.609 4.465,14.124 4.402,13.792 4.401 L 13.600 4.400 13.600 4.179 C 13.600 3.889,13.548 3.725,13.411 3.584 C 13.167 3.333,12.756 3.356,12.541 3.634 C 12.442 3.762,12.400 3.923,12.400 4.172 L 12.400 4.400 10.004 4.400 L 7.608 4.400 7.593 4.108 C 7.584 3.923,7.558 3.777,7.522 3.708 C 7.404 3.483,7.060 3.355,6.804 3.441 M6.400 5.828 C 6.400 6.201,6.507 6.416,6.750 6.533 C 7.077 6.692,7.436 6.531,7.561 6.170 C 7.582 6.108,7.600 5.954,7.600 5.828 L 7.600 5.600 10.000 5.600 L 12.400 5.600 12.400 5.828 C 12.400 6.201,12.507 6.416,12.750 6.533 C 12.925 6.618,13.075 6.618,13.250 6.533 C 13.494 6.415,13.600 6.201,13.600 5.823 L 13.600 5.590 13.926 5.611 C 14.317 5.637,14.556 5.703,14.782 5.848 C 14.950 5.955,15.175 6.217,15.283 6.430 C 15.351 6.565,15.397 7.142,15.399 7.892 L 15.400 8.400 10.000 8.400 L 4.600 8.400 4.601 7.725 C 4.603 6.612,4.657 6.388,5.010 6.042 C 5.340 5.718,5.622 5.608,6.142 5.603 L 6.400 5.600 6.400 5.828 M15.392 11.980 L 15.374 14.360 15.265 14.582 C 15.124 14.868,14.858 15.134,14.573 15.274 L 14.351 15.383 10.000 15.383 L 5.649 15.383 5.422 15.272 C 5.131 15.129,4.866 14.862,4.729 14.574 L 4.625 14.356 4.607 11.978 L 4.590 9.600 10.000 9.600 L 15.410 9.600 15.392 11.980 " stroke="none" fill-rule="evenodd"></path></symbol><symbol viewBox="0 0 20 20" id="aw-icon-check"><path d="M14.302 5.442 C 14.142 5.499,13.948 5.745,11.493 9.009 C 9.781 11.285,8.762 12.624,8.409 13.060 C 8.381 13.095,8.356 13.100,8.326 13.076 C 8.303 13.058,7.859 12.696,7.340 12.272 C 5.633 10.876,5.595 10.852,5.283 10.997 C 5.041 11.109,4.900 11.315,4.900 11.557 C 4.900 11.787,5.008 11.899,6.110 12.814 C 7.403 13.887,8.275 14.565,8.388 14.586 C 8.594 14.625,8.738 14.573,8.895 14.406 C 9.094 14.192,10.067 12.915,12.187 10.083 C 14.936 6.410,15.063 6.233,15.086 6.062 C 15.142 5.646,14.701 5.298,14.302 5.442 " stroke="none" fill-rule="evenodd"></path></symbol><symbol viewBox="0 0 20 20" id="aw-icon-chevron-down"><path d="M5.317 7.539 C 4.964 7.670,4.809 8.023,4.967 8.336 C 5.019 8.438,5.713 9.154,7.229 10.668 C 8.432 11.870,9.505 12.927,9.613 13.018 C 9.799 13.174,9.821 13.183,10.000 13.183 C 10.180 13.183,10.201 13.174,10.386 13.017 C 10.653 12.790,13.885 9.580,14.518 8.913 C 15.118 8.281,15.154 8.212,15.048 7.906 C 14.958 7.646,14.778 7.518,14.503 7.518 C 14.327 7.518,14.294 7.530,14.146 7.650 C 14.057 7.723,13.087 8.674,11.992 9.763 L 10.000 11.744 8.008 9.763 C 6.913 8.674,5.948 7.727,5.863 7.658 C 5.692 7.519,5.489 7.475,5.317 7.539 " fill="#19191C" stroke="none" fill-rule="evenodd"></path></symbol><symbol viewBox="0 0 20 20" id="aw-icon-chevron-left"><path d="M12.000 5.318 C 11.873 5.375,7.454 9.780,7.272 10.031 C 7.141 10.212,7.127 10.450,7.235 10.629 C 7.324 10.774,11.737 15.193,11.930 15.330 C 12.397 15.660,13.009 15.153,12.786 14.619 C 12.757 14.549,11.959 13.722,10.673 12.428 L 8.606 10.350 10.614 8.333 C 11.719 7.224,12.670 6.251,12.728 6.170 C 12.810 6.056,12.833 5.990,12.833 5.870 C 12.832 5.659,12.734 5.460,12.588 5.369 C 12.430 5.272,12.155 5.248,12.000 5.318 " fill="#19191C" stroke="none" fill-rule="evenodd"></path></symbol><symbol viewBox="0 0 20 20" id="aw-icon-chevron-right"><path d="M7.564 5.299 C 7.325 5.371,7.167 5.599,7.167 5.872 C 7.167 5.989,7.191 6.057,7.272 6.170 C 7.330 6.251,8.281 7.224,9.386 8.333 L 11.394 10.350 9.328 12.428 C 8.032 13.730,7.243 14.547,7.214 14.618 C 7.050 15.011,7.337 15.433,7.767 15.433 C 7.888 15.433,7.956 15.410,8.070 15.329 C 8.263 15.193,12.677 10.773,12.765 10.628 C 12.874 10.450,12.859 10.212,12.727 10.030 C 12.669 9.949,11.600 8.861,10.352 7.612 C 8.410 5.668,8.064 5.335,7.950 5.304 C 7.799 5.262,7.689 5.261,7.564 5.299 " fill="#19191C" stroke="none" fill-rule="evenodd"></path></symbol><symbol viewBox="0 0 20 20" id="aw-icon-chevron-up"><path d="M9.778 7.564 C 9.627 7.633,6.938 10.276,5.647 11.625 C 4.989 12.312,4.936 12.377,4.915 12.515 C 4.872 12.800,5.043 13.076,5.320 13.168 C 5.508 13.230,5.681 13.190,5.860 13.045 C 5.946 12.975,6.913 12.026,8.008 10.937 L 10.000 8.956 11.992 10.937 C 13.087 12.026,14.055 12.976,14.143 13.047 C 14.266 13.147,14.339 13.180,14.460 13.191 C 14.842 13.224,15.158 12.867,15.086 12.484 C 15.057 12.332,14.217 11.453,12.001 9.255 C 10.355 7.622,10.217 7.501,10.000 7.501 C 9.954 7.501,9.854 7.530,9.778 7.564 " fill="#19191C" stroke="none" fill-rule="evenodd"></path></symbol><symbol viewBox="0 0 20 20" id="aw-icon-close"><path d="M5.317 4.938 C 5.140 5.003,5.008 5.127,4.949 5.282 C 4.867 5.497,4.898 5.666,5.055 5.860 C 5.125 5.946,6.074 6.913,7.163 8.008 L 9.144 10.000 7.163 11.992 C 6.074 13.087,5.125 14.054,5.055 14.140 C 4.910 14.319,4.870 14.493,4.932 14.680 C 4.990 14.856,5.114 14.987,5.284 15.052 C 5.497 15.133,5.667 15.102,5.860 14.945 C 5.946 14.875,6.913 13.926,8.008 12.837 L 10.000 10.856 11.992 12.837 C 13.087 13.926,14.054 14.875,14.140 14.945 C 14.333 15.102,14.503 15.133,14.716 15.052 C 14.886 14.987,15.010 14.856,15.068 14.680 C 15.130 14.493,15.090 14.319,14.945 14.140 C 14.875 14.054,13.926 13.087,12.837 11.992 L 10.856 10.000 12.837 8.008 C 13.926 6.913,14.873 5.948,14.942 5.863 C 15.104 5.664,15.133 5.480,15.038 5.260 C 14.942 5.037,14.754 4.918,14.500 4.918 C 14.327 4.918,14.294 4.930,14.146 5.050 C 14.057 5.123,13.087 6.074,11.992 7.163 L 10.000 9.144 8.008 7.163 C 6.913 6.074,5.948 5.127,5.863 5.058 C 5.693 4.919,5.490 4.875,5.317 4.938 " stroke="none" fill-rule="evenodd"></path></symbol><symbol viewBox="0 0 20 20" id="aw-icon-copy"><path d="M8.214 4.081 C 7.784 4.161,7.452 4.363,7.264 4.659 C 7.150 4.840,7.041 5.288,7.012 5.696 L 6.990 6.000 7.590 6.000 L 8.190 6.000 8.231 5.652 C 8.263 5.386,8.286 5.300,8.328 5.282 C 8.465 5.226,10.123 5.196,12.150 5.213 C 14.125 5.229,14.626 5.248,14.686 5.308 C 14.754 5.376,14.768 6.049,14.758 8.673 C 14.752 10.255,14.734 11.584,14.720 11.625 C 14.688 11.710,14.565 11.750,14.225 11.785 L 14.000 11.808 13.994 12.304 C 13.990 12.577,13.987 12.841,13.985 12.892 L 13.983 12.983 14.267 12.972 C 15.225 12.935,15.696 12.625,15.885 11.907 C 15.973 11.574,15.999 10.807,15.999 8.550 C 15.999 5.249,15.967 4.924,15.594 4.516 C 15.416 4.321,15.244 4.217,14.933 4.113 C 14.761 4.055,14.557 4.051,11.600 4.045 C 9.127 4.039,8.399 4.047,8.214 4.081 M5.633 7.032 L 5.050 7.050 4.839 7.164 C 4.375 7.416,4.088 7.824,4.032 8.311 C 3.991 8.666,3.991 14.334,4.032 14.689 C 4.109 15.363,4.636 15.891,5.307 15.968 C 5.669 16.009,11.331 16.009,11.693 15.968 C 12.032 15.929,12.293 15.800,12.546 15.546 C 12.807 15.286,12.931 15.030,12.968 14.675 C 13.008 14.295,13.008 8.705,12.968 8.325 C 12.944 8.097,12.913 7.989,12.827 7.826 C 12.688 7.565,12.432 7.311,12.161 7.166 C 11.950 7.053,11.949 7.053,11.350 7.029 C 10.665 7.002,6.511 7.004,5.633 7.032 M11.710 8.293 L 11.800 8.387 11.800 11.500 L 11.800 14.613 11.710 14.707 L 11.621 14.800 8.504 14.800 L 5.387 14.800 5.293 14.710 L 5.200 14.621 5.200 11.504 L 5.200 8.387 5.290 8.293 L 5.379 8.200 8.500 8.200 L 11.621 8.200 11.710 8.293 " fill="#19191C" stroke="none" fill-rule="evenodd"></path></symbol><symbol viewBox="0 0 20 20" id="aw-icon-dark"><path d="M9.768 4.038 C 9.098 4.108,8.346 4.327,7.751 4.624 C 6.159 5.419,5.003 6.847,4.571 8.552 C 4.376 9.319,4.347 10.353,4.499 11.115 C 4.949 13.378,6.620 15.190,8.800 15.779 C 9.361 15.931,9.735 15.978,10.383 15.979 C 11.111 15.979,11.581 15.905,12.255 15.683 C 13.135 15.394,13.871 14.950,14.541 14.304 C 15.093 13.772,15.565 13.126,15.736 12.669 C 15.819 12.446,15.791 12.302,15.637 12.153 C 15.529 12.050,15.435 12.033,14.617 11.968 C 13.916 11.912,13.464 11.795,12.868 11.513 C 12.343 11.265,11.928 10.968,11.482 10.520 C 10.785 9.821,10.407 9.146,10.115 8.083 C 10.030 7.773,10.009 6.551,10.081 6.133 C 10.147 5.753,10.309 5.257,10.513 4.811 C 10.706 4.387,10.718 4.332,10.650 4.188 C 10.560 3.999,10.403 3.972,9.768 4.038 M8.930 5.742 C 8.490 8.031,9.282 10.288,11.042 11.755 C 11.783 12.373,12.653 12.808,13.578 13.024 C 13.783 13.071,13.963 13.122,13.979 13.136 C 14.020 13.172,13.601 13.580,13.253 13.840 C 12.721 14.238,11.965 14.576,11.300 14.712 C 10.362 14.904,9.261 14.762,8.335 14.330 C 7.698 14.032,6.982 13.448,6.551 12.873 C 5.488 11.456,5.303 9.477,6.086 7.893 C 6.609 6.834,7.482 6.019,8.582 5.561 C 9.016 5.380,9.001 5.372,8.930 5.742 " stroke="none" fill-rule="evenodd"></path></symbol><symbol viewBox="0 0 20 20" id="aw-icon-discord"><path d="M12.193 3.756 L 11.959 4.239 11.855 4.220 C 11.134 4.086,8.661 4.088,8.109 4.222 C 8.041 4.239,8.014 4.198,7.819 3.787 C 7.700 3.537,7.580 3.323,7.550 3.312 C 7.437 3.269,6.288 3.548,5.487 3.814 C 4.902 4.008,4.197 4.297,4.028 4.411 C 3.809 4.560,2.877 6.255,2.468 7.250 C 1.906 8.619,1.537 10.110,1.399 11.571 C 1.355 12.031,1.349 14.016,1.390 14.297 L 1.417 14.478 1.817 14.756 C 2.891 15.503,4.033 16.093,5.300 16.554 L 5.783 16.730 5.841 16.662 C 5.944 16.540,6.389 15.821,6.564 15.495 L 6.733 15.179 6.475 15.068 C 6.036 14.879,5.300 14.494,5.300 14.453 C 5.300 14.431,5.372 14.359,5.461 14.291 L 5.622 14.168 6.019 14.335 C 7.346 14.891,8.584 15.144,9.983 15.146 C 11.431 15.149,12.588 14.912,14.015 14.320 L 14.379 14.169 14.540 14.291 C 14.628 14.359,14.700 14.431,14.700 14.452 C 14.700 14.495,14.080 14.823,13.600 15.034 C 13.426 15.110,13.278 15.178,13.271 15.184 C 13.251 15.205,13.729 16.030,13.970 16.388 L 14.200 16.732 14.610 16.586 C 15.555 16.251,16.547 15.790,17.267 15.351 C 17.725 15.072,18.438 14.585,18.524 14.493 C 18.594 14.419,18.601 14.366,18.635 13.699 C 18.797 10.548,17.978 7.525,16.191 4.679 L 16.018 4.403 15.617 4.236 C 14.582 3.804,13.900 3.591,12.797 3.352 L 12.426 3.272 12.193 3.756 M7.600 8.986 C 7.836 9.063,8.101 9.267,8.292 9.519 C 8.501 9.794,8.595 10.025,8.644 10.378 C 8.755 11.191,8.380 11.968,7.716 12.300 C 7.494 12.411,7.467 12.417,7.133 12.417 C 6.808 12.417,6.767 12.409,6.556 12.309 C 6.134 12.109,5.749 11.620,5.630 11.133 C 5.567 10.875,5.575 10.393,5.647 10.152 C 5.831 9.532,6.301 9.039,6.808 8.934 C 6.991 8.896,7.407 8.923,7.600 8.986 M13.152 8.936 C 14.114 9.112,14.682 10.315,14.296 11.355 C 13.906 12.404,12.738 12.768,11.963 12.083 C 11.485 11.660,11.267 11.044,11.357 10.366 C 11.406 9.990,11.591 9.620,11.865 9.346 C 12.253 8.958,12.624 8.840,13.152 8.936 " fill="#19191C" stroke="none" fill-rule="evenodd"></path></symbol><symbol viewBox="0 0 20 20" id="aw-icon-divider-vertical"><path d="M9.817 3.439 C 9.662 3.497,9.538 3.595,9.474 3.711 C 9.420 3.810,9.416 4.204,9.407 9.985 L 9.398 16.152 9.501 16.307 C 9.754 16.690,10.246 16.690,10.499 16.308 L 10.602 16.153 10.593 10.001 C 10.584 4.337,10.579 3.840,10.528 3.727 C 10.422 3.494,10.061 3.348,9.817 3.439 " stroke="none" fill-rule="evenodd"></path></symbol><symbol viewBox="0 0 20 20" id="aw-icon-download"><path d="M9.571 4.189 C 9.528 4.198,9.429 4.269,9.352 4.347 C 9.231 4.467,9.208 4.514,9.189 4.669 C 9.177 4.768,9.167 6.078,9.167 7.579 L 9.167 10.308 7.896 9.051 C 7.197 8.360,6.578 7.766,6.521 7.731 C 6.335 7.617,5.981 7.680,5.826 7.855 C 5.677 8.022,5.631 8.283,5.714 8.481 C 5.766 8.608,7.704 10.582,8.826 11.654 C 9.598 12.391,9.637 12.415,9.912 12.334 C 10.030 12.300,10.305 12.038,11.819 10.522 C 12.792 9.547,13.647 8.677,13.718 8.588 C 13.831 8.447,13.848 8.404,13.848 8.253 C 13.848 7.841,13.410 7.549,13.047 7.720 C 12.964 7.758,12.450 8.244,11.642 9.046 L 10.367 10.311 10.365 7.831 C 10.364 6.466,10.351 5.158,10.337 4.923 C 10.307 4.456,10.275 4.375,10.075 4.257 C 9.969 4.195,9.708 4.160,9.571 4.189 M4.992 14.696 C 4.487 14.716,4.462 14.720,4.355 14.806 C 4.078 15.027,4.066 15.403,4.327 15.678 C 4.518 15.880,4.201 15.867,9.007 15.863 C 11.432 15.862,13.763 15.850,14.186 15.838 L 14.955 15.817 15.078 15.723 C 15.238 15.601,15.300 15.474,15.300 15.267 C 15.300 15.046,15.235 14.896,15.090 14.786 L 14.974 14.697 10.245 14.686 C 7.644 14.680,5.280 14.685,4.992 14.696 " stroke="none" fill-rule="evenodd"></path></symbol><symbol viewBox="0 0 20 20" id="aw-icon-github"><path d="M9.267 1.102 C 8.768 1.129,8.132 1.244,7.537 1.416 C 5.862 1.898,4.177 3.035,3.066 4.433 C 2.178 5.552,1.522 6.968,1.235 8.388 C 1.076 9.175,1.016 10.427,1.101 11.183 C 1.481 14.572,3.536 17.395,6.571 18.696 C 7.249 18.987,7.452 19.007,7.648 18.802 C 7.781 18.663,7.805 18.445,7.779 17.572 L 7.756 16.794 7.667 16.812 C 7.145 16.916,6.498 16.919,6.117 16.818 C 5.780 16.730,5.448 16.546,5.198 16.310 C 4.995 16.119,4.939 16.036,4.729 15.621 C 4.356 14.886,4.200 14.682,3.742 14.337 C 3.471 14.131,3.392 14.001,3.480 13.903 C 3.603 13.768,3.994 13.795,4.357 13.965 C 4.623 14.089,4.948 14.395,5.176 14.733 C 5.434 15.116,5.561 15.259,5.782 15.417 C 6.309 15.793,6.831 15.839,7.639 15.580 L 7.794 15.530 7.848 15.287 C 7.906 15.025,8.080 14.632,8.216 14.454 C 8.262 14.393,8.300 14.330,8.300 14.313 C 8.300 14.295,8.141 14.254,7.947 14.222 C 6.825 14.032,6.072 13.696,5.471 13.119 C 5.156 12.816,4.973 12.558,4.768 12.129 C 4.415 11.387,4.324 10.887,4.340 9.771 L 4.351 8.950 4.458 8.643 C 4.601 8.232,4.827 7.790,5.033 7.516 L 5.204 7.292 5.130 6.988 C 4.999 6.443,5.032 5.733,5.218 5.107 C 5.294 4.850,5.335 4.822,5.597 4.850 C 6.123 4.906,6.756 5.161,7.436 5.590 L 7.756 5.791 8.184 5.697 C 8.815 5.559,9.097 5.534,10.000 5.534 C 10.902 5.534,11.185 5.559,11.815 5.697 L 12.241 5.791 12.596 5.573 C 12.999 5.326,13.515 5.072,13.833 4.966 C 13.966 4.921,14.173 4.887,14.368 4.876 L 14.686 4.858 14.727 4.950 C 14.750 5.000,14.806 5.184,14.851 5.358 C 14.962 5.783,14.969 6.598,14.867 7.024 L 14.801 7.298 14.969 7.520 C 15.260 7.904,15.545 8.533,15.634 8.989 C 15.700 9.324,15.658 10.807,15.573 11.167 C 15.338 12.158,14.855 12.940,14.183 13.416 C 13.611 13.821,12.814 14.112,11.942 14.235 C 11.790 14.257,11.667 14.282,11.667 14.291 C 11.667 14.300,11.710 14.362,11.762 14.429 C 11.876 14.572,12.076 14.962,12.133 15.150 C 12.160 15.238,12.187 15.856,12.213 16.983 C 12.242 18.209,12.264 18.704,12.294 18.758 C 12.351 18.861,12.504 18.933,12.666 18.933 C 13.040 18.933,14.308 18.333,15.038 17.810 C 16.311 16.899,17.294 15.749,17.967 14.383 C 18.465 13.374,18.749 12.419,18.886 11.299 C 18.955 10.730,18.937 9.401,18.852 8.867 C 18.731 8.102,18.456 7.151,18.158 6.469 C 17.884 5.842,17.425 5.064,17.016 4.533 C 16.620 4.020,15.797 3.214,15.260 2.814 C 13.962 1.846,12.220 1.177,10.846 1.117 C 10.045 1.082,9.701 1.078,9.267 1.102 " fill="#19191C" stroke="none" fill-rule="evenodd"></path></symbol><symbol viewBox="0 0 24 24" id="aw-icon-google"><path d="M11.347 3.042 C 8.914 3.258,6.617 4.457,5.054 6.327 C 3.765 7.870,3.000 9.983,3.000 12.000 C 3.000 14.024,3.763 16.131,5.048 17.660 C 5.663 18.391,6.325 18.981,7.100 19.490 C 8.193 20.207,9.468 20.690,10.841 20.907 C 11.464 21.006,12.975 21.006,13.642 20.908 C 17.636 20.318,20.293 17.660,20.907 13.640 C 21.026 12.857,20.995 10.961,20.855 10.470 C 20.836 10.404,20.594 10.400,16.497 10.400 L 12.160 10.400 12.160 12.120 L 12.160 13.840 14.640 13.840 L 17.120 13.840 17.120 13.924 C 17.120 14.042,16.903 14.677,16.776 14.929 C 16.358 15.762,15.552 16.537,14.702 16.922 C 13.747 17.355,12.475 17.535,11.440 17.383 C 9.237 17.060,7.463 15.452,6.895 13.260 C 6.788 12.848,6.781 12.769,6.781 12.020 C 6.780 11.389,6.795 11.157,6.851 10.920 C 7.113 9.821,7.607 8.913,8.342 8.181 C 9.137 7.389,10.083 6.881,11.180 6.658 C 11.627 6.567,12.675 6.554,13.120 6.635 C 13.905 6.776,14.789 7.170,15.374 7.639 L 15.705 7.906 17.017 6.623 L 18.329 5.340 18.009 5.070 C 16.219 3.560,13.802 2.825,11.347 3.042 " fill="#373B4D" stroke="none" fill-rule="evenodd"></path></symbol><symbol viewBox="0 0 20 20" id="aw-icon-hamburger-menu"><path d="M2.712 4.999 C 2.310 5.229,2.300 5.739,2.691 5.998 L 2.845 6.100 10.000 6.100 L 17.155 6.100 17.309 5.998 C 17.700 5.739,17.690 5.229,17.288 4.999 L 17.117 4.901 10.000 4.901 L 2.883 4.901 2.712 4.999 M2.712 13.999 C 2.310 14.229,2.300 14.739,2.691 14.998 L 2.845 15.100 10.000 15.100 L 17.155 15.100 17.309 14.998 C 17.700 14.739,17.690 14.229,17.288 13.999 L 17.117 13.901 10.000 13.901 L 2.883 13.901 2.712 13.999 " stroke="none" fill-rule="evenodd"></path></symbol><symbol viewBox="0 0 20 20" id="aw-icon-light"><path d="M9.786 2.451 C 9.630 2.510,9.546 2.581,9.472 2.717 C 9.424 2.802,9.417 2.943,9.417 3.703 L 9.417 4.589 9.512 4.727 C 9.620 4.882,9.830 5.000,10.000 5.000 C 10.149 5.000,10.370 4.890,10.457 4.772 C 10.590 4.592,10.606 4.459,10.594 3.617 C 10.585 2.927,10.575 2.802,10.524 2.708 C 10.395 2.471,10.049 2.351,9.786 2.451 M4.775 4.537 C 4.578 4.634,4.490 4.770,4.473 5.001 C 4.454 5.264,4.505 5.345,4.996 5.837 C 5.557 6.398,5.735 6.482,6.050 6.337 C 6.213 6.262,6.278 6.192,6.351 6.008 C 6.445 5.771,6.401 5.617,6.154 5.328 C 5.831 4.949,5.376 4.539,5.237 4.500 C 5.055 4.450,4.931 4.460,4.775 4.537 M14.701 4.517 C 14.637 4.546,14.381 4.776,14.132 5.027 C 13.744 5.420,13.673 5.508,13.635 5.645 C 13.595 5.786,13.597 5.828,13.645 5.980 C 13.706 6.176,13.793 6.273,13.974 6.348 C 14.269 6.471,14.436 6.394,14.951 5.894 C 15.417 5.443,15.533 5.279,15.533 5.071 C 15.533 4.873,15.424 4.654,15.282 4.566 C 15.131 4.472,14.852 4.449,14.701 4.517 M9.433 6.051 C 8.549 6.192,7.815 6.557,7.200 7.163 C 6.409 7.943,6.016 8.886,6.018 10.000 C 6.020 10.914,6.277 11.687,6.816 12.405 C 7.392 13.171,8.224 13.699,9.205 13.922 C 9.578 14.007,10.424 14.000,10.817 13.909 C 12.260 13.574,13.327 12.621,13.782 11.261 C 14.066 10.413,14.066 9.587,13.782 8.740 C 13.378 7.531,12.470 6.622,11.264 6.219 C 10.722 6.038,9.958 5.968,9.433 6.051 M10.700 7.304 C 10.838 7.338,11.085 7.433,11.250 7.516 C 12.304 8.044,12.880 9.109,12.761 10.310 C 12.592 12.003,10.889 13.158,9.257 12.684 C 8.262 12.396,7.564 11.684,7.296 10.683 C 7.197 10.311,7.196 9.693,7.295 9.317 C 7.594 8.183,8.562 7.351,9.733 7.222 C 9.945 7.198,10.446 7.241,10.700 7.304 M2.859 9.432 C 2.591 9.516,2.400 9.753,2.400 10.000 C 2.400 10.170,2.518 10.380,2.673 10.488 L 2.811 10.583 3.614 10.594 C 4.458 10.606,4.593 10.590,4.772 10.457 C 4.890 10.370,5.000 10.149,5.000 10.000 C 5.000 9.812,4.879 9.610,4.705 9.508 L 4.550 9.417 3.750 9.410 C 3.310 9.407,2.909 9.416,2.859 9.432 M15.459 9.432 C 15.191 9.516,15.000 9.753,15.000 10.000 C 15.000 10.170,15.118 10.380,15.273 10.488 L 15.411 10.583 16.214 10.594 C 17.058 10.606,17.193 10.590,17.372 10.457 C 17.490 10.370,17.600 10.149,17.600 10.000 C 17.600 9.812,17.479 9.610,17.305 9.508 L 17.150 9.417 16.350 9.410 C 15.910 9.407,15.509 9.416,15.459 9.432 M5.573 13.665 C 5.407 13.742,4.714 14.406,4.563 14.632 C 4.473 14.765,4.463 14.806,4.474 14.972 C 4.497 15.308,4.730 15.533,5.055 15.533 C 5.282 15.533,5.382 15.463,5.886 14.953 C 6.259 14.576,6.328 14.489,6.366 14.351 C 6.407 14.205,6.405 14.171,6.347 14.004 C 6.233 13.675,5.882 13.521,5.573 13.665 M13.930 13.677 C 13.667 13.816,13.543 14.118,13.638 14.388 C 13.689 14.531,14.466 15.344,14.667 15.464 C 14.912 15.610,15.263 15.525,15.431 15.279 C 15.538 15.123,15.562 14.853,15.483 14.699 C 15.398 14.536,14.752 13.885,14.522 13.731 C 14.289 13.575,14.148 13.563,13.930 13.677 M9.786 15.051 C 9.630 15.110,9.546 15.181,9.472 15.317 C 9.424 15.402,9.417 15.543,9.417 16.303 L 9.417 17.189 9.512 17.327 C 9.620 17.482,9.830 17.600,10.000 17.600 C 10.149 17.600,10.370 17.490,10.457 17.372 C 10.590 17.192,10.606 17.059,10.594 16.217 C 10.585 15.527,10.575 15.402,10.524 15.308 C 10.395 15.071,10.049 14.951,9.786 15.051 " fill="#19191C" stroke="none" fill-rule="evenodd"></path></symbol><symbol viewBox="0 0 20 20" id="aw-icon-linkedin"><path d="M3.433 1.696 C 2.618 1.717,2.616 1.717,2.436 1.812 C 2.010 2.036,1.744 2.415,1.697 2.867 C 1.682 3.004,1.669 6.284,1.668 10.154 L 1.667 17.192 1.799 17.457 C 1.958 17.774,2.240 18.061,2.518 18.188 C 2.672 18.259,2.782 18.279,3.144 18.302 C 3.744 18.341,16.295 18.340,16.896 18.301 C 17.306 18.275,17.401 18.257,17.552 18.184 C 17.773 18.076,18.094 17.738,18.221 17.478 L 18.317 17.283 18.326 10.283 C 18.331 6.261,18.322 3.127,18.305 2.915 C 18.281 2.622,18.256 2.510,18.186 2.372 C 18.071 2.146,17.893 1.970,17.626 1.821 L 17.412 1.701 10.831 1.688 C 7.211 1.681,3.882 1.684,3.433 1.696 M5.931 4.471 C 6.051 4.492,6.214 4.537,6.292 4.570 C 6.494 4.657,6.757 4.917,6.870 5.140 C 6.961 5.320,6.967 5.356,6.967 5.733 C 6.967 6.096,6.958 6.152,6.884 6.299 C 6.774 6.517,6.490 6.801,6.283 6.901 C 6.137 6.972,6.069 6.982,5.733 6.982 C 5.383 6.983,5.334 6.976,5.166 6.893 C 4.930 6.777,4.690 6.537,4.574 6.301 C 4.491 6.133,4.483 6.083,4.483 5.733 C 4.483 5.390,4.492 5.331,4.570 5.165 C 4.738 4.807,4.994 4.600,5.400 4.494 C 5.666 4.424,5.661 4.425,5.931 4.471 M13.583 8.019 C 14.547 8.280,15.222 9.048,15.453 10.146 C 15.532 10.524,15.565 11.546,15.566 13.625 L 15.567 15.567 14.354 15.567 L 13.141 15.567 13.125 13.275 C 13.109 11.052,13.107 10.977,13.038 10.767 C 12.836 10.149,12.505 9.886,11.933 9.889 C 11.468 9.891,11.078 10.092,10.838 10.453 C 10.614 10.791,10.621 10.708,10.608 13.258 L 10.596 15.567 9.415 15.567 L 8.233 15.567 8.233 11.850 L 8.233 8.133 9.417 8.133 L 10.600 8.133 10.600 8.652 L 10.600 9.171 10.798 8.907 C 11.192 8.385,11.733 8.050,12.317 7.966 C 12.608 7.924,13.348 7.955,13.583 8.019 M6.867 11.850 L 6.867 15.567 5.650 15.567 L 4.433 15.567 4.433 11.850 L 4.433 8.133 5.650 8.133 L 6.867 8.133 6.867 11.850 " fill="#19191C" stroke="none" fill-rule="evenodd"></path></symbol><symbol viewBox="0 0 20 20" id="aw-icon-location"><path d="M9.233 2.453 C 8.677 2.520,8.373 2.588,7.868 2.755 C 5.345 3.594,3.659 5.685,3.428 8.262 C 3.331 9.348,3.583 10.518,4.170 11.699 C 5.075 13.521,6.647 15.264,8.932 16.978 C 9.485 17.393,9.742 17.547,9.944 17.585 C 10.134 17.620,10.443 17.450,11.129 16.934 C 12.741 15.721,14.077 14.394,15.022 13.067 C 16.096 11.559,16.662 9.895,16.588 8.467 C 16.451 5.832,14.680 3.576,12.085 2.730 C 11.558 2.558,11.030 2.469,10.327 2.433 C 9.973 2.416,9.668 2.402,9.650 2.404 C 9.632 2.406,9.444 2.428,9.233 2.453 M10.505 3.635 C 11.834 3.770,13.022 4.321,13.917 5.218 C 14.772 6.075,15.254 7.116,15.368 8.350 C 15.521 9.997,14.691 11.824,12.915 13.747 C 12.235 14.484,10.989 15.577,10.159 16.165 L 10.002 16.276 9.813 16.147 C 9.709 16.075,9.420 15.853,9.170 15.654 C 7.008 13.925,5.595 12.198,4.937 10.474 C 4.448 9.194,4.520 7.764,5.137 6.522 C 6.089 4.606,8.308 3.412,10.505 3.635 M9.433 6.469 C 9.271 6.505,9.019 6.597,8.843 6.683 C 8.314 6.944,7.796 7.502,7.588 8.033 C 7.447 8.395,7.425 8.530,7.426 9.017 C 7.427 9.401,7.440 9.525,7.500 9.717 C 7.768 10.572,8.429 11.233,9.283 11.499 C 9.477 11.560,9.599 11.572,10.000 11.573 C 10.554 11.574,10.754 11.527,11.217 11.290 C 11.594 11.096,12.096 10.594,12.290 10.217 C 12.524 9.760,12.572 9.555,12.573 9.000 C 12.573 8.570,12.564 8.487,12.487 8.250 C 12.227 7.447,11.590 6.794,10.814 6.533 C 10.631 6.472,10.074 6.400,9.817 6.404 C 9.762 6.405,9.589 6.434,9.433 6.469 M10.445 7.688 C 10.775 7.788,11.083 8.057,11.253 8.392 C 11.345 8.573,11.350 8.606,11.350 9.000 C 11.350 9.396,11.345 9.426,11.251 9.612 C 11.125 9.861,10.848 10.138,10.606 10.257 C 10.429 10.344,10.389 10.350,10.000 10.350 C 9.606 10.350,9.572 10.345,9.384 10.252 C 8.725 9.928,8.431 9.094,8.735 8.407 C 8.826 8.200,9.175 7.850,9.392 7.748 C 9.694 7.605,10.098 7.582,10.445 7.688 " stroke="none" fill-rule="evenodd"></path></symbol><symbol viewBox="0 0 20 20" id="aw-icon-logout-left"><path d="M15.317 4.439 C 15.162 4.497,15.038 4.595,14.974 4.711 C 14.920 4.810,14.916 5.153,14.907 9.984 L 14.898 15.152 15.001 15.307 C 15.254 15.690,15.746 15.690,15.999 15.307 L 16.102 15.153 16.093 10.001 C 16.082 4.239,16.103 4.691,15.843 4.519 C 15.695 4.421,15.461 4.385,15.317 4.439 M7.271 5.966 C 7.166 6.015,6.634 6.525,5.334 7.825 C 4.348 8.810,3.510 9.669,3.471 9.733 C 3.381 9.883,3.378 10.113,3.464 10.255 C 3.543 10.385,5.909 12.779,6.688 13.518 C 7.292 14.091,7.348 14.126,7.600 14.083 C 8.026 14.011,8.233 13.510,7.977 13.171 C 7.926 13.105,7.339 12.499,6.671 11.825 L 5.456 10.600 8.306 10.600 L 11.155 10.600 11.309 10.498 C 11.700 10.239,11.690 9.729,11.288 9.499 L 11.117 9.401 8.286 9.400 L 5.456 9.400 6.671 8.175 C 7.339 7.501,7.926 6.896,7.976 6.830 C 8.330 6.363,7.803 5.717,7.271 5.966 " stroke="none" fill-rule="evenodd"></path></symbol><symbol viewBox="0 0 20 20" id="aw-icon-logout-right"><path d="M4.817 4.439 C 4.662 4.497,4.538 4.595,4.474 4.711 C 4.420 4.810,4.416 5.153,4.407 9.984 L 4.398 15.152 4.501 15.307 C 4.754 15.690,5.246 15.690,5.499 15.307 L 5.602 15.153 5.593 10.001 C 5.582 4.239,5.603 4.691,5.343 4.519 C 5.195 4.421,4.961 4.385,4.817 4.439 M12.317 5.941 C 12.147 6.001,12.028 6.104,11.964 6.247 C 11.886 6.418,11.884 6.572,11.957 6.727 C 11.990 6.795,12.557 7.395,13.278 8.124 L 14.542 9.400 11.713 9.400 L 8.883 9.401 8.712 9.499 C 8.310 9.729,8.300 10.239,8.691 10.498 L 8.845 10.600 11.697 10.600 L 14.550 10.600 13.448 11.708 C 11.995 13.169,11.943 13.227,11.915 13.414 C 11.855 13.814,12.203 14.150,12.608 14.082 C 12.723 14.062,12.824 13.981,13.346 13.484 C 14.162 12.707,16.457 10.384,16.536 10.254 C 16.622 10.113,16.619 9.882,16.529 9.733 C 16.490 9.669,15.652 8.810,14.665 7.825 C 12.846 6.007,12.724 5.898,12.500 5.903 C 12.454 5.904,12.372 5.921,12.317 5.941 " stroke="none" fill-rule="evenodd"></path></symbol><symbol viewBox="0 0 24 24" id="aw-icon-microsoft"><path d="M3.000 7.080 L 3.000 11.160 7.080 11.160 L 11.160 11.160 11.160 7.080 L 11.160 3.000 7.080 3.000 L 3.000 3.000 3.000 7.080 M12.840 7.080 L 12.840 11.160 16.920 11.160 L 21.000 11.160 21.000 7.080 L 21.000 3.000 16.920 3.000 L 12.840 3.000 12.840 7.080 M3.000 16.920 L 3.000 21.000 7.080 21.000 L 11.160 21.000 11.160 16.920 L 11.160 12.840 7.080 12.840 L 3.000 12.840 3.000 16.920 M12.840 16.920 L 12.840 21.000 16.920 21.000 L 21.000 21.000 21.000 16.920 L 21.000 12.840 16.920 12.840 L 12.840 12.840 12.840 16.920 " stroke="none" fill="black" fill-rule="evenodd"></path></symbol><symbol viewBox="0 0 20 20" id="aw-icon-minus"><path d="M5.712 9.499 C 5.310 9.729,5.300 10.239,5.691 10.498 L 5.845 10.600 10.003 10.600 L 14.161 10.600 14.303 10.492 C 14.529 10.318,14.583 10.223,14.582 10.005 C 14.581 9.759,14.490 9.608,14.271 9.489 L 14.108 9.400 9.995 9.400 L 5.883 9.401 5.712 9.499 " stroke="none" fill-rule="evenodd"></path></symbol><symbol viewBox="0 0 20 20" id="aw-icon-plus"><path d="M9.817 5.439 C 9.662 5.497,9.538 5.595,9.474 5.711 C 9.422 5.807,9.416 5.982,9.407 7.607 L 9.397 9.397 7.623 9.407 L 5.850 9.417 5.695 9.508 C 5.426 9.666,5.332 9.971,5.467 10.250 C 5.544 10.410,5.670 10.513,5.853 10.563 C 5.939 10.587,6.564 10.600,7.692 10.600 L 9.400 10.600 9.400 12.308 C 9.400 14.082,9.408 14.190,9.543 14.372 C 9.630 14.490,9.851 14.600,10.000 14.600 C 10.149 14.600,10.370 14.490,10.457 14.372 C 10.592 14.190,10.600 14.082,10.600 12.308 L 10.600 10.600 12.308 10.600 C 13.436 10.600,14.061 10.587,14.147 10.563 C 14.330 10.513,14.456 10.410,14.533 10.250 C 14.668 9.971,14.574 9.666,14.305 9.508 L 14.150 9.417 12.377 9.407 L 10.603 9.397 10.593 7.607 C 10.584 5.965,10.578 5.808,10.524 5.708 C 10.402 5.485,10.051 5.352,9.817 5.439 " stroke="none" fill-rule="evenodd"></path></symbol><symbol viewBox="0 0 20 20" id="aw-icon-product-hunt"><path d="M9.350 1.038 C 7.313 1.152,5.191 2.109,3.733 3.571 C 3.151 4.155,2.864 4.495,2.519 5.012 C 0.891 7.451,0.552 10.534,1.616 13.253 C 1.916 14.022,2.487 15.024,2.938 15.576 C 3.159 15.847,4.055 16.748,4.342 16.989 C 4.946 17.496,5.920 18.061,6.747 18.384 C 9.464 19.447,12.550 19.109,14.984 17.484 C 15.531 17.118,15.813 16.878,16.418 16.261 C 17.019 15.650,17.120 15.528,17.483 14.985 C 19.498 11.967,19.498 8.032,17.481 5.012 C 17.137 4.497,16.863 4.171,16.283 3.588 C 14.767 2.065,12.609 1.111,10.533 1.047 C 10.231 1.038,9.938 1.027,9.883 1.022 C 9.828 1.017,9.588 1.025,9.350 1.038 M10.883 5.531 L 11.883 5.556 12.205 5.674 C 13.023 5.973,13.647 6.527,14.020 7.283 C 14.255 7.762,14.310 8.021,14.310 8.650 C 14.310 9.279,14.255 9.538,14.020 10.017 C 13.613 10.842,12.894 11.440,11.988 11.705 C 11.766 11.770,11.644 11.775,10.192 11.791 L 8.633 11.808 8.633 13.154 L 8.633 14.500 7.750 14.500 L 6.867 14.500 6.867 10.000 L 6.867 5.500 8.375 5.503 C 9.205 5.504,10.333 5.517,10.883 5.531 M8.633 8.645 L 8.633 10.000 9.908 9.999 C 11.253 9.999,11.556 9.976,11.800 9.859 C 12.013 9.757,12.303 9.454,12.416 9.217 C 12.539 8.958,12.568 8.571,12.486 8.287 C 12.372 7.896,12.148 7.635,11.751 7.434 L 11.535 7.324 10.084 7.307 L 8.633 7.290 8.633 8.645 " fill="#19191C" stroke="none" fill-rule="evenodd"></path></symbol><symbol viewBox="0 0 20 20" id="aw-icon-search"><path d="M9.083 4.022 C 8.001 4.151,7.277 4.399,6.483 4.915 C 5.337 5.659,4.564 6.739,4.180 8.133 C 3.965 8.912,3.958 10.057,4.164 10.817 C 4.527 12.155,5.192 13.142,6.267 13.940 C 7.308 14.713,8.655 15.084,10.007 14.972 C 10.776 14.907,11.662 14.616,12.355 14.199 L 12.640 14.028 13.728 15.109 C 14.566 15.941,14.846 16.199,14.944 16.232 C 15.421 16.388,15.862 15.869,15.643 15.407 C 15.612 15.341,15.131 14.826,14.574 14.261 C 13.900 13.577,13.571 13.220,13.587 13.192 C 13.601 13.169,13.690 13.053,13.785 12.933 C 14.319 12.259,14.699 11.450,14.901 10.550 C 14.965 10.266,14.976 10.119,14.977 9.550 C 14.978 8.756,14.932 8.455,14.715 7.803 C 14.539 7.275,14.340 6.858,14.076 6.461 C 13.155 5.078,11.664 4.194,9.982 4.035 C 9.631 4.001,9.295 3.997,9.083 4.022 M9.782 5.235 C 10.686 5.296,11.370 5.546,12.059 6.065 C 12.904 6.702,13.504 7.648,13.714 8.674 C 13.785 9.022,13.786 9.976,13.715 10.318 C 13.242 12.608,11.061 14.123,8.795 13.735 C 7.122 13.449,5.809 12.246,5.339 10.569 C 5.254 10.266,5.250 10.212,5.250 9.500 C 5.251 8.655,5.277 8.508,5.533 7.880 C 6.109 6.469,7.359 5.490,8.889 5.252 C 9.263 5.194,9.200 5.195,9.782 5.235 " fill="#19191C" stroke="none" fill-rule="evenodd"></path></symbol><symbol viewBox="0 0 20 20" id="aw-icon-star"><path d="M9.625 3.082 C 9.391 3.172,9.207 3.327,9.080 3.543 C 9.013 3.657,8.621 4.405,8.210 5.206 C 7.799 6.006,7.445 6.677,7.422 6.695 C 7.400 6.714,7.014 6.784,6.566 6.851 C 4.294 7.188,3.781 7.273,3.629 7.338 C 3.445 7.418,3.156 7.706,3.076 7.891 C 3.001 8.064,3.000 8.572,3.074 8.740 C 3.146 8.903,3.476 9.243,4.727 10.443 C 5.301 10.994,5.783 11.469,5.800 11.499 C 5.829 11.554,5.778 11.881,5.416 13.983 C 5.330 14.478,5.259 14.981,5.258 15.100 C 5.249 15.718,5.711 16.170,6.361 16.180 L 6.605 16.183 8.303 15.325 L 10.001 14.467 11.697 15.325 L 13.393 16.183 13.655 16.181 C 13.985 16.178,14.222 16.074,14.448 15.832 C 14.789 15.468,14.805 15.284,14.599 14.083 C 14.215 11.833,14.172 11.553,14.201 11.499 C 14.217 11.468,14.715 10.978,15.307 10.410 C 17.018 8.767,16.983 8.810,16.980 8.313 C 16.977 7.955,16.919 7.810,16.675 7.560 C 16.409 7.287,16.484 7.303,13.443 6.852 C 12.999 6.786,12.616 6.724,12.593 6.715 C 12.569 6.706,12.281 6.170,11.953 5.524 C 11.249 4.139,10.921 3.521,10.816 3.381 C 10.774 3.325,10.644 3.228,10.528 3.166 C 10.343 3.067,10.281 3.052,10.033 3.044 C 9.846 3.037,9.708 3.050,9.625 3.082 M10.720 5.775 C 11.467 7.250,11.648 7.554,11.880 7.727 C 12.061 7.862,12.168 7.883,14.124 8.166 C 14.890 8.277,15.545 8.379,15.579 8.394 C 15.631 8.415,15.521 8.534,14.912 9.117 C 13.126 10.827,13.040 10.922,12.969 11.241 C 12.923 11.447,12.965 11.765,13.268 13.486 C 13.399 14.230,13.497 14.847,13.486 14.858 C 13.475 14.869,12.750 14.517,11.875 14.076 C 10.790 13.529,10.234 13.266,10.128 13.250 C 10.021 13.234,9.912 13.244,9.778 13.283 C 9.671 13.314,8.890 13.690,8.042 14.119 C 7.148 14.570,6.500 14.880,6.500 14.855 C 6.500 14.831,6.583 14.340,6.685 13.764 C 7.090 11.465,7.102 11.341,6.956 11.033 C 6.864 10.838,6.573 10.540,5.088 9.117 C 4.479 8.534,4.369 8.415,4.421 8.394 C 4.455 8.379,5.110 8.277,5.876 8.166 C 7.866 7.878,7.940 7.863,8.128 7.717 C 8.362 7.537,8.520 7.270,9.280 5.772 C 9.663 5.018,9.987 4.400,10.000 4.400 C 10.013 4.400,10.337 5.019,10.720 5.775 " stroke="none" fill-rule="evenodd"></path></symbol><symbol viewBox="0 0 20 20" id="aw-icon-twitter"><path d="M12.950 2.800 C 12.377 2.874,11.721 3.147,11.226 3.518 C 10.497 4.065,10.005 4.852,9.831 5.750 C 9.779 6.015,9.769 6.712,9.812 7.030 L 9.841 7.244 9.529 7.221 C 8.770 7.167,7.759 6.956,6.981 6.688 C 5.196 6.073,3.671 5.065,2.442 3.687 L 2.208 3.425 2.123 3.571 C 1.906 3.946,1.700 4.762,1.700 5.250 C 1.700 5.573,1.792 6.087,1.911 6.436 C 2.118 7.040,2.517 7.616,3.026 8.046 C 3.303 8.281,3.305 8.283,3.203 8.294 C 3.001 8.314,2.147 8.093,1.860 7.946 C 1.646 7.837,1.629 7.900,1.720 8.435 C 1.963 9.848,2.904 10.933,4.276 11.382 C 4.516 11.460,4.590 11.497,4.545 11.514 C 4.450 11.551,3.792 11.599,3.373 11.599 C 2.943 11.600,2.957 11.582,3.121 11.908 C 3.360 12.382,3.555 12.661,3.864 12.967 C 4.506 13.602,5.142 13.912,6.125 14.068 C 6.258 14.089,6.367 14.118,6.367 14.133 C 6.367 14.172,5.849 14.508,5.443 14.734 C 4.813 15.084,3.831 15.430,3.133 15.546 C 2.608 15.633,1.946 15.676,1.475 15.653 C 1.232 15.641,1.033 15.638,1.033 15.646 C 1.033 15.669,1.518 15.942,1.890 16.129 C 2.964 16.667,4.222 17.039,5.452 17.183 C 5.955 17.242,7.252 17.251,7.771 17.199 C 10.059 16.971,12.127 16.075,13.679 14.640 C 15.335 13.109,16.338 11.429,16.902 9.243 C 17.099 8.480,17.199 7.648,17.201 6.767 L 17.201 6.350 17.392 6.217 C 17.776 5.948,19.065 4.585,18.997 4.519 C 18.989 4.512,18.743 4.586,18.450 4.684 C 17.950 4.850,17.116 5.049,17.013 5.027 C 16.988 5.021,17.089 4.927,17.238 4.817 C 17.532 4.600,17.824 4.301,18.055 3.977 C 18.289 3.650,18.567 3.067,18.488 3.067 C 18.481 3.067,18.275 3.163,18.030 3.281 C 17.584 3.495,16.897 3.741,16.442 3.849 L 16.201 3.907 16.025 3.749 C 15.507 3.283,14.838 2.945,14.218 2.835 C 13.934 2.785,13.225 2.765,12.950 2.800 " fill="#19191C" stroke="none" fill-rule="evenodd"></path></symbol><symbol viewBox="0 0 20 20" id="aw-icon-youtube"><path d="M8.133 4.054 C 6.205 4.082,4.495 4.155,3.817 4.237 C 2.886 4.349,2.308 4.775,1.997 5.579 C 1.609 6.583,1.419 8.582,1.499 10.799 C 1.577 12.940,1.714 13.910,2.033 14.591 C 2.315 15.193,2.928 15.603,3.733 15.729 C 5.386 15.988,10.760 16.038,14.883 15.833 C 16.325 15.761,16.606 15.719,17.027 15.514 C 17.398 15.332,17.670 15.058,17.851 14.686 C 18.166 14.033,18.368 13.003,18.470 11.519 C 18.521 10.774,18.491 8.630,18.419 7.941 C 18.243 6.238,17.966 5.250,17.555 4.857 C 17.073 4.396,16.605 4.248,15.383 4.168 C 14.167 4.089,10.081 4.025,8.133 4.054 M10.067 8.324 C 12.173 9.449,12.776 9.789,12.758 9.844 C 12.751 9.866,12.641 9.941,12.514 10.011 C 12.269 10.146,10.238 11.205,9.025 11.830 L 8.300 12.203 8.300 9.820 L 8.300 7.436 8.758 7.653 C 9.010 7.772,9.599 8.074,10.067 8.324 " fill="#19191C" stroke="none" fill-rule="evenodd"></path></symbol></svg>