<svg xmlns="http://www.w3.org/2000/svg" xmlns:xlink="http://www.w3.org/1999/xlink" width="0" height="0" style="display:none;"><symbol viewBox="0 0 24 24" id="aw-icon-apple"><path d="M15.220 2.080 C 13.775 2.408,12.526 3.405,11.900 4.731 C 11.663 5.233,11.563 5.639,11.533 6.230 L 11.508 6.720 11.756 6.720 C 12.299 6.720,13.026 6.488,13.555 6.146 C 14.106 5.790,14.879 4.953,15.219 4.345 C 15.610 3.645,15.901 2.179,15.677 2.037 C 15.605 1.992,15.605 1.992,15.220 2.080 M7.332 6.897 C 5.813 7.185,4.368 8.318,3.659 9.778 C 2.749 11.651,2.792 14.039,3.785 16.760 C 4.016 17.392,4.608 18.543,5.034 19.185 C 5.536 19.942,5.831 20.315,6.336 20.834 C 7.167 21.687,7.684 21.968,8.415 21.966 C 8.817 21.965,9.068 21.909,10.033 21.604 C 11.029 21.290,11.153 21.267,11.900 21.265 C 12.625 21.263,12.702 21.278,13.800 21.620 C 14.944 21.976,15.262 22.019,15.812 21.895 C 16.317 21.780,16.661 21.594,17.148 21.172 C 17.873 20.543,18.953 19.031,19.476 17.912 C 19.753 17.320,19.970 16.763,19.946 16.702 C 19.936 16.674,19.811 16.586,19.671 16.507 C 19.073 16.173,18.333 15.510,17.996 15.006 C 17.571 14.371,17.344 13.771,17.276 13.105 C 17.184 12.202,17.299 11.406,17.621 10.728 C 17.938 10.059,18.415 9.500,19.114 8.980 C 19.291 8.848,19.437 8.730,19.438 8.717 C 19.442 8.666,19.123 8.331,18.774 8.020 C 18.172 7.483,17.507 7.142,16.668 6.939 C 16.297 6.849,16.180 6.840,15.380 6.841 C 14.349 6.841,14.381 6.835,12.985 7.282 C 12.035 7.586,11.973 7.600,11.616 7.600 C 11.272 7.600,11.188 7.582,10.551 7.377 C 9.103 6.910,8.931 6.872,8.240 6.856 C 7.829 6.847,7.523 6.861,7.332 6.897 " fill="#373B4D" stroke="none" fill-rule="evenodd"></path></symbol><symbol viewBox="0 0 20 20" id="aw-icon-arrow-down"><path d="" stroke="none" fill-rule="evenodd" fill="black"></path></symbol><symbol viewBox="0 0 20 20" id="aw-icon-arrow-ext-link"><path d="" stroke="none" fill-rule="evenodd" fill="black"></path></symbol><symbol viewBox="0 0 20 20" id="aw-icon-arrow-left"><path d="" stroke="none" fill-rule="evenodd" fill="black"></path></symbol><symbol viewBox="0 0 20 20" id="aw-icon-arrow-right"><path d="" stroke="none" fill-rule="evenodd" fill="black"></path></symbol><symbol viewBox="0 0 20 20" id="aw-icon-arrow-up"><path d="" stroke="none" fill-rule="evenodd" fill="black"></path></symbol><symbol viewBox="0 0 20 20" id="aw-icon-calendar"><path d="" stroke="none" fill-rule="evenodd" fill="black"></path></symbol><symbol viewBox="0 0 20 20" id="aw-icon-check"><path d="M14.244 5.465 C 14.118 5.522,13.813 5.916,11.250 9.333 C 9.176 12.099,8.385 13.129,8.356 13.106 C 5.600 10.841,5.681 10.899,5.403 10.950 C 5.130 10.999,4.899 11.268,4.901 11.536 C 4.903 11.818,4.927 11.843,6.597 13.214 C 7.461 13.924,8.220 14.526,8.283 14.552 C 8.438 14.617,8.589 14.611,8.756 14.535 C 8.882 14.478,9.204 14.061,11.952 10.398 C 13.632 8.157,15.028 6.274,15.054 6.213 C 15.116 6.063,15.111 5.910,15.037 5.750 C 14.964 5.591,14.890 5.520,14.725 5.451 C 14.562 5.383,14.414 5.388,14.244 5.465 " stroke="none" fill-rule="evenodd" fill="black"></path></symbol><symbol viewBox="0 0 20 20" id="aw-icon-chevron-down"><path d="M5.250 7.586 C 5.095 7.666,5.007 7.764,4.947 7.920 C 4.878 8.101,4.901 8.201,5.064 8.417 C 5.409 8.875,9.221 12.688,9.678 13.032 C 9.891 13.192,9.990 13.219,10.140 13.156 C 10.299 13.090,11.269 12.156,13.269 10.145 C 14.311 9.097,14.976 8.404,15.011 8.328 C 15.124 8.080,15.051 7.790,14.838 7.645 C 14.686 7.541,14.435 7.513,14.287 7.584 C 14.153 7.647,13.183 8.580,11.294 10.461 L 10.005 11.745 8.361 10.117 C 6.361 8.137,5.801 7.613,5.637 7.567 C 5.469 7.520,5.366 7.525,5.250 7.586 " fill="#19191C" stroke="none" fill-rule="evenodd"></path></symbol><symbol viewBox="0 0 20 20" id="aw-icon-chevron-left"><path d="M11.577 5.729 C 10.890 6.364,8.076 9.177,7.622 9.681 C 7.406 9.921,7.218 10.162,7.197 10.225 C 7.123 10.451,7.164 10.518,7.763 11.154 C 8.620 12.064,11.689 15.102,11.929 15.278 C 12.067 15.379,12.175 15.433,12.238 15.433 C 12.460 15.433,12.691 15.267,12.786 15.038 C 12.850 14.886,12.845 14.770,12.771 14.649 C 12.671 14.484,11.715 13.484,10.110 11.865 L 8.604 10.346 9.505 9.448 C 10.947 8.011,12.612 6.289,12.727 6.115 C 12.855 5.923,12.862 5.797,12.756 5.597 C 12.657 5.411,12.528 5.337,12.261 5.312 L 12.049 5.292 11.577 5.729 " fill="#19191C" stroke="none" fill-rule="evenodd"></path></symbol><symbol viewBox="0 0 20 20" id="aw-icon-chevron-right"><path d="M7.517 5.339 C 7.332 5.441,7.167 5.683,7.167 5.850 C 7.167 6.075,7.339 6.265,9.690 8.634 L 11.397 10.354 10.495 11.252 C 9.053 12.689,7.388 14.411,7.273 14.585 C 7.214 14.673,7.167 14.788,7.167 14.840 C 7.167 15.158,7.543 15.477,7.850 15.419 C 8.007 15.389,8.597 14.838,10.350 13.084 C 11.985 11.448,12.791 10.598,12.820 10.481 C 12.861 10.319,12.801 10.178,12.578 9.913 C 12.230 9.498,8.125 5.419,7.991 5.356 C 7.858 5.293,7.616 5.284,7.517 5.339 " fill="#19191C" stroke="none" fill-rule="evenodd"></path></symbol><symbol viewBox="0 0 20 20" id="aw-icon-chevron-up"><path d="M9.623 7.717 C 9.005 8.227,5.441 11.798,5.069 12.280 C 4.948 12.438,4.922 12.495,4.922 12.614 C 4.922 12.789,5.006 12.940,5.178 13.080 C 5.281 13.163,5.337 13.183,5.464 13.183 C 5.600 13.183,5.649 13.163,5.818 13.033 C 6.063 12.845,6.901 12.035,8.639 10.304 L 9.995 8.955 11.723 10.667 C 12.673 11.608,13.635 12.547,13.861 12.752 C 14.335 13.184,14.461 13.245,14.686 13.151 C 14.969 13.033,15.143 12.742,15.073 12.506 C 15.021 12.335,14.520 11.791,12.981 10.237 C 11.632 8.874,10.497 7.785,10.264 7.628 C 10.034 7.474,9.895 7.493,9.623 7.717 " fill="#19191C" stroke="none" fill-rule="evenodd"></path></symbol><symbol viewBox="0 0 20 20" id="aw-icon-close"><path d="" stroke="none" fill-rule="evenodd" fill="black"></path></symbol><symbol viewBox="0 0 20 20" id="aw-icon-copy"><path d="M8.299 4.099 C 8.060 4.119,7.976 4.142,7.775 4.248 C 7.454 4.416,7.264 4.624,7.169 4.909 C 7.087 5.157,7.000 5.642,7.000 5.858 L 7.000 6.000 7.594 6.000 L 8.189 6.000 8.241 5.679 C 8.272 5.492,8.316 5.337,8.347 5.306 C 8.394 5.258,8.692 5.253,11.241 5.251 C 12.804 5.251,14.213 5.262,14.372 5.278 C 14.627 5.302,14.663 5.314,14.681 5.378 C 14.737 5.567,14.764 7.512,14.740 9.494 C 14.718 11.314,14.706 11.642,14.665 11.669 C 14.588 11.718,14.399 11.766,14.192 11.789 L 14.000 11.809 14.000 12.388 L 14.000 12.967 14.230 12.967 C 15.148 12.967,15.736 12.557,15.896 11.805 C 15.978 11.419,16.007 10.244,15.989 8.017 C 15.971 5.725,15.952 5.354,15.831 4.953 C 15.774 4.765,15.728 4.687,15.575 4.527 C 15.459 4.406,15.309 4.293,15.179 4.229 C 14.973 4.127,14.958 4.125,14.276 4.098 C 13.455 4.065,8.709 4.066,8.299 4.099 M6.667 7.032 L 5.050 7.050 4.850 7.165 C 4.434 7.403,4.103 7.860,4.032 8.291 C 3.990 8.545,3.990 14.454,4.032 14.708 C 4.107 15.170,4.452 15.628,4.876 15.830 C 5.087 15.931,5.138 15.940,5.643 15.971 C 5.967 15.992,7.282 15.999,8.933 15.991 C 11.872 15.976,11.863 15.976,12.183 15.808 C 12.385 15.702,12.638 15.462,12.757 15.262 C 12.973 14.900,12.970 14.938,12.989 12.217 C 12.998 10.860,12.992 9.383,12.975 8.933 C 12.946 8.141,12.942 8.110,12.851 7.908 C 12.741 7.663,12.388 7.307,12.106 7.155 L 11.929 7.060 10.456 7.032 C 9.646 7.016,8.826 7.005,8.633 7.008 C 8.441 7.011,7.556 7.021,6.667 7.032 M11.710 8.293 L 11.800 8.387 11.800 11.500 L 11.800 14.613 11.710 14.707 L 11.621 14.800 8.504 14.800 L 5.387 14.800 5.293 14.710 L 5.200 14.621 5.200 11.504 L 5.200 8.387 5.290 8.293 L 5.379 8.200 8.500 8.200 L 11.621 8.200 11.710 8.293 " fill="#19191C" stroke="none" fill-rule="evenodd"></path></symbol><symbol viewBox="0 0 20 20" id="aw-icon-dark"><path d="" stroke="none" fill-rule="evenodd" fill="black"></path></symbol><symbol viewBox="0 0 20 20" id="aw-icon-discord"><path d="M12.267 3.594 C 12.177 3.772,12.068 3.976,12.026 4.048 L 11.950 4.178 9.986 4.175 L 8.022 4.172 7.836 3.807 C 7.606 3.359,7.585 3.333,7.449 3.333 C 7.171 3.333,5.759 3.713,5.031 3.984 C 3.980 4.375,3.921 4.428,3.306 5.533 C 2.464 7.048,1.870 8.707,1.553 10.433 C 1.428 11.116,1.397 11.562,1.376 13.024 C 1.360 14.141,1.365 14.375,1.404 14.422 C 1.475 14.508,1.873 14.794,2.333 15.089 C 3.181 15.632,3.969 16.025,5.133 16.485 L 5.750 16.728 5.826 16.657 C 6.010 16.486,6.765 15.194,6.695 15.171 C 6.670 15.162,6.354 15.008,5.992 14.828 C 5.596 14.632,5.333 14.482,5.333 14.454 C 5.333 14.399,5.502 14.248,5.597 14.218 C 5.636 14.205,5.833 14.263,6.089 14.361 C 6.979 14.702,7.691 14.903,8.484 15.038 C 8.873 15.104,9.030 15.111,10.033 15.109 C 11.270 15.107,11.465 15.087,12.272 14.884 C 12.830 14.743,13.348 14.578,13.907 14.363 C 14.140 14.273,14.352 14.200,14.378 14.200 C 14.404 14.200,14.490 14.258,14.569 14.328 L 14.714 14.457 14.565 14.551 C 14.409 14.650,13.471 15.108,13.342 15.148 C 13.300 15.161,13.267 15.182,13.267 15.195 C 13.267 15.235,13.698 15.966,13.953 16.358 L 14.197 16.732 14.557 16.603 C 15.711 16.188,16.842 15.632,17.786 15.017 C 18.284 14.693,18.497 14.516,18.554 14.379 C 18.654 14.140,18.693 13.016,18.631 12.128 C 18.453 9.543,17.753 7.330,16.368 4.977 L 16.030 4.404 15.434 4.171 C 14.436 3.780,13.616 3.533,12.491 3.285 C 12.444 3.275,12.395 3.344,12.267 3.594 M13.104 8.948 C 13.830 9.102,14.322 9.708,14.385 10.526 C 14.455 11.426,13.877 12.257,13.078 12.406 C 12.442 12.524,11.730 12.044,11.460 11.315 C 11.397 11.146,11.386 11.050,11.387 10.667 C 11.388 10.288,11.399 10.185,11.460 10.018 C 11.658 9.479,12.137 9.029,12.611 8.935 C 12.813 8.895,12.860 8.896,13.104 8.948 M7.718 9.066 C 7.987 9.197,8.334 9.555,8.466 9.839 C 8.698 10.333,8.688 11.018,8.444 11.522 C 8.311 11.796,7.943 12.175,7.687 12.300 C 7.503 12.391,7.450 12.401,7.145 12.404 C 6.737 12.408,6.621 12.374,6.369 12.172 C 5.768 11.689,5.539 11.145,5.629 10.413 C 5.706 9.786,6.024 9.321,6.583 9.018 C 6.745 8.931,6.762 8.929,7.133 8.948 C 7.466 8.966,7.543 8.981,7.718 9.066 " fill="#19191C" stroke="none" fill-rule="evenodd"></path></symbol><symbol viewBox="0 0 20 20" id="aw-icon-divider-vertical"><path d="" stroke="none" fill-rule="evenodd" fill="black"></path></symbol><symbol viewBox="0 0 20 20" id="aw-icon-download"><path d="" stroke="none" fill-rule="evenodd" fill="black"></path></symbol><symbol viewBox="0 0 20 20" id="aw-icon-github"><path d="M9.033 1.123 C 8.214 1.212,7.133 1.514,6.396 1.860 C 4.509 2.745,2.971 4.217,2.086 5.986 C 1.593 6.973,1.239 8.109,1.136 9.042 C 1.038 9.920,1.058 11.018,1.185 11.760 C 1.351 12.731,1.772 13.936,2.241 14.781 C 3.068 16.271,4.536 17.686,6.031 18.436 C 6.799 18.821,7.236 18.962,7.468 18.900 C 7.668 18.846,7.742 18.714,7.765 18.369 C 7.785 18.059,7.760 16.849,7.733 16.823 C 7.724 16.814,7.627 16.822,7.517 16.842 C 7.189 16.899,6.452 16.888,6.184 16.822 C 5.531 16.660,5.111 16.310,4.721 15.600 C 4.382 14.982,4.292 14.861,3.857 14.432 C 3.434 14.015,3.405 13.955,3.579 13.872 C 3.714 13.807,4.114 13.871,4.386 14.001 C 4.609 14.108,4.854 14.351,5.392 14.999 C 5.844 15.543,6.181 15.717,6.783 15.716 C 7.090 15.715,7.635 15.616,7.755 15.540 C 7.775 15.527,7.817 15.427,7.849 15.317 C 7.881 15.207,7.981 14.954,8.072 14.755 C 8.163 14.557,8.232 14.370,8.227 14.340 C 8.219 14.300,8.107 14.262,7.800 14.194 C 6.645 13.936,6.094 13.676,5.496 13.108 C 5.003 12.638,4.620 11.943,4.446 11.200 C 4.376 10.903,4.341 9.215,4.398 8.896 C 4.445 8.635,4.802 7.878,5.046 7.524 L 5.202 7.297 5.147 7.007 C 5.069 6.589,5.096 5.593,5.196 5.220 C 5.235 5.076,5.283 4.937,5.304 4.912 C 5.373 4.829,5.780 4.872,6.200 5.006 C 6.499 5.102,7.019 5.350,7.422 5.591 L 7.760 5.792 8.138 5.716 C 8.755 5.592,9.203 5.554,10.000 5.556 C 10.789 5.558,11.387 5.612,11.932 5.731 L 12.233 5.797 12.491 5.644 C 12.992 5.347,13.739 5.000,13.983 4.952 C 14.418 4.866,14.617 4.855,14.677 4.916 C 14.744 4.982,14.823 5.240,14.872 5.550 C 14.914 5.821,14.889 6.941,14.835 7.157 C 14.801 7.293,14.805 7.303,14.981 7.565 C 15.190 7.878,15.430 8.358,15.531 8.666 C 15.685 9.137,15.693 10.325,15.547 11.160 C 15.437 11.792,15.065 12.520,14.604 13.006 C 14.037 13.604,13.320 13.957,12.197 14.189 C 11.956 14.239,11.753 14.298,11.744 14.320 C 11.735 14.343,11.804 14.501,11.896 14.672 C 11.988 14.843,12.079 15.054,12.098 15.140 C 12.132 15.294,12.160 15.811,12.236 17.700 C 12.257 18.222,12.287 18.683,12.303 18.725 C 12.340 18.821,12.523 18.933,12.645 18.933 C 12.894 18.934,13.870 18.524,14.463 18.171 C 15.337 17.650,16.366 16.729,17.042 15.861 C 17.884 14.779,18.570 13.193,18.815 11.762 C 18.941 11.024,18.960 9.933,18.864 9.033 C 18.800 8.442,18.552 7.489,18.277 6.785 C 17.624 5.107,16.403 3.595,14.883 2.581 C 13.803 1.861,12.420 1.307,11.433 1.201 C 10.761 1.128,9.395 1.084,9.033 1.123 " fill="#19191C" stroke="none" fill-rule="evenodd"></path></symbol><symbol viewBox="0 0 24 24" id="aw-icon-google"><path d="M11.200 3.082 C 10.732 3.116,10.016 3.265,9.440 3.449 C 7.358 4.111,5.615 5.406,4.469 7.140 C 3.919 7.972,3.404 9.250,3.182 10.332 C 2.559 13.366,3.699 16.643,6.093 18.705 C 7.511 19.926,9.150 20.656,11.080 20.925 C 11.686 21.010,12.982 20.990,13.672 20.885 C 15.494 20.607,17.019 19.925,18.220 18.850 C 20.136 17.135,21.158 14.389,20.966 11.476 C 20.910 10.631,20.879 10.498,20.729 10.465 C 20.669 10.452,18.716 10.429,16.390 10.414 L 12.160 10.387 12.160 12.107 L 12.160 13.827 14.626 13.853 C 15.982 13.867,17.101 13.888,17.112 13.899 C 17.148 13.935,16.924 14.559,16.756 14.893 C 16.120 16.155,15.047 16.954,13.548 17.284 C 13.013 17.402,11.753 17.435,11.269 17.343 C 9.490 17.008,7.983 15.817,7.221 14.146 C 6.883 13.403,6.775 12.765,6.812 11.721 C 6.839 10.980,6.905 10.643,7.140 10.060 C 7.698 8.677,8.764 7.590,10.157 6.982 C 10.612 6.784,11.035 6.689,11.680 6.638 C 13.126 6.525,14.126 6.794,15.323 7.620 L 15.694 7.876 15.797 7.799 C 15.854 7.757,16.447 7.186,17.116 6.531 L 18.333 5.339 18.037 5.100 C 16.652 3.982,14.877 3.239,13.209 3.081 C 12.730 3.035,11.836 3.036,11.200 3.082 " fill="#373B4D" stroke="none" fill-rule="evenodd"></path></symbol><symbol viewBox="0 0 20 20" id="aw-icon-hamburger-menu"><path d="" stroke="none" fill-rule="evenodd" fill="black"></path></symbol><symbol viewBox="0 0 20 20" id="aw-icon-light"><path d="M9.804 2.470 C 9.475 2.569,9.431 2.687,9.410 3.517 C 9.401 3.865,9.409 4.270,9.428 4.417 C 9.460 4.668,9.469 4.690,9.595 4.802 C 9.855 5.034,10.149 5.040,10.385 4.817 C 10.559 4.654,10.582 4.514,10.583 3.633 C 10.583 2.945,10.576 2.837,10.524 2.742 C 10.402 2.517,10.066 2.391,9.804 2.470 M4.795 4.559 C 4.660 4.630,4.597 4.688,4.537 4.802 C 4.412 5.037,4.452 5.202,4.708 5.521 C 4.950 5.822,5.410 6.234,5.618 6.334 C 5.848 6.445,6.092 6.369,6.264 6.132 C 6.485 5.826,6.409 5.585,5.940 5.109 C 5.524 4.687,5.207 4.467,5.015 4.467 C 4.993 4.467,4.894 4.508,4.795 4.559 M14.658 4.569 C 14.494 4.656,13.825 5.329,13.712 5.521 C 13.606 5.703,13.597 5.873,13.684 6.048 C 13.830 6.340,14.119 6.461,14.374 6.338 C 14.653 6.203,15.359 5.508,15.483 5.245 C 15.695 4.799,15.118 4.326,14.658 4.569 M9.133 6.117 C 7.908 6.390,6.762 7.363,6.304 8.521 C 6.127 8.967,6.064 9.275,6.043 9.783 C 5.993 11.044,6.395 12.054,7.278 12.889 C 7.952 13.526,8.744 13.883,9.657 13.961 C 10.834 14.062,11.961 13.647,12.804 12.804 C 13.323 12.285,13.650 11.719,13.856 10.983 C 13.971 10.572,14.001 9.761,13.918 9.317 C 13.761 8.475,13.411 7.806,12.820 7.214 C 12.336 6.730,11.750 6.381,11.083 6.180 C 10.805 6.097,10.733 6.089,10.067 6.079 C 9.530 6.071,9.296 6.080,9.133 6.117 M10.233 7.267 C 10.703 7.308,10.900 7.363,11.272 7.555 C 11.629 7.739,11.957 8.011,12.190 8.317 C 12.373 8.557,12.598 8.983,12.665 9.217 C 12.721 9.411,12.744 10.099,12.707 10.479 C 12.678 10.781,12.660 10.839,12.490 11.179 C 12.054 12.054,11.329 12.592,10.352 12.765 C 10.085 12.812,9.928 12.809,9.585 12.749 C 8.907 12.631,8.204 12.231,7.852 11.762 C 7.663 11.511,7.381 10.957,7.317 10.714 C 7.245 10.437,7.247 9.512,7.320 9.264 C 7.400 8.994,7.676 8.478,7.867 8.243 C 8.263 7.754,8.949 7.358,9.551 7.270 C 9.828 7.230,9.808 7.230,10.233 7.267 M2.861 9.463 C 2.625 9.541,2.455 9.717,2.413 9.926 C 2.382 10.080,2.534 10.376,2.709 10.502 L 2.843 10.600 3.463 10.600 C 4.210 10.599,4.616 10.559,4.733 10.473 C 4.779 10.439,4.853 10.346,4.897 10.267 C 5.047 9.998,4.983 9.723,4.727 9.546 C 4.603 9.460,4.601 9.460,3.776 9.447 C 3.322 9.440,2.910 9.447,2.861 9.463 M15.461 9.463 C 15.225 9.541,15.055 9.717,15.013 9.926 C 14.982 10.080,15.134 10.376,15.309 10.502 L 15.443 10.600 16.063 10.600 C 16.810 10.599,17.216 10.559,17.333 10.473 C 17.379 10.439,17.453 10.346,17.497 10.267 C 17.647 9.998,17.583 9.723,17.327 9.546 C 17.203 9.460,17.201 9.460,16.376 9.447 C 15.922 9.440,15.510 9.447,15.461 9.463 M14.040 13.638 C 13.801 13.706,13.558 14.074,13.619 14.277 C 13.668 14.444,13.855 14.677,14.243 15.058 C 14.713 15.518,14.819 15.574,15.081 15.501 C 15.292 15.442,15.487 15.228,15.518 15.021 C 15.553 14.787,15.459 14.636,15.008 14.194 C 14.494 13.692,14.282 13.570,14.040 13.638 M5.545 13.717 C 5.342 13.818,4.651 14.497,4.542 14.703 C 4.446 14.883,4.447 14.981,4.549 15.185 C 4.699 15.482,4.997 15.604,5.255 15.473 C 5.568 15.313,6.210 14.661,6.341 14.370 C 6.399 14.241,6.403 14.207,6.367 14.087 C 6.308 13.890,6.210 13.768,6.053 13.697 C 5.868 13.613,5.744 13.618,5.545 13.717 M9.804 15.070 C 9.475 15.169,9.431 15.287,9.410 16.117 C 9.401 16.465,9.409 16.870,9.428 17.017 C 9.460 17.268,9.469 17.290,9.595 17.402 C 9.855 17.634,10.149 17.640,10.385 17.417 C 10.559 17.254,10.582 17.114,10.583 16.233 C 10.583 15.545,10.576 15.437,10.524 15.342 C 10.402 15.117,10.066 14.991,9.804 15.070 " fill="#19191C" stroke="none" fill-rule="evenodd"></path></symbol><symbol viewBox="0 0 20 20" id="aw-icon-linkedin"><path d="M5.600 1.732 L 2.583 1.750 2.406 1.848 C 2.189 1.969,1.905 2.268,1.801 2.487 C 1.731 2.634,1.721 2.718,1.697 3.350 C 1.683 3.735,1.670 7.009,1.669 10.626 L 1.667 17.203 1.737 17.343 C 1.859 17.583,2.135 17.931,2.288 18.037 C 2.369 18.092,2.521 18.178,2.626 18.227 L 2.817 18.317 9.800 18.316 C 16.992 18.315,17.289 18.310,17.533 18.184 C 17.688 18.103,18.073 17.712,18.215 17.489 L 18.338 17.296 18.323 10.156 C 18.314 5.319,18.297 2.934,18.273 2.761 C 18.214 2.341,18.076 2.142,17.641 1.850 L 17.417 1.700 13.017 1.707 C 10.597 1.711,7.259 1.723,5.600 1.732 M6.259 4.583 C 6.463 4.677,6.762 4.962,6.863 5.160 C 6.924 5.279,6.933 5.355,6.933 5.724 C 6.932 6.241,6.897 6.336,6.600 6.634 C 6.311 6.922,6.184 6.972,5.719 6.976 C 5.391 6.978,5.325 6.969,5.197 6.903 C 5.016 6.811,4.757 6.567,4.629 6.368 C 4.535 6.223,4.533 6.212,4.533 5.742 C 4.533 5.329,4.542 5.246,4.600 5.133 C 4.742 4.855,4.982 4.652,5.316 4.527 C 5.547 4.441,6.007 4.468,6.259 4.583 M13.511 8.034 C 14.351 8.156,15.162 9.001,15.398 10.002 C 15.487 10.380,15.528 11.328,15.556 13.691 L 15.578 15.567 14.361 15.567 L 13.144 15.567 13.122 13.375 C 13.109 12.170,13.084 11.081,13.066 10.956 C 13.023 10.660,12.892 10.396,12.681 10.179 C 12.466 9.959,12.336 9.921,11.867 9.940 C 11.569 9.952,11.489 9.968,11.333 10.046 C 11.080 10.172,10.857 10.401,10.747 10.646 C 10.660 10.840,10.654 10.884,10.630 11.567 C 10.616 11.961,10.604 13.022,10.602 13.925 L 10.600 15.567 9.417 15.567 L 8.233 15.567 8.233 11.850 L 8.233 8.133 9.417 8.133 L 10.600 8.133 10.600 8.617 C 10.600 8.883,10.611 9.100,10.625 9.100 C 10.639 9.100,10.725 9.008,10.817 8.897 C 11.122 8.525,11.546 8.215,11.933 8.078 C 12.127 8.010,12.210 8.001,12.717 8.001 C 13.028 8.001,13.386 8.016,13.511 8.034 M6.867 11.850 L 6.867 15.567 5.650 15.567 L 4.433 15.567 4.433 11.850 L 4.433 8.133 5.650 8.133 L 6.867 8.133 6.867 11.850 " fill="#19191C" stroke="none" fill-rule="evenodd"></path></symbol><symbol viewBox="0 0 20 20" id="aw-icon-location"><path d="" stroke="none" fill-rule="evenodd" fill="black"></path></symbol><symbol viewBox="0 0 20 20" id="aw-icon-logout-left"><path d="" stroke="none" fill-rule="evenodd" fill="black"></path></symbol><symbol viewBox="0 0 20 20" id="aw-icon-logout-right"><path d="" stroke="none" fill-rule="evenodd" fill="black"></path></symbol><symbol viewBox="0 0 24 24" id="aw-icon-microsoft"><path d="" stroke="none" fill-rule="evenodd"></path></symbol><symbol viewBox="0 0 20 20" id="aw-icon-minus"><path d="" stroke="none" fill-rule="evenodd" fill="black"></path></symbol><symbol viewBox="0 0 20 20" id="aw-icon-plus"><path d="M9.750 5.463 C 9.591 5.536,9.520 5.610,9.451 5.775 C 9.407 5.880,9.400 6.149,9.400 7.649 L 9.400 9.400 7.640 9.400 C 5.882 9.400,5.881 9.400,5.732 9.475 C 5.295 9.696,5.295 10.304,5.732 10.525 C 5.881 10.600,5.882 10.600,7.640 10.600 L 9.400 10.600 9.400 12.360 C 9.400 14.118,9.400 14.119,9.475 14.268 C 9.696 14.705,10.304 14.705,10.525 14.268 C 10.600 14.119,10.600 14.118,10.600 12.360 L 10.600 10.600 12.360 10.600 C 14.118 10.600,14.119 10.600,14.268 10.525 C 14.705 10.304,14.705 9.696,14.268 9.475 C 14.119 9.400,14.118 9.400,12.360 9.400 L 10.600 9.400 10.599 7.642 C 10.599 6.007,10.594 5.874,10.537 5.750 C 10.464 5.591,10.390 5.520,10.225 5.451 C 10.064 5.384,9.914 5.388,9.750 5.463 " stroke="none" fill-rule="evenodd" fill="black"></path></symbol><symbol viewBox="0 0 20 20" id="aw-icon-product-hunt"><path d="M8.900 1.090 C 8.328 1.152,7.382 1.383,6.850 1.591 C 6.094 1.886,4.989 2.516,4.400 2.989 C 4.078 3.247,3.181 4.144,2.922 4.467 C 2.211 5.354,1.622 6.543,1.319 7.704 C 0.795 9.710,0.938 11.639,1.753 13.558 C 2.499 15.314,3.916 16.879,5.650 17.861 C 6.593 18.395,7.820 18.793,8.921 18.920 C 9.582 18.997,10.921 18.971,11.483 18.870 C 12.900 18.617,14.196 18.063,15.300 17.237 C 15.726 16.919,16.615 16.070,16.980 15.633 C 17.976 14.443,18.663 12.861,18.917 11.177 C 18.986 10.718,18.985 9.283,18.915 8.804 C 18.842 8.310,18.665 7.597,18.486 7.075 C 17.977 5.597,17.266 4.528,16.010 3.354 C 14.679 2.109,12.777 1.254,11.000 1.100 C 10.641 1.069,9.158 1.062,8.900 1.090 M11.367 5.563 L 12.017 5.586 12.370 5.755 C 13.018 6.065,13.458 6.427,13.787 6.921 C 14.210 7.556,14.286 7.867,14.259 8.850 C 14.243 9.428,14.239 9.460,14.136 9.715 C 13.839 10.458,13.350 11.016,12.646 11.418 C 12.072 11.746,11.675 11.799,9.775 11.800 L 8.633 11.800 8.633 13.150 L 8.633 14.500 7.750 14.500 L 6.867 14.500 6.867 9.995 L 6.867 5.489 8.792 5.515 C 9.850 5.529,11.009 5.550,11.367 5.563 M8.633 8.647 L 8.633 10.000 9.658 10.000 C 10.813 9.999,11.543 9.958,11.724 9.883 C 11.989 9.772,12.350 9.383,12.450 9.101 C 12.482 9.010,12.502 8.832,12.503 8.625 C 12.505 8.331,12.495 8.273,12.416 8.112 C 12.298 7.871,12.035 7.607,11.767 7.459 L 11.550 7.340 10.092 7.317 L 8.633 7.293 8.633 8.647 " fill="#19191C" stroke="none" fill-rule="evenodd"></path></symbol><symbol viewBox="0 0 20 20" id="aw-icon-search"><path d="M8.467 4.129 C 7.430 4.349,6.642 4.735,5.871 5.402 C 4.617 6.487,3.878 8.297,4.030 9.908 C 4.170 11.398,4.787 12.644,5.842 13.568 C 6.804 14.412,7.834 14.854,9.108 14.971 C 10.076 15.060,11.082 14.838,12.146 14.302 L 12.650 14.048 13.568 14.949 C 14.563 15.925,14.902 16.222,15.058 16.253 C 15.284 16.299,15.625 16.033,15.684 15.765 C 15.740 15.508,15.613 15.337,14.516 14.200 C 14.100 13.769,13.723 13.369,13.678 13.310 L 13.595 13.204 13.860 12.827 C 14.005 12.620,14.194 12.329,14.279 12.180 C 14.470 11.846,14.748 11.153,14.858 10.733 C 14.937 10.434,14.941 10.367,14.943 9.517 C 14.945 8.518,14.937 8.469,14.681 7.729 C 14.389 6.892,14.030 6.326,13.369 5.664 C 12.534 4.829,11.659 4.354,10.543 4.131 C 10.274 4.077,10.024 4.056,9.550 4.046 C 8.953 4.034,8.891 4.039,8.467 4.129 M10.065 5.285 C 10.627 5.363,10.913 5.447,11.350 5.663 C 12.275 6.120,12.936 6.795,13.383 7.742 C 13.597 8.194,13.693 8.561,13.737 9.099 C 13.816 10.074,13.639 10.858,13.155 11.677 C 12.527 12.739,11.510 13.460,10.276 13.718 C 9.927 13.791,9.140 13.791,8.750 13.718 C 7.559 13.494,6.577 12.829,5.913 11.794 C 5.735 11.517,5.649 11.347,5.451 10.883 L 5.294 10.517 5.307 9.483 C 5.319 8.516,5.325 8.436,5.395 8.238 C 5.493 7.960,5.769 7.411,5.958 7.117 C 6.143 6.829,6.630 6.326,6.975 6.065 C 7.431 5.720,8.105 5.422,8.742 5.284 C 9.025 5.222,9.621 5.223,10.065 5.285 " fill="#19191C" stroke="none" fill-rule="evenodd"></path></symbol><symbol viewBox="0 0 20 20" id="aw-icon-star"><path d="" stroke="none" fill-rule="evenodd" fill="black"></path></symbol><symbol viewBox="0 0 20 20" id="aw-icon-twitter"><path d="M12.500 2.900 C 12.184 2.984,11.654 3.242,11.346 3.461 C 10.647 3.957,10.199 4.565,9.932 5.384 C 9.824 5.712,9.823 5.727,9.808 6.475 L 9.794 7.233 9.655 7.233 C 9.441 7.233,8.631 7.108,8.150 7.001 C 6.768 6.693,5.595 6.189,4.417 5.396 C 3.853 5.018,3.583 4.791,2.823 4.061 C 2.105 3.370,2.174 3.386,2.000 3.864 C 1.792 4.433,1.760 4.587,1.742 5.122 C 1.724 5.675,1.752 5.908,1.885 6.322 C 2.077 6.916,2.322 7.298,2.906 7.918 C 3.223 8.254,3.243 8.284,3.166 8.293 C 3.084 8.303,2.428 8.142,1.943 7.994 C 1.810 7.954,1.691 7.931,1.678 7.944 C 1.633 7.989,1.735 8.569,1.849 8.916 C 2.064 9.573,2.302 9.971,2.748 10.421 C 3.111 10.787,3.495 11.044,4.043 11.288 C 4.266 11.387,4.462 11.482,4.478 11.498 C 4.518 11.538,4.339 11.560,3.652 11.601 C 3.287 11.623,3.078 11.649,3.062 11.674 C 3.014 11.752,3.282 12.250,3.557 12.594 C 4.186 13.380,4.810 13.764,5.867 14.017 C 6.077 14.067,6.262 14.120,6.277 14.133 C 6.313 14.165,6.087 14.346,5.766 14.543 C 4.998 15.015,3.818 15.436,2.846 15.584 C 2.665 15.611,2.212 15.644,1.840 15.656 C 1.468 15.668,1.157 15.689,1.148 15.703 C 1.127 15.738,1.794 16.090,2.300 16.310 C 3.432 16.803,4.610 17.106,5.767 17.202 C 6.343 17.250,7.646 17.223,8.167 17.152 C 9.869 16.921,11.537 16.259,12.900 15.274 C 13.316 14.973,14.678 13.632,14.990 13.217 C 15.826 12.100,16.408 10.946,16.779 9.663 C 17.048 8.738,17.159 8.017,17.190 7.012 L 17.210 6.342 17.313 6.281 C 17.444 6.205,18.446 5.204,18.746 4.851 C 18.870 4.704,18.955 4.580,18.936 4.573 C 18.917 4.567,18.627 4.637,18.292 4.730 C 17.694 4.895,17.146 5.033,17.087 5.033 C 17.070 5.033,17.261 4.824,17.511 4.569 C 17.761 4.314,18.034 3.999,18.117 3.869 C 18.295 3.595,18.518 3.140,18.489 3.111 C 18.478 3.100,18.226 3.193,17.928 3.317 C 17.377 3.547,16.688 3.790,16.377 3.864 L 16.204 3.906 15.977 3.725 C 15.636 3.452,15.364 3.279,15.024 3.115 C 14.536 2.881,14.423 2.861,13.533 2.846 C 12.829 2.834,12.725 2.840,12.500 2.900 " fill="#19191C" stroke="none" fill-rule="evenodd"></path></symbol><symbol viewBox="0 0 20 20" id="aw-icon-x"><path d="" stroke="none" fill-rule="evenodd" fill="black"></path></symbol><symbol viewBox="0 0 20 20" id="aw-icon-youtube"><path d="M6.850 4.102 C 4.298 4.150,3.485 4.235,2.950 4.511 C 2.449 4.770,2.119 5.191,1.920 5.828 C 1.623 6.776,1.487 8.067,1.488 9.950 C 1.488 11.240,1.524 11.949,1.635 12.863 C 1.810 14.301,2.061 14.880,2.708 15.334 C 3.220 15.694,4.025 15.832,6.017 15.903 C 7.261 15.948,13.635 15.923,14.483 15.870 C 16.708 15.732,17.042 15.648,17.538 15.105 C 17.751 14.872,17.832 14.743,17.946 14.457 C 18.300 13.568,18.498 12.012,18.499 10.100 C 18.501 7.967,18.254 6.160,17.845 5.306 C 17.563 4.716,16.918 4.342,15.998 4.237 C 14.843 4.104,10.301 4.037,6.850 4.102 M10.858 8.755 C 12.127 9.434,12.752 9.809,12.716 9.868 C 12.675 9.935,11.386 10.622,9.158 11.765 L 8.300 12.206 8.300 9.817 L 8.300 7.428 9.225 7.902 C 9.734 8.162,10.468 8.546,10.858 8.755 " fill="#19191C" stroke="none" fill-rule="evenodd"></path></symbol></svg>
