<svg xmlns="http://www.w3.org/2000/svg" xmlns:xlink="http://www.w3.org/1999/xlink" width="0" height="0" style="display:none;"><symbol viewBox="0 0 20 20" id="aw-icon-arrow-down"><path d="" stroke="none" fill-rule="evenodd"></path></symbol><symbol viewBox="0 0 20 20" id="aw-icon-arrow-ext-link"><path d="" stroke="none" fill-rule="evenodd"></path></symbol><symbol viewBox="0 0 20 20" id="aw-icon-arrow-left"><path d="" stroke="none" fill-rule="evenodd"></path></symbol><symbol viewBox="0 0 20 20" id="aw-icon-arrow-right"><path d="" stroke="none" fill-rule="evenodd"></path></symbol><symbol viewBox="0 0 20 20" id="aw-icon-arrow-up"><path d="" stroke="none" fill-rule="evenodd"></path></symbol><symbol viewBox="0 0 20 20" id="aw-icon-calendar"><path d="" stroke="none" fill-rule="evenodd"></path></symbol><symbol viewBox="0 0 20 20" id="aw-icon-check"><path d="" stroke="none" fill-rule="evenodd"></path></symbol><symbol viewBox="0 0 20 20" id="aw-icon-chevron-down"><path d="M5.217 7.596 C 5.077 7.683,4.982 7.796,4.933 7.936 C 4.863 8.135,4.910 8.257,5.171 8.550 C 5.650 9.088,7.151 10.612,8.427 11.855 C 9.886 13.277,9.864 13.260,10.163 13.148 C 10.293 13.099,10.656 12.753,12.528 10.887 C 13.744 9.675,14.800 8.611,14.874 8.523 C 15.048 8.317,15.100 8.167,15.061 7.987 C 15.002 7.715,14.833 7.569,14.547 7.544 C 14.369 7.529,14.336 7.537,14.200 7.628 C 14.117 7.684,13.138 8.632,12.022 9.737 L 9.995 11.744 8.656 10.411 C 6.790 8.553,5.873 7.671,5.727 7.597 C 5.568 7.516,5.346 7.515,5.217 7.596 " fill="#19191C" stroke="none" fill-rule="evenodd"></path></symbol><symbol viewBox="0 0 20 20" id="aw-icon-chevron-left"><path d="M11.800 5.518 C 11.329 5.938,8.922 8.316,8.108 9.165 C 7.661 9.632,7.266 10.070,7.231 10.139 C 7.155 10.287,7.150 10.396,7.212 10.545 C 7.268 10.678,9.124 12.580,10.771 14.191 C 12.046 15.438,12.085 15.469,12.343 15.420 C 12.518 15.387,12.675 15.267,12.758 15.101 C 12.848 14.923,12.853 14.801,12.776 14.640 C 12.720 14.522,10.934 12.675,9.370 11.117 L 8.600 10.350 10.177 8.767 C 11.879 7.058,12.494 6.423,12.701 6.161 C 12.854 5.968,12.870 5.835,12.770 5.613 C 12.678 5.411,12.530 5.320,12.267 5.306 L 12.050 5.294 11.800 5.518 " fill="#19191C" stroke="none" fill-rule="evenodd"></path></symbol><symbol viewBox="0 0 20 20" id="aw-icon-chevron-right"><path d="M7.625 5.301 C 7.453 5.351,7.305 5.469,7.236 5.612 C 7.137 5.815,7.146 5.962,7.268 6.130 C 7.405 6.319,8.776 7.732,10.214 9.167 L 11.400 10.350 9.990 11.767 C 7.220 14.551,7.165 14.610,7.167 14.857 C 7.170 15.128,7.425 15.392,7.716 15.425 C 7.840 15.439,7.890 15.427,7.997 15.356 C 8.194 15.225,10.050 13.415,11.251 12.180 C 12.887 10.499,12.834 10.560,12.833 10.377 C 12.831 10.127,12.760 10.049,10.407 7.696 C 9.147 6.436,8.072 5.384,8.017 5.358 C 7.879 5.291,7.734 5.270,7.625 5.301 " fill="#19191C" stroke="none" fill-rule="evenodd"></path></symbol><symbol viewBox="0 0 20 20" id="aw-icon-chevron-up"><path d="M9.848 7.546 C 9.676 7.623,9.015 8.250,7.297 9.966 C 5.483 11.778,4.986 12.310,4.929 12.501 C 4.839 12.803,5.159 13.200,5.493 13.200 C 5.709 13.200,5.999 12.933,8.575 10.369 L 10.000 8.950 11.392 10.337 C 13.481 12.418,14.160 13.067,14.328 13.142 C 14.588 13.257,14.861 13.146,15.016 12.862 C 15.125 12.663,15.122 12.547,15.005 12.365 C 14.755 11.974,10.732 7.942,10.289 7.637 C 10.104 7.510,9.983 7.485,9.848 7.546 " fill="#19191C" stroke="none" fill-rule="evenodd"></path></symbol><symbol viewBox="0 0 20 20" id="aw-icon-close"><path d="" stroke="none" fill-rule="evenodd"></path></symbol><symbol viewBox="0 0 20 20" id="aw-icon-copy"><path d="M8.700 4.066 C 8.217 4.083,8.087 4.098,7.942 4.157 C 7.515 4.328,7.284 4.543,7.170 4.874 C 7.092 5.101,7.000 5.623,7.000 5.839 L 7.000 6.000 7.596 6.000 L 8.193 6.000 8.233 5.668 C 8.257 5.470,8.293 5.320,8.320 5.297 C 8.404 5.227,10.708 5.191,12.717 5.228 C 13.725 5.247,14.582 5.272,14.622 5.284 C 14.669 5.299,14.700 5.342,14.712 5.411 C 14.758 5.671,14.774 7.297,14.750 9.377 L 14.725 11.637 14.644 11.690 C 14.600 11.719,14.438 11.759,14.285 11.778 L 14.007 11.812 13.992 12.381 C 13.984 12.694,13.986 12.959,13.997 12.970 C 14.032 13.005,14.733 12.938,14.927 12.882 C 15.455 12.728,15.766 12.400,15.896 11.859 C 15.969 11.557,15.999 10.573,15.999 8.517 C 15.999 5.560,15.955 5.007,15.690 4.638 C 15.551 4.444,15.304 4.254,15.067 4.160 C 14.890 4.089,14.825 4.086,13.267 4.064 C 11.361 4.037,9.515 4.038,8.700 4.066 M6.217 7.032 L 5.050 7.050 4.869 7.150 C 4.651 7.270,4.354 7.535,4.247 7.704 C 4.204 7.772,4.135 7.923,4.093 8.039 L 4.017 8.250 4.017 11.483 L 4.017 14.717 4.090 14.951 C 4.233 15.403,4.581 15.757,5.031 15.908 C 5.249 15.981,5.263 15.981,8.217 15.992 C 9.869 15.999,11.338 15.990,11.533 15.973 C 12.043 15.928,12.224 15.849,12.537 15.537 C 12.841 15.232,12.925 15.043,12.969 14.567 C 13.006 14.160,13.006 8.858,12.969 8.411 C 12.948 8.161,12.918 8.023,12.854 7.883 C 12.740 7.634,12.383 7.277,12.118 7.149 L 11.920 7.052 10.818 7.029 C 9.607 7.003,8.010 7.004,6.217 7.032 M11.710 8.293 L 11.800 8.387 11.800 11.500 L 11.800 14.613 11.710 14.707 L 11.621 14.800 8.504 14.800 L 5.387 14.800 5.293 14.710 L 5.200 14.621 5.200 11.504 L 5.200 8.387 5.290 8.293 L 5.379 8.200 8.500 8.200 L 11.621 8.200 11.710 8.293 " fill="#19191C" stroke="none" fill-rule="evenodd"></path></symbol><symbol viewBox="0 0 20 20" id="aw-icon-dark"><path d="" stroke="none" fill-rule="evenodd"></path></symbol><symbol viewBox="0 0 20 20" id="aw-icon-discord"><path d="M12.191 3.745 C 11.973 4.172,11.942 4.216,11.867 4.210 C 10.947 4.137,9.091 4.126,8.296 4.189 L 8.042 4.209 7.836 3.813 C 7.536 3.234,7.614 3.282,7.129 3.381 C 6.075 3.595,4.650 4.069,4.113 4.383 C 3.939 4.486,3.765 4.724,3.418 5.333 C 2.426 7.079,1.825 8.773,1.498 10.745 C 1.414 11.257,1.359 12.491,1.373 13.578 L 1.383 14.395 1.467 14.485 C 1.578 14.605,2.484 15.203,2.983 15.485 C 3.684 15.882,4.535 16.269,5.542 16.646 L 5.767 16.730 5.843 16.648 C 5.940 16.544,6.284 15.993,6.538 15.536 L 6.734 15.183 6.625 15.136 C 6.314 15.002,5.369 14.526,5.336 14.487 C 5.307 14.452,5.328 14.416,5.433 14.321 C 5.507 14.254,5.594 14.200,5.628 14.200 C 5.661 14.200,5.838 14.261,6.019 14.335 C 6.847 14.672,7.684 14.909,8.517 15.042 C 8.930 15.108,9.102 15.116,10.033 15.114 C 10.858 15.113,11.165 15.100,11.467 15.054 C 12.177 14.945,13.195 14.654,13.981 14.335 C 14.162 14.261,14.339 14.200,14.373 14.200 C 14.408 14.200,14.498 14.258,14.574 14.329 L 14.712 14.458 14.565 14.552 C 14.409 14.650,13.470 15.108,13.342 15.148 C 13.300 15.161,13.267 15.182,13.267 15.195 C 13.267 15.235,13.698 15.966,13.953 16.358 L 14.198 16.733 14.562 16.603 C 15.666 16.209,16.794 15.660,17.700 15.075 C 18.246 14.723,18.495 14.529,18.551 14.411 C 18.641 14.220,18.687 13.099,18.639 12.267 C 18.482 9.573,17.762 7.291,16.306 4.875 L 16.020 4.400 15.352 4.137 C 14.392 3.759,13.785 3.574,12.724 3.339 L 12.432 3.274 12.191 3.745 M13.143 8.949 C 13.932 9.116,14.455 9.900,14.390 10.820 C 14.320 11.811,13.499 12.563,12.659 12.406 C 12.093 12.301,11.603 11.824,11.420 11.202 C 11.351 10.967,11.350 10.413,11.418 10.151 C 11.567 9.580,12.045 9.069,12.544 8.948 C 12.774 8.892,12.874 8.892,13.143 8.949 M7.726 9.053 C 7.983 9.179,8.323 9.528,8.455 9.802 C 8.595 10.094,8.639 10.295,8.638 10.654 C 8.637 11.302,8.395 11.800,7.902 12.169 C 7.624 12.377,7.529 12.407,7.133 12.412 C 6.810 12.416,6.768 12.409,6.583 12.320 C 6.330 12.197,5.955 11.822,5.812 11.550 C 5.606 11.158,5.562 10.857,5.633 10.309 C 5.668 10.043,5.764 9.826,5.985 9.514 C 6.144 9.289,6.275 9.179,6.559 9.028 C 6.748 8.927,6.754 8.926,7.143 8.943 C 7.485 8.958,7.562 8.973,7.726 9.053 " fill="#19191C" stroke="none" fill-rule="evenodd"></path></symbol><symbol viewBox="0 0 20 20" id="aw-icon-divider-vertical"><path d="" stroke="none" fill-rule="evenodd"></path></symbol><symbol viewBox="0 0 20 20" id="aw-icon-download"><path d="" stroke="none" fill-rule="evenodd"></path></symbol><symbol viewBox="0 0 20 20" id="aw-icon-github"><path d="M9.017 1.123 C 7.538 1.317,6.391 1.741,5.167 2.547 C 3.228 3.823,1.943 5.648,1.333 7.989 C 1.185 8.559,1.135 8.893,1.096 9.583 C 1.016 10.998,1.144 11.991,1.570 13.245 C 2.049 14.658,2.717 15.724,3.797 16.802 C 4.709 17.711,5.684 18.354,6.812 18.790 C 7.333 18.991,7.577 18.962,7.717 18.683 C 7.778 18.560,7.783 18.489,7.778 17.756 C 7.772 16.906,7.760 16.783,7.682 16.813 C 7.656 16.823,7.439 16.849,7.201 16.872 C 6.344 16.952,5.680 16.762,5.200 16.298 C 5.020 16.124,4.933 15.995,4.658 15.483 C 4.373 14.954,4.208 14.740,3.834 14.414 C 3.496 14.119,3.446 14.051,3.483 13.934 C 3.529 13.788,4.042 13.819,4.375 13.988 C 4.650 14.127,4.784 14.254,5.183 14.752 C 5.588 15.259,5.763 15.428,6.008 15.553 C 6.442 15.775,6.918 15.789,7.570 15.598 L 7.790 15.533 7.848 15.308 C 7.880 15.185,7.989 14.913,8.091 14.705 C 8.230 14.419,8.265 14.320,8.233 14.300 C 8.210 14.285,8.099 14.256,7.987 14.235 C 7.579 14.157,6.985 13.995,6.688 13.881 C 6.308 13.735,6.000 13.554,5.690 13.294 C 5.251 12.927,5.022 12.629,4.766 12.090 C 4.422 11.366,4.357 11.007,4.356 9.833 C 4.356 9.176,4.366 8.976,4.411 8.806 C 4.489 8.512,4.793 7.886,5.015 7.563 L 5.203 7.291 5.144 7.020 C 5.058 6.621,5.065 5.793,5.159 5.356 C 5.197 5.176,5.254 4.990,5.285 4.943 C 5.339 4.860,5.349 4.858,5.612 4.876 C 6.083 4.907,6.703 5.154,7.455 5.609 L 7.751 5.789 8.217 5.695 C 9.304 5.475,10.848 5.491,11.951 5.732 L 12.237 5.794 12.577 5.592 C 12.948 5.370,13.557 5.071,13.811 4.986 C 13.899 4.957,14.121 4.915,14.305 4.895 C 14.714 4.848,14.711 4.846,14.820 5.267 C 14.891 5.541,14.900 5.645,14.900 6.229 C 14.899 6.685,14.884 6.946,14.850 7.090 L 14.802 7.297 14.986 7.564 C 15.213 7.894,15.473 8.433,15.566 8.767 C 15.658 9.100,15.685 9.708,15.637 10.393 C 15.592 11.023,15.541 11.319,15.415 11.667 C 14.970 12.898,14.210 13.607,12.900 14.013 C 12.689 14.078,12.344 14.163,12.133 14.202 C 11.922 14.241,11.737 14.285,11.722 14.299 C 11.707 14.314,11.735 14.390,11.784 14.468 C 11.834 14.546,11.931 14.727,12.000 14.870 C 12.148 15.178,12.143 15.119,12.218 17.242 C 12.246 18.027,12.282 18.703,12.298 18.746 C 12.333 18.837,12.519 18.933,12.660 18.933 C 12.879 18.933,13.737 18.585,14.312 18.262 C 14.968 17.895,15.587 17.413,16.253 16.750 C 17.011 15.998,17.490 15.328,17.968 14.350 C 18.542 13.178,18.867 11.960,18.917 10.800 C 18.946 10.116,18.888 8.997,18.802 8.583 C 18.351 6.422,17.485 4.847,15.965 3.422 C 14.834 2.363,13.242 1.540,11.732 1.236 C 11.276 1.144,9.439 1.068,9.017 1.123 " fill="#19191C" stroke="none" fill-rule="evenodd"></path></symbol><symbol viewBox="0 0 20 20" id="aw-icon-hamburger-menu"><path d="" stroke="none" fill-rule="evenodd"></path></symbol><symbol viewBox="0 0 20 20" id="aw-icon-light"><path d="M9.707 2.500 C 9.594 2.551,9.548 2.598,9.491 2.724 C 9.421 2.875,9.417 2.929,9.417 3.739 C 9.417 4.707,9.410 4.680,9.698 4.883 C 9.895 5.023,10.104 5.023,10.305 4.883 C 10.532 4.725,10.565 4.624,10.589 4.013 C 10.600 3.721,10.598 3.321,10.585 3.124 C 10.563 2.804,10.550 2.752,10.473 2.661 C 10.292 2.445,9.974 2.378,9.707 2.500 M4.883 4.507 C 4.544 4.625,4.386 4.942,4.513 5.246 C 4.618 5.497,5.307 6.183,5.613 6.340 C 5.877 6.475,6.229 6.306,6.352 5.984 C 6.423 5.798,6.401 5.679,6.260 5.473 C 6.077 5.206,5.502 4.656,5.302 4.557 C 5.107 4.460,5.040 4.452,4.883 4.507 M14.597 4.605 C 14.396 4.748,13.872 5.280,13.732 5.483 C 13.585 5.696,13.578 5.884,13.710 6.109 C 13.804 6.269,14.011 6.400,14.171 6.400 C 14.348 6.400,14.604 6.226,14.997 5.837 C 15.436 5.403,15.553 5.217,15.524 4.999 C 15.483 4.694,15.249 4.500,14.923 4.500 C 14.775 4.500,14.718 4.518,14.597 4.605 M9.417 6.067 C 8.612 6.170,7.812 6.579,7.179 7.212 C 6.652 7.739,6.343 8.267,6.148 8.970 C 5.988 9.546,5.997 10.455,6.169 11.094 C 6.497 12.314,7.535 13.394,8.767 13.795 C 9.348 13.984,10.116 14.034,10.701 13.922 C 12.151 13.643,13.305 12.646,13.772 11.268 C 13.915 10.844,13.975 10.470,13.975 10.000 C 13.975 9.347,13.837 8.766,13.541 8.183 C 13.011 7.138,11.993 6.363,10.824 6.114 C 10.534 6.052,9.740 6.026,9.417 6.067 M10.288 7.266 C 10.754 7.303,10.996 7.380,11.415 7.626 C 11.898 7.908,12.272 8.322,12.518 8.844 C 12.711 9.253,12.741 9.432,12.727 10.096 C 12.714 10.661,12.710 10.693,12.610 10.943 C 12.553 11.086,12.442 11.311,12.364 11.443 C 12.181 11.753,11.722 12.214,11.417 12.393 C 11.140 12.555,10.680 12.715,10.333 12.769 C 9.501 12.899,8.440 12.481,7.877 11.803 C 7.673 11.557,7.363 10.952,7.296 10.667 C 7.237 10.418,7.237 9.570,7.295 9.333 C 7.361 9.068,7.599 8.582,7.781 8.342 C 8.100 7.921,8.519 7.609,9.049 7.398 C 9.272 7.309,9.491 7.264,9.833 7.239 C 9.861 7.237,10.065 7.249,10.288 7.266 M2.737 9.505 C 2.531 9.608,2.390 9.833,2.410 10.026 C 2.429 10.204,2.561 10.407,2.733 10.520 L 2.865 10.607 3.691 10.593 C 4.629 10.577,4.697 10.562,4.862 10.335 C 5.066 10.053,5.012 9.731,4.730 9.544 L 4.588 9.450 3.736 9.441 C 2.914 9.432,2.878 9.434,2.737 9.505 M15.337 9.505 C 15.131 9.608,14.990 9.833,15.010 10.026 C 15.029 10.204,15.161 10.407,15.333 10.520 L 15.465 10.607 16.291 10.593 C 17.229 10.577,17.297 10.562,17.462 10.335 C 17.666 10.053,17.612 9.731,17.330 9.544 L 17.188 9.450 16.336 9.441 C 15.514 9.432,15.478 9.434,15.337 9.505 M14.034 13.636 C 13.764 13.748,13.574 14.033,13.616 14.262 C 13.629 14.329,13.700 14.466,13.775 14.567 C 13.969 14.827,14.572 15.413,14.719 15.482 C 15.098 15.662,15.579 15.298,15.521 14.876 C 15.495 14.689,15.412 14.575,15.008 14.178 C 14.511 13.689,14.251 13.545,14.034 13.636 M5.490 13.732 C 5.271 13.871,4.593 14.557,4.520 14.713 C 4.397 14.976,4.539 15.345,4.811 15.469 C 5.125 15.611,5.325 15.520,5.836 15.002 C 6.330 14.501,6.434 14.318,6.368 14.070 C 6.263 13.682,5.832 13.516,5.490 13.732 M9.707 15.100 C 9.594 15.151,9.548 15.198,9.491 15.324 C 9.421 15.475,9.417 15.529,9.417 16.339 C 9.417 17.307,9.410 17.280,9.698 17.483 C 9.895 17.623,10.104 17.623,10.305 17.483 C 10.532 17.325,10.565 17.224,10.589 16.613 C 10.600 16.321,10.598 15.921,10.585 15.724 C 10.563 15.404,10.550 15.352,10.473 15.261 C 10.292 15.045,9.974 14.978,9.707 15.100 " fill="#19191C" stroke="none" fill-rule="evenodd"></path></symbol><symbol viewBox="0 0 20 20" id="aw-icon-linkedin"><path d="M4.000 1.732 L 2.583 1.750 2.420 1.833 C 2.202 1.945,1.936 2.217,1.819 2.449 C 1.728 2.628,1.721 2.673,1.697 3.211 C 1.682 3.526,1.670 6.803,1.669 10.493 L 1.667 17.203 1.737 17.343 C 1.853 17.572,2.089 17.886,2.230 17.997 C 2.302 18.054,2.448 18.142,2.555 18.192 L 2.750 18.283 3.933 18.305 C 5.592 18.335,14.374 18.334,15.983 18.303 C 17.254 18.278,17.325 18.274,17.486 18.204 C 17.693 18.114,18.048 17.763,18.215 17.485 L 18.333 17.287 18.332 10.569 C 18.330 3.727,18.317 2.736,18.219 2.470 C 18.140 2.253,17.963 2.057,17.675 1.868 L 17.420 1.700 11.418 1.707 C 8.117 1.712,4.779 1.723,4.000 1.732 M6.270 4.578 C 6.481 4.678,6.751 4.944,6.871 5.169 C 6.942 5.301,6.950 5.359,6.949 5.717 C 6.948 6.241,6.918 6.319,6.603 6.634 C 6.301 6.936,6.184 6.980,5.683 6.980 C 5.402 6.981,5.325 6.968,5.190 6.903 C 4.991 6.807,4.743 6.569,4.615 6.350 C 4.519 6.188,4.517 6.171,4.517 5.733 C 4.517 5.328,4.524 5.268,4.594 5.133 C 4.735 4.860,4.937 4.681,5.258 4.545 C 5.427 4.474,5.489 4.465,5.767 4.477 C 6.023 4.487,6.119 4.506,6.270 4.578 M13.683 8.057 C 14.596 8.341,15.262 9.158,15.451 10.226 C 15.508 10.545,15.563 12.635,15.566 14.525 L 15.567 15.567 14.355 15.567 L 13.143 15.567 13.122 13.325 C 13.110 12.092,13.086 11.001,13.068 10.901 C 12.992 10.482,12.668 10.051,12.362 9.962 C 12.128 9.894,11.650 9.912,11.428 9.997 C 11.039 10.146,10.764 10.455,10.673 10.847 C 10.635 11.007,10.622 11.523,10.609 13.308 L 10.593 15.567 9.413 15.567 L 8.233 15.567 8.233 11.850 L 8.233 8.133 9.416 8.133 L 10.598 8.133 10.607 8.631 L 10.617 9.129 10.816 8.892 C 11.243 8.386,11.793 8.041,12.243 7.998 C 12.621 7.962,13.491 7.998,13.683 8.057 M6.867 11.850 L 6.867 15.567 5.650 15.567 L 4.433 15.567 4.433 11.850 L 4.433 8.133 5.650 8.133 L 6.867 8.133 6.867 11.850 " fill="#19191C" stroke="none" fill-rule="evenodd"></path></symbol><symbol viewBox="0 0 20 20" id="aw-icon-location"><path d="" stroke="none" fill-rule="evenodd"></path></symbol><symbol viewBox="0 0 20 20" id="aw-icon-logout-left"><path d="" stroke="none" fill-rule="evenodd"></path></symbol><symbol viewBox="0 0 20 20" id="aw-icon-logout-right"><path d="" stroke="none" fill-rule="evenodd"></path></symbol><symbol viewBox="0 0 20 20" id="aw-icon-minus"><path d="" stroke="none" fill-rule="evenodd"></path></symbol><symbol viewBox="0 0 20 20" id="aw-icon-plus"><path d="" stroke="none" fill-rule="evenodd"></path></symbol><symbol viewBox="0 0 20 20" id="aw-icon-product-hunt"><path d="M9.100 1.072 C 8.476 1.109,7.535 1.324,6.865 1.583 C 6.037 1.904,5.038 2.469,4.417 2.969 C 4.054 3.261,3.194 4.121,2.918 4.466 C 1.383 6.392,0.702 9.087,1.138 11.517 C 1.409 13.029,2.090 14.538,2.979 15.600 C 4.253 17.120,5.675 18.082,7.433 18.612 C 8.314 18.877,9.055 18.981,10.050 18.978 C 11.109 18.976,11.962 18.833,12.913 18.499 C 14.443 17.961,15.483 17.258,16.737 15.916 C 17.818 14.758,18.587 13.135,18.884 11.384 C 18.960 10.935,18.968 10.795,18.968 10.001 C 18.968 9.269,18.956 9.045,18.899 8.700 C 18.636 7.093,18.004 5.628,17.065 4.450 C 16.795 4.111,15.964 3.277,15.620 3.000 C 14.332 1.962,12.603 1.237,11.091 1.101 C 10.617 1.058,9.599 1.043,9.100 1.072 M10.433 5.535 L 11.949 5.569 12.293 5.717 C 13.123 6.074,13.645 6.562,14.046 7.358 C 14.242 7.747,14.267 7.895,14.266 8.649 C 14.265 9.016,14.250 9.384,14.231 9.466 C 14.184 9.670,13.966 10.124,13.787 10.394 C 13.412 10.959,12.778 11.438,12.110 11.663 C 11.824 11.760,11.150 11.799,9.792 11.800 L 8.633 11.800 8.633 13.150 L 8.633 14.500 7.750 14.500 L 6.867 14.500 6.867 10.000 L 6.867 5.500 7.892 5.500 C 8.455 5.500,9.599 5.516,10.433 5.535 M8.633 8.645 L 8.633 10.000 9.675 9.998 C 10.835 9.997,11.475 9.965,11.700 9.898 C 11.906 9.837,12.301 9.445,12.421 9.184 C 12.495 9.022,12.508 8.944,12.512 8.654 C 12.516 8.334,12.511 8.303,12.408 8.094 C 12.280 7.835,12.042 7.600,11.747 7.444 L 11.550 7.339 10.092 7.315 L 8.633 7.291 8.633 8.645 " fill="#19191C" stroke="none" fill-rule="evenodd"></path></symbol><symbol viewBox="0 0 20 20" id="aw-icon-search"><path d="M9.100 4.021 C 8.119 4.146,7.395 4.376,6.720 4.779 C 5.557 5.473,4.720 6.513,4.289 7.802 C 3.756 9.395,3.999 11.132,4.956 12.581 C 5.413 13.273,6.269 14.016,7.075 14.421 C 7.915 14.843,9.015 15.054,9.932 14.971 C 10.743 14.896,11.392 14.699,12.187 14.285 L 12.658 14.040 13.270 14.657 C 14.206 15.598,14.849 16.189,14.986 16.234 C 15.229 16.315,15.511 16.163,15.638 15.884 C 15.797 15.534,15.766 15.488,14.392 14.073 C 14.048 13.719,13.728 13.378,13.680 13.315 L 13.593 13.201 13.826 12.876 C 14.270 12.255,14.465 11.889,14.700 11.233 C 14.931 10.589,14.950 10.454,14.948 9.483 C 14.946 8.619,14.946 8.615,14.842 8.233 C 14.552 7.165,14.114 6.391,13.386 5.658 C 12.514 4.783,11.498 4.267,10.288 4.085 C 9.934 4.032,9.289 3.997,9.100 4.021 M10.123 5.287 C 10.638 5.361,10.947 5.452,11.356 5.651 C 12.335 6.127,13.097 6.964,13.511 8.017 C 13.668 8.417,13.731 8.745,13.755 9.294 C 13.789 10.073,13.679 10.635,13.364 11.297 C 12.833 12.413,11.939 13.207,10.793 13.581 C 10.317 13.736,10.022 13.781,9.500 13.781 C 8.619 13.781,7.878 13.558,7.151 13.074 C 6.389 12.567,5.836 11.858,5.454 10.897 L 5.300 10.510 5.300 9.507 C 5.300 8.351,5.295 8.376,5.670 7.623 C 5.899 7.164,6.004 7.005,6.275 6.704 C 6.883 6.030,7.519 5.625,8.350 5.384 C 9.012 5.192,9.340 5.174,10.123 5.287 " fill="#19191C" stroke="none" fill-rule="evenodd"></path></symbol><symbol viewBox="0 0 20 20" id="aw-icon-star"><path d="" stroke="none" fill-rule="evenodd"></path></symbol><symbol viewBox="0 0 20 20" id="aw-icon-twitter"><path d="M12.833 2.834 C 12.229 2.899,11.460 3.289,10.915 3.806 C 10.366 4.327,10.054 4.865,9.868 5.610 C 9.803 5.872,9.796 5.972,9.806 6.568 L 9.817 7.233 9.693 7.233 C 9.511 7.233,8.833 7.142,8.433 7.063 C 6.722 6.728,5.202 6.040,3.833 4.981 C 3.623 4.818,3.168 4.405,2.824 4.064 L 2.197 3.443 2.117 3.580 C 2.018 3.748,1.862 4.222,1.779 4.600 C 1.702 4.957,1.701 5.581,1.778 5.924 C 1.958 6.729,2.246 7.243,2.879 7.892 C 3.251 8.273,3.271 8.300,3.181 8.299 C 3.022 8.298,2.518 8.177,2.150 8.051 C 1.961 7.986,1.773 7.933,1.732 7.933 C 1.660 7.933,1.658 7.941,1.679 8.158 C 1.732 8.717,1.987 9.427,2.306 9.903 C 2.747 10.564,3.336 11.012,4.225 11.365 C 4.376 11.425,4.500 11.487,4.500 11.502 C 4.500 11.542,4.290 11.564,3.659 11.594 C 3.305 11.610,3.086 11.634,3.061 11.659 C 2.970 11.750,3.429 12.498,3.830 12.912 C 4.432 13.532,4.994 13.832,5.933 14.033 C 6.126 14.074,6.296 14.119,6.311 14.133 C 6.345 14.165,6.026 14.394,5.600 14.642 C 5.029 14.976,4.382 15.230,3.583 15.433 C 2.970 15.590,2.648 15.630,1.755 15.660 L 1.061 15.683 1.488 15.916 C 2.809 16.636,4.432 17.119,5.817 17.205 C 6.590 17.253,7.829 17.217,8.330 17.131 C 10.223 16.807,11.697 16.190,13.083 15.138 C 13.488 14.831,14.524 13.804,14.876 13.361 C 15.912 12.056,16.633 10.520,16.980 8.877 C 17.114 8.242,17.168 7.768,17.189 7.029 L 17.210 6.342 17.296 6.291 C 17.576 6.125,19.025 4.613,18.963 4.552 C 18.956 4.545,18.747 4.598,18.500 4.670 C 17.932 4.835,17.155 5.033,17.077 5.033 C 17.040 5.033,17.175 4.883,17.439 4.633 C 17.925 4.173,18.096 3.959,18.307 3.545 C 18.485 3.198,18.520 3.100,18.466 3.100 C 18.444 3.100,18.243 3.181,18.018 3.281 C 17.520 3.501,16.882 3.733,16.497 3.833 L 16.211 3.907 15.947 3.694 C 15.449 3.293,14.906 3.004,14.433 2.891 C 14.177 2.830,13.201 2.795,12.833 2.834 " fill="#19191C" stroke="none" fill-rule="evenodd"></path></symbol><symbol viewBox="0 0 32 32" id="aw-icon-x"><path d="M1.959 3.267 C 2.729 4.256,12.587 17.179,12.587 17.199 C 12.587 17.215,10.319 19.819,7.547 22.987 C 4.775 26.154,2.507 28.758,2.507 28.773 C 2.507 28.788,3.474 28.800,4.656 28.800 L 6.806 28.800 10.696 24.351 C 12.836 21.904,14.611 19.907,14.640 19.914 C 14.669 19.921,16.217 21.922,18.080 24.360 L 21.467 28.793 25.827 28.797 C 28.225 28.799,30.187 28.788,30.187 28.773 C 30.187 28.758,27.689 25.444,24.637 21.409 C 21.584 17.375,19.094 14.052,19.103 14.027 C 19.113 14.001,21.181 11.625,23.700 8.746 C 26.219 5.867,28.339 3.442,28.412 3.356 L 28.543 3.200 26.365 3.203 L 24.187 3.207 20.720 7.179 C 18.813 9.363,17.205 11.197,17.145 11.254 C 17.037 11.357,17.031 11.350,13.952 7.278 L 10.867 3.200 6.387 3.200 C 2.811 3.200,1.917 3.213,1.959 3.267 M17.215 15.787 C 21.420 21.345,24.909 25.959,24.968 26.040 L 25.074 26.187 23.875 26.187 L 22.675 26.187 14.877 15.987 C 10.587 10.377,7.054 5.756,7.025 5.719 C 6.982 5.665,7.228 5.654,8.270 5.666 L 9.569 5.680 17.215 15.787 " stroke="none" fill-rule="evenodd"></path></symbol><symbol viewBox="0 0 20 20" id="aw-icon-youtube"><path d="M6.583 4.102 C 4.750 4.140,3.719 4.222,3.267 4.364 C 2.769 4.520,2.320 4.905,2.093 5.371 C 1.864 5.840,1.691 6.609,1.584 7.633 C 1.384 9.562,1.481 12.487,1.790 13.817 C 1.946 14.486,2.104 14.804,2.439 15.120 C 2.963 15.615,3.423 15.742,5.150 15.868 C 6.439 15.962,12.517 15.962,14.350 15.869 C 16.669 15.750,16.998 15.673,17.522 15.125 C 17.756 14.880,17.861 14.708,17.982 14.367 C 18.297 13.484,18.457 12.307,18.489 10.650 C 18.537 8.176,18.284 6.133,17.822 5.250 C 17.527 4.689,16.937 4.352,16.050 4.237 C 14.992 4.099,10.049 4.029,6.583 4.102 M10.950 8.800 C 12.043 9.391,12.716 9.784,12.726 9.838 C 12.732 9.869,12.636 9.942,12.460 10.040 C 12.159 10.207,9.197 11.751,8.642 12.029 L 8.300 12.201 8.300 9.815 L 8.300 7.429 9.275 7.925 C 9.811 8.198,10.565 8.592,10.950 8.800 " fill="#19191C" stroke="none" fill-rule="evenodd"></path></symbol></svg>