<svg xmlns="http://www.w3.org/2000/svg" xmlns:xlink="http://www.w3.org/1999/xlink" width="0" height="0" style="display:none;"><symbol viewBox="0 0 20 20" id="aw-icon-arrow-down"><path d="M9.750 4.963 C 9.591 5.036,9.520 5.110,9.451 5.275 C 9.406 5.383,9.400 5.856,9.400 9.224 L 9.400 13.050 7.625 11.276 C 6.397 10.049,5.812 9.487,5.726 9.451 C 5.563 9.384,5.414 9.388,5.250 9.463 C 5.091 9.536,5.020 9.610,4.951 9.775 C 4.884 9.937,4.888 10.087,4.964 10.250 C 5.042 10.416,9.637 15.013,9.777 15.065 C 9.829 15.084,9.929 15.100,10.000 15.100 C 10.071 15.100,10.171 15.084,10.223 15.065 C 10.363 15.013,14.958 10.416,15.036 10.250 C 15.115 10.082,15.115 9.920,15.037 9.750 C 14.964 9.591,14.890 9.520,14.725 9.451 C 14.569 9.386,14.431 9.386,14.274 9.451 C 14.188 9.487,13.603 10.049,12.375 11.276 L 10.600 13.050 10.599 9.217 C 10.599 5.568,10.596 5.377,10.537 5.250 C 10.464 5.091,10.390 5.020,10.225 4.951 C 10.064 4.884,9.914 4.888,9.750 4.963 " stroke="none" fill-rule="evenodd" fill="black"></path></symbol><symbol viewBox="0 0 20 20" id="aw-icon-arrow-ext-link"><path d="M9.814 6.600 L 6.578 6.617 6.460 6.706 C 6.133 6.956,6.164 7.490,6.517 7.690 L 6.650 7.766 9.175 7.766 C 10.564 7.766,11.700 7.778,11.700 7.791 C 11.700 7.805,10.486 9.031,9.002 10.516 C 7.492 12.027,6.288 13.258,6.268 13.311 C 6.213 13.459,6.227 13.690,6.300 13.833 C 6.436 14.100,6.816 14.213,7.093 14.069 C 7.162 14.033,8.403 12.817,9.900 11.319 L 12.583 8.633 12.600 11.208 L 12.617 13.783 12.694 13.892 C 12.934 14.229,13.477 14.205,13.685 13.849 L 13.764 13.715 13.768 10.360 C 13.772 6.725,13.781 6.918,13.594 6.743 C 13.485 6.641,13.289 6.565,13.159 6.575 C 13.099 6.579,11.594 6.590,9.814 6.600 " stroke="none" fill-rule="evenodd" fill="black"></path></symbol><symbol viewBox="0 0 20 20" id="aw-icon-arrow-left"><path d="M9.750 4.964 C 9.584 5.042,4.987 9.637,4.935 9.777 C 4.890 9.897,4.890 10.103,4.935 10.223 C 4.987 10.363,9.584 14.958,9.750 15.036 C 9.918 15.115,10.080 15.115,10.250 15.037 C 10.409 14.964,10.480 14.890,10.549 14.725 C 10.614 14.569,10.614 14.431,10.549 14.274 C 10.513 14.188,9.951 13.603,8.724 12.375 L 6.950 10.600 10.785 10.600 L 14.619 10.600 14.768 10.525 C 15.205 10.304,15.205 9.696,14.768 9.475 L 14.619 9.400 10.785 9.400 L 6.950 9.400 8.724 7.625 C 9.951 6.397,10.513 5.812,10.549 5.726 C 10.616 5.563,10.612 5.414,10.537 5.250 C 10.464 5.091,10.390 5.020,10.225 4.951 C 10.063 4.884,9.913 4.888,9.750 4.964 " stroke="none" fill-rule="evenodd" fill="black"></path></symbol><symbol viewBox="0 0 20 20" id="aw-icon-arrow-right"><path d="M9.750 4.963 C 9.591 5.036,9.520 5.110,9.451 5.275 C 9.386 5.431,9.386 5.569,9.451 5.726 C 9.487 5.812,10.049 6.397,11.276 7.625 L 13.050 9.400 9.215 9.400 L 5.381 9.400 5.232 9.475 C 4.795 9.696,4.795 10.304,5.232 10.525 L 5.381 10.600 9.215 10.600 L 13.050 10.600 11.276 12.375 C 10.049 13.603,9.487 14.188,9.451 14.274 C 9.386 14.431,9.386 14.569,9.451 14.725 C 9.520 14.890,9.591 14.964,9.750 15.037 C 9.920 15.115,10.082 15.115,10.250 15.036 C 10.416 14.958,15.013 10.363,15.065 10.223 C 15.110 10.103,15.110 9.897,15.065 9.777 C 15.013 9.637,10.416 5.042,10.250 4.964 C 10.082 4.885,9.920 4.885,9.750 4.963 " stroke="none" fill-rule="evenodd" fill="black"></path></symbol><symbol viewBox="0 0 20 20" id="aw-icon-arrow-up"><path d="M9.750 4.948 C 9.592 5.020,5.013 9.625,4.951 9.774 C 4.884 9.937,4.888 10.086,4.963 10.250 C 5.036 10.409,5.110 10.480,5.275 10.549 C 5.431 10.614,5.569 10.614,5.726 10.549 C 5.812 10.513,6.397 9.951,7.625 8.724 L 9.400 6.950 9.400 10.785 L 9.400 14.619 9.475 14.768 C 9.696 15.205,10.304 15.205,10.525 14.768 L 10.600 14.619 10.600 10.785 L 10.600 6.950 12.375 8.724 C 13.603 9.951,14.188 10.513,14.274 10.549 C 14.437 10.616,14.586 10.612,14.750 10.537 C 14.909 10.464,14.980 10.390,15.049 10.225 C 15.116 10.063,15.112 9.913,15.036 9.750 C 14.958 9.584,10.363 4.987,10.223 4.935 C 10.094 4.887,9.870 4.893,9.750 4.948 " stroke="none" fill-rule="evenodd" fill="black"></path></symbol><symbol viewBox="0 0 20 20" id="aw-icon-calendar"><path d="M6.750 3.463 C 6.499 3.578,6.400 3.770,6.400 4.144 L 6.400 4.390 5.958 4.411 C 5.715 4.422,5.432 4.454,5.329 4.482 C 4.445 4.723,3.733 5.438,3.475 6.347 C 3.421 6.535,3.417 6.848,3.417 10.500 C 3.417 14.152,3.421 14.465,3.475 14.653 C 3.735 15.568,4.432 16.265,5.347 16.525 C 5.535 16.579,5.873 16.583,9.983 16.583 C 13.689 16.583,14.447 16.576,14.600 16.536 C 15.552 16.292,16.292 15.552,16.536 14.600 C 16.606 14.327,16.606 6.673,16.536 6.400 C 16.299 5.474,15.574 4.728,14.671 4.482 C 14.568 4.454,14.285 4.422,14.042 4.411 L 13.600 4.390 13.600 4.135 C 13.600 3.938,13.583 3.848,13.525 3.732 C 13.304 3.295,12.696 3.295,12.475 3.732 C 12.416 3.848,12.400 3.937,12.400 4.140 L 12.400 4.400 10.000 4.400 L 7.600 4.400 7.599 4.142 C 7.598 3.755,7.495 3.564,7.225 3.451 C 7.064 3.384,6.914 3.388,6.750 3.463 M6.400 5.860 C 6.400 6.063,6.416 6.152,6.475 6.268 C 6.696 6.705,7.304 6.705,7.525 6.268 C 7.584 6.152,7.600 6.063,7.600 5.860 L 7.600 5.600 10.000 5.600 L 12.400 5.600 12.400 5.860 C 12.400 6.063,12.416 6.152,12.475 6.268 C 12.696 6.705,13.304 6.705,13.525 6.268 C 13.584 6.151,13.600 6.063,13.600 5.855 L 13.600 5.591 13.958 5.608 C 14.502 5.633,14.825 5.786,15.113 6.157 C 15.358 6.471,15.380 6.579,15.393 7.542 L 15.405 8.400 10.002 8.400 L 4.600 8.400 4.600 7.606 C 4.600 6.575,4.650 6.385,5.017 6.017 C 5.317 5.718,5.611 5.606,6.108 5.602 L 6.400 5.600 6.400 5.860 M15.393 11.958 L 15.383 14.317 15.308 14.504 C 15.163 14.861,14.861 15.163,14.504 15.308 L 14.317 15.383 10.000 15.383 L 5.683 15.383 5.496 15.308 C 5.393 15.266,5.241 15.179,5.157 15.113 C 4.955 14.956,4.785 14.733,4.692 14.504 L 4.617 14.317 4.607 11.958 L 4.598 9.600 10.000 9.600 L 15.402 9.600 15.393 11.958 " stroke="none" fill-rule="evenodd" fill="black"></path></symbol><symbol viewBox="0 0 20 20" id="aw-icon-check"><path d="M14.244 5.465 C 14.118 5.522,13.813 5.916,11.250 9.333 C 9.176 12.099,8.385 13.129,8.356 13.106 C 5.600 10.841,5.681 10.899,5.403 10.950 C 5.130 10.999,4.899 11.268,4.901 11.536 C 4.903 11.818,4.927 11.843,6.597 13.214 C 7.461 13.924,8.220 14.526,8.283 14.552 C 8.438 14.617,8.589 14.611,8.756 14.535 C 8.882 14.478,9.204 14.061,11.952 10.398 C 13.632 8.157,15.028 6.274,15.054 6.213 C 15.116 6.063,15.111 5.910,15.037 5.750 C 14.964 5.591,14.890 5.520,14.725 5.451 C 14.562 5.383,14.414 5.388,14.244 5.465 " stroke="none" fill-rule="evenodd" fill="black"></path></symbol><symbol viewBox="0 0 20 20" id="aw-icon-chevron-down"><path d="M5.250 7.563 C 5.091 7.636,5.020 7.710,4.951 7.875 C 4.884 8.037,4.888 8.187,4.964 8.350 C 5.053 8.539,9.602 13.078,9.774 13.149 C 9.931 13.214,10.069 13.214,10.226 13.149 C 10.398 13.078,14.947 8.539,15.036 8.350 C 15.115 8.182,15.115 8.020,15.037 7.850 C 14.964 7.691,14.890 7.620,14.725 7.551 C 14.569 7.486,14.431 7.486,14.274 7.551 C 14.188 7.587,13.520 8.232,12.075 9.676 L 10.000 11.750 7.925 9.676 C 6.480 8.232,5.812 7.587,5.726 7.551 C 5.563 7.484,5.414 7.488,5.250 7.563 " fill="#19191C" stroke="none" fill-rule="evenodd"></path></symbol><symbol viewBox="0 0 20 20" id="aw-icon-chevron-left"><path d="M11.967 5.333 C 11.801 5.422,7.246 9.993,7.199 10.117 C 7.146 10.259,7.152 10.476,7.214 10.607 C 7.243 10.668,8.319 11.769,9.609 13.056 C 11.831 15.276,11.958 15.396,12.100 15.424 C 12.501 15.504,12.839 15.241,12.839 14.850 C 12.839 14.770,12.815 14.655,12.786 14.594 C 12.757 14.533,11.804 13.553,10.667 12.417 L 8.601 10.351 10.697 8.250 C 12.684 6.260,12.796 6.142,12.824 6.000 C 12.860 5.821,12.823 5.626,12.729 5.494 C 12.577 5.281,12.208 5.202,11.967 5.333 " fill="#19191C" stroke="none" fill-rule="evenodd"></path></symbol><symbol viewBox="0 0 20 20" id="aw-icon-chevron-right"><path d="M7.461 5.334 C 7.231 5.456,7.119 5.716,7.176 6.000 C 7.204 6.142,7.316 6.260,9.303 8.250 L 11.399 10.351 9.333 12.417 C 8.196 13.553,7.243 14.533,7.214 14.594 C 7.185 14.655,7.161 14.770,7.161 14.850 C 7.161 15.241,7.499 15.504,7.900 15.424 C 8.042 15.396,8.169 15.276,10.391 13.056 C 11.681 11.769,12.757 10.668,12.786 10.607 C 12.848 10.476,12.854 10.259,12.801 10.117 C 12.752 9.987,8.194 5.418,8.026 5.331 C 7.867 5.248,7.621 5.250,7.461 5.334 " fill="#19191C" stroke="none" fill-rule="evenodd"></path></symbol><symbol viewBox="0 0 20 20" id="aw-icon-chevron-up"><path d="M9.750 7.564 C 9.561 7.653,5.022 12.202,4.951 12.374 C 4.884 12.537,4.888 12.686,4.963 12.850 C 5.036 13.009,5.110 13.080,5.275 13.149 C 5.431 13.214,5.569 13.214,5.726 13.149 C 5.812 13.113,6.480 12.468,7.925 11.024 L 10.000 8.950 12.075 11.024 C 13.520 12.468,14.188 13.113,14.274 13.149 C 14.437 13.216,14.586 13.212,14.750 13.137 C 14.909 13.064,14.980 12.990,15.049 12.825 C 15.114 12.669,15.114 12.531,15.049 12.374 C 14.978 12.202,10.439 7.653,10.250 7.564 C 10.177 7.530,10.064 7.501,10.000 7.501 C 9.936 7.501,9.823 7.530,9.750 7.564 " fill="#19191C" stroke="none" fill-rule="evenodd"></path></symbol><symbol viewBox="0 0 20 20" id="aw-icon-close"><path d="M5.250 4.963 C 5.091 5.036,5.020 5.110,4.951 5.275 C 4.886 5.431,4.886 5.569,4.951 5.726 C 4.987 5.812,5.632 6.480,7.076 7.925 L 9.150 10.000 7.076 12.075 C 5.632 13.520,4.987 14.188,4.951 14.274 C 4.886 14.431,4.886 14.569,4.951 14.725 C 5.020 14.890,5.091 14.964,5.250 15.037 C 5.414 15.112,5.563 15.116,5.726 15.049 C 5.812 15.013,6.480 14.368,7.925 12.924 L 10.000 10.850 12.075 12.924 C 13.520 14.368,14.188 15.013,14.274 15.049 C 14.437 15.116,14.586 15.112,14.750 15.037 C 14.909 14.964,14.980 14.890,15.049 14.725 C 15.114 14.569,15.114 14.431,15.049 14.274 C 15.013 14.188,14.368 13.520,12.924 12.075 L 10.850 10.000 12.924 7.925 C 14.368 6.480,15.013 5.812,15.049 5.726 C 15.116 5.563,15.112 5.414,15.037 5.250 C 14.964 5.091,14.890 5.020,14.725 4.951 C 14.569 4.886,14.431 4.886,14.274 4.951 C 14.188 4.987,13.520 5.632,12.075 7.076 L 10.000 9.150 7.925 7.076 C 6.480 5.632,5.812 4.987,5.726 4.951 C 5.563 4.884,5.414 4.888,5.250 4.963 " stroke="none" fill-rule="evenodd" fill="black"></path></symbol><symbol viewBox="0 0 20 20" id="aw-icon-copy"><path d="M8.575 4.034 C 8.181 4.067,7.963 4.119,7.732 4.235 C 7.539 4.331,7.310 4.552,7.218 4.731 C 7.126 4.908,7.038 5.313,7.013 5.666 L 6.990 6.000 7.590 6.000 L 8.189 6.000 8.226 5.662 C 8.246 5.476,8.276 5.311,8.292 5.295 C 8.361 5.225,9.161 5.202,11.500 5.202 C 14.048 5.202,14.618 5.223,14.689 5.320 C 14.770 5.429,14.783 5.881,14.783 8.500 C 14.783 11.120,14.770 11.570,14.689 11.681 C 14.662 11.719,14.556 11.745,14.333 11.770 C 14.159 11.790,14.014 11.808,14.012 11.811 C 14.009 11.814,14.002 12.079,13.995 12.400 L 13.984 12.983 14.284 12.973 C 15.086 12.945,15.566 12.703,15.782 12.217 C 15.978 11.776,15.999 11.422,15.999 8.517 C 15.998 6.149,15.977 5.440,15.896 5.110 C 15.750 4.517,15.410 4.204,14.774 4.076 C 14.556 4.032,14.091 4.023,11.700 4.015 C 10.151 4.011,8.745 4.019,8.575 4.034 M5.168 7.036 C 4.923 7.084,4.662 7.234,4.448 7.448 C 4.224 7.671,4.085 7.922,4.034 8.196 C 3.988 8.441,3.988 14.559,4.034 14.804 C 4.085 15.078,4.224 15.329,4.448 15.552 C 4.671 15.776,4.922 15.915,5.196 15.966 C 5.441 16.012,11.559 16.012,11.804 15.966 C 12.078 15.915,12.329 15.776,12.552 15.552 C 12.776 15.329,12.915 15.078,12.966 14.804 C 13.012 14.559,13.012 8.441,12.966 8.196 C 12.915 7.922,12.776 7.671,12.552 7.448 C 12.329 7.224,12.078 7.085,11.804 7.034 C 11.581 6.992,5.383 6.994,5.168 7.036 M11.703 8.297 L 11.800 8.395 11.800 11.500 L 11.800 14.605 11.703 14.703 L 11.605 14.800 8.500 14.800 L 5.395 14.800 5.297 14.703 L 5.200 14.605 5.200 11.500 L 5.200 8.395 5.297 8.297 L 5.395 8.200 8.500 8.200 L 11.605 8.200 11.703 8.297 " fill="#19191C" stroke="none" fill-rule="evenodd"></path></symbol><symbol viewBox="0 0 20 20" id="aw-icon-dark"><path d="M9.735 4.038 C 9.369 4.076,8.763 4.213,8.403 4.339 C 6.546 4.986,5.062 6.602,4.582 8.498 C 3.950 10.998,4.949 13.583,7.100 15.014 C 8.824 16.161,11.096 16.310,12.983 15.400 C 14.092 14.866,14.992 14.028,15.599 12.968 C 15.806 12.607,15.837 12.410,15.713 12.244 C 15.557 12.034,15.510 12.020,14.907 11.994 C 14.071 11.959,13.442 11.806,12.789 11.480 C 11.388 10.780,10.437 9.544,10.093 7.975 C 9.995 7.528,9.988 6.604,10.079 6.117 C 10.161 5.676,10.335 5.159,10.537 4.758 C 10.626 4.578,10.700 4.394,10.700 4.348 C 10.700 4.223,10.608 4.068,10.513 4.032 C 10.415 3.995,10.131 3.997,9.735 4.038 M8.934 5.736 C 8.768 6.516,8.768 7.461,8.935 8.267 C 9.261 9.851,10.220 11.257,11.602 12.182 C 12.181 12.569,13.023 12.921,13.683 13.053 C 13.848 13.086,13.989 13.117,13.995 13.121 C 14.028 13.144,13.829 13.364,13.577 13.584 C 12.913 14.165,12.180 14.525,11.267 14.721 C 10.825 14.815,9.896 14.808,9.437 14.705 C 8.475 14.491,7.689 14.069,7.026 13.411 C 6.683 13.071,6.543 12.896,6.290 12.492 C 5.607 11.403,5.411 9.934,5.780 8.666 C 6.016 7.854,6.406 7.204,7.026 6.589 C 7.521 6.097,8.092 5.732,8.730 5.499 C 8.869 5.448,8.987 5.410,8.992 5.414 C 8.996 5.419,8.970 5.564,8.934 5.736 " stroke="none" fill-rule="evenodd" fill="black"></path></symbol><symbol viewBox="0 0 20 20" id="aw-icon-discord"><path d="M7.400 3.308 C 6.266 3.532,5.249 3.846,4.302 4.265 C 4.129 4.341,3.969 4.429,3.945 4.460 C 3.922 4.491,3.746 4.779,3.554 5.100 C 2.342 7.130,1.656 9.154,1.414 11.417 C 1.351 12.012,1.331 13.427,1.378 14.076 L 1.407 14.468 1.820 14.759 C 2.916 15.531,4.141 16.155,5.456 16.612 L 5.795 16.729 5.959 16.490 C 6.168 16.186,6.493 15.645,6.628 15.378 L 6.732 15.172 6.474 15.066 C 6.213 14.958,5.414 14.558,5.315 14.486 C 5.267 14.451,5.284 14.428,5.443 14.305 L 5.625 14.165 5.890 14.281 C 8.512 15.434,11.378 15.453,13.986 14.334 L 14.376 14.166 14.558 14.306 C 14.716 14.428,14.733 14.451,14.685 14.486 C 14.586 14.559,13.787 14.958,13.525 15.066 C 13.383 15.125,13.267 15.179,13.267 15.188 C 13.267 15.211,13.714 16.002,13.820 16.167 C 13.873 16.249,13.981 16.410,14.059 16.524 L 14.201 16.731 14.542 16.612 C 15.914 16.136,17.054 15.552,18.225 14.726 C 18.494 14.536,18.600 14.442,18.600 14.393 C 18.600 14.356,18.617 13.996,18.637 13.593 C 18.729 11.740,18.454 9.828,17.841 8.067 C 17.443 6.923,16.852 5.717,16.148 4.611 L 16.017 4.405 15.550 4.205 C 14.707 3.844,13.797 3.558,12.871 3.365 L 12.426 3.273 12.195 3.754 L 11.964 4.236 11.857 4.218 C 11.452 4.150,11.098 4.126,10.233 4.111 C 9.313 4.095,8.658 4.128,8.117 4.218 C 8.018 4.235,8.015 4.230,7.858 3.876 C 7.771 3.678,7.666 3.463,7.625 3.398 C 7.551 3.280,7.548 3.279,7.400 3.308 M7.747 9.045 C 8.160 9.249,8.491 9.672,8.617 10.157 C 8.681 10.403,8.681 10.898,8.616 11.151 C 8.486 11.661,8.164 12.082,7.745 12.289 C 7.527 12.397,7.456 12.415,7.205 12.427 C 6.729 12.449,6.390 12.301,6.039 11.917 C 5.189 10.987,5.557 9.341,6.700 8.960 C 6.840 8.914,6.956 8.902,7.193 8.912 C 7.468 8.923,7.529 8.938,7.747 9.045 M13.292 8.962 C 13.845 9.134,14.255 9.624,14.386 10.268 C 14.573 11.192,14.086 12.130,13.294 12.371 C 12.948 12.476,12.585 12.451,12.278 12.301 C 11.855 12.093,11.511 11.652,11.384 11.151 C 11.325 10.919,11.318 10.478,11.370 10.227 C 11.494 9.628,12.003 9.059,12.525 8.936 C 12.742 8.885,13.082 8.896,13.292 8.962 " fill="#19191C" stroke="none" fill-rule="evenodd"></path></symbol><symbol viewBox="0 0 20 20" id="aw-icon-divider-vertical"><path d="M9.750 3.463 C 9.591 3.536,9.520 3.610,9.451 3.775 C 9.406 3.884,9.400 4.585,9.400 10.009 L 9.400 16.119 9.475 16.268 C 9.696 16.705,10.304 16.705,10.525 16.268 L 10.600 16.119 10.599 10.001 C 10.599 4.136,10.596 3.878,10.537 3.750 C 10.464 3.591,10.390 3.520,10.225 3.451 C 10.064 3.384,9.914 3.388,9.750 3.463 " stroke="none" fill-rule="evenodd" fill="black"></path></symbol><symbol viewBox="0 0 20 20" id="aw-icon-download"><path d="M9.517 4.212 C 9.391 4.270,9.249 4.421,9.202 4.544 C 9.178 4.607,9.167 5.552,9.167 7.477 L 9.167 10.316 7.875 9.026 C 7.165 8.317,6.541 7.721,6.489 7.702 C 5.977 7.510,5.482 8.048,5.731 8.526 C 5.828 8.712,9.387 12.252,9.541 12.316 C 9.714 12.387,9.868 12.379,10.020 12.292 C 10.091 12.250,10.970 11.392,11.972 10.383 C 13.557 8.789,13.799 8.532,13.831 8.413 C 13.948 7.967,13.583 7.596,13.110 7.682 C 12.999 7.702,12.827 7.861,11.676 9.009 L 10.368 10.314 10.359 7.449 C 10.349 4.249,10.366 4.471,10.113 4.279 C 9.970 4.169,9.679 4.137,9.517 4.212 M4.483 14.714 C 4.359 14.769,4.216 14.920,4.169 15.044 C 4.075 15.291,4.183 15.610,4.410 15.761 L 4.545 15.850 9.714 15.850 C 14.823 15.850,14.885 15.849,14.996 15.783 C 15.059 15.747,15.155 15.661,15.210 15.592 C 15.295 15.487,15.311 15.439,15.312 15.276 C 15.314 15.045,15.249 14.907,15.078 14.777 L 14.955 14.683 9.769 14.676 C 5.487 14.670,4.566 14.677,4.483 14.714 " stroke="none" fill-rule="evenodd" fill="black"></path></symbol><symbol viewBox="0 0 20 20" id="aw-icon-github"><path d="M8.967 1.114 C 7.562 1.293,6.284 1.767,5.136 2.538 C 3.396 3.705,2.179 5.312,1.516 7.317 C 0.899 9.185,0.901 11.297,1.523 13.167 C 2.207 15.225,3.592 16.987,5.399 18.096 C 5.850 18.373,6.598 18.734,6.992 18.866 C 7.266 18.957,7.316 18.965,7.437 18.932 C 7.608 18.886,7.717 18.780,7.763 18.615 C 7.786 18.531,7.791 18.197,7.777 17.644 C 7.765 17.180,7.753 16.800,7.750 16.800 C 7.747 16.800,7.595 16.822,7.414 16.850 C 6.598 16.973,5.942 16.862,5.434 16.517 C 5.114 16.300,4.906 16.039,4.729 15.637 C 4.463 15.028,4.151 14.604,3.814 14.392 C 3.739 14.345,3.622 14.254,3.553 14.189 C 3.169 13.826,3.791 13.666,4.393 13.972 C 4.666 14.110,4.978 14.412,5.183 14.733 C 5.410 15.092,5.552 15.256,5.773 15.419 C 6.127 15.679,6.564 15.791,7.009 15.734 C 7.257 15.703,7.799 15.545,7.801 15.504 C 7.801 15.493,7.822 15.385,7.848 15.264 C 7.906 14.989,8.053 14.665,8.214 14.455 C 8.282 14.366,8.333 14.290,8.327 14.285 C 8.321 14.281,8.182 14.258,8.017 14.235 C 7.852 14.211,7.550 14.151,7.346 14.099 C 5.633 13.671,4.698 12.668,4.380 10.917 C 4.333 10.660,4.320 10.415,4.320 9.850 C 4.320 9.158,4.325 9.098,4.410 8.783 C 4.520 8.373,4.806 7.788,5.034 7.506 L 5.204 7.295 5.134 7.023 C 5.040 6.655,5.013 6.177,5.066 5.793 C 5.111 5.459,5.246 4.948,5.310 4.872 C 5.369 4.800,5.811 4.849,6.182 4.968 C 6.536 5.081,7.053 5.338,7.469 5.606 L 7.755 5.791 8.103 5.713 C 8.826 5.549,9.136 5.517,10.000 5.517 C 10.864 5.517,11.174 5.549,11.896 5.712 L 12.242 5.790 12.563 5.588 C 13.305 5.121,13.940 4.870,14.411 4.857 C 14.676 4.850,14.682 4.852,14.726 4.942 C 14.751 4.993,14.809 5.180,14.857 5.359 C 14.931 5.637,14.943 5.757,14.946 6.200 C 14.949 6.639,14.938 6.760,14.873 7.006 L 14.797 7.296 14.965 7.505 C 15.196 7.791,15.483 8.377,15.591 8.783 C 15.675 9.096,15.680 9.161,15.680 9.850 C 15.681 10.637,15.641 10.963,15.478 11.533 C 15.362 11.939,15.075 12.503,14.824 12.819 C 14.230 13.564,13.222 14.059,11.942 14.234 L 11.636 14.276 11.754 14.413 C 11.819 14.488,11.924 14.658,11.987 14.790 C 12.205 15.240,12.212 15.309,12.221 17.057 C 12.231 18.776,12.231 18.780,12.426 18.878 C 12.615 18.973,12.691 18.971,13.025 18.860 C 13.408 18.734,14.259 18.317,14.683 18.049 C 15.618 17.458,16.440 16.692,17.120 15.781 C 18.778 13.557,19.349 10.667,18.666 7.950 C 18.349 6.690,17.812 5.577,17.011 4.526 C 16.691 4.106,15.927 3.330,15.500 2.992 C 14.263 2.012,12.844 1.389,11.300 1.148 C 10.825 1.074,9.444 1.054,8.967 1.114 " fill="#19191C" stroke="none" fill-rule="evenodd"></path></symbol><symbol viewBox="0 0 20 20" id="aw-icon-hamburger-menu"><path d="M2.732 4.975 C 2.295 5.196,2.295 5.804,2.732 6.025 L 2.881 6.100 10.000 6.100 L 17.119 6.100 17.268 6.025 C 17.705 5.804,17.705 5.196,17.268 4.975 L 17.119 4.900 10.000 4.900 L 2.881 4.900 2.732 4.975 M2.732 13.975 C 2.295 14.196,2.295 14.804,2.732 15.025 L 2.881 15.100 10.000 15.100 L 17.119 15.100 17.268 15.025 C 17.705 14.804,17.705 14.196,17.268 13.975 L 17.119 13.900 10.000 13.900 L 2.881 13.900 2.732 13.975 " stroke="none" fill-rule="evenodd" fill="black"></path></symbol><symbol viewBox="0 0 20 20" id="aw-icon-light"><path d="M9.750 2.463 C 9.429 2.610,9.400 2.714,9.400 3.709 C 9.400 4.483,9.403 4.526,9.475 4.668 C 9.696 5.105,10.304 5.105,10.525 4.668 C 10.597 4.526,10.600 4.484,10.599 3.701 C 10.599 2.979,10.591 2.868,10.537 2.750 C 10.464 2.591,10.390 2.520,10.225 2.451 C 10.064 2.384,9.914 2.388,9.750 2.463 M4.783 4.522 C 4.522 4.660,4.403 4.917,4.473 5.196 C 4.506 5.328,4.574 5.415,4.964 5.813 C 5.534 6.396,5.706 6.482,6.025 6.349 C 6.190 6.280,6.264 6.209,6.337 6.050 C 6.412 5.886,6.416 5.737,6.349 5.574 C 6.286 5.422,5.501 4.622,5.326 4.531 C 5.176 4.453,4.922 4.449,4.783 4.522 M14.683 4.521 C 14.523 4.605,13.733 5.402,13.664 5.550 C 13.585 5.719,13.585 5.880,13.663 6.050 C 13.736 6.209,13.810 6.280,13.975 6.349 C 14.294 6.482,14.465 6.396,15.038 5.811 C 15.438 5.404,15.497 5.329,15.524 5.199 C 15.582 4.913,15.468 4.653,15.232 4.533 C 15.076 4.453,14.824 4.448,14.683 4.521 M9.617 6.019 C 8.626 6.154,7.897 6.489,7.244 7.110 C 5.458 8.807,5.628 11.706,7.601 13.196 C 9.562 14.677,12.416 14.026,13.544 11.842 C 14.764 9.478,13.406 6.632,10.795 6.082 C 10.555 6.032,9.814 5.992,9.617 6.019 M10.482 7.251 C 11.479 7.425,12.310 8.129,12.637 9.077 C 13.054 10.288,12.598 11.639,11.536 12.336 C 10.019 13.332,7.953 12.633,7.363 10.923 C 6.667 8.904,8.382 6.885,10.482 7.251 M2.732 9.475 C 2.295 9.696,2.295 10.304,2.732 10.525 C 2.874 10.597,2.917 10.600,3.700 10.600 C 4.483 10.600,4.526 10.597,4.668 10.525 C 5.105 10.304,5.105 9.696,4.668 9.475 C 4.526 9.403,4.483 9.400,3.700 9.400 C 2.917 9.400,2.874 9.403,2.732 9.475 M15.332 9.475 C 14.895 9.696,14.895 10.304,15.332 10.525 C 15.474 10.597,15.517 10.600,16.300 10.600 C 17.083 10.600,17.126 10.597,17.268 10.525 C 17.705 10.304,17.705 9.696,17.268 9.475 C 17.126 9.403,17.083 9.400,16.300 9.400 C 15.517 9.400,15.474 9.403,15.332 9.475 M5.550 13.663 C 5.470 13.700,5.235 13.910,4.962 14.189 C 4.562 14.596,4.503 14.671,4.476 14.801 C 4.376 15.292,4.821 15.677,5.283 15.500 C 5.425 15.446,6.261 14.612,6.337 14.450 C 6.415 14.281,6.415 14.120,6.337 13.950 C 6.264 13.791,6.190 13.720,6.025 13.651 C 5.863 13.584,5.713 13.588,5.550 13.663 M13.950 13.663 C 13.791 13.736,13.720 13.810,13.651 13.975 C 13.584 14.137,13.588 14.287,13.663 14.450 C 13.739 14.612,14.575 15.446,14.717 15.500 C 15.179 15.677,15.624 15.292,15.524 14.801 C 15.497 14.671,15.438 14.596,15.038 14.189 C 14.456 13.595,14.281 13.511,13.950 13.663 M9.750 15.063 C 9.429 15.210,9.400 15.314,9.400 16.309 C 9.400 17.083,9.403 17.126,9.475 17.268 C 9.696 17.705,10.304 17.705,10.525 17.268 C 10.597 17.126,10.600 17.084,10.599 16.301 C 10.599 15.579,10.591 15.468,10.537 15.350 C 10.464 15.191,10.390 15.120,10.225 15.051 C 10.064 14.984,9.914 14.988,9.750 15.063 " fill="#19191C" stroke="none" fill-rule="evenodd"></path></symbol><symbol viewBox="0 0 20 20" id="aw-icon-linkedin"><path d="M2.667 1.720 C 2.185 1.850,1.803 2.251,1.702 2.733 C 1.673 2.870,1.666 4.737,1.673 10.067 L 1.683 17.217 1.807 17.476 C 1.949 17.772,2.181 18.022,2.436 18.151 C 2.817 18.344,2.361 18.333,10.033 18.333 C 17.832 18.333,17.291 18.348,17.667 18.120 C 17.889 17.984,18.141 17.685,18.242 17.435 L 18.317 17.250 18.326 10.050 C 18.332 5.319,18.323 2.796,18.301 2.692 C 18.215 2.288,17.986 1.996,17.608 1.809 L 17.353 1.683 10.102 1.677 C 3.796 1.671,2.826 1.677,2.667 1.720 M5.943 4.467 C 6.364 4.528,6.699 4.771,6.886 5.152 C 6.977 5.336,6.983 5.377,6.983 5.733 C 6.982 6.097,6.977 6.127,6.878 6.317 C 6.755 6.553,6.495 6.808,6.274 6.911 C 6.141 6.972,6.057 6.983,5.733 6.983 C 5.388 6.983,5.332 6.975,5.167 6.896 C 4.648 6.648,4.379 6.120,4.464 5.518 C 4.552 4.894,4.984 4.512,5.683 4.438 C 5.702 4.436,5.818 4.449,5.943 4.467 M13.438 7.981 C 14.460 8.198,15.170 8.931,15.433 10.040 C 15.546 10.517,15.566 11.014,15.566 13.325 L 15.567 15.567 14.352 15.567 L 13.137 15.567 13.125 13.292 C 13.115 11.255,13.107 10.996,13.056 10.817 C 12.879 10.205,12.562 9.917,12.021 9.876 C 11.504 9.837,10.997 10.116,10.768 10.564 C 10.606 10.881,10.601 10.968,10.600 13.342 L 10.600 15.567 9.417 15.567 L 8.233 15.567 8.233 11.850 L 8.233 8.133 9.417 8.133 L 10.600 8.133 10.600 8.656 L 10.600 9.178 10.737 8.981 C 11.077 8.489,11.561 8.144,12.112 7.999 C 12.409 7.922,13.111 7.912,13.438 7.981 M6.867 11.850 L 6.867 15.567 5.650 15.567 L 4.433 15.567 4.433 11.850 L 4.433 8.133 5.650 8.133 L 6.867 8.133 6.867 11.850 " fill="#19191C" stroke="none" fill-rule="evenodd"></path></symbol><symbol viewBox="0 0 20 20" id="aw-icon-location"><path d="M9.500 2.419 C 9.436 2.427,9.242 2.449,9.070 2.470 C 8.375 2.551,7.592 2.798,6.876 3.163 C 4.433 4.409,3.063 7.037,3.485 9.667 C 3.858 11.995,5.754 14.578,8.750 16.843 C 9.947 17.747,9.981 17.754,10.689 17.256 C 12.689 15.849,14.443 14.073,15.418 12.469 C 16.484 10.714,16.818 9.069,16.446 7.403 C 15.877 4.855,13.723 2.894,11.039 2.481 C 10.722 2.433,9.729 2.393,9.500 2.419 M10.707 3.650 C 12.389 3.874,13.827 4.786,14.678 6.170 C 15.296 7.174,15.541 8.538,15.305 9.650 C 14.891 11.600,13.315 13.702,10.766 15.703 C 10.499 15.912,10.218 16.127,10.141 16.179 L 10.001 16.275 9.813 16.146 C 9.276 15.776,8.271 14.931,7.638 14.317 C 6.043 12.769,5.007 11.131,4.699 9.672 C 4.459 8.533,4.699 7.182,5.322 6.170 C 6.428 4.372,8.576 3.367,10.707 3.650 M9.667 6.419 C 9.016 6.532,8.588 6.745,8.167 7.167 C 7.828 7.506,7.601 7.891,7.479 8.339 C 7.400 8.628,7.398 9.368,7.477 9.653 C 7.725 10.558,8.444 11.276,9.347 11.523 C 9.609 11.595,10.339 11.602,10.600 11.536 C 11.550 11.295,12.296 10.548,12.536 9.600 C 12.596 9.359,12.596 8.641,12.536 8.400 C 12.301 7.471,11.561 6.715,10.655 6.480 C 10.457 6.429,9.832 6.390,9.667 6.419 M10.504 7.697 C 10.855 7.830,11.165 8.139,11.306 8.496 C 11.410 8.761,11.410 9.239,11.306 9.504 C 11.166 9.859,10.859 10.166,10.504 10.306 C 10.357 10.363,10.248 10.379,10.000 10.379 C 9.752 10.379,9.643 10.363,9.496 10.306 C 8.714 9.998,8.381 9.089,8.770 8.326 C 8.855 8.161,9.165 7.852,9.333 7.767 C 9.685 7.587,10.141 7.560,10.504 7.697 " stroke="none" fill-rule="evenodd" fill="black"></path></symbol><symbol viewBox="0 0 20 20" id="aw-icon-logout-left"><path d="M15.250 4.463 C 15.091 4.536,15.020 4.610,14.951 4.775 C 14.906 4.884,14.900 5.485,14.900 10.009 L 14.900 15.119 14.975 15.268 C 15.196 15.705,15.804 15.705,16.025 15.268 L 16.100 15.119 16.099 10.001 C 16.099 5.106,16.096 4.878,16.037 4.750 C 15.964 4.591,15.890 4.520,15.725 4.451 C 15.564 4.384,15.414 4.388,15.250 4.463 M7.250 5.964 C 7.085 6.042,3.487 9.638,3.435 9.777 C 3.390 9.897,3.390 10.103,3.435 10.223 C 3.487 10.362,7.085 13.958,7.250 14.036 C 7.413 14.112,7.563 14.116,7.725 14.049 C 7.890 13.980,7.964 13.909,8.037 13.750 C 8.112 13.586,8.116 13.437,8.049 13.274 C 8.014 13.190,7.590 12.741,6.724 11.875 L 5.450 10.600 8.285 10.600 L 11.119 10.600 11.268 10.525 C 11.705 10.304,11.705 9.696,11.268 9.475 L 11.119 9.400 8.285 9.400 L 5.450 9.400 6.724 8.125 C 7.590 7.259,8.014 6.810,8.049 6.726 C 8.116 6.563,8.112 6.414,8.037 6.250 C 7.964 6.091,7.890 6.020,7.725 5.951 C 7.563 5.884,7.413 5.888,7.250 5.964 " stroke="none" fill-rule="evenodd" fill="black"></path></symbol><symbol viewBox="0 0 20 20" id="aw-icon-logout-right"><path d="M4.750 4.463 C 4.591 4.536,4.520 4.610,4.451 4.775 C 4.406 4.884,4.400 5.485,4.400 10.009 L 4.400 15.119 4.475 15.268 C 4.696 15.705,5.304 15.705,5.525 15.268 L 5.600 15.119 5.599 10.001 C 5.599 5.106,5.596 4.878,5.537 4.750 C 5.464 4.591,5.390 4.520,5.225 4.451 C 5.064 4.384,4.914 4.388,4.750 4.463 M12.250 5.963 C 12.091 6.036,12.020 6.110,11.951 6.275 C 11.886 6.431,11.886 6.569,11.951 6.726 C 11.986 6.810,12.410 7.259,13.276 8.125 L 14.550 9.400 11.715 9.400 L 8.881 9.400 8.732 9.475 C 8.295 9.696,8.295 10.304,8.732 10.525 L 8.881 10.600 11.715 10.600 L 14.550 10.600 13.276 11.875 C 12.410 12.741,11.986 13.190,11.951 13.274 C 11.884 13.437,11.888 13.586,11.963 13.750 C 12.036 13.909,12.110 13.980,12.275 14.049 C 12.437 14.116,12.587 14.112,12.750 14.036 C 12.915 13.958,16.513 10.362,16.565 10.223 C 16.584 10.171,16.600 10.071,16.600 10.000 C 16.600 9.929,16.584 9.829,16.565 9.777 C 16.513 9.638,12.915 6.042,12.750 5.964 C 12.582 5.885,12.420 5.885,12.250 5.963 " stroke="none" fill-rule="evenodd" fill="black"></path></symbol><symbol viewBox="0 0 20 20" id="aw-icon-minus"><path d="M5.732 9.475 C 5.295 9.696,5.295 10.304,5.732 10.525 L 5.881 10.600 10.000 10.600 L 14.119 10.600 14.268 10.525 C 14.593 10.361,14.694 9.968,14.491 9.662 C 14.450 9.600,14.349 9.516,14.268 9.475 L 14.119 9.400 10.000 9.400 L 5.881 9.400 5.732 9.475 " stroke="none" fill-rule="evenodd" fill="black"></path></symbol><symbol viewBox="0 0 20 20" id="aw-icon-plus"><path d="M9.750 5.463 C 9.591 5.536,9.520 5.610,9.451 5.775 C 9.407 5.880,9.400 6.149,9.400 7.649 L 9.400 9.400 7.640 9.400 C 5.882 9.400,5.881 9.400,5.732 9.475 C 5.295 9.696,5.295 10.304,5.732 10.525 C 5.881 10.600,5.882 10.600,7.640 10.600 L 9.400 10.600 9.400 12.360 C 9.400 14.118,9.400 14.119,9.475 14.268 C 9.696 14.705,10.304 14.705,10.525 14.268 C 10.600 14.119,10.600 14.118,10.600 12.360 L 10.600 10.600 12.360 10.600 C 14.118 10.600,14.119 10.600,14.268 10.525 C 14.705 10.304,14.705 9.696,14.268 9.475 C 14.119 9.400,14.118 9.400,12.360 9.400 L 10.600 9.400 10.599 7.642 C 10.599 6.007,10.594 5.874,10.537 5.750 C 10.464 5.591,10.390 5.520,10.225 5.451 C 10.064 5.384,9.914 5.388,9.750 5.463 " stroke="none" fill-rule="evenodd" fill="black"></path></symbol><symbol viewBox="0 0 20 20" id="aw-icon-product-hunt"><path d="M9.224 1.033 C 7.407 1.209,5.791 1.860,4.351 2.994 C 3.967 3.296,3.138 4.154,2.822 4.575 C 0.394 7.814,0.393 12.182,2.821 15.425 C 3.205 15.937,4.063 16.795,4.575 17.179 C 7.818 19.607,12.182 19.607,15.425 17.179 C 15.937 16.795,16.795 15.937,17.179 15.425 C 19.607 12.182,19.606 7.814,17.178 4.575 C 16.862 4.154,16.033 3.296,15.649 2.994 C 14.353 1.973,12.898 1.338,11.312 1.100 C 10.789 1.022,9.699 0.987,9.224 1.033 M11.963 5.594 C 12.737 5.799,13.399 6.272,13.823 6.922 C 14.180 7.470,14.333 7.988,14.333 8.650 C 14.333 9.309,14.180 9.831,13.827 10.372 C 13.404 11.020,12.748 11.493,11.976 11.708 C 11.731 11.776,11.634 11.781,10.175 11.792 L 8.633 11.804 8.633 13.152 L 8.633 14.500 7.750 14.500 L 6.867 14.500 6.867 9.999 L 6.867 5.497 9.275 5.508 C 11.639 5.520,11.688 5.521,11.963 5.594 M8.633 8.648 L 8.633 10.000 9.993 10.000 C 11.492 10.000,11.607 9.988,11.905 9.797 C 12.386 9.488,12.630 8.934,12.519 8.402 C 12.425 7.950,12.166 7.624,11.741 7.423 L 11.517 7.317 10.075 7.307 L 8.633 7.297 8.633 8.648 " fill="#19191C" stroke="none" fill-rule="evenodd"></path></symbol><symbol viewBox="0 0 20 20" id="aw-icon-search"><path d="M8.900 4.037 C 6.770 4.278,4.966 5.726,4.299 7.730 C 4.067 8.428,4.020 8.724,4.020 9.500 C 4.020 10.083,4.031 10.235,4.095 10.533 C 4.419 12.044,5.214 13.240,6.448 14.072 C 7.029 14.463,7.708 14.743,8.467 14.904 C 8.937 15.004,9.988 15.014,10.450 14.923 C 11.125 14.791,11.868 14.506,12.394 14.178 L 12.640 14.025 13.745 15.126 C 14.818 16.196,14.855 16.229,15.005 16.251 C 15.215 16.281,15.349 16.246,15.488 16.125 C 15.728 15.914,15.781 15.625,15.625 15.364 C 15.577 15.283,15.094 14.774,14.552 14.234 C 14.010 13.693,13.567 13.239,13.567 13.224 C 13.567 13.210,13.651 13.098,13.754 12.977 C 14.311 12.320,14.736 11.402,14.923 10.450 C 15.014 9.989,15.004 8.936,14.904 8.471 C 14.579 6.951,13.784 5.758,12.540 4.922 C 11.497 4.222,10.153 3.895,8.900 4.037 M10.333 5.283 C 12.061 5.628,13.427 7.026,13.737 8.767 C 13.795 9.088,13.795 9.912,13.737 10.233 C 13.584 11.091,13.154 11.915,12.534 12.534 C 10.856 14.212,8.160 14.220,6.481 12.551 C 5.979 12.052,5.618 11.463,5.408 10.800 C 5.261 10.338,5.218 10.043,5.218 9.500 C 5.218 9.234,5.238 8.904,5.263 8.767 C 5.368 8.178,5.652 7.498,6.003 7.000 C 6.228 6.680,6.680 6.228,7.000 6.003 C 7.509 5.645,8.220 5.350,8.767 5.270 C 8.904 5.250,9.054 5.227,9.100 5.219 C 9.260 5.191,10.085 5.234,10.333 5.283 " fill="#19191C" stroke="none" fill-rule="evenodd"></path></symbol><symbol viewBox="0 0 20 20" id="aw-icon-star"><path d="M9.793 3.034 C 9.583 3.070,9.317 3.219,9.180 3.379 C 9.119 3.451,8.707 4.224,8.265 5.097 C 7.823 5.969,7.451 6.695,7.437 6.708 C 7.424 6.722,6.611 6.848,5.632 6.988 C 4.523 7.146,3.784 7.266,3.675 7.307 C 3.458 7.387,3.191 7.639,3.091 7.858 C 3.033 7.983,3.018 8.080,3.017 8.317 C 3.016 8.824,2.992 8.792,4.508 10.233 C 5.228 10.917,5.821 11.502,5.827 11.533 C 5.832 11.565,5.700 12.369,5.532 13.320 C 5.307 14.596,5.232 15.092,5.246 15.211 C 5.269 15.413,5.391 15.683,5.531 15.843 C 5.759 16.102,6.249 16.254,6.586 16.170 C 6.671 16.148,7.470 15.756,8.361 15.298 C 9.252 14.841,9.989 14.467,10.000 14.467 C 10.011 14.467,10.748 14.841,11.639 15.298 C 12.530 15.756,13.329 16.148,13.414 16.170 C 13.876 16.286,14.416 16.029,14.632 15.591 C 14.806 15.239,14.805 15.232,14.468 13.320 C 14.300 12.369,14.168 11.565,14.173 11.533 C 14.179 11.502,14.772 10.916,15.492 10.232 C 17.009 8.790,16.984 8.822,16.982 8.317 C 16.982 8.068,16.967 7.988,16.900 7.850 C 16.789 7.621,16.541 7.387,16.325 7.307 C 16.216 7.266,15.477 7.146,14.368 6.988 C 13.389 6.848,12.576 6.722,12.562 6.708 C 12.549 6.695,12.177 5.970,11.735 5.097 C 11.283 4.204,10.881 3.451,10.815 3.374 C 10.594 3.116,10.162 2.972,9.793 3.034 M10.783 5.891 C 11.472 7.260,11.569 7.433,11.733 7.601 C 11.859 7.730,11.967 7.806,12.079 7.843 C 12.168 7.874,13.001 8.006,13.929 8.138 C 14.857 8.269,15.627 8.386,15.639 8.397 C 15.651 8.408,15.099 8.949,14.413 9.600 C 13.308 10.647,13.152 10.807,13.062 10.988 C 12.892 11.332,12.896 11.386,13.226 13.233 C 13.388 14.141,13.518 14.888,13.513 14.894 C 13.509 14.900,12.801 14.544,11.940 14.102 C 10.867 13.551,10.316 13.286,10.187 13.259 C 9.858 13.190,9.761 13.228,8.065 14.099 C 7.207 14.540,6.499 14.900,6.492 14.900 C 6.485 14.900,6.612 14.154,6.774 13.242 C 7.103 11.385,7.107 11.330,6.937 10.988 C 6.848 10.807,6.691 10.646,5.587 9.600 C 4.901 8.949,4.349 8.408,4.361 8.397 C 4.373 8.386,5.143 8.269,6.071 8.138 C 6.999 8.006,7.832 7.874,7.921 7.843 C 8.033 7.806,8.141 7.730,8.267 7.601 C 8.431 7.433,8.528 7.260,9.217 5.891 C 9.638 5.054,9.991 4.368,10.000 4.368 C 10.009 4.368,10.362 5.054,10.783 5.891 " stroke="none" fill-rule="evenodd" fill="black"></path></symbol><symbol viewBox="0 0 20 20" id="aw-icon-twitter"><path d="M12.717 2.833 C 11.410 3.115,10.379 4.024,9.955 5.268 C 9.776 5.793,9.720 6.469,9.812 6.992 L 9.854 7.233 9.701 7.233 C 9.466 7.233,8.763 7.140,8.300 7.048 C 6.090 6.607,3.978 5.413,2.532 3.787 L 2.217 3.433 2.159 3.508 C 2.066 3.628,1.844 4.225,1.783 4.517 C 1.504 5.863,2.007 7.240,3.094 8.106 L 3.338 8.300 3.220 8.300 C 2.911 8.300,2.166 8.101,1.822 7.927 C 1.751 7.891,1.685 7.871,1.673 7.882 C 1.635 7.920,1.730 8.584,1.816 8.880 C 2.172 10.104,3.137 11.063,4.361 11.411 L 4.640 11.490 4.428 11.536 C 4.289 11.567,4.009 11.583,3.608 11.583 C 3.215 11.583,3.000 11.595,3.000 11.618 C 3.000 11.700,3.379 12.403,3.530 12.602 C 3.870 13.050,4.346 13.443,4.858 13.697 C 5.278 13.906,5.570 13.986,6.293 14.088 C 6.353 14.096,6.394 14.116,6.385 14.131 C 6.346 14.193,5.682 14.612,5.328 14.798 C 4.754 15.099,4.113 15.333,3.457 15.484 C 2.842 15.624,1.860 15.696,1.300 15.641 C 1.126 15.624,0.980 15.612,0.976 15.615 C 0.958 15.628,1.591 15.982,1.950 16.160 C 3.063 16.711,4.332 17.072,5.617 17.202 C 6.174 17.258,7.370 17.249,7.913 17.185 C 9.971 16.940,11.636 16.272,13.200 15.066 C 13.611 14.749,14.516 13.845,14.865 13.403 C 15.836 12.174,16.499 10.832,16.885 9.314 C 17.095 8.491,17.168 7.954,17.190 7.083 L 17.209 6.349 17.396 6.211 C 17.794 5.918,18.394 5.323,18.762 4.856 C 19.078 4.454,19.078 4.455,18.752 4.584 C 18.405 4.720,17.978 4.846,17.583 4.930 C 17.241 5.002,16.967 5.044,16.967 5.023 C 16.967 5.016,17.049 4.955,17.149 4.888 C 17.612 4.581,18.094 4.018,18.349 3.486 C 18.588 2.987,18.597 3.001,18.161 3.219 C 17.586 3.508,17.073 3.696,16.442 3.848 L 16.201 3.907 15.992 3.717 C 15.560 3.326,15.008 3.027,14.440 2.877 C 13.988 2.757,13.163 2.736,12.717 2.833 " fill="#19191C" stroke="none" fill-rule="evenodd"></path></symbol><symbol viewBox="0 0 32 32" id="aw-icon-x"><path d="M1.959 3.267 C 2.729 4.256,12.587 17.179,12.587 17.199 C 12.587 17.215,10.319 19.819,7.547 22.987 C 4.775 26.154,2.507 28.758,2.507 28.773 C 2.507 28.788,3.474 28.800,4.656 28.800 L 6.806 28.800 10.696 24.351 C 12.836 21.904,14.611 19.907,14.640 19.914 C 14.669 19.921,16.217 21.922,18.080 24.360 L 21.467 28.793 25.827 28.797 C 28.225 28.799,30.187 28.788,30.187 28.773 C 30.187 28.758,27.689 25.444,24.637 21.409 C 21.584 17.375,19.094 14.052,19.103 14.027 C 19.113 14.001,21.181 11.625,23.700 8.746 C 26.219 5.867,28.339 3.442,28.412 3.356 L 28.543 3.200 26.365 3.203 L 24.187 3.207 20.720 7.179 C 18.813 9.363,17.205 11.197,17.145 11.254 C 17.037 11.357,17.031 11.350,13.952 7.278 L 10.867 3.200 6.387 3.200 C 2.811 3.200,1.917 3.213,1.959 3.267 M17.215 15.787 C 21.420 21.345,24.909 25.959,24.968 26.040 L 25.074 26.187 23.875 26.187 L 22.675 26.187 14.877 15.987 C 10.587 10.377,7.054 5.756,7.025 5.719 C 6.982 5.665,7.228 5.654,8.270 5.666 L 9.569 5.680 17.215 15.787 " stroke="none" fill-rule="evenodd"></path></symbol><symbol viewBox="0 0 20 20" id="aw-icon-youtube"><path d="M7.215 4.069 C 5.119 4.109,3.868 4.185,3.407 4.303 C 3.125 4.374,2.783 4.545,2.563 4.725 C 1.909 5.256,1.593 6.513,1.499 8.951 C 1.434 10.651,1.581 13.093,1.799 13.946 C 1.883 14.275,2.018 14.611,2.150 14.817 C 2.398 15.207,2.879 15.531,3.404 15.664 C 4.666 15.983,10.685 16.061,15.150 15.816 C 16.432 15.746,16.645 15.713,17.017 15.525 C 17.633 15.214,17.905 14.808,18.151 13.833 C 18.541 12.291,18.626 9.486,18.347 7.317 C 18.218 6.311,17.970 5.393,17.737 5.060 C 17.502 4.723,17.037 4.424,16.559 4.303 C 16.075 4.179,14.981 4.116,12.517 4.067 C 10.679 4.031,9.188 4.032,7.215 4.069 M9.567 8.055 C 9.833 8.193,10.676 8.646,11.442 9.062 C 12.666 9.726,12.827 9.822,12.775 9.860 C 12.655 9.949,11.222 10.701,8.958 11.861 L 8.300 12.199 8.300 9.817 L 8.300 7.436 8.692 7.620 C 8.907 7.721,9.301 7.917,9.567 8.055 " fill="#19191C" stroke="none" fill-rule="evenodd"></path></symbol></svg>