<svg xmlns="http://www.w3.org/2000/svg" xmlns:xlink="http://www.w3.org/1999/xlink" width="0" height="0" style="display:none;"><symbol viewBox="0 0 24 24" id="aw-icon-apple"><path d="M15.280 2.062 C 13.523 2.439,12.151 3.681,11.657 5.340 C 11.573 5.620,11.545 5.814,11.530 6.210 L 11.511 6.720 11.797 6.720 C 12.672 6.720,13.529 6.313,14.322 5.521 C 15.103 4.742,15.542 3.924,15.699 2.957 C 15.802 2.322,15.771 1.996,15.609 2.003 C 15.571 2.005,15.423 2.031,15.280 2.062 M14.754 6.799 C 14.369 6.848,13.939 6.966,12.900 7.308 C 11.593 7.739,11.647 7.739,10.399 7.326 C 9.860 7.148,9.270 6.967,9.087 6.923 C 7.225 6.482,5.175 7.389,3.977 9.185 C 2.977 10.683,2.733 12.945,3.321 15.280 C 3.826 17.288,4.727 19.021,6.070 20.570 C 6.615 21.199,7.036 21.547,7.538 21.786 C 8.180 22.090,8.695 22.059,9.922 21.640 C 10.985 21.278,11.163 21.242,11.892 21.241 C 12.606 21.240,12.898 21.294,13.639 21.565 C 14.389 21.839,14.721 21.923,15.149 21.949 C 16.172 22.010,16.972 21.549,17.929 20.349 C 18.752 19.317,19.279 18.435,19.752 17.300 C 20.037 16.614,20.032 16.663,19.828 16.585 C 19.409 16.425,18.684 15.857,18.213 15.320 C 17.860 14.918,17.492 14.215,17.362 13.695 C 17.046 12.430,17.249 11.149,17.922 10.157 C 18.230 9.703,18.809 9.155,19.360 8.796 L 19.459 8.731 19.300 8.536 C 18.408 7.437,17.106 6.833,15.520 6.781 C 15.245 6.772,14.900 6.780,14.754 6.799 " fill="#373B4D" stroke="none" fill-rule="evenodd"></path></symbol><symbol viewBox="0 0 20 20" id="aw-icon-arrow-down"><path d="" stroke="none" fill-rule="evenodd" fill="black"></path></symbol><symbol viewBox="0 0 20 20" id="aw-icon-arrow-ext-link"><path d="" stroke="none" fill-rule="evenodd" fill="black"></path></symbol><symbol viewBox="0 0 20 20" id="aw-icon-arrow-left"><path d="" stroke="none" fill-rule="evenodd" fill="black"></path></symbol><symbol viewBox="0 0 20 20" id="aw-icon-arrow-right"><path d="" stroke="none" fill-rule="evenodd" fill="black"></path></symbol><symbol viewBox="0 0 20 20" id="aw-icon-arrow-up"><path d="" stroke="none" fill-rule="evenodd" fill="black"></path></symbol><symbol viewBox="0 0 20 20" id="aw-icon-calendar"><path d="" stroke="none" fill-rule="evenodd" fill="black"></path></symbol><symbol viewBox="0 0 20 20" id="aw-icon-check"><path d="" stroke="none" fill-rule="evenodd" fill="black"></path></symbol><symbol viewBox="0 0 20 20" id="aw-icon-chevron-down"><path d="M5.359 7.535 C 5.186 7.584,5.038 7.702,4.969 7.845 C 4.888 8.013,4.882 8.126,4.947 8.282 C 4.975 8.348,5.402 8.815,5.959 9.390 C 7.044 10.508,9.545 12.972,9.724 13.100 C 9.895 13.221,10.109 13.215,10.301 13.083 C 10.500 12.947,14.751 8.699,14.936 8.453 C 15.063 8.283,15.083 8.234,15.081 8.099 C 15.078 7.895,14.944 7.662,14.788 7.588 C 14.725 7.558,14.592 7.533,14.492 7.533 C 14.345 7.533,14.285 7.551,14.180 7.628 C 14.109 7.680,13.139 8.627,12.025 9.731 L 10.000 11.740 7.960 9.718 C 6.839 8.605,5.860 7.661,5.785 7.618 C 5.624 7.527,5.483 7.499,5.359 7.535 " fill="#19191C" stroke="none" fill-rule="evenodd"></path></symbol><symbol viewBox="0 0 20 20" id="aw-icon-chevron-left"><path d="M12.089 5.291 C 12.018 5.302,11.683 5.609,10.745 6.524 C 9.013 8.214,7.296 9.970,7.226 10.125 C 7.153 10.284,7.152 10.442,7.223 10.592 C 7.302 10.758,11.815 15.272,11.994 15.363 C 12.069 15.402,12.185 15.433,12.250 15.433 C 12.578 15.433,12.857 15.124,12.825 14.795 C 12.811 14.651,12.784 14.607,12.547 14.345 C 12.402 14.185,11.456 13.220,10.444 12.200 L 8.604 10.345 9.788 9.164 C 11.825 7.132,12.789 6.126,12.816 6.003 C 12.873 5.745,12.751 5.461,12.538 5.353 C 12.434 5.301,12.222 5.272,12.089 5.291 " fill="#19191C" stroke="none" fill-rule="evenodd"></path></symbol><symbol viewBox="0 0 20 20" id="aw-icon-chevron-right"><path d="M7.500 5.340 C 7.256 5.465,7.131 5.719,7.182 5.987 C 7.201 6.088,7.352 6.259,8.083 7.012 C 8.566 7.510,9.509 8.463,10.179 9.131 L 11.396 10.346 9.523 12.233 C 8.493 13.271,7.546 14.237,7.419 14.379 C 7.206 14.618,7.188 14.650,7.176 14.810 C 7.149 15.191,7.500 15.491,7.887 15.418 C 7.989 15.399,8.183 15.225,9.112 14.319 C 10.571 12.897,12.757 10.663,12.800 10.551 C 12.852 10.413,12.840 10.268,12.763 10.109 C 12.713 10.006,12.044 9.314,10.455 7.722 C 9.224 6.490,8.156 5.440,8.082 5.391 C 7.887 5.260,7.688 5.243,7.500 5.340 " fill="#19191C" stroke="none" fill-rule="evenodd"></path></symbol><symbol viewBox="0 0 20 20" id="aw-icon-chevron-up"><path d="M9.875 7.524 C 9.761 7.546,9.216 8.053,7.737 9.517 C 6.127 11.110,5.030 12.253,4.951 12.420 C 4.797 12.743,5.109 13.200,5.483 13.200 C 5.710 13.200,5.842 13.082,7.930 11.012 L 10.000 8.960 12.070 11.012 C 13.554 12.484,14.182 13.084,14.289 13.136 C 14.562 13.268,14.890 13.146,15.029 12.858 C 15.140 12.630,15.124 12.503,14.960 12.295 C 14.735 12.011,13.703 10.947,12.344 9.598 C 10.191 7.461,10.192 7.462,9.875 7.524 " fill="#19191C" stroke="none" fill-rule="evenodd"></path></symbol><symbol viewBox="0 0 20 20" id="aw-icon-close"><path d="" stroke="none" fill-rule="evenodd" fill="black"></path></symbol><symbol viewBox="0 0 20 20" id="aw-icon-copy"><path d="M8.700 4.066 C 8.217 4.083,8.087 4.098,7.942 4.157 C 7.515 4.328,7.284 4.543,7.170 4.874 C 7.092 5.101,7.000 5.623,7.000 5.839 L 7.000 6.000 7.596 6.000 L 8.193 6.000 8.233 5.668 C 8.257 5.470,8.293 5.320,8.320 5.297 C 8.404 5.227,10.708 5.191,12.717 5.228 C 13.725 5.247,14.582 5.272,14.622 5.284 C 14.669 5.299,14.700 5.342,14.712 5.411 C 14.758 5.671,14.774 7.297,14.750 9.377 L 14.725 11.637 14.644 11.690 C 14.600 11.719,14.438 11.759,14.285 11.778 L 14.007 11.812 13.992 12.381 C 13.984 12.694,13.986 12.959,13.997 12.970 C 14.032 13.005,14.733 12.938,14.927 12.882 C 15.455 12.728,15.766 12.400,15.896 11.859 C 15.969 11.557,15.999 10.573,15.999 8.517 C 15.999 5.560,15.955 5.007,15.690 4.638 C 15.551 4.444,15.304 4.254,15.067 4.160 C 14.890 4.089,14.825 4.086,13.267 4.064 C 11.361 4.037,9.515 4.038,8.700 4.066 M6.217 7.032 L 5.050 7.050 4.869 7.150 C 4.651 7.270,4.354 7.535,4.247 7.704 C 4.204 7.772,4.135 7.923,4.093 8.039 L 4.017 8.250 4.017 11.483 L 4.017 14.717 4.090 14.951 C 4.233 15.403,4.581 15.757,5.031 15.908 C 5.249 15.981,5.263 15.981,8.217 15.992 C 9.869 15.999,11.338 15.990,11.533 15.973 C 12.043 15.928,12.224 15.849,12.537 15.537 C 12.841 15.232,12.925 15.043,12.969 14.567 C 13.006 14.160,13.006 8.858,12.969 8.411 C 12.948 8.161,12.918 8.023,12.854 7.883 C 12.740 7.634,12.383 7.277,12.118 7.149 L 11.920 7.052 10.818 7.029 C 9.607 7.003,8.010 7.004,6.217 7.032 M11.710 8.293 L 11.800 8.387 11.800 11.500 L 11.800 14.613 11.710 14.707 L 11.621 14.800 8.504 14.800 L 5.387 14.800 5.293 14.710 L 5.200 14.621 5.200 11.504 L 5.200 8.387 5.290 8.293 L 5.379 8.200 8.500 8.200 L 11.621 8.200 11.710 8.293 " fill="#19191C" stroke="none" fill-rule="evenodd"></path></symbol><symbol viewBox="0 0 20 20" id="aw-icon-dark"><path d="" stroke="none" fill-rule="evenodd" fill="black"></path></symbol><symbol viewBox="0 0 20 20" id="aw-icon-discord"><path d="M12.190 3.756 C 11.953 4.238,11.952 4.239,11.853 4.219 C 11.402 4.129,8.705 4.111,8.250 4.195 C 8.148 4.214,8.069 4.214,8.045 4.195 C 8.025 4.179,7.914 3.976,7.799 3.746 C 7.685 3.516,7.573 3.321,7.550 3.312 C 7.482 3.286,6.712 3.455,6.095 3.632 C 5.473 3.810,5.028 3.967,4.435 4.217 C 4.003 4.400,3.926 4.473,3.611 5.004 C 2.414 7.023,1.770 8.837,1.446 11.100 C 1.385 11.530,1.342 14.061,1.391 14.333 C 1.418 14.479,1.428 14.489,1.851 14.777 C 2.947 15.524,3.970 16.054,5.237 16.528 C 5.484 16.621,5.711 16.706,5.740 16.718 C 5.780 16.733,5.831 16.685,5.929 16.540 C 6.117 16.262,6.518 15.595,6.633 15.367 L 6.730 15.175 6.507 15.082 C 6.260 14.980,5.580 14.640,5.404 14.532 L 5.292 14.463 5.371 14.378 C 5.414 14.332,5.489 14.266,5.536 14.232 C 5.621 14.171,5.623 14.171,6.063 14.351 C 7.090 14.771,8.019 15.005,9.049 15.103 C 9.582 15.155,11.038 15.124,11.483 15.052 C 12.300 14.920,13.192 14.662,14.014 14.321 C 14.376 14.170,14.378 14.170,14.464 14.232 C 14.511 14.266,14.585 14.331,14.628 14.378 L 14.707 14.462 14.562 14.554 C 14.408 14.651,13.469 15.108,13.342 15.148 C 13.300 15.161,13.267 15.182,13.267 15.196 C 13.267 15.238,13.796 16.129,14.005 16.441 L 14.200 16.731 14.492 16.629 C 15.771 16.180,16.924 15.607,17.952 14.908 C 18.558 14.496,18.565 14.489,18.599 14.233 C 18.653 13.826,18.671 12.754,18.635 12.150 C 18.479 9.549,17.718 7.179,16.289 4.843 L 16.019 4.402 15.451 4.170 C 14.535 3.796,13.802 3.572,12.722 3.337 L 12.428 3.273 12.190 3.756 M13.119 8.936 C 13.586 9.022,13.992 9.344,14.208 9.800 C 14.355 10.109,14.400 10.320,14.400 10.693 C 14.399 11.198,14.229 11.633,13.905 11.963 C 13.674 12.198,13.481 12.314,13.199 12.386 C 12.438 12.581,11.687 12.079,11.407 11.188 C 11.324 10.924,11.337 10.343,11.431 10.068 C 11.620 9.519,12.048 9.076,12.507 8.952 C 12.725 8.893,12.865 8.890,13.119 8.936 M7.759 9.065 C 8.003 9.195,8.305 9.503,8.446 9.763 C 8.719 10.270,8.726 10.971,8.463 11.525 C 8.326 11.813,7.967 12.177,7.683 12.316 C 7.501 12.405,7.452 12.414,7.133 12.415 C 6.804 12.417,6.768 12.410,6.566 12.310 C 6.176 12.117,5.821 11.693,5.666 11.233 C 5.602 11.044,5.595 10.964,5.607 10.600 C 5.623 10.128,5.668 9.984,5.924 9.593 C 6.097 9.328,6.273 9.169,6.549 9.030 C 6.746 8.930,6.759 8.928,7.150 8.940 C 7.529 8.952,7.561 8.959,7.759 9.065 " fill="#19191C" stroke="none" fill-rule="evenodd"></path></symbol><symbol viewBox="0 0 20 20" id="aw-icon-divider-vertical"><path d="" stroke="none" fill-rule="evenodd" fill="black"></path></symbol><symbol viewBox="0 0 20 20" id="aw-icon-download"><path d="" stroke="none" fill-rule="evenodd" fill="black"></path></symbol><symbol viewBox="0 0 20 20" id="aw-icon-github"><path d="M9.017 1.120 C 7.436 1.344,6.376 1.737,5.135 2.559 C 4.129 3.225,3.319 4.022,2.671 4.983 C 2.042 5.917,1.619 6.865,1.333 7.983 C 1.134 8.764,1.084 9.228,1.084 10.300 C 1.084 11.101,1.094 11.271,1.159 11.646 C 1.357 12.774,1.732 13.870,2.222 14.750 C 3.177 16.464,4.655 17.835,6.383 18.611 C 7.105 18.935,7.357 18.990,7.556 18.868 C 7.775 18.735,7.810 18.525,7.780 17.539 C 7.758 16.802,7.757 16.795,7.687 16.814 C 7.648 16.825,7.433 16.851,7.209 16.873 C 6.479 16.943,5.944 16.834,5.465 16.516 C 5.140 16.299,4.982 16.105,4.717 15.597 C 4.342 14.878,4.250 14.762,3.655 14.256 C 3.506 14.129,3.467 14.076,3.467 13.999 C 3.467 13.938,3.490 13.890,3.531 13.868 C 3.632 13.814,3.941 13.827,4.155 13.894 C 4.553 14.018,4.787 14.219,5.235 14.817 C 5.560 15.251,5.739 15.419,6.033 15.568 C 6.453 15.779,6.931 15.789,7.568 15.600 L 7.792 15.533 7.847 15.312 C 7.924 15.009,8.046 14.717,8.187 14.505 C 8.252 14.407,8.296 14.319,8.286 14.308 C 8.276 14.298,8.056 14.246,7.798 14.194 C 7.262 14.085,6.789 13.941,6.447 13.784 C 5.889 13.528,5.319 13.041,5.004 12.550 C 4.803 12.236,4.558 11.674,4.466 11.314 C 4.370 10.940,4.322 10.214,4.345 9.512 C 4.363 8.974,4.375 8.880,4.453 8.662 C 4.594 8.268,4.812 7.836,5.013 7.556 L 5.200 7.295 5.134 6.968 C 5.020 6.409,5.054 5.655,5.217 5.108 C 5.293 4.854,5.362 4.818,5.687 4.867 C 6.194 4.944,6.710 5.155,7.371 5.556 L 7.758 5.791 8.037 5.729 C 8.640 5.595,8.930 5.563,9.683 5.544 C 10.592 5.521,11.167 5.563,11.798 5.697 L 12.245 5.793 12.506 5.630 C 12.872 5.400,13.576 5.053,13.838 4.973 C 13.959 4.935,14.200 4.894,14.372 4.882 C 14.739 4.855,14.708 4.825,14.837 5.318 C 14.906 5.580,14.915 5.692,14.915 6.233 C 14.914 6.699,14.900 6.905,14.858 7.074 L 14.801 7.298 14.987 7.557 C 15.300 7.993,15.558 8.586,15.631 9.036 C 15.708 9.507,15.648 10.856,15.530 11.317 C 15.438 11.678,15.239 12.150,15.044 12.473 C 14.490 13.391,13.491 13.974,12.059 14.217 C 11.889 14.245,11.732 14.275,11.710 14.283 C 11.683 14.292,11.711 14.358,11.789 14.473 C 11.856 14.571,11.961 14.761,12.024 14.896 C 12.139 15.141,12.139 15.142,12.169 15.829 C 12.185 16.207,12.214 17.008,12.231 17.608 C 12.252 18.288,12.278 18.726,12.301 18.769 C 12.346 18.853,12.526 18.933,12.669 18.933 C 12.935 18.933,13.903 18.516,14.567 18.115 C 15.325 17.657,16.298 16.803,16.871 16.091 C 17.883 14.833,18.532 13.387,18.823 11.741 C 18.911 11.244,18.916 11.166,18.914 10.233 C 18.912 9.202,18.894 8.997,18.746 8.334 C 18.428 6.915,17.940 5.819,17.106 4.652 C 16.872 4.326,16.026 3.449,15.600 3.092 C 14.455 2.133,12.886 1.411,11.441 1.179 C 11.130 1.130,9.271 1.084,9.017 1.120 " fill="#19191C" stroke="none" fill-rule="evenodd"></path></symbol><symbol viewBox="0 0 24 24" id="aw-icon-google"><path d="M11.373 3.041 C 8.904 3.281,6.657 4.445,5.081 6.300 C 3.852 7.748,3.084 9.759,3.012 11.720 C 2.941 13.664,3.600 15.748,4.780 17.314 C 5.900 18.801,7.479 19.931,9.247 20.512 C 10.096 20.790,10.718 20.913,11.550 20.965 C 15.195 21.194,18.282 19.645,19.859 16.798 C 20.482 15.673,20.879 14.291,20.964 12.950 C 21.006 12.291,20.962 10.946,20.887 10.600 C 20.858 10.463,20.852 10.459,20.619 10.434 C 20.487 10.420,18.531 10.407,16.270 10.404 L 12.160 10.400 12.160 12.120 L 12.160 13.840 14.640 13.840 C 17.043 13.840,17.120 13.842,17.120 13.915 C 17.120 14.044,16.921 14.604,16.757 14.940 C 16.355 15.760,15.455 16.610,14.621 16.957 C 13.837 17.283,13.129 17.418,12.200 17.416 C 11.587 17.415,11.444 17.402,11.051 17.310 C 9.004 16.831,7.428 15.294,6.902 13.266 C 6.808 12.901,6.800 12.805,6.800 12.004 C 6.800 11.208,6.808 11.105,6.900 10.752 C 7.317 9.147,8.358 7.859,9.832 7.123 C 10.660 6.709,11.285 6.585,12.400 6.610 C 13.104 6.626,13.215 6.638,13.540 6.736 C 14.271 6.957,14.977 7.315,15.460 7.712 L 15.700 7.909 17.014 6.625 L 18.328 5.342 18.174 5.209 C 16.826 4.046,15.155 3.307,13.360 3.081 C 12.879 3.020,11.807 2.999,11.373 3.041 " fill="#373B4D" stroke="none" fill-rule="evenodd"></path></symbol><symbol viewBox="0 0 20 20" id="aw-icon-hamburger-menu"><path d="" stroke="none" fill-rule="evenodd" fill="black"></path></symbol><symbol viewBox="0 0 20 20" id="aw-icon-light"><path d="M9.701 2.495 C 9.436 2.637,9.405 2.780,9.402 3.877 C 9.400 4.383,9.411 4.558,9.447 4.627 C 9.544 4.812,9.813 5.000,9.983 5.000 C 10.097 5.000,10.297 4.914,10.394 4.823 C 10.578 4.652,10.583 4.619,10.583 3.683 C 10.583 2.869,10.579 2.810,10.515 2.700 C 10.370 2.454,9.966 2.353,9.701 2.495 M4.769 4.555 C 4.570 4.654,4.469 4.818,4.467 5.045 C 4.466 5.232,4.537 5.353,4.835 5.675 C 5.182 6.049,5.565 6.357,5.720 6.386 C 6.105 6.458,6.483 6.043,6.372 5.670 C 6.300 5.431,5.576 4.675,5.281 4.532 C 5.100 4.444,4.981 4.450,4.769 4.555 M14.793 4.491 C 14.597 4.520,13.747 5.361,13.644 5.629 C 13.596 5.753,13.594 5.796,13.629 5.928 C 13.686 6.142,13.805 6.284,13.982 6.351 C 14.271 6.462,14.428 6.388,14.952 5.891 C 15.472 5.400,15.596 5.173,15.502 4.889 C 15.404 4.593,15.134 4.441,14.793 4.491 M9.200 6.099 C 8.419 6.266,7.747 6.630,7.177 7.194 C 6.344 8.019,5.937 9.127,6.035 10.306 C 6.105 11.150,6.330 11.744,6.839 12.423 C 7.482 13.281,8.532 13.874,9.571 13.966 C 10.836 14.077,11.988 13.662,12.850 12.785 C 13.578 12.044,13.983 11.049,13.983 10.000 C 13.983 9.376,13.859 8.835,13.581 8.250 C 13.049 7.128,11.939 6.297,10.687 6.084 C 10.278 6.014,9.562 6.021,9.200 6.099 M10.732 7.313 C 11.032 7.397,11.501 7.643,11.769 7.857 C 12.195 8.196,12.546 8.740,12.688 9.283 C 12.775 9.613,12.774 10.432,12.688 10.717 C 12.352 11.818,11.535 12.560,10.448 12.749 C 9.967 12.833,9.616 12.802,9.111 12.631 C 8.257 12.343,7.659 11.742,7.356 10.870 C 7.270 10.625,7.254 10.521,7.240 10.146 C 7.222 9.636,7.262 9.356,7.404 9.002 C 7.543 8.654,7.709 8.394,7.964 8.123 C 8.242 7.828,8.466 7.662,8.810 7.498 C 9.272 7.277,9.505 7.230,10.067 7.247 C 10.356 7.256,10.623 7.282,10.732 7.313 M2.995 9.428 C 2.817 9.446,2.748 9.470,2.648 9.551 C 2.407 9.746,2.342 9.988,2.465 10.229 C 2.540 10.377,2.733 10.557,2.847 10.585 C 2.890 10.596,3.291 10.600,3.738 10.594 C 4.629 10.582,4.671 10.574,4.843 10.369 C 5.087 10.079,5.021 9.709,4.690 9.504 C 4.590 9.442,4.512 9.434,3.898 9.420 C 3.523 9.412,3.117 9.416,2.995 9.428 M15.595 9.428 C 15.417 9.446,15.348 9.470,15.248 9.551 C 15.007 9.746,14.942 9.988,15.065 10.229 C 15.140 10.377,15.333 10.557,15.447 10.585 C 15.490 10.596,15.891 10.600,16.338 10.594 C 17.229 10.582,17.271 10.574,17.443 10.369 C 17.687 10.079,17.621 9.709,17.290 9.504 C 17.190 9.442,17.112 9.434,16.498 9.420 C 16.123 9.412,15.717 9.416,15.595 9.428 M5.675 13.634 C 5.529 13.667,5.379 13.785,4.962 14.199 C 4.467 14.689,4.414 14.793,4.501 15.107 C 4.597 15.453,4.994 15.637,5.291 15.475 C 5.584 15.316,6.303 14.559,6.368 14.342 C 6.485 13.950,6.086 13.541,5.675 13.634 M13.983 13.662 C 13.690 13.795,13.536 14.115,13.642 14.369 C 13.743 14.608,14.535 15.418,14.747 15.499 C 14.885 15.551,15.056 15.540,15.193 15.470 C 15.482 15.323,15.605 15.003,15.484 14.714 C 15.417 14.553,14.692 13.835,14.466 13.706 C 14.256 13.585,14.170 13.577,13.983 13.662 M9.701 15.095 C 9.436 15.237,9.405 15.380,9.402 16.477 C 9.400 16.983,9.411 17.158,9.447 17.227 C 9.544 17.412,9.813 17.600,9.983 17.600 C 10.097 17.600,10.297 17.514,10.394 17.423 C 10.578 17.252,10.583 17.219,10.583 16.283 C 10.583 15.469,10.579 15.410,10.515 15.300 C 10.370 15.054,9.966 14.953,9.701 15.095 " fill="#19191C" stroke="none" fill-rule="evenodd"></path></symbol><symbol viewBox="0 0 20 20" id="aw-icon-linkedin"><path d="M2.715 1.730 C 2.381 1.771,1.996 2.081,1.812 2.457 C 1.735 2.613,1.719 2.702,1.696 3.078 C 1.682 3.319,1.669 6.597,1.668 10.362 L 1.667 17.207 1.783 17.429 C 2.015 17.869,2.333 18.146,2.734 18.257 C 2.938 18.313,3.336 18.317,10.000 18.317 C 17.367 18.317,17.259 18.319,17.560 18.177 C 17.744 18.090,18.101 17.710,18.225 17.468 L 18.333 17.257 18.332 10.337 C 18.331 6.531,18.318 3.227,18.302 2.996 C 18.269 2.509,18.215 2.354,17.997 2.117 C 17.918 2.032,17.755 1.903,17.633 1.831 L 17.413 1.700 10.148 1.705 C 6.152 1.707,2.808 1.719,2.715 1.730 M6.130 4.519 C 6.363 4.588,6.592 4.755,6.754 4.976 C 6.942 5.231,6.976 5.368,6.962 5.816 C 6.948 6.253,6.896 6.367,6.571 6.676 C 6.290 6.944,6.197 6.978,5.733 6.981 C 5.396 6.983,5.331 6.974,5.192 6.906 C 4.961 6.792,4.726 6.565,4.606 6.339 C 4.503 6.147,4.500 6.128,4.500 5.727 C 4.500 5.344,4.507 5.300,4.590 5.132 C 4.755 4.801,5.018 4.600,5.433 4.485 C 5.634 4.430,5.870 4.442,6.130 4.519 M13.767 8.081 C 14.768 8.453,15.386 9.335,15.501 10.557 C 15.521 10.773,15.546 11.989,15.557 13.258 L 15.576 15.567 14.359 15.567 L 13.142 15.567 13.124 13.292 C 13.105 10.811,13.106 10.822,12.907 10.454 C 12.706 10.083,12.459 9.929,12.030 9.907 C 11.425 9.876,10.953 10.146,10.730 10.651 C 10.626 10.884,10.604 11.407,10.602 13.658 L 10.600 15.567 9.417 15.567 L 8.233 15.567 8.233 11.850 L 8.233 8.133 9.417 8.133 L 10.600 8.133 10.601 8.642 L 10.602 9.150 10.709 9.017 C 11.157 8.456,11.613 8.130,12.130 8.000 C 12.196 7.983,12.535 7.974,12.883 7.979 C 13.482 7.988,13.530 7.994,13.767 8.081 M6.867 11.850 L 6.867 15.567 5.650 15.567 L 4.433 15.567 4.433 11.850 L 4.433 8.133 5.650 8.133 L 6.867 8.133 6.867 11.850 " fill="#19191C" stroke="none" fill-rule="evenodd"></path></symbol><symbol viewBox="0 0 20 20" id="aw-icon-location"><path d="" stroke="none" fill-rule="evenodd" fill="black"></path></symbol><symbol viewBox="0 0 20 20" id="aw-icon-logout-left"><path d="" stroke="none" fill-rule="evenodd" fill="black"></path></symbol><symbol viewBox="0 0 20 20" id="aw-icon-logout-right"><path d="" stroke="none" fill-rule="evenodd" fill="black"></path></symbol><symbol viewBox="0 0 24 24" id="aw-icon-microsoft"><path d="M3.000 7.080 L 3.000 11.160 7.080 11.160 L 11.160 11.160 11.160 7.080 L 11.160 3.000 7.080 3.000 L 3.000 3.000 3.000 7.080 M12.840 7.080 L 12.840 11.160 16.920 11.160 L 21.000 11.160 21.000 7.080 L 21.000 3.000 16.920 3.000 L 12.840 3.000 12.840 7.080 M3.000 16.920 L 3.000 21.000 7.080 21.000 L 11.160 21.000 11.160 16.920 L 11.160 12.840 7.080 12.840 L 3.000 12.840 3.000 16.920 M12.840 16.920 L 12.840 21.000 16.920 21.000 L 21.000 21.000 21.000 16.920 L 21.000 12.840 16.920 12.840 L 12.840 12.840 12.840 16.920 " stroke="none" fill-rule="evenodd"></path></symbol><symbol viewBox="0 0 20 20" id="aw-icon-minus"><path d="" stroke="none" fill-rule="evenodd" fill="black"></path></symbol><symbol viewBox="0 0 20 20" id="aw-icon-plus"><path d="" stroke="none" fill-rule="evenodd" fill="black"></path></symbol><symbol viewBox="0 0 20 20" id="aw-icon-product-hunt"><path d="M9.100 1.055 C 7.509 1.209,5.904 1.844,4.568 2.846 C 4.181 3.136,3.385 3.905,3.026 4.333 C 1.682 5.941,0.929 8.177,1.012 10.317 C 1.078 12.032,1.586 13.573,2.587 15.090 C 2.987 15.695,3.978 16.725,4.626 17.208 C 6.867 18.877,9.776 19.414,12.450 18.651 C 13.485 18.355,14.527 17.839,15.400 17.189 C 15.815 16.880,16.891 15.804,17.190 15.400 C 18.143 14.112,18.727 12.654,18.939 11.033 C 18.993 10.625,18.993 9.375,18.939 8.967 C 18.726 7.346,18.129 5.855,17.187 4.600 C 16.889 4.202,16.120 3.409,15.683 3.050 C 14.404 1.996,12.824 1.309,11.200 1.100 C 10.907 1.062,9.365 1.029,9.100 1.055 M10.633 5.533 L 11.917 5.563 12.172 5.663 C 13.068 6.013,13.624 6.510,14.030 7.323 C 14.262 7.788,14.283 7.900,14.283 8.650 C 14.283 9.413,14.265 9.505,14.005 10.028 C 13.625 10.796,12.943 11.384,12.100 11.670 C 11.819 11.765,11.279 11.795,9.775 11.798 L 8.633 11.800 8.633 13.150 L 8.633 14.500 7.750 14.500 L 6.867 14.500 6.867 10.000 L 6.867 5.500 8.108 5.501 C 8.791 5.502,9.928 5.516,10.633 5.533 M8.633 8.648 L 8.633 10.006 10.042 9.991 C 11.635 9.975,11.697 9.966,11.988 9.726 C 12.203 9.549,12.418 9.257,12.472 9.069 C 12.497 8.985,12.516 8.782,12.516 8.617 C 12.515 8.350,12.503 8.292,12.410 8.093 C 12.280 7.817,12.080 7.617,11.773 7.455 L 11.540 7.333 10.087 7.311 L 8.633 7.289 8.633 8.648 " fill="#19191C" stroke="none" fill-rule="evenodd"></path></symbol><symbol viewBox="0 0 20 20" id="aw-icon-search"><path d="M8.783 4.067 C 7.723 4.228,7.019 4.518,6.170 5.143 C 5.325 5.766,4.664 6.690,4.304 7.750 C 4.136 8.246,4.082 8.502,4.033 9.033 C 3.911 10.338,4.303 11.720,5.096 12.783 C 5.742 13.649,6.731 14.367,7.733 14.696 C 9.309 15.213,10.888 15.044,12.347 14.204 L 12.644 14.033 13.630 15.009 C 14.772 16.138,14.880 16.233,15.063 16.257 C 15.343 16.295,15.650 16.041,15.690 15.740 C 15.728 15.458,15.661 15.371,14.484 14.167 C 13.835 13.502,13.600 13.247,13.600 13.207 C 13.600 13.190,13.695 13.051,13.810 12.897 C 14.229 12.339,14.487 11.855,14.713 11.207 C 14.924 10.599,14.967 10.320,14.967 9.538 C 14.967 8.728,14.929 8.459,14.733 7.862 C 14.430 6.940,14.045 6.307,13.386 5.648 C 12.421 4.683,11.309 4.166,9.917 4.035 C 9.434 3.989,9.262 3.994,8.783 4.067 M9.723 5.235 C 10.750 5.321,11.385 5.555,12.126 6.123 C 12.955 6.758,13.622 7.890,13.732 8.850 C 13.774 9.219,13.775 9.837,13.734 10.150 C 13.656 10.746,13.319 11.540,12.919 12.070 C 12.064 13.205,10.673 13.864,9.300 13.787 C 8.239 13.728,7.301 13.321,6.548 12.594 C 6.043 12.106,5.677 11.529,5.411 10.800 L 5.283 10.450 5.283 9.500 L 5.283 8.550 5.377 8.283 C 5.513 7.897,5.765 7.383,5.967 7.080 C 6.190 6.747,6.774 6.164,7.099 5.952 C 7.623 5.609,8.242 5.367,8.883 5.253 C 9.222 5.193,9.216 5.193,9.723 5.235 " fill="#19191C" stroke="none" fill-rule="evenodd"></path></symbol><symbol viewBox="0 0 20 20" id="aw-icon-star"><path d="" stroke="none" fill-rule="evenodd" fill="black"></path></symbol><symbol viewBox="0 0 20 20" id="aw-icon-twitter"><path d="M12.683 2.848 C 11.742 3.063,10.889 3.649,10.371 4.435 C 10.136 4.792,9.992 5.122,9.877 5.564 C 9.807 5.835,9.795 5.964,9.792 6.417 C 9.791 6.710,9.801 7.016,9.815 7.097 L 9.841 7.243 9.512 7.219 C 9.083 7.188,8.349 7.063,7.840 6.935 C 5.738 6.404,3.965 5.343,2.476 3.724 L 2.207 3.431 2.137 3.544 C 1.958 3.833,1.746 4.593,1.712 5.070 C 1.675 5.579,1.806 6.232,2.052 6.758 C 2.291 7.271,2.633 7.713,3.098 8.110 C 3.198 8.195,3.269 8.275,3.256 8.288 C 3.196 8.348,2.391 8.159,1.942 7.979 C 1.828 7.933,1.719 7.905,1.700 7.916 C 1.649 7.948,1.660 8.139,1.734 8.505 C 2.017 9.894,2.875 10.877,4.231 11.366 C 4.397 11.426,4.533 11.486,4.533 11.500 C 4.533 11.541,4.281 11.566,3.642 11.589 C 2.939 11.614,2.964 11.596,3.137 11.943 C 3.313 12.295,3.600 12.699,3.850 12.947 C 4.472 13.562,5.034 13.854,5.950 14.035 C 6.152 14.075,6.329 14.119,6.344 14.133 C 6.371 14.157,5.957 14.437,5.514 14.693 C 4.802 15.105,3.619 15.495,2.750 15.605 C 2.567 15.628,2.105 15.648,1.725 15.648 C 1.345 15.649,1.033 15.653,1.033 15.656 C 1.033 15.659,1.167 15.738,1.331 15.832 C 2.297 16.385,3.487 16.825,4.617 17.048 C 5.411 17.204,5.568 17.217,6.717 17.216 C 7.685 17.215,7.871 17.206,8.274 17.141 C 10.308 16.816,12.013 16.064,13.400 14.882 C 13.752 14.582,14.551 13.768,14.822 13.433 C 16.343 11.552,17.198 9.172,17.200 6.817 L 17.200 6.350 17.325 6.267 C 17.647 6.055,19.065 4.572,18.976 4.542 C 18.957 4.536,18.698 4.606,18.401 4.698 C 17.925 4.845,17.178 5.033,17.071 5.033 C 16.989 5.033,17.045 4.969,17.321 4.748 C 17.628 4.501,17.940 4.161,18.124 3.874 C 18.257 3.666,18.500 3.172,18.500 3.110 C 18.500 3.061,18.533 3.048,17.913 3.329 C 17.504 3.515,16.814 3.758,16.444 3.848 L 16.205 3.906 15.991 3.724 C 15.529 3.332,14.993 3.039,14.483 2.897 C 14.258 2.835,14.113 2.822,13.550 2.813 C 13.070 2.805,12.827 2.815,12.683 2.848 " fill="#19191C" stroke="none" fill-rule="evenodd"></path></symbol><symbol viewBox="0 0 32 32" id="aw-icon-x"><path d="" stroke="none" fill-rule="evenodd" fill="black"></path></symbol><symbol viewBox="0 0 20 20" id="aw-icon-youtube"><path d="M6.133 4.103 C 5.207 4.135,4.242 4.192,3.867 4.236 C 2.963 4.344,2.405 4.709,2.069 5.411 C 1.528 6.545,1.329 9.601,1.602 12.600 C 1.680 13.457,1.834 14.166,2.035 14.586 C 2.313 15.170,2.884 15.566,3.658 15.713 C 4.017 15.781,4.877 15.854,5.950 15.906 C 7.063 15.960,11.881 15.960,13.267 15.906 C 16.226 15.790,16.628 15.743,17.133 15.457 C 17.368 15.324,17.658 15.034,17.791 14.800 C 18.230 14.024,18.500 12.305,18.499 10.300 C 18.499 8.166,18.334 6.656,17.993 5.651 C 17.699 4.785,17.153 4.380,16.083 4.235 C 15.697 4.182,14.757 4.136,13.367 4.100 C 11.870 4.062,7.262 4.064,6.133 4.103 M9.683 8.126 C 11.334 8.992,12.658 9.725,12.732 9.815 C 12.772 9.863,12.748 9.881,12.367 10.091 C 12.144 10.214,8.961 11.869,8.575 12.063 L 8.300 12.201 8.300 9.819 L 8.300 7.438 8.658 7.607 C 8.855 7.700,9.317 7.933,9.683 8.126 " fill="#19191C" stroke="none" fill-rule="evenodd"></path></symbol></svg>