<svg xmlns="http://www.w3.org/2000/svg" xmlns:xlink="http://www.w3.org/1999/xlink" width="0" height="0" style="display:none;"><symbol viewBox="0 0 20 20" id="aw-icon-arrow-down">
<path d="M10 5.5L10 14.5" stroke="#19191C" stroke-width="1.2" stroke-linecap="round"></path>
<path d="M5.5 10L10 14.5" stroke="#19191C" stroke-width="1.2" stroke-linecap="round"></path>
<path d="M14.5 10L10 14.5" stroke="#19191C" stroke-width="1.2" stroke-linecap="round"></path>
</symbol><symbol viewBox="0 0 20 20" id="aw-icon-arrow-ext-link">
<path d="M6.81802 13.5459L13.182 7.18197" stroke="#19191C" stroke-width="1.2" stroke-linecap="round"></path>
<path d="M6.81802 7.18198H13.182" stroke="#19191C" stroke-width="1.2" stroke-linecap="round"></path>
<path d="M13.182 13.5459V7.18197" stroke="#19191C" stroke-width="1.2" stroke-linecap="round"></path>
</symbol><symbol viewBox="0 0 20 20" id="aw-icon-arrow-left">
<path d="M14.5 10H5.5" stroke="#19191C" stroke-width="1.2" stroke-linecap="round"></path>
<path d="M10 5.5L5.5 10" stroke="#19191C" stroke-width="1.2" stroke-linecap="round"></path>
<path d="M10 14.5L5.5 10" stroke="#19191C" stroke-width="1.2" stroke-linecap="round"></path>
</symbol><symbol viewBox="0 0 20 20" id="aw-icon-arrow-right">
<path d="M5.5 10L14.5 10" stroke="#19191C" stroke-width="1.2" stroke-linecap="round"></path>
<path d="M10 14.5L14.5 10" stroke="#19191C" stroke-width="1.2" stroke-linecap="round"></path>
<path d="M10 5.5L14.5 10" stroke="#19191C" stroke-width="1.2" stroke-linecap="round"></path>
</symbol><symbol viewBox="0 0 20 20" id="aw-icon-arrow-up">
<path d="M10 14.5L10 5.5" stroke="#19191C" stroke-width="1.2" stroke-linecap="round"></path>
<path d="M5.5 10L10 5.5" stroke="#19191C" stroke-width="1.2" stroke-linecap="round"></path>
<path d="M14.5 10L10 5.5" stroke="#19191C" stroke-width="1.2" stroke-linecap="round"></path>
</symbol><symbol viewBox="0 0 20 20" id="aw-icon-calendar">
<rect x="4" y="5" width="12" height="11" rx="2" stroke="#19191C" stroke-width="1.2" stroke-linecap="round" stroke-linejoin="round"></rect>
<path d="M4 9H16" stroke="#19191C" stroke-width="1.2" stroke-linecap="round"></path>
<path d="M13 6V4" stroke="#19191C" stroke-width="1.2" stroke-linecap="round" stroke-linejoin="round"></path>
<path d="M7 6V4" stroke="#19191C" stroke-width="1.2" stroke-linecap="round" stroke-linejoin="round"></path>
</symbol><symbol viewBox="0 0 20 20" id="aw-icon-check">
<path d="M5.5 11.5385L8.5 14L14.5 6" stroke="#19191C" stroke-width="1.2" stroke-linecap="round" stroke-linejoin="round"></path>
</symbol><symbol viewBox="0 0 20 20" id="aw-icon-chevron-down">
<path fill-rule="evenodd" clip-rule="evenodd" d="M10.4243 13.0243C10.19 13.2586 9.81007 13.2586 9.57576 13.0243L5.07576 8.52426C4.84145 8.28995 4.84145 7.91005 5.07576 7.67574C5.31007 7.44142 5.68997 7.44142 5.92429 7.67574L10 11.7515L14.0758 7.67574C14.3101 7.44142 14.69 7.44142 14.9243 7.67574C15.1586 7.91005 15.1586 8.28995 14.9243 8.52426L10.4243 13.0243Z" fill="#19191C"></path>
</symbol><symbol viewBox="0 0 20 20" id="aw-icon-chevron-left">
<path fill-rule="evenodd" clip-rule="evenodd" d="M7.32577 10.7743C7.09146 10.5399 7.09146 10.1601 7.32577 9.92574L11.8258 5.42574C12.0601 5.19142 12.44 5.19142 12.6743 5.42574C12.9086 5.66005 12.9086 6.03995 12.6743 6.27426L8.59856 10.35L12.6743 14.4257C12.9086 14.6601 12.9086 15.04 12.6743 15.2743C12.44 15.5086 12.0601 15.5086 11.8258 15.2743L7.32577 10.7743Z" fill="#19191C"></path>
</symbol><symbol viewBox="0 0 20 20" id="aw-icon-chevron-right">
<path fill-rule="evenodd" clip-rule="evenodd" d="M12.6743 10.7743C12.9086 10.5399 12.9086 10.1601 12.6743 9.92574L8.17429 5.42574C7.93997 5.19142 7.56008 5.19142 7.32576 5.42574C7.09145 5.66005 7.09145 6.03995 7.32576 6.27426L11.4015 10.35L7.32576 14.4257C7.09145 14.6601 7.09145 15.04 7.32576 15.2743C7.56007 15.5086 7.93997 15.5086 8.17429 15.2743L12.6743 10.7743Z" fill="#19191C"></path>
</symbol><symbol viewBox="0 0 20 20" id="aw-icon-chevron-up">
<path fill-rule="evenodd" clip-rule="evenodd" d="M10.4243 7.67575C10.19 7.44143 9.81007 7.44143 9.57576 7.67575L5.07576 12.1757C4.84145 12.4101 4.84145 12.79 5.07576 13.0243C5.31007 13.2586 5.68997 13.2586 5.92429 13.0243L10 8.94854L14.0758 13.0243C14.3101 13.2586 14.69 13.2586 14.9243 13.0243C15.1586 12.79 15.1586 12.4101 14.9243 12.1757L10.4243 7.67575Z" fill="#19191C"></path>
</symbol><symbol viewBox="0 0 20 20" id="aw-icon-close">
<path d="M5.5 5.5L14.5 14.5" stroke="#19191C" stroke-width="1.2" stroke-linecap="round"></path>
<path d="M5.5 14.5L14.5 5.5" stroke="#19191C" stroke-width="1.2" stroke-linecap="round"></path>
</symbol><symbol viewBox="0 0 20 20" id="aw-icon-copy">
<rect x="4.6" y="7.6" width="7.8" height="7.8" rx="0.9" stroke="#19191C" stroke-width="1.2"></rect>
<path fill-rule="evenodd" clip-rule="evenodd" d="M9.99159 5.2H12.9916C13.7326 5.2 14.1677 5.20255 14.4776 5.24422C14.6019 5.26093 14.6683 5.2797 14.7001 5.29153C14.7119 5.32325 14.7307 5.38965 14.7474 5.51399C14.789 5.82391 14.7916 6.25897 14.7916 7V10C14.7916 10.741 14.789 11.1761 14.7474 11.486C14.7307 11.6104 14.7119 11.6768 14.7001 11.7085C14.6683 11.7203 14.6019 11.7391 14.4776 11.7558C14.3438 11.7738 14.1866 11.7845 13.9916 11.7908V12C13.9916 12.3783 13.9916 12.7061 13.9832 12.9916C14.765 12.9686 15.2304 12.8825 15.5522 12.5607C15.9916 12.1213 15.9916 11.4142 15.9916 10V7C15.9916 5.58579 15.9916 4.87868 15.5522 4.43934C15.1129 4 14.4058 4 12.9916 4H9.99159C8.57737 4 7.87027 4 7.43093 4.43934C7.10912 4.76115 7.02303 5.22662 7 6.00841C7.28553 6 7.61326 6 7.99159 6H8.20077C8.20712 5.80496 8.21781 5.64781 8.23581 5.51399C8.25252 5.38965 8.27129 5.32325 8.28312 5.29153C8.31484 5.2797 8.38124 5.26093 8.50558 5.24422C8.8155 5.20255 9.25056 5.2 9.99159 5.2ZM14.7247 5.3034C14.7242 5.30359 14.7205 5.30184 14.7148 5.29759C14.7224 5.30109 14.7252 5.30321 14.7247 5.3034ZM14.694 5.27678C14.6897 5.27114 14.688 5.26735 14.6882 5.26686C14.6884 5.26638 14.6905 5.26919 14.694 5.27678ZM14.6882 11.7331C14.688 11.7326 14.6898 11.7289 14.694 11.7232C14.6905 11.7308 14.6884 11.7336 14.6882 11.7331ZM14.7148 11.7024C14.7204 11.6982 14.7242 11.6964 14.7247 11.6966C14.7252 11.6968 14.7224 11.6989 14.7148 11.7024ZM8.29499 5.26686C8.29518 5.26735 8.29343 5.27114 8.28918 5.27678C8.29268 5.26919 8.2948 5.26637 8.29499 5.26686ZM8.26836 5.29759C8.26273 5.30184 8.25894 5.30359 8.25845 5.3034C8.25796 5.30321 8.26078 5.30109 8.26836 5.29759Z" fill="#19191C"></path>
</symbol><symbol viewBox="0 0 20 20" id="aw-icon-dark">
<mask id="path-1-inside-1_399_892" fill="white">
<path fill-rule="evenodd" clip-rule="evenodd" d="M15.65 12.8845C15.7232 12.7513 15.7598 12.6847 15.7755 12.6227C15.8442 12.3513 15.6876 12.0866 15.4167 12.0161C15.3548 12 15.2365 12 15 12C12.2386 12 10 9.76142 10 7C10 6.09908 10.2383 5.25382 10.6552 4.52378C10.7844 4.29765 10.6481 4 10.3877 4C7.074 4 4.38773 6.68628 4.38773 9.99997C4.38773 13.3137 7.074 15.9999 10.3877 15.9999C12.6558 15.9999 14.63 14.7414 15.65 12.8845Z"></path>
</mask>
<path d="M10.6552 4.52378L11.6973 5.11894L10.6552 4.52378ZM15.4167 12.0161L15.1146 13.1775L15.4167 12.0161ZM15.65 12.8845L14.5983 12.3068L15.65 12.8845ZM15.7755 12.6227L16.9389 12.917L15.7755 12.6227ZM15 10.8C12.9013 10.8 11.2 9.09868 11.2 7H8.8C8.8 10.4242 11.5758 13.2 15 13.2V10.8ZM11.2 7C11.2 6.31329 11.3811 5.6725 11.6973 5.11894L9.61323 3.92863C9.09547 4.83513 8.8 5.88487 8.8 7H11.2ZM5.58773 9.99997C5.58773 7.34902 7.73675 5.2 10.3877 5.2V2.8C6.41126 2.8 3.18773 6.02354 3.18773 9.99997H5.58773ZM10.3877 14.7999C7.73675 14.7999 5.58773 12.6509 5.58773 9.99997H3.18773C3.18773 13.9764 6.41126 17.1999 10.3877 17.1999V14.7999ZM14.5983 12.3068C13.7806 13.7954 12.2006 14.7999 10.3877 14.7999V17.1999C13.1111 17.1999 15.4795 15.6874 16.7018 13.4623L14.5983 12.3068ZM11.6973 5.11894C11.9673 4.64606 11.9634 4.09308 11.7445 3.64767C11.5167 3.18448 11.0285 2.8 10.3877 2.8V5.2C10.0073 5.2 9.71741 4.96435 9.59066 4.70651C9.47264 4.46646 9.47229 4.17538 9.61323 3.92863L11.6973 5.11894ZM15 13.2C15.0601 13.2 15.1082 13.2 15.1495 13.2002C15.1911 13.2005 15.2187 13.2009 15.2377 13.2015C15.258 13.2021 15.2569 13.2025 15.2436 13.2013C15.236 13.2005 15.2211 13.1989 15.2009 13.1957C15.1809 13.1925 15.1511 13.1869 15.1146 13.1775L15.7188 10.8547C15.5437 10.8092 15.3771 10.8046 15.3099 10.8026C15.2206 10.7999 15.1103 10.8 15 10.8V13.2ZM16.7018 13.4623C16.7385 13.3956 16.876 13.1656 16.9389 12.917L14.6122 12.3283C14.6232 12.2848 14.6354 12.2505 14.6446 12.2275C14.649 12.2163 14.6527 12.2079 14.655 12.2028C14.6573 12.1978 14.6585 12.1953 14.6582 12.1959C14.6579 12.1965 14.6565 12.1993 14.6537 12.2048C14.6508 12.2103 14.6469 12.2176 14.6417 12.2274C14.6364 12.2371 14.6303 12.2483 14.623 12.2618C14.6156 12.2753 14.6076 12.2899 14.5983 12.3068L16.7018 13.4623ZM15.1146 13.1775C14.7471 13.0819 14.5191 12.6964 14.6122 12.3283L16.9389 12.917C17.1694 12.0062 16.6281 11.0913 15.7188 10.8547L15.1146 13.1775Z" fill="#19191C" mask="url(#path-1-inside-1_399_892)"></path>
</symbol><symbol viewBox="0 0 20 20" id="aw-icon-discord">
<path d="M16.0077 4.40339C14.8872 3.87734 13.689 3.49503 12.4364 3.27734C12.2825 3.55642 12.1028 3.93177 11.9789 4.23037C10.6473 4.02944 9.32794 4.02944 8.02083 4.23037C7.89694 3.93177 7.71313 3.55642 7.55791 3.27734C6.30391 3.49503 5.10437 3.87875 3.9838 4.40618C1.72361 7.83311 1.11091 11.1749 1.41726 14.4693C2.91634 15.5925 4.36913 16.2748 5.7974 16.7213C6.15005 16.2344 6.46456 15.7167 6.73551 15.1711C6.21948 14.9744 5.72524 14.7316 5.25824 14.4497C5.38213 14.3577 5.50332 14.2614 5.6204 14.1623C8.46878 15.499 11.5636 15.499 14.378 14.1623C14.4964 14.2614 14.6176 14.3577 14.7401 14.4497C14.2717 14.733 13.7762 14.9758 13.2601 15.1725C13.5311 15.7167 13.8442 16.2358 14.1982 16.7227C15.6279 16.2762 17.082 15.5939 18.5811 14.4693C18.9406 10.6503 17.967 7.33915 16.0077 4.40339ZM7.12356 12.4433C6.26851 12.4433 5.56729 11.6423 5.56729 10.667C5.56729 9.69168 6.25353 8.88937 7.12356 8.88937C7.99361 8.88937 8.6948 9.69027 8.67983 10.667C8.68118 11.6423 7.99361 12.4433 7.12356 12.4433ZM12.8748 12.4433C12.0197 12.4433 11.3185 11.6423 11.3185 10.667C11.3185 9.69168 12.0048 8.88937 12.8748 8.88937C13.7448 8.88937 14.446 9.69027 14.4311 10.667C14.4311 11.6423 13.7448 12.4433 12.8748 12.4433Z" fill="#19191C"></path>
</symbol><symbol viewBox="0 0 20 20" id="aw-icon-divider-vertical">
<path d="M10 4L10 16" stroke="#19191C" stroke-width="1.2" stroke-linecap="round"></path>
</symbol><symbol viewBox="0 0 20 20" id="aw-icon-download">
<path d="M9.75974 4.7562L9.75974 11.7562" stroke="#19191C" stroke-width="1.2" stroke-linecap="round"></path>
<path d="M6.25974 8.2562L9.75973 11.7562" stroke="#19191C" stroke-width="1.2" stroke-linecap="round"></path>
<path d="M13.2597 8.2562L9.75974 11.7562" stroke="#19191C" stroke-width="1.2" stroke-linecap="round"></path>
<path d="M4.72839 15.2563H14.7284" stroke="#19191C" stroke-width="1.2" stroke-linecap="round"></path>
</symbol><symbol viewBox="0 0 20 20" id="aw-icon-github">
<path fill-rule="evenodd" clip-rule="evenodd" d="M10.0008 1.05078C14.9439 1.05078 18.9508 5.15876 18.9508 10.2271C18.9508 14.2806 16.3893 17.7192 12.8352 18.9337C12.3815 19.0241 12.2204 18.7375 12.2204 18.4932C12.2204 18.1907 12.2311 17.2027 12.2311 15.9747C12.2311 15.1191 11.9447 14.5607 11.6234 14.2761C13.6166 14.0487 15.7109 13.2727 15.7109 9.74818C15.7109 8.74578 15.3636 7.92779 14.789 7.28518C14.8821 7.05338 15.1891 6.12001 14.7013 4.85627C14.7013 4.85627 13.9513 4.61039 12.2428 5.79716C11.5276 5.594 10.7615 5.49177 10.0008 5.48819C9.24003 5.49177 8.47481 5.594 7.7606 5.79716C6.05025 4.61039 5.29845 4.85627 5.29845 4.85627C4.81247 6.12001 5.11945 7.05338 5.21164 7.28518C4.63973 7.92779 4.28979 8.74578 4.28979 9.74818C4.28979 13.2637 6.37961 14.0517 8.36741 14.2835C8.11144 14.5126 7.87963 14.9168 7.79908 15.5102C7.28893 15.7447 5.99297 16.1505 5.19463 14.748C5.19463 14.748 4.72118 13.8663 3.8226 13.8019C3.8226 13.8019 2.94997 13.7903 3.76174 14.3595C3.76174 14.3595 4.34796 14.6414 4.75519 15.702C4.75519 15.702 5.28055 17.3398 7.77044 16.7849C7.77492 17.5519 7.78297 18.2748 7.78297 18.4932C7.78297 18.7358 7.61829 19.0196 7.17168 18.9346C3.61495 17.7219 1.05078 14.2815 1.05078 10.2271C1.05078 5.15876 5.05859 1.05078 10.0008 1.05078Z" fill="#19191C"></path>
</symbol><symbol viewBox="0 0 20 20" id="aw-icon-hamburger-menu">
<path d="M3 5.5H17" stroke="#19191C" stroke-width="1.2" stroke-linecap="round"></path>
<path d="M3 14.5H17" stroke="#19191C" stroke-width="1.2" stroke-linecap="round"></path>
</symbol><symbol viewBox="0 0 20 20" id="aw-icon-light">
<path fill-rule="evenodd" clip-rule="evenodd" d="M10 2.40002C10.3314 2.40002 10.6 2.66865 10.6 3.00002V4.40002C10.6 4.7314 10.3314 5.00002 10 5.00002C9.66864 5.00002 9.40001 4.7314 9.40001 4.40002V3.00002C9.40001 2.66865 9.66864 2.40002 10 2.40002ZM10 15C10.3314 15 10.6 15.2687 10.6 15.6V17C10.6 17.3314 10.3314 17.6 10 17.6C9.66864 17.6 9.40001 17.3314 9.40001 17V15.6C9.40001 15.2687 9.66864 15 10 15ZM10 12.8C11.5464 12.8 12.8 11.5464 12.8 10C12.8 8.45363 11.5464 7.20002 10 7.20002C8.45361 7.20002 7.20001 8.45363 7.20001 10C7.20001 11.5464 8.45361 12.8 10 12.8ZM10 14C12.2091 14 14 12.2092 14 10C14 7.79089 12.2091 6.00002 10 6.00002C7.79087 6.00002 6.00001 7.79089 6.00001 10C6.00001 12.2092 7.79087 14 10 14ZM17 10.6C17.3314 10.6 17.6 10.3314 17.6 10C17.6 9.66865 17.3314 9.40002 17 9.40002H15.6C15.2686 9.40002 15 9.66865 15 10C15 10.3314 15.2686 10.6 15.6 10.6H17ZM4.40001 10.6C4.73138 10.6 5.00001 10.3314 5.00001 10C5.00001 9.66865 4.73138 9.40002 4.40001 9.40002H3.00001C2.66864 9.40002 2.40001 9.66865 2.40001 10C2.40001 10.3314 2.66864 10.6 3.00001 10.6H4.40001ZM15.3735 15.3735C15.1391 15.6078 14.7593 15.6078 14.5249 15.3735L13.7757 14.6243C13.5414 14.39 13.5414 14.0101 13.7757 13.7758C14.01 13.5415 14.3899 13.5415 14.6242 13.7758L15.3735 14.525C15.6078 14.7593 15.6078 15.1392 15.3735 15.3735ZM6.22424 6.22431C5.98992 6.45862 5.61003 6.45862 5.37571 6.22431L4.62543 5.47403C4.39112 5.23972 4.39112 4.85982 4.62543 4.6255C4.85975 4.39119 5.23965 4.39119 5.47396 4.6255L6.22424 5.37578C6.45855 5.61009 6.45855 5.98999 6.22424 6.22431ZM4.6265 14.525C4.39218 14.7593 4.39218 15.1392 4.6265 15.3735C4.86081 15.6078 5.24071 15.6078 5.47503 15.3735L6.22561 14.6229C6.45993 14.3886 6.45993 14.0087 6.22561 13.7744C5.9913 13.5401 5.6114 13.5401 5.37709 13.7744L4.6265 14.525ZM13.7757 5.37578C13.5414 5.6101 13.5414 5.98999 13.7757 6.22431C14.01 6.45862 14.3899 6.45862 14.6243 6.22431L15.3745 5.47403C15.6088 5.23971 15.6088 4.85982 15.3745 4.6255C15.1402 4.39119 14.7603 4.39119 14.526 4.6255L13.7757 5.37578Z" fill="#19191C"></path>
</symbol><symbol viewBox="0 0 20 20" id="aw-icon-linkedin">
<path d="M16.997 1.66556H3.09111C2.91188 1.65716 2.73274 1.68419 2.56396 1.74511C2.39518 1.80603 2.24008 1.89964 2.10752 2.02057C1.97497 2.1415 1.86757 2.2874 1.79148 2.44988C1.71538 2.61238 1.67208 2.78828 1.66406 2.96752V16.9038C1.67456 17.2788 1.82829 17.6358 2.09367 17.9011C2.35905 18.1665 2.71595 18.3202 3.09111 18.3307H16.997C17.3617 18.3145 17.7056 18.156 17.9548 17.8892C18.2041 17.6225 18.3389 17.2687 18.3303 16.9038V2.96752C18.3334 2.79306 18.3007 2.61983 18.2343 2.45845C18.168 2.29708 18.0693 2.15096 17.9444 2.02904C17.8196 1.90714 17.6712 1.81202 17.5083 1.74952C17.3454 1.68701 17.1714 1.65844 16.997 1.66556ZM6.87228 15.5601H4.44525V8.13375H6.87228V15.5601ZM5.71605 7.00882C5.54669 7.01472 5.37793 6.98554 5.2204 6.92311C5.06285 6.86068 4.91991 6.76634 4.80058 6.64603C4.68124 6.52572 4.58807 6.38203 4.52692 6.22399C4.46577 6.06596 4.43797 5.89698 4.44525 5.72768C4.43776 5.55656 4.46612 5.38576 4.52853 5.22624C4.59093 5.06671 4.68599 4.922 4.8076 4.80137C4.92923 4.68074 5.07471 4.58686 5.23474 4.52576C5.39478 4.46465 5.56582 4.43768 5.73689 4.44655C5.90625 4.44066 6.075 4.46983 6.23254 4.53226C6.39009 4.5947 6.53302 4.68903 6.65235 4.80934C6.77169 4.92965 6.86487 5.07334 6.92601 5.23138C6.98717 5.38941 7.01497 5.55839 7.00769 5.72768C7.01518 5.89882 6.98681 6.06961 6.92441 6.22913C6.86201 6.38866 6.76695 6.53337 6.64533 6.654C6.52371 6.77463 6.37822 6.86851 6.2182 6.92961C6.05816 6.99072 5.88712 7.01769 5.71605 7.00882ZM15.5596 15.5601H13.1221V11.498C13.1221 10.5294 12.7784 9.86275 11.9138 9.86275C11.6453 9.86505 11.3839 9.95035 11.1658 10.107C10.9476 10.2637 10.7832 10.4839 10.6951 10.7377C10.6274 10.9279 10.5991 11.1298 10.6118 11.3314V15.5601H8.21599V8.13375H10.6118V9.17532C10.8248 8.784 11.1418 8.45924 11.5278 8.23676C11.9138 8.01438 12.3538 7.90302 12.7992 7.91499C14.3721 7.91499 15.5596 8.95659 15.5596 11.1751V15.5601Z" fill="#19191C"></path>
</symbol><symbol viewBox="0 0 20 20" id="aw-icon-location">
<path d="M16 8.72727C16 13.1818 10 17 10 17C10 17 4 13.1818 4 8.72727C4 7.20831 4.63214 5.75155 5.75736 4.67748C6.88258 3.60341 8.4087 3 10 3C11.5913 3 13.1174 3.60341 14.2426 4.67748C15.3679 5.75155 16 7.20831 16 8.72727Z" stroke="#19191C" stroke-width="1.2" stroke-linecap="round" stroke-linejoin="round"></path>
<path d="M10 11C11.1046 11 12 10.1046 12 9C12 7.89543 11.1046 7 10 7C8.89543 7 8 7.89543 8 9C8 10.1046 8.89543 11 10 11Z" stroke="#19191C" stroke-width="1.2" stroke-linecap="round" stroke-linejoin="round"></path>
</symbol><symbol viewBox="0 0 20 20" id="aw-icon-logout-left">
<path d="M11 10H4" stroke="#19191C" stroke-width="1.2" stroke-linecap="round"></path>
<path d="M7.5 6.5L4 10" stroke="#19191C" stroke-width="1.2" stroke-linecap="round"></path>
<path d="M7.5 13.5L4 10" stroke="#19191C" stroke-width="1.2" stroke-linecap="round"></path>
<path d="M15.5 5L15.5 15" stroke="#19191C" stroke-width="1.2" stroke-linecap="round"></path>
</symbol><symbol viewBox="0 0 20 20" id="aw-icon-logout-right">
<path d="M9 10L16 10" stroke="#19191C" stroke-width="1.2" stroke-linecap="round"></path>
<path d="M12.5 13.5L16 10" stroke="#19191C" stroke-width="1.2" stroke-linecap="round"></path>
<path d="M12.5 6.5L16 10" stroke="#19191C" stroke-width="1.2" stroke-linecap="round"></path>
<path d="M5 5L5 15" stroke="#19191C" stroke-width="1.2" stroke-linecap="round"></path>
</symbol><symbol viewBox="0 0 20 20" id="aw-icon-minus">
<path d="M6 10H14" stroke="#19191C" stroke-width="1.2" stroke-linecap="round"></path>
</symbol><symbol viewBox="0 0 20 20" id="aw-icon-plus">
<path d="M6 10H14" stroke="#19191C" stroke-width="1.2" stroke-linecap="round"></path>
<path d="M10 6L10 14" stroke="#19191C" stroke-width="1.2" stroke-linecap="round"></path>
</symbol><symbol viewBox="0 0 20 20" id="aw-icon-product-hunt">
<g clip-path="url(#clip0_1024_2060)">
<path fill-rule="evenodd" clip-rule="evenodd" d="M10 19C14.9706 19 19 14.9706 19 10C19 5.02945 14.9706 1 10 1C5.02945 1 1 5.02945 1 10C1 14.9706 5.02945 19 10 19ZM8.65 10.0001L11.2 10C11.9456 10 12.55 9.39558 12.55 8.65C12.55 7.90443 11.9456 7.30008 11.2 7.30008H8.65V10.0001ZM6.85 5.5H11.2C12.9397 5.5 14.35 6.9103 14.35 8.65C14.35 10.3897 12.9397 11.8001 11.2 11.8001H8.65V14.5H6.85V5.5Z" fill="#19191C"></path>
</g>
<defs>
<clippath id="clip0_1024_2060">
<rect width="18" height="18" fill="white" transform="matrix(1 0 0 -1 1 19)"></rect>
</clippath>
</defs>
</symbol><symbol viewBox="0 0 20 20" id="aw-icon-search">
<path fill-rule="evenodd" clip-rule="evenodd" d="M13.8 9.5C13.8 11.8748 11.8748 13.8 9.50001 13.8C7.12518 13.8 5.20001 11.8748 5.20001 9.5C5.20001 7.12518 7.12518 5.2 9.50001 5.2C11.8748 5.2 13.8 7.12518 13.8 9.5ZM12.6281 14.0245C11.74 14.6396 10.6621 15 9.50001 15C6.46244 15 4.00001 12.5376 4.00001 9.5C4.00001 6.46243 6.46244 4 9.50001 4C12.5376 4 15 6.46243 15 9.5C15 10.9423 14.4448 12.2549 13.5365 13.2359L15.543 15.2424C15.7773 15.4767 15.7773 15.8566 15.543 16.0909C15.3087 16.3252 14.9288 16.3252 14.6945 16.0909L12.6281 14.0245Z" fill="#19191C"></path>
</symbol><symbol viewBox="0 0 20 20" id="aw-icon-star">
<path d="M9.553 3.88421C9.7383 3.51768 10.2617 3.51768 10.447 3.88421L12.0452 7.04567C12.119 7.19167 12.2595 7.29242 12.4214 7.31554L15.9762 7.82287C16.3906 7.88201 16.5539 8.39319 16.2506 8.68166L13.6946 11.1125C13.5731 11.2281 13.5174 11.3969 13.5465 11.5621L14.1517 15.0075C14.2233 15.4151 13.7977 15.7287 13.4296 15.5397L10.2288 13.8961C10.0852 13.8224 9.91482 13.8224 9.77121 13.8961L6.57045 15.5397C6.20231 15.7287 5.77675 15.4151 5.84834 15.0075L6.45354 11.5621C6.48256 11.3969 6.42694 11.2281 6.30539 11.1125L3.74937 8.68165C3.44606 8.39319 3.60939 7.88201 4.02378 7.82287L7.57855 7.31554C7.74051 7.29242 7.88097 7.19167 7.95478 7.04567L9.553 3.88421Z" stroke="#19191C" stroke-width="1.20208" stroke-linecap="round" stroke-linejoin="round"></path>
</symbol><symbol viewBox="0 0 20 20" id="aw-icon-twitter">
<path fill-rule="evenodd" clip-rule="evenodd" d="M6.64167 17.25C13.4717 17.25 17.2075 11.6707 17.2075 6.83286C17.2075 6.67404 17.2075 6.51641 17.1967 6.35937C17.9234 5.84186 18.5506 5.19931 19.0492 4.4641C18.3723 4.76033 17.6528 4.9546 16.917 5.04025C17.6917 4.58252 18.2718 3.86341 18.5497 3.01488C17.8202 3.44137 17.0229 3.74238 16.1912 3.90388C14.7849 2.42987 12.4328 2.35846 10.9368 3.74502C9.97297 4.63906 9.56301 5.97205 9.86256 7.24351C6.87697 7.0954 4.095 5.70529 2.20898 3.41845C1.22343 5.09142 1.72752 7.23082 3.35923 8.30509C2.76827 8.28814 2.18997 8.13127 1.67322 7.84754V7.894C1.67412 9.63658 2.92031 11.137 4.65248 11.4823C4.10586 11.6295 3.53209 11.6509 2.97642 11.5447C3.4624 13.0366 4.85701 14.0584 6.44528 14.0878C5.13032 15.1068 3.50584 15.6601 1.8334 15.6583C1.53837 15.6574 1.24334 15.6404 0.949219 15.6056C2.6479 16.6799 4.62352 17.25 6.64167 17.2473" fill="#19191C"></path>
</symbol><symbol viewBox="0 0 20 20" id="aw-icon-youtube">
<path fill-rule="evenodd" clip-rule="evenodd" d="M8.28641 12.2015V7.42312C9.98274 8.22133 11.2965 8.99241 12.8504 9.82374C11.5688 10.5345 9.98274 11.332 8.28641 12.2015ZM17.7401 5.04661C17.4475 4.66109 16.9487 4.361 16.4178 4.26165C14.8572 3.96529 5.12105 3.96445 3.56128 4.26165C3.1355 4.34147 2.75635 4.5344 2.43066 4.83416C1.05832 6.10789 1.48835 12.9385 1.81913 14.045C1.95823 14.5239 2.13805 14.8693 2.36451 15.096C2.65628 15.3958 3.05576 15.6022 3.51462 15.6947C4.79959 15.9605 11.4195 16.1091 16.3906 15.7347C16.8486 15.6548 17.2541 15.4418 17.5738 15.1293C18.8427 13.8607 18.7562 6.64642 17.7401 5.04661Z" fill="#19191C"></path>
</symbol></svg>