<svg xmlns="http://www.w3.org/2000/svg" xmlns:xlink="http://www.w3.org/1999/xlink" width="0" height="0" style="display:none;"><symbol id="aw-icon-apple"><path d="M15.22 2.08a4.903 4.903 0 0 0-3.32 2.651c-.237.502-.337.908-.367 1.499l-.025.49h.248c.543 0 1.27-.232 1.799-.574.551-.356 1.324-1.193 1.664-1.801.391-.7.682-2.166.458-2.308-.072-.045-.072-.045-.457.043M7.332 6.897c-1.519.288-2.964 1.421-3.673 2.881-.91 1.873-.867 4.261.126 6.982.231.632.823 1.783 1.249 2.425.502.757.797 1.13 1.302 1.649.831.853 1.348 1.134 2.079 1.132.402-.001.653-.057 1.618-.362.996-.314 1.12-.337 1.867-.339.725-.002.802.013 1.9.355 1.144.356 1.462.399 2.012.275.505-.115.849-.301 1.336-.723.725-.629 1.805-2.141 2.328-3.26.277-.592.494-1.149.47-1.21-.01-.028-.135-.116-.275-.195-.598-.334-1.338-.997-1.675-1.501-.425-.635-.652-1.235-.72-1.901-.092-.903.023-1.699.345-2.377.317-.669.794-1.228 1.493-1.748.177-.132.323-.25.324-.263.004-.051-.315-.386-.664-.697-.602-.537-1.267-.878-2.106-1.081-.371-.09-.488-.099-1.288-.098-1.031 0-.999-.006-2.395.441-.95.304-1.012.318-1.369.318-.344 0-.428-.018-1.065-.223-1.448-.467-1.62-.505-2.311-.521-.411-.009-.717.005-.908.041" fill="#373B4D" fill-rule="evenodd"></path></symbol><symbol id="aw-icon-arrow-down"><path d="M9.75 4.963a.508.508 0 0 0-.299.312c-.045.108-.051.581-.051 3.949v3.826l-1.775-1.774c-1.228-1.227-1.813-1.789-1.899-1.825a.56.56 0 0 0-.476.012.508.508 0 0 0-.299.312.553.553 0 0 0 .013.475c.078.166 4.673 4.763 4.813 4.815A.784.784 0 0 0 10 15.1a.784.784 0 0 0 .223-.035c.14-.052 4.735-4.649 4.813-4.815a.56.56 0 0 0 .001-.5.508.508 0 0 0-.312-.299.546.546 0 0 0-.451 0c-.086.036-.671.598-1.899 1.825L10.6 13.05l-.001-3.833c0-3.649-.003-3.84-.062-3.967a.508.508 0 0 0-.312-.299.557.557 0 0 0-.475.012" fill-rule="evenodd" fill="#000"></path></symbol><symbol id="aw-icon-arrow-ext-link"><path d="m9.814 6.6-3.236.017-.118.089c-.327.25-.296.784.057.984l.133.076h2.525c1.389 0 2.525.012 2.525.025 0 .014-1.214 1.24-2.698 2.725-1.51 1.511-2.714 2.742-2.734 2.795a.736.736 0 0 0 .032.522c.136.267.516.38.793.236.069-.036 1.31-1.252 2.807-2.75l2.683-2.686.017 2.575.017 2.575.077.109c.24.337.783.313.991-.043l.079-.134.004-3.355c.004-3.635.013-3.442-.174-3.617a.667.667 0 0 0-.435-.168c-.06.004-1.565.015-3.345.025" fill-rule="evenodd" fill="#000"></path></symbol><symbol id="aw-icon-arrow-left"><path d="M9.75 4.964c-.166.078-4.763 4.673-4.815 4.813a.754.754 0 0 0 0 .446c.052.14 4.649 4.735 4.815 4.813a.56.56 0 0 0 .5.001.508.508 0 0 0 .299-.312.546.546 0 0 0 0-.451c-.036-.086-.598-.671-1.825-1.899L6.95 10.6h7.669l.149-.075a.584.584 0 0 0 0-1.05l-.149-.075H6.95l1.774-1.775c1.227-1.228 1.789-1.813 1.825-1.899a.56.56 0 0 0-.012-.476.508.508 0 0 0-.312-.299.553.553 0 0 0-.475.013" fill-rule="evenodd" fill="#000"></path></symbol><symbol id="aw-icon-arrow-right"><path d="M9.75 4.963a.508.508 0 0 0-.299.312.546.546 0 0 0 0 .451c.036.086.598.671 1.825 1.899L13.05 9.4H5.381l-.149.075a.584.584 0 0 0 0 1.05l.149.075h7.669l-1.774 1.775c-1.227 1.228-1.789 1.813-1.825 1.899a.546.546 0 0 0 0 .451c.069.165.14.239.299.312a.56.56 0 0 0 .5-.001c.166-.078 4.763-4.673 4.815-4.813a.754.754 0 0 0 0-.446c-.052-.14-4.649-4.735-4.815-4.813a.56.56 0 0 0-.5-.001" fill-rule="evenodd" fill="#000"></path></symbol><symbol id="aw-icon-arrow-up"><path d="M9.75 4.948c-.158.072-4.737 4.677-4.799 4.826a.56.56 0 0 0 .012.476c.073.159.147.23.312.299a.546.546 0 0 0 .451 0c.086-.036.671-.598 1.899-1.825L9.4 6.95v7.669l.075.149a.584.584 0 0 0 1.05 0l.075-.149V6.95l1.775 1.774c1.228 1.227 1.813 1.789 1.899 1.825a.56.56 0 0 0 .476-.012.508.508 0 0 0 .299-.312.553.553 0 0 0-.013-.475c-.078-.166-4.673-4.763-4.813-4.815a.742.742 0 0 0-.473.013" fill-rule="evenodd" fill="#000"></path></symbol><symbol id="aw-icon-calendar"><path d="M6.75 3.463c-.251.115-.35.307-.35.681v.246l-.442.021a3.996 3.996 0 0 0-.629.071c-.884.241-1.596.956-1.854 1.865-.054.188-.058.501-.058 4.153 0 3.652.004 3.965.058 4.153.26.915.957 1.612 1.872 1.872.188.054.526.058 4.636.058 3.706 0 4.464-.007 4.617-.047a2.683 2.683 0 0 0 1.936-1.936c.07-.273.07-7.927 0-8.2-.237-.926-.962-1.672-1.865-1.918a3.996 3.996 0 0 0-.629-.071L13.6 4.39v-.255c0-.197-.017-.287-.075-.403a.584.584 0 0 0-1.05 0c-.059.116-.075.205-.075.408v.26H7.6l-.001-.258c-.001-.387-.104-.578-.374-.691a.557.557 0 0 0-.475.012M6.4 5.86c0 .203.016.292.075.408a.584.584 0 0 0 1.05 0c.059-.116.075-.205.075-.408V5.6h4.8v.26c0 .203.016.292.075.408a.584.584 0 0 0 1.05 0c.059-.117.075-.205.075-.413v-.264l.358.017c.544.025.867.178 1.155.549.245.314.267.422.28 1.385l.012.858H4.6v-.794c0-1.031.05-1.221.417-1.589.3-.299.594-.411 1.091-.415L6.4 5.6v.26m8.993 6.098-.01 2.359-.075.187a1.494 1.494 0 0 1-.804.804l-.187.075H5.683l-.187-.075a1.69 1.69 0 0 1-.339-.195 1.526 1.526 0 0 1-.465-.609l-.075-.187-.01-2.359L4.598 9.6h10.804l-.009 2.358" fill-rule="evenodd" fill="#000"></path></symbol><symbol id="aw-icon-check"><path d="M14.244 5.465c-.126.057-.431.451-2.994 3.868-2.074 2.766-2.865 3.796-2.894 3.773-2.756-2.265-2.675-2.207-2.953-2.156-.273.049-.504.318-.502.586.002.282.026.307 1.696 1.678.864.71 1.623 1.312 1.686 1.338a.558.558 0 0 0 .473-.017c.126-.057.448-.474 3.196-4.137 1.68-2.241 3.076-4.124 3.102-4.185a.553.553 0 0 0-.017-.463.508.508 0 0 0-.312-.299.56.56 0 0 0-.481.014" fill-rule="evenodd" fill="#000"></path></symbol><symbol id="aw-icon-chevron-down"><path d="M5.25 7.563a.508.508 0 0 0-.299.312.553.553 0 0 0 .013.475c.089.189 4.638 4.728 4.81 4.799a.548.548 0 0 0 .452 0c.172-.071 4.721-4.61 4.81-4.799a.56.56 0 0 0 .001-.5.508.508 0 0 0-.312-.299.546.546 0 0 0-.451 0c-.086.036-.754.681-2.199 2.125L10 11.75 7.925 9.676C6.48 8.232 5.812 7.587 5.726 7.551a.56.56 0 0 0-.476.012" fill="#19191C" fill-rule="evenodd"></path></symbol><symbol id="aw-icon-chevron-left"><path d="M11.967 5.333c-.166.089-4.721 4.66-4.768 4.784a.716.716 0 0 0 .015.49c.029.061 1.105 1.162 2.395 2.449 2.222 2.22 2.349 2.34 2.491 2.368.401.08.739-.183.739-.574a.712.712 0 0 0-.053-.256c-.029-.061-.982-1.041-2.119-2.177l-2.066-2.066 2.096-2.101c1.987-1.99 2.099-2.108 2.127-2.25a.673.673 0 0 0-.095-.506c-.152-.213-.521-.292-.762-.161" fill="#19191C" fill-rule="evenodd"></path></symbol><symbol id="aw-icon-chevron-right"><path d="M7.461 5.334c-.23.122-.342.382-.285.666.028.142.14.26 2.127 2.25l2.096 2.101-2.066 2.066c-1.137 1.136-2.09 2.116-2.119 2.177a.712.712 0 0 0-.053.256c0 .391.338.654.739.574.142-.028.269-.148 2.491-2.368 1.29-1.287 2.366-2.388 2.395-2.449a.716.716 0 0 0 .015-.49c-.049-.13-4.607-4.699-4.775-4.786a.669.669 0 0 0-.565.003" fill="#19191C" fill-rule="evenodd"></path></symbol><symbol id="aw-icon-chevron-up"><path d="M9.75 7.564c-.189.089-4.728 4.638-4.799 4.81a.56.56 0 0 0 .012.476c.073.159.147.23.312.299a.546.546 0 0 0 .451 0c.086-.036.754-.681 2.199-2.125L10 8.95l2.075 2.074c1.445 1.444 2.113 2.089 2.199 2.125a.56.56 0 0 0 .476-.012.508.508 0 0 0 .299-.312.546.546 0 0 0 0-.451c-.071-.172-4.61-4.721-4.799-4.81a.724.724 0 0 0-.25-.063.724.724 0 0 0-.25.063" fill="#19191C" fill-rule="evenodd"></path></symbol><symbol id="aw-icon-close"><path d="M5.25 4.963a.508.508 0 0 0-.299.312.546.546 0 0 0 0 .451c.036.086.681.754 2.125 2.199L9.15 10l-2.074 2.075c-1.444 1.445-2.089 2.113-2.125 2.199a.546.546 0 0 0 0 .451c.069.165.14.239.299.312a.56.56 0 0 0 .476.012c.086-.036.754-.681 2.199-2.125L10 10.85l2.075 2.074c1.445 1.444 2.113 2.089 2.199 2.125a.56.56 0 0 0 .476-.012.508.508 0 0 0 .299-.312.546.546 0 0 0 0-.451c-.036-.086-.681-.754-2.125-2.199L10.85 10l2.074-2.075c1.444-1.445 2.089-2.113 2.125-2.199a.56.56 0 0 0-.012-.476.508.508 0 0 0-.312-.299.546.546 0 0 0-.451 0c-.086.036-.754.681-2.199 2.125L10 9.15 7.925 7.076C6.48 5.632 5.812 4.987 5.726 4.951a.56.56 0 0 0-.476.012" fill-rule="evenodd" fill="#000"></path></symbol><symbol id="aw-icon-copy"><path d="M8.575 4.034c-.394.033-.612.085-.843.201a1.334 1.334 0 0 0-.514.496c-.092.177-.18.582-.205.935L6.99 6h1.199l.037-.338c.02-.186.05-.351.066-.367.069-.07.869-.093 3.208-.093 2.548 0 3.118.021 3.189.118.081.109.094.561.094 3.18 0 2.62-.013 3.07-.094 3.181-.027.038-.133.064-.356.089-.174.02-.319.038-.321.041-.003.003-.01.268-.017.589l-.011.583.3-.01c.802-.028 1.282-.27 1.498-.756.196-.441.217-.795.217-3.7-.001-2.368-.022-3.077-.103-3.407-.146-.593-.486-.906-1.122-1.034-.218-.044-.683-.053-3.074-.061-1.549-.004-2.955.004-3.125.019M5.168 7.036c-.245.048-.506.198-.72.412a1.415 1.415 0 0 0-.414.748c-.046.245-.046 6.363 0 6.608.051.274.19.525.414.748.223.224.474.363.748.414.245.046 6.363.046 6.608 0 .274-.051.525-.19.748-.414.224-.223.363-.474.414-.748.046-.245.046-6.363 0-6.608a1.415 1.415 0 0 0-.414-.748 1.415 1.415 0 0 0-.748-.414c-.223-.042-6.421-.04-6.636.002m6.535 1.261.097.098v6.21l-.097.098-.098.097h-6.21l-.098-.097-.097-.098v-6.21l.097-.098.098-.097h6.21l.098.097" fill="#19191C" fill-rule="evenodd"></path></symbol><symbol id="aw-icon-dark"><path d="M9.735 4.038a7.148 7.148 0 0 0-1.332.301c-1.857.647-3.341 2.263-3.821 4.159A6.015 6.015 0 0 0 7.1 15.014c1.724 1.147 3.996 1.296 5.883.386a5.986 5.986 0 0 0 2.616-2.432c.207-.361.238-.558.114-.724-.156-.21-.203-.224-.806-.25-.836-.035-1.465-.188-2.118-.514-1.401-.7-2.352-1.936-2.696-3.505-.098-.447-.105-1.371-.014-1.858.082-.441.256-.958.458-1.359.089-.18.163-.364.163-.41 0-.125-.092-.28-.187-.316-.098-.037-.382-.035-.778.006m-.801 1.698a6.475 6.475 0 0 0 .001 2.531c.326 1.584 1.285 2.99 2.667 3.915a6.415 6.415 0 0 0 2.081.871c.165.033.306.064.312.068.033.023-.166.243-.418.463-.664.581-1.397.941-2.31 1.137-.442.094-1.371.087-1.83-.016-.962-.214-1.748-.636-2.411-1.294a4.212 4.212 0 0 1-.736-.919c-.683-1.089-.879-2.558-.51-3.826a4.621 4.621 0 0 1 1.246-2.077 4.675 4.675 0 0 1 1.966-1.175c.004.005-.022.15-.058.322" fill-rule="evenodd" fill="#000"></path></symbol><symbol id="aw-icon-discord"><path d="M7.4 3.308a14.545 14.545 0 0 0-3.098.957c-.173.076-.333.164-.357.195a23.86 23.86 0 0 0-.391.64c-1.212 2.03-1.898 4.054-2.14 6.317-.063.595-.083 2.01-.036 2.659l.029.392.413.291a14.675 14.675 0 0 0 3.636 1.853l.339.117.164-.239c.209-.304.534-.845.669-1.112l.104-.206-.258-.106c-.261-.108-1.06-.508-1.159-.58-.048-.035-.031-.058.128-.181l.182-.14.265.116c2.622 1.153 5.488 1.172 8.096.053l.39-.168.182.14c.158.122.175.145.127.18-.099.073-.898.472-1.16.58a1.484 1.484 0 0 0-.258.122c0 .023.447.814.553.979.053.082.161.243.239.357l.142.207.341-.119a14.232 14.232 0 0 0 3.683-1.886c.269-.19.375-.284.375-.333 0-.037.017-.397.037-.8a14.748 14.748 0 0 0-.796-5.526 16.983 16.983 0 0 0-1.693-3.456l-.131-.206-.467-.2a14.226 14.226 0 0 0-2.679-.84l-.445-.092-.231.481-.231.482-.107-.018c-.405-.068-.759-.092-1.624-.107-.92-.016-1.575.017-2.116.107-.099.017-.102.012-.259-.342a5.356 5.356 0 0 0-.233-.478c-.074-.118-.077-.119-.225-.09m.347 5.737c.413.204.744.627.87 1.112.064.246.064.741-.001.994-.13.51-.452.931-.871 1.138a1.042 1.042 0 0 1-.54.138c-.476.022-.815-.126-1.166-.51-.85-.93-.482-2.576.661-2.957.14-.046.256-.058.493-.048.275.011.336.026.554.133m5.545-.083c.553.172.963.662 1.094 1.306.187.924-.3 1.862-1.092 2.103-.346.105-.709.08-1.016-.07-.423-.208-.767-.649-.894-1.15a2.579 2.579 0 0 1-.014-.924c.124-.599.633-1.168 1.155-1.291.217-.051.557-.04.767.026" fill="#19191C" fill-rule="evenodd"></path></symbol><symbol id="aw-icon-divider-vertical"><path d="M9.75 3.463a.508.508 0 0 0-.299.312c-.045.109-.051.81-.051 6.234v6.11l.075.149a.584.584 0 0 0 1.05 0l.075-.149-.001-6.118c0-5.865-.003-6.123-.062-6.251a.508.508 0 0 0-.312-.299.557.557 0 0 0-.475.012" fill-rule="evenodd" fill="#000"></path></symbol><symbol id="aw-icon-download"><path d="M9.517 4.212a.703.703 0 0 0-.315.332c-.024.063-.035 1.008-.035 2.933v2.839l-1.292-1.29c-.71-.709-1.334-1.305-1.386-1.324-.512-.192-1.007.346-.758.824.097.186 3.656 3.726 3.81 3.79a.512.512 0 0 0 .479-.024c.071-.042.95-.9 1.952-1.909 1.585-1.594 1.827-1.851 1.859-1.97.117-.446-.248-.817-.721-.731-.111.02-.283.179-1.434 1.327l-1.308 1.305-.009-2.865c-.01-3.2.007-2.978-.246-3.17a.68.68 0 0 0-.596-.067M4.483 14.714a.689.689 0 0 0-.314.33.632.632 0 0 0 .241.717l.135.089h5.169c5.109 0 5.171-.001 5.282-.067a.92.92 0 0 0 .214-.191c.085-.105.101-.153.102-.316.002-.231-.063-.369-.234-.499l-.123-.094-5.186-.007c-4.282-.006-5.203.001-5.286.038" fill-rule="evenodd" fill="#000"></path></symbol><symbol id="aw-icon-github"><path d="M8.967 1.114a8.76 8.76 0 0 0-3.831 1.424c-1.74 1.167-2.957 2.774-3.62 4.779a9.44 9.44 0 0 0 .007 5.85c.684 2.058 2.069 3.82 3.876 4.929.451.277 1.199.638 1.593.77.274.091.324.099.445.066a.432.432 0 0 0 .326-.317c.023-.084.028-.418.014-.971a33.784 33.784 0 0 0-.027-.844c-.003 0-.155.022-.336.05-.816.123-1.472.012-1.98-.333-.32-.217-.528-.478-.705-.88-.266-.609-.578-1.033-.915-1.245a2.04 2.04 0 0 1-.261-.203c-.384-.363.238-.523.84-.217.273.138.585.44.79.761.227.359.369.523.59.686.354.26.791.372 1.236.315.248-.031.79-.189.792-.23 0-.011.021-.119.047-.24a2.2 2.2 0 0 1 .366-.809.77.77 0 0 0 .113-.17 4.28 4.28 0 0 0-.31-.05 7.919 7.919 0 0 1-.671-.136c-1.713-.428-2.648-1.431-2.966-3.182-.047-.257-.06-.502-.06-1.067 0-.692.005-.752.09-1.067.11-.41.396-.995.624-1.277l.17-.211-.07-.272a3.453 3.453 0 0 1-.068-1.23c.045-.334.18-.845.244-.921.059-.072.501-.023.872.096.354.113.871.37 1.287.638l.286.185.348-.078c.723-.164 1.033-.196 1.897-.196.864 0 1.174.032 1.896.195l.346.078.321-.202c.742-.467 1.377-.718 1.848-.731.265-.007.271-.005.315.085.025.051.083.238.131.417.074.278.086.398.089.841.003.439-.008.56-.073.806l-.076.29.168.209c.231.286.518.872.626 1.278.084.313.089.378.089 1.067.001.787-.039 1.113-.202 1.683-.116.406-.403.97-.654 1.286-.594.745-1.602 1.24-2.882 1.415l-.306.042.118.137c.065.075.17.245.233.377.218.45.225.519.234 2.267.01 1.719.01 1.723.205 1.821.189.095.265.093.599-.018.383-.126 1.234-.543 1.658-.811a9.131 9.131 0 0 0 2.437-2.268 9.327 9.327 0 0 0 1.546-7.831 9.251 9.251 0 0 0-1.655-3.424c-.32-.42-1.084-1.196-1.511-1.534a8.916 8.916 0 0 0-4.2-1.844c-.475-.074-1.856-.094-2.333-.034" fill="#19191C" fill-rule="evenodd"></path></symbol><symbol id="aw-icon-google"><path d="M11.2 3.082c-.468.034-1.184.183-1.76.367-2.082.662-3.825 1.957-4.971 3.691-.55.832-1.065 2.11-1.287 3.192-.623 3.034.517 6.311 2.911 8.373 1.418 1.221 3.057 1.951 4.987 2.22.606.085 1.902.065 2.592-.04 1.822-.278 3.347-.96 4.548-2.035 1.916-1.715 2.938-4.461 2.746-7.374-.056-.845-.087-.978-.237-1.011-.06-.013-2.013-.036-4.339-.051l-4.23-.027v3.44l2.466.026c1.356.014 2.475.035 2.486.046.036.036-.188.66-.356.994-.636 1.262-1.709 2.061-3.208 2.391-.535.118-1.795.151-2.279.059a5.598 5.598 0 0 1-4.048-3.197c-.338-.743-.446-1.381-.409-2.425.027-.741.093-1.078.328-1.661a5.65 5.65 0 0 1 3.017-3.078c.455-.198.878-.293 1.523-.344 1.446-.113 2.446.156 3.643.982l.371.256.103-.077c.057-.042.65-.613 1.319-1.268l1.217-1.192-.296-.239c-1.385-1.118-3.16-1.861-4.828-2.019-.479-.046-1.373-.045-2.009.001" fill="#373B4D" fill-rule="evenodd"></path></symbol><symbol id="aw-icon-hamburger-menu"><path d="M2.732 4.975a.584.584 0 0 0 0 1.05l.149.075h14.238l.149-.075a.584.584 0 0 0 0-1.05l-.149-.075H2.881l-.149.075m0 9a.584.584 0 0 0 0 1.05l.149.075h14.238l.149-.075a.584.584 0 0 0 0-1.05l-.149-.075H2.881l-.149.075" fill-rule="evenodd" fill="#000"></path></symbol><symbol id="aw-icon-light"><path d="M9.75 2.463c-.321.147-.35.251-.35 1.246 0 .774.003.817.075.959a.584.584 0 0 0 1.05 0c.072-.142.075-.184.074-.967 0-.722-.008-.833-.062-.951a.508.508 0 0 0-.312-.299.557.557 0 0 0-.475.012M4.783 4.522a.578.578 0 0 0-.31.674c.033.132.101.219.491.617.57.583.742.669 1.061.536a.508.508 0 0 0 .312-.299.56.56 0 0 0 .012-.476c-.063-.152-.848-.952-1.023-1.043a.68.68 0 0 0-.543-.009m9.9-.001c-.16.084-.95.881-1.019 1.029a.56.56 0 0 0-.001.5c.073.159.147.23.312.299.319.133.49.047 1.063-.538.4-.407.459-.482.486-.612.058-.286-.056-.546-.292-.666-.156-.08-.408-.085-.549-.012M9.617 6.019c-.991.135-1.72.47-2.373 1.091-1.786 1.697-1.616 4.596.357 6.086 1.961 1.481 4.815.83 5.943-1.354a3.998 3.998 0 0 0-2.749-5.76c-.24-.05-.981-.09-1.178-.063m.865 1.232a2.79 2.79 0 0 1 2.155 1.826 2.813 2.813 0 0 1-1.101 3.259c-1.517.996-3.583.297-4.173-1.413-.696-2.019 1.019-4.038 3.119-3.672m-7.75 2.224a.584.584 0 0 0 0 1.05c.142.072.185.075.968.075.783 0 .826-.003.968-.075a.584.584 0 0 0 0-1.05C4.526 9.403 4.483 9.4 3.7 9.4c-.783 0-.826.003-.968.075m12.6 0a.584.584 0 0 0 0 1.05c.142.072.185.075.968.075.783 0 .826-.003.968-.075a.584.584 0 0 0 0-1.05c-.142-.072-.185-.075-.968-.075-.783 0-.826.003-.968.075M5.55 13.663c-.08.037-.315.247-.588.526-.4.407-.459.482-.486.612-.1.491.345.876.807.699.142-.054.978-.888 1.054-1.05a.563.563 0 0 0 0-.5.508.508 0 0 0-.312-.299.557.557 0 0 0-.475.012m8.4 0a.508.508 0 0 0-.299.312.557.557 0 0 0 .012.475c.076.162.912.996 1.054 1.05.462.177.907-.208.807-.699-.027-.13-.086-.205-.486-.612-.582-.594-.757-.678-1.088-.526m-4.2 1.4c-.321.147-.35.251-.35 1.246 0 .774.003.817.075.959a.584.584 0 0 0 1.05 0c.072-.142.075-.184.074-.967 0-.722-.008-.833-.062-.951a.508.508 0 0 0-.312-.299.557.557 0 0 0-.475.012" fill="#19191C" fill-rule="evenodd"></path></symbol><symbol id="aw-icon-linkedin"><path d="M2.667 1.72c-.482.13-.864.531-.965 1.013-.029.137-.036 2.004-.029 7.334l.01 7.15.124.259c.142.296.374.546.629.675.381.193-.075.182 7.597.182 7.799 0 7.258.015 7.634-.213.222-.136.474-.435.575-.685l.075-.185.009-7.2c.006-4.731-.003-7.254-.025-7.358a1.223 1.223 0 0 0-.693-.883l-.255-.126-7.251-.006c-6.306-.006-7.276 0-7.435.043m3.276 2.747c.421.061.756.304.943.685.091.184.097.225.097.581-.001.364-.006.394-.105.584a1.493 1.493 0 0 1-.604.594c-.133.061-.217.072-.541.072-.345 0-.401-.008-.566-.087-.519-.248-.788-.776-.703-1.378.088-.624.52-1.006 1.219-1.08.019-.002.135.011.26.029m7.495 3.514c1.022.217 1.732.95 1.995 2.059.113.477.133.974.133 3.285l.001 2.242h-2.43l-.012-2.275c-.01-2.037-.018-2.296-.069-2.475-.177-.612-.494-.9-1.035-.941a1.31 1.31 0 0 0-1.253.688c-.162.317-.167.404-.168 2.778v2.225H8.233V8.133H10.6v1.045l.137-.197c.34-.492.824-.837 1.375-.982.297-.077.999-.087 1.326-.018M6.867 11.85v3.717H4.433V8.133h2.434v3.717" fill="#19191C" fill-rule="evenodd"></path></symbol><symbol id="aw-icon-location"><path d="m9.5 2.419-.43.051c-.695.081-1.478.328-2.194.693-2.443 1.246-3.813 3.874-3.391 6.504.373 2.328 2.269 4.911 5.265 7.176 1.197.904 1.231.911 1.939.413 2-1.407 3.754-3.183 4.729-4.787 1.066-1.755 1.4-3.4 1.028-5.066-.569-2.548-2.723-4.509-5.407-4.922-.317-.048-1.31-.088-1.539-.062m1.207 1.231c1.682.224 3.12 1.136 3.971 2.52.618 1.004.863 2.368.627 3.48-.414 1.95-1.99 4.052-4.539 6.053-.267.209-.548.424-.625.476l-.14.096-.188-.129c-.537-.37-1.542-1.215-2.175-1.829-1.595-1.548-2.631-3.186-2.939-4.645-.24-1.139 0-2.49.623-3.502 1.106-1.798 3.254-2.803 5.385-2.52m-1.04 2.769c-.651.113-1.079.326-1.5.748a2.586 2.586 0 0 0-.688 1.172c-.079.289-.081 1.029-.002 1.314a2.685 2.685 0 0 0 1.87 1.87c.262.072.992.079 1.253.013A2.682 2.682 0 0 0 12.536 9.6c.06-.241.06-.959 0-1.2-.235-.929-.975-1.685-1.881-1.92-.198-.051-.823-.09-.988-.061m.837 1.278c.351.133.661.442.802.799.104.265.104.743 0 1.008-.14.355-.447.662-.802.802-.147.057-.256.073-.504.073s-.357-.016-.504-.073c-.782-.308-1.115-1.217-.726-1.98.085-.165.395-.474.563-.559.352-.18.808-.207 1.171-.07" fill-rule="evenodd" fill="#000"></path></symbol><symbol id="aw-icon-logout-left"><path d="M15.25 4.463a.508.508 0 0 0-.299.312c-.045.109-.051.71-.051 5.234v5.11l.075.149a.584.584 0 0 0 1.05 0l.075-.149-.001-5.118c0-4.895-.003-5.123-.062-5.251a.508.508 0 0 0-.312-.299.557.557 0 0 0-.475.012m-8 1.501c-.165.078-3.763 3.674-3.815 3.813a.754.754 0 0 0 0 .446c.052.139 3.65 3.735 3.815 3.813.163.076.313.08.475.013a.508.508 0 0 0 .312-.299.56.56 0 0 0 .012-.476c-.035-.084-.459-.533-1.325-1.399L5.45 10.6h5.669l.149-.075a.584.584 0 0 0 0-1.05l-.149-.075H5.45l1.274-1.275c.866-.866 1.29-1.315 1.325-1.399a.56.56 0 0 0-.012-.476.508.508 0 0 0-.312-.299.553.553 0 0 0-.475.013" fill-rule="evenodd" fill="#000"></path></symbol><symbol id="aw-icon-logout-right"><path d="M4.75 4.463a.508.508 0 0 0-.299.312c-.045.109-.051.71-.051 5.234v5.11l.075.149a.584.584 0 0 0 1.05 0l.075-.149-.001-5.118c0-4.895-.003-5.123-.062-5.251a.508.508 0 0 0-.312-.299.557.557 0 0 0-.475.012m7.5 1.5a.508.508 0 0 0-.299.312.546.546 0 0 0 0 .451c.035.084.459.533 1.325 1.399L14.55 9.4H8.881l-.149.075a.584.584 0 0 0 0 1.05l.149.075h5.669l-1.274 1.275c-.866.866-1.29 1.315-1.325 1.399a.56.56 0 0 0 .012.476c.073.159.147.23.312.299a.553.553 0 0 0 .475-.013c.165-.078 3.763-3.674 3.815-3.813A.784.784 0 0 0 16.6 10a.784.784 0 0 0-.035-.223c-.052-.139-3.65-3.735-3.815-3.813a.56.56 0 0 0-.5-.001" fill-rule="evenodd" fill="#000"></path></symbol><symbol viewBox="0 0 2499.6 2500" id="aw-icon-microsoft"><path d="M1197.804 1197.836H199.968V200h997.836v997.836Z" fill="#f1511b"></path><path d="M2299.632 1197.836h-997.92V200h997.836v997.836h.084Z" fill="#80cc28"></path><path d="M1197.804 2300H199.968v-997.836h997.836V2300Z" fill="#00adef"></path><path d="M2299.632 2300h-997.92v-997.836h997.836V2300h.084Z" fill="#fbbc09"></path></symbol><symbol id="aw-icon-minus"><path d="M5.732 9.475a.584.584 0 0 0 0 1.05l.149.075h8.238l.149-.075a.587.587 0 0 0 .223-.863.682.682 0 0 0-.223-.187l-.149-.075H5.881l-.149.075" fill-rule="evenodd" fill="#000"></path></symbol><symbol id="aw-icon-plus"><path d="M9.75 5.463a.508.508 0 0 0-.299.312c-.044.105-.051.374-.051 1.874V9.4H7.64c-1.758 0-1.759 0-1.908.075a.584.584 0 0 0 0 1.05c.149.075.15.075 1.908.075H9.4v1.76c0 1.758 0 1.759.075 1.908a.584.584 0 0 0 1.05 0c.075-.149.075-.15.075-1.908V10.6h1.76c1.758 0 1.759 0 1.908-.075a.584.584 0 0 0 0-1.05c-.149-.075-.15-.075-1.908-.075H10.6l-.001-1.758c0-1.635-.005-1.768-.062-1.892a.508.508 0 0 0-.312-.299.557.557 0 0 0-.475.012" fill-rule="evenodd" fill="#000"></path></symbol><symbol id="aw-icon-product-hunt"><path d="M9.224 1.033a9.127 9.127 0 0 0-4.873 1.961c-.384.302-1.213 1.16-1.529 1.581a8.991 8.991 0 0 0-.001 10.85c.384.512 1.242 1.37 1.754 1.754a8.991 8.991 0 0 0 10.85 0c.512-.384 1.37-1.242 1.754-1.754a8.991 8.991 0 0 0-.001-10.85c-.316-.421-1.145-1.279-1.529-1.581-1.296-1.021-2.751-1.656-4.337-1.894-.523-.078-1.613-.113-2.088-.067m2.739 4.561a3.184 3.184 0 0 1 1.86 1.328c.357.548.51 1.066.51 1.728 0 .659-.153 1.181-.506 1.722a3.232 3.232 0 0 1-1.851 1.336c-.245.068-.342.073-1.801.084l-1.542.012V14.5H6.867V5.497l2.408.011c2.364.012 2.413.013 2.688.086m-3.33 3.054V10h1.36c1.499 0 1.614-.012 1.912-.203.481-.309.725-.863.614-1.395a1.333 1.333 0 0 0-.778-.979l-.224-.106-1.442-.01-1.442-.01v1.351" fill="#19191C" fill-rule="evenodd"></path></symbol><symbol id="aw-icon-search"><path d="M8.9 4.037c-2.13.241-3.934 1.689-4.601 3.693-.232.698-.279.994-.279 1.77 0 .583.011.735.075 1.033.324 1.511 1.119 2.707 2.353 3.539.581.391 1.26.671 2.019.832.47.1 1.521.11 1.983.019.675-.132 1.418-.417 1.944-.745l.246-.153 1.105 1.101c1.073 1.07 1.11 1.103 1.26 1.125.21.03.344-.005.483-.126.24-.211.293-.5.137-.761-.048-.081-.531-.59-1.073-1.13-.542-.541-.985-.995-.985-1.01 0-.014.084-.126.187-.247.557-.657.982-1.575 1.169-2.527.091-.461.081-1.514-.019-1.979-.325-1.52-1.12-2.713-2.364-3.549a5.553 5.553 0 0 0-3.64-.885m1.433 1.246a4.348 4.348 0 0 1 3.404 3.484c.058.321.058 1.145 0 1.466a4.382 4.382 0 0 1-1.203 2.301 4.277 4.277 0 0 1-6.053.017A4.263 4.263 0 0 1 5.408 10.8c-.147-.462-.19-.757-.19-1.3 0-.266.02-.596.045-.733A4.717 4.717 0 0 1 6.003 7c.225-.32.677-.772.997-.997.509-.358 1.22-.653 1.767-.733l.333-.051c.16-.028.985.015 1.233.064" fill="#19191C" fill-rule="evenodd"></path></symbol><symbol id="aw-icon-star"><path d="M9.793 3.034c-.21.036-.476.185-.613.345-.061.072-.473.845-.915 1.718a76.721 76.721 0 0 1-.828 1.611c-.013.014-.826.14-1.805.28-1.109.158-1.848.278-1.957.319-.217.08-.484.332-.584.551-.058.125-.073.222-.074.459-.001.507-.025.475 1.491 1.916.72.684 1.313 1.269 1.319 1.3.005.032-.127.836-.295 1.787-.225 1.276-.3 1.772-.286 1.891.023.202.145.472.285.632.228.259.718.411 1.055.327.085-.022.884-.414 1.775-.872A97.49 97.49 0 0 1 10 14.467c.011 0 .748.374 1.639.831.891.458 1.69.85 1.775.872.462.116 1.002-.141 1.218-.579.174-.352.173-.359-.164-2.271-.168-.951-.3-1.755-.295-1.787.006-.031.599-.617 1.319-1.301 1.517-1.442 1.492-1.41 1.49-1.915 0-.249-.015-.329-.082-.467-.111-.229-.359-.463-.575-.543-.109-.041-.848-.161-1.957-.319-.979-.14-1.792-.266-1.806-.28a82.877 82.877 0 0 1-.827-1.611c-.452-.893-.854-1.646-.92-1.723-.221-.258-.653-.402-1.022-.34m.99 2.857c.689 1.369.786 1.542.95 1.71a.884.884 0 0 0 .346.242c.089.031.922.163 1.85.295.928.131 1.698.248 1.71.259.012.011-.54.552-1.226 1.203-1.105 1.047-1.261 1.207-1.351 1.388-.17.344-.166.398.164 2.245.162.908.292 1.655.287 1.661a58.25 58.25 0 0 1-1.573-.792c-1.073-.551-1.624-.816-1.753-.843-.329-.069-.426-.031-2.122.84-.858.441-1.566.801-1.573.801-.007 0 .12-.746.282-1.658.329-1.857.333-1.912.163-2.254-.089-.181-.246-.342-1.35-1.388-.686-.651-1.238-1.192-1.226-1.203.012-.011.782-.128 1.71-.259.928-.132 1.761-.264 1.85-.295a.884.884 0 0 0 .346-.242c.164-.168.261-.341.95-1.71.421-.837.774-1.523.783-1.523.009 0 .362.686.783 1.523" fill-rule="evenodd" fill="#000"></path></symbol><symbol id="aw-icon-twitter"><path d="M12.717 2.833c-1.307.282-2.338 1.191-2.762 2.435a3.746 3.746 0 0 0-.143 1.724l.042.241h-.153c-.235 0-.938-.093-1.401-.185-2.21-.441-4.322-1.635-5.768-3.261l-.315-.354-.058.075c-.093.12-.315.717-.376 1.009a3.633 3.633 0 0 0 1.311 3.589l.244.194H3.22c-.309 0-1.054-.199-1.398-.373-.071-.036-.137-.056-.149-.045-.038.038.057.702.143.998a3.713 3.713 0 0 0 2.545 2.531l.279.079-.212.046c-.139.031-.419.047-.82.047-.393 0-.608.012-.608.035 0 .082.379.785.53.984.34.448.816.841 1.328 1.095.42.209.712.289 1.435.391.06.008.101.028.092.043-.039.062-.703.481-1.057.667a7.861 7.861 0 0 1-1.871.686c-.615.14-1.597.212-2.157.157a4.693 4.693 0 0 0-.324-.026c-.018.013.615.367.974.545 1.113.551 2.382.912 3.667 1.042.557.056 1.753.047 2.296-.017 2.058-.245 3.723-.913 5.287-2.119.411-.317 1.316-1.221 1.665-1.663a10.748 10.748 0 0 0 2.02-4.089c.21-.823.283-1.36.305-2.231l.019-.734.187-.138c.398-.293.998-.888 1.366-1.355.316-.402.316-.401-.01-.272a7.813 7.813 0 0 1-1.169.346c-.342.072-.616.114-.616.093 0-.007.082-.068.182-.135.463-.307.945-.87 1.2-1.402.239-.499.248-.485-.188-.267a7.58 7.58 0 0 1-1.719.629l-.241.059-.209-.19a3.804 3.804 0 0 0-1.552-.84c-.452-.12-1.277-.141-1.723-.044" fill="#19191C" fill-rule="evenodd"></path></symbol><symbol id="aw-icon-x"><path d="M24.209 3.2h4.343l-9.488 10.844L30.226 28.8h-8.74l-6.845-8.95-7.832 8.95H2.463l10.148-11.599L1.904 3.2h8.961l6.188 8.18 7.156-8.18Zm-1.524 23h2.406L9.558 5.664H6.975L22.685 26.2Z" fill="#000"></path></symbol><symbol id="aw-icon-youtube"><path d="M7.215 4.069c-2.096.04-3.347.116-3.808.234a2.394 2.394 0 0 0-.844.422c-.654.531-.97 1.788-1.064 4.226-.065 1.7.082 4.142.3 4.995.084.329.219.665.351.871.248.39.729.714 1.254.847 1.262.319 7.281.397 11.746.152 1.282-.07 1.495-.103 1.867-.291.616-.311.888-.717 1.134-1.692.39-1.542.475-4.347.196-6.516-.129-1.006-.377-1.924-.61-2.257-.235-.337-.7-.636-1.178-.757-.484-.124-1.578-.187-4.042-.236a128.418 128.418 0 0 0-5.302.002m2.352 3.986c.266.138 1.109.591 1.875 1.007 1.224.664 1.385.76 1.333.798-.12.089-1.553.841-3.817 2.001l-.658.338V7.436l.392.184c.215.101.609.297.875.435" fill="#19191C" fill-rule="evenodd"></path></symbol></svg>