<?xml version="1.0" standalone="no"?>
<!DOCTYPE svg PUBLIC "-//W3C//DTD SVG 1.1//EN" "http://www.w3.org/Graphics/SVG/1.1/DTD/svg11.dtd" >
<svg xmlns="http://www.w3.org/2000/svg">
<defs>
  <font id="aw-icon" horiz-adv-x="1000">
    <font-face font-family="aw-icon"
      units-per-em="1000" ascent="800"
      descent="200" />
    <missing-glyph horiz-adv-x="0" />
    <glyph glyph-name="arrow-down"
      unicode="&#xEA01;"
      horiz-adv-x="1000" d="M500 525L500 75M275 300L500 75M725 300L500 75" />
    <glyph glyph-name="arrow-ext-link"
      unicode="&#xEA02;"
      horiz-adv-x="1000" d="M340.9005 140.90175L659.0995 459.09825M340.9005 459.09775H659.0995M659.0995 140.90175V459.09825" />
    <glyph glyph-name="arrow-left"
      unicode="&#xEA03;"
      horiz-adv-x="1000" d="M725 300H275M500 525L275 300M500 75L275 300" />
    <glyph glyph-name="arrow-right"
      unicode="&#xEA04;"
      horiz-adv-x="1000" d="M275 300L725 300M500 75L725 300M500 525L725 300" />
    <glyph glyph-name="arrow-up"
      unicode="&#xEA05;"
      horiz-adv-x="1000" d="M500 75L500 525M275 300L500 525M725 300L500 525" />
    <glyph glyph-name="calendar"
      unicode="&#xEA06;"
      horiz-adv-x="1000" d="M300 550H700A100 100 0 0 0 800 450V100A100 100 0 0 0 700 0H300A100 100 0 0 0 200 100V450A100 100 0 0 0 300 550zM200 350H800M650 500V600M350 500V600" />
    <glyph glyph-name="check"
      unicode="&#xEA07;"
      horiz-adv-x="1000" d="M275 223.0749999999999L425 100L725 500" />
    <glyph glyph-name="chevron-down"
      unicode="&#xEA08;"
      horiz-adv-x="1000" d="M521.2136875 166.2856249999999C509.4986875 154.570625 490.5021875 154.570625 478.7866875 166.2856249999999L253.7866875 391.287625C242.0711875 403.003125 242.0711875 421.998125 253.7866875 433.7136249999999C265.5021875 445.429625 284.4971875 445.429625 296.2131875 433.7136249999999L499.9986875 229.9256249999999L703.7886874999999 433.7136249999999C715.5036875 445.429625 734.4986875 445.429625 746.2136875 433.7136249999999C757.9286874999999 421.998125 757.9286874999999 403.003125 746.2136875 391.287625L521.2136875 166.2856249999999z" />
    <glyph glyph-name="chevron-left"
      unicode="&#xEA09;"
      horiz-adv-x="1000" d="M366.2869375 278.785625C354.5714375 290.505625 354.5714375 309.495625 366.2869375 321.213625L591.2884374999999 546.213625C603.0034375 557.9296250000001 621.9984374999999 557.9296250000001 633.7134375 546.213625C645.4284375 534.498125 645.4284375 515.503125 633.7134375 503.7876249999999L429.9264375 300.000625L633.7134375 96.2156249999999C645.4284375 84.495625 645.4284375 65.500625 633.7134375 53.785625C621.9984374999999 42.070625 603.0034375 42.070625 591.2884374999999 53.785625L366.2869375 278.785625z" />
    <glyph glyph-name="chevron-right"
      unicode="&#xEA0A;"
      horiz-adv-x="1000" d="M633.7136875000001 278.785625C645.4286875 290.505625 645.4286875 309.495625 633.7136875000001 321.213625L408.7131875 546.213625C396.9971875 557.9296250000001 378.0026875000001 557.9296250000001 366.2866875000001 546.213625C354.5711875 534.498125 354.5711875 515.503125 366.2866875000001 503.7876249999999L570.0736875 300.000625L366.2866875000001 96.2156249999999C354.5711875 84.495625 354.5711875 65.500625 366.2866875000001 53.785625C378.0021875 42.070625 396.9971875 42.070625 408.7131875 53.785625L633.7136875000001 278.785625z" />
    <glyph glyph-name="chevron-up"
      unicode="&#xEA0B;"
      horiz-adv-x="1000" d="M521.2136875 433.7133750000001C509.4986875 445.429375 490.5021875 445.429375 478.7866875 433.7133750000001L253.7866875 208.7158749999999C242.0711875 196.995875 242.0711875 178.000875 253.7866875 166.285875C265.5021875 154.5708750000001 284.4971875 154.5708750000001 296.2131875 166.285875L499.9986875 370.0738750000001L703.7886874999999 166.285875C715.5036875 154.5708750000001 734.4986875 154.5708750000001 746.2136875 166.285875C757.9286874999999 178.000875 757.9286874999999 196.995875 746.2136875 208.7158749999999L521.2136875 433.7133750000001z" />
    <glyph glyph-name="close"
      unicode="&#xEA0C;"
      horiz-adv-x="1000" d="M275 525L725 75M275 75L725 525" />
    <glyph glyph-name="copy"
      unicode="&#xEA0D;"
      horiz-adv-x="1000" d="M260.2100000000001 405H560.21A45 45 0 0 0 605.21 360V60A45 45 0 0 0 560.21 15H260.2100000000001A45 45 0 0 0 215.21 60V360A45 45 0 0 0 260.2100000000001 405zM484.7895 525H634.7900000000001C671.84 525 693.595 524.8725 709.09 522.789C715.3050000000001 521.9535000000001 718.625 521.015 720.215 520.4235C720.8050000000001 518.8375000000001 721.7450000000001 515.5175 722.58 509.3005000000001C724.66 493.8045 724.7900000000001 472.0515 724.7900000000001 435V285C724.7900000000001 247.9500000000001 724.66 226.1950000000001 722.58 210.6999999999999C721.7450000000001 204.48 720.8050000000001 201.16 720.215 199.5749999999999C718.625 198.985 715.3050000000001 198.045 709.09 197.2099999999999C702.4 196.3100000000001 694.5400000000001 195.775 684.7900000000001 195.4599999999999V185C684.7900000000001 166.085 684.7900000000001 149.6950000000001 684.37 135.42C723.46 136.5699999999999 746.73 140.875 762.8199999999999 156.9649999999999C784.7900000000001 178.9350000000001 784.7900000000001 214.2900000000001 784.7900000000001 285V435C784.7900000000001 505.7104999999999 784.7900000000001 541.066 762.8199999999999 563.033C740.855 585 705.5 585 634.7900000000001 585H484.7895C414.0785 585 378.7235 585 356.7565 563.033C340.6660000000001 546.9425 336.3615 523.6690000000001 335.2100000000001 484.5795C349.4865 485 365.8730000000001 485 384.7895 485H395.2485000000001C395.5660000000001 494.752 396.1005 502.6095 397.0005000000001 509.3005000000001C397.836 515.5175 398.7745 518.8375000000001 399.366 520.4235C400.952 521.015 404.2720000000001 521.9535000000001 410.4890000000001 522.789C425.985 524.8725 447.7380000000001 525 484.7895 525zM721.445 519.8299999999999C721.4200000000001 519.8205 721.235 519.9079999999999 720.95 520.1205C721.33 519.9455 721.47 519.8395 721.445 519.8299999999999zM719.9100000000001 521.1610000000001C719.695 521.443 719.61 521.6324999999999 719.62 521.6569999999999C719.63 521.681 719.735 521.5405000000001 719.9100000000001 521.1610000000001zM719.62 198.345C719.61 198.37 719.7 198.5550000000001 719.9100000000001 198.84C719.735 198.46 719.63 198.3200000000001 719.62 198.345zM720.95 199.88C721.23 200.09 721.4200000000001 200.18 721.445 200.17C721.47 200.16 721.33 200.055 720.95 199.88zM399.9595000000001 521.6569999999999C399.9690000000001 521.6324999999999 399.8815000000001 521.443 399.669 521.1610000000001C399.8440000000001 521.5405000000001 399.9500000000001 521.6814999999999 399.9595000000001 521.6569999999999zM398.628 520.1205C398.3465 519.9079999999999 398.1570000000001 519.8205 398.1325000000001 519.8299999999999C398.1080000000001 519.8395 398.249 519.9455 398.628 520.1205z" />
    <glyph glyph-name="dark"
      unicode="&#xEA0E;"
      horiz-adv-x="1000" d="M778.0077585793792 155.7725000000001C781.6677585793793 162.4325 783.4977585793793 165.7625 784.2827585793793 168.8625C787.7177585793793 182.4325 779.8877585793794 195.6675 766.3427585793793 199.1925000000001C763.2477585793793 199.9975 757.3327585793793 199.9975 745.5077585793792 199.9975C607.4377585793793 199.9975 495.5077585793793 311.9265000000001 495.5077585793793 449.9975C495.5077585793793 495.0435 507.4227585793793 537.3064999999999 528.2677585793792 573.8084999999999C534.7277585793793 585.115 527.9127585793792 599.9975 514.8927585793792 599.9975C349.2077585793793 599.9975 214.8942585793793 465.6835 214.8942585793793 299.999C214.8942585793793 134.3125 349.2077585793793 0.0025 514.8927585793792 0.0025C628.2977585793792 0.0025 727.0077585793792 62.9275 778.0077585793792 155.7725000000001zM528.2677585793792 573.8084999999999L580.3727585793793 544.0505L528.2677585793792 573.8084999999999zM766.3427585793793 199.1925000000001L751.2377585793793 141.1225L766.3427585793793 199.1925000000001zM778.0077585793792 155.7725000000001L725.4227585793792 184.6575L778.0077585793792 155.7725000000001zM784.2827585793793 168.8625L842.4527585793794 154.1475L784.2827585793793 168.8625zM745.5077585793792 259.9975C640.5727585793793 259.9975 555.5077585793792 345.0635000000001 555.5077585793792 449.9975H435.5077585793794C435.5077585793794 278.7875 574.2977585793792 139.9975 745.5077585793792 139.9975V259.9975zM555.5077585793792 449.9975C555.5077585793792 484.333 564.5627585793793 516.3725 580.3727585793793 544.0505L476.1692585793793 603.566C450.2812585793793 558.241 435.5077585793794 505.754 435.5077585793794 449.9975H555.5077585793792zM274.8942585793793 299.999C274.8942585793793 432.5465 382.3452585793793 539.9975 514.8927585793792 539.9975V659.9975C316.0707585793794 659.9975 154.8942585793793 498.8205 154.8942585793793 299.999H274.8942585793793zM514.8927585793792 60.0025C382.3452585793793 60.0025 274.8942585793793 167.4525000000001 274.8942585793793 299.999H154.8942585793793C154.8942585793793 101.1775 316.0707585793794 -59.9975 514.8927585793792 -59.9975V60.0025zM725.4227585793792 184.6575C684.5377585793792 110.2275 605.5377585793792 60.0025 514.8927585793792 60.0025V-59.9975C651.0627585793793 -59.9975 769.4827585793794 15.6275 830.5977585793792 126.8825L725.4227585793792 184.6575zM580.3727585793793 544.0505C593.8727585793793 567.6945000000001 593.6777585793793 595.3435 582.7327585793794 617.614C571.3427585793793 640.7735 546.9327585793792 659.9975 514.8927585793792 659.9975V539.9975C495.8727585793793 539.9975 481.3782585793792 551.78 475.0407585793793 564.672C469.1397585793793 576.6745000000001 469.1222585793793 591.2284999999999 476.1692585793793 603.566L580.3727585793793 544.0505zM745.5077585793792 139.9975C748.5127585793794 139.9975 750.9177585793793 139.9975 752.9827585793794 139.9875C755.0627585793793 139.9725 756.4427585793794 139.9524999999999 757.3927585793792 139.9225000000001C758.4077585793793 139.8925 758.3527585793793 139.8725 757.6877585793793 139.9325000000001C757.3077585793794 139.9725 756.5627585793793 140.0525 755.5527585793793 140.2125C754.5527585793793 140.3725 753.0627585793793 140.6525 751.2377585793793 141.1225L781.4477585793793 257.2625C772.6927585793792 259.5375 764.3627585793793 259.7675 761.0027585793794 259.8675C756.5377585793792 260.0025 751.0227585793793 259.9975 745.5077585793792 259.9975V139.9975zM830.5977585793792 126.8825C832.4327585793792 130.2175 839.3077585793794 141.7175 842.4527585793794 154.1475L726.1177585793794 183.5824999999999C726.6677585793793 185.7575 727.2777585793792 187.4725 727.7377585793793 188.6225C727.9577585793793 189.1825 728.1427585793792 189.6025 728.2577585793792 189.8575C728.3727585793793 190.1074999999999 728.4327585793792 190.2325 728.4177585793793 190.2025000000001C728.4027585793792 190.1725 728.3327585793793 190.0325000000001 728.1927585793794 189.7575C728.0477585793792 189.4825 727.8527585793793 189.1175 727.5927585793793 188.6275C727.3277585793794 188.1425 727.0227585793793 187.5825000000001 726.6577585793793 186.9075000000001C726.2877585793792 186.2325 725.8877585793794 185.5025 725.4227585793792 184.6575L830.5977585793792 126.8825zM751.2377585793793 141.1225C732.8627585793793 145.9025000000001 721.4627585793794 165.1775 726.1177585793794 183.5824999999999L842.4527585793794 154.1475C853.9777585793793 199.6875000000001 826.9127585793792 245.4325 781.4477585793793 257.2625L751.2377585793793 141.1225z" />
    <glyph glyph-name="discord"
      unicode="&#xEA0F;"
      horiz-adv-x="1000" d="M800.4241411206425 579.8315C744.3991411206425 606.134 684.4891411206426 625.2495 621.8591411206426 636.134C614.1641411206425 622.18 605.1791411206425 603.4124999999999 598.9841411206424 588.4825C532.4041411206425 598.529 466.4361411206424 598.529 401.0806411206425 588.4825C394.8861411206425 603.4124999999999 385.6956411206425 622.18 377.9346411206425 636.134C315.2346411206425 625.2495 255.2576411206425 606.0635 199.2291411206425 579.692C86.2196411206425 408.3455 55.5846411206425 241.256 70.9021411206425 76.536C145.8561411206425 20.376 218.4956411206425 -13.739 289.9091411206425 -36.064C307.5416411206425 -11.7190000000001 323.2671411206425 14.1660000000001 336.8146411206425 41.446C311.0131411206425 51.2810000000001 286.3011411206425 63.4209999999999 262.9511411206425 77.516C269.1456411206425 82.116 275.2051411206425 86.9309999999999 281.0591411206425 91.886C423.4781411206425 25.0509999999999 578.2191411206425 25.0509999999999 718.9391411206425 91.886C724.8591411206424 86.9309999999999 730.9191411206425 82.116 737.0441411206425 77.516C713.6241411206424 63.351 688.8491411206425 51.211 663.0441411206425 41.376C676.5941411206426 14.1660000000001 692.2491411206425 -11.7890000000001 709.9491411206425 -36.134C781.4341411206425 -13.809 854.1391411206425 20.306 929.0941411206423 76.536C947.0691411206424 267.486 898.3891411206424 433.0435 800.4241411206425 579.8315zM356.2171411206425 177.8359999999999C313.4646411206425 177.8359999999999 278.4036411206426 217.886 278.4036411206426 266.651C278.4036411206426 315.417 312.7156411206425 355.5325000000001 356.2171411206425 355.5325000000001C399.7196411206425 355.5325000000001 434.7791411206425 315.4875 434.0306411206425 266.651C434.0981411206425 217.886 399.7196411206425 177.8359999999999 356.2171411206425 177.8359999999999zM643.7791411206425 177.8359999999999C601.0241411206425 177.8359999999999 565.9641411206425 217.886 565.9641411206425 266.651C565.9641411206425 315.417 600.2791411206425 355.5325000000001 643.7791411206425 355.5325000000001C687.2791411206425 355.5325000000001 722.3391411206425 315.4875 721.5941411206426 266.651C721.5941411206426 217.886 687.2791411206425 177.8359999999999 643.7791411206425 177.8359999999999z" />
    <glyph glyph-name="divider-vertical"
      unicode="&#xEA10;"
      horiz-adv-x="1000" d="M500 600L500 0" />
    <glyph glyph-name="download"
      unicode="&#xEA11;"
      horiz-adv-x="1000" d="M501.5672499999999 562.5025L501.5672499999999 212.5025M326.56725 387.5025L501.56675 212.5025M676.56525 387.5025L501.5672499999999 212.5025M249.99975 37.4975H750.00025" />
    <glyph glyph-name="github"
      unicode="&#xEA12;"
      horiz-adv-x="1000" d="M500.0005 747.499599115307C747.1554999999998 747.499599115307 947.5005 542.100599115307 947.5005 288.683599115307C947.5005 86.008599115307 819.4254999999998 -85.9214008846931 641.7204999999999 -146.6464008846931C619.0355 -151.1664008846931 610.9804999999999 -136.8364008846931 610.9804999999999 -124.6214008846931C610.9804999999999 -109.496400884693 611.5154999999999 -60.096400884693 611.5154999999999 1.3035991153069C611.5154999999999 44.083599115307 597.1954999999999 72.0035991153069 581.1304999999999 86.233599115307C680.7905 97.6035991153069 785.5055 136.403599115307 785.5055 312.629599115307C785.5055 362.749599115307 768.1404999999999 403.649099115307 739.4104999999998 435.779599115307C744.0654999999999 447.369599115307 759.4155 494.038099115307 735.0254999999999 557.225099115307C735.0254999999999 557.225099115307 697.5254999999999 569.519099115307 612.1004999999999 510.1805991153069C576.3404999999999 520.3385991153069 538.0355 525.4500991153069 500.0005 525.629099115307C461.962 525.4500991153069 423.701 520.3385991153069 387.9905 510.1805991153069C302.473 569.519099115307 264.883 557.225099115307 264.883 557.225099115307C240.584 494.038099115307 255.933 447.369599115307 260.5425 435.779599115307C231.947 403.649099115307 214.4499999999999 362.749599115307 214.4499999999999 312.629599115307C214.4499999999999 136.853599115307 318.941 97.4535991153069 418.331 85.863599115307C405.5325 74.4085991153069 393.942 54.1985991153069 389.9145 24.5285991153069C364.407 12.8035991153069 299.609 -7.4864008846932 259.692 62.638599115307C259.692 62.638599115307 236.0195 106.7235991153069 191.0905 109.9435991153069C191.0905 109.9435991153069 147.459 110.523599115307 188.0475 82.0635991153069C188.0475 82.0635991153069 217.3584999999999 67.9685991153069 237.72 14.9385991153069C237.72 14.9385991153069 263.988 -66.9514008846931 388.4825 -39.2064008846931C388.7065 -77.5564008846931 389.109 -113.7014008846931 389.109 -124.6214008846931C389.109 -136.7514008846931 380.875 -150.9414008846931 358.5445 -146.6914008846931C180.708 -86.0564008846931 52.4995 85.963599115307 52.4995 288.683599115307C52.4995 542.100599115307 252.89 747.499599115307 500.0005 747.499599115307z" />
    <glyph glyph-name="hamburger-menu"
      unicode="&#xEA13;"
      horiz-adv-x="1000" d="M150 525H850M150 75H850" />
    <glyph glyph-name="light"
      unicode="&#xEA14;"
      horiz-adv-x="1000" d="M499.9997499999999 679.9995000000001C516.56975 679.9995000000001 529.99975 666.568 529.99975 649.9995000000001V579.9995000000001C529.99975 563.4305000000002 516.56975 549.9995000000001 499.9997499999999 549.9995000000001C483.43175 549.9995000000001 470.0002499999999 563.4305000000002 470.0002499999999 579.9995000000001V649.9995000000001C470.0002499999999 666.568 483.43175 679.9995000000001 499.9997499999999 679.9995000000001zM499.9997499999999 50.0005C516.56975 50.0005 529.99975 36.5655 529.99975 20.0005V-49.9995C529.99975 -66.5694999999999 516.56975 -79.9995000000001 499.9997499999999 -79.9995000000001C483.43175 -79.9995000000001 470.0002499999999 -66.5694999999999 470.0002499999999 -49.9995V20.0005C470.0002499999999 36.5655 483.43175 50.0005 499.9997499999999 50.0005zM499.9997499999999 160.0005000000001C577.31975 160.0005000000001 639.99975 222.6805 639.99975 300.0005000000001C639.99975 377.319 577.31975 439.9995 499.9997499999999 439.9995C422.68025 439.9995 360.00025 377.319 360.00025 300.0005000000001C360.00025 222.6805 422.68025 160.0005000000001 499.9997499999999 160.0005000000001zM499.9997499999999 100.0005000000001C610.4547499999999 100.0005000000001 699.99975 189.5405000000001 699.99975 300.0005000000001C699.99975 410.456 610.4547499999999 499.9995 499.9997499999999 499.9995C389.54325 499.9995 300.00025 410.456 300.00025 300.0005000000001C300.00025 189.5405000000001 389.54325 100.0005000000001 499.9997499999999 100.0005000000001zM849.99975 270.0005000000001C866.5697499999999 270.0005000000001 879.9997500000001 283.4305 879.9997500000001 300.0005000000001C879.9997500000001 316.5680000000001 866.5697499999999 329.9995000000001 849.99975 329.9995000000001H779.99975C763.4297499999999 329.9995000000001 749.99975 316.5680000000001 749.99975 300.0005000000001C749.99975 283.4305 763.4297499999999 270.0005000000001 779.99975 270.0005000000001H849.99975zM220.0002499999999 270.0005000000001C236.5687499999999 270.0005000000001 250.00025 283.4305 250.00025 300.0005000000001C250.00025 316.5680000000001 236.5687499999999 329.9995000000001 220.0002499999999 329.9995000000001H150.0002499999999C133.4317499999999 329.9995000000001 120.0002499999999 316.5680000000001 120.0002499999999 300.0005000000001C120.0002499999999 283.4305 133.4317499999999 270.0005000000001 150.0002499999999 270.0005000000001H220.0002499999999zM768.6747499999999 31.3255000000001C756.9547499999999 19.6105000000001 737.96475 19.6105000000001 726.24475 31.3255000000001L688.78475 68.7855C677.0697499999999 80.5005000000001 677.0697499999999 99.4955000000001 688.78475 111.2105000000001C700.49975 122.9255000000001 719.49475 122.9255000000001 731.20975 111.2105000000001L768.6747499999999 73.7505000000001C780.3897499999999 62.0355 780.3897499999999 43.0405 768.6747499999999 31.3255000000001zM311.21175 488.785C299.49575 477.0695000000001 280.50125 477.0695000000001 268.78525 488.785L231.2712499999999 526.299C219.5557499999999 538.0145 219.5557499999999 557.0095000000001 231.2712499999999 568.7255C242.98725 580.441 261.98225 580.441 273.69775 568.7255L311.21175 531.2115000000001C322.92725 519.4960000000001 322.92725 500.501 311.21175 488.785zM231.32475 73.7505000000001C219.6087499999999 62.0355 219.6087499999999 43.0405 231.32475 31.3255000000001C243.0402499999999 19.6105000000001 262.03525 19.6105000000001 273.75125 31.3255000000001L311.2802499999999 68.8555000000001C322.9962499999999 80.5705 322.9962499999999 99.5655000000001 311.2802499999999 111.2805C299.56475 122.9955000000001 280.56975 122.9955000000001 268.8542499999999 111.2805L231.32475 73.7505000000001zM688.78475 531.2115000000001C677.0697499999999 519.4955 677.0697499999999 500.501 688.78475 488.785C700.49975 477.0695000000001 719.49475 477.0695000000001 731.21475 488.785L768.72475 526.299C780.43975 538.0150000000001 780.43975 557.0095000000001 768.72475 568.7255C757.0097499999999 580.441 738.01475 580.441 726.2997499999999 568.7255L688.78475 531.2115000000001z" />
    <glyph glyph-name="linkedin"
      unicode="&#xEA15;"
      horiz-adv-x="1000" d="M849.9813099287722 716.5910943796209H154.6868099287723C145.7253099287723 717.011094379621 136.7683099287723 715.6595943796208 128.3293099287722 712.613594379621C119.8903099287723 709.5675943796209 112.1353099287723 704.887094379621 105.5073099287723 698.8405943796208C98.8798099287723 692.7940943796209 93.5098099287723 685.4990943796208 89.7053099287723 677.3750943796208C85.9003099287723 669.2500943796208 83.7353099287723 660.455094379621 83.3343099287723 651.493094379621V-45.3209056203792C83.8593099287723 -64.0709056203792 91.5458099287723 -81.9209056203791 104.8148099287723 -95.1859056203791C118.0838099287723 -108.455905620379 135.9288099287723 -116.1409056203791 154.6868099287723 -116.6659056203791H849.9813099287722C868.2163099287721 -115.855905620379 885.4113099287722 -107.9309056203791 897.8713099287721 -94.590905620379C910.3363099287722 -81.255905620379 917.0763099287722 -63.565905620379 916.6463099287724 -45.3209056203792V651.493094379621C916.8013099287722 660.2160943796209 915.1663099287722 668.8775943796209 911.8463099287721 676.9465943796208C908.5313099287722 685.0150943796209 903.5963099287721 692.321094379621 897.3513099287723 698.417094379621C891.1113099287722 704.512094379621 883.6913099287722 709.2680943796208 875.5463099287722 712.3930943796208C867.4013099287723 715.5185943796209 858.7013099287722 716.9470943796209 849.9813099287722 716.5910943796209zM343.7453099287723 21.8640943796209H222.3938099287723V393.181594379621H343.7453099287723V21.8640943796209zM285.9338099287723 449.4280943796209C277.4658099287723 449.1330943796209 269.0278099287723 450.5920943796208 261.1513099287722 453.7135943796209C253.2738099287723 456.8350943796209 246.1268099287723 461.5520943796209 240.1603099287723 467.5675943796209C234.1933099287723 473.5830943796209 229.5348099287723 480.7675943796209 226.4773099287723 488.6695943796209C223.4198099287723 496.5710943796209 222.0298099287723 505.0200943796209 222.3938099287723 513.4850943796209C222.0193099287723 522.041094379621 223.4373099287723 530.5810943796209 226.5578099287723 538.5570943796208C229.6778099287723 546.533594379621 234.4308099287723 553.7690943796208 240.5113099287723 559.8005943796209C246.5928099287723 565.8320943796209 253.8668099287723 570.5260943796209 261.8683099287723 573.5810943796209C269.8703099287723 576.6365943796209 278.4223099287723 577.9850943796209 286.9758099287723 577.5415943796208C295.4438099287723 577.8360943796208 303.8813099287723 576.3775943796209 311.7583099287723 573.2560943796209C319.6358099287723 570.1340943796208 326.7823099287722 565.4175943796208 332.7488099287723 559.4020943796208C338.7158099287723 553.3865943796209 343.3748099287723 546.2020943796208 346.4318099287723 538.300094379621C349.4898099287723 530.3985943796208 350.8798099287723 521.949594379621 350.5158099287723 513.4850943796209C350.8903099287723 504.9280943796209 349.4718099287723 496.3885943796209 346.3518099287723 488.4125943796209C343.2318099287723 480.4360943796209 338.4788099287722 473.2005943796209 332.3978099287723 467.1690943796209C326.3168099287723 461.1375943796209 319.0423099287723 456.4435943796209 311.0413099287723 453.3885943796209C303.0393099287723 450.3330943796209 294.4873099287722 448.9845943796209 285.9338099287723 449.4280943796209zM778.1113099287722 21.8640943796209H656.2363099287722V224.9690943796209C656.2363099287722 273.3990943796209 639.0513099287722 306.7315943796209 595.8213099287723 306.7315943796209C582.3963099287722 306.6165943796209 569.3263099287723 302.3515943796209 558.4213099287723 294.5190943796209C547.5113099287722 286.684094379621 539.2913099287723 275.6740943796209 534.8863099287722 262.9840943796209C531.5013099287722 253.4740943796209 530.0863099287723 243.3790943796209 530.7213099287723 233.2990943796209V21.8640943796209H410.9308099287722V393.181594379621H530.7213099287723V341.103094379621C541.3713099287722 360.6690943796209 557.2213099287723 376.9070943796209 576.5213099287722 388.0310943796209C595.8213099287723 399.150094379621 617.8213099287722 404.7180943796209 640.0913099287723 404.1195943796209C718.7363099287722 404.1195943796209 778.1113099287722 352.0395943796209 778.1113099287722 241.1140943796209V21.8640943796209z" />
    <glyph glyph-name="location"
      unicode="&#xEA16;"
      horiz-adv-x="1000" d="M800 363.6365C800 140.91 500 -50 500 -50C500 -50 200 140.91 200 363.6365C200 439.5845 231.607 512.4225 287.868 566.126C344.129 619.8295 420.435 650 500 650C579.565 650 655.87 619.8295 712.13 566.126C768.395 512.4225 800 439.5845 800 363.6365zM500 250C555.23 250 600 294.7700000000001 600 350C600 405.2285 555.23 450 500 450C444.7715 450 400 405.2285 400 350C400 294.7700000000001 444.7715 250 500 250z" />
    <glyph glyph-name="logout-left"
      unicode="&#xEA17;"
      horiz-adv-x="1000" d="M562.5 300H212.5M387.5 475L212.5 300M387.5 125L212.5 300M787.5 550L787.5 50" />
    <glyph glyph-name="logout-right"
      unicode="&#xEA18;"
      horiz-adv-x="1000" d="M425 300L775 300M600 125L775 300M600 475L775 300M225 550L225 50" />
    <glyph glyph-name="minus"
      unicode="&#xEA19;"
      horiz-adv-x="1000" d="M300 300H700" />
    <glyph glyph-name="plus"
      unicode="&#xEA1A;"
      horiz-adv-x="1000" d="M300 300H700M500 500L500 100" />
    <glyph glyph-name="product-hunt"
      unicode="&#xEA1B;"
      horiz-adv-x="1000" d="M500 -150C748.53 -150 950 51.47 950 300C950 548.5275 748.53 750 500 750C251.4725 750 50 548.5275 50 300C50 51.47 251.4725 -150 500 -150zM432.5 299.995L560 300C597.2800000000001 300 627.5 330.221 627.5 367.5C627.5 404.7785 597.2800000000001 434.996 560 434.996H432.5V299.995zM342.5 525H560C646.985 525 717.5 454.485 717.5 367.5C717.5 280.515 646.985 209.995 560 209.995H432.5V75H342.5V525zM50 -150H950V750H50V-150z" />
    <glyph glyph-name="search"
      unicode="&#xEA1C;"
      horiz-adv-x="1000" d="M697.0316250000001 331.6656250000001C697.0316250000001 212.925625 600.7716250000001 116.665625 482.032125 116.665625C363.2906250000001 116.665625 267.032125 212.925625 267.032125 331.6656250000001C267.032125 450.406625 363.2906250000001 546.6656250000001 482.032125 546.6656250000001C600.7716250000001 546.6656250000001 697.0316250000001 450.406625 697.0316250000001 331.6656250000001zM638.436625 105.440625C594.0316250000001 74.685625 540.1366250000001 56.665625 482.032125 56.665625C330.1536250000001 56.665625 207.032125 179.7856250000001 207.032125 331.6656250000001C207.032125 483.544125 330.1536250000001 606.6656250000001 482.032125 606.6656250000001C633.911625 606.6656250000001 757.0316250000001 483.544125 757.0316250000001 331.6656250000001C757.0316250000001 259.5506250000001 729.2716250000001 193.920625 683.8566250000001 144.870625L784.1816249999999 44.545625C795.8966250000001 32.8306250000001 795.8966250000001 13.835625 784.1816249999999 2.120625C772.466625 -9.594375 753.4716250000001 -9.594375 741.756625 2.120625L638.436625 105.440625z" />
    <glyph glyph-name="star"
      unicode="&#xEA1D;"
      horiz-adv-x="1000" d="M477.6507283166447 585.9245591243587C486.9157283166447 604.2510591243587 513.0857283166447 604.2510591243587 522.3507283166447 585.9245591243587L602.2607283166448 427.8515591243587C605.9507283166448 420.5515591243587 612.9757283166447 415.5140591243587 621.0707283166448 414.3580591243587L798.8107283166448 388.9915591243587C819.5307283166447 386.0345591243587 827.6957283166447 360.4755591243587 812.5307283166447 346.0520591243587L684.7307283166448 224.5100591243587C678.6557283166447 218.7300591243587 675.8707283166448 210.2900591243587 677.3257283166448 202.0300591243588L707.5857283166448 29.7600591243587C711.1657283166447 9.3800591243587 689.8857283166448 -6.2999408756413 671.4807283166448 3.1500591243587L511.4407283166447 85.3300591243586C504.2607283166448 89.0150591243587 495.7417283166448 89.0150591243587 488.5612283166447 85.3300591243586L328.5232283166447 3.1500591243587C310.1162283166448 -6.2999408756413 288.8382283166448 9.3800591243587 292.4177283166448 29.7600591243587L322.6777283166448 202.0300591243588C324.1287283166448 210.2900591243587 321.3477283166448 218.7300591243587 315.2702283166448 224.5100591243587L187.4692283166448 346.0525591243587C172.3037283166447 360.4755591243587 180.4702283166447 386.0345591243587 201.1897283166448 388.9915591243587L378.9282283166448 414.3580591243587C387.0262283166448 415.5140591243587 394.0492283166448 420.5515591243587 397.7397283166448 427.8515591243587L477.6507283166447 585.9245591243587z" />
    <glyph glyph-name="twitter"
      unicode="&#xEA1E;"
      horiz-adv-x="1000" d="M332.1230250000001 -62.5000268368648C673.6245250000001 -62.5000268368648 860.414525 216.4649731631353 860.414525 458.3569731631352C860.414525 466.2979731631352 860.414525 474.1794731631352 859.8745250000001 482.0314731631352C896.2095250000001 507.9069731631353 927.569525 540.0344731631352 952.499525 576.7949731631352C918.654525 561.9834731631353 882.679525 552.2699731631352 845.8895250000002 547.9874731631352C884.6245250000001 570.8739731631352 913.629525 606.8294731631353 927.5245250000002 649.2559731631352C891.049525 627.9314731631353 851.184525 612.8809731631352 809.599525 604.8059731631353C739.284525 678.5064731631352 621.679525 682.0769731631352 546.8795250000001 612.7489731631352C498.688025 568.0469731631352 478.190025 501.3974731631352 493.167525 437.8244731631352C343.8880250000001 445.2299731631353 204.7895250000001 514.7354731631352 110.488525 629.0774731631352C61.2110250000001 545.4289731631352 86.415525 438.4589731631353 168.0010250000001 384.7454731631352C138.4530250000001 385.5929731631352 109.5380250000001 393.4364731631352 83.7005250000001 407.6229731631352V405.2999731631353C83.745525 318.1709731631352 146.0550250000001 243.1499731631352 232.6635250000001 225.8849731631352C205.3325250000001 218.5249731631352 176.6440250000001 217.4549731631353 148.8605250000001 222.7649731631352C173.1595250000001 148.1699731631352 242.8900250000001 97.0799731631352 322.3035250000001 95.6099731631352C256.5555250000001 44.6599731631352 175.3315250000001 16.9949731631352 91.709525 17.0849731631351C76.9580250000001 17.1299731631352 62.206525 17.9799731631352 47.5004750000001 19.7199731631351C132.434525 -33.9950268368648 231.2155250000001 -62.5000268368648 332.1230250000001 -62.3650268368648" />
    <glyph glyph-name="youtube"
      unicode="&#xEA1F;"
      horiz-adv-x="1000" d="M414.3589863530274 189.8974247273992V428.8164247273992C499.1754863530274 388.9059247273991 564.8634863530275 350.3519247273992 642.5584863530274 308.7854247273991C578.4784863530274 273.2474247273991 499.1754863530274 233.3724247273992 414.3589863530274 189.8974247273992zM887.0434863530276 547.6419247273991C872.4134863530276 566.9179247273992 847.4734863530274 581.9224247273992 820.9284863530274 586.8899247273991C742.8984863530275 601.7079247273991 256.0909863530275 601.7499247273992 178.1024863530274 586.8899247273991C156.8134863530274 582.8989247273992 137.8559863530274 573.2524247273991 121.5714863530274 558.2644247273992C52.9544863530274 494.5779247273991 74.4559863530274 153.0474247273992 90.9949863530274 97.7224247273992C97.9499863530274 73.7774247273992 106.9409863530274 56.5074247273991 118.2639863530274 45.1724247273992C132.8524863530275 30.1824247273992 152.8264863530274 19.8624247273991 175.7694863530274 15.2374247273991C240.0179863530274 1.9474247273992 571.0134863530274 -5.4825752726009 819.5684863530274 13.2374247273991C842.4684863530275 17.2324247273992 862.7434863530275 27.8824247273991 878.7284863530274 43.5074247273991C942.1734863530274 106.9374247273992 937.8484863530274 467.6514247273991 887.0434863530276 547.6419247273991z" />
  </font>
</defs>
</svg>
