<svg xmlns="http://www.w3.org/2000/svg" xmlns:xlink="http://www.w3.org/1999/xlink" width="0" height="0" style="display:none;"><symbol id="aw-icon-apple"><path d="M15.180 2.095 C 14.232 2.332,13.474 2.767,12.804 3.460 C 11.991 4.301,11.590 5.181,11.533 6.256 L 11.507 6.733 11.864 6.709 C 12.867 6.642,13.773 6.142,14.577 5.212 C 15.170 4.527,15.389 4.118,15.599 3.303 C 15.756 2.696,15.796 2.240,15.705 2.102 C 15.626 1.981,15.637 1.981,15.180 2.095 M7.540 6.882 C 6.715 6.963,5.811 7.386,4.992 8.071 C 3.410 9.396,2.724 11.643,3.119 14.206 C 3.384 15.927,3.989 17.522,4.964 19.072 C 5.791 20.389,6.986 21.602,7.709 21.860 C 7.814 21.897,8.073 21.937,8.285 21.949 C 8.746 21.974,8.993 21.926,9.992 21.616 C 11.029 21.295,11.197 21.268,12.053 21.290 C 12.768 21.308,12.789 21.311,13.320 21.475 C 14.730 21.908,14.830 21.931,15.300 21.935 C 15.683 21.937,15.781 21.923,16.060 21.826 C 16.456 21.687,16.733 21.521,17.126 21.185 C 17.887 20.536,19.009 18.944,19.553 17.742 C 19.725 17.362,19.960 16.758,19.960 16.696 C 19.960 16.690,19.821 16.602,19.651 16.498 C 18.635 15.881,17.936 15.103,17.544 14.151 C 17.118 13.116,17.160 11.688,17.645 10.695 C 17.940 10.090,18.428 9.512,19.041 9.042 C 19.513 8.678,19.511 8.735,19.068 8.301 C 18.429 7.675,17.853 7.319,17.061 7.059 C 16.467 6.865,16.126 6.827,15.168 6.850 C 14.242 6.872,14.229 6.875,12.740 7.364 C 12.113 7.570,12.090 7.574,11.620 7.575 L 11.140 7.576 10.241 7.287 C 9.746 7.128,9.206 6.973,9.041 6.942 C 8.657 6.869,7.952 6.841,7.540 6.882 " fill="#373B4D" stroke="none" fill-rule="evenodd"></path></symbol><symbol id="aw-icon-arrow-down"><path d="M9.789 4.947 C 9.638 5.003,9.546 5.081,9.472 5.217 C 9.422 5.308,9.416 5.666,9.407 9.182 L 9.398 13.048 7.874 11.530 C 5.904 9.568,5.773 9.446,5.605 9.418 C 5.335 9.372,5.072 9.507,4.963 9.747 C 4.882 9.927,4.884 10.072,4.971 10.243 C 5.072 10.440,9.611 14.980,9.777 15.049 C 9.930 15.113,10.070 15.114,10.222 15.050 C 10.373 14.987,14.845 10.524,14.996 10.285 C 15.117 10.093,15.127 9.968,15.035 9.755 C 14.942 9.538,14.751 9.418,14.500 9.418 C 14.327 9.418,14.294 9.430,14.146 9.550 C 14.057 9.623,13.223 10.438,12.293 11.362 L 10.602 13.042 10.593 9.196 C 10.584 5.686,10.578 5.339,10.528 5.227 C 10.417 4.983,10.059 4.847,9.789 4.947 " stroke="none" fill-rule="evenodd"></path></symbol><symbol id="aw-icon-arrow-ext-link"><path d="M9.717 6.596 L 6.583 6.617 6.471 6.697 C 6.274 6.837,6.181 7.157,6.269 7.389 C 6.312 7.504,6.452 7.657,6.573 7.720 C 6.648 7.759,7.059 7.767,9.007 7.770 C 10.296 7.771,11.425 7.783,11.517 7.796 L 11.683 7.820 9.449 10.068 C 6.386 13.151,6.280 13.261,6.251 13.395 C 6.177 13.731,6.393 14.070,6.712 14.118 C 7.050 14.168,6.897 14.303,9.848 11.365 L 12.556 8.667 12.578 9.142 C 12.590 9.403,12.600 10.547,12.600 11.684 L 12.600 13.751 12.682 13.872 C 12.775 14.009,13.003 14.133,13.162 14.133 C 13.295 14.133,13.491 14.053,13.594 13.957 C 13.775 13.788,13.767 13.955,13.766 10.477 C 13.766 8.564,13.753 7.170,13.734 7.054 C 13.716 6.946,13.675 6.828,13.643 6.792 C 13.530 6.667,13.335 6.595,13.087 6.585 C 12.957 6.580,11.440 6.585,9.717 6.596 " stroke="none" fill-rule="evenodd"></path></symbol><symbol id="aw-icon-arrow-left"><path d="M9.767 4.971 C 9.562 5.074,5.024 9.602,4.951 9.777 C 4.888 9.927,4.886 10.069,4.946 10.213 C 4.996 10.332,7.837 13.217,9.055 14.386 C 9.805 15.105,9.851 15.135,10.113 15.086 C 10.399 15.033,10.616 14.748,10.591 14.460 C 10.580 14.339,10.547 14.266,10.447 14.143 C 10.376 14.055,9.561 13.222,8.637 12.292 L 6.956 10.600 10.805 10.600 L 14.655 10.600 14.809 10.498 C 15.200 10.239,15.190 9.729,14.788 9.499 L 14.617 9.401 10.786 9.400 L 6.956 9.400 8.637 7.708 C 9.561 6.778,10.374 5.948,10.442 5.863 C 10.604 5.664,10.633 5.480,10.538 5.260 C 10.408 4.959,10.055 4.827,9.767 4.971 " stroke="none" fill-rule="evenodd"></path></symbol><symbol id="aw-icon-arrow-right"><path d="M9.789 4.949 C 9.618 5.010,9.513 5.113,9.446 5.288 C 9.367 5.497,9.399 5.668,9.555 5.860 C 9.625 5.946,10.439 6.778,11.363 7.708 L 13.044 9.400 9.214 9.400 L 5.383 9.401 5.212 9.499 C 5.021 9.608,4.900 9.803,4.900 10.000 C 4.900 10.183,5.024 10.396,5.195 10.504 L 5.346 10.600 9.195 10.600 L 13.044 10.600 11.363 12.292 C 10.439 13.222,9.624 14.055,9.553 14.143 C 9.453 14.266,9.420 14.339,9.409 14.460 C 9.384 14.748,9.601 15.033,9.887 15.086 C 10.146 15.135,10.193 15.104,10.926 14.403 C 12.084 13.297,15.004 10.332,15.054 10.212 C 15.114 10.069,15.112 9.927,15.049 9.777 C 14.974 9.595,10.435 5.070,10.231 4.973 C 10.057 4.889,9.968 4.884,9.789 4.949 " stroke="none" fill-rule="evenodd"></path></symbol><symbol id="aw-icon-arrow-up"><path d="M9.767 4.953 C 9.651 5.002,5.541 9.092,5.122 9.574 C 4.893 9.837,4.858 9.970,4.951 10.215 C 5.100 10.604,5.529 10.713,5.860 10.445 C 5.946 10.375,6.778 9.561,7.708 8.637 L 9.400 6.956 9.400 10.805 L 9.400 14.654 9.496 14.805 C 9.604 14.976,9.817 15.100,10.000 15.100 C 10.183 15.100,10.396 14.976,10.504 14.805 L 10.600 14.654 10.600 10.805 L 10.600 6.956 12.292 8.637 C 13.222 9.561,14.055 10.376,14.143 10.447 C 14.351 10.616,14.546 10.641,14.766 10.527 C 14.947 10.434,15.055 10.281,15.086 10.074 C 15.105 9.948,15.095 9.893,15.031 9.768 C 14.923 9.560,10.394 5.022,10.222 4.950 C 10.072 4.887,9.917 4.888,9.767 4.953 " stroke="none" fill-rule="evenodd"></path></symbol><symbol id="aw-icon-calendar"><path d="M6.810 3.435 C 6.656 3.482,6.480 3.663,6.437 3.817 C 6.417 3.890,6.400 4.051,6.400 4.175 L 6.400 4.400 6.237 4.400 C 5.951 4.400,5.389 4.467,5.217 4.522 C 4.777 4.662,4.340 4.961,3.997 5.357 C 3.810 5.573,3.530 6.118,3.461 6.400 C 3.396 6.670,3.396 14.330,3.461 14.600 C 3.486 14.701,3.579 14.933,3.668 15.117 C 3.936 15.669,4.331 16.064,4.883 16.332 C 5.067 16.421,5.299 16.514,5.400 16.539 C 5.549 16.575,6.419 16.583,10.033 16.581 L 14.483 16.579 14.750 16.490 C 15.198 16.340,15.480 16.161,15.834 15.804 C 16.101 15.535,16.177 15.433,16.310 15.167 C 16.601 14.582,16.581 14.924,16.581 10.500 C 16.581 6.085,16.599 6.414,16.317 5.850 C 16.008 5.235,15.447 4.743,14.817 4.535 C 14.619 4.470,14.077 4.400,13.767 4.400 L 13.607 4.400 13.594 4.125 C 13.579 3.790,13.507 3.628,13.323 3.506 C 13.135 3.382,12.865 3.382,12.677 3.506 C 12.493 3.628,12.421 3.790,12.406 4.125 L 12.393 4.400 10.001 4.400 L 7.608 4.400 7.593 4.108 C 7.584 3.923,7.558 3.777,7.522 3.708 C 7.406 3.488,7.066 3.357,6.810 3.435 M6.406 5.875 C 6.421 6.210,6.493 6.372,6.678 6.495 C 6.960 6.682,7.374 6.575,7.519 6.278 C 7.559 6.195,7.586 6.054,7.594 5.875 L 7.607 5.600 10.000 5.600 L 12.393 5.600 12.406 5.875 C 12.421 6.210,12.493 6.372,12.678 6.495 C 12.960 6.682,13.374 6.575,13.519 6.278 C 13.560 6.194,13.586 6.054,13.594 5.870 L 13.607 5.590 13.930 5.612 C 14.317 5.637,14.556 5.703,14.782 5.848 C 14.950 5.955,15.175 6.217,15.283 6.430 C 15.351 6.565,15.397 7.142,15.399 7.892 L 15.400 8.400 10.000 8.400 L 4.600 8.400 4.601 7.725 C 4.603 6.612,4.657 6.388,5.010 6.042 C 5.339 5.719,5.622 5.608,6.138 5.603 L 6.393 5.600 6.406 5.875 M15.392 11.980 L 15.374 14.360 15.265 14.582 C 15.124 14.868,14.858 15.134,14.573 15.274 L 14.351 15.383 10.045 15.392 C 5.754 15.401,5.737 15.400,5.553 15.331 C 5.199 15.199,4.864 14.876,4.697 14.505 C 4.629 14.354,4.627 14.296,4.609 11.975 L 4.590 9.600 10.000 9.600 L 15.410 9.600 15.392 11.980 " stroke="none" fill-rule="evenodd"></path></symbol><symbol id="aw-icon-check"><path d="M14.302 5.442 C 14.142 5.499,13.948 5.745,11.493 9.009 C 9.781 11.285,8.762 12.624,8.409 13.060 C 8.381 13.095,8.356 13.100,8.326 13.076 C 8.303 13.058,7.859 12.696,7.340 12.272 C 5.633 10.876,5.595 10.852,5.283 10.997 C 5.041 11.109,4.900 11.315,4.900 11.557 C 4.900 11.787,5.008 11.899,6.110 12.814 C 7.403 13.887,8.275 14.565,8.388 14.586 C 8.594 14.625,8.738 14.573,8.895 14.406 C 9.094 14.192,10.067 12.915,12.187 10.083 C 14.944 6.399,15.063 6.234,15.087 6.059 C 15.144 5.646,14.701 5.298,14.302 5.442 " stroke="none" fill-rule="evenodd"></path></symbol><symbol id="aw-icon-chevron-down"><path d="M5.289 7.547 C 5.122 7.608,5.037 7.687,4.963 7.850 C 4.882 8.026,4.884 8.172,4.971 8.343 C 5.018 8.436,5.782 9.222,7.229 10.668 C 8.432 11.870,9.505 12.927,9.613 13.018 C 9.799 13.174,9.821 13.183,10.000 13.183 C 10.179 13.183,10.201 13.174,10.387 13.018 C 10.495 12.927,11.568 11.870,12.771 10.668 C 14.218 9.222,14.982 8.436,15.029 8.343 C 15.117 8.169,15.119 8.049,15.035 7.855 C 14.942 7.638,14.751 7.518,14.500 7.518 C 14.327 7.518,14.294 7.530,14.146 7.650 C 14.057 7.723,13.087 8.674,11.992 9.763 L 10.000 11.744 8.008 9.763 C 6.913 8.674,5.948 7.727,5.863 7.658 C 5.683 7.511,5.487 7.473,5.289 7.547 " fill="#19191C" stroke="none" fill-rule="evenodd"></path></symbol><symbol id="aw-icon-chevron-left"><path d="M12.000 5.318 C 11.873 5.375,7.454 9.780,7.272 10.031 C 7.152 10.197,7.133 10.387,7.215 10.584 C 7.269 10.713,11.681 15.153,11.930 15.330 C 12.398 15.660,13.009 15.153,12.786 14.619 C 12.757 14.549,11.959 13.722,10.673 12.428 L 8.606 10.350 10.614 8.333 C 11.719 7.224,12.670 6.251,12.728 6.170 C 12.810 6.056,12.833 5.990,12.833 5.870 C 12.832 5.659,12.734 5.460,12.588 5.369 C 12.430 5.272,12.155 5.248,12.000 5.318 " fill="#19191C" stroke="none" fill-rule="evenodd"></path></symbol><symbol id="aw-icon-chevron-right"><path d="M7.564 5.299 C 7.325 5.371,7.167 5.599,7.167 5.872 C 7.167 5.989,7.191 6.057,7.272 6.170 C 7.330 6.251,8.281 7.224,9.386 8.333 L 11.394 10.350 9.328 12.428 C 8.032 13.730,7.243 14.547,7.214 14.618 C 7.050 15.011,7.337 15.433,7.767 15.433 C 7.888 15.433,7.956 15.410,8.070 15.329 C 8.319 15.153,12.732 10.712,12.785 10.584 C 12.868 10.387,12.848 10.197,12.727 10.030 C 12.669 9.949,11.600 8.861,10.352 7.612 C 8.410 5.668,8.064 5.335,7.950 5.304 C 7.799 5.262,7.689 5.261,7.564 5.299 " fill="#19191C" stroke="none" fill-rule="evenodd"></path></symbol><symbol id="aw-icon-chevron-up"><path d="M9.769 7.568 C 9.658 7.619,9.087 8.171,7.434 9.826 C 6.231 11.031,5.175 12.102,5.087 12.207 C 4.895 12.436,4.862 12.583,4.951 12.815 C 5.100 13.204,5.529 13.313,5.860 13.045 C 5.946 12.975,6.913 12.026,8.008 10.937 L 10.000 8.956 11.992 10.937 C 13.087 12.026,14.055 12.976,14.143 13.047 C 14.266 13.147,14.339 13.180,14.460 13.191 C 14.842 13.224,15.158 12.867,15.086 12.484 C 15.057 12.332,14.217 11.453,12.001 9.255 C 10.355 7.622,10.217 7.501,10.000 7.501 C 9.954 7.501,9.850 7.532,9.769 7.568 " fill="#19191C" stroke="none" fill-rule="evenodd"></path></symbol><symbol id="aw-icon-close"><path d="M5.289 4.947 C 5.117 5.011,5.013 5.114,4.946 5.288 C 4.867 5.497,4.899 5.668,5.055 5.860 C 5.125 5.946,6.074 6.913,7.163 8.008 L 9.144 10.000 7.163 11.992 C 6.074 13.087,5.125 14.054,5.055 14.140 C 4.910 14.319,4.870 14.493,4.932 14.680 C 4.990 14.856,5.114 14.987,5.284 15.052 C 5.497 15.133,5.667 15.102,5.860 14.945 C 5.946 14.875,6.913 13.926,8.008 12.837 L 10.000 10.856 11.992 12.837 C 13.087 13.926,14.054 14.875,14.140 14.945 C 14.333 15.102,14.503 15.133,14.716 15.052 C 14.886 14.987,15.010 14.856,15.068 14.680 C 15.130 14.493,15.090 14.319,14.945 14.140 C 14.875 14.054,13.926 13.087,12.837 11.992 L 10.856 10.000 12.837 8.008 C 13.926 6.913,14.873 5.948,14.942 5.863 C 15.104 5.664,15.133 5.480,15.038 5.260 C 14.942 5.037,14.754 4.918,14.500 4.918 C 14.327 4.918,14.294 4.930,14.146 5.050 C 14.057 5.123,13.087 6.074,11.992 7.163 L 10.000 9.144 8.008 7.163 C 6.913 6.074,5.948 5.127,5.863 5.058 C 5.682 4.911,5.487 4.873,5.289 4.947 " stroke="none" fill-rule="evenodd"></path></symbol><symbol id="aw-icon-copy"><path d="M8.217 4.081 C 8.088 4.105,7.924 4.150,7.852 4.180 C 7.649 4.265,7.388 4.478,7.274 4.650 C 7.150 4.837,7.042 5.267,7.012 5.696 L 6.990 6.000 7.590 6.000 L 8.190 6.000 8.231 5.652 C 8.263 5.386,8.286 5.300,8.328 5.282 C 8.465 5.226,10.123 5.196,12.150 5.213 C 14.125 5.229,14.626 5.248,14.686 5.308 C 14.754 5.376,14.768 6.049,14.758 8.673 C 14.752 10.255,14.734 11.584,14.720 11.625 C 14.688 11.710,14.565 11.750,14.225 11.785 L 14.000 11.808 13.994 12.304 C 13.990 12.577,13.987 12.841,13.985 12.892 L 13.983 12.983 14.267 12.972 C 15.225 12.935,15.696 12.625,15.885 11.907 C 15.973 11.574,15.999 10.807,15.999 8.550 C 15.999 5.249,15.967 4.924,15.594 4.516 C 15.416 4.321,15.244 4.217,14.933 4.113 C 14.761 4.055,14.557 4.051,11.600 4.045 C 9.130 4.039,8.400 4.047,8.217 4.081 M5.633 7.032 L 5.050 7.050 4.839 7.164 C 4.375 7.416,4.088 7.824,4.032 8.311 C 3.991 8.666,3.991 14.334,4.032 14.689 C 4.109 15.363,4.636 15.891,5.307 15.968 C 5.669 16.009,11.331 16.009,11.693 15.968 C 12.032 15.929,12.293 15.800,12.546 15.546 C 12.807 15.286,12.931 15.030,12.968 14.675 C 13.006 14.318,13.007 8.684,12.970 8.328 C 12.917 7.824,12.611 7.391,12.145 7.162 C 11.923 7.052,11.907 7.050,11.351 7.028 C 10.678 7.003,6.470 7.005,5.633 7.032 M11.710 8.293 L 11.800 8.387 11.800 11.500 L 11.800 14.613 11.710 14.707 L 11.621 14.800 8.504 14.800 L 5.387 14.800 5.293 14.710 L 5.200 14.621 5.200 11.504 L 5.200 8.387 5.290 8.293 L 5.379 8.200 8.500 8.200 L 11.621 8.200 11.710 8.293 " fill="#19191C" stroke="none" fill-rule="evenodd"></path></symbol><symbol id="aw-icon-dark"><path d="M9.917 4.023 C 9.682 4.043,9.159 4.135,8.883 4.204 C 8.459 4.311,8.143 4.428,7.751 4.624 C 5.915 5.539,4.676 7.289,4.431 9.312 C 4.374 9.777,4.408 10.653,4.499 11.115 C 4.948 13.378,6.618 15.189,8.800 15.779 C 9.361 15.931,9.735 15.978,10.383 15.979 C 11.109 15.979,11.582 15.905,12.245 15.686 C 13.190 15.374,13.862 14.966,14.579 14.269 C 15.101 13.761,15.570 13.112,15.736 12.669 C 15.819 12.446,15.791 12.302,15.637 12.153 C 15.529 12.050,15.435 12.033,14.617 11.968 C 13.916 11.912,13.464 11.795,12.868 11.513 C 12.343 11.265,11.928 10.968,11.482 10.520 C 10.785 9.821,10.407 9.146,10.115 8.083 C 10.030 7.773,10.009 6.551,10.081 6.133 C 10.147 5.753,10.309 5.257,10.513 4.811 C 10.706 4.387,10.718 4.332,10.650 4.188 C 10.567 4.012,10.421 3.979,9.917 4.023 M8.930 5.742 C 8.537 7.788,9.114 9.787,10.528 11.273 C 11.351 12.138,12.396 12.738,13.567 13.019 C 13.777 13.070,13.963 13.123,13.979 13.136 C 14.021 13.172,13.599 13.581,13.253 13.840 C 12.721 14.238,11.965 14.576,11.300 14.712 C 10.114 14.954,8.780 14.680,7.719 13.976 C 7.292 13.693,6.686 13.094,6.428 12.700 C 5.288 10.960,5.329 8.801,6.535 7.146 C 6.739 6.865,7.308 6.309,7.600 6.104 C 7.932 5.871,8.337 5.652,8.656 5.533 C 8.800 5.480,8.933 5.436,8.953 5.435 C 8.978 5.434,8.971 5.533,8.930 5.742 " stroke="none" fill-rule="evenodd"></path></symbol><symbol id="aw-icon-discord"><path d="M12.193 3.755 L 11.959 4.239 11.855 4.220 C 11.134 4.086,8.661 4.088,8.109 4.222 C 8.041 4.239,8.014 4.198,7.819 3.787 C 7.700 3.537,7.579 3.323,7.548 3.311 C 7.474 3.283,6.745 3.438,6.122 3.616 C 5.269 3.859,4.155 4.291,3.979 4.447 C 3.859 4.554,3.299 5.512,2.955 6.200 C 2.085 7.937,1.576 9.696,1.399 11.571 C 1.355 12.031,1.349 14.016,1.390 14.298 L 1.417 14.479 1.850 14.777 C 2.958 15.540,4.027 16.090,5.300 16.554 L 5.783 16.730 5.841 16.662 C 5.944 16.540,6.389 15.821,6.564 15.495 L 6.733 15.179 6.475 15.068 C 6.036 14.879,5.300 14.494,5.300 14.453 C 5.300 14.431,5.372 14.359,5.461 14.291 L 5.622 14.168 6.019 14.335 C 7.346 14.891,8.584 15.144,9.983 15.146 C 11.431 15.149,12.588 14.912,14.015 14.320 L 14.379 14.169 14.540 14.291 C 14.628 14.359,14.700 14.431,14.700 14.452 C 14.700 14.495,14.080 14.823,13.600 15.034 C 13.426 15.110,13.278 15.178,13.271 15.184 C 13.251 15.205,13.729 16.030,13.970 16.388 L 14.200 16.732 14.610 16.586 C 15.904 16.127,17.031 15.554,18.105 14.808 C 18.639 14.438,18.593 14.534,18.635 13.699 C 18.793 10.600,18.006 7.626,16.292 4.844 L 16.021 4.404 15.586 4.223 C 14.655 3.835,13.980 3.619,13.067 3.415 C 12.783 3.351,12.522 3.293,12.488 3.285 C 12.438 3.274,12.385 3.359,12.193 3.755 M7.600 8.986 C 7.836 9.063,8.101 9.267,8.292 9.519 C 8.501 9.794,8.595 10.025,8.644 10.378 C 8.754 11.190,8.381 11.965,7.718 12.300 C 7.497 12.411,7.471 12.417,7.135 12.417 C 6.808 12.417,6.768 12.409,6.556 12.309 C 6.134 12.109,5.749 11.620,5.630 11.133 C 5.567 10.875,5.575 10.393,5.647 10.152 C 5.831 9.532,6.301 9.039,6.808 8.934 C 6.991 8.896,7.407 8.923,7.600 8.986 M13.152 8.936 C 14.114 9.112,14.682 10.315,14.296 11.355 C 13.906 12.404,12.738 12.768,11.963 12.083 C 11.484 11.658,11.263 11.027,11.359 10.348 C 11.409 9.987,11.598 9.612,11.865 9.346 C 12.253 8.958,12.624 8.840,13.152 8.936 " fill="#19191C" stroke="none" fill-rule="evenodd"></path></symbol><symbol id="aw-icon-divider-vertical"><path d="M9.789 3.447 C 9.638 3.503,9.546 3.581,9.472 3.717 C 9.421 3.808,9.416 4.330,9.407 9.984 L 9.398 16.151 9.495 16.304 C 9.604 16.476,9.816 16.600,10.000 16.600 C 10.184 16.600,10.396 16.476,10.505 16.304 L 10.602 16.151 10.593 10.000 C 10.584 4.336,10.579 3.840,10.528 3.727 C 10.417 3.483,10.059 3.347,9.789 3.447 " stroke="none" fill-rule="evenodd"></path></symbol><symbol id="aw-icon-download"><path d="M9.571 4.189 C 9.528 4.198,9.429 4.269,9.352 4.347 C 9.231 4.467,9.208 4.514,9.189 4.669 C 9.177 4.768,9.167 6.078,9.167 7.579 L 9.167 10.308 7.896 9.051 C 7.197 8.360,6.578 7.766,6.521 7.731 C 6.335 7.617,5.981 7.680,5.826 7.855 C 5.677 8.022,5.631 8.283,5.714 8.481 C 5.766 8.608,7.704 10.582,8.826 11.654 C 9.598 12.391,9.637 12.415,9.912 12.334 C 10.030 12.300,10.305 12.038,11.819 10.522 C 12.792 9.547,13.647 8.677,13.718 8.588 C 13.831 8.447,13.848 8.404,13.848 8.253 C 13.848 7.841,13.410 7.549,13.047 7.720 C 12.964 7.758,12.450 8.244,11.642 9.046 L 10.367 10.311 10.365 7.831 C 10.364 6.466,10.351 5.158,10.337 4.923 C 10.307 4.456,10.275 4.375,10.075 4.257 C 9.969 4.195,9.708 4.160,9.571 4.189 M4.990 14.689 L 4.463 14.702 4.317 14.847 C 4.204 14.961,4.167 15.026,4.149 15.144 C 4.121 15.332,4.174 15.501,4.308 15.655 C 4.509 15.883,4.145 15.867,9.007 15.863 C 11.432 15.862,13.763 15.850,14.186 15.838 L 14.955 15.817 15.078 15.723 C 15.238 15.601,15.300 15.474,15.300 15.267 C 15.300 15.046,15.235 14.896,15.090 14.786 L 14.974 14.697 10.245 14.687 C 7.644 14.681,5.280 14.682,4.990 14.689 " stroke="none" fill-rule="evenodd"></path></symbol><symbol id="aw-icon-github"><path d="M9.283 1.101 C 7.317 1.207,5.268 2.166,3.730 3.698 C 3.021 4.405,2.511 5.116,2.055 6.033 C 1.575 6.998,1.296 7.894,1.128 9.017 C 1.058 9.483,1.068 11.082,1.143 11.550 C 1.333 12.728,1.686 13.785,2.204 14.720 C 3.202 16.522,4.718 17.902,6.571 18.696 C 7.255 18.989,7.450 19.009,7.648 18.802 C 7.784 18.660,7.804 18.471,7.778 17.572 L 7.756 16.794 7.667 16.812 C 7.145 16.916,6.498 16.919,6.117 16.818 C 5.780 16.730,5.448 16.546,5.198 16.310 C 4.995 16.119,4.939 16.036,4.729 15.621 C 4.356 14.886,4.200 14.682,3.742 14.337 C 3.471 14.131,3.392 14.001,3.480 13.903 C 3.603 13.768,3.994 13.795,4.357 13.965 C 4.623 14.089,4.948 14.395,5.176 14.733 C 5.434 15.116,5.561 15.259,5.782 15.417 C 6.309 15.793,6.831 15.839,7.639 15.580 L 7.794 15.530 7.848 15.289 C 7.907 15.023,8.043 14.712,8.199 14.485 C 8.255 14.404,8.300 14.325,8.300 14.308 C 8.300 14.292,8.182 14.260,8.038 14.238 C 7.437 14.146,6.750 13.941,6.317 13.724 C 5.858 13.495,5.367 13.080,5.079 12.679 C 4.884 12.406,4.624 11.853,4.517 11.483 C 4.353 10.916,4.327 10.664,4.340 9.771 L 4.351 8.950 4.458 8.643 C 4.601 8.232,4.827 7.790,5.033 7.516 L 5.204 7.292 5.130 6.988 C 5.000 6.447,5.033 5.729,5.218 5.107 C 5.294 4.850,5.335 4.822,5.597 4.850 C 6.123 4.906,6.756 5.161,7.436 5.590 L 7.756 5.791 8.184 5.697 C 8.815 5.559,9.097 5.534,10.000 5.534 C 10.902 5.534,11.185 5.559,11.815 5.697 L 12.241 5.791 12.596 5.573 C 12.999 5.326,13.515 5.072,13.833 4.966 C 13.966 4.921,14.173 4.887,14.368 4.876 L 14.686 4.858 14.727 4.950 C 14.750 5.000,14.806 5.184,14.851 5.358 C 14.962 5.783,14.969 6.598,14.867 7.024 L 14.801 7.298 14.969 7.520 C 15.260 7.904,15.545 8.533,15.634 8.989 C 15.700 9.324,15.658 10.807,15.573 11.167 C 15.338 12.158,14.855 12.940,14.183 13.416 C 13.611 13.821,12.814 14.112,11.942 14.235 C 11.790 14.257,11.667 14.282,11.667 14.291 C 11.667 14.300,11.710 14.362,11.762 14.429 C 11.876 14.572,12.076 14.962,12.133 15.150 C 12.160 15.238,12.187 15.856,12.213 16.983 C 12.242 18.209,12.264 18.704,12.294 18.758 C 12.413 18.974,12.731 18.981,13.233 18.781 C 15.661 17.812,17.565 15.796,18.434 13.278 C 19.427 10.396,18.944 7.173,17.149 4.717 C 16.698 4.099,15.883 3.278,15.260 2.814 C 13.962 1.846,12.220 1.177,10.846 1.117 C 10.056 1.082,9.703 1.079,9.283 1.101 " fill="#19191C" stroke="none" fill-rule="evenodd"></path></symbol><symbol id="aw-icon-google"><path d="M11.300 3.080 C 8.517 3.296,5.670 5.074,4.263 7.475 C 3.735 8.376,3.277 9.687,3.095 10.820 C 2.999 11.418,2.999 12.571,3.095 13.199 C 3.553 16.194,5.363 18.675,8.060 20.003 C 9.597 20.760,11.047 21.053,12.791 20.959 C 15.052 20.837,17.036 20.017,18.460 18.614 C 19.122 17.962,19.579 17.320,20.022 16.420 C 20.602 15.242,20.908 14.020,20.980 12.600 C 21.011 12.004,20.947 10.889,20.869 10.650 C 20.821 10.504,20.814 10.499,20.580 10.474 C 20.448 10.460,18.500 10.435,16.250 10.419 L 12.160 10.389 12.160 12.114 L 12.160 13.840 13.350 13.845 C 14.005 13.848,15.116 13.862,15.820 13.875 L 17.100 13.900 17.090 13.992 C 17.072 14.160,16.817 14.786,16.640 15.095 C 16.018 16.182,15.035 16.908,13.740 17.236 C 12.951 17.435,11.602 17.450,10.940 17.267 C 9.839 16.961,9.044 16.493,8.293 15.707 C 7.552 14.932,7.046 13.979,6.876 13.040 C 6.806 12.656,6.808 11.367,6.878 10.960 C 6.949 10.548,7.126 10.060,7.387 9.556 C 7.922 8.521,8.806 7.655,9.869 7.124 C 10.588 6.766,11.220 6.635,12.240 6.635 C 13.445 6.635,14.209 6.877,15.289 7.602 L 15.695 7.875 15.838 7.759 C 15.916 7.696,16.510 7.125,17.158 6.490 L 18.336 5.337 17.998 5.073 C 16.707 4.068,15.269 3.420,13.760 3.163 C 13.184 3.065,12.008 3.025,11.300 3.080 " fill="#373B4D" stroke="none" fill-rule="evenodd"></path></symbol><symbol id="aw-icon-hamburger-menu"><path d="M2.712 4.999 C 2.521 5.108,2.400 5.303,2.400 5.500 C 2.400 5.683,2.524 5.896,2.695 6.004 L 2.846 6.100 10.001 6.100 L 17.155 6.100 17.309 5.998 C 17.700 5.739,17.690 5.229,17.288 4.999 L 17.117 4.901 10.000 4.901 L 2.883 4.901 2.712 4.999 M2.712 13.999 C 2.521 14.108,2.400 14.303,2.400 14.500 C 2.400 14.683,2.524 14.896,2.695 15.004 L 2.846 15.100 10.001 15.100 L 17.155 15.100 17.309 14.998 C 17.700 14.739,17.690 14.229,17.288 13.999 L 17.117 13.901 10.000 13.901 L 2.883 13.901 2.712 13.999 " stroke="none" fill-rule="evenodd"></path></symbol><symbol id="aw-icon-light"><path d="M9.789 2.447 C 9.638 2.503,9.546 2.581,9.472 2.717 C 9.424 2.802,9.417 2.943,9.417 3.702 L 9.417 4.588 9.506 4.723 C 9.689 5.000,10.052 5.074,10.329 4.890 C 10.569 4.731,10.583 4.665,10.583 3.683 C 10.583 2.916,10.577 2.804,10.524 2.708 C 10.396 2.474,10.049 2.350,9.789 2.447 M4.860 4.500 C 4.612 4.574,4.467 4.780,4.467 5.055 C 4.467 5.278,4.536 5.380,5.012 5.853 C 5.548 6.388,5.725 6.474,6.025 6.349 C 6.194 6.278,6.265 6.208,6.338 6.039 C 6.478 5.713,6.414 5.579,5.834 4.995 C 5.313 4.471,5.180 4.403,4.860 4.500 M14.702 4.517 C 14.639 4.545,14.389 4.768,14.146 5.012 C 13.589 5.573,13.522 5.715,13.662 6.039 C 13.735 6.208,13.806 6.278,13.975 6.349 C 14.269 6.471,14.436 6.393,14.951 5.894 C 15.417 5.443,15.533 5.279,15.533 5.071 C 15.533 4.873,15.424 4.654,15.282 4.566 C 15.131 4.473,14.852 4.449,14.702 4.517 M9.433 6.051 C 8.551 6.191,7.815 6.557,7.200 7.163 C 6.613 7.743,6.254 8.405,6.078 9.233 C 5.997 9.615,5.997 10.375,6.077 10.759 C 6.378 12.185,7.365 13.319,8.705 13.779 C 9.177 13.941,9.412 13.977,9.983 13.978 C 10.575 13.978,10.875 13.927,11.403 13.735 C 13.207 13.079,14.306 11.106,13.916 9.220 C 13.605 7.713,12.498 6.538,11.014 6.139 C 10.799 6.081,9.935 5.989,9.750 6.004 C 9.732 6.005,9.589 6.027,9.433 6.051 M10.700 7.304 C 11.022 7.383,11.493 7.620,11.760 7.836 C 12.201 8.192,12.557 8.753,12.703 9.317 C 12.799 9.690,12.799 10.313,12.702 10.682 C 12.301 12.213,10.746 13.116,9.257 12.684 C 8.262 12.396,7.564 11.684,7.296 10.683 C 7.197 10.311,7.196 9.693,7.295 9.317 C 7.594 8.183,8.562 7.351,9.733 7.222 C 9.945 7.198,10.446 7.241,10.700 7.304 M2.859 9.432 C 2.591 9.516,2.400 9.753,2.400 10.000 C 2.400 10.172,2.523 10.392,2.677 10.494 L 2.812 10.583 3.614 10.594 C 4.458 10.606,4.593 10.590,4.772 10.457 C 4.890 10.370,5.000 10.149,5.000 10.000 C 5.000 9.812,4.879 9.610,4.705 9.508 L 4.550 9.417 3.750 9.410 C 3.310 9.407,2.909 9.416,2.859 9.432 M15.459 9.432 C 15.191 9.516,15.000 9.753,15.000 10.000 C 15.000 10.172,15.123 10.392,15.277 10.494 L 15.412 10.583 16.214 10.594 C 17.058 10.606,17.193 10.590,17.372 10.457 C 17.490 10.370,17.600 10.149,17.600 10.000 C 17.600 9.812,17.479 9.610,17.305 9.508 L 17.150 9.417 16.350 9.410 C 15.910 9.407,15.509 9.416,15.459 9.432 M5.650 13.623 C 5.528 13.656,5.287 13.857,4.929 14.223 C 4.507 14.656,4.454 14.746,4.474 14.987 C 4.501 15.310,4.738 15.533,5.055 15.533 C 5.280 15.533,5.381 15.464,5.873 14.967 C 6.412 14.423,6.476 14.283,6.335 13.955 C 6.232 13.712,5.903 13.553,5.650 13.623 M13.950 13.663 C 13.791 13.736,13.720 13.810,13.651 13.975 C 13.524 14.281,13.595 14.431,14.123 14.963 C 14.620 15.464,14.720 15.533,14.945 15.533 C 15.262 15.533,15.499 15.310,15.526 14.987 C 15.546 14.746,15.493 14.656,15.072 14.224 C 14.493 13.631,14.266 13.518,13.950 13.663 M9.789 15.047 C 9.638 15.103,9.546 15.181,9.472 15.317 C 9.424 15.402,9.417 15.543,9.417 16.302 L 9.417 17.188 9.506 17.323 C 9.689 17.600,10.052 17.674,10.329 17.490 C 10.569 17.331,10.583 17.265,10.583 16.283 C 10.583 15.516,10.577 15.404,10.524 15.308 C 10.396 15.074,10.049 14.950,9.789 15.047 " fill="#19191C" stroke="none" fill-rule="evenodd"></path></symbol><symbol id="aw-icon-linkedin"><path d="M3.433 1.696 C 2.618 1.717,2.616 1.717,2.436 1.812 C 2.010 2.036,1.744 2.415,1.697 2.867 C 1.682 3.004,1.669 6.284,1.668 10.154 L 1.667 17.192 1.799 17.457 C 1.958 17.774,2.240 18.061,2.518 18.188 C 2.672 18.259,2.782 18.279,3.144 18.302 C 3.744 18.341,16.295 18.340,16.896 18.301 C 17.306 18.275,17.401 18.257,17.552 18.184 C 17.773 18.076,18.094 17.738,18.221 17.478 L 18.317 17.283 18.326 10.283 C 18.331 6.261,18.322 3.127,18.305 2.915 C 18.281 2.622,18.256 2.510,18.186 2.372 C 18.071 2.146,17.893 1.970,17.626 1.821 L 17.412 1.701 10.831 1.688 C 7.211 1.681,3.882 1.684,3.433 1.696 M5.931 4.471 C 6.051 4.492,6.214 4.537,6.292 4.570 C 6.494 4.657,6.757 4.917,6.870 5.140 C 6.961 5.320,6.967 5.355,6.966 5.741 C 6.966 6.138,6.963 6.155,6.862 6.331 C 6.730 6.561,6.483 6.803,6.277 6.904 C 6.138 6.971,6.066 6.982,5.733 6.982 C 5.383 6.983,5.334 6.976,5.166 6.893 C 4.930 6.777,4.690 6.537,4.574 6.301 C 4.491 6.133,4.483 6.083,4.483 5.733 C 4.483 5.390,4.492 5.331,4.570 5.165 C 4.738 4.807,4.994 4.600,5.400 4.494 C 5.666 4.424,5.661 4.425,5.931 4.471 M13.583 8.019 C 14.547 8.280,15.222 9.048,15.453 10.146 C 15.532 10.524,15.565 11.546,15.566 13.625 L 15.567 15.567 14.354 15.567 L 13.141 15.567 13.125 13.275 C 13.109 11.052,13.107 10.977,13.038 10.767 C 12.836 10.149,12.505 9.886,11.933 9.889 C 11.462 9.891,11.072 10.094,10.836 10.462 C 10.613 10.810,10.621 10.712,10.608 13.258 L 10.596 15.567 9.415 15.567 L 8.233 15.567 8.233 11.850 L 8.233 8.133 9.417 8.133 L 10.600 8.133 10.600 8.652 L 10.600 9.171 10.798 8.907 C 11.192 8.385,11.733 8.050,12.317 7.966 C 12.608 7.924,13.348 7.955,13.583 8.019 M6.867 11.850 L 6.867 15.567 5.650 15.567 L 4.433 15.567 4.433 11.850 L 4.433 8.133 5.650 8.133 L 6.867 8.133 6.867 11.850 " fill="#19191C" stroke="none" fill-rule="evenodd"></path></symbol><symbol id="aw-icon-location"><path d="M9.233 2.453 C 8.677 2.520,8.373 2.588,7.868 2.755 C 5.345 3.594,3.659 5.685,3.428 8.262 C 3.331 9.348,3.583 10.518,4.170 11.699 C 5.075 13.521,6.647 15.264,8.932 16.978 C 9.485 17.393,9.742 17.547,9.944 17.585 C 10.134 17.620,10.443 17.450,11.129 16.934 C 12.741 15.721,14.077 14.394,15.022 13.067 C 16.096 11.559,16.662 9.895,16.588 8.467 C 16.451 5.832,14.680 3.576,12.085 2.730 C 11.558 2.558,11.030 2.469,10.327 2.433 C 9.973 2.416,9.668 2.402,9.650 2.404 C 9.632 2.406,9.444 2.428,9.233 2.453 M10.505 3.635 C 11.834 3.770,13.022 4.321,13.917 5.218 C 14.772 6.075,15.254 7.116,15.368 8.350 C 15.521 9.997,14.691 11.824,12.915 13.747 C 12.235 14.484,10.989 15.577,10.159 16.165 L 10.002 16.276 9.813 16.147 C 9.709 16.075,9.420 15.853,9.170 15.654 C 7.008 13.925,5.595 12.198,4.937 10.474 C 4.448 9.194,4.520 7.764,5.137 6.522 C 6.089 4.606,8.308 3.412,10.505 3.635 M9.433 6.469 C 8.982 6.569,8.591 6.782,8.235 7.120 C 7.914 7.426,7.716 7.706,7.586 8.040 C 7.447 8.394,7.425 8.532,7.426 9.017 C 7.427 9.401,7.440 9.525,7.500 9.717 C 7.768 10.572,8.429 11.233,9.283 11.499 C 9.477 11.560,9.599 11.572,10.000 11.573 C 10.432 11.574,10.511 11.565,10.750 11.487 C 11.182 11.347,11.479 11.161,11.820 10.820 C 12.162 10.478,12.348 10.180,12.486 9.750 C 12.563 9.514,12.573 9.428,12.573 9.000 C 12.573 8.570,12.564 8.487,12.487 8.250 C 12.227 7.447,11.590 6.794,10.814 6.533 C 10.631 6.472,10.074 6.400,9.817 6.404 C 9.762 6.405,9.589 6.434,9.433 6.469 M10.445 7.688 C 10.775 7.788,11.083 8.057,11.253 8.392 C 11.345 8.573,11.350 8.606,11.350 9.000 C 11.350 9.396,11.345 9.426,11.251 9.612 C 11.125 9.861,10.848 10.138,10.606 10.257 C 10.429 10.344,10.389 10.350,10.000 10.350 C 9.606 10.350,9.572 10.345,9.384 10.252 C 8.725 9.928,8.431 9.094,8.735 8.407 C 8.826 8.200,9.175 7.850,9.392 7.748 C 9.694 7.605,10.098 7.582,10.445 7.688 " stroke="none" fill-rule="evenodd"></path></symbol><symbol id="aw-icon-logout-left"><path d="M15.289 4.447 C 15.138 4.503,15.046 4.581,14.972 4.717 C 14.921 4.808,14.916 5.259,14.907 9.984 L 14.898 15.150 14.995 15.304 C 15.104 15.476,15.316 15.600,15.500 15.600 C 15.684 15.600,15.896 15.476,16.005 15.304 L 16.102 15.151 16.093 10.000 C 16.084 5.271,16.079 4.840,16.028 4.727 C 15.917 4.483,15.559 4.347,15.289 4.447 M7.271 5.966 C 7.076 6.057,3.525 9.599,3.450 9.777 C 3.388 9.927,3.386 10.069,3.446 10.212 C 3.496 10.332,5.728 12.607,6.688 13.518 C 7.292 14.091,7.349 14.126,7.600 14.083 C 7.788 14.052,7.939 13.939,8.024 13.766 C 8.113 13.585,8.119 13.433,8.043 13.273 C 8.010 13.205,7.443 12.605,6.722 11.876 L 5.458 10.600 8.306 10.600 L 11.155 10.600 11.309 10.498 C 11.700 10.239,11.690 9.729,11.288 9.499 L 11.117 9.401 8.286 9.400 L 5.456 9.400 6.671 8.175 C 7.339 7.501,7.926 6.896,7.976 6.830 C 8.330 6.363,7.803 5.718,7.271 5.966 " stroke="none" fill-rule="evenodd"></path></symbol><symbol id="aw-icon-logout-right"><path d="M4.789 4.447 C 4.638 4.503,4.546 4.581,4.472 4.717 C 4.421 4.808,4.416 5.259,4.407 9.984 L 4.398 15.150 4.495 15.304 C 4.604 15.476,4.816 15.600,5.000 15.600 C 5.184 15.600,5.396 15.476,5.505 15.304 L 5.602 15.151 5.593 10.000 C 5.584 5.271,5.579 4.840,5.528 4.727 C 5.417 4.483,5.059 4.347,4.789 4.447 M12.289 5.948 C 12.123 6.008,12.038 6.087,11.963 6.250 C 11.886 6.418,11.884 6.573,11.957 6.727 C 11.990 6.795,12.557 7.395,13.278 8.124 L 14.542 9.400 11.713 9.400 L 8.883 9.401 8.712 9.499 C 8.521 9.608,8.400 9.803,8.400 10.000 C 8.400 10.183,8.524 10.396,8.695 10.504 L 8.846 10.600 11.695 10.600 L 14.543 10.600 13.279 11.875 C 12.548 12.613,11.991 13.201,11.958 13.272 C 11.803 13.597,12.025 14.018,12.387 14.086 C 12.643 14.134,12.701 14.098,13.344 13.486 C 14.347 12.532,16.504 10.332,16.554 10.212 C 16.614 10.069,16.612 9.927,16.550 9.777 C 16.474 9.597,12.922 6.055,12.728 5.967 C 12.559 5.890,12.464 5.886,12.289 5.948 " stroke="none" fill-rule="evenodd"></path></symbol><symbol viewBox="0 0 2499.6 2500" id="aw-icon-microsoft"><path d="M199.968 699.905 L 199.968 1199.842 698.846 1198.783 L 1197.725 1197.725 1198.783 698.846 L 1199.842 199.968 699.905 199.968 L 199.968 199.968 199.968 699.905 " fill="#f1511b" stroke="none" fill-rule="evenodd"></path></symbol><symbol id="aw-icon-minus"><path d="M5.712 9.499 C 5.521 9.608,5.400 9.803,5.400 10.000 C 5.400 10.183,5.524 10.396,5.695 10.504 L 5.846 10.600 10.000 10.600 L 14.154 10.600 14.305 10.504 C 14.699 10.254,14.690 9.730,14.288 9.499 L 14.117 9.401 10.000 9.401 L 5.883 9.401 5.712 9.499 " stroke="none" fill-rule="evenodd"></path></symbol><symbol viewBox="0 0 24 24" id="aw-icon-nuxt"><path d="M9.258 5.035 C 9.041 5.091,8.714 5.294,8.571 5.459 C 8.390 5.669,2.179 16.870,2.078 17.169 C 1.978 17.461,1.979 17.725,2.081 18.054 C 2.184 18.386,2.464 18.707,2.792 18.868 L 3.020 18.980 5.880 18.980 C 8.674 18.980,8.748 18.978,9.102 18.893 C 10.297 18.608,11.200 17.971,11.909 16.913 C 12.007 16.767,12.883 15.212,13.856 13.459 C 14.828 11.706,15.641 10.273,15.662 10.275 C 15.683 10.277,16.512 11.742,17.505 13.530 L 19.310 16.780 16.871 16.800 L 14.432 16.820 13.852 17.860 C 13.533 18.432,13.263 18.923,13.252 18.951 C 13.235 18.992,13.987 18.999,17.105 18.991 L 20.980 18.980 21.208 18.868 C 21.844 18.556,22.150 17.800,21.909 17.135 C 21.860 17.000,20.680 14.836,19.287 12.327 C 17.377 8.889,16.712 7.725,16.587 7.601 C 16.495 7.511,16.321 7.388,16.200 7.328 C 15.908 7.184,15.440 7.175,15.151 7.308 C 14.757 7.489,14.624 7.666,13.897 8.978 C 13.527 9.648,13.220 10.193,13.216 10.188 C 13.212 10.184,12.630 9.136,11.923 7.860 C 11.216 6.585,10.581 5.483,10.513 5.413 C 10.302 5.195,9.957 5.038,9.650 5.019 C 9.502 5.010,9.325 5.017,9.258 5.035 M10.788 10.220 L 11.994 12.400 11.138 13.944 C 10.667 14.792,10.201 15.601,10.102 15.740 C 9.720 16.275,9.183 16.628,8.580 16.741 C 8.320 16.790,7.925 16.799,6.476 16.791 L 4.692 16.780 7.116 12.410 C 8.449 10.007,9.549 8.040,9.561 8.040 C 9.572 8.040,10.124 9.021,10.788 10.220 " fill="#373B4D" stroke="none" fill-rule="evenodd"></path></symbol><symbol id="aw-icon-platform"><path d="M5.342 2.449 C 5.095 2.535,4.931 2.701,4.841 2.957 C 4.706 3.339,4.927 3.797,5.316 3.943 C 5.468 4.000,5.478 4.000,8.000 4.000 C 10.522 4.000,10.532 4.000,10.684 3.943 C 10.783 3.906,10.881 3.842,10.961 3.761 C 11.348 3.375,11.242 2.728,10.753 2.488 L 10.600 2.413 8.040 2.407 C 5.637 2.402,5.472 2.404,5.342 2.449 M3.742 4.849 C 3.495 4.935,3.331 5.101,3.241 5.357 C 3.106 5.739,3.327 6.197,3.716 6.343 L 3.869 6.400 8.000 6.400 L 12.131 6.400 12.284 6.343 C 12.383 6.306,12.481 6.242,12.561 6.161 C 12.948 5.775,12.842 5.128,12.353 4.888 L 12.200 4.813 8.040 4.807 C 4.101 4.802,3.873 4.804,3.742 4.849 M2.853 7.242 C 2.562 7.304,2.307 7.448,2.079 7.678 C 1.848 7.910,1.729 8.116,1.653 8.416 C 1.603 8.611,1.600 8.717,1.600 10.400 C 1.600 12.083,1.603 12.189,1.653 12.384 C 1.730 12.685,1.848 12.890,2.079 13.121 C 2.310 13.352,2.515 13.470,2.816 13.547 C 3.017 13.599,3.130 13.600,8.000 13.600 C 12.870 13.600,12.983 13.599,13.184 13.547 C 13.485 13.470,13.690 13.352,13.921 13.121 C 14.152 12.890,14.270 12.685,14.347 12.384 C 14.397 12.189,14.400 12.083,14.400 10.400 C 14.400 8.717,14.397 8.611,14.347 8.416 C 14.271 8.116,14.152 7.910,13.921 7.678 C 13.690 7.445,13.436 7.304,13.133 7.240 C 12.860 7.183,3.120 7.184,2.853 7.242 " fill="#C3C3C6" stroke="none" fill-rule="evenodd"></path></symbol><symbol id="aw-icon-plus"><path d="M9.789 5.447 C 9.638 5.503,9.546 5.581,9.472 5.717 C 9.423 5.805,9.416 6.019,9.407 7.607 L 9.397 9.397 7.623 9.407 L 5.850 9.417 5.695 9.508 C 5.400 9.681,5.319 10.040,5.510 10.329 C 5.682 10.589,5.627 10.582,7.624 10.593 L 9.398 10.602 9.407 12.376 C 9.416 14.043,9.420 14.158,9.480 14.278 C 9.683 14.687,10.317 14.687,10.520 14.278 C 10.580 14.158,10.584 14.043,10.593 12.375 L 10.602 10.600 12.309 10.600 C 13.436 10.600,14.061 10.587,14.147 10.563 C 14.330 10.513,14.456 10.410,14.533 10.250 C 14.668 9.971,14.574 9.666,14.305 9.508 L 14.150 9.417 12.377 9.407 L 10.603 9.397 10.593 7.607 C 10.584 5.965,10.578 5.808,10.524 5.708 C 10.396 5.474,10.049 5.350,9.789 5.447 " stroke="none" fill-rule="evenodd"></path></symbol><symbol id="aw-icon-product-hunt"><path d="M9.350 1.037 C 7.646 1.130,5.772 1.861,4.371 2.980 C 4.064 3.225,3.347 3.944,3.017 4.337 C 2.723 4.687,2.276 5.357,2.041 5.800 C 1.577 6.671,1.243 7.707,1.077 8.790 C 0.999 9.294,0.999 10.706,1.077 11.210 C 1.324 12.819,1.881 14.162,2.829 15.433 C 3.051 15.731,3.979 16.687,4.337 16.986 C 5.337 17.822,6.701 18.483,8.040 18.781 C 8.792 18.948,9.090 18.978,10.000 18.978 C 10.910 18.978,11.208 18.948,11.960 18.781 C 13.299 18.483,14.663 17.822,15.663 16.986 C 16.021 16.687,16.949 15.731,17.171 15.433 C 18.119 14.162,18.676 12.819,18.923 11.210 C 19.001 10.706,19.001 9.294,18.923 8.790 C 18.705 7.370,18.261 6.198,17.511 5.058 C 17.164 4.530,16.869 4.178,16.289 3.594 C 14.767 2.064,12.612 1.111,10.533 1.047 C 10.231 1.038,9.938 1.027,9.883 1.022 C 9.828 1.017,9.588 1.024,9.350 1.037 M10.883 5.531 L 11.883 5.556 12.215 5.677 C 13.024 5.973,13.648 6.528,14.020 7.283 C 14.255 7.762,14.310 8.021,14.310 8.650 C 14.310 9.279,14.255 9.538,14.020 10.017 C 13.614 10.840,12.894 11.441,11.998 11.702 C 11.764 11.770,11.665 11.775,10.192 11.791 L 8.633 11.808 8.633 13.154 L 8.633 14.500 7.750 14.500 L 6.867 14.500 6.867 10.000 L 6.867 5.500 8.375 5.503 C 9.205 5.504,10.333 5.517,10.883 5.531 M8.633 8.645 L 8.633 10.000 9.908 9.999 C 10.610 9.999,11.288 9.984,11.417 9.965 C 11.724 9.920,11.910 9.827,12.136 9.602 C 12.392 9.346,12.507 9.094,12.526 8.747 C 12.559 8.151,12.289 7.696,11.742 7.427 L 11.534 7.324 10.084 7.307 L 8.633 7.290 8.633 8.645 " fill="#19191C" stroke="none" fill-rule="evenodd"></path></symbol><symbol id="aw-icon-rest"><path d="M4.569 2.437 C 4.507 2.457,4.417 2.498,4.369 2.529 C 4.218 2.623,1.747 5.123,1.697 5.231 C 1.448 5.779,1.837 6.390,2.429 6.381 C 2.498 6.380,2.618 6.359,2.697 6.333 C 2.826 6.291,2.899 6.228,3.420 5.711 L 4.000 5.136 4.000 7.434 C 4.000 9.717,4.000 9.732,4.057 9.884 C 4.168 10.181,4.484 10.400,4.800 10.400 C 5.116 10.400,5.432 10.181,5.543 9.884 C 5.600 9.732,5.600 9.717,5.600 7.434 L 5.600 5.137 6.193 5.724 C 6.730 6.256,6.801 6.317,6.933 6.361 C 7.247 6.466,7.551 6.399,7.775 6.175 C 7.999 5.951,8.066 5.649,7.962 5.333 C 7.916 5.195,7.839 5.112,6.603 3.872 C 5.559 2.824,5.265 2.544,5.153 2.489 C 4.984 2.406,4.731 2.384,4.569 2.437 M10.942 5.648 C 10.693 5.737,10.531 5.902,10.441 6.157 C 10.405 6.258,10.400 6.571,10.400 8.569 L 10.400 10.865 9.833 10.301 C 9.181 9.651,9.105 9.601,8.784 9.600 C 8.338 9.600,7.992 9.942,7.992 10.386 C 7.992 10.555,8.038 10.700,8.135 10.840 C 8.176 10.899,8.783 11.518,9.484 12.217 C 10.695 13.422,10.768 13.490,10.920 13.546 C 11.039 13.590,11.122 13.602,11.241 13.595 C 11.559 13.575,11.570 13.566,12.990 12.141 C 14.216 10.911,14.290 10.832,14.335 10.693 C 14.467 10.289,14.315 9.903,13.950 9.714 C 13.806 9.639,13.755 9.627,13.591 9.627 C 13.269 9.627,13.192 9.678,12.553 10.314 L 12.000 10.865 12.000 8.567 C 12.000 6.331,11.999 6.265,11.946 6.126 C 11.796 5.723,11.340 5.506,10.942 5.648 " fill="#C3C3C6" stroke="none" fill-rule="evenodd"></path></symbol><symbol id="aw-icon-search"><path d="M9.117 4.020 C 7.856 4.141,6.850 4.556,5.916 5.340 C 5.076 6.045,4.500 6.972,4.180 8.133 C 3.965 8.912,3.958 10.057,4.164 10.817 C 4.527 12.155,5.192 13.142,6.267 13.940 C 7.308 14.713,8.655 15.084,10.007 14.972 C 10.776 14.907,11.662 14.616,12.355 14.199 L 12.640 14.028 13.728 15.109 C 14.566 15.941,14.846 16.199,14.944 16.232 C 15.421 16.388,15.862 15.869,15.643 15.407 C 15.612 15.341,15.131 14.826,14.574 14.261 C 13.900 13.577,13.571 13.220,13.587 13.192 C 13.601 13.169,13.690 13.053,13.785 12.933 C 14.319 12.259,14.699 11.450,14.901 10.550 C 14.965 10.266,14.976 10.119,14.977 9.550 C 14.978 8.756,14.932 8.455,14.715 7.803 C 14.223 6.328,13.285 5.249,11.917 4.583 C 11.402 4.332,10.958 4.187,10.454 4.102 C 10.085 4.039,9.371 3.996,9.117 4.020 M9.782 5.235 C 10.507 5.284,11.065 5.448,11.615 5.772 C 12.712 6.419,13.467 7.463,13.714 8.674 C 13.785 9.022,13.786 9.976,13.715 10.318 C 13.438 11.660,12.542 12.808,11.320 13.386 C 10.569 13.741,9.698 13.873,8.900 13.752 C 7.168 13.489,5.819 12.282,5.339 10.569 C 5.254 10.264,5.250 10.216,5.252 9.483 C 5.253 8.743,5.256 8.706,5.345 8.417 C 5.634 7.475,6.028 6.847,6.706 6.245 C 7.267 5.748,8.080 5.378,8.889 5.252 C 9.263 5.194,9.200 5.195,9.782 5.235 " fill="#19191C" stroke="none" fill-rule="evenodd"></path></symbol><symbol id="aw-icon-star"><path d="M9.625 3.084 C 9.385 3.172,9.208 3.325,9.067 3.566 C 8.993 3.693,8.612 4.421,8.221 5.184 C 7.829 5.947,7.481 6.608,7.446 6.652 C 7.388 6.726,7.318 6.742,6.567 6.852 C 4.437 7.164,3.782 7.273,3.629 7.338 C 3.445 7.418,3.156 7.706,3.076 7.891 C 3.001 8.064,3.000 8.572,3.074 8.740 C 3.146 8.903,3.476 9.243,4.727 10.443 C 5.301 10.994,5.783 11.469,5.800 11.499 C 5.829 11.554,5.778 11.881,5.416 13.983 C 5.330 14.478,5.259 14.981,5.258 15.100 C 5.249 15.718,5.711 16.170,6.361 16.180 L 6.604 16.183 8.302 15.325 L 10.000 14.467 11.697 15.325 L 13.393 16.183 13.655 16.181 C 13.985 16.178,14.222 16.074,14.448 15.832 C 14.789 15.468,14.805 15.284,14.599 14.083 C 14.215 11.833,14.172 11.553,14.201 11.499 C 14.217 11.468,14.715 10.978,15.307 10.410 C 17.018 8.767,16.983 8.810,16.980 8.313 C 16.977 7.955,16.919 7.810,16.675 7.560 C 16.409 7.287,16.470 7.300,13.433 6.851 C 12.823 6.761,12.603 6.716,12.563 6.673 C 12.533 6.642,12.179 5.971,11.776 5.183 C 10.862 3.394,10.834 3.348,10.600 3.208 C 10.500 3.148,10.365 3.084,10.300 3.066 C 10.135 3.020,9.773 3.030,9.625 3.084 M10.737 5.806 C 11.517 7.344,11.681 7.614,11.923 7.756 C 12.114 7.868,12.291 7.900,14.130 8.167 C 14.893 8.277,15.545 8.379,15.579 8.394 C 15.631 8.415,15.521 8.534,14.912 9.117 C 13.126 10.827,13.040 10.922,12.969 11.241 C 12.923 11.447,12.965 11.765,13.268 13.486 C 13.399 14.230,13.498 14.846,13.488 14.857 C 13.478 14.867,12.751 14.515,11.873 14.074 C 10.811 13.540,10.227 13.265,10.125 13.250 C 10.021 13.234,9.911 13.245,9.778 13.283 C 9.671 13.314,8.890 13.690,8.042 14.119 C 7.148 14.570,6.500 14.880,6.500 14.855 C 6.500 14.831,6.583 14.340,6.685 13.764 C 7.090 11.465,7.102 11.341,6.956 11.033 C 6.864 10.838,6.573 10.540,5.088 9.117 C 4.479 8.534,4.369 8.415,4.421 8.394 C 4.455 8.379,4.956 8.300,5.533 8.217 C 7.599 7.921,7.881 7.870,8.074 7.754 C 8.327 7.601,8.467 7.372,9.268 5.794 C 9.658 5.027,9.987 4.400,10.000 4.400 C 10.013 4.400,10.345 5.033,10.737 5.806 " stroke="none" fill-rule="evenodd"></path></symbol><symbol viewBox="0 0 20 20" id="aw-icon-system"><path d="M5.667 4.421 C 5.055 4.514,4.587 4.746,4.167 5.167 C 3.833 5.501,3.605 5.889,3.475 6.347 C 3.422 6.533,3.417 6.798,3.417 9.500 C 3.417 12.202,3.422 12.467,3.475 12.653 C 3.735 13.568,4.432 14.265,5.347 14.525 C 5.535 14.579,5.873 14.583,9.983 14.583 C 13.689 14.583,14.447 14.576,14.600 14.536 C 15.552 14.292,16.292 13.552,16.536 12.600 C 16.606 12.329,16.606 6.671,16.536 6.400 C 16.299 5.475,15.607 4.761,14.671 4.476 C 14.498 4.424,14.132 4.419,10.117 4.414 C 7.715 4.411,5.713 4.414,5.667 4.421 M14.504 5.692 C 14.861 5.837,15.163 6.139,15.308 6.496 L 15.383 6.683 15.383 9.500 L 15.383 12.317 15.308 12.504 C 15.163 12.861,14.861 13.163,14.504 13.308 L 14.317 13.383 10.000 13.383 L 5.683 13.383 5.496 13.308 C 5.139 13.163,4.837 12.861,4.692 12.504 L 4.617 12.317 4.608 9.569 C 4.598 6.609,4.595 6.670,4.770 6.326 C 4.855 6.161,5.165 5.852,5.333 5.767 C 5.663 5.598,5.514 5.603,10.067 5.610 L 14.317 5.617 14.504 5.692 M8.732 15.475 C 8.295 15.696,8.295 16.304,8.732 16.525 C 8.878 16.598,8.906 16.600,10.000 16.600 C 11.094 16.600,11.122 16.598,11.268 16.525 C 11.705 16.304,11.705 15.696,11.268 15.475 C 11.122 15.402,11.094 15.400,10.000 15.400 C 8.906 15.400,8.878 15.402,8.732 15.475 " stroke="none" fill-rule="evenodd" fill="black"></path></symbol><symbol id="aw-icon-twitter"><path d="M12.950 2.800 C 12.377 2.874,11.721 3.147,11.226 3.518 C 10.497 4.065,10.005 4.853,9.831 5.750 C 9.780 6.015,9.769 6.670,9.812 7.013 L 9.840 7.244 9.528 7.221 C 8.770 7.167,7.759 6.955,6.981 6.688 C 5.196 6.073,3.671 5.065,2.442 3.687 L 2.208 3.425 2.123 3.571 C 1.990 3.801,1.801 4.387,1.748 4.733 C 1.687 5.135,1.688 5.367,1.750 5.781 C 1.882 6.658,2.333 7.461,3.019 8.041 C 3.302 8.280,3.305 8.283,3.203 8.294 C 3.001 8.314,2.147 8.093,1.860 7.946 C 1.646 7.837,1.629 7.900,1.720 8.435 C 1.963 9.848,2.904 10.933,4.276 11.382 C 4.516 11.460,4.590 11.497,4.545 11.514 C 4.450 11.551,3.792 11.599,3.373 11.599 C 2.943 11.600,2.957 11.582,3.121 11.908 C 3.360 12.382,3.555 12.661,3.864 12.967 C 4.506 13.602,5.142 13.912,6.125 14.068 C 6.258 14.089,6.367 14.118,6.367 14.133 C 6.367 14.172,5.849 14.508,5.443 14.734 C 4.813 15.084,3.831 15.430,3.133 15.546 C 2.608 15.633,1.946 15.676,1.475 15.653 C 1.232 15.641,1.033 15.638,1.033 15.646 C 1.033 15.669,1.518 15.942,1.890 16.129 C 3.003 16.686,4.344 17.073,5.611 17.201 C 6.150 17.256,7.729 17.226,8.200 17.152 C 10.247 16.829,11.825 16.162,13.263 15.011 C 13.627 14.720,14.521 13.824,14.838 13.431 C 15.809 12.229,16.493 10.846,16.899 9.258 C 17.099 8.474,17.199 7.652,17.201 6.767 L 17.201 6.350 17.392 6.217 C 17.776 5.948,19.065 4.585,18.997 4.519 C 18.989 4.512,18.743 4.586,18.450 4.684 C 17.950 4.850,17.116 5.049,17.013 5.027 C 16.988 5.021,17.089 4.927,17.238 4.817 C 17.532 4.600,17.824 4.301,18.055 3.977 C 18.290 3.649,18.566 3.067,18.487 3.067 C 18.480 3.067,18.289 3.155,18.062 3.264 C 17.548 3.510,17.126 3.667,16.608 3.803 L 16.204 3.910 16.027 3.751 C 15.507 3.283,14.839 2.945,14.218 2.835 C 13.934 2.785,13.225 2.765,12.950 2.800 " fill="#19191C" stroke="none" fill-rule="evenodd"></path></symbol><symbol id="aw-icon-vue"><path d="" stroke="none" fill-rule="evenodd" fill="#e4e4e7"></path></symbol><symbol id="aw-icon-x"><path d="M1.959 3.267 C 2.729 4.256,12.587 17.179,12.587 17.199 C 12.587 17.215,10.319 19.819,7.547 22.987 C 4.775 26.154,2.507 28.758,2.507 28.773 C 2.507 28.788,3.474 28.800,4.656 28.800 L 6.805 28.800 10.696 24.350 C 12.836 21.903,14.611 19.907,14.640 19.914 C 14.669 19.921,16.217 21.922,18.080 24.360 L 21.467 28.794 25.827 28.797 C 28.225 28.799,30.187 28.788,30.187 28.773 C 30.187 28.758,27.689 25.444,24.637 21.409 C 21.584 17.375,19.094 14.052,19.103 14.027 C 19.113 14.001,21.181 11.625,23.700 8.746 C 26.219 5.867,28.339 3.442,28.412 3.356 L 28.543 3.200 26.365 3.203 L 24.187 3.207 20.720 7.179 C 18.813 9.363,17.205 11.197,17.145 11.253 C 17.037 11.356,17.029 11.346,13.951 7.278 L 10.866 3.200 6.386 3.200 C 2.811 3.200,1.917 3.213,1.959 3.267 M17.215 15.787 C 21.420 21.345,24.909 25.959,24.968 26.040 L 25.074 26.187 23.875 26.187 L 22.675 26.187 14.876 15.987 C 10.587 10.377,7.054 5.756,7.025 5.719 C 6.982 5.665,7.228 5.654,8.270 5.666 L 9.568 5.680 17.215 15.787 " stroke="none" fill-rule="evenodd"></path></symbol><symbol id="aw-icon-youtube"><path d="M8.167 4.054 C 7.033 4.069,5.148 4.129,4.567 4.169 C 3.554 4.238,3.191 4.325,2.743 4.608 C 2.367 4.844,2.141 5.162,1.940 5.735 C 1.597 6.713,1.423 8.708,1.499 10.799 C 1.577 12.940,1.714 13.910,2.033 14.591 C 2.315 15.193,2.928 15.603,3.733 15.729 C 5.386 15.988,10.760 16.038,14.883 15.833 C 16.325 15.761,16.606 15.719,17.027 15.514 C 17.398 15.332,17.670 15.058,17.851 14.686 C 18.166 14.033,18.368 13.003,18.470 11.519 C 18.521 10.774,18.491 8.630,18.419 7.941 C 18.243 6.238,17.966 5.250,17.555 4.857 C 17.073 4.396,16.605 4.248,15.383 4.168 C 14.173 4.090,10.198 4.027,8.167 4.054 M10.067 8.324 C 12.173 9.449,12.776 9.789,12.758 9.844 C 12.751 9.866,12.641 9.941,12.514 10.011 C 12.269 10.146,10.238 11.205,9.025 11.830 L 8.300 12.203 8.300 9.820 L 8.300 7.436 8.758 7.653 C 9.010 7.772,9.599 8.074,10.067 8.324 " fill="#19191C" stroke="none" fill-rule="evenodd"></path></symbol></svg>