<svg width="28" height="28" viewBox="0 0 28 28" fill="none" xmlns="http://www.w3.org/2000/svg">
<path fill-rule="evenodd" clip-rule="evenodd" d="M17.4025 6.45526C18.2106 5.51873 18.7552 4.21434 18.6062 2.9165C17.4417 2.96084 16.033 3.66036 15.198 4.59578C14.4482 5.42591 13.7937 6.75232 13.9697 8.02467C15.2686 8.12109 16.5944 7.39289 17.4025 6.45526ZM20.3153 14.6925C20.3478 18.0474 23.3861 19.1634 23.4197 19.1778C23.3951 19.2565 22.9345 20.768 21.8193 22.3307C20.8544 23.6806 19.8536 25.0251 18.2767 25.0539C16.7278 25.0816 16.2291 24.1739 14.4572 24.1739C12.6864 24.1739 12.1328 25.025 10.6668 25.0815C9.14488 25.1358 7.98492 23.621 7.01324 22.2755C5.02504 19.5235 3.50644 14.4987 5.54619 11.1072C6.55934 9.42369 8.36933 8.35596 10.3351 8.32936C11.8291 8.30165 13.2401 9.29265 14.1535 9.29265C15.0669 9.29265 16.7816 8.10121 18.5838 8.27632C19.338 8.30625 21.4562 8.56772 22.8157 10.4751C22.7058 10.5405 20.2884 11.8885 20.3153 14.6925Z" fill="#EDEDF0"/>
</svg>
