<svg viewBox="0 0 451 136" focusable="false"
    xmlns="http://www.w3.org/2000/svg">
    <defs>
        <path id="i"
            d="m31.114 1.7764e-15c0.485 0 1.6811 0.377 3.5846 1.13 1.9012 0.753 3.8884 1.723 5.9544 2.911 2.0672 1.188 3.9296 2.556 5.5894 4.101 1.6611 1.545 2.4934 3.111 2.4934 4.695 0 0.713-0.6075 2.377-1.8235 4.991-1.2137 2.616-2.7759 5.825-4.6795 9.629l-0.8282 1.6554c-1.6812 3.362-3.5115 7.0306-5.4922 11.003-2.3086 4.636-4.5571 9.331-6.7432 14.085 2.6735-3.169 5.407-6.259 8.2029-9.271 2.7959-3.01 5.5094-5.664 8.1416-7.963 2.6335-2.298 5.0444-4.14 7.2317-5.528 2.1884-1.385 3.9684-2.079 5.3481-2.079 1.4574 0 2.8347 0.634 4.132 1.901 1.2938 1.269 2.4298 2.695 3.4022 4.279 1.1336 1.824 2.2285 3.845 3.2809 6.062-5.5894 2.775-10.25 5.528-13.975 8.261-3.7294 2.733-6.7278 5.17-8.9939 7.31-2.6746 2.536-4.7807 4.953-6.3193 7.251 0 1.585 0.5038 3.763 1.5186 6.536 1.0136 2.775 2.3886 5.806 4.1332 9.093 1.7411 3.289 3.7247 6.615 5.9556 9.984 2.2249 3.368 4.5358 6.437 6.9255 9.212 2.3886 2.772 4.8207 5.031 7.2929 6.775 2.4698 1.742 4.7595 2.615 6.8655 2.615 0.6487 0 0.7499 0.494 0.3038 1.486-0.4462 0.989-1.2762 2.098-2.4899 3.328-1.2172 1.228-2.7158 2.336-4.4981 3.328-1.7811 0.99-3.6882 1.485-5.7107 1.485-2.8371 0-5.4493-0.614-7.8379-1.842-2.3921-1.229-4.5806-2.853-6.5654-4.873-1.9859-2.021-3.7659-4.338-5.3457-6.953-1.581-2.615-2.9795-5.271-4.1933-7.964-2.8371-6.34-5.1044-13.589-6.8055-21.751-0.8122 0.792-1.7222 2.061-2.7346 3.803-1.0136 1.744-2.006 3.587-2.9784 5.528-0.9712 1.942-1.8647 3.821-2.6723 5.645-0.8123 1.822-1.4197 3.21-1.8235 4.161 0 0.315 0.0177 0.552 0.0601 0.712 0.0412 0.158 0.0612 0.316 0.0612 0.476 0 0.157 0.0388 0.315 0.1212 0.475-0.6498 0-2.026-0.397-4.132-1.188-2.1084-0.793-4.2745-1.824-6.5018-3.09-2.2285-1.269-4.2121-2.716-5.9555-4.339-1.7411-1.623-2.6135-3.269-2.6135-4.933 0-2.93 0.8323-6.894 2.4922-11.886 1.6611-4.992 3.7271-10.418 6.1981-16.283 2.4709-5.864 5.1044-11.845 7.9003-17.948 2.7947-6.101 5.3469-11.708 7.6566-16.819 2.3073-5.111 4.1509-9.408 5.5282-12.897 1.3774-3.486 1.8235-5.586 1.3385-6.299z"></path>
        <polygon id="d"
            points="22.062 -1.3878e-15 38.228 44.049 54.393 -1.3878e-15 76.049 -1.3878e-15 47.175 70.101 28.875 70.101 -1.3878e-15 -1.3878e-15"></polygon>
        <path id="c"
            d="m47.277 1.8874e-15c0.7287 0 1.9836 0.516 3.7671 1.545 1.7812 1.031 3.6035 2.259 5.4682 3.686 1.8635 1.425 3.5246 2.872 4.9843 4.338 1.4574 1.467 2.1873 2.635 2.1873 3.506 0 1.189-0.4673 3.191-1.3973 6.002-0.9324 2.814-2.0484 6.063-3.3422 9.747-1.2984 3.684-2.6946 7.569-4.1944 11.648-1.4986 4.082-2.7747 8.023-3.8283 11.826 0.9724-0.95 2.0672-2.178 3.2821-3.684 1.216-1.504 2.5098-3.15 3.8895-4.932 1.3762-1.784 2.7947-3.665 4.2533-5.646 1.4586-1.98 2.8748-3.923 4.2545-5.824 3.2397-4.437 6.6018-9.153 10.086-14.145 0.8087-1.109 1.5798-1.742 2.3097-1.902 0.565-0.077 1.1124 0.378 1.6398 1.368 0.5263 0.991 0.7899 3.072 0.7899 6.24-5.753 8.004-10.938 15.095-15.556 21.275-1.9448 2.696-3.8884 5.31-5.8343 7.845-1.9436 2.536-3.7059 4.793-5.2869 6.775-1.5798 1.98-2.8759 3.585-3.8872 4.814-1.0147 1.228-1.6422 1.843-1.8847 1.843-0.1636 0-0.2849-0.021-0.3649-0.06-0.0813-0.04-0.2037-0.059-0.3638-0.059v0.119c-0.4862 0-1.641-0.517-3.4645-1.546-1.8224-1.031-3.7283-2.258-5.7119-3.685-1.9871-1.426-3.7671-2.833-5.3469-4.219-1.581-1.388-2.3709-2.436-2.3709-3.15 0-1.188 0.3837-3.13 1.156-5.824 0.7687-2.693 1.7399-5.783 2.916-9.271 1.1736-3.485 2.4309-7.15 3.7671-10.994 1.3373-3.843 2.6134-7.548 3.8283-11.114-1.5398 2.22-3.2421 4.735-5.1044 7.548-1.8648 2.814-3.7283 5.705-5.5907 8.676-1.8647 2.972-3.687 5.944-5.4681 8.915-1.7835 2.972-3.4034 5.746-4.8619 8.32-1.4574 2.576-2.6747 4.854-3.6459 6.835-0.9724 1.979-1.6222 3.485-1.9448 4.517-0.4861 0-1.5998-0.476-3.3421-1.427-1.7411-0.951-3.5846-2.041-5.5294-3.27-1.9447-1.228-3.6858-2.495-5.2268-3.802-1.5375-1.307-2.3085-2.318-2.3085-3.032 0-0.87 0.4061-2.454 1.216-4.754 0.81-2.298 1.8224-5.01 3.0384-8.142 1.2149-3.129 2.5322-6.458 3.9496-9.984 1.4174-3.524 2.7335-6.953 3.9496-10.282 1.2148-3.327 2.2273-6.338 3.0384-9.033 0.8087-2.693 1.2148-4.754 1.2148-6.18 1.5387 0 3.2398 0.436 5.1045 1.308 1.8635 0.871 3.5858 1.861 5.1656 2.971s2.896 2.24 3.9496 3.388c1.0524 1.149 1.5798 2.002 1.5798 2.554 0 0.399-0.2025 1.21-0.6075 2.438-0.4061 1.228-0.9523 2.754-1.6398 4.575-0.6899 1.825-1.4598 3.864-2.3097 6.122-0.8511 2.257-1.7623 4.616-2.7347 7.072 1.9448-3.723 3.9896-7.468 6.1368-11.232 2.1473-3.763 4.2545-7.171 6.3205-10.223 2.0649-3.048 3.9496-5.544 5.6507-7.488 1.7022-1.94 3.1184-2.912 4.2544-2.912z"></path>
        <polygon id="b"
            points="57.241 -1.3878e-15 57.241 16.407 19.521 16.407 19.521 26.947 53.682 26.947 53.682 42.16 19.521 42.16 19.521 53.197 57.748 53.197 57.748 69.604 4.4409e-16 69.604 4.4409e-16 -1.3878e-15"></polygon>
        <path id="a"
            d="m67.33-3.3307e-16c6.2381 0 12.092 0.198 17.562 0.594 5.4682 0.397 10.228 0.97 14.281 1.723 4.0485 0.755 6.8444 1.685 8.3854 2.794 0.8899 0.712 1.6598 1.842 2.3085 3.387 0.6486 1.545 0.9912 3.25 1.0324 5.111 0.0412 1.862-0.2825 3.744-0.97 5.646-0.6899 1.902-1.8859 3.526-3.587 4.873-3.4033-1.902-7.9603-3.465-13.671-4.695-5.7142-1.227-12.015-2.099-18.9-2.615-6.8867-0.514-14.037-0.713-21.45-0.595-7.4129 0.12-14.503 0.496-21.268 1.13-6.7666 0.635-12.883 1.526-18.353 2.674-5.4682 1.15-9.7026 2.517-12.7 4.101 0.08-2.139 0.9512-4.179 2.6134-6.121 1.6599-1.94 3.6458-3.745 5.9544-5.408 2.3108-1.664 4.6994-3.129 7.1716-4.398 2.4698-1.267 4.5958-2.298 6.3805-3.09 2.5911-1.109 6.2969-2.06 11.119-2.853 4.8219-0.791 10.149-1.367 15.982-1.724s11.869-0.534 18.109-0.534z"></path>
        <path id="h"
            d="m16.529-5.5511e-16c0.2425 0 0.8687 0.219 1.8835 0.654 1.0124 0.436 2.1873 0.992 3.5246 1.664 1.3373 0.674 2.7347 1.447 4.1921 2.318 1.4597 0.872 2.7535 1.763 3.8895 2.674 1.1337 0.912 2.0248 1.803 2.6746 2.675 0.6463 0.872 0.8076 1.624 0.4862 2.257-0.4862 1.111-1.3797 3.032-2.6746 5.765-1.2961 2.735-2.6735 5.943-4.132 9.629-1.4586 3.684-2.856 7.627-4.1933 11.826-1.3361 4.201-2.3297 8.28-2.9772 12.242l26.13-33.994c0.8088-1.109 1.5387-1.664 2.1873-1.664 0.5663 0 1.0736 0.536 1.5186 1.605 0.445 1.07 0.6699 3.23 0.6699 6.478-4.9432 7.528-9.4013 14.262-13.37 20.206-1.7011 2.537-3.3833 5.012-5.0432 7.429-1.6611 2.418-3.1808 4.575-4.557 6.477-1.3785 1.902-2.5334 3.427-3.4634 4.577-0.9323 1.148-1.5198 1.723-1.7623 1.723-0.6498 0-1.2761-0.16-1.8847-0.475-0.6074-0.318-1.2361-0.675-1.8836-1.07-1.1348-0.398-2.6946-1.15-4.6782-2.259-1.9872-1.109-3.9508-2.376-5.8943-3.804-1.9448-1.425-3.6259-2.891-5.0444-4.396-1.4162-1.505-2.1273-2.853-2.1273-4.042 0-2.298 0.4074-5.07 1.2161-8.32 0.8111-3.248 1.8223-6.616 3.0372-10.103 1.2173-3.486 2.5522-6.954 4.012-10.4 1.4586-3.448 2.7947-6.576 4.0108-9.39 1.2149-2.813 2.2273-5.15 3.0372-7.013 0.8087-1.862 1.2161-2.951 1.2161-3.269z"></path>
        <path id="g"
            d="m7.8546 0c0.22032 0 0.79096 0.20046 1.7132 0.59562 0.9229 0.39708 1.9925 0.9024 3.2087 1.514 1.2169 0.6142 2.4901 1.3174 3.8165 2.1109 1.3277 0.79353 2.5067 1.6056 3.5411 2.4337 1.0318 0.83003 1.842 1.6421 2.4331 2.4344 0.58983 0.79417 0.73717 1.4795 0.44256 2.0559-0.5905 1.2976-1.2547 2.7584-1.9905 4.382-0.73845 1.6223-1.4385 3.2292-2.1026 4.815-0.66351 1.5877-1.2175 3.0832-1.6588 4.4896-0.44256 1.4064-0.66479 2.5067-0.66479 3.3003-0.51621 0-1.678-0.30614-3.4847-0.91906-1.8074-0.61228-3.6698-1.4244-5.5861-2.4357-1.9194-1.0094-3.6506-2.1455-5.1992-3.4085-1.5493-1.2604-2.3229-2.5048-2.3229-3.7319 0-1.4423 0.40349-3.0844 1.2162-4.9225 0.81082-1.8394 1.7145-3.625 2.7111-5.3561 0.99399-1.7318 1.8977-3.2625 2.7098-4.5978 0.81146-1.3341 1.2175-2.2531 1.2175-2.7597z"></path>
        <path id="f"
            d="m63.258 0.8449c2.145 0.832 4.333 1.962 6.562 3.388 2.228 1.426 4.133 2.933 5.713 4.516 1.579 1.586 2.126 2.894 1.64 3.924-0.324 0.712-0.993 2.197-2.005 4.456-1.014 2.258-2.188 5.033-3.525 8.32-1.337 3.289-2.776 6.935-4.314 10.935-1.54 4.003-3.039 8.124-4.496 12.362-1.46 4.24-2.817 8.479-4.072 12.719-1.257 4.239-2.209 8.182-2.856 11.826 0.809-0.791 1.841-1.842 3.1-3.15 1.254-1.307 2.569-2.772 3.949-4.398 1.376-1.623 2.815-3.328 4.313-5.111 1.5-1.783 2.979-3.584 4.437-5.408 3.321-4.2 6.846-8.677 10.573-13.431 0.972-1.029 1.782-1.505 2.432-1.426 0.565 0.079 1.011 0.694 1.335 1.842 0.324 1.15 0.285 3.468-0.12 6.954-5.348 7.053-10.251 13.353-14.706 18.898-1.865 2.377-3.727 4.695-5.59 6.954-1.865 2.257-3.546 4.278-5.045 6.061-1.5 1.783-2.755 3.209-3.767 4.279-1.014 1.069-1.64 1.605-1.883 1.605h-0.243c-0.729-0.08-2.23-0.416-4.498-1.011-2.2674-0.594-4.5983-1.386-6.9869-2.377-2.3909-0.99-4.5182-2.119-6.3805-3.388-1.8647-1.266-2.7959-2.573-2.7959-3.921 0-2.456 0.3637-5.546 1.0948-9.272-1.6222 2.615-3.1408 5.072-4.5594 7.37-1.4173 2.299-2.7146 4.279-3.8872 5.943-1.176 1.663-2.1884 2.97-3.0383 3.922-0.8512 0.95-1.4398 1.426-1.7623 1.426-0.3261 0-1.0949-0.159-2.3097-0.476-1.2161-0.318-2.6347-0.753-4.2545-1.307-1.621-0.554-3.3221-1.227-5.1044-2.02-1.7823-0.791-3.4434-1.644-4.982-2.556-1.5386-0.91-2.7959-1.881-3.7671-2.912-0.9724-1.029-1.4586-2.099-1.4586-3.209 0-3.724 0.4062-7.429 1.2149-11.113 0.8111-3.685 1.8836-7.171 3.2209-10.46 1.3373-3.287 2.8147-6.339 4.4357-9.152 1.6199-2.813 3.2397-5.249 4.8619-7.311 1.6199-2.06 3.1597-3.663 4.6171-4.814 1.4597-1.147 2.6746-1.723 3.647-1.723 1.5386 0 3.361 0.16 5.4694 0.475 2.106 0.318 4.2109 0.773 6.3193 1.367 2.106 0.595 4.0296 1.387 5.7719 2.378 1.7423 0.992 3.0184 2.121 3.8283 3.388 0.6486-1.267 1.6422-3.288 2.9772-6.062 1.3373-2.773 2.7754-5.884 4.3144-9.33 1.539-3.448 3.08-6.993 4.619-10.638 1.538-3.644 2.795-6.973 3.768-9.986 0.647-0.395 2.046-0.177 4.193 0.654zm-22.725 34.954c-2.1694 0-4.5356 1.518-7.096 4.557-2.5617 3.037-4.9278 6.869-7.0973 11.496-2.1694 4.628-3.9705 9.689-5.4033 15.184s-2.148 10.702-2.148 15.617v0.146c1.3874-1.736 2.9943-3.977 4.8169-6.725 1.8238-2.747 3.7321-5.784 5.73-9.111 1.9954-3.325 4.0803-6.842 6.2497-10.556 2.1694-3.709 4.2518-7.446 6.2497-11.207 0.2611-1.157 0.5423-2.337 0.8475-3.543 0.304-1.203 0.6723-2.385 1.1062-3.543-0.3469-0.578-0.7606-1.106-1.2361-1.591-0.478-0.482-1.1515-0.724-2.0193-0.724z"></path>
        <path id="e"
            d="m27.452-1.3878e-15c25.417 0 40.16 14.319 40.16 34.404v0.199c0 20.086-14.946 35-40.566 35h-27.045v-69.603h27.451zm0.3049 17.103h-8.0321v35.399h8.0321c11.795 0 19.622-6.364 19.622-17.601v-0.198c0-11.136-7.8273-17.6-19.622-17.6z"></path>
    </defs>
    <g fill="none" fill-rule="evenodd">
        <g transform="translate(209.12 .827)">
            <mask id="m" fill="white">
                <use href="#i"></use>
            </mask>
            <polygon points="-5 123.26 77.888 123.26 77.888 -5 -5 -5" fill="white"
                fill-rule="nonzero" mask="url(#m)"></polygon>
        </g>
        <g transform="translate(137.87 19.411)">
            <mask id="l" fill="white">
                <use href="#d"></use>
            </mask>
            <polygon points="-5 75.101 81.049 75.101 81.049 -5 -5 -5" fill="white"
                fill-rule="nonzero" mask="url(#l)"></polygon>
        </g>
        <g transform="translate(298.08 33.513)">
            <mask id="k" fill="white">
                <use href="#c"></use>
            </mask>
            <polygon points="-5 71.325 86.427 71.325 86.427 -5 -5 -5" fill="white"
                fill-rule="nonzero" mask="url(#k)"></polygon>
        </g>
        <g transform="translate(75.749 19.411)">
            <mask id="j" fill="white">
                <use href="#b"></use>
            </mask>
            <polygon points="-5 74.604 62.748 74.604 62.748 -5 -5 -5" fill="white"
                fill-rule="nonzero" mask="url(#j)"></polygon>
        </g>
        <g transform="translate(120.43 111.63)">
            <mask id="r" fill="white">
                <use href="#a"></use>
            </mask>
            <polygon points="-5 29.128 115.9 29.128 115.9 -5 -5 -5" fill="white"
                fill-rule="nonzero" mask="url(#r)"></polygon>
        </g>
        <g transform="translate(266.24 28.64)">
            <mask id="q" fill="white">
                <use href="#h"></use>
            </mask>
            <polygon points="-5 69.541 54.708 69.541 54.708 -5 -5 -5" fill="white"
                fill-rule="nonzero" mask="url(#q)"></polygon>
        </g>
        <g transform="translate(285.86)">
            <mask id="p" fill="white">
                <use href="#g"></use>
            </mask>
            <polygon points="-7 33 27 33 27 -1 -7 -1" fill="white" fill-rule="nonzero"
                mask="url(#p)"></polygon>
        </g>
        <g transform="translate(364.07 4.2011)">
            <mask id="o" fill="white">
                <use href="#f"></use>
            </mask>
            <polygon points="-5 91.96 91.261 91.96 91.261 -5.0001 -5 -5.0001" fill="white"
                fill-rule="nonzero" mask="url(#o)"></polygon>
        </g>
        <g transform="translate(-0 19.411)">
            <mask id="n" fill="white">
                <use href="#e"></use>
            </mask>
            <polygon points="-5 74.603 72.611 74.603 72.611 -5 -5 -5" fill="white"
                fill-rule="nonzero" mask="url(#n)"></polygon>
        </g>
    </g>
</svg>