<svg width="28" height="28" viewBox="0 0 28 28" fill="none" xmlns="http://www.w3.org/2000/svg">
<path fill-rule="evenodd" clip-rule="evenodd" d="M13.9987 1.47119C20.9191 1.47119 26.5287 7.22237 26.5287 14.3181C26.5287 19.9929 22.9427 24.807 17.967 26.5073C17.3317 26.6339 17.1062 26.2327 17.1062 25.8906C17.1062 25.4671 17.1212 24.0838 17.1212 22.3647C17.1212 21.1668 16.7203 20.385 16.2704 19.9866C19.0609 19.6683 21.9929 18.5819 21.9929 13.6475C21.9929 12.2442 21.5067 11.099 20.7023 10.1994C20.8326 9.87483 21.2624 8.56812 20.5795 6.79888C20.5795 6.79888 19.5295 6.45465 17.1375 8.11612C16.1364 7.83169 15.0638 7.68858 13.9987 7.68357C12.9337 7.68858 11.8624 7.83169 10.8625 8.11612C8.46801 6.45465 7.41549 6.79888 7.41549 6.79888C6.73511 8.56812 7.16489 9.87483 7.29395 10.1994C6.49328 11.099 6.00336 12.2442 6.00336 13.6475C6.00336 18.5693 8.92912 19.6724 11.712 19.997C11.3537 20.3177 11.0291 20.8836 10.9164 21.7143C10.2022 22.0426 8.38781 22.6108 7.27014 20.6473C7.27014 20.6473 6.6073 19.413 5.34929 19.3227C5.34929 19.3227 4.12761 19.3065 5.26409 20.1034C5.26409 20.1034 6.0848 20.4981 6.65492 21.9829C6.65492 21.9829 7.39043 24.2759 10.8763 23.499C10.8825 24.5728 10.8938 25.5849 10.8938 25.8906C10.8938 26.2302 10.6633 26.6276 10.038 26.5085C5.05859 24.8107 1.46875 19.9942 1.46875 14.3181C1.46875 7.22237 7.07968 1.47119 13.9987 1.47119Z" fill="#EDEDF0"/>
</svg>
