<svg width="12" height="12" viewBox="0 0 12 12" fill="none" xmlns="http://www.w3.org/2000/svg">
    <g clip-path="url(#clip0_1562_94978)">
        <path
            d="M12.0026 6.13331C12.0026 5.64139 11.9617 5.28242 11.8733 4.91016H6.125V7.13044H9.49912C9.43112 7.68221 9.06378 8.51316 8.24743 9.07153L8.23599 9.14586L10.0535 10.5218L10.1794 10.534C11.3359 9.49035 12.0026 7.95475 12.0026 6.13331Z"
            fill="#4285F4" />
        <path
            d="M6.11784 11.9832C7.77088 11.9832 9.15862 11.4513 10.1723 10.534L8.24027 9.07148C7.72328 9.42381 7.02938 9.66977 6.11784 9.66977C4.4988 9.66977 3.12466 8.62612 2.63482 7.18359L2.56302 7.18955L0.673152 8.61879L0.648438 8.68593C1.65523 10.6403 3.72326 11.9832 6.11784 11.9832Z"
            fill="#34A853" />
        <path
            d="M2.63943 7.18515C2.51018 6.81289 2.43538 6.41401 2.43538 6.00187C2.43538 5.5897 2.51018 5.19085 2.63263 4.81859L2.62921 4.73931L0.715654 3.28711L0.653046 3.31621C0.238098 4.12723 0 5.03797 0 6.00187C0 6.96578 0.238098 7.87647 0.653046 8.68749L2.63943 7.18515Z"
            fill="#FBBC05" />
        <path
            d="M6.11784 2.33093C7.26748 2.33093 8.04298 2.81621 8.48517 3.22174L10.2131 1.57312C9.15187 0.609219 7.77088 0.0175781 6.11784 0.0175781C3.72326 0.0175781 1.65523 1.36039 0.648438 3.31477L2.62802 4.81715C3.12466 3.37462 4.4988 2.33093 6.11784 2.33093Z"
            fill="#EB4335" />
    </g>
    <defs>
        <clipPath id="clip0_1562_94978">
            <rect width="12" height="12" fill="white" />
        </clipPath>
    </defs>
</svg>