<svg width="28" height="28" viewBox="0 0 28 28" fill="none" xmlns="http://www.w3.org/2000/svg">
<path fill-rule="evenodd" clip-rule="evenodd" d="M13.1032 14.4558C13.1084 16.5546 13.1147 20.1207 13.12 22.8922C16.9147 23.4054 20.7095 23.9344 24.4979 24.5C24.4979 21.1912 24.5021 17.8968 24.4979 14.7485C13.1032 14.4558 24.4979 14.7485 13.1032 14.4558ZM3.5 14.4568V21.5828C6.36211 21.969 9.22421 22.338 12.0811 22.7599C12.0863 20.0031 12.0789 17.2454 12.0789 14.4886C9.21895 14.4938 6.36 14.4474 3.5 14.4568ZM3.5 6.48542V13.5914C6.36211 13.5987 9.22421 13.5554 12.0863 13.5586C12.0842 10.808 12.0842 8.06087 12.0811 5.31033C9.21684 5.66818 6.35263 6.04677 3.5 6.48542ZM24.5 13.4453C20.7074 13.46 16.9147 13.5178 13.12 13.5293C13.1179 10.7337 13.1179 7.94136 13.12 5.1478C16.9074 4.56957 20.7032 4.02576 24.4979 3.5C24.5 6.81617 24.4979 10.1291 24.5 13.4453Z" fill="#EDEDF0"/>
</svg>
