<svg width="137" height="32" viewBox="0 0 137 32" fill="none" xmlns="http://www.w3.org/2000/svg">
<g clip-path="url(#clip0_769_116325)">
<path d="M19.8648 11.9041C20.2987 12.3387 20.5685 12.9387 20.5685 13.6014C20.5685 14.9267 19.4922 16.0014 18.165 16.0014H13.625V11.2014H18.165C18.8286 11.2014 19.4295 11.4707 19.8648 11.9041Z" fill="#E4E4E7"/>
<path d="M16.0234 0C7.17446 0 0 7.164 0 16C0 24.836 7.17446 32 16.0234 32C24.8723 32 32.0467 24.836 32.0467 16C32.0467 7.164 24.8723 0 16.0234 0ZM22.1256 17.56C21.1108 18.5733 19.7087 19.2 18.1598 19.2H13.6199V24L10.4152 24L10.4152 8L18.1598 8C21.2577 8 23.768 10.5067 23.768 13.6C23.768 15.1467 23.1404 16.5467 22.1256 17.56Z" fill="#E4E4E7"/>
<path d="M42.7344 21.3332V10.6665H47.6415C49.9235 10.6665 51.1653 12.2065 51.1653 14.0438C51.1653 15.8812 49.9075 17.4052 47.6415 17.4052H44.9683V21.3332H42.7344ZM48.886 14.0438C48.886 13.1638 48.209 12.6292 47.3277 12.6292H44.9683V15.4412H47.3277C48.2077 15.4412 48.886 14.9065 48.886 14.0425V14.0438Z" fill="#E4E4E7"/>
<path d="M52.517 21.3322V13.5562H54.5145V14.5775C55.066 13.9175 55.994 13.3682 56.9381 13.3682V15.3162C56.7965 15.2842 56.6229 15.2695 56.3866 15.2695C55.7256 15.2695 54.8444 15.6468 54.5132 16.1335V21.3335H52.5156L52.517 21.3322Z" fill="#E4E4E7"/>
<path d="M57.7031 17.3426C57.7031 15.1906 59.2133 13.3679 61.7156 13.3679C64.218 13.3679 65.7428 15.1906 65.7428 17.3426C65.7428 19.4946 64.2326 21.3333 61.7156 21.3333C59.1986 21.3333 57.7031 19.4946 57.7031 17.3426ZM63.6665 17.3426C63.6665 16.1639 62.9735 15.1426 61.7156 15.1426C60.4578 15.1426 59.7795 16.1639 59.7795 17.3426C59.7795 18.5213 60.4712 19.5573 61.7156 19.5573C62.9601 19.5573 63.6665 18.5359 63.6665 17.3426Z" fill="#E4E4E7"/>
<path d="M72.461 21.3332V20.1705C71.8628 20.9252 71.0456 21.3332 70.1162 21.3332C68.2121 21.3332 66.75 19.8878 66.75 17.3425C66.75 14.7972 68.1828 13.3678 70.1162 13.3678C71.0136 13.3678 71.8628 13.7452 72.461 14.5305V10.6665H74.4746V21.3332H72.461ZM72.461 18.6932V16.0065C72.1298 15.5038 71.4061 15.1425 70.7452 15.1425C69.5968 15.1425 68.8103 16.0385 68.8103 17.3425C68.8103 18.6465 69.5968 19.5572 70.7452 19.5572C71.4061 19.5572 72.1298 19.1958 72.461 18.6932Z" fill="#E4E4E7"/>
<path d="M81.5962 21.3317V20.185C81.0768 20.7503 80.1648 21.3317 78.923 21.3317C77.2552 21.3317 76.4688 20.4197 76.4688 18.9437V13.5557H78.4663V18.1583C78.4663 19.2117 79.0178 19.557 79.867 19.557C80.6388 19.557 81.2517 19.133 81.5976 18.693V13.5557L83.5965 13.5557V21.3317H81.5976H81.5962Z" fill="#E4E4E7"/>
<path d="M85.0938 17.3426C85.0938 15.0173 86.7922 13.3679 89.121 13.3679C90.6792 13.3679 91.6233 14.0439 92.1267 14.7346L90.8194 15.9599C90.4576 15.4253 89.9074 15.1426 89.2158 15.1426C88.0033 15.1426 87.1541 16.0226 87.1541 17.3426C87.1541 18.6626 88.0033 19.5573 89.2158 19.5573C89.9074 19.5573 90.4589 19.2426 90.8194 18.7239L92.1267 19.9493C91.6233 20.6413 90.6792 21.3319 89.121 21.3319C86.7922 21.3319 85.0938 19.6826 85.0938 17.3413V17.3426Z" fill="#E4E4E7"/>
<path d="M93.836 19.2427V15.3H92.5781V13.556H93.836V11.4827H95.8349V13.556H97.3758V15.3H95.8349V18.7093C95.8349 19.196 96.0859 19.5573 96.5265 19.5573C96.8256 19.5573 97.1101 19.4467 97.2182 19.3213L97.6442 20.8453C97.3451 21.1133 96.8096 21.3333 95.9764 21.3333C94.5757 21.3333 93.8373 20.6107 93.8373 19.244L93.836 19.2427Z" fill="#E4E4E7"/>
<path d="M110.174 21.3332V16.7305H105.217V21.3332H102.984V10.6665H105.217V14.7825H110.174V10.6665H112.423V21.3332H110.174Z" fill="#E4E4E7"/>
<path d="M119.581 21.3317V20.185C119.061 20.7503 118.149 21.3317 116.907 21.3317C115.24 21.3317 114.453 20.4197 114.453 18.9437V13.5557H116.451V18.1583C116.451 19.2117 117.002 19.557 117.851 19.557C118.623 19.557 119.236 19.133 119.582 18.693V13.5557L121.581 13.5557V21.3317H119.582H119.581Z" fill="#E4E4E7"/>
<path d="M128.691 21.3333V16.5573C128.691 15.5039 128.141 15.1426 127.291 15.1426C126.504 15.1426 125.907 15.5826 125.56 16.0226V21.3319H123.562V13.5559H125.56V14.5306C126.049 13.9653 126.993 13.3679 128.22 13.3679C129.904 13.3679 130.705 14.3106 130.705 15.7866V21.3319H128.691V21.3333Z" fill="#E4E4E7"/>
<path d="M133.086 19.2427V15.3H131.828V13.556H133.086V11.4827H135.085V13.556H136.626V15.3H135.085V18.7093C135.085 19.196 135.336 19.5573 135.777 19.5573C136.076 19.5573 136.36 19.4467 136.47 19.3213L136.894 20.8453C136.595 21.1133 136.06 21.3333 135.226 21.3333C133.826 21.3333 133.087 20.6107 133.087 19.244L133.086 19.2427Z" fill="#E4E4E7"/>
</g>
<defs>
<clipPath id="clip0_769_116325">
<rect width="136.889" height="32" fill="white"/>
</clipPath>
</defs>
</svg>
