<svg xmlns="http://www.w3.org/2000/svg" width="43" height="43" fill="none" viewBox="0 0 43 43"><mask id="path-1-inside-1_428_1453" fill="#fff"><path d="M15.1907 15.2029V10.555C15.1907 9.01411 15.8518 7.53635 17.0285 6.44679C18.2052 5.35723 19.8012 4.74512 21.4653 4.74512C23.1295 4.74512 24.7254 5.35723 25.9022 6.44679C27.0789 7.53635 27.74 9.01411 27.74 10.555V15.2029"/></mask><path fill="#E4E4E7" d="M15.1907 10.555H13.7963H15.1907ZM16.585 15.2029V10.555H13.7963V15.2029H16.585ZM16.585 10.555C16.585 9.42006 17.071 8.30773 17.9758 7.46992L16.0811 5.42365C14.6325 6.76496 13.7963 8.60815 13.7963 10.555L16.585 10.555ZM17.9758 7.46992C18.8843 6.62875 20.1378 6.13948 21.4653 6.13948V3.35075C19.4645 3.35075 17.5261 4.0857 16.0811 5.42365L17.9758 7.46992ZM21.4653 6.13948C22.7928 6.13948 24.0464 6.62875 24.9548 7.46992L26.8495 5.42365C25.4045 4.0857 23.4661 3.35075 21.4653 3.35075V6.13948ZM24.9548 7.46992C25.8597 8.30773 26.3456 9.42006 26.3456 10.555H29.1343C29.1343 8.60815 28.2981 6.76496 26.8495 5.42365L24.9548 7.46992ZM26.3456 10.555V15.2029H29.1343V10.555H26.3456Z" mask="url(#path-1-inside-1_428_1453)"/><path stroke="#E4E4E7" stroke-width="1.394" d="M10.078 15.9003H32.8526C34.1116 15.9003 35.409 17.2878 35.409 19.3862V34.0271C35.409 36.1255 34.1116 37.513 32.8526 37.513H10.078C8.81906 37.513 7.52165 36.1255 7.52165 34.0271V19.3862C7.52165 17.2878 8.81906 15.9003 10.078 15.9003Z"/><mask id="path-4-inside-2_428_1453" fill="#fff"><path fill-rule="evenodd" d="M23.5659 27.4048C24.6606 26.7091 25.387 25.4856 25.387 24.0926C25.387 21.9267 23.6312 20.1709 21.4654 20.1709C19.2995 20.1709 17.5437 21.9267 17.5437 24.0926C17.5437 25.4858 18.2702 26.7093 19.3651 27.405L18.1975 33.2429H24.7336L23.5659 27.4048Z" clip-rule="evenodd"/></mask><path fill="#E4E4E7" d="M23.5659 27.4048L22.8181 26.228L22.0112 26.7407L22.1987 27.6782L23.5659 27.4048ZM19.3651 27.405L20.7323 27.6784L20.9199 26.7408L20.1128 26.2281L19.3651 27.405ZM18.1975 33.2429L16.8302 32.9694L16.4966 34.6372H18.1975V33.2429ZM24.7336 33.2429V34.6372H26.4344L26.1009 32.9694L24.7336 33.2429ZM23.9926 24.0926C23.9926 24.9888 23.5271 25.7773 22.8181 26.228L24.3138 28.5816C25.7941 27.6408 26.7814 25.9825 26.7814 24.0926H23.9926ZM21.4654 21.5653C22.8611 21.5653 23.9926 22.6968 23.9926 24.0926H26.7814C26.7814 21.1566 24.4013 18.7765 21.4654 18.7765V21.5653ZM18.9381 24.0926C18.9381 22.6968 20.0696 21.5653 21.4654 21.5653V18.7765C18.5294 18.7765 16.1493 21.1566 16.1493 24.0926H18.9381ZM20.1128 26.2281C19.4037 25.7775 18.9381 24.9889 18.9381 24.0926H16.1493C16.1493 25.9826 17.1367 27.6411 18.6173 28.5818L20.1128 26.2281ZM19.5648 33.5163L20.7323 27.6784L17.9978 27.1315L16.8302 32.9694L19.5648 33.5163ZM24.7336 31.8485H18.1975V34.6372H24.7336V31.8485ZM22.1987 27.6782L23.3663 33.5163L26.1009 32.9694L24.9332 27.1313L22.1987 27.6782Z" mask="url(#path-4-inside-2_428_1453)"/></svg>