<svg xmlns="http://www.w3.org/2000/svg" width="32" height="35" fill="none" viewBox="0 0 32 35"><path stroke="#E4E4E7" stroke-width="1.394" d="M14.7599 33.7133C14.6466 33.7725 14.548 33.8232 14.4653 33.8651C14.3827 33.8232 14.284 33.7725 14.1708 33.7133C13.7868 33.5123 13.2357 33.2128 12.5732 32.8213C11.2467 32.0375 9.48158 30.8897 7.72004 29.4325C4.16124 26.4884 0.783121 22.4195 0.783121 17.6491V8.78506L14.4653 1.44641L28.1476 8.78506V17.6491C28.1476 22.4195 24.7694 26.4884 21.2106 29.4325C19.4491 30.8897 17.6839 32.0375 16.3574 32.8213C15.695 33.2128 15.1439 33.5123 14.7599 33.7133Z"/><g filter="url(#filter0_b_428_1448)"><circle cx="22.831" cy="23.926" r="8.366" fill="#424242" fill-opacity="1"/><circle cx="22.831" cy="23.926" r="7.669" stroke="#E4E4E7" stroke-width="1.394"/></g><path stroke="#E4E4E7" stroke-linecap="round" stroke-width="1.394" d="M18.9099 25.4941L21.5243 27.5856L26.7532 20.7881"/><defs><filter id="filter0_b_428_1448" width="111.549" height="111.549" x="-32.943" y="-31.849" color-interpolation-filters="sRGB" filterUnits="userSpaceOnUse"><feFlood flood-opacity="0" result="BackgroundImageFix"/><feGaussianBlur in="BackgroundImageFix" stdDeviation="23.704"/><feComposite in2="SourceAlpha" operator="in" result="effect1_backgroundBlur_428_1448"/><feBlend in="SourceGraphic" in2="effect1_backgroundBlur_428_1448" mode="normal" result="shape"/></filter></defs></svg>