<svg xmlns="http://www.w3.org/2000/svg" width="32" height="32" fill="none" viewBox="0 0 32 32"><path fill="#56565C" d="M22.8469 13.6137L24.9484 9.97341C25.067 9.76934 24.9953 9.5101 24.7939 9.39151C24.5926 9.27293 24.3306 9.34187 24.2148 9.54595L22.0858 13.2331C20.4614 12.4913 18.633 12.0776 16.6667 12.0776C14.7003 12.0776 12.8719 12.4913 11.2475 13.2331L9.11851 9.54595C8.99992 9.34187 8.74068 9.27293 8.53661 9.39151C8.33253 9.5101 8.26358 9.76934 8.38217 9.97341L10.4836 13.6137C6.85985 15.5773 4.40539 19.2452 4 23.5391H29.3333C28.9279 19.2452 26.4734 15.5773 22.8469 13.6137ZM10.8504 19.9815C10.263 19.9815 9.78866 19.5044 9.78866 18.9198C9.78866 18.3323 10.2658 17.858 10.8504 17.858C11.4378 17.858 11.9122 18.3351 11.9122 18.9198C11.9149 19.5044 11.4378 19.9815 10.8504 19.9815ZM22.4802 19.9815C21.8927 19.9815 21.4184 19.5044 21.4184 18.9198C21.4184 18.3323 21.8955 17.858 22.4802 17.858C23.0676 17.858 23.5419 18.3351 23.5419 18.9198C23.5447 19.5044 23.0676 19.9815 22.4802 19.9815Z"/></svg>