<svg xmlns="http://www.w3.org/2000/svg" width="32" height="32" fill="none" viewBox="0 0 32 32"><path fill="#56565C" d="M26.1916 23.4479C25.7847 24.3796 25.3029 25.2372 24.7448 26.0256C23.9841 27.1005 23.3612 27.8445 22.8811 28.2577C22.137 28.9358 21.3397 29.2831 20.4859 29.3029C19.873 29.3029 19.1338 29.1301 18.2734 28.7795C17.4101 28.4305 16.6168 28.2577 15.8914 28.2577C15.1307 28.2577 14.3148 28.4305 13.4421 28.7795C12.568 29.1301 11.8639 29.3128 11.3256 29.3309C10.5068 29.3655 9.69075 29.0083 8.87617 28.2577C8.35627 27.8083 7.70597 27.038 6.92693 25.9466C6.09109 24.7812 5.40392 23.4298 4.86557 21.8891C4.28902 20.225 4 18.6135 4 17.0534C4 15.2663 4.38968 13.7249 5.17021 12.4333C5.78363 11.3958 6.59971 10.5774 7.62109 9.97657C8.64246 9.37577 9.74607 9.06961 10.9345 9.05002C11.5848 9.05002 12.4376 9.24935 13.4974 9.64111C14.5541 10.0342 15.2327 10.2335 15.5302 10.2335C15.7526 10.2335 16.5064 10.0004 17.7842 9.53576C18.9926 9.10483 20.0125 8.9264 20.848 8.99669C23.112 9.17775 24.8129 10.0622 25.9441 11.6555C23.9193 12.8713 22.9177 14.5741 22.9376 16.7586C22.9559 18.4601 23.5788 19.876 24.803 21.0003C25.3578 21.5221 25.9773 21.9253 26.6667 22.2118C26.5172 22.6414 26.3594 23.0529 26.1916 23.4479ZM20.9992 3.19999C20.9992 4.53363 20.5075 5.77884 19.5275 6.9314C18.3448 8.30156 16.9143 9.09331 15.3631 8.96837C15.3433 8.80838 15.3318 8.63999 15.3318 8.46304C15.3318 7.18275 15.8943 5.81258 16.8931 4.69229C17.3917 4.12506 18.0259 3.65342 18.795 3.27719C19.5624 2.90657 20.2882 2.7016 20.9709 2.6665C20.9909 2.84479 20.9992 3.02309 20.9992 3.19997V3.19999Z"/></svg>