<svg xmlns="http://www.w3.org/2000/svg" viewBox="0 0 128 128"><path d="M117.9 36.1v55.7c0 1.9-1.2 4.4-2.9 5.4l-48 27.9c-.8.4-1.9.7-3.1.7-1.2 0-2.3-.2-3.1-.7L12.6 97.2c-.7-.4-1.4-1.1-1.9-1.9l.165-.096C10.177 94.148 10 92.935 10 91.9V36.2c0-1.9 1.2-4.4 2.9-5.4l48-27.9c.8-.4 1.9-.7 3.1-.7 1.2 0 2.3.2 3.1.7l48.3 27.8c.9.6 1.8 1.5 2.4 2.7l-.348.202c.369.818.448 1.698.448 2.498Zm-32.6 40C81.1 83.5 73.1 88.5 64 88.5c-13.5 0-24.5-11-24.5-24.5s11-24.5 24.5-24.5c9.1 0 17.1 5 21.3 12.5l13-7.5c-6.8-11.9-19.6-20-34.3-20-21.8 0-39.5 17.7-39.5 39.5s17.7 39.5 39.5 39.5c14.6 0 27.4-8 34.2-19.8Z" style="fill:#e4e4e7"/><path d="m98.881 83.521-.248.429C91.749 95.837 78.732 104 64 104c-11.002 0-21.066-4.508-28.279-11.721C28.509 85.066 24 75.002 24 64c0-11.002 4.509-21.066 11.721-28.279C42.934 28.508 52.998 24 64 24c14.834 0 27.851 8.265 34.734 20.252l.248.432-13.872 8.003-.246-.443C80.749 44.834 72.968 40 64 40c-6.648 0-12.584 2.666-16.959 7.041S40 57.352 40 64s2.666 12.584 7.041 16.959S57.352 88 64 88c8.968 0 16.75-4.835 20.865-12.147l.249-.443ZM64 89c-6.852 0-13.166-2.834-17.666-7.334S39 70.852 39 64s2.834-13.166 7.334-17.666S57.148 39 64 39c9.233 0 17.132 4.969 21.483 12.317l12.134-7C90.841 32.743 78.566 25 64 25c-10.798 0-20.484 4.342-27.571 11.429C29.341 43.516 25 53.202 25 64c0 10.798 4.341 20.484 11.429 27.571C43.516 98.659 53.202 103 64 103c14.467 0 26.743-7.645 33.518-19.122l-12.04-7.093C81.127 84.036 73.233 89 64 89Z" style="fill:#e4e4e7"/></svg>