<svg xmlns="http://www.w3.org/2000/svg" width="150" height="150" fill="none"><path d="M3.975 3.975h142.05v142.05H3.975Zm25.49 90.798c.76-.725 1.141-1.586 1.141-2.582 0-1.016-.381-1.885-1.141-2.61-.742-.725-1.652-1.088-2.731-1.088-1.06 0-1.962.363-2.704 1.088-.743.725-1.114 1.594-1.114 2.61 0 .996.371 1.857 1.114 2.582.742.707 1.644 1.06 2.704 1.06 1.079 0 1.989-.353 2.731-1.06ZM69.133 56.25h-6.072v25.12c0 2.465.089 4.214.266 5.247h-.106c-.213-.435-.69-1.232-1.432-2.392L44.235 56.25h-7.344v38.985h6.098V69.68c0-2.737-.07-4.522-.212-5.356h.159c.301.78.681 1.532 1.141 2.257l18.162 28.654h6.894Zm29.698 33.521H83.797V78.244h13.072v-5.465H83.797V61.742h14.186V56.25H77.486v38.985h21.345Zm30.335-33.521h-28.133v5.492h10.898v33.493h6.311V61.742h10.924Z" style="fill:#e4e4e7"/><g clip-path="url(#a)"><path d="M26.734 96.333a4.504 4.504 0 0 1-3.054-1.202c-.797-.805-1.264-1.845-1.264-2.941 0-1.113.467-2.161 1.264-2.967a4.435 4.435 0 0 1 3.054-1.23c1.171 0 2.254.451 3.079 1.228.816.806 1.293 1.854 1.293 2.969 0 1.098-.48 2.14-1.296 2.945a4.519 4.519 0 0 1-3.076 1.198Zm2.387-1.922c.703-.645.985-1.325.985-2.22 0-.915-.282-1.604-.986-2.248-.66-.672-1.4-.95-2.386-.95-.967 0-1.694.274-2.355.945-.687.645-.963 1.336-.963 2.253 0 .897.273 1.577.961 2.222.66.654 1.388.92 2.357.92.988 0 1.726-.267 2.387-.922ZM61.964 95.735l-18.31-28.886a15.132 15.132 0 0 1-.211-.345c.031.865.046 1.925.046 3.176v26.055h-7.098V55.75h8.121l17.699 28.207c.151.236.292.459.422.666a63.677 63.677 0 0 1-.072-3.253V55.75h7.072v39.985Zm6.669-38.985h-5.072v24.62c0 2.453.085 4.159.258 5.163l.101.584h-1.012l-.137-.281c-.202-.416-.665-1.188-1.403-2.342L43.959 56.75h-6.568v37.985h5.098V69.68c0-2.727-.067-4.47-.205-5.272l-.1-.584h1.096l.123.32c.29.757.648 1.465 1.096 2.169l18.015 28.422h6.119ZM76.986 95.735V55.75h21.497v6.492H84.297v10.037h13.072v6.465H84.297v10.527h15.034v6.464Zm21.345-5.464H83.297V77.744h13.072v-4.465H83.297V61.242h14.186V56.75H77.986v37.985h20.345ZM118.742 62.242v33.493h-7.311V62.242h-10.898V55.75h29.133v6.492Zm9.924-5.492h-27.133v4.492h10.898v33.493h5.311V61.242h10.924Z" style="fill:#e4e4e7"/></g><defs><clipPath id="a"><path fill="#fff" d="M0 0h150v150H0z"/></clipPath></defs></svg>