<svg fill="none" viewBox="0 0 32 32">
    <path fill="#56565C" fill-rule="evenodd"
        d="M16 29.333c7.364 0 13.333-5.97 13.333-13.333 0-7.364-5.97-13.333-13.333-13.333C8.636 2.667 2.666 8.637 2.666 16c0 7.364 5.97 13.333 13.334 13.333ZM8.57 23.43c-2-2-3.047-4.667-3.047-7.238l10.38 10.285c-2.666-.095-5.333-1.047-7.333-3.047Zm-2.76-9.716L18.286 26.19c4.666-1.047 8.19-5.238 8.19-10.19H19.81v1.905h4.572c-.667 2.857-2.762 5.238-5.524 6.19L7.905 13.143C9.143 9.81 12.285 7.429 16 7.429c2.857 0 5.428 1.428 7.047 3.619l1.43-1.238C22.57 7.238 19.523 5.524 16 5.524c-4.953 0-9.143 3.524-10.19 8.19Z"
        clip-rule="evenodd" />
</svg>