<svg xmlns="http://www.w3.org/2000/svg" width="32" height="32" fill="none" viewBox="0 0 32 32"><path fill="#56565C" d="M15.1271 2.67368C15.0697 2.67889 14.8873 2.69714 14.723 2.71017C10.9355 3.0516 7.38775 5.09496 5.14076 8.23559C3.88954 9.98183 3.08928 11.9626 2.7869 14.0607C2.68003 14.7931 2.66699 15.0094 2.66699 16.0024C2.66699 16.9955 2.68003 17.2118 2.7869 17.9442C3.51157 22.9509 7.07494 27.1575 11.9078 28.7161C12.7732 28.995 13.6856 29.1853 14.723 29.2999C15.1271 29.3442 16.8736 29.3442 17.2776 29.2999C19.0684 29.1019 20.5855 28.6588 22.0818 27.8951C22.3112 27.7778 22.3555 27.7466 22.3242 27.7205C22.3034 27.7049 21.3258 26.3939 20.1528 24.8092L18.0205 21.9292L15.3486 17.9754C13.8785 15.8018 12.6689 14.0242 12.6585 14.0242C12.6481 14.0216 12.6377 15.7783 12.6325 17.9233C12.6246 21.679 12.622 21.8302 12.5751 21.9188C12.5073 22.0465 12.4552 22.0987 12.3457 22.156C12.2623 22.1977 12.1893 22.2055 11.7957 22.2055H11.3447L11.2248 22.1299C11.1466 22.0804 11.0893 22.0153 11.0502 21.9397L10.9954 21.8224L11.0007 16.5967L11.0085 11.3684L11.0893 11.2667C11.131 11.212 11.2196 11.1416 11.2822 11.1078C11.3891 11.0556 11.4308 11.0504 11.8817 11.0504C12.4135 11.0504 12.5021 11.0713 12.6403 11.2224C12.6794 11.2641 14.1261 13.443 15.857 16.0676C17.5878 18.6922 19.9547 22.2759 21.1173 24.0352L23.2287 27.2331L23.3356 27.1628C24.2819 26.5477 25.2828 25.6719 26.0753 24.7597C27.7618 22.8232 28.8488 20.4619 29.2138 17.9442C29.3206 17.2118 29.3337 16.9955 29.3337 16.0024C29.3337 15.0094 29.3206 14.7931 29.2138 14.0607C28.4891 9.05397 24.9257 4.84736 20.0929 3.28877C19.2405 3.0125 18.3333 2.82224 17.3167 2.70756C17.0665 2.6815 15.3434 2.65283 15.1271 2.67368ZM20.5855 10.7377C20.7107 10.8002 20.8123 10.9201 20.8488 11.0452C20.8697 11.113 20.8749 12.5621 20.8697 15.8278L20.8618 20.514L20.0355 19.2473L19.2066 17.9807V14.5742C19.2066 12.3718 19.217 11.1338 19.2326 11.0739C19.2744 10.9279 19.3656 10.8132 19.4907 10.7455C19.5976 10.6907 19.6367 10.6855 20.0459 10.6855C20.4317 10.6855 20.4995 10.6907 20.5855 10.7377Z"/></svg>