<svg xmlns="http://www.w3.org/2000/svg" width="32" height="32" fill="none" viewBox="0 0 32 32"><path fill="#56565C" d="M17.6272 25.3332H27.5404C27.8552 25.3332 28.1645 25.247 28.4372 25.0831C28.7099 24.9193 28.9363 24.6836 29.0937 24.3998C29.251 24.116 29.3338 23.7941 29.3337 23.4664C29.3335 23.1388 29.2505 22.8169 29.0929 22.5332L22.4355 10.5333C22.2781 10.2495 22.0518 10.0139 21.7792 9.85007C21.5065 9.68627 21.1973 9.6 20.8825 9.6C20.5677 9.6 20.2584 9.68627 19.9858 9.85007C19.7132 10.0139 19.4868 10.2495 19.3295 10.5333L17.6272 13.6036L14.299 7.59962C14.1415 7.31592 13.9151 7.08031 13.6424 6.91651C13.3697 6.75274 13.0604 6.6665 12.7455 6.6665C12.4307 6.6665 12.1214 6.75274 11.8487 6.91651C11.576 7.08031 11.3495 7.31592 11.1921 7.59962L2.90778 22.5332C2.75018 22.8169 2.66713 23.1388 2.66699 23.4664C2.66686 23.7941 2.74963 24.116 2.907 24.3998C3.06436 24.6836 3.29076 24.9193 3.56344 25.0831C3.83611 25.247 4.14543 25.3332 4.4603 25.3332H10.6829C13.1484 25.3332 14.9666 24.2062 16.2177 22.0074L19.2551 16.5332L20.882 13.6036L25.7647 22.4036H19.2551L17.6272 25.3332ZM10.5815 22.4005L6.23887 22.3995L12.7484 10.667L15.9965 16.5332L13.8218 20.4542C12.9909 21.8808 12.0471 22.4005 10.5815 22.4005Z"/></svg>