<svg xmlns="http://www.w3.org/2000/svg" width="32" height="32" fill="none" viewBox="0 0 32 32"><path fill="#56565C" stroke="#56565C" stroke-width=".25" d="M8.92198 28.2118L8.922 28.2118C10.1507 28.9195 11.5645 28.6104 12.8493 27.953C14.092 27.317 15.2441 26.3408 16.0517 25.5696C16.8544 26.3363 17.9799 27.3147 19.1944 27.9542C20.4507 28.6157 21.8345 28.9308 23.0553 28.225C24.279 27.5174 24.7171 26.1443 24.7903 24.7093C24.8611 23.321 24.593 21.8415 24.3308 20.7613C25.3708 20.449 26.7776 19.947 27.9426 19.2012C29.1474 18.4299 30.125 17.3767 30.125 15.9768C30.125 14.5684 29.1425 13.53 27.9276 12.7756C26.7527 12.0461 25.3306 11.5628 24.2701 11.2533C24.5276 10.1852 24.8058 8.70025 24.7466 7.30393C24.6855 5.86013 24.2613 4.47317 23.0347 3.76683C21.8134 3.06325 20.4219 3.39468 19.1605 4.06928C17.9407 4.7217 16.8108 5.71111 16.0127 6.47432C15.2146 5.71789 14.0654 4.73526 12.8247 4.08886C11.5418 3.42055 10.127 3.09492 8.90162 3.80346L8.96402 3.91137L8.90162 3.80346C7.68069 4.50944 7.27327 5.88006 7.22877 7.30936C7.18575 8.69121 7.47997 10.1634 7.74354 11.2358C6.66739 11.546 5.24137 12.0274 4.06663 12.758C2.85173 13.5137 1.875 14.556 1.875 15.9768C1.875 17.3927 2.84946 18.4623 4.06122 19.246C5.23329 20.0041 6.65512 20.5137 7.72694 20.8261C7.46292 21.9034 7.17672 23.3656 7.22867 24.7357C7.28241 26.1531 7.70034 27.5079 8.92198 28.2118ZM22.8699 10.8917C21.7528 10.6402 20.5469 10.4514 19.2875 10.3311C18.5522 9.28922 17.7916 8.33707 17.0266 7.50469C17.617 6.9384 18.5143 6.10636 19.4708 5.51396C19.9734 5.20264 20.486 4.96166 20.9736 4.85801C21.4596 4.75472 21.9141 4.78898 22.3126 5.0185C22.7152 5.25049 22.9782 5.63297 23.1382 6.11348C23.2986 6.59536 23.3529 7.16894 23.3412 7.76782C23.3189 8.90605 23.0592 10.1091 22.8699 10.8917ZM18.6253 15.9768C18.6253 14.5284 17.4499 13.3544 16 13.3544C14.5503 13.3544 13.3747 14.5284 13.3747 15.9768C13.3747 17.4254 14.5503 18.5994 16 18.5994C17.4499 18.5994 18.6253 17.4254 18.6253 15.9768ZM26.8876 18.214C25.9174 18.7547 24.7583 19.1259 23.937 19.3712C23.5898 18.2948 23.1309 17.156 22.5754 15.9822C23.1053 14.8364 23.546 13.7135 23.8828 12.6454C24.6694 12.8748 25.8391 13.2351 26.8305 13.7663C27.3514 14.0454 27.8162 14.3682 28.1495 14.7381C28.4817 15.1068 28.6789 15.5171 28.6789 15.9768C28.6789 16.909 27.9138 17.6421 26.8876 18.214ZM22.3307 26.9745C21.5278 27.4388 20.5063 27.1263 19.4985 26.5098C18.548 25.9284 17.6559 25.1045 17.0591 24.5334C17.8135 23.6998 18.5661 22.7407 19.3011 21.6817C20.5916 21.5651 21.8146 21.3792 22.9318 21.1278C23.1191 21.9007 23.3684 23.096 23.3807 24.2288C23.3871 24.8252 23.3277 25.3973 23.1634 25.8785C22.9995 26.3584 22.7339 26.7414 22.3307 26.9745ZM9.64443 26.96C8.84154 26.4976 8.60218 25.4573 8.63323 24.2771C8.66252 23.164 8.93125 21.9805 9.12897 21.1801C10.2343 21.4178 11.4489 21.5906 12.7421 21.6975C13.4829 22.735 14.2571 23.6926 15.0385 24.5388C14.5161 25.0368 13.6021 25.8496 12.6098 26.442C12.0843 26.7557 11.5429 27.0039 11.0305 27.1132C10.519 27.2223 10.046 27.1913 9.64443 26.96ZM3.32106 15.9768C3.32106 15.043 4.11274 14.3119 5.1638 13.7472C6.1554 13.2144 7.32989 12.8557 8.1319 12.6272C8.47415 13.7193 8.91507 14.8566 9.44226 16.006C8.90799 17.1729 8.46065 18.3286 8.11501 19.4343C7.34739 19.2106 6.17941 18.8269 5.18533 18.2682C4.66222 17.9742 4.19351 17.6351 3.8568 17.2505C3.52098 16.867 3.32106 16.4439 3.32106 15.9768ZM9.62602 5.05393C10.0286 4.82114 10.4918 4.78455 10.9885 4.88609C11.4866 4.98792 12.0112 5.22748 12.5247 5.53684C13.5006 6.12478 14.4142 6.95072 14.9993 7.5056C14.2222 8.34773 13.4552 9.29813 12.721 10.3294C11.4649 10.4479 10.2598 10.6335 9.14506 10.8799C8.9303 10.0158 8.65051 8.81934 8.61654 7.70901C8.5807 6.53753 8.81984 5.52005 9.62602 5.05393ZM20.3358 11.9057C21.0816 12.0068 21.7994 12.1339 22.4802 12.285C22.2716 12.9382 22.0208 13.6165 21.7313 14.3106C21.2937 13.4936 20.8293 12.6907 20.3358 11.9057ZM14.6138 10.2037C15.0738 9.60925 15.5423 9.05201 16.0132 8.53853C16.4771 9.04701 16.9417 9.60491 17.4007 10.2044C16.4721 10.1676 15.5424 10.1674 14.6138 10.2037ZM11.6659 11.9032C11.1722 12.6855 10.7094 13.4872 10.2787 14.3058C9.99426 13.6142 9.74599 12.9338 9.53645 12.273C10.2124 12.126 10.9257 12.0022 11.6659 11.9032ZM10.2802 17.7046C10.7185 18.5346 11.19 19.347 11.693 20.1395C10.927 20.0472 10.1999 19.9292 9.52015 19.786C9.73386 19.1109 9.98846 18.4136 10.2802 17.7046ZM17.4336 21.8001C16.9722 22.4151 16.5079 22.9834 16.0455 23.4987C15.5675 22.9774 15.0908 22.41 14.6224 21.8048C15.559 21.8356 16.4969 21.8353 17.4336 21.8001ZM21.745 17.6571C22.0525 18.374 22.3169 19.0695 22.5348 19.7359C21.8425 19.889 21.1039 20.0162 20.3297 20.116C20.8297 19.3133 21.3031 18.4936 21.745 17.6571ZM20.9713 15.9891C20.2439 17.4776 19.4111 18.9164 18.4941 20.297C16.8444 20.4119 15.1845 20.4108 13.5337 20.3064C12.5984 18.9365 11.7639 17.4979 11.0407 16.0055C11.7604 14.516 12.589 13.08 13.5199 11.7123C15.1717 11.5905 16.8331 11.5902 18.4848 11.713C19.4075 13.0804 20.2351 14.5125 20.9713 15.9891Z"/></svg>