<svg fill="none" viewBox="0 0 32 32">
    <path fill="#56565C"
        d="M17.14 3.333c6.364 0 9.527 3.102 9.527 8.057 0 3.705-2.226 6.122-5.232 6.525 2.538.524 4.021 2.014 4.295 4.955l.04.54.034.506.03.473.02.357.023.42.011.24.017.382.013.36.006.207.01.332.007.38.003.183.005.53.002.555v.332h-6.564v-.139l.003-.268.004-.262.011-.633.003-.212.002-.333v-.213l-.002-.224-.003-.175-.005-.245-.008-.26-.01-.277-.014-.295-.007-.155-.014-.241-.015-.255-.024-.358-.02-.285a10.47 10.47 0 0 0-.021-.258l-.017-.165c-.217-1.948-.971-2.744-2.264-3.01l-.109-.02a5.018 5.018 0 0 0-.225-.035l-.116-.014-.06-.007-.12-.01-.122-.01-.126-.006-.126-.005-.128-.003-.131-.002H5.332v-5.277h10.635c.174 0 .343-.003.506-.01l.161-.008.158-.01.154-.014.076-.007.149-.016c.098-.012.193-.026.287-.04l.138-.025c1.725-.32 2.588-1.258 2.588-3.089 0-2.054-1.405-3.3-4.217-3.3H5.333V3.334H17.14Zm-4.867 21.4c.861 0 1.222.49 1.35.958l.017.067.014.067.009.053.004.026.006.051.005.05.002.026.002.048.001.024.001.046v2.518h-8.35v-3.934h6.94Z" />
</svg>