<svg xmlns="http://www.w3.org/2000/svg" preserveAspectRatio="xMidYMid" viewBox="0 0 256 256"><path d="M0 288v-96c0-3.435 47.207-8.346 101.078-15.999C47.207 168.347 0 163.435 0 160V64c0-8 256-24 256-64v96c0 5.827-5.433 11.145-14.716 16.003C250.567 116.86 256 122.176 256 128v96c0 5.827-5.433 11.145-14.716 16.003C250.567 244.86 256 250.176 256 256v96c0 40-256 56-256 64v-96c0-3.435 47.207-8.346 101.078-15.999C47.207 296.347 0 291.435 0 288Z" style="fill:#e4e4e7" transform="matrix(.59234 0 0 .59234 52.181 4.794)"/><path d="M-.5 288v-96c.058-.375.353-.817.776-1.084.391-.247.978-.503 1.696-.749 1.417-.485 3.503-.996 6.147-1.53 5.278-1.065 12.877-2.242 22.149-3.55 18.539-2.614 41.625-5.483 67.238-9.086-25.613-3.603-48.699-6.473-67.238-9.088-9.272-1.307-16.871-2.485-22.149-3.55-2.644-.534-4.73-1.045-6.147-1.53-.718-.246-1.305-.502-1.696-.748-.423-.268-.718-.71-.776-1.085V64c.071-.424.445-.911.994-1.212.514-.283 1.282-.576 2.236-.864 1.894-.572 4.672-1.18 8.18-1.822 7.009-1.283 17.021-2.722 29.023-4.347 24.002-3.251 55.997-7.25 87.99-12.249 31.992-4.999 63.958-10.992 87.932-18.235 11.981-3.619 21.921-7.533 28.884-11.791C251.674 9.238 255.561 4.836 255.5 0h1v96c-.075 6.006-5.313 11.212-14.153 16.003 9.342 4.9 14.078 9.994 14.153 15.997v96c-.075 6.006-5.313 11.212-14.153 16.003 9.342 4.9 14.078 9.994 14.153 15.997v96c-.061 5.164-4.174 10.012-11.239 14.333-7.037 4.304-17.097 8.265-29.116 11.896-24.026 7.257-56.06 13.264-88.068 18.265-32.007 5.001-64.012 9.002-88.01 12.251-11.998 1.625-21.986 3.061-28.977 4.341-3.492.639-6.214 1.234-8.07 1.795-.921.278-1.591.534-2.045.783-.42.231-.546.26-.475.336l-1-1.077V320c.058-.375.353-.817.776-1.084.391-.247.978-.503 1.696-.749 1.417-.485 3.503-.996 6.147-1.53 5.278-1.065 12.877-2.242 22.149-3.55 18.539-2.614 41.625-5.483 67.238-9.086-25.613-3.603-48.699-6.473-67.238-9.088-9.272-1.307-16.871-2.485-22.149-3.55-2.644-.534-4.73-1.045-6.147-1.53-.718-.246-1.305-.502-1.696-.748-.423-.268-.718-.71-.776-1.085Zm1.31.239c.327.206.807.415 1.486.648 1.375.471 3.397.966 6.021 1.496 5.256 1.061 12.826 2.234 22.09 3.54 18.532 2.614 43.802 5.755 70.741 9.583l3.485.495-3.485.495c-26.939 3.827-52.209 6.968-70.741 9.581-9.264 1.307-16.834 2.48-22.09 3.54-2.624.53-4.647 1.026-6.021 1.496-.679.233-1.159.442-1.486.648-.294.186-.368.185-.31.239v94.784c.514-.281 1.28-.573 2.23-.86 1.894-.572 4.672-1.18 8.18-1.822 7.009-1.283 17.021-2.722 29.023-4.347 24.002-3.251 55.997-7.25 87.99-12.249 31.992-4.999 63.958-10.992 87.932-18.235 11.981-3.619 21.921-7.533 28.884-11.791 6.935-4.242 10.822-8.644 10.761-13.48v-96c.075-5.645-5.224-10.74-14.448-15.554l-.849-.443.849-.443c9.224-4.815 14.523-9.912 14.448-15.56v-96c.075-5.645-5.224-10.74-14.448-15.554l-.849-.443.849-.443c9.224-4.815 14.523-9.912 14.448-15.56V4.302c-1.625 3.563-3.174 5.71-10.239 10.031-7.037 4.304-17.097 8.265-29.116 11.896-24.026 7.257-56.06 13.264-88.068 18.265-32.007 5.001-64.012 9.002-88.01 12.251-11.998 1.625-21.986 3.061-28.977 4.341-3.492.639-6.214 1.234-8.07 1.795-.921.278-1.591.534-2.045.783-.42.231-.546.26-.475.336v96c-.058.054.016.053.31.239.327.206.807.415 1.486.648 1.375.471 3.397.966 6.021 1.496 5.256 1.061 12.826 2.234 22.09 3.54 18.532 2.614 43.802 5.755 70.741 9.583l3.485.495-3.485.495c-26.939 3.827-52.209 6.968-70.741 9.581-9.264 1.307-16.834 2.48-22.09 3.54-2.624.53-4.646 1.026-6.021 1.496-.679.233-1.159.442-1.486.648-.294.186-.368.185-.31.239v96c-.058.054.016.053.31.239Z" style="fill:none" transform="matrix(.59234 0 0 .59234 52.181 4.794)"/></svg>