<svg xmlns="http://www.w3.org/2000/svg" viewBox="0 0 128 128"><path d="M110.847 18.026a35.75 35.75 0 0 1 6.109 27.046 33.671 33.671 0 0 1-5.017 12.543 35.364 35.364 0 0 1 3.482 22.69 33.555 33.555 0 0 1-15.162 22.479l-29.252 18.644c-16.654 10.612-39.69 5.666-51.358-11.029a35.767 35.767 0 0 1-6.109-27.047 33.647 33.647 0 0 1 5.02-12.543 35.348 35.348 0 0 1-3.485-22.691 33.56 33.56 0 0 1 15.161-22.479L59.489 6.995C76.145-3.618 99.182 1.33 110.846 18.026Zm-48.271 91.331 29.25-18.641a20.194 20.194 0 0 0 9.12-13.52 21.508 21.508 0 0 0-3.676-16.265 23.236 23.236 0 0 0-24.94-9.244 21.287 21.287 0 0 0-5.94 2.611l-11.16 7.114a6.551 6.551 0 0 1-1.797.789 7.003 7.003 0 0 1-7.512-2.789 6.489 6.489 0 0 1-1.106-4.902 6.079 6.079 0 0 1 2.747-4.071l29.253-18.644a6.498 6.498 0 0 1 1.797-.79 7.003 7.003 0 0 1 7.51 2.787 6.588 6.588 0 0 1 1.18 4.35l-.102 1.085 1.088.33a37.732 37.732 0 0 1 11.444 5.72l1.498 1.099.551-1.68c.295-.894.528-1.807.699-2.732a21.504 21.504 0 0 0-3.675-16.265 23.239 23.239 0 0 0-24.94-9.245 21.316 21.316 0 0 0-5.944 2.613L38.67 37.71a20.174 20.174 0 0 0-9.118 13.516 21.497 21.497 0 0 0 3.675 16.265 23.235 23.235 0 0 0 24.939 9.244 21.325 21.325 0 0 0 5.941-2.607l11.162-7.116a6.457 6.457 0 0 1 1.795-.79 7 7 0 0 1 7.512 2.789 6.493 6.493 0 0 1 1.107 4.903 6.089 6.089 0 0 1-2.748 4.072L53.681 96.627a6.442 6.442 0 0 1-1.797.791 6.995 6.995 0 0 1-7.508-2.788 6.56 6.56 0 0 1-1.181-4.35l.1-1.085-1.086-.329a37.687 37.687 0 0 1-11.443-5.718l-1.499-1.1-.551 1.68a20.594 20.594 0 0 0-.699 2.731 21.5 21.5 0 0 0 3.675 16.266 23.235 23.235 0 0 0 24.94 9.243 21.266 21.266 0 0 0 5.944-2.611Z" style="fill:#56565c"/></svg>