<?xml version="1.0" encoding="utf-8"?>
<svg id="Swift" viewBox="0 0 128 128" xmlns="http://www.w3.org/2000/svg">
  <defs>
    <style>.cls-1{fill:#f05138;}.cls-2{fill:#fefefe;}</style>
  </defs>
  <title>Artboard 1</title>
  <g id="orignal">
    <path class="cls-1" d="M 126.34 34.06 L 126.34 93.94 C 126.208 96.562 125.944 99.175 125.55 101.77 C 125.106 104.429 124.21 106.993 122.9 109.35 C 121.701 111.722 120.089 113.862 118.14 115.67 C 116.146 117.475 113.92 119.006 111.52 120.22 C 109.1 121.44 106.512 122.293 103.84 122.75 C 101.132 123.254 98.384 123.508 95.63 123.51 L 32.41 123.51 C 29.76 123.26 26.85 123.26 24.2 122.75 C 21.528 122.293 18.94 121.44 16.52 120.22 C 14.068 119.096 11.828 117.557 9.9 115.67 C 8.031 113.792 6.429 111.665 5.14 109.35 C 3.907 106.96 3.015 104.408 2.49 101.77 C 1.965 99.193 1.701 96.57 1.7 93.94 L 1.7 33.55 C 1.832 30.928 2.096 28.315 2.49 25.72 C 2.934 23.061 3.83 20.497 5.14 18.14 C 6.339 15.768 7.951 13.628 9.9 11.82 C 10.43 11.32 10.96 11.07 11.49 10.56 C 13.057 9.321 14.73 8.224 16.49 7.28 C 17.02 7.03 17.81 6.77 18.34 6.52 C 20.201 5.747 22.159 5.236 24.16 5 C 26.176 4.694 28.211 4.523 30.25 4.49 L 95.62 4.49 C 98.27 4.74 101.18 4.74 103.83 5.25 C 106.502 5.707 109.09 6.56 111.51 7.78 C 113.962 8.904 116.202 10.443 118.13 12.33 C 119.999 14.208 121.601 16.335 122.89 18.65 C 124.123 21.04 125.015 23.592 125.54 26.23 C 126.065 28.807 126.329 31.43 126.33 34.06 Z M 95.702 94.783 C 99.66 95.021 103.551 96.735 106.309 102.015 C 106.431 102.226 106.64 102.457 106.83 102.532 C 107.054 102.62 107.43 102.539 107.608 102.394 C 107.875 102.178 108.131 101.665 108.291 101.068 C 108.597 99.927 108.762 98.006 108.543 95.657 C 108.108 91.001 106.126 84.364 100.783 77.959 L 100.767 77.94 C 100.897 77.5 100.999 77.182 101.143 76.639 C 103.817 66.801 101.956 55.939 96.719 46.082 C 91.487 36.233 82.835 27.235 72.06 21.007 L 69.889 19.752 L 71.413 21.743 C 80.631 33.791 84.83 48.22 81.12 60.972 C 80.787 62.15 80.615 62.739 80.15 63.872 C 79.802 63.66 79.652 63.568 78.941 63.187 C 62.952 53.188 48.096 41.539 34.568 28.391 L 33.812 29.04 C 41.974 40.517 49.457 49.468 58.312 58.791 C 49.85 53.55 35.307 43.516 23.169 32.923 L 20.612 30.692 L 22.416 33.566 C 23.963 36.029 25.758 38.343 27.754 40.45 C 37.82 52.836 50.741 67.574 66.68 79.27 C 55.672 85.481 40.654 85.942 24.894 78.864 C 21.054 77.235 17.455 75.14 14.144 72.603 L 11.743 70.763 L 13.424 73.278 C 20.654 84.089 31.014 92.533 43.062 97.433 C 58.536 103.741 73.994 103.113 85.215 96.953 C 87.886 95.874 91.75 94.545 95.702 94.783 Z" style="fill: rgb(228, 228, 231);"/>
  </g>
</svg>