<svg xmlns="http://www.w3.org/2000/svg" viewBox="0 0 128 128"><path d="M1.408 1.408h125.184v125.185H1.408Zm114.939 95.328c-.917-5.711-4.641-10.508-15.672-14.981-3.832-1.761-8.104-3.022-9.377-5.926-.452-1.69-.512-2.642-.226-3.665.821-3.32 4.784-4.355 7.925-3.403 2.023.678 3.938 2.237 5.093 4.724 5.402-3.498 5.391-3.475 9.163-5.879-1.381-2.141-2.118-3.129-3.022-4.045-3.249-3.629-7.676-5.498-14.756-5.355l-3.688.477c-3.534.893-6.902 2.748-8.877 5.235-5.926 6.724-4.236 18.492 2.975 23.335 7.104 5.332 17.54 6.545 18.873 11.531 1.297 6.104-4.486 8.08-10.234 7.378-4.236-.881-6.592-3.034-9.139-6.949-4.688 2.713-4.688 2.713-9.508 5.485 1.143 2.499 2.344 3.63 4.26 5.795 9.068 9.198 31.76 8.746 35.83-5.176.165-.478 1.261-3.666.38-8.581ZM69.462 58.943H57.753l-.048 30.272c0 6.438.333 12.34-.714 14.149-1.713 3.558-6.152 3.117-8.175 2.427-2.059-1.012-3.106-2.451-4.319-4.485-.333-.584-.583-1.036-.667-1.071l-9.52 5.83c1.583 3.249 3.915 6.069 6.902 7.901 4.462 2.678 10.459 3.499 16.731 2.059 4.082-1.189 7.604-3.652 9.448-7.401 2.666-4.915 2.094-10.864 2.07-17.444.06-10.735.001-21.468.001-32.237Z" style="fill:#e4e4e7"/><path d="M116.84 96.653c.871 5.04-.221 8.305-.397 8.817-1.065 3.57-3.339 6.344-6.243 8.241-2.899 1.895-6.518 3.005-10.226 3.362-7.404.712-15.566-1.584-20.211-6.249-1.901-2.148-3.142-3.341-4.341-5.918l-.192-.413.398-.228a3080.735 3080.735 0 0 0 9.507-5.485l.411-.238.258.398c2.506 3.867 4.696 5.904 8.8 6.728 2.809.347 5.512.043 7.427-1.075.944-.551 1.611-1.231 2.025-2.182.418-.961.539-2.047.219-3.498-.542-2.336-3.342-3.721-6.989-5.306-3.651-1.588-8.079-3.251-11.692-5.947-3.679-2.512-6.024-6.828-6.619-11.303-.594-4.475.539-9.289 3.551-12.76 2.051-2.55 5.545-4.482 9.139-5.399l.028-.007 3.746-.484.026-.001c7.182-.123 11.792 1.826 15.13 5.512.926.942 1.687 1.962 3.078 4.117l.273.422-.424.271c-1.887 1.202-2.827 1.797-3.97 2.528-1.143.732-2.49 1.6-5.19 3.349l-.488.315-.237-.524c-1.087-2.399-2.85-3.823-4.792-4.459-1.493-.463-3.099-.433-4.506.092-1.398.522-2.449 1.434-2.785 2.97-.278.94-.218 1.75.219 3.371 1.139 2.734 5.238 3.855 9.101 5.626 11.135 4.552 14.999 9.534 15.966 15.357Zm-16.353-14.435c-3.798-1.748-8.216-3.145-9.647-6.188l-.014-.03-.011-.042c-.46-1.739-.519-2.823-.225-3.929.485-1.784 1.826-3.05 3.4-3.637 1.565-.584 3.506-.596 5.152-.109 2.101.721 3.898 2.192 5.142 4.481 2.395-1.55 3.585-2.317 4.729-3.05 1.145-.733 1.938-1.234 3.546-2.259-1.195-1.835-1.802-2.653-2.684-3.543-3.16-3.565-7.401-5.364-14.362-5.207l-3.633.47c-3.463.872-6.679 2.63-8.578 5.054-2.907 3.252-3.907 7.695-3.335 11.996.571 4.301 2.672 8.281 6.197 10.613 3.489 2.632 7.845 4.253 11.521 5.852 3.681 1.6 6.765 3.315 7.556 5.965.329 1.601.213 3.051-.268 4.155-.485 1.115-1.38 2.029-2.438 2.647-2.09 1.221-5.14 1.553-8.072 1.201-4.353-.941-6.737-3.058-9.235-6.776-2.077 1.201-3.109 1.799-4.298 2.484a2889.4 2889.4 0 0 1-4.406 2.537c1.033 2.137 2.052 3.074 3.979 5.249 4.424 4.527 12.149 6.62 19.375 5.925 3.608-.347 6.992-1.385 9.775-3.203 2.78-1.816 4.864-4.306 5.834-7.697.165-.478 1.258-3.563.368-8.353-.868-5.597-4.44-10.211-15.368-14.606Zm-30.526 8.963c.023 6.556.564 12.616-2.126 17.673-1.925 3.843-5.625 6.434-9.78 7.658-6.362 1.444-12.548.592-17.104-2.12-3.049-1.886-5.475-4.809-7.091-8.108l-.199-.408 10.177-6.232.184.129c.207.145.576.701.907 1.281 1.199 2.013 2.13 3.339 4.076 4.273.974.331 2.44.585 3.937.35 1.501-.237 2.872-.899 3.616-2.563 1.014-1.67.647-7.448.647-13.9l.049-30.771h12.708v.5c0 10.768.059 21.5-.001 32.238Zm-.999-31.738h-10.71l-.047 29.772c0 6.424.307 12.437-.773 14.385-.971 1.881-2.682 2.804-4.334 3.064-1.657.261-3.394-.045-4.443-.4l-.033-.011-.027-.013c-2.15-1.09-3.302-2.625-4.527-4.678-.335-.587-.282-.521-.351-.671l-8.755 5.361c1.54 3.023 3.584 5.508 6.509 7.287 4.367 2.643 10.169 3.433 16.346 2.002 4.003-1.155 7.362-3.483 9.125-7.138 2.637-4.772 2.044-10.618 2.019-17.221.06-10.732.003-21.136.001-31.739Z" style="fill:#e4e4e7"/></svg>