<svg width="32" height="33" viewBox="0 0 32 33" fill="none" xmlns="http://www.w3.org/2000/svg">
<path fill-rule="evenodd" clip-rule="evenodd" d="M23.2102 5.4937L25.6836 14.6599C25.7443 14.885 25.8819 15.0818 26.0724 15.2163L28.7408 17.0999C29.4619 17.609 29.21 18.6777 28.3313 18.7618C24.4318 19.1353 18.2509 19.322 15.9998 19.322C13.7488 19.322 7.56778 19.1353 3.66832 18.7618C2.78965 18.6777 2.53769 17.609 3.25883 17.0999L5.92726 15.2163C6.11777 15.0818 6.25529 14.885 6.31604 14.6599L8.78945 5.4937C8.91923 5.01278 9.38316 4.70069 9.87752 4.76176L15.8772 5.5029C15.9586 5.51296 16.041 5.51296 16.1224 5.5029L22.1221 4.76176C22.6165 4.70069 23.0804 5.01278 23.2102 5.4937ZM9.99956 28.6553C12.2087 28.6553 13.9996 26.8644 13.9996 24.6553H17.9996C17.9996 26.8644 19.7904 28.6553 21.9996 28.6553C24.2087 28.6553 25.9996 26.8644 25.9996 24.6553C25.9996 22.4462 24.2087 20.6553 21.9996 20.6553C20.2447 20.6553 18.7538 21.7854 18.2148 23.3575C18.1473 23.3345 18.0749 23.322 17.9996 23.322H13.9996C13.9242 23.322 13.8518 23.3345 13.7843 23.3575C13.2453 21.7854 11.7544 20.6553 9.99956 20.6553C7.79042 20.6553 5.99956 22.4462 5.99956 24.6553C5.99956 26.8644 7.79042 28.6553 9.99956 28.6553Z" fill="#E4E4E7"/>
</svg>
