<svg width="32" height="33" viewBox="0 0 32 33" fill="none" xmlns="http://www.w3.org/2000/svg">
<rect opacity="0.1" y="0.358398" width="32" height="32" rx="9.13761" fill="white" fill-opacity="0.6"/>
<path d="M13.1968 16.3588C13.1968 17.9044 14.4542 19.1618 15.9997 19.1618C17.5452 19.1618 18.8025 17.9044 18.8025 16.3588C18.8025 14.8131 17.5452 13.5557 15.9997 13.5557C14.4542 13.5557 13.1968 14.8131 13.1968 16.3588Z" fill="#E4E4E7"/>
<path d="M22.4543 12.6588C22.4761 12.6204 22.4758 12.5732 22.4532 12.5352C21.8003 11.4355 20.8712 10.5144 19.7663 9.87144C18.6276 9.20869 17.3252 8.8584 16.0003 8.8584C13.7072 8.8584 11.5703 9.88752 10.1373 11.6819C10.1056 11.7214 10.1015 11.7763 10.1268 11.8201L12.2381 15.4772C12.2603 15.5155 12.3011 15.5386 12.3446 15.5386C12.3501 15.5386 12.3557 15.5383 12.3612 15.5375C12.4107 15.5308 12.4512 15.4948 12.4637 15.4464C12.88 13.8332 14.3343 12.7066 16.0003 12.7066C16.1036 12.7066 16.2104 12.7113 16.3177 12.7205C16.3212 12.7208 16.3248 12.721 16.3282 12.721H22.3474C22.3917 12.721 22.4325 12.6972 22.4543 12.6588Z" fill="#E4E4E7"/>
<path d="M17.1082 19.9211C17.0777 19.8816 17.0264 19.8646 16.9781 19.878C16.6605 19.9664 16.3315 20.0112 16 20.0112C14.5914 20.0112 13.2932 19.185 12.6925 17.9065C12.6911 17.9033 12.6895 17.9003 12.6877 17.8972L9.67594 12.6804C9.65401 12.6423 9.61339 12.6189 9.56947 12.6189C9.56927 12.6189 9.56903 12.6189 9.56883 12.6189C9.52467 12.6191 9.48399 12.643 9.46235 12.6815C8.8328 13.7987 8.5 15.0703 8.5 16.3589C8.5 18.1667 9.15213 19.9129 10.3362 21.2758C11.5086 22.6251 13.1226 23.5132 14.881 23.7763C14.8871 23.7772 14.8932 23.7776 14.8993 23.7776C14.9427 23.7776 14.9835 23.7545 15.0057 23.7161L17.1175 20.058C17.1425 20.0147 17.1388 19.9606 17.1082 19.9211Z" fill="#E4E4E7"/>
<path d="M22.8694 13.5415H18.6412C18.5912 13.5415 18.5462 13.5718 18.5274 13.618C18.5085 13.6642 18.5195 13.7173 18.5551 13.7523C19.2626 14.4458 19.6522 15.3716 19.6522 16.359C19.6522 17.1065 19.4266 17.8259 18.9999 18.4394C18.9979 18.4422 18.9961 18.4451 18.9944 18.4481L15.9774 23.674C15.9553 23.7123 15.9555 23.7594 15.9777 23.7976C15.9998 23.8353 16.0403 23.8585 16.0839 23.8585C16.0843 23.8585 16.0848 23.8585 16.0853 23.8585C18.0707 23.8363 19.9337 23.0464 21.3312 21.6343C22.7299 20.221 23.5001 18.3475 23.5001 16.359C23.5001 15.4138 23.3264 14.4922 22.9838 13.6196C22.9653 13.5724 22.9199 13.5415 22.8694 13.5415Z" fill="#E4E4E7"/>
</svg>
