<svg width="16" height="17" viewBox="0 0 16 17" fill="none" xmlns="http://www.w3.org/2000/svg">
<path fill-rule="evenodd" clip-rule="evenodd" d="M2.3521 5.78519C1.88429 6.07758 1.6001 6.59033 1.6001 7.14199V13.4552C1.6001 14.3389 2.31644 15.0552 3.2001 15.0552H12.8001C13.6838 15.0552 14.4001 14.3389 14.4001 13.4552V7.14199C14.4001 6.59033 14.1159 6.07758 13.6481 5.7852L8.8481 2.7852C8.32926 2.46092 7.67093 2.46092 7.1521 2.78519L2.3521 5.78519ZM4.44386 7.72297C4.07623 7.47788 3.57954 7.57722 3.33446 7.94485C3.08938 8.31247 3.18871 8.80916 3.55634 9.05425L7.55634 11.7209C7.82506 11.9001 8.17514 11.9001 8.44386 11.7209L12.4439 9.05425C12.8115 8.80916 12.9108 8.31247 12.6657 7.94485C12.4207 7.57722 11.924 7.47788 11.5563 7.72297L8.0001 10.0938L4.44386 7.72297Z" fill="#6C6C71"/>
</svg>
