<svg width="32" height="33" viewBox="0 0 32 33" fill="none" xmlns="http://www.w3.org/2000/svg">
<path d="M22.9556 13.89C22.6126 13.1306 21.9756 12.3236 21.4365 12.0388C21.8776 12.8457 22.1226 13.6527 22.2206 14.2698C21.3875 12.2287 19.9175 11.3742 18.7414 9.57042C18.6924 9.47549 18.6434 9.38055 18.5454 9.28561C18.4964 9.23815 18.4964 9.19068 18.4474 9.14321C18.3984 9.04827 18.3494 8.95334 18.3494 8.8584C16.6833 9.80777 15.9973 11.4692 15.8013 12.5135C15.2623 12.5609 14.7723 12.6559 14.3312 12.8932C14.2332 12.9407 14.1842 13.0356 14.2332 13.1306C14.2822 13.2255 14.3802 13.273 14.4782 13.2255C14.8703 13.0356 15.3113 12.9407 15.8013 12.8932H15.8503C15.8993 12.8932 15.9973 12.8932 16.0463 12.8932C16.3893 12.8932 16.7813 12.9407 17.1244 13.0356H17.1734C17.2224 13.0356 17.2714 13.0831 17.3694 13.0831C17.4184 13.0831 17.4674 13.1306 17.5164 13.1306C17.5654 13.1306 17.5654 13.178 17.6144 13.178C17.6634 13.178 17.7124 13.2255 17.7614 13.273L17.8104 13.3204C17.8594 13.3679 17.9084 13.3679 17.9574 13.4154C18.0064 13.4154 18.0064 13.4628 18.0554 13.4628C18.5944 13.7951 19.0354 14.2223 19.3784 14.7919C18.9864 14.5071 18.2514 14.2698 17.5654 14.3647C20.2605 15.6938 19.5255 20.2033 15.8013 20.0135C15.4583 20.0135 15.1153 19.9185 14.8213 19.8236C14.7233 19.7761 14.6743 19.7761 14.5763 19.7287C14.5272 19.7287 14.4782 19.6812 14.4292 19.6812C13.4982 19.2065 12.7632 18.3521 12.6652 17.3078C12.6652 17.3078 13.0082 16.0736 15.1643 16.0736C15.4093 16.0736 16.0463 15.4565 16.0463 15.2666C16.0463 15.2192 14.7233 14.697 14.2332 14.2223C13.9392 13.985 13.8412 13.8426 13.6942 13.7476C13.6452 13.7002 13.5472 13.6527 13.4982 13.6052C13.3512 13.0356 13.3022 12.4185 13.4982 11.8014C12.7142 12.0862 12.0771 12.6084 11.6361 13.0831C11.3421 12.7033 11.3911 11.5166 11.3911 11.2793C11.3911 11.2793 11.1461 11.3742 11.1461 11.4217C10.9011 11.5641 10.6071 11.8014 10.4111 11.9913C10.1661 12.2287 9.92106 12.5135 9.72505 12.7983C9.23503 13.4628 8.89202 14.2223 8.69601 14.9818C8.69601 14.9818 8.64701 15.2666 8.598 15.6464C8.598 15.6938 8.598 15.7413 8.549 15.8362C8.549 15.9787 8.5 16.1211 8.5 16.2635C8.5 16.3584 8.5 16.4059 8.5 16.5008V16.5483C8.5 20.6306 11.8321 23.8584 15.9973 23.8584C19.7215 23.8584 22.8086 21.2476 23.3966 17.7824C23.3966 17.6875 23.3966 17.5926 23.4456 17.4976C23.5926 16.3109 23.4456 14.9818 22.9556 13.89Z" fill="#E4E4E7"/>
<rect opacity="0.1" y="0.358398" width="32" height="32" rx="9.13761" fill="white" fill-opacity="0.6"/>
</svg>
