<svg width="32" height="33" viewBox="0 0 32 33" fill="none" xmlns="http://www.w3.org/2000/svg">
<rect opacity="0.1" y="0.358398" width="32" height="32" rx="9.13761" fill="white" fill-opacity="0.6"/>
<path fill-rule="evenodd" clip-rule="evenodd" d="M16 8.8584C11.857 8.8584 8.5 12.2154 8.5 16.3584C8.5 20.5014 11.857 23.8584 16 23.8584C20.143 23.8584 23.5 20.5014 23.5 16.3584C23.5 12.2154 20.143 8.8584 16 8.8584ZM17.1654 9.89816L17.3949 9.94437L17.1203 11.3232L16.8908 11.2773L17.1654 9.89816ZM14.8346 22.8162L14.6051 22.7699L14.8797 21.3911L15.1092 21.437L14.8346 22.8162V22.8162ZM17.7924 10.0435L18.0164 10.1119L17.8121 10.7851L17.5881 10.7167L17.7924 10.0435ZM14.2075 22.6725L13.9836 22.6041L14.1879 21.9309L14.4119 21.9992L14.2075 22.6725ZM18.6204 10.3396L18.082 11.6391L17.8655 11.5491L18.4036 10.2497L18.6204 10.3397V10.3396ZM13.3815 22.3763L13.9196 21.0772L14.1361 21.1671L13.598 22.4663L13.3815 22.3763V22.3763ZM18.99 10.5152L19.1959 10.6256L18.8651 11.2455L18.6589 11.1347L18.99 10.5152ZM13.01 22.2011L12.804 22.0903L13.136 21.4708L13.3422 21.5813L13.01 22.2011ZM21.8437 13.3681L21.2245 13.6998L21.114 13.4935L21.7327 13.1619C21.6663 13.0424 21.5959 12.925 21.5218 12.8101L20.353 13.5921L20.2246 13.3961L21.3936 12.6141C21.315 12.5025 21.2333 12.3948 21.1481 12.286L20.6063 12.7314L20.4571 12.5496L20.9989 12.1042C20.9106 12.0012 20.817 11.9015 20.7231 11.8024L20.3564 12.1692L16.9376 17.2963L11.8103 20.7154L11.4412 21.0822C11.5406 21.176 11.6411 21.2696 11.7458 21.3576L12.1912 20.8158L12.373 20.965L11.9276 21.5068C12.0336 21.5912 12.1441 21.671 12.2557 21.7496L13.0322 20.5805L13.2281 20.709L12.4461 21.8777C13.2691 22.4084 14.2147 22.7597 15.2351 22.8771L15.3027 22.177L15.5369 22.2002L15.4693 22.9003C15.6069 22.9125 15.742 22.918 15.8799 22.9211V21.5146H16.1143V22.9211C16.2522 22.918 16.39 22.9117 16.5251 22.9003L16.4551 22.2002L16.6893 22.177L16.7593 22.8771C16.8969 22.861 17.0317 22.8403 17.1668 22.8162L16.8925 21.4387L17.1223 21.3928L17.3963 22.7708C17.5308 22.7417 17.662 22.7074 17.7933 22.67L17.5887 21.9973L17.8127 21.929L18.0172 22.6022L17.7982 22.6692C18.0045 22.6105 18.2055 22.5416 18.4028 22.4643L17.8655 21.1671L18.082 21.0771L18.6196 22.3746C18.745 22.3204 18.8668 22.262 18.988 22.2L18.6567 21.5813L18.8629 21.4708L19.1946 22.0901C19.3147 22.0233 19.4335 21.9547 19.5483 21.8802L18.7663 20.7115L18.9623 20.583L19.7443 21.752C19.8559 21.6734 19.9636 21.5918 20.0724 21.5065L19.627 20.9648L19.8088 20.8156L20.2542 21.3601C20.3561 21.272 20.4569 21.1785 20.556 21.0844L19.5633 20.0917L19.7299 19.9247L20.7229 20.9177C20.8167 20.8181 20.9103 20.719 20.9986 20.6129L20.4569 20.1675L20.6061 19.9856L21.1478 20.4311L21.1484 20.4308C21.2328 20.322 21.3153 20.2143 21.3912 20.1083L20.2221 19.3262L20.3506 19.1303L21.5193 19.9123C21.7103 19.6164 21.8762 19.3033 22.0184 18.9777L20.7193 18.4398L20.8093 18.2234L22.1087 18.7615C22.3124 18.2441 22.4528 17.696 22.5186 17.1233L21.8186 17.0557L21.8418 16.8215L22.5419 16.8891C22.5541 16.7515 22.5596 16.6164 22.5627 16.4786L21.1561 16.4783V16.2441H22.5627C22.5596 16.1062 22.5533 15.9684 22.5419 15.8333L21.8418 15.9033L21.8186 15.6691L22.5186 15.5991C22.4295 14.8209 22.2009 14.0652 21.8438 13.3681H21.8437ZM10.1606 19.3484L10.7793 19.017L10.8898 19.2233L10.2708 19.5549C10.3367 19.675 10.4054 19.7921 10.4798 19.9067L11.6489 19.1247L11.7781 19.3207L10.6091 20.1027V20.1019C10.6877 20.2135 10.7666 20.3242 10.8519 20.4299L11.3936 19.9845L11.5428 20.1664L11.0011 20.6118C11.0894 20.714 11.183 20.8145 11.2768 20.9138L11.6436 20.547L15.0623 15.4197L20.1897 12.0009L20.5645 11.6341C20.4649 11.5403 20.3658 11.4467 20.2597 11.3584L19.8143 11.9002L19.6324 11.751L20.0779 11.2092C19.9732 11.125 19.8614 11.0453 19.7498 10.9664L18.9678 12.1354L18.7718 12.0062L19.5539 10.8371C18.7309 10.3067 17.7852 9.95518 16.7648 9.83806L16.6973 10.5381L16.4631 10.5146L16.5306 9.81455C16.3931 9.80265 16.258 9.79684 16.1201 9.79407V11.2003H15.8848V9.79407C15.7469 9.79684 15.6091 9.80321 15.474 9.81455L15.5443 10.5146L15.3101 10.5382L15.2398 9.83809C14.2208 9.95518 13.2741 10.304 12.4511 10.8346L13.2331 12.0037L13.0371 12.1329L12.2551 10.9639C12.1435 11.0436 12.0356 11.1253 11.9271 11.2106L12.3722 11.7523L12.1906 11.9015L11.7452 11.357C11.6419 11.4453 11.5425 11.5389 11.4432 11.6327L12.4361 12.6254L12.2692 12.7923L11.2762 11.7996C11.1824 11.899 11.0888 11.9995 11.0008 12.1042L11.5425 12.5496L11.3933 12.7314L10.8516 12.286C10.7672 12.392 10.6874 12.5025 10.6088 12.6141L11.7806 13.3906L11.6513 13.5866L10.4823 12.8045C10.4068 12.9216 10.3352 13.0412 10.2675 13.163L10.887 13.4933L10.7763 13.7006L10.157 13.3695C10.0953 13.4905 10.0374 13.6134 9.9832 13.738L11.2823 14.2764L11.1924 14.4929L9.8935 13.9547C9.84311 14.0821 9.79745 14.2116 9.75482 14.3428L10.4267 14.5471L10.3583 14.7711L9.68753 14.5673C9.65045 14.698 9.61834 14.8301 9.589 14.964L10.964 15.2381L10.9177 15.4676L9.54276 15.1938C9.51838 15.3256 9.49874 15.4595 9.48297 15.5935L10.1833 15.6611L10.1598 15.8953L9.45972 15.8277C9.44753 15.9653 9.442 16.1004 9.43923 16.2383L10.8455 16.2385V16.4727H9.43923C9.442 16.6106 9.44838 16.7484 9.45972 16.8835L10.1598 16.8135L10.1833 17.0477L9.48297 17.1177C9.49874 17.2545 9.52007 17.389 9.5436 17.523L10.9189 17.2492L10.9648 17.4787L9.589 17.7528C9.61806 17.8876 9.65294 18.0199 9.69002 18.1514L10.3591 17.9482L10.4275 18.1722L9.7573 18.3756C9.79929 18.5057 9.84536 18.6344 9.89545 18.7615L11.1907 18.225L11.2807 18.4415L9.98486 18.9783C10.0391 19.1042 10.0983 19.2268 10.1606 19.3484V19.3484ZM22.0179 13.7399L22.1078 13.9564L20.8087 14.4946L20.7187 14.2781L22.0179 13.7399V13.7399ZM22.3132 14.5668L21.64 14.7714L21.5716 14.5474L22.2449 14.3429L22.3132 14.5668ZM22.4577 15.193L21.0786 15.4676L21.0327 15.2381L22.4115 14.9635L22.4577 15.193ZM22.4126 17.7534L21.0337 17.4787L21.0797 17.2492L22.4588 17.5238L22.4126 17.7533V17.7534ZM22.2449 18.3748L21.5716 18.1705L21.64 17.9466L22.3132 18.1509L22.2449 18.3748ZM9.90156 13.934L9.9824 13.7399C9.9545 13.8042 9.92755 13.8689 9.90156 13.934V13.934ZM21.7311 19.5543L21.1102 19.2235L21.2206 19.0173L21.8415 19.3484L21.7311 19.5543V19.5543ZM12.801 10.6257L13.0073 10.5152L13.3394 11.1348L13.1332 11.2455L12.801 10.6257ZM13.598 10.2514L14.1361 11.5508L13.9197 11.6408L13.3815 10.3416L13.598 10.2514V10.2514ZM14.2076 10.0435L14.4119 10.7168L14.1879 10.7851L13.9836 10.1119L14.2076 10.0435V10.0435ZM14.8357 9.90012L15.1103 11.279L14.8808 11.3252L14.6062 9.94606L14.8357 9.90012H14.8357ZM22.5391 15.7849L22.5242 15.6293C22.5272 15.6816 22.5328 15.7311 22.5391 15.7849ZM21.5135 12.796L21.4075 12.6376C21.4421 12.69 21.4775 12.7426 21.5135 12.796ZM21.1066 12.2363L21.0418 12.1573C21.0651 12.1836 21.0858 12.2099 21.1066 12.2363ZM20.198 11.3139L20.1194 11.2491C20.1485 11.2723 20.172 11.2928 20.198 11.3139ZM19.7208 10.9498L19.5625 10.8449C19.6148 10.8809 19.6685 10.9153 19.7208 10.9498V10.9498ZM16.7291 9.83727L16.5708 9.82234C16.6231 9.82538 16.6768 9.83091 16.7291 9.83729V9.83727ZM15.4264 9.81929L15.268 9.83424C15.3204 9.8312 15.3727 9.82566 15.4264 9.81929V9.81929ZM12.4375 10.8449L12.2792 10.9498C12.3315 10.9141 12.3841 10.8798 12.4375 10.8449V10.8449ZM11.8778 11.2519L11.8019 11.3139C11.828 11.2934 11.8515 11.2726 11.8778 11.2519ZM10.9554 12.1604L10.8906 12.239C10.9139 12.2127 10.9344 12.1864 10.9554 12.1604ZM10.5914 12.6376L10.4865 12.796C10.5225 12.7437 10.5568 12.6911 10.5914 12.6376ZM9.47884 15.6293L9.46391 15.7876C9.46696 15.7353 9.47249 15.6827 9.47884 15.6293ZM9.46087 16.9331L9.47582 17.0914C9.47277 17.0391 9.46722 16.9857 9.46087 16.9331ZM10.4865 19.9181L10.5914 20.0764C10.5557 20.0269 10.5214 19.9743 10.4865 19.9181ZM10.9554 20.5565C10.9349 20.5304 10.9142 20.5069 10.8934 20.4806L10.9554 20.5565ZM11.802 21.403L11.8778 21.465C11.8515 21.4445 11.828 21.424 11.802 21.403ZM12.2792 21.764L12.4375 21.87C12.3852 21.8382 12.3326 21.8024 12.2792 21.764ZM15.2708 22.8796L15.4292 22.8945C15.3769 22.8915 15.3243 22.8859 15.2708 22.8796V22.8796ZM16.5747 22.8976L16.7303 22.8826C16.6779 22.8856 16.6281 22.8912 16.5747 22.8976H16.5747ZM19.5625 21.8719L19.7208 21.7659C19.6685 21.8005 19.6148 21.8359 19.5625 21.8719V21.8719ZM20.1222 21.465L20.2011 21.4002C20.1748 21.4235 20.1485 21.4442 20.1222 21.465ZM20.6351 21.0046L20.6462 20.9936L20.6351 21.0046ZM21.0446 20.5565L21.1094 20.4778C21.0861 20.5041 21.0656 20.5304 21.0446 20.5565ZM22.5391 16.9292C22.5336 16.9815 22.5306 17.0352 22.5242 17.0876L22.5391 16.9292ZM21.5135 19.9209C21.4786 19.9732 21.4432 20.0269 21.4075 20.0792L21.5135 19.9209Z" fill="#E4E4E7"/>
</svg>
