<svg width="49" height="48" viewBox="0 0 49 48" fill="none" xmlns="http://www.w3.org/2000/svg">
<path fill-rule="evenodd" clip-rule="evenodd" d="M27.5237 6.81553L31.2353 10.6214C31.1595 10.6258 31.0849 10.6306 31.012 10.6355L30.8718 10.6451C30.5714 10.6658 30.2938 10.685 30.0068 10.685L13.9336 10.685L23.0538 6.33026C23.4903 6.1338 24.2574 6 25.1162 6C25.5255 6 26.0101 6.10813 26.4781 6.28211C26.9183 6.44578 27.292 6.64828 27.5237 6.81553ZM11.2671 34.5867V13.3913L35.4727 38.3303V44L19.8873 44L11.2671 34.5867ZM32.477 12.2465L30.0487 12.2465L30.0068 12.2466L12.3713 12.2466L36.5765 37.2325L42.5 37.2325V21.9068L33.3487 12.7887C33.0585 12.4878 32.777 12.3285 32.477 12.2465ZM4.84297 24.9191C4.67973 25.3781 4.5 26.0764 4.5 26.4559C4.5 27.2987 4.99324 28.0793 5.61272 28.9126L9.70544 33.0053V14.8716L4.84297 24.9191Z" fill="#ADADB0"/>
</svg>
