<svg xmlns="http://www.w3.org/2000/svg" width="47" height="48" fill="none" viewBox="0 0 47 48"><path fill="#ADADB0" d="M21.0833 6.00925C20.9992 6.01811 20.7291 6.0491 20.4856 6.07123C17.0235 6.43425 13.6146 7.8996 10.8343 10.2282C10.3207 10.6532 9.15191 11.822 8.7269 12.3355C6.42474 15.0847 5.07886 18.1703 4.58301 21.8226C4.47233 22.6328 4.47233 25.3687 4.58301 26.1789C5.07886 29.8312 6.42474 32.9168 8.7269 35.666C9.15191 36.1795 10.3207 37.3483 10.8343 37.7733C13.5836 40.0753 16.6693 41.4212 20.3218 41.917C21.132 42.0277 23.868 42.0277 24.6782 41.917C28.3307 41.4212 31.4164 40.0753 34.1657 37.7733C34.6793 37.3483 35.8481 36.1795 36.2731 35.666C38.5753 32.9168 39.9211 29.8312 40.417 26.1789C40.5277 25.3687 40.5277 22.6328 40.417 21.8226C39.9211 18.1703 38.5753 15.0847 36.2731 12.3355C35.8481 11.822 34.6793 10.6532 34.1657 10.2282C31.4253 7.93502 28.3085 6.57149 24.7048 6.08894C24.3152 6.03582 23.7485 6.01368 22.6992 6.00483C21.8979 5.99597 21.1674 6.0004 21.0833 6.00925ZM21.3046 7.92173C21.3046 8.4397 21.3401 9.56417 21.3888 10.6311C21.4153 11.1535 21.4463 11.9016 21.4596 12.2912C21.5083 13.6725 21.6544 17.2982 21.6765 17.6214L21.6987 17.9446L21.4994 17.9224C21.3888 17.9136 21.2869 17.887 21.2692 17.8737C21.2559 17.856 21.225 17.5506 21.2073 17.192C21.1276 15.6159 20.8664 9.50219 20.8398 8.60793L20.8132 7.62512L20.9372 7.60741C21.0036 7.59856 21.1143 7.58528 21.1851 7.58085L21.3046 7.57643V7.92173ZM25.5415 7.81549C25.5459 7.81991 25.5592 9.15688 25.5725 10.786C25.5902 12.4196 25.6123 13.885 25.6256 14.0443C25.6389 14.2081 25.6345 14.3498 25.6123 14.3587C25.5946 14.3719 25.484 14.3719 25.3733 14.3587L25.1696 14.3409L25.1386 13.0527C25.1209 12.3399 25.0988 11.5519 25.0899 11.2951C25.0545 10.5116 25.0235 7.8509 25.0501 7.7845C25.0678 7.7358 25.1165 7.73137 25.3024 7.76236C25.4308 7.78893 25.5371 7.81106 25.5415 7.81549ZM15.3013 9.29855C15.3279 9.33839 15.536 11.7777 15.7928 14.9696C15.8769 16.0542 15.961 17.0459 15.9743 17.1698C15.9964 17.3956 15.992 17.4045 15.8503 17.493C15.7706 17.5417 15.6909 17.5815 15.6732 17.5815C15.6599 17.5815 15.6334 17.4664 15.6201 17.3248C15.5581 16.7493 15.319 13.9691 15.1508 11.9592C15.0534 10.7772 14.9649 9.71911 14.9516 9.60401C14.9294 9.40922 14.9339 9.39151 15.049 9.32953C15.1906 9.25428 15.2703 9.24099 15.3013 9.29855ZM27.4895 10.1884C27.6134 10.2327 27.6267 10.2548 27.6533 10.5071C27.6976 10.9498 27.6843 13.066 27.6356 13.066C27.5072 13.066 27.2416 12.9154 27.2194 12.8313C27.2061 12.7782 27.1929 12.1496 27.1929 11.4368C27.1929 9.99802 27.1752 10.0821 27.4895 10.1884ZM19.3124 10.3965C19.3124 10.516 19.3434 11.1756 19.3788 11.8707C19.4142 12.5657 19.4541 13.4467 19.4718 13.8274C19.5028 14.5977 19.5116 14.5712 19.215 14.5889C19.0689 14.5933 19.0689 14.5933 19.06 14.3719C19.0512 14.248 19.0291 13.8628 19.0025 13.5087C18.9804 13.1545 18.9272 12.3886 18.8918 11.8043C18.8564 11.2199 18.8121 10.6399 18.7988 10.516C18.7723 10.2946 18.7767 10.2858 18.8962 10.2415C18.9671 10.2149 19.091 10.1928 19.1707 10.1928C19.3124 10.1884 19.3124 10.1884 19.3124 10.3965ZM31.5935 11.003L31.7441 11.0649L31.775 11.6582C31.7883 11.9813 31.7972 12.6808 31.7883 13.2076L31.775 14.1727L31.5891 14.0798L31.4032 13.9912L31.3899 12.5214C31.381 11.7113 31.3854 11.0251 31.3943 10.9941C31.412 10.9277 31.412 10.9277 31.5935 11.003ZM23.5094 11.5829C23.536 11.6095 23.598 13.7566 23.6024 14.8456L23.6068 15.5008L23.3987 15.4698C23.2792 15.4566 23.1818 15.4433 23.1774 15.4389C23.1641 15.43 23.0313 12.1496 23.0313 11.8308V11.5032L23.2571 11.5298C23.3854 11.5475 23.4961 11.5696 23.5094 11.5829ZM33.7053 11.8972C33.7584 11.9592 33.7673 12.9287 33.7806 18.2766C33.7939 24.4169 33.7939 24.5763 33.7142 24.5763C33.6655 24.5763 33.5991 24.5497 33.5592 24.5187C33.4928 24.47 33.484 23.9343 33.4618 18.6883C33.4441 15.5097 33.422 12.6233 33.4087 12.2735L33.3821 11.636L33.5105 11.729C33.5858 11.7821 33.6699 11.8574 33.7053 11.8972ZM29.7341 12.8048C29.7562 12.8225 29.7784 13.0748 29.7828 13.3626C29.8049 14.3409 29.8094 20.3396 29.7872 20.3573C29.7784 20.3662 29.6987 20.344 29.6101 20.3086L29.4507 20.2422V16.4748V12.7118L29.5747 12.7384C29.6411 12.7561 29.712 12.7826 29.7341 12.8048ZM17.5149 13.0527C17.5282 13.1722 17.5504 13.4423 17.5636 13.6636C17.5769 13.8805 17.6079 14.3764 17.6345 14.7615C17.6876 15.5407 17.6788 15.5894 17.4264 15.5894C17.2936 15.5894 17.2759 15.5761 17.2582 15.4433C17.2139 15.1821 17.0589 13.004 17.0811 12.9686C17.1032 12.9376 17.3334 12.8579 17.4397 12.849C17.4662 12.8446 17.5017 12.9376 17.5149 13.0527ZM10.1923 14.1816C10.241 14.6508 10.3384 15.6336 10.4092 16.3641C10.4845 17.0946 10.5465 17.7144 10.5465 17.7409C10.5465 17.794 10.2056 17.9623 10.1702 17.9269C10.148 17.9047 9.70531 13.9868 9.70531 13.8097C9.70531 13.7035 10.0462 13.2563 10.0905 13.305C10.1038 13.3139 10.148 13.7079 10.1923 14.1816ZM27.5515 14.6464L27.6799 14.7217L27.6843 15.6779C27.6887 16.2003 27.6976 16.7847 27.6976 16.975C27.7064 17.3735 27.6577 17.4399 27.4187 17.3558L27.2814 17.3071V16.9263C27.2814 16.7138 27.2681 16.0985 27.2504 15.554L27.2239 14.5712H27.3257C27.3788 14.5712 27.4806 14.6066 27.5515 14.6464ZM12.1359 16.3641C12.2156 17.2141 12.3439 18.6485 12.4281 19.5516L12.5786 21.1896L12.4059 21.3622L12.2377 21.5349L12.2067 21.1852C12.189 20.9904 12.1004 20.0872 12.0075 19.1753C11.9145 18.2633 11.7817 16.9396 11.7153 16.2357L11.5913 14.9607L11.764 14.8014C11.9189 14.6553 11.9366 14.6508 11.9676 14.7305C11.9853 14.7748 12.0606 15.5097 12.1359 16.3641ZM8.81987 16.8998C8.91727 17.7719 9.17405 20.0917 9.39541 22.0529C9.61677 24.014 9.82485 25.9044 9.86469 26.2585C9.90011 26.6127 9.96209 27.1484 9.99751 27.4538C10.0595 27.9718 10.0595 28.0072 9.98866 28.0604C9.8824 28.14 9.83813 28.1312 9.83813 28.0382C9.83813 27.9984 9.79828 27.6619 9.74959 27.2989C9.6699 26.6924 9.53708 25.6653 9.24045 23.3588C9.17847 22.894 9.05894 21.9687 8.97482 21.3003C8.88628 20.6318 8.75789 19.6357 8.68705 19.0867C8.61621 18.5378 8.49668 17.5992 8.42142 16.9927C8.34173 16.3907 8.29303 15.855 8.30631 15.7974C8.3373 15.6779 8.59851 15.2618 8.62507 15.2883C8.63392 15.3016 8.72247 16.0232 8.81987 16.8998ZM7.46514 18.8078C7.53154 19.3391 7.65551 20.3086 7.73962 20.9682C7.82374 21.6234 7.92999 22.4424 7.97869 22.7833L8.06281 23.4031L7.96984 23.4828C7.91671 23.5271 7.86359 23.5448 7.84588 23.5271C7.82817 23.5094 7.79275 23.3323 7.76619 23.1375C7.73962 22.9427 7.57582 21.8049 7.39873 20.6141L7.08439 18.4448L7.18622 18.1438C7.23935 17.98 7.2969 17.8472 7.31018 17.8472C7.32789 17.8472 7.3943 18.281 7.46514 18.8078ZM31.7706 18.2279C31.8326 18.2899 31.8415 18.5643 31.8415 20.5964V22.894H31.7175C31.4474 22.894 31.4519 22.9604 31.4341 20.4458L31.4209 18.1571H31.5625C31.6378 18.1571 31.7352 18.188 31.7706 18.2279ZM22.0794 19.0203C23.08 19.1708 23.9521 19.4498 24.8154 19.8925C25.3733 20.1802 25.6389 20.3794 26.2587 20.9727C27.1796 21.8536 27.7463 22.6239 28.2775 23.713C29.0523 25.2979 29.3533 26.7012 29.7341 30.4642C29.9068 32.1509 30.1325 35.21 30.1812 36.4629C30.1945 36.8259 30.2255 37.4235 30.2521 37.791C30.3008 38.5701 30.3583 38.4639 29.6721 38.7959C28.7203 39.2563 27.8038 39.5751 26.5952 39.8717C25.1165 40.2347 24.1602 40.3498 22.6992 40.3542L21.6367 40.3587L21.6455 39.8496C21.6455 39.5707 21.6721 38.9199 21.6987 38.4108C21.8315 35.9449 21.8049 32.8327 21.6323 31.1062C21.5349 30.1145 21.3445 28.9103 21.2382 28.6447C21.2161 28.5872 21.3179 28.5385 21.7562 28.388C22.5576 28.109 23.2526 27.7593 23.3589 27.5867C23.5493 27.2591 23.2084 26.7898 22.7745 26.7898C22.6992 26.7898 22.4734 26.8695 22.2654 26.9624C21.2737 27.4184 19.2858 27.9541 18.1392 28.0736C17.3467 28.1577 16.1159 28.109 15.2615 27.9541C14.7966 27.87 13.9643 27.5557 13.2692 27.1971C12.4679 26.7809 11.9765 26.2276 11.8304 25.5724C11.7507 25.2182 11.7728 24.5099 11.8747 24.1114C11.9853 23.6732 12.2952 23.0357 12.5786 22.6638C13.8403 21.0036 16.4436 19.5649 19.1132 19.0602C19.9632 18.9008 21.1674 18.8831 22.0794 19.0203ZM35.7374 19.1576C35.8968 19.224 35.9145 19.2417 35.9145 19.3922C35.9234 20.6008 35.8968 23.3633 35.8747 23.4784C35.8702 23.5182 35.64 23.5226 35.5426 23.4872C35.4806 23.4651 35.4718 23.226 35.4718 21.2737C35.4718 19.8748 35.4895 19.0867 35.5161 19.0867C35.5382 19.0867 35.64 19.1177 35.7374 19.1576ZM37.6721 21.588L37.8315 21.6544L37.8005 25.32C37.7651 29.9905 37.7607 30.1278 37.5924 30.5306C37.3179 31.1903 37.3312 31.3231 37.3578 28.4278C37.3666 26.9802 37.3888 25.5148 37.3976 25.1739C37.4065 24.833 37.4153 23.8724 37.4198 23.0357C37.4198 22.0263 37.433 21.5216 37.464 21.5216C37.4906 21.5216 37.5836 21.5526 37.6721 21.588ZM11.0468 22.6903C11.0733 23.0489 11.0645 23.0844 10.9361 23.3677L10.7944 23.6687L10.7413 23.226C10.6572 22.5177 10.6572 22.4867 10.8254 22.3805C10.9007 22.3273 10.9804 22.2919 10.9936 22.3008C11.0069 22.3096 11.0335 22.4867 11.0468 22.6903ZM8.31074 25.3599C8.35058 25.7229 8.66049 28.1312 8.81987 29.3132C9.05894 31.1416 9.07665 31.4028 8.97039 31.2921C8.95711 31.2788 8.85529 30.6635 8.74903 29.9241C8.05838 25.1518 8.06281 25.1828 8.12037 25.1474C8.2399 25.0677 8.27975 25.1119 8.31074 25.3599ZM11.4983 27.3874C11.5249 27.4981 11.6533 28.6978 11.6533 28.8439C11.6533 28.9679 11.4939 29.083 11.4231 29.0122C11.4009 28.99 11.3434 28.6137 11.2991 28.1799C11.2504 27.7416 11.2017 27.2856 11.1884 27.1661L11.1619 26.9447L11.3168 27.1218C11.4054 27.2192 11.4851 27.3387 11.4983 27.3874ZM15.0711 29.0564C15.1198 29.1007 15.1508 29.2778 15.1906 29.7559C15.2571 30.6192 15.2659 30.5528 15.0844 30.5528C14.8985 30.5528 14.9029 30.5661 14.8409 29.7869C14.7789 28.9945 14.7789 29.0033 14.8985 29.0033C14.956 29.0033 15.0313 29.0299 15.0711 29.0564ZM18.5775 29.1228C18.5863 29.1671 18.6085 29.4327 18.6262 29.7116C18.6395 29.9905 18.6793 30.6192 18.7147 31.1062C18.8387 32.8947 18.8431 33.1205 18.7678 33.1205C18.6837 33.1205 18.6749 33.0541 18.5775 31.7923C18.5421 31.27 18.4757 30.4465 18.4314 29.964C18.3915 29.4814 18.365 29.0786 18.3783 29.0697C18.427 29.0166 18.5553 29.0564 18.5775 29.1228ZM10.2543 29.9728C10.2809 30.0127 10.4491 31.4293 10.6572 33.3639C10.7191 33.9483 10.7811 34.5106 10.7944 34.6168L10.8165 34.8072L10.7059 34.7363C10.6217 34.6788 10.5908 34.6212 10.5908 34.5194C10.5908 34.2405 10.4004 32.4033 10.2543 31.2788C10.1702 30.6413 10.1038 30.0791 10.1038 30.026C10.1038 29.933 10.21 29.8976 10.2543 29.9728ZM35.8038 31.8233L35.7728 33.6738L35.6621 33.8376C35.4098 34.2095 35.4231 34.2803 35.4364 32.2085L35.4452 30.3093L35.609 30.1411C35.6976 30.0525 35.7861 29.9773 35.8038 29.9773C35.8171 29.9773 35.8171 30.8095 35.8038 31.8233ZM31.7086 34.7585C31.7308 37.3306 31.7263 37.5298 31.6555 37.6095C31.6112 37.6582 31.5714 37.6892 31.5581 37.6759C31.5271 37.6405 31.4828 32.0314 31.5183 32.0004C31.536 31.9827 31.5802 31.9739 31.6201 31.9783C31.6776 31.9916 31.6909 32.3059 31.7086 34.7585ZM17.2493 32.9965C17.2803 33.271 17.391 34.5858 17.4353 35.2056C17.4618 35.6217 17.4618 35.635 17.3644 35.666C17.3113 35.6837 17.2493 35.6793 17.2316 35.6572C17.2006 35.6262 17.1032 34.6434 16.9837 33.1293L16.9527 32.7663H17.0899C17.2183 32.7663 17.2272 32.7752 17.2493 32.9965ZM13.7695 34.546C13.8005 34.577 13.8226 34.6876 13.8226 34.7983C13.8226 34.9134 13.8758 35.5111 13.9333 36.1308C14.1016 37.8264 14.1148 38.0566 14.0396 38.0123C13.9245 37.9459 13.8226 37.8441 13.8448 37.8176C13.8536 37.7998 13.8359 37.5785 13.8005 37.3261C13.7695 37.0694 13.7297 36.6532 13.712 36.3965C13.6942 36.1397 13.6544 35.6704 13.619 35.3561C13.5349 34.5814 13.5393 34.4928 13.6367 34.4928C13.681 34.4928 13.7385 34.515 13.7695 34.546ZM15.8636 37.5254C15.8769 37.6228 15.9034 37.9858 15.9211 38.3311C15.9521 38.9951 15.9388 39.0438 15.7573 38.9066C15.7042 38.8668 15.6688 38.6985 15.6157 38.1939C15.5227 37.2819 15.5183 37.3173 15.6909 37.335C15.8193 37.3483 15.837 37.366 15.8636 37.5254Z"/><path fill="#232325" d="M14.2835 21.1409C13.8229 21.3401 13.7875 21.9645 14.2215 22.1859C14.5359 22.3453 14.8547 22.27 15.0186 21.9955C15.3285 21.4907 14.8237 20.9062 14.2835 21.1409Z"/><path fill="#232325" d="M17.2837 21.5655C16.8586 21.8267 16.8586 22.4555 17.2837 22.7168C17.7044 22.9692 18.2491 22.6371 18.2491 22.1323C18.2491 21.6452 17.6911 21.3175 17.2837 21.5655Z"/></svg>