<svg xmlns="http://www.w3.org/2000/svg" width="49" height="48" fill="none" viewBox="0 0 49 48"><path fill="#C3C3C6" stroke="#C3C3C6" stroke-width=".3" d="M6.09921 27.7844L6.09922 27.7845C6.24623 27.7233 6.40618 27.6881 6.57189 27.6913C6.57242 27.6913 6.57295 27.6913 6.57348 27.6914L6.5703 27.8413L6.09921 27.7844ZM6.09921 27.7844L6.09652 27.7856M6.09921 27.7844L6.09652 27.7856M6.09652 27.7856C5.94927 27.8503 5.81446 27.9427 5.70293 28.06C5.58941 28.1733 5.4992 28.3078 5.43988 28.457L5.43988 28.457M6.09652 27.7856L5.43988 28.457M5.43988 28.457L5.43945 28.4581M5.43988 28.457L5.43945 28.4581M5.43945 28.4581C5.38166 28.6068 5.35044 28.7637 5.35023 28.922C5.34697 29.0851 5.37853 29.2445 5.44102 29.3929C5.50293 29.54 5.59238 29.6738 5.70598 29.7871C5.81741 29.9044 5.95219 29.9972 6.10167 30.0597C6.25127 30.1221 6.41231 30.1528 6.57447 30.1498M5.43945 28.4581L7.70871 28.4573M7.70871 28.4573L7.70871 28.4573C7.77141 28.6062 7.80254 28.7651 7.80254 28.9266C7.80254 29.0881 7.77141 29.247 7.70871 29.3959C7.64696 29.5426 7.55714 29.6776 7.43834 29.7895C7.32608 29.904 7.1919 29.9948 7.04376 30.0567C6.89517 30.1188 6.73557 30.1504 6.57447 30.1498M7.70871 28.4573L7.70804 28.4557M7.70871 28.4573L7.70804 28.4557M6.57447 30.1498C6.57382 30.1498 6.57317 30.1498 6.57252 30.1498L6.57334 29.9998L6.5764 30.1498C6.57576 30.1498 6.57511 30.1498 6.57447 30.1498ZM7.70804 28.4557C7.64381 28.3078 7.55468 28.1733 7.43612 28.0614L7.70804 28.4557ZM12.2835 29.8124V19.8294C12.2953 19.4178 12.288 19.0064 12.2632 18.5953C12.3167 18.6914 12.3734 18.7857 12.4332 18.8779L19.5527 29.8938L19.597 29.9624H19.6787H21.6699H21.8199V29.8124V16V15.85H21.6699H20.0526H19.9026V16V25.7114C19.8919 26.193 19.9055 26.6761 19.9423 27.1573C19.8657 27.0341 19.7773 26.8945 19.6773 26.7386C19.6773 26.7386 19.6773 26.7386 19.6773 26.7386L12.7462 15.9191L12.7019 15.85H12.6199H10.5162H10.3662V16V29.8124V29.9624H10.5162H12.1335H12.2835V29.8124ZM32.7851 28.2957L32.786 28.1448H32.6351H27.0699V23.6593H31.9207H32.0707V23.5093V22.0522V21.9022H31.9207H27.0699V17.6132H32.2855H32.4355V17.4632V16V15.85H32.2855H25.2631H25.1131V16V29.8124V29.9624H25.2631H32.626H32.7751L32.776 29.8133L32.7851 28.2957ZM33.8724 15.85H33.7224V16V17.4632V17.6132H33.8724H37.7048V29.8124V29.9624H37.8548H39.472H39.622V29.8124V17.6132H43.5H43.65V17.4632V16V15.85H43.5H33.8724Z"/></svg>