<svg xmlns="http://www.w3.org/2000/svg" width="49" height="48" fill="none" viewBox="0 0 49 48"><path fill="#ADADB0" d="M26.1234 5.40541C25.1406 4.86365 23.8594 4.86608 22.8757 5.40541C17.9492 8.07022 13.0227 10.7358 8.0953 13.3994C7.1365 13.8938 6.48981 14.903 6.50012 15.9506V32.0516C6.4932 33.1196 7.17323 34.1385 8.15676 34.6262C9.57207 35.3642 10.9471 36.1771 12.388 36.866C14.0524 37.6676 16.1347 37.8449 17.8195 37.0089C19.187 36.316 19.7945 34.775 19.7928 33.3589C19.8038 28.0451 19.7945 22.7311 19.797 17.4174C19.8295 17.1812 19.6486 16.9288 19.3858 16.9345C18.7563 16.9247 18.1258 16.9288 17.4962 16.9328C17.2583 16.9108 17.0261 17.1045 17.0441 17.3389C17.0356 22.6184 17.0458 27.8996 17.039 33.1799C17.0527 33.9104 16.5493 34.6124 15.8311 34.8591C14.1724 35.4289 9.43812 32.416 9.43812 32.416C9.26438 32.3371 9.15405 32.1524 9.17108 31.9689C9.17108 26.6568 9.17193 21.3445 9.17108 16.0331C9.14721 15.819 9.28186 15.6262 9.48249 15.5387C14.3928 12.8896 19.3005 10.2339 24.2108 7.58314C24.3813 7.47157 24.6191 7.4719 24.7892 7.58395C29.6995 10.2339 34.6081 12.8872 39.5192 15.5364C39.7206 15.6237 39.8494 15.8198 39.8289 16.0331C39.8281 21.3445 39.8306 26.6568 39.8272 31.9681C39.8418 32.1561 39.7427 32.3383 39.5636 32.4208C34.6992 35.0556 29.7794 37.6053 24.959 40.3166C24.7486 40.4349 24.5104 40.5689 24.2748 40.4385C23.0071 39.7513 21.7549 39.0373 20.4914 38.3434C20.3541 38.2593 20.1792 38.2233 20.0359 38.3173C19.4694 38.6098 18.9367 38.8469 18.2862 39.0992C17.3725 39.4537 17.5185 39.5987 18.3424 40.0692C19.82 40.8888 21.3001 41.7052 22.7775 42.5256C23.7502 43.1205 25.0571 43.1629 26.0611 42.613C30.9885 39.9516 35.9142 37.2869 40.8424 34.6255C41.8234 34.1352 42.5068 33.1203 42.4999 32.0515V15.9506C42.5094 14.9243 41.8874 13.9331 40.9576 13.4314C36.0139 10.7536 31.0679 8.08159 26.1234 5.40541Z"/><path fill="#ADADB0" d="M33.558 17.4942C31.6241 16.4801 29.3234 16.4261 27.1744 16.5586C25.6219 16.709 23.989 17.1289 22.8578 18.2197C21.6977 19.3164 21.4452 21.0871 21.9962 22.5187C22.3911 23.5302 23.3851 24.1881 24.413 24.5361C25.7372 24.9942 27.1278 25.1359 28.519 25.2776C29.7879 25.4068 31.0571 25.5361 32.2767 25.9057C32.7749 26.0675 33.3551 26.3151 33.5077 26.8463C33.6485 27.4755 33.4941 28.2068 32.9729 28.644C31.3174 29.9283 26.7125 29.7315 25.0768 28.7207C24.4155 28.29 24.1306 27.5277 24.0147 26.8013C24.0018 26.5749 23.8159 26.3673 23.5651 26.3845C22.9372 26.3772 22.3093 26.3788 21.6814 26.3837C21.4623 26.3657 21.2345 26.5185 21.2225 26.7376C21.0935 30.0649 24.2111 31.5154 27.1361 31.8348C28.8073 31.9908 30.5151 31.9819 32.1607 31.6304C33.3977 31.3544 34.638 30.846 35.4896 29.9121C36.5396 28.7771 36.7461 27.0873 36.2751 25.6736C35.9151 24.6187 34.8862 23.9421 33.8345 23.594C32.4042 23.1133 30.7091 22.8549 29.4137 22.734C27.5308 22.5582 25.2932 22.63 24.7603 21.4172C24.5478 20.7822 24.7286 19.9937 25.324 19.6031C26.8993 18.5558 30.1053 18.6949 31.7367 19.4773C32.4858 19.845 32.9199 20.6 33.099 21.3624C33.1322 21.5864 33.286 21.82 33.5505 21.8102C34.174 21.8224 34.7976 21.8135 35.4212 21.8143C35.6354 21.829 35.8699 21.7105 35.9117 21.4956C35.8853 19.9022 35.0552 18.2713 33.558 17.4942Z"/></svg>