<svg width="49" height="48" viewBox="0 0 49 48" fill="none" xmlns="http://www.w3.org/2000/svg">
<path d="M21.6621 12H24.7168L23.8535 17.0484H26.5983C28.1034 17.0838 29.2248 17.4539 29.9628 18.1586C30.7154 18.8632 30.9367 20.2028 30.6268 22.1762L29.1438 30.9779H26.0449L27.4615 22.5726C27.6089 21.6914 27.5647 21.066 27.3287 20.696C27.0927 20.326 26.5836 20.1409 25.8014 20.1409L23.3444 20.1145L21.5293 30.9779H18.4747L21.6621 12Z" fill="#C3C3C6"/>
<path fill-rule="evenodd" clip-rule="evenodd" d="M7.66531 17.0485H13.5975C15.3386 17.066 16.6003 17.6654 17.3826 18.8459C18.1648 20.0263 18.4229 21.6387 18.1573 23.6829C18.0541 24.617 17.8253 25.5331 17.4711 26.4318C17.1316 27.3304 16.6596 28.1408 16.0545 28.8635C15.3165 29.7796 14.5272 30.3611 13.686 30.608C12.8449 30.8548 11.9741 30.978 11.0741 30.978H8.4179L7.57677 36H4.5L7.66531 17.0485ZM8.927 27.9912L10.2507 20.0882H10.6978C10.8603 20.0882 11.0298 20.0792 11.2069 20.0617C12.3876 20.0443 13.3686 20.1764 14.1509 20.4582C14.9477 20.74 15.2133 21.8062 14.9477 23.6564C14.6232 25.8592 13.9884 27.1454 13.0441 27.5155C12.0998 27.868 10.9192 28.0351 9.50251 28.0176H9.19262C9.10408 28.0176 9.01554 28.0087 8.927 27.9912Z" fill="#C3C3C6"/>
<path fill-rule="evenodd" clip-rule="evenodd" d="M39.8392 17.0485H33.907L30.7417 36H33.8184L34.6596 30.978H37.3158C38.2158 30.978 39.0866 30.8548 39.9277 30.608C40.7688 30.3611 41.5582 29.7796 42.2961 28.8635C42.9013 28.1408 43.3732 27.3304 43.7128 26.4318C44.0669 25.5331 44.2958 24.617 44.399 23.6829C44.6646 21.6387 44.4065 20.0263 43.6242 18.8459C42.842 17.6654 41.5803 17.066 39.8392 17.0485ZM36.4924 20.0882L35.1687 27.9912C35.2572 28.0087 35.3458 28.0176 35.4343 28.0176H35.7442C37.1608 28.0351 38.3415 27.868 39.2858 27.5155C40.2301 27.1454 40.8649 25.8592 41.1894 23.6564C41.455 21.8062 41.1894 20.74 40.3925 20.4582C39.6103 20.1764 38.6293 20.0443 37.4486 20.0617C37.2715 20.0792 37.1019 20.0882 36.9395 20.0882H36.4924Z" fill="#C3C3C6"/>
</svg>
