<svg xmlns="http://www.w3.org/2000/svg" width="49" height="48" fill="none" viewBox="0 0 49 48"><path fill="#ADADB0" fill-rule="evenodd" d="M20.6639 6C17.8391 6 15.5492 8.21725 15.5492 10.9524V14.3809H24.4016V15.3333H11.6147C8.78995 15.3333 6.5 17.5506 6.5 20.2857L6.5 27.7143C6.5 30.4494 8.78995 32.6666 11.6148 32.6666H14.5656V28.4762C14.5656 25.741 16.8555 23.5238 19.6803 23.5238H29.1229C31.5131 23.5238 33.4508 21.6477 33.4508 19.3333V10.9524C33.4508 8.21725 31.1608 6 28.336 6H20.6639ZM19.4836 12.0952C20.4614 12.0952 21.2541 11.3277 21.2541 10.3809C21.2541 9.43418 20.4614 8.66666 19.4836 8.66666C18.5058 8.66666 17.7131 9.43418 17.7131 10.3809C17.7131 11.3277 18.5058 12.0952 19.4836 12.0952Z" clip-rule="evenodd"/><path fill="#ADADB0" fill-rule="evenodd" d="M28.3355 41.9997C31.1603 41.9997 33.4502 39.7824 33.4502 37.0473V33.6187H24.5978L24.5978 32.6663L37.3846 32.6663C40.2094 32.6663 42.4994 30.4491 42.4994 27.714V20.2854C42.4994 17.5503 40.2094 15.333 37.3846 15.333L34.4338 15.333V19.5235C34.4338 22.2586 32.1439 24.4759 29.3191 24.4759L19.8764 24.4759C17.4862 24.4759 15.5486 26.352 15.5486 28.6663L15.5486 37.0473C15.5486 39.7824 17.8385 41.9997 20.6633 41.9997H28.3355ZM29.5158 35.9044C28.538 35.9044 27.7453 36.6719 27.7453 37.6187C27.7453 38.5655 28.538 39.333 29.5158 39.333C30.4936 39.333 31.2863 38.5655 31.2863 37.6187C31.2863 36.6719 30.4936 35.9044 29.5158 35.9044Z" clip-rule="evenodd"/></svg>