<svg width="49" height="48" viewBox="0 0 49 48" fill="none" xmlns="http://www.w3.org/2000/svg">
<path fill-rule="evenodd" clip-rule="evenodd" d="M16.3675 38.529C24.3368 39.6009 32.1645 40.6537 40.1477 41.727C37.4279 37.2661 34.7779 32.9192 32.1068 28.5369L16.3675 38.529V38.529ZM42.397 13.8367C41.6945 14.876 40.9906 15.9145 40.289 16.9544C37.8796 20.5255 35.4705 24.0966 33.0634 27.6694C32.9293 27.8683 32.7555 28.0261 32.9444 28.3328C35.2703 32.1166 37.5779 35.9115 39.8912 39.7029C40.2563 40.3018 40.6253 40.8983 41.0974 41.4729C41.5651 32.2706 42.0326 23.0681 42.5 13.8659L42.397 13.8367V13.8367ZM10.646 25.6344C10.7548 25.7359 11.0264 25.7951 11.1529 25.7336C13.3839 24.6534 15.629 23.5972 17.8113 22.4281C18.523 22.0471 19.0702 21.3639 19.6833 20.8099C21.7135 18.9756 23.7405 17.1377 25.7667 15.2994C25.8906 15.1865 26.0374 15.0773 26.1114 14.9349C26.8391 13.5337 27.5543 12.1253 28.2947 10.6764C27.4118 10.3494 26.5747 10.0295 25.7272 9.73852C25.6123 9.69907 25.4312 9.77739 25.3068 9.84571C23.3451 10.9254 21.3465 11.9475 19.4472 13.1249C18.4969 13.7141 17.7228 14.5822 16.8813 15.3382C15.5252 16.5577 14.1707 17.7799 12.8343 19.0205C12.4797 19.3498 12.1565 19.726 11.8803 20.1222C10.9663 21.4334 10.0796 22.7634 9.15228 24.1312C9.67049 24.6591 10.1417 25.1639 10.646 25.6344V25.6344ZM18.7998 23.8419C17.69 28.4609 16.5868 33.0539 15.4468 37.7978C20.7923 34.4045 26.0144 31.0895 31.2021 27.7969C27.0738 26.4805 22.9589 25.1682 18.7998 23.8419ZM41.0344 13.8813C36.5179 14.6248 32.1094 15.3503 27.6439 16.0852C29.1649 19.73 30.6554 23.3016 32.1883 26.9748C35.1539 22.5845 38.061 18.2822 41.0344 13.8813V13.8813ZM18.9861 22.8972C23.0532 24.1978 27.0393 25.4726 31.1411 26.7847C29.6178 23.1287 28.1468 19.6005 26.6452 15.9977C24.0875 18.3013 21.5682 20.571 18.9861 22.8972ZM10.814 28.328C9.37163 31.7247 7.97832 35.0059 6.55977 38.3463C9.28604 38.2668 11.9287 38.19 14.6623 38.1105C13.3789 34.8484 12.1208 31.6504 10.814 28.328V28.328ZM14.758 35.7874L14.8584 35.7657C15.8313 31.7807 16.8181 27.8232 17.8113 23.6824C15.5957 24.8169 13.4822 25.8988 11.311 27.0108C12.4191 29.8481 13.6006 32.8412 14.758 35.7874V35.7874ZM39.3997 13.235C38.1059 12.8974 36.8122 12.5587 35.5178 12.2234C33.6573 11.7414 31.7954 11.2655 29.9361 10.7793C29.7037 10.7184 29.5357 10.6787 29.3991 10.9545C28.7419 12.2808 28.0644 13.5972 27.3967 14.9186C27.3761 14.9595 27.3805 15.0124 27.3645 15.115C31.3936 14.5136 35.3956 13.9159 39.3971 13.3185L39.3997 13.235ZM31.8938 10.2182L42.4388 13.0921C41.8341 11.3944 41.2732 9.82027 40.6964 8.20124L31.9092 10.1207L31.8938 10.2182V10.2182ZM15.652 39.2942C14.346 39.1458 13.0052 39.2822 11.6807 39.3048C10.5926 39.3228 9.50452 39.3636 8.41645 39.3971C8.30445 39.4005 8.19275 39.4228 8.08104 39.5417C17.0766 40.361 26.0719 41.1802 35.0672 42L35.0855 41.8817C32.2019 41.4938 29.3181 41.1059 26.4346 40.7183C22.8413 40.2349 19.2542 39.7032 15.652 39.2942V39.2942ZM6.73763 35.2886C7.89679 32.6388 9.05101 29.9873 10.2148 27.3395C10.3312 27.074 10.3222 26.8936 10.0944 26.6798C9.60753 26.2233 9.15518 25.7313 8.62304 25.1859C7.90375 28.6847 7.20217 32.0969 6.5 35.5087L6.57863 35.545C6.63231 35.4601 6.69788 35.3798 6.73763 35.2886V35.2886ZM29.5842 9.5187C31.5389 9.0219 33.5221 8.63344 35.4937 8.20009C35.6214 8.17179 35.7461 8.13035 35.8718 8.0949L35.8523 8C33.0753 8.36788 30.2985 8.73605 27.3816 9.1228C28.1769 9.46496 28.7897 9.72051 29.5842 9.5187Z" fill="#C3C3C6"/>
</svg>
