<svg width="49" height="48" viewBox="0 0 49 48" fill="none" xmlns="http://www.w3.org/2000/svg">
<path d="M33.6744 37.7875C29.4307 40.2176 23.5957 40.4673 17.7253 37.9732C12.9721 35.9686 9.02821 32.4595 6.5 28.4502C7.71355 29.4526 9.12933 30.2548 10.6462 30.956C16.7087 33.7728 22.7699 33.5799 27.0354 30.9633C20.9677 26.3518 15.8038 20.3298 11.9611 15.4182C11.1517 14.6162 10.5449 13.6137 9.93815 12.7115C14.59 16.9218 21.9727 22.2345 24.6015 23.7389C19.0402 17.9241 14.0846 10.7068 14.2864 10.9069C23.0848 19.7287 31.2767 24.7412 31.2767 24.7412C31.5476 24.8926 31.7568 25.0188 31.925 25.1315C32.1023 24.6844 32.2578 24.2202 32.3887 23.7389C33.8045 18.6263 32.1869 12.8115 28.647 8C36.8379 12.912 41.6927 22.1344 39.6695 29.8538C39.6168 30.062 39.5595 30.2675 39.4976 30.4694C43.5422 35.4819 42.5011 40.8811 41.9955 39.8788C39.8013 35.6225 35.7394 36.924 33.6744 37.7875Z" fill="#C3C3C6"/>
</svg>
