<svg xmlns="http://www.w3.org/2000/svg" width="20" height="20" fill="none"><g fill="#19191C" clip-path="url(#a)"><path d="M13.272 1h.12c.098 1.199-.36 2.095-.916 2.743-.546.645-1.293 1.27-2.502 1.175-.08-1.182.378-2.011.933-2.659.515-.603 1.46-1.14 2.364-1.259m3.659 12.479v.033a9.9 9.9 0 0 1-1.415 2.729c-.54.742-1.201 1.742-2.382 1.742-1.02 0-1.699-.656-2.744-.674-1.107-.018-1.715.548-2.727.691h-.345c-.742-.108-1.342-.696-1.778-1.226-1.288-1.566-2.283-3.589-2.468-6.178v-.76c.078-1.853.978-3.36 2.175-4.09.631-.388 1.5-.719 2.466-.57.415.063.838.205 1.209.346.352.135.791.374 1.208.362.282-.009.563-.156.847-.26.833-.3 1.65-.645 2.726-.483 1.294.195 2.212.77 2.78 1.657-1.095.697-1.96 1.746-1.812 3.538.131 1.629 1.078 2.581 2.26 3.143"/></g><defs><clipPath id="a"><path fill="#fff" d="M1.5 1h17v17h-17z"/></clipPath></defs></svg>