<svg width="24" height="24" fill="none" xmlns="http://www.w3.org/2000/svg"><path d="M15.22 2.08a4.903 4.903 0 0 0-3.32 2.651c-.237.502-.337.908-.367 1.499l-.025.49h.248c.543 0 1.27-.232 1.799-.574.551-.356 1.324-1.193 1.664-1.801.391-.7.682-2.166.458-2.308-.072-.045-.072-.045-.457.043M7.332 6.897c-1.519.288-2.964 1.421-3.673 2.881-.91 1.873-.867 4.261.126 6.982.231.632.823 1.783 1.249 2.425.502.757.797 1.13 1.302 1.649.831.853 1.348 1.134 2.079 1.132.402-.001.653-.057 1.618-.362.996-.314 1.12-.337 1.867-.339.725-.002.802.013 1.9.355 1.144.356 1.462.399 2.012.275.505-.115.849-.301 1.336-.723.725-.629 1.805-2.141 2.328-3.26.277-.592.494-1.149.47-1.21-.01-.028-.135-.116-.275-.195-.598-.334-1.338-.997-1.675-1.501-.425-.635-.652-1.235-.72-1.901-.092-.903.023-1.699.345-2.377.317-.669.794-1.228 1.493-1.748.177-.132.323-.25.324-.263.004-.051-.315-.386-.664-.697-.602-.537-1.267-.878-2.106-1.081-.371-.09-.488-.099-1.288-.098-1.031 0-.999-.006-2.395.441-.95.304-1.012.318-1.369.318-.344 0-.428-.018-1.065-.223-1.448-.467-1.62-.505-2.311-.521-.411-.009-.717.005-.908.041" fill="#373B4D" fill-rule="evenodd"/></svg>