<svg xmlns="http://www.w3.org/2000/svg" width="18" height="17" fill="none"><g fill="#414146"><path d="M18 12.202v4.067H7.918c-2.938 0-5.502-1.636-6.874-4.067A8.26 8.26 0 0 1 0 8.685v-1.1a8 8 0 0 1 .28-1.669C1.223 2.502 4.286 0 7.919 0s6.695 2.502 7.637 5.916h-4.311c-.708-1.113-1.933-1.849-3.326-1.849S5.3 4.803 4.592 5.916a4 4 0 0 0-.493 1.11c-.097.352-.15.724-.15 1.108 0 1.166.48 2.217 1.246 2.958a3.9 3.9 0 0 0 2.723 1.11z"/><path d="M18 7.025v4.067h-7.36a4.1 4.1 0 0 0 1.246-2.957q-.002-.579-.15-1.11z"/></g></svg>