<svg width="20" height="20" fill="none" xmlns="http://www.w3.org/2000/svg"><path d="M9.75 4.963a.508.508 0 0 0-.299.312c-.045.108-.051.581-.051 3.949v3.826l-1.775-1.774c-1.228-1.227-1.813-1.789-1.899-1.825a.56.56 0 0 0-.476.012.508.508 0 0 0-.299.312.553.553 0 0 0 .013.475c.078.166 4.673 4.763 4.813 4.815A.784.784 0 0 0 10 15.1a.784.784 0 0 0 .223-.035c.14-.052 4.735-4.649 4.813-4.815a.56.56 0 0 0 .001-.5.508.508 0 0 0-.312-.299.546.546 0 0 0-.451 0c-.086.036-.671.598-1.899 1.825L10.6 13.05l-.001-3.833c0-3.649-.003-3.84-.062-3.967a.508.508 0 0 0-.312-.299.557.557 0 0 0-.475.012" fill-rule="evenodd" fill="#000"/></svg>