<svg width="20" height="20" viewBox="0 0 20 20" fill="none" xmlns="http://www.w3.org/2000/svg"><path d="M9.817 4.939 C 9.662 4.997,9.538 5.095,9.474 5.211 C 9.421 5.309,9.416 5.587,9.407 9.179 L 9.398 13.042 7.707 11.362 C 6.777 10.438,5.944 9.623,5.855 9.551 C 5.715 9.437,5.671 9.420,5.522 9.418 C 5.082 9.414,4.785 9.828,4.953 10.210 C 4.999 10.313,5.619 10.955,7.316 12.654 C 8.581 13.922,9.669 14.990,9.733 15.029 C 9.882 15.119,10.113 15.122,10.254 15.036 C 10.382 14.958,13.497 11.874,14.386 10.945 C 15.131 10.166,15.157 10.121,15.048 9.806 C 14.958 9.546,14.778 9.418,14.503 9.418 C 14.327 9.418,14.294 9.430,14.146 9.550 C 14.057 9.623,13.223 10.438,12.293 11.362 L 10.602 13.042 10.593 9.196 C 10.582 4.894,10.600 5.189,10.343 5.019 C 10.195 4.921,9.961 4.885,9.817 4.939 " stroke="none" fill-rule="evenodd"></path></svg>