<svg width="20" height="20" fill="none" xmlns="http://www.w3.org/2000/svg"><path d="M9.717 6.596 L 6.583 6.617 6.471 6.697 C 6.274 6.837,6.181 7.157,6.269 7.389 C 6.312 7.504,6.452 7.657,6.573 7.720 C 6.648 7.759,7.059 7.767,9.007 7.770 C 10.296 7.771,11.425 7.783,11.517 7.796 L 11.683 7.820 9.449 10.068 C 6.386 13.151,6.280 13.261,6.251 13.395 C 6.177 13.731,6.393 14.070,6.712 14.118 C 7.050 14.168,6.897 14.303,9.848 11.365 L 12.556 8.667 12.578 9.142 C 12.590 9.403,12.600 10.547,12.600 11.684 L 12.600 13.751 12.682 13.872 C 12.775 14.009,13.003 14.133,13.162 14.133 C 13.295 14.133,13.491 14.053,13.594 13.957 C 13.775 13.788,13.767 13.955,13.766 10.477 C 13.766 8.564,13.753 7.170,13.734 7.054 C 13.716 6.946,13.675 6.828,13.643 6.792 C 13.530 6.667,13.335 6.595,13.087 6.585 C 12.957 6.580,11.440 6.585,9.717 6.596 " stroke="none" fill-rule="evenodd"></path></svg>