<svg width="20" height="20" fill="none" xmlns="http://www.w3.org/2000/svg"><path d="m9.814 6.6-3.236.017-.118.089c-.327.25-.296.784.057.984l.133.076h2.525c1.389 0 2.525.012 2.525.025 0 .014-1.214 1.24-2.698 2.725-1.51 1.511-2.714 2.742-2.734 2.795a.736.736 0 0 0 .032.522c.136.267.516.38.793.236.069-.036 1.31-1.252 2.807-2.75l2.683-2.686.017 2.575.017 2.575.077.109c.24.337.783.313.991-.043l.079-.134.004-3.355c.004-3.635.013-3.442-.174-3.617a.667.667 0 0 0-.435-.168c-.06.004-1.565.015-3.345.025" fill-rule="evenodd" fill="#000"/></svg>