<svg width="20" height="20" viewBox="0 0 20 20" fill="none" xmlns="http://www.w3.org/2000/svg"><path d="M9.773 4.950 C 9.651 5.004,7.166 7.457,5.798 8.875 C 4.993 9.710,4.936 9.776,4.915 9.915 C 4.872 10.200,5.043 10.476,5.320 10.568 C 5.507 10.630,5.681 10.590,5.860 10.445 C 5.946 10.375,6.778 9.561,7.708 8.637 L 9.400 6.956 9.400 10.805 L 9.400 14.655 9.502 14.809 C 9.754 15.189,10.246 15.189,10.498 14.809 L 10.600 14.655 10.600 10.805 L 10.600 6.956 12.292 8.637 C 13.222 9.561,14.055 10.376,14.143 10.447 C 14.351 10.616,14.546 10.641,14.766 10.527 C 14.947 10.434,15.055 10.281,15.086 10.074 C 15.105 9.948,15.095 9.893,15.031 9.768 C 14.923 9.560,10.394 5.022,10.222 4.950 C 10.073 4.888,9.917 4.888,9.773 4.950 " stroke="none" fill-rule="evenodd"></path></svg>