<svg width="20" height="20" fill="none" xmlns="http://www.w3.org/2000/svg"><path d="M9.789 4.947 C 9.638 5.003,9.546 5.081,9.472 5.217 C 9.422 5.308,9.416 5.666,9.407 9.182 L 9.398 13.048 7.874 11.530 C 5.904 9.568,5.773 9.446,5.605 9.418 C 5.335 9.372,5.072 9.507,4.963 9.747 C 4.882 9.927,4.884 10.072,4.971 10.243 C 5.072 10.440,9.611 14.980,9.777 15.049 C 9.930 15.113,10.070 15.114,10.222 15.050 C 10.373 14.987,14.845 10.524,14.996 10.285 C 15.117 10.093,15.127 9.968,15.035 9.755 C 14.942 9.538,14.751 9.418,14.500 9.418 C 14.327 9.418,14.294 9.430,14.146 9.550 C 14.057 9.623,13.223 10.438,12.293 11.362 L 10.602 13.042 10.593 9.196 C 10.584 5.686,10.578 5.339,10.528 5.227 C 10.417 4.983,10.059 4.847,9.789 4.947 " stroke="none" fill-rule="evenodd"></path></svg>