<svg width="20" height="20" fill="none" xmlns="http://www.w3.org/2000/svg"><path d="M9.767 4.953 C 9.651 5.002,5.541 9.092,5.122 9.574 C 4.893 9.837,4.858 9.970,4.951 10.215 C 5.100 10.604,5.529 10.713,5.860 10.445 C 5.946 10.375,6.778 9.561,7.708 8.637 L 9.400 6.956 9.400 10.805 L 9.400 14.654 9.496 14.805 C 9.604 14.976,9.817 15.100,10.000 15.100 C 10.183 15.100,10.396 14.976,10.504 14.805 L 10.600 14.654 10.600 10.805 L 10.600 6.956 12.292 8.637 C 13.222 9.561,14.055 10.376,14.143 10.447 C 14.351 10.616,14.546 10.641,14.766 10.527 C 14.947 10.434,15.055 10.281,15.086 10.074 C 15.105 9.948,15.095 9.893,15.031 9.768 C 14.923 9.560,10.394 5.022,10.222 4.950 C 10.072 4.887,9.917 4.888,9.767 4.953 " stroke="none" fill-rule="evenodd"></path></svg>