<svg width="20" height="20" fill="none" xmlns="http://www.w3.org/2000/svg"><path d="M9.767 4.971 C 9.562 5.074,5.024 9.602,4.951 9.777 C 4.888 9.927,4.886 10.069,4.946 10.213 C 4.996 10.332,7.837 13.217,9.055 14.386 C 9.805 15.105,9.851 15.135,10.113 15.086 C 10.399 15.033,10.616 14.748,10.591 14.460 C 10.580 14.339,10.547 14.266,10.447 14.143 C 10.376 14.055,9.561 13.222,8.637 12.292 L 6.956 10.600 10.805 10.600 L 14.655 10.600 14.809 10.498 C 15.200 10.239,15.190 9.729,14.788 9.499 L 14.617 9.401 10.786 9.400 L 6.956 9.400 8.637 7.708 C 9.561 6.778,10.374 5.948,10.442 5.863 C 10.604 5.664,10.633 5.480,10.538 5.260 C 10.408 4.959,10.055 4.827,9.767 4.971 " stroke="none" fill-rule="evenodd"></path></svg>