<svg width="20" height="20" viewBox="0 0 20 20" fill="none" xmlns="http://www.w3.org/2000/svg"><path d="M9.767 4.971 C 9.660 5.025,8.954 5.709,7.329 7.332 C 6.071 8.588,5.010 9.669,4.971 9.733 C 4.880 9.883,4.878 10.113,4.965 10.256 C 5.043 10.384,8.075 13.445,9.054 14.384 C 9.670 14.976,9.774 15.062,9.891 15.082 C 10.178 15.130,10.452 14.978,10.552 14.716 C 10.633 14.503,10.602 14.333,10.445 14.140 C 10.375 14.054,9.561 13.222,8.637 12.292 L 6.956 10.600 10.805 10.600 L 14.655 10.600 14.809 10.498 C 15.200 10.239,15.190 9.729,14.788 9.499 L 14.617 9.401 10.786 9.400 L 6.956 9.400 8.637 7.708 C 9.561 6.778,10.374 5.948,10.442 5.863 C 10.604 5.664,10.633 5.480,10.538 5.260 C 10.408 4.959,10.055 4.827,9.767 4.971 " stroke="none" fill-rule="evenodd"></path></svg>