<svg width="20" height="20" viewBox="0 0 20 20" fill="none" xmlns="http://www.w3.org/2000/svg"><path d="M9.817 4.940 C 9.643 5.001,9.508 5.126,9.449 5.282 C 9.367 5.497,9.398 5.666,9.555 5.860 C 9.625 5.946,10.439 6.778,11.363 7.708 L 13.044 9.400 9.214 9.400 L 5.383 9.401 5.212 9.499 C 4.810 9.729,4.800 10.239,5.191 10.498 L 5.345 10.600 9.195 10.600 L 13.044 10.600 11.363 12.292 C 10.439 13.222,9.625 14.054,9.555 14.140 C 9.473 14.241,9.421 14.344,9.410 14.428 C 9.358 14.813,9.697 15.143,10.083 15.085 C 10.226 15.064,10.281 15.019,10.927 14.403 C 11.858 13.512,14.957 10.385,15.036 10.254 C 15.122 10.113,15.119 9.882,15.029 9.733 C 14.990 9.669,13.929 8.588,12.671 7.331 C 10.347 5.009,10.222 4.895,9.998 4.903 C 9.953 4.904,9.872 4.921,9.817 4.940 " stroke="none" fill-rule="evenodd"></path></svg>