<svg width="20" height="20" viewBox="0 0 20 20" fill="none" xmlns="http://www.w3.org/2000/svg"><path d="M9.717 6.598 L 6.583 6.617 6.471 6.697 C 6.274 6.837,6.181 7.157,6.269 7.389 C 6.312 7.504,6.452 7.657,6.573 7.720 C 6.648 7.759,7.059 7.767,9.007 7.770 C 10.296 7.771,11.425 7.783,11.517 7.795 L 11.683 7.817 9.056 10.463 C 7.610 11.918,6.384 13.169,6.331 13.243 C 6.095 13.568,6.312 14.058,6.719 14.119 C 7.049 14.168,6.904 14.296,9.848 11.365 L 12.556 8.667 12.578 9.142 C 12.590 9.403,12.600 10.547,12.600 11.684 L 12.600 13.751 12.682 13.872 C 12.775 14.009,13.003 14.133,13.162 14.133 C 13.295 14.133,13.491 14.053,13.594 13.957 C 13.775 13.788,13.767 13.955,13.766 10.477 C 13.766 8.583,13.753 7.167,13.734 7.050 C 13.708 6.883,13.683 6.833,13.585 6.747 C 13.441 6.620,13.264 6.565,13.029 6.573 C 12.931 6.577,11.440 6.588,9.717 6.598 " stroke="none" fill-rule="evenodd"></path></svg>