<svg width="20" height="20" fill="none" xmlns="http://www.w3.org/2000/svg"><path d="M9.789 4.949 C 9.618 5.010,9.513 5.113,9.446 5.288 C 9.367 5.497,9.399 5.668,9.555 5.860 C 9.625 5.946,10.439 6.778,11.363 7.708 L 13.044 9.400 9.214 9.400 L 5.383 9.401 5.212 9.499 C 5.021 9.608,4.900 9.803,4.900 10.000 C 4.900 10.183,5.024 10.396,5.195 10.504 L 5.346 10.600 9.195 10.600 L 13.044 10.600 11.363 12.292 C 10.439 13.222,9.624 14.055,9.553 14.143 C 9.453 14.266,9.420 14.339,9.409 14.460 C 9.384 14.748,9.601 15.033,9.887 15.086 C 10.146 15.135,10.193 15.104,10.926 14.403 C 12.084 13.297,15.004 10.332,15.054 10.212 C 15.114 10.069,15.112 9.927,15.049 9.777 C 14.974 9.595,10.435 5.070,10.231 4.973 C 10.057 4.889,9.968 4.884,9.789 4.949 " stroke="none" fill-rule="evenodd"></path></svg>