<svg width="24" height="24" viewBox="0 0 24 24" fill="none" xmlns="http://www.w3.org/2000/svg">
    <path
        d="M10.7984 5.76536C9.5298 5.14715 8.10463 4.80029 6.59844 4.80029C5.09224 4.80029 3.66708 5.14715 2.39844 5.76536V17.7654C3.66708 17.1471 5.09224 16.8003 6.59844 16.8003C8.60076 16.8003 10.4599 17.4133 11.9984 18.4618C13.537 17.4133 15.3961 16.8003 17.3984 16.8003C18.9046 16.8003 20.3299 17.1471 21.5984 17.7654V5.76536C20.3299 5.14715 18.9046 4.80029 17.3984 4.80029C15.8923 4.80029 14.4671 5.14715 13.1984 5.76536V14.4003C13.1984 15.063 12.6612 15.6003 11.9984 15.6003C11.3357 15.6003 10.7984 15.063 10.7984 14.4003V5.76536Z"
        fill="currentColor" />
</svg>