<svg xmlns="http://www.w3.org/2000/svg" width="40" height="40" fill="none"><path fill="#19191C" d="M9.587 6.154c4.012 3.128 8.329 9.47 9.913 12.874 1.585-3.403 5.9-9.746 9.914-12.874C32.309 3.897 37 2.15 37 7.708c0 1.11-.613 9.323-.972 10.657-1.25 4.636-5.802 5.818-9.851 5.102 7.078 1.251 8.879 5.395 4.99 9.539-7.386 7.87-10.615-1.975-11.443-4.497-.152-.463-.223-.68-.224-.495-.001-.184-.072.032-.224.495-.827 2.522-4.057 12.367-11.443 4.497-3.889-4.144-2.088-8.288 4.99-9.539-4.05.716-8.602-.466-9.85-5.102C2.612 17.03 2 8.817 2 7.708 2 2.15 6.691 3.897 9.587 6.154"/></svg>