<svg width="16" height="16" viewBox="0 0 16 16" fill="none" xmlns="http://www.w3.org/2000/svg">
    <path
        d="M1.5 3.5C1.5 2.94772 1.94772 2.5 2.5 2.5H6C7.10457 2.5 8 3.39543 8 4.5V4.5V14L7.95585 13.8675C7.68362 13.0509 6.91934 12.5 6.05848 12.5H5.5H2.5C1.94772 12.5 1.5 12.0523 1.5 11.5V3.5Z"
        stroke="currentColor" stroke-linejoin="round" />
    <path
        d="M14.5 3.5C14.5 2.94772 14.0523 2.5 13.5 2.5H10C8.89543 2.5 8 3.39543 8 4.5V4.5V14L8.04415 13.8675C8.31638 13.0509 9.08066 12.5 9.94152 12.5H10.5H13.5C14.0523 12.5 14.5 12.0523 14.5 11.5V3.5Z"
        stroke="currentColor" stroke-linejoin="round" />
</svg>