<svg width="20" height="20" fill="none" xmlns="http://www.w3.org/2000/svg"><path d="M6.75 3.463c-.251.115-.35.307-.35.681v.246l-.442.021a3.996 3.996 0 0 0-.629.071c-.884.241-1.596.956-1.854 1.865-.054.188-.058.501-.058 4.153 0 3.652.004 3.965.058 4.153.26.915.957 1.612 1.872 1.872.188.054.526.058 4.636.058 3.706 0 4.464-.007 4.617-.047a2.683 2.683 0 0 0 1.936-1.936c.07-.273.07-7.927 0-8.2-.237-.926-.962-1.672-1.865-1.918a3.996 3.996 0 0 0-.629-.071L13.6 4.39v-.255c0-.197-.017-.287-.075-.403a.584.584 0 0 0-1.05 0c-.059.116-.075.205-.075.408v.26H7.6l-.001-.258c-.001-.387-.104-.578-.374-.691a.557.557 0 0 0-.475.012M6.4 5.86c0 .203.016.292.075.408a.584.584 0 0 0 1.05 0c.059-.116.075-.205.075-.408V5.6h4.8v.26c0 .203.016.292.075.408a.584.584 0 0 0 1.05 0c.059-.117.075-.205.075-.413v-.264l.358.017c.544.025.867.178 1.155.549.245.314.267.422.28 1.385l.012.858H4.6v-.794c0-1.031.05-1.221.417-1.589.3-.299.594-.411 1.091-.415L6.4 5.6v.26m8.993 6.098-.01 2.359-.075.187a1.494 1.494 0 0 1-.804.804l-.187.075H5.683l-.187-.075a1.69 1.69 0 0 1-.339-.195 1.526 1.526 0 0 1-.465-.609l-.075-.187-.01-2.359L4.598 9.6h10.804l-.009 2.358" fill-rule="evenodd" fill="#000"/></svg>