<svg width="20" height="20" fill="none" xmlns="http://www.w3.org/2000/svg"><path d="M6.810 3.435 C 6.656 3.482,6.480 3.663,6.437 3.817 C 6.417 3.890,6.400 4.051,6.400 4.175 L 6.400 4.400 6.237 4.400 C 5.951 4.400,5.389 4.467,5.217 4.522 C 4.777 4.662,4.340 4.961,3.997 5.357 C 3.810 5.573,3.530 6.118,3.461 6.400 C 3.396 6.670,3.396 14.330,3.461 14.600 C 3.486 14.701,3.579 14.933,3.668 15.117 C 3.936 15.669,4.331 16.064,4.883 16.332 C 5.067 16.421,5.299 16.514,5.400 16.539 C 5.549 16.575,6.419 16.583,10.033 16.581 L 14.483 16.579 14.750 16.490 C 15.198 16.340,15.480 16.161,15.834 15.804 C 16.101 15.535,16.177 15.433,16.310 15.167 C 16.601 14.582,16.581 14.924,16.581 10.500 C 16.581 6.085,16.599 6.414,16.317 5.850 C 16.008 5.235,15.447 4.743,14.817 4.535 C 14.619 4.470,14.077 4.400,13.767 4.400 L 13.607 4.400 13.594 4.125 C 13.579 3.790,13.507 3.628,13.323 3.506 C 13.135 3.382,12.865 3.382,12.677 3.506 C 12.493 3.628,12.421 3.790,12.406 4.125 L 12.393 4.400 10.001 4.400 L 7.608 4.400 7.593 4.108 C 7.584 3.923,7.558 3.777,7.522 3.708 C 7.406 3.488,7.066 3.357,6.810 3.435 M6.406 5.875 C 6.421 6.210,6.493 6.372,6.678 6.495 C 6.960 6.682,7.374 6.575,7.519 6.278 C 7.559 6.195,7.586 6.054,7.594 5.875 L 7.607 5.600 10.000 5.600 L 12.393 5.600 12.406 5.875 C 12.421 6.210,12.493 6.372,12.678 6.495 C 12.960 6.682,13.374 6.575,13.519 6.278 C 13.560 6.194,13.586 6.054,13.594 5.870 L 13.607 5.590 13.930 5.612 C 14.317 5.637,14.556 5.703,14.782 5.848 C 14.950 5.955,15.175 6.217,15.283 6.430 C 15.351 6.565,15.397 7.142,15.399 7.892 L 15.400 8.400 10.000 8.400 L 4.600 8.400 4.601 7.725 C 4.603 6.612,4.657 6.388,5.010 6.042 C 5.339 5.719,5.622 5.608,6.138 5.603 L 6.393 5.600 6.406 5.875 M15.392 11.980 L 15.374 14.360 15.265 14.582 C 15.124 14.868,14.858 15.134,14.573 15.274 L 14.351 15.383 10.045 15.392 C 5.754 15.401,5.737 15.400,5.553 15.331 C 5.199 15.199,4.864 14.876,4.697 14.505 C 4.629 14.354,4.627 14.296,4.609 11.975 L 4.590 9.600 10.000 9.600 L 15.410 9.600 15.392 11.980 " stroke="none" fill-rule="evenodd"></path></svg>