<svg width="20" height="20" viewBox="0 0 20 20" fill="none" xmlns="http://www.w3.org/2000/svg"><path d="M6.804 3.441 C 6.644 3.495,6.480 3.662,6.437 3.817 C 6.417 3.890,6.400 4.051,6.400 4.175 L 6.400 4.400 6.208 4.401 C 5.902 4.402,5.397 4.463,5.217 4.521 C 4.774 4.664,4.340 4.962,3.997 5.357 C 3.810 5.573,3.530 6.118,3.461 6.400 C 3.396 6.670,3.396 14.330,3.461 14.600 C 3.486 14.701,3.579 14.933,3.668 15.117 C 3.936 15.669,4.331 16.064,4.883 16.332 C 5.067 16.421,5.299 16.514,5.400 16.539 C 5.549 16.575,6.419 16.583,10.033 16.581 L 14.483 16.579 14.750 16.490 C 15.198 16.340,15.480 16.161,15.834 15.804 C 16.101 15.535,16.177 15.433,16.310 15.167 C 16.601 14.582,16.581 14.924,16.581 10.500 C 16.581 6.085,16.599 6.414,16.317 5.850 C 16.008 5.235,15.451 4.746,14.817 4.534 C 14.609 4.465,14.124 4.402,13.792 4.401 L 13.600 4.400 13.600 4.179 C 13.600 3.889,13.548 3.725,13.411 3.584 C 13.167 3.333,12.756 3.356,12.541 3.634 C 12.442 3.762,12.400 3.923,12.400 4.172 L 12.400 4.400 10.004 4.400 L 7.608 4.400 7.593 4.108 C 7.584 3.923,7.558 3.777,7.522 3.708 C 7.404 3.483,7.060 3.355,6.804 3.441 M6.400 5.828 C 6.400 6.201,6.507 6.416,6.750 6.533 C 7.077 6.692,7.436 6.531,7.561 6.170 C 7.582 6.108,7.600 5.954,7.600 5.828 L 7.600 5.600 10.000 5.600 L 12.400 5.600 12.400 5.828 C 12.400 6.201,12.507 6.416,12.750 6.533 C 12.925 6.618,13.075 6.618,13.250 6.533 C 13.494 6.415,13.600 6.201,13.600 5.823 L 13.600 5.590 13.926 5.611 C 14.317 5.637,14.556 5.703,14.782 5.848 C 14.950 5.955,15.175 6.217,15.283 6.430 C 15.351 6.565,15.397 7.142,15.399 7.892 L 15.400 8.400 10.000 8.400 L 4.600 8.400 4.601 7.725 C 4.603 6.612,4.657 6.388,5.010 6.042 C 5.340 5.718,5.622 5.608,6.142 5.603 L 6.400 5.600 6.400 5.828 M15.392 11.980 L 15.374 14.360 15.265 14.582 C 15.124 14.868,14.858 15.134,14.573 15.274 L 14.351 15.383 10.000 15.383 L 5.649 15.383 5.422 15.272 C 5.131 15.129,4.866 14.862,4.729 14.574 L 4.625 14.356 4.607 11.978 L 4.590 9.600 10.000 9.600 L 15.410 9.600 15.392 11.980 " stroke="none" fill-rule="evenodd"></path></svg>