<svg width="20" height="20" fill="none" xmlns="http://www.w3.org/2000/svg"><path d="M14.302 5.442 C 14.142 5.499,13.948 5.745,11.493 9.009 C 9.781 11.285,8.762 12.624,8.409 13.060 C 8.381 13.095,8.356 13.100,8.326 13.076 C 8.303 13.058,7.859 12.696,7.340 12.272 C 5.633 10.876,5.595 10.852,5.283 10.997 C 5.041 11.109,4.900 11.315,4.900 11.557 C 4.900 11.787,5.008 11.899,6.110 12.814 C 7.403 13.887,8.275 14.565,8.388 14.586 C 8.594 14.625,8.738 14.573,8.895 14.406 C 9.094 14.192,10.067 12.915,12.187 10.083 C 14.944 6.399,15.063 6.234,15.087 6.059 C 15.144 5.646,14.701 5.298,14.302 5.442 " stroke="none" fill-rule="evenodd"></path></svg>