<svg width="20" height="20" viewBox="0 0 20 20" fill="none" xmlns="http://www.w3.org/2000/svg"><path d="M5.217 7.596 C 5.077 7.683,4.982 7.796,4.933 7.936 C 4.863 8.135,4.910 8.257,5.171 8.550 C 5.650 9.088,7.151 10.612,8.427 11.855 C 9.886 13.277,9.864 13.260,10.163 13.148 C 10.293 13.099,10.656 12.753,12.528 10.887 C 13.744 9.675,14.800 8.611,14.874 8.523 C 15.048 8.317,15.100 8.167,15.061 7.987 C 15.002 7.715,14.833 7.569,14.547 7.544 C 14.369 7.529,14.336 7.537,14.200 7.628 C 14.117 7.684,13.138 8.632,12.022 9.737 L 9.995 11.744 8.656 10.411 C 6.790 8.553,5.873 7.671,5.727 7.597 C 5.568 7.516,5.346 7.515,5.217 7.596 " fill="#19191C" stroke="none" fill-rule="evenodd"></path></svg>