<svg width="20" height="20" viewBox="0 0 20 20" fill="none" xmlns="http://www.w3.org/2000/svg"><path d="M7.500 5.340 C 7.256 5.465,7.131 5.719,7.182 5.987 C 7.201 6.088,7.352 6.259,8.083 7.012 C 8.566 7.510,9.509 8.463,10.179 9.131 L 11.396 10.346 9.523 12.233 C 8.493 13.271,7.546 14.237,7.419 14.379 C 7.206 14.618,7.188 14.650,7.176 14.810 C 7.149 15.191,7.500 15.491,7.887 15.418 C 7.989 15.399,8.183 15.225,9.112 14.319 C 10.571 12.897,12.757 10.663,12.800 10.551 C 12.852 10.413,12.840 10.268,12.763 10.109 C 12.713 10.006,12.044 9.314,10.455 7.722 C 9.224 6.490,8.156 5.440,8.082 5.391 C 7.887 5.260,7.688 5.243,7.500 5.340 " fill="#19191C" stroke="none" fill-rule="evenodd"></path></svg>