<svg width="20" height="20" viewBox="0 0 20 20" fill="none" xmlns="http://www.w3.org/2000/svg"><path d="M12.089 5.291 C 12.018 5.302,11.683 5.609,10.745 6.524 C 9.013 8.214,7.296 9.970,7.226 10.125 C 7.153 10.284,7.152 10.442,7.223 10.592 C 7.302 10.758,11.815 15.272,11.994 15.363 C 12.069 15.402,12.185 15.433,12.250 15.433 C 12.578 15.433,12.857 15.124,12.825 14.795 C 12.811 14.651,12.784 14.607,12.547 14.345 C 12.402 14.185,11.456 13.220,10.444 12.200 L 8.604 10.345 9.788 9.164 C 11.825 7.132,12.789 6.126,12.816 6.003 C 12.873 5.745,12.751 5.461,12.538 5.353 C 12.434 5.301,12.222 5.272,12.089 5.291 " fill="#19191C" stroke="none" fill-rule="evenodd"></path></svg>