<svg width="20" height="20" viewBox="0 0 20 20" fill="none" xmlns="http://www.w3.org/2000/svg"><path d="M5.359 7.535 C 5.186 7.584,5.038 7.702,4.969 7.845 C 4.888 8.013,4.882 8.126,4.947 8.282 C 4.975 8.348,5.402 8.815,5.959 9.390 C 7.044 10.508,9.545 12.972,9.724 13.100 C 9.895 13.221,10.109 13.215,10.301 13.083 C 10.500 12.947,14.751 8.699,14.936 8.453 C 15.063 8.283,15.083 8.234,15.081 8.099 C 15.078 7.895,14.944 7.662,14.788 7.588 C 14.725 7.558,14.592 7.533,14.492 7.533 C 14.345 7.533,14.285 7.551,14.180 7.628 C 14.109 7.680,13.139 8.627,12.025 9.731 L 10.000 11.740 7.960 9.718 C 6.839 8.605,5.860 7.661,5.785 7.618 C 5.624 7.527,5.483 7.499,5.359 7.535 " fill="#19191C" stroke="none" fill-rule="evenodd"></path></svg>