<svg width="20" height="20" fill="none" xmlns="http://www.w3.org/2000/svg"><path d="M7.564 5.299 C 7.325 5.371,7.167 5.599,7.167 5.872 C 7.167 5.989,7.191 6.057,7.272 6.170 C 7.330 6.251,8.281 7.224,9.386 8.333 L 11.394 10.350 9.328 12.428 C 8.032 13.730,7.243 14.547,7.214 14.618 C 7.050 15.011,7.337 15.433,7.767 15.433 C 7.888 15.433,7.956 15.410,8.070 15.329 C 8.319 15.153,12.732 10.712,12.785 10.584 C 12.868 10.387,12.848 10.197,12.727 10.030 C 12.669 9.949,11.600 8.861,10.352 7.612 C 8.410 5.668,8.064 5.335,7.950 5.304 C 7.799 5.262,7.689 5.261,7.564 5.299 " fill="#19191C" stroke="none" fill-rule="evenodd"></path></svg>