<svg width="20" height="20" viewBox="0 0 20 20" fill="none" xmlns="http://www.w3.org/2000/svg"><path d="M11.577 5.729 C 10.890 6.364,8.076 9.177,7.622 9.681 C 7.406 9.921,7.218 10.162,7.197 10.225 C 7.123 10.451,7.164 10.518,7.763 11.154 C 8.620 12.064,11.689 15.102,11.929 15.278 C 12.067 15.379,12.175 15.433,12.238 15.433 C 12.460 15.433,12.691 15.267,12.786 15.038 C 12.850 14.886,12.845 14.770,12.771 14.649 C 12.671 14.484,11.715 13.484,10.110 11.865 L 8.604 10.346 9.505 9.448 C 10.947 8.011,12.612 6.289,12.727 6.115 C 12.855 5.923,12.862 5.797,12.756 5.597 C 12.657 5.411,12.528 5.337,12.261 5.312 L 12.049 5.292 11.577 5.729 " fill="#19191C" stroke="none" fill-rule="evenodd"></path></svg>