<svg width="20" height="20" fill="none" xmlns="http://www.w3.org/2000/svg"><path d="M9.769 7.568 C 9.658 7.619,9.087 8.171,7.434 9.826 C 6.231 11.031,5.175 12.102,5.087 12.207 C 4.895 12.436,4.862 12.583,4.951 12.815 C 5.100 13.204,5.529 13.313,5.860 13.045 C 5.946 12.975,6.913 12.026,8.008 10.937 L 10.000 8.956 11.992 10.937 C 13.087 12.026,14.055 12.976,14.143 13.047 C 14.266 13.147,14.339 13.180,14.460 13.191 C 14.842 13.224,15.158 12.867,15.086 12.484 C 15.057 12.332,14.217 11.453,12.001 9.255 C 10.355 7.622,10.217 7.501,10.000 7.501 C 9.954 7.501,9.850 7.532,9.769 7.568 " fill="#19191C" stroke="none" fill-rule="evenodd"></path></svg>