<svg width="20" height="20" viewBox="0 0 20 20" fill="none" xmlns="http://www.w3.org/2000/svg"><path d="M5.317 7.539 C 4.964 7.670,4.809 8.023,4.967 8.336 C 5.019 8.438,5.713 9.154,7.229 10.668 C 8.432 11.870,9.505 12.927,9.613 13.018 C 9.799 13.174,9.821 13.183,10.000 13.183 C 10.180 13.183,10.201 13.174,10.386 13.017 C 10.653 12.790,13.885 9.580,14.518 8.913 C 15.118 8.281,15.154 8.212,15.048 7.906 C 14.958 7.646,14.778 7.518,14.503 7.518 C 14.327 7.518,14.294 7.530,14.146 7.650 C 14.057 7.723,13.087 8.674,11.992 9.763 L 10.000 11.744 8.008 9.763 C 6.913 8.674,5.948 7.727,5.863 7.658 C 5.692 7.519,5.489 7.475,5.317 7.539 " fill="#19191C" stroke="none" fill-rule="evenodd"></path></svg>