<svg width="20" height="20" viewBox="0 0 20 20" fill="none" xmlns="http://www.w3.org/2000/svg"><path d="M9.778 7.564 C 9.627 7.633,6.938 10.276,5.647 11.625 C 4.989 12.312,4.936 12.377,4.915 12.515 C 4.872 12.800,5.043 13.076,5.320 13.168 C 5.508 13.230,5.681 13.190,5.860 13.045 C 5.946 12.975,6.913 12.026,8.008 10.937 L 10.000 8.956 11.992 10.937 C 13.087 12.026,14.055 12.976,14.143 13.047 C 14.266 13.147,14.339 13.180,14.460 13.191 C 14.842 13.224,15.158 12.867,15.086 12.484 C 15.057 12.332,14.217 11.453,12.001 9.255 C 10.355 7.622,10.217 7.501,10.000 7.501 C 9.954 7.501,9.854 7.530,9.778 7.564 " fill="#19191C" stroke="none" fill-rule="evenodd"></path></svg>