<svg width="20" height="20" viewBox="0 0 20 20" fill="none" xmlns="http://www.w3.org/2000/svg"><path d="M11.800 5.518 C 11.329 5.938,8.922 8.316,8.108 9.165 C 7.661 9.632,7.266 10.070,7.231 10.139 C 7.155 10.287,7.150 10.396,7.212 10.545 C 7.268 10.678,9.124 12.580,10.771 14.191 C 12.046 15.438,12.085 15.469,12.343 15.420 C 12.518 15.387,12.675 15.267,12.758 15.101 C 12.848 14.923,12.853 14.801,12.776 14.640 C 12.720 14.522,10.934 12.675,9.370 11.117 L 8.600 10.350 10.177 8.767 C 11.879 7.058,12.494 6.423,12.701 6.161 C 12.854 5.968,12.870 5.835,12.770 5.613 C 12.678 5.411,12.530 5.320,12.267 5.306 L 12.050 5.294 11.800 5.518 " fill="#19191C" stroke="none" fill-rule="evenodd"></path></svg>