<svg width="20" height="20" viewBox="0 0 20 20" fill="none" xmlns="http://www.w3.org/2000/svg"><path d="M9.623 7.717 C 9.005 8.227,5.441 11.798,5.069 12.280 C 4.948 12.438,4.922 12.495,4.922 12.614 C 4.922 12.789,5.006 12.940,5.178 13.080 C 5.281 13.163,5.337 13.183,5.464 13.183 C 5.600 13.183,5.649 13.163,5.818 13.033 C 6.063 12.845,6.901 12.035,8.639 10.304 L 9.995 8.955 11.723 10.667 C 12.673 11.608,13.635 12.547,13.861 12.752 C 14.335 13.184,14.461 13.245,14.686 13.151 C 14.969 13.033,15.143 12.742,15.073 12.506 C 15.021 12.335,14.520 11.791,12.981 10.237 C 11.632 8.874,10.497 7.785,10.264 7.628 C 10.034 7.474,9.895 7.493,9.623 7.717 " fill="#19191C" stroke="none" fill-rule="evenodd"></path></svg>