<svg width="20" height="20" viewBox="0 0 20 20" fill="none" xmlns="http://www.w3.org/2000/svg"><path d="M9.875 7.524 C 9.761 7.546,9.216 8.053,7.737 9.517 C 6.127 11.110,5.030 12.253,4.951 12.420 C 4.797 12.743,5.109 13.200,5.483 13.200 C 5.710 13.200,5.842 13.082,7.930 11.012 L 10.000 8.960 12.070 11.012 C 13.554 12.484,14.182 13.084,14.289 13.136 C 14.562 13.268,14.890 13.146,15.029 12.858 C 15.140 12.630,15.124 12.503,14.960 12.295 C 14.735 12.011,13.703 10.947,12.344 9.598 C 10.191 7.461,10.192 7.462,9.875 7.524 " fill="#19191C" stroke="none" fill-rule="evenodd"></path></svg>