<svg width="20" height="20" viewBox="0 0 20 20" fill="none" xmlns="http://www.w3.org/2000/svg"><path d="M7.517 5.339 C 7.332 5.441,7.167 5.683,7.167 5.850 C 7.167 6.075,7.339 6.265,9.690 8.634 L 11.397 10.354 10.495 11.252 C 9.053 12.689,7.388 14.411,7.273 14.585 C 7.214 14.673,7.167 14.788,7.167 14.840 C 7.167 15.158,7.543 15.477,7.850 15.419 C 8.007 15.389,8.597 14.838,10.350 13.084 C 11.985 11.448,12.791 10.598,12.820 10.481 C 12.861 10.319,12.801 10.178,12.578 9.913 C 12.230 9.498,8.125 5.419,7.991 5.356 C 7.858 5.293,7.616 5.284,7.517 5.339 " fill="#19191C" stroke="none" fill-rule="evenodd"></path></svg>
