<svg width="20" height="20" viewBox="0 0 20 20" fill="none" xmlns="http://www.w3.org/2000/svg"><path d="M5.250 7.586 C 5.095 7.666,5.007 7.764,4.947 7.920 C 4.878 8.101,4.901 8.201,5.064 8.417 C 5.409 8.875,9.221 12.688,9.678 13.032 C 9.891 13.192,9.990 13.219,10.140 13.156 C 10.299 13.090,11.269 12.156,13.269 10.145 C 14.311 9.097,14.976 8.404,15.011 8.328 C 15.124 8.080,15.051 7.790,14.838 7.645 C 14.686 7.541,14.435 7.513,14.287 7.584 C 14.153 7.647,13.183 8.580,11.294 10.461 L 10.005 11.745 8.361 10.117 C 6.361 8.137,5.801 7.613,5.637 7.567 C 5.469 7.520,5.366 7.525,5.250 7.586 " fill="#19191C" stroke="none" fill-rule="evenodd"></path></svg>