<svg width="20" height="20" viewBox="0 0 20 20" fill="none" xmlns="http://www.w3.org/2000/svg"><path d="M9.848 7.546 C 9.676 7.623,9.015 8.250,7.297 9.966 C 5.483 11.778,4.986 12.310,4.929 12.501 C 4.839 12.803,5.159 13.200,5.493 13.200 C 5.709 13.200,5.999 12.933,8.575 10.369 L 10.000 8.950 11.392 10.337 C 13.481 12.418,14.160 13.067,14.328 13.142 C 14.588 13.257,14.861 13.146,15.016 12.862 C 15.125 12.663,15.122 12.547,15.005 12.365 C 14.755 11.974,10.732 7.942,10.289 7.637 C 10.104 7.510,9.983 7.485,9.848 7.546 " fill="#19191C" stroke="none" fill-rule="evenodd"></path></svg>