<svg width="20" height="20" fill="none" xmlns="http://www.w3.org/2000/svg"><path d="M12.000 5.318 C 11.873 5.375,7.454 9.780,7.272 10.031 C 7.152 10.197,7.133 10.387,7.215 10.584 C 7.269 10.713,11.681 15.153,11.930 15.330 C 12.398 15.660,13.009 15.153,12.786 14.619 C 12.757 14.549,11.959 13.722,10.673 12.428 L 8.606 10.350 10.614 8.333 C 11.719 7.224,12.670 6.251,12.728 6.170 C 12.810 6.056,12.833 5.990,12.833 5.870 C 12.832 5.659,12.734 5.460,12.588 5.369 C 12.430 5.272,12.155 5.248,12.000 5.318 " fill="#19191C" stroke="none" fill-rule="evenodd"></path></svg>