<svg width="20" height="20" fill="none" xmlns="http://www.w3.org/2000/svg"><path d="M5.25 4.963a.508.508 0 0 0-.299.312.546.546 0 0 0 0 .451c.036.086.681.754 2.125 2.199L9.15 10l-2.074 2.075c-1.444 1.445-2.089 2.113-2.125 2.199a.546.546 0 0 0 0 .451c.069.165.14.239.299.312a.56.56 0 0 0 .476.012c.086-.036.754-.681 2.199-2.125L10 10.85l2.075 2.074c1.445 1.444 2.113 2.089 2.199 2.125a.56.56 0 0 0 .476-.012.508.508 0 0 0 .299-.312.546.546 0 0 0 0-.451c-.036-.086-.681-.754-2.125-2.199L10.85 10l2.074-2.075c1.444-1.445 2.089-2.113 2.125-2.199a.56.56 0 0 0-.012-.476.508.508 0 0 0-.312-.299.546.546 0 0 0-.451 0c-.086.036-.754.681-2.199 2.125L10 9.15 7.925 7.076C6.48 5.632 5.812 4.987 5.726 4.951a.56.56 0 0 0-.476.012" fill-rule="evenodd" fill="#000"/></svg>