<svg width="20" height="20" viewBox="0 0 20 20" fill="none" xmlns="http://www.w3.org/2000/svg"><path d="M5.317 4.938 C 5.140 5.003,5.008 5.127,4.949 5.282 C 4.867 5.497,4.898 5.666,5.055 5.860 C 5.125 5.946,6.074 6.913,7.163 8.008 L 9.144 10.000 7.163 11.992 C 6.074 13.087,5.125 14.054,5.055 14.140 C 4.910 14.319,4.870 14.493,4.932 14.680 C 4.990 14.856,5.114 14.987,5.284 15.052 C 5.497 15.133,5.667 15.102,5.860 14.945 C 5.946 14.875,6.913 13.926,8.008 12.837 L 10.000 10.856 11.992 12.837 C 13.087 13.926,14.054 14.875,14.140 14.945 C 14.333 15.102,14.503 15.133,14.716 15.052 C 14.886 14.987,15.010 14.856,15.068 14.680 C 15.130 14.493,15.090 14.319,14.945 14.140 C 14.875 14.054,13.926 13.087,12.837 11.992 L 10.856 10.000 12.837 8.008 C 13.926 6.913,14.873 5.948,14.942 5.863 C 15.104 5.664,15.133 5.480,15.038 5.260 C 14.942 5.037,14.754 4.918,14.500 4.918 C 14.327 4.918,14.294 4.930,14.146 5.050 C 14.057 5.123,13.087 6.074,11.992 7.163 L 10.000 9.144 8.008 7.163 C 6.913 6.074,5.948 5.127,5.863 5.058 C 5.693 4.919,5.490 4.875,5.317 4.938 " stroke="none" fill-rule="evenodd"></path></svg>