<?xml version="1.0" encoding="utf-8"?>
<svg width="20px" height="20px" viewBox="0 0 24 24" fill="none" xmlns="http://www.w3.org/2000/svg">
  <path d="M17.7673 13.6399L16.0106 13.6326V10.4489L17.7673 10.4561C19.8841 10.4561 21.6 8.43903 21.6 6.34204C21.6 4.24505 19.8841 2.39999 17.7673 2.39999C15.6504 2.39999 13.6227 4.24505 13.6227 6.34204V8.08242H10.4144V6.34204C10.4144 4.24505 8.38538 2.39999 6.26867 2.39999C4.15196 2.39999 2.39999 4.24505 2.39999 6.34204C2.39999 8.43903 4.15196 10.4489 6.26867 10.4489H8.02542V13.6253H6.26867C4.15196 13.6253 2.40001 15.6318 2.40001 17.7288C2.40001 19.8258 4.15196 21.6 6.26867 21.6C8.38562 21.6 10.4173 19.8306 10.4173 17.7336L10.4144 15.9932H13.9315L13.9344 17.7288L13.9342 17.7336C13.9342 19.8306 15.6506 21.6 17.7673 21.6C19.8841 21.6 21.6 19.8306 21.6 17.7336C21.6 15.6366 19.8841 13.6404 17.7673 13.6399ZM17.7673 4.44345C18.8257 4.44345 19.6838 5.29355 19.6838 6.34204C19.6838 7.39054 18.8257 8.08242 17.7673 8.08242H16.0106V6.34204C16.0106 5.29355 16.709 4.44345 17.7673 4.44345ZM4.35222 6.34204C4.35222 5.29355 5.21031 4.44345 6.26867 4.44345C7.32703 4.44345 8.02542 5.29355 8.02542 6.34204V8.08242H6.26867C5.21031 8.08242 4.35222 7.3903 4.35222 6.34204ZM6.26867 19.6322C5.21031 19.6322 4.35222 18.7821 4.35222 17.7336C4.35222 16.6851 5.21031 15.9932 6.26867 15.9932H8.02542V17.7336C8.02542 18.7821 7.32703 19.6322 6.26867 19.6322ZM10.4144 13.6326V10.4561L13.6227 10.4489V13.6253L10.4144 13.6326ZM17.7673 19.6322C16.709 19.6322 16.0106 18.7821 16.0106 17.7336L16.0108 15.9932H17.7673C18.8257 15.9932 19.6835 16.6851 19.6835 17.7336C19.6835 18.7821 18.8257 19.6322 17.7673 19.6322Z" fill="#414146"/>
</svg>