<svg xmlns="http://www.w3.org/2000/svg" width="20" height="20" fill="none"><rect width="7.8" height="7.8" x="4.6" y="7.6" stroke="#19191C" stroke-width="1.2" rx=".9"/><path fill="#19191C" fill-rule="evenodd" d="M9.992 5.2h3c.74 0 1.176.003 1.486.044.124.017.19.036.222.048.012.031.03.098.047.222.042.31.045.745.045 1.486v3c0 .741-.003 1.176-.045 1.486-.016.124-.035.19-.047.223-.032.011-.098.03-.222.047a5 5 0 0 1-.486.035V12c0 .378 0 .706-.009.992.782-.023 1.247-.11 1.57-.431.439-.44.439-1.147.439-2.561V7c0-1.414 0-2.121-.44-2.56S14.406 4 12.992 4h-3C8.577 4 7.87 4 7.43 4.44c-.322.321-.408.787-.431 1.568C7.286 6 7.613 6 7.992 6H8.2a5 5 0 0 1 .035-.486c.017-.124.035-.19.047-.222.032-.012.098-.031.223-.048.31-.041.745-.044 1.486-.044m4.733.103-.01-.005zm-.031-.026-.006-.01zm-.006 6.456.006-.01zm.027-.03q.009-.008.01-.006zm-6.42-6.436-.006.01zm-.027.03q-.009.008-.01.006z" clip-rule="evenodd"/></svg>