<svg width="20" height="20" viewBox="0 0 20 20" fill="none" xmlns="http://www.w3.org/2000/svg"><path d="M8.299 4.099 C 8.060 4.119,7.976 4.142,7.775 4.248 C 7.454 4.416,7.264 4.624,7.169 4.909 C 7.087 5.157,7.000 5.642,7.000 5.858 L 7.000 6.000 7.594 6.000 L 8.189 6.000 8.241 5.679 C 8.272 5.492,8.316 5.337,8.347 5.306 C 8.394 5.258,8.692 5.253,11.241 5.251 C 12.804 5.251,14.213 5.262,14.372 5.278 C 14.627 5.302,14.663 5.314,14.681 5.378 C 14.737 5.567,14.764 7.512,14.740 9.494 C 14.718 11.314,14.706 11.642,14.665 11.669 C 14.588 11.718,14.399 11.766,14.192 11.789 L 14.000 11.809 14.000 12.388 L 14.000 12.967 14.230 12.967 C 15.148 12.967,15.736 12.557,15.896 11.805 C 15.978 11.419,16.007 10.244,15.989 8.017 C 15.971 5.725,15.952 5.354,15.831 4.953 C 15.774 4.765,15.728 4.687,15.575 4.527 C 15.459 4.406,15.309 4.293,15.179 4.229 C 14.973 4.127,14.958 4.125,14.276 4.098 C 13.455 4.065,8.709 4.066,8.299 4.099 M6.667 7.032 L 5.050 7.050 4.850 7.165 C 4.434 7.403,4.103 7.860,4.032 8.291 C 3.990 8.545,3.990 14.454,4.032 14.708 C 4.107 15.170,4.452 15.628,4.876 15.830 C 5.087 15.931,5.138 15.940,5.643 15.971 C 5.967 15.992,7.282 15.999,8.933 15.991 C 11.872 15.976,11.863 15.976,12.183 15.808 C 12.385 15.702,12.638 15.462,12.757 15.262 C 12.973 14.900,12.970 14.938,12.989 12.217 C 12.998 10.860,12.992 9.383,12.975 8.933 C 12.946 8.141,12.942 8.110,12.851 7.908 C 12.741 7.663,12.388 7.307,12.106 7.155 L 11.929 7.060 10.456 7.032 C 9.646 7.016,8.826 7.005,8.633 7.008 C 8.441 7.011,7.556 7.021,6.667 7.032 M11.710 8.293 L 11.800 8.387 11.800 11.500 L 11.800 14.613 11.710 14.707 L 11.621 14.800 8.504 14.800 L 5.387 14.800 5.293 14.710 L 5.200 14.621 5.200 11.504 L 5.200 8.387 5.290 8.293 L 5.379 8.200 8.500 8.200 L 11.621 8.200 11.710 8.293 " fill="#19191C" stroke="none" fill-rule="evenodd"></path></svg>
