<svg width="20" height="20" viewBox="0 0 20 20" fill="none" xmlns="http://www.w3.org/2000/svg"><path d="M8.700 4.066 C 8.217 4.083,8.087 4.098,7.942 4.157 C 7.515 4.328,7.284 4.543,7.170 4.874 C 7.092 5.101,7.000 5.623,7.000 5.839 L 7.000 6.000 7.596 6.000 L 8.193 6.000 8.233 5.668 C 8.257 5.470,8.293 5.320,8.320 5.297 C 8.404 5.227,10.708 5.191,12.717 5.228 C 13.725 5.247,14.582 5.272,14.622 5.284 C 14.669 5.299,14.700 5.342,14.712 5.411 C 14.758 5.671,14.774 7.297,14.750 9.377 L 14.725 11.637 14.644 11.690 C 14.600 11.719,14.438 11.759,14.285 11.778 L 14.007 11.812 13.992 12.381 C 13.984 12.694,13.986 12.959,13.997 12.970 C 14.032 13.005,14.733 12.938,14.927 12.882 C 15.455 12.728,15.766 12.400,15.896 11.859 C 15.969 11.557,15.999 10.573,15.999 8.517 C 15.999 5.560,15.955 5.007,15.690 4.638 C 15.551 4.444,15.304 4.254,15.067 4.160 C 14.890 4.089,14.825 4.086,13.267 4.064 C 11.361 4.037,9.515 4.038,8.700 4.066 M6.217 7.032 L 5.050 7.050 4.869 7.150 C 4.651 7.270,4.354 7.535,4.247 7.704 C 4.204 7.772,4.135 7.923,4.093 8.039 L 4.017 8.250 4.017 11.483 L 4.017 14.717 4.090 14.951 C 4.233 15.403,4.581 15.757,5.031 15.908 C 5.249 15.981,5.263 15.981,8.217 15.992 C 9.869 15.999,11.338 15.990,11.533 15.973 C 12.043 15.928,12.224 15.849,12.537 15.537 C 12.841 15.232,12.925 15.043,12.969 14.567 C 13.006 14.160,13.006 8.858,12.969 8.411 C 12.948 8.161,12.918 8.023,12.854 7.883 C 12.740 7.634,12.383 7.277,12.118 7.149 L 11.920 7.052 10.818 7.029 C 9.607 7.003,8.010 7.004,6.217 7.032 M11.710 8.293 L 11.800 8.387 11.800 11.500 L 11.800 14.613 11.710 14.707 L 11.621 14.800 8.504 14.800 L 5.387 14.800 5.293 14.710 L 5.200 14.621 5.200 11.504 L 5.200 8.387 5.290 8.293 L 5.379 8.200 8.500 8.200 L 11.621 8.200 11.710 8.293 " fill="#19191C" stroke="none" fill-rule="evenodd"></path></svg>