<svg width="20" height="20" fill="none" xmlns="http://www.w3.org/2000/svg"><path d="M8.575 4.034c-.394.033-.612.085-.843.201a1.334 1.334 0 0 0-.514.496c-.092.177-.18.582-.205.935L6.99 6h1.199l.037-.338c.02-.186.05-.351.066-.367.069-.07.869-.093 3.208-.093 2.548 0 3.118.021 3.189.118.081.109.094.561.094 3.18 0 2.62-.013 3.07-.094 3.181-.027.038-.133.064-.356.089-.174.02-.319.038-.321.041-.003.003-.01.268-.017.589l-.011.583.3-.01c.802-.028 1.282-.27 1.498-.756.196-.441.217-.795.217-3.7-.001-2.368-.022-3.077-.103-3.407-.146-.593-.486-.906-1.122-1.034-.218-.044-.683-.053-3.074-.061-1.549-.004-2.955.004-3.125.019M5.168 7.036c-.245.048-.506.198-.72.412a1.415 1.415 0 0 0-.414.748c-.046.245-.046 6.363 0 6.608.051.274.19.525.414.748.223.224.474.363.748.414.245.046 6.363.046 6.608 0 .274-.051.525-.19.748-.414.224-.223.363-.474.414-.748.046-.245.046-6.363 0-6.608a1.415 1.415 0 0 0-.414-.748 1.415 1.415 0 0 0-.748-.414c-.223-.042-6.421-.04-6.636.002m6.535 1.261.097.098v6.21l-.097.098-.098.097h-6.21l-.098-.097-.097-.098v-6.21l.097-.098.098-.097h6.21l.098.097" fill="#19191C" fill-rule="evenodd"/></svg>