<svg width="20" height="20" viewBox="0 0 20 20" fill="none" xmlns="http://www.w3.org/2000/svg"><path d="M8.214 4.081 C 7.784 4.161,7.452 4.363,7.264 4.659 C 7.150 4.840,7.041 5.288,7.012 5.696 L 6.990 6.000 7.590 6.000 L 8.190 6.000 8.231 5.652 C 8.263 5.386,8.286 5.300,8.328 5.282 C 8.465 5.226,10.123 5.196,12.150 5.213 C 14.125 5.229,14.626 5.248,14.686 5.308 C 14.754 5.376,14.768 6.049,14.758 8.673 C 14.752 10.255,14.734 11.584,14.720 11.625 C 14.688 11.710,14.565 11.750,14.225 11.785 L 14.000 11.808 13.994 12.304 C 13.990 12.577,13.987 12.841,13.985 12.892 L 13.983 12.983 14.267 12.972 C 15.225 12.935,15.696 12.625,15.885 11.907 C 15.973 11.574,15.999 10.807,15.999 8.550 C 15.999 5.249,15.967 4.924,15.594 4.516 C 15.416 4.321,15.244 4.217,14.933 4.113 C 14.761 4.055,14.557 4.051,11.600 4.045 C 9.127 4.039,8.399 4.047,8.214 4.081 M5.633 7.032 L 5.050 7.050 4.839 7.164 C 4.375 7.416,4.088 7.824,4.032 8.311 C 3.991 8.666,3.991 14.334,4.032 14.689 C 4.109 15.363,4.636 15.891,5.307 15.968 C 5.669 16.009,11.331 16.009,11.693 15.968 C 12.032 15.929,12.293 15.800,12.546 15.546 C 12.807 15.286,12.931 15.030,12.968 14.675 C 13.008 14.295,13.008 8.705,12.968 8.325 C 12.944 8.097,12.913 7.989,12.827 7.826 C 12.688 7.565,12.432 7.311,12.161 7.166 C 11.950 7.053,11.949 7.053,11.350 7.029 C 10.665 7.002,6.511 7.004,5.633 7.032 M11.710 8.293 L 11.800 8.387 11.800 11.500 L 11.800 14.613 11.710 14.707 L 11.621 14.800 8.504 14.800 L 5.387 14.800 5.293 14.710 L 5.200 14.621 5.200 11.504 L 5.200 8.387 5.290 8.293 L 5.379 8.200 8.500 8.200 L 11.621 8.200 11.710 8.293 " fill="#19191C" stroke="none" fill-rule="evenodd"></path></svg>