<svg xmlns="http://www.w3.org/2000/svg" width="20" height="20" fill="none"><mask id="a" fill="#fff"><path fill-rule="evenodd" d="M15.65 12.885c.073-.134.11-.2.125-.262a.494.494 0 0 0-.358-.607C15.355 12 15.237 12 15 12a5 5 0 0 1-4.345-7.476c.13-.226-.007-.524-.267-.524a6 6 0 1 0 5.262 8.885" clip-rule="evenodd"/></mask><path fill="#19191C" d="m10.655 4.524 1.042.595zm4.762 7.492-.302 1.162zm.233.868-1.052-.577zm.125-.261 1.164.294zM15 10.8A3.8 3.8 0 0 1 11.2 7H8.8a6.2 6.2 0 0 0 6.2 6.2zM11.2 7c0-.687.181-1.327.497-1.881l-2.084-1.19A6.2 6.2 0 0 0 8.8 7zm-5.612 3a4.8 4.8 0 0 1 4.8-4.8V2.8a7.2 7.2 0 0 0-7.2 7.2zm4.8 4.8a4.8 4.8 0 0 1-4.8-4.8h-2.4a7.2 7.2 0 0 0 7.2 7.2zm4.21-2.493a4.8 4.8 0 0 1-4.21 2.493v2.4a7.2 7.2 0 0 0 6.314-3.738zm-2.9-7.188a1.57 1.57 0 0 0 .046-1.471 1.51 1.51 0 0 0-1.356-.848v2.4a.89.89 0 0 1-.797-.493.83.83 0 0 1 .022-.778zM15 13.2l.238.002h.006a1 1 0 0 1-.13-.024l.605-2.323c-.175-.046-.342-.05-.41-.052-.088-.003-.199-.003-.309-.003zm1.702.262c.036-.066.174-.296.237-.545l-2.327-.589a1 1 0 0 1 .043-.125l.003-.007-.004.009-.012.022-.019.035-.025.045zm-1.587-.284a.707.707 0 0 1-.503-.85l2.327.589c.23-.91-.31-1.826-1.22-2.062z" mask="url(#a)"/></svg>