<svg width="20" height="20" fill="none" xmlns="http://www.w3.org/2000/svg"><path d="M9.735 4.038a7.148 7.148 0 0 0-1.332.301c-1.857.647-3.341 2.263-3.821 4.159A6.015 6.015 0 0 0 7.1 15.014c1.724 1.147 3.996 1.296 5.883.386a5.986 5.986 0 0 0 2.616-2.432c.207-.361.238-.558.114-.724-.156-.21-.203-.224-.806-.25-.836-.035-1.465-.188-2.118-.514-1.401-.7-2.352-1.936-2.696-3.505-.098-.447-.105-1.371-.014-1.858.082-.441.256-.958.458-1.359.089-.18.163-.364.163-.41 0-.125-.092-.28-.187-.316-.098-.037-.382-.035-.778.006m-.801 1.698a6.475 6.475 0 0 0 .001 2.531c.326 1.584 1.285 2.99 2.667 3.915a6.415 6.415 0 0 0 2.081.871c.165.033.306.064.312.068.033.023-.166.243-.418.463-.664.581-1.397.941-2.31 1.137-.442.094-1.371.087-1.83-.016-.962-.214-1.748-.636-2.411-1.294a4.212 4.212 0 0 1-.736-.919c-.683-1.089-.879-2.558-.51-3.826a4.621 4.621 0 0 1 1.246-2.077 4.675 4.675 0 0 1 1.966-1.175c.004.005-.022.15-.058.322" fill-rule="evenodd" fill="#000"/></svg>