<svg width="20" height="20" viewBox="0 0 20 20" fill="none" xmlns="http://www.w3.org/2000/svg"><path d="M9.768 4.038 C 9.098 4.108,8.346 4.327,7.751 4.624 C 6.159 5.419,5.003 6.847,4.571 8.552 C 4.376 9.319,4.347 10.353,4.499 11.115 C 4.949 13.378,6.620 15.190,8.800 15.779 C 9.361 15.931,9.735 15.978,10.383 15.979 C 11.111 15.979,11.581 15.905,12.255 15.683 C 13.135 15.394,13.871 14.950,14.541 14.304 C 15.093 13.772,15.565 13.126,15.736 12.669 C 15.819 12.446,15.791 12.302,15.637 12.153 C 15.529 12.050,15.435 12.033,14.617 11.968 C 13.916 11.912,13.464 11.795,12.868 11.513 C 12.343 11.265,11.928 10.968,11.482 10.520 C 10.785 9.821,10.407 9.146,10.115 8.083 C 10.030 7.773,10.009 6.551,10.081 6.133 C 10.147 5.753,10.309 5.257,10.513 4.811 C 10.706 4.387,10.718 4.332,10.650 4.188 C 10.560 3.999,10.403 3.972,9.768 4.038 M8.930 5.742 C 8.490 8.031,9.282 10.288,11.042 11.755 C 11.783 12.373,12.653 12.808,13.578 13.024 C 13.783 13.071,13.963 13.122,13.979 13.136 C 14.020 13.172,13.601 13.580,13.253 13.840 C 12.721 14.238,11.965 14.576,11.300 14.712 C 10.362 14.904,9.261 14.762,8.335 14.330 C 7.698 14.032,6.982 13.448,6.551 12.873 C 5.488 11.456,5.303 9.477,6.086 7.893 C 6.609 6.834,7.482 6.019,8.582 5.561 C 9.016 5.380,9.001 5.372,8.930 5.742 " stroke="none" fill-rule="evenodd"></path></svg>