<svg width="20" height="20" fill="none" xmlns="http://www.w3.org/2000/svg"><path d="M9.917 4.023 C 9.682 4.043,9.159 4.135,8.883 4.204 C 8.459 4.311,8.143 4.428,7.751 4.624 C 5.915 5.539,4.676 7.289,4.431 9.312 C 4.374 9.777,4.408 10.653,4.499 11.115 C 4.948 13.378,6.618 15.189,8.800 15.779 C 9.361 15.931,9.735 15.978,10.383 15.979 C 11.109 15.979,11.582 15.905,12.245 15.686 C 13.190 15.374,13.862 14.966,14.579 14.269 C 15.101 13.761,15.570 13.112,15.736 12.669 C 15.819 12.446,15.791 12.302,15.637 12.153 C 15.529 12.050,15.435 12.033,14.617 11.968 C 13.916 11.912,13.464 11.795,12.868 11.513 C 12.343 11.265,11.928 10.968,11.482 10.520 C 10.785 9.821,10.407 9.146,10.115 8.083 C 10.030 7.773,10.009 6.551,10.081 6.133 C 10.147 5.753,10.309 5.257,10.513 4.811 C 10.706 4.387,10.718 4.332,10.650 4.188 C 10.567 4.012,10.421 3.979,9.917 4.023 M8.930 5.742 C 8.537 7.788,9.114 9.787,10.528 11.273 C 11.351 12.138,12.396 12.738,13.567 13.019 C 13.777 13.070,13.963 13.123,13.979 13.136 C 14.021 13.172,13.599 13.581,13.253 13.840 C 12.721 14.238,11.965 14.576,11.300 14.712 C 10.114 14.954,8.780 14.680,7.719 13.976 C 7.292 13.693,6.686 13.094,6.428 12.700 C 5.288 10.960,5.329 8.801,6.535 7.146 C 6.739 6.865,7.308 6.309,7.600 6.104 C 7.932 5.871,8.337 5.652,8.656 5.533 C 8.800 5.480,8.933 5.436,8.953 5.435 C 8.978 5.434,8.971 5.533,8.930 5.742 " stroke="none" fill-rule="evenodd"></path></svg>