<svg width="20" height="20" fill="none" xmlns="http://www.w3.org/2000/svg"><path d="M12.193 3.755 L 11.959 4.239 11.855 4.220 C 11.134 4.086,8.661 4.088,8.109 4.222 C 8.041 4.239,8.014 4.198,7.819 3.787 C 7.700 3.537,7.579 3.323,7.548 3.311 C 7.474 3.283,6.745 3.438,6.122 3.616 C 5.269 3.859,4.155 4.291,3.979 4.447 C 3.859 4.554,3.299 5.512,2.955 6.200 C 2.085 7.937,1.576 9.696,1.399 11.571 C 1.355 12.031,1.349 14.016,1.390 14.298 L 1.417 14.479 1.850 14.777 C 2.958 15.540,4.027 16.090,5.300 16.554 L 5.783 16.730 5.841 16.662 C 5.944 16.540,6.389 15.821,6.564 15.495 L 6.733 15.179 6.475 15.068 C 6.036 14.879,5.300 14.494,5.300 14.453 C 5.300 14.431,5.372 14.359,5.461 14.291 L 5.622 14.168 6.019 14.335 C 7.346 14.891,8.584 15.144,9.983 15.146 C 11.431 15.149,12.588 14.912,14.015 14.320 L 14.379 14.169 14.540 14.291 C 14.628 14.359,14.700 14.431,14.700 14.452 C 14.700 14.495,14.080 14.823,13.600 15.034 C 13.426 15.110,13.278 15.178,13.271 15.184 C 13.251 15.205,13.729 16.030,13.970 16.388 L 14.200 16.732 14.610 16.586 C 15.904 16.127,17.031 15.554,18.105 14.808 C 18.639 14.438,18.593 14.534,18.635 13.699 C 18.793 10.600,18.006 7.626,16.292 4.844 L 16.021 4.404 15.586 4.223 C 14.655 3.835,13.980 3.619,13.067 3.415 C 12.783 3.351,12.522 3.293,12.488 3.285 C 12.438 3.274,12.385 3.359,12.193 3.755 M7.600 8.986 C 7.836 9.063,8.101 9.267,8.292 9.519 C 8.501 9.794,8.595 10.025,8.644 10.378 C 8.754 11.190,8.381 11.965,7.718 12.300 C 7.497 12.411,7.471 12.417,7.135 12.417 C 6.808 12.417,6.768 12.409,6.556 12.309 C 6.134 12.109,5.749 11.620,5.630 11.133 C 5.567 10.875,5.575 10.393,5.647 10.152 C 5.831 9.532,6.301 9.039,6.808 8.934 C 6.991 8.896,7.407 8.923,7.600 8.986 M13.152 8.936 C 14.114 9.112,14.682 10.315,14.296 11.355 C 13.906 12.404,12.738 12.768,11.963 12.083 C 11.484 11.658,11.263 11.027,11.359 10.348 C 11.409 9.987,11.598 9.612,11.865 9.346 C 12.253 8.958,12.624 8.840,13.152 8.936 " fill="#19191C" stroke="none" fill-rule="evenodd"></path></svg>