<svg xmlns="http://www.w3.org/2000/svg" width="20" height="20" fill="none"><path fill="#19191C" d="M16.008 4.403a14 14 0 0 0-3.572-1.126c-.153.28-.333.655-.457.953a13 13 0 0 0-3.958 0 10 10 0 0 0-.463-.953 14 14 0 0 0-3.574 1.13c-2.26 3.426-2.873 6.768-2.567 10.062a14.3 14.3 0 0 0 4.38 2.252q.531-.73.939-1.55a9 9 0 0 1-1.478-.721q.186-.139.362-.288c2.849 1.337 5.944 1.337 8.758 0q.178.15.362.288a9 9 0 0 1-1.48.723q.407.818.938 1.55a14.2 14.2 0 0 0 4.383-2.254c.36-3.819-.614-7.13-2.573-10.066m-8.884 8.04c-.855 0-1.557-.8-1.557-1.776 0-.975.687-1.778 1.557-1.778s1.57.801 1.556 1.778c.001.975-.686 1.776-1.556 1.776m5.75 0c-.854 0-1.556-.8-1.556-1.776 0-.975.687-1.778 1.557-1.778s1.571.801 1.556 1.778c0 .975-.686 1.776-1.556 1.776"/></svg>