<svg width="20" height="20" viewBox="0 0 20 20" fill="none" xmlns="http://www.w3.org/2000/svg"><path d="M12.191 3.745 C 11.973 4.172,11.942 4.216,11.867 4.210 C 10.947 4.137,9.091 4.126,8.296 4.189 L 8.042 4.209 7.836 3.813 C 7.536 3.234,7.614 3.282,7.129 3.381 C 6.075 3.595,4.650 4.069,4.113 4.383 C 3.939 4.486,3.765 4.724,3.418 5.333 C 2.426 7.079,1.825 8.773,1.498 10.745 C 1.414 11.257,1.359 12.491,1.373 13.578 L 1.383 14.395 1.467 14.485 C 1.578 14.605,2.484 15.203,2.983 15.485 C 3.684 15.882,4.535 16.269,5.542 16.646 L 5.767 16.730 5.843 16.648 C 5.940 16.544,6.284 15.993,6.538 15.536 L 6.734 15.183 6.625 15.136 C 6.314 15.002,5.369 14.526,5.336 14.487 C 5.307 14.452,5.328 14.416,5.433 14.321 C 5.507 14.254,5.594 14.200,5.628 14.200 C 5.661 14.200,5.838 14.261,6.019 14.335 C 6.847 14.672,7.684 14.909,8.517 15.042 C 8.930 15.108,9.102 15.116,10.033 15.114 C 10.858 15.113,11.165 15.100,11.467 15.054 C 12.177 14.945,13.195 14.654,13.981 14.335 C 14.162 14.261,14.339 14.200,14.373 14.200 C 14.408 14.200,14.498 14.258,14.574 14.329 L 14.712 14.458 14.565 14.552 C 14.409 14.650,13.470 15.108,13.342 15.148 C 13.300 15.161,13.267 15.182,13.267 15.195 C 13.267 15.235,13.698 15.966,13.953 16.358 L 14.198 16.733 14.562 16.603 C 15.666 16.209,16.794 15.660,17.700 15.075 C 18.246 14.723,18.495 14.529,18.551 14.411 C 18.641 14.220,18.687 13.099,18.639 12.267 C 18.482 9.573,17.762 7.291,16.306 4.875 L 16.020 4.400 15.352 4.137 C 14.392 3.759,13.785 3.574,12.724 3.339 L 12.432 3.274 12.191 3.745 M13.143 8.949 C 13.932 9.116,14.455 9.900,14.390 10.820 C 14.320 11.811,13.499 12.563,12.659 12.406 C 12.093 12.301,11.603 11.824,11.420 11.202 C 11.351 10.967,11.350 10.413,11.418 10.151 C 11.567 9.580,12.045 9.069,12.544 8.948 C 12.774 8.892,12.874 8.892,13.143 8.949 M7.726 9.053 C 7.983 9.179,8.323 9.528,8.455 9.802 C 8.595 10.094,8.639 10.295,8.638 10.654 C 8.637 11.302,8.395 11.800,7.902 12.169 C 7.624 12.377,7.529 12.407,7.133 12.412 C 6.810 12.416,6.768 12.409,6.583 12.320 C 6.330 12.197,5.955 11.822,5.812 11.550 C 5.606 11.158,5.562 10.857,5.633 10.309 C 5.668 10.043,5.764 9.826,5.985 9.514 C 6.144 9.289,6.275 9.179,6.559 9.028 C 6.748 8.927,6.754 8.926,7.143 8.943 C 7.485 8.958,7.562 8.973,7.726 9.053 " fill="#19191C" stroke="none" fill-rule="evenodd"></path></svg>