<svg width="20" height="20" viewBox="0 0 20 20" fill="none" xmlns="http://www.w3.org/2000/svg"><path d="M12.193 3.756 L 11.959 4.239 11.855 4.220 C 11.134 4.086,8.661 4.088,8.109 4.222 C 8.041 4.239,8.014 4.198,7.819 3.787 C 7.700 3.537,7.580 3.323,7.550 3.312 C 7.437 3.269,6.288 3.548,5.487 3.814 C 4.902 4.008,4.197 4.297,4.028 4.411 C 3.809 4.560,2.877 6.255,2.468 7.250 C 1.906 8.619,1.537 10.110,1.399 11.571 C 1.355 12.031,1.349 14.016,1.390 14.297 L 1.417 14.478 1.817 14.756 C 2.891 15.503,4.033 16.093,5.300 16.554 L 5.783 16.730 5.841 16.662 C 5.944 16.540,6.389 15.821,6.564 15.495 L 6.733 15.179 6.475 15.068 C 6.036 14.879,5.300 14.494,5.300 14.453 C 5.300 14.431,5.372 14.359,5.461 14.291 L 5.622 14.168 6.019 14.335 C 7.346 14.891,8.584 15.144,9.983 15.146 C 11.431 15.149,12.588 14.912,14.015 14.320 L 14.379 14.169 14.540 14.291 C 14.628 14.359,14.700 14.431,14.700 14.452 C 14.700 14.495,14.080 14.823,13.600 15.034 C 13.426 15.110,13.278 15.178,13.271 15.184 C 13.251 15.205,13.729 16.030,13.970 16.388 L 14.200 16.732 14.610 16.586 C 15.555 16.251,16.547 15.790,17.267 15.351 C 17.725 15.072,18.438 14.585,18.524 14.493 C 18.594 14.419,18.601 14.366,18.635 13.699 C 18.797 10.548,17.978 7.525,16.191 4.679 L 16.018 4.403 15.617 4.236 C 14.582 3.804,13.900 3.591,12.797 3.352 L 12.426 3.272 12.193 3.756 M7.600 8.986 C 7.836 9.063,8.101 9.267,8.292 9.519 C 8.501 9.794,8.595 10.025,8.644 10.378 C 8.755 11.191,8.380 11.968,7.716 12.300 C 7.494 12.411,7.467 12.417,7.133 12.417 C 6.808 12.417,6.767 12.409,6.556 12.309 C 6.134 12.109,5.749 11.620,5.630 11.133 C 5.567 10.875,5.575 10.393,5.647 10.152 C 5.831 9.532,6.301 9.039,6.808 8.934 C 6.991 8.896,7.407 8.923,7.600 8.986 M13.152 8.936 C 14.114 9.112,14.682 10.315,14.296 11.355 C 13.906 12.404,12.738 12.768,11.963 12.083 C 11.485 11.660,11.267 11.044,11.357 10.366 C 11.406 9.990,11.591 9.620,11.865 9.346 C 12.253 8.958,12.624 8.840,13.152 8.936 " fill="#19191C" stroke="none" fill-rule="evenodd"></path></svg>