<svg width="20" height="20" fill="none" xmlns="http://www.w3.org/2000/svg"><path d="M7.4 3.308a14.545 14.545 0 0 0-3.098.957c-.173.076-.333.164-.357.195a23.86 23.86 0 0 0-.391.64c-1.212 2.03-1.898 4.054-2.14 6.317-.063.595-.083 2.01-.036 2.659l.029.392.413.291a14.675 14.675 0 0 0 3.636 1.853l.339.117.164-.239c.209-.304.534-.845.669-1.112l.104-.206-.258-.106c-.261-.108-1.06-.508-1.159-.58-.048-.035-.031-.058.128-.181l.182-.14.265.116c2.622 1.153 5.488 1.172 8.096.053l.39-.168.182.14c.158.122.175.145.127.18-.099.073-.898.472-1.16.58a1.484 1.484 0 0 0-.258.122c0 .023.447.814.553.979.053.082.161.243.239.357l.142.207.341-.119a14.232 14.232 0 0 0 3.683-1.886c.269-.19.375-.284.375-.333 0-.037.017-.397.037-.8a14.748 14.748 0 0 0-.796-5.526 16.983 16.983 0 0 0-1.693-3.456l-.131-.206-.467-.2a14.226 14.226 0 0 0-2.679-.84l-.445-.092-.231.481-.231.482-.107-.018c-.405-.068-.759-.092-1.624-.107-.92-.016-1.575.017-2.116.107-.099.017-.102.012-.259-.342a5.356 5.356 0 0 0-.233-.478c-.074-.118-.077-.119-.225-.09m.347 5.737c.413.204.744.627.87 1.112.064.246.064.741-.001.994-.13.51-.452.931-.871 1.138a1.042 1.042 0 0 1-.54.138c-.476.022-.815-.126-1.166-.51-.85-.93-.482-2.576.661-2.957.14-.046.256-.058.493-.048.275.011.336.026.554.133m5.545-.083c.553.172.963.662 1.094 1.306.187.924-.3 1.862-1.092 2.103-.346.105-.709.08-1.016-.07-.423-.208-.767-.649-.894-1.15a2.579 2.579 0 0 1-.014-.924c.124-.599.633-1.168 1.155-1.291.217-.051.557-.04.767.026" fill="#19191C" fill-rule="evenodd"/></svg>