<svg width="20" height="20" viewBox="0 0 20 20" fill="none" xmlns="http://www.w3.org/2000/svg"><path d="M12.267 3.594 C 12.177 3.772,12.068 3.976,12.026 4.048 L 11.950 4.178 9.986 4.175 L 8.022 4.172 7.836 3.807 C 7.606 3.359,7.585 3.333,7.449 3.333 C 7.171 3.333,5.759 3.713,5.031 3.984 C 3.980 4.375,3.921 4.428,3.306 5.533 C 2.464 7.048,1.870 8.707,1.553 10.433 C 1.428 11.116,1.397 11.562,1.376 13.024 C 1.360 14.141,1.365 14.375,1.404 14.422 C 1.475 14.508,1.873 14.794,2.333 15.089 C 3.181 15.632,3.969 16.025,5.133 16.485 L 5.750 16.728 5.826 16.657 C 6.010 16.486,6.765 15.194,6.695 15.171 C 6.670 15.162,6.354 15.008,5.992 14.828 C 5.596 14.632,5.333 14.482,5.333 14.454 C 5.333 14.399,5.502 14.248,5.597 14.218 C 5.636 14.205,5.833 14.263,6.089 14.361 C 6.979 14.702,7.691 14.903,8.484 15.038 C 8.873 15.104,9.030 15.111,10.033 15.109 C 11.270 15.107,11.465 15.087,12.272 14.884 C 12.830 14.743,13.348 14.578,13.907 14.363 C 14.140 14.273,14.352 14.200,14.378 14.200 C 14.404 14.200,14.490 14.258,14.569 14.328 L 14.714 14.457 14.565 14.551 C 14.409 14.650,13.471 15.108,13.342 15.148 C 13.300 15.161,13.267 15.182,13.267 15.195 C 13.267 15.235,13.698 15.966,13.953 16.358 L 14.197 16.732 14.557 16.603 C 15.711 16.188,16.842 15.632,17.786 15.017 C 18.284 14.693,18.497 14.516,18.554 14.379 C 18.654 14.140,18.693 13.016,18.631 12.128 C 18.453 9.543,17.753 7.330,16.368 4.977 L 16.030 4.404 15.434 4.171 C 14.436 3.780,13.616 3.533,12.491 3.285 C 12.444 3.275,12.395 3.344,12.267 3.594 M13.104 8.948 C 13.830 9.102,14.322 9.708,14.385 10.526 C 14.455 11.426,13.877 12.257,13.078 12.406 C 12.442 12.524,11.730 12.044,11.460 11.315 C 11.397 11.146,11.386 11.050,11.387 10.667 C 11.388 10.288,11.399 10.185,11.460 10.018 C 11.658 9.479,12.137 9.029,12.611 8.935 C 12.813 8.895,12.860 8.896,13.104 8.948 M7.718 9.066 C 7.987 9.197,8.334 9.555,8.466 9.839 C 8.698 10.333,8.688 11.018,8.444 11.522 C 8.311 11.796,7.943 12.175,7.687 12.300 C 7.503 12.391,7.450 12.401,7.145 12.404 C 6.737 12.408,6.621 12.374,6.369 12.172 C 5.768 11.689,5.539 11.145,5.629 10.413 C 5.706 9.786,6.024 9.321,6.583 9.018 C 6.745 8.931,6.762 8.929,7.133 8.948 C 7.466 8.966,7.543 8.981,7.718 9.066 " fill="#19191C" stroke="none" fill-rule="evenodd"></path></svg>
