<svg width="20" height="20" viewBox="0 0 20 20" fill="none" xmlns="http://www.w3.org/2000/svg"><path d="M12.190 3.756 C 11.953 4.238,11.952 4.239,11.853 4.219 C 11.402 4.129,8.705 4.111,8.250 4.195 C 8.148 4.214,8.069 4.214,8.045 4.195 C 8.025 4.179,7.914 3.976,7.799 3.746 C 7.685 3.516,7.573 3.321,7.550 3.312 C 7.482 3.286,6.712 3.455,6.095 3.632 C 5.473 3.810,5.028 3.967,4.435 4.217 C 4.003 4.400,3.926 4.473,3.611 5.004 C 2.414 7.023,1.770 8.837,1.446 11.100 C 1.385 11.530,1.342 14.061,1.391 14.333 C 1.418 14.479,1.428 14.489,1.851 14.777 C 2.947 15.524,3.970 16.054,5.237 16.528 C 5.484 16.621,5.711 16.706,5.740 16.718 C 5.780 16.733,5.831 16.685,5.929 16.540 C 6.117 16.262,6.518 15.595,6.633 15.367 L 6.730 15.175 6.507 15.082 C 6.260 14.980,5.580 14.640,5.404 14.532 L 5.292 14.463 5.371 14.378 C 5.414 14.332,5.489 14.266,5.536 14.232 C 5.621 14.171,5.623 14.171,6.063 14.351 C 7.090 14.771,8.019 15.005,9.049 15.103 C 9.582 15.155,11.038 15.124,11.483 15.052 C 12.300 14.920,13.192 14.662,14.014 14.321 C 14.376 14.170,14.378 14.170,14.464 14.232 C 14.511 14.266,14.585 14.331,14.628 14.378 L 14.707 14.462 14.562 14.554 C 14.408 14.651,13.469 15.108,13.342 15.148 C 13.300 15.161,13.267 15.182,13.267 15.196 C 13.267 15.238,13.796 16.129,14.005 16.441 L 14.200 16.731 14.492 16.629 C 15.771 16.180,16.924 15.607,17.952 14.908 C 18.558 14.496,18.565 14.489,18.599 14.233 C 18.653 13.826,18.671 12.754,18.635 12.150 C 18.479 9.549,17.718 7.179,16.289 4.843 L 16.019 4.402 15.451 4.170 C 14.535 3.796,13.802 3.572,12.722 3.337 L 12.428 3.273 12.190 3.756 M13.119 8.936 C 13.586 9.022,13.992 9.344,14.208 9.800 C 14.355 10.109,14.400 10.320,14.400 10.693 C 14.399 11.198,14.229 11.633,13.905 11.963 C 13.674 12.198,13.481 12.314,13.199 12.386 C 12.438 12.581,11.687 12.079,11.407 11.188 C 11.324 10.924,11.337 10.343,11.431 10.068 C 11.620 9.519,12.048 9.076,12.507 8.952 C 12.725 8.893,12.865 8.890,13.119 8.936 M7.759 9.065 C 8.003 9.195,8.305 9.503,8.446 9.763 C 8.719 10.270,8.726 10.971,8.463 11.525 C 8.326 11.813,7.967 12.177,7.683 12.316 C 7.501 12.405,7.452 12.414,7.133 12.415 C 6.804 12.417,6.768 12.410,6.566 12.310 C 6.176 12.117,5.821 11.693,5.666 11.233 C 5.602 11.044,5.595 10.964,5.607 10.600 C 5.623 10.128,5.668 9.984,5.924 9.593 C 6.097 9.328,6.273 9.169,6.549 9.030 C 6.746 8.930,6.759 8.928,7.150 8.940 C 7.529 8.952,7.561 8.959,7.759 9.065 " fill="#19191C" stroke="none" fill-rule="evenodd"></path></svg>