<svg width="20" height="20" fill="none" xmlns="http://www.w3.org/2000/svg"><path d="M9.517 4.212a.703.703 0 0 0-.315.332c-.024.063-.035 1.008-.035 2.933v2.839l-1.292-1.29c-.71-.709-1.334-1.305-1.386-1.324-.512-.192-1.007.346-.758.824.097.186 3.656 3.726 3.81 3.79a.512.512 0 0 0 .479-.024c.071-.042.95-.9 1.952-1.909 1.585-1.594 1.827-1.851 1.859-1.97.117-.446-.248-.817-.721-.731-.111.02-.283.179-1.434 1.327l-1.308 1.305-.009-2.865c-.01-3.2.007-2.978-.246-3.17a.68.68 0 0 0-.596-.067M4.483 14.714a.689.689 0 0 0-.314.33.632.632 0 0 0 .241.717l.135.089h5.169c5.109 0 5.171-.001 5.282-.067a.92.92 0 0 0 .214-.191c.085-.105.101-.153.102-.316.002-.231-.063-.369-.234-.499l-.123-.094-5.186-.007c-4.282-.006-5.203.001-5.286.038" fill-rule="evenodd" fill="#000"/></svg>