<svg width="20" height="20" viewBox="0 0 20 20" fill="none" xmlns="http://www.w3.org/2000/svg"><path d="M9.571 4.189 C 9.528 4.198,9.429 4.269,9.352 4.347 C 9.231 4.467,9.208 4.514,9.189 4.669 C 9.177 4.768,9.167 6.078,9.167 7.579 L 9.167 10.308 7.896 9.051 C 7.197 8.360,6.578 7.766,6.521 7.731 C 6.335 7.617,5.981 7.680,5.826 7.855 C 5.677 8.022,5.631 8.283,5.714 8.481 C 5.766 8.608,7.704 10.582,8.826 11.654 C 9.598 12.391,9.637 12.415,9.912 12.334 C 10.030 12.300,10.305 12.038,11.819 10.522 C 12.792 9.547,13.647 8.677,13.718 8.588 C 13.831 8.447,13.848 8.404,13.848 8.253 C 13.848 7.841,13.410 7.549,13.047 7.720 C 12.964 7.758,12.450 8.244,11.642 9.046 L 10.367 10.311 10.365 7.831 C 10.364 6.466,10.351 5.158,10.337 4.923 C 10.307 4.456,10.275 4.375,10.075 4.257 C 9.969 4.195,9.708 4.160,9.571 4.189 M4.992 14.696 C 4.487 14.716,4.462 14.720,4.355 14.806 C 4.078 15.027,4.066 15.403,4.327 15.678 C 4.518 15.880,4.201 15.867,9.007 15.863 C 11.432 15.862,13.763 15.850,14.186 15.838 L 14.955 15.817 15.078 15.723 C 15.238 15.601,15.300 15.474,15.300 15.267 C 15.300 15.046,15.235 14.896,15.090 14.786 L 14.974 14.697 10.245 14.686 C 7.644 14.680,5.280 14.685,4.992 14.696 " stroke="none" fill-rule="evenodd"></path></svg>