<svg width="21" height="20" viewBox="0 0 21 20" fill="none" xmlns="http://www.w3.org/2000/svg">
    <path
        d="M3.07619 2.57566C3.28117 2.37086 3.59729 2.3449 3.83009 2.49851L3.92384 2.57566L7.41505 6.06687C8.26493 5.39934 9.3355 4.99948 10.5 4.99948L10.7569 5.00632C13.3987 5.14004 15.4998 7.32442 15.5 9.99948L15.4932 10.2563C15.4393 11.3213 15.0517 12.2984 14.4336 13.0854L17.9238 16.5757L18.001 16.6694C18.1547 16.9022 18.1287 17.2183 17.9238 17.4233C17.7188 17.6283 17.4028 17.6543 17.1699 17.5005L17.0762 17.4233L13.586 13.9331C12.7361 14.6009 11.6648 14.9995 10.5 14.9995L10.2432 14.9926C7.68619 14.8633 5.63624 12.8133 5.50685 10.2563L5.50001 9.99948C5.50011 8.83482 5.89864 7.76343 6.56642 6.91355L3.07619 3.42331L2.99904 3.32956C2.84545 3.0967 2.87123 2.78061 3.07619 2.57566ZM10.5 6.19968C8.40148 6.19968 6.70044 7.901 6.70021 9.99948C6.70021 12.0982 8.40133 13.7993 10.5 13.7993C12.5987 13.7992 14.2998 12.0981 14.2998 9.99948C14.2996 7.90103 12.5985 6.19972 10.5 6.19968Z"
        fill="#19191C" />
</svg>