<svg width="24" height="24" viewBox="0 0 24 24" fill="none" xmlns="http://www.w3.org/2000/svg">
<path d="M4.59955 15.3633L6.75636 1.42672C6.83091 0.951425 7.46318 0.839133 7.68636 1.26401L10.0045 5.63882L4.59955 15.3633ZM20 18.6001L17.8755 5.91382C17.86 5.82314 17.8203 5.73844 17.7606 5.66889C17.7009 5.59935 17.6234 5.54761 17.5366 5.51928C17.4498 5.49096 17.3569 5.48712 17.2681 5.50819C17.1793 5.52926 17.0979 5.57443 17.0327 5.63882L4 18.6001L11.2436 22.8126C11.4659 22.9356 11.7153 23 11.9689 23C12.2224 23 12.4718 22.9356 12.6941 22.8126L20 18.6001ZM14.1073 7.55099L12.4464 4.36373C12.4051 4.28185 12.3421 4.21309 12.2644 4.16507C12.1868 4.11704 12.0975 4.09162 12.0064 4.09162C11.9153 4.09162 11.8259 4.11704 11.7483 4.16507C11.6706 4.21309 11.6077 4.28185 11.5664 4.36373L4.265 17.4882L14.1073 7.55099Z" fill="#414146"/>
</svg>
