<svg width="20" height="20" viewBox="0 0 20 20" fill="none" xmlns="http://www.w3.org/2000/svg"><path d="M9.017 1.120 C 7.436 1.344,6.376 1.737,5.135 2.559 C 4.129 3.225,3.319 4.022,2.671 4.983 C 2.042 5.917,1.619 6.865,1.333 7.983 C 1.134 8.764,1.084 9.228,1.084 10.300 C 1.084 11.101,1.094 11.271,1.159 11.646 C 1.357 12.774,1.732 13.870,2.222 14.750 C 3.177 16.464,4.655 17.835,6.383 18.611 C 7.105 18.935,7.357 18.990,7.556 18.868 C 7.775 18.735,7.810 18.525,7.780 17.539 C 7.758 16.802,7.757 16.795,7.687 16.814 C 7.648 16.825,7.433 16.851,7.209 16.873 C 6.479 16.943,5.944 16.834,5.465 16.516 C 5.140 16.299,4.982 16.105,4.717 15.597 C 4.342 14.878,4.250 14.762,3.655 14.256 C 3.506 14.129,3.467 14.076,3.467 13.999 C 3.467 13.938,3.490 13.890,3.531 13.868 C 3.632 13.814,3.941 13.827,4.155 13.894 C 4.553 14.018,4.787 14.219,5.235 14.817 C 5.560 15.251,5.739 15.419,6.033 15.568 C 6.453 15.779,6.931 15.789,7.568 15.600 L 7.792 15.533 7.847 15.312 C 7.924 15.009,8.046 14.717,8.187 14.505 C 8.252 14.407,8.296 14.319,8.286 14.308 C 8.276 14.298,8.056 14.246,7.798 14.194 C 7.262 14.085,6.789 13.941,6.447 13.784 C 5.889 13.528,5.319 13.041,5.004 12.550 C 4.803 12.236,4.558 11.674,4.466 11.314 C 4.370 10.940,4.322 10.214,4.345 9.512 C 4.363 8.974,4.375 8.880,4.453 8.662 C 4.594 8.268,4.812 7.836,5.013 7.556 L 5.200 7.295 5.134 6.968 C 5.020 6.409,5.054 5.655,5.217 5.108 C 5.293 4.854,5.362 4.818,5.687 4.867 C 6.194 4.944,6.710 5.155,7.371 5.556 L 7.758 5.791 8.037 5.729 C 8.640 5.595,8.930 5.563,9.683 5.544 C 10.592 5.521,11.167 5.563,11.798 5.697 L 12.245 5.793 12.506 5.630 C 12.872 5.400,13.576 5.053,13.838 4.973 C 13.959 4.935,14.200 4.894,14.372 4.882 C 14.739 4.855,14.708 4.825,14.837 5.318 C 14.906 5.580,14.915 5.692,14.915 6.233 C 14.914 6.699,14.900 6.905,14.858 7.074 L 14.801 7.298 14.987 7.557 C 15.300 7.993,15.558 8.586,15.631 9.036 C 15.708 9.507,15.648 10.856,15.530 11.317 C 15.438 11.678,15.239 12.150,15.044 12.473 C 14.490 13.391,13.491 13.974,12.059 14.217 C 11.889 14.245,11.732 14.275,11.710 14.283 C 11.683 14.292,11.711 14.358,11.789 14.473 C 11.856 14.571,11.961 14.761,12.024 14.896 C 12.139 15.141,12.139 15.142,12.169 15.829 C 12.185 16.207,12.214 17.008,12.231 17.608 C 12.252 18.288,12.278 18.726,12.301 18.769 C 12.346 18.853,12.526 18.933,12.669 18.933 C 12.935 18.933,13.903 18.516,14.567 18.115 C 15.325 17.657,16.298 16.803,16.871 16.091 C 17.883 14.833,18.532 13.387,18.823 11.741 C 18.911 11.244,18.916 11.166,18.914 10.233 C 18.912 9.202,18.894 8.997,18.746 8.334 C 18.428 6.915,17.940 5.819,17.106 4.652 C 16.872 4.326,16.026 3.449,15.600 3.092 C 14.455 2.133,12.886 1.411,11.441 1.179 C 11.130 1.130,9.271 1.084,9.017 1.120 " fill="#19191C" stroke="none" fill-rule="evenodd"></path></svg>