<svg width="20" height="20" viewBox="0 0 20 20" fill="none" xmlns="http://www.w3.org/2000/svg"><path d="M9.017 1.123 C 7.538 1.317,6.391 1.741,5.167 2.547 C 3.228 3.823,1.943 5.648,1.333 7.989 C 1.185 8.559,1.135 8.893,1.096 9.583 C 1.016 10.998,1.144 11.991,1.570 13.245 C 2.049 14.658,2.717 15.724,3.797 16.802 C 4.709 17.711,5.684 18.354,6.812 18.790 C 7.333 18.991,7.577 18.962,7.717 18.683 C 7.778 18.560,7.783 18.489,7.778 17.756 C 7.772 16.906,7.760 16.783,7.682 16.813 C 7.656 16.823,7.439 16.849,7.201 16.872 C 6.344 16.952,5.680 16.762,5.200 16.298 C 5.020 16.124,4.933 15.995,4.658 15.483 C 4.373 14.954,4.208 14.740,3.834 14.414 C 3.496 14.119,3.446 14.051,3.483 13.934 C 3.529 13.788,4.042 13.819,4.375 13.988 C 4.650 14.127,4.784 14.254,5.183 14.752 C 5.588 15.259,5.763 15.428,6.008 15.553 C 6.442 15.775,6.918 15.789,7.570 15.598 L 7.790 15.533 7.848 15.308 C 7.880 15.185,7.989 14.913,8.091 14.705 C 8.230 14.419,8.265 14.320,8.233 14.300 C 8.210 14.285,8.099 14.256,7.987 14.235 C 7.579 14.157,6.985 13.995,6.688 13.881 C 6.308 13.735,6.000 13.554,5.690 13.294 C 5.251 12.927,5.022 12.629,4.766 12.090 C 4.422 11.366,4.357 11.007,4.356 9.833 C 4.356 9.176,4.366 8.976,4.411 8.806 C 4.489 8.512,4.793 7.886,5.015 7.563 L 5.203 7.291 5.144 7.020 C 5.058 6.621,5.065 5.793,5.159 5.356 C 5.197 5.176,5.254 4.990,5.285 4.943 C 5.339 4.860,5.349 4.858,5.612 4.876 C 6.083 4.907,6.703 5.154,7.455 5.609 L 7.751 5.789 8.217 5.695 C 9.304 5.475,10.848 5.491,11.951 5.732 L 12.237 5.794 12.577 5.592 C 12.948 5.370,13.557 5.071,13.811 4.986 C 13.899 4.957,14.121 4.915,14.305 4.895 C 14.714 4.848,14.711 4.846,14.820 5.267 C 14.891 5.541,14.900 5.645,14.900 6.229 C 14.899 6.685,14.884 6.946,14.850 7.090 L 14.802 7.297 14.986 7.564 C 15.213 7.894,15.473 8.433,15.566 8.767 C 15.658 9.100,15.685 9.708,15.637 10.393 C 15.592 11.023,15.541 11.319,15.415 11.667 C 14.970 12.898,14.210 13.607,12.900 14.013 C 12.689 14.078,12.344 14.163,12.133 14.202 C 11.922 14.241,11.737 14.285,11.722 14.299 C 11.707 14.314,11.735 14.390,11.784 14.468 C 11.834 14.546,11.931 14.727,12.000 14.870 C 12.148 15.178,12.143 15.119,12.218 17.242 C 12.246 18.027,12.282 18.703,12.298 18.746 C 12.333 18.837,12.519 18.933,12.660 18.933 C 12.879 18.933,13.737 18.585,14.312 18.262 C 14.968 17.895,15.587 17.413,16.253 16.750 C 17.011 15.998,17.490 15.328,17.968 14.350 C 18.542 13.178,18.867 11.960,18.917 10.800 C 18.946 10.116,18.888 8.997,18.802 8.583 C 18.351 6.422,17.485 4.847,15.965 3.422 C 14.834 2.363,13.242 1.540,11.732 1.236 C 11.276 1.144,9.439 1.068,9.017 1.123 " fill="#19191C" stroke="none" fill-rule="evenodd"></path></svg>