<svg width="20" height="20" viewBox="0 0 20 20" fill="none" xmlns="http://www.w3.org/2000/svg"><path d="M9.267 1.102 C 8.768 1.129,8.132 1.244,7.537 1.416 C 5.862 1.898,4.177 3.035,3.066 4.433 C 2.178 5.552,1.522 6.968,1.235 8.388 C 1.076 9.175,1.016 10.427,1.101 11.183 C 1.481 14.572,3.536 17.395,6.571 18.696 C 7.249 18.987,7.452 19.007,7.648 18.802 C 7.781 18.663,7.805 18.445,7.779 17.572 L 7.756 16.794 7.667 16.812 C 7.145 16.916,6.498 16.919,6.117 16.818 C 5.780 16.730,5.448 16.546,5.198 16.310 C 4.995 16.119,4.939 16.036,4.729 15.621 C 4.356 14.886,4.200 14.682,3.742 14.337 C 3.471 14.131,3.392 14.001,3.480 13.903 C 3.603 13.768,3.994 13.795,4.357 13.965 C 4.623 14.089,4.948 14.395,5.176 14.733 C 5.434 15.116,5.561 15.259,5.782 15.417 C 6.309 15.793,6.831 15.839,7.639 15.580 L 7.794 15.530 7.848 15.287 C 7.906 15.025,8.080 14.632,8.216 14.454 C 8.262 14.393,8.300 14.330,8.300 14.313 C 8.300 14.295,8.141 14.254,7.947 14.222 C 6.825 14.032,6.072 13.696,5.471 13.119 C 5.156 12.816,4.973 12.558,4.768 12.129 C 4.415 11.387,4.324 10.887,4.340 9.771 L 4.351 8.950 4.458 8.643 C 4.601 8.232,4.827 7.790,5.033 7.516 L 5.204 7.292 5.130 6.988 C 4.999 6.443,5.032 5.733,5.218 5.107 C 5.294 4.850,5.335 4.822,5.597 4.850 C 6.123 4.906,6.756 5.161,7.436 5.590 L 7.756 5.791 8.184 5.697 C 8.815 5.559,9.097 5.534,10.000 5.534 C 10.902 5.534,11.185 5.559,11.815 5.697 L 12.241 5.791 12.596 5.573 C 12.999 5.326,13.515 5.072,13.833 4.966 C 13.966 4.921,14.173 4.887,14.368 4.876 L 14.686 4.858 14.727 4.950 C 14.750 5.000,14.806 5.184,14.851 5.358 C 14.962 5.783,14.969 6.598,14.867 7.024 L 14.801 7.298 14.969 7.520 C 15.260 7.904,15.545 8.533,15.634 8.989 C 15.700 9.324,15.658 10.807,15.573 11.167 C 15.338 12.158,14.855 12.940,14.183 13.416 C 13.611 13.821,12.814 14.112,11.942 14.235 C 11.790 14.257,11.667 14.282,11.667 14.291 C 11.667 14.300,11.710 14.362,11.762 14.429 C 11.876 14.572,12.076 14.962,12.133 15.150 C 12.160 15.238,12.187 15.856,12.213 16.983 C 12.242 18.209,12.264 18.704,12.294 18.758 C 12.351 18.861,12.504 18.933,12.666 18.933 C 13.040 18.933,14.308 18.333,15.038 17.810 C 16.311 16.899,17.294 15.749,17.967 14.383 C 18.465 13.374,18.749 12.419,18.886 11.299 C 18.955 10.730,18.937 9.401,18.852 8.867 C 18.731 8.102,18.456 7.151,18.158 6.469 C 17.884 5.842,17.425 5.064,17.016 4.533 C 16.620 4.020,15.797 3.214,15.260 2.814 C 13.962 1.846,12.220 1.177,10.846 1.117 C 10.045 1.082,9.701 1.078,9.267 1.102 " fill="#19191C" stroke="none" fill-rule="evenodd"></path></svg>