<svg xmlns="http://www.w3.org/2000/svg" width="20" height="20" fill="none"><path fill="#19191C" fill-rule="evenodd" d="M10 1.05c4.944 0 8.95 4.109 8.95 9.177 0 4.054-2.56 7.492-6.115 8.707-.453.09-.615-.197-.615-.44 0-.303.011-1.291.011-2.52 0-.855-.286-1.413-.608-1.698 1.994-.227 4.088-1.003 4.088-4.528 0-1.002-.347-1.82-.922-2.463.093-.232.4-1.165-.088-2.429 0 0-.75-.246-2.458.941A8.4 8.4 0 0 0 10 5.488a8.4 8.4 0 0 0-2.24.31c-1.71-1.188-2.463-.942-2.463-.942-.486 1.264-.179 2.197-.086 2.43-.572.642-.922 1.46-.922 2.462 0 3.516 2.09 4.304 4.077 4.536-.256.229-.487.633-.568 1.226-.51.235-1.806.64-2.604-.762 0 0-.474-.882-1.372-.946 0 0-.873-.012-.061.558 0 0 .586.281.993 1.342 0 0 .526 1.638 3.015 1.083.005.767.013 1.49.013 1.708 0 .243-.165.527-.611.442-3.557-1.213-6.121-4.653-6.121-8.708 0-5.068 4.008-9.176 8.95-9.176" clip-rule="evenodd"/></svg>