<svg width="20" height="20" fill="none" xmlns="http://www.w3.org/2000/svg"><path d="M8.967 1.114a8.76 8.76 0 0 0-3.831 1.424c-1.74 1.167-2.957 2.774-3.62 4.779a9.44 9.44 0 0 0 .007 5.85c.684 2.058 2.069 3.82 3.876 4.929.451.277 1.199.638 1.593.77.274.091.324.099.445.066a.432.432 0 0 0 .326-.317c.023-.084.028-.418.014-.971a33.784 33.784 0 0 0-.027-.844c-.003 0-.155.022-.336.05-.816.123-1.472.012-1.98-.333-.32-.217-.528-.478-.705-.88-.266-.609-.578-1.033-.915-1.245a2.04 2.04 0 0 1-.261-.203c-.384-.363.238-.523.84-.217.273.138.585.44.79.761.227.359.369.523.59.686.354.26.791.372 1.236.315.248-.031.79-.189.792-.23 0-.011.021-.119.047-.24a2.2 2.2 0 0 1 .366-.809.77.77 0 0 0 .113-.17 4.28 4.28 0 0 0-.31-.05 7.919 7.919 0 0 1-.671-.136c-1.713-.428-2.648-1.431-2.966-3.182-.047-.257-.06-.502-.06-1.067 0-.692.005-.752.09-1.067.11-.41.396-.995.624-1.277l.17-.211-.07-.272a3.453 3.453 0 0 1-.068-1.23c.045-.334.18-.845.244-.921.059-.072.501-.023.872.096.354.113.871.37 1.287.638l.286.185.348-.078c.723-.164 1.033-.196 1.897-.196.864 0 1.174.032 1.896.195l.346.078.321-.202c.742-.467 1.377-.718 1.848-.731.265-.007.271-.005.315.085.025.051.083.238.131.417.074.278.086.398.089.841.003.439-.008.56-.073.806l-.076.29.168.209c.231.286.518.872.626 1.278.084.313.089.378.089 1.067.001.787-.039 1.113-.202 1.683-.116.406-.403.97-.654 1.286-.594.745-1.602 1.24-2.882 1.415l-.306.042.118.137c.065.075.17.245.233.377.218.45.225.519.234 2.267.01 1.719.01 1.723.205 1.821.189.095.265.093.599-.018.383-.126 1.234-.543 1.658-.811a9.131 9.131 0 0 0 2.437-2.268 9.327 9.327 0 0 0 1.546-7.831 9.251 9.251 0 0 0-1.655-3.424c-.32-.42-1.084-1.196-1.511-1.534a8.916 8.916 0 0 0-4.2-1.844c-.475-.074-1.856-.094-2.333-.034" fill="#19191C" fill-rule="evenodd"/></svg>