<svg width="20" height="20" viewBox="0 0 20 20" fill="none" xmlns="http://www.w3.org/2000/svg"><path d="M9.033 1.123 C 8.214 1.212,7.133 1.514,6.396 1.860 C 4.509 2.745,2.971 4.217,2.086 5.986 C 1.593 6.973,1.239 8.109,1.136 9.042 C 1.038 9.920,1.058 11.018,1.185 11.760 C 1.351 12.731,1.772 13.936,2.241 14.781 C 3.068 16.271,4.536 17.686,6.031 18.436 C 6.799 18.821,7.236 18.962,7.468 18.900 C 7.668 18.846,7.742 18.714,7.765 18.369 C 7.785 18.059,7.760 16.849,7.733 16.823 C 7.724 16.814,7.627 16.822,7.517 16.842 C 7.189 16.899,6.452 16.888,6.184 16.822 C 5.531 16.660,5.111 16.310,4.721 15.600 C 4.382 14.982,4.292 14.861,3.857 14.432 C 3.434 14.015,3.405 13.955,3.579 13.872 C 3.714 13.807,4.114 13.871,4.386 14.001 C 4.609 14.108,4.854 14.351,5.392 14.999 C 5.844 15.543,6.181 15.717,6.783 15.716 C 7.090 15.715,7.635 15.616,7.755 15.540 C 7.775 15.527,7.817 15.427,7.849 15.317 C 7.881 15.207,7.981 14.954,8.072 14.755 C 8.163 14.557,8.232 14.370,8.227 14.340 C 8.219 14.300,8.107 14.262,7.800 14.194 C 6.645 13.936,6.094 13.676,5.496 13.108 C 5.003 12.638,4.620 11.943,4.446 11.200 C 4.376 10.903,4.341 9.215,4.398 8.896 C 4.445 8.635,4.802 7.878,5.046 7.524 L 5.202 7.297 5.147 7.007 C 5.069 6.589,5.096 5.593,5.196 5.220 C 5.235 5.076,5.283 4.937,5.304 4.912 C 5.373 4.829,5.780 4.872,6.200 5.006 C 6.499 5.102,7.019 5.350,7.422 5.591 L 7.760 5.792 8.138 5.716 C 8.755 5.592,9.203 5.554,10.000 5.556 C 10.789 5.558,11.387 5.612,11.932 5.731 L 12.233 5.797 12.491 5.644 C 12.992 5.347,13.739 5.000,13.983 4.952 C 14.418 4.866,14.617 4.855,14.677 4.916 C 14.744 4.982,14.823 5.240,14.872 5.550 C 14.914 5.821,14.889 6.941,14.835 7.157 C 14.801 7.293,14.805 7.303,14.981 7.565 C 15.190 7.878,15.430 8.358,15.531 8.666 C 15.685 9.137,15.693 10.325,15.547 11.160 C 15.437 11.792,15.065 12.520,14.604 13.006 C 14.037 13.604,13.320 13.957,12.197 14.189 C 11.956 14.239,11.753 14.298,11.744 14.320 C 11.735 14.343,11.804 14.501,11.896 14.672 C 11.988 14.843,12.079 15.054,12.098 15.140 C 12.132 15.294,12.160 15.811,12.236 17.700 C 12.257 18.222,12.287 18.683,12.303 18.725 C 12.340 18.821,12.523 18.933,12.645 18.933 C 12.894 18.934,13.870 18.524,14.463 18.171 C 15.337 17.650,16.366 16.729,17.042 15.861 C 17.884 14.779,18.570 13.193,18.815 11.762 C 18.941 11.024,18.960 9.933,18.864 9.033 C 18.800 8.442,18.552 7.489,18.277 6.785 C 17.624 5.107,16.403 3.595,14.883 2.581 C 13.803 1.861,12.420 1.307,11.433 1.201 C 10.761 1.128,9.395 1.084,9.033 1.123 " fill="#19191C" stroke="none" fill-rule="evenodd"></path></svg>
