<svg width="20" height="20" fill="none" xmlns="http://www.w3.org/2000/svg"><path d="M9.283 1.101 C 7.317 1.207,5.268 2.166,3.730 3.698 C 3.021 4.405,2.511 5.116,2.055 6.033 C 1.575 6.998,1.296 7.894,1.128 9.017 C 1.058 9.483,1.068 11.082,1.143 11.550 C 1.333 12.728,1.686 13.785,2.204 14.720 C 3.202 16.522,4.718 17.902,6.571 18.696 C 7.255 18.989,7.450 19.009,7.648 18.802 C 7.784 18.660,7.804 18.471,7.778 17.572 L 7.756 16.794 7.667 16.812 C 7.145 16.916,6.498 16.919,6.117 16.818 C 5.780 16.730,5.448 16.546,5.198 16.310 C 4.995 16.119,4.939 16.036,4.729 15.621 C 4.356 14.886,4.200 14.682,3.742 14.337 C 3.471 14.131,3.392 14.001,3.480 13.903 C 3.603 13.768,3.994 13.795,4.357 13.965 C 4.623 14.089,4.948 14.395,5.176 14.733 C 5.434 15.116,5.561 15.259,5.782 15.417 C 6.309 15.793,6.831 15.839,7.639 15.580 L 7.794 15.530 7.848 15.289 C 7.907 15.023,8.043 14.712,8.199 14.485 C 8.255 14.404,8.300 14.325,8.300 14.308 C 8.300 14.292,8.182 14.260,8.038 14.238 C 7.437 14.146,6.750 13.941,6.317 13.724 C 5.858 13.495,5.367 13.080,5.079 12.679 C 4.884 12.406,4.624 11.853,4.517 11.483 C 4.353 10.916,4.327 10.664,4.340 9.771 L 4.351 8.950 4.458 8.643 C 4.601 8.232,4.827 7.790,5.033 7.516 L 5.204 7.292 5.130 6.988 C 5.000 6.447,5.033 5.729,5.218 5.107 C 5.294 4.850,5.335 4.822,5.597 4.850 C 6.123 4.906,6.756 5.161,7.436 5.590 L 7.756 5.791 8.184 5.697 C 8.815 5.559,9.097 5.534,10.000 5.534 C 10.902 5.534,11.185 5.559,11.815 5.697 L 12.241 5.791 12.596 5.573 C 12.999 5.326,13.515 5.072,13.833 4.966 C 13.966 4.921,14.173 4.887,14.368 4.876 L 14.686 4.858 14.727 4.950 C 14.750 5.000,14.806 5.184,14.851 5.358 C 14.962 5.783,14.969 6.598,14.867 7.024 L 14.801 7.298 14.969 7.520 C 15.260 7.904,15.545 8.533,15.634 8.989 C 15.700 9.324,15.658 10.807,15.573 11.167 C 15.338 12.158,14.855 12.940,14.183 13.416 C 13.611 13.821,12.814 14.112,11.942 14.235 C 11.790 14.257,11.667 14.282,11.667 14.291 C 11.667 14.300,11.710 14.362,11.762 14.429 C 11.876 14.572,12.076 14.962,12.133 15.150 C 12.160 15.238,12.187 15.856,12.213 16.983 C 12.242 18.209,12.264 18.704,12.294 18.758 C 12.413 18.974,12.731 18.981,13.233 18.781 C 15.661 17.812,17.565 15.796,18.434 13.278 C 19.427 10.396,18.944 7.173,17.149 4.717 C 16.698 4.099,15.883 3.278,15.260 2.814 C 13.962 1.846,12.220 1.177,10.846 1.117 C 10.056 1.082,9.703 1.079,9.283 1.101 " fill="#19191C" stroke="none" fill-rule="evenodd"></path></svg>