<svg xmlns="http://www.w3.org/2000/svg" width="24" height="24" fill="none"><path fill="#373B4D" fill-rule="evenodd" d="M11.3 3.08c-2.783.216-5.63 1.994-7.037 4.395-.528.901-.986 2.212-1.168 3.345-.096.598-.096 1.751 0 2.379.458 2.995 2.268 5.476 4.965 6.804 1.537.757 2.987 1.05 4.731.956 2.261-.122 4.245-.942 5.669-2.345.662-.652 1.119-1.294 1.562-2.194.58-1.178.886-2.4.958-3.82.031-.596-.033-1.711-.111-1.95-.048-.146-.055-.151-.289-.176-.132-.014-2.08-.039-4.33-.055l-4.09-.03v3.451l1.19.005c.655.003 1.766.017 2.47.03l1.28.025-.01.092c-.018.168-.273.794-.45 1.103-.622 1.087-1.605 1.813-2.9 2.141-.789.199-2.138.214-2.8.031-1.101-.306-1.896-.774-2.647-1.56-.741-.775-1.247-1.728-1.417-2.667-.07-.384-.068-1.673.002-2.08.071-.412.248-.9.509-1.404a5.65 5.65 0 0 1 2.482-2.432c.719-.358 1.351-.489 2.371-.489 1.205 0 1.969.242 3.049.967l.406.273.143-.116a58 58 0 0 0 1.32-1.269l1.178-1.153-.338-.264c-1.291-1.005-2.729-1.653-4.238-1.91-.576-.098-1.752-.138-2.46-.083"/></svg>