<svg width="24" height="24" fill="none" xmlns="http://www.w3.org/2000/svg"><path d="M11.2 3.082c-.468.034-1.184.183-1.76.367-2.082.662-3.825 1.957-4.971 3.691-.55.832-1.065 2.11-1.287 3.192-.623 3.034.517 6.311 2.911 8.373 1.418 1.221 3.057 1.951 4.987 2.22.606.085 1.902.065 2.592-.04 1.822-.278 3.347-.96 4.548-2.035 1.916-1.715 2.938-4.461 2.746-7.374-.056-.845-.087-.978-.237-1.011-.06-.013-2.013-.036-4.339-.051l-4.23-.027v3.44l2.466.026c1.356.014 2.475.035 2.486.046.036.036-.188.66-.356.994-.636 1.262-1.709 2.061-3.208 2.391-.535.118-1.795.151-2.279.059a5.598 5.598 0 0 1-4.048-3.197c-.338-.743-.446-1.381-.409-2.425.027-.741.093-1.078.328-1.661a5.65 5.65 0 0 1 3.017-3.078c.455-.198.878-.293 1.523-.344 1.446-.113 2.446.156 3.643.982l.371.256.103-.077c.057-.042.65-.613 1.319-1.268l1.217-1.192-.296-.239c-1.385-1.118-3.16-1.861-4.828-2.019-.479-.046-1.373-.045-2.009.001" fill="#373B4D" fill-rule="evenodd"/></svg>