<svg width="20" height="20" fill="none" xmlns="http://www.w3.org/2000/svg"><path d="M2.712 4.999 C 2.521 5.108,2.400 5.303,2.400 5.500 C 2.400 5.683,2.524 5.896,2.695 6.004 L 2.846 6.100 10.001 6.100 L 17.155 6.100 17.309 5.998 C 17.700 5.739,17.690 5.229,17.288 4.999 L 17.117 4.901 10.000 4.901 L 2.883 4.901 2.712 4.999 M2.712 13.999 C 2.521 14.108,2.400 14.303,2.400 14.500 C 2.400 14.683,2.524 14.896,2.695 15.004 L 2.846 15.100 10.001 15.100 L 17.155 15.100 17.309 14.998 C 17.700 14.739,17.690 14.229,17.288 13.999 L 17.117 13.901 10.000 13.901 L 2.883 13.901 2.712 13.999 " stroke="none" fill-rule="evenodd"></path></svg>