<svg xmlns="http://www.w3.org/2000/svg" width="30" height="30" fill="none"><path fill="#19191C" d="M15.003 2.702c4.009 0 4.483.017 6.06.088 1.465.064 2.256.31 2.784.515.697.27 1.2.598 1.722 1.12.528.527.85 1.025 1.12 1.723.205.527.451 1.324.515 2.783.07 1.583.088 2.058.088 6.06 0 4.009-.017 4.483-.088 6.06-.064 1.465-.31 2.256-.515 2.784a4.64 4.64 0 0 1-1.12 1.723 4.6 4.6 0 0 1-1.723 1.12c-.527.204-1.324.45-2.783.515-1.583.07-2.057.088-6.06.088-4.009 0-4.483-.018-6.06-.088-1.465-.065-2.256-.31-2.784-.516a4.64 4.64 0 0 1-1.723-1.12 4.6 4.6 0 0 1-1.119-1.722c-.205-.528-.451-1.325-.516-2.784-.07-1.582-.088-2.057-.088-6.06 0-4.008.018-4.483.088-6.06.065-1.465.31-2.256.516-2.783a4.64 4.64 0 0 1 1.12-1.723 4.6 4.6 0 0 1 1.722-1.12c.528-.205 1.325-.45 2.784-.515 1.577-.07 2.051-.088 6.06-.088m0-2.702C10.93 0 10.42.018 8.82.088c-1.594.07-2.69.328-3.64.697A7.3 7.3 0 0 0 2.52 2.52 7.35 7.35 0 0 0 .785 5.175C.416 6.13.158 7.22.088 8.815.018 10.42 0 10.93 0 15.002s.018 4.583.088 6.183c.07 1.594.328 2.69.697 3.64.387.99.897 1.828 1.735 2.66a7.3 7.3 0 0 0 2.655 1.729c.955.369 2.045.627 3.64.697 1.6.07 2.109.088 6.182.088s4.583-.018 6.183-.088c1.594-.07 2.69-.328 3.64-.697a7.3 7.3 0 0 0 2.654-1.73 7.3 7.3 0 0 0 1.729-2.654c.37-.955.627-2.045.697-3.64.07-1.6.088-2.11.088-6.182s-.017-4.583-.088-6.183c-.07-1.594-.328-2.69-.697-3.64a7 7 0 0 0-1.717-2.666A7.3 7.3 0 0 0 24.83.791c-.955-.369-2.045-.627-3.64-.697C19.587.018 19.077 0 15.004 0"/><path fill="#19191C" d="M15.003 7.296a7.71 7.71 0 0 0-7.707 7.707 7.71 7.71 0 0 0 7.707 7.706 7.71 7.71 0 0 0 7.706-7.706 7.71 7.71 0 0 0-7.706-7.707m0 12.706a5 5 0 1 1 .001-10 5 5 0 0 1-.001 10m9.81-13.01a1.8 1.8 0 1 1-3.599-.001 1.8 1.8 0 0 1 3.6 0"/></svg>