<svg width="20" height="20" viewBox="0 0 20 20" fill="none" xmlns="http://www.w3.org/2000/svg"><path d="M9.804 2.470 C 9.475 2.569,9.431 2.687,9.410 3.517 C 9.401 3.865,9.409 4.270,9.428 4.417 C 9.460 4.668,9.469 4.690,9.595 4.802 C 9.855 5.034,10.149 5.040,10.385 4.817 C 10.559 4.654,10.582 4.514,10.583 3.633 C 10.583 2.945,10.576 2.837,10.524 2.742 C 10.402 2.517,10.066 2.391,9.804 2.470 M4.795 4.559 C 4.660 4.630,4.597 4.688,4.537 4.802 C 4.412 5.037,4.452 5.202,4.708 5.521 C 4.950 5.822,5.410 6.234,5.618 6.334 C 5.848 6.445,6.092 6.369,6.264 6.132 C 6.485 5.826,6.409 5.585,5.940 5.109 C 5.524 4.687,5.207 4.467,5.015 4.467 C 4.993 4.467,4.894 4.508,4.795 4.559 M14.658 4.569 C 14.494 4.656,13.825 5.329,13.712 5.521 C 13.606 5.703,13.597 5.873,13.684 6.048 C 13.830 6.340,14.119 6.461,14.374 6.338 C 14.653 6.203,15.359 5.508,15.483 5.245 C 15.695 4.799,15.118 4.326,14.658 4.569 M9.133 6.117 C 7.908 6.390,6.762 7.363,6.304 8.521 C 6.127 8.967,6.064 9.275,6.043 9.783 C 5.993 11.044,6.395 12.054,7.278 12.889 C 7.952 13.526,8.744 13.883,9.657 13.961 C 10.834 14.062,11.961 13.647,12.804 12.804 C 13.323 12.285,13.650 11.719,13.856 10.983 C 13.971 10.572,14.001 9.761,13.918 9.317 C 13.761 8.475,13.411 7.806,12.820 7.214 C 12.336 6.730,11.750 6.381,11.083 6.180 C 10.805 6.097,10.733 6.089,10.067 6.079 C 9.530 6.071,9.296 6.080,9.133 6.117 M10.233 7.267 C 10.703 7.308,10.900 7.363,11.272 7.555 C 11.629 7.739,11.957 8.011,12.190 8.317 C 12.373 8.557,12.598 8.983,12.665 9.217 C 12.721 9.411,12.744 10.099,12.707 10.479 C 12.678 10.781,12.660 10.839,12.490 11.179 C 12.054 12.054,11.329 12.592,10.352 12.765 C 10.085 12.812,9.928 12.809,9.585 12.749 C 8.907 12.631,8.204 12.231,7.852 11.762 C 7.663 11.511,7.381 10.957,7.317 10.714 C 7.245 10.437,7.247 9.512,7.320 9.264 C 7.400 8.994,7.676 8.478,7.867 8.243 C 8.263 7.754,8.949 7.358,9.551 7.270 C 9.828 7.230,9.808 7.230,10.233 7.267 M2.861 9.463 C 2.625 9.541,2.455 9.717,2.413 9.926 C 2.382 10.080,2.534 10.376,2.709 10.502 L 2.843 10.600 3.463 10.600 C 4.210 10.599,4.616 10.559,4.733 10.473 C 4.779 10.439,4.853 10.346,4.897 10.267 C 5.047 9.998,4.983 9.723,4.727 9.546 C 4.603 9.460,4.601 9.460,3.776 9.447 C 3.322 9.440,2.910 9.447,2.861 9.463 M15.461 9.463 C 15.225 9.541,15.055 9.717,15.013 9.926 C 14.982 10.080,15.134 10.376,15.309 10.502 L 15.443 10.600 16.063 10.600 C 16.810 10.599,17.216 10.559,17.333 10.473 C 17.379 10.439,17.453 10.346,17.497 10.267 C 17.647 9.998,17.583 9.723,17.327 9.546 C 17.203 9.460,17.201 9.460,16.376 9.447 C 15.922 9.440,15.510 9.447,15.461 9.463 M14.040 13.638 C 13.801 13.706,13.558 14.074,13.619 14.277 C 13.668 14.444,13.855 14.677,14.243 15.058 C 14.713 15.518,14.819 15.574,15.081 15.501 C 15.292 15.442,15.487 15.228,15.518 15.021 C 15.553 14.787,15.459 14.636,15.008 14.194 C 14.494 13.692,14.282 13.570,14.040 13.638 M5.545 13.717 C 5.342 13.818,4.651 14.497,4.542 14.703 C 4.446 14.883,4.447 14.981,4.549 15.185 C 4.699 15.482,4.997 15.604,5.255 15.473 C 5.568 15.313,6.210 14.661,6.341 14.370 C 6.399 14.241,6.403 14.207,6.367 14.087 C 6.308 13.890,6.210 13.768,6.053 13.697 C 5.868 13.613,5.744 13.618,5.545 13.717 M9.804 15.070 C 9.475 15.169,9.431 15.287,9.410 16.117 C 9.401 16.465,9.409 16.870,9.428 17.017 C 9.460 17.268,9.469 17.290,9.595 17.402 C 9.855 17.634,10.149 17.640,10.385 17.417 C 10.559 17.254,10.582 17.114,10.583 16.233 C 10.583 15.545,10.576 15.437,10.524 15.342 C 10.402 15.117,10.066 14.991,9.804 15.070 " fill="#19191C" stroke="none" fill-rule="evenodd"></path></svg>