<svg width="20" height="20" viewBox="0 0 20 20" fill="none" xmlns="http://www.w3.org/2000/svg"><path d="M9.701 2.495 C 9.436 2.637,9.405 2.780,9.402 3.877 C 9.400 4.383,9.411 4.558,9.447 4.627 C 9.544 4.812,9.813 5.000,9.983 5.000 C 10.097 5.000,10.297 4.914,10.394 4.823 C 10.578 4.652,10.583 4.619,10.583 3.683 C 10.583 2.869,10.579 2.810,10.515 2.700 C 10.370 2.454,9.966 2.353,9.701 2.495 M4.769 4.555 C 4.570 4.654,4.469 4.818,4.467 5.045 C 4.466 5.232,4.537 5.353,4.835 5.675 C 5.182 6.049,5.565 6.357,5.720 6.386 C 6.105 6.458,6.483 6.043,6.372 5.670 C 6.300 5.431,5.576 4.675,5.281 4.532 C 5.100 4.444,4.981 4.450,4.769 4.555 M14.793 4.491 C 14.597 4.520,13.747 5.361,13.644 5.629 C 13.596 5.753,13.594 5.796,13.629 5.928 C 13.686 6.142,13.805 6.284,13.982 6.351 C 14.271 6.462,14.428 6.388,14.952 5.891 C 15.472 5.400,15.596 5.173,15.502 4.889 C 15.404 4.593,15.134 4.441,14.793 4.491 M9.200 6.099 C 8.419 6.266,7.747 6.630,7.177 7.194 C 6.344 8.019,5.937 9.127,6.035 10.306 C 6.105 11.150,6.330 11.744,6.839 12.423 C 7.482 13.281,8.532 13.874,9.571 13.966 C 10.836 14.077,11.988 13.662,12.850 12.785 C 13.578 12.044,13.983 11.049,13.983 10.000 C 13.983 9.376,13.859 8.835,13.581 8.250 C 13.049 7.128,11.939 6.297,10.687 6.084 C 10.278 6.014,9.562 6.021,9.200 6.099 M10.732 7.313 C 11.032 7.397,11.501 7.643,11.769 7.857 C 12.195 8.196,12.546 8.740,12.688 9.283 C 12.775 9.613,12.774 10.432,12.688 10.717 C 12.352 11.818,11.535 12.560,10.448 12.749 C 9.967 12.833,9.616 12.802,9.111 12.631 C 8.257 12.343,7.659 11.742,7.356 10.870 C 7.270 10.625,7.254 10.521,7.240 10.146 C 7.222 9.636,7.262 9.356,7.404 9.002 C 7.543 8.654,7.709 8.394,7.964 8.123 C 8.242 7.828,8.466 7.662,8.810 7.498 C 9.272 7.277,9.505 7.230,10.067 7.247 C 10.356 7.256,10.623 7.282,10.732 7.313 M2.995 9.428 C 2.817 9.446,2.748 9.470,2.648 9.551 C 2.407 9.746,2.342 9.988,2.465 10.229 C 2.540 10.377,2.733 10.557,2.847 10.585 C 2.890 10.596,3.291 10.600,3.738 10.594 C 4.629 10.582,4.671 10.574,4.843 10.369 C 5.087 10.079,5.021 9.709,4.690 9.504 C 4.590 9.442,4.512 9.434,3.898 9.420 C 3.523 9.412,3.117 9.416,2.995 9.428 M15.595 9.428 C 15.417 9.446,15.348 9.470,15.248 9.551 C 15.007 9.746,14.942 9.988,15.065 10.229 C 15.140 10.377,15.333 10.557,15.447 10.585 C 15.490 10.596,15.891 10.600,16.338 10.594 C 17.229 10.582,17.271 10.574,17.443 10.369 C 17.687 10.079,17.621 9.709,17.290 9.504 C 17.190 9.442,17.112 9.434,16.498 9.420 C 16.123 9.412,15.717 9.416,15.595 9.428 M5.675 13.634 C 5.529 13.667,5.379 13.785,4.962 14.199 C 4.467 14.689,4.414 14.793,4.501 15.107 C 4.597 15.453,4.994 15.637,5.291 15.475 C 5.584 15.316,6.303 14.559,6.368 14.342 C 6.485 13.950,6.086 13.541,5.675 13.634 M13.983 13.662 C 13.690 13.795,13.536 14.115,13.642 14.369 C 13.743 14.608,14.535 15.418,14.747 15.499 C 14.885 15.551,15.056 15.540,15.193 15.470 C 15.482 15.323,15.605 15.003,15.484 14.714 C 15.417 14.553,14.692 13.835,14.466 13.706 C 14.256 13.585,14.170 13.577,13.983 13.662 M9.701 15.095 C 9.436 15.237,9.405 15.380,9.402 16.477 C 9.400 16.983,9.411 17.158,9.447 17.227 C 9.544 17.412,9.813 17.600,9.983 17.600 C 10.097 17.600,10.297 17.514,10.394 17.423 C 10.578 17.252,10.583 17.219,10.583 16.283 C 10.583 15.469,10.579 15.410,10.515 15.300 C 10.370 15.054,9.966 14.953,9.701 15.095 " fill="#19191C" stroke="none" fill-rule="evenodd"></path></svg>