<svg width="20" height="20" fill="none" xmlns="http://www.w3.org/2000/svg"><path d="M9.75 2.463c-.321.147-.35.251-.35 1.246 0 .774.003.817.075.959a.584.584 0 0 0 1.05 0c.072-.142.075-.184.074-.967 0-.722-.008-.833-.062-.951a.508.508 0 0 0-.312-.299.557.557 0 0 0-.475.012M4.783 4.522a.578.578 0 0 0-.31.674c.033.132.101.219.491.617.57.583.742.669 1.061.536a.508.508 0 0 0 .312-.299.56.56 0 0 0 .012-.476c-.063-.152-.848-.952-1.023-1.043a.68.68 0 0 0-.543-.009m9.9-.001c-.16.084-.95.881-1.019 1.029a.56.56 0 0 0-.001.5c.073.159.147.23.312.299.319.133.49.047 1.063-.538.4-.407.459-.482.486-.612.058-.286-.056-.546-.292-.666-.156-.08-.408-.085-.549-.012M9.617 6.019c-.991.135-1.72.47-2.373 1.091-1.786 1.697-1.616 4.596.357 6.086 1.961 1.481 4.815.83 5.943-1.354a3.998 3.998 0 0 0-2.749-5.76c-.24-.05-.981-.09-1.178-.063m.865 1.232a2.79 2.79 0 0 1 2.155 1.826 2.813 2.813 0 0 1-1.101 3.259c-1.517.996-3.583.297-4.173-1.413-.696-2.019 1.019-4.038 3.119-3.672m-7.75 2.224a.584.584 0 0 0 0 1.05c.142.072.185.075.968.075.783 0 .826-.003.968-.075a.584.584 0 0 0 0-1.05C4.526 9.403 4.483 9.4 3.7 9.4c-.783 0-.826.003-.968.075m12.6 0a.584.584 0 0 0 0 1.05c.142.072.185.075.968.075.783 0 .826-.003.968-.075a.584.584 0 0 0 0-1.05c-.142-.072-.185-.075-.968-.075-.783 0-.826.003-.968.075M5.55 13.663c-.08.037-.315.247-.588.526-.4.407-.459.482-.486.612-.1.491.345.876.807.699.142-.054.978-.888 1.054-1.05a.563.563 0 0 0 0-.5.508.508 0 0 0-.312-.299.557.557 0 0 0-.475.012m8.4 0a.508.508 0 0 0-.299.312.557.557 0 0 0 .012.475c.076.162.912.996 1.054 1.05.462.177.907-.208.807-.699-.027-.13-.086-.205-.486-.612-.582-.594-.757-.678-1.088-.526m-4.2 1.4c-.321.147-.35.251-.35 1.246 0 .774.003.817.075.959a.584.584 0 0 0 1.05 0c.072-.142.075-.184.074-.967 0-.722-.008-.833-.062-.951a.508.508 0 0 0-.312-.299.557.557 0 0 0-.475.012" fill="#19191C" fill-rule="evenodd"/></svg>