<svg width="20" height="20" viewBox="0 0 20 20" fill="none" xmlns="http://www.w3.org/2000/svg"><path d="M9.786 2.451 C 9.630 2.510,9.546 2.581,9.472 2.717 C 9.424 2.802,9.417 2.943,9.417 3.703 L 9.417 4.589 9.512 4.727 C 9.620 4.882,9.830 5.000,10.000 5.000 C 10.149 5.000,10.370 4.890,10.457 4.772 C 10.590 4.592,10.606 4.459,10.594 3.617 C 10.585 2.927,10.575 2.802,10.524 2.708 C 10.395 2.471,10.049 2.351,9.786 2.451 M4.775 4.537 C 4.578 4.634,4.490 4.770,4.473 5.001 C 4.454 5.264,4.505 5.345,4.996 5.837 C 5.557 6.398,5.735 6.482,6.050 6.337 C 6.213 6.262,6.278 6.192,6.351 6.008 C 6.445 5.771,6.401 5.617,6.154 5.328 C 5.831 4.949,5.376 4.539,5.237 4.500 C 5.055 4.450,4.931 4.460,4.775 4.537 M14.701 4.517 C 14.637 4.546,14.381 4.776,14.132 5.027 C 13.744 5.420,13.673 5.508,13.635 5.645 C 13.595 5.786,13.597 5.828,13.645 5.980 C 13.706 6.176,13.793 6.273,13.974 6.348 C 14.269 6.471,14.436 6.394,14.951 5.894 C 15.417 5.443,15.533 5.279,15.533 5.071 C 15.533 4.873,15.424 4.654,15.282 4.566 C 15.131 4.472,14.852 4.449,14.701 4.517 M9.433 6.051 C 8.549 6.192,7.815 6.557,7.200 7.163 C 6.409 7.943,6.016 8.886,6.018 10.000 C 6.020 10.914,6.277 11.687,6.816 12.405 C 7.392 13.171,8.224 13.699,9.205 13.922 C 9.578 14.007,10.424 14.000,10.817 13.909 C 12.260 13.574,13.327 12.621,13.782 11.261 C 14.066 10.413,14.066 9.587,13.782 8.740 C 13.378 7.531,12.470 6.622,11.264 6.219 C 10.722 6.038,9.958 5.968,9.433 6.051 M10.700 7.304 C 10.838 7.338,11.085 7.433,11.250 7.516 C 12.304 8.044,12.880 9.109,12.761 10.310 C 12.592 12.003,10.889 13.158,9.257 12.684 C 8.262 12.396,7.564 11.684,7.296 10.683 C 7.197 10.311,7.196 9.693,7.295 9.317 C 7.594 8.183,8.562 7.351,9.733 7.222 C 9.945 7.198,10.446 7.241,10.700 7.304 M2.859 9.432 C 2.591 9.516,2.400 9.753,2.400 10.000 C 2.400 10.170,2.518 10.380,2.673 10.488 L 2.811 10.583 3.614 10.594 C 4.458 10.606,4.593 10.590,4.772 10.457 C 4.890 10.370,5.000 10.149,5.000 10.000 C 5.000 9.812,4.879 9.610,4.705 9.508 L 4.550 9.417 3.750 9.410 C 3.310 9.407,2.909 9.416,2.859 9.432 M15.459 9.432 C 15.191 9.516,15.000 9.753,15.000 10.000 C 15.000 10.170,15.118 10.380,15.273 10.488 L 15.411 10.583 16.214 10.594 C 17.058 10.606,17.193 10.590,17.372 10.457 C 17.490 10.370,17.600 10.149,17.600 10.000 C 17.600 9.812,17.479 9.610,17.305 9.508 L 17.150 9.417 16.350 9.410 C 15.910 9.407,15.509 9.416,15.459 9.432 M5.573 13.665 C 5.407 13.742,4.714 14.406,4.563 14.632 C 4.473 14.765,4.463 14.806,4.474 14.972 C 4.497 15.308,4.730 15.533,5.055 15.533 C 5.282 15.533,5.382 15.463,5.886 14.953 C 6.259 14.576,6.328 14.489,6.366 14.351 C 6.407 14.205,6.405 14.171,6.347 14.004 C 6.233 13.675,5.882 13.521,5.573 13.665 M13.930 13.677 C 13.667 13.816,13.543 14.118,13.638 14.388 C 13.689 14.531,14.466 15.344,14.667 15.464 C 14.912 15.610,15.263 15.525,15.431 15.279 C 15.538 15.123,15.562 14.853,15.483 14.699 C 15.398 14.536,14.752 13.885,14.522 13.731 C 14.289 13.575,14.148 13.563,13.930 13.677 M9.786 15.051 C 9.630 15.110,9.546 15.181,9.472 15.317 C 9.424 15.402,9.417 15.543,9.417 16.303 L 9.417 17.189 9.512 17.327 C 9.620 17.482,9.830 17.600,10.000 17.600 C 10.149 17.600,10.370 17.490,10.457 17.372 C 10.590 17.192,10.606 17.059,10.594 16.217 C 10.585 15.527,10.575 15.402,10.524 15.308 C 10.395 15.071,10.049 14.951,9.786 15.051 " fill="#19191C" stroke="none" fill-rule="evenodd"></path></svg>