<svg width="20" height="20" viewBox="0 0 20 20" fill="none" xmlns="http://www.w3.org/2000/svg"><path d="M9.707 2.500 C 9.594 2.551,9.548 2.598,9.491 2.724 C 9.421 2.875,9.417 2.929,9.417 3.739 C 9.417 4.707,9.410 4.680,9.698 4.883 C 9.895 5.023,10.104 5.023,10.305 4.883 C 10.532 4.725,10.565 4.624,10.589 4.013 C 10.600 3.721,10.598 3.321,10.585 3.124 C 10.563 2.804,10.550 2.752,10.473 2.661 C 10.292 2.445,9.974 2.378,9.707 2.500 M4.883 4.507 C 4.544 4.625,4.386 4.942,4.513 5.246 C 4.618 5.497,5.307 6.183,5.613 6.340 C 5.877 6.475,6.229 6.306,6.352 5.984 C 6.423 5.798,6.401 5.679,6.260 5.473 C 6.077 5.206,5.502 4.656,5.302 4.557 C 5.107 4.460,5.040 4.452,4.883 4.507 M14.597 4.605 C 14.396 4.748,13.872 5.280,13.732 5.483 C 13.585 5.696,13.578 5.884,13.710 6.109 C 13.804 6.269,14.011 6.400,14.171 6.400 C 14.348 6.400,14.604 6.226,14.997 5.837 C 15.436 5.403,15.553 5.217,15.524 4.999 C 15.483 4.694,15.249 4.500,14.923 4.500 C 14.775 4.500,14.718 4.518,14.597 4.605 M9.417 6.067 C 8.612 6.170,7.812 6.579,7.179 7.212 C 6.652 7.739,6.343 8.267,6.148 8.970 C 5.988 9.546,5.997 10.455,6.169 11.094 C 6.497 12.314,7.535 13.394,8.767 13.795 C 9.348 13.984,10.116 14.034,10.701 13.922 C 12.151 13.643,13.305 12.646,13.772 11.268 C 13.915 10.844,13.975 10.470,13.975 10.000 C 13.975 9.347,13.837 8.766,13.541 8.183 C 13.011 7.138,11.993 6.363,10.824 6.114 C 10.534 6.052,9.740 6.026,9.417 6.067 M10.288 7.266 C 10.754 7.303,10.996 7.380,11.415 7.626 C 11.898 7.908,12.272 8.322,12.518 8.844 C 12.711 9.253,12.741 9.432,12.727 10.096 C 12.714 10.661,12.710 10.693,12.610 10.943 C 12.553 11.086,12.442 11.311,12.364 11.443 C 12.181 11.753,11.722 12.214,11.417 12.393 C 11.140 12.555,10.680 12.715,10.333 12.769 C 9.501 12.899,8.440 12.481,7.877 11.803 C 7.673 11.557,7.363 10.952,7.296 10.667 C 7.237 10.418,7.237 9.570,7.295 9.333 C 7.361 9.068,7.599 8.582,7.781 8.342 C 8.100 7.921,8.519 7.609,9.049 7.398 C 9.272 7.309,9.491 7.264,9.833 7.239 C 9.861 7.237,10.065 7.249,10.288 7.266 M2.737 9.505 C 2.531 9.608,2.390 9.833,2.410 10.026 C 2.429 10.204,2.561 10.407,2.733 10.520 L 2.865 10.607 3.691 10.593 C 4.629 10.577,4.697 10.562,4.862 10.335 C 5.066 10.053,5.012 9.731,4.730 9.544 L 4.588 9.450 3.736 9.441 C 2.914 9.432,2.878 9.434,2.737 9.505 M15.337 9.505 C 15.131 9.608,14.990 9.833,15.010 10.026 C 15.029 10.204,15.161 10.407,15.333 10.520 L 15.465 10.607 16.291 10.593 C 17.229 10.577,17.297 10.562,17.462 10.335 C 17.666 10.053,17.612 9.731,17.330 9.544 L 17.188 9.450 16.336 9.441 C 15.514 9.432,15.478 9.434,15.337 9.505 M14.034 13.636 C 13.764 13.748,13.574 14.033,13.616 14.262 C 13.629 14.329,13.700 14.466,13.775 14.567 C 13.969 14.827,14.572 15.413,14.719 15.482 C 15.098 15.662,15.579 15.298,15.521 14.876 C 15.495 14.689,15.412 14.575,15.008 14.178 C 14.511 13.689,14.251 13.545,14.034 13.636 M5.490 13.732 C 5.271 13.871,4.593 14.557,4.520 14.713 C 4.397 14.976,4.539 15.345,4.811 15.469 C 5.125 15.611,5.325 15.520,5.836 15.002 C 6.330 14.501,6.434 14.318,6.368 14.070 C 6.263 13.682,5.832 13.516,5.490 13.732 M9.707 15.100 C 9.594 15.151,9.548 15.198,9.491 15.324 C 9.421 15.475,9.417 15.529,9.417 16.339 C 9.417 17.307,9.410 17.280,9.698 17.483 C 9.895 17.623,10.104 17.623,10.305 17.483 C 10.532 17.325,10.565 17.224,10.589 16.613 C 10.600 16.321,10.598 15.921,10.585 15.724 C 10.563 15.404,10.550 15.352,10.473 15.261 C 10.292 15.045,9.974 14.978,9.707 15.100 " fill="#19191C" stroke="none" fill-rule="evenodd"></path></svg>