<svg width="20" height="20" fill="none" xmlns="http://www.w3.org/2000/svg"><path d="M9.789 2.447 C 9.638 2.503,9.546 2.581,9.472 2.717 C 9.424 2.802,9.417 2.943,9.417 3.702 L 9.417 4.588 9.506 4.723 C 9.689 5.000,10.052 5.074,10.329 4.890 C 10.569 4.731,10.583 4.665,10.583 3.683 C 10.583 2.916,10.577 2.804,10.524 2.708 C 10.396 2.474,10.049 2.350,9.789 2.447 M4.860 4.500 C 4.612 4.574,4.467 4.780,4.467 5.055 C 4.467 5.278,4.536 5.380,5.012 5.853 C 5.548 6.388,5.725 6.474,6.025 6.349 C 6.194 6.278,6.265 6.208,6.338 6.039 C 6.478 5.713,6.414 5.579,5.834 4.995 C 5.313 4.471,5.180 4.403,4.860 4.500 M14.702 4.517 C 14.639 4.545,14.389 4.768,14.146 5.012 C 13.589 5.573,13.522 5.715,13.662 6.039 C 13.735 6.208,13.806 6.278,13.975 6.349 C 14.269 6.471,14.436 6.393,14.951 5.894 C 15.417 5.443,15.533 5.279,15.533 5.071 C 15.533 4.873,15.424 4.654,15.282 4.566 C 15.131 4.473,14.852 4.449,14.702 4.517 M9.433 6.051 C 8.551 6.191,7.815 6.557,7.200 7.163 C 6.613 7.743,6.254 8.405,6.078 9.233 C 5.997 9.615,5.997 10.375,6.077 10.759 C 6.378 12.185,7.365 13.319,8.705 13.779 C 9.177 13.941,9.412 13.977,9.983 13.978 C 10.575 13.978,10.875 13.927,11.403 13.735 C 13.207 13.079,14.306 11.106,13.916 9.220 C 13.605 7.713,12.498 6.538,11.014 6.139 C 10.799 6.081,9.935 5.989,9.750 6.004 C 9.732 6.005,9.589 6.027,9.433 6.051 M10.700 7.304 C 11.022 7.383,11.493 7.620,11.760 7.836 C 12.201 8.192,12.557 8.753,12.703 9.317 C 12.799 9.690,12.799 10.313,12.702 10.682 C 12.301 12.213,10.746 13.116,9.257 12.684 C 8.262 12.396,7.564 11.684,7.296 10.683 C 7.197 10.311,7.196 9.693,7.295 9.317 C 7.594 8.183,8.562 7.351,9.733 7.222 C 9.945 7.198,10.446 7.241,10.700 7.304 M2.859 9.432 C 2.591 9.516,2.400 9.753,2.400 10.000 C 2.400 10.172,2.523 10.392,2.677 10.494 L 2.812 10.583 3.614 10.594 C 4.458 10.606,4.593 10.590,4.772 10.457 C 4.890 10.370,5.000 10.149,5.000 10.000 C 5.000 9.812,4.879 9.610,4.705 9.508 L 4.550 9.417 3.750 9.410 C 3.310 9.407,2.909 9.416,2.859 9.432 M15.459 9.432 C 15.191 9.516,15.000 9.753,15.000 10.000 C 15.000 10.172,15.123 10.392,15.277 10.494 L 15.412 10.583 16.214 10.594 C 17.058 10.606,17.193 10.590,17.372 10.457 C 17.490 10.370,17.600 10.149,17.600 10.000 C 17.600 9.812,17.479 9.610,17.305 9.508 L 17.150 9.417 16.350 9.410 C 15.910 9.407,15.509 9.416,15.459 9.432 M5.650 13.623 C 5.528 13.656,5.287 13.857,4.929 14.223 C 4.507 14.656,4.454 14.746,4.474 14.987 C 4.501 15.310,4.738 15.533,5.055 15.533 C 5.280 15.533,5.381 15.464,5.873 14.967 C 6.412 14.423,6.476 14.283,6.335 13.955 C 6.232 13.712,5.903 13.553,5.650 13.623 M13.950 13.663 C 13.791 13.736,13.720 13.810,13.651 13.975 C 13.524 14.281,13.595 14.431,14.123 14.963 C 14.620 15.464,14.720 15.533,14.945 15.533 C 15.262 15.533,15.499 15.310,15.526 14.987 C 15.546 14.746,15.493 14.656,15.072 14.224 C 14.493 13.631,14.266 13.518,13.950 13.663 M9.789 15.047 C 9.638 15.103,9.546 15.181,9.472 15.317 C 9.424 15.402,9.417 15.543,9.417 16.302 L 9.417 17.188 9.506 17.323 C 9.689 17.600,10.052 17.674,10.329 17.490 C 10.569 17.331,10.583 17.265,10.583 16.283 C 10.583 15.516,10.577 15.404,10.524 15.308 C 10.396 15.074,10.049 14.950,9.789 15.047 " fill="#19191C" stroke="none" fill-rule="evenodd"></path></svg>