<svg width="20" height="20" viewBox="0 0 20 20" fill="none" xmlns="http://www.w3.org/2000/svg"><path d="M4.000 1.732 L 2.583 1.750 2.420 1.833 C 2.202 1.945,1.936 2.217,1.819 2.449 C 1.728 2.628,1.721 2.673,1.697 3.211 C 1.682 3.526,1.670 6.803,1.669 10.493 L 1.667 17.203 1.737 17.343 C 1.853 17.572,2.089 17.886,2.230 17.997 C 2.302 18.054,2.448 18.142,2.555 18.192 L 2.750 18.283 3.933 18.305 C 5.592 18.335,14.374 18.334,15.983 18.303 C 17.254 18.278,17.325 18.274,17.486 18.204 C 17.693 18.114,18.048 17.763,18.215 17.485 L 18.333 17.287 18.332 10.569 C 18.330 3.727,18.317 2.736,18.219 2.470 C 18.140 2.253,17.963 2.057,17.675 1.868 L 17.420 1.700 11.418 1.707 C 8.117 1.712,4.779 1.723,4.000 1.732 M6.270 4.578 C 6.481 4.678,6.751 4.944,6.871 5.169 C 6.942 5.301,6.950 5.359,6.949 5.717 C 6.948 6.241,6.918 6.319,6.603 6.634 C 6.301 6.936,6.184 6.980,5.683 6.980 C 5.402 6.981,5.325 6.968,5.190 6.903 C 4.991 6.807,4.743 6.569,4.615 6.350 C 4.519 6.188,4.517 6.171,4.517 5.733 C 4.517 5.328,4.524 5.268,4.594 5.133 C 4.735 4.860,4.937 4.681,5.258 4.545 C 5.427 4.474,5.489 4.465,5.767 4.477 C 6.023 4.487,6.119 4.506,6.270 4.578 M13.683 8.057 C 14.596 8.341,15.262 9.158,15.451 10.226 C 15.508 10.545,15.563 12.635,15.566 14.525 L 15.567 15.567 14.355 15.567 L 13.143 15.567 13.122 13.325 C 13.110 12.092,13.086 11.001,13.068 10.901 C 12.992 10.482,12.668 10.051,12.362 9.962 C 12.128 9.894,11.650 9.912,11.428 9.997 C 11.039 10.146,10.764 10.455,10.673 10.847 C 10.635 11.007,10.622 11.523,10.609 13.308 L 10.593 15.567 9.413 15.567 L 8.233 15.567 8.233 11.850 L 8.233 8.133 9.416 8.133 L 10.598 8.133 10.607 8.631 L 10.617 9.129 10.816 8.892 C 11.243 8.386,11.793 8.041,12.243 7.998 C 12.621 7.962,13.491 7.998,13.683 8.057 M6.867 11.850 L 6.867 15.567 5.650 15.567 L 4.433 15.567 4.433 11.850 L 4.433 8.133 5.650 8.133 L 6.867 8.133 6.867 11.850 " fill="#19191C" stroke="none" fill-rule="evenodd"></path></svg>