<svg width="20" height="20" viewBox="0 0 20 20" fill="none" xmlns="http://www.w3.org/2000/svg"><path d="M2.715 1.730 C 2.381 1.771,1.996 2.081,1.812 2.457 C 1.735 2.613,1.719 2.702,1.696 3.078 C 1.682 3.319,1.669 6.597,1.668 10.362 L 1.667 17.207 1.783 17.429 C 2.015 17.869,2.333 18.146,2.734 18.257 C 2.938 18.313,3.336 18.317,10.000 18.317 C 17.367 18.317,17.259 18.319,17.560 18.177 C 17.744 18.090,18.101 17.710,18.225 17.468 L 18.333 17.257 18.332 10.337 C 18.331 6.531,18.318 3.227,18.302 2.996 C 18.269 2.509,18.215 2.354,17.997 2.117 C 17.918 2.032,17.755 1.903,17.633 1.831 L 17.413 1.700 10.148 1.705 C 6.152 1.707,2.808 1.719,2.715 1.730 M6.130 4.519 C 6.363 4.588,6.592 4.755,6.754 4.976 C 6.942 5.231,6.976 5.368,6.962 5.816 C 6.948 6.253,6.896 6.367,6.571 6.676 C 6.290 6.944,6.197 6.978,5.733 6.981 C 5.396 6.983,5.331 6.974,5.192 6.906 C 4.961 6.792,4.726 6.565,4.606 6.339 C 4.503 6.147,4.500 6.128,4.500 5.727 C 4.500 5.344,4.507 5.300,4.590 5.132 C 4.755 4.801,5.018 4.600,5.433 4.485 C 5.634 4.430,5.870 4.442,6.130 4.519 M13.767 8.081 C 14.768 8.453,15.386 9.335,15.501 10.557 C 15.521 10.773,15.546 11.989,15.557 13.258 L 15.576 15.567 14.359 15.567 L 13.142 15.567 13.124 13.292 C 13.105 10.811,13.106 10.822,12.907 10.454 C 12.706 10.083,12.459 9.929,12.030 9.907 C 11.425 9.876,10.953 10.146,10.730 10.651 C 10.626 10.884,10.604 11.407,10.602 13.658 L 10.600 15.567 9.417 15.567 L 8.233 15.567 8.233 11.850 L 8.233 8.133 9.417 8.133 L 10.600 8.133 10.601 8.642 L 10.602 9.150 10.709 9.017 C 11.157 8.456,11.613 8.130,12.130 8.000 C 12.196 7.983,12.535 7.974,12.883 7.979 C 13.482 7.988,13.530 7.994,13.767 8.081 M6.867 11.850 L 6.867 15.567 5.650 15.567 L 4.433 15.567 4.433 11.850 L 4.433 8.133 5.650 8.133 L 6.867 8.133 6.867 11.850 " fill="#19191C" stroke="none" fill-rule="evenodd"></path></svg>