<svg width="20" height="20" fill="none" xmlns="http://www.w3.org/2000/svg"><path d="M3.433 1.696 C 2.618 1.717,2.616 1.717,2.436 1.812 C 2.010 2.036,1.744 2.415,1.697 2.867 C 1.682 3.004,1.669 6.284,1.668 10.154 L 1.667 17.192 1.799 17.457 C 1.958 17.774,2.240 18.061,2.518 18.188 C 2.672 18.259,2.782 18.279,3.144 18.302 C 3.744 18.341,16.295 18.340,16.896 18.301 C 17.306 18.275,17.401 18.257,17.552 18.184 C 17.773 18.076,18.094 17.738,18.221 17.478 L 18.317 17.283 18.326 10.283 C 18.331 6.261,18.322 3.127,18.305 2.915 C 18.281 2.622,18.256 2.510,18.186 2.372 C 18.071 2.146,17.893 1.970,17.626 1.821 L 17.412 1.701 10.831 1.688 C 7.211 1.681,3.882 1.684,3.433 1.696 M5.931 4.471 C 6.051 4.492,6.214 4.537,6.292 4.570 C 6.494 4.657,6.757 4.917,6.870 5.140 C 6.961 5.320,6.967 5.355,6.966 5.741 C 6.966 6.138,6.963 6.155,6.862 6.331 C 6.730 6.561,6.483 6.803,6.277 6.904 C 6.138 6.971,6.066 6.982,5.733 6.982 C 5.383 6.983,5.334 6.976,5.166 6.893 C 4.930 6.777,4.690 6.537,4.574 6.301 C 4.491 6.133,4.483 6.083,4.483 5.733 C 4.483 5.390,4.492 5.331,4.570 5.165 C 4.738 4.807,4.994 4.600,5.400 4.494 C 5.666 4.424,5.661 4.425,5.931 4.471 M13.583 8.019 C 14.547 8.280,15.222 9.048,15.453 10.146 C 15.532 10.524,15.565 11.546,15.566 13.625 L 15.567 15.567 14.354 15.567 L 13.141 15.567 13.125 13.275 C 13.109 11.052,13.107 10.977,13.038 10.767 C 12.836 10.149,12.505 9.886,11.933 9.889 C 11.462 9.891,11.072 10.094,10.836 10.462 C 10.613 10.810,10.621 10.712,10.608 13.258 L 10.596 15.567 9.415 15.567 L 8.233 15.567 8.233 11.850 L 8.233 8.133 9.417 8.133 L 10.600 8.133 10.600 8.652 L 10.600 9.171 10.798 8.907 C 11.192 8.385,11.733 8.050,12.317 7.966 C 12.608 7.924,13.348 7.955,13.583 8.019 M6.867 11.850 L 6.867 15.567 5.650 15.567 L 4.433 15.567 4.433 11.850 L 4.433 8.133 5.650 8.133 L 6.867 8.133 6.867 11.850 " fill="#19191C" stroke="none" fill-rule="evenodd"></path></svg>