<svg xmlns="http://www.w3.org/2000/svg" width="20" height="20" fill="none"><path fill="#19191C" d="M16.997 1.666H3.091a1.365 1.365 0 0 0-1.427 1.302v13.936a1.47 1.47 0 0 0 1.427 1.427h13.906a1.395 1.395 0 0 0 1.333-1.427V2.968a1.28 1.28 0 0 0-1.333-1.302M6.872 15.56H4.445V8.134h2.427zM5.716 7.01a1.23 1.23 0 0 1-1.27-1.281 1.23 1.23 0 0 1 1.29-1.281 1.23 1.23 0 0 1 1.272 1.28A1.23 1.23 0 0 1 5.716 7.01m9.844 8.551h-2.438v-4.062c0-.969-.344-1.635-1.208-1.635a1.3 1.3 0 0 0-1.219.875 1.5 1.5 0 0 0-.083.593v4.23H8.216V8.133h2.396v1.041a2.42 2.42 0 0 1 2.187-1.26c1.573 0 2.76 1.042 2.76 3.26z"/></svg>