<svg width="20" height="20" viewBox="0 0 20 20" fill="none" xmlns="http://www.w3.org/2000/svg"><path d="M5.600 1.732 L 2.583 1.750 2.406 1.848 C 2.189 1.969,1.905 2.268,1.801 2.487 C 1.731 2.634,1.721 2.718,1.697 3.350 C 1.683 3.735,1.670 7.009,1.669 10.626 L 1.667 17.203 1.737 17.343 C 1.859 17.583,2.135 17.931,2.288 18.037 C 2.369 18.092,2.521 18.178,2.626 18.227 L 2.817 18.317 9.800 18.316 C 16.992 18.315,17.289 18.310,17.533 18.184 C 17.688 18.103,18.073 17.712,18.215 17.489 L 18.338 17.296 18.323 10.156 C 18.314 5.319,18.297 2.934,18.273 2.761 C 18.214 2.341,18.076 2.142,17.641 1.850 L 17.417 1.700 13.017 1.707 C 10.597 1.711,7.259 1.723,5.600 1.732 M6.259 4.583 C 6.463 4.677,6.762 4.962,6.863 5.160 C 6.924 5.279,6.933 5.355,6.933 5.724 C 6.932 6.241,6.897 6.336,6.600 6.634 C 6.311 6.922,6.184 6.972,5.719 6.976 C 5.391 6.978,5.325 6.969,5.197 6.903 C 5.016 6.811,4.757 6.567,4.629 6.368 C 4.535 6.223,4.533 6.212,4.533 5.742 C 4.533 5.329,4.542 5.246,4.600 5.133 C 4.742 4.855,4.982 4.652,5.316 4.527 C 5.547 4.441,6.007 4.468,6.259 4.583 M13.511 8.034 C 14.351 8.156,15.162 9.001,15.398 10.002 C 15.487 10.380,15.528 11.328,15.556 13.691 L 15.578 15.567 14.361 15.567 L 13.144 15.567 13.122 13.375 C 13.109 12.170,13.084 11.081,13.066 10.956 C 13.023 10.660,12.892 10.396,12.681 10.179 C 12.466 9.959,12.336 9.921,11.867 9.940 C 11.569 9.952,11.489 9.968,11.333 10.046 C 11.080 10.172,10.857 10.401,10.747 10.646 C 10.660 10.840,10.654 10.884,10.630 11.567 C 10.616 11.961,10.604 13.022,10.602 13.925 L 10.600 15.567 9.417 15.567 L 8.233 15.567 8.233 11.850 L 8.233 8.133 9.417 8.133 L 10.600 8.133 10.600 8.617 C 10.600 8.883,10.611 9.100,10.625 9.100 C 10.639 9.100,10.725 9.008,10.817 8.897 C 11.122 8.525,11.546 8.215,11.933 8.078 C 12.127 8.010,12.210 8.001,12.717 8.001 C 13.028 8.001,13.386 8.016,13.511 8.034 M6.867 11.850 L 6.867 15.567 5.650 15.567 L 4.433 15.567 4.433 11.850 L 4.433 8.133 5.650 8.133 L 6.867 8.133 6.867 11.850 " fill="#19191C" stroke="none" fill-rule="evenodd"></path></svg>