<svg width="20" height="20" fill="none" xmlns="http://www.w3.org/2000/svg"><path d="M2.667 1.72c-.482.13-.864.531-.965 1.013-.029.137-.036 2.004-.029 7.334l.01 7.15.124.259c.142.296.374.546.629.675.381.193-.075.182 7.597.182 7.799 0 7.258.015 7.634-.213.222-.136.474-.435.575-.685l.075-.185.009-7.2c.006-4.731-.003-7.254-.025-7.358a1.223 1.223 0 0 0-.693-.883l-.255-.126-7.251-.006c-6.306-.006-7.276 0-7.435.043m3.276 2.747c.421.061.756.304.943.685.091.184.097.225.097.581-.001.364-.006.394-.105.584a1.493 1.493 0 0 1-.604.594c-.133.061-.217.072-.541.072-.345 0-.401-.008-.566-.087-.519-.248-.788-.776-.703-1.378.088-.624.52-1.006 1.219-1.08.019-.002.135.011.26.029m7.495 3.514c1.022.217 1.732.95 1.995 2.059.113.477.133.974.133 3.285l.001 2.242h-2.43l-.012-2.275c-.01-2.037-.018-2.296-.069-2.475-.177-.612-.494-.9-1.035-.941a1.31 1.31 0 0 0-1.253.688c-.162.317-.167.404-.168 2.778v2.225H8.233V8.133H10.6v1.045l.137-.197c.34-.492.824-.837 1.375-.982.297-.077.999-.087 1.326-.018M6.867 11.85v3.717H4.433V8.133h2.434v3.717" fill="#19191C" fill-rule="evenodd"/></svg>