<svg width="20" height="20" viewBox="0 0 20 20" fill="none" xmlns="http://www.w3.org/2000/svg"><path d="M9.233 2.453 C 8.677 2.520,8.373 2.588,7.868 2.755 C 5.345 3.594,3.659 5.685,3.428 8.262 C 3.331 9.348,3.583 10.518,4.170 11.699 C 5.075 13.521,6.647 15.264,8.932 16.978 C 9.485 17.393,9.742 17.547,9.944 17.585 C 10.134 17.620,10.443 17.450,11.129 16.934 C 12.741 15.721,14.077 14.394,15.022 13.067 C 16.096 11.559,16.662 9.895,16.588 8.467 C 16.451 5.832,14.680 3.576,12.085 2.730 C 11.558 2.558,11.030 2.469,10.327 2.433 C 9.973 2.416,9.668 2.402,9.650 2.404 C 9.632 2.406,9.444 2.428,9.233 2.453 M10.505 3.635 C 11.834 3.770,13.022 4.321,13.917 5.218 C 14.772 6.075,15.254 7.116,15.368 8.350 C 15.521 9.997,14.691 11.824,12.915 13.747 C 12.235 14.484,10.989 15.577,10.159 16.165 L 10.002 16.276 9.813 16.147 C 9.709 16.075,9.420 15.853,9.170 15.654 C 7.008 13.925,5.595 12.198,4.937 10.474 C 4.448 9.194,4.520 7.764,5.137 6.522 C 6.089 4.606,8.308 3.412,10.505 3.635 M9.433 6.469 C 9.271 6.505,9.019 6.597,8.843 6.683 C 8.314 6.944,7.796 7.502,7.588 8.033 C 7.447 8.395,7.425 8.530,7.426 9.017 C 7.427 9.401,7.440 9.525,7.500 9.717 C 7.768 10.572,8.429 11.233,9.283 11.499 C 9.477 11.560,9.599 11.572,10.000 11.573 C 10.554 11.574,10.754 11.527,11.217 11.290 C 11.594 11.096,12.096 10.594,12.290 10.217 C 12.524 9.760,12.572 9.555,12.573 9.000 C 12.573 8.570,12.564 8.487,12.487 8.250 C 12.227 7.447,11.590 6.794,10.814 6.533 C 10.631 6.472,10.074 6.400,9.817 6.404 C 9.762 6.405,9.589 6.434,9.433 6.469 M10.445 7.688 C 10.775 7.788,11.083 8.057,11.253 8.392 C 11.345 8.573,11.350 8.606,11.350 9.000 C 11.350 9.396,11.345 9.426,11.251 9.612 C 11.125 9.861,10.848 10.138,10.606 10.257 C 10.429 10.344,10.389 10.350,10.000 10.350 C 9.606 10.350,9.572 10.345,9.384 10.252 C 8.725 9.928,8.431 9.094,8.735 8.407 C 8.826 8.200,9.175 7.850,9.392 7.748 C 9.694 7.605,10.098 7.582,10.445 7.688 " stroke="none" fill-rule="evenodd"></path></svg>