<svg width="20" height="20" fill="none" xmlns="http://www.w3.org/2000/svg"><path d="m9.5 2.419-.43.051c-.695.081-1.478.328-2.194.693-2.443 1.246-3.813 3.874-3.391 6.504.373 2.328 2.269 4.911 5.265 7.176 1.197.904 1.231.911 1.939.413 2-1.407 3.754-3.183 4.729-4.787 1.066-1.755 1.4-3.4 1.028-5.066-.569-2.548-2.723-4.509-5.407-4.922-.317-.048-1.31-.088-1.539-.062m1.207 1.231c1.682.224 3.12 1.136 3.971 2.52.618 1.004.863 2.368.627 3.48-.414 1.95-1.99 4.052-4.539 6.053-.267.209-.548.424-.625.476l-.14.096-.188-.129c-.537-.37-1.542-1.215-2.175-1.829-1.595-1.548-2.631-3.186-2.939-4.645-.24-1.139 0-2.49.623-3.502 1.106-1.798 3.254-2.803 5.385-2.52m-1.04 2.769c-.651.113-1.079.326-1.5.748a2.586 2.586 0 0 0-.688 1.172c-.079.289-.081 1.029-.002 1.314a2.685 2.685 0 0 0 1.87 1.87c.262.072.992.079 1.253.013A2.682 2.682 0 0 0 12.536 9.6c.06-.241.06-.959 0-1.2-.235-.929-.975-1.685-1.881-1.92-.198-.051-.823-.09-.988-.061m.837 1.278c.351.133.661.442.802.799.104.265.104.743 0 1.008-.14.355-.447.662-.802.802-.147.057-.256.073-.504.073s-.357-.016-.504-.073c-.782-.308-1.115-1.217-.726-1.98.085-.165.395-.474.563-.559.352-.18.808-.207 1.171-.07" fill-rule="evenodd" fill="#000"/></svg>