<svg width="20" height="20" viewBox="0 0 20 20" fill="none" xmlns="http://www.w3.org/2000/svg"><path d="M15.317 4.439 C 15.162 4.497,15.038 4.595,14.974 4.711 C 14.920 4.810,14.916 5.153,14.907 9.984 L 14.898 15.152 15.001 15.307 C 15.254 15.690,15.746 15.690,15.999 15.307 L 16.102 15.153 16.093 10.001 C 16.082 4.239,16.103 4.691,15.843 4.519 C 15.695 4.421,15.461 4.385,15.317 4.439 M7.271 5.966 C 7.166 6.015,6.634 6.525,5.334 7.825 C 4.348 8.810,3.510 9.669,3.471 9.733 C 3.381 9.883,3.378 10.113,3.464 10.255 C 3.543 10.385,5.909 12.779,6.688 13.518 C 7.292 14.091,7.348 14.126,7.600 14.083 C 8.026 14.011,8.233 13.510,7.977 13.171 C 7.926 13.105,7.339 12.499,6.671 11.825 L 5.456 10.600 8.306 10.600 L 11.155 10.600 11.309 10.498 C 11.700 10.239,11.690 9.729,11.288 9.499 L 11.117 9.401 8.286 9.400 L 5.456 9.400 6.671 8.175 C 7.339 7.501,7.926 6.896,7.976 6.830 C 8.330 6.363,7.803 5.717,7.271 5.966 " stroke="none" fill-rule="evenodd"></path></svg>