<svg width="20" height="20" viewBox="0 0 20 20" fill="none" xmlns="http://www.w3.org/2000/svg"><path d="M4.817 4.439 C 4.662 4.497,4.538 4.595,4.474 4.711 C 4.420 4.810,4.416 5.153,4.407 9.984 L 4.398 15.152 4.501 15.307 C 4.754 15.690,5.246 15.690,5.499 15.307 L 5.602 15.153 5.593 10.001 C 5.582 4.239,5.603 4.691,5.343 4.519 C 5.195 4.421,4.961 4.385,4.817 4.439 M12.317 5.941 C 12.147 6.001,12.028 6.104,11.964 6.247 C 11.886 6.418,11.884 6.572,11.957 6.727 C 11.990 6.795,12.557 7.395,13.278 8.124 L 14.542 9.400 11.713 9.400 L 8.883 9.401 8.712 9.499 C 8.310 9.729,8.300 10.239,8.691 10.498 L 8.845 10.600 11.697 10.600 L 14.550 10.600 13.448 11.708 C 11.995 13.169,11.943 13.227,11.915 13.414 C 11.855 13.814,12.203 14.150,12.608 14.082 C 12.723 14.062,12.824 13.981,13.346 13.484 C 14.162 12.707,16.457 10.384,16.536 10.254 C 16.622 10.113,16.619 9.882,16.529 9.733 C 16.490 9.669,15.652 8.810,14.665 7.825 C 12.846 6.007,12.724 5.898,12.500 5.903 C 12.454 5.904,12.372 5.921,12.317 5.941 " stroke="none" fill-rule="evenodd"></path></svg>