<svg width="20" height="20" fill="none" xmlns="http://www.w3.org/2000/svg"><path d="M15.289 4.447 C 15.138 4.503,15.046 4.581,14.972 4.717 C 14.921 4.808,14.916 5.259,14.907 9.984 L 14.898 15.150 14.995 15.304 C 15.104 15.476,15.316 15.600,15.500 15.600 C 15.684 15.600,15.896 15.476,16.005 15.304 L 16.102 15.151 16.093 10.000 C 16.084 5.271,16.079 4.840,16.028 4.727 C 15.917 4.483,15.559 4.347,15.289 4.447 M7.271 5.966 C 7.076 6.057,3.525 9.599,3.450 9.777 C 3.388 9.927,3.386 10.069,3.446 10.212 C 3.496 10.332,5.728 12.607,6.688 13.518 C 7.292 14.091,7.349 14.126,7.600 14.083 C 7.788 14.052,7.939 13.939,8.024 13.766 C 8.113 13.585,8.119 13.433,8.043 13.273 C 8.010 13.205,7.443 12.605,6.722 11.876 L 5.458 10.600 8.306 10.600 L 11.155 10.600 11.309 10.498 C 11.700 10.239,11.690 9.729,11.288 9.499 L 11.117 9.401 8.286 9.400 L 5.456 9.400 6.671 8.175 C 7.339 7.501,7.926 6.896,7.976 6.830 C 8.330 6.363,7.803 5.718,7.271 5.966 " stroke="none" fill-rule="evenodd"></path></svg>