<svg width="20" height="20" fill="none" xmlns="http://www.w3.org/2000/svg"><path d="M15.25 4.463a.508.508 0 0 0-.299.312c-.045.109-.051.71-.051 5.234v5.11l.075.149a.584.584 0 0 0 1.05 0l.075-.149-.001-5.118c0-4.895-.003-5.123-.062-5.251a.508.508 0 0 0-.312-.299.557.557 0 0 0-.475.012m-8 1.501c-.165.078-3.763 3.674-3.815 3.813a.754.754 0 0 0 0 .446c.052.139 3.65 3.735 3.815 3.813.163.076.313.08.475.013a.508.508 0 0 0 .312-.299.56.56 0 0 0 .012-.476c-.035-.084-.459-.533-1.325-1.399L5.45 10.6h5.669l.149-.075a.584.584 0 0 0 0-1.05l-.149-.075H5.45l1.274-1.275c.866-.866 1.29-1.315 1.325-1.399a.56.56 0 0 0-.012-.476.508.508 0 0 0-.312-.299.553.553 0 0 0-.475.013" fill-rule="evenodd" fill="#000"/></svg>