<svg width="20" height="20" fill="none" xmlns="http://www.w3.org/2000/svg"><path d="M4.789 4.447 C 4.638 4.503,4.546 4.581,4.472 4.717 C 4.421 4.808,4.416 5.259,4.407 9.984 L 4.398 15.150 4.495 15.304 C 4.604 15.476,4.816 15.600,5.000 15.600 C 5.184 15.600,5.396 15.476,5.505 15.304 L 5.602 15.151 5.593 10.000 C 5.584 5.271,5.579 4.840,5.528 4.727 C 5.417 4.483,5.059 4.347,4.789 4.447 M12.289 5.948 C 12.123 6.008,12.038 6.087,11.963 6.250 C 11.886 6.418,11.884 6.573,11.957 6.727 C 11.990 6.795,12.557 7.395,13.278 8.124 L 14.542 9.400 11.713 9.400 L 8.883 9.401 8.712 9.499 C 8.521 9.608,8.400 9.803,8.400 10.000 C 8.400 10.183,8.524 10.396,8.695 10.504 L 8.846 10.600 11.695 10.600 L 14.543 10.600 13.279 11.875 C 12.548 12.613,11.991 13.201,11.958 13.272 C 11.803 13.597,12.025 14.018,12.387 14.086 C 12.643 14.134,12.701 14.098,13.344 13.486 C 14.347 12.532,16.504 10.332,16.554 10.212 C 16.614 10.069,16.612 9.927,16.550 9.777 C 16.474 9.597,12.922 6.055,12.728 5.967 C 12.559 5.890,12.464 5.886,12.289 5.948 " stroke="none" fill-rule="evenodd"></path></svg>