<svg width="20" height="20" viewBox="0 0 20 20" fill="none" xmlns="http://www.w3.org/2000/svg">
<g id="tech_icons / grayscale / mailgun">
<path id="Vector" d="M9.99988 8.70193C10.717 8.70193 11.2981 9.283 11.2981 9.99982C11.2981 10.7168 10.717 11.298 9.99988 11.298C9.28305 11.298 8.70186 10.7166 8.70186 9.99982C8.70186 9.283 9.28305 8.70193 9.99988 8.70193ZM5.57693 9.99982C5.57693 7.55709 7.55717 5.57694 9.99988 5.57694C12.4429 5.57694 14.423 7.55709 14.423 9.99982C14.423 10.1615 14.4144 10.321 14.3975 10.4779C14.3639 10.9091 14.6803 11.2382 15.1087 11.2382C15.8358 11.2382 15.9133 10.3008 15.9133 9.99982C15.9133 6.73386 13.2658 4.08652 9.99988 4.08652C6.73393 4.08652 4.08654 6.73392 4.08654 9.99982C4.08654 13.2656 6.73393 15.913 9.99982 15.913C11.7343 15.913 13.2944 15.1667 14.3761 13.9774L15.5918 14.9982C14.2186 16.5332 12.2221 17.5 9.99988 17.5C5.85777 17.5 2.5 14.1419 2.5 9.99982C2.5 5.85772 5.85777 2.5 9.99988 2.5C14.1422 2.5 17.5 5.85772 17.5 9.99988C17.5 11.6648 16.7072 13.0168 15.1149 13.0168C14.4141 13.0168 13.9881 12.6957 13.7555 12.3374C12.9745 13.5894 11.5847 14.4231 9.99988 14.4231C7.55711 14.4231 5.57693 12.4425 5.57693 9.99982ZM9.99988 7.16334C8.43344 7.16334 7.16336 8.43323 7.16336 9.99982C7.16336 11.5664 8.43344 12.8364 9.99988 12.8364C11.5664 12.8364 12.8366 11.5664 12.8366 9.99982C12.8366 8.43323 11.5664 7.16334 9.99988 7.16334Z" fill="#56565C"/>
</g>
</svg>
