<svg xmlns="http://www.w3.org/2000/svg" width="156" height="174" fill="none"><path stroke="#000" stroke-linecap="round" stroke-width="12" d="m6 81.853 67.882-67.882c9.373-9.373 24.569-9.373 33.941 0s9.373 24.568 0 33.941L56.558 99.177m.708-.707 50.557-50.558c9.373-9.372 24.569-9.372 33.942 0l.353.354c9.373 9.372 9.373 24.568 0 33.94l-61.393 61.395a8 8 0 0 0 0 11.313l12.606 12.607"/><path stroke="#000" stroke-linecap="round" stroke-width="12" d="M90.853 30.941 40.65 81.146c-9.373 9.372-9.373 24.568 0 33.941 9.372 9.372 24.568 9.372 33.94 0l50.205-50.205"/></svg>