<svg xmlns="http://www.w3.org/2000/svg" width="24" height="24" fill="none"><path fill="#373B4D" fill-rule="evenodd" d="M9.258 5.035a1.7 1.7 0 0 0-.687.424c-.181.21-6.392 11.411-6.493 11.71-.1.292-.099.556.003.885.103.332.383.653.711.814l.228.112h2.86c2.794 0 2.868-.002 3.222-.087 1.195-.285 2.098-.922 2.807-1.98.098-.146.974-1.701 1.947-3.454.972-1.753 1.785-3.186 1.806-3.184s.85 1.467 1.843 3.255l1.805 3.25-2.439.02-2.439.02-.58 1.04a57 57 0 0 0-.6 1.091c-.017.041.735.048 3.853.04l3.875-.011.228-.112a1.41 1.41 0 0 0 .701-1.733c-.049-.135-1.229-2.299-2.622-4.808-1.91-3.438-2.575-4.602-2.7-4.726a1.8 1.8 0 0 0-.387-.273c-.292-.144-.76-.153-1.049-.02-.394.181-.527.358-1.254 1.67a44 44 0 0 1-.681 1.21c-.004-.004-.586-1.052-1.293-2.328s-1.342-2.377-1.41-2.447a1.4 1.4 0 0 0-.863-.394 1.7 1.7 0 0 0-.392.016m1.53 5.185 1.206 2.18-.856 1.544c-.471.848-.937 1.657-1.036 1.796-.382.535-.919.888-1.522 1.001-.26.049-.655.058-2.104.05l-1.784-.011 2.424-4.37c1.333-2.403 2.433-4.37 2.445-4.37.011 0 .563.981 1.227 2.18"/></svg>