<svg width="20" height="20" fill="none" xmlns="http://www.w3.org/2000/svg"><path d="M9.75 5.463a.508.508 0 0 0-.299.312c-.044.105-.051.374-.051 1.874V9.4H7.64c-1.758 0-1.759 0-1.908.075a.584.584 0 0 0 0 1.05c.149.075.15.075 1.908.075H9.4v1.76c0 1.758 0 1.759.075 1.908a.584.584 0 0 0 1.05 0c.075-.149.075-.15.075-1.908V10.6h1.76c1.758 0 1.759 0 1.908-.075a.584.584 0 0 0 0-1.05c-.149-.075-.15-.075-1.908-.075H10.6l-.001-1.758c0-1.635-.005-1.768-.062-1.892a.508.508 0 0 0-.312-.299.557.557 0 0 0-.475.012" fill-rule="evenodd" fill="#000"/></svg>