<svg width="20" height="20" fill="none" xmlns="http://www.w3.org/2000/svg"><path d="M9.789 5.447 C 9.638 5.503,9.546 5.581,9.472 5.717 C 9.423 5.805,9.416 6.019,9.407 7.607 L 9.397 9.397 7.623 9.407 L 5.850 9.417 5.695 9.508 C 5.400 9.681,5.319 10.040,5.510 10.329 C 5.682 10.589,5.627 10.582,7.624 10.593 L 9.398 10.602 9.407 12.376 C 9.416 14.043,9.420 14.158,9.480 14.278 C 9.683 14.687,10.317 14.687,10.520 14.278 C 10.580 14.158,10.584 14.043,10.593 12.375 L 10.602 10.600 12.309 10.600 C 13.436 10.600,14.061 10.587,14.147 10.563 C 14.330 10.513,14.456 10.410,14.533 10.250 C 14.668 9.971,14.574 9.666,14.305 9.508 L 14.150 9.417 12.377 9.407 L 10.603 9.397 10.593 7.607 C 10.584 5.965,10.578 5.808,10.524 5.708 C 10.396 5.474,10.049 5.350,9.789 5.447 " stroke="none" fill-rule="evenodd"></path></svg>