<svg width="20" height="20" viewBox="0 0 20 20" fill="none" xmlns="http://www.w3.org/2000/svg"><path d="M9.817 5.439 C 9.662 5.497,9.538 5.595,9.474 5.711 C 9.422 5.807,9.416 5.982,9.407 7.607 L 9.397 9.397 7.623 9.407 L 5.850 9.417 5.695 9.508 C 5.426 9.666,5.332 9.971,5.467 10.250 C 5.544 10.410,5.670 10.513,5.853 10.563 C 5.939 10.587,6.564 10.600,7.692 10.600 L 9.400 10.600 9.400 12.308 C 9.400 14.082,9.408 14.190,9.543 14.372 C 9.630 14.490,9.851 14.600,10.000 14.600 C 10.149 14.600,10.370 14.490,10.457 14.372 C 10.592 14.190,10.600 14.082,10.600 12.308 L 10.600 10.600 12.308 10.600 C 13.436 10.600,14.061 10.587,14.147 10.563 C 14.330 10.513,14.456 10.410,14.533 10.250 C 14.668 9.971,14.574 9.666,14.305 9.508 L 14.150 9.417 12.377 9.407 L 10.603 9.397 10.593 7.607 C 10.584 5.965,10.578 5.808,10.524 5.708 C 10.402 5.485,10.051 5.352,9.817 5.439 " stroke="none" fill-rule="evenodd"></path></svg>