<svg width="20" height="20" viewBox="0 0 20 20" fill="none" xmlns="http://www.w3.org/2000/svg"><path d="M8.900 1.090 C 8.328 1.152,7.382 1.383,6.850 1.591 C 6.094 1.886,4.989 2.516,4.400 2.989 C 4.078 3.247,3.181 4.144,2.922 4.467 C 2.211 5.354,1.622 6.543,1.319 7.704 C 0.795 9.710,0.938 11.639,1.753 13.558 C 2.499 15.314,3.916 16.879,5.650 17.861 C 6.593 18.395,7.820 18.793,8.921 18.920 C 9.582 18.997,10.921 18.971,11.483 18.870 C 12.900 18.617,14.196 18.063,15.300 17.237 C 15.726 16.919,16.615 16.070,16.980 15.633 C 17.976 14.443,18.663 12.861,18.917 11.177 C 18.986 10.718,18.985 9.283,18.915 8.804 C 18.842 8.310,18.665 7.597,18.486 7.075 C 17.977 5.597,17.266 4.528,16.010 3.354 C 14.679 2.109,12.777 1.254,11.000 1.100 C 10.641 1.069,9.158 1.062,8.900 1.090 M11.367 5.563 L 12.017 5.586 12.370 5.755 C 13.018 6.065,13.458 6.427,13.787 6.921 C 14.210 7.556,14.286 7.867,14.259 8.850 C 14.243 9.428,14.239 9.460,14.136 9.715 C 13.839 10.458,13.350 11.016,12.646 11.418 C 12.072 11.746,11.675 11.799,9.775 11.800 L 8.633 11.800 8.633 13.150 L 8.633 14.500 7.750 14.500 L 6.867 14.500 6.867 9.995 L 6.867 5.489 8.792 5.515 C 9.850 5.529,11.009 5.550,11.367 5.563 M8.633 8.647 L 8.633 10.000 9.658 10.000 C 10.813 9.999,11.543 9.958,11.724 9.883 C 11.989 9.772,12.350 9.383,12.450 9.101 C 12.482 9.010,12.502 8.832,12.503 8.625 C 12.505 8.331,12.495 8.273,12.416 8.112 C 12.298 7.871,12.035 7.607,11.767 7.459 L 11.550 7.340 10.092 7.317 L 8.633 7.293 8.633 8.647 " fill="#19191C" stroke="none" fill-rule="evenodd"></path></svg>