<svg width="20" height="20" viewBox="0 0 20 20" fill="none" xmlns="http://www.w3.org/2000/svg"><path d="M9.100 1.072 C 8.476 1.109,7.535 1.324,6.865 1.583 C 6.037 1.904,5.038 2.469,4.417 2.969 C 4.054 3.261,3.194 4.121,2.918 4.466 C 1.383 6.392,0.702 9.087,1.138 11.517 C 1.409 13.029,2.090 14.538,2.979 15.600 C 4.253 17.120,5.675 18.082,7.433 18.612 C 8.314 18.877,9.055 18.981,10.050 18.978 C 11.109 18.976,11.962 18.833,12.913 18.499 C 14.443 17.961,15.483 17.258,16.737 15.916 C 17.818 14.758,18.587 13.135,18.884 11.384 C 18.960 10.935,18.968 10.795,18.968 10.001 C 18.968 9.269,18.956 9.045,18.899 8.700 C 18.636 7.093,18.004 5.628,17.065 4.450 C 16.795 4.111,15.964 3.277,15.620 3.000 C 14.332 1.962,12.603 1.237,11.091 1.101 C 10.617 1.058,9.599 1.043,9.100 1.072 M10.433 5.535 L 11.949 5.569 12.293 5.717 C 13.123 6.074,13.645 6.562,14.046 7.358 C 14.242 7.747,14.267 7.895,14.266 8.649 C 14.265 9.016,14.250 9.384,14.231 9.466 C 14.184 9.670,13.966 10.124,13.787 10.394 C 13.412 10.959,12.778 11.438,12.110 11.663 C 11.824 11.760,11.150 11.799,9.792 11.800 L 8.633 11.800 8.633 13.150 L 8.633 14.500 7.750 14.500 L 6.867 14.500 6.867 10.000 L 6.867 5.500 7.892 5.500 C 8.455 5.500,9.599 5.516,10.433 5.535 M8.633 8.645 L 8.633 10.000 9.675 9.998 C 10.835 9.997,11.475 9.965,11.700 9.898 C 11.906 9.837,12.301 9.445,12.421 9.184 C 12.495 9.022,12.508 8.944,12.512 8.654 C 12.516 8.334,12.511 8.303,12.408 8.094 C 12.280 7.835,12.042 7.600,11.747 7.444 L 11.550 7.339 10.092 7.315 L 8.633 7.291 8.633 8.645 " fill="#19191C" stroke="none" fill-rule="evenodd"></path></svg>