<svg width="20" height="20" fill="none" xmlns="http://www.w3.org/2000/svg"><path d="M9.224 1.033a9.127 9.127 0 0 0-4.873 1.961c-.384.302-1.213 1.16-1.529 1.581a8.991 8.991 0 0 0-.001 10.85c.384.512 1.242 1.37 1.754 1.754a8.991 8.991 0 0 0 10.85 0c.512-.384 1.37-1.242 1.754-1.754a8.991 8.991 0 0 0-.001-10.85c-.316-.421-1.145-1.279-1.529-1.581-1.296-1.021-2.751-1.656-4.337-1.894-.523-.078-1.613-.113-2.088-.067m2.739 4.561a3.184 3.184 0 0 1 1.86 1.328c.357.548.51 1.066.51 1.728 0 .659-.153 1.181-.506 1.722a3.232 3.232 0 0 1-1.851 1.336c-.245.068-.342.073-1.801.084l-1.542.012V14.5H6.867V5.497l2.408.011c2.364.012 2.413.013 2.688.086m-3.33 3.054V10h1.36c1.499 0 1.614-.012 1.912-.203.481-.309.725-.863.614-1.395a1.333 1.333 0 0 0-.778-.979l-.224-.106-1.442-.01-1.442-.01v1.351" fill="#19191C" fill-rule="evenodd"/></svg>