<svg width="20" height="20" fill="none" xmlns="http://www.w3.org/2000/svg"><path d="M9.350 1.037 C 7.646 1.130,5.772 1.861,4.371 2.980 C 4.064 3.225,3.347 3.944,3.017 4.337 C 2.723 4.687,2.276 5.357,2.041 5.800 C 1.577 6.671,1.243 7.707,1.077 8.790 C 0.999 9.294,0.999 10.706,1.077 11.210 C 1.324 12.819,1.881 14.162,2.829 15.433 C 3.051 15.731,3.979 16.687,4.337 16.986 C 5.337 17.822,6.701 18.483,8.040 18.781 C 8.792 18.948,9.090 18.978,10.000 18.978 C 10.910 18.978,11.208 18.948,11.960 18.781 C 13.299 18.483,14.663 17.822,15.663 16.986 C 16.021 16.687,16.949 15.731,17.171 15.433 C 18.119 14.162,18.676 12.819,18.923 11.210 C 19.001 10.706,19.001 9.294,18.923 8.790 C 18.705 7.370,18.261 6.198,17.511 5.058 C 17.164 4.530,16.869 4.178,16.289 3.594 C 14.767 2.064,12.612 1.111,10.533 1.047 C 10.231 1.038,9.938 1.027,9.883 1.022 C 9.828 1.017,9.588 1.024,9.350 1.037 M10.883 5.531 L 11.883 5.556 12.215 5.677 C 13.024 5.973,13.648 6.528,14.020 7.283 C 14.255 7.762,14.310 8.021,14.310 8.650 C 14.310 9.279,14.255 9.538,14.020 10.017 C 13.614 10.840,12.894 11.441,11.998 11.702 C 11.764 11.770,11.665 11.775,10.192 11.791 L 8.633 11.808 8.633 13.154 L 8.633 14.500 7.750 14.500 L 6.867 14.500 6.867 10.000 L 6.867 5.500 8.375 5.503 C 9.205 5.504,10.333 5.517,10.883 5.531 M8.633 8.645 L 8.633 10.000 9.908 9.999 C 10.610 9.999,11.288 9.984,11.417 9.965 C 11.724 9.920,11.910 9.827,12.136 9.602 C 12.392 9.346,12.507 9.094,12.526 8.747 C 12.559 8.151,12.289 7.696,11.742 7.427 L 11.534 7.324 10.084 7.307 L 8.633 7.290 8.633 8.645 " fill="#19191C" stroke="none" fill-rule="evenodd"></path></svg>