<svg width="20" height="20" viewBox="0 0 20 20" fill="none" xmlns="http://www.w3.org/2000/svg"><path d="M9.350 1.038 C 7.313 1.152,5.191 2.109,3.733 3.571 C 3.151 4.155,2.864 4.495,2.519 5.012 C 0.891 7.451,0.552 10.534,1.616 13.253 C 1.916 14.022,2.487 15.024,2.938 15.576 C 3.159 15.847,4.055 16.748,4.342 16.989 C 4.946 17.496,5.920 18.061,6.747 18.384 C 9.464 19.447,12.550 19.109,14.984 17.484 C 15.531 17.118,15.813 16.878,16.418 16.261 C 17.019 15.650,17.120 15.528,17.483 14.985 C 19.498 11.967,19.498 8.032,17.481 5.012 C 17.137 4.497,16.863 4.171,16.283 3.588 C 14.767 2.065,12.609 1.111,10.533 1.047 C 10.231 1.038,9.938 1.027,9.883 1.022 C 9.828 1.017,9.588 1.025,9.350 1.038 M10.883 5.531 L 11.883 5.556 12.205 5.674 C 13.023 5.973,13.647 6.527,14.020 7.283 C 14.255 7.762,14.310 8.021,14.310 8.650 C 14.310 9.279,14.255 9.538,14.020 10.017 C 13.613 10.842,12.894 11.440,11.988 11.705 C 11.766 11.770,11.644 11.775,10.192 11.791 L 8.633 11.808 8.633 13.154 L 8.633 14.500 7.750 14.500 L 6.867 14.500 6.867 10.000 L 6.867 5.500 8.375 5.503 C 9.205 5.504,10.333 5.517,10.883 5.531 M8.633 8.645 L 8.633 10.000 9.908 9.999 C 11.253 9.999,11.556 9.976,11.800 9.859 C 12.013 9.757,12.303 9.454,12.416 9.217 C 12.539 8.958,12.568 8.571,12.486 8.287 C 12.372 7.896,12.148 7.635,11.751 7.434 L 11.535 7.324 10.084 7.307 L 8.633 7.290 8.633 8.645 " fill="#19191C" stroke="none" fill-rule="evenodd"></path></svg>