<svg width="20" height="20" viewBox="0 0 20 20" fill="none" xmlns="http://www.w3.org/2000/svg"><path d="M9.100 1.055 C 7.509 1.209,5.904 1.844,4.568 2.846 C 4.181 3.136,3.385 3.905,3.026 4.333 C 1.682 5.941,0.929 8.177,1.012 10.317 C 1.078 12.032,1.586 13.573,2.587 15.090 C 2.987 15.695,3.978 16.725,4.626 17.208 C 6.867 18.877,9.776 19.414,12.450 18.651 C 13.485 18.355,14.527 17.839,15.400 17.189 C 15.815 16.880,16.891 15.804,17.190 15.400 C 18.143 14.112,18.727 12.654,18.939 11.033 C 18.993 10.625,18.993 9.375,18.939 8.967 C 18.726 7.346,18.129 5.855,17.187 4.600 C 16.889 4.202,16.120 3.409,15.683 3.050 C 14.404 1.996,12.824 1.309,11.200 1.100 C 10.907 1.062,9.365 1.029,9.100 1.055 M10.633 5.533 L 11.917 5.563 12.172 5.663 C 13.068 6.013,13.624 6.510,14.030 7.323 C 14.262 7.788,14.283 7.900,14.283 8.650 C 14.283 9.413,14.265 9.505,14.005 10.028 C 13.625 10.796,12.943 11.384,12.100 11.670 C 11.819 11.765,11.279 11.795,9.775 11.798 L 8.633 11.800 8.633 13.150 L 8.633 14.500 7.750 14.500 L 6.867 14.500 6.867 10.000 L 6.867 5.500 8.108 5.501 C 8.791 5.502,9.928 5.516,10.633 5.533 M8.633 8.648 L 8.633 10.006 10.042 9.991 C 11.635 9.975,11.697 9.966,11.988 9.726 C 12.203 9.549,12.418 9.257,12.472 9.069 C 12.497 8.985,12.516 8.782,12.516 8.617 C 12.515 8.350,12.503 8.292,12.410 8.093 C 12.280 7.817,12.080 7.617,11.773 7.455 L 11.540 7.333 10.087 7.311 L 8.633 7.289 8.633 8.648 " fill="#19191C" stroke="none" fill-rule="evenodd"></path></svg>