<svg xmlns="http://www.w3.org/2000/svg" width="16" height="16" fill="none"><path fill="#C3C3C6" fill-rule="evenodd" stroke="none" d="M4.569 2.437 C 4.507 2.457,4.417 2.498,4.369 2.529 C 4.218 2.623,1.747 5.123,1.697 5.231 C 1.448 5.779,1.837 6.390,2.429 6.381 C 2.498 6.380,2.618 6.359,2.697 6.333 C 2.826 6.291,2.899 6.228,3.420 5.711 L 4.000 5.136 4.000 7.434 C 4.000 9.717,4.000 9.732,4.057 9.884 C 4.168 10.181,4.484 10.400,4.800 10.400 C 5.116 10.400,5.432 10.181,5.543 9.884 C 5.600 9.732,5.600 9.717,5.600 7.434 L 5.600 5.137 6.193 5.724 C 6.730 6.256,6.801 6.317,6.933 6.361 C 7.247 6.466,7.551 6.399,7.775 6.175 C 7.999 5.951,8.066 5.649,7.962 5.333 C 7.916 5.195,7.839 5.112,6.603 3.872 C 5.559 2.824,5.265 2.544,5.153 2.489 C 4.984 2.406,4.731 2.384,4.569 2.437 M10.942 5.648 C 10.693 5.737,10.531 5.902,10.441 6.157 C 10.405 6.258,10.400 6.571,10.400 8.569 L 10.400 10.865 9.833 10.301 C 9.181 9.651,9.105 9.601,8.784 9.600 C 8.338 9.600,7.992 9.942,7.992 10.386 C 7.992 10.555,8.038 10.700,8.135 10.840 C 8.176 10.899,8.783 11.518,9.484 12.217 C 10.695 13.422,10.768 13.490,10.920 13.546 C 11.039 13.590,11.122 13.602,11.241 13.595 C 11.559 13.575,11.570 13.566,12.990 12.141 C 14.216 10.911,14.290 10.832,14.335 10.693 C 14.467 10.289,14.315 9.903,13.950 9.714 C 13.806 9.639,13.755 9.627,13.591 9.627 C 13.269 9.627,13.192 9.678,12.553 10.314 L 12.000 10.865 12.000 8.567 C 12.000 6.331,11.999 6.265,11.946 6.126 C 11.796 5.723,11.340 5.506,10.942 5.648"/></svg>