<svg xmlns="http://www.w3.org/2000/svg" width="16" height="16" fill="none"><path fill="#C3C3C6" fill-rule="evenodd" d="M4.569 2.437c-.062.02-.152.061-.2.092-.151.094-2.622 2.594-2.672 2.702-.249.548.14 1.159.732 1.15.069-.001.189-.022.268-.048.129-.042.202-.105.723-.622L4 5.136v2.298c0 2.283 0 2.298.057 2.45a.82.82 0 0 0 .743.516.82.82 0 0 0 .743-.516c.057-.152.057-.167.057-2.45V5.137l.593.587c.537.532.608.593.74.637a.79.79 0 0 0 .842-.186c.224-.224.291-.526.187-.842-.046-.138-.123-.221-1.359-1.461-1.044-1.048-1.338-1.328-1.45-1.383a.88.88 0 0 0-.584-.052m6.373 3.211a.78.78 0 0 0-.501.509c-.036.101-.041.414-.041 2.412v2.296l-.567-.564c-.652-.65-.728-.7-1.049-.701a.777.777 0 0 0-.792.786c0 .169.046.314.143.454.041.059.648.678 1.349 1.377 1.211 1.205 1.284 1.273 1.436 1.329a.7.7 0 0 0 .321.049c.318-.02.329-.029 1.749-1.454 1.226-1.23 1.3-1.309 1.345-1.448.132-.404-.02-.79-.385-.979a.6.6 0 0 0-.359-.087c-.322 0-.399.051-1.038.687l-.553.551V8.567c0-2.236-.001-2.302-.054-2.441a.8.8 0 0 0-1.004-.478"/></svg>