<svg width="20" height="20" viewBox="0 0 20 20" fill="none" xmlns="http://www.w3.org/2000/svg"><path d="M9.083 4.022 C 8.001 4.151,7.277 4.399,6.483 4.915 C 5.337 5.659,4.564 6.739,4.180 8.133 C 3.965 8.912,3.958 10.057,4.164 10.817 C 4.527 12.155,5.192 13.142,6.267 13.940 C 7.308 14.713,8.655 15.084,10.007 14.972 C 10.776 14.907,11.662 14.616,12.355 14.199 L 12.640 14.028 13.728 15.109 C 14.566 15.941,14.846 16.199,14.944 16.232 C 15.421 16.388,15.862 15.869,15.643 15.407 C 15.612 15.341,15.131 14.826,14.574 14.261 C 13.900 13.577,13.571 13.220,13.587 13.192 C 13.601 13.169,13.690 13.053,13.785 12.933 C 14.319 12.259,14.699 11.450,14.901 10.550 C 14.965 10.266,14.976 10.119,14.977 9.550 C 14.978 8.756,14.932 8.455,14.715 7.803 C 14.539 7.275,14.340 6.858,14.076 6.461 C 13.155 5.078,11.664 4.194,9.982 4.035 C 9.631 4.001,9.295 3.997,9.083 4.022 M9.782 5.235 C 10.686 5.296,11.370 5.546,12.059 6.065 C 12.904 6.702,13.504 7.648,13.714 8.674 C 13.785 9.022,13.786 9.976,13.715 10.318 C 13.242 12.608,11.061 14.123,8.795 13.735 C 7.122 13.449,5.809 12.246,5.339 10.569 C 5.254 10.266,5.250 10.212,5.250 9.500 C 5.251 8.655,5.277 8.508,5.533 7.880 C 6.109 6.469,7.359 5.490,8.889 5.252 C 9.263 5.194,9.200 5.195,9.782 5.235 " fill="#19191C" stroke="none" fill-rule="evenodd"></path></svg>