<svg width="20" height="20" viewBox="0 0 20 20" fill="none" xmlns="http://www.w3.org/2000/svg"><path d="M9.100 4.021 C 8.119 4.146,7.395 4.376,6.720 4.779 C 5.557 5.473,4.720 6.513,4.289 7.802 C 3.756 9.395,3.999 11.132,4.956 12.581 C 5.413 13.273,6.269 14.016,7.075 14.421 C 7.915 14.843,9.015 15.054,9.932 14.971 C 10.743 14.896,11.392 14.699,12.187 14.285 L 12.658 14.040 13.270 14.657 C 14.206 15.598,14.849 16.189,14.986 16.234 C 15.229 16.315,15.511 16.163,15.638 15.884 C 15.797 15.534,15.766 15.488,14.392 14.073 C 14.048 13.719,13.728 13.378,13.680 13.315 L 13.593 13.201 13.826 12.876 C 14.270 12.255,14.465 11.889,14.700 11.233 C 14.931 10.589,14.950 10.454,14.948 9.483 C 14.946 8.619,14.946 8.615,14.842 8.233 C 14.552 7.165,14.114 6.391,13.386 5.658 C 12.514 4.783,11.498 4.267,10.288 4.085 C 9.934 4.032,9.289 3.997,9.100 4.021 M10.123 5.287 C 10.638 5.361,10.947 5.452,11.356 5.651 C 12.335 6.127,13.097 6.964,13.511 8.017 C 13.668 8.417,13.731 8.745,13.755 9.294 C 13.789 10.073,13.679 10.635,13.364 11.297 C 12.833 12.413,11.939 13.207,10.793 13.581 C 10.317 13.736,10.022 13.781,9.500 13.781 C 8.619 13.781,7.878 13.558,7.151 13.074 C 6.389 12.567,5.836 11.858,5.454 10.897 L 5.300 10.510 5.300 9.507 C 5.300 8.351,5.295 8.376,5.670 7.623 C 5.899 7.164,6.004 7.005,6.275 6.704 C 6.883 6.030,7.519 5.625,8.350 5.384 C 9.012 5.192,9.340 5.174,10.123 5.287 " fill="#19191C" stroke="none" fill-rule="evenodd"></path></svg>