<svg width="20" height="20" fill="none" xmlns="http://www.w3.org/2000/svg"><path d="M8.9 4.037c-2.13.241-3.934 1.689-4.601 3.693-.232.698-.279.994-.279 1.77 0 .583.011.735.075 1.033.324 1.511 1.119 2.707 2.353 3.539.581.391 1.26.671 2.019.832.47.1 1.521.11 1.983.019.675-.132 1.418-.417 1.944-.745l.246-.153 1.105 1.101c1.073 1.07 1.11 1.103 1.26 1.125.21.03.344-.005.483-.126.24-.211.293-.5.137-.761-.048-.081-.531-.59-1.073-1.13-.542-.541-.985-.995-.985-1.01 0-.014.084-.126.187-.247.557-.657.982-1.575 1.169-2.527.091-.461.081-1.514-.019-1.979-.325-1.52-1.12-2.713-2.364-3.549a5.553 5.553 0 0 0-3.64-.885m1.433 1.246a4.348 4.348 0 0 1 3.404 3.484c.058.321.058 1.145 0 1.466a4.382 4.382 0 0 1-1.203 2.301 4.277 4.277 0 0 1-6.053.017A4.263 4.263 0 0 1 5.408 10.8c-.147-.462-.19-.757-.19-1.3 0-.266.02-.596.045-.733A4.717 4.717 0 0 1 6.003 7c.225-.32.677-.772.997-.997.509-.358 1.22-.653 1.767-.733l.333-.051c.16-.028.985.015 1.233.064" fill="#19191C" fill-rule="evenodd"/></svg>