<svg width="20" height="20" viewBox="0 0 20 20" fill="none" xmlns="http://www.w3.org/2000/svg"><path d="M8.783 4.067 C 7.723 4.228,7.019 4.518,6.170 5.143 C 5.325 5.766,4.664 6.690,4.304 7.750 C 4.136 8.246,4.082 8.502,4.033 9.033 C 3.911 10.338,4.303 11.720,5.096 12.783 C 5.742 13.649,6.731 14.367,7.733 14.696 C 9.309 15.213,10.888 15.044,12.347 14.204 L 12.644 14.033 13.630 15.009 C 14.772 16.138,14.880 16.233,15.063 16.257 C 15.343 16.295,15.650 16.041,15.690 15.740 C 15.728 15.458,15.661 15.371,14.484 14.167 C 13.835 13.502,13.600 13.247,13.600 13.207 C 13.600 13.190,13.695 13.051,13.810 12.897 C 14.229 12.339,14.487 11.855,14.713 11.207 C 14.924 10.599,14.967 10.320,14.967 9.538 C 14.967 8.728,14.929 8.459,14.733 7.862 C 14.430 6.940,14.045 6.307,13.386 5.648 C 12.421 4.683,11.309 4.166,9.917 4.035 C 9.434 3.989,9.262 3.994,8.783 4.067 M9.723 5.235 C 10.750 5.321,11.385 5.555,12.126 6.123 C 12.955 6.758,13.622 7.890,13.732 8.850 C 13.774 9.219,13.775 9.837,13.734 10.150 C 13.656 10.746,13.319 11.540,12.919 12.070 C 12.064 13.205,10.673 13.864,9.300 13.787 C 8.239 13.728,7.301 13.321,6.548 12.594 C 6.043 12.106,5.677 11.529,5.411 10.800 L 5.283 10.450 5.283 9.500 L 5.283 8.550 5.377 8.283 C 5.513 7.897,5.765 7.383,5.967 7.080 C 6.190 6.747,6.774 6.164,7.099 5.952 C 7.623 5.609,8.242 5.367,8.883 5.253 C 9.222 5.193,9.216 5.193,9.723 5.235 " fill="#19191C" stroke="none" fill-rule="evenodd"></path></svg>