<svg width="20" height="20" fill="none" xmlns="http://www.w3.org/2000/svg"><path d="M9.117 4.020 C 7.856 4.141,6.850 4.556,5.916 5.340 C 5.076 6.045,4.500 6.972,4.180 8.133 C 3.965 8.912,3.958 10.057,4.164 10.817 C 4.527 12.155,5.192 13.142,6.267 13.940 C 7.308 14.713,8.655 15.084,10.007 14.972 C 10.776 14.907,11.662 14.616,12.355 14.199 L 12.640 14.028 13.728 15.109 C 14.566 15.941,14.846 16.199,14.944 16.232 C 15.421 16.388,15.862 15.869,15.643 15.407 C 15.612 15.341,15.131 14.826,14.574 14.261 C 13.900 13.577,13.571 13.220,13.587 13.192 C 13.601 13.169,13.690 13.053,13.785 12.933 C 14.319 12.259,14.699 11.450,14.901 10.550 C 14.965 10.266,14.976 10.119,14.977 9.550 C 14.978 8.756,14.932 8.455,14.715 7.803 C 14.223 6.328,13.285 5.249,11.917 4.583 C 11.402 4.332,10.958 4.187,10.454 4.102 C 10.085 4.039,9.371 3.996,9.117 4.020 M9.782 5.235 C 10.507 5.284,11.065 5.448,11.615 5.772 C 12.712 6.419,13.467 7.463,13.714 8.674 C 13.785 9.022,13.786 9.976,13.715 10.318 C 13.438 11.660,12.542 12.808,11.320 13.386 C 10.569 13.741,9.698 13.873,8.900 13.752 C 7.168 13.489,5.819 12.282,5.339 10.569 C 5.254 10.264,5.250 10.216,5.252 9.483 C 5.253 8.743,5.256 8.706,5.345 8.417 C 5.634 7.475,6.028 6.847,6.706 6.245 C 7.267 5.748,8.080 5.378,8.889 5.252 C 9.263 5.194,9.200 5.195,9.782 5.235 " fill="#19191C" stroke="none" fill-rule="evenodd"></path></svg>