<svg width="20" height="20" viewBox="0 0 20 20" fill="none" xmlns="http://www.w3.org/2000/svg"><path d="M8.467 4.129 C 7.430 4.349,6.642 4.735,5.871 5.402 C 4.617 6.487,3.878 8.297,4.030 9.908 C 4.170 11.398,4.787 12.644,5.842 13.568 C 6.804 14.412,7.834 14.854,9.108 14.971 C 10.076 15.060,11.082 14.838,12.146 14.302 L 12.650 14.048 13.568 14.949 C 14.563 15.925,14.902 16.222,15.058 16.253 C 15.284 16.299,15.625 16.033,15.684 15.765 C 15.740 15.508,15.613 15.337,14.516 14.200 C 14.100 13.769,13.723 13.369,13.678 13.310 L 13.595 13.204 13.860 12.827 C 14.005 12.620,14.194 12.329,14.279 12.180 C 14.470 11.846,14.748 11.153,14.858 10.733 C 14.937 10.434,14.941 10.367,14.943 9.517 C 14.945 8.518,14.937 8.469,14.681 7.729 C 14.389 6.892,14.030 6.326,13.369 5.664 C 12.534 4.829,11.659 4.354,10.543 4.131 C 10.274 4.077,10.024 4.056,9.550 4.046 C 8.953 4.034,8.891 4.039,8.467 4.129 M10.065 5.285 C 10.627 5.363,10.913 5.447,11.350 5.663 C 12.275 6.120,12.936 6.795,13.383 7.742 C 13.597 8.194,13.693 8.561,13.737 9.099 C 13.816 10.074,13.639 10.858,13.155 11.677 C 12.527 12.739,11.510 13.460,10.276 13.718 C 9.927 13.791,9.140 13.791,8.750 13.718 C 7.559 13.494,6.577 12.829,5.913 11.794 C 5.735 11.517,5.649 11.347,5.451 10.883 L 5.294 10.517 5.307 9.483 C 5.319 8.516,5.325 8.436,5.395 8.238 C 5.493 7.960,5.769 7.411,5.958 7.117 C 6.143 6.829,6.630 6.326,6.975 6.065 C 7.431 5.720,8.105 5.422,8.742 5.284 C 9.025 5.222,9.621 5.223,10.065 5.285 " fill="#19191C" stroke="none" fill-rule="evenodd"></path></svg>