<svg xmlns="http://www.w3.org/2000/svg" width="20" height="20" fill="none" viewBox="0 0 20 20"><path fill="#19191C" fill-rule="evenodd" d="M13.8 9.5C13.8 11.8748 11.8748 13.8 9.50001 13.8C7.12518 13.8 5.20001 11.8748 5.20001 9.5C5.20001 7.12518 7.12518 5.2 9.50001 5.2C11.8748 5.2 13.8 7.12518 13.8 9.5ZM12.6281 14.0245C11.74 14.6396 10.6621 15 9.50001 15C6.46244 15 4.00001 12.5376 4.00001 9.5C4.00001 6.46243 6.46244 4 9.50001 4C12.5376 4 15 6.46243 15 9.5C15 10.9423 14.4448 12.2549 13.5365 13.2359L15.543 15.2424C15.7773 15.4767 15.7773 15.8566 15.543 16.0909C15.3087 16.3252 14.9288 16.3252 14.6945 16.0909L12.6281 14.0245Z" clip-rule="evenodd"/></svg>