<svg width="20" height="20" viewBox="0 0 20 20" fill="none" xmlns="http://www.w3.org/2000/svg"><path d="M9.793 3.034 C 9.583 3.070,9.317 3.219,9.180 3.379 C 9.119 3.451,8.707 4.224,8.265 5.097 C 7.823 5.969,7.451 6.695,7.437 6.708 C 7.424 6.722,6.611 6.848,5.632 6.988 C 4.523 7.146,3.784 7.266,3.675 7.307 C 3.458 7.387,3.191 7.639,3.091 7.858 C 3.033 7.983,3.018 8.080,3.017 8.317 C 3.016 8.824,2.992 8.792,4.508 10.233 C 5.228 10.917,5.821 11.502,5.827 11.533 C 5.832 11.565,5.700 12.369,5.532 13.320 C 5.307 14.596,5.232 15.092,5.246 15.211 C 5.269 15.413,5.391 15.683,5.531 15.843 C 5.759 16.102,6.249 16.254,6.586 16.170 C 6.671 16.148,7.470 15.756,8.361 15.298 C 9.252 14.841,9.989 14.467,10.000 14.467 C 10.011 14.467,10.748 14.841,11.639 15.298 C 12.530 15.756,13.329 16.148,13.414 16.170 C 13.876 16.286,14.416 16.029,14.632 15.591 C 14.806 15.239,14.805 15.232,14.468 13.320 C 14.300 12.369,14.168 11.565,14.173 11.533 C 14.179 11.502,14.772 10.916,15.492 10.232 C 17.009 8.790,16.984 8.822,16.982 8.317 C 16.982 8.068,16.967 7.988,16.900 7.850 C 16.789 7.621,16.541 7.387,16.325 7.307 C 16.216 7.266,15.477 7.146,14.368 6.988 C 13.389 6.848,12.576 6.722,12.562 6.708 C 12.549 6.695,12.177 5.970,11.735 5.097 C 11.283 4.204,10.881 3.451,10.815 3.374 C 10.594 3.116,10.162 2.972,9.793 3.034 M10.783 5.891 C 11.472 7.260,11.569 7.433,11.733 7.601 C 11.859 7.730,11.967 7.806,12.079 7.843 C 12.168 7.874,13.001 8.006,13.929 8.138 C 14.857 8.269,15.627 8.386,15.639 8.397 C 15.651 8.408,15.099 8.949,14.413 9.600 C 13.308 10.647,13.152 10.807,13.062 10.988 C 12.892 11.332,12.896 11.386,13.226 13.233 C 13.388 14.141,13.518 14.888,13.513 14.894 C 13.509 14.900,12.801 14.544,11.940 14.102 C 10.867 13.551,10.316 13.286,10.187 13.259 C 9.858 13.190,9.761 13.228,8.065 14.099 C 7.207 14.540,6.499 14.900,6.492 14.900 C 6.485 14.900,6.612 14.154,6.774 13.242 C 7.103 11.385,7.107 11.330,6.937 10.988 C 6.848 10.807,6.691 10.646,5.587 9.600 C 4.901 8.949,4.349 8.408,4.361 8.397 C 4.373 8.386,5.143 8.269,6.071 8.138 C 6.999 8.006,7.832 7.874,7.921 7.843 C 8.033 7.806,8.141 7.730,8.267 7.601 C 8.431 7.433,8.528 7.260,9.217 5.891 C 9.638 5.054,9.991 4.368,10.000 4.368 C 10.009 4.368,10.362 5.054,10.783 5.891 " stroke="none" fill-rule="evenodd" fill="black"></path></svg>