<svg width="20" height="20" fill="none" xmlns="http://www.w3.org/2000/svg"><path d="M9.625 3.084 C 9.385 3.172,9.208 3.325,9.067 3.566 C 8.993 3.693,8.612 4.421,8.221 5.184 C 7.829 5.947,7.481 6.608,7.446 6.652 C 7.388 6.726,7.318 6.742,6.567 6.852 C 4.437 7.164,3.782 7.273,3.629 7.338 C 3.445 7.418,3.156 7.706,3.076 7.891 C 3.001 8.064,3.000 8.572,3.074 8.740 C 3.146 8.903,3.476 9.243,4.727 10.443 C 5.301 10.994,5.783 11.469,5.800 11.499 C 5.829 11.554,5.778 11.881,5.416 13.983 C 5.330 14.478,5.259 14.981,5.258 15.100 C 5.249 15.718,5.711 16.170,6.361 16.180 L 6.604 16.183 8.302 15.325 L 10.000 14.467 11.697 15.325 L 13.393 16.183 13.655 16.181 C 13.985 16.178,14.222 16.074,14.448 15.832 C 14.789 15.468,14.805 15.284,14.599 14.083 C 14.215 11.833,14.172 11.553,14.201 11.499 C 14.217 11.468,14.715 10.978,15.307 10.410 C 17.018 8.767,16.983 8.810,16.980 8.313 C 16.977 7.955,16.919 7.810,16.675 7.560 C 16.409 7.287,16.470 7.300,13.433 6.851 C 12.823 6.761,12.603 6.716,12.563 6.673 C 12.533 6.642,12.179 5.971,11.776 5.183 C 10.862 3.394,10.834 3.348,10.600 3.208 C 10.500 3.148,10.365 3.084,10.300 3.066 C 10.135 3.020,9.773 3.030,9.625 3.084 M10.737 5.806 C 11.517 7.344,11.681 7.614,11.923 7.756 C 12.114 7.868,12.291 7.900,14.130 8.167 C 14.893 8.277,15.545 8.379,15.579 8.394 C 15.631 8.415,15.521 8.534,14.912 9.117 C 13.126 10.827,13.040 10.922,12.969 11.241 C 12.923 11.447,12.965 11.765,13.268 13.486 C 13.399 14.230,13.498 14.846,13.488 14.857 C 13.478 14.867,12.751 14.515,11.873 14.074 C 10.811 13.540,10.227 13.265,10.125 13.250 C 10.021 13.234,9.911 13.245,9.778 13.283 C 9.671 13.314,8.890 13.690,8.042 14.119 C 7.148 14.570,6.500 14.880,6.500 14.855 C 6.500 14.831,6.583 14.340,6.685 13.764 C 7.090 11.465,7.102 11.341,6.956 11.033 C 6.864 10.838,6.573 10.540,5.088 9.117 C 4.479 8.534,4.369 8.415,4.421 8.394 C 4.455 8.379,4.956 8.300,5.533 8.217 C 7.599 7.921,7.881 7.870,8.074 7.754 C 8.327 7.601,8.467 7.372,9.268 5.794 C 9.658 5.027,9.987 4.400,10.000 4.400 C 10.013 4.400,10.345 5.033,10.737 5.806 " stroke="none" fill-rule="evenodd"></path></svg>