<svg width="20" height="20" fill="none" xmlns="http://www.w3.org/2000/svg"><path d="M9.793 3.034c-.21.036-.476.185-.613.345-.061.072-.473.845-.915 1.718a76.721 76.721 0 0 1-.828 1.611c-.013.014-.826.14-1.805.28-1.109.158-1.848.278-1.957.319-.217.08-.484.332-.584.551-.058.125-.073.222-.074.459-.001.507-.025.475 1.491 1.916.72.684 1.313 1.269 1.319 1.3.005.032-.127.836-.295 1.787-.225 1.276-.3 1.772-.286 1.891.023.202.145.472.285.632.228.259.718.411 1.055.327.085-.022.884-.414 1.775-.872A97.49 97.49 0 0 1 10 14.467c.011 0 .748.374 1.639.831.891.458 1.69.85 1.775.872.462.116 1.002-.141 1.218-.579.174-.352.173-.359-.164-2.271-.168-.951-.3-1.755-.295-1.787.006-.031.599-.617 1.319-1.301 1.517-1.442 1.492-1.41 1.49-1.915 0-.249-.015-.329-.082-.467-.111-.229-.359-.463-.575-.543-.109-.041-.848-.161-1.957-.319-.979-.14-1.792-.266-1.806-.28a82.877 82.877 0 0 1-.827-1.611c-.452-.893-.854-1.646-.92-1.723-.221-.258-.653-.402-1.022-.34m.99 2.857c.689 1.369.786 1.542.95 1.71a.884.884 0 0 0 .346.242c.089.031.922.163 1.85.295.928.131 1.698.248 1.71.259.012.011-.54.552-1.226 1.203-1.105 1.047-1.261 1.207-1.351 1.388-.17.344-.166.398.164 2.245.162.908.292 1.655.287 1.661a58.25 58.25 0 0 1-1.573-.792c-1.073-.551-1.624-.816-1.753-.843-.329-.069-.426-.031-2.122.84-.858.441-1.566.801-1.573.801-.007 0 .12-.746.282-1.658.329-1.857.333-1.912.163-2.254-.089-.181-.246-.342-1.35-1.388-.686-.651-1.238-1.192-1.226-1.203.012-.011.782-.128 1.71-.259.928-.132 1.761-.264 1.85-.295a.884.884 0 0 0 .346-.242c.164-.168.261-.341.95-1.71.421-.837.774-1.523.783-1.523.009 0 .362.686.783 1.523" fill-rule="evenodd" fill="#000"/></svg>