<svg width="20" height="20" viewBox="0 0 20 20" fill="none" xmlns="http://www.w3.org/2000/svg"><path d="M9.625 3.082 C 9.391 3.172,9.207 3.327,9.080 3.543 C 9.013 3.657,8.621 4.405,8.210 5.206 C 7.799 6.006,7.445 6.677,7.422 6.695 C 7.400 6.714,7.014 6.784,6.566 6.851 C 4.294 7.188,3.781 7.273,3.629 7.338 C 3.445 7.418,3.156 7.706,3.076 7.891 C 3.001 8.064,3.000 8.572,3.074 8.740 C 3.146 8.903,3.476 9.243,4.727 10.443 C 5.301 10.994,5.783 11.469,5.800 11.499 C 5.829 11.554,5.778 11.881,5.416 13.983 C 5.330 14.478,5.259 14.981,5.258 15.100 C 5.249 15.718,5.711 16.170,6.361 16.180 L 6.605 16.183 8.303 15.325 L 10.001 14.467 11.697 15.325 L 13.393 16.183 13.655 16.181 C 13.985 16.178,14.222 16.074,14.448 15.832 C 14.789 15.468,14.805 15.284,14.599 14.083 C 14.215 11.833,14.172 11.553,14.201 11.499 C 14.217 11.468,14.715 10.978,15.307 10.410 C 17.018 8.767,16.983 8.810,16.980 8.313 C 16.977 7.955,16.919 7.810,16.675 7.560 C 16.409 7.287,16.484 7.303,13.443 6.852 C 12.999 6.786,12.616 6.724,12.593 6.715 C 12.569 6.706,12.281 6.170,11.953 5.524 C 11.249 4.139,10.921 3.521,10.816 3.381 C 10.774 3.325,10.644 3.228,10.528 3.166 C 10.343 3.067,10.281 3.052,10.033 3.044 C 9.846 3.037,9.708 3.050,9.625 3.082 M10.720 5.775 C 11.467 7.250,11.648 7.554,11.880 7.727 C 12.061 7.862,12.168 7.883,14.124 8.166 C 14.890 8.277,15.545 8.379,15.579 8.394 C 15.631 8.415,15.521 8.534,14.912 9.117 C 13.126 10.827,13.040 10.922,12.969 11.241 C 12.923 11.447,12.965 11.765,13.268 13.486 C 13.399 14.230,13.497 14.847,13.486 14.858 C 13.475 14.869,12.750 14.517,11.875 14.076 C 10.790 13.529,10.234 13.266,10.128 13.250 C 10.021 13.234,9.912 13.244,9.778 13.283 C 9.671 13.314,8.890 13.690,8.042 14.119 C 7.148 14.570,6.500 14.880,6.500 14.855 C 6.500 14.831,6.583 14.340,6.685 13.764 C 7.090 11.465,7.102 11.341,6.956 11.033 C 6.864 10.838,6.573 10.540,5.088 9.117 C 4.479 8.534,4.369 8.415,4.421 8.394 C 4.455 8.379,5.110 8.277,5.876 8.166 C 7.866 7.878,7.940 7.863,8.128 7.717 C 8.362 7.537,8.520 7.270,9.280 5.772 C 9.663 5.018,9.987 4.400,10.000 4.400 C 10.013 4.400,10.337 5.019,10.720 5.775 " stroke="none" fill-rule="evenodd"></path></svg>