<svg width="20" height="20" viewBox="0 0 20 20" fill="none" xmlns="http://www.w3.org/2000/svg"><path d="M12.833 2.834 C 12.229 2.899,11.460 3.289,10.915 3.806 C 10.366 4.327,10.054 4.865,9.868 5.610 C 9.803 5.872,9.796 5.972,9.806 6.568 L 9.817 7.233 9.693 7.233 C 9.511 7.233,8.833 7.142,8.433 7.063 C 6.722 6.728,5.202 6.040,3.833 4.981 C 3.623 4.818,3.168 4.405,2.824 4.064 L 2.197 3.443 2.117 3.580 C 2.018 3.748,1.862 4.222,1.779 4.600 C 1.702 4.957,1.701 5.581,1.778 5.924 C 1.958 6.729,2.246 7.243,2.879 7.892 C 3.251 8.273,3.271 8.300,3.181 8.299 C 3.022 8.298,2.518 8.177,2.150 8.051 C 1.961 7.986,1.773 7.933,1.732 7.933 C 1.660 7.933,1.658 7.941,1.679 8.158 C 1.732 8.717,1.987 9.427,2.306 9.903 C 2.747 10.564,3.336 11.012,4.225 11.365 C 4.376 11.425,4.500 11.487,4.500 11.502 C 4.500 11.542,4.290 11.564,3.659 11.594 C 3.305 11.610,3.086 11.634,3.061 11.659 C 2.970 11.750,3.429 12.498,3.830 12.912 C 4.432 13.532,4.994 13.832,5.933 14.033 C 6.126 14.074,6.296 14.119,6.311 14.133 C 6.345 14.165,6.026 14.394,5.600 14.642 C 5.029 14.976,4.382 15.230,3.583 15.433 C 2.970 15.590,2.648 15.630,1.755 15.660 L 1.061 15.683 1.488 15.916 C 2.809 16.636,4.432 17.119,5.817 17.205 C 6.590 17.253,7.829 17.217,8.330 17.131 C 10.223 16.807,11.697 16.190,13.083 15.138 C 13.488 14.831,14.524 13.804,14.876 13.361 C 15.912 12.056,16.633 10.520,16.980 8.877 C 17.114 8.242,17.168 7.768,17.189 7.029 L 17.210 6.342 17.296 6.291 C 17.576 6.125,19.025 4.613,18.963 4.552 C 18.956 4.545,18.747 4.598,18.500 4.670 C 17.932 4.835,17.155 5.033,17.077 5.033 C 17.040 5.033,17.175 4.883,17.439 4.633 C 17.925 4.173,18.096 3.959,18.307 3.545 C 18.485 3.198,18.520 3.100,18.466 3.100 C 18.444 3.100,18.243 3.181,18.018 3.281 C 17.520 3.501,16.882 3.733,16.497 3.833 L 16.211 3.907 15.947 3.694 C 15.449 3.293,14.906 3.004,14.433 2.891 C 14.177 2.830,13.201 2.795,12.833 2.834 " fill="#19191C" stroke="none" fill-rule="evenodd"></path></svg>