<svg xmlns="http://www.w3.org/2000/svg" width="20" height="20" fill="none"><path fill="#19191C" fill-rule="evenodd" d="M6.642 17.25c6.83 0 10.565-5.58 10.565-10.417 0-.159 0-.317-.01-.474a7.5 7.5 0 0 0 1.852-1.895 7.5 7.5 0 0 1-2.132.576 3.7 3.7 0 0 0 1.633-2.025 7.5 7.5 0 0 1-2.359.889 3.755 3.755 0 0 0-5.254-.159 3.63 3.63 0 0 0-1.074 3.499 10.6 10.6 0 0 1-7.654-3.826 3.63 3.63 0 0 0 1.15 4.887 3.7 3.7 0 0 1-1.686-.457v.046c.001 1.743 1.247 3.243 2.98 3.588a3.75 3.75 0 0 1-1.677.063 3.71 3.71 0 0 0 3.47 2.543 7.52 7.52 0 0 1-5.497 1.518 10.63 10.63 0 0 0 5.693 1.641" clip-rule="evenodd"/></svg>