<svg width="20" height="20" viewBox="0 0 20 20" fill="none" xmlns="http://www.w3.org/2000/svg"><path d="M12.683 2.848 C 11.742 3.063,10.889 3.649,10.371 4.435 C 10.136 4.792,9.992 5.122,9.877 5.564 C 9.807 5.835,9.795 5.964,9.792 6.417 C 9.791 6.710,9.801 7.016,9.815 7.097 L 9.841 7.243 9.512 7.219 C 9.083 7.188,8.349 7.063,7.840 6.935 C 5.738 6.404,3.965 5.343,2.476 3.724 L 2.207 3.431 2.137 3.544 C 1.958 3.833,1.746 4.593,1.712 5.070 C 1.675 5.579,1.806 6.232,2.052 6.758 C 2.291 7.271,2.633 7.713,3.098 8.110 C 3.198 8.195,3.269 8.275,3.256 8.288 C 3.196 8.348,2.391 8.159,1.942 7.979 C 1.828 7.933,1.719 7.905,1.700 7.916 C 1.649 7.948,1.660 8.139,1.734 8.505 C 2.017 9.894,2.875 10.877,4.231 11.366 C 4.397 11.426,4.533 11.486,4.533 11.500 C 4.533 11.541,4.281 11.566,3.642 11.589 C 2.939 11.614,2.964 11.596,3.137 11.943 C 3.313 12.295,3.600 12.699,3.850 12.947 C 4.472 13.562,5.034 13.854,5.950 14.035 C 6.152 14.075,6.329 14.119,6.344 14.133 C 6.371 14.157,5.957 14.437,5.514 14.693 C 4.802 15.105,3.619 15.495,2.750 15.605 C 2.567 15.628,2.105 15.648,1.725 15.648 C 1.345 15.649,1.033 15.653,1.033 15.656 C 1.033 15.659,1.167 15.738,1.331 15.832 C 2.297 16.385,3.487 16.825,4.617 17.048 C 5.411 17.204,5.568 17.217,6.717 17.216 C 7.685 17.215,7.871 17.206,8.274 17.141 C 10.308 16.816,12.013 16.064,13.400 14.882 C 13.752 14.582,14.551 13.768,14.822 13.433 C 16.343 11.552,17.198 9.172,17.200 6.817 L 17.200 6.350 17.325 6.267 C 17.647 6.055,19.065 4.572,18.976 4.542 C 18.957 4.536,18.698 4.606,18.401 4.698 C 17.925 4.845,17.178 5.033,17.071 5.033 C 16.989 5.033,17.045 4.969,17.321 4.748 C 17.628 4.501,17.940 4.161,18.124 3.874 C 18.257 3.666,18.500 3.172,18.500 3.110 C 18.500 3.061,18.533 3.048,17.913 3.329 C 17.504 3.515,16.814 3.758,16.444 3.848 L 16.205 3.906 15.991 3.724 C 15.529 3.332,14.993 3.039,14.483 2.897 C 14.258 2.835,14.113 2.822,13.550 2.813 C 13.070 2.805,12.827 2.815,12.683 2.848 " fill="#19191C" stroke="none" fill-rule="evenodd"></path></svg>