<svg width="20" height="20" fill="none" xmlns="http://www.w3.org/2000/svg"><path d="M12.717 2.833c-1.307.282-2.338 1.191-2.762 2.435a3.746 3.746 0 0 0-.143 1.724l.042.241h-.153c-.235 0-.938-.093-1.401-.185-2.21-.441-4.322-1.635-5.768-3.261l-.315-.354-.058.075c-.093.12-.315.717-.376 1.009a3.633 3.633 0 0 0 1.311 3.589l.244.194H3.22c-.309 0-1.054-.199-1.398-.373-.071-.036-.137-.056-.149-.045-.038.038.057.702.143.998a3.713 3.713 0 0 0 2.545 2.531l.279.079-.212.046c-.139.031-.419.047-.82.047-.393 0-.608.012-.608.035 0 .082.379.785.53.984.34.448.816.841 1.328 1.095.42.209.712.289 1.435.391.06.008.101.028.092.043-.039.062-.703.481-1.057.667a7.861 7.861 0 0 1-1.871.686c-.615.14-1.597.212-2.157.157a4.693 4.693 0 0 0-.324-.026c-.018.013.615.367.974.545 1.113.551 2.382.912 3.667 1.042.557.056 1.753.047 2.296-.017 2.058-.245 3.723-.913 5.287-2.119.411-.317 1.316-1.221 1.665-1.663a10.748 10.748 0 0 0 2.02-4.089c.21-.823.283-1.36.305-2.231l.019-.734.187-.138c.398-.293.998-.888 1.366-1.355.316-.402.316-.401-.01-.272a7.813 7.813 0 0 1-1.169.346c-.342.072-.616.114-.616.093 0-.007.082-.068.182-.135.463-.307.945-.87 1.2-1.402.239-.499.248-.485-.188-.267a7.58 7.58 0 0 1-1.719.629l-.241.059-.209-.19a3.804 3.804 0 0 0-1.552-.84c-.452-.12-1.277-.141-1.723-.044" fill="#19191C" fill-rule="evenodd"/></svg>