<svg width="20" height="20" viewBox="0 0 20 20" fill="none" xmlns="http://www.w3.org/2000/svg"><path d="M12.950 2.800 C 12.377 2.874,11.721 3.147,11.226 3.518 C 10.497 4.065,10.005 4.852,9.831 5.750 C 9.779 6.015,9.769 6.712,9.812 7.030 L 9.841 7.244 9.529 7.221 C 8.770 7.167,7.759 6.956,6.981 6.688 C 5.196 6.073,3.671 5.065,2.442 3.687 L 2.208 3.425 2.123 3.571 C 1.906 3.946,1.700 4.762,1.700 5.250 C 1.700 5.573,1.792 6.087,1.911 6.436 C 2.118 7.040,2.517 7.616,3.026 8.046 C 3.303 8.281,3.305 8.283,3.203 8.294 C 3.001 8.314,2.147 8.093,1.860 7.946 C 1.646 7.837,1.629 7.900,1.720 8.435 C 1.963 9.848,2.904 10.933,4.276 11.382 C 4.516 11.460,4.590 11.497,4.545 11.514 C 4.450 11.551,3.792 11.599,3.373 11.599 C 2.943 11.600,2.957 11.582,3.121 11.908 C 3.360 12.382,3.555 12.661,3.864 12.967 C 4.506 13.602,5.142 13.912,6.125 14.068 C 6.258 14.089,6.367 14.118,6.367 14.133 C 6.367 14.172,5.849 14.508,5.443 14.734 C 4.813 15.084,3.831 15.430,3.133 15.546 C 2.608 15.633,1.946 15.676,1.475 15.653 C 1.232 15.641,1.033 15.638,1.033 15.646 C 1.033 15.669,1.518 15.942,1.890 16.129 C 2.964 16.667,4.222 17.039,5.452 17.183 C 5.955 17.242,7.252 17.251,7.771 17.199 C 10.059 16.971,12.127 16.075,13.679 14.640 C 15.335 13.109,16.338 11.429,16.902 9.243 C 17.099 8.480,17.199 7.648,17.201 6.767 L 17.201 6.350 17.392 6.217 C 17.776 5.948,19.065 4.585,18.997 4.519 C 18.989 4.512,18.743 4.586,18.450 4.684 C 17.950 4.850,17.116 5.049,17.013 5.027 C 16.988 5.021,17.089 4.927,17.238 4.817 C 17.532 4.600,17.824 4.301,18.055 3.977 C 18.289 3.650,18.567 3.067,18.488 3.067 C 18.481 3.067,18.275 3.163,18.030 3.281 C 17.584 3.495,16.897 3.741,16.442 3.849 L 16.201 3.907 16.025 3.749 C 15.507 3.283,14.838 2.945,14.218 2.835 C 13.934 2.785,13.225 2.765,12.950 2.800 " fill="#19191C" stroke="none" fill-rule="evenodd"></path></svg>