<svg width="20" height="20" fill="none" xmlns="http://www.w3.org/2000/svg"><path d="M12.950 2.800 C 12.377 2.874,11.721 3.147,11.226 3.518 C 10.497 4.065,10.005 4.853,9.831 5.750 C 9.780 6.015,9.769 6.670,9.812 7.013 L 9.840 7.244 9.528 7.221 C 8.770 7.167,7.759 6.955,6.981 6.688 C 5.196 6.073,3.671 5.065,2.442 3.687 L 2.208 3.425 2.123 3.571 C 1.990 3.801,1.801 4.387,1.748 4.733 C 1.687 5.135,1.688 5.367,1.750 5.781 C 1.882 6.658,2.333 7.461,3.019 8.041 C 3.302 8.280,3.305 8.283,3.203 8.294 C 3.001 8.314,2.147 8.093,1.860 7.946 C 1.646 7.837,1.629 7.900,1.720 8.435 C 1.963 9.848,2.904 10.933,4.276 11.382 C 4.516 11.460,4.590 11.497,4.545 11.514 C 4.450 11.551,3.792 11.599,3.373 11.599 C 2.943 11.600,2.957 11.582,3.121 11.908 C 3.360 12.382,3.555 12.661,3.864 12.967 C 4.506 13.602,5.142 13.912,6.125 14.068 C 6.258 14.089,6.367 14.118,6.367 14.133 C 6.367 14.172,5.849 14.508,5.443 14.734 C 4.813 15.084,3.831 15.430,3.133 15.546 C 2.608 15.633,1.946 15.676,1.475 15.653 C 1.232 15.641,1.033 15.638,1.033 15.646 C 1.033 15.669,1.518 15.942,1.890 16.129 C 3.003 16.686,4.344 17.073,5.611 17.201 C 6.150 17.256,7.729 17.226,8.200 17.152 C 10.247 16.829,11.825 16.162,13.263 15.011 C 13.627 14.720,14.521 13.824,14.838 13.431 C 15.809 12.229,16.493 10.846,16.899 9.258 C 17.099 8.474,17.199 7.652,17.201 6.767 L 17.201 6.350 17.392 6.217 C 17.776 5.948,19.065 4.585,18.997 4.519 C 18.989 4.512,18.743 4.586,18.450 4.684 C 17.950 4.850,17.116 5.049,17.013 5.027 C 16.988 5.021,17.089 4.927,17.238 4.817 C 17.532 4.600,17.824 4.301,18.055 3.977 C 18.290 3.649,18.566 3.067,18.487 3.067 C 18.480 3.067,18.289 3.155,18.062 3.264 C 17.548 3.510,17.126 3.667,16.608 3.803 L 16.204 3.910 16.027 3.751 C 15.507 3.283,14.839 2.945,14.218 2.835 C 13.934 2.785,13.225 2.765,12.950 2.800 " fill="#19191C" stroke="none" fill-rule="evenodd"></path></svg>