<svg width="20" height="20" viewBox="0 0 20 20" fill="none" xmlns="http://www.w3.org/2000/svg"><path d="M12.500 2.900 C 12.184 2.984,11.654 3.242,11.346 3.461 C 10.647 3.957,10.199 4.565,9.932 5.384 C 9.824 5.712,9.823 5.727,9.808 6.475 L 9.794 7.233 9.655 7.233 C 9.441 7.233,8.631 7.108,8.150 7.001 C 6.768 6.693,5.595 6.189,4.417 5.396 C 3.853 5.018,3.583 4.791,2.823 4.061 C 2.105 3.370,2.174 3.386,2.000 3.864 C 1.792 4.433,1.760 4.587,1.742 5.122 C 1.724 5.675,1.752 5.908,1.885 6.322 C 2.077 6.916,2.322 7.298,2.906 7.918 C 3.223 8.254,3.243 8.284,3.166 8.293 C 3.084 8.303,2.428 8.142,1.943 7.994 C 1.810 7.954,1.691 7.931,1.678 7.944 C 1.633 7.989,1.735 8.569,1.849 8.916 C 2.064 9.573,2.302 9.971,2.748 10.421 C 3.111 10.787,3.495 11.044,4.043 11.288 C 4.266 11.387,4.462 11.482,4.478 11.498 C 4.518 11.538,4.339 11.560,3.652 11.601 C 3.287 11.623,3.078 11.649,3.062 11.674 C 3.014 11.752,3.282 12.250,3.557 12.594 C 4.186 13.380,4.810 13.764,5.867 14.017 C 6.077 14.067,6.262 14.120,6.277 14.133 C 6.313 14.165,6.087 14.346,5.766 14.543 C 4.998 15.015,3.818 15.436,2.846 15.584 C 2.665 15.611,2.212 15.644,1.840 15.656 C 1.468 15.668,1.157 15.689,1.148 15.703 C 1.127 15.738,1.794 16.090,2.300 16.310 C 3.432 16.803,4.610 17.106,5.767 17.202 C 6.343 17.250,7.646 17.223,8.167 17.152 C 9.869 16.921,11.537 16.259,12.900 15.274 C 13.316 14.973,14.678 13.632,14.990 13.217 C 15.826 12.100,16.408 10.946,16.779 9.663 C 17.048 8.738,17.159 8.017,17.190 7.012 L 17.210 6.342 17.313 6.281 C 17.444 6.205,18.446 5.204,18.746 4.851 C 18.870 4.704,18.955 4.580,18.936 4.573 C 18.917 4.567,18.627 4.637,18.292 4.730 C 17.694 4.895,17.146 5.033,17.087 5.033 C 17.070 5.033,17.261 4.824,17.511 4.569 C 17.761 4.314,18.034 3.999,18.117 3.869 C 18.295 3.595,18.518 3.140,18.489 3.111 C 18.478 3.100,18.226 3.193,17.928 3.317 C 17.377 3.547,16.688 3.790,16.377 3.864 L 16.204 3.906 15.977 3.725 C 15.636 3.452,15.364 3.279,15.024 3.115 C 14.536 2.881,14.423 2.861,13.533 2.846 C 12.829 2.834,12.725 2.840,12.500 2.900 " fill="#19191C" stroke="none" fill-rule="evenodd"></path></svg>
