<svg width="32" height="32" viewBox="0 0 32 32" fill="none" xmlns="http://www.w3.org/2000/svg"><path d="M1.959 3.267 C 2.729 4.256,12.587 17.179,12.587 17.199 C 12.587 17.215,10.319 19.819,7.547 22.987 C 4.775 26.154,2.507 28.758,2.507 28.773 C 2.507 28.788,3.474 28.800,4.656 28.800 L 6.806 28.800 10.696 24.351 C 12.836 21.904,14.611 19.907,14.640 19.914 C 14.669 19.921,16.217 21.922,18.080 24.360 L 21.467 28.793 25.827 28.797 C 28.225 28.799,30.187 28.788,30.187 28.773 C 30.187 28.758,27.689 25.444,24.637 21.409 C 21.584 17.375,19.094 14.052,19.103 14.027 C 19.113 14.001,21.181 11.625,23.700 8.746 C 26.219 5.867,28.339 3.442,28.412 3.356 L 28.543 3.200 26.365 3.203 L 24.187 3.207 20.720 7.179 C 18.813 9.363,17.205 11.197,17.145 11.254 C 17.037 11.357,17.031 11.350,13.952 7.278 L 10.867 3.200 6.387 3.200 C 2.811 3.200,1.917 3.213,1.959 3.267 M17.215 15.787 C 21.420 21.345,24.909 25.959,24.968 26.040 L 25.074 26.187 23.875 26.187 L 22.675 26.187 14.877 15.987 C 10.587 10.377,7.054 5.756,7.025 5.719 C 6.982 5.665,7.228 5.654,8.270 5.666 L 9.569 5.680 17.215 15.787 " stroke="none" fill-rule="evenodd"></path></svg>