<svg width="1200" height="1227" viewBox="0 0 1200 1227" fill="none" xmlns="http://www.w3.org/2000/svg"><path d="M0.000 1.067 C 0.000 2.839,21.751 34.841,197.742 292.000 C 439.315 644.987,466.644 685.931,463.299 689.844 C 461.814 691.580,403.965 759.150,334.746 840.000 C 26.061 1200.550,10.000 1219.509,10.000 1223.337 C 10.000 1225.483,19.695 1226.000,59.948 1226.000 L 109.897 1226.000 207.303 1112.500 C 375.131 916.944,503.022 770.225,512.408 762.477 C 517.300 758.440,517.487 758.700,704.053 1029.000 C 792.188 1156.692,829.238 1209.241,839.782 1221.511 L 843.659 1226.022 1019.991 1225.511 L 1196.323 1225.000 1093.075 1074.303 C 876.035 757.519,749.009 570.611,726.145 534.397 C 720.540 525.519,719.794 523.043,721.557 519.173 C 723.864 514.110,741.506 493.227,937.971 263.000 C 1086.254 89.235,1131.200 36.196,1143.838 20.064 L 1152.405 9.129 1146.702 7.571 C 1143.566 6.714,1121.200 5.505,1097.000 4.883 L 1053.000 3.754 921.000 158.050 C 685.069 433.832,669.033 451.966,664.913 447.650 C 660.100 442.609,452.018 140.794,387.000 44.547 L 357.000 0.138 178.500 0.069 C 80.325 0.031,0.000 0.480,0.000 1.067 M375.000 181.473 C 412.400 235.010,495.556 354.005,559.791 445.906 C 694.374 638.456,934.398 982.453,974.762 1040.633 C 1023.746 1111.239,1048.172 1148.628,1046.444 1150.356 C 1045.513 1151.287,1010.194 1151.812,967.956 1151.524 L 891.160 1151.000 655.486 814.000 C 205.924 171.151,155.854 99.280,150.761 89.500 L 147.897 84.000 227.449 84.067 L 307.000 84.134 375.000 181.473 " fill="white" stroke="none" fill-rule="evenodd"></path></svg>