<svg width="20" height="20" fill="none" xmlns="http://www.w3.org/2000/svg"><path d="M7.215 4.069c-2.096.04-3.347.116-3.808.234a2.394 2.394 0 0 0-.844.422c-.654.531-.97 1.788-1.064 4.226-.065 1.7.082 4.142.3 4.995.084.329.219.665.351.871.248.39.729.714 1.254.847 1.262.319 7.281.397 11.746.152 1.282-.07 1.495-.103 1.867-.291.616-.311.888-.717 1.134-1.692.39-1.542.475-4.347.196-6.516-.129-1.006-.377-1.924-.61-2.257-.235-.337-.7-.636-1.178-.757-.484-.124-1.578-.187-4.042-.236a128.418 128.418 0 0 0-5.302.002m2.352 3.986c.266.138 1.109.591 1.875 1.007 1.224.664 1.385.76 1.333.798-.12.089-1.553.841-3.817 2.001l-.658.338V7.436l.392.184c.215.101.609.297.875.435" fill="#19191C" fill-rule="evenodd"/></svg>