<svg xmlns="http://www.w3.org/2000/svg" width="20" height="20" fill="none"><path fill="#19191C" fill-rule="evenodd" d="M8.286 12.202v-4.78c1.697.798 3.01 1.57 4.564 2.4-1.281.711-2.867 1.509-4.564 2.378m9.454-7.155c-.292-.386-.791-.686-1.322-.785-1.56-.297-11.297-.298-12.857 0a2.26 2.26 0 0 0-1.13.572c-1.373 1.274-.943 8.105-.612 9.211.14.479.319.824.546 1.051.291.3.69.506 1.15.599 1.285.265 7.904.414 12.876.04a2.23 2.23 0 0 0 1.183-.606c1.269-1.268 1.182-8.483.166-10.082" clip-rule="evenodd"/></svg>