<svg width="20" height="20" viewBox="0 0 20 20" fill="none" xmlns="http://www.w3.org/2000/svg"><path d="M6.583 4.102 C 4.750 4.140,3.719 4.222,3.267 4.364 C 2.769 4.520,2.320 4.905,2.093 5.371 C 1.864 5.840,1.691 6.609,1.584 7.633 C 1.384 9.562,1.481 12.487,1.790 13.817 C 1.946 14.486,2.104 14.804,2.439 15.120 C 2.963 15.615,3.423 15.742,5.150 15.868 C 6.439 15.962,12.517 15.962,14.350 15.869 C 16.669 15.750,16.998 15.673,17.522 15.125 C 17.756 14.880,17.861 14.708,17.982 14.367 C 18.297 13.484,18.457 12.307,18.489 10.650 C 18.537 8.176,18.284 6.133,17.822 5.250 C 17.527 4.689,16.937 4.352,16.050 4.237 C 14.992 4.099,10.049 4.029,6.583 4.102 M10.950 8.800 C 12.043 9.391,12.716 9.784,12.726 9.838 C 12.732 9.869,12.636 9.942,12.460 10.040 C 12.159 10.207,9.197 11.751,8.642 12.029 L 8.300 12.201 8.300 9.815 L 8.300 7.429 9.275 7.925 C 9.811 8.198,10.565 8.592,10.950 8.800 " fill="#19191C" stroke="none" fill-rule="evenodd"></path></svg>