<svg width="20" height="20" viewBox="0 0 20 20" fill="none" xmlns="http://www.w3.org/2000/svg"><path d="M6.850 4.102 C 4.298 4.150,3.485 4.235,2.950 4.511 C 2.449 4.770,2.119 5.191,1.920 5.828 C 1.623 6.776,1.487 8.067,1.488 9.950 C 1.488 11.240,1.524 11.949,1.635 12.863 C 1.810 14.301,2.061 14.880,2.708 15.334 C 3.220 15.694,4.025 15.832,6.017 15.903 C 7.261 15.948,13.635 15.923,14.483 15.870 C 16.708 15.732,17.042 15.648,17.538 15.105 C 17.751 14.872,17.832 14.743,17.946 14.457 C 18.300 13.568,18.498 12.012,18.499 10.100 C 18.501 7.967,18.254 6.160,17.845 5.306 C 17.563 4.716,16.918 4.342,15.998 4.237 C 14.843 4.104,10.301 4.037,6.850 4.102 M10.858 8.755 C 12.127 9.434,12.752 9.809,12.716 9.868 C 12.675 9.935,11.386 10.622,9.158 11.765 L 8.300 12.206 8.300 9.817 L 8.300 7.428 9.225 7.902 C 9.734 8.162,10.468 8.546,10.858 8.755 " fill="#19191C" stroke="none" fill-rule="evenodd"></path></svg>
