<svg width="20" height="20" viewBox="0 0 20 20" fill="none" xmlns="http://www.w3.org/2000/svg"><path d="M6.133 4.103 C 5.207 4.135,4.242 4.192,3.867 4.236 C 2.963 4.344,2.405 4.709,2.069 5.411 C 1.528 6.545,1.329 9.601,1.602 12.600 C 1.680 13.457,1.834 14.166,2.035 14.586 C 2.313 15.170,2.884 15.566,3.658 15.713 C 4.017 15.781,4.877 15.854,5.950 15.906 C 7.063 15.960,11.881 15.960,13.267 15.906 C 16.226 15.790,16.628 15.743,17.133 15.457 C 17.368 15.324,17.658 15.034,17.791 14.800 C 18.230 14.024,18.500 12.305,18.499 10.300 C 18.499 8.166,18.334 6.656,17.993 5.651 C 17.699 4.785,17.153 4.380,16.083 4.235 C 15.697 4.182,14.757 4.136,13.367 4.100 C 11.870 4.062,7.262 4.064,6.133 4.103 M9.683 8.126 C 11.334 8.992,12.658 9.725,12.732 9.815 C 12.772 9.863,12.748 9.881,12.367 10.091 C 12.144 10.214,8.961 11.869,8.575 12.063 L 8.300 12.201 8.300 9.819 L 8.300 7.438 8.658 7.607 C 8.855 7.700,9.317 7.933,9.683 8.126 " fill="#19191C" stroke="none" fill-rule="evenodd"></path></svg>