<svg width="20" height="20" viewBox="0 0 20 20" fill="none" xmlns="http://www.w3.org/2000/svg"><path d="M8.133 4.054 C 6.205 4.082,4.495 4.155,3.817 4.237 C 2.886 4.349,2.308 4.775,1.997 5.579 C 1.609 6.583,1.419 8.582,1.499 10.799 C 1.577 12.940,1.714 13.910,2.033 14.591 C 2.315 15.193,2.928 15.603,3.733 15.729 C 5.386 15.988,10.760 16.038,14.883 15.833 C 16.325 15.761,16.606 15.719,17.027 15.514 C 17.398 15.332,17.670 15.058,17.851 14.686 C 18.166 14.033,18.368 13.003,18.470 11.519 C 18.521 10.774,18.491 8.630,18.419 7.941 C 18.243 6.238,17.966 5.250,17.555 4.857 C 17.073 4.396,16.605 4.248,15.383 4.168 C 14.167 4.089,10.081 4.025,8.133 4.054 M10.067 8.324 C 12.173 9.449,12.776 9.789,12.758 9.844 C 12.751 9.866,12.641 9.941,12.514 10.011 C 12.269 10.146,10.238 11.205,9.025 11.830 L 8.300 12.203 8.300 9.820 L 8.300 7.436 8.758 7.653 C 9.010 7.772,9.599 8.074,10.067 8.324 " fill="#19191C" stroke="none" fill-rule="evenodd"></path></svg>