<svg width="568" height="326" viewBox="0 0 568 326" fill="none" xmlns="http://www.w3.org/2000/svg">
<g clip-path="url(#clip0_387_2250)">
<path d="M0 0H568V326H0V0Z" fill="#19191C"/>
<rect x="26" y="26" width="16" height="16" rx="4" fill="white"/>
<circle cx="34" cy="34" r="4" fill="black"/>
<path d="M53.696 38H52.2983L55.4389 29.2727H56.9602L60.1009 38H58.7031L56.2358 30.858H56.1676L53.696 38ZM53.9304 34.5824H58.4645V35.6903H53.9304V34.5824ZM63.8565 38.1321C63.223 38.1321 62.6775 37.9886 62.2201 37.7017C61.7656 37.4119 61.4162 37.0128 61.1719 36.5043C60.9275 35.9957 60.8054 35.4134 60.8054 34.7571C60.8054 34.0923 60.9304 33.5057 61.1804 32.9972C61.4304 32.4858 61.7826 32.0866 62.2372 31.7997C62.6917 31.5128 63.2273 31.3693 63.8437 31.3693C64.3409 31.3693 64.7841 31.4616 65.1733 31.6463C65.5625 31.8281 65.8764 32.0838 66.115 32.4134C66.3565 32.7429 66.5 33.1278 66.5454 33.5682H65.3054C65.2372 33.2614 65.0809 32.9972 64.8366 32.7756C64.5951 32.554 64.2713 32.4432 63.865 32.4432C63.5099 32.4432 63.1988 32.5369 62.9318 32.7244C62.6676 32.9091 62.4616 33.1733 62.3139 33.517C62.1662 33.858 62.0923 34.2614 62.0923 34.7273C62.0923 35.2045 62.1648 35.6165 62.3096 35.9631C62.4545 36.3097 62.6591 36.5781 62.9233 36.7685C63.1903 36.9588 63.5042 37.054 63.865 37.054C64.1065 37.054 64.3253 37.0099 64.5213 36.9219C64.7201 36.831 64.8863 36.7017 65.0199 36.5341C65.1562 36.3665 65.2514 36.1648 65.3054 35.929H66.5454C66.5 36.3523 66.3622 36.7301 66.1321 37.0625C65.902 37.3949 65.5937 37.6562 65.2074 37.8466C64.8238 38.0369 64.3736 38.1321 63.8565 38.1321ZM67.854 38V31.4545H69.077V32.5199H69.158C69.2943 32.1591 69.5174 31.8778 69.827 31.6761C70.1367 31.4716 70.5074 31.3693 70.9392 31.3693C71.3767 31.3693 71.7432 31.4716 72.0387 31.6761C72.337 31.8807 72.5571 32.1619 72.6992 32.5199H72.7674C72.9236 32.1705 73.1722 31.892 73.5131 31.6847C73.854 31.4744 74.2603 31.3693 74.7318 31.3693C75.3256 31.3693 75.81 31.5554 76.185 31.9276C76.5628 32.2997 76.7517 32.8608 76.7517 33.6108V38H75.4776V33.7301C75.4776 33.2869 75.3568 32.9659 75.1154 32.767C74.8739 32.5682 74.5855 32.4688 74.2503 32.4688C73.8355 32.4688 73.5131 32.5966 73.283 32.8523C73.0529 33.1051 72.9378 33.4304 72.9378 33.8281V38H71.6679V33.6491C71.6679 33.294 71.5571 33.0085 71.3355 32.7926C71.1139 32.5767 70.8256 32.4688 70.4705 32.4688C70.229 32.4688 70.006 32.5327 69.8014 32.6605C69.5997 32.7855 69.4364 32.9602 69.3114 33.1847C69.1892 33.4091 69.1282 33.669 69.1282 33.9645V38H67.854ZM81.2265 38.1321C80.5816 38.1321 80.0262 37.9943 79.5603 37.7188C79.0972 37.4403 78.7393 37.0497 78.4864 36.5469C78.2364 36.0412 78.1114 35.4489 78.1114 34.7699C78.1114 34.0994 78.2364 33.5085 78.4864 32.9972C78.7393 32.4858 79.0916 32.0866 79.5433 31.7997C79.9978 31.5128 80.5291 31.3693 81.137 31.3693C81.5063 31.3693 81.8643 31.4304 82.2109 31.5526C82.5575 31.6747 82.8685 31.8665 83.1441 32.1278C83.4197 32.3892 83.637 32.7287 83.7961 33.1463C83.9552 33.5611 84.0347 34.0653 84.0347 34.6591V35.1108H78.8316V34.1562H82.7862C82.7862 33.821 82.718 33.5241 82.5816 33.2656C82.4452 33.0043 82.2535 32.7983 82.0063 32.6477C81.762 32.4972 81.4751 32.4219 81.1455 32.4219C80.7876 32.4219 80.4751 32.5099 80.208 32.6861C79.9438 32.8594 79.7393 33.0866 79.5944 33.3679C79.4523 33.6463 79.3813 33.9489 79.3813 34.2756V35.0213C79.3813 35.4588 79.458 35.831 79.6114 36.1378C79.7677 36.4446 79.985 36.679 80.2634 36.8409C80.5418 37 80.8671 37.0795 81.2393 37.0795C81.4808 37.0795 81.7009 37.0455 81.8998 36.9773C82.0987 36.9062 82.2705 36.8011 82.4154 36.6619C82.5603 36.5227 82.6711 36.3509 82.7478 36.1463L83.9538 36.3636C83.8572 36.7187 83.6839 37.0298 83.4339 37.2969C83.1867 37.5611 82.8756 37.767 82.5006 37.9148C82.1285 38.0597 81.7038 38.1321 81.2265 38.1321ZM86.2339 38.081C86.001 38.081 85.8007 37.9986 85.6331 37.8338C85.4655 37.6662 85.3817 37.4645 85.3817 37.2287C85.3817 36.9957 85.4655 36.7969 85.6331 36.6321C85.8007 36.4645 86.001 36.3807 86.2339 36.3807C86.4669 36.3807 86.6672 36.4645 86.8348 36.6321C87.0024 36.7969 87.0862 36.9957 87.0862 37.2287C87.0862 37.3849 87.0464 37.5284 86.9669 37.6591C86.8902 37.7869 86.7879 37.8892 86.6601 37.9659C86.5322 38.0426 86.3902 38.081 86.2339 38.081ZM90.1579 29.2727V38H88.8412V29.2727H90.1579ZM93.1934 34.1136V38H91.9193V31.4545H93.1423V32.5199H93.2232C93.3738 32.1733 93.6096 31.8949 93.9306 31.6847C94.2545 31.4744 94.6621 31.3693 95.1536 31.3693C95.5996 31.3693 95.9903 31.4631 96.3255 31.6506C96.6607 31.8352 96.9207 32.1108 97.1053 32.4773C97.29 32.8437 97.3823 33.2969 97.3823 33.8366V38H96.1082V33.9901C96.1082 33.5156 95.9846 33.1449 95.7374 32.8778C95.4903 32.608 95.1508 32.473 94.719 32.473C94.4235 32.473 94.1607 32.5369 93.9306 32.6648C93.7033 32.7926 93.5229 32.9801 93.3894 33.2273C93.2587 33.4716 93.1934 33.767 93.1934 34.1136ZM101.794 38.1321C101.161 38.1321 100.615 37.9886 100.158 37.7017C99.7033 37.4119 99.3539 37.0128 99.1096 36.5043C98.8653 35.9957 98.7431 35.4134 98.7431 34.7571C98.7431 34.0923 98.8681 33.5057 99.1181 32.9972C99.3681 32.4858 99.7204 32.0866 100.175 31.7997C100.629 31.5128 101.165 31.3693 101.781 31.3693C102.279 31.3693 102.722 31.4616 103.111 31.6463C103.5 31.8281 103.814 32.0838 104.053 32.4134C104.294 32.7429 104.438 33.1278 104.483 33.5682H103.243C103.175 33.2614 103.019 32.9972 102.774 32.7756C102.533 32.554 102.209 32.4432 101.803 32.4432C101.448 32.4432 101.137 32.5369 100.87 32.7244C100.605 32.9091 100.399 33.1733 100.252 33.517C100.104 33.858 100.03 34.2614 100.03 34.7273C100.03 35.2045 100.102 35.6165 100.247 35.9631C100.392 36.3097 100.597 36.5781 100.861 36.7685C101.128 36.9588 101.442 37.054 101.803 37.054C102.044 37.054 102.263 37.0099 102.459 36.9219C102.658 36.831 102.824 36.7017 102.958 36.5341C103.094 36.3665 103.189 36.1648 103.243 35.929H104.483C104.438 36.3523 104.3 36.7301 104.07 37.0625C103.84 37.3949 103.531 37.6562 103.145 37.8466C102.762 38.0369 102.311 38.1321 101.794 38.1321Z" fill="#E4E4E7"/>
<path d="M24 0L24 326" stroke="white" stroke-opacity="0.06"/>
<path d="M544 0L544 326" stroke="white" stroke-opacity="0.06"/>
<path d="M284 0L284 326" stroke="white" stroke-opacity="0.06"/>
<path d="M0 92L568 92" stroke="white" stroke-opacity="0.06"/>
<path d="M0 180L284 180" stroke="white" stroke-opacity="0.06"/>
<path d="M0 234L568 234" stroke="white" stroke-opacity="0.06"/>
<path d="M0 164L284 164" stroke="white" stroke-opacity="0.06"/>
<path opacity="0.48" d="M25.4091 101.75V98.7273H43.4205V101.75H36.1591V122H32.6591V101.75H25.4091ZM50.0776 111.636V122H46.6798V98.7273H50.0321V107.386H50.248C50.6571 106.447 51.2821 105.701 52.123 105.148C52.9639 104.595 54.0624 104.318 55.4185 104.318C56.6154 104.318 57.6609 104.564 58.5548 105.057C59.4564 105.549 60.1533 106.284 60.6458 107.261C61.1458 108.231 61.3958 109.443 61.3958 110.898V122H57.998V111.307C57.998 110.027 57.6685 109.034 57.0094 108.33C56.3503 107.617 55.4336 107.261 54.2594 107.261C53.4564 107.261 52.7367 107.432 52.1003 107.773C51.4715 108.114 50.9753 108.614 50.6117 109.273C50.2556 109.924 50.0776 110.712 50.0776 111.636ZM65.4818 122V104.545H68.8796V122H65.4818ZM67.1978 101.852C66.6068 101.852 66.0993 101.655 65.675 101.261C65.2584 100.86 65.05 100.383 65.05 99.8295C65.05 99.2689 65.2584 98.7917 65.675 98.3977C66.0993 97.9962 66.6068 97.7955 67.1978 97.7955C67.7887 97.7955 68.2924 97.9962 68.7091 98.3977C69.1334 98.7917 69.3455 99.2689 69.3455 99.8295C69.3455 100.383 69.1334 100.86 68.7091 101.261C68.2924 101.655 67.7887 101.852 67.1978 101.852ZM86.0821 108.807L83.0026 109.352C82.8738 108.958 82.6693 108.583 82.389 108.227C82.1162 107.871 81.745 107.58 81.2753 107.352C80.8056 107.125 80.2185 107.011 79.514 107.011C78.5518 107.011 77.7488 107.227 77.1049 107.659C76.4609 108.083 76.139 108.633 76.139 109.307C76.139 109.89 76.3549 110.36 76.7867 110.716C77.2185 111.072 77.9155 111.364 78.8776 111.591L81.6503 112.227C83.2564 112.598 84.4533 113.17 85.2412 113.943C86.0291 114.716 86.423 115.72 86.423 116.955C86.423 118 86.12 118.932 85.514 119.75C84.9155 120.561 84.0783 121.197 83.0026 121.659C81.9344 122.121 80.6958 122.352 79.2867 122.352C77.3321 122.352 75.7374 121.936 74.5026 121.102C73.2677 120.261 72.5102 119.068 72.2299 117.523L75.514 117.023C75.7185 117.879 76.139 118.527 76.7753 118.966C77.4117 119.398 78.2412 119.614 79.264 119.614C80.3776 119.614 81.2677 119.383 81.9344 118.92C82.6011 118.451 82.9344 117.879 82.9344 117.205C82.9344 116.659 82.7299 116.201 82.3208 115.83C81.9193 115.458 81.3018 115.178 80.4685 114.989L77.514 114.341C75.8852 113.97 74.6806 113.379 73.9003 112.568C73.1276 111.758 72.7412 110.731 72.7412 109.489C72.7412 108.458 73.0291 107.557 73.6049 106.784C74.1806 106.011 74.9761 105.409 75.9912 104.977C77.0064 104.538 78.1693 104.318 79.4799 104.318C81.3662 104.318 82.8511 104.727 83.9344 105.545C85.0177 106.356 85.7337 107.443 86.0821 108.807ZM97.7316 122V104.545H101.129V122H97.7316ZM99.4475 101.852C98.8566 101.852 98.349 101.655 97.9248 101.261C97.5081 100.86 97.2998 100.383 97.2998 99.8295C97.2998 99.2689 97.5081 98.7917 97.9248 98.3977C98.349 97.9962 98.8566 97.7955 99.4475 97.7955C100.038 97.7955 100.542 97.9962 100.959 98.3977C101.383 98.7917 101.595 99.2689 101.595 99.8295C101.595 100.383 101.383 100.86 100.959 101.261C100.542 101.655 100.038 101.852 99.4475 101.852ZM118.332 108.807L115.252 109.352C115.124 108.958 114.919 108.583 114.639 108.227C114.366 107.871 113.995 107.58 113.525 107.352C113.055 107.125 112.468 107.011 111.764 107.011C110.802 107.011 109.999 107.227 109.355 107.659C108.711 108.083 108.389 108.633 108.389 109.307C108.389 109.89 108.605 110.36 109.036 110.716C109.468 111.072 110.165 111.364 111.127 111.591L113.9 112.227C115.506 112.598 116.703 113.17 117.491 113.943C118.279 114.716 118.673 115.72 118.673 116.955C118.673 118 118.37 118.932 117.764 119.75C117.165 120.561 116.328 121.197 115.252 121.659C114.184 122.121 112.946 122.352 111.536 122.352C109.582 122.352 107.987 121.936 106.752 121.102C105.517 120.261 104.76 119.068 104.48 117.523L107.764 117.023C107.968 117.879 108.389 118.527 109.025 118.966C109.661 119.398 110.491 119.614 111.514 119.614C112.627 119.614 113.517 119.383 114.184 118.92C114.851 118.451 115.184 117.879 115.184 117.205C115.184 116.659 114.98 116.201 114.571 115.83C114.169 115.458 113.552 115.178 112.718 114.989L109.764 114.341C108.135 113.97 106.93 113.379 106.15 112.568C105.377 111.758 104.991 110.731 104.991 109.489C104.991 108.458 105.279 107.557 105.855 106.784C106.43 106.011 107.226 105.409 108.241 104.977C109.256 104.538 110.419 104.318 111.73 104.318C113.616 104.318 115.101 104.727 116.184 105.545C117.267 106.356 117.983 107.443 118.332 108.807ZM129.981 122V104.545H133.243V107.386H133.459C133.822 106.424 134.417 105.674 135.243 105.136C136.068 104.591 137.057 104.318 138.209 104.318C139.375 104.318 140.353 104.591 141.14 105.136C141.936 105.682 142.523 106.432 142.902 107.386H143.084C143.5 106.455 144.163 105.712 145.072 105.159C145.981 104.598 147.065 104.318 148.322 104.318C149.906 104.318 151.197 104.814 152.197 105.807C153.205 106.799 153.709 108.295 153.709 110.295V122H150.311V110.614C150.311 109.432 149.989 108.576 149.345 108.045C148.701 107.515 147.932 107.25 147.038 107.25C145.932 107.25 145.072 107.591 144.459 108.273C143.845 108.947 143.538 109.814 143.538 110.875V122H140.152V110.398C140.152 109.451 139.856 108.689 139.265 108.114C138.675 107.538 137.906 107.25 136.959 107.25C136.315 107.25 135.72 107.42 135.175 107.761C134.637 108.095 134.201 108.561 133.868 109.159C133.542 109.758 133.379 110.451 133.379 111.239V122H129.981ZM159.337 128.545C158.83 128.545 158.368 128.504 157.951 128.42C157.534 128.345 157.224 128.261 157.019 128.17L157.837 125.386C158.459 125.553 159.012 125.625 159.496 125.602C159.981 125.58 160.409 125.398 160.781 125.057C161.159 124.716 161.493 124.159 161.781 123.386L162.201 122.227L155.815 104.545H159.451L163.871 118.091H164.053L168.474 104.545H172.121L164.928 124.33C164.595 125.239 164.171 126.008 163.656 126.636C163.14 127.273 162.527 127.75 161.815 128.068C161.102 128.386 160.277 128.545 159.337 128.545ZM30.0682 158L24.9318 140.545H28.4432L31.8636 153.364H32.0341L35.4659 140.545H38.9773L42.3864 153.307H42.5568L45.9545 140.545H49.4659L44.3409 158H40.875L37.3295 145.398H37.0682L33.5227 158H30.0682ZM59.2338 158.352C57.5141 158.352 56.0331 157.985 54.7906 157.25C53.5558 156.508 52.6012 155.466 51.927 154.125C51.2603 152.777 50.927 151.197 50.927 149.386C50.927 147.598 51.2603 146.023 51.927 144.659C52.6012 143.295 53.5406 142.231 54.7452 141.466C55.9573 140.701 57.374 140.318 58.9952 140.318C59.98 140.318 60.9346 140.481 61.8588 140.807C62.7831 141.133 63.6126 141.644 64.3475 142.341C65.0823 143.038 65.6618 143.943 66.0861 145.057C66.5103 146.163 66.7225 147.508 66.7225 149.091V150.295H52.8475V147.75H63.3929C63.3929 146.856 63.2111 146.064 62.8475 145.375C62.4838 144.678 61.9725 144.129 61.3134 143.727C60.6618 143.326 59.8967 143.125 59.0179 143.125C58.0634 143.125 57.23 143.36 56.5179 143.83C55.8134 144.292 55.2679 144.898 54.8815 145.648C54.5028 146.39 54.3134 147.197 54.3134 148.068V150.057C54.3134 151.223 54.5179 152.216 54.927 153.034C55.3437 153.852 55.9232 154.477 56.6656 154.909C57.4081 155.333 58.2755 155.545 59.2679 155.545C59.9118 155.545 60.499 155.455 61.0293 155.273C61.5596 155.083 62.0179 154.803 62.4043 154.432C62.7906 154.061 63.0861 153.602 63.2906 153.057L66.5065 153.636C66.249 154.583 65.7868 155.413 65.1202 156.125C64.4611 156.83 63.6315 157.379 62.6315 157.773C61.6391 158.159 60.5065 158.352 59.2338 158.352ZM70.3171 158V134.727H73.7148V143.375H73.9193C74.1163 143.011 74.4004 142.591 74.7716 142.114C75.1428 141.636 75.658 141.22 76.3171 140.864C76.9762 140.5 77.8474 140.318 78.9307 140.318C80.3398 140.318 81.5974 140.674 82.7034 141.386C83.8095 142.098 84.6769 143.125 85.3057 144.466C85.9421 145.807 86.2603 147.42 86.2603 149.307C86.2603 151.193 85.9459 152.811 85.3171 154.159C84.6883 155.5 83.8246 156.534 82.7262 157.261C81.6277 157.981 80.3739 158.341 78.9648 158.341C77.9042 158.341 77.0368 158.163 76.3625 157.807C75.6959 157.451 75.1731 157.034 74.7943 156.557C74.4156 156.08 74.1239 155.655 73.9193 155.284H73.6353V158H70.3171ZM73.6466 149.273C73.6466 150.5 73.8246 151.576 74.1807 152.5C74.5368 153.424 75.0519 154.148 75.7262 154.67C76.4004 155.186 77.2262 155.443 78.2034 155.443C79.2186 155.443 80.0671 155.174 80.7489 154.636C81.4307 154.091 81.9459 153.352 82.2943 152.42C82.6504 151.489 82.8284 150.439 82.8284 149.273C82.8284 148.121 82.6542 147.087 82.3057 146.17C81.9648 145.254 81.4496 144.53 80.7603 144C80.0784 143.47 79.2262 143.205 78.2034 143.205C77.2186 143.205 76.3853 143.458 75.7034 143.966C75.0292 144.473 74.5178 145.182 74.1693 146.091C73.8209 147 73.6466 148.061 73.6466 149.273ZM102.707 144.807L99.6276 145.352C99.4988 144.958 99.2943 144.583 99.014 144.227C98.7412 143.871 98.37 143.58 97.9003 143.352C97.4306 143.125 96.8435 143.011 96.139 143.011C95.1768 143.011 94.3738 143.227 93.7299 143.659C93.0859 144.083 92.764 144.633 92.764 145.307C92.764 145.89 92.9799 146.36 93.4117 146.716C93.8435 147.072 94.5405 147.364 95.5026 147.591L98.2753 148.227C99.8814 148.598 101.078 149.17 101.866 149.943C102.654 150.716 103.048 151.72 103.048 152.955C103.048 154 102.745 154.932 102.139 155.75C101.54 156.561 100.703 157.197 99.6276 157.659C98.5594 158.121 97.3208 158.352 95.9117 158.352C93.9571 158.352 92.3624 157.936 91.1276 157.102C89.8927 156.261 89.1352 155.068 88.8549 153.523L92.139 153.023C92.3435 153.879 92.764 154.527 93.4003 154.966C94.0367 155.398 94.8662 155.614 95.889 155.614C97.0026 155.614 97.8927 155.383 98.5594 154.92C99.2261 154.451 99.5594 153.879 99.5594 153.205C99.5594 152.659 99.3549 152.201 98.9458 151.83C98.5443 151.458 97.9268 151.178 97.0935 150.989L94.139 150.341C92.5102 149.97 91.3056 149.379 90.5253 148.568C89.7526 147.758 89.3662 146.731 89.3662 145.489C89.3662 144.458 89.6541 143.557 90.2299 142.784C90.8056 142.011 91.6011 141.409 92.6162 140.977C93.6314 140.538 94.7943 140.318 96.1049 140.318C97.9912 140.318 99.4761 140.727 100.559 141.545C101.643 142.356 102.359 143.443 102.707 144.807ZM106.336 158V140.545H109.734V158H106.336ZM108.052 137.852C107.461 137.852 106.953 137.655 106.529 137.261C106.112 136.86 105.904 136.383 105.904 135.83C105.904 135.269 106.112 134.792 106.529 134.398C106.953 133.996 107.461 133.795 108.052 133.795C108.643 133.795 109.146 133.996 109.563 134.398C109.987 134.792 110.199 135.269 110.199 135.83C110.199 136.383 109.987 136.86 109.563 137.261C109.146 137.655 108.643 137.852 108.052 137.852ZM122.004 140.545V143.273H112.47V140.545H122.004ZM115.027 136.364H118.425V152.875C118.425 153.534 118.523 154.03 118.72 154.364C118.917 154.689 119.171 154.913 119.482 155.034C119.8 155.148 120.144 155.205 120.516 155.205C120.788 155.205 121.027 155.186 121.232 155.148C121.436 155.11 121.595 155.08 121.709 155.057L122.323 157.864C122.126 157.939 121.845 158.015 121.482 158.091C121.118 158.174 120.663 158.22 120.118 158.227C119.224 158.242 118.391 158.083 117.618 157.75C116.845 157.417 116.22 156.902 115.743 156.205C115.266 155.508 115.027 154.633 115.027 153.58V136.364ZM132.65 158.352C130.93 158.352 129.449 157.985 128.207 157.25C126.972 156.508 126.017 155.466 125.343 154.125C124.677 152.777 124.343 151.197 124.343 149.386C124.343 147.598 124.677 146.023 125.343 144.659C126.017 143.295 126.957 142.231 128.161 141.466C129.374 140.701 130.79 140.318 132.411 140.318C133.396 140.318 134.351 140.481 135.275 140.807C136.199 141.133 137.029 141.644 137.764 142.341C138.499 143.038 139.078 143.943 139.502 145.057C139.927 146.163 140.139 147.508 140.139 149.091V150.295H126.264V147.75H136.809C136.809 146.856 136.627 146.064 136.264 145.375C135.9 144.678 135.389 144.129 134.73 143.727C134.078 143.326 133.313 143.125 132.434 143.125C131.48 143.125 130.646 143.36 129.934 143.83C129.23 144.292 128.684 144.898 128.298 145.648C127.919 146.39 127.73 147.197 127.73 148.068V150.057C127.73 151.223 127.934 152.216 128.343 153.034C128.76 153.852 129.339 154.477 130.082 154.909C130.824 155.333 131.692 155.545 132.684 155.545C133.328 155.545 133.915 155.455 134.446 155.273C134.976 155.083 135.434 154.803 135.821 154.432C136.207 154.061 136.502 153.602 136.707 153.057L139.923 153.636C139.665 154.583 139.203 155.413 138.536 156.125C137.877 156.83 137.048 157.379 136.048 157.773C135.055 158.159 133.923 158.352 132.65 158.352ZM159.629 140.545V143.273H150.095V140.545H159.629ZM152.652 136.364H156.05V152.875C156.05 153.534 156.148 154.03 156.345 154.364C156.542 154.689 156.796 154.913 157.106 155.034C157.425 155.148 157.769 155.205 158.14 155.205C158.413 155.205 158.652 155.186 158.856 155.148C159.061 155.11 159.22 155.08 159.334 155.057L159.947 157.864C159.75 157.939 159.47 158.015 159.106 158.091C158.743 158.174 158.288 158.22 157.743 158.227C156.849 158.242 156.015 158.083 155.243 157.75C154.47 157.417 153.845 156.902 153.368 156.205C152.89 155.508 152.652 154.633 152.652 153.58V136.364ZM162.94 158V140.545H166.337V158H162.94ZM164.656 137.852C164.065 137.852 163.557 137.655 163.133 137.261C162.716 136.86 162.508 136.383 162.508 135.83C162.508 135.269 162.716 134.792 163.133 134.398C163.557 133.996 164.065 133.795 164.656 133.795C165.246 133.795 165.75 133.996 166.167 134.398C166.591 134.792 166.803 135.269 166.803 135.83C166.803 136.383 166.591 136.86 166.167 137.261C165.75 137.655 165.246 137.852 164.656 137.852ZM178.608 140.545V143.273H169.074V140.545H178.608ZM171.631 136.364H175.029V152.875C175.029 153.534 175.127 154.03 175.324 154.364C175.521 154.689 175.775 154.913 176.085 155.034C176.404 155.148 176.748 155.205 177.119 155.205C177.392 155.205 177.631 155.186 177.835 155.148C178.04 155.11 178.199 155.08 178.313 155.057L178.926 157.864C178.729 157.939 178.449 158.015 178.085 158.091C177.722 158.174 177.267 158.22 176.722 158.227C175.828 158.242 174.994 158.083 174.222 157.75C173.449 157.417 172.824 156.902 172.347 156.205C171.869 155.508 171.631 154.633 171.631 153.58V136.364ZM185.691 134.727V158H182.294V134.727H185.691ZM197.337 158.352C195.617 158.352 194.136 157.985 192.894 157.25C191.659 156.508 190.704 155.466 190.03 154.125C189.364 152.777 189.03 151.197 189.03 149.386C189.03 147.598 189.364 146.023 190.03 144.659C190.704 143.295 191.644 142.231 192.848 141.466C194.061 140.701 195.477 140.318 197.098 140.318C198.083 140.318 199.038 140.481 199.962 140.807C200.886 141.133 201.716 141.644 202.451 142.341C203.186 143.038 203.765 143.943 204.189 145.057C204.614 146.163 204.826 147.508 204.826 149.091V150.295H190.951V147.75H201.496C201.496 146.856 201.314 146.064 200.951 145.375C200.587 144.678 200.076 144.129 199.417 143.727C198.765 143.326 198 143.125 197.121 143.125C196.167 143.125 195.333 143.36 194.621 143.83C193.917 144.292 193.371 144.898 192.985 145.648C192.606 146.39 192.417 147.197 192.417 148.068V150.057C192.417 151.223 192.621 152.216 193.03 153.034C193.447 153.852 194.026 154.477 194.769 154.909C195.511 155.333 196.379 155.545 197.371 155.545C198.015 155.545 198.602 155.455 199.133 155.273C199.663 155.083 200.121 154.803 200.508 154.432C200.894 154.061 201.189 153.602 201.394 153.057L204.61 153.636C204.352 154.583 203.89 155.413 203.223 156.125C202.564 156.83 201.735 157.379 200.735 157.773C199.742 158.159 198.61 158.352 197.337 158.352Z" fill="white"/>
<rect x="24" y="180" width="220" height="8" rx="4" fill="white" fill-opacity="0.1"/>
<rect x="24" y="194" width="142" height="8" rx="4" fill="white" fill-opacity="0.1"/>
<rect x="496" y="26" width="48" height="16" rx="8" fill="white" fill-opacity="0.1"/>
<rect x="440" y="30" width="40" height="8" rx="4" fill="white" fill-opacity="0.1"/>
<rect x="24" y="218" width="48" height="16" rx="8" fill="white" fill-opacity="0.1"/>
<path d="M531 92L284 234" stroke="white" stroke-opacity="0.06"/>
<path d="M284 92L531 234" stroke="white" stroke-opacity="0.06"/>
</g>
<defs>
<clipPath id="clip0_387_2250">
<rect width="568" height="326" fill="white"/>
</clipPath>
</defs>
</svg>
