<svg width="568" height="326" viewBox="0 0 568 326" fill="none" xmlns="http://www.w3.org/2000/svg">
<g clip-path="url(#clip0_387_2250)">
<path d="M0 0H568V326H0V0Z" fill="#19191C"/>
<rect x="26" y="26" width="16" height="16" rx="4" fill="white"/>
<circle cx="34" cy="34" r="4" fill="black"/>
<path d="M53.696 38H52.2983L55.4389 29.2727H56.9602L60.1009 38H58.7031L56.2358 30.858H56.1676L53.696 38ZM53.9304 34.5824H58.4645V35.6903H53.9304V34.5824ZM63.8565 38.1321C63.223 38.1321 62.6775 37.9886 62.2201 37.7017C61.7656 37.4119 61.4162 37.0128 61.1719 36.5043C60.9275 35.9957 60.8054 35.4134 60.8054 34.7571C60.8054 34.0923 60.9304 33.5057 61.1804 32.9972C61.4304 32.4858 61.7826 32.0866 62.2372 31.7997C62.6917 31.5128 63.2273 31.3693 63.8437 31.3693C64.3409 31.3693 64.7841 31.4616 65.1733 31.6463C65.5625 31.8281 65.8764 32.0838 66.115 32.4134C66.3565 32.7429 66.5 33.1278 66.5454 33.5682H65.3054C65.2372 33.2614 65.0809 32.9972 64.8366 32.7756C64.5951 32.554 64.2713 32.4432 63.865 32.4432C63.5099 32.4432 63.1988 32.5369 62.9318 32.7244C62.6676 32.9091 62.4616 33.1733 62.3139 33.517C62.1662 33.858 62.0923 34.2614 62.0923 34.7273C62.0923 35.2045 62.1648 35.6165 62.3096 35.9631C62.4545 36.3097 62.6591 36.5781 62.9233 36.7685C63.1903 36.9588 63.5042 37.054 63.865 37.054C64.1065 37.054 64.3253 37.0099 64.5213 36.9219C64.7201 36.831 64.8863 36.7017 65.0199 36.5341C65.1562 36.3665 65.2514 36.1648 65.3054 35.929H66.5454C66.5 36.3523 66.3622 36.7301 66.1321 37.0625C65.902 37.3949 65.5937 37.6562 65.2074 37.8466C64.8238 38.0369 64.3736 38.1321 63.8565 38.1321ZM67.854 38V31.4545H69.077V32.5199H69.158C69.2943 32.1591 69.5174 31.8778 69.827 31.6761C70.1367 31.4716 70.5074 31.3693 70.9392 31.3693C71.3767 31.3693 71.7432 31.4716 72.0387 31.6761C72.337 31.8807 72.5571 32.1619 72.6992 32.5199H72.7674C72.9236 32.1705 73.1722 31.892 73.5131 31.6847C73.854 31.4744 74.2603 31.3693 74.7318 31.3693C75.3256 31.3693 75.81 31.5554 76.185 31.9276C76.5628 32.2997 76.7517 32.8608 76.7517 33.6108V38H75.4776V33.7301C75.4776 33.2869 75.3568 32.9659 75.1154 32.767C74.8739 32.5682 74.5855 32.4688 74.2503 32.4688C73.8355 32.4688 73.5131 32.5966 73.283 32.8523C73.0529 33.1051 72.9378 33.4304 72.9378 33.8281V38H71.6679V33.6491C71.6679 33.294 71.5571 33.0085 71.3355 32.7926C71.1139 32.5767 70.8256 32.4688 70.4705 32.4688C70.229 32.4688 70.006 32.5327 69.8014 32.6605C69.5997 32.7855 69.4364 32.9602 69.3114 33.1847C69.1892 33.4091 69.1282 33.669 69.1282 33.9645V38H67.854ZM81.2265 38.1321C80.5816 38.1321 80.0262 37.9943 79.5603 37.7188C79.0972 37.4403 78.7393 37.0497 78.4864 36.5469C78.2364 36.0412 78.1114 35.4489 78.1114 34.7699C78.1114 34.0994 78.2364 33.5085 78.4864 32.9972C78.7393 32.4858 79.0916 32.0866 79.5433 31.7997C79.9978 31.5128 80.5291 31.3693 81.137 31.3693C81.5063 31.3693 81.8643 31.4304 82.2109 31.5526C82.5575 31.6747 82.8685 31.8665 83.1441 32.1278C83.4197 32.3892 83.637 32.7287 83.7961 33.1463C83.9552 33.5611 84.0347 34.0653 84.0347 34.6591V35.1108H78.8316V34.1562H82.7862C82.7862 33.821 82.718 33.5241 82.5816 33.2656C82.4452 33.0043 82.2535 32.7983 82.0063 32.6477C81.762 32.4972 81.4751 32.4219 81.1455 32.4219C80.7876 32.4219 80.4751 32.5099 80.208 32.6861C79.9438 32.8594 79.7393 33.0866 79.5944 33.3679C79.4523 33.6463 79.3813 33.9489 79.3813 34.2756V35.0213C79.3813 35.4588 79.458 35.831 79.6114 36.1378C79.7677 36.4446 79.985 36.679 80.2634 36.8409C80.5418 37 80.8671 37.0795 81.2393 37.0795C81.4808 37.0795 81.7009 37.0455 81.8998 36.9773C82.0987 36.9062 82.2705 36.8011 82.4154 36.6619C82.5603 36.5227 82.6711 36.3509 82.7478 36.1463L83.9538 36.3636C83.8572 36.7187 83.6839 37.0298 83.4339 37.2969C83.1867 37.5611 82.8756 37.767 82.5006 37.9148C82.1285 38.0597 81.7038 38.1321 81.2265 38.1321ZM86.2339 38.081C86.001 38.081 85.8007 37.9986 85.6331 37.8338C85.4655 37.6662 85.3817 37.4645 85.3817 37.2287C85.3817 36.9957 85.4655 36.7969 85.6331 36.6321C85.8007 36.4645 86.001 36.3807 86.2339 36.3807C86.4669 36.3807 86.6672 36.4645 86.8348 36.6321C87.0024 36.7969 87.0862 36.9957 87.0862 37.2287C87.0862 37.3849 87.0464 37.5284 86.9669 37.6591C86.8902 37.7869 86.7879 37.8892 86.6601 37.9659C86.5322 38.0426 86.3902 38.081 86.2339 38.081ZM90.1579 29.2727V38H88.8412V29.2727H90.1579ZM93.1934 34.1136V38H91.9193V31.4545H93.1423V32.5199H93.2232C93.3738 32.1733 93.6096 31.8949 93.9306 31.6847C94.2545 31.4744 94.6621 31.3693 95.1536 31.3693C95.5996 31.3693 95.9903 31.4631 96.3255 31.6506C96.6607 31.8352 96.9207 32.1108 97.1053 32.4773C97.29 32.8437 97.3823 33.2969 97.3823 33.8366V38H96.1082V33.9901C96.1082 33.5156 95.9846 33.1449 95.7374 32.8778C95.4903 32.608 95.1508 32.473 94.719 32.473C94.4235 32.473 94.1607 32.5369 93.9306 32.6648C93.7033 32.7926 93.5229 32.9801 93.3894 33.2273C93.2587 33.4716 93.1934 33.767 93.1934 34.1136ZM101.794 38.1321C101.161 38.1321 100.615 37.9886 100.158 37.7017C99.7033 37.4119 99.3539 37.0128 99.1096 36.5043C98.8653 35.9957 98.7431 35.4134 98.7431 34.7571C98.7431 34.0923 98.8681 33.5057 99.1181 32.9972C99.3681 32.4858 99.7204 32.0866 100.175 31.7997C100.629 31.5128 101.165 31.3693 101.781 31.3693C102.279 31.3693 102.722 31.4616 103.111 31.6463C103.5 31.8281 103.814 32.0838 104.053 32.4134C104.294 32.7429 104.438 33.1278 104.483 33.5682H103.243C103.175 33.2614 103.019 32.9972 102.774 32.7756C102.533 32.554 102.209 32.4432 101.803 32.4432C101.448 32.4432 101.137 32.5369 100.87 32.7244C100.605 32.9091 100.399 33.1733 100.252 33.517C100.104 33.858 100.03 34.2614 100.03 34.7273C100.03 35.2045 100.102 35.6165 100.247 35.9631C100.392 36.3097 100.597 36.5781 100.861 36.7685C101.128 36.9588 101.442 37.054 101.803 37.054C102.044 37.054 102.263 37.0099 102.459 36.9219C102.658 36.831 102.824 36.7017 102.958 36.5341C103.094 36.3665 103.189 36.1648 103.243 35.929H104.483C104.438 36.3523 104.3 36.7301 104.07 37.0625C103.84 37.3949 103.531 37.6562 103.145 37.8466C102.762 38.0369 102.311 38.1321 101.794 38.1321Z" fill="#E4E4E7"/>
<path d="M24 0L24 326" stroke="white" stroke-opacity="0.06"/>
<path d="M544 0L544 326" stroke="white" stroke-opacity="0.06"/>
<path d="M284 0L284 326" stroke="white" stroke-opacity="0.06"/>
<path d="M0 92L568 92" stroke="white" stroke-opacity="0.06"/>
<path d="M0 180L284 180" stroke="white" stroke-opacity="0.06"/>
<path d="M0 234L568 234" stroke="white" stroke-opacity="0.06"/>
<path d="M0 164L284 164" stroke="white" stroke-opacity="0.06"/>
<path opacity="0.48" d="M31.1136 122L24.6591 98.7273H28.3523L32.8864 116.75H33.1023L37.8182 98.7273H41.4773L46.1932 116.761H46.4091L50.9318 98.7273H54.6364L48.1705 122H44.6364L39.7386 104.568H39.5568L34.6591 122H31.1136ZM62.9213 122.352C61.2016 122.352 59.7206 121.985 58.4781 121.25C57.2433 120.508 56.2887 119.466 55.6145 118.125C54.9478 116.777 54.6145 115.197 54.6145 113.386C54.6145 111.598 54.9478 110.023 55.6145 108.659C56.2887 107.295 57.2281 106.231 58.4327 105.466C59.6448 104.701 61.0615 104.318 62.6827 104.318C63.6675 104.318 64.6221 104.481 65.5463 104.807C66.4706 105.133 67.3001 105.644 68.035 106.341C68.7698 107.038 69.3493 107.943 69.7736 109.057C70.1978 110.163 70.41 111.508 70.41 113.091V114.295H56.535V111.75H67.0804C67.0804 110.856 66.8986 110.064 66.535 109.375C66.1713 108.678 65.66 108.129 65.0009 107.727C64.3493 107.326 63.5842 107.125 62.7054 107.125C61.7509 107.125 60.9175 107.36 60.2054 107.83C59.5009 108.292 58.9554 108.898 58.569 109.648C58.1903 110.39 58.0009 111.197 58.0009 112.068V114.057C58.0009 115.223 58.2054 116.216 58.6145 117.034C59.0312 117.852 59.6107 118.477 60.3531 118.909C61.0956 119.333 61.963 119.545 62.9554 119.545C63.5993 119.545 64.1865 119.455 64.7168 119.273C65.2471 119.083 65.7054 118.803 66.0918 118.432C66.4781 118.061 66.7736 117.602 66.9781 117.057L70.194 117.636C69.9365 118.583 69.4743 119.413 68.8077 120.125C68.1486 120.83 67.319 121.379 66.319 121.773C65.3266 122.159 64.194 122.352 62.9213 122.352ZM77.1296 98.7273V122H73.7318V98.7273H77.1296ZM88.6049 122.352C86.9155 122.352 85.4609 121.97 84.2412 121.205C83.0291 120.432 82.0973 119.367 81.4458 118.011C80.7943 116.655 80.4685 115.102 80.4685 113.352C80.4685 111.58 80.8018 110.015 81.4685 108.659C82.1352 107.295 83.0746 106.231 84.2867 105.466C85.4988 104.701 86.9268 104.318 88.5708 104.318C89.8965 104.318 91.0783 104.564 92.1162 105.057C93.1541 105.542 93.9912 106.223 94.6276 107.102C95.2715 107.981 95.6541 109.008 95.7753 110.182H92.4685C92.2867 109.364 91.87 108.659 91.2185 108.068C90.5746 107.477 89.7109 107.182 88.6276 107.182C87.6806 107.182 86.8511 107.432 86.139 107.932C85.4344 108.424 84.8852 109.129 84.4912 110.045C84.0973 110.955 83.9003 112.03 83.9003 113.273C83.9003 114.545 84.0935 115.644 84.4799 116.568C84.8662 117.492 85.4117 118.208 86.1162 118.716C86.8283 119.223 87.6655 119.477 88.6276 119.477C89.2715 119.477 89.8549 119.36 90.3776 119.125C90.9079 118.883 91.3511 118.538 91.7071 118.091C92.0708 117.644 92.3246 117.106 92.4685 116.477H95.7753C95.6541 117.606 95.2867 118.614 94.673 119.5C94.0594 120.386 93.2374 121.083 92.2071 121.591C91.1844 122.098 89.9837 122.352 88.6049 122.352ZM106.313 122.352C104.677 122.352 103.249 121.977 102.029 121.227C100.809 120.477 99.8624 119.428 99.1881 118.08C98.5139 116.731 98.1768 115.155 98.1768 113.352C98.1768 111.542 98.5139 109.958 99.1881 108.602C99.8624 107.246 100.809 106.193 102.029 105.443C103.249 104.693 104.677 104.318 106.313 104.318C107.949 104.318 109.378 104.693 110.597 105.443C111.817 106.193 112.764 107.246 113.438 108.602C114.112 109.958 114.449 111.542 114.449 113.352C114.449 115.155 114.112 116.731 113.438 118.08C112.764 119.428 111.817 120.477 110.597 121.227C109.378 121.977 107.949 122.352 106.313 122.352ZM106.324 119.5C107.385 119.5 108.264 119.22 108.961 118.659C109.658 118.098 110.173 117.352 110.506 116.42C110.847 115.489 111.018 114.462 111.018 113.341C111.018 112.227 110.847 111.205 110.506 110.273C110.173 109.333 109.658 108.58 108.961 108.011C108.264 107.443 107.385 107.159 106.324 107.159C105.256 107.159 104.37 107.443 103.665 108.011C102.968 108.58 102.449 109.333 102.109 110.273C101.775 111.205 101.609 112.227 101.609 113.341C101.609 114.462 101.775 115.489 102.109 116.42C102.449 117.352 102.968 118.098 103.665 118.659C104.37 119.22 105.256 119.5 106.324 119.5ZM117.794 122V104.545H121.055V107.386H121.271C121.635 106.424 122.23 105.674 123.055 105.136C123.881 104.591 124.87 104.318 126.021 104.318C127.188 104.318 128.165 104.591 128.953 105.136C129.749 105.682 130.336 106.432 130.715 107.386H130.896C131.313 106.455 131.976 105.712 132.885 105.159C133.794 104.598 134.877 104.318 136.135 104.318C137.718 104.318 139.01 104.814 140.01 105.807C141.018 106.799 141.521 108.295 141.521 110.295V122H138.124V110.614C138.124 109.432 137.802 108.576 137.158 108.045C136.514 107.515 135.745 107.25 134.851 107.25C133.745 107.25 132.885 107.591 132.271 108.273C131.658 108.947 131.351 109.814 131.351 110.875V122H127.965V110.398C127.965 109.451 127.669 108.689 127.078 108.114C126.487 107.538 125.718 107.25 124.771 107.25C124.127 107.25 123.533 107.42 122.987 107.761C122.449 108.095 122.014 108.561 121.68 109.159C121.355 109.758 121.192 110.451 121.192 111.239V122H117.794ZM153.15 122.352C151.43 122.352 149.949 121.985 148.707 121.25C147.472 120.508 146.517 119.466 145.843 118.125C145.177 116.777 144.843 115.197 144.843 113.386C144.843 111.598 145.177 110.023 145.843 108.659C146.517 107.295 147.457 106.231 148.661 105.466C149.874 104.701 151.29 104.318 152.911 104.318C153.896 104.318 154.851 104.481 155.775 104.807C156.699 105.133 157.529 105.644 158.264 106.341C158.999 107.038 159.578 107.943 160.002 109.057C160.427 110.163 160.639 111.508 160.639 113.091V114.295H146.764V111.75H157.309C157.309 110.856 157.127 110.064 156.764 109.375C156.4 108.678 155.889 108.129 155.23 107.727C154.578 107.326 153.813 107.125 152.934 107.125C151.98 107.125 151.146 107.36 150.434 107.83C149.73 108.292 149.184 108.898 148.798 109.648C148.419 110.39 148.23 111.197 148.23 112.068V114.057C148.23 115.223 148.434 116.216 148.843 117.034C149.26 117.852 149.839 118.477 150.582 118.909C151.324 119.333 152.192 119.545 153.184 119.545C153.828 119.545 154.415 119.455 154.946 119.273C155.476 119.083 155.934 118.803 156.321 118.432C156.707 118.061 157.002 117.602 157.207 117.057L160.423 117.636C160.165 118.583 159.703 119.413 159.036 120.125C158.377 120.83 157.548 121.379 156.548 121.773C155.555 122.159 154.423 122.352 153.15 122.352ZM180.129 104.545V107.273H170.595V104.545H180.129ZM173.152 100.364H176.55V116.875C176.55 117.534 176.648 118.03 176.845 118.364C177.042 118.689 177.296 118.913 177.606 119.034C177.925 119.148 178.269 119.205 178.64 119.205C178.913 119.205 179.152 119.186 179.356 119.148C179.561 119.11 179.72 119.08 179.834 119.057L180.447 121.864C180.25 121.939 179.97 122.015 179.606 122.091C179.243 122.174 178.788 122.22 178.243 122.227C177.349 122.242 176.515 122.083 175.743 121.75C174.97 121.417 174.345 120.902 173.868 120.205C173.39 119.508 173.152 118.633 173.152 117.58V100.364ZM190.604 122.352C188.968 122.352 187.54 121.977 186.32 121.227C185.101 120.477 184.154 119.428 183.479 118.08C182.805 116.731 182.468 115.155 182.468 113.352C182.468 111.542 182.805 109.958 183.479 108.602C184.154 107.246 185.101 106.193 186.32 105.443C187.54 104.693 188.968 104.318 190.604 104.318C192.241 104.318 193.669 104.693 194.888 105.443C196.108 106.193 197.055 107.246 197.729 108.602C198.404 109.958 198.741 111.542 198.741 113.352C198.741 115.155 198.404 116.731 197.729 118.08C197.055 119.428 196.108 120.477 194.888 121.227C193.669 121.977 192.241 122.352 190.604 122.352ZM190.616 119.5C191.676 119.5 192.555 119.22 193.252 118.659C193.949 118.098 194.464 117.352 194.798 116.42C195.138 115.489 195.309 114.462 195.309 113.341C195.309 112.227 195.138 111.205 194.798 110.273C194.464 109.333 193.949 108.58 193.252 108.011C192.555 107.443 191.676 107.159 190.616 107.159C189.548 107.159 188.661 107.443 187.957 108.011C187.26 108.58 186.741 109.333 186.4 110.273C186.066 111.205 185.9 112.227 185.9 113.341C185.9 114.462 186.066 115.489 186.4 116.42C186.741 117.352 187.26 118.098 187.957 118.659C188.661 119.22 189.548 119.5 190.616 119.5ZM28.5227 158H24.7955L33.1705 134.727H37.2273L45.6023 158H41.875L35.2955 138.955H35.1136L28.5227 158ZM29.1477 148.886H41.2386V151.841H29.1477V148.886ZM55.3134 158.352C53.624 158.352 52.1694 157.97 50.9497 157.205C49.7376 156.432 48.8058 155.367 48.1543 154.011C47.5028 152.655 47.177 151.102 47.177 149.352C47.177 147.58 47.5103 146.015 48.177 144.659C48.8437 143.295 49.7831 142.231 50.9952 141.466C52.2073 140.701 53.6353 140.318 55.2793 140.318C56.605 140.318 57.7868 140.564 58.8247 141.057C59.8626 141.542 60.6997 142.223 61.3361 143.102C61.98 143.981 62.3626 145.008 62.4838 146.182H59.177C58.9952 145.364 58.5785 144.659 57.927 144.068C57.2831 143.477 56.4194 143.182 55.3361 143.182C54.3891 143.182 53.5596 143.432 52.8475 143.932C52.1429 144.424 51.5937 145.129 51.1997 146.045C50.8058 146.955 50.6088 148.03 50.6088 149.273C50.6088 150.545 50.802 151.644 51.1884 152.568C51.5747 153.492 52.1202 154.208 52.8247 154.716C53.5368 155.223 54.374 155.477 55.3361 155.477C55.98 155.477 56.5634 155.36 57.0861 155.125C57.6164 154.883 58.0596 154.538 58.4156 154.091C58.7793 153.644 59.0331 153.106 59.177 152.477H62.4838C62.3626 153.606 61.9952 154.614 61.3815 155.5C60.7679 156.386 59.9459 157.083 58.9156 157.591C57.8929 158.098 56.6922 158.352 55.3134 158.352ZM65.6693 158V140.545H68.9307V143.386H69.1466C69.5103 142.424 70.1049 141.674 70.9307 141.136C71.7565 140.591 72.7451 140.318 73.8966 140.318C75.0633 140.318 76.0406 140.591 76.8284 141.136C77.6239 141.682 78.211 142.432 78.5898 143.386H78.7716C79.1883 142.455 79.8512 141.712 80.7603 141.159C81.6693 140.598 82.7527 140.318 84.0103 140.318C85.5936 140.318 86.8853 140.814 87.8853 141.807C88.8928 142.799 89.3966 144.295 89.3966 146.295V158H85.9989V146.614C85.9989 145.432 85.6769 144.576 85.033 144.045C84.389 143.515 83.6201 143.25 82.7262 143.25C81.6201 143.25 80.7603 143.591 80.1466 144.273C79.533 144.947 79.2262 145.814 79.2262 146.875V158H75.8398V146.398C75.8398 145.451 75.5443 144.689 74.9534 144.114C74.3625 143.538 73.5936 143.25 72.6466 143.25C72.0027 143.25 71.408 143.42 70.8625 143.761C70.3246 144.095 69.889 144.561 69.5557 145.159C69.2299 145.758 69.0671 146.451 69.0671 147.239V158H65.6693ZM101.025 158.352C99.3056 158.352 97.8246 157.985 96.5821 157.25C95.3473 156.508 94.3927 155.466 93.7185 154.125C93.0518 152.777 92.7185 151.197 92.7185 149.386C92.7185 147.598 93.0518 146.023 93.7185 144.659C94.3927 143.295 95.3321 142.231 96.5367 141.466C97.7488 140.701 99.1655 140.318 100.787 140.318C101.772 140.318 102.726 140.481 103.65 140.807C104.575 141.133 105.404 141.644 106.139 142.341C106.874 143.038 107.453 143.943 107.878 145.057C108.302 146.163 108.514 147.508 108.514 149.091V150.295H94.639V147.75H105.184C105.184 146.856 105.003 146.064 104.639 145.375C104.275 144.678 103.764 144.129 103.105 143.727C102.453 143.326 101.688 143.125 100.809 143.125C99.8549 143.125 99.0215 143.36 98.3094 143.83C97.6049 144.292 97.0594 144.898 96.673 145.648C96.2943 146.39 96.1049 147.197 96.1049 148.068V150.057C96.1049 151.223 96.3094 152.216 96.7185 153.034C97.1352 153.852 97.7147 154.477 98.4571 154.909C99.1996 155.333 100.067 155.545 101.059 155.545C101.703 155.545 102.29 155.455 102.821 155.273C103.351 155.083 103.809 154.803 104.196 154.432C104.582 154.061 104.878 153.602 105.082 153.057L108.298 153.636C108.04 154.583 107.578 155.413 106.912 156.125C106.253 156.83 105.423 157.379 104.423 157.773C103.431 158.159 102.298 158.352 101.025 158.352ZM123.641 134.727V158H120.129V134.727H123.641ZM131.431 147.636V158H128.034V140.545H131.295V143.386H131.511C131.912 142.462 132.541 141.72 133.397 141.159C134.261 140.598 135.348 140.318 136.659 140.318C137.848 140.318 138.89 140.568 139.784 141.068C140.678 141.561 141.371 142.295 141.863 143.273C142.356 144.25 142.602 145.458 142.602 146.898V158H139.204V147.307C139.204 146.042 138.874 145.053 138.215 144.341C137.556 143.621 136.651 143.261 135.499 143.261C134.712 143.261 134.011 143.432 133.397 143.773C132.791 144.114 132.31 144.614 131.954 145.273C131.606 145.924 131.431 146.712 131.431 147.636ZM154.063 158.352C152.373 158.352 150.919 157.97 149.699 157.205C148.487 156.432 147.555 155.367 146.904 154.011C146.252 152.655 145.926 151.102 145.926 149.352C145.926 147.58 146.26 146.015 146.926 144.659C147.593 143.295 148.533 142.231 149.745 141.466C150.957 140.701 152.385 140.318 154.029 140.318C155.355 140.318 156.536 140.564 157.574 141.057C158.612 141.542 159.449 142.223 160.086 143.102C160.73 143.981 161.112 145.008 161.233 146.182H157.926C157.745 145.364 157.328 144.659 156.676 144.068C156.033 143.477 155.169 143.182 154.086 143.182C153.139 143.182 152.309 143.432 151.597 143.932C150.892 144.424 150.343 145.129 149.949 146.045C149.555 146.955 149.358 148.03 149.358 149.273C149.358 150.545 149.551 151.644 149.938 152.568C150.324 153.492 150.87 154.208 151.574 154.716C152.286 155.223 153.123 155.477 154.086 155.477C154.73 155.477 155.313 155.36 155.836 155.125C156.366 154.883 156.809 154.538 157.165 154.091C157.529 153.644 157.783 153.106 157.926 152.477H161.233C161.112 153.606 160.745 154.614 160.131 155.5C159.517 156.386 158.695 157.083 157.665 157.591C156.642 158.098 155.442 158.352 154.063 158.352ZM166.657 158.216C166.036 158.216 165.502 157.996 165.055 157.557C164.608 157.11 164.385 156.572 164.385 155.943C164.385 155.322 164.608 154.792 165.055 154.352C165.502 153.905 166.036 153.682 166.657 153.682C167.279 153.682 167.813 153.905 168.26 154.352C168.707 154.792 168.93 155.322 168.93 155.943C168.93 156.36 168.824 156.742 168.612 157.091C168.407 157.432 168.135 157.705 167.794 157.909C167.453 158.114 167.074 158.216 166.657 158.216Z" fill="white"/>
<rect x="24" y="180" width="220" height="8" rx="4" fill="white" fill-opacity="0.1"/>
<rect x="24" y="194" width="142" height="8" rx="4" fill="white" fill-opacity="0.1"/>
<rect x="496" y="26" width="48" height="16" rx="8" fill="white" fill-opacity="0.1"/>
<rect x="440" y="30" width="40" height="8" rx="4" fill="white" fill-opacity="0.1"/>
<rect x="24" y="218" width="48" height="16" rx="8" fill="white" fill-opacity="0.1"/>
<path d="M531 92L284 234" stroke="white" stroke-opacity="0.06"/>
<path d="M284 92L531 234" stroke="white" stroke-opacity="0.06"/>
</g>
<defs>
<clipPath id="clip0_387_2250">
<rect width="568" height="326" fill="white"/>
</clipPath>
</defs>
</svg>
