<svg width="320" height="160" viewBox="0 0 320 160" fill="none" xmlns="http://www.w3.org/2000/svg">
<g opacity="0.5" filter="url(#filter0_bdi_245_8143)">
<path d="M446.132 160.996C446.132 180.249 446.132 189.876 442.385 197.23C439.09 203.698 433.83 208.957 427.362 212.253C420.008 216 410.382 216 391.128 216L322.593 216C303.34 216 293.713 216 286.359 212.253C279.891 208.957 274.632 203.698 271.336 197.23C267.589 189.876 267.589 180.249 267.589 160.996L267.589 95.4862C267.589 76.2331 267.589 66.6065 271.336 59.2528C274.632 52.7842 279.891 47.5252 286.359 44.2293C293.713 40.4824 303.34 40.4824 322.593 40.4824L391.129 40.4824C410.382 40.4824 420.008 40.4824 427.362 44.2293C433.83 47.5252 439.09 52.7843 442.385 59.2528C446.132 66.6065 446.132 76.2331 446.132 95.4862L446.132 160.996Z" fill="white" fill-opacity="0.02" shape-rendering="crispEdges"/>
<path d="M445.159 160.996C445.159 170.639 445.158 177.812 444.694 183.496C444.23 189.168 443.31 193.271 441.518 196.788C438.315 203.073 433.205 208.183 426.92 211.386C423.403 213.177 419.3 214.098 413.628 214.561C407.945 215.026 400.771 215.026 391.128 215.026L322.593 215.026C312.95 215.026 305.777 215.026 300.093 214.561C294.421 214.098 290.318 213.177 286.801 211.386C280.516 208.183 275.406 203.073 272.204 196.788C270.412 193.271 269.491 189.168 269.028 183.496C268.564 177.812 268.563 170.639 268.563 160.996L268.563 95.4862C268.563 85.8436 268.564 78.6702 269.028 72.9865C269.491 67.3142 270.412 63.2115 272.204 59.6948C275.406 53.4095 280.516 48.2994 286.802 45.0968C290.318 43.305 294.421 42.3846 300.093 41.9212C305.777 41.4568 312.95 41.4561 322.593 41.4561L391.129 41.4561C400.771 41.4561 407.945 41.4568 413.628 41.9212C419.301 42.3846 423.403 43.305 426.92 45.0969C433.205 48.2994 438.315 53.4095 441.518 59.6948C443.31 63.2115 444.23 67.3142 444.694 72.9865C445.158 78.6702 445.159 85.8436 445.159 95.4862L445.159 160.996Z" stroke="url(#paint0_linear_245_8143)" stroke-opacity="0.15" stroke-width="1.94737" shape-rendering="crispEdges"/>
</g>
<g filter="url(#filter1_bdi_245_8143)">
<rect x="253.531" y="216" width="178.543" height="175.518" rx="34.3774" transform="rotate(-180 253.531 216)" fill="white" fill-opacity="0.02" shape-rendering="crispEdges"/>
<rect x="253.531" y="216" width="178.543" height="175.518" rx="34.3774" transform="rotate(-180 253.531 216)" fill="url(#paint1_linear_245_8143)" fill-opacity="0.08" shape-rendering="crispEdges"/>
<rect x="252.557" y="215.026" width="176.596" height="173.57" rx="33.4037" transform="rotate(-180 252.557 215.026)" stroke="url(#paint2_linear_245_8143)" stroke-opacity="0.15" stroke-width="1.94737" shape-rendering="crispEdges"/>
<rect x="252.557" y="215.026" width="176.596" height="173.57" rx="33.4037" transform="rotate(-180 252.557 215.026)" stroke="url(#paint3_linear_245_8143)" stroke-width="1.94737" shape-rendering="crispEdges"/>
<rect x="252.557" y="215.026" width="176.596" height="173.57" rx="33.4037" transform="rotate(-180 252.557 215.026)" stroke="url(#paint4_linear_245_8143)" stroke-width="1.94737" shape-rendering="crispEdges"/>
</g>
<g opacity="0.5" filter="url(#filter2_bdi_245_8143)">
<rect x="60.9292" y="216" width="178.543" height="175.518" rx="34.3774" transform="rotate(-180 60.9292 216)" fill="white" fill-opacity="0.02" shape-rendering="crispEdges"/>
<rect x="59.9555" y="215.026" width="176.596" height="173.57" rx="33.4037" transform="rotate(-180 59.9555 215.026)" stroke="url(#paint5_linear_245_8143)" stroke-opacity="0.15" stroke-width="1.94737" shape-rendering="crispEdges"/>
</g>
<defs>
<filter id="filter0_bdi_245_8143" x="170.221" y="-56.8859" width="373.28" height="370.254" filterUnits="userSpaceOnUse" color-interpolation-filters="sRGB">
<feFlood flood-opacity="0" result="BackgroundImageFix"/>
<feGaussianBlur in="BackgroundImageFix" stdDeviation="48.6842"/>
<feComposite in2="SourceAlpha" operator="in" result="effect1_backgroundBlur_245_8143"/>
<feColorMatrix in="SourceAlpha" type="matrix" values="0 0 0 0 0 0 0 0 0 0 0 0 0 0 0 0 0 0 127 0" result="hardAlpha"/>
<feOffset dx="12.0304"/>
<feGaussianBlur stdDeviation="20.0507"/>
<feComposite in2="hardAlpha" operator="out"/>
<feColorMatrix type="matrix" values="0 0 0 0 0 0 0 0 0 0 0 0 0 0 0 0 0 0 0.16 0"/>
<feBlend mode="normal" in2="effect1_backgroundBlur_245_8143" result="effect2_dropShadow_245_8143"/>
<feBlend mode="normal" in="SourceGraphic" in2="effect2_dropShadow_245_8143" result="shape"/>
<feColorMatrix in="SourceAlpha" type="matrix" values="0 0 0 0 0 0 0 0 0 0 0 0 0 0 0 0 0 0 127 0" result="hardAlpha"/>
<feOffset dy="1.00254"/>
<feGaussianBlur stdDeviation="0.501268"/>
<feComposite in2="hardAlpha" operator="arithmetic" k2="-1" k3="1"/>
<feColorMatrix type="matrix" values="0 0 0 0 1 0 0 0 0 1 0 0 0 0 1 0 0 0 0.25 0"/>
<feBlend mode="normal" in2="shape" result="effect3_innerShadow_245_8143"/>
</filter>
<filter id="filter1_bdi_245_8143" x="-22.381" y="-56.8859" width="373.28" height="370.254" filterUnits="userSpaceOnUse" color-interpolation-filters="sRGB">
<feFlood flood-opacity="0" result="BackgroundImageFix"/>
<feGaussianBlur in="BackgroundImageFix" stdDeviation="48.6842"/>
<feComposite in2="SourceAlpha" operator="in" result="effect1_backgroundBlur_245_8143"/>
<feColorMatrix in="SourceAlpha" type="matrix" values="0 0 0 0 0 0 0 0 0 0 0 0 0 0 0 0 0 0 127 0" result="hardAlpha"/>
<feOffset dx="12.0304"/>
<feGaussianBlur stdDeviation="20.0507"/>
<feComposite in2="hardAlpha" operator="out"/>
<feColorMatrix type="matrix" values="0 0 0 0 0 0 0 0 0 0 0 0 0 0 0 0 0 0 0.16 0"/>
<feBlend mode="normal" in2="effect1_backgroundBlur_245_8143" result="effect2_dropShadow_245_8143"/>
<feBlend mode="normal" in="SourceGraphic" in2="effect2_dropShadow_245_8143" result="shape"/>
<feColorMatrix in="SourceAlpha" type="matrix" values="0 0 0 0 0 0 0 0 0 0 0 0 0 0 0 0 0 0 127 0" result="hardAlpha"/>
<feOffset dy="1.00254"/>
<feGaussianBlur stdDeviation="0.501268"/>
<feComposite in2="hardAlpha" operator="arithmetic" k2="-1" k3="1"/>
<feColorMatrix type="matrix" values="0 0 0 0 1 0 0 0 0 1 0 0 0 0 1 0 0 0 0.25 0"/>
<feBlend mode="normal" in2="shape" result="effect3_innerShadow_245_8143"/>
</filter>
<filter id="filter2_bdi_245_8143" x="-214.983" y="-56.8859" width="373.28" height="370.254" filterUnits="userSpaceOnUse" color-interpolation-filters="sRGB">
<feFlood flood-opacity="0" result="BackgroundImageFix"/>
<feGaussianBlur in="BackgroundImageFix" stdDeviation="48.6842"/>
<feComposite in2="SourceAlpha" operator="in" result="effect1_backgroundBlur_245_8143"/>
<feColorMatrix in="SourceAlpha" type="matrix" values="0 0 0 0 0 0 0 0 0 0 0 0 0 0 0 0 0 0 127 0" result="hardAlpha"/>
<feOffset dx="12.0304"/>
<feGaussianBlur stdDeviation="20.0507"/>
<feComposite in2="hardAlpha" operator="out"/>
<feColorMatrix type="matrix" values="0 0 0 0 0 0 0 0 0 0 0 0 0 0 0 0 0 0 0.16 0"/>
<feBlend mode="normal" in2="effect1_backgroundBlur_245_8143" result="effect2_dropShadow_245_8143"/>
<feBlend mode="normal" in="SourceGraphic" in2="effect2_dropShadow_245_8143" result="shape"/>
<feColorMatrix in="SourceAlpha" type="matrix" values="0 0 0 0 0 0 0 0 0 0 0 0 0 0 0 0 0 0 127 0" result="hardAlpha"/>
<feOffset dy="1.00254"/>
<feGaussianBlur stdDeviation="0.501268"/>
<feComposite in2="hardAlpha" operator="arithmetic" k2="-1" k3="1"/>
<feColorMatrix type="matrix" values="0 0 0 0 1 0 0 0 0 1 0 0 0 0 1 0 0 0 0.25 0"/>
<feBlend mode="normal" in2="shape" result="effect3_innerShadow_245_8143"/>
</filter>
<linearGradient id="paint0_linear_245_8143" x1="356.861" y1="203.641" x2="356.861" y2="7.84222" gradientUnits="userSpaceOnUse">
<stop stop-color="white" stop-opacity="0.5"/>
<stop offset="1" stop-color="white" stop-opacity="0.5"/>
</linearGradient>
<linearGradient id="paint1_linear_245_8143" x1="342.802" y1="329.385" x2="342.802" y2="391.518" gradientUnits="userSpaceOnUse">
<stop stop-color="white" stop-opacity="0"/>
<stop offset="1" stop-color="white"/>
</linearGradient>
<linearGradient id="paint2_linear_245_8143" x1="342.802" y1="228.359" x2="342.802" y2="424.158" gradientUnits="userSpaceOnUse">
<stop stop-color="white"/>
<stop offset="1" stop-color="white" stop-opacity="0"/>
</linearGradient>
<linearGradient id="paint3_linear_245_8143" x1="369.027" y1="271.788" x2="417.577" y2="389.395" gradientUnits="userSpaceOnUse">
<stop offset="0.5" stop-color="white" stop-opacity="0"/>
<stop offset="1" stop-color="white"/>
</linearGradient>
<linearGradient id="paint4_linear_245_8143" x1="342.791" y1="289.881" x2="264.085" y2="212.984" gradientUnits="userSpaceOnUse">
<stop offset="0.582792" stop-color="white" stop-opacity="0"/>
<stop offset="1" stop-color="white"/>
</linearGradient>
<linearGradient id="paint5_linear_245_8143" x1="150.201" y1="228.359" x2="150.201" y2="424.158" gradientUnits="userSpaceOnUse">
<stop stop-color="white" stop-opacity="0.5"/>
<stop offset="1" stop-color="white" stop-opacity="0.5"/>
</linearGradient>
</defs>
</svg>
