<svg width="320" height="187" viewBox="0 0 320 187" fill="none" xmlns="http://www.w3.org/2000/svg">
<g clip-path="url(#clip0_245_8390)">
<g filter="url(#filter0_b_245_8390)">
<path d="M285.678 156.988C285.678 143.352 277.176 133.727 263.379 133.727C249.744 133.727 240.279 143.192 240.279 157.148C240.279 170.784 249.423 180.249 263.059 180.249C270.988 180.249 277.345 176.994 281.276 171.588" stroke="url(#paint0_linear_245_8390)" stroke-width="0.78696"/>
</g>
<g filter="url(#filter1_b_245_8390)">
<path d="M230.025 96.9576C237.683 86.3739 249.036 80.6276 263.219 80.6276C283.913 80.6276 298.993 92.6591 301.72 112.391H292.897H284.074C281.668 101.964 274.128 95.3863 262.096 95.3863C244.771 95.3863 235.145 110.466 235.145 133.727C235.145 135.01 235.145 135.973 235.306 138.058C235.627 137.417 235.787 136.454 236.429 135.331C241.562 125.545 252.15 119.129 265.625 119.129C287.924 119.129 303.485 134.208 303.485 156.988C303.485 179.126 287.122 194.847 263.219 194.847C247.658 194.847 235.948 188.11 228.408 176.72C222.472 166.934 218.943 153.619 218.943 138.54C218.943 124.863 221.319 113.291 225.739 104.171" stroke="url(#paint1_linear_245_8390)" stroke-width="0.78696" stroke-linecap="round"/>
</g>
<g filter="url(#filter2_b_245_8390)">
<path d="M191.309 183.939C191.309 177.747 195.778 173.424 201.985 173.424C208.2 173.424 212.821 177.754 212.821 183.939C212.821 190.123 208.2 194.454 201.985 194.454C195.778 194.454 191.309 190.131 191.309 183.939Z" stroke="url(#paint2_linear_245_8390)" stroke-width="0.78696" stroke-linecap="round"/>
</g>
<g filter="url(#filter3_b_245_8390)">
<path d="M173.615 81.5901H156.129V92.98C156.129 98.9156 153.722 103.087 147.947 103.087H130.461V118.327H148.749C151.797 118.327 154.204 117.845 155.808 116.883V147.585V151.389V193.885H173.615V90.5308" stroke="url(#paint3_linear_245_8390)" stroke-width="0.78696" stroke-linecap="round"/>
</g>
<g style="mix-blend-mode:screen" opacity="0.7" filter="url(#filter4_f_245_8390)">
<g filter="url(#filter5_b_245_8390)">
<path d="M230.025 96.9576C237.683 86.3739 249.036 80.6276 263.219 80.6276C283.913 80.6276 298.993 92.6591 301.72 112.391H292.897H284.074C281.668 101.964 274.128 95.3863 262.096 95.3863C244.771 95.3863 235.145 110.466 235.145 133.727C235.145 135.01 235.145 135.973 235.306 138.058C235.627 137.417 235.787 136.454 236.429 135.331C241.562 125.545 252.15 119.129 265.625 119.129C287.924 119.129 303.485 134.208 303.485 156.988C303.485 179.126 287.122 194.847 263.219 194.847C247.658 194.847 235.948 188.11 228.408 176.72C222.472 166.934 218.943 153.619 218.943 138.54C218.943 124.863 221.319 113.291 225.739 104.171" stroke="url(#paint4_linear_245_8390)" stroke-width="0.78696" stroke-linecap="round"/>
</g>
<g filter="url(#filter6_b_245_8390)">
<path d="M191.309 183.939C191.309 177.747 195.778 173.424 201.985 173.424C208.2 173.424 212.821 177.754 212.821 183.939C212.821 190.123 208.2 194.454 201.985 194.454C195.778 194.454 191.309 190.131 191.309 183.939Z" stroke="url(#paint5_linear_245_8390)" stroke-width="0.78696" stroke-linecap="round"/>
</g>
<g filter="url(#filter7_b_245_8390)">
<path d="M173.615 81.5901H156.129V92.98C156.129 98.9156 153.722 103.087 147.947 103.087H130.461V118.327H148.749C151.797 118.327 154.204 117.845 155.808 116.883V147.585V151.389V193.885H173.615V90.5308" stroke="url(#paint6_linear_245_8390)" stroke-width="0.78696" stroke-linecap="round"/>
</g>
</g>
<path d="M228.408 176.72C222.472 166.934 218.943 153.619 218.943 138.54C218.943 102.124 235.787 80.6276 263.219 80.6276C283.913 80.6276 298.993 92.6591 301.72 112.391H284.074C281.668 101.964 274.128 95.3863 262.096 95.3863C244.771 95.3863 235.145 110.466 235.145 133.727C235.145 135.01 235.145 135.973 235.306 138.058C235.627 137.417 235.787 136.454 236.429 135.331C241.562 125.545 252.15 119.129 265.625 119.129C287.924 119.129 303.485 134.208 303.485 156.988C303.485 179.126 287.122 194.847 263.219 194.847C247.658 194.847 235.948 188.11 228.408 176.72ZM285.678 156.988C285.678 143.352 277.176 133.727 263.38 133.727C249.744 133.727 240.279 143.192 240.279 157.148C240.279 170.784 249.423 180.249 263.059 180.249C276.694 180.249 285.678 170.624 285.678 156.988Z" fill="url(#paint7_linear_245_8390)" fill-opacity="0.05"/>
<path d="M190.915 183.939C190.915 177.522 195.567 173.03 201.984 173.03C208.401 173.03 213.214 177.522 213.214 183.939C213.214 190.356 208.401 194.847 201.984 194.847C195.567 194.847 190.915 190.356 190.915 183.939Z" fill="url(#paint8_linear_245_8390)" fill-opacity="0.05"/>
<path d="M156.129 92.98V81.5901H173.615V193.885H155.808V116.883C154.204 117.845 151.798 118.327 148.75 118.327H130.462V103.087H147.948C153.723 103.087 156.129 98.9156 156.129 92.98Z" fill="url(#paint9_linear_245_8390)" fill-opacity="0.05"/>
<g style="mix-blend-mode:screen" filter="url(#filter8_f_245_8390)">
<circle cx="130.543" cy="103.194" r="3.39747" fill="white"/>
</g>
<g style="mix-blend-mode:screen" filter="url(#filter9_f_245_8390)">
<circle cx="130.543" cy="103.195" r="5.43594" fill="url(#paint10_radial_245_8390)" fill-opacity="0.19"/>
</g>
<g style="mix-blend-mode:screen" filter="url(#filter10_f_245_8390)">
<circle cx="224.978" cy="104.768" r="2.83263" fill="white"/>
</g>
<g style="mix-blend-mode:screen" filter="url(#filter11_f_245_8390)">
<circle cx="224.979" cy="104.769" r="4.53222" fill="url(#paint11_radial_245_8390)" fill-opacity="0.19"/>
</g>
<g style="mix-blend-mode:screen" filter="url(#filter12_f_245_8390)">
<circle cx="195.337" cy="175.595" r="2.83263" fill="white"/>
</g>
<g style="mix-blend-mode:screen" filter="url(#filter13_f_245_8390)">
<circle cx="195.336" cy="175.595" r="4.53222" fill="url(#paint12_radial_245_8390)" fill-opacity="0.19"/>
</g>
<path d="M182.944 52.0367L182.944 0.464355" stroke="url(#paint13_linear_245_8390)" stroke-opacity="0.7" stroke-width="1.59767" stroke-linecap="round"/>
<path d="M104.584 107.991L104.584 48.7863" stroke="url(#paint14_linear_245_8390)" stroke-opacity="0.7" stroke-width="1.59767" stroke-linecap="round"/>
<path d="M138.976 0.46437L138.976 -58.7407" stroke="url(#paint15_linear_245_8390)" stroke-opacity="0.7" stroke-width="1.59767" stroke-linecap="round"/>
<path d="M242.149 81.6393L242.149 -29.1382" stroke="url(#paint16_linear_245_8390)" stroke-opacity="0.7" stroke-width="1.59767" stroke-linecap="round"/>
<path d="M258.256 51.166L258.256 9.1709" stroke="url(#paint17_linear_245_8390)" stroke-opacity="0.7" stroke-width="1.59767" stroke-linecap="round"/>
<path d="M310.932 61.6139L310.932 27.4548" stroke="url(#paint18_linear_245_8390)" stroke-opacity="0.7" stroke-width="1.59767" stroke-linecap="round"/>
<g style="mix-blend-mode:screen" opacity="0.5" filter="url(#filter14_f_245_8390)">
<path d="M182.944 52.0368L182.944 0.464478" stroke="url(#paint19_linear_245_8390)" stroke-opacity="0.7" stroke-width="1.59767" stroke-linecap="round"/>
<path d="M104.584 107.991L104.584 48.7863" stroke="url(#paint20_linear_245_8390)" stroke-opacity="0.7" stroke-width="1.59767" stroke-linecap="round"/>
<path d="M242.149 81.6393L242.149 -29.1382" stroke="url(#paint21_linear_245_8390)" stroke-opacity="0.7" stroke-width="1.59767" stroke-linecap="round"/>
<path d="M258.257 51.166L258.257 9.1709" stroke="url(#paint22_linear_245_8390)" stroke-opacity="0.7" stroke-width="1.59767" stroke-linecap="round"/>
<path d="M310.932 61.6142L310.932 27.4551" stroke="url(#paint23_linear_245_8390)" stroke-opacity="0.7" stroke-width="1.59767" stroke-linecap="round"/>
</g>
</g>
<defs>
<filter id="filter0_b_245_8390" x="155.633" y="49.0809" width="214.691" height="215.814" filterUnits="userSpaceOnUse" color-interpolation-filters="sRGB">
<feFlood flood-opacity="0" result="BackgroundImageFix"/>
<feGaussianBlur in="BackgroundImageFix" stdDeviation="42.1263"/>
<feComposite in2="SourceAlpha" operator="in" result="effect1_backgroundBlur_245_8390"/>
<feBlend mode="normal" in="SourceGraphic" in2="effect1_backgroundBlur_245_8390" result="shape"/>
</filter>
<filter id="filter1_b_245_8390" x="134.297" y="-4.01849" width="253.834" height="283.512" filterUnits="userSpaceOnUse" color-interpolation-filters="sRGB">
<feFlood flood-opacity="0" result="BackgroundImageFix"/>
<feGaussianBlur in="BackgroundImageFix" stdDeviation="42.1263"/>
<feComposite in2="SourceAlpha" operator="in" result="effect1_backgroundBlur_245_8390"/>
<feBlend mode="normal" in="SourceGraphic" in2="effect1_backgroundBlur_245_8390" result="shape"/>
</filter>
<filter id="filter2_b_245_8390" x="106.663" y="88.7775" width="190.804" height="190.322" filterUnits="userSpaceOnUse" color-interpolation-filters="sRGB">
<feFlood flood-opacity="0" result="BackgroundImageFix"/>
<feGaussianBlur in="BackgroundImageFix" stdDeviation="42.1263"/>
<feComposite in2="SourceAlpha" operator="in" result="effect1_backgroundBlur_245_8390"/>
<feBlend mode="normal" in="SourceGraphic" in2="effect1_backgroundBlur_245_8390" result="shape"/>
</filter>
<filter id="filter3_b_245_8390" x="45.8153" y="-3.05596" width="212.446" height="281.587" filterUnits="userSpaceOnUse" color-interpolation-filters="sRGB">
<feFlood flood-opacity="0" result="BackgroundImageFix"/>
<feGaussianBlur in="BackgroundImageFix" stdDeviation="42.1263"/>
<feComposite in2="SourceAlpha" operator="in" result="effect1_backgroundBlur_245_8390"/>
<feBlend mode="normal" in="SourceGraphic" in2="effect1_backgroundBlur_245_8390" result="shape"/>
</filter>
<filter id="filter4_f_245_8390" x="126.92" y="77.0863" width="180.106" height="121.302" filterUnits="userSpaceOnUse" color-interpolation-filters="sRGB">
<feFlood flood-opacity="0" result="BackgroundImageFix"/>
<feBlend mode="normal" in="SourceGraphic" in2="BackgroundImageFix" result="shape"/>
<feGaussianBlur stdDeviation="1.57392" result="effect1_foregroundBlur_245_8390"/>
</filter>
<filter id="filter5_b_245_8390" x="134.297" y="-4.01849" width="253.834" height="283.512" filterUnits="userSpaceOnUse" color-interpolation-filters="sRGB">
<feFlood flood-opacity="0" result="BackgroundImageFix"/>
<feGaussianBlur in="BackgroundImageFix" stdDeviation="42.1263"/>
<feComposite in2="SourceAlpha" operator="in" result="effect1_backgroundBlur_245_8390"/>
<feBlend mode="normal" in="SourceGraphic" in2="effect1_backgroundBlur_245_8390" result="shape"/>
</filter>
<filter id="filter6_b_245_8390" x="106.663" y="88.7775" width="190.804" height="190.322" filterUnits="userSpaceOnUse" color-interpolation-filters="sRGB">
<feFlood flood-opacity="0" result="BackgroundImageFix"/>
<feGaussianBlur in="BackgroundImageFix" stdDeviation="42.1263"/>
<feComposite in2="SourceAlpha" operator="in" result="effect1_backgroundBlur_245_8390"/>
<feBlend mode="normal" in="SourceGraphic" in2="effect1_backgroundBlur_245_8390" result="shape"/>
</filter>
<filter id="filter7_b_245_8390" x="45.8153" y="-3.05596" width="212.446" height="281.587" filterUnits="userSpaceOnUse" color-interpolation-filters="sRGB">
<feFlood flood-opacity="0" result="BackgroundImageFix"/>
<feGaussianBlur in="BackgroundImageFix" stdDeviation="42.1263"/>
<feComposite in2="SourceAlpha" operator="in" result="effect1_backgroundBlur_245_8390"/>
<feBlend mode="normal" in="SourceGraphic" in2="effect1_backgroundBlur_245_8390" result="shape"/>
</filter>
<filter id="filter8_f_245_8390" x="118.146" y="90.7976" width="24.7934" height="24.7934" filterUnits="userSpaceOnUse" color-interpolation-filters="sRGB">
<feFlood flood-opacity="0" result="BackgroundImageFix"/>
<feBlend mode="normal" in="SourceGraphic" in2="BackgroundImageFix" result="shape"/>
<feGaussianBlur stdDeviation="4.49963" result="effect1_foregroundBlur_245_8390"/>
</filter>
<filter id="filter9_f_245_8390" x="122.708" y="95.3591" width="15.6717" height="15.6716" filterUnits="userSpaceOnUse" color-interpolation-filters="sRGB">
<feFlood flood-opacity="0" result="BackgroundImageFix"/>
<feBlend mode="normal" in="SourceGraphic" in2="BackgroundImageFix" result="shape"/>
<feGaussianBlur stdDeviation="1.1999" result="effect1_foregroundBlur_245_8390"/>
</filter>
<filter id="filter10_f_245_8390" x="213.146" y="92.9364" width="23.6636" height="23.6638" filterUnits="userSpaceOnUse" color-interpolation-filters="sRGB">
<feFlood flood-opacity="0" result="BackgroundImageFix"/>
<feBlend mode="normal" in="SourceGraphic" in2="BackgroundImageFix" result="shape"/>
<feGaussianBlur stdDeviation="4.49963" result="effect1_foregroundBlur_245_8390"/>
</filter>
<filter id="filter11_f_245_8390" x="218.046" y="97.8368" width="13.8641" height="13.8641" filterUnits="userSpaceOnUse" color-interpolation-filters="sRGB">
<feFlood flood-opacity="0" result="BackgroundImageFix"/>
<feBlend mode="normal" in="SourceGraphic" in2="BackgroundImageFix" result="shape"/>
<feGaussianBlur stdDeviation="1.1999" result="effect1_foregroundBlur_245_8390"/>
</filter>
<filter id="filter12_f_245_8390" x="183.505" y="163.763" width="23.6636" height="23.6638" filterUnits="userSpaceOnUse" color-interpolation-filters="sRGB">
<feFlood flood-opacity="0" result="BackgroundImageFix"/>
<feBlend mode="normal" in="SourceGraphic" in2="BackgroundImageFix" result="shape"/>
<feGaussianBlur stdDeviation="4.49963" result="effect1_foregroundBlur_245_8390"/>
</filter>
<filter id="filter13_f_245_8390" x="188.404" y="168.663" width="13.8641" height="13.8641" filterUnits="userSpaceOnUse" color-interpolation-filters="sRGB">
<feFlood flood-opacity="0" result="BackgroundImageFix"/>
<feBlend mode="normal" in="SourceGraphic" in2="BackgroundImageFix" result="shape"/>
<feGaussianBlur stdDeviation="1.1999" result="effect1_foregroundBlur_245_8390"/>
</filter>
<filter id="filter14_f_245_8390" x="100.303" y="-33.4197" width="230.147" height="145.692" filterUnits="userSpaceOnUse" color-interpolation-filters="sRGB">
<feFlood flood-opacity="0" result="BackgroundImageFix"/>
<feBlend mode="normal" in="SourceGraphic" in2="BackgroundImageFix" result="shape"/>
<feGaussianBlur stdDeviation="1.74133" result="effect1_foregroundBlur_245_8390"/>
</filter>
<linearGradient id="paint0_linear_245_8390" x1="240.288" y1="139.289" x2="285.764" y2="164.505" gradientUnits="userSpaceOnUse">
<stop stop-color="white"/>
<stop offset="1" stop-color="white" stop-opacity="0"/>
</linearGradient>
<linearGradient id="paint1_linear_245_8390" x1="218.96" y1="94.2833" x2="312.783" y2="178.277" gradientUnits="userSpaceOnUse">
<stop stop-color="white"/>
<stop offset="1" stop-color="white" stop-opacity="0"/>
</linearGradient>
<linearGradient id="paint2_linear_245_8390" x1="190.921" y1="175.639" x2="212.759" y2="188.321" gradientUnits="userSpaceOnUse">
<stop stop-color="white"/>
<stop offset="1" stop-color="white" stop-opacity="0"/>
</linearGradient>
<linearGradient id="paint3_linear_245_8390" x1="130.47" y1="95.0156" x2="241.038" y2="95.0156" gradientUnits="userSpaceOnUse">
<stop stop-color="white"/>
<stop offset="1" stop-color="white" stop-opacity="0"/>
</linearGradient>
<linearGradient id="paint4_linear_245_8390" x1="218.96" y1="94.2833" x2="312.783" y2="178.277" gradientUnits="userSpaceOnUse">
<stop stop-color="white"/>
<stop offset="1" stop-color="white" stop-opacity="0"/>
</linearGradient>
<linearGradient id="paint5_linear_245_8390" x1="190.921" y1="175.639" x2="212.759" y2="188.321" gradientUnits="userSpaceOnUse">
<stop stop-color="white"/>
<stop offset="1" stop-color="white" stop-opacity="0"/>
</linearGradient>
<linearGradient id="paint6_linear_245_8390" x1="130.47" y1="95.0156" x2="241.038" y2="95.0156" gradientUnits="userSpaceOnUse">
<stop stop-color="white"/>
<stop offset="1" stop-color="white" stop-opacity="0"/>
</linearGradient>
<linearGradient id="paint7_linear_245_8390" x1="239.334" y1="87.7764" x2="261.214" y2="194.847" gradientUnits="userSpaceOnUse">
<stop stop-color="white"/>
<stop offset="1" stop-color="white" stop-opacity="0"/>
</linearGradient>
<linearGradient id="paint8_linear_245_8390" x1="196.293" y1="174.396" x2="199.379" y2="195.245" gradientUnits="userSpaceOnUse">
<stop stop-color="white"/>
<stop offset="1" stop-color="white" stop-opacity="0"/>
</linearGradient>
<linearGradient id="paint9_linear_245_8390" x1="130.471" y1="101.811" x2="174.124" y2="181.837" gradientUnits="userSpaceOnUse">
<stop stop-color="white"/>
<stop offset="0.801337" stop-color="white" stop-opacity="0"/>
</linearGradient>
<radialGradient id="paint10_radial_245_8390" cx="0" cy="0" r="1" gradientUnits="userSpaceOnUse" gradientTransform="translate(130.543 103.195) rotate(90) scale(5.43594)">
<stop stop-color="white"/>
<stop offset="1" stop-color="white" stop-opacity="0"/>
</radialGradient>
<radialGradient id="paint11_radial_245_8390" cx="0" cy="0" r="1" gradientUnits="userSpaceOnUse" gradientTransform="translate(224.979 104.769) rotate(90) scale(4.53222)">
<stop stop-color="white"/>
<stop offset="1" stop-color="white" stop-opacity="0"/>
</radialGradient>
<radialGradient id="paint12_radial_245_8390" cx="0" cy="0" r="1" gradientUnits="userSpaceOnUse" gradientTransform="translate(195.336 175.595) rotate(90) scale(4.53222)">
<stop stop-color="white"/>
<stop offset="1" stop-color="white" stop-opacity="0"/>
</radialGradient>
<linearGradient id="paint13_linear_245_8390" x1="183.276" y1="0.464355" x2="183.276" y2="52.0367" gradientUnits="userSpaceOnUse">
<stop stop-color="white"/>
<stop offset="1" stop-color="white" stop-opacity="0"/>
</linearGradient>
<linearGradient id="paint14_linear_245_8390" x1="104.916" y1="48.7863" x2="104.916" y2="107.991" gradientUnits="userSpaceOnUse">
<stop stop-color="white"/>
<stop offset="1" stop-color="white" stop-opacity="0"/>
</linearGradient>
<linearGradient id="paint15_linear_245_8390" x1="139.307" y1="-58.7407" x2="139.307" y2="0.464371" gradientUnits="userSpaceOnUse">
<stop stop-color="white"/>
<stop offset="1" stop-color="white" stop-opacity="0"/>
</linearGradient>
<linearGradient id="paint16_linear_245_8390" x1="242.481" y1="-29.1382" x2="242.481" y2="81.6393" gradientUnits="userSpaceOnUse">
<stop stop-color="white"/>
<stop offset="1" stop-color="white" stop-opacity="0"/>
</linearGradient>
<linearGradient id="paint17_linear_245_8390" x1="258.588" y1="9.1709" x2="258.588" y2="51.166" gradientUnits="userSpaceOnUse">
<stop stop-color="white"/>
<stop offset="1" stop-color="white" stop-opacity="0"/>
</linearGradient>
<linearGradient id="paint18_linear_245_8390" x1="311.263" y1="27.4548" x2="311.263" y2="61.6139" gradientUnits="userSpaceOnUse">
<stop stop-color="white"/>
<stop offset="1" stop-color="white" stop-opacity="0"/>
</linearGradient>
<linearGradient id="paint19_linear_245_8390" x1="183.276" y1="0.464478" x2="183.276" y2="52.0368" gradientUnits="userSpaceOnUse">
<stop stop-color="white"/>
<stop offset="1" stop-color="white" stop-opacity="0"/>
</linearGradient>
<linearGradient id="paint20_linear_245_8390" x1="104.916" y1="48.7863" x2="104.916" y2="107.991" gradientUnits="userSpaceOnUse">
<stop stop-color="white"/>
<stop offset="1" stop-color="white" stop-opacity="0"/>
</linearGradient>
<linearGradient id="paint21_linear_245_8390" x1="242.481" y1="-29.1382" x2="242.481" y2="81.6393" gradientUnits="userSpaceOnUse">
<stop stop-color="white"/>
<stop offset="1" stop-color="white" stop-opacity="0"/>
</linearGradient>
<linearGradient id="paint22_linear_245_8390" x1="258.588" y1="9.1709" x2="258.588" y2="51.166" gradientUnits="userSpaceOnUse">
<stop stop-color="white"/>
<stop offset="1" stop-color="white" stop-opacity="0"/>
</linearGradient>
<linearGradient id="paint23_linear_245_8390" x1="311.263" y1="27.4551" x2="311.263" y2="61.6142" gradientUnits="userSpaceOnUse">
<stop stop-color="white"/>
<stop offset="1" stop-color="white" stop-opacity="0"/>
</linearGradient>
<clipPath id="clip0_245_8390">
<rect width="239.107" height="260" fill="white" transform="translate(97.4463)"/>
</clipPath>
</defs>
</svg>
