<svg xmlns="http://www.w3.org/2000/svg" width="208" height="224" fill="none" viewBox="0 0 208 224"><path stroke="url(#paint0_linear_13_11706)" stroke-width="2.54" d="M226.25 184.246C231.697 170.657 230.929 157.728 223.716 145.235C216.686 133.059 205.513 126.163 190.879 123.74C176.225 121.314 161.036 124.445 146.249 132.983C130.775 141.917 120.464 153.503 115.236 167.412C110.007 181.324 110.762 194.243 117.779 206.398C124.992 218.891 135.804 226.02 150.297 228.097C164.761 230.171 179.74 226.677 195.193 217.756C210.302 209.033 220.814 197.806 226.25 184.246Z"/><path stroke="url(#paint1_linear_13_11706)" stroke-linecap="round" stroke-width="2.54" d="M272.005 167.316C272.935 152.901 269.94 138.902 262.329 125.718C252.714 109.064 239.698 98.5382 223.974 93.7385C207.903 89.1391 191.26 89.9586 174.192 95.6497C185.773 85.2623 192.923 72.8077 196.135 57.5383C199.2 42.8161 196.9 28.4159 188.887 14.5381C181.676 2.04806 171.596 -7.39803 159.396 -13.3066C146.848 -19.0149 132.927 -20.6921 117.232 -19.0321C101.537 -17.3721 85.0162 -11.5344 68.3629 -1.91957C51.3625 7.89557 38.0463 19.2844 28.7613 32.0467C19.4762 44.8089 13.9682 57.7034 12.9849 71.2238C11.6546 84.9444 15.1423 98.1964 22.3534 110.686C30.5661 124.911 41.54 134.304 55.8222 139.01C69.7576 143.917 84.1185 143.953 98.9049 139.117C85.6424 151.4 76.9582 165.203 73.253 181.22"/><path stroke="url(#paint2_linear_13_11706)" stroke-linecap="round" stroke-width="2.539" d="M72.1652 193.086C71.6268 198.877 72.8912 214.038 82.2554 228.359"/><path stroke="url(#paint3_linear_13_11706)" stroke-width="2.54" d="M84.5541 26.1237C70.8401 34.0415 61.5005 44.1239 57.0509 56.211C52.2534 68.4992 53.1175 79.9775 59.3248 90.7288C65.92 102.152 75.4218 108.664 88.2971 110.307C101.007 112.495 114.206 109.082 127.889 101.182C141.239 93.4746 150.796 83.7405 155.25 71.6302C159.686 59.569 159.189 47.8934 152.771 36.7774C146.55 26.0022 136.683 19.7387 124.028 17.5514C111.335 15.3577 97.9295 18.4014 84.5541 26.1237Z"/><path stroke="url(#paint4_linear_13_11706)" stroke-linecap="round" stroke-width="2.54" d="M254.602 209.283C244.276 222.646 229.919 234.636 211.184 245.452C192.449 256.269 174.54 262.908 157.804 265.169C141.068 267.43 126.053 265.459 113.105 259.057"/><defs><linearGradient id="paint0_linear_13_11706" x1="146.711" x2="194.566" y1="134.183" y2="217.071" gradientUnits="userSpaceOnUse"><stop stop-color="#fff"/><stop offset=".8" stop-color="#fff" stop-opacity="0"/></linearGradient><linearGradient id="paint1_linear_13_11706" x1="102.241" x2="72.103" y1="-21.49" y2="215.909" gradientUnits="userSpaceOnUse"><stop offset=".149" stop-color="#fff" stop-opacity="0"/><stop offset=".518" stop-color="#fff"/></linearGradient><linearGradient id="paint2_linear_13_11706" x1="87.593" x2="62.584" y1="237.607" y2="199.35" gradientUnits="userSpaceOnUse"><stop offset=".251" stop-color="#fff"/><stop offset=".887" stop-color="#fff" stop-opacity="0"/></linearGradient><linearGradient id="paint3_linear_13_11706" x1="85.016" x2="127.081" y1="27.324" y2="100.182" gradientUnits="userSpaceOnUse"><stop offset=".1" stop-color="#fff" stop-opacity="0"/><stop offset="1" stop-color="#fff"/></linearGradient><linearGradient id="paint4_linear_13_11706" x1="269.301" x2="112.551" y1="168.79" y2="259.289" gradientUnits="userSpaceOnUse"><stop stop-color="#fff"/><stop offset="1" stop-color="#fff" stop-opacity="0"/></linearGradient></defs></svg>