<svg xmlns="http://www.w3.org/2000/svg" width="320" height="151" fill="none" viewBox="0 0 320 151"><path stroke="url(#paint0_linear_245_8383)" stroke-width="2.575" d="M318.384 175.684C319.775 160.906 315.312 148.557 304.709 138.484C294.374 128.666 281.529 125.173 266.605 127.023C251.661 128.876 237.794 136.286 225.871 148.837C213.394 161.97 206.699 176.198 205.614 191.224C204.529 206.252 208.975 218.595 219.292 228.396C229.895 238.469 242.456 242.293 257.143 240.147C271.802 238.006 285.361 230.305 297.821 217.19C310.003 204.366 316.997 190.43 318.384 175.684Z"/><path stroke="url(#paint1_linear_245_8383)" stroke-linecap="round" stroke-width="2.575" d="M358.004 146.073C354.765 131.791 347.83 119.041 336.64 108.411C322.506 94.983 306.826 88.4899 290.159 88.3426C273.213 88.4897 257.267 94.0697 242.308 104.508C250.583 91.0809 253.955 76.9171 252.689 61.1484C251.437 45.954 245.062 32.6146 233.284 21.4248C222.683 11.354 210.168 5.06714 196.608 2.8291C182.768 0.885534 168.751 3.25588 153.969 9.38068C139.187 15.5055 124.802 25.9295 111.375 40.0637C97.667 54.4925 87.9937 69.3924 82.6344 84.469C77.275 99.5456 75.6259 113.665 78.5557 127.093C81.2058 140.815 88.4054 152.697 99.0061 162.768C111.079 174.237 124.448 180.215 139.686 180.686C154.645 181.452 168.618 177.359 181.604 168.407C172.24 184.161 167.764 200.077 168.765 216.714"/><path stroke="url(#paint2_linear_245_8383)" stroke-width="2.575" d="M135.176 62.6752C124.119 74.3147 117.936 86.8015 117.084 99.832C115.951 113.158 120.09 124.069 129.215 132.738C138.911 141.949 150.02 145.549 163.01 143.446C175.996 141.92 187.848 134.809 198.881 123.195C209.645 111.865 216.139 99.6543 216.989 86.6C217.836 73.5985 213.997 62.3898 204.562 53.4269C195.417 44.7388 184.024 41.485 171.09 42.9958C158.12 44.511 145.961 51.323 135.176 62.6752Z"/><defs><linearGradient id="paint0_linear_245_8383" x1="226.665" x2="297.014" y1="149.871" y2="216.704" gradientUnits="userSpaceOnUse"><stop stop-color="#fff"/><stop offset=".8" stop-color="#fff" stop-opacity="0"/></linearGradient><linearGradient id="paint1_linear_245_8383" x1="138.687" x2="177.617" y1="11.3" y2="250.77" gradientUnits="userSpaceOnUse"><stop offset=".149" stop-color="#fff" stop-opacity="0"/><stop offset=".518" stop-color="#fff"/></linearGradient><linearGradient id="paint2_linear_245_8383" x1="135.97" x2="197.807" y1="63.709" y2="122.456" gradientUnits="userSpaceOnUse"><stop offset=".1" stop-color="#fff" stop-opacity="0"/><stop offset="1" stop-color="#fff"/></linearGradient></defs></svg>