<svg xmlns="http://www.w3.org/2000/svg" width="688" height="260" fill="none" viewBox="0 0 688 260"><mask id="mask0_13_11871" width="688" height="260" x="0" y="0" maskUnits="userSpaceOnUse" style="mask-type:alpha"><rect width="688" height="260" fill="url(#paint0_linear_13_11871)"/></mask><g mask="url(#mask0_13_11871)"><path fill="url(#paint1_linear_13_11871)" d="M189.941 15.2428V203.657H160.333V76.3427C157.641 77.9577 153.604 78.7651 148.49 78.7651H117.536V53.4639H147.144C151.451 53.4639 154.95 51.8489 157.372 48.6189C159.525 45.389 160.871 41.3516 160.871 35.9683V15.2428H189.941Z"/><path fill="url(#paint2_linear_13_11871)" fill-opacity=".2" d="M189.941 15.2428V203.657H160.333V76.3427C157.641 77.9577 153.604 78.7651 148.49 78.7651H117.536V53.4639H147.144C151.451 53.4639 154.95 51.8489 157.372 48.6189C159.525 45.389 160.871 41.3516 160.871 35.9683V15.2428H189.941Z"/><path fill="url(#paint3_linear_13_11871)" d="M712.457 84.6867C721.878 90.07 729.414 97.6065 734.798 107.296C740.181 116.986 742.872 128.022 742.872 140.403C742.872 154.131 739.642 165.705 733.721 175.394C727.53 185.084 719.186 192.621 708.958 197.466C698.461 202.58 686.887 205.002 674.505 205.002C660.509 205.002 648.396 202.311 638.168 196.927C627.94 191.544 619.865 184.277 614.213 175.125C608.291 165.974 605.061 155.476 604.523 144.172H634.131C635.207 154.4 639.245 163.013 646.781 169.742C654.049 176.74 663.2 179.97 674.505 179.97C680.965 179.97 687.156 178.624 693.077 175.394C698.999 172.434 703.575 167.858 707.343 161.936C710.842 156.015 712.726 149.017 712.726 140.403C712.726 129.099 709.227 119.678 702.229 112.141C695.231 104.874 686.079 101.106 674.774 101.106C667.238 101.106 659.701 102.99 652.434 106.22C644.897 109.719 639.783 115.64 636.822 124.254L608.022 123.715L613.674 15.2428H731.029V41.3516H641.129L637.63 93.8382C643.013 87.9167 649.473 83.6101 657.01 80.9184C664.546 78.2268 672.352 76.6118 680.696 76.6118C692.539 76.6118 703.036 79.3035 712.457 84.6867Z"/><path fill="url(#paint4_linear_13_11871)" d="M551.823 84.6867C561.243 90.07 568.78 97.6065 574.163 107.296C579.546 116.986 582.238 128.022 582.238 140.403C582.238 154.131 579.008 165.705 573.086 175.394C566.896 185.084 558.552 192.621 548.323 197.466C537.826 202.58 526.252 205.002 513.871 205.002C499.874 205.002 487.762 202.311 477.534 196.927C467.306 191.544 459.231 184.277 453.578 175.125C447.657 165.974 444.427 155.476 443.888 144.172H473.496C474.573 154.4 478.61 163.013 486.147 169.742C493.414 176.74 502.566 179.97 513.871 179.97C520.331 179.97 526.521 178.624 532.443 175.394C538.364 172.434 542.94 167.858 546.708 161.936C550.208 156.015 552.092 149.017 552.092 140.403C552.092 129.099 548.593 119.678 541.594 112.141C534.596 104.874 525.445 101.106 514.14 101.106C506.603 101.106 499.067 102.99 491.799 106.22C484.263 109.719 479.149 115.64 476.188 124.254L447.388 123.715L453.04 15.2428H570.395V41.3516H480.495L476.995 93.8382C482.379 87.9167 488.839 83.6101 496.375 80.9184C503.912 78.2268 511.717 76.6118 520.061 76.6118C531.905 76.6118 542.402 79.3035 551.823 84.6867Z"/><path fill="url(#paint5_linear_13_11871)" d="M391.188 84.6867C400.609 90.07 408.145 97.6065 413.529 107.296C418.912 116.986 421.603 128.022 421.603 140.403C421.603 154.131 418.373 165.705 412.452 175.394C406.261 185.084 397.917 192.621 387.689 197.466C377.192 202.58 365.618 205.002 353.236 205.002C339.24 205.002 327.127 202.311 316.899 196.927C306.671 191.544 298.596 184.277 292.944 175.125C287.022 165.974 283.792 155.476 283.254 144.172H312.862C313.938 154.4 317.976 163.013 325.512 169.742C332.78 176.74 341.931 179.97 353.236 179.97C359.696 179.97 365.887 178.624 371.808 175.394C377.73 172.434 382.306 167.858 386.074 161.936C389.573 156.015 391.457 149.017 391.457 140.403C391.457 129.099 387.958 119.678 380.96 112.141C373.962 104.874 364.81 101.106 353.505 101.106C345.969 101.106 338.432 102.99 331.165 106.22C323.628 109.719 318.514 115.64 315.553 124.254L286.753 123.715L292.405 15.2428H409.76V41.3516H319.86L316.361 93.8382C321.744 87.9167 328.204 83.6101 335.741 80.9184C343.277 78.2268 351.083 76.6118 359.427 76.6118C371.27 76.6118 381.767 79.3035 391.188 84.6867Z"/><path fill="url(#paint6_linear_13_11871)" d="M32.6081 69.0756H59.2552V114.564H102.321V139.058H59.2552V184.546H32.6081V139.058H-10.1887V114.564H32.6081V69.0756Z"/><path stroke="url(#paint7_linear_13_11871)" stroke-linecap="round" stroke-width="1.737" d="M637.291 197.934C626.989 192.512 618.855 185.192 613.161 175.974C607.197 166.755 603.943 156.182 603.401 144.794H633.224C634.309 155.097 638.376 163.773 645.967 170.551C653.287 177.6 662.506 180.854 673.893 180.854C680.4 180.854 686.635 179.498 692.6 176.245C698.565 173.262 703.174 168.653 706.97 162.689C710.494 156.724 712.392 149.675 712.392 140.999C712.392 129.612 708.868 120.122 701.818 112.531C694.769 105.211 685.551 101.415 674.164 101.415C666.572 101.415 658.981 103.313 651.661 106.566M730.828 14.9268V41.2256"/><path stroke="url(#paint8_linear_13_11871)" stroke-linecap="round" stroke-width="1.737" d="M708.596 198.477C718.898 193.596 727.303 186.005 733.539 176.245C739.504 166.484 742.757 154.826 742.757 140.999C742.757 128.527 740.046 117.411 734.624 107.651C729.201 97.8902 721.61 90.2988 712.12 84.8764C702.631 79.4539 692.057 76.7427 680.128 76.7427C671.723 76.7427 663.861 78.3694 656.269 81.0806C648.678 83.7919 642.171 88.1298 636.748 94.0945L640.273 41.2256H730.828V14.9268H612.618L607.236 123.294"/><path stroke="url(#paint9_linear_13_11871)" stroke-linecap="round" stroke-width="1.737" d="M464.2 14.9268H570.381V41.2256H479.827L478.064 67.6601"/><path stroke="url(#paint10_linear_13_11871)" stroke-linecap="round" stroke-width="1.737" d="M495.823 81.0807C503.414 78.3694 511.276 76.7427 519.681 76.7427C531.611 76.7427 542.184 79.4539 551.674 84.8764C561.163 90.2988 568.754 97.8902 574.177 107.651C579.599 117.411 582.311 128.527 582.311 140.999C582.311 154.826 579.057 166.484 573.092 176.245C566.857 186.005 558.452 193.596 548.149 198.477C537.575 203.628 525.917 206.068 513.445 206.068C499.347 206.068 487.147 203.357 476.844 197.934C466.541 192.512 458.408 185.192 452.714 175.974C446.749 166.755 443.496 156.182 442.954 144.794H472.777C473.862 155.097 477.928 163.773 485.52 170.551C492.84 177.6 502.058 180.854 513.445 180.854C519.952 180.854 526.188 179.498 532.153 176.245C538.118 173.262 542.727 168.653 546.522 162.689C550.047 156.724 551.945 149.675 551.945 140.999C551.945 129.612 548.42 120.122 541.371 112.531C534.322 105.211 525.104 101.415 513.717 101.415C506.125 101.415 498.534 103.313 491.213 106.566C483.622 110.091 478.471 116.055 475.488 124.731L446.478 124.189L450.801 41.2256"/><path stroke="url(#paint11_linear_13_11871)" stroke-linecap="round" stroke-width="1.737" d="M394.71 41.2256H319.533L317.771 67.6601"/><path stroke="url(#paint12_linear_13_11871)" stroke-linecap="round" stroke-width="1.737" d="M410.089 14.9268H291.88L286.186 124.189L315.196 124.731C318.178 116.055 323.33 110.091 330.921 106.566C338.241 103.313 345.833 101.415 353.424 101.415C364.811 101.415 374.03 105.211 381.079 112.531C388.128 120.122 391.653 129.612 391.653 140.999C391.653 149.675 389.755 156.724 386.23 162.689C382.434 168.653 377.825 173.262 371.861 176.245C365.896 179.498 359.66 180.854 353.153 180.854C341.766 180.854 332.548 177.6 325.228 170.551C317.636 163.773 313.569 155.097 312.485 144.794H282.661C283.204 156.182 286.457 166.755 292.422 175.974C298.115 185.192 306.249 192.512 316.552 197.934C326.854 203.357 339.055 206.068 353.153 206.068C365.625 206.068 377.283 203.628 387.857 198.477C398.16 193.596 406.564 186.005 412.8 176.245C418.765 166.484 422.018 154.826 422.018 140.999C422.018 128.527 419.307 117.411 413.885 107.651C408.462 97.8902 400.871 90.2988 391.381 84.8764C381.892 79.4539 371.318 76.7427 359.389 76.7427C350.984 76.7427 343.122 78.3694 335.53 81.0806"/><path stroke="url(#paint13_linear_13_11871)" stroke-linecap="round" stroke-width="1.737" d="M190.588 204.712H160.765V76.4716C158.054 78.0983 153.987 78.9117 148.836 78.9117H117.656V53.4262H147.48C151.818 53.4262 155.343 51.7994 157.783 48.5459C159.952 45.2925 161.307 41.2256 161.307 35.8032V14.9268H190.588V68.7757"/><path stroke="url(#paint14_linear_13_11871)" stroke-linecap="round" stroke-width="1.737" d="M166.701 206.016H190.153V105.257"/><path stroke="url(#paint15_linear_13_11871)" stroke-linecap="round" stroke-width="1.737" d="M58.9496 169.968V139.643H102.329V114.971H58.9496V69.1515H32.1084V114.971H10.5542"/><path stroke="url(#paint16_linear_13_11871)" stroke-linecap="round" stroke-width="1.737" d="M-11 114.971V139.643H32.1085V185.463H58.5598"/><path stroke="url(#paint17_linear_13_11871)" stroke-linecap="round" stroke-width="1.737" d="M708.959 197.466C698.462 202.58 686.888 205.002 674.506 205.002"/><g style="mix-blend-mode:screen" filter="url(#filter0_f_13_11871)"><path stroke="url(#paint18_linear_13_11871)" stroke-linecap="round" stroke-width="1.737" d="M637.291 197.934C626.989 192.512 618.855 185.192 613.161 175.974C607.197 166.755 603.943 156.182 603.401 144.794H633.224C634.309 155.097 638.376 163.773 645.967 170.551C653.287 177.6 662.506 180.854 673.893 180.854C680.4 180.854 686.635 179.498 692.6 176.245C698.565 173.262 703.174 168.653 706.97 162.689C710.494 156.724 712.392 149.675 712.392 140.999C712.392 129.612 708.868 120.122 701.818 112.531C694.769 105.211 685.551 101.415 674.164 101.415C666.572 101.415 658.981 103.313 651.661 106.566M730.828 14.9268V41.2256"/><path stroke="url(#paint19_linear_13_11871)" stroke-linecap="round" stroke-width="1.737" d="M708.596 198.477C718.898 193.596 727.303 186.005 733.539 176.245C739.504 166.484 742.757 154.826 742.757 140.999C742.757 128.527 740.046 117.411 734.624 107.651C729.201 97.8902 721.61 90.2988 712.12 84.8764C702.631 79.4539 692.057 76.7427 680.128 76.7427C671.723 76.7427 663.861 78.3694 656.269 81.0806C648.678 83.7919 642.171 88.1298 636.748 94.0945L640.273 41.2256H730.828V14.9268H612.618L607.236 123.294"/><path stroke="url(#paint20_linear_13_11871)" stroke-linecap="round" stroke-width="1.737" d="M464.2 14.9268H570.381V41.2256H479.827L478.064 67.6601"/><path stroke="url(#paint21_linear_13_11871)" stroke-linecap="round" stroke-width="1.737" d="M495.823 81.0807C503.414 78.3694 511.276 76.7427 519.681 76.7427C531.611 76.7427 542.184 79.4539 551.674 84.8764C561.163 90.2988 568.754 97.8902 574.177 107.651C579.599 117.411 582.311 128.527 582.311 140.999C582.311 154.826 579.057 166.484 573.092 176.245C566.857 186.005 558.452 193.596 548.149 198.477C537.575 203.628 525.917 206.068 513.445 206.068C499.347 206.068 487.147 203.357 476.844 197.934C466.541 192.512 458.408 185.192 452.714 175.974C446.749 166.755 443.496 156.182 442.954 144.794H472.777C473.862 155.097 477.928 163.773 485.52 170.551C492.84 177.6 502.058 180.854 513.445 180.854C519.952 180.854 526.188 179.498 532.153 176.245C538.118 173.262 542.727 168.653 546.522 162.689C550.047 156.724 551.945 149.675 551.945 140.999C551.945 129.612 548.42 120.122 541.371 112.531C534.322 105.211 525.104 101.415 513.717 101.415C506.125 101.415 498.534 103.313 491.213 106.566C483.622 110.091 478.471 116.055 475.488 124.731L446.478 124.189L450.801 41.2256"/><path stroke="url(#paint22_linear_13_11871)" stroke-linecap="round" stroke-width="1.737" d="M394.71 41.2256H319.533L317.771 67.6601"/><path stroke="url(#paint23_linear_13_11871)" stroke-linecap="round" stroke-width="1.737" d="M410.089 14.9268H291.88L286.186 124.189L315.196 124.731C318.178 116.055 323.33 110.091 330.921 106.566C338.241 103.313 345.833 101.415 353.424 101.415C364.811 101.415 374.03 105.211 381.079 112.531C388.128 120.122 391.653 129.612 391.653 140.999C391.653 149.675 389.755 156.724 386.23 162.689C382.434 168.653 377.825 173.262 371.861 176.245C365.896 179.498 359.66 180.854 353.153 180.854C341.766 180.854 332.548 177.6 325.228 170.551C317.636 163.773 313.569 155.097 312.485 144.794H282.661C283.204 156.182 286.457 166.755 292.422 175.974C298.115 185.192 306.249 192.512 316.552 197.934C326.854 203.357 339.055 206.068 353.153 206.068C365.625 206.068 377.283 203.628 387.857 198.477C398.16 193.596 406.564 186.005 412.8 176.245C418.765 166.484 422.018 154.826 422.018 140.999C422.018 128.527 419.307 117.411 413.885 107.651C408.462 97.8902 400.871 90.2988 391.381 84.8764C381.892 79.4539 371.318 76.7427 359.389 76.7427C350.984 76.7427 343.122 78.3694 335.53 81.0806"/><path stroke="url(#paint24_linear_13_11871)" stroke-linecap="round" stroke-width="1.737" d="M190.588 204.712H160.765V76.4716C158.054 78.0983 153.987 78.9117 148.836 78.9117H117.656V53.4262H147.48C151.818 53.4262 155.343 51.7994 157.783 48.5459C159.952 45.2925 161.307 41.2256 161.307 35.8032V14.9268H190.588V68.7757"/><path stroke="url(#paint25_linear_13_11871)" stroke-linecap="round" stroke-width="1.737" d="M166.701 206.016H190.153V105.257"/><path stroke="url(#paint26_linear_13_11871)" stroke-linecap="round" stroke-width="1.737" d="M58.9496 169.968V139.643H102.329V114.971H58.9496V69.1515H32.1084V114.971H10.5542"/><path stroke="url(#paint27_linear_13_11871)" stroke-linecap="round" stroke-width="1.737" d="M-11 114.971V139.643H32.1085V185.463H58.5598"/><path stroke="url(#paint28_linear_13_11871)" stroke-linecap="round" stroke-width="1.737" d="M708.959 197.466C698.462 202.58 686.888 205.002 674.506 205.002"/></g><g filter="url(#filter1_f_13_11871)"><g style="mix-blend-mode:screen" filter="url(#filter2_f_13_11871)"><circle cx="58.979" cy="114.98" r="14.808" fill="url(#paint29_radial_13_11871)" fill-opacity=".5" transform="rotate(90 58.9789 114.98)"/></g><g style="mix-blend-mode:screen"><circle cx="58.978" cy="114.979" r="8.121" fill="url(#paint30_radial_13_11871)" transform="rotate(90 58.9777 114.979)"/></g></g></g><defs><filter id="filter0_f_13_11871" width="971.851" height="205.187" x="-15.925" y="7.259" color-interpolation-filters="sRGB" filterUnits="userSpaceOnUse"><feFlood flood-opacity="0" result="BackgroundImageFix"/><feBlend in="SourceGraphic" in2="BackgroundImageFix" mode="normal" result="shape"/><feGaussianBlur result="effect1_foregroundBlur_13_11871" stdDeviation="2.028"/></filter><filter id="filter1_f_13_11871" width="50.635" height="50.635" x="33.662" y="89.662" color-interpolation-filters="sRGB" filterUnits="userSpaceOnUse"><feFlood flood-opacity="0" result="BackgroundImageFix"/><feBlend in="SourceGraphic" in2="BackgroundImageFix" mode="normal" result="shape"/><feGaussianBlur result="effect1_foregroundBlur_13_11871" stdDeviation="5.255"/></filter><filter id="filter2_f_13_11871" width="39.17" height="39.17" x="39.394" y="95.394" color-interpolation-filters="sRGB" filterUnits="userSpaceOnUse"><feFlood flood-opacity="0" result="BackgroundImageFix"/><feBlend in="SourceGraphic" in2="BackgroundImageFix" mode="normal" result="shape"/><feGaussianBlur result="effect1_foregroundBlur_13_11871" stdDeviation="2.388"/></filter><linearGradient id="paint0_linear_13_11871" x1="344" x2="344" y1="260" y2="0" gradientUnits="userSpaceOnUse"><stop offset=".221" stop-opacity="0"/><stop offset="1"/></linearGradient><linearGradient id="paint1_linear_13_11871" x1="153.738" x2="153.738" y1="15.243" y2="69.341" gradientUnits="userSpaceOnUse"><stop stop-color="#fff" stop-opacity=".05"/><stop offset="1" stop-color="#fff" stop-opacity="0"/></linearGradient><linearGradient id="paint2_linear_13_11871" x1="177.229" x2="190.211" y1="195.909" y2="207.267" gradientUnits="userSpaceOnUse"><stop stop-color="#fff" stop-opacity="0"/><stop offset="1" stop-color="#fff" stop-opacity=".05"/></linearGradient><linearGradient id="paint3_linear_13_11871" x1="626.302" x2="731.775" y1="118.426" y2="14.981" gradientUnits="userSpaceOnUse"><stop offset=".34" stop-color="#fff" stop-opacity="0"/><stop offset="1" stop-color="#fff" stop-opacity=".1"/></linearGradient><linearGradient id="paint4_linear_13_11871" x1="540.301" x2="480.676" y1="253.108" y2="32.639" gradientUnits="userSpaceOnUse"><stop stop-color="#fff" stop-opacity=".1"/><stop offset=".66" stop-color="#fff" stop-opacity="0"/></linearGradient><linearGradient id="paint5_linear_13_11871" x1="292.438" x2="345.581" y1="14.981" y2="61.227" gradientUnits="userSpaceOnUse"><stop stop-color="#fff" stop-opacity=".1"/><stop offset="1" stop-color="#fff" stop-opacity="0"/></linearGradient><linearGradient id="paint6_linear_13_11871" x1="96.502" x2="23.887" y1="66.774" y2="144.795" gradientUnits="userSpaceOnUse"><stop stop-color="#fff" stop-opacity=".05"/><stop offset="1" stop-color="#fff" stop-opacity="0"/></linearGradient><linearGradient id="paint7_linear_13_11871" x1="647.042" x2="647.042" y1="101.783" y2="200.804" gradientUnits="userSpaceOnUse"><stop offset=".05" stop-color="#FD366E" stop-opacity="0"/><stop offset=".364" stop-color="#fff"/></linearGradient><linearGradient id="paint8_linear_13_11871" x1="608.389" x2="684.392" y1="100.914" y2="213.833" gradientUnits="userSpaceOnUse"><stop offset=".192" stop-color="#fff"/><stop offset="1" stop-color="#fff" stop-opacity="0"/></linearGradient><linearGradient id="paint9_linear_13_11871" x1="452.04" x2="452.04" y1="15.356" y2="75.29" gradientUnits="userSpaceOnUse"><stop stop-color="#fff"/><stop offset=".865" stop-color="#fff" stop-opacity="0"/></linearGradient><linearGradient id="paint10_linear_13_11871" x1="451.171" x2="512.632" y1="41.415" y2="206.068" gradientUnits="userSpaceOnUse"><stop offset=".026" stop-color="#FD366E" stop-opacity="0"/><stop offset=".378" stop-color="#fff"/></linearGradient><linearGradient id="paint11_linear_13_11871" x1="324.892" x2="317.59" y1="32.831" y2="70.963" gradientUnits="userSpaceOnUse"><stop stop-color="#fff"/><stop offset=".815" stop-color="#FD366E" stop-opacity="0"/></linearGradient><linearGradient id="paint12_linear_13_11871" x1="280.924" x2="422.252" y1="145.647" y2="8.896" gradientUnits="userSpaceOnUse"><stop offset=".754" stop-color="#fff"/><stop offset=".885" stop-color="#FD366E" stop-opacity="0"/></linearGradient><linearGradient id="paint13_linear_13_11871" x1="154.122" x2="190.589" y1="14.927" y2="204.713" gradientUnits="userSpaceOnUse"><stop offset=".525" stop-color="#fff"/><stop offset=".85" stop-color="#fff" stop-opacity="0"/></linearGradient><linearGradient id="paint14_linear_13_11871" x1="190.588" x2="186.794" y1="105.692" y2="207.185" gradientUnits="userSpaceOnUse"><stop stop-color="#FD366E" stop-opacity="0"/><stop offset="1" stop-color="#fff"/></linearGradient><linearGradient id="paint15_linear_13_11871" x1="58.993" x2="58.993" y1="169.968" y2="114.378" gradientUnits="userSpaceOnUse"><stop offset=".177" stop-color="#FD366E" stop-opacity="0"/><stop offset="1" stop-color="#fff"/></linearGradient><linearGradient id="paint16_linear_13_11871" x1="-10.929" x2="52.045" y1="113.075" y2="185.603" gradientUnits="userSpaceOnUse"><stop offset=".105" stop-color="#fff" stop-opacity="0"/><stop offset="1" stop-color="#fff"/></linearGradient><linearGradient id="paint17_linear_13_11871" x1="669.134" x2="708.652" y1="203.843" y2="197.531" gradientUnits="userSpaceOnUse"><stop offset=".205" stop-color="#fff" stop-opacity="0"/><stop offset="1" stop-color="#fff"/></linearGradient><linearGradient id="paint18_linear_13_11871" x1="647.042" x2="647.042" y1="101.783" y2="200.804" gradientUnits="userSpaceOnUse"><stop offset=".05" stop-color="#FD366E" stop-opacity="0"/><stop offset=".364" stop-color="#fff"/></linearGradient><linearGradient id="paint19_linear_13_11871" x1="608.389" x2="684.392" y1="100.914" y2="213.833" gradientUnits="userSpaceOnUse"><stop offset=".192" stop-color="#fff"/><stop offset="1" stop-color="#fff" stop-opacity="0"/></linearGradient><linearGradient id="paint20_linear_13_11871" x1="452.04" x2="452.04" y1="15.356" y2="75.29" gradientUnits="userSpaceOnUse"><stop stop-color="#fff"/><stop offset=".865" stop-color="#fff" stop-opacity="0"/></linearGradient><linearGradient id="paint21_linear_13_11871" x1="451.171" x2="512.632" y1="41.415" y2="206.068" gradientUnits="userSpaceOnUse"><stop offset=".026" stop-color="#FD366E" stop-opacity="0"/><stop offset=".378" stop-color="#fff"/></linearGradient><linearGradient id="paint22_linear_13_11871" x1="324.892" x2="317.59" y1="32.831" y2="70.963" gradientUnits="userSpaceOnUse"><stop stop-color="#fff"/><stop offset=".815" stop-color="#FD366E" stop-opacity="0"/></linearGradient><linearGradient id="paint23_linear_13_11871" x1="280.924" x2="422.252" y1="145.647" y2="8.896" gradientUnits="userSpaceOnUse"><stop offset=".754" stop-color="#fff"/><stop offset=".885" stop-color="#FD366E" stop-opacity="0"/></linearGradient><linearGradient id="paint24_linear_13_11871" x1="154.122" x2="190.589" y1="14.927" y2="204.713" gradientUnits="userSpaceOnUse"><stop offset=".525" stop-color="#fff"/><stop offset=".85" stop-color="#fff" stop-opacity="0"/></linearGradient><linearGradient id="paint25_linear_13_11871" x1="190.588" x2="186.794" y1="105.692" y2="207.185" gradientUnits="userSpaceOnUse"><stop stop-color="#FD366E" stop-opacity="0"/><stop offset="1" stop-color="#fff"/></linearGradient><linearGradient id="paint26_linear_13_11871" x1="58.993" x2="58.993" y1="169.968" y2="114.378" gradientUnits="userSpaceOnUse"><stop offset=".177" stop-color="#FD366E" stop-opacity="0"/><stop offset="1" stop-color="#fff"/></linearGradient><linearGradient id="paint27_linear_13_11871" x1="-10.929" x2="52.045" y1="113.075" y2="185.603" gradientUnits="userSpaceOnUse"><stop offset=".105" stop-color="#fff" stop-opacity="0"/><stop offset="1" stop-color="#fff"/></linearGradient><linearGradient id="paint28_linear_13_11871" x1="669.134" x2="708.652" y1="203.843" y2="197.531" gradientUnits="userSpaceOnUse"><stop offset=".205" stop-color="#fff" stop-opacity="0"/><stop offset="1" stop-color="#fff"/></linearGradient><radialGradient id="paint29_radial_13_11871" cx="0" cy="0" r="1" gradientTransform="translate(58.9789 114.98) rotate(90) scale(14.8082)" gradientUnits="userSpaceOnUse"><stop stop-color="#fff"/><stop offset="1" stop-color="#fff" stop-opacity="0"/></radialGradient><radialGradient id="paint30_radial_13_11871" cx="0" cy="0" r="1" gradientTransform="translate(58.9777 114.979) rotate(90) scale(8.12065)" gradientUnits="userSpaceOnUse"><stop stop-color="#fff"/><stop offset="1" stop-color="#fff" stop-opacity="0"/></radialGradient></defs></svg>