<svg width="568" height="326" viewBox="0 0 568 326" fill="none" xmlns="http://www.w3.org/2000/svg">
<g clip-path="url(#clip0_5463_5822)">
<path d="M0 0H568V326H0V0Z" fill="#19191C"/>
<rect x="14" y="14" width="16" height="16" rx="4" fill="white"/>
<circle cx="22" cy="22" r="4" fill="black"/>
<path d="M41.696 26H40.2983L43.4389 17.2727H44.9602L48.1009 26H46.7031L44.2358 18.858H44.1676L41.696 26ZM41.9304 22.5824H46.4645V23.6903H41.9304V22.5824ZM51.8565 26.1321C51.223 26.1321 50.6775 25.9886 50.2201 25.7017C49.7656 25.4119 49.4162 25.0128 49.1719 24.5043C48.9275 23.9957 48.8054 23.4134 48.8054 22.7571C48.8054 22.0923 48.9304 21.5057 49.1804 20.9972C49.4304 20.4858 49.7826 20.0866 50.2372 19.7997C50.6917 19.5128 51.2273 19.3693 51.8437 19.3693C52.3409 19.3693 52.7841 19.4616 53.1733 19.6463C53.5625 19.8281 53.8764 20.0838 54.115 20.4134C54.3565 20.7429 54.5 21.1278 54.5454 21.5682H53.3054C53.2372 21.2614 53.0809 20.9972 52.8366 20.7756C52.5951 20.554 52.2713 20.4432 51.865 20.4432C51.5099 20.4432 51.1988 20.5369 50.9318 20.7244C50.6676 20.9091 50.4616 21.1733 50.3139 21.517C50.1662 21.858 50.0923 22.2614 50.0923 22.7273C50.0923 23.2045 50.1648 23.6165 50.3096 23.9631C50.4545 24.3097 50.6591 24.5781 50.9233 24.7685C51.1903 24.9588 51.5042 25.054 51.865 25.054C52.1065 25.054 52.3253 25.0099 52.5213 24.9219C52.7201 24.831 52.8863 24.7017 53.0199 24.5341C53.1562 24.3665 53.2514 24.1648 53.3054 23.929H54.5454C54.5 24.3523 54.3622 24.7301 54.1321 25.0625C53.902 25.3949 53.5937 25.6562 53.2074 25.8466C52.8238 26.0369 52.3736 26.1321 51.8565 26.1321ZM55.854 26V19.4545H57.077V20.5199H57.158C57.2943 20.1591 57.5174 19.8778 57.827 19.6761C58.1367 19.4716 58.5074 19.3693 58.9392 19.3693C59.3767 19.3693 59.7432 19.4716 60.0387 19.6761C60.337 19.8807 60.5571 20.1619 60.6992 20.5199H60.7674C60.9236 20.1705 61.1722 19.892 61.5131 19.6847C61.854 19.4744 62.2603 19.3693 62.7318 19.3693C63.3256 19.3693 63.81 19.5554 64.185 19.9276C64.5628 20.2997 64.7517 20.8608 64.7517 21.6108V26H63.4776V21.7301C63.4776 21.2869 63.3568 20.9659 63.1154 20.767C62.8739 20.5682 62.5855 20.4688 62.2503 20.4688C61.8355 20.4688 61.5131 20.5966 61.283 20.8523C61.0529 21.1051 60.9378 21.4304 60.9378 21.8281V26H59.6679V21.6491C59.6679 21.294 59.5571 21.0085 59.3355 20.7926C59.1139 20.5767 58.8256 20.4688 58.4705 20.4688C58.229 20.4688 58.006 20.5327 57.8014 20.6605C57.5997 20.7855 57.4364 20.9602 57.3114 21.1847C57.1892 21.4091 57.1282 21.669 57.1282 21.9645V26H55.854ZM69.2265 26.1321C68.5816 26.1321 68.0262 25.9943 67.5603 25.7188C67.0972 25.4403 66.7393 25.0497 66.4864 24.5469C66.2364 24.0412 66.1114 23.4489 66.1114 22.7699C66.1114 22.0994 66.2364 21.5085 66.4864 20.9972C66.7393 20.4858 67.0916 20.0866 67.5433 19.7997C67.9978 19.5128 68.5291 19.3693 69.137 19.3693C69.5063 19.3693 69.8643 19.4304 70.2109 19.5526C70.5575 19.6747 70.8685 19.8665 71.1441 20.1278C71.4197 20.3892 71.637 20.7287 71.7961 21.1463C71.9552 21.5611 72.0347 22.0653 72.0347 22.6591V23.1108H66.8316V22.1562H70.7862C70.7862 21.821 70.718 21.5241 70.5816 21.2656C70.4452 21.0043 70.2535 20.7983 70.0063 20.6477C69.762 20.4972 69.4751 20.4219 69.1455 20.4219C68.7876 20.4219 68.4751 20.5099 68.208 20.6861C67.9438 20.8594 67.7393 21.0866 67.5944 21.3679C67.4523 21.6463 67.3813 21.9489 67.3813 22.2756V23.0213C67.3813 23.4588 67.458 23.831 67.6114 24.1378C67.7677 24.4446 67.985 24.679 68.2634 24.8409C68.5418 25 68.8671 25.0795 69.2393 25.0795C69.4808 25.0795 69.7009 25.0455 69.8998 24.9773C70.0987 24.9062 70.2705 24.8011 70.4154 24.6619C70.5603 24.5227 70.6711 24.3509 70.7478 24.1463L71.9538 24.3636C71.8572 24.7187 71.6839 25.0298 71.4339 25.2969C71.1867 25.5611 70.8756 25.767 70.5006 25.9148C70.1285 26.0597 69.7038 26.1321 69.2265 26.1321ZM74.2339 26.081C74.001 26.081 73.8007 25.9986 73.6331 25.8338C73.4655 25.6662 73.3817 25.4645 73.3817 25.2287C73.3817 24.9957 73.4655 24.7969 73.6331 24.6321C73.8007 24.4645 74.001 24.3807 74.2339 24.3807C74.4669 24.3807 74.6672 24.4645 74.8348 24.6321C75.0024 24.7969 75.0862 24.9957 75.0862 25.2287C75.0862 25.3849 75.0464 25.5284 74.9669 25.6591C74.8902 25.7869 74.7879 25.8892 74.6601 25.9659C74.5322 26.0426 74.3902 26.081 74.2339 26.081ZM78.1579 17.2727V26H76.8412V17.2727H78.1579ZM81.1934 22.1136V26H79.9193V19.4545H81.1423V20.5199H81.2232C81.3738 20.1733 81.6096 19.8949 81.9306 19.6847C82.2545 19.4744 82.6621 19.3693 83.1536 19.3693C83.5996 19.3693 83.9903 19.4631 84.3255 19.6506C84.6607 19.8352 84.9207 20.1108 85.1053 20.4773C85.29 20.8437 85.3823 21.2969 85.3823 21.8366V26H84.1082V21.9901C84.1082 21.5156 83.9846 21.1449 83.7374 20.8778C83.4903 20.608 83.1508 20.473 82.719 20.473C82.4235 20.473 82.1607 20.5369 81.9306 20.6648C81.7033 20.7926 81.5229 20.9801 81.3894 21.2273C81.2587 21.4716 81.1934 21.767 81.1934 22.1136ZM89.7942 26.1321C89.1607 26.1321 88.6153 25.9886 88.1579 25.7017C87.7033 25.4119 87.3539 25.0128 87.1096 24.5043C86.8653 23.9957 86.7431 23.4134 86.7431 22.7571C86.7431 22.0923 86.8681 21.5057 87.1181 20.9972C87.3681 20.4858 87.7204 20.0866 88.1749 19.7997C88.6295 19.5128 89.165 19.3693 89.7814 19.3693C90.2786 19.3693 90.7218 19.4616 91.111 19.6463C91.5002 19.8281 91.8141 20.0838 92.0528 20.4134C92.2942 20.7429 92.4377 21.1278 92.4832 21.5682H91.2431C91.1749 21.2614 91.0187 20.9972 90.7743 20.7756C90.5329 20.554 90.209 20.4432 89.8028 20.4432C89.4476 20.4432 89.1366 20.5369 88.8695 20.7244C88.6053 20.9091 88.3993 21.1733 88.2516 21.517C88.1039 21.858 88.03 22.2614 88.03 22.7273C88.03 23.2045 88.1025 23.6165 88.2474 23.9631C88.3922 24.3097 88.5968 24.5781 88.861 24.7685C89.128 24.9588 89.442 25.054 89.8028 25.054C90.0442 25.054 90.263 25.0099 90.459 24.9219C90.6579 24.831 90.8241 24.7017 90.9576 24.5341C91.0939 24.3665 91.1891 24.1648 91.2431 23.929H92.4832C92.4377 24.3523 92.2999 24.7301 92.0698 25.0625C91.8397 25.3949 91.5314 25.6562 91.1451 25.8466C90.7616 26.0369 90.3113 26.1321 89.7942 26.1321Z" fill="#E4E4E7"/>
<path d="M12 67C12 63.6863 14.6863 61 18 61H102C105.314 61 108 63.6863 108 67V67C108 70.3137 105.314 73 102 73H18C14.6863 73 12 70.3137 12 67V67Z" fill="white" fill-opacity="0.1"/>
<path d="M12 85C12 81.6863 14.6863 79 18 79H102C105.314 79 108 81.6863 108 85V85C108 88.3137 105.314 91 102 91H18C14.6863 91 12 88.3137 12 85V85Z" fill="white" fill-opacity="0.1"/>
<path d="M12 103C12 99.6863 14.6863 97 18 97H102C105.314 97 108 99.6863 108 103V103C108 106.314 105.314 109 102 109H18C14.6863 109 12 106.314 12 103V103Z" fill="white" fill-opacity="0.1"/>
<path d="M12 121C12 117.686 14.6863 115 18 115H102C105.314 115 108 117.686 108 121V121C108 124.314 105.314 127 102 127H18C14.6863 127 12 124.314 12 121V121Z" fill="white" fill-opacity="0.1"/>
<rect width="448" height="34" transform="translate(120)" fill="#1D1D21"/>
<path d="M140 17C140 14.2386 142.239 12 145 12H159C161.761 12 164 14.2386 164 17V17C164 19.7614 161.761 22 159 22H145C142.239 22 140 19.7614 140 17V17Z" fill="white" fill-opacity="0.1"/>
<path d="M172 17C172 14.2386 174.239 12 177 12H504C506.761 12 509 14.2386 509 17V17C509 19.7614 506.761 22 504 22H177C174.239 22 172 19.7614 172 17V17Z" fill="white" fill-opacity="0.1"/>
<path d="M519.767 13.6818V19.5H518.886V14.5625H518.852L517.46 15.4716V14.6307L518.912 13.6818H519.767ZM521.876 18.7784C521.721 18.7784 521.587 18.7235 521.475 18.6136C521.364 18.5019 521.308 18.3674 521.308 18.2102C521.308 18.0549 521.364 17.9223 521.475 17.8125C521.587 17.7008 521.721 17.6449 521.876 17.6449C522.031 17.6449 522.165 17.7008 522.276 17.8125C522.388 17.9223 522.444 18.0549 522.444 18.2102C522.444 18.3144 522.418 18.41 522.365 18.4972C522.313 18.5824 522.245 18.6506 522.16 18.7017C522.075 18.7528 521.98 18.7784 521.876 18.7784ZM521.876 15.8636C521.721 15.8636 521.587 15.8087 521.475 15.6989C521.364 15.5871 521.308 15.4527 521.308 15.2955C521.308 15.1402 521.364 15.0076 521.475 14.8977C521.587 14.786 521.721 14.7301 521.876 14.7301C522.031 14.7301 522.165 14.786 522.276 14.8977C522.388 15.0076 522.444 15.1402 522.444 15.2955C522.444 15.3996 522.418 15.4953 522.365 15.5824C522.313 15.6676 522.245 15.7358 522.16 15.7869C522.075 15.8381 521.98 15.8636 521.876 15.8636ZM525.56 19.5795C525.17 19.5795 524.821 19.5123 524.515 19.3778C524.21 19.2434 523.968 19.0568 523.79 18.8182C523.614 18.5777 523.519 18.2992 523.506 17.983H524.398C524.41 18.1553 524.467 18.3049 524.571 18.4318C524.678 18.5568 524.816 18.6534 524.986 18.7216C525.157 18.7898 525.346 18.8239 525.554 18.8239C525.784 18.8239 525.986 18.7841 526.162 18.7045C526.34 18.625 526.48 18.5142 526.58 18.3722C526.68 18.2282 526.731 18.0625 526.731 17.875C526.731 17.6799 526.68 17.5085 526.58 17.3608C526.482 17.2112 526.337 17.0937 526.145 17.0085C525.956 16.9233 525.727 16.8807 525.458 16.8807H524.966V16.1648H525.458C525.674 16.1648 525.863 16.1259 526.026 16.0483C526.191 15.9706 526.32 15.8627 526.412 15.7244C526.505 15.5843 526.552 15.4205 526.552 15.233C526.552 15.053 526.511 14.8968 526.429 14.7642C526.35 14.6297 526.236 14.5246 526.089 14.4489C525.943 14.3731 525.77 14.3352 525.571 14.3352C525.382 14.3352 525.205 14.3703 525.04 14.4403C524.877 14.5085 524.745 14.607 524.642 14.7358C524.54 14.8627 524.485 15.0152 524.478 15.1932H523.628C523.638 14.8788 523.731 14.6023 523.907 14.3636C524.085 14.125 524.32 13.9384 524.611 13.804C524.903 13.6695 525.227 13.6023 525.583 13.6023C525.956 13.6023 526.278 13.6752 526.549 13.821C526.821 13.965 527.032 14.1572 527.179 14.3977C527.329 14.6383 527.403 14.9015 527.401 15.1875C527.403 15.5133 527.312 15.7898 527.128 16.017C526.946 16.2443 526.704 16.3968 526.401 16.4744V16.5199C526.787 16.5786 527.087 16.732 527.299 16.9801C527.513 17.2282 527.619 17.536 527.617 17.9034C527.619 18.2235 527.53 18.5104 527.35 18.7642C527.172 19.018 526.928 19.2178 526.62 19.3636C526.311 19.5076 525.958 19.5795 525.56 19.5795ZM528.655 19.5V18.8636L530.624 16.8239C530.834 16.6023 531.007 16.4081 531.143 16.2415C531.282 16.0729 531.385 15.9129 531.453 15.7614C531.521 15.6098 531.555 15.4489 531.555 15.2784C531.555 15.0852 531.51 14.9186 531.419 14.7784C531.328 14.6364 531.204 14.5275 531.047 14.4517C530.89 14.3741 530.713 14.3352 530.516 14.3352C530.307 14.3352 530.125 14.3778 529.97 14.4631C529.815 14.5483 529.696 14.6686 529.612 14.8239C529.529 14.9792 529.487 15.161 529.487 15.3693H528.649C528.649 15.0152 528.731 14.7055 528.893 14.4403C529.056 14.1752 529.28 13.9697 529.564 13.8239C529.848 13.6761 530.171 13.6023 530.533 13.6023C530.898 13.6023 531.22 13.6752 531.499 13.821C531.779 13.965 531.998 14.1619 532.155 14.4119C532.312 14.66 532.391 14.9403 532.391 15.2528C532.391 15.4688 532.35 15.6799 532.268 15.8864C532.189 16.0928 532.05 16.3229 531.851 16.5767C531.652 16.8286 531.375 17.1345 531.021 17.4943L529.865 18.7045V18.7472H532.484V19.5H528.655ZM535.686 19.5V13.6818H537.76C538.212 13.6818 538.587 13.7642 538.885 13.929C539.182 14.0937 539.405 14.3191 539.552 14.6051C539.7 14.8892 539.774 15.2093 539.774 15.5653C539.774 15.9233 539.699 16.2453 539.549 16.5312C539.402 16.8153 539.178 17.0407 538.879 17.2074C538.582 17.3722 538.208 17.4545 537.757 17.4545H536.331V16.7102H537.677C537.963 16.7102 538.195 16.661 538.373 16.5625C538.551 16.4621 538.682 16.3258 538.765 16.1534C538.849 15.9811 538.89 15.785 538.89 15.5653C538.89 15.3456 538.849 15.1506 538.765 14.9801C538.682 14.8097 538.55 14.6761 538.37 14.5795C538.192 14.483 537.958 14.4347 537.666 14.4347H536.564V19.5H535.686ZM540.767 13.6818H541.832L543.685 18.2045H543.753L545.605 13.6818H546.67V19.5H545.835V15.2898H545.781L544.065 19.4915H543.372L541.656 15.2869H541.602V19.5H540.767V13.6818Z" fill="#C3C3C6"/>
<path d="M120 34L568 34" stroke="white" stroke-opacity="0.06"/>
<rect width="448" height="34" transform="translate(120 34)" fill="#1D1D21"/>
<path d="M140 51C140 48.2386 142.239 46 145 46H159C161.761 46 164 48.2386 164 51V51C164 53.7614 161.761 56 159 56H145C142.239 56 140 53.7614 140 51V51Z" fill="white" fill-opacity="0.1"/>
<path d="M172 51C172 48.2386 174.239 46 177 46H504C506.761 46 509 48.2386 509 51V51C509 53.7614 506.761 56 504 56H177C174.239 56 172 53.7614 172 51V51Z" fill="white" fill-opacity="0.1"/>
<path d="M519.767 47.6818V53.5H518.886V48.5625H518.852L517.46 49.4716V48.6307L518.912 47.6818H519.767ZM521.876 52.7784C521.721 52.7784 521.587 52.7235 521.475 52.6136C521.364 52.5019 521.308 52.3674 521.308 52.2102C521.308 52.0549 521.364 51.9223 521.475 51.8125C521.587 51.7008 521.721 51.6449 521.876 51.6449C522.031 51.6449 522.165 51.7008 522.276 51.8125C522.388 51.9223 522.444 52.0549 522.444 52.2102C522.444 52.3144 522.418 52.41 522.365 52.4972C522.313 52.5824 522.245 52.6506 522.16 52.7017C522.075 52.7528 521.98 52.7784 521.876 52.7784ZM521.876 49.8636C521.721 49.8636 521.587 49.8087 521.475 49.6989C521.364 49.5871 521.308 49.4527 521.308 49.2955C521.308 49.1402 521.364 49.0076 521.475 48.8977C521.587 48.786 521.721 48.7301 521.876 48.7301C522.031 48.7301 522.165 48.786 522.276 48.8977C522.388 49.0076 522.444 49.1402 522.444 49.2955C522.444 49.3996 522.418 49.4953 522.365 49.5824C522.313 49.6676 522.245 49.7358 522.16 49.7869C522.075 49.8381 521.98 49.8636 521.876 49.8636ZM525.56 53.5795C525.17 53.5795 524.821 53.5123 524.515 53.3778C524.21 53.2434 523.968 53.0568 523.79 52.8182C523.614 52.5777 523.519 52.2992 523.506 51.983H524.398C524.41 52.1553 524.467 52.3049 524.571 52.4318C524.678 52.5568 524.816 52.6534 524.986 52.7216C525.157 52.7898 525.346 52.8239 525.554 52.8239C525.784 52.8239 525.986 52.7841 526.162 52.7045C526.34 52.625 526.48 52.5142 526.58 52.3722C526.68 52.2282 526.731 52.0625 526.731 51.875C526.731 51.6799 526.68 51.5085 526.58 51.3608C526.482 51.2112 526.337 51.0937 526.145 51.0085C525.956 50.9233 525.727 50.8807 525.458 50.8807H524.966V50.1648H525.458C525.674 50.1648 525.863 50.1259 526.026 50.0483C526.191 49.9706 526.32 49.8627 526.412 49.7244C526.505 49.5843 526.552 49.4205 526.552 49.233C526.552 49.053 526.511 48.8968 526.429 48.7642C526.35 48.6297 526.236 48.5246 526.089 48.4489C525.943 48.3731 525.77 48.3352 525.571 48.3352C525.382 48.3352 525.205 48.3703 525.04 48.4403C524.877 48.5085 524.745 48.607 524.642 48.7358C524.54 48.8627 524.485 49.0152 524.478 49.1932H523.628C523.638 48.8788 523.731 48.6023 523.907 48.3636C524.085 48.125 524.32 47.9384 524.611 47.804C524.903 47.6695 525.227 47.6023 525.583 47.6023C525.956 47.6023 526.278 47.6752 526.549 47.821C526.821 47.965 527.032 48.1572 527.179 48.3977C527.329 48.6383 527.403 48.9015 527.401 49.1875C527.403 49.5133 527.312 49.7898 527.128 50.017C526.946 50.2443 526.704 50.3968 526.401 50.4744V50.5199C526.787 50.5786 527.087 50.732 527.299 50.9801C527.513 51.2282 527.619 51.536 527.617 51.9034C527.619 52.2235 527.53 52.5104 527.35 52.7642C527.172 53.018 526.928 53.2178 526.62 53.3636C526.311 53.5076 525.958 53.5795 525.56 53.5795ZM528.655 53.5V52.8636L530.624 50.8239C530.834 50.6023 531.007 50.4081 531.143 50.2415C531.282 50.0729 531.385 49.9129 531.453 49.7614C531.521 49.6098 531.555 49.4489 531.555 49.2784C531.555 49.0852 531.51 48.9186 531.419 48.7784C531.328 48.6364 531.204 48.5275 531.047 48.4517C530.89 48.3741 530.713 48.3352 530.516 48.3352C530.307 48.3352 530.125 48.3778 529.97 48.4631C529.815 48.5483 529.696 48.6686 529.612 48.8239C529.529 48.9792 529.487 49.161 529.487 49.3693H528.649C528.649 49.0152 528.731 48.7055 528.893 48.4403C529.056 48.1752 529.28 47.9697 529.564 47.8239C529.848 47.6761 530.171 47.6023 530.533 47.6023C530.898 47.6023 531.22 47.6752 531.499 47.821C531.779 47.965 531.998 48.1619 532.155 48.4119C532.312 48.66 532.391 48.9403 532.391 49.2528C532.391 49.4688 532.35 49.6799 532.268 49.8864C532.189 50.0928 532.05 50.3229 531.851 50.5767C531.652 50.8286 531.375 51.1345 531.021 51.4943L529.865 52.7045V52.7472H532.484V53.5H528.655ZM535.686 53.5V47.6818H537.76C538.212 47.6818 538.587 47.7642 538.885 47.929C539.182 48.0937 539.405 48.3191 539.552 48.6051C539.7 48.8892 539.774 49.2093 539.774 49.5653C539.774 49.9233 539.699 50.2453 539.549 50.5312C539.402 50.8153 539.178 51.0407 538.879 51.2074C538.582 51.3722 538.208 51.4545 537.757 51.4545H536.331V50.7102H537.677C537.963 50.7102 538.195 50.661 538.373 50.5625C538.551 50.4621 538.682 50.3258 538.765 50.1534C538.849 49.9811 538.89 49.785 538.89 49.5653C538.89 49.3456 538.849 49.1506 538.765 48.9801C538.682 48.8097 538.55 48.6761 538.37 48.5795C538.192 48.483 537.958 48.4347 537.666 48.4347H536.564V53.5H535.686ZM540.767 47.6818H541.832L543.685 52.2045H543.753L545.605 47.6818H546.67V53.5H545.835V49.2898H545.781L544.065 53.4915H543.372L541.656 49.2869H541.602V53.5H540.767V47.6818Z" fill="#C3C3C6"/>
<path d="M120 68L568 68" stroke="white" stroke-opacity="0.06"/>
<g opacity="0.4">
<rect width="448" height="34" transform="translate(120 68)" fill="#1D1D21"/>
<path d="M140 85C140 82.2386 142.239 80 145 80H159C161.761 80 164 82.2386 164 85V85C164 87.7614 161.761 90 159 90H145C142.239 90 140 87.7614 140 85V85Z" fill="white" fill-opacity="0.1"/>
<path d="M172 85C172 82.2386 174.239 80 177 80H504C506.761 80 509 82.2386 509 85V85C509 87.7614 506.761 90 504 90H177C174.239 90 172 87.7614 172 85V85Z" fill="white" fill-opacity="0.1"/>
<path d="M519.767 81.6818V87.5H518.886V82.5625H518.852L517.46 83.4716V82.6307L518.912 81.6818H519.767ZM521.876 86.7784C521.721 86.7784 521.587 86.7235 521.475 86.6136C521.364 86.5019 521.308 86.3674 521.308 86.2102C521.308 86.0549 521.364 85.9223 521.475 85.8125C521.587 85.7008 521.721 85.6449 521.876 85.6449C522.031 85.6449 522.165 85.7008 522.276 85.8125C522.388 85.9223 522.444 86.0549 522.444 86.2102C522.444 86.3144 522.418 86.41 522.365 86.4972C522.313 86.5824 522.245 86.6506 522.16 86.7017C522.075 86.7528 521.98 86.7784 521.876 86.7784ZM521.876 83.8636C521.721 83.8636 521.587 83.8087 521.475 83.6989C521.364 83.5871 521.308 83.4527 521.308 83.2955C521.308 83.1402 521.364 83.0076 521.475 82.8977C521.587 82.786 521.721 82.7301 521.876 82.7301C522.031 82.7301 522.165 82.786 522.276 82.8977C522.388 83.0076 522.444 83.1402 522.444 83.2955C522.444 83.3996 522.418 83.4953 522.365 83.5824C522.313 83.6676 522.245 83.7358 522.16 83.7869C522.075 83.8381 521.98 83.8636 521.876 83.8636ZM525.56 87.5795C525.17 87.5795 524.821 87.5123 524.515 87.3778C524.21 87.2434 523.968 87.0568 523.79 86.8182C523.614 86.5777 523.519 86.2992 523.506 85.983H524.398C524.41 86.1553 524.467 86.3049 524.571 86.4318C524.678 86.5568 524.816 86.6534 524.986 86.7216C525.157 86.7898 525.346 86.8239 525.554 86.8239C525.784 86.8239 525.986 86.7841 526.162 86.7045C526.34 86.625 526.48 86.5142 526.58 86.3722C526.68 86.2282 526.731 86.0625 526.731 85.875C526.731 85.6799 526.68 85.5085 526.58 85.3608C526.482 85.2112 526.337 85.0937 526.145 85.0085C525.956 84.9233 525.727 84.8807 525.458 84.8807H524.966V84.1648H525.458C525.674 84.1648 525.863 84.1259 526.026 84.0483C526.191 83.9706 526.32 83.8627 526.412 83.7244C526.505 83.5843 526.552 83.4205 526.552 83.233C526.552 83.053 526.511 82.8968 526.429 82.7642C526.35 82.6297 526.236 82.5246 526.089 82.4489C525.943 82.3731 525.77 82.3352 525.571 82.3352C525.382 82.3352 525.205 82.3703 525.04 82.4403C524.877 82.5085 524.745 82.607 524.642 82.7358C524.54 82.8627 524.485 83.0152 524.478 83.1932H523.628C523.638 82.8788 523.731 82.6023 523.907 82.3636C524.085 82.125 524.32 81.9384 524.611 81.804C524.903 81.6695 525.227 81.6023 525.583 81.6023C525.956 81.6023 526.278 81.6752 526.549 81.821C526.821 81.965 527.032 82.1572 527.179 82.3977C527.329 82.6383 527.403 82.9015 527.401 83.1875C527.403 83.5133 527.312 83.7898 527.128 84.017C526.946 84.2443 526.704 84.3968 526.401 84.4744V84.5199C526.787 84.5786 527.087 84.732 527.299 84.9801C527.513 85.2282 527.619 85.536 527.617 85.9034C527.619 86.2235 527.53 86.5104 527.35 86.7642C527.172 87.018 526.928 87.2178 526.62 87.3636C526.311 87.5076 525.958 87.5795 525.56 87.5795ZM528.655 87.5V86.8636L530.624 84.8239C530.834 84.6023 531.007 84.4081 531.143 84.2415C531.282 84.0729 531.385 83.9129 531.453 83.7614C531.521 83.6098 531.555 83.4489 531.555 83.2784C531.555 83.0852 531.51 82.9186 531.419 82.7784C531.328 82.6364 531.204 82.5275 531.047 82.4517C530.89 82.3741 530.713 82.3352 530.516 82.3352C530.307 82.3352 530.125 82.3778 529.97 82.4631C529.815 82.5483 529.696 82.6686 529.612 82.8239C529.529 82.9792 529.487 83.161 529.487 83.3693H528.649C528.649 83.0152 528.731 82.7055 528.893 82.4403C529.056 82.1752 529.28 81.9697 529.564 81.8239C529.848 81.6761 530.171 81.6023 530.533 81.6023C530.898 81.6023 531.22 81.6752 531.499 81.821C531.779 81.965 531.998 82.1619 532.155 82.4119C532.312 82.66 532.391 82.9403 532.391 83.2528C532.391 83.4688 532.35 83.6799 532.268 83.8864C532.189 84.0928 532.05 84.3229 531.851 84.5767C531.652 84.8286 531.375 85.1345 531.021 85.4943L529.865 86.7045V86.7472H532.484V87.5H528.655ZM535.686 87.5V81.6818H537.76C538.212 81.6818 538.587 81.7642 538.885 81.929C539.182 82.0937 539.405 82.3191 539.552 82.6051C539.7 82.8892 539.774 83.2093 539.774 83.5653C539.774 83.9233 539.699 84.2453 539.549 84.5312C539.402 84.8153 539.178 85.0407 538.879 85.2074C538.582 85.3722 538.208 85.4545 537.757 85.4545H536.331V84.7102H537.677C537.963 84.7102 538.195 84.661 538.373 84.5625C538.551 84.4621 538.682 84.3258 538.765 84.1534C538.849 83.9811 538.89 83.785 538.89 83.5653C538.89 83.3456 538.849 83.1506 538.765 82.9801C538.682 82.8097 538.55 82.6761 538.37 82.5795C538.192 82.483 537.958 82.4347 537.666 82.4347H536.564V87.5H535.686ZM540.767 81.6818H541.832L543.685 86.2045H543.753L545.605 81.6818H546.67V87.5H545.835V83.2898H545.781L544.065 87.4915H543.372L541.656 83.2869H541.602V87.5H540.767V81.6818Z" fill="#C3C3C6"/>
</g>
<path d="M120 102L568 102" stroke="white" stroke-opacity="0.06"/>
<g opacity="0.4">
<rect width="448" height="34" transform="translate(120 102)" fill="#1D1D21"/>
<path d="M140 119C140 116.239 142.239 114 145 114H159C161.761 114 164 116.239 164 119V119C164 121.761 161.761 124 159 124H145C142.239 124 140 121.761 140 119V119Z" fill="white" fill-opacity="0.1"/>
<path d="M172 119C172 116.239 174.239 114 177 114H504C506.761 114 509 116.239 509 119V119C509 121.761 506.761 124 504 124H177C174.239 124 172 121.761 172 119V119Z" fill="white" fill-opacity="0.1"/>
<path d="M519.767 115.682V121.5H518.886V116.562H518.852L517.46 117.472V116.631L518.912 115.682H519.767ZM521.876 120.778C521.721 120.778 521.587 120.723 521.475 120.614C521.364 120.502 521.308 120.367 521.308 120.21C521.308 120.055 521.364 119.922 521.475 119.812C521.587 119.701 521.721 119.645 521.876 119.645C522.031 119.645 522.165 119.701 522.276 119.812C522.388 119.922 522.444 120.055 522.444 120.21C522.444 120.314 522.418 120.41 522.365 120.497C522.313 120.582 522.245 120.651 522.16 120.702C522.075 120.753 521.98 120.778 521.876 120.778ZM521.876 117.864C521.721 117.864 521.587 117.809 521.475 117.699C521.364 117.587 521.308 117.453 521.308 117.295C521.308 117.14 521.364 117.008 521.475 116.898C521.587 116.786 521.721 116.73 521.876 116.73C522.031 116.73 522.165 116.786 522.276 116.898C522.388 117.008 522.444 117.14 522.444 117.295C522.444 117.4 522.418 117.495 522.365 117.582C522.313 117.668 522.245 117.736 522.16 117.787C522.075 117.838 521.98 117.864 521.876 117.864ZM525.56 121.58C525.17 121.58 524.821 121.512 524.515 121.378C524.21 121.243 523.968 121.057 523.79 120.818C523.614 120.578 523.519 120.299 523.506 119.983H524.398C524.41 120.155 524.467 120.305 524.571 120.432C524.678 120.557 524.816 120.653 524.986 120.722C525.157 120.79 525.346 120.824 525.554 120.824C525.784 120.824 525.986 120.784 526.162 120.705C526.34 120.625 526.48 120.514 526.58 120.372C526.68 120.228 526.731 120.062 526.731 119.875C526.731 119.68 526.68 119.509 526.58 119.361C526.482 119.211 526.337 119.094 526.145 119.009C525.956 118.923 525.727 118.881 525.458 118.881H524.966V118.165H525.458C525.674 118.165 525.863 118.126 526.026 118.048C526.191 117.971 526.32 117.863 526.412 117.724C526.505 117.584 526.552 117.42 526.552 117.233C526.552 117.053 526.511 116.897 526.429 116.764C526.35 116.63 526.236 116.525 526.089 116.449C525.943 116.373 525.77 116.335 525.571 116.335C525.382 116.335 525.205 116.37 525.04 116.44C524.877 116.509 524.745 116.607 524.642 116.736C524.54 116.863 524.485 117.015 524.478 117.193H523.628C523.638 116.879 523.731 116.602 523.907 116.364C524.085 116.125 524.32 115.938 524.611 115.804C524.903 115.67 525.227 115.602 525.583 115.602C525.956 115.602 526.278 115.675 526.549 115.821C526.821 115.965 527.032 116.157 527.179 116.398C527.329 116.638 527.403 116.902 527.401 117.188C527.403 117.513 527.312 117.79 527.128 118.017C526.946 118.244 526.704 118.397 526.401 118.474V118.52C526.787 118.579 527.087 118.732 527.299 118.98C527.513 119.228 527.619 119.536 527.617 119.903C527.619 120.223 527.53 120.51 527.35 120.764C527.172 121.018 526.928 121.218 526.62 121.364C526.311 121.508 525.958 121.58 525.56 121.58ZM528.655 121.5V120.864L530.624 118.824C530.834 118.602 531.007 118.408 531.143 118.241C531.282 118.073 531.385 117.913 531.453 117.761C531.521 117.61 531.555 117.449 531.555 117.278C531.555 117.085 531.51 116.919 531.419 116.778C531.328 116.636 531.204 116.527 531.047 116.452C530.89 116.374 530.713 116.335 530.516 116.335C530.307 116.335 530.125 116.378 529.97 116.463C529.815 116.548 529.696 116.669 529.612 116.824C529.529 116.979 529.487 117.161 529.487 117.369H528.649C528.649 117.015 528.731 116.705 528.893 116.44C529.056 116.175 529.28 115.97 529.564 115.824C529.848 115.676 530.171 115.602 530.533 115.602C530.898 115.602 531.22 115.675 531.499 115.821C531.779 115.965 531.998 116.162 532.155 116.412C532.312 116.66 532.391 116.94 532.391 117.253C532.391 117.469 532.35 117.68 532.268 117.886C532.189 118.093 532.05 118.323 531.851 118.577C531.652 118.829 531.375 119.134 531.021 119.494L529.865 120.705V120.747H532.484V121.5H528.655ZM535.686 121.5V115.682H537.76C538.212 115.682 538.587 115.764 538.885 115.929C539.182 116.094 539.405 116.319 539.552 116.605C539.7 116.889 539.774 117.209 539.774 117.565C539.774 117.923 539.699 118.245 539.549 118.531C539.402 118.815 539.178 119.041 538.879 119.207C538.582 119.372 538.208 119.455 537.757 119.455H536.331V118.71H537.677C537.963 118.71 538.195 118.661 538.373 118.562C538.551 118.462 538.682 118.326 538.765 118.153C538.849 117.981 538.89 117.785 538.89 117.565C538.89 117.346 538.849 117.151 538.765 116.98C538.682 116.81 538.55 116.676 538.37 116.58C538.192 116.483 537.958 116.435 537.666 116.435H536.564V121.5H535.686ZM540.767 115.682H541.832L543.685 120.205H543.753L545.605 115.682H546.67V121.5H545.835V117.29H545.781L544.065 121.491H543.372L541.656 117.287H541.602V121.5H540.767V115.682Z" fill="#C3C3C6"/>
</g>
<path d="M120 136L568 136" stroke="white" stroke-opacity="0.06"/>
<rect width="448" height="34" transform="translate(120 136)" fill="#1D1D21"/>
<path d="M140 153C140 150.239 142.239 148 145 148H159C161.761 148 164 150.239 164 153V153C164 155.761 161.761 158 159 158H145C142.239 158 140 155.761 140 153V153Z" fill="white" fill-opacity="0.1"/>
<path d="M172 153C172 150.239 174.239 148 177 148H504C506.761 148 509 150.239 509 153V153C509 155.761 506.761 158 504 158H177C174.239 158 172 155.761 172 153V153Z" fill="white" fill-opacity="0.1"/>
<path d="M519.767 149.682V155.5H518.886V150.562H518.852L517.46 151.472V150.631L518.912 149.682H519.767ZM521.876 154.778C521.721 154.778 521.587 154.723 521.475 154.614C521.364 154.502 521.308 154.367 521.308 154.21C521.308 154.055 521.364 153.922 521.475 153.812C521.587 153.701 521.721 153.645 521.876 153.645C522.031 153.645 522.165 153.701 522.276 153.812C522.388 153.922 522.444 154.055 522.444 154.21C522.444 154.314 522.418 154.41 522.365 154.497C522.313 154.582 522.245 154.651 522.16 154.702C522.075 154.753 521.98 154.778 521.876 154.778ZM521.876 151.864C521.721 151.864 521.587 151.809 521.475 151.699C521.364 151.587 521.308 151.453 521.308 151.295C521.308 151.14 521.364 151.008 521.475 150.898C521.587 150.786 521.721 150.73 521.876 150.73C522.031 150.73 522.165 150.786 522.276 150.898C522.388 151.008 522.444 151.14 522.444 151.295C522.444 151.4 522.418 151.495 522.365 151.582C522.313 151.668 522.245 151.736 522.16 151.787C522.075 151.838 521.98 151.864 521.876 151.864ZM525.56 155.58C525.17 155.58 524.821 155.512 524.515 155.378C524.21 155.243 523.968 155.057 523.79 154.818C523.614 154.578 523.519 154.299 523.506 153.983H524.398C524.41 154.155 524.467 154.305 524.571 154.432C524.678 154.557 524.816 154.653 524.986 154.722C525.157 154.79 525.346 154.824 525.554 154.824C525.784 154.824 525.986 154.784 526.162 154.705C526.34 154.625 526.48 154.514 526.58 154.372C526.68 154.228 526.731 154.062 526.731 153.875C526.731 153.68 526.68 153.509 526.58 153.361C526.482 153.211 526.337 153.094 526.145 153.009C525.956 152.923 525.727 152.881 525.458 152.881H524.966V152.165H525.458C525.674 152.165 525.863 152.126 526.026 152.048C526.191 151.971 526.32 151.863 526.412 151.724C526.505 151.584 526.552 151.42 526.552 151.233C526.552 151.053 526.511 150.897 526.429 150.764C526.35 150.63 526.236 150.525 526.089 150.449C525.943 150.373 525.77 150.335 525.571 150.335C525.382 150.335 525.205 150.37 525.04 150.44C524.877 150.509 524.745 150.607 524.642 150.736C524.54 150.863 524.485 151.015 524.478 151.193H523.628C523.638 150.879 523.731 150.602 523.907 150.364C524.085 150.125 524.32 149.938 524.611 149.804C524.903 149.67 525.227 149.602 525.583 149.602C525.956 149.602 526.278 149.675 526.549 149.821C526.821 149.965 527.032 150.157 527.179 150.398C527.329 150.638 527.403 150.902 527.401 151.188C527.403 151.513 527.312 151.79 527.128 152.017C526.946 152.244 526.704 152.397 526.401 152.474V152.52C526.787 152.579 527.087 152.732 527.299 152.98C527.513 153.228 527.619 153.536 527.617 153.903C527.619 154.223 527.53 154.51 527.35 154.764C527.172 155.018 526.928 155.218 526.62 155.364C526.311 155.508 525.958 155.58 525.56 155.58ZM528.655 155.5V154.864L530.624 152.824C530.834 152.602 531.007 152.408 531.143 152.241C531.282 152.073 531.385 151.913 531.453 151.761C531.521 151.61 531.555 151.449 531.555 151.278C531.555 151.085 531.51 150.919 531.419 150.778C531.328 150.636 531.204 150.527 531.047 150.452C530.89 150.374 530.713 150.335 530.516 150.335C530.307 150.335 530.125 150.378 529.97 150.463C529.815 150.548 529.696 150.669 529.612 150.824C529.529 150.979 529.487 151.161 529.487 151.369H528.649C528.649 151.015 528.731 150.705 528.893 150.44C529.056 150.175 529.28 149.97 529.564 149.824C529.848 149.676 530.171 149.602 530.533 149.602C530.898 149.602 531.22 149.675 531.499 149.821C531.779 149.965 531.998 150.162 532.155 150.412C532.312 150.66 532.391 150.94 532.391 151.253C532.391 151.469 532.35 151.68 532.268 151.886C532.189 152.093 532.05 152.323 531.851 152.577C531.652 152.829 531.375 153.134 531.021 153.494L529.865 154.705V154.747H532.484V155.5H528.655ZM535.686 155.5V149.682H537.76C538.212 149.682 538.587 149.764 538.885 149.929C539.182 150.094 539.405 150.319 539.552 150.605C539.7 150.889 539.774 151.209 539.774 151.565C539.774 151.923 539.699 152.245 539.549 152.531C539.402 152.815 539.178 153.041 538.879 153.207C538.582 153.372 538.208 153.455 537.757 153.455H536.331V152.71H537.677C537.963 152.71 538.195 152.661 538.373 152.562C538.551 152.462 538.682 152.326 538.765 152.153C538.849 151.981 538.89 151.785 538.89 151.565C538.89 151.346 538.849 151.151 538.765 150.98C538.682 150.81 538.55 150.676 538.37 150.58C538.192 150.483 537.958 150.435 537.666 150.435H536.564V155.5H535.686ZM540.767 149.682H541.832L543.685 154.205H543.753L545.605 149.682H546.67V155.5H545.835V151.29H545.781L544.065 155.491H543.372L541.656 151.287H541.602V155.5H540.767V149.682Z" fill="#C3C3C6"/>
<path d="M120 170L568 170" stroke="white" stroke-opacity="0.06"/>
<g opacity="0.4">
<rect width="448" height="34" transform="translate(120 170)" fill="#1D1D21"/>
<path d="M140 187C140 184.239 142.239 182 145 182H159C161.761 182 164 184.239 164 187V187C164 189.762 161.761 192 159 192H145C142.239 192 140 189.762 140 187V187Z" fill="white" fill-opacity="0.1"/>
<path d="M172 187C172 184.239 174.239 182 177 182H504C506.761 182 509 184.239 509 187V187C509 189.762 506.761 192 504 192H177C174.239 192 172 189.762 172 187V187Z" fill="white" fill-opacity="0.1"/>
<path d="M519.767 183.682V189.5H518.886V184.563H518.852L517.46 185.472V184.631L518.912 183.682H519.767ZM521.876 188.779C521.721 188.779 521.587 188.724 521.475 188.614C521.364 188.502 521.308 188.368 521.308 188.21C521.308 188.055 521.364 187.923 521.475 187.813C521.587 187.701 521.721 187.645 521.876 187.645C522.031 187.645 522.165 187.701 522.276 187.813C522.388 187.923 522.444 188.055 522.444 188.21C522.444 188.315 522.418 188.41 522.365 188.497C522.313 188.583 522.245 188.651 522.16 188.702C522.075 188.753 521.98 188.779 521.876 188.779ZM521.876 185.864C521.721 185.864 521.587 185.809 521.475 185.699C521.364 185.587 521.308 185.453 521.308 185.296C521.308 185.14 521.364 185.008 521.475 184.898C521.587 184.786 521.721 184.73 521.876 184.73C522.031 184.73 522.165 184.786 522.276 184.898C522.388 185.008 522.444 185.14 522.444 185.296C522.444 185.4 522.418 185.496 522.365 185.583C522.313 185.668 522.245 185.736 522.16 185.787C522.075 185.838 521.98 185.864 521.876 185.864ZM525.56 189.58C525.17 189.58 524.821 189.513 524.515 189.378C524.21 189.244 523.968 189.057 523.79 188.818C523.614 188.578 523.519 188.299 523.506 187.983H524.398C524.41 188.156 524.467 188.305 524.571 188.432C524.678 188.557 524.816 188.654 524.986 188.722C525.157 188.79 525.346 188.824 525.554 188.824C525.784 188.824 525.986 188.784 526.162 188.705C526.34 188.625 526.48 188.514 526.58 188.372C526.68 188.228 526.731 188.063 526.731 187.875C526.731 187.68 526.68 187.509 526.58 187.361C526.482 187.211 526.337 187.094 526.145 187.009C525.956 186.924 525.727 186.881 525.458 186.881H524.966V186.165H525.458C525.674 186.165 525.863 186.126 526.026 186.049C526.191 185.971 526.32 185.863 526.412 185.725C526.505 185.585 526.552 185.421 526.552 185.233C526.552 185.053 526.511 184.897 526.429 184.764C526.35 184.63 526.236 184.525 526.089 184.449C525.943 184.373 525.77 184.335 525.571 184.335C525.382 184.335 525.205 184.371 525.04 184.441C524.877 184.509 524.745 184.607 524.642 184.736C524.54 184.863 524.485 185.015 524.478 185.193H523.628C523.638 184.879 523.731 184.603 523.907 184.364C524.085 184.125 524.32 183.939 524.611 183.804C524.903 183.67 525.227 183.603 525.583 183.603C525.956 183.603 526.278 183.675 526.549 183.821C526.821 183.965 527.032 184.157 527.179 184.398C527.329 184.639 527.403 184.902 527.401 185.188C527.403 185.514 527.312 185.79 527.128 186.017C526.946 186.245 526.704 186.397 526.401 186.475V186.52C526.787 186.579 527.087 186.732 527.299 186.98C527.513 187.228 527.619 187.536 527.617 187.904C527.619 188.224 527.53 188.511 527.35 188.764C527.172 189.018 526.928 189.218 526.62 189.364C526.311 189.508 525.958 189.58 525.56 189.58ZM528.655 189.5V188.864L530.624 186.824C530.834 186.603 531.007 186.408 531.143 186.242C531.282 186.073 531.385 185.913 531.453 185.762C531.521 185.61 531.555 185.449 531.555 185.279C531.555 185.085 531.51 184.919 531.419 184.779C531.328 184.637 531.204 184.528 531.047 184.452C530.89 184.374 530.713 184.335 530.516 184.335C530.307 184.335 530.125 184.378 529.97 184.463C529.815 184.549 529.696 184.669 529.612 184.824C529.529 184.979 529.487 185.161 529.487 185.37H528.649C528.649 185.015 528.731 184.706 528.893 184.441C529.056 184.175 529.28 183.97 529.564 183.824C529.848 183.676 530.171 183.603 530.533 183.603C530.898 183.603 531.22 183.675 531.499 183.821C531.779 183.965 531.998 184.162 532.155 184.412C532.312 184.66 532.391 184.941 532.391 185.253C532.391 185.469 532.35 185.68 532.268 185.887C532.189 186.093 532.05 186.323 531.851 186.577C531.652 186.829 531.375 187.135 531.021 187.495L529.865 188.705V188.747H532.484V189.5H528.655ZM535.686 189.5V183.682H537.76C538.212 183.682 538.587 183.764 538.885 183.929C539.182 184.094 539.405 184.319 539.552 184.605C539.7 184.889 539.774 185.21 539.774 185.566C539.774 185.924 539.699 186.246 539.549 186.531C539.402 186.816 539.178 187.041 538.879 187.208C538.582 187.372 538.208 187.455 537.757 187.455H536.331V186.71H537.677C537.963 186.71 538.195 186.661 538.373 186.563C538.551 186.462 538.682 186.326 538.765 186.154C538.849 185.981 538.89 185.785 538.89 185.566C538.89 185.346 538.849 185.151 538.765 184.98C538.682 184.81 538.55 184.676 538.37 184.58C538.192 184.483 537.958 184.435 537.666 184.435H536.564V189.5H535.686ZM540.767 183.682H541.832L543.685 188.205H543.753L545.605 183.682H546.67V189.5H545.835V185.29H545.781L544.065 189.492H543.372L541.656 185.287H541.602V189.5H540.767V183.682Z" fill="#C3C3C6"/>
</g>
<g opacity="0.4">
<rect width="448" height="34" transform="translate(120 204)" fill="#1D1D21"/>
<path d="M140 221C140 218.239 142.239 216 145 216H159C161.761 216 164 218.239 164 221V221C164 223.762 161.761 226 159 226H145C142.239 226 140 223.762 140 221V221Z" fill="white" fill-opacity="0.1"/>
<path d="M172 221C172 218.239 174.239 216 177 216H504C506.761 216 509 218.239 509 221V221C509 223.762 506.761 226 504 226H177C174.239 226 172 223.762 172 221V221Z" fill="white" fill-opacity="0.1"/>
<path d="M519.767 217.682V223.5H518.886V218.563H518.852L517.46 219.472V218.631L518.912 217.682H519.767ZM521.876 222.779C521.721 222.779 521.587 222.724 521.475 222.614C521.364 222.502 521.308 222.368 521.308 222.21C521.308 222.055 521.364 221.923 521.475 221.813C521.587 221.701 521.721 221.645 521.876 221.645C522.031 221.645 522.165 221.701 522.276 221.813C522.388 221.923 522.444 222.055 522.444 222.21C522.444 222.315 522.418 222.41 522.365 222.497C522.313 222.583 522.245 222.651 522.16 222.702C522.075 222.753 521.98 222.779 521.876 222.779ZM521.876 219.864C521.721 219.864 521.587 219.809 521.475 219.699C521.364 219.587 521.308 219.453 521.308 219.296C521.308 219.14 521.364 219.008 521.475 218.898C521.587 218.786 521.721 218.73 521.876 218.73C522.031 218.73 522.165 218.786 522.276 218.898C522.388 219.008 522.444 219.14 522.444 219.296C522.444 219.4 522.418 219.496 522.365 219.583C522.313 219.668 522.245 219.736 522.16 219.787C522.075 219.838 521.98 219.864 521.876 219.864ZM525.56 223.58C525.17 223.58 524.821 223.513 524.515 223.378C524.21 223.244 523.968 223.057 523.79 222.818C523.614 222.578 523.519 222.299 523.506 221.983H524.398C524.41 222.156 524.467 222.305 524.571 222.432C524.678 222.557 524.816 222.654 524.986 222.722C525.157 222.79 525.346 222.824 525.554 222.824C525.784 222.824 525.986 222.784 526.162 222.705C526.34 222.625 526.48 222.514 526.58 222.372C526.68 222.228 526.731 222.063 526.731 221.875C526.731 221.68 526.68 221.509 526.58 221.361C526.482 221.211 526.337 221.094 526.145 221.009C525.956 220.924 525.727 220.881 525.458 220.881H524.966V220.165H525.458C525.674 220.165 525.863 220.126 526.026 220.049C526.191 219.971 526.32 219.863 526.412 219.725C526.505 219.585 526.552 219.421 526.552 219.233C526.552 219.053 526.511 218.897 526.429 218.764C526.35 218.63 526.236 218.525 526.089 218.449C525.943 218.373 525.77 218.335 525.571 218.335C525.382 218.335 525.205 218.371 525.04 218.441C524.877 218.509 524.745 218.607 524.642 218.736C524.54 218.863 524.485 219.015 524.478 219.193H523.628C523.638 218.879 523.731 218.603 523.907 218.364C524.085 218.125 524.32 217.939 524.611 217.804C524.903 217.67 525.227 217.603 525.583 217.603C525.956 217.603 526.278 217.675 526.549 217.821C526.821 217.965 527.032 218.157 527.179 218.398C527.329 218.639 527.403 218.902 527.401 219.188C527.403 219.514 527.312 219.79 527.128 220.017C526.946 220.245 526.704 220.397 526.401 220.475V220.52C526.787 220.579 527.087 220.732 527.299 220.98C527.513 221.228 527.619 221.536 527.617 221.904C527.619 222.224 527.53 222.511 527.35 222.764C527.172 223.018 526.928 223.218 526.62 223.364C526.311 223.508 525.958 223.58 525.56 223.58ZM528.655 223.5V222.864L530.624 220.824C530.834 220.603 531.007 220.408 531.143 220.242C531.282 220.073 531.385 219.913 531.453 219.762C531.521 219.61 531.555 219.449 531.555 219.279C531.555 219.085 531.51 218.919 531.419 218.779C531.328 218.637 531.204 218.528 531.047 218.452C530.89 218.374 530.713 218.335 530.516 218.335C530.307 218.335 530.125 218.378 529.97 218.463C529.815 218.549 529.696 218.669 529.612 218.824C529.529 218.979 529.487 219.161 529.487 219.37H528.649C528.649 219.015 528.731 218.706 528.893 218.441C529.056 218.175 529.28 217.97 529.564 217.824C529.848 217.676 530.171 217.603 530.533 217.603C530.898 217.603 531.22 217.675 531.499 217.821C531.779 217.965 531.998 218.162 532.155 218.412C532.312 218.66 532.391 218.941 532.391 219.253C532.391 219.469 532.35 219.68 532.268 219.887C532.189 220.093 532.05 220.323 531.851 220.577C531.652 220.829 531.375 221.135 531.021 221.495L529.865 222.705V222.747H532.484V223.5H528.655ZM535.686 223.5V217.682H537.76C538.212 217.682 538.587 217.764 538.885 217.929C539.182 218.094 539.405 218.319 539.552 218.605C539.7 218.889 539.774 219.21 539.774 219.566C539.774 219.924 539.699 220.246 539.549 220.531C539.402 220.816 539.178 221.041 538.879 221.208C538.582 221.372 538.208 221.455 537.757 221.455H536.331V220.71H537.677C537.963 220.71 538.195 220.661 538.373 220.563C538.551 220.462 538.682 220.326 538.765 220.154C538.849 219.981 538.89 219.785 538.89 219.566C538.89 219.346 538.849 219.151 538.765 218.98C538.682 218.81 538.55 218.676 538.37 218.58C538.192 218.483 537.958 218.435 537.666 218.435H536.564V223.5H535.686ZM540.767 217.682H541.832L543.685 222.205H543.753L545.605 217.682H546.67V223.5H545.835V219.29H545.781L544.065 223.492H543.372L541.656 219.287H541.602V223.5H540.767V217.682Z" fill="#C3C3C6"/>
</g>
<g opacity="0.4">
<rect width="448" height="34" transform="translate(120 238)" fill="#1D1D21"/>
<path d="M140 255C140 252.239 142.239 250 145 250H159C161.761 250 164 252.239 164 255V255C164 257.762 161.761 260 159 260H145C142.239 260 140 257.762 140 255V255Z" fill="white" fill-opacity="0.1"/>
<path d="M172 255C172 252.239 174.239 250 177 250H504C506.761 250 509 252.239 509 255V255C509 257.762 506.761 260 504 260H177C174.239 260 172 257.762 172 255V255Z" fill="white" fill-opacity="0.1"/>
<path d="M519.767 251.682V257.5H518.886V252.563H518.852L517.46 253.472V252.631L518.912 251.682H519.767ZM521.876 256.779C521.721 256.779 521.587 256.724 521.475 256.614C521.364 256.502 521.308 256.368 521.308 256.21C521.308 256.055 521.364 255.923 521.475 255.813C521.587 255.701 521.721 255.645 521.876 255.645C522.031 255.645 522.165 255.701 522.276 255.813C522.388 255.923 522.444 256.055 522.444 256.21C522.444 256.315 522.418 256.41 522.365 256.497C522.313 256.583 522.245 256.651 522.16 256.702C522.075 256.753 521.98 256.779 521.876 256.779ZM521.876 253.864C521.721 253.864 521.587 253.809 521.475 253.699C521.364 253.587 521.308 253.453 521.308 253.296C521.308 253.14 521.364 253.008 521.475 252.898C521.587 252.786 521.721 252.73 521.876 252.73C522.031 252.73 522.165 252.786 522.276 252.898C522.388 253.008 522.444 253.14 522.444 253.296C522.444 253.4 522.418 253.496 522.365 253.583C522.313 253.668 522.245 253.736 522.16 253.787C522.075 253.838 521.98 253.864 521.876 253.864ZM525.56 257.58C525.17 257.58 524.821 257.513 524.515 257.378C524.21 257.244 523.968 257.057 523.79 256.818C523.614 256.578 523.519 256.299 523.506 255.983H524.398C524.41 256.156 524.467 256.305 524.571 256.432C524.678 256.557 524.816 256.654 524.986 256.722C525.157 256.79 525.346 256.824 525.554 256.824C525.784 256.824 525.986 256.784 526.162 256.705C526.34 256.625 526.48 256.514 526.58 256.372C526.68 256.228 526.731 256.063 526.731 255.875C526.731 255.68 526.68 255.509 526.58 255.361C526.482 255.211 526.337 255.094 526.145 255.009C525.956 254.924 525.727 254.881 525.458 254.881H524.966V254.165H525.458C525.674 254.165 525.863 254.126 526.026 254.049C526.191 253.971 526.32 253.863 526.412 253.725C526.505 253.585 526.552 253.421 526.552 253.233C526.552 253.053 526.511 252.897 526.429 252.764C526.35 252.63 526.236 252.525 526.089 252.449C525.943 252.373 525.77 252.335 525.571 252.335C525.382 252.335 525.205 252.371 525.04 252.441C524.877 252.509 524.745 252.607 524.642 252.736C524.54 252.863 524.485 253.015 524.478 253.193H523.628C523.638 252.879 523.731 252.603 523.907 252.364C524.085 252.125 524.32 251.939 524.611 251.804C524.903 251.67 525.227 251.603 525.583 251.603C525.956 251.603 526.278 251.675 526.549 251.821C526.821 251.965 527.032 252.157 527.179 252.398C527.329 252.639 527.403 252.902 527.401 253.188C527.403 253.514 527.312 253.79 527.128 254.017C526.946 254.245 526.704 254.397 526.401 254.475V254.52C526.787 254.579 527.087 254.732 527.299 254.98C527.513 255.228 527.619 255.536 527.617 255.904C527.619 256.224 527.53 256.511 527.35 256.764C527.172 257.018 526.928 257.218 526.62 257.364C526.311 257.508 525.958 257.58 525.56 257.58ZM528.655 257.5V256.864L530.624 254.824C530.834 254.603 531.007 254.408 531.143 254.242C531.282 254.073 531.385 253.913 531.453 253.762C531.521 253.61 531.555 253.449 531.555 253.279C531.555 253.085 531.51 252.919 531.419 252.779C531.328 252.637 531.204 252.528 531.047 252.452C530.89 252.374 530.713 252.335 530.516 252.335C530.307 252.335 530.125 252.378 529.97 252.463C529.815 252.549 529.696 252.669 529.612 252.824C529.529 252.979 529.487 253.161 529.487 253.37H528.649C528.649 253.015 528.731 252.706 528.893 252.441C529.056 252.175 529.28 251.97 529.564 251.824C529.848 251.676 530.171 251.603 530.533 251.603C530.898 251.603 531.22 251.675 531.499 251.821C531.779 251.965 531.998 252.162 532.155 252.412C532.312 252.66 532.391 252.941 532.391 253.253C532.391 253.469 532.35 253.68 532.268 253.887C532.189 254.093 532.05 254.323 531.851 254.577C531.652 254.829 531.375 255.135 531.021 255.495L529.865 256.705V256.747H532.484V257.5H528.655ZM535.686 257.5V251.682H537.76C538.212 251.682 538.587 251.764 538.885 251.929C539.182 252.094 539.405 252.319 539.552 252.605C539.7 252.889 539.774 253.21 539.774 253.566C539.774 253.924 539.699 254.246 539.549 254.531C539.402 254.816 539.178 255.041 538.879 255.208C538.582 255.372 538.208 255.455 537.757 255.455H536.331V254.71H537.677C537.963 254.71 538.195 254.661 538.373 254.563C538.551 254.462 538.682 254.326 538.765 254.154C538.849 253.981 538.89 253.785 538.89 253.566C538.89 253.346 538.849 253.151 538.765 252.98C538.682 252.81 538.55 252.676 538.37 252.58C538.192 252.483 537.958 252.435 537.666 252.435H536.564V257.5H535.686ZM540.767 251.682H541.832L543.685 256.205H543.753L545.605 251.682H546.67V257.5H545.835V253.29H545.781L544.065 257.492H543.372L541.656 253.287H541.602V257.5H540.767V251.682Z" fill="#C3C3C6"/>
</g>
<path d="M120 272L568 272" stroke="white" stroke-opacity="0.06"/>
<g opacity="0.4">
<rect width="448" height="34" transform="translate(120 272)" fill="#1D1D21"/>
<path d="M140 289C140 286.239 142.239 284 145 284H159C161.761 284 164 286.239 164 289V289C164 291.762 161.761 294 159 294H145C142.239 294 140 291.762 140 289V289Z" fill="white" fill-opacity="0.1"/>
<path d="M172 289C172 286.239 174.239 284 177 284H504C506.761 284 509 286.239 509 289V289C509 291.762 506.761 294 504 294H177C174.239 294 172 291.762 172 289V289Z" fill="white" fill-opacity="0.1"/>
<path d="M519.767 285.682V291.5H518.886V286.563H518.852L517.46 287.472V286.631L518.912 285.682H519.767ZM521.876 290.779C521.721 290.779 521.587 290.724 521.475 290.614C521.364 290.502 521.308 290.368 521.308 290.21C521.308 290.055 521.364 289.923 521.475 289.813C521.587 289.701 521.721 289.645 521.876 289.645C522.031 289.645 522.165 289.701 522.276 289.813C522.388 289.923 522.444 290.055 522.444 290.21C522.444 290.315 522.418 290.41 522.365 290.497C522.313 290.583 522.245 290.651 522.16 290.702C522.075 290.753 521.98 290.779 521.876 290.779ZM521.876 287.864C521.721 287.864 521.587 287.809 521.475 287.699C521.364 287.587 521.308 287.453 521.308 287.296C521.308 287.14 521.364 287.008 521.475 286.898C521.587 286.786 521.721 286.73 521.876 286.73C522.031 286.73 522.165 286.786 522.276 286.898C522.388 287.008 522.444 287.14 522.444 287.296C522.444 287.4 522.418 287.496 522.365 287.583C522.313 287.668 522.245 287.736 522.16 287.787C522.075 287.838 521.98 287.864 521.876 287.864ZM525.56 291.58C525.17 291.58 524.821 291.513 524.515 291.378C524.21 291.244 523.968 291.057 523.79 290.818C523.614 290.578 523.519 290.299 523.506 289.983H524.398C524.41 290.156 524.467 290.305 524.571 290.432C524.678 290.557 524.816 290.654 524.986 290.722C525.157 290.79 525.346 290.824 525.554 290.824C525.784 290.824 525.986 290.784 526.162 290.705C526.34 290.625 526.48 290.514 526.58 290.372C526.68 290.228 526.731 290.063 526.731 289.875C526.731 289.68 526.68 289.509 526.58 289.361C526.482 289.211 526.337 289.094 526.145 289.009C525.956 288.924 525.727 288.881 525.458 288.881H524.966V288.165H525.458C525.674 288.165 525.863 288.126 526.026 288.049C526.191 287.971 526.32 287.863 526.412 287.725C526.505 287.585 526.552 287.421 526.552 287.233C526.552 287.053 526.511 286.897 526.429 286.764C526.35 286.63 526.236 286.525 526.089 286.449C525.943 286.373 525.77 286.335 525.571 286.335C525.382 286.335 525.205 286.371 525.04 286.441C524.877 286.509 524.745 286.607 524.642 286.736C524.54 286.863 524.485 287.015 524.478 287.193H523.628C523.638 286.879 523.731 286.603 523.907 286.364C524.085 286.125 524.32 285.939 524.611 285.804C524.903 285.67 525.227 285.603 525.583 285.603C525.956 285.603 526.278 285.675 526.549 285.821C526.821 285.965 527.032 286.157 527.179 286.398C527.329 286.639 527.403 286.902 527.401 287.188C527.403 287.514 527.312 287.79 527.128 288.017C526.946 288.245 526.704 288.397 526.401 288.475V288.52C526.787 288.579 527.087 288.732 527.299 288.98C527.513 289.228 527.619 289.536 527.617 289.904C527.619 290.224 527.53 290.511 527.35 290.764C527.172 291.018 526.928 291.218 526.62 291.364C526.311 291.508 525.958 291.58 525.56 291.58ZM528.655 291.5V290.864L530.624 288.824C530.834 288.603 531.007 288.408 531.143 288.242C531.282 288.073 531.385 287.913 531.453 287.762C531.521 287.61 531.555 287.449 531.555 287.279C531.555 287.085 531.51 286.919 531.419 286.779C531.328 286.637 531.204 286.528 531.047 286.452C530.89 286.374 530.713 286.335 530.516 286.335C530.307 286.335 530.125 286.378 529.97 286.463C529.815 286.549 529.696 286.669 529.612 286.824C529.529 286.979 529.487 287.161 529.487 287.37H528.649C528.649 287.015 528.731 286.706 528.893 286.441C529.056 286.175 529.28 285.97 529.564 285.824C529.848 285.676 530.171 285.603 530.533 285.603C530.898 285.603 531.22 285.675 531.499 285.821C531.779 285.965 531.998 286.162 532.155 286.412C532.312 286.66 532.391 286.941 532.391 287.253C532.391 287.469 532.35 287.68 532.268 287.887C532.189 288.093 532.05 288.323 531.851 288.577C531.652 288.829 531.375 289.135 531.021 289.495L529.865 290.705V290.747H532.484V291.5H528.655ZM535.686 291.5V285.682H537.76C538.212 285.682 538.587 285.764 538.885 285.929C539.182 286.094 539.405 286.319 539.552 286.605C539.7 286.889 539.774 287.21 539.774 287.566C539.774 287.924 539.699 288.246 539.549 288.531C539.402 288.816 539.178 289.041 538.879 289.208C538.582 289.372 538.208 289.455 537.757 289.455H536.331V288.71H537.677C537.963 288.71 538.195 288.661 538.373 288.563C538.551 288.462 538.682 288.326 538.765 288.154C538.849 287.981 538.89 287.785 538.89 287.566C538.89 287.346 538.849 287.151 538.765 286.98C538.682 286.81 538.55 286.676 538.37 286.58C538.192 286.483 537.958 286.435 537.666 286.435H536.564V291.5H535.686ZM540.767 285.682H541.832L543.685 290.205H543.753L545.605 285.682H546.67V291.5H545.835V287.29H545.781L544.065 291.492H543.372L541.656 287.287H541.602V291.5H540.767V285.682Z" fill="#C3C3C6"/>
</g>
<path d="M120 306L568 306" stroke="white" stroke-opacity="0.06"/>
<g opacity="0.4">
<rect width="448" height="34" transform="translate(120 306)" fill="#1D1D21"/>
<path d="M140 323C140 320.239 142.239 318 145 318H159C161.761 318 164 320.239 164 323V323C164 325.762 161.761 328 159 328H145C142.239 328 140 325.762 140 323V323Z" fill="white" fill-opacity="0.1"/>
<path d="M172 323C172 320.239 174.239 318 177 318H504C506.761 318 509 320.239 509 323V323C509 325.762 506.761 328 504 328H177C174.239 328 172 325.762 172 323V323Z" fill="white" fill-opacity="0.1"/>
<path d="M519.767 319.682V325.5H518.886V320.563H518.852L517.46 321.472V320.631L518.912 319.682H519.767ZM521.876 324.779C521.721 324.779 521.587 324.724 521.475 324.614C521.364 324.502 521.308 324.368 521.308 324.21C521.308 324.055 521.364 323.923 521.475 323.813C521.587 323.701 521.721 323.645 521.876 323.645C522.031 323.645 522.165 323.701 522.276 323.813C522.388 323.923 522.444 324.055 522.444 324.21C522.444 324.315 522.418 324.41 522.365 324.497C522.313 324.583 522.245 324.651 522.16 324.702C522.075 324.753 521.98 324.779 521.876 324.779ZM521.876 321.864C521.721 321.864 521.587 321.809 521.475 321.699C521.364 321.587 521.308 321.453 521.308 321.296C521.308 321.14 521.364 321.008 521.475 320.898C521.587 320.786 521.721 320.73 521.876 320.73C522.031 320.73 522.165 320.786 522.276 320.898C522.388 321.008 522.444 321.14 522.444 321.296C522.444 321.4 522.418 321.496 522.365 321.583C522.313 321.668 522.245 321.736 522.16 321.787C522.075 321.838 521.98 321.864 521.876 321.864ZM525.56 325.58C525.17 325.58 524.821 325.513 524.515 325.378C524.21 325.244 523.968 325.057 523.79 324.818C523.614 324.578 523.519 324.299 523.506 323.983H524.398C524.41 324.156 524.467 324.305 524.571 324.432C524.678 324.557 524.816 324.654 524.986 324.722C525.157 324.79 525.346 324.824 525.554 324.824C525.784 324.824 525.986 324.784 526.162 324.705C526.34 324.625 526.48 324.514 526.58 324.372C526.68 324.228 526.731 324.063 526.731 323.875C526.731 323.68 526.68 323.509 526.58 323.361C526.482 323.211 526.337 323.094 526.145 323.009C525.956 322.924 525.727 322.881 525.458 322.881H524.966V322.165H525.458C525.674 322.165 525.863 322.126 526.026 322.049C526.191 321.971 526.32 321.863 526.412 321.725C526.505 321.585 526.552 321.421 526.552 321.233C526.552 321.053 526.511 320.897 526.429 320.764C526.35 320.63 526.236 320.525 526.089 320.449C525.943 320.373 525.77 320.335 525.571 320.335C525.382 320.335 525.205 320.371 525.04 320.441C524.877 320.509 524.745 320.607 524.642 320.736C524.54 320.863 524.485 321.015 524.478 321.193H523.628C523.638 320.879 523.731 320.603 523.907 320.364C524.085 320.125 524.32 319.939 524.611 319.804C524.903 319.67 525.227 319.603 525.583 319.603C525.956 319.603 526.278 319.675 526.549 319.821C526.821 319.965 527.032 320.157 527.179 320.398C527.329 320.639 527.403 320.902 527.401 321.188C527.403 321.514 527.312 321.79 527.128 322.017C526.946 322.245 526.704 322.397 526.401 322.475V322.52C526.787 322.579 527.087 322.732 527.299 322.98C527.513 323.228 527.619 323.536 527.617 323.904C527.619 324.224 527.53 324.511 527.35 324.764C527.172 325.018 526.928 325.218 526.62 325.364C526.311 325.508 525.958 325.58 525.56 325.58ZM528.655 325.5V324.864L530.624 322.824C530.834 322.603 531.007 322.408 531.143 322.242C531.282 322.073 531.385 321.913 531.453 321.762C531.521 321.61 531.555 321.449 531.555 321.279C531.555 321.085 531.51 320.919 531.419 320.779C531.328 320.637 531.204 320.528 531.047 320.452C530.89 320.374 530.713 320.335 530.516 320.335C530.307 320.335 530.125 320.378 529.97 320.463C529.815 320.549 529.696 320.669 529.612 320.824C529.529 320.979 529.487 321.161 529.487 321.37H528.649C528.649 321.015 528.731 320.706 528.893 320.441C529.056 320.175 529.28 319.97 529.564 319.824C529.848 319.676 530.171 319.603 530.533 319.603C530.898 319.603 531.22 319.675 531.499 319.821C531.779 319.965 531.998 320.162 532.155 320.412C532.312 320.66 532.391 320.941 532.391 321.253C532.391 321.469 532.35 321.68 532.268 321.887C532.189 322.093 532.05 322.323 531.851 322.577C531.652 322.829 531.375 323.135 531.021 323.495L529.865 324.705V324.747H532.484V325.5H528.655ZM535.686 325.5V319.682H537.76C538.212 319.682 538.587 319.764 538.885 319.929C539.182 320.094 539.405 320.319 539.552 320.605C539.7 320.889 539.774 321.21 539.774 321.566C539.774 321.924 539.699 322.246 539.549 322.531C539.402 322.816 539.178 323.041 538.879 323.208C538.582 323.372 538.208 323.455 537.757 323.455H536.331V322.71H537.677C537.963 322.71 538.195 322.661 538.373 322.563C538.551 322.462 538.682 322.326 538.765 322.154C538.849 321.981 538.89 321.785 538.89 321.566C538.89 321.346 538.849 321.151 538.765 320.98C538.682 320.81 538.55 320.676 538.37 320.58C538.192 320.483 537.958 320.435 537.666 320.435H536.564V325.5H535.686ZM540.767 319.682H541.832L543.685 324.205H543.753L545.605 319.682H546.67V325.5H545.835V321.29H545.781L544.065 325.492H543.372L541.656 321.287H541.602V325.5H540.767V319.682Z" fill="#C3C3C6"/>
</g>
<path d="M120 1L120 326" stroke="white" stroke-opacity="0.06"/>
</g>
<defs>
<clipPath id="clip0_5463_5822">
<rect width="568" height="326" fill="white"/>
</clipPath>
</defs>
</svg>
