<svg width="48" height="48" viewBox="0 0 48 48" fill="none" xmlns="http://www.w3.org/2000/svg">
<path d="M16.8008 16.8V11.4667C16.8008 9.69861 17.5594 8.00291 18.9096 6.75267C20.2599 5.50243 22.0912 4.80005 24.0008 4.80005C25.9103 4.80005 27.7417 5.50243 29.092 6.75267C30.4422 8.00291 31.2008 9.69861 31.2008 11.4667" stroke="#FD366E" stroke-width="1.2" stroke-linecap="round" stroke-linejoin="round"/>
<path d="M37.0659 16.8H10.9326C8.87069 16.8 7.19922 18.9491 7.19922 21.6V38.4C7.19922 41.051 8.87069 43.2001 10.9326 43.2001H37.0659C39.1277 43.2001 40.7992 41.051 40.7992 38.4V21.6C40.7992 18.9491 39.1277 16.8 37.0659 16.8Z" fill="url(#paint0_linear_134_1775)"/>
<path d="M10.9326 17.4H37.0659V16.2H10.9326V17.4ZM37.0659 17.4C38.6648 17.4 40.1992 19.1314 40.1992 21.6H41.3992C41.3992 18.7668 39.5907 16.2 37.0659 16.2V17.4ZM40.1992 21.6V38.4H41.3992V21.6H40.1992ZM40.1992 38.4C40.1992 40.8687 38.6648 42.6 37.0659 42.6V43.8001C39.5907 43.8001 41.3992 41.2333 41.3992 38.4H40.1992ZM37.0659 42.6H10.9326V43.8001H37.0659V42.6ZM10.9326 42.6C9.33365 42.6 7.79922 40.8687 7.79922 38.4H6.59922C6.59922 41.2333 8.40773 43.8001 10.9326 43.8001V42.6ZM7.79922 38.4V21.6H6.59922V38.4H7.79922ZM7.79922 21.6C7.79922 19.1314 9.33365 17.4 10.9326 17.4V16.2C8.40773 16.2 6.59922 18.7668 6.59922 21.6H7.79922Z" fill="#FD366E"/>
<g filter="url(#filter0_b_134_1775)">
<path fill-rule="evenodd" clip-rule="evenodd" d="M26.4102 30.8008C27.6664 30.0026 28.5 28.5986 28.5 27C28.5 24.5147 26.4853 22.5 24 22.5C21.5147 22.5 19.5 24.5147 19.5 27C19.5 28.5986 20.3336 30.0026 21.5898 30.8008L20.25 37.5H27.75L26.4102 30.8008Z" fill="url(#paint1_linear_134_1775)"/>
<path d="M26.4102 30.8008L26.0884 30.2944C25.8791 30.4274 25.7732 30.6754 25.8218 30.9185L26.4102 30.8008ZM21.5898 30.8008L22.1782 30.9185C22.2268 30.6754 22.1209 30.4274 21.9116 30.2944L21.5898 30.8008ZM20.25 37.5L19.6617 37.3823C19.6264 37.5586 19.672 37.7414 19.786 37.8804C19.9 38.0194 20.0702 38.1 20.25 38.1V37.5ZM27.75 37.5V38.1C27.9298 38.1 28.1 38.0194 28.214 37.8804C28.328 37.7414 28.3736 37.5586 28.3383 37.3823L27.75 37.5ZM27.9 27C27.9 28.3848 27.1787 29.6016 26.0884 30.2944L26.732 31.3072C28.1541 30.4035 29.1 28.8124 29.1 27H27.9ZM24 23.1C26.1539 23.1 27.9 24.8461 27.9 27H29.1C29.1 24.1833 26.8167 21.9 24 21.9V23.1ZM20.1 27C20.1 24.8461 21.8461 23.1 24 23.1V21.9C21.1833 21.9 18.9 24.1833 18.9 27H20.1ZM21.9116 30.2944C20.8213 29.6016 20.1 28.3848 20.1 27H18.9C18.9 28.8124 19.8459 30.4035 21.268 31.3072L21.9116 30.2944ZM20.8383 37.6177L22.1782 30.9185L21.0015 30.6832L19.6617 37.3823L20.8383 37.6177ZM27.75 36.9H20.25V38.1H27.75V36.9ZM25.8218 30.9185L27.1617 37.6177L28.3383 37.3823L26.9985 30.6832L25.8218 30.9185Z" fill="white"/>
</g>
<path d="M34.8008 9.59995L39.0008 4.19995" stroke="white" stroke-width="1.2" stroke-linecap="round" stroke-linejoin="round"/>
<path d="M37.1992 12L39.5992 10.8" stroke="white" stroke-width="1.2" stroke-linecap="round" stroke-linejoin="round"/>
<defs>
<filter id="filter0_b_134_1775" x="10.9004" y="13.8999" width="26.1992" height="32.2002" filterUnits="userSpaceOnUse" color-interpolation-filters="sRGB">
<feFlood flood-opacity="0" result="BackgroundImageFix"/>
<feGaussianBlur in="BackgroundImageFix" stdDeviation="4"/>
<feComposite in2="SourceAlpha" operator="in" result="effect1_backgroundBlur_134_1775"/>
<feBlend mode="normal" in="SourceGraphic" in2="effect1_backgroundBlur_134_1775" result="shape"/>
</filter>
<linearGradient id="paint0_linear_134_1775" x1="24.0014" y1="16.5" x2="24.0014" y2="43.5001" gradientUnits="userSpaceOnUse">
<stop stop-color="#FD366E" stop-opacity="0"/>
<stop offset="1" stop-color="#FD366E" stop-opacity="0.32"/>
</linearGradient>
<linearGradient id="paint1_linear_134_1775" x1="24" y1="22.5" x2="24" y2="37.5" gradientUnits="userSpaceOnUse">
<stop stop-color="white" stop-opacity="0"/>
<stop offset="1" stop-color="white" stop-opacity="0.4"/>
</linearGradient>
</defs>
</svg>
