<svg width="49" height="48" viewBox="0 0 49 48" fill="none" xmlns="http://www.w3.org/2000/svg">
<g clip-path="url(#clip0_253_2229)">
<path d="M9.50078 27.6V23.4H7.10078C5.44393 23.4 4.10078 22.0569 4.10078 20.4V7.80005C4.10078 6.14319 5.44393 4.80005 7.10078 4.80005H26.3008C27.9576 4.80005 29.3008 6.14319 29.3008 7.80005V20.4H22.9319C21.7052 20.4 20.602 21.1469 20.1465 22.2859L19.7008 23.4H14.9008L9.50078 27.6Z" fill="url(#paint0_linear_253_2229)"/>
<path d="M9.50078 23.4V22.8H10.1008V23.4H9.50078ZM9.50078 27.6L9.86915 28.0737C9.68826 28.2144 9.44303 28.2397 9.23717 28.139C9.03131 28.0384 8.90078 27.8292 8.90078 27.6H9.50078ZM14.9008 23.4L14.5324 22.9264L14.6949 22.8H14.9008V23.4ZM19.7008 23.4L20.2579 23.6229L20.107 24H19.7008V23.4ZM29.3008 20.4H29.9008V21H29.3008V20.4ZM20.1465 22.2859L20.7035 22.5087L20.7035 22.5087L20.1465 22.2859ZM10.1008 23.4V27.6H8.90078V23.4H10.1008ZM9.13242 27.1264L14.5324 22.9264L15.2691 23.8737L9.86915 28.0737L9.13242 27.1264ZM26.3008 5.40005H7.10078V4.20005H26.3008V5.40005ZM4.70078 7.80005V20.4H3.50078V7.80005H4.70078ZM7.10078 22.8H9.50078V24H7.10078V22.8ZM14.9008 22.8H19.7008V24H14.9008V22.8ZM28.7008 20.4V7.80005H29.9008V20.4H28.7008ZM29.3008 21H22.9319V19.8H29.3008V21ZM20.7035 22.5087L20.2579 23.6229L19.1437 23.1772L19.5894 22.063L20.7035 22.5087ZM4.70078 20.4C4.70078 21.7255 5.7753 22.8 7.10078 22.8V24C5.11256 24 3.50078 22.3883 3.50078 20.4H4.70078ZM7.10078 5.40005C5.7753 5.40005 4.70078 6.47457 4.70078 7.80005H3.50078C3.50078 5.81182 5.11256 4.20005 7.10078 4.20005V5.40005ZM22.9319 21C21.9505 21 21.068 21.5975 20.7035 22.5087L19.5894 22.063C20.1361 20.6963 21.4598 19.8 22.9319 19.8V21ZM26.3008 4.20005C28.289 4.20005 29.9008 5.81182 29.9008 7.80005H28.7008C28.7008 6.47456 27.6263 5.40005 26.3008 5.40005V4.20005Z" fill="white"/>
<path d="M39.4992 43.1999V38.9999H41.8992C43.5561 38.9999 44.8992 37.6568 44.8992 35.9999V23.3999C44.8992 21.743 43.5561 20.3999 41.8992 20.3999H22.6992C21.0424 20.3999 19.6992 21.7431 19.6992 23.3999V35.9999C19.6992 37.6568 21.0424 38.9999 22.6992 38.9999H34.0992L39.4992 43.1999Z" fill="url(#paint1_linear_253_2229)"/>
<path d="M39.4992 38.9999V38.3999H38.8992V38.9999H39.4992ZM39.4992 43.1999L39.1309 43.6735C39.3117 43.8142 39.557 43.8396 39.7628 43.7389C39.9687 43.6382 40.0992 43.4291 40.0992 43.1999H39.4992ZM34.0992 38.9999L34.4676 38.5263L34.3051 38.3999H34.0992V38.9999ZM38.8992 38.9999V43.1999H40.0992V38.9999H38.8992ZM39.8676 42.7263L34.4676 38.5263L33.7309 39.4735L39.1309 43.6735L39.8676 42.7263ZM34.0992 38.3999H22.6992V39.5999H34.0992V38.3999ZM20.2992 35.9999V23.3999H19.0992V35.9999H20.2992ZM22.6992 20.9999H41.8992V19.7999H22.6992V20.9999ZM44.2992 23.3999V35.9999H45.4992V23.3999H44.2992ZM41.8992 38.3999H39.4992V39.5999H41.8992V38.3999ZM44.2992 35.9999C44.2992 37.3254 43.2247 38.3999 41.8992 38.3999V39.5999C43.8874 39.5999 45.4992 37.9881 45.4992 35.9999H44.2992ZM41.8992 20.9999C43.2247 20.9999 44.2992 22.0744 44.2992 23.3999H45.4992C45.4992 21.4117 43.8874 19.7999 41.8992 19.7999V20.9999ZM20.2992 23.3999C20.2992 22.0744 21.3737 20.9999 22.6992 20.9999V19.7999C20.711 19.7999 19.0992 21.4117 19.0992 23.3999H20.2992ZM22.6992 38.3999C21.3737 38.3999 20.2992 37.3254 20.2992 35.9999H19.0992C19.0992 37.9881 20.711 39.5999 22.6992 39.5999V38.3999Z" fill="#FD366E"/>
</g>
<defs>
<linearGradient id="paint0_linear_253_2229" x1="16.7008" y1="4.80005" x2="16.7008" y2="27.6" gradientUnits="userSpaceOnUse">
<stop stop-color="white" stop-opacity="0"/>
<stop offset="1" stop-color="white" stop-opacity="0.4"/>
</linearGradient>
<linearGradient id="paint1_linear_253_2229" x1="32.2992" y1="20.3999" x2="32.2992" y2="43.1999" gradientUnits="userSpaceOnUse">
<stop stop-color="#FD366E" stop-opacity="0"/>
<stop offset="1" stop-color="#FD366E" stop-opacity="0.4"/>
</linearGradient>
<clipPath id="clip0_253_2229">
<rect width="48" height="48" fill="white" transform="translate(0.5)"/>
</clipPath>
</defs>
</svg>
