<svg width="49" height="48" viewBox="0 0 49 48" fill="none" xmlns="http://www.w3.org/2000/svg">
<path d="M23.9008 12L16.7008 6M16.7008 13.2L8.30078 6" stroke="white" stroke-width="1.2" stroke-linecap="round"/>
<path d="M23.9 12L31.1 6M31.1 13.2L39.5 6" stroke="white" stroke-width="1.2" stroke-linecap="round"/>
<circle cx="23.9004" cy="29.3999" r="14.4" fill="url(#paint0_linear_253_2216)" stroke="#FD366E" stroke-width="1.2"/>
<circle cx="23.9" cy="29.4" r="10.8" fill="url(#paint1_linear_253_2216)" stroke="#FD366E" stroke-width="1.2"/>
<path d="M24.4427 24.3451C24.3439 24.1346 24.1322 24.0001 23.8996 24.0001C23.667 24.0001 23.4553 24.1346 23.3565 24.3451L22.0092 27.2153L19.0085 27.6765C18.7862 27.7106 18.6018 27.8661 18.5305 28.0794C18.4593 28.2926 18.5132 28.5278 18.6703 28.6887L20.8587 30.9299L20.341 34.1035C20.304 34.3303 20.3998 34.5583 20.5877 34.6906C20.7755 34.8229 21.0225 34.8364 21.2236 34.7252L23.8996 33.2453L26.5757 34.7252C26.7767 34.8364 27.0237 34.8229 27.2115 34.6906C27.3994 34.5583 27.4952 34.3303 27.4582 34.1035L26.9406 30.9299L29.1289 28.6887C29.286 28.5278 29.3399 28.2926 29.2687 28.0794C29.1975 27.8661 29.013 27.7106 28.7908 27.6765L25.79 27.2153L24.4427 24.3451Z" fill="url(#paint2_linear_253_2216)" stroke="white" stroke-width="1.2" stroke-linecap="round" stroke-linejoin="round"/>
<defs>
<linearGradient id="paint0_linear_253_2216" x1="23.9004" y1="14.3999" x2="23.9004" y2="44.3999" gradientUnits="userSpaceOnUse">
<stop stop-color="#FD366E" stop-opacity="0"/>
<stop offset="1" stop-color="#FD366E" stop-opacity="0.4"/>
</linearGradient>
<linearGradient id="paint1_linear_253_2216" x1="23.9" y1="18" x2="23.9" y2="40.8" gradientUnits="userSpaceOnUse">
<stop stop-color="#FD366E" stop-opacity="0"/>
<stop offset="1" stop-color="#FD366E" stop-opacity="0.4"/>
</linearGradient>
<linearGradient id="paint2_linear_253_2216" x1="23.8996" y1="34.2001" x2="23.8996" y2="24.6001" gradientUnits="userSpaceOnUse">
<stop stop-color="white" stop-opacity="0.4"/>
<stop offset="1" stop-color="white" stop-opacity="0"/>
</linearGradient>
</defs>
</svg>
