<svg xmlns="http://www.w3.org/2000/svg" width="48" height="48" fill="none" viewBox="0 0 48 48"><path fill="url(#paint0_linear_134_1750)" d="M6.00039 27.3999C6.00039 26.8476 6.44811 26.3999 7.00039 26.3999L13.4004 26.3999C13.9527 26.3999 14.4004 26.8476 14.4004 27.3999L14.4004 42.1999C14.4004 42.7522 13.9527 43.1999 13.4004 43.1999L7.00039 43.1999"/><path stroke="#FD366E" stroke-linecap="round" stroke-linejoin="round" stroke-width="1.2" d="M7.00039 43.1999L13.4004 43.1999C13.9527 43.1999 14.4004 42.7522 14.4004 42.1999L14.4004 27.3999C14.4004 26.8476 13.9527 26.3999 13.4004 26.3999L7.00039 26.3999C6.44811 26.3999 6.00039 26.8476 6.00039 27.3999L6.00039 42.1999C6.00039 42.7522 6.44811 43.1999 7.00039 43.1999Z"/><path fill="url(#paint1_linear_134_1750)" d="M19.1996 17.8C19.1996 17.2478 19.6473 16.8 20.1996 16.8L26.5996 16.8C27.1519 16.8 27.5996 17.2478 27.5996 17.8L27.5996 42.2001C27.5996 42.7523 27.1519 43.2001 26.5996 43.2001L20.1996 43.2001"/><path stroke="#fff" stroke-linecap="round" stroke-linejoin="round" stroke-width="1.2" d="M20.1996 43.2L26.5996 43.2C27.1519 43.2 27.5996 42.7523 27.5996 42.2001L27.5996 17.8C27.5996 17.2478 27.1519 16.8 26.5996 16.8L20.1996 16.8C19.6473 16.8 19.1996 17.2478 19.1996 17.8L19.1996 42.2001C19.1996 42.7523 19.6473 43.2 20.1996 43.2Z"/><path fill="url(#paint2_linear_134_1750)" d="M32.4008 8.19995C32.4008 7.64767 32.8485 7.19995 33.4008 7.19995L39.8008 7.19995C40.3531 7.19995 40.8008 7.64767 40.8008 8.19995L40.8008 42.2C40.8008 42.7522 40.3531 43.2 39.8008 43.2L33.4008 43.2"/><path stroke="#FD366E" stroke-linecap="round" stroke-linejoin="round" stroke-width="1.2" d="M33.4008 43.2L39.8008 43.2C40.3531 43.2 40.8008 42.7522 40.8008 42.2L40.8008 8.19995C40.8008 7.64767 40.3531 7.19995 39.8008 7.19995L33.4008 7.19995C32.8485 7.19995 32.4008 7.64767 32.4008 8.19995L32.4008 42.2C32.4008 42.7522 32.8485 43.2 33.4008 43.2Z"/><defs><linearGradient id="paint0_linear_134_1750" x1="10.08" x2="10.08" y1="43.099" y2="26.744" gradientUnits="userSpaceOnUse"><stop stop-color="#FD366E" stop-opacity=".32"/><stop offset="1" stop-color="#FD366E" stop-opacity="0"/></linearGradient><linearGradient id="paint1_linear_134_1750" x1="23.4" x2="23.4" y1="43.2" y2="16.8" gradientUnits="userSpaceOnUse"><stop stop-color="#fff" stop-opacity=".4"/><stop offset="1" stop-color="#fff" stop-opacity="0"/></linearGradient><linearGradient id="paint2_linear_134_1750" x1="36.48" x2="36.48" y1="42.983" y2="7.938" gradientUnits="userSpaceOnUse"><stop stop-color="#FD366E" stop-opacity=".32"/><stop offset="1" stop-color="#FD366E" stop-opacity="0"/></linearGradient></defs></svg>