<svg xmlns="http://www.w3.org/2000/svg" width="48" height="48" fill="none" viewBox="0 0 48 48"><path stroke="#fff" stroke-linecap="round" stroke-width="1.2" d="M12.6 31.8L9 35.4001"/><path stroke="#fff" stroke-linecap="round" stroke-width="1.2" d="M13.8 34.2L9 39"/><path stroke="#fff" stroke-linecap="round" stroke-width="1.2" d="M16.1996 35.3999L12.5996 38.9999"/><path fill="url(#paint0_linear_259_2241)" stroke="#FD366E" stroke-linecap="round" stroke-linejoin="round" stroke-width="1.2" d="M19.4434 33.5972L14.3809 28.5283C13.7212 27.8678 13.3914 27.5376 13.2398 27.1812C13.0972 26.846 13.0526 26.5452 13.0917 26.1831C13.1334 25.798 13.3705 25.354 13.8446 24.4658C15.047 22.2132 16.2778 19.6407 18.189 17.3027C25.3882 8.49574 37.5894 2.8909 41.3443 6.65048C45.3916 10.7029 39.7735 21.8436 31.3312 29.2082C28.9276 31.3049 26.0276 32.7408 23.5877 34.1027C22.6814 34.6086 22.2282 34.8615 21.8376 34.9088C21.4687 34.9535 21.1654 34.9112 20.8229 34.7674C20.46 34.6151 20.1212 34.2758 19.4434 33.5972L19.4434 33.5972Z"/><path fill="url(#paint1_linear_259_2241)" stroke="#fff" stroke-linecap="round" stroke-width="1.2" d="M31.9564 19.1558C33.671 19.1558 35.0597 17.7643 35.0597 16.0494C35.0597 14.3345 33.671 12.943 31.9564 12.943C30.2418 12.943 28.8531 14.3345 28.8531 16.0494C28.8531 17.7643 30.2418 19.1558 31.9564 19.1558Z"/><path fill="url(#paint2_linear_259_2241)" stroke="#FD366E" stroke-linecap="round" stroke-linejoin="round" stroke-width="1.2" d="M30.5996 30C28.6796 31.44 25.7996 33 24.5996 33.6C24.5996 36.96 26.9996 39 28.1996 39.6C30.5996 39.12 32.3996 31.8 30.5996 30Z"/><path fill="url(#paint3_linear_259_2241)" stroke="#FD366E" stroke-linecap="round" stroke-linejoin="round" stroke-width="1.2" d="M18 17.5312C16.56 19.4512 15 22.3312 14.4 23.5313C11.04 23.5313 9 21.1313 8.4 19.9313C8.88 17.5312 16.2 15.7312 18 17.5312Z"/><defs><linearGradient id="paint0_linear_259_2241" x1="27.623" x2="27.623" y1="5.122" y2="35.815" gradientUnits="userSpaceOnUse"><stop stop-color="#FD366E" stop-opacity="0"/><stop offset="1" stop-color="#FD366E" stop-opacity=".32"/></linearGradient><linearGradient id="paint1_linear_259_2241" x1="31.956" x2="31.956" y1="13.543" y2="18.556" gradientUnits="userSpaceOnUse"><stop stop-color="#fff" stop-opacity="0"/><stop offset="1" stop-color="#fff" stop-opacity=".4"/></linearGradient><linearGradient id="paint2_linear_259_2241" x1="27.892" x2="27.892" y1="29.888" y2="39.932" gradientUnits="userSpaceOnUse"><stop stop-color="#FD366E" stop-opacity="0"/><stop offset="1" stop-color="#FD366E" stop-opacity=".32"/></linearGradient><linearGradient id="paint3_linear_259_2241" x1="18.112" x2="8.068" y1="20.239" y2="20.239" gradientUnits="userSpaceOnUse"><stop stop-color="#FD366E" stop-opacity="0"/><stop offset="1" stop-color="#FD366E" stop-opacity=".32"/></linearGradient></defs></svg>