<svg xmlns="http://www.w3.org/2000/svg" width="48" height="48" fill="none" viewBox="0 0 48 48"><g clip-path="url(#clip0_134_1765)"><path fill="url(#paint0_linear_134_1765)" d="M9.00078 27.6V23.4H6.60078C4.94393 23.4 3.60078 22.0569 3.60078 20.4V7.80005C3.60078 6.14319 4.94393 4.80005 6.60078 4.80005H25.8008C27.4576 4.80005 28.8008 6.14319 28.8008 7.80005V20.4H22.4319C21.2052 20.4 20.102 21.1469 19.6465 22.2859L19.2008 23.4H14.4008L9.00078 27.6Z"/><path fill="#fff" d="M9.00078 23.4V22.8H9.60078V23.4H9.00078ZM9.00078 27.6L9.36915 28.0737C9.18826 28.2143 8.94303 28.2397 8.73717 28.139C8.53131 28.0384 8.40078 27.8292 8.40078 27.6H9.00078ZM14.4008 23.4L14.0324 22.9264L14.1949 22.8H14.4008V23.4ZM19.2008 23.4L19.7579 23.6229L19.607 24H19.2008V23.4ZM28.8008 20.4H29.4008V21H28.8008V20.4ZM19.6465 22.2859L20.2035 22.5087L19.6465 22.2859ZM9.60078 23.4V27.6H8.40078V23.4H9.60078ZM8.63242 27.1264L14.0324 22.9264L14.7691 23.8737L9.36915 28.0737L8.63242 27.1264ZM25.8008 5.40005H6.60078V4.20005H25.8008V5.40005ZM4.20078 7.80005V20.4H3.00078V7.80005H4.20078ZM6.60078 22.8H9.00078V24H6.60078V22.8ZM14.4008 22.8H19.2008V24H14.4008V22.8ZM28.2008 20.4V7.80005H29.4008V20.4H28.2008ZM28.8008 21H22.4319V19.8H28.8008V21ZM20.2035 22.5087L19.7579 23.6229L18.6437 23.1772L19.0894 22.063L20.2035 22.5087ZM4.20078 20.4C4.20078 21.7255 5.2753 22.8 6.60078 22.8V24C4.61256 24 3.00078 22.3883 3.00078 20.4H4.20078ZM6.60078 5.40005C5.2753 5.40005 4.20078 6.47457 4.20078 7.80005H3.00078C3.00078 5.81182 4.61256 4.20005 6.60078 4.20005V5.40005ZM22.4319 21C21.4505 21 20.568 21.5975 20.2035 22.5087L19.0894 22.063C19.6361 20.6963 20.9598 19.8 22.4319 19.8V21ZM25.8008 4.20005C27.789 4.20005 29.4008 5.81182 29.4008 7.80005H28.2008C28.2008 6.47456 27.1263 5.40005 25.8008 5.40005V4.20005Z"/><path fill="url(#paint1_linear_134_1765)" d="M38.9992 43.1999V38.9999H41.3992C43.0561 38.9999 44.3992 37.6568 44.3992 35.9999V23.3999C44.3992 21.743 43.0561 20.3999 41.3992 20.3999H22.1992C20.5424 20.3999 19.1992 21.7431 19.1992 23.3999V35.9999C19.1992 37.6568 20.5424 38.9999 22.1992 38.9999H33.5992L38.9992 43.1999Z"/><path fill="#FD366E" d="M38.9992 38.9999V38.3999H38.3992V38.9999H38.9992ZM38.9992 43.1999L38.6309 43.6735C38.8117 43.8142 39.057 43.8396 39.2628 43.7389C39.4687 43.6382 39.5992 43.4291 39.5992 43.1999H38.9992ZM33.5992 38.9999L33.9676 38.5263L33.8051 38.3999H33.5992V38.9999ZM38.3992 38.9999V43.1999H39.5992V38.9999H38.3992ZM39.3676 42.7263L33.9676 38.5263L33.2309 39.4735L38.6309 43.6735L39.3676 42.7263ZM33.5992 38.3999H22.1992V39.5999H33.5992V38.3999ZM19.7992 35.9999V23.3999H18.5992V35.9999H19.7992ZM22.1992 20.9999H41.3992V19.7999H22.1992V20.9999ZM43.7992 23.3999V35.9999H44.9992V23.3999H43.7992ZM41.3992 38.3999H38.9992V39.5999H41.3992V38.3999ZM43.7992 35.9999C43.7992 37.3254 42.7247 38.3999 41.3992 38.3999V39.5999C43.3874 39.5999 44.9992 37.9881 44.9992 35.9999H43.7992ZM41.3992 20.9999C42.7247 20.9999 43.7992 22.0744 43.7992 23.3999H44.9992C44.9992 21.4117 43.3874 19.7999 41.3992 19.7999V20.9999ZM19.7992 23.3999C19.7992 22.0744 20.8737 20.9999 22.1992 20.9999V19.7999C20.211 19.7999 18.5992 21.4117 18.5992 23.3999H19.7992ZM22.1992 38.3999C20.8737 38.3999 19.7992 37.3254 19.7992 35.9999H18.5992C18.5992 37.9881 20.211 39.5999 22.1992 39.5999V38.3999Z"/></g><defs><linearGradient id="paint0_linear_134_1765" x1="16.201" x2="16.201" y1="4.8" y2="27.6" gradientUnits="userSpaceOnUse"><stop stop-color="#fff" stop-opacity="0"/><stop offset="1" stop-color="#fff" stop-opacity=".4"/></linearGradient><linearGradient id="paint1_linear_134_1765" x1="31.799" x2="31.799" y1="20.4" y2="43.2" gradientUnits="userSpaceOnUse"><stop stop-color="#FD366E" stop-opacity="0"/><stop offset="1" stop-color="#FD366E" stop-opacity=".4"/></linearGradient><clipPath id="clip0_134_1765"><rect width="48" height="48" fill="#fff"/></clipPath></defs></svg>