<svg xmlns="http://www.w3.org/2000/svg" width="48" height="48" fill="none" viewBox="0 0 48 48"><path stroke="#fff" stroke-linecap="round" stroke-width="1.2" d="M24.5996 38.3999L24.5996 27.5999"/><path stroke="#fff" stroke-linecap="round" stroke-width="1.2" d="M24.5996 27.3359L30.3356 21.5999"/><path stroke="#fff" stroke-linecap="round" stroke-width="1.2" d="M24.5996 27.3359L18.8636 21.5999"/><path stroke="#fff" stroke-linecap="round" stroke-width="1.2" d="M19.1992 43.2L29.9992 43.2"/><path fill="url(#paint0_linear_134_1755)" fill-rule="evenodd" d="M32.0311 33.7769C36.5664 31.0483 39.6004 26.0785 39.6004 20.4001C39.6004 11.7844 32.616 4.80005 24.0004 4.80005C15.3847 4.80005 8.40039 11.7844 8.40039 20.4001C8.40039 26.6205 12.0412 31.9906 17.308 34.4956V38.6001C17.308 39.1523 17.7557 39.6001 18.308 39.6001H31.0311C31.5834 39.6001 32.0311 39.1523 32.0311 38.6001V33.7769Z" clip-rule="evenodd"/><path fill="#FD366E" d="M32.0311 33.7769L31.7218 33.2628C31.5414 33.3713 31.4311 33.5664 31.4311 33.7769H32.0311ZM17.308 34.4956H17.908C17.908 34.2641 17.7748 34.0533 17.5657 33.9538L17.308 34.4956ZM39.0004 20.4001C39.0004 25.8594 36.0842 30.6382 31.7218 33.2628L32.3404 34.2911C37.0486 31.4585 40.2004 26.2976 40.2004 20.4001H39.0004ZM24.0004 5.40005C32.2847 5.40005 39.0004 12.1158 39.0004 20.4001H40.2004C40.2004 11.453 32.9474 4.20005 24.0004 4.20005V5.40005ZM9.00039 20.4001C9.00039 12.1158 15.7161 5.40005 24.0004 5.40005V4.20005C15.0534 4.20005 7.80039 11.453 7.80039 20.4001H9.00039ZM17.5657 33.9538C12.5 31.5444 9.00039 26.3803 9.00039 20.4001H7.80039C7.80039 26.8606 11.5823 32.4367 17.0503 35.0375L17.5657 33.9538ZM17.908 38.6001V34.4956H16.708V38.6001H17.908ZM18.308 39C18.0871 39 17.908 38.821 17.908 38.6001H16.708C16.708 39.4837 17.4244 40.2001 18.308 40.2001V39ZM31.0311 39H18.308V40.2001H31.0311V39ZM31.4311 38.6001C31.4311 38.821 31.252 39 31.0311 39V40.2001C31.9147 40.2001 32.6311 39.4837 32.6311 38.6001H31.4311ZM31.4311 33.7769V38.6001H32.6311V33.7769H31.4311Z"/><defs><linearGradient id="paint0_linear_134_1755" x1="24.776" x2="24.776" y1="39.544" y2="9.6" gradientUnits="userSpaceOnUse"><stop stop-color="#FD366E" stop-opacity=".32"/><stop offset="1" stop-color="#FD366E" stop-opacity="0"/></linearGradient></defs></svg>