<svg xmlns="http://www.w3.org/2000/svg" width="320" height="120" fill="none" viewBox="0 0 320 120"><g clip-path="url(#clip0_245_8143)"><g filter="url(#filter0_bdi_245_8143)" opacity=".5"><path fill="#fff" fill-opacity=".02" d="M499.325 94.6411C501.623 113.757 502.772 123.314 499.93 131.063C497.43 137.878 492.836 143.728 486.807 147.772C479.953 152.37 470.396 153.519 451.28 155.817L383.234 163.997C364.119 166.295 354.561 167.444 346.813 164.602C339.997 162.102 334.148 157.508 330.103 151.479C325.506 144.625 324.357 135.067 322.059 115.952L314.239 50.9101C311.941 31.7946 310.792 22.2368 313.635 14.4884C316.135 7.67277 320.729 1.82358 326.758 -2.2208C333.612 -6.81866 343.169 -7.96768 362.285 -10.2657L430.331 -18.446C449.446 -20.744 459.004 -21.893 466.752 -19.0506C473.568 -16.5504 479.417 -11.9566 483.461 -5.92774C488.059 0.926191 489.208 10.4839 491.506 29.5995L499.325 94.6411Z" shape-rendering="crispEdges"/><path stroke="url(#paint0_linear_245_8143)" stroke-opacity=".15" stroke-width="1.947" d="M498.359 94.7573C499.51 104.331 500.365 111.453 500.582 117.152C500.799 122.839 500.375 127.022 499.016 130.727C496.587 137.35 492.123 143.034 486.265 146.963C482.987 149.162 479.024 150.566 473.447 151.703C467.86 152.842 460.737 153.699 451.164 154.85L383.118 163.03C373.544 164.181 366.422 165.037 360.724 165.254C355.037 165.471 350.853 165.047 347.148 163.688C340.525 161.258 334.842 156.795 330.912 150.936C328.713 147.659 327.31 143.695 326.173 138.119C325.033 132.531 324.176 125.409 323.025 115.836L315.206 50.7939C314.055 41.2202 313.2 34.0979 312.982 28.3995C312.765 22.7124 313.19 18.5292 314.549 14.8238C316.978 8.20116 321.442 2.51761 327.3 -1.41221C330.578 -3.61101 334.541 -5.01448 340.118 -6.15165C345.705 -7.29109 352.827 -8.14805 362.401 -9.29898L430.447 -17.4793C440.02 -18.6302 447.143 -19.4857 452.841 -19.703C458.528 -19.9199 462.711 -19.4958 466.417 -18.1365C473.039 -15.7071 478.723 -11.2434 482.653 -5.38531C484.852 -2.1076 486.255 1.8559 487.392 7.43232C488.532 13.0199 489.389 20.142 490.54 29.7157L498.359 94.7573Z" shape-rendering="crispEdges"/></g><g filter="url(#filter1_bdi_245_8143)"><rect width="178.543" height="175.518" x="314.666" y="172.24" fill="#fff" fill-opacity=".02" rx="34.377" shape-rendering="crispEdges" transform="rotate(173.145 314.666 172.24)"/><rect width="178.543" height="175.518" x="314.666" y="172.24" fill="url(#paint1_linear_245_8143)" fill-opacity=".08" rx="34.377" shape-rendering="crispEdges" transform="rotate(173.145 314.666 172.24)"/><rect width="176.596" height="173.57" x="313.583" y="171.39" stroke="url(#paint2_linear_245_8143)" stroke-opacity=".15" stroke-width="1.947" rx="33.404" shape-rendering="crispEdges" transform="rotate(173.145 313.583 171.39)"/><rect width="176.596" height="173.57" x="313.583" y="171.39" stroke="url(#paint3_linear_245_8143)" stroke-width="1.947" rx="33.404" shape-rendering="crispEdges" transform="rotate(173.145 313.583 171.39)"/><rect width="176.596" height="173.57" x="313.583" y="171.39" stroke="url(#paint4_linear_245_8143)" stroke-width="1.947" rx="33.404" shape-rendering="crispEdges" transform="rotate(173.145 313.583 171.39)"/><g clip-path="url(#clip1_245_8143)"><path fill="url(#paint5_linear_245_8143)" fill-rule="evenodd" d="M160.577 93.0459C160.33 93.0756 160.253 92.9596 160.354 92.7596L161.45 90.9376C161.551 90.7376 161.845 90.5771 162.092 90.5474L184.123 87.8989C184.37 87.8692 184.454 88.0469 184.353 88.2469L183.496 89.9775C183.395 90.1775 183.109 90.3997 182.924 90.422L160.577 93.0459Z" clip-rule="evenodd"/><path fill="url(#paint6_linear_245_8143)" fill-rule="evenodd" d="M151.941 99.8438C151.694 99.8734 151.618 99.7574 151.719 99.5575L152.815 97.7354C152.916 97.5355 153.21 97.3749 153.456 97.3453L181.597 93.9622C181.844 93.9326 181.99 94.1029 181.95 94.2954L181.635 95.8359C181.603 96.0901 181.371 96.2432 181.124 96.2729L151.941 99.8438Z" clip-rule="evenodd"/><path fill="url(#paint7_linear_245_8143)" fill-rule="evenodd" d="M167.558 103.725C167.311 103.755 167.227 103.577 167.328 103.377L168.007 101.731C168.108 101.531 168.333 101.316 168.579 101.286L180.922 99.8024C181.169 99.7727 181.314 99.943 181.344 100.19L181.399 101.686C181.428 101.933 181.204 102.147 181.019 102.17L167.558 103.725Z" clip-rule="evenodd"/><path fill="url(#paint8_linear_245_8143)" fill-rule="evenodd" d="M230.116 83.5589C226.347 85.0137 223.782 86.0732 220.075 87.5206C219.179 87.8787 219.124 87.9479 218.211 87.1186C217.159 86.1808 216.399 85.5836 215.029 85.1222C210.911 83.6766 207.213 84.6845 203.97 87.3908C200.1 90.6106 198.422 94.8815 199.085 99.8728C199.74 104.802 203.624 108.467 208.581 108.56C212.844 108.611 216.184 106.707 218.582 103.226C219.056 102.48 219.461 101.68 219.974 100.742C217.752 101.009 214.975 101.343 208.063 102.174C206.768 102.33 206.363 101.565 206.668 100.464C207.241 98.4541 208.336 95.067 209.007 93.3586C209.148 92.9661 209.505 92.297 210.431 92.1858L232.894 89.4853C232.971 91.1663 233.172 92.8326 233.125 94.5285C232.98 99.0534 231.804 103.327 229.519 107.232C225.78 113.629 220.417 117.968 213.192 119.838C207.241 121.367 201.484 120.87 196.102 117.761C191.12 114.854 187.979 110.599 186.617 105.003C185.006 98.3725 186.254 92.0873 189.689 86.2904C193.381 80.0244 198.744 75.686 205.685 73.5369C211.36 71.7904 216.996 71.8015 222.402 74.5947C225.933 76.3615 228.634 79.0417 230.607 82.4356C231.044 82.9465 230.834 83.2847 230.116 83.5589Z" clip-rule="evenodd"/><path fill="url(#paint9_linear_245_8143)" d="M254.647 115.231C249.016 115.782 243.701 114.794 238.936 111.61C234.917 108.901 232.151 105.164 230.839 100.501C228.89 93.661 230.062 87.2598 233.598 81.2629C237.39 74.797 242.45 71.0585 249.638 68.8797C255.799 67.0121 261.798 66.917 267.605 69.9126C272.88 72.659 276.446 76.8005 277.96 82.6284C280.011 90.8334 278.42 97.9111 273.378 104.402C269.803 109.026 265.115 112.219 259.517 114.082C257.888 114.591 256.229 114.853 254.647 115.231ZM266.337 88.5332C266.179 87.7384 266.105 87.1212 265.907 86.519C264.062 80.543 258.031 77.7622 252.331 79.8247C246.748 81.8106 243.483 85.8968 242.822 91.8609C242.29 96.808 245.221 101.401 249.902 102.842C253.474 103.915 256.846 103.322 259.917 101.262C264.488 98.1461 266.667 93.8775 266.337 88.5332Z"/></g></g><g filter="url(#filter2_bdi_245_8143)" opacity=".5"><rect width="178.543" height="175.518" x="123.441" y="195.229" fill="#fff" fill-opacity=".02" rx="34.377" shape-rendering="crispEdges" transform="rotate(173.145 123.441 195.229)"/><rect width="176.596" height="173.57" x="122.358" y="194.378" stroke="url(#paint10_linear_245_8143)" stroke-opacity=".15" stroke-width="1.947" rx="33.404" shape-rendering="crispEdges" transform="rotate(173.145 122.358 194.378)"/></g></g><defs><filter id="filter0_bdi_245_8143" width="392.953" height="390.31" x="210.306" y="-122.38" color-interpolation-filters="sRGB" filterUnits="userSpaceOnUse"><feFlood flood-opacity="0" result="BackgroundImageFix"/><feGaussianBlur in="BackgroundImageFix" stdDeviation="48.684"/><feComposite in2="SourceAlpha" operator="in" result="effect1_backgroundBlur_245_8143"/><feColorMatrix in="SourceAlpha" result="hardAlpha" type="matrix" values="0 0 0 0 0 0 0 0 0 0 0 0 0 0 0 0 0 0 127 0"/><feOffset dx="12.03"/><feGaussianBlur stdDeviation="20.051"/><feComposite in2="hardAlpha" operator="out"/><feColorMatrix type="matrix" values="0 0 0 0 0 0 0 0 0 0 0 0 0 0 0 0 0 0 0.16 0"/><feBlend in2="effect1_backgroundBlur_245_8143" mode="normal" result="effect2_dropShadow_245_8143"/><feBlend in="SourceGraphic" in2="effect2_dropShadow_245_8143" mode="normal" result="shape"/><feColorMatrix in="SourceAlpha" result="hardAlpha" type="matrix" values="0 0 0 0 0 0 0 0 0 0 0 0 0 0 0 0 0 0 127 0"/><feOffset dy="1.003"/><feGaussianBlur stdDeviation=".501"/><feComposite in2="hardAlpha" k2="-1" k3="1" operator="arithmetic"/><feColorMatrix type="matrix" values="0 0 0 0 1 0 0 0 0 1 0 0 0 0 1 0 0 0 0.25 0"/><feBlend in2="shape" mode="normal" result="effect3_innerShadow_245_8143"/></filter><filter id="filter1_bdi_245_8143" width="392.953" height="390.31" x="19.081" y="-99.391" color-interpolation-filters="sRGB" filterUnits="userSpaceOnUse"><feFlood flood-opacity="0" result="BackgroundImageFix"/><feGaussianBlur in="BackgroundImageFix" stdDeviation="48.684"/><feComposite in2="SourceAlpha" operator="in" result="effect1_backgroundBlur_245_8143"/><feColorMatrix in="SourceAlpha" result="hardAlpha" type="matrix" values="0 0 0 0 0 0 0 0 0 0 0 0 0 0 0 0 0 0 127 0"/><feOffset dx="12.03"/><feGaussianBlur stdDeviation="20.051"/><feComposite in2="hardAlpha" operator="out"/><feColorMatrix type="matrix" values="0 0 0 0 0 0 0 0 0 0 0 0 0 0 0 0 0 0 0.16 0"/><feBlend in2="effect1_backgroundBlur_245_8143" mode="normal" result="effect2_dropShadow_245_8143"/><feBlend in="SourceGraphic" in2="effect2_dropShadow_245_8143" mode="normal" result="shape"/><feColorMatrix in="SourceAlpha" result="hardAlpha" type="matrix" values="0 0 0 0 0 0 0 0 0 0 0 0 0 0 0 0 0 0 127 0"/><feOffset dy="1.003"/><feGaussianBlur stdDeviation=".501"/><feComposite in2="hardAlpha" k2="-1" k3="1" operator="arithmetic"/><feColorMatrix type="matrix" values="0 0 0 0 1 0 0 0 0 1 0 0 0 0 1 0 0 0 0.25 0"/><feBlend in2="shape" mode="normal" result="effect3_innerShadow_245_8143"/></filter><filter id="filter2_bdi_245_8143" width="392.953" height="390.31" x="-172.144" y="-76.403" color-interpolation-filters="sRGB" filterUnits="userSpaceOnUse"><feFlood flood-opacity="0" result="BackgroundImageFix"/><feGaussianBlur in="BackgroundImageFix" stdDeviation="48.684"/><feComposite in2="SourceAlpha" operator="in" result="effect1_backgroundBlur_245_8143"/><feColorMatrix in="SourceAlpha" result="hardAlpha" type="matrix" values="0 0 0 0 0 0 0 0 0 0 0 0 0 0 0 0 0 0 127 0"/><feOffset dx="12.03"/><feGaussianBlur stdDeviation="20.051"/><feComposite in2="hardAlpha" operator="out"/><feColorMatrix type="matrix" values="0 0 0 0 0 0 0 0 0 0 0 0 0 0 0 0 0 0 0.16 0"/><feBlend in2="effect1_backgroundBlur_245_8143" mode="normal" result="effect2_dropShadow_245_8143"/><feBlend in="SourceGraphic" in2="effect2_dropShadow_245_8143" mode="normal" result="shape"/><feColorMatrix in="SourceAlpha" result="hardAlpha" type="matrix" values="0 0 0 0 0 0 0 0 0 0 0 0 0 0 0 0 0 0 127 0"/><feOffset dy="1.003"/><feGaussianBlur stdDeviation=".501"/><feComposite in2="hardAlpha" k2="-1" k3="1" operator="arithmetic"/><feColorMatrix type="matrix" values="0 0 0 0 1 0 0 0 0 1 0 0 0 0 1 0 0 0 0.25 0"/><feBlend in2="shape" mode="normal" result="effect3_innerShadow_245_8143"/></filter><linearGradient id="paint0_linear_245_8143" x1="415.782" x2="392.412" y1="147.636" y2="-46.763" gradientUnits="userSpaceOnUse"><stop stop-color="#fff" stop-opacity=".5"/><stop offset="1" stop-color="#fff" stop-opacity=".5"/></linearGradient><linearGradient id="paint1_linear_245_8143" x1="403.938" x2="403.938" y1="285.625" y2="347.758" gradientUnits="userSpaceOnUse"><stop stop-color="#fff" stop-opacity="0"/><stop offset="1" stop-color="#fff"/></linearGradient><linearGradient id="paint2_linear_245_8143" x1="403.938" x2="403.938" y1="184.6" y2="380.398" gradientUnits="userSpaceOnUse"><stop stop-color="#fff"/><stop offset="1" stop-color="#fff" stop-opacity="0"/></linearGradient><linearGradient id="paint3_linear_245_8143" x1="430.162" x2="478.713" y1="228.028" y2="345.635" gradientUnits="userSpaceOnUse"><stop offset=".5" stop-color="#fff" stop-opacity="0"/><stop offset="1" stop-color="#fff"/></linearGradient><linearGradient id="paint4_linear_245_8143" x1="403.927" x2="325.22" y1="246.121" y2="169.225" gradientUnits="userSpaceOnUse"><stop offset=".583" stop-color="#fff" stop-opacity="0"/><stop offset="1" stop-color="#fff"/></linearGradient><linearGradient id="paint5_linear_245_8143" x1="172.212" x2="172.556" y1="89.331" y2="92.189" gradientUnits="userSpaceOnUse"><stop stop-color="#fff"/><stop offset="1" stop-color="#999"/></linearGradient><linearGradient id="paint6_linear_245_8143" x1="166.671" x2="167.005" y1="95.757" y2="98.54" gradientUnits="userSpaceOnUse"><stop stop-color="#fff"/><stop offset="1" stop-color="#999"/></linearGradient><linearGradient id="paint7_linear_245_8143" x1="174.164" x2="174.508" y1="100.615" y2="103.473" gradientUnits="userSpaceOnUse"><stop stop-color="#fff"/><stop offset="1" stop-color="#999"/></linearGradient><linearGradient id="paint8_linear_245_8143" x1="206.746" x2="213.666" y1="72.95" y2="130.51" gradientUnits="userSpaceOnUse"><stop stop-color="#fff"/><stop offset="1" stop-color="#999"/></linearGradient><linearGradient id="paint9_linear_245_8143" x1="251.548" x2="258.403" y1="68.144" y2="125.167" gradientUnits="userSpaceOnUse"><stop stop-color="#fff"/><stop offset="1" stop-color="#999"/></linearGradient><linearGradient id="paint10_linear_245_8143" x1="212.713" x2="212.713" y1="207.588" y2="403.387" gradientUnits="userSpaceOnUse"><stop stop-color="#fff" stop-opacity=".5"/><stop offset="1" stop-color="#fff" stop-opacity=".5"/></linearGradient><clipPath id="clip0_245_8143"><rect width="320" height="120" fill="#fff"/></clipPath><clipPath id="clip1_245_8143"><rect width="128.664" height="48.482" fill="#fff" transform="translate(148.792 79.3748) rotate(-6.85508)"/></clipPath></defs></svg>