<svg xmlns="http://www.w3.org/2000/svg" width="1259" height="678" fill="none" viewBox="0 0 1259 678"><g filter="url(#filter0_bdi_408_6323)"><rect width="602.574" height="592.362" x="608.08" y="228.999" fill="#fff" fill-opacity=".02" rx="116.022" shape-rendering="crispEdges" transform="rotate(-10.9702 608.08 228.999)"/><rect width="602.574" height="592.362" x="608.08" y="228.999" fill="url(#paint0_linear_408_6323)" fill-opacity=".08" rx="116.022" shape-rendering="crispEdges" transform="rotate(-10.9702 608.08 228.999)"/><rect width="596.001" height="585.79" x="611.931" y="231.6" stroke="url(#paint1_linear_408_6323)" stroke-opacity=".15" stroke-width="6.572" rx="112.736" shape-rendering="crispEdges" transform="rotate(-10.9702 611.931 231.6)"/><rect width="596.001" height="585.79" x="611.931" y="231.6" stroke="url(#paint2_linear_408_6323)" stroke-width="6.572" rx="112.736" shape-rendering="crispEdges" transform="rotate(-10.9702 611.931 231.6)"/><rect width="596.001" height="585.79" x="611.931" y="231.6" stroke="url(#paint3_linear_408_6323)" stroke-width="6.572" rx="112.736" shape-rendering="crispEdges" transform="rotate(-10.9702 611.931 231.6)"/><g clip-path="url(#clip0_408_6323)"><path fill="url(#paint4_linear_408_6323)" fill-rule="evenodd" d="M771.203 466.672C770.365 466.834 770.074 466.456 770.371 465.746L773.675 459.234C773.973 458.524 774.939 457.902 775.778 457.739L850.6 443.235C851.439 443.073 851.77 443.661 851.473 444.371L848.966 450.511C848.669 451.221 847.743 452.053 847.114 452.175L771.203 466.672Z" clip-rule="evenodd"/><path fill="url(#paint5_linear_408_6323)" fill-rule="evenodd" d="M743.289 492.089C742.45 492.252 742.16 491.873 742.457 491.163L745.761 484.651C746.059 483.941 747.025 483.319 747.864 483.156L843.435 464.631C844.274 464.468 844.815 465.016 844.727 465.685L844.025 471.04C843.978 471.919 843.221 472.501 842.383 472.663L743.289 492.089Z" clip-rule="evenodd"/><path fill="url(#paint6_linear_408_6323)" fill-rule="evenodd" d="M797.748 501.539C796.909 501.702 796.578 501.114 796.875 500.404L798.794 494.595C799.091 493.885 799.808 493.094 800.646 492.932L842.563 484.806C843.402 484.644 843.943 485.191 844.105 486.03L844.661 491.141C844.824 491.979 844.107 492.771 843.478 492.892L797.748 501.539Z" clip-rule="evenodd"/><path fill="url(#paint7_linear_408_6323)" fill-rule="evenodd" d="M1007.09 417.032C994.541 422.945 986.016 427.207 973.672 433.079C970.69 434.527 970.521 434.777 967.187 432.161C963.353 429.208 960.601 427.349 955.793 426.106C941.33 422.169 928.91 426.533 918.467 436.604C906.003 448.588 901.308 463.633 904.808 480.569C908.268 497.295 922.477 508.894 939.481 507.99C954.099 507.113 965.07 499.768 972.429 487.25C973.869 484.579 975.058 481.739 976.585 478.399C969.04 479.861 959.609 481.689 936.135 486.24C931.733 487.093 930.157 484.571 930.934 480.724C932.399 473.699 935.317 461.825 937.195 455.807C937.58 454.428 938.64 452.047 941.784 451.438L1018.07 436.65C1018.75 442.39 1019.85 448.049 1020.11 453.87C1020.73 469.407 1017.75 484.337 1010.88 498.281C999.653 521.117 982.349 537.301 958.058 545.489C938.047 552.195 918.202 551.91 898.998 542.585C881.213 533.854 869.404 520.051 863.361 501.216C856.208 478.899 858.933 457.06 869.272 436.354C880.375 413.978 897.679 397.793 920.928 388.72C939.939 381.338 959.249 379.987 978.46 388.223C990.99 393.406 1000.9 401.922 1008.5 413.063C1010.12 414.705 1009.49 415.916 1007.09 417.032Z" clip-rule="evenodd"/><path fill="url(#paint8_linear_408_6323)" d="M1098.94 519.486C1079.78 522.764 1061.33 520.687 1044.22 510.956C1029.78 502.664 1019.39 490.544 1013.74 474.893C1005.38 451.941 1007.82 429.723 1018.45 408.307C1029.85 385.221 1046.26 371.166 1070.35 361.93C1091 354.014 1111.52 352.21 1132.16 361.041C1150.91 369.149 1164.14 382.458 1170.77 402.05C1179.81 429.654 1176.11 454.293 1160.44 477.772C1149.33 494.496 1134.06 506.589 1115.34 514.35C1109.88 516.495 1104.26 517.801 1098.94 519.486ZM1132.4 425.144C1131.67 422.46 1131.26 420.364 1130.43 418.349C1122.64 398.332 1101.29 390.292 1082.28 398.762C1063.64 406.942 1053.46 421.745 1052.67 442.34C1052.06 459.419 1063.24 474.433 1079.63 478.214C1092.13 481.01 1103.53 478.147 1113.55 470.335C1128.44 458.532 1134.85 443.372 1132.4 425.144Z"/></g></g><path stroke="url(#paint9_linear_408_6323)" stroke-linecap="round" stroke-width="4.749" d="M217.449 586.697L660.066 500.899"/><path stroke="url(#paint10_linear_408_6323)" stroke-linecap="round" stroke-width="4.749" d="M194.773 690.614L533.48 624.958"/><path stroke="url(#paint11_linear_408_6323)" stroke-linecap="round" stroke-width="4.749" d="M216.921 489.35L516.662 431.248"/><path stroke="url(#paint12_linear_408_6323)" stroke-linecap="round" stroke-width="4.749" d="M18.8701 430.293L318.611 372.191"/><g style="mix-blend-mode:screen" filter="url(#filter1_f_408_6323)"><path stroke="url(#paint13_linear_408_6323)" stroke-linecap="round" stroke-width="4.749" d="M219.109 586.375L661.727 500.576"/><path stroke="url(#paint14_linear_408_6323)" stroke-linecap="round" stroke-width="4.749" d="M194.771 690.613L533.479 624.957"/><path stroke="url(#paint15_linear_408_6323)" stroke-linecap="round" stroke-width="4.749" d="M216.921 489.35L516.662 431.248"/><path stroke="url(#paint16_linear_408_6323)" stroke-linecap="round" stroke-width="4.749" d="M18.8681 430.293L318.609 372.191"/></g><g filter="url(#filter2_f_408_6323)"><g style="mix-blend-mode:screen" filter="url(#filter3_f_408_6323)"><circle cx="659.581" cy="500.026" r="37.656" fill="url(#paint17_radial_408_6323)" fill-opacity=".5" transform="rotate(79.0298 659.581 500.026)"/></g><g style="mix-blend-mode:screen"><circle cx="659.577" cy="500.026" r="20.65" fill="url(#paint18_radial_408_6323)" transform="rotate(79.0298 659.577 500.026)"/></g></g><defs><filter id="filter0_bdi_408_6323" width="1361.51" height="1353.43" x="279.467" y="-214.283" color-interpolation-filters="sRGB" filterUnits="userSpaceOnUse"><feFlood flood-opacity="0" result="BackgroundImageFix"/><feGaussianBlur in="BackgroundImageFix" stdDeviation="164.306"/><feComposite in2="SourceAlpha" operator="in" result="effect1_backgroundBlur_408_6323"/><feColorMatrix in="SourceAlpha" result="hardAlpha" type="matrix" values="0 0 0 0 0 0 0 0 0 0 0 0 0 0 0 0 0 0 127 0"/><feOffset dx="40.602"/><feGaussianBlur stdDeviation="67.67"/><feComposite in2="hardAlpha" operator="out"/><feColorMatrix type="matrix" values="0 0 0 0 0 0 0 0 0 0 0 0 0 0 0 0 0 0 0.16 0"/><feBlend in2="effect1_backgroundBlur_408_6323" mode="normal" result="effect2_dropShadow_408_6323"/><feBlend in="SourceGraphic" in2="effect2_dropShadow_408_6323" mode="normal" result="shape"/><feColorMatrix in="SourceAlpha" result="hardAlpha" type="matrix" values="0 0 0 0 0 0 0 0 0 0 0 0 0 0 0 0 0 0 127 0"/><feOffset dy="3.384"/><feGaussianBlur stdDeviation="1.692"/><feComposite in2="hardAlpha" k2="-1" k3="1" operator="arithmetic"/><feColorMatrix type="matrix" values="0 0 0 0 1 0 0 0 0 1 0 0 0 0 1 0 0 0 0.25 0"/><feBlend in2="shape" mode="normal" result="effect3_innerShadow_408_6323"/></filter><filter id="filter1_f_408_6323" width="680.175" height="433.078" x=".21" y="353.532" color-interpolation-filters="sRGB" filterUnits="userSpaceOnUse"><feFlood flood-opacity="0" result="BackgroundImageFix"/><feBlend in="SourceGraphic" in2="BackgroundImageFix" mode="normal" result="shape"/><feGaussianBlur result="effect1_foregroundBlur_408_6323" stdDeviation="8.142"/></filter><filter id="filter2_f_408_6323" width="128.774" height="128.774" x="595.194" y="435.639" color-interpolation-filters="sRGB" filterUnits="userSpaceOnUse"><feFlood flood-opacity="0" result="BackgroundImageFix"/><feBlend in="SourceGraphic" in2="BackgroundImageFix" mode="normal" result="shape"/><feGaussianBlur result="effect1_foregroundBlur_408_6323" stdDeviation="13.362"/></filter><filter id="filter3_f_408_6323" width="99.621" height="99.621" x="609.771" y="450.216" color-interpolation-filters="sRGB" filterUnits="userSpaceOnUse"><feFlood flood-opacity="0" result="BackgroundImageFix"/><feBlend in="SourceGraphic" in2="BackgroundImageFix" mode="normal" result="shape"/><feGaussianBlur result="effect1_foregroundBlur_408_6323" stdDeviation="6.074"/></filter><linearGradient id="paint0_linear_408_6323" x1="909.367" x2="909.367" y1="611.668" y2="821.361" gradientUnits="userSpaceOnUse"><stop stop-color="#fff" stop-opacity="0"/><stop offset="1" stop-color="#fff"/></linearGradient><linearGradient id="paint1_linear_408_6323" x1="909.367" x2="909.367" y1="270.711" y2="931.52" gradientUnits="userSpaceOnUse"><stop stop-color="#fff"/><stop offset="1" stop-color="#fff" stop-opacity="0"/></linearGradient><linearGradient id="paint2_linear_408_6323" x1="997.873" x2="607.896" y1="417.28" y2="504.161" gradientUnits="userSpaceOnUse"><stop offset=".5" stop-color="#fff" stop-opacity="0"/><stop offset="1" stop-color="#fff"/></linearGradient><linearGradient id="paint3_linear_408_6323" x1="909.33" x2="1180.05" y1="478.344" y2="228.999" gradientUnits="userSpaceOnUse"><stop offset=".583" stop-color="#fff" stop-opacity="0"/><stop offset="1" stop-color="#fff"/></linearGradient><linearGradient id="paint4_linear_408_6323" x1="810.15" x2="812.032" y1="451.076" y2="460.784" gradientUnits="userSpaceOnUse"><stop stop-color="#fff"/><stop offset="1" stop-color="#999"/></linearGradient><linearGradient id="paint5_linear_408_6323" x1="792.742" x2="794.574" y1="474.457" y2="483.909" gradientUnits="userSpaceOnUse"><stop stop-color="#fff"/><stop offset="1" stop-color="#999"/></linearGradient><linearGradient id="paint6_linear_408_6323" x1="819.614" x2="821.495" y1="489.255" y2="498.962" gradientUnits="userSpaceOnUse"><stop stop-color="#fff"/><stop offset="1" stop-color="#999"/></linearGradient><linearGradient id="paint7_linear_408_6323" x1="924.418" x2="962.311" y1="386.446" y2="581.933" gradientUnits="userSpaceOnUse"><stop stop-color="#fff"/><stop offset="1" stop-color="#999"/></linearGradient><linearGradient id="paint8_linear_408_6323" x1="1076.71" x2="1114.25" y1="358.939" y2="552.599" gradientUnits="userSpaceOnUse"><stop stop-color="#fff"/><stop offset="1" stop-color="#999"/></linearGradient><linearGradient id="paint9_linear_408_6323" x1="216.145" x2="668.075" y1="586.95" y2="518.197" gradientUnits="userSpaceOnUse"><stop stop-color="#FD366E" stop-opacity="0"/><stop offset="1" stop-color="#fff"/></linearGradient><linearGradient id="paint10_linear_408_6323" x1="193.775" x2="539.251" y1="690.807" y2="635.204" gradientUnits="userSpaceOnUse"><stop stop-color="#fff" stop-opacity="0"/><stop offset="1" stop-color="#fff"/></linearGradient><linearGradient id="paint11_linear_408_6323" x1="216.038" x2="483.948" y1="489.522" y2="562.907" gradientUnits="userSpaceOnUse"><stop stop-color="#fff" stop-opacity="0"/><stop offset="1" stop-color="#fff"/></linearGradient><linearGradient id="paint12_linear_408_6323" x1="17.987" x2="285.897" y1="430.464" y2="503.85" gradientUnits="userSpaceOnUse"><stop stop-color="#fff" stop-opacity="0"/><stop offset="1" stop-color="#fff"/></linearGradient><linearGradient id="paint13_linear_408_6323" x1="174.87" x2="626.801" y1="594.95" y2="526.198" gradientUnits="userSpaceOnUse"><stop stop-color="#FD366E" stop-opacity="0"/><stop offset="1" stop-color="#fff"/></linearGradient><linearGradient id="paint14_linear_408_6323" x1="193.773" x2="539.249" y1="690.807" y2="635.204" gradientUnits="userSpaceOnUse"><stop stop-color="#fff" stop-opacity="0"/><stop offset="1" stop-color="#fff"/></linearGradient><linearGradient id="paint15_linear_408_6323" x1="216.038" x2="483.948" y1="489.521" y2="562.907" gradientUnits="userSpaceOnUse"><stop stop-color="#fff" stop-opacity="0"/><stop offset="1" stop-color="#fff"/></linearGradient><linearGradient id="paint16_linear_408_6323" x1="17.985" x2="285.895" y1="430.464" y2="503.85" gradientUnits="userSpaceOnUse"><stop stop-color="#fff" stop-opacity="0"/><stop offset="1" stop-color="#fff"/></linearGradient><radialGradient id="paint17_radial_408_6323" cx="0" cy="0" r="1" gradientTransform="translate(659.581 500.026) rotate(90) scale(37.6562)" gradientUnits="userSpaceOnUse"><stop stop-color="#fff"/><stop offset="1" stop-color="#fff" stop-opacity="0"/></radialGradient><radialGradient id="paint18_radial_408_6323" cx="0" cy="0" r="1" gradientTransform="translate(659.577 500.026) rotate(90) scale(20.6502)" gradientUnits="userSpaceOnUse"><stop stop-color="#fff"/><stop offset="1" stop-color="#fff" stop-opacity="0"/></radialGradient><clipPath id="clip0_408_6323"><rect width="441.921" height="166.521" fill="#fff" transform="translate(727.457 422.743) rotate(-10.9702)"/></clipPath></defs></svg>