<svg width="320" height="229" viewBox="0 0 320 229" fill="none" xmlns="http://www.w3.org/2000/svg">
<g opacity="0.5" filter="url(#filter0_bdi_245_8143)">
<path d="M499.325 178.641C501.623 197.757 502.772 207.314 499.93 215.063C497.43 221.878 492.836 227.728 486.807 231.772C479.953 236.37 470.396 237.519 451.28 239.817L383.234 247.997C364.119 250.295 354.561 251.444 346.813 248.602C339.997 246.102 334.148 241.508 330.103 235.479C325.506 228.625 324.357 219.067 322.059 199.952L314.239 134.91C311.941 115.795 310.792 106.237 313.635 98.4884C316.135 91.6728 320.729 85.8236 326.758 81.7792C333.612 77.1813 343.169 76.0323 362.285 73.7343L430.331 65.554C449.446 63.256 459.004 62.107 466.752 64.9494C473.568 67.4496 479.417 72.0434 483.461 78.0723C488.059 84.9262 489.208 94.4839 491.506 113.599L499.325 178.641Z" fill="white" fill-opacity="0.02" shape-rendering="crispEdges"/>
<path d="M498.359 178.757C499.51 188.331 500.365 195.453 500.582 201.152C500.799 206.839 500.375 211.022 499.016 214.727C496.587 221.35 492.123 227.034 486.265 230.963C482.987 233.162 479.024 234.566 473.447 235.703C467.86 236.842 460.737 237.699 451.164 238.85L383.118 247.03C373.544 248.181 366.422 249.037 360.724 249.254C355.037 249.471 350.853 249.047 347.148 247.688C340.525 245.258 334.842 240.795 330.912 234.936C328.713 231.659 327.31 227.695 326.173 222.119C325.033 216.531 324.176 209.409 323.025 199.836L315.206 134.794C314.055 125.22 313.2 118.098 312.982 112.399C312.765 106.712 313.19 102.529 314.549 98.8238C316.978 92.2012 321.442 86.5176 327.3 82.5878C330.578 80.389 334.541 78.9855 340.118 77.8484C345.705 76.7089 352.827 75.8519 362.401 74.701L430.447 66.5207C440.02 65.3698 447.143 64.5143 452.841 64.297C458.528 64.0801 462.711 64.5042 466.417 65.8635C473.039 68.2929 478.723 72.7566 482.653 78.6147C484.852 81.8924 486.255 85.8559 487.392 91.4323C488.532 97.0199 489.389 104.142 490.54 113.716L498.359 178.757Z" stroke="url(#paint0_linear_245_8143)" stroke-opacity="0.15" stroke-width="1.94737" shape-rendering="crispEdges"/>
</g>
<g filter="url(#filter1_bdi_245_8143)">
<rect x="314.666" y="256.24" width="178.543" height="175.518" rx="34.3774" transform="rotate(173.145 314.666 256.24)" fill="white" fill-opacity="0.02" shape-rendering="crispEdges"/>
<rect x="314.666" y="256.24" width="178.543" height="175.518" rx="34.3774" transform="rotate(173.145 314.666 256.24)" fill="url(#paint1_linear_245_8143)" fill-opacity="0.08" shape-rendering="crispEdges"/>
<rect x="313.583" y="255.39" width="176.596" height="173.57" rx="33.4037" transform="rotate(173.145 313.583 255.39)" stroke="url(#paint2_linear_245_8143)" stroke-opacity="0.15" stroke-width="1.94737" shape-rendering="crispEdges"/>
<rect x="313.583" y="255.39" width="176.596" height="173.57" rx="33.4037" transform="rotate(173.145 313.583 255.39)" stroke="url(#paint3_linear_245_8143)" stroke-width="1.94737" shape-rendering="crispEdges"/>
<rect x="313.583" y="255.39" width="176.596" height="173.57" rx="33.4037" transform="rotate(173.145 313.583 255.39)" stroke="url(#paint4_linear_245_8143)" stroke-width="1.94737" shape-rendering="crispEdges"/>
<g clip-path="url(#clip0_245_8143)">
<path fill-rule="evenodd" clip-rule="evenodd" d="M160.577 177.046C160.33 177.076 160.253 176.96 160.354 176.76L161.45 174.938C161.551 174.738 161.845 174.577 162.092 174.547L184.123 171.899C184.37 171.869 184.454 172.047 184.353 172.247L183.496 173.978C183.395 174.177 183.109 174.4 182.924 174.422L160.577 177.046Z" fill="url(#paint5_linear_245_8143)"/>
<path fill-rule="evenodd" clip-rule="evenodd" d="M151.941 183.844C151.694 183.873 151.618 183.757 151.719 183.557L152.815 181.735C152.916 181.535 153.21 181.375 153.456 181.345L181.597 177.962C181.844 177.933 181.99 178.103 181.95 178.295L181.635 179.836C181.603 180.09 181.371 180.243 181.124 180.273L151.941 183.844Z" fill="url(#paint6_linear_245_8143)"/>
<path fill-rule="evenodd" clip-rule="evenodd" d="M167.558 187.725C167.311 187.755 167.227 187.577 167.328 187.377L168.007 185.731C168.108 185.531 168.333 185.316 168.579 185.286L180.922 183.802C181.169 183.773 181.314 183.943 181.344 184.19L181.399 185.686C181.428 185.933 181.204 186.147 181.019 186.17L167.558 187.725Z" fill="url(#paint7_linear_245_8143)"/>
<path fill-rule="evenodd" clip-rule="evenodd" d="M230.116 167.559C226.347 169.014 223.782 170.073 220.075 171.521C219.179 171.879 219.124 171.948 218.211 171.119C217.159 170.181 216.399 169.584 215.029 169.122C210.911 167.677 207.213 168.685 203.97 171.391C200.1 174.611 198.422 178.882 199.085 183.873C199.74 188.802 203.624 192.467 208.581 192.56C212.844 192.611 216.184 190.707 218.582 187.226C219.056 186.48 219.461 185.68 219.974 184.742C217.752 185.009 214.975 185.343 208.063 186.174C206.768 186.33 206.363 185.565 206.668 184.464C207.241 182.454 208.336 179.067 209.007 177.359C209.148 176.966 209.505 176.297 210.431 176.186L232.894 173.485C232.971 175.166 233.172 176.833 233.125 178.528C232.98 183.053 231.804 187.327 229.519 191.232C225.78 197.629 220.417 201.968 213.192 203.838C207.241 205.367 201.484 204.87 196.102 201.761C191.12 198.854 187.979 194.599 186.617 189.003C185.006 182.372 186.254 176.087 189.689 170.29C193.381 164.024 198.744 159.686 205.685 157.537C211.36 155.79 216.996 155.802 222.402 158.595C225.933 160.361 228.634 163.042 230.607 166.436C231.044 166.946 230.834 167.285 230.116 167.559Z" fill="url(#paint8_linear_245_8143)"/>
<path d="M254.647 199.231C249.016 199.782 243.701 198.794 238.936 195.61C234.917 192.901 232.151 189.164 230.839 184.501C228.89 177.661 230.062 171.26 233.598 165.263C237.39 158.797 242.45 155.058 249.638 152.88C255.799 151.012 261.798 150.917 267.605 153.913C272.88 156.659 276.446 160.8 277.96 166.628C280.011 174.833 278.42 181.911 273.378 188.402C269.803 193.026 265.115 196.219 259.517 198.082C257.888 198.591 256.229 198.853 254.647 199.231ZM266.337 172.533C266.179 171.738 266.105 171.121 265.907 170.519C264.062 164.543 258.031 161.762 252.331 163.825C246.748 165.811 243.483 169.897 242.822 175.861C242.29 180.808 245.221 185.401 249.902 186.842C253.474 187.915 256.846 187.322 259.917 185.262C264.488 182.146 266.667 177.878 266.337 172.533Z" fill="url(#paint9_linear_245_8143)"/>
</g>
</g>
<g opacity="0.5" filter="url(#filter2_bdi_245_8143)">
<rect x="123.441" y="279.229" width="178.543" height="175.518" rx="34.3774" transform="rotate(173.145 123.441 279.229)" fill="white" fill-opacity="0.02" shape-rendering="crispEdges"/>
<rect x="122.358" y="278.378" width="176.596" height="173.57" rx="33.4037" transform="rotate(173.145 122.358 278.378)" stroke="url(#paint10_linear_245_8143)" stroke-opacity="0.15" stroke-width="1.94737" shape-rendering="crispEdges"/>
</g>
<defs>
<filter id="filter0_bdi_245_8143" x="210.306" y="-38.3795" width="392.953" height="390.31" filterUnits="userSpaceOnUse" color-interpolation-filters="sRGB">
<feFlood flood-opacity="0" result="BackgroundImageFix"/>
<feGaussianBlur in="BackgroundImageFix" stdDeviation="48.6842"/>
<feComposite in2="SourceAlpha" operator="in" result="effect1_backgroundBlur_245_8143"/>
<feColorMatrix in="SourceAlpha" type="matrix" values="0 0 0 0 0 0 0 0 0 0 0 0 0 0 0 0 0 0 127 0" result="hardAlpha"/>
<feOffset dx="12.0304"/>
<feGaussianBlur stdDeviation="20.0507"/>
<feComposite in2="hardAlpha" operator="out"/>
<feColorMatrix type="matrix" values="0 0 0 0 0 0 0 0 0 0 0 0 0 0 0 0 0 0 0.16 0"/>
<feBlend mode="normal" in2="effect1_backgroundBlur_245_8143" result="effect2_dropShadow_245_8143"/>
<feBlend mode="normal" in="SourceGraphic" in2="effect2_dropShadow_245_8143" result="shape"/>
<feColorMatrix in="SourceAlpha" type="matrix" values="0 0 0 0 0 0 0 0 0 0 0 0 0 0 0 0 0 0 127 0" result="hardAlpha"/>
<feOffset dy="1.00254"/>
<feGaussianBlur stdDeviation="0.501268"/>
<feComposite in2="hardAlpha" operator="arithmetic" k2="-1" k3="1"/>
<feColorMatrix type="matrix" values="0 0 0 0 1 0 0 0 0 1 0 0 0 0 1 0 0 0 0.25 0"/>
<feBlend mode="normal" in2="shape" result="effect3_innerShadow_245_8143"/>
</filter>
<filter id="filter1_bdi_245_8143" x="19.0814" y="-15.391" width="392.953" height="390.31" filterUnits="userSpaceOnUse" color-interpolation-filters="sRGB">
<feFlood flood-opacity="0" result="BackgroundImageFix"/>
<feGaussianBlur in="BackgroundImageFix" stdDeviation="48.6842"/>
<feComposite in2="SourceAlpha" operator="in" result="effect1_backgroundBlur_245_8143"/>
<feColorMatrix in="SourceAlpha" type="matrix" values="0 0 0 0 0 0 0 0 0 0 0 0 0 0 0 0 0 0 127 0" result="hardAlpha"/>
<feOffset dx="12.0304"/>
<feGaussianBlur stdDeviation="20.0507"/>
<feComposite in2="hardAlpha" operator="out"/>
<feColorMatrix type="matrix" values="0 0 0 0 0 0 0 0 0 0 0 0 0 0 0 0 0 0 0.16 0"/>
<feBlend mode="normal" in2="effect1_backgroundBlur_245_8143" result="effect2_dropShadow_245_8143"/>
<feBlend mode="normal" in="SourceGraphic" in2="effect2_dropShadow_245_8143" result="shape"/>
<feColorMatrix in="SourceAlpha" type="matrix" values="0 0 0 0 0 0 0 0 0 0 0 0 0 0 0 0 0 0 127 0" result="hardAlpha"/>
<feOffset dy="1.00254"/>
<feGaussianBlur stdDeviation="0.501268"/>
<feComposite in2="hardAlpha" operator="arithmetic" k2="-1" k3="1"/>
<feColorMatrix type="matrix" values="0 0 0 0 1 0 0 0 0 1 0 0 0 0 1 0 0 0 0.25 0"/>
<feBlend mode="normal" in2="shape" result="effect3_innerShadow_245_8143"/>
</filter>
<filter id="filter2_bdi_245_8143" x="-172.144" y="7.59751" width="392.953" height="390.31" filterUnits="userSpaceOnUse" color-interpolation-filters="sRGB">
<feFlood flood-opacity="0" result="BackgroundImageFix"/>
<feGaussianBlur in="BackgroundImageFix" stdDeviation="48.6842"/>
<feComposite in2="SourceAlpha" operator="in" result="effect1_backgroundBlur_245_8143"/>
<feColorMatrix in="SourceAlpha" type="matrix" values="0 0 0 0 0 0 0 0 0 0 0 0 0 0 0 0 0 0 127 0" result="hardAlpha"/>
<feOffset dx="12.0304"/>
<feGaussianBlur stdDeviation="20.0507"/>
<feComposite in2="hardAlpha" operator="out"/>
<feColorMatrix type="matrix" values="0 0 0 0 0 0 0 0 0 0 0 0 0 0 0 0 0 0 0.16 0"/>
<feBlend mode="normal" in2="effect1_backgroundBlur_245_8143" result="effect2_dropShadow_245_8143"/>
<feBlend mode="normal" in="SourceGraphic" in2="effect2_dropShadow_245_8143" result="shape"/>
<feColorMatrix in="SourceAlpha" type="matrix" values="0 0 0 0 0 0 0 0 0 0 0 0 0 0 0 0 0 0 127 0" result="hardAlpha"/>
<feOffset dy="1.00254"/>
<feGaussianBlur stdDeviation="0.501268"/>
<feComposite in2="hardAlpha" operator="arithmetic" k2="-1" k3="1"/>
<feColorMatrix type="matrix" values="0 0 0 0 1 0 0 0 0 1 0 0 0 0 1 0 0 0 0.25 0"/>
<feBlend mode="normal" in2="shape" result="effect3_innerShadow_245_8143"/>
</filter>
<linearGradient id="paint0_linear_245_8143" x1="415.782" y1="231.636" x2="392.412" y2="37.2373" gradientUnits="userSpaceOnUse">
<stop stop-color="white" stop-opacity="0.5"/>
<stop offset="1" stop-color="white" stop-opacity="0.5"/>
</linearGradient>
<linearGradient id="paint1_linear_245_8143" x1="403.938" y1="369.625" x2="403.938" y2="431.758" gradientUnits="userSpaceOnUse">
<stop stop-color="white" stop-opacity="0"/>
<stop offset="1" stop-color="white"/>
</linearGradient>
<linearGradient id="paint2_linear_245_8143" x1="403.938" y1="268.6" x2="403.938" y2="464.398" gradientUnits="userSpaceOnUse">
<stop stop-color="white"/>
<stop offset="1" stop-color="white" stop-opacity="0"/>
</linearGradient>
<linearGradient id="paint3_linear_245_8143" x1="430.162" y1="312.028" x2="478.713" y2="429.635" gradientUnits="userSpaceOnUse">
<stop offset="0.5" stop-color="white" stop-opacity="0"/>
<stop offset="1" stop-color="white"/>
</linearGradient>
<linearGradient id="paint4_linear_245_8143" x1="403.927" y1="330.121" x2="325.22" y2="253.225" gradientUnits="userSpaceOnUse">
<stop offset="0.582792" stop-color="white" stop-opacity="0"/>
<stop offset="1" stop-color="white"/>
</linearGradient>
<linearGradient id="paint5_linear_245_8143" x1="172.212" y1="173.331" x2="172.556" y2="176.189" gradientUnits="userSpaceOnUse">
<stop stop-color="white"/>
<stop offset="1" stop-color="#999999"/>
</linearGradient>
<linearGradient id="paint6_linear_245_8143" x1="166.671" y1="179.757" x2="167.005" y2="182.54" gradientUnits="userSpaceOnUse">
<stop stop-color="white"/>
<stop offset="1" stop-color="#999999"/>
</linearGradient>
<linearGradient id="paint7_linear_245_8143" x1="174.164" y1="184.615" x2="174.508" y2="187.473" gradientUnits="userSpaceOnUse">
<stop stop-color="white"/>
<stop offset="1" stop-color="#999999"/>
</linearGradient>
<linearGradient id="paint8_linear_245_8143" x1="206.746" y1="156.95" x2="213.666" y2="214.51" gradientUnits="userSpaceOnUse">
<stop stop-color="white"/>
<stop offset="1" stop-color="#999999"/>
</linearGradient>
<linearGradient id="paint9_linear_245_8143" x1="251.548" y1="152.144" x2="258.403" y2="209.167" gradientUnits="userSpaceOnUse">
<stop stop-color="white"/>
<stop offset="1" stop-color="#999999"/>
</linearGradient>
<linearGradient id="paint10_linear_245_8143" x1="212.713" y1="291.588" x2="212.713" y2="487.387" gradientUnits="userSpaceOnUse">
<stop stop-color="white" stop-opacity="0.5"/>
<stop offset="1" stop-color="white" stop-opacity="0.5"/>
</linearGradient>
<clipPath id="clip0_245_8143">
<rect width="128.664" height="48.4821" fill="white" transform="translate(148.792 163.375) rotate(-6.85508)"/>
</clipPath>
</defs>
</svg>
