<svg width="687" height="404" viewBox="0 0 687 404" fill="none" xmlns="http://www.w3.org/2000/svg">
    <path d="M509.152 153.86C506.722 152.403 503.235 152.213 498.44 153.809C493.661 155.399 487.846 158.685 481.047 163.744C467.461 173.854 450.544 190.592 431.258 213.069C411.985 235.531 390.773 263.224 368.835 294.571C346.899 325.917 324.674 360.291 303.432 395.73C282.19 431.17 262.35 466.973 245.046 501.095C227.74 535.219 213.315 566.98 202.591 594.566C191.859 622.17 185.07 644.979 182.559 661.727C181.302 670.108 181.145 676.785 181.995 681.75C182.847 686.731 184.659 689.717 187.089 691.173C189.52 692.63 193.007 692.82 197.801 691.225C202.581 689.634 208.396 686.348 215.195 681.289C228.781 671.179 245.698 654.441 264.984 631.964C284.257 609.502 305.469 581.809 327.407 550.462C349.343 519.116 371.568 484.742 392.81 449.303C414.052 413.864 433.891 378.06 451.196 343.938C468.502 309.814 482.926 278.053 493.651 250.468C504.383 222.863 511.171 200.054 513.683 183.306C514.94 174.925 515.097 168.248 514.247 163.283C513.394 158.303 511.583 155.317 509.152 153.86L509.152 153.86Z" stroke="url(#paint0_linear_245_9810)" stroke-width="3.37217"/>
    <path d="M638.059 281.284C637.203 279.421 634.864 277.813 630.201 276.956C625.608 276.111 619.196 276.085 610.963 276.96C594.519 278.708 571.551 283.966 543.334 292.474C515.135 300.977 482.311 312.54 446.735 326.505C411.161 340.47 373.544 356.559 336.032 373.854C298.52 391.15 261.854 409.309 228.128 427.296C194.401 445.284 164.286 462.74 139.498 478.667C114.696 494.604 95.7713 508.661 83.752 520.036C77.7344 525.732 73.5844 530.627 71.238 534.671C68.8558 538.776 68.5546 541.603 69.4104 543.465C70.2662 545.327 72.6057 546.936 77.2686 547.793C81.8613 548.637 88.2731 548.663 96.5061 547.788C112.95 546.041 135.918 540.783 164.135 532.275C192.334 523.772 225.158 512.209 260.734 498.244C296.308 484.279 333.926 468.19 371.438 450.894C408.949 433.599 445.616 415.439 479.341 397.453C513.068 379.465 543.184 362.009 567.971 346.082C592.774 330.145 611.698 316.088 623.717 304.712C629.735 299.017 633.885 294.121 636.231 290.078C638.614 285.972 638.915 283.146 638.059 281.284L638.059 281.284Z" stroke="url(#paint1_linear_245_9810)" stroke-width="3.37217"/>
    <path d="M324.695 111.24C322.654 111.431 320.358 113.106 317.996 117.223C315.67 121.278 313.509 127.321 311.59 135.381C307.757 151.48 305.059 174.898 303.675 204.346C302.293 233.776 302.253 268.583 303.561 306.784C304.87 344.982 307.5 385.812 311.301 426.942C315.103 468.072 320.002 508.69 325.717 546.475C331.433 584.263 337.852 618.465 344.604 647.132C351.361 675.818 358.305 698.332 365.023 713.442C368.386 721.007 371.618 726.545 374.648 730.098C377.723 733.706 380.287 734.926 382.328 734.735C384.369 734.543 386.665 732.868 389.027 728.751C391.353 724.696 393.514 718.653 395.433 710.593C399.266 694.494 401.964 671.076 403.348 641.628C404.73 612.198 404.77 577.391 403.462 539.191C402.153 500.992 399.523 460.162 395.722 419.032C391.92 377.902 387.021 337.284 381.306 299.499C375.59 261.712 369.171 227.509 362.418 198.842C355.662 170.157 348.718 147.642 342 132.532C338.637 124.967 335.405 119.429 332.375 115.876C329.299 112.269 326.736 111.048 324.695 111.24L324.695 111.24Z" stroke="url(#paint2_linear_245_9810)" stroke-width="3.37217"/>
    <path d="M665.337 491.982C665.399 491.696 665.363 491.15 664.717 490.225C664.073 489.304 662.951 488.2 661.253 486.927C657.869 484.387 652.529 481.416 645.209 478.06C630.594 471.357 608.698 463.394 580.736 454.628C552.788 445.866 519.373 436.487 482.398 427.027C445.424 417.568 405.623 408.215 365.266 399.504C324.91 390.793 284.793 382.894 247.207 376.259C209.62 369.623 175.309 364.383 146.23 360.836C117.138 357.286 93.9021 355.507 77.818 355.582C69.7623 355.62 63.6703 356.123 59.5366 357.04C57.4638 357.5 55.9846 358.042 55.0171 358.615C54.0457 359.191 53.7864 359.674 53.7244 359.96C53.6624 360.246 53.6987 360.792 54.345 361.717C54.9887 362.638 56.1111 363.742 57.8083 365.015C61.1931 367.555 66.5323 370.526 73.8525 373.882C88.468 380.584 110.364 388.547 138.325 397.314C166.274 406.076 199.689 415.455 236.664 424.915C273.637 434.374 313.439 443.726 353.796 452.438C394.152 461.149 434.269 469.048 471.855 475.683C509.442 482.318 543.753 487.559 572.832 491.106C601.923 494.655 625.16 496.435 641.244 496.359C649.299 496.322 655.391 495.819 659.525 494.902C661.598 494.442 663.077 493.9 664.045 493.327C665.016 492.751 665.275 492.268 665.337 491.982L665.337 491.982Z" stroke="url(#paint3_linear_245_9810)" stroke-width="3.37217"/>
    <path d="M574.491 650.269C574.711 650.076 575.007 649.615 575.038 648.486C575.068 647.362 574.823 645.805 574.217 643.771C573.009 639.713 570.487 634.145 566.604 627.087C558.85 612.995 546 593.555 528.755 569.858C511.519 546.172 490.259 518.736 466.188 489.116C442.118 459.497 415.713 428.28 388.481 397.249C361.25 366.218 333.728 335.983 307.487 308.272C281.245 280.56 256.805 255.919 235.56 235.756C214.307 215.583 196.703 200.32 183.741 190.806C177.249 186.041 172.057 182.82 168.192 181.096C166.255 180.232 164.744 179.788 163.626 179.674C162.504 179.558 162.009 179.792 161.789 179.986C161.569 180.179 161.273 180.64 161.242 181.769C161.212 182.893 161.457 184.449 162.063 186.484C163.271 190.542 165.793 196.11 169.676 203.168C177.43 217.26 190.281 236.7 207.525 260.397C224.761 284.083 246.021 311.519 270.092 341.139C294.162 370.758 320.567 401.975 347.799 433.006C375.03 464.037 402.552 494.271 428.793 521.983C455.035 549.695 479.475 574.336 500.72 594.499C521.974 614.672 539.577 629.935 552.539 639.448C559.031 644.213 564.223 647.435 568.088 649.158C570.026 650.022 571.536 650.466 572.654 650.581C573.776 650.696 574.271 650.462 574.491 650.269L574.491 650.269Z" stroke="url(#paint4_linear_245_9810)" stroke-width="3.37217"/>
    <g style="mix-blend-mode:screen" filter="url(#filter0_f_245_9810)">
    <path d="M509.152 153.86C506.722 152.403 503.235 152.213 498.44 153.809C493.661 155.399 487.846 158.685 481.047 163.744C467.461 173.854 450.544 190.592 431.258 213.069C411.985 235.531 390.773 263.224 368.835 294.571C346.899 325.917 324.674 360.291 303.432 395.73C282.19 431.17 262.35 466.973 245.046 501.095C227.74 535.219 213.315 566.98 202.591 594.566C191.859 622.17 185.07 644.979 182.559 661.727C181.302 670.108 181.145 676.785 181.995 681.75C182.847 686.731 184.659 689.717 187.089 691.173C189.52 692.63 193.007 692.82 197.801 691.225C202.581 689.634 208.396 686.348 215.195 681.289C228.781 671.179 245.698 654.441 264.984 631.964C284.257 609.502 305.469 581.809 327.407 550.462C349.343 519.116 371.568 484.742 392.81 449.303C414.052 413.864 433.891 378.06 451.196 343.938C468.502 309.814 482.926 278.053 493.651 250.468C504.383 222.863 511.171 200.054 513.683 183.306C514.94 174.925 515.097 168.248 514.247 163.283C513.394 158.303 511.583 155.317 509.152 153.86L509.152 153.86Z" stroke="url(#paint5_linear_245_9810)" stroke-width="3.37217"/>
    <path d="M638.059 281.284C637.203 279.421 634.864 277.813 630.201 276.956C625.608 276.111 619.196 276.085 610.963 276.96C594.519 278.708 571.551 283.966 543.334 292.474C515.135 300.977 482.311 312.54 446.735 326.505C411.161 340.47 373.544 356.559 336.032 373.854C298.52 391.15 261.854 409.309 228.128 427.296C194.401 445.284 164.286 462.74 139.498 478.667C114.696 494.604 95.7713 508.661 83.752 520.036C77.7344 525.732 73.5844 530.627 71.238 534.671C68.8558 538.776 68.5546 541.603 69.4104 543.465C70.2662 545.327 72.6057 546.936 77.2686 547.793C81.8613 548.637 88.2731 548.663 96.5061 547.788C112.95 546.041 135.918 540.783 164.135 532.275C192.334 523.772 225.158 512.209 260.734 498.244C296.308 484.279 333.926 468.19 371.438 450.894C408.949 433.599 445.616 415.439 479.341 397.453C513.068 379.465 543.184 362.009 567.971 346.082C592.774 330.145 611.698 316.088 623.717 304.712C629.735 299.017 633.885 294.121 636.231 290.078C638.614 285.972 638.915 283.146 638.059 281.284L638.059 281.284Z" stroke="url(#paint6_linear_245_9810)" stroke-width="3.37217"/>
    <path d="M324.695 111.24C322.654 111.431 320.358 113.106 317.996 117.223C315.67 121.278 313.509 127.321 311.59 135.381C307.757 151.48 305.059 174.898 303.675 204.346C302.293 233.776 302.253 268.583 303.561 306.784C304.87 344.982 307.5 385.812 311.301 426.942C315.103 468.072 320.002 508.69 325.717 546.475C331.433 584.263 337.852 618.465 344.604 647.132C351.361 675.818 358.305 698.332 365.023 713.442C368.386 721.007 371.618 726.545 374.648 730.098C377.723 733.706 380.287 734.926 382.328 734.735C384.369 734.543 386.665 732.868 389.027 728.751C391.353 724.696 393.514 718.653 395.433 710.593C399.266 694.494 401.964 671.076 403.348 641.628C404.73 612.198 404.77 577.391 403.462 539.191C402.153 500.992 399.523 460.162 395.722 419.032C391.92 377.902 387.021 337.284 381.306 299.499C375.59 261.712 369.171 227.509 362.418 198.842C355.662 170.157 348.718 147.642 342 132.532C338.637 124.967 335.405 119.429 332.375 115.876C329.299 112.269 326.736 111.048 324.695 111.24L324.695 111.24Z" stroke="url(#paint7_linear_245_9810)" stroke-width="3.37217"/>
    <path d="M665.337 491.982C665.399 491.696 665.363 491.15 664.717 490.225C664.073 489.304 662.951 488.2 661.253 486.927C657.869 484.387 652.529 481.416 645.209 478.06C630.594 471.357 608.698 463.394 580.736 454.628C552.788 445.866 519.373 436.487 482.398 427.027C445.424 417.568 405.623 408.215 365.266 399.504C324.91 390.793 284.793 382.894 247.207 376.259C209.62 369.623 175.309 364.383 146.23 360.836C117.138 357.286 93.9021 355.507 77.818 355.582C69.7623 355.62 63.6703 356.123 59.5366 357.04C57.4638 357.5 55.9846 358.042 55.0171 358.615C54.0457 359.191 53.7864 359.674 53.7244 359.96C53.6624 360.246 53.6987 360.792 54.345 361.717C54.9887 362.638 56.1111 363.742 57.8083 365.015C61.1931 367.555 66.5323 370.526 73.8525 373.882C88.468 380.584 110.364 388.547 138.325 397.314C166.274 406.076 199.689 415.455 236.664 424.915C273.637 434.374 313.439 443.726 353.796 452.438C394.152 461.149 434.269 469.048 471.855 475.683C509.442 482.318 543.753 487.559 572.832 491.106C601.923 494.655 625.16 496.435 641.244 496.359C649.299 496.322 655.391 495.819 659.525 494.902C661.598 494.442 663.077 493.9 664.045 493.327C665.016 492.751 665.275 492.268 665.337 491.982L665.337 491.982Z" stroke="url(#paint8_linear_245_9810)" stroke-width="3.37217"/>
    <path d="M574.491 650.269C574.711 650.076 575.007 649.615 575.038 648.486C575.068 647.362 574.823 645.805 574.217 643.771C573.009 639.713 570.487 634.145 566.604 627.087C558.85 612.995 546 593.555 528.755 569.858C511.519 546.172 490.259 518.736 466.188 489.116C442.118 459.497 415.713 428.28 388.481 397.249C361.25 366.218 333.728 335.983 307.487 308.272C281.245 280.56 256.805 255.919 235.56 235.756C214.307 215.583 196.703 200.32 183.741 190.806C177.249 186.041 172.057 182.82 168.192 181.096C166.255 180.232 164.744 179.788 163.626 179.674C162.504 179.558 162.009 179.792 161.789 179.986C161.569 180.179 161.273 180.64 161.242 181.769C161.212 182.893 161.457 184.449 162.063 186.484C163.271 190.542 165.793 196.11 169.676 203.168C177.43 217.26 190.281 236.7 207.525 260.397C224.761 284.083 246.021 311.519 270.092 341.139C294.162 370.758 320.567 401.975 347.799 433.006C375.03 464.037 402.552 494.271 428.793 521.983C455.035 549.695 479.475 574.336 500.72 594.499C521.974 614.672 539.577 629.935 552.539 639.448C559.031 644.213 564.223 647.435 568.088 649.158C570.026 650.022 571.536 650.466 572.654 650.581C573.776 650.696 574.271 650.462 574.491 650.269L574.491 650.269Z" stroke="url(#paint9_linear_245_9810)" stroke-width="3.37217"/>
    </g>
    <g filter="url(#filter1_f_245_9810)">
    <g style="mix-blend-mode:screen" filter="url(#filter2_f_245_9810)">
    <ellipse cx="305.946" cy="387.04" rx="29.9024" ry="29.8631" transform="rotate(120.938 305.946 387.04)" fill="url(#paint10_radial_245_9810)" fill-opacity="0.5"/>
    </g>
    <g style="mix-blend-mode:screen">
    <ellipse cx="305.945" cy="387.039" rx="16.3981" ry="16.3765" transform="rotate(120.938 305.945 387.039)" fill="url(#paint11_radial_245_9810)"/>
    </g>
    </g>
    <defs>
    <filter id="filter0_f_245_9810" x="40.6381" y="98.1557" width="637.786" height="649.663" filterUnits="userSpaceOnUse" color-interpolation-filters="sRGB">
    <feFlood flood-opacity="0" result="BackgroundImageFix"/>
    <feBlend mode="normal" in="SourceGraphic" in2="BackgroundImageFix" result="shape"/>
    <feGaussianBlur stdDeviation="5.68901" result="effect1_foregroundBlur_245_9810"/>
    </filter>
    <filter id="filter1_f_245_9810" x="211.338" y="292.414" width="189.215" height="189.252" filterUnits="userSpaceOnUse" color-interpolation-filters="sRGB">
    <feFlood flood-opacity="0" result="BackgroundImageFix"/>
    <feBlend mode="normal" in="SourceGraphic" in2="BackgroundImageFix" result="shape"/>
    <feGaussianBlur stdDeviation="32.3648" result="effect1_foregroundBlur_245_9810"/>
    </filter>
    <filter id="filter2_f_245_9810" x="262.68" y="343.755" width="86.5324" height="86.5697" filterUnits="userSpaceOnUse" color-interpolation-filters="sRGB">
    <feFlood flood-opacity="0" result="BackgroundImageFix"/>
    <feBlend mode="normal" in="SourceGraphic" in2="BackgroundImageFix" result="shape"/>
    <feGaussianBlur stdDeviation="6.69413" result="effect1_foregroundBlur_245_9810"/>
    </filter>
    <linearGradient id="paint0_linear_245_9810" x1="412.904" y1="419.058" x2="317.223" y2="368.667" gradientUnits="userSpaceOnUse">
    <stop offset="0.105" stop-color="white" stop-opacity="0"/>
    <stop offset="1" stop-color="white"/>
    </linearGradient>
    <linearGradient id="paint1_linear_245_9810" x1="405.067" y1="437.246" x2="364.338" y2="358.495" gradientUnits="userSpaceOnUse">
    <stop offset="0.12" stop-color="#FD366E" stop-opacity="0"/>
    <stop offset="1" stop-color="white"/>
    </linearGradient>
    <linearGradient id="paint2_linear_245_9810" x1="394.063" y1="382.773" x2="306.226" y2="394.925" gradientUnits="userSpaceOnUse">
    <stop offset="0.075" stop-color="white" stop-opacity="0"/>
    <stop offset="1" stop-color="white"/>
    </linearGradient>
    <linearGradient id="paint3_linear_245_9810" x1="388.852" y1="461.73" x2="399.389" y2="404.799" gradientUnits="userSpaceOnUse">
    <stop offset="0.125" stop-color="white" stop-opacity="0"/>
    <stop offset="1" stop-color="white"/>
    </linearGradient>
    <linearGradient id="paint4_linear_245_9810" x1="370.429" y1="461.349" x2="412.799" y2="421.887" gradientUnits="userSpaceOnUse">
    <stop stop-color="white"/>
    <stop offset="0.965" stop-color="#FD366E" stop-opacity="0"/>
    </linearGradient>
    <linearGradient id="paint5_linear_245_9810" x1="412.904" y1="419.058" x2="317.223" y2="368.667" gradientUnits="userSpaceOnUse">
    <stop offset="0.105" stop-color="white" stop-opacity="0"/>
    <stop offset="1" stop-color="white"/>
    </linearGradient>
    <linearGradient id="paint6_linear_245_9810" x1="405.067" y1="437.246" x2="364.338" y2="358.495" gradientUnits="userSpaceOnUse">
    <stop offset="0.12" stop-color="#FD366E" stop-opacity="0"/>
    <stop offset="1" stop-color="white"/>
    </linearGradient>
    <linearGradient id="paint7_linear_245_9810" x1="394.063" y1="382.773" x2="306.226" y2="394.925" gradientUnits="userSpaceOnUse">
    <stop offset="0.075" stop-color="white" stop-opacity="0"/>
    <stop offset="1" stop-color="white"/>
    </linearGradient>
    <linearGradient id="paint8_linear_245_9810" x1="388.852" y1="461.73" x2="399.389" y2="404.799" gradientUnits="userSpaceOnUse">
    <stop offset="0.04" stop-color="white" stop-opacity="0"/>
    <stop offset="1" stop-color="white"/>
    </linearGradient>
    <linearGradient id="paint9_linear_245_9810" x1="370.429" y1="461.349" x2="412.799" y2="421.887" gradientUnits="userSpaceOnUse">
    <stop stop-color="white"/>
    <stop offset="0.965" stop-color="#FD366E" stop-opacity="0"/>
    </linearGradient>
    <radialGradient id="paint10_radial_245_9810" cx="0" cy="0" r="1" gradientUnits="userSpaceOnUse" gradientTransform="translate(305.946 387.04) rotate(90) scale(29.8631 29.9024)">
    <stop stop-color="white"/>
    <stop offset="1" stop-color="white" stop-opacity="0"/>
    </radialGradient>
    <radialGradient id="paint11_radial_245_9810" cx="0" cy="0" r="1" gradientUnits="userSpaceOnUse" gradientTransform="translate(305.945 387.039) rotate(90) scale(16.3765 16.3981)">
    <stop stop-color="white"/>
    <stop offset="1" stop-color="white" stop-opacity="0"/>
    </radialGradient>
    </defs>
    </svg>
    