<svg xmlns="http://www.w3.org/2000/svg" width="688" height="315" fill="none" viewBox="0 0 688 315"><g filter="url(#filter0_di_1023_18)"><path fill="#fff" fill-opacity=".02" d="M563.6 11.9531H421.179C396.55 11.9531 376.584 31.9191 376.584 56.5484V195.044C376.584 219.673 396.55 239.639 421.179 239.639H563.6C588.229 239.639 608.195 219.673 608.195 195.044V56.5484C608.195 31.9191 588.229 11.9531 563.6 11.9531Z"/><path fill="url(#paint0_linear_1023_18)" fill-opacity=".08" d="M563.6 11.9531H421.179C396.55 11.9531 376.584 31.9191 376.584 56.5484V195.044C376.584 219.673 396.55 239.639 421.179 239.639H563.6C588.229 239.639 608.195 219.673 608.195 195.044V56.5484C608.195 31.9191 588.229 11.9531 563.6 11.9531Z"/><path stroke="url(#paint1_linear_1023_18)" stroke-opacity=".15" stroke-width="2.526" d="M563.599 13.2162H421.179C397.247 13.2162 377.847 32.6167 377.847 56.5484V195.044C377.847 218.976 397.247 238.376 421.179 238.376H563.599C587.531 238.376 606.932 218.976 606.932 195.044V56.5484C606.932 32.6167 587.531 13.2162 563.599 13.2162Z"/><path stroke="url(#paint2_linear_1023_18)" stroke-width="2.526" d="M563.599 13.2162H421.179C397.247 13.2162 377.847 32.6167 377.847 56.5484V195.044C377.847 218.976 397.247 238.376 421.179 238.376H563.599C587.531 238.376 606.932 218.976 606.932 195.044V56.5484C606.932 32.6167 587.531 13.2162 563.599 13.2162Z"/><path stroke="url(#paint3_linear_1023_18)" stroke-width="2.526" d="M563.599 13.2162H421.179C397.247 13.2162 377.847 32.6167 377.847 56.5484V195.044C377.847 218.976 397.247 238.376 421.179 238.376H563.599C587.531 238.376 606.932 218.976 606.932 195.044V56.5484C606.932 32.6167 587.531 13.2162 563.599 13.2162Z"/><mask id="mask0_1023_18" width="171" height="65" x="407" y="93" maskUnits="userSpaceOnUse" style="mask-type:luminance"><path fill="#fff" d="M577.32 93.7933H407.459V157.799H577.32V93.7933Z"/></mask><g mask="url(#mask0_1023_18)"><path fill="url(#paint4_linear_1023_18)" fill-rule="evenodd" d="M420.753 113.569C420.425 113.569 420.343 113.405 420.507 113.159L422.23 110.944C422.394 110.697 422.804 110.533 423.132 110.533H452.427C452.756 110.533 452.838 110.78 452.674 111.026L451.279 113.159C451.114 113.405 450.704 113.652 450.458 113.652L420.753 113.569Z" clip-rule="evenodd"/><path fill="url(#paint5_linear_1023_18)" fill-rule="evenodd" d="M408.362 121.119C408.034 121.119 407.952 120.955 408.116 120.709L409.839 118.493C410.003 118.247 410.413 118.083 410.742 118.083H448.16C448.489 118.083 448.653 118.329 448.571 118.575L447.914 120.545C447.832 120.873 447.504 121.037 447.176 121.037L408.362 121.119Z" clip-rule="evenodd"/><path fill="url(#paint6_linear_1023_18)" fill-rule="evenodd" d="M428.221 128.668C427.893 128.668 427.811 128.422 427.975 128.176L429.124 126.124C429.288 125.878 429.616 125.632 429.945 125.632H446.356C446.684 125.632 446.849 125.878 446.849 126.207L446.684 128.176C446.684 128.504 446.356 128.75 446.11 128.75L428.221 128.668Z" clip-rule="evenodd"/><path fill="url(#paint7_linear_1023_18)" fill-rule="evenodd" d="M513.398 112.092C508.228 113.405 504.7 114.39 499.612 115.703C498.381 116.031 498.299 116.113 497.232 114.882C496.001 113.487 495.099 112.585 493.376 111.764C488.206 109.22 483.2 109.959 478.523 112.995C472.943 116.606 470.071 121.939 470.153 128.586C470.235 135.151 474.748 140.567 481.231 141.469C486.811 142.208 491.488 140.238 495.181 136.053C495.919 135.151 496.576 134.166 497.396 133.017C494.442 133.017 490.75 133.017 481.559 133.017C479.836 133.017 479.426 131.951 480 130.556C481.067 128.012 483.036 123.745 484.185 121.611C484.431 121.119 485.006 120.298 486.236 120.298H516.106C515.942 122.514 515.942 124.729 515.613 126.945C514.711 132.853 512.495 138.269 508.885 143.028C502.976 150.824 495.263 155.665 485.498 156.978C477.456 158.045 469.989 156.486 463.424 151.562C457.352 146.967 453.905 140.895 453.003 133.346C451.936 124.401 454.562 116.359 459.978 109.302C465.804 101.671 473.517 96.8295 482.954 95.1063C490.668 93.7113 498.053 94.6139 504.7 99.1271C509.049 101.999 512.167 105.938 514.218 110.697C514.711 111.436 514.382 111.846 513.398 112.092Z" clip-rule="evenodd"/><path fill="url(#paint8_linear_1023_18)" d="M540.559 157.471C533.091 157.307 526.281 155.173 520.537 150.25C515.695 146.065 512.659 140.731 511.674 134.413C510.197 125.14 512.741 116.934 518.321 109.631C524.311 101.753 531.532 97.6504 541.297 95.9272C549.667 94.4502 557.545 95.2707 564.684 100.112C571.167 104.543 575.187 110.534 576.254 118.411C577.649 129.489 574.449 138.516 566.818 146.229C561.402 151.727 554.755 155.173 547.123 156.733C544.908 157.143 542.692 157.225 540.559 157.471ZM560.089 124.319C560.007 123.253 560.007 122.432 559.843 121.611C558.365 113.488 550.898 108.892 543.103 110.698C535.471 112.421 530.548 117.262 528.742 124.976C527.265 131.376 530.384 137.859 536.292 140.485C540.805 142.454 545.318 142.208 549.667 139.993C556.15 136.628 559.678 131.376 560.089 124.319Z"/></g></g><g filter="url(#filter1_di_1023_18)" opacity=".5"><path fill="#fff" fill-opacity=".02" d="M813.958 11.9531H671.538C646.908 11.9531 626.942 31.9191 626.942 56.5484V195.044C626.942 219.673 646.908 239.639 671.538 239.639H813.958C838.587 239.639 858.553 219.673 858.553 195.044V56.5484C858.553 31.9191 838.587 11.9531 813.958 11.9531Z"/><path stroke="url(#paint9_linear_1023_18)" stroke-opacity=".15" stroke-width="2.526" d="M813.958 13.2162H671.537C647.606 13.2162 628.205 32.6167 628.205 56.5484V195.044C628.205 218.976 647.606 238.376 671.537 238.376H813.958C837.89 238.376 857.29 218.976 857.29 195.044V56.5484C857.29 32.6167 837.89 13.2162 813.958 13.2162Z"/></g><g filter="url(#filter2_di_1023_18)" opacity=".5"><path fill="#fff" fill-opacity=".02" d="M126.225 83.3055C126.225 58.3298 126.225 45.842 131.085 36.3025C135.361 27.9114 142.183 21.0892 150.574 16.8137C160.114 11.9531 172.601 11.9531 197.577 11.9531H286.483C311.459 11.9531 323.947 11.9531 333.486 16.8137C341.877 21.0892 348.7 27.9114 352.975 36.3025C357.836 45.842 357.836 58.3298 357.836 83.3055V168.287C357.836 193.262 357.836 205.75 352.975 215.29C348.7 223.681 341.877 230.503 333.486 234.779C323.947 239.639 311.459 239.639 286.483 239.639H197.577C172.601 239.639 160.114 239.639 150.574 234.779C142.183 230.503 135.361 223.681 131.085 215.29C126.225 205.75 126.225 193.262 126.225 168.287V83.3055Z"/><path stroke="url(#paint10_linear_1023_18)" stroke-opacity=".15" stroke-width="2.526" d="M127.487 83.3055C127.487 70.7968 127.488 61.4913 128.09 54.1183C128.691 46.7601 129.885 41.438 132.21 36.876C136.364 28.7225 142.993 22.0935 151.146 17.9391C155.708 15.6147 161.031 14.4208 168.389 13.8196C175.762 13.2172 185.067 13.2162 197.576 13.2162H286.482C298.991 13.2162 308.296 13.2172 315.669 13.8196C323.028 14.4208 328.35 15.6147 332.912 17.9391C341.065 22.0935 347.694 28.7225 351.849 36.876C354.173 41.438 355.367 46.7601 355.968 54.1183C356.571 61.4913 356.572 70.7968 356.572 83.3055V168.287C356.572 180.795 356.571 190.101 355.968 197.474C355.367 204.832 354.173 210.154 351.849 214.716C347.694 222.87 341.065 229.499 332.912 233.653C328.35 235.978 323.028 237.172 315.669 237.773C308.296 238.375 298.991 238.376 286.482 238.376H197.576C185.067 238.376 175.762 238.375 168.389 237.773C161.031 237.172 155.708 235.978 151.146 233.653C142.993 229.499 136.364 222.87 132.21 214.716C129.885 210.154 128.691 204.832 128.09 197.474C127.488 190.101 127.487 180.795 127.487 168.287V83.3055Z"/></g><path stroke="url(#paint11_linear_1023_18)" stroke-linecap="round" stroke-width="2.136" d="M568.265 370.672V238.059"/><path stroke="url(#paint12_linear_1023_18)" stroke-linecap="round" stroke-width="2.136" d="M493.157 427.785L493.156 254.489"/><path stroke="url(#paint13_linear_1023_18)" stroke-linecap="round" stroke-width="2.136" d="M530.712 427.785L530.711 295.172"/><path stroke="url(#paint14_linear_1023_18)" stroke-linecap="round" stroke-width="2.136" d="M456.386 404.704V287.349"/><g style="mix-blend-mode:screen" filter="url(#filter3_f_1023_18)"><path stroke="url(#paint15_linear_1023_18)" stroke-linecap="round" stroke-width="2.136" d="M568.265 370.672V238.059"/><path stroke="url(#paint16_linear_1023_18)" stroke-linecap="round" stroke-width="2.136" d="M493.158 427.785L493.157 254.489"/><path stroke="url(#paint17_linear_1023_18)" stroke-linecap="round" stroke-width="2.136" d="M530.712 427.785L530.711 295.172"/><path stroke="url(#paint18_linear_1023_18)" stroke-linecap="round" stroke-width="2.136" d="M456.386 404.704V287.349"/><g filter="url(#filter4_f_1023_18)"><g style="mix-blend-mode:screen" filter="url(#filter5_f_1023_18)"><path fill="url(#paint19_radial_1023_18)" fill-opacity=".5" d="M567.873 252.924C575.867 252.924 582.347 246.444 582.347 238.45C582.347 230.456 575.867 223.976 567.873 223.976C559.88 223.976 553.399 230.456 553.399 238.45C553.399 246.444 559.88 252.924 567.873 252.924Z"/></g><g style="mix-blend-mode:screen"><path fill="url(#paint20_radial_1023_18)" d="M567.873 246.387C572.256 246.387 575.81 242.834 575.81 238.45C575.81 234.066 572.256 230.513 567.873 230.513C563.489 230.513 559.936 234.066 559.936 238.45C559.936 242.834 563.489 246.387 567.873 246.387Z"/></g></g></g><defs><filter id="filter0_di_1023_18" width="335.653" height="331.727" x="340.17" y="-40.068" color-interpolation-filters="sRGB" filterUnits="userSpaceOnUse"><feFlood flood-opacity="0" result="BackgroundImageFix"/><feColorMatrix in="SourceAlpha" result="hardAlpha" type="matrix" values="0 0 0 0 0 0 0 0 0 0 0 0 0 0 0 0 0 0 127 0"/><feOffset dx="15.606"/><feGaussianBlur stdDeviation="26.01"/><feComposite in2="hardAlpha" operator="out"/><feColorMatrix type="matrix" values="0 0 0 0 0 0 0 0 0 0 0 0 0 0 0 0 0 0 0.16 0"/><feBlend in2="BackgroundImageFix" mode="normal" result="effect1_dropShadow_1023_18"/><feBlend in="SourceGraphic" in2="effect1_dropShadow_1023_18" mode="normal" result="shape"/><feColorMatrix in="SourceAlpha" result="hardAlpha" type="matrix" values="0 0 0 0 0 0 0 0 0 0 0 0 0 0 0 0 0 0 127 0"/><feOffset dy="1.301"/><feGaussianBlur stdDeviation=".65"/><feComposite in2="hardAlpha" k2="-1" k3="1" operator="arithmetic"/><feColorMatrix type="matrix" values="0 0 0 0 1 0 0 0 0 1 0 0 0 0 1 0 0 0 0.25 0"/><feBlend in2="shape" mode="normal" result="effect2_innerShadow_1023_18"/></filter><filter id="filter1_di_1023_18" width="335.653" height="331.727" x="590.528" y="-40.068" color-interpolation-filters="sRGB" filterUnits="userSpaceOnUse"><feFlood flood-opacity="0" result="BackgroundImageFix"/><feColorMatrix in="SourceAlpha" result="hardAlpha" type="matrix" values="0 0 0 0 0 0 0 0 0 0 0 0 0 0 0 0 0 0 127 0"/><feOffset dx="15.606"/><feGaussianBlur stdDeviation="26.01"/><feComposite in2="hardAlpha" operator="out"/><feColorMatrix type="matrix" values="0 0 0 0 0 0 0 0 0 0 0 0 0 0 0 0 0 0 0.16 0"/><feBlend in2="BackgroundImageFix" mode="normal" result="effect1_dropShadow_1023_18"/><feBlend in="SourceGraphic" in2="effect1_dropShadow_1023_18" mode="normal" result="shape"/><feColorMatrix in="SourceAlpha" result="hardAlpha" type="matrix" values="0 0 0 0 0 0 0 0 0 0 0 0 0 0 0 0 0 0 127 0"/><feOffset dy="1.301"/><feGaussianBlur stdDeviation=".65"/><feComposite in2="hardAlpha" k2="-1" k3="1" operator="arithmetic"/><feColorMatrix type="matrix" values="0 0 0 0 1 0 0 0 0 1 0 0 0 0 1 0 0 0 0.25 0"/><feBlend in2="shape" mode="normal" result="effect2_innerShadow_1023_18"/></filter><filter id="filter2_di_1023_18" width="335.653" height="331.727" x="89.81" y="-40.068" color-interpolation-filters="sRGB" filterUnits="userSpaceOnUse"><feFlood flood-opacity="0" result="BackgroundImageFix"/><feColorMatrix in="SourceAlpha" result="hardAlpha" type="matrix" values="0 0 0 0 0 0 0 0 0 0 0 0 0 0 0 0 0 0 127 0"/><feOffset dx="15.606"/><feGaussianBlur stdDeviation="26.01"/><feComposite in2="hardAlpha" operator="out"/><feColorMatrix type="matrix" values="0 0 0 0 0 0 0 0 0 0 0 0 0 0 0 0 0 0 0.16 0"/><feBlend in2="BackgroundImageFix" mode="normal" result="effect1_dropShadow_1023_18"/><feBlend in="SourceGraphic" in2="effect1_dropShadow_1023_18" mode="normal" result="shape"/><feColorMatrix in="SourceAlpha" result="hardAlpha" type="matrix" values="0 0 0 0 0 0 0 0 0 0 0 0 0 0 0 0 0 0 127 0"/><feOffset dy="1.301"/><feGaussianBlur stdDeviation=".65"/><feComposite in2="hardAlpha" k2="-1" k3="1" operator="arithmetic"/><feColorMatrix type="matrix" values="0 0 0 0 1 0 0 0 0 1 0 0 0 0 1 0 0 0 0.25 0"/><feBlend in2="shape" mode="normal" result="effect2_innerShadow_1023_18"/></filter><filter id="filter3_f_1023_18" width="129.663" height="207.509" x="447.494" y="229.167" color-interpolation-filters="sRGB" filterUnits="userSpaceOnUse"><feFlood flood-opacity="0" result="BackgroundImageFix"/><feBlend in="SourceGraphic" in2="BackgroundImageFix" mode="normal" result="shape"/><feGaussianBlur result="effect1_foregroundBlur_1023_18" stdDeviation="3.912"/></filter><filter id="filter4_f_1023_18" width="49.492" height="49.491" x="543.128" y="213.704" color-interpolation-filters="sRGB" filterUnits="userSpaceOnUse"><feFlood flood-opacity="0" result="BackgroundImageFix"/><feBlend in="SourceGraphic" in2="BackgroundImageFix" mode="normal" result="shape"/><feGaussianBlur result="effect1_foregroundBlur_1023_18" stdDeviation="5.136"/></filter><filter id="filter5_f_1023_18" width="38.286" height="38.286" x="548.73" y="219.307" color-interpolation-filters="sRGB" filterUnits="userSpaceOnUse"><feFlood flood-opacity="0" result="BackgroundImageFix"/><feBlend in="SourceGraphic" in2="BackgroundImageFix" mode="normal" result="shape"/><feGaussianBlur result="effect1_foregroundBlur_1023_18" stdDeviation="2.334"/></filter><linearGradient id="paint0_linear_1023_18" x1="492.389" x2="492.389" y1="159.039" y2="239.639" gradientUnits="userSpaceOnUse"><stop stop-color="#fff" stop-opacity="0"/><stop offset="1" stop-color="#fff"/></linearGradient><linearGradient id="paint1_linear_1023_18" x1="492.389" x2="492.389" y1="27.986" y2="281.981" gradientUnits="userSpaceOnUse"><stop stop-color="#fff"/><stop offset="1" stop-color="#fff" stop-opacity="0"/></linearGradient><linearGradient id="paint2_linear_1023_18" x1="526.408" x2="589.389" y1="84.323" y2="236.885" gradientUnits="userSpaceOnUse"><stop offset=".5" stop-color="#fff" stop-opacity="0"/><stop offset="1" stop-color="#fff"/></linearGradient><linearGradient id="paint3_linear_1023_18" x1="492.375" x2="390.276" y1="107.794" y2="8.041" gradientUnits="userSpaceOnUse"><stop offset=".583" stop-color="#fff" stop-opacity="0"/><stop offset="1" stop-color="#fff"/></linearGradient><linearGradient id="paint4_linear_1023_18" x1="436.59" x2="436.59" y1="110.533" y2="114.334" gradientUnits="userSpaceOnUse"><stop stop-color="#fff"/><stop offset="1" stop-color="#999"/></linearGradient><linearGradient id="paint5_linear_1023_18" x1="428.313" x2="428.313" y1="118.083" y2="121.783" gradientUnits="userSpaceOnUse"><stop stop-color="#fff"/><stop offset="1" stop-color="#999"/></linearGradient><linearGradient id="paint6_linear_1023_18" x1="437.371" x2="437.371" y1="125.632" y2="129.433" gradientUnits="userSpaceOnUse"><stop stop-color="#fff"/><stop offset="1" stop-color="#999"/></linearGradient><linearGradient id="paint7_linear_1023_18" x1="484.437" x2="484.437" y1="94.504" y2="171.041" gradientUnits="userSpaceOnUse"><stop stop-color="#fff"/><stop offset="1" stop-color="#999"/></linearGradient><linearGradient id="paint8_linear_1023_18" x1="543.917" x2="543.917" y1="95.264" y2="171.086" gradientUnits="userSpaceOnUse"><stop stop-color="#fff"/><stop offset="1" stop-color="#999"/></linearGradient><linearGradient id="paint9_linear_1023_18" x1="742.748" x2="742.748" y1="27.986" y2="281.981" gradientUnits="userSpaceOnUse"><stop stop-color="#fff" stop-opacity=".5"/><stop offset="1" stop-color="#fff" stop-opacity=".5"/></linearGradient><linearGradient id="paint10_linear_1023_18" x1="242.029" x2="242.029" y1="27.986" y2="281.981" gradientUnits="userSpaceOnUse"><stop stop-color="#fff" stop-opacity=".5"/><stop offset="1" stop-color="#fff" stop-opacity=".5"/></linearGradient><linearGradient id="paint11_linear_1023_18" x1="nan" x2="nan" y1="nan" y2="nan" gradientUnits="userSpaceOnUse"><stop stop-color="#FD366E" stop-opacity="0"/><stop offset=".935" stop-color="#fff"/></linearGradient><linearGradient id="paint12_linear_1023_18" x1="493.157" x2="500.44" y1="428.295" y2="252.746" gradientUnits="userSpaceOnUse"><stop stop-color="#FD366E" stop-opacity="0"/><stop offset="1" stop-color="#fff"/></linearGradient><linearGradient id="paint13_linear_1023_18" x1="530.712" x2="535.103" y1="428.175" y2="293.751" gradientUnits="userSpaceOnUse"><stop stop-color="#fff" stop-opacity="0"/><stop offset="1" stop-color="#fff"/></linearGradient><linearGradient id="paint14_linear_1023_18" x1="nan" x2="nan" y1="nan" y2="nan" gradientUnits="userSpaceOnUse"><stop stop-color="#fff" stop-opacity="0"/><stop offset="1" stop-color="#fff"/></linearGradient><linearGradient id="paint15_linear_1023_18" x1="nan" x2="nan" y1="nan" y2="nan" gradientUnits="userSpaceOnUse"><stop stop-color="#FD366E" stop-opacity="0"/><stop offset=".935" stop-color="#fff"/></linearGradient><linearGradient id="paint16_linear_1023_18" x1="493.158" x2="500.441" y1="428.295" y2="252.746" gradientUnits="userSpaceOnUse"><stop stop-color="#FD366E" stop-opacity="0"/><stop offset="1" stop-color="#fff"/></linearGradient><linearGradient id="paint17_linear_1023_18" x1="530.712" x2="535.103" y1="428.175" y2="293.751" gradientUnits="userSpaceOnUse"><stop stop-color="#fff" stop-opacity="0"/><stop offset="1" stop-color="#fff"/></linearGradient><linearGradient id="paint18_linear_1023_18" x1="nan" x2="nan" y1="nan" y2="nan" gradientUnits="userSpaceOnUse"><stop stop-color="#fff" stop-opacity="0"/><stop offset="1" stop-color="#fff"/></linearGradient><radialGradient id="paint19_radial_1023_18" cx="0" cy="0" r="1" gradientTransform="translate(567.873 238.45) rotate(90) scale(14.4739 14.4739)" gradientUnits="userSpaceOnUse"><stop stop-color="#fff"/><stop offset="1" stop-color="#fff" stop-opacity="0"/></radialGradient><radialGradient id="paint20_radial_1023_18" cx="0" cy="0" r="1" gradientTransform="translate(567.873 238.45) rotate(90) scale(7.9373 7.93729)" gradientUnits="userSpaceOnUse"><stop stop-color="#fff"/><stop offset="1" stop-color="#fff" stop-opacity="0"/></radialGradient><clipPath id="clip0_1023_18"><rect width="688" height="315" fill="#fff"/></clipPath></defs></svg>