<svg xmlns="http://www.w3.org/2000/svg" width="16" height="16" fill="none"><g clip-path="url(#a)"><g fill="#19191C" clip-path="url(#b)"><path d="M10.771.8h.103c.082 1.015-.306 1.774-.777 2.324-.462.545-1.095 1.075-2.119.994-.068-1 .32-1.703.79-2.251C9.206 1.356 10.006.9 10.772.8Zm3.099 10.57v.029a8.378 8.378 0 0 1-1.199 2.31c-.457.63-1.017 1.476-2.017 1.476-.865 0-1.439-.555-2.325-.57-.937-.016-1.452.464-2.31.585h-.291c-.63-.091-1.137-.59-1.507-1.038a9.097 9.097 0 0 1-2.09-5.233v-.645c.066-1.57.828-2.845 1.842-3.464.535-.328 1.27-.609 2.09-.483.35.054.709.174 1.023.293.298.115.67.317 1.023.307.24-.007.477-.132.718-.22.705-.255 1.397-.547 2.309-.41 1.096.166 1.874.653 2.354 1.404-.927.59-1.66 1.48-1.534 2.998.11 1.379.913 2.186 1.914 2.661Z"/></g></g><defs><clipPath id="a"><path fill="#fff" d="M0 0h16v16H0z"/></clipPath><clipPath id="b"><path fill="#fff" d="M.8.8h14.4v14.4H.8z"/></clipPath></defs></svg>