<svg xmlns="http://www.w3.org/2000/svg" width="357" height="182" fill="none"><g clip-path="url(#a)"><path fill="#818186" d="M.138 13v-.767l2.88-3.153c.339-.37.617-.69.836-.964a3.58 3.58 0 0 0 .485-.775c.108-.244.162-.5.162-.767 0-.307-.073-.573-.221-.797a1.438 1.438 0 0 0-.597-.52 1.934 1.934 0 0 0-.852-.183c-.335 0-.628.07-.878.209a1.438 1.438 0 0 0-.575.575c-.134.247-.2.537-.2.87H.172c0-.512.118-.96.354-1.347.235-.387.556-.688.963-.904a2.902 2.902 0 0 1 1.376-.324c.511 0 .965.108 1.36.324.394.216.704.507.928.874.225.366.337.774.337 1.223 0 .32-.058.635-.175.942-.113.304-.312.643-.596 1.018-.282.372-.672.827-1.172 1.364l-1.96 2.096v.069h4.056V13H.138Zm10.112.12c-.642 0-1.189-.175-1.64-.525-.452-.352-.797-.862-1.036-1.53-.239-.67-.358-1.48-.358-2.429 0-.943.12-1.748.358-2.416.241-.67.588-1.182 1.04-1.534.454-.355 1-.533 1.636-.533.636 0 1.18.178 1.632.533.455.352.801.864 1.04 1.534.241.668.362 1.473.362 2.416 0 .95-.12 1.759-.358 2.43-.239.667-.584 1.177-1.035 1.53-.452.349-.999.523-1.641.523Zm0-.938c.636 0 1.13-.307 1.483-.92.352-.614.528-1.49.528-2.626 0-.755-.08-1.399-.242-1.93-.16-.531-.39-.936-.69-1.215a1.524 1.524 0 0 0-1.079-.417c-.63 0-1.124.31-1.479.933-.355.62-.532 1.496-.532 2.63 0 .755.08 1.397.238 1.925.16.529.388.93.686 1.207.301.275.664.413 1.087.413Zm7.5.937c-.642 0-1.189-.174-1.64-.524-.452-.352-.797-.862-1.036-1.53-.239-.67-.358-1.48-.358-2.429 0-.943.12-1.748.358-2.416.241-.67.588-1.182 1.04-1.534.454-.355 1-.533 1.636-.533.636 0 1.18.178 1.632.533.455.352.801.864 1.04 1.534.241.668.362 1.473.362 2.416 0 .95-.12 1.759-.358 2.43-.238.667-.584 1.177-1.035 1.53-.452.349-.999.523-1.641.523Zm0-.937c.636 0 1.13-.307 1.483-.92.352-.614.528-1.49.528-2.626 0-.755-.08-1.399-.242-1.93-.16-.531-.39-.936-.69-1.215a1.524 1.524 0 0 0-1.079-.417c-.63 0-1.124.31-1.479.933-.355.62-.532 1.496-.532 2.63 0 .755.08 1.397.238 1.925.16.529.388.93.686 1.207.302.275.664.413 1.087.413Zm7.5.937c-.642 0-1.189-.174-1.64-.524-.452-.352-.797-.862-1.036-1.53-.239-.67-.358-1.48-.358-2.429 0-.943.12-1.748.358-2.416.241-.67.588-1.182 1.04-1.534.454-.355 1-.533 1.636-.533.636 0 1.18.178 1.632.533.455.352.801.864 1.04 1.534.241.668.362 1.473.362 2.416 0 .95-.12 1.759-.358 2.43-.238.667-.584 1.177-1.035 1.53-.452.349-.999.523-1.641.523Zm0-.937c.636 0 1.13-.307 1.483-.92.352-.614.528-1.49.528-2.626 0-.755-.08-1.399-.242-1.93-.16-.531-.39-.936-.69-1.215a1.524 1.524 0 0 0-1.079-.417c-.63 0-1.124.31-1.479.933-.355.62-.532 1.496-.532 2.63 0 .755.08 1.397.238 1.925.16.529.388.93.686 1.207.302.275.664.413 1.087.413Z"/><path stroke="#E4E4E7" stroke-width=".5" d="M45 8.75h312" opacity=".2"/><path fill="#818186" d="M5.093 41.273V50H4.036v-7.62h-.051l-2.131 1.415v-1.073l2.182-1.45h1.057Zm5.237 8.846c-.5 0-.95-.1-1.35-.298a2.508 2.508 0 0 1-.964-.818 2.229 2.229 0 0 1-.396-1.185h1.022c.04.395.22.722.537.98a1.79 1.79 0 0 0 1.15.384c.359 0 .677-.084.955-.252.282-.167.502-.397.661-.69a2.05 2.05 0 0 0 .243-1.001c0-.381-.084-.72-.252-1.019a1.844 1.844 0 0 0-.681-.712 1.927 1.927 0 0 0-.993-.264 2.73 2.73 0 0 0-.823.124 2.286 2.286 0 0 0-.694.32l-.989-.12.528-4.295h4.534v.937H9.171l-.307 2.574h.051c.18-.142.404-.26.673-.354.27-.093.552-.14.844-.14a2.687 2.687 0 0 1 2.416 1.423c.242.44.363.943.363 1.509 0 .556-.125 1.054-.375 1.491a2.742 2.742 0 0 1-1.023 1.031 2.92 2.92 0 0 1-1.483.375Zm7.42 0c-.642 0-1.189-.174-1.64-.524-.452-.352-.797-.862-1.036-1.53-.239-.67-.358-1.48-.358-2.429 0-.943.12-1.748.358-2.416.241-.67.588-1.182 1.04-1.534.454-.355 1-.533 1.636-.533.636 0 1.18.178 1.632.533.455.352.801.864 1.04 1.534.241.668.362 1.473.362 2.416 0 .95-.12 1.759-.358 2.43-.238.667-.584 1.177-1.035 1.53-.452.349-.999.523-1.641.523Zm0-.937c.636 0 1.13-.307 1.483-.92.352-.614.528-1.49.528-2.626 0-.755-.08-1.399-.242-1.93-.16-.531-.39-.936-.69-1.215a1.524 1.524 0 0 0-1.079-.417c-.63 0-1.124.31-1.479.933-.355.62-.532 1.496-.532 2.63 0 .755.08 1.397.238 1.925.16.529.388.93.686 1.207.302.275.664.413 1.087.413Zm7.5.937c-.642 0-1.189-.174-1.64-.524-.452-.352-.797-.862-1.036-1.53-.239-.67-.358-1.48-.358-2.429 0-.943.12-1.748.358-2.416.241-.67.588-1.182 1.04-1.534.454-.355 1-.533 1.636-.533.636 0 1.18.178 1.632.533.455.352.801.864 1.04 1.534.241.668.362 1.473.362 2.416 0 .95-.12 1.759-.358 2.43-.238.667-.584 1.177-1.035 1.53-.452.349-.999.523-1.641.523Zm0-.937c.636 0 1.13-.307 1.483-.92.352-.614.528-1.49.528-2.626 0-.755-.08-1.399-.242-1.93-.16-.531-.39-.936-.69-1.215a1.524 1.524 0 0 0-1.079-.417c-.63 0-1.124.31-1.479.933-.355.62-.532 1.496-.532 2.63 0 .755.08 1.397.238 1.925.16.529.388.93.686 1.207.302.275.664.413 1.087.413Z"/><path stroke="#E4E4E7" stroke-width=".5" d="M45 45.75h312" opacity=".2"/><path fill="#818186" d="M4.893 79.773V88.5H3.837v-7.62h-.051l-2.131 1.416v-1.074l2.182-1.45h1.056Zm5.357 8.846c-.642 0-1.189-.174-1.64-.524-.452-.352-.797-.862-1.036-1.53-.239-.67-.358-1.48-.358-2.429 0-.943.12-1.748.358-2.416.241-.67.588-1.182 1.04-1.534.454-.355 1-.533 1.636-.533.636 0 1.18.178 1.632.533.455.352.801.864 1.04 1.534.241.668.362 1.473.362 2.416 0 .95-.12 1.759-.358 2.43-.239.667-.584 1.177-1.035 1.53-.452.349-.999.523-1.641.523Zm0-.937c.636 0 1.13-.307 1.483-.92.352-.614.528-1.49.528-2.626 0-.755-.08-1.399-.242-1.93-.16-.531-.39-.936-.69-1.215a1.524 1.524 0 0 0-1.079-.417c-.63 0-1.124.31-1.479.933-.355.62-.532 1.496-.532 2.63 0 .755.08 1.397.238 1.925.16.529.388.93.686 1.207.301.275.664.413 1.087.413Zm7.5.937c-.642 0-1.189-.174-1.64-.524-.452-.352-.797-.862-1.036-1.53-.239-.67-.358-1.48-.358-2.429 0-.943.12-1.748.358-2.416.241-.67.588-1.182 1.04-1.534.454-.355 1-.533 1.636-.533.636 0 1.18.178 1.632.533.455.352.801.864 1.04 1.534.241.668.362 1.473.362 2.416 0 .95-.12 1.759-.358 2.43-.238.667-.584 1.177-1.035 1.53-.452.349-.999.523-1.641.523Zm0-.937c.636 0 1.13-.307 1.483-.92.352-.614.528-1.49.528-2.626 0-.755-.08-1.399-.242-1.93-.16-.531-.39-.936-.69-1.215a1.524 1.524 0 0 0-1.079-.417c-.63 0-1.124.31-1.479.933-.355.62-.532 1.496-.532 2.63 0 .755.08 1.397.238 1.925.16.529.388.93.686 1.207.302.275.664.413 1.087.413Zm7.5.937c-.642 0-1.189-.174-1.64-.524-.452-.352-.797-.862-1.036-1.53-.239-.67-.358-1.48-.358-2.429 0-.943.12-1.748.358-2.416.241-.67.588-1.182 1.04-1.534.454-.355 1-.533 1.636-.533.636 0 1.18.178 1.632.533.455.352.801.864 1.04 1.534.241.668.362 1.473.362 2.416 0 .95-.12 1.759-.358 2.43-.238.667-.584 1.177-1.035 1.53-.452.349-.999.523-1.641.523Zm0-.937c.636 0 1.13-.307 1.483-.92.352-.614.528-1.49.528-2.626 0-.755-.08-1.399-.242-1.93-.16-.531-.39-.936-.69-1.215a1.524 1.524 0 0 0-1.079-.417c-.63 0-1.124.31-1.479.933-.355.62-.532 1.496-.532 2.63 0 .755.08 1.397.238 1.925.16.529.388.93.686 1.207.302.275.664.413 1.087.413Z"/><path stroke="#E4E4E7" stroke-width=".5" d="M45 84.25h312" opacity=".2"/><path fill="#818186" d="M10.33 126.119c-.5 0-.95-.099-1.35-.298a2.515 2.515 0 0 1-.964-.818 2.232 2.232 0 0 1-.396-1.185h1.022a1.4 1.4 0 0 0 .537.98c.321.256.705.384 1.15.384.359 0 .677-.084.955-.252.282-.167.502-.397.661-.69.162-.295.243-.629.243-1.001a2.04 2.04 0 0 0-.252-1.019 1.842 1.842 0 0 0-.681-.711 1.922 1.922 0 0 0-.993-.265 2.73 2.73 0 0 0-.823.124 2.27 2.27 0 0 0-.694.32l-.989-.12.528-4.295h4.534v.937H9.171l-.307 2.574h.051c.18-.142.404-.26.673-.354.27-.093.552-.14.844-.14a2.684 2.684 0 0 1 2.416 1.423c.242.44.363.943.363 1.509 0 .556-.125 1.054-.375 1.491a2.74 2.74 0 0 1-1.023 1.031 2.92 2.92 0 0 1-1.483.375Zm7.42 0c-.642 0-1.189-.174-1.64-.524-.452-.352-.797-.862-1.036-1.53-.239-.67-.358-1.48-.358-2.429 0-.943.12-1.748.358-2.416.241-.67.588-1.182 1.04-1.534.454-.355 1-.533 1.636-.533.636 0 1.18.178 1.632.533.455.352.801.864 1.04 1.534.241.668.362 1.473.362 2.416 0 .949-.12 1.759-.358 2.429-.238.668-.584 1.178-1.035 1.53-.452.35-.999.524-1.641.524Zm0-.937c.636 0 1.13-.307 1.483-.921.352-.613.528-1.488.528-2.625 0-.755-.08-1.399-.242-1.93-.16-.531-.39-.936-.69-1.215a1.525 1.525 0 0 0-1.079-.417c-.63 0-1.124.311-1.479.933-.355.619-.532 1.496-.532 2.629 0 .756.08 1.398.238 1.926.16.529.388.931.686 1.206.302.276.664.414 1.087.414Zm7.5.937c-.642 0-1.189-.174-1.64-.524-.452-.352-.797-.862-1.036-1.53-.239-.67-.358-1.48-.358-2.429 0-.943.12-1.748.358-2.416.241-.67.588-1.182 1.04-1.534.454-.355 1-.533 1.636-.533.636 0 1.18.178 1.632.533.455.352.801.864 1.04 1.534.241.668.362 1.473.362 2.416 0 .949-.12 1.759-.358 2.429-.238.668-.584 1.178-1.035 1.53-.452.35-.999.524-1.641.524Zm0-.937c.636 0 1.13-.307 1.483-.921.352-.613.528-1.488.528-2.625 0-.755-.08-1.399-.242-1.93-.16-.531-.39-.936-.69-1.215a1.525 1.525 0 0 0-1.079-.417c-.63 0-1.124.311-1.479.933-.355.619-.532 1.496-.532 2.629 0 .756.08 1.398.238 1.926.16.529.388.931.686 1.206.302.276.664.414 1.087.414Z"/><path stroke="#E4E4E7" stroke-width=".5" d="M45 121.75h312" opacity=".2"/><path fill="#818186" d="M25.25 163.119c-.642 0-1.189-.174-1.64-.524-.452-.352-.797-.862-1.036-1.53-.239-.67-.358-1.48-.358-2.429 0-.943.12-1.748.358-2.416.241-.67.588-1.182 1.04-1.534.454-.355 1-.533 1.636-.533.636 0 1.18.178 1.632.533.455.352.801.864 1.04 1.534.241.668.362 1.473.362 2.416 0 .949-.12 1.759-.358 2.429-.238.668-.584 1.178-1.035 1.53-.452.35-.999.524-1.641.524Zm0-.937c.636 0 1.13-.307 1.483-.921.352-.613.528-1.488.528-2.625 0-.755-.08-1.399-.242-1.93-.16-.531-.39-.936-.69-1.215a1.525 1.525 0 0 0-1.079-.417c-.63 0-1.124.311-1.479.933-.355.619-.532 1.496-.532 2.629 0 .756.08 1.398.238 1.926.16.529.388.931.686 1.206.302.276.664.414 1.087.414Z"/><path stroke="#E4E4E7" stroke-width=".5" d="M45 158.75h312" opacity=".2"/><g filter="url(#b)"><path fill="#F02E65" fill-opacity=".3" d="M45 45.023a3 3 0 0 1 6 0v113h-6v-113Z"/></g><path fill="#F02E65" d="M45 102.023a3 3 0 0 1 6 0v57h-6v-57Z"/><g filter="url(#c)"><path fill="#F02E65" fill-opacity=".3" d="M62 83.465a3 3 0 0 1 6 0v75h-6v-75Z"/></g><path fill="#F02E65" d="M62 114.465a3 3 0 1 1 6 0v44.559h-6v-44.559Z"/><g filter="url(#d)"><path fill="#F02E65" fill-opacity=".3" d="M79 114.023a3 3 0 0 1 6 0v45h-6v-45Z"/></g><path fill="#F02E65" d="M79 134.023a3 3 0 0 1 6 0v25h-6v-25Z"/><g filter="url(#e)"><path fill="#F02E65" fill-opacity=".3" d="M96 95.523a3 3 0 0 1 6 0v63h-6v-63Z"/></g><path fill="#F02E65" d="M96 119.523a3 3 0 0 1 6 0v39.501h-6v-39.501Z"/><g filter="url(#f)"><path fill="#F02E65" fill-opacity=".3" d="M113 64.203a3 3 0 1 1 6 0v94.143h-6V64.203Z"/></g><path fill="#F02E65" d="M113 92.203a3 3 0 1 1 6 0v66.822h-6V92.203Z"/><g filter="url(#g)"><path fill="#F02E65" fill-opacity=".3" d="M130 45a3 3 0 1 1 6 0v113.369h-6V45Z"/></g><path fill="#F02E65" d="M130 75a3 3 0 1 1 6 0v84.024h-6V75Z"/><g filter="url(#h)"><path fill="#F02E65" fill-opacity=".3" d="M147 83.023a3 3 0 1 1 6 0v75h-6v-75Z"/></g><path fill="#F02E65" d="M147 109.023a3 3 0 0 1 6 0v50h-6v-50Z"/><g filter="url(#i)"><path fill="#F02E65" fill-opacity=".3" d="M164 114.023a3 3 0 0 1 6 0v45h-6v-45Z"/></g><path fill="#F02E65" d="M164 134.023a3 3 0 0 1 6 0v25h-6v-25Z"/><g filter="url(#j)"><path fill="#F02E65" fill-opacity=".3" d="M181 95.404a3 3 0 1 1 6 0v63h-6v-63Z"/></g><path fill="#F02E65" d="M181 109.404a3 3 0 1 1 6 0v49.619h-6v-49.619Z"/><g filter="url(#k)"><path fill="#F02E65" fill-opacity=".3" d="M198 64.203a3 3 0 1 1 6 0v94.143h-6V64.203Z"/></g><path fill="#F02E65" d="M198 92.203a3 3 0 1 1 6 0v66.822h-6V92.203Z"/><g filter="url(#l)"><path fill="#F02E65" fill-opacity=".3" d="M215 83.404a3 3 0 1 1 6 0v75h-6v-75Z"/></g><path fill="#F02E65" d="M215 109.404a3 3 0 1 1 6 0v49.619h-6v-49.619Z"/><g filter="url(#m)"><path fill="#F02E65" fill-opacity=".3" d="M232 83.404a3 3 0 1 1 6 0v75h-6v-75Z"/></g><path fill="#F02E65" d="M232 109.404a3 3 0 1 1 6 0v49.619h-6v-49.619Z"/><g filter="url(#n)"><path fill="#F02E65" fill-opacity=".3" d="M249 114.023a3 3 0 0 1 6 0v45h-6v-45Z"/></g><path fill="#F02E65" d="M249 134.023a3 3 0 0 1 6 0v25h-6v-25Z"/><g filter="url(#o)"><path fill="#F02E65" fill-opacity=".3" d="M266 114.023a3 3 0 0 1 6 0v45h-6v-45Z"/></g><path fill="#F02E65" d="M266 134.023a3 3 0 0 1 6 0v25h-6v-25Z"/><g filter="url(#p)"><path fill="#F02E65" fill-opacity=".3" d="M283 95.465a3 3 0 1 1 6 0v63h-6v-63Z"/></g><path fill="#F02E65" d="M283 114.465a3 3 0 1 1 6 0v44.559h-6v-44.559Z"/><g filter="url(#q)"><path fill="#F02E65" fill-opacity=".3" d="M300 95.465a3 3 0 1 1 6 0v63h-6v-63Z"/></g><path fill="#F02E65" d="M300 114.465a3 3 0 1 1 6 0v44.559h-6v-44.559Z"/><g filter="url(#r)"><path fill="#F02E65" fill-opacity=".3" d="M317 64.203a3 3 0 1 1 6 0v94.143h-6V64.203Z"/></g><path fill="#F02E65" d="M317 92.203a3 3 0 1 1 6 0v66.822h-6V92.203Z"/><g filter="url(#s)"><path fill="#F02E65" fill-opacity=".3" d="M334 64.203a3 3 0 1 1 6 0v94.143h-6V64.203Z"/></g><path fill="#F02E65" d="M334 92.203a3 3 0 1 1 6 0v66.822h-6V92.203Z"/><g filter="url(#t)"><path fill="#F02E65" fill-opacity=".3" d="M351 95.523a3 3 0 1 1 6 0v63h-6v-63Z"/></g><path fill="#F02E65" d="M351 119.523a3 3 0 0 1 6 0v39.501h-6v-39.501Z"/><path fill="#818186" d="M49.702 168.273V177h-1.057v-7.619h-.05l-2.132 1.414v-1.073l2.182-1.449h1.057Zm5.237 8.846c-.5 0-.95-.099-1.35-.298a2.514 2.514 0 0 1-.964-.818 2.232 2.232 0 0 1-.396-1.185h1.023a1.4 1.4 0 0 0 .537.98c.32.256.704.384 1.15.384.358 0 .676-.084.955-.252.281-.167.501-.397.66-.69.162-.295.243-.629.243-1.001a2.05 2.05 0 0 0-.251-1.019 1.842 1.842 0 0 0-.682-.711 1.922 1.922 0 0 0-.993-.265 2.73 2.73 0 0 0-.822.124 2.27 2.27 0 0 0-.695.32l-.989-.12.529-4.295h4.534v.937H53.78l-.307 2.574h.052c.178-.142.403-.26.673-.354.27-.093.55-.14.843-.14a2.684 2.684 0 0 1 2.417 1.423c.241.44.362.943.362 1.509 0 .556-.125 1.054-.375 1.491a2.74 2.74 0 0 1-1.023 1.031 2.92 2.92 0 0 1-1.483.375Zm11.443-8.846h1.057v6.238c0 .557-.102 1.03-.307 1.419-.204.39-.493.685-.865.887-.372.201-.811.302-1.317.302-.477 0-.902-.086-1.274-.26a2.099 2.099 0 0 1-.878-.75c-.213-.323-.32-.708-.32-1.154h1.04c0 .247.062.463.184.647.125.182.295.324.511.426.216.103.462.154.737.154.304 0 .563-.064.776-.192.213-.128.375-.315.486-.562.113-.25.17-.556.17-.917v-6.238Zm7.163 6.051v-3.869h1.006V177h-1.005v-1.108h-.069a2.15 2.15 0 0 1-.716.848c-.323.23-.733.345-1.227.345a2.18 2.18 0 0 1-1.09-.268 1.883 1.883 0 0 1-.75-.818c-.183-.367-.273-.829-.273-1.385v-4.159h1.005v4.09c0 .478.134.858.4 1.143.27.284.614.426 1.032.426.25 0 .504-.064.763-.192.261-.128.48-.324.656-.588.179-.264.269-.601.269-1.01Zm3.854-6.051V177h-1.006v-8.727H77.4Zm2.49 11.182a2.23 2.23 0 0 1-.456-.043 1.201 1.201 0 0 1-.278-.077l.256-.886c.245.062.46.085.648.068a.778.778 0 0 0 .499-.251c.147-.148.282-.388.404-.721l.188-.511-2.42-6.579h1.09l1.807 5.215h.068l1.807-5.215h1.091l-2.778 7.5c-.125.338-.28.617-.465.839a1.743 1.743 0 0 1-.643.499 1.983 1.983 0 0 1-.819.162Zm242.247-11.182V177h-1.057v-7.619h-.051l-2.131 1.414v-1.073l2.182-1.449h1.057Zm5.407 8.846a3.266 3.266 0 0 1-1.074-.204 2.584 2.584 0 0 1-.98-.661c-.295-.312-.532-.734-.711-1.265-.179-.534-.269-1.205-.269-2.012 0-.772.073-1.457.218-2.054.144-.599.355-1.103.63-1.512.276-.412.608-.725.997-.938.392-.213.834-.32 1.326-.32.488 0 .923.098 1.304.294a2.5 2.5 0 0 1 .937.81c.242.347.398.746.469 1.198h-1.04a1.92 1.92 0 0 0-.562-.976c-.279-.259-.648-.388-1.108-.388-.676 0-1.209.294-1.598.882-.387.588-.581 1.413-.584 2.476h.068a2.563 2.563 0 0 1 1.3-1.019c.267-.093.549-.14.848-.14.5 0 .957.125 1.372.375.415.247.747.589.997 1.027.25.434.375.933.375 1.496 0 .539-.121 1.034-.362 1.482a2.76 2.76 0 0 1-1.019 1.066c-.434.261-.946.389-1.534.383Zm0-.937c.358 0 .679-.09.963-.269.287-.179.513-.419.678-.72.168-.301.251-.636.251-1.005 0-.361-.081-.689-.243-.985a1.862 1.862 0 0 0-.66-.712 1.749 1.749 0 0 0-.955-.264c-.269 0-.521.054-.754.162-.233.105-.437.25-.613.435a2.1 2.1 0 0 0-.41.635 2.018 2.018 0 0 0 .767 2.446c.287.184.613.277.976.277Zm8.477.818h-1.108l3.205-8.727h1.091l3.204 8.727h-1.108l-2.608-7.347h-.068L336.02 177Zm.409-3.409h4.466v.937h-4.466v-.937Zm11.331.733v-3.869h1.006V177h-1.006v-1.108h-.068a2.146 2.146 0 0 1-.716.848c-.324.23-.733.345-1.227.345-.409 0-.773-.089-1.091-.268a1.885 1.885 0 0 1-.75-.818c-.182-.367-.273-.829-.273-1.385v-4.159h1.006v4.09c0 .478.134.858.401 1.143.269.284.613.426 1.031.426.25 0 .504-.064.763-.192.261-.128.48-.324.656-.588.179-.264.268-.601.268-1.01Zm5.49 5.267c-.486 0-.903-.063-1.253-.188a2.669 2.669 0 0 1-.873-.485 2.624 2.624 0 0 1-.55-.64l.801-.562c.091.119.206.256.345.409.139.156.33.291.571.405.245.116.564.175.959.175.528 0 .964-.128 1.308-.384.344-.256.516-.656.516-1.202v-1.329h-.085a5.36 5.36 0 0 1-.316.443 1.777 1.777 0 0 1-.579.464c-.25.134-.588.201-1.014.201a2.734 2.734 0 0 1-1.424-.375 2.642 2.642 0 0 1-.993-1.091c-.241-.477-.362-1.057-.362-1.739 0-.67.118-1.254.354-1.751.236-.5.564-.887.984-1.159.421-.276.906-.414 1.458-.414.426 0 .764.071 1.014.213.253.14.446.299.579.478.137.176.242.321.316.434h.102v-1.039h.972v6.733c0 .562-.128 1.019-.384 1.372a2.18 2.18 0 0 1-1.023.779c-.426.168-.9.252-1.423.252Zm-.034-3.597c.403 0 .744-.092 1.023-.277.278-.184.49-.45.635-.797.144-.346.217-.761.217-1.244 0-.471-.071-.888-.213-1.248a1.865 1.865 0 0 0-.631-.848c-.278-.205-.622-.307-1.031-.307-.426 0-.781.108-1.065.324a1.958 1.958 0 0 0-.635.869c-.14.364-.209.767-.209 1.21 0 .455.071.857.213 1.206.145.347.358.619.639.818.284.196.636.294 1.057.294Z"/></g><defs><filter id="b" width="826" height="936" x="-365" y="-367.977" color-interpolation-filters="sRGB" filterUnits="userSpaceOnUse"><feFlood flood-opacity="0" result="BackgroundImageFix"/><feGaussianBlur in="BackgroundImageFix" stdDeviation="205"/><feComposite in2="SourceAlpha" operator="in" result="effect1_backgroundBlur_3981_110334"/><feBlend in="SourceGraphic" in2="effect1_backgroundBlur_3981_110334" result="shape"/></filter><filter id="c" width="826" height="898" x="-348" y="-329.535" color-interpolation-filters="sRGB" filterUnits="userSpaceOnUse"><feFlood flood-opacity="0" result="BackgroundImageFix"/><feGaussianBlur in="BackgroundImageFix" stdDeviation="205"/><feComposite in2="SourceAlpha" operator="in" result="effect1_backgroundBlur_3981_110334"/><feBlend in="SourceGraphic" in2="effect1_backgroundBlur_3981_110334" result="shape"/></filter><filter id="d" width="826" height="868" x="-331" y="-298.977" color-interpolation-filters="sRGB" filterUnits="userSpaceOnUse"><feFlood flood-opacity="0" result="BackgroundImageFix"/><feGaussianBlur in="BackgroundImageFix" stdDeviation="205"/><feComposite in2="SourceAlpha" operator="in" result="effect1_backgroundBlur_3981_110334"/><feBlend in="SourceGraphic" in2="effect1_backgroundBlur_3981_110334" result="shape"/></filter><filter id="e" width="826" height="886" x="-314" y="-317.477" color-interpolation-filters="sRGB" filterUnits="userSpaceOnUse"><feFlood flood-opacity="0" result="BackgroundImageFix"/><feGaussianBlur in="BackgroundImageFix" stdDeviation="205"/><feComposite in2="SourceAlpha" operator="in" result="effect1_backgroundBlur_3981_110334"/><feBlend in="SourceGraphic" in2="effect1_backgroundBlur_3981_110334" result="shape"/></filter><filter id="f" width="826" height="917.143" x="-297" y="-348.797" color-interpolation-filters="sRGB" filterUnits="userSpaceOnUse"><feFlood flood-opacity="0" result="BackgroundImageFix"/><feGaussianBlur in="BackgroundImageFix" stdDeviation="205"/><feComposite in2="SourceAlpha" operator="in" result="effect1_backgroundBlur_3981_110334"/><feBlend in="SourceGraphic" in2="effect1_backgroundBlur_3981_110334" result="shape"/></filter><filter id="g" width="826" height="936.369" x="-280" y="-368" color-interpolation-filters="sRGB" filterUnits="userSpaceOnUse"><feFlood flood-opacity="0" result="BackgroundImageFix"/><feGaussianBlur in="BackgroundImageFix" stdDeviation="205"/><feComposite in2="SourceAlpha" operator="in" result="effect1_backgroundBlur_3981_110334"/><feBlend in="SourceGraphic" in2="effect1_backgroundBlur_3981_110334" result="shape"/></filter><filter id="h" width="826" height="898" x="-263" y="-329.977" color-interpolation-filters="sRGB" filterUnits="userSpaceOnUse"><feFlood flood-opacity="0" result="BackgroundImageFix"/><feGaussianBlur in="BackgroundImageFix" stdDeviation="205"/><feComposite in2="SourceAlpha" operator="in" result="effect1_backgroundBlur_3981_110334"/><feBlend in="SourceGraphic" in2="effect1_backgroundBlur_3981_110334" result="shape"/></filter><filter id="i" width="826" height="868" x="-246" y="-298.977" color-interpolation-filters="sRGB" filterUnits="userSpaceOnUse"><feFlood flood-opacity="0" result="BackgroundImageFix"/><feGaussianBlur in="BackgroundImageFix" stdDeviation="205"/><feComposite in2="SourceAlpha" operator="in" result="effect1_backgroundBlur_3981_110334"/><feBlend in="SourceGraphic" in2="effect1_backgroundBlur_3981_110334" result="shape"/></filter><filter id="j" width="826" height="886" x="-229" y="-317.596" color-interpolation-filters="sRGB" filterUnits="userSpaceOnUse"><feFlood flood-opacity="0" result="BackgroundImageFix"/><feGaussianBlur in="BackgroundImageFix" stdDeviation="205"/><feComposite in2="SourceAlpha" operator="in" result="effect1_backgroundBlur_3981_110334"/><feBlend in="SourceGraphic" in2="effect1_backgroundBlur_3981_110334" result="shape"/></filter><filter id="k" width="826" height="917.143" x="-212" y="-348.797" color-interpolation-filters="sRGB" filterUnits="userSpaceOnUse"><feFlood flood-opacity="0" result="BackgroundImageFix"/><feGaussianBlur in="BackgroundImageFix" stdDeviation="205"/><feComposite in2="SourceAlpha" operator="in" result="effect1_backgroundBlur_3981_110334"/><feBlend in="SourceGraphic" in2="effect1_backgroundBlur_3981_110334" result="shape"/></filter><filter id="l" width="826" height="898" x="-195" y="-329.596" color-interpolation-filters="sRGB" filterUnits="userSpaceOnUse"><feFlood flood-opacity="0" result="BackgroundImageFix"/><feGaussianBlur in="BackgroundImageFix" stdDeviation="205"/><feComposite in2="SourceAlpha" operator="in" result="effect1_backgroundBlur_3981_110334"/><feBlend in="SourceGraphic" in2="effect1_backgroundBlur_3981_110334" result="shape"/></filter><filter id="m" width="826" height="898" x="-178" y="-329.596" color-interpolation-filters="sRGB" filterUnits="userSpaceOnUse"><feFlood flood-opacity="0" result="BackgroundImageFix"/><feGaussianBlur in="BackgroundImageFix" stdDeviation="205"/><feComposite in2="SourceAlpha" operator="in" result="effect1_backgroundBlur_3981_110334"/><feBlend in="SourceGraphic" in2="effect1_backgroundBlur_3981_110334" result="shape"/></filter><filter id="n" width="826" height="868" x="-161" y="-298.977" color-interpolation-filters="sRGB" filterUnits="userSpaceOnUse"><feFlood flood-opacity="0" result="BackgroundImageFix"/><feGaussianBlur in="BackgroundImageFix" stdDeviation="205"/><feComposite in2="SourceAlpha" operator="in" result="effect1_backgroundBlur_3981_110334"/><feBlend in="SourceGraphic" in2="effect1_backgroundBlur_3981_110334" result="shape"/></filter><filter id="o" width="826" height="868" x="-144" y="-298.977" color-interpolation-filters="sRGB" filterUnits="userSpaceOnUse"><feFlood flood-opacity="0" result="BackgroundImageFix"/><feGaussianBlur in="BackgroundImageFix" stdDeviation="205"/><feComposite in2="SourceAlpha" operator="in" result="effect1_backgroundBlur_3981_110334"/><feBlend in="SourceGraphic" in2="effect1_backgroundBlur_3981_110334" result="shape"/></filter><filter id="p" width="826" height="886" x="-127" y="-317.535" color-interpolation-filters="sRGB" filterUnits="userSpaceOnUse"><feFlood flood-opacity="0" result="BackgroundImageFix"/><feGaussianBlur in="BackgroundImageFix" stdDeviation="205"/><feComposite in2="SourceAlpha" operator="in" result="effect1_backgroundBlur_3981_110334"/><feBlend in="SourceGraphic" in2="effect1_backgroundBlur_3981_110334" result="shape"/></filter><filter id="q" width="826" height="886" x="-110" y="-317.535" color-interpolation-filters="sRGB" filterUnits="userSpaceOnUse"><feFlood flood-opacity="0" result="BackgroundImageFix"/><feGaussianBlur in="BackgroundImageFix" stdDeviation="205"/><feComposite in2="SourceAlpha" operator="in" result="effect1_backgroundBlur_3981_110334"/><feBlend in="SourceGraphic" in2="effect1_backgroundBlur_3981_110334" result="shape"/></filter><filter id="r" width="826" height="917.143" x="-93" y="-348.797" color-interpolation-filters="sRGB" filterUnits="userSpaceOnUse"><feFlood flood-opacity="0" result="BackgroundImageFix"/><feGaussianBlur in="BackgroundImageFix" stdDeviation="205"/><feComposite in2="SourceAlpha" operator="in" result="effect1_backgroundBlur_3981_110334"/><feBlend in="SourceGraphic" in2="effect1_backgroundBlur_3981_110334" result="shape"/></filter><filter id="s" width="826" height="917.143" x="-76" y="-348.797" color-interpolation-filters="sRGB" filterUnits="userSpaceOnUse"><feFlood flood-opacity="0" result="BackgroundImageFix"/><feGaussianBlur in="BackgroundImageFix" stdDeviation="205"/><feComposite in2="SourceAlpha" operator="in" result="effect1_backgroundBlur_3981_110334"/><feBlend in="SourceGraphic" in2="effect1_backgroundBlur_3981_110334" result="shape"/></filter><filter id="t" width="826" height="886" x="-59" y="-317.477" color-interpolation-filters="sRGB" filterUnits="userSpaceOnUse"><feFlood flood-opacity="0" result="BackgroundImageFix"/><feGaussianBlur in="BackgroundImageFix" stdDeviation="205"/><feComposite in2="SourceAlpha" operator="in" result="effect1_backgroundBlur_3981_110334"/><feBlend in="SourceGraphic" in2="effect1_backgroundBlur_3981_110334" result="shape"/></filter><clipPath id="a"><path fill="#fff" d="M0 0h357v182H0z"/></clipPath></defs></svg>