<svg width="357" height="182" viewBox="0 0 357 182" fill="none" xmlns="http://www.w3.org/2000/svg">
  <g clip-path="url(#clip0_3981_110334)">
    <path
      d="M0.137784 13V12.233L3.01847 9.07955C3.35653 8.71023 3.63494 8.3892 3.85369 8.11648C4.07244 7.84091 4.23438 7.58239 4.33949 7.34091C4.44744 7.09659 4.50142 6.84091 4.50142 6.57386C4.50142 6.26705 4.42756 6.00142 4.27983 5.77699C4.13494 5.55256 3.93608 5.37926 3.68324 5.2571C3.4304 5.13494 3.14631 5.07386 2.83097 5.07386C2.49574 5.07386 2.20312 5.14347 1.95312 5.28267C1.70597 5.41903 1.5142 5.6108 1.37784 5.85795C1.24432 6.10511 1.17756 6.39489 1.17756 6.72727H0.171875C0.171875 6.21591 0.289773 5.76705 0.525568 5.38068C0.761364 4.99432 1.08239 4.69318 1.48864 4.47727C1.89773 4.26136 2.35653 4.15341 2.86506 4.15341C3.37642 4.15341 3.82955 4.26136 4.22443 4.47727C4.61932 4.69318 4.92898 4.98437 5.15341 5.35085C5.37784 5.71733 5.49006 6.125 5.49006 6.57386C5.49006 6.89489 5.43182 7.20881 5.31534 7.51562C5.2017 7.8196 5.00284 8.15909 4.71875 8.53409C4.4375 8.90625 4.04688 9.3608 3.54688 9.89773L1.58665 11.9943V12.0625H5.64347V13H0.137784ZM10.25 13.1193C9.60795 13.1193 9.06108 12.9446 8.60938 12.5952C8.15767 12.2429 7.8125 11.733 7.57386 11.0653C7.33523 10.3949 7.21591 9.58523 7.21591 8.63636C7.21591 7.69318 7.33523 6.88778 7.57386 6.22017C7.81534 5.54972 8.16193 5.03835 8.61364 4.68608C9.06818 4.33097 9.61364 4.15341 10.25 4.15341C10.8864 4.15341 11.4304 4.33097 11.8821 4.68608C12.3366 5.03835 12.6832 5.54972 12.9219 6.22017C13.1634 6.88778 13.2841 7.69318 13.2841 8.63636C13.2841 9.58523 13.1648 10.3949 12.9261 11.0653C12.6875 11.733 12.3423 12.2429 11.8906 12.5952C11.4389 12.9446 10.892 13.1193 10.25 13.1193ZM10.25 12.1818C10.8864 12.1818 11.3807 11.875 11.733 11.2614C12.0852 10.6477 12.2614 9.77273 12.2614 8.63636C12.2614 7.88068 12.1804 7.23722 12.0185 6.70597C11.8594 6.17472 11.6293 5.76989 11.3281 5.49148C11.0298 5.21307 10.6705 5.07386 10.25 5.07386C9.61932 5.07386 9.12642 5.38494 8.77131 6.0071C8.41619 6.62642 8.23864 7.50284 8.23864 8.63636C8.23864 9.39205 8.31818 10.0341 8.47727 10.5625C8.63636 11.0909 8.86506 11.4929 9.16335 11.7685C9.46449 12.044 9.8267 12.1818 10.25 12.1818ZM17.75 13.1193C17.108 13.1193 16.5611 12.9446 16.1094 12.5952C15.6577 12.2429 15.3125 11.733 15.0739 11.0653C14.8352 10.3949 14.7159 9.58523 14.7159 8.63636C14.7159 7.69318 14.8352 6.88778 15.0739 6.22017C15.3153 5.54972 15.6619 5.03835 16.1136 4.68608C16.5682 4.33097 17.1136 4.15341 17.75 4.15341C18.3864 4.15341 18.9304 4.33097 19.3821 4.68608C19.8366 5.03835 20.1832 5.54972 20.4219 6.22017C20.6634 6.88778 20.7841 7.69318 20.7841 8.63636C20.7841 9.58523 20.6648 10.3949 20.4261 11.0653C20.1875 11.733 19.8423 12.2429 19.3906 12.5952C18.9389 12.9446 18.392 13.1193 17.75 13.1193ZM17.75 12.1818C18.3864 12.1818 18.8807 11.875 19.233 11.2614C19.5852 10.6477 19.7614 9.77273 19.7614 8.63636C19.7614 7.88068 19.6804 7.23722 19.5185 6.70597C19.3594 6.17472 19.1293 5.76989 18.8281 5.49148C18.5298 5.21307 18.1705 5.07386 17.75 5.07386C17.1193 5.07386 16.6264 5.38494 16.2713 6.0071C15.9162 6.62642 15.7386 7.50284 15.7386 8.63636C15.7386 9.39205 15.8182 10.0341 15.9773 10.5625C16.1364 11.0909 16.3651 11.4929 16.6634 11.7685C16.9645 12.044 17.3267 12.1818 17.75 12.1818ZM25.25 13.1193C24.608 13.1193 24.0611 12.9446 23.6094 12.5952C23.1577 12.2429 22.8125 11.733 22.5739 11.0653C22.3352 10.3949 22.2159 9.58523 22.2159 8.63636C22.2159 7.69318 22.3352 6.88778 22.5739 6.22017C22.8153 5.54972 23.1619 5.03835 23.6136 4.68608C24.0682 4.33097 24.6136 4.15341 25.25 4.15341C25.8864 4.15341 26.4304 4.33097 26.8821 4.68608C27.3366 5.03835 27.6832 5.54972 27.9219 6.22017C28.1634 6.88778 28.2841 7.69318 28.2841 8.63636C28.2841 9.58523 28.1648 10.3949 27.9261 11.0653C27.6875 11.733 27.3423 12.2429 26.8906 12.5952C26.4389 12.9446 25.892 13.1193 25.25 13.1193ZM25.25 12.1818C25.8864 12.1818 26.3807 11.875 26.733 11.2614C27.0852 10.6477 27.2614 9.77273 27.2614 8.63636C27.2614 7.88068 27.1804 7.23722 27.0185 6.70597C26.8594 6.17472 26.6293 5.76989 26.3281 5.49148C26.0298 5.21307 25.6705 5.07386 25.25 5.07386C24.6193 5.07386 24.1264 5.38494 23.7713 6.0071C23.4162 6.62642 23.2386 7.50284 23.2386 8.63636C23.2386 9.39205 23.3182 10.0341 23.4773 10.5625C23.6364 11.0909 23.8651 11.4929 24.1634 11.7685C24.4645 12.044 24.8267 12.1818 25.25 12.1818Z"
      fill="#818186" />
    <line opacity="0.2" x1="45" y1="8.75" x2="357" y2="8.75" stroke="#E4E4E7" stroke-width="0.5" />
    <path
      d="M5.09268 41.2727V50H4.03587V42.3807H3.98473L1.85405 43.7955V42.7216L4.03587 41.2727H5.09268ZM10.3299 50.1193C9.8299 50.1193 9.37962 50.0199 8.97905 49.821C8.57848 49.6222 8.25746 49.3494 8.01598 49.0028C7.7745 48.6562 7.6424 48.2614 7.61967 47.8182H8.6424C8.68217 48.2131 8.86115 48.5398 9.17933 48.7983C9.50036 49.054 9.88388 49.1818 10.3299 49.1818C10.6879 49.1818 11.006 49.098 11.2844 48.9304C11.5657 48.7628 11.7859 48.5327 11.945 48.2401C12.1069 47.9446 12.1879 47.6108 12.1879 47.2386C12.1879 46.858 12.104 46.5185 11.9364 46.2202C11.7717 45.919 11.5444 45.6818 11.2546 45.5085C10.9648 45.3352 10.6339 45.2472 10.2617 45.2443C9.99467 45.2415 9.72053 45.2827 9.43928 45.3679C9.15803 45.4503 8.92649 45.5568 8.74467 45.6875L7.75604 45.5682L8.28445 41.2727H12.8185V42.2102H9.17081L8.86399 44.7841H8.91513C9.09411 44.642 9.31854 44.5241 9.58842 44.4304C9.85831 44.3366 10.1396 44.2898 10.4322 44.2898C10.9663 44.2898 11.4421 44.4176 11.8597 44.6733C12.2802 44.9261 12.6097 45.2727 12.8484 45.7131C13.0898 46.1534 13.2106 46.6562 13.2106 47.2216C13.2106 47.7784 13.0856 48.2756 12.8356 48.7131C12.5884 49.1477 12.2475 49.4915 11.8129 49.7443C11.3782 49.9943 10.8839 50.1193 10.3299 50.1193ZM17.75 50.1193C17.108 50.1193 16.5611 49.9446 16.1094 49.5952C15.6577 49.2429 15.3125 48.733 15.0739 48.0653C14.8352 47.3949 14.7159 46.5852 14.7159 45.6364C14.7159 44.6932 14.8352 43.8878 15.0739 43.2202C15.3153 42.5497 15.6619 42.0384 16.1136 41.6861C16.5682 41.331 17.1136 41.1534 17.75 41.1534C18.3864 41.1534 18.9304 41.331 19.3821 41.6861C19.8366 42.0384 20.1832 42.5497 20.4219 43.2202C20.6634 43.8878 20.7841 44.6932 20.7841 45.6364C20.7841 46.5852 20.6648 47.3949 20.4261 48.0653C20.1875 48.733 19.8423 49.2429 19.3906 49.5952C18.9389 49.9446 18.392 50.1193 17.75 50.1193ZM17.75 49.1818C18.3864 49.1818 18.8807 48.875 19.233 48.2614C19.5852 47.6477 19.7614 46.7727 19.7614 45.6364C19.7614 44.8807 19.6804 44.2372 19.5185 43.706C19.3594 43.1747 19.1293 42.7699 18.8281 42.4915C18.5298 42.2131 18.1705 42.0739 17.75 42.0739C17.1193 42.0739 16.6264 42.3849 16.2713 43.0071C15.9162 43.6264 15.7386 44.5028 15.7386 45.6364C15.7386 46.392 15.8182 47.0341 15.9773 47.5625C16.1364 48.0909 16.3651 48.4929 16.6634 48.7685C16.9645 49.044 17.3267 49.1818 17.75 49.1818ZM25.25 50.1193C24.608 50.1193 24.0611 49.9446 23.6094 49.5952C23.1577 49.2429 22.8125 48.733 22.5739 48.0653C22.3352 47.3949 22.2159 46.5852 22.2159 45.6364C22.2159 44.6932 22.3352 43.8878 22.5739 43.2202C22.8153 42.5497 23.1619 42.0384 23.6136 41.6861C24.0682 41.331 24.6136 41.1534 25.25 41.1534C25.8864 41.1534 26.4304 41.331 26.8821 41.6861C27.3366 42.0384 27.6832 42.5497 27.9219 43.2202C28.1634 43.8878 28.2841 44.6932 28.2841 45.6364C28.2841 46.5852 28.1648 47.3949 27.9261 48.0653C27.6875 48.733 27.3423 49.2429 26.8906 49.5952C26.4389 49.9446 25.892 50.1193 25.25 50.1193ZM25.25 49.1818C25.8864 49.1818 26.3807 48.875 26.733 48.2614C27.0852 47.6477 27.2614 46.7727 27.2614 45.6364C27.2614 44.8807 27.1804 44.2372 27.0185 43.706C26.8594 43.1747 26.6293 42.7699 26.3281 42.4915C26.0298 42.2131 25.6705 42.0739 25.25 42.0739C24.6193 42.0739 24.1264 42.3849 23.7713 43.0071C23.4162 43.6264 23.2386 44.5028 23.2386 45.6364C23.2386 46.392 23.3182 47.0341 23.4773 47.5625C23.6364 48.0909 23.8651 48.4929 24.1634 48.7685C24.4645 49.044 24.8267 49.1818 25.25 49.1818Z"
      fill="#818186" />
    <line opacity="0.2" x1="45" y1="45.75" x2="357" y2="45.75" stroke="#E4E4E7" stroke-width="0.5" />
    <path
      d="M4.89347 79.7727V88.5H3.83665V80.8807H3.78551L1.65483 82.2955V81.2216L3.83665 79.7727H4.89347ZM10.25 88.6193C9.60795 88.6193 9.06108 88.4446 8.60938 88.0952C8.15767 87.7429 7.8125 87.233 7.57386 86.5653C7.33523 85.8949 7.21591 85.0852 7.21591 84.1364C7.21591 83.1932 7.33523 82.3878 7.57386 81.7202C7.81534 81.0497 8.16193 80.5384 8.61364 80.1861C9.06818 79.831 9.61364 79.6534 10.25 79.6534C10.8864 79.6534 11.4304 79.831 11.8821 80.1861C12.3366 80.5384 12.6832 81.0497 12.9219 81.7202C13.1634 82.3878 13.2841 83.1932 13.2841 84.1364C13.2841 85.0852 13.1648 85.8949 12.9261 86.5653C12.6875 87.233 12.3423 87.7429 11.8906 88.0952C11.4389 88.4446 10.892 88.6193 10.25 88.6193ZM10.25 87.6818C10.8864 87.6818 11.3807 87.375 11.733 86.7614C12.0852 86.1477 12.2614 85.2727 12.2614 84.1364C12.2614 83.3807 12.1804 82.7372 12.0185 82.206C11.8594 81.6747 11.6293 81.2699 11.3281 80.9915C11.0298 80.7131 10.6705 80.5739 10.25 80.5739C9.61932 80.5739 9.12642 80.8849 8.77131 81.5071C8.41619 82.1264 8.23864 83.0028 8.23864 84.1364C8.23864 84.892 8.31818 85.5341 8.47727 86.0625C8.63636 86.5909 8.86506 86.9929 9.16335 87.2685C9.46449 87.544 9.8267 87.6818 10.25 87.6818ZM17.75 88.6193C17.108 88.6193 16.5611 88.4446 16.1094 88.0952C15.6577 87.7429 15.3125 87.233 15.0739 86.5653C14.8352 85.8949 14.7159 85.0852 14.7159 84.1364C14.7159 83.1932 14.8352 82.3878 15.0739 81.7202C15.3153 81.0497 15.6619 80.5384 16.1136 80.1861C16.5682 79.831 17.1136 79.6534 17.75 79.6534C18.3864 79.6534 18.9304 79.831 19.3821 80.1861C19.8366 80.5384 20.1832 81.0497 20.4219 81.7202C20.6634 82.3878 20.7841 83.1932 20.7841 84.1364C20.7841 85.0852 20.6648 85.8949 20.4261 86.5653C20.1875 87.233 19.8423 87.7429 19.3906 88.0952C18.9389 88.4446 18.392 88.6193 17.75 88.6193ZM17.75 87.6818C18.3864 87.6818 18.8807 87.375 19.233 86.7614C19.5852 86.1477 19.7614 85.2727 19.7614 84.1364C19.7614 83.3807 19.6804 82.7372 19.5185 82.206C19.3594 81.6747 19.1293 81.2699 18.8281 80.9915C18.5298 80.7131 18.1705 80.5739 17.75 80.5739C17.1193 80.5739 16.6264 80.8849 16.2713 81.5071C15.9162 82.1264 15.7386 83.0028 15.7386 84.1364C15.7386 84.892 15.8182 85.5341 15.9773 86.0625C16.1364 86.5909 16.3651 86.9929 16.6634 87.2685C16.9645 87.544 17.3267 87.6818 17.75 87.6818ZM25.25 88.6193C24.608 88.6193 24.0611 88.4446 23.6094 88.0952C23.1577 87.7429 22.8125 87.233 22.5739 86.5653C22.3352 85.8949 22.2159 85.0852 22.2159 84.1364C22.2159 83.1932 22.3352 82.3878 22.5739 81.7202C22.8153 81.0497 23.1619 80.5384 23.6136 80.1861C24.0682 79.831 24.6136 79.6534 25.25 79.6534C25.8864 79.6534 26.4304 79.831 26.8821 80.1861C27.3366 80.5384 27.6832 81.0497 27.9219 81.7202C28.1634 82.3878 28.2841 83.1932 28.2841 84.1364C28.2841 85.0852 28.1648 85.8949 27.9261 86.5653C27.6875 87.233 27.3423 87.7429 26.8906 88.0952C26.4389 88.4446 25.892 88.6193 25.25 88.6193ZM25.25 87.6818C25.8864 87.6818 26.3807 87.375 26.733 86.7614C27.0852 86.1477 27.2614 85.2727 27.2614 84.1364C27.2614 83.3807 27.1804 82.7372 27.0185 82.206C26.8594 81.6747 26.6293 81.2699 26.3281 80.9915C26.0298 80.7131 25.6705 80.5739 25.25 80.5739C24.6193 80.5739 24.1264 80.8849 23.7713 81.5071C23.4162 82.1264 23.2386 83.0028 23.2386 84.1364C23.2386 84.892 23.3182 85.5341 23.4773 86.0625C23.6364 86.5909 23.8651 86.9929 24.1634 87.2685C24.4645 87.544 24.8267 87.6818 25.25 87.6818Z"
      fill="#818186" />
    <line opacity="0.2" x1="45" y1="84.25" x2="357" y2="84.25" stroke="#E4E4E7" stroke-width="0.5" />
    <path
      d="M10.3299 126.119C9.8299 126.119 9.37962 126.02 8.97905 125.821C8.57848 125.622 8.25746 125.349 8.01598 125.003C7.7745 124.656 7.6424 124.261 7.61967 123.818H8.6424C8.68217 124.213 8.86115 124.54 9.17933 124.798C9.50036 125.054 9.88388 125.182 10.3299 125.182C10.6879 125.182 11.006 125.098 11.2844 124.93C11.5657 124.763 11.7859 124.533 11.945 124.24C12.1069 123.945 12.1879 123.611 12.1879 123.239C12.1879 122.858 12.104 122.518 11.9364 122.22C11.7717 121.919 11.5444 121.682 11.2546 121.509C10.9648 121.335 10.6339 121.247 10.2617 121.244C9.99467 121.241 9.72053 121.283 9.43928 121.368C9.15803 121.45 8.92649 121.557 8.74467 121.688L7.75604 121.568L8.28445 117.273H12.8185V118.21H9.17081L8.86399 120.784H8.91513C9.09411 120.642 9.31854 120.524 9.58842 120.43C9.85831 120.337 10.1396 120.29 10.4322 120.29C10.9663 120.29 11.4421 120.418 11.8597 120.673C12.2802 120.926 12.6097 121.273 12.8484 121.713C13.0898 122.153 13.2106 122.656 13.2106 123.222C13.2106 123.778 13.0856 124.276 12.8356 124.713C12.5884 125.148 12.2475 125.491 11.8129 125.744C11.3782 125.994 10.8839 126.119 10.3299 126.119ZM17.75 126.119C17.108 126.119 16.5611 125.945 16.1094 125.595C15.6577 125.243 15.3125 124.733 15.0739 124.065C14.8352 123.395 14.7159 122.585 14.7159 121.636C14.7159 120.693 14.8352 119.888 15.0739 119.22C15.3153 118.55 15.6619 118.038 16.1136 117.686C16.5682 117.331 17.1136 117.153 17.75 117.153C18.3864 117.153 18.9304 117.331 19.3821 117.686C19.8366 118.038 20.1832 118.55 20.4219 119.22C20.6634 119.888 20.7841 120.693 20.7841 121.636C20.7841 122.585 20.6648 123.395 20.4261 124.065C20.1875 124.733 19.8423 125.243 19.3906 125.595C18.9389 125.945 18.392 126.119 17.75 126.119ZM17.75 125.182C18.3864 125.182 18.8807 124.875 19.233 124.261C19.5852 123.648 19.7614 122.773 19.7614 121.636C19.7614 120.881 19.6804 120.237 19.5185 119.706C19.3594 119.175 19.1293 118.77 18.8281 118.491C18.5298 118.213 18.1705 118.074 17.75 118.074C17.1193 118.074 16.6264 118.385 16.2713 119.007C15.9162 119.626 15.7386 120.503 15.7386 121.636C15.7386 122.392 15.8182 123.034 15.9773 123.562C16.1364 124.091 16.3651 124.493 16.6634 124.768C16.9645 125.044 17.3267 125.182 17.75 125.182ZM25.25 126.119C24.608 126.119 24.0611 125.945 23.6094 125.595C23.1577 125.243 22.8125 124.733 22.5739 124.065C22.3352 123.395 22.2159 122.585 22.2159 121.636C22.2159 120.693 22.3352 119.888 22.5739 119.22C22.8153 118.55 23.1619 118.038 23.6136 117.686C24.0682 117.331 24.6136 117.153 25.25 117.153C25.8864 117.153 26.4304 117.331 26.8821 117.686C27.3366 118.038 27.6832 118.55 27.9219 119.22C28.1634 119.888 28.2841 120.693 28.2841 121.636C28.2841 122.585 28.1648 123.395 27.9261 124.065C27.6875 124.733 27.3423 125.243 26.8906 125.595C26.4389 125.945 25.892 126.119 25.25 126.119ZM25.25 125.182C25.8864 125.182 26.3807 124.875 26.733 124.261C27.0852 123.648 27.2614 122.773 27.2614 121.636C27.2614 120.881 27.1804 120.237 27.0185 119.706C26.8594 119.175 26.6293 118.77 26.3281 118.491C26.0298 118.213 25.6705 118.074 25.25 118.074C24.6193 118.074 24.1264 118.385 23.7713 119.007C23.4162 119.626 23.2386 120.503 23.2386 121.636C23.2386 122.392 23.3182 123.034 23.4773 123.562C23.6364 124.091 23.8651 124.493 24.1634 124.768C24.4645 125.044 24.8267 125.182 25.25 125.182Z"
      fill="#818186" />
    <line opacity="0.2" x1="45" y1="121.75" x2="357" y2="121.75" stroke="#E4E4E7" stroke-width="0.5" />
    <path
      d="M25.25 163.119C24.608 163.119 24.0611 162.945 23.6094 162.595C23.1577 162.243 22.8125 161.733 22.5739 161.065C22.3352 160.395 22.2159 159.585 22.2159 158.636C22.2159 157.693 22.3352 156.888 22.5739 156.22C22.8153 155.55 23.1619 155.038 23.6136 154.686C24.0682 154.331 24.6136 154.153 25.25 154.153C25.8864 154.153 26.4304 154.331 26.8821 154.686C27.3366 155.038 27.6832 155.55 27.9219 156.22C28.1634 156.888 28.2841 157.693 28.2841 158.636C28.2841 159.585 28.1648 160.395 27.9261 161.065C27.6875 161.733 27.3423 162.243 26.8906 162.595C26.4389 162.945 25.892 163.119 25.25 163.119ZM25.25 162.182C25.8864 162.182 26.3807 161.875 26.733 161.261C27.0852 160.648 27.2614 159.773 27.2614 158.636C27.2614 157.881 27.1804 157.237 27.0185 156.706C26.8594 156.175 26.6293 155.77 26.3281 155.491C26.0298 155.213 25.6705 155.074 25.25 155.074C24.6193 155.074 24.1264 155.385 23.7713 156.007C23.4162 156.626 23.2386 157.503 23.2386 158.636C23.2386 159.392 23.3182 160.034 23.4773 160.562C23.6364 161.091 23.8651 161.493 24.1634 161.768C24.4645 162.044 24.8267 162.182 25.25 162.182Z"
      fill="#818186" />
    <line opacity="0.2" x1="45" y1="158.75" x2="357" y2="158.75" stroke="#E4E4E7" stroke-width="0.5" />
    <g filter="url(#filter0_b_3981_110334)">
      <path
        d="M45 45.0234C45 43.3666 46.3431 42.0234 48 42.0234C49.6569 42.0234 51 43.3666 51 45.0234V158.023H45V45.0234Z"
        fill="#F02E65" fill-opacity="0.3" />
    </g>
    <path
      d="M45 102.023C45 100.367 46.3431 99.0234 48 99.0234C49.6569 99.0234 51 100.367 51 102.023V159.023H45V102.023Z"
      fill="#F02E65" />
    <g filter="url(#filter1_b_3981_110334)">
      <path
        d="M62 83.4648C62 81.808 63.3431 80.4648 65 80.4648C66.6569 80.4648 68 81.808 68 83.4648V158.465H62V83.4648Z"
        fill="#F02E65" fill-opacity="0.3" />
    </g>
    <path
      d="M62 114.465C62 112.808 63.3431 111.465 65 111.465C66.6569 111.465 68 112.808 68 114.465V159.024H62V114.465Z"
      fill="#F02E65" />
    <g filter="url(#filter2_b_3981_110334)">
      <path
        d="M79 114.023C79 112.367 80.3431 111.023 82 111.023C83.6569 111.023 85 112.367 85 114.023V159.023H79V114.023Z"
        fill="#F02E65" fill-opacity="0.3" />
    </g>
    <path
      d="M79 134.023C79 132.367 80.3431 131.023 82 131.023C83.6569 131.023 85 132.367 85 134.023V159.023H79V134.023Z"
      fill="#F02E65" />
    <g filter="url(#filter3_b_3981_110334)">
      <path
        d="M96 95.5234C96 93.8666 97.3431 92.5234 99 92.5234C100.657 92.5234 102 93.8666 102 95.5234V158.523H96V95.5234Z"
        fill="#F02E65" fill-opacity="0.3" />
    </g>
    <path
      d="M96 119.523C96 117.867 97.3431 116.523 99 116.523C100.657 116.523 102 117.867 102 119.523V159.024H96V119.523Z"
      fill="#F02E65" />
    <g filter="url(#filter4_b_3981_110334)">
      <path
        d="M113 64.2031C113 62.5463 114.343 61.2031 116 61.2031C117.657 61.2031 119 62.5463 119 64.2031V158.346H113V64.2031Z"
        fill="#F02E65" fill-opacity="0.3" />
    </g>
    <path
      d="M113 92.2031C113 90.5463 114.343 89.2031 116 89.2031C117.657 89.2031 119 90.5463 119 92.2031V159.025H113V92.2031Z"
      fill="#F02E65" />
    <g filter="url(#filter5_b_3981_110334)">
      <path d="M130 45C130 43.3431 131.343 42 133 42C134.657 42 136 43.3431 136 45V158.369H130V45Z" fill="#F02E65"
        fill-opacity="0.3" />
    </g>
    <path d="M130 75C130 73.3431 131.343 72 133 72C134.657 72 136 73.3431 136 75V159.024H130V75Z" fill="#F02E65" />
    <g filter="url(#filter6_b_3981_110334)">
      <path
        d="M147 83.0234C147 81.3666 148.343 80.0234 150 80.0234C151.657 80.0234 153 81.3666 153 83.0234V158.023H147V83.0234Z"
        fill="#F02E65" fill-opacity="0.3" />
    </g>
    <path
      d="M147 109.023C147 107.367 148.343 106.023 150 106.023C151.657 106.023 153 107.367 153 109.023V159.023H147V109.023Z"
      fill="#F02E65" />
    <g filter="url(#filter7_b_3981_110334)">
      <path
        d="M164 114.023C164 112.367 165.343 111.023 167 111.023C168.657 111.023 170 112.367 170 114.023V159.023H164V114.023Z"
        fill="#F02E65" fill-opacity="0.3" />
    </g>
    <path
      d="M164 134.023C164 132.367 165.343 131.023 167 131.023C168.657 131.023 170 132.367 170 134.023V159.023H164V134.023Z"
      fill="#F02E65" />
    <g filter="url(#filter8_b_3981_110334)">
      <path
        d="M181 95.4043C181 93.7474 182.343 92.4043 184 92.4043C185.657 92.4043 187 93.7474 187 95.4043V158.404H181V95.4043Z"
        fill="#F02E65" fill-opacity="0.3" />
    </g>
    <path
      d="M181 109.404C181 107.747 182.343 106.404 184 106.404C185.657 106.404 187 107.747 187 109.404V159.023H181V109.404Z"
      fill="#F02E65" />
    <g filter="url(#filter9_b_3981_110334)">
      <path
        d="M198 64.2031C198 62.5463 199.343 61.2031 201 61.2031C202.657 61.2031 204 62.5463 204 64.2031V158.346H198V64.2031Z"
        fill="#F02E65" fill-opacity="0.3" />
    </g>
    <path
      d="M198 92.2031C198 90.5463 199.343 89.2031 201 89.2031C202.657 89.2031 204 90.5463 204 92.2031V159.025H198V92.2031Z"
      fill="#F02E65" />
    <g filter="url(#filter10_b_3981_110334)">
      <path
        d="M215 83.4043C215 81.7474 216.343 80.4043 218 80.4043C219.657 80.4043 221 81.7474 221 83.4043V158.404H215V83.4043Z"
        fill="#F02E65" fill-opacity="0.3" />
    </g>
    <path
      d="M215 109.404C215 107.747 216.343 106.404 218 106.404C219.657 106.404 221 107.747 221 109.404V159.023H215V109.404Z"
      fill="#F02E65" />
    <g filter="url(#filter11_b_3981_110334)">
      <path
        d="M232 83.4043C232 81.7474 233.343 80.4043 235 80.4043C236.657 80.4043 238 81.7474 238 83.4043V158.404H232V83.4043Z"
        fill="#F02E65" fill-opacity="0.3" />
    </g>
    <path
      d="M232 109.404C232 107.747 233.343 106.404 235 106.404C236.657 106.404 238 107.747 238 109.404V159.023H232V109.404Z"
      fill="#F02E65" />
    <g filter="url(#filter12_b_3981_110334)">
      <path
        d="M249 114.023C249 112.367 250.343 111.023 252 111.023C253.657 111.023 255 112.367 255 114.023V159.023H249V114.023Z"
        fill="#F02E65" fill-opacity="0.3" />
    </g>
    <path
      d="M249 134.023C249 132.367 250.343 131.023 252 131.023C253.657 131.023 255 132.367 255 134.023V159.023H249V134.023Z"
      fill="#F02E65" />
    <g filter="url(#filter13_b_3981_110334)">
      <path
        d="M266 114.023C266 112.367 267.343 111.023 269 111.023C270.657 111.023 272 112.367 272 114.023V159.023H266V114.023Z"
        fill="#F02E65" fill-opacity="0.3" />
    </g>
    <path
      d="M266 134.023C266 132.367 267.343 131.023 269 131.023C270.657 131.023 272 132.367 272 134.023V159.023H266V134.023Z"
      fill="#F02E65" />
    <g filter="url(#filter14_b_3981_110334)">
      <path
        d="M283 95.4648C283 93.808 284.343 92.4648 286 92.4648C287.657 92.4648 289 93.808 289 95.4648V158.465H283V95.4648Z"
        fill="#F02E65" fill-opacity="0.3" />
    </g>
    <path
      d="M283 114.465C283 112.808 284.343 111.465 286 111.465C287.657 111.465 289 112.808 289 114.465V159.024H283V114.465Z"
      fill="#F02E65" />
    <g filter="url(#filter15_b_3981_110334)">
      <path
        d="M300 95.4648C300 93.808 301.343 92.4648 303 92.4648C304.657 92.4648 306 93.808 306 95.4648V158.465H300V95.4648Z"
        fill="#F02E65" fill-opacity="0.3" />
    </g>
    <path
      d="M300 114.465C300 112.808 301.343 111.465 303 111.465C304.657 111.465 306 112.808 306 114.465V159.024H300V114.465Z"
      fill="#F02E65" />
    <g filter="url(#filter16_b_3981_110334)">
      <path
        d="M317 64.2031C317 62.5463 318.343 61.2031 320 61.2031C321.657 61.2031 323 62.5463 323 64.2031V158.346H317V64.2031Z"
        fill="#F02E65" fill-opacity="0.3" />
    </g>
    <path
      d="M317 92.2031C317 90.5463 318.343 89.2031 320 89.2031C321.657 89.2031 323 90.5463 323 92.2031V159.025H317V92.2031Z"
      fill="#F02E65" />
    <g filter="url(#filter17_b_3981_110334)">
      <path
        d="M334 64.2031C334 62.5463 335.343 61.2031 337 61.2031C338.657 61.2031 340 62.5463 340 64.2031V158.346H334V64.2031Z"
        fill="#F02E65" fill-opacity="0.3" />
    </g>
    <path
      d="M334 92.2031C334 90.5463 335.343 89.2031 337 89.2031C338.657 89.2031 340 90.5463 340 92.2031V159.025H334V92.2031Z"
      fill="#F02E65" />
    <g filter="url(#filter18_b_3981_110334)">
      <path
        d="M351 95.5234C351 93.8666 352.343 92.5234 354 92.5234C355.657 92.5234 357 93.8666 357 95.5234V158.523H351V95.5234Z"
        fill="#F02E65" fill-opacity="0.3" />
    </g>
    <path
      d="M351 119.523C351 117.867 352.343 116.523 354 116.523C355.657 116.523 357 117.867 357 119.523V159.024H351V119.523Z"
      fill="#F02E65" />
    <path
      d="M49.7021 168.273V177H48.6452V169.381H48.5941L46.4634 170.795V169.722L48.6452 168.273H49.7021ZM54.9393 177.119C54.4393 177.119 53.989 177.02 53.5884 176.821C53.1879 176.622 52.8668 176.349 52.6254 176.003C52.3839 175.656 52.2518 175.261 52.229 174.818H53.2518C53.2915 175.213 53.4705 175.54 53.7887 175.798C54.1097 176.054 54.4933 176.182 54.9393 176.182C55.2972 176.182 55.6154 176.098 55.8938 175.93C56.1751 175.763 56.3952 175.533 56.5543 175.24C56.7163 174.945 56.7972 174.611 56.7972 174.239C56.7972 173.858 56.7134 173.518 56.5458 173.22C56.381 172.919 56.1538 172.682 55.864 172.509C55.5742 172.335 55.2433 172.247 54.8711 172.244C54.604 172.241 54.3299 172.283 54.0487 172.368C53.7674 172.45 53.5359 172.557 53.354 172.688L52.3654 172.568L52.8938 168.273H57.4279V169.21H53.7802L53.4734 171.784H53.5245C53.7035 171.642 53.9279 171.524 54.1978 171.43C54.4677 171.337 54.7489 171.29 55.0415 171.29C55.5756 171.29 56.0515 171.418 56.4691 171.673C56.8896 171.926 57.2191 172.273 57.4577 172.713C57.6992 173.153 57.82 173.656 57.82 174.222C57.82 174.778 57.695 175.276 57.445 175.713C57.1978 176.148 56.8569 176.491 56.4222 176.744C55.9876 176.994 55.4933 177.119 54.9393 177.119ZM66.3821 168.273H67.4389V174.511C67.4389 175.068 67.3366 175.541 67.1321 175.93C66.9276 176.32 66.6392 176.615 66.267 176.817C65.8949 177.018 65.456 177.119 64.9503 177.119C64.473 177.119 64.0483 177.033 63.6761 176.859C63.304 176.683 63.0114 176.433 62.7983 176.109C62.5852 175.786 62.4787 175.401 62.4787 174.955H63.5185C63.5185 175.202 63.5795 175.418 63.7017 175.602C63.8267 175.784 63.9972 175.926 64.2131 176.028C64.429 176.131 64.6747 176.182 64.9503 176.182C65.2543 176.182 65.5128 176.118 65.7259 175.99C65.9389 175.862 66.1009 175.675 66.2116 175.428C66.3253 175.178 66.3821 174.872 66.3821 174.511V168.273ZM73.5455 174.324V170.455H74.5511V177H73.5455V175.892H73.4773C73.3239 176.224 73.0852 176.507 72.7614 176.74C72.4375 176.97 72.0284 177.085 71.5341 177.085C71.125 177.085 70.7614 176.996 70.4432 176.817C70.125 176.635 69.875 176.362 69.6932 175.999C69.5114 175.632 69.4205 175.17 69.4205 174.614V170.455H70.4261V174.545C70.4261 175.023 70.5597 175.403 70.8267 175.688C71.0966 175.972 71.4403 176.114 71.858 176.114C72.108 176.114 72.3622 176.05 72.6207 175.922C72.8821 175.794 73.1009 175.598 73.277 175.334C73.456 175.07 73.5455 174.733 73.5455 174.324ZM77.3988 168.273V177H76.3931V168.273H77.3988ZM79.8885 179.455C79.718 179.455 79.5661 179.44 79.4325 179.412C79.299 179.386 79.2067 179.361 79.1555 179.335L79.4112 178.449C79.6555 178.511 79.8714 178.534 80.0589 178.517C80.2464 178.5 80.4126 178.416 80.5575 178.266C80.7053 178.118 80.8402 177.878 80.9624 177.545L81.1499 177.034L78.7294 170.455H79.8203L81.6271 175.67H81.6953L83.5021 170.455H84.593L81.8146 177.955C81.6896 178.293 81.5348 178.572 81.3501 178.794C81.1655 179.018 80.951 179.185 80.7067 179.293C80.4652 179.401 80.1925 179.455 79.8885 179.455Z"
      fill="#818186" />
    <path
      d="M322.136 168.273V177H321.079V169.381H321.028L318.897 170.795V169.722L321.079 168.273H322.136ZM327.543 177.119C327.185 177.114 326.827 177.045 326.469 176.915C326.112 176.784 325.785 176.564 325.489 176.254C325.194 175.942 324.957 175.52 324.778 174.989C324.599 174.455 324.509 173.784 324.509 172.977C324.509 172.205 324.582 171.52 324.727 170.923C324.871 170.324 325.082 169.82 325.357 169.411C325.633 168.999 325.965 168.686 326.354 168.473C326.746 168.26 327.188 168.153 327.68 168.153C328.168 168.153 328.603 168.251 328.984 168.447C329.367 168.641 329.68 168.911 329.921 169.257C330.163 169.604 330.319 170.003 330.39 170.455H329.35C329.254 170.062 329.066 169.737 328.788 169.479C328.509 169.22 328.14 169.091 327.68 169.091C327.004 169.091 326.471 169.385 326.082 169.973C325.695 170.561 325.501 171.386 325.498 172.449H325.566C325.725 172.207 325.914 172.001 326.133 171.831C326.354 171.658 326.599 171.524 326.866 171.43C327.133 171.337 327.415 171.29 327.714 171.29C328.214 171.29 328.671 171.415 329.086 171.665C329.501 171.912 329.833 172.254 330.083 172.692C330.333 173.126 330.458 173.625 330.458 174.188C330.458 174.727 330.337 175.222 330.096 175.67C329.854 176.116 329.515 176.472 329.077 176.736C328.643 176.997 328.131 177.125 327.543 177.119ZM327.543 176.182C327.901 176.182 328.222 176.092 328.506 175.913C328.793 175.734 329.019 175.494 329.184 175.193C329.352 174.892 329.435 174.557 329.435 174.188C329.435 173.827 329.354 173.499 329.192 173.203C329.033 172.905 328.813 172.668 328.532 172.491C328.254 172.315 327.935 172.227 327.577 172.227C327.308 172.227 327.056 172.281 326.823 172.389C326.59 172.494 326.386 172.639 326.21 172.824C326.036 173.009 325.9 173.22 325.8 173.459C325.701 173.695 325.651 173.943 325.651 174.205C325.651 174.551 325.732 174.875 325.894 175.176C326.059 175.477 326.283 175.72 326.567 175.905C326.854 176.089 327.18 176.182 327.543 176.182ZM336.02 177H334.912L338.117 168.273H339.208L342.412 177H341.304L338.696 169.653H338.628L336.02 177ZM336.429 173.591H340.895V174.528H336.429V173.591ZM347.76 174.324V170.455H348.766V177H347.76V175.892H347.692C347.539 176.224 347.3 176.507 346.976 176.74C346.652 176.97 346.243 177.085 345.749 177.085C345.34 177.085 344.976 176.996 344.658 176.817C344.34 176.635 344.09 176.362 343.908 175.999C343.726 175.632 343.635 175.17 343.635 174.614V170.455H344.641V174.545C344.641 175.023 344.775 175.403 345.042 175.688C345.311 175.972 345.655 176.114 346.073 176.114C346.323 176.114 346.577 176.05 346.836 175.922C347.097 175.794 347.316 175.598 347.492 175.334C347.671 175.07 347.76 174.733 347.76 174.324ZM353.25 179.591C352.764 179.591 352.347 179.528 351.997 179.403C351.648 179.281 351.357 179.119 351.124 178.918C350.893 178.719 350.71 178.506 350.574 178.278L351.375 177.716C351.466 177.835 351.581 177.972 351.72 178.125C351.859 178.281 352.05 178.416 352.291 178.53C352.536 178.646 352.855 178.705 353.25 178.705C353.778 178.705 354.214 178.577 354.558 178.321C354.902 178.065 355.074 177.665 355.074 177.119V175.79H354.989C354.915 175.909 354.81 176.057 354.673 176.233C354.54 176.406 354.347 176.561 354.094 176.697C353.844 176.831 353.506 176.898 353.08 176.898C352.551 176.898 352.077 176.773 351.656 176.523C351.239 176.273 350.908 175.909 350.663 175.432C350.422 174.955 350.301 174.375 350.301 173.693C350.301 173.023 350.419 172.439 350.655 171.942C350.891 171.442 351.219 171.055 351.639 170.783C352.06 170.507 352.545 170.369 353.097 170.369C353.523 170.369 353.861 170.44 354.111 170.582C354.364 170.722 354.557 170.881 354.69 171.06C354.827 171.236 354.932 171.381 355.006 171.494H355.108V170.455H356.08V177.188C356.08 177.75 355.952 178.207 355.696 178.56C355.443 178.915 355.102 179.175 354.673 179.339C354.247 179.507 353.773 179.591 353.25 179.591ZM353.216 175.994C353.619 175.994 353.96 175.902 354.239 175.717C354.517 175.533 354.729 175.267 354.874 174.92C355.018 174.574 355.091 174.159 355.091 173.676C355.091 173.205 355.02 172.788 354.878 172.428C354.736 172.067 354.526 171.784 354.247 171.58C353.969 171.375 353.625 171.273 353.216 171.273C352.79 171.273 352.435 171.381 352.151 171.597C351.869 171.812 351.658 172.102 351.516 172.466C351.376 172.83 351.307 173.233 351.307 173.676C351.307 174.131 351.378 174.533 351.52 174.882C351.665 175.229 351.878 175.501 352.159 175.7C352.443 175.896 352.795 175.994 353.216 175.994Z"
      fill="#818186" />
  </g>
  <defs>
    <filter id="filter0_b_3981_110334" x="-365" y="-367.977" width="826" height="936" filterUnits="userSpaceOnUse"
      color-interpolation-filters="sRGB">
      <feFlood flood-opacity="0" result="BackgroundImageFix" />
      <feGaussianBlur in="BackgroundImageFix" stdDeviation="205" />
      <feComposite in2="SourceAlpha" operator="in" result="effect1_backgroundBlur_3981_110334" />
      <feBlend mode="normal" in="SourceGraphic" in2="effect1_backgroundBlur_3981_110334" result="shape" />
    </filter>
    <filter id="filter1_b_3981_110334" x="-348" y="-329.535" width="826" height="898" filterUnits="userSpaceOnUse"
      color-interpolation-filters="sRGB">
      <feFlood flood-opacity="0" result="BackgroundImageFix" />
      <feGaussianBlur in="BackgroundImageFix" stdDeviation="205" />
      <feComposite in2="SourceAlpha" operator="in" result="effect1_backgroundBlur_3981_110334" />
      <feBlend mode="normal" in="SourceGraphic" in2="effect1_backgroundBlur_3981_110334" result="shape" />
    </filter>
    <filter id="filter2_b_3981_110334" x="-331" y="-298.977" width="826" height="868" filterUnits="userSpaceOnUse"
      color-interpolation-filters="sRGB">
      <feFlood flood-opacity="0" result="BackgroundImageFix" />
      <feGaussianBlur in="BackgroundImageFix" stdDeviation="205" />
      <feComposite in2="SourceAlpha" operator="in" result="effect1_backgroundBlur_3981_110334" />
      <feBlend mode="normal" in="SourceGraphic" in2="effect1_backgroundBlur_3981_110334" result="shape" />
    </filter>
    <filter id="filter3_b_3981_110334" x="-314" y="-317.477" width="826" height="886" filterUnits="userSpaceOnUse"
      color-interpolation-filters="sRGB">
      <feFlood flood-opacity="0" result="BackgroundImageFix" />
      <feGaussianBlur in="BackgroundImageFix" stdDeviation="205" />
      <feComposite in2="SourceAlpha" operator="in" result="effect1_backgroundBlur_3981_110334" />
      <feBlend mode="normal" in="SourceGraphic" in2="effect1_backgroundBlur_3981_110334" result="shape" />
    </filter>
    <filter id="filter4_b_3981_110334" x="-297" y="-348.797" width="826" height="917.143" filterUnits="userSpaceOnUse"
      color-interpolation-filters="sRGB">
      <feFlood flood-opacity="0" result="BackgroundImageFix" />
      <feGaussianBlur in="BackgroundImageFix" stdDeviation="205" />
      <feComposite in2="SourceAlpha" operator="in" result="effect1_backgroundBlur_3981_110334" />
      <feBlend mode="normal" in="SourceGraphic" in2="effect1_backgroundBlur_3981_110334" result="shape" />
    </filter>
    <filter id="filter5_b_3981_110334" x="-280" y="-368" width="826" height="936.369" filterUnits="userSpaceOnUse"
      color-interpolation-filters="sRGB">
      <feFlood flood-opacity="0" result="BackgroundImageFix" />
      <feGaussianBlur in="BackgroundImageFix" stdDeviation="205" />
      <feComposite in2="SourceAlpha" operator="in" result="effect1_backgroundBlur_3981_110334" />
      <feBlend mode="normal" in="SourceGraphic" in2="effect1_backgroundBlur_3981_110334" result="shape" />
    </filter>
    <filter id="filter6_b_3981_110334" x="-263" y="-329.977" width="826" height="898" filterUnits="userSpaceOnUse"
      color-interpolation-filters="sRGB">
      <feFlood flood-opacity="0" result="BackgroundImageFix" />
      <feGaussianBlur in="BackgroundImageFix" stdDeviation="205" />
      <feComposite in2="SourceAlpha" operator="in" result="effect1_backgroundBlur_3981_110334" />
      <feBlend mode="normal" in="SourceGraphic" in2="effect1_backgroundBlur_3981_110334" result="shape" />
    </filter>
    <filter id="filter7_b_3981_110334" x="-246" y="-298.977" width="826" height="868" filterUnits="userSpaceOnUse"
      color-interpolation-filters="sRGB">
      <feFlood flood-opacity="0" result="BackgroundImageFix" />
      <feGaussianBlur in="BackgroundImageFix" stdDeviation="205" />
      <feComposite in2="SourceAlpha" operator="in" result="effect1_backgroundBlur_3981_110334" />
      <feBlend mode="normal" in="SourceGraphic" in2="effect1_backgroundBlur_3981_110334" result="shape" />
    </filter>
    <filter id="filter8_b_3981_110334" x="-229" y="-317.596" width="826" height="886" filterUnits="userSpaceOnUse"
      color-interpolation-filters="sRGB">
      <feFlood flood-opacity="0" result="BackgroundImageFix" />
      <feGaussianBlur in="BackgroundImageFix" stdDeviation="205" />
      <feComposite in2="SourceAlpha" operator="in" result="effect1_backgroundBlur_3981_110334" />
      <feBlend mode="normal" in="SourceGraphic" in2="effect1_backgroundBlur_3981_110334" result="shape" />
    </filter>
    <filter id="filter9_b_3981_110334" x="-212" y="-348.797" width="826" height="917.143" filterUnits="userSpaceOnUse"
      color-interpolation-filters="sRGB">
      <feFlood flood-opacity="0" result="BackgroundImageFix" />
      <feGaussianBlur in="BackgroundImageFix" stdDeviation="205" />
      <feComposite in2="SourceAlpha" operator="in" result="effect1_backgroundBlur_3981_110334" />
      <feBlend mode="normal" in="SourceGraphic" in2="effect1_backgroundBlur_3981_110334" result="shape" />
    </filter>
    <filter id="filter10_b_3981_110334" x="-195" y="-329.596" width="826" height="898" filterUnits="userSpaceOnUse"
      color-interpolation-filters="sRGB">
      <feFlood flood-opacity="0" result="BackgroundImageFix" />
      <feGaussianBlur in="BackgroundImageFix" stdDeviation="205" />
      <feComposite in2="SourceAlpha" operator="in" result="effect1_backgroundBlur_3981_110334" />
      <feBlend mode="normal" in="SourceGraphic" in2="effect1_backgroundBlur_3981_110334" result="shape" />
    </filter>
    <filter id="filter11_b_3981_110334" x="-178" y="-329.596" width="826" height="898" filterUnits="userSpaceOnUse"
      color-interpolation-filters="sRGB">
      <feFlood flood-opacity="0" result="BackgroundImageFix" />
      <feGaussianBlur in="BackgroundImageFix" stdDeviation="205" />
      <feComposite in2="SourceAlpha" operator="in" result="effect1_backgroundBlur_3981_110334" />
      <feBlend mode="normal" in="SourceGraphic" in2="effect1_backgroundBlur_3981_110334" result="shape" />
    </filter>
    <filter id="filter12_b_3981_110334" x="-161" y="-298.977" width="826" height="868" filterUnits="userSpaceOnUse"
      color-interpolation-filters="sRGB">
      <feFlood flood-opacity="0" result="BackgroundImageFix" />
      <feGaussianBlur in="BackgroundImageFix" stdDeviation="205" />
      <feComposite in2="SourceAlpha" operator="in" result="effect1_backgroundBlur_3981_110334" />
      <feBlend mode="normal" in="SourceGraphic" in2="effect1_backgroundBlur_3981_110334" result="shape" />
    </filter>
    <filter id="filter13_b_3981_110334" x="-144" y="-298.977" width="826" height="868" filterUnits="userSpaceOnUse"
      color-interpolation-filters="sRGB">
      <feFlood flood-opacity="0" result="BackgroundImageFix" />
      <feGaussianBlur in="BackgroundImageFix" stdDeviation="205" />
      <feComposite in2="SourceAlpha" operator="in" result="effect1_backgroundBlur_3981_110334" />
      <feBlend mode="normal" in="SourceGraphic" in2="effect1_backgroundBlur_3981_110334" result="shape" />
    </filter>
    <filter id="filter14_b_3981_110334" x="-127" y="-317.535" width="826" height="886" filterUnits="userSpaceOnUse"
      color-interpolation-filters="sRGB">
      <feFlood flood-opacity="0" result="BackgroundImageFix" />
      <feGaussianBlur in="BackgroundImageFix" stdDeviation="205" />
      <feComposite in2="SourceAlpha" operator="in" result="effect1_backgroundBlur_3981_110334" />
      <feBlend mode="normal" in="SourceGraphic" in2="effect1_backgroundBlur_3981_110334" result="shape" />
    </filter>
    <filter id="filter15_b_3981_110334" x="-110" y="-317.535" width="826" height="886" filterUnits="userSpaceOnUse"
      color-interpolation-filters="sRGB">
      <feFlood flood-opacity="0" result="BackgroundImageFix" />
      <feGaussianBlur in="BackgroundImageFix" stdDeviation="205" />
      <feComposite in2="SourceAlpha" operator="in" result="effect1_backgroundBlur_3981_110334" />
      <feBlend mode="normal" in="SourceGraphic" in2="effect1_backgroundBlur_3981_110334" result="shape" />
    </filter>
    <filter id="filter16_b_3981_110334" x="-93" y="-348.797" width="826" height="917.143" filterUnits="userSpaceOnUse"
      color-interpolation-filters="sRGB">
      <feFlood flood-opacity="0" result="BackgroundImageFix" />
      <feGaussianBlur in="BackgroundImageFix" stdDeviation="205" />
      <feComposite in2="SourceAlpha" operator="in" result="effect1_backgroundBlur_3981_110334" />
      <feBlend mode="normal" in="SourceGraphic" in2="effect1_backgroundBlur_3981_110334" result="shape" />
    </filter>
    <filter id="filter17_b_3981_110334" x="-76" y="-348.797" width="826" height="917.143" filterUnits="userSpaceOnUse"
      color-interpolation-filters="sRGB">
      <feFlood flood-opacity="0" result="BackgroundImageFix" />
      <feGaussianBlur in="BackgroundImageFix" stdDeviation="205" />
      <feComposite in2="SourceAlpha" operator="in" result="effect1_backgroundBlur_3981_110334" />
      <feBlend mode="normal" in="SourceGraphic" in2="effect1_backgroundBlur_3981_110334" result="shape" />
    </filter>
    <filter id="filter18_b_3981_110334" x="-59" y="-317.477" width="826" height="886" filterUnits="userSpaceOnUse"
      color-interpolation-filters="sRGB">
      <feFlood flood-opacity="0" result="BackgroundImageFix" />
      <feGaussianBlur in="BackgroundImageFix" stdDeviation="205" />
      <feComposite in2="SourceAlpha" operator="in" result="effect1_backgroundBlur_3981_110334" />
      <feBlend mode="normal" in="SourceGraphic" in2="effect1_backgroundBlur_3981_110334" result="shape" />
    </filter>
    <clipPath id="clip0_3981_110334">
      <rect width="357" height="182" fill="white" />
    </clipPath>
  </defs>
</svg>