<svg width="16" height="16" viewBox="0 0 16 16" fill="none" xmlns="http://www.w3.org/2000/svg">
<path fill-rule="evenodd" clip-rule="evenodd" d="M8.00022 14.3996C11.5348 14.3996 14.4002 11.5342 14.4002 7.99961C14.4002 4.46499 11.5348 1.59961 8.00022 1.59961C4.4656 1.59961 1.60022 4.46499 1.60022 7.99961C1.60022 11.5342 4.4656 14.3996 8.00022 14.3996ZM10.9659 6.96529C11.2783 6.65288 11.2783 6.14634 10.9659 5.83392C10.6535 5.5215 10.147 5.5215 9.83453 5.83392L7.20022 8.46824L6.1659 7.43392C5.85349 7.1215 5.34695 7.1215 5.03453 7.43392C4.72211 7.74634 4.72211 8.25287 5.03453 8.56529L6.63453 10.1653C6.94695 10.4777 7.45349 10.4777 7.7659 10.1653L10.9659 6.96529Z" fill="#7C67FE"/>
</svg>
