<svg xmlns="http://www.w3.org/2000/svg" width="16" height="16" fill="none"><path fill="#009CDE" d="M11.827 5.054c.144-.938 0-1.563-.503-2.14C10.773 2.264 9.766 2 8.47 2H4.755a.54.54 0 0 0-.528.457l-1.558 9.86c-.024.192.12.36.312.36h2.301l-.167 1.01c-.024.169.095.313.287.313h1.942c.24 0 .432-.168.456-.385l.407-2.549c.024-.216.24-.385.456-.385h.287c1.87 0 3.357-.77 3.788-2.982.168-.913.096-1.707-.383-2.236a1.823 1.823 0 0 0-.528-.409Z"/><path fill="#012169" d="M11.827 5.054c.144-.938 0-1.563-.503-2.14C10.773 2.264 9.766 2 8.47 2H4.755a.54.54 0 0 0-.528.457l-1.558 9.86c-.024.192.12.36.312.36h2.301l.552-3.559a.54.54 0 0 1 .527-.457h1.103c2.158 0 3.836-.865 4.315-3.415.024-.048.024-.12.048-.192Z"/><path fill="#003087" d="M6.481 5.078c.024-.168.24-.385.456-.385H9.86c.336 0 .672.024.96.073.263.048.743.168.982.312.144-.938 0-1.563-.503-2.14C10.773 2.265 9.766 2 8.47 2H4.756a.54.54 0 0 0-.528.457l-1.558 9.86c-.024.192.12.36.312.36h2.301l1.199-7.599Z"/></svg>