<svg xmlns="http://www.w3.org/2000/svg" width="324" height="133" fill="none"><g clip-path="url(#a)"><path fill="#6C6C71" d="M15.866 4.273V13H14.81V5.38h-.05l-2.132 1.415V5.722l2.182-1.45h1.057Zm5.357 8.846c-.642 0-1.19-.174-1.641-.524-.452-.352-.797-.862-1.035-1.53-.24-.67-.358-1.48-.358-2.429 0-.943.119-1.748.358-2.416.241-.67.588-1.182 1.04-1.534.454-.355 1-.533 1.636-.533.636 0 1.18.178 1.632.533.454.352.8.864 1.04 1.534.241.668.362 1.473.362 2.416 0 .95-.12 1.759-.358 2.43-.239.667-.584 1.177-1.036 1.53-.451.349-.998.523-1.64.523Zm0-.937c.636 0 1.13-.307 1.483-.92.352-.614.528-1.49.528-2.626 0-.755-.08-1.399-.243-1.93-.159-.531-.39-.936-.69-1.215a1.524 1.524 0 0 0-1.078-.417c-.631 0-1.124.31-1.479.933-.355.62-.533 1.496-.533 2.63 0 .755.08 1.397.239 1.925.159.529.388.93.686 1.207.301.275.663.413 1.087.413Zm7.5.937c-.642 0-1.19-.174-1.641-.524-.452-.352-.797-.862-1.035-1.53-.24-.67-.358-1.48-.358-2.429 0-.943.119-1.748.358-2.416.241-.67.588-1.182 1.04-1.534.454-.355 1-.533 1.636-.533.636 0 1.18.178 1.632.533.454.352.8.864 1.04 1.534.241.668.362 1.473.362 2.416 0 .95-.12 1.759-.358 2.43-.239.667-.584 1.177-1.036 1.53-.451.349-.998.523-1.64.523Zm0-.937c.636 0 1.13-.307 1.483-.92.352-.614.528-1.49.528-2.626 0-.755-.08-1.399-.243-1.93-.159-.531-.39-.936-.69-1.215a1.524 1.524 0 0 0-1.078-.417c-.631 0-1.124.31-1.479.933-.355.62-.533 1.496-.533 2.63 0 .755.08 1.397.239 1.925.159.529.388.93.686 1.207.301.275.663.413 1.087.413Zm5.608-1.568-.017-1.245h.204l2.864-2.914h1.244L35.575 9.54h-.085l-1.16 1.074ZM33.393 13V4.273H34.4V13h-1.006Zm4.16 0-2.558-3.239.716-.698L38.831 13h-1.279Z"/><g filter="url(#b)"><path stroke="#fff" stroke-opacity=".06" d="M55.102 9.273h268.899"/></g><path fill="#6C6C71" d="m19.485 52 3.903-7.722v-.068h-4.5v-.937h5.591v.988L20.593 52h-1.108Zm9.242.12c-.643 0-1.19-.175-1.641-.525-.452-.352-.797-.862-1.036-1.53-.238-.67-.358-1.48-.358-2.429 0-.943.12-1.748.358-2.416.242-.67.588-1.182 1.04-1.534.455-.355 1-.533 1.637-.533.636 0 1.18.178 1.632.533.454.352.8.864 1.04 1.534.24.668.362 1.473.362 2.416 0 .95-.12 1.759-.358 2.43-.239.667-.584 1.177-1.036 1.53-.451.349-.998.523-1.64.523Zm0-.938c.636 0 1.13-.307 1.482-.92.353-.614.529-1.49.529-2.626 0-.755-.081-1.399-.243-1.93-.16-.531-.39-.936-.69-1.215a1.524 1.524 0 0 0-1.078-.417c-.631 0-1.124.31-1.48.933-.354.62-.532 1.496-.532 2.63 0 .755.08 1.397.239 1.925.159.529.388.93.686 1.207.301.275.663.413 1.087.413Zm5.607-1.568-.017-1.245h.205l2.864-2.914h1.244l-3.051 3.085h-.085l-1.16 1.074ZM33.398 52v-8.727h1.006V52h-1.006Zm4.16 0L35 48.761l.716-.699L38.835 52h-1.279Z"/><g filter="url(#c)"><path stroke="#fff" stroke-opacity=".06" d="M55.102 48.039h268.899"/></g><path fill="#6C6C71" d="M21.303 90.12c-.5 0-.95-.1-1.351-.299a2.508 2.508 0 0 1-.963-.818 2.23 2.23 0 0 1-.397-1.185h1.023c.04.395.219.722.537.98a1.79 1.79 0 0 0 1.15.384c.358 0 .677-.084.955-.252a1.76 1.76 0 0 0 .66-.69 2.05 2.05 0 0 0 .243-1.001c0-.381-.083-.72-.25-1.019a1.846 1.846 0 0 0-.683-.712 1.927 1.927 0 0 0-.993-.264 2.73 2.73 0 0 0-.822.124 2.287 2.287 0 0 0-.695.32l-.988-.12.528-4.295h4.534v.937h-3.648l-.306 2.574h.05a2.3 2.3 0 0 1 .674-.354c.27-.093.551-.14.844-.14a2.681 2.681 0 0 1 2.416 1.423c.241.44.362.943.362 1.509 0 .556-.125 1.054-.375 1.491a2.74 2.74 0 0 1-1.023 1.031 2.92 2.92 0 0 1-1.482.375Zm7.42 0c-.642 0-1.19-.175-1.641-.525-.452-.352-.797-.862-1.035-1.53-.24-.67-.358-1.48-.358-2.429 0-.943.119-1.748.358-2.416.241-.67.588-1.182 1.04-1.534.454-.355 1-.533 1.636-.533.636 0 1.18.178 1.632.533.454.352.8.864 1.04 1.534.241.668.362 1.473.362 2.416 0 .95-.12 1.759-.358 2.43-.239.667-.584 1.177-1.036 1.53-.451.349-.998.523-1.64.523Zm0-.938c.636 0 1.13-.307 1.483-.92.352-.614.528-1.49.528-2.626 0-.755-.08-1.399-.243-1.93-.159-.531-.39-.936-.69-1.215a1.524 1.524 0 0 0-1.078-.417c-.631 0-1.124.31-1.479.933-.355.62-.533 1.496-.533 2.63 0 .755.08 1.397.239 1.925.159.529.388.93.686 1.207.301.275.663.413 1.087.413Zm5.608-1.568-.017-1.245h.204l2.864-2.915h1.244l-3.051 3.086h-.085l-1.16 1.074ZM33.393 90v-8.727H34.4V90h-1.006Zm4.16 0-2.558-3.239.716-.698L38.831 90h-1.279Z"/><g filter="url(#d)"><path stroke="#fff" stroke-opacity=".06" d="M55.102 85.813h268.899"/></g><path fill="#6C6C71" d="M35.254 128.119c-.642 0-1.189-.174-1.64-.524-.452-.352-.798-.862-1.036-1.53-.239-.67-.358-1.48-.358-2.429 0-.943.12-1.748.358-2.416.241-.67.588-1.182 1.04-1.534.454-.355 1-.533 1.636-.533.636 0 1.18.178 1.632.533.455.352.801.864 1.04 1.534.241.668.362 1.473.362 2.416 0 .949-.12 1.759-.358 2.429-.239.668-.584 1.178-1.035 1.53-.452.35-.999.524-1.641.524Zm0-.937c.636 0 1.13-.307 1.483-.921.352-.613.528-1.488.528-2.625 0-.755-.08-1.399-.243-1.93-.159-.531-.389-.936-.69-1.215a1.525 1.525 0 0 0-1.078-.417c-.63 0-1.124.311-1.479.933-.355.619-.532 1.496-.532 2.629 0 .756.08 1.398.238 1.926.16.529.388.931.686 1.206.301.276.664.414 1.087.414Z"/><g filter="url(#e)"><path stroke="#fff" stroke-opacity=".06" d="M55.102 123.586h268.899"/></g><path fill="#FD366E" d="M54 115a3 3 0 1 1 6 0v9h-6v-9Zm24-8a3 3 0 1 1 6 0v17h-6v-17Zm24-20a3 3 0 1 1 6 0v37h-6V87Zm24-20a3 3 0 1 1 6 0v57h-6V67Zm24 4a3 3 0 1 1 6 0v53h-6V71Zm24 4a3 3 0 1 1 6 0v49h-6V75Zm24-6a3 3 0 1 1 6 0v55h-6V69Zm24-6a3 3 0 1 1 6 0v61h-6V63Zm24-8a3 3 0 1 1 6 0v69h-6V55Zm24-8a3 3 0 1 1 6 0v77h-6V47Zm24-12a3 3 0 1 1 6 0v89h-6V35Zm24-24a3 3 0 1 1 6 0v113h-6V11Z"/></g><defs><filter id="b" width="668.9" height="401" x="-144.898" y="-191.227" color-interpolation-filters="sRGB" filterUnits="userSpaceOnUse"><feFlood flood-opacity="0" result="BackgroundImageFix"/><feGaussianBlur in="BackgroundImageFix" stdDeviation="100"/><feComposite in2="SourceAlpha" operator="in" result="effect1_backgroundBlur_3990_110673"/><feBlend in="SourceGraphic" in2="effect1_backgroundBlur_3990_110673" result="shape"/></filter><filter id="c" width="668.9" height="401" x="-144.898" y="-152.461" color-interpolation-filters="sRGB" filterUnits="userSpaceOnUse"><feFlood flood-opacity="0" result="BackgroundImageFix"/><feGaussianBlur in="BackgroundImageFix" stdDeviation="100"/><feComposite in2="SourceAlpha" operator="in" result="effect1_backgroundBlur_3990_110673"/><feBlend in="SourceGraphic" in2="effect1_backgroundBlur_3990_110673" result="shape"/></filter><filter id="d" width="668.9" height="401" x="-144.898" y="-114.688" color-interpolation-filters="sRGB" filterUnits="userSpaceOnUse"><feFlood flood-opacity="0" result="BackgroundImageFix"/><feGaussianBlur in="BackgroundImageFix" stdDeviation="100"/><feComposite in2="SourceAlpha" operator="in" result="effect1_backgroundBlur_3990_110673"/><feBlend in="SourceGraphic" in2="effect1_backgroundBlur_3990_110673" result="shape"/></filter><filter id="e" width="668.9" height="401" x="-144.898" y="-76.914" color-interpolation-filters="sRGB" filterUnits="userSpaceOnUse"><feFlood flood-opacity="0" result="BackgroundImageFix"/><feGaussianBlur in="BackgroundImageFix" stdDeviation="100"/><feComposite in2="SourceAlpha" operator="in" result="effect1_backgroundBlur_3990_110673"/><feBlend in="SourceGraphic" in2="effect1_backgroundBlur_3990_110673" result="shape"/></filter><clipPath id="a"><path fill="#fff" d="M0 0h324v133H0z"/></clipPath></defs></svg>