<svg width="425" height="171" viewBox="0 0 425 171" fill="none" xmlns="http://www.w3.org/2000/svg">
<path d="M2.49964 8.70632V7.837L6.33487 1.76882H6.96555V3.11541H6.53942L3.64169 7.70064V7.76882H8.80646V8.70632H2.49964ZM6.6076 10.4961V8.44212V8.03729V1.76882H7.61328V10.4961H6.6076ZM13.25 10.6154C12.608 10.6154 12.0611 10.4407 11.6094 10.0913C11.1577 9.73899 10.8125 9.22905 10.5739 8.56143C10.3352 7.89098 10.2159 7.08132 10.2159 6.13246C10.2159 5.18928 10.3352 4.38388 10.5739 3.71626C10.8153 3.04581 11.1619 2.53445 11.6136 2.18217C12.0682 1.82706 12.6136 1.6495 13.25 1.6495C13.8864 1.6495 14.4304 1.82706 14.8821 2.18217C15.3366 2.53445 15.6832 3.04581 15.9219 3.71626C16.1634 4.38388 16.2841 5.18928 16.2841 6.13246C16.2841 7.08132 16.1648 7.89098 15.9261 8.56143C15.6875 9.22905 15.3423 9.73899 14.8906 10.0913C14.4389 10.4407 13.892 10.6154 13.25 10.6154ZM13.25 9.67791C13.8864 9.67791 14.3807 9.37109 14.733 8.75746C15.0852 8.14382 15.2614 7.26882 15.2614 6.13246C15.2614 5.37678 15.1804 4.73331 15.0185 4.20206C14.8594 3.67081 14.6293 3.26598 14.3281 2.98757C14.0298 2.70916 13.6705 2.56996 13.25 2.56996C12.6193 2.56996 12.1264 2.88104 11.7713 3.5032C11.4162 4.12251 11.2386 4.99893 11.2386 6.13246C11.2386 6.88814 11.3182 7.53018 11.4773 8.05859C11.6364 8.587 11.8651 8.98899 12.1634 9.26456C12.4645 9.54013 12.8267 9.67791 13.25 9.67791ZM20.75 10.6154C20.108 10.6154 19.5611 10.4407 19.1094 10.0913C18.6577 9.73899 18.3125 9.22905 18.0739 8.56143C17.8352 7.89098 17.7159 7.08132 17.7159 6.13246C17.7159 5.18928 17.8352 4.38388 18.0739 3.71626C18.3153 3.04581 18.6619 2.53445 19.1136 2.18217C19.5682 1.82706 20.1136 1.6495 20.75 1.6495C21.3864 1.6495 21.9304 1.82706 22.3821 2.18217C22.8366 2.53445 23.1832 3.04581 23.4219 3.71626C23.6634 4.38388 23.7841 5.18928 23.7841 6.13246C23.7841 7.08132 23.6648 7.89098 23.4261 8.56143C23.1875 9.22905 22.8423 9.73899 22.3906 10.0913C21.9389 10.4407 21.392 10.6154 20.75 10.6154ZM20.75 9.67791C21.3864 9.67791 21.8807 9.37109 22.233 8.75746C22.5852 8.14382 22.7614 7.26882 22.7614 6.13246C22.7614 5.37678 22.6804 4.73331 22.5185 4.20206C22.3594 3.67081 22.1293 3.26598 21.8281 2.98757C21.5298 2.70916 21.1705 2.56996 20.75 2.56996C20.1193 2.56996 19.6264 2.88104 19.2713 3.5032C18.9162 4.12251 18.7386 4.99893 18.7386 6.13246C18.7386 6.88814 18.8182 7.53018 18.9773 8.05859C19.1364 8.587 19.3651 8.98899 19.6634 9.26456C19.9645 9.54013 20.3267 9.67791 20.75 9.67791ZM28.25 10.6154C27.608 10.6154 27.0611 10.4407 26.6094 10.0913C26.1577 9.73899 25.8125 9.22905 25.5739 8.56143C25.3352 7.89098 25.2159 7.08132 25.2159 6.13246C25.2159 5.18928 25.3352 4.38388 25.5739 3.71626C25.8153 3.04581 26.1619 2.53445 26.6136 2.18217C27.0682 1.82706 27.6136 1.6495 28.25 1.6495C28.8864 1.6495 29.4304 1.82706 29.8821 2.18217C30.3366 2.53445 30.6832 3.04581 30.9219 3.71626C31.1634 4.38388 31.2841 5.18928 31.2841 6.13246C31.2841 7.08132 31.1648 7.89098 30.9261 8.56143C30.6875 9.22905 30.3423 9.73899 29.8906 10.0913C29.4389 10.4407 28.892 10.6154 28.25 10.6154ZM28.25 9.67791C28.8864 9.67791 29.3807 9.37109 29.733 8.75746C30.0852 8.14382 30.2614 7.26882 30.2614 6.13246C30.2614 5.37678 30.1804 4.73331 30.0185 4.20206C29.8594 3.67081 29.6293 3.26598 29.3281 2.98757C29.0298 2.70916 28.6705 2.56996 28.25 2.56996C27.6193 2.56996 27.1264 2.88104 26.7713 3.5032C26.4162 4.12251 26.2386 4.99893 26.2386 6.13246C26.2386 6.88814 26.3182 7.53018 26.4773 8.05859C26.6364 8.587 26.8651 8.98899 27.1634 9.26456C27.4645 9.54013 27.8267 9.67791 28.25 9.67791Z" fill="#868EA3"/>
<line opacity="0.2" x1="48" y1="6.24609" x2="425" y2="6.24609" stroke="#E4E4E7" stroke-width="0.5"/>
<path d="M5.71165 45.8849C5.14915 45.8849 4.64773 45.7884 4.20739 45.5952C3.76989 45.402 3.42188 45.1335 3.16335 44.7898C2.90767 44.4432 2.76847 44.0412 2.74574 43.5838H3.8196C3.84233 43.8651 3.93892 44.108 4.10938 44.3125C4.27983 44.5142 4.50284 44.6705 4.77841 44.7812C5.05398 44.892 5.35938 44.9474 5.6946 44.9474C6.0696 44.9474 6.40199 44.8821 6.69176 44.7514C6.98153 44.6207 7.20881 44.4389 7.37358 44.206C7.53835 43.973 7.62074 43.7031 7.62074 43.3963C7.62074 43.0753 7.54119 42.7926 7.3821 42.5483C7.22301 42.3011 6.99006 42.108 6.68324 41.9688C6.37642 41.8295 6.00142 41.7599 5.55824 41.7599H4.85938V40.8224H5.55824C5.90483 40.8224 6.20881 40.7599 6.47017 40.6349C6.73438 40.5099 6.94034 40.3338 7.08807 40.1065C7.23864 39.8793 7.31392 39.6122 7.31392 39.3054C7.31392 39.0099 7.24858 38.7528 7.1179 38.5341C6.98722 38.3153 6.80256 38.1449 6.56392 38.0227C6.32813 37.9006 6.04972 37.8395 5.72869 37.8395C5.42756 37.8395 5.14347 37.8949 4.87642 38.0057C4.61222 38.1136 4.39631 38.2713 4.22869 38.4787C4.06108 38.6832 3.97017 38.9304 3.95597 39.2202H2.93324C2.95028 38.7628 3.08807 38.3622 3.34659 38.0185C3.60511 37.6719 3.94318 37.402 4.3608 37.2088C4.78125 37.0156 5.2429 36.919 5.74574 36.919C6.28551 36.919 6.74858 37.0284 7.13494 37.2472C7.52131 37.4631 7.81818 37.7486 8.02557 38.1037C8.23295 38.4588 8.33665 38.8423 8.33665 39.2543C8.33665 39.7457 8.20739 40.1648 7.94886 40.5114C7.69318 40.858 7.34517 41.098 6.90483 41.2315V41.2997C7.45597 41.3906 7.88636 41.625 8.19602 42.0028C8.50568 42.3778 8.66051 42.8423 8.66051 43.3963C8.66051 43.8707 8.53125 44.2969 8.27273 44.6747C8.01705 45.0497 7.66761 45.3452 7.22443 45.5611C6.78125 45.777 6.27699 45.8849 5.71165 45.8849ZM13.25 45.8849C12.608 45.8849 12.0611 45.7102 11.6094 45.3608C11.1577 45.0085 10.8125 44.4986 10.5739 43.831C10.3352 43.1605 10.2159 42.3509 10.2159 41.402C10.2159 40.4588 10.3352 39.6534 10.5739 38.9858C10.8153 38.3153 11.1619 37.804 11.6136 37.4517C12.0682 37.0966 12.6136 36.919 13.25 36.919C13.8864 36.919 14.4304 37.0966 14.8821 37.4517C15.3366 37.804 15.6832 38.3153 15.9219 38.9858C16.1634 39.6534 16.2841 40.4588 16.2841 41.402C16.2841 42.3509 16.1648 43.1605 15.9261 43.831C15.6875 44.4986 15.3423 45.0085 14.8906 45.3608C14.4389 45.7102 13.892 45.8849 13.25 45.8849ZM13.25 44.9474C13.8864 44.9474 14.3807 44.6406 14.733 44.027C15.0852 43.4134 15.2614 42.5384 15.2614 41.402C15.2614 40.6463 15.1804 40.0028 15.0185 39.4716C14.8594 38.9403 14.6293 38.5355 14.3281 38.2571C14.0298 37.9787 13.6705 37.8395 13.25 37.8395C12.6193 37.8395 12.1264 38.1506 11.7713 38.7727C11.4162 39.392 11.2386 40.2685 11.2386 41.402C11.2386 42.1577 11.3182 42.7997 11.4773 43.3281C11.6364 43.8565 11.8651 44.2585 12.1634 44.5341C12.4645 44.8097 12.8267 44.9474 13.25 44.9474ZM20.75 45.8849C20.108 45.8849 19.5611 45.7102 19.1094 45.3608C18.6577 45.0085 18.3125 44.4986 18.0739 43.831C17.8352 43.1605 17.7159 42.3509 17.7159 41.402C17.7159 40.4588 17.8352 39.6534 18.0739 38.9858C18.3153 38.3153 18.6619 37.804 19.1136 37.4517C19.5682 37.0966 20.1136 36.919 20.75 36.919C21.3864 36.919 21.9304 37.0966 22.3821 37.4517C22.8366 37.804 23.1832 38.3153 23.4219 38.9858C23.6634 39.6534 23.7841 40.4588 23.7841 41.402C23.7841 42.3509 23.6648 43.1605 23.4261 43.831C23.1875 44.4986 22.8423 45.0085 22.3906 45.3608C21.9389 45.7102 21.392 45.8849 20.75 45.8849ZM20.75 44.9474C21.3864 44.9474 21.8807 44.6406 22.233 44.027C22.5852 43.4134 22.7614 42.5384 22.7614 41.402C22.7614 40.6463 22.6804 40.0028 22.5185 39.4716C22.3594 38.9403 22.1293 38.5355 21.8281 38.2571C21.5298 37.9787 21.1705 37.8395 20.75 37.8395C20.1193 37.8395 19.6264 38.1506 19.2713 38.7727C18.9162 39.392 18.7386 40.2685 18.7386 41.402C18.7386 42.1577 18.8182 42.7997 18.9773 43.3281C19.1364 43.8565 19.3651 44.2585 19.6634 44.5341C19.9645 44.8097 20.3267 44.9474 20.75 44.9474ZM28.25 45.8849C27.608 45.8849 27.0611 45.7102 26.6094 45.3608C26.1577 45.0085 25.8125 44.4986 25.5739 43.831C25.3352 43.1605 25.2159 42.3509 25.2159 41.402C25.2159 40.4588 25.3352 39.6534 25.5739 38.9858C25.8153 38.3153 26.1619 37.804 26.6136 37.4517C27.0682 37.0966 27.6136 36.919 28.25 36.919C28.8864 36.919 29.4304 37.0966 29.8821 37.4517C30.3366 37.804 30.6832 38.3153 30.9219 38.9858C31.1634 39.6534 31.2841 40.4588 31.2841 41.402C31.2841 42.3509 31.1648 43.1605 30.9261 43.831C30.6875 44.4986 30.3423 45.0085 29.8906 45.3608C29.4389 45.7102 28.892 45.8849 28.25 45.8849ZM28.25 44.9474C28.8864 44.9474 29.3807 44.6406 29.733 44.027C30.0852 43.4134 30.2614 42.5384 30.2614 41.402C30.2614 40.6463 30.1804 40.0028 30.0185 39.4716C29.8594 38.9403 29.6293 38.5355 29.3281 38.2571C29.0298 37.9787 28.6705 37.8395 28.25 37.8395C27.6193 37.8395 27.1264 38.1506 26.7713 38.7727C26.4162 39.392 26.2386 40.2685 26.2386 41.402C26.2386 42.1577 26.3182 42.7997 26.4773 43.3281C26.6364 43.8565 26.8651 44.2585 27.1634 44.5341C27.4645 44.8097 27.8267 44.9474 28.25 44.9474Z" fill="#868EA3"/>
<line opacity="0.2" x1="48" y1="41.5156" x2="425" y2="41.5156" stroke="#E4E4E7" stroke-width="0.5"/>
<path d="M3.13778 81.9648V81.1978L6.01847 78.0444C6.35653 77.6751 6.63494 77.354 6.85369 77.0813C7.07244 76.8058 7.23438 76.5472 7.33949 76.3058C7.44744 76.0614 7.50142 75.8058 7.50142 75.5387C7.50142 75.2319 7.42756 74.9663 7.27983 74.7418C7.13494 74.5174 6.93608 74.3441 6.68324 74.2219C6.4304 74.0998 6.14631 74.0387 5.83097 74.0387C5.49574 74.0387 5.20312 74.1083 4.95312 74.2475C4.70597 74.3839 4.5142 74.5756 4.37784 74.8228C4.24432 75.07 4.17756 75.3597 4.17756 75.6921H3.17188C3.17188 75.1808 3.28977 74.7319 3.52557 74.3455C3.76136 73.9592 4.08239 73.658 4.48864 73.4421C4.89773 73.2262 5.35653 73.1183 5.86506 73.1183C6.37642 73.1183 6.82955 73.2262 7.22443 73.4421C7.61932 73.658 7.92898 73.9492 8.15341 74.3157C8.37784 74.6822 8.49006 75.0898 8.49006 75.5387C8.49006 75.8597 8.43182 76.1737 8.31534 76.4805C8.2017 76.7844 8.00284 77.1239 7.71875 77.4989C7.4375 77.8711 7.04688 78.3256 6.54688 78.8626L4.58665 80.9592V81.0273H8.64347V81.9648H3.13778ZM13.25 82.0842C12.608 82.0842 12.0611 81.9094 11.6094 81.56C11.1577 81.2077 10.8125 80.6978 10.5739 80.0302C10.3352 79.3597 10.2159 78.5501 10.2159 77.6012C10.2159 76.658 10.3352 75.8526 10.5739 75.185C10.8153 74.5146 11.1619 74.0032 11.6136 73.6509C12.0682 73.2958 12.6136 73.1183 13.25 73.1183C13.8864 73.1183 14.4304 73.2958 14.8821 73.6509C15.3366 74.0032 15.6832 74.5146 15.9219 75.185C16.1634 75.8526 16.2841 76.658 16.2841 77.6012C16.2841 78.5501 16.1648 79.3597 15.9261 80.0302C15.6875 80.6978 15.3423 81.2077 14.8906 81.56C14.4389 81.9094 13.892 82.0842 13.25 82.0842ZM13.25 81.1467C13.8864 81.1467 14.3807 80.8398 14.733 80.2262C15.0852 79.6126 15.2614 78.7376 15.2614 77.6012C15.2614 76.8455 15.1804 76.2021 15.0185 75.6708C14.8594 75.1396 14.6293 74.7347 14.3281 74.4563C14.0298 74.1779 13.6705 74.0387 13.25 74.0387C12.6193 74.0387 12.1264 74.3498 11.7713 74.9719C11.4162 75.5913 11.2386 76.4677 11.2386 77.6012C11.2386 78.3569 11.3182 78.9989 11.4773 79.5273C11.6364 80.0558 11.8651 80.4577 12.1634 80.7333C12.4645 81.0089 12.8267 81.1467 13.25 81.1467ZM20.75 82.0842C20.108 82.0842 19.5611 81.9094 19.1094 81.56C18.6577 81.2077 18.3125 80.6978 18.0739 80.0302C17.8352 79.3597 17.7159 78.5501 17.7159 77.6012C17.7159 76.658 17.8352 75.8526 18.0739 75.185C18.3153 74.5146 18.6619 74.0032 19.1136 73.6509C19.5682 73.2958 20.1136 73.1183 20.75 73.1183C21.3864 73.1183 21.9304 73.2958 22.3821 73.6509C22.8366 74.0032 23.1832 74.5146 23.4219 75.185C23.6634 75.8526 23.7841 76.658 23.7841 77.6012C23.7841 78.5501 23.6648 79.3597 23.4261 80.0302C23.1875 80.6978 22.8423 81.2077 22.3906 81.56C21.9389 81.9094 21.392 82.0842 20.75 82.0842ZM20.75 81.1467C21.3864 81.1467 21.8807 80.8398 22.233 80.2262C22.5852 79.6126 22.7614 78.7376 22.7614 77.6012C22.7614 76.8455 22.6804 76.2021 22.5185 75.6708C22.3594 75.1396 22.1293 74.7347 21.8281 74.4563C21.5298 74.1779 21.1705 74.0387 20.75 74.0387C20.1193 74.0387 19.6264 74.3498 19.2713 74.9719C18.9162 75.5913 18.7386 76.4677 18.7386 77.6012C18.7386 78.3569 18.8182 78.9989 18.9773 79.5273C19.1364 80.0558 19.3651 80.4577 19.6634 80.7333C19.9645 81.0089 20.3267 81.1467 20.75 81.1467ZM28.25 82.0842C27.608 82.0842 27.0611 81.9094 26.6094 81.56C26.1577 81.2077 25.8125 80.6978 25.5739 80.0302C25.3352 79.3597 25.2159 78.5501 25.2159 77.6012C25.2159 76.658 25.3352 75.8526 25.5739 75.185C25.8153 74.5146 26.1619 74.0032 26.6136 73.6509C27.0682 73.2958 27.6136 73.1183 28.25 73.1183C28.8864 73.1183 29.4304 73.2958 29.8821 73.6509C30.3366 74.0032 30.6832 74.5146 30.9219 75.185C31.1634 75.8526 31.2841 76.658 31.2841 77.6012C31.2841 78.5501 31.1648 79.3597 30.9261 80.0302C30.6875 80.6978 30.3423 81.2077 29.8906 81.56C29.4389 81.9094 28.892 82.0842 28.25 82.0842ZM28.25 81.1467C28.8864 81.1467 29.3807 80.8398 29.733 80.2262C30.0852 79.6126 30.2614 78.7376 30.2614 77.6012C30.2614 76.8455 30.1804 76.2021 30.0185 75.6708C29.8594 75.1396 29.6293 74.7347 29.3281 74.4563C29.0298 74.1779 28.6705 74.0387 28.25 74.0387C27.6193 74.0387 27.1264 74.3498 26.7713 74.9719C26.4162 75.5913 26.2386 76.4677 26.2386 77.6012C26.2386 78.3569 26.3182 78.9989 26.4773 79.5273C26.6364 80.0558 26.8651 80.4577 27.1634 80.7333C27.4645 81.0089 27.8267 81.1467 28.25 81.1467Z" fill="#868EA3"/>
<line opacity="0.2" x1="48" y1="77.7148" x2="425" y2="77.7148" stroke="#E4E4E7" stroke-width="0.5"/>
<path d="M7.89347 108.503V117.23H6.83665V109.611H6.78551L4.65483 111.026V109.952L6.83665 108.503H7.89347ZM13.25 117.35C12.608 117.35 12.0611 117.175 11.6094 116.826C11.1577 116.473 10.8125 115.963 10.5739 115.296C10.3352 114.625 10.2159 113.816 10.2159 112.867C10.2159 111.924 10.3352 111.118 10.5739 110.451C10.8153 109.78 11.1619 109.269 11.6136 108.917C12.0682 108.561 12.6136 108.384 13.25 108.384C13.8864 108.384 14.4304 108.561 14.8821 108.917C15.3366 109.269 15.6832 109.78 15.9219 110.451C16.1634 111.118 16.2841 111.924 16.2841 112.867C16.2841 113.816 16.1648 114.625 15.9261 115.296C15.6875 115.963 15.3423 116.473 14.8906 116.826C14.4389 117.175 13.892 117.35 13.25 117.35ZM13.25 116.412C13.8864 116.412 14.3807 116.105 14.733 115.492C15.0852 114.878 15.2614 114.003 15.2614 112.867C15.2614 112.111 15.1804 111.468 15.0185 110.936C14.8594 110.405 14.6293 110 14.3281 109.722C14.0298 109.444 13.6705 109.304 13.25 109.304C12.6193 109.304 12.1264 109.615 11.7713 110.238C11.4162 110.857 11.2386 111.733 11.2386 112.867C11.2386 113.623 11.3182 114.265 11.4773 114.793C11.6364 115.321 11.8651 115.723 12.1634 115.999C12.4645 116.275 12.8267 116.412 13.25 116.412ZM20.75 117.35C20.108 117.35 19.5611 117.175 19.1094 116.826C18.6577 116.473 18.3125 115.963 18.0739 115.296C17.8352 114.625 17.7159 113.816 17.7159 112.867C17.7159 111.924 17.8352 111.118 18.0739 110.451C18.3153 109.78 18.6619 109.269 19.1136 108.917C19.5682 108.561 20.1136 108.384 20.75 108.384C21.3864 108.384 21.9304 108.561 22.3821 108.917C22.8366 109.269 23.1832 109.78 23.4219 110.451C23.6634 111.118 23.7841 111.924 23.7841 112.867C23.7841 113.816 23.6648 114.625 23.4261 115.296C23.1875 115.963 22.8423 116.473 22.3906 116.826C21.9389 117.175 21.392 117.35 20.75 117.35ZM20.75 116.412C21.3864 116.412 21.8807 116.105 22.233 115.492C22.5852 114.878 22.7614 114.003 22.7614 112.867C22.7614 112.111 22.6804 111.468 22.5185 110.936C22.3594 110.405 22.1293 110 21.8281 109.722C21.5298 109.444 21.1705 109.304 20.75 109.304C20.1193 109.304 19.6264 109.615 19.2713 110.238C18.9162 110.857 18.7386 111.733 18.7386 112.867C18.7386 113.623 18.8182 114.265 18.9773 114.793C19.1364 115.321 19.3651 115.723 19.6634 115.999C19.9645 116.275 20.3267 116.412 20.75 116.412ZM28.25 117.35C27.608 117.35 27.0611 117.175 26.6094 116.826C26.1577 116.473 25.8125 115.963 25.5739 115.296C25.3352 114.625 25.2159 113.816 25.2159 112.867C25.2159 111.924 25.3352 111.118 25.5739 110.451C25.8153 109.78 26.1619 109.269 26.6136 108.917C27.0682 108.561 27.6136 108.384 28.25 108.384C28.8864 108.384 29.4304 108.561 29.8821 108.917C30.3366 109.269 30.6832 109.78 30.9219 110.451C31.1634 111.118 31.2841 111.924 31.2841 112.867C31.2841 113.816 31.1648 114.625 30.9261 115.296C30.6875 115.963 30.3423 116.473 29.8906 116.826C29.4389 117.175 28.892 117.35 28.25 117.35ZM28.25 116.412C28.8864 116.412 29.3807 116.105 29.733 115.492C30.0852 114.878 30.2614 114.003 30.2614 112.867C30.2614 112.111 30.1804 111.468 30.0185 110.936C29.8594 110.405 29.6293 110 29.3281 109.722C29.0298 109.444 28.6705 109.304 28.25 109.304C27.6193 109.304 27.1264 109.615 26.7713 110.238C26.4162 110.857 26.2386 111.733 26.2386 112.867C26.2386 113.623 26.3182 114.265 26.4773 114.793C26.6364 115.321 26.8651 115.723 27.1634 115.999C27.4645 116.275 27.8267 116.412 28.25 116.412Z" fill="#868EA3"/>
<line opacity="0.2" x1="48" y1="112.98" x2="425" y2="112.98" stroke="#E4E4E7" stroke-width="0.5"/>
<path d="M28.25 152.623C27.608 152.623 27.0611 152.449 26.6094 152.099C26.1577 151.747 25.8125 151.237 25.5739 150.569C25.3352 149.899 25.2159 149.089 25.2159 148.14C25.2159 147.197 25.3352 146.392 25.5739 145.724C25.8153 145.054 26.1619 144.542 26.6136 144.19C27.0682 143.835 27.6136 143.657 28.25 143.657C28.8864 143.657 29.4304 143.835 29.8821 144.19C30.3366 144.542 30.6832 145.054 30.9219 145.724C31.1634 146.392 31.2841 147.197 31.2841 148.14C31.2841 149.089 31.1648 149.899 30.9261 150.569C30.6875 151.237 30.3423 151.747 29.8906 152.099C29.4389 152.449 28.892 152.623 28.25 152.623ZM28.25 151.686C28.8864 151.686 29.3807 151.379 29.733 150.765C30.0852 150.152 30.2614 149.277 30.2614 148.14C30.2614 147.385 30.1804 146.741 30.0185 146.21C29.8594 145.679 29.6293 145.274 29.3281 144.995C29.0298 144.717 28.6705 144.578 28.25 144.578C27.6193 144.578 27.1264 144.889 26.7713 145.511C26.4162 146.13 26.2386 147.007 26.2386 148.14C26.2386 148.896 26.3182 149.538 26.4773 150.066C26.6364 150.595 26.8651 150.997 27.1634 151.272C27.4645 151.548 27.8267 151.686 28.25 151.686Z" fill="#868EA3"/>
<line opacity="0.2" x1="48" y1="148.254" x2="425" y2="148.254" stroke="#E4E4E7" stroke-width="0.5"/>
<g filter="url(#filter0_d_2822_20250)">
<path d="M48 147C66.7936 147 93.0874 136.062 102.877 123.085C124.678 94.1886 117.912 56.8221 146.103 56.8221C174.293 56.8221 186.697 82.7295 208.122 82.7295C229.546 82.7295 231.802 65.2918 258.113 30.4164C284.424 -4.45908 305.218 67.6175 325.77 64.2954C346.321 60.9733 334.791 7 425 7" stroke="#F02E65" stroke-width="1.2"/>
</g>
<path d="M54.6601 157.273V166H53.6033V158.381H53.5521L51.4215 159.795V158.722L53.6033 157.273H54.6601ZM59.8973 166.119C59.3973 166.119 58.947 166.02 58.5465 165.821C58.1459 165.622 57.8249 165.349 57.5834 165.003C57.3419 164.656 57.2098 164.261 57.1871 163.818H58.2098C58.2496 164.213 58.4286 164.54 58.7467 164.798C59.0678 165.054 59.4513 165.182 59.8973 165.182C60.2553 165.182 60.5735 165.098 60.8519 164.93C61.1331 164.763 61.3533 164.533 61.5124 164.24C61.6743 163.945 61.7553 163.611 61.7553 163.239C61.7553 162.858 61.6715 162.518 61.5038 162.22C61.3391 161.919 61.1118 161.682 60.822 161.509C60.5323 161.335 60.2013 161.247 59.8291 161.244C59.5621 161.241 59.2879 161.283 59.0067 161.368C58.7254 161.45 58.4939 161.557 58.3121 161.688L57.3235 161.568L57.8519 157.273H62.386V158.21H58.7382L58.4314 160.784H58.4825C58.6615 160.642 58.886 160.524 59.1558 160.43C59.4257 160.337 59.707 160.29 59.9996 160.29C60.5337 160.29 61.0095 160.418 61.4271 160.673C61.8476 160.926 62.1771 161.273 62.4158 161.713C62.6573 162.153 62.778 162.656 62.778 163.222C62.778 163.778 62.653 164.276 62.403 164.713C62.1558 165.148 61.8149 165.491 61.3803 165.744C60.9456 165.994 60.4513 166.119 59.8973 166.119ZM71.3401 157.273H72.397V163.511C72.397 164.068 72.2947 164.541 72.0901 164.93C71.8856 165.32 71.5972 165.615 71.2251 165.817C70.8529 166.018 70.414 166.119 69.9083 166.119C69.431 166.119 69.0063 166.033 68.6342 165.859C68.262 165.683 67.9694 165.433 67.7563 165.109C67.5433 164.786 67.4367 164.401 67.4367 163.955H68.4765C68.4765 164.202 68.5376 164.418 68.6597 164.602C68.7847 164.784 68.9552 164.926 69.1711 165.028C69.387 165.131 69.6328 165.182 69.9083 165.182C70.2123 165.182 70.4708 165.118 70.6839 164.99C70.897 164.862 71.0589 164.675 71.1697 164.428C71.2833 164.178 71.3401 163.872 71.3401 163.511V157.273ZM78.5035 163.324V159.455H79.5092V166H78.5035V164.892H78.4353C78.2819 165.224 78.0433 165.507 77.7194 165.74C77.3955 165.97 76.9864 166.085 76.4921 166.085C76.083 166.085 75.7194 165.996 75.4012 165.817C75.083 165.635 74.833 165.362 74.6512 164.999C74.4694 164.632 74.3785 164.17 74.3785 163.614V159.455H75.3842V163.545C75.3842 164.023 75.5177 164.403 75.7847 164.688C76.0546 164.972 76.3984 165.114 76.816 165.114C77.066 165.114 77.3203 165.05 77.5788 164.922C77.8401 164.794 78.0589 164.598 78.235 164.334C78.414 164.07 78.5035 163.733 78.5035 163.324ZM82.3568 157.273V166H81.3511V157.273H82.3568ZM84.8465 168.455C84.6761 168.455 84.5241 168.44 84.3906 168.412C84.257 168.386 84.1647 168.361 84.1136 168.335L84.3693 167.449C84.6136 167.511 84.8295 167.534 85.017 167.517C85.2045 167.5 85.3707 167.416 85.5156 167.266C85.6633 167.118 85.7982 166.878 85.9204 166.545L86.1079 166.034L83.6874 159.455H84.7784L86.5852 164.67H86.6534L88.4602 159.455H89.5511L86.7727 166.955C86.6477 167.293 86.4928 167.572 86.3082 167.794C86.1235 168.018 85.909 168.185 85.6647 168.293C85.4232 168.401 85.1505 168.455 84.8465 168.455Z" fill="#868EA3"/>
<path d="M388.045 157.273V166H386.988V158.381H386.937L384.806 159.795V158.722L386.988 157.273H388.045ZM393.452 166.119C393.094 166.114 392.737 166.045 392.379 165.915C392.021 165.784 391.694 165.564 391.398 165.254C391.103 164.942 390.866 164.52 390.687 163.989C390.508 163.455 390.418 162.784 390.418 161.977C390.418 161.205 390.491 160.52 390.636 159.923C390.781 159.324 390.991 158.82 391.266 158.411C391.542 157.999 391.874 157.686 392.263 157.473C392.656 157.26 393.097 157.153 393.589 157.153C394.077 157.153 394.512 157.251 394.893 157.447C395.276 157.641 395.589 157.911 395.83 158.257C396.072 158.604 396.228 159.003 396.299 159.455H395.259C395.163 159.062 394.975 158.737 394.697 158.479C394.418 158.22 394.049 158.091 393.589 158.091C392.913 158.091 392.38 158.385 391.991 158.973C391.604 159.561 391.41 160.386 391.407 161.449H391.475C391.634 161.207 391.823 161.001 392.042 160.831C392.263 160.658 392.508 160.524 392.775 160.43C393.042 160.337 393.325 160.29 393.623 160.29C394.123 160.29 394.58 160.415 394.995 160.665C395.41 160.912 395.742 161.254 395.992 161.692C396.242 162.126 396.367 162.625 396.367 163.188C396.367 163.727 396.246 164.222 396.005 164.67C395.763 165.116 395.424 165.472 394.987 165.736C394.552 165.997 394.04 166.125 393.452 166.119ZM393.452 165.182C393.81 165.182 394.131 165.092 394.415 164.913C394.702 164.734 394.928 164.494 395.093 164.193C395.261 163.892 395.344 163.557 395.344 163.188C395.344 162.827 395.263 162.499 395.102 162.203C394.942 161.905 394.722 161.668 394.441 161.491C394.163 161.315 393.844 161.227 393.487 161.227C393.217 161.227 392.965 161.281 392.732 161.389C392.499 161.494 392.295 161.639 392.119 161.824C391.945 162.009 391.809 162.22 391.71 162.459C391.61 162.695 391.56 162.943 391.56 163.205C391.56 163.551 391.641 163.875 391.803 164.176C391.968 164.477 392.192 164.72 392.477 164.905C392.763 165.089 393.089 165.182 393.452 165.182ZM401.929 166H400.821L404.026 157.273H405.117L408.321 166H407.213L404.605 158.653H404.537L401.929 166ZM402.338 162.591H406.804V163.528H402.338V162.591ZM413.669 163.324V159.455H414.675V166H413.669V164.892H413.601C413.448 165.224 413.209 165.507 412.885 165.74C412.561 165.97 412.152 166.085 411.658 166.085C411.249 166.085 410.885 165.996 410.567 165.817C410.249 165.635 409.999 165.362 409.817 164.999C409.635 164.632 409.544 164.17 409.544 163.614V159.455H410.55V163.545C410.55 164.023 410.684 164.403 410.951 164.688C411.221 164.972 411.564 165.114 411.982 165.114C412.232 165.114 412.486 165.05 412.745 164.922C413.006 164.794 413.225 164.598 413.401 164.334C413.58 164.07 413.669 163.733 413.669 163.324ZM419.159 168.591C418.673 168.591 418.256 168.528 417.906 168.403C417.557 168.281 417.266 168.119 417.033 167.918C416.803 167.719 416.619 167.506 416.483 167.278L417.284 166.716C417.375 166.835 417.49 166.972 417.629 167.125C417.768 167.281 417.959 167.416 418.2 167.53C418.445 167.646 418.764 167.705 419.159 167.705C419.687 167.705 420.124 167.577 420.467 167.321C420.811 167.065 420.983 166.665 420.983 166.119V164.79H420.898C420.824 164.909 420.719 165.057 420.582 165.233C420.449 165.406 420.256 165.561 420.003 165.697C419.753 165.831 419.415 165.898 418.989 165.898C418.46 165.898 417.986 165.773 417.565 165.523C417.148 165.273 416.817 164.909 416.572 164.432C416.331 163.955 416.21 163.375 416.21 162.693C416.21 162.023 416.328 161.439 416.564 160.942C416.8 160.442 417.128 160.055 417.548 159.783C417.969 159.507 418.455 159.369 419.006 159.369C419.432 159.369 419.77 159.44 420.02 159.582C420.273 159.722 420.466 159.881 420.599 160.06C420.736 160.236 420.841 160.381 420.915 160.494H421.017V159.455H421.989V166.188C421.989 166.75 421.861 167.207 421.605 167.56C421.352 167.915 421.011 168.175 420.582 168.339C420.156 168.507 419.682 168.591 419.159 168.591ZM419.125 164.994C419.528 164.994 419.869 164.902 420.148 164.717C420.426 164.533 420.638 164.267 420.783 163.92C420.928 163.574 421 163.159 421 162.676C421 162.205 420.929 161.788 420.787 161.428C420.645 161.067 420.435 160.784 420.156 160.58C419.878 160.375 419.534 160.273 419.125 160.273C418.699 160.273 418.344 160.381 418.06 160.597C417.778 160.812 417.567 161.102 417.425 161.466C417.286 161.83 417.216 162.233 417.216 162.676C417.216 163.131 417.287 163.533 417.429 163.882C417.574 164.229 417.787 164.501 418.068 164.7C418.352 164.896 418.705 164.994 419.125 164.994Z" fill="#868EA3"/>
<defs>
<filter id="filter0_d_2822_20250" x="10" y="-16.6016" width="453" height="217.203" filterUnits="userSpaceOnUse" color-interpolation-filters="sRGB">
<feFlood flood-opacity="0" result="BackgroundImageFix"/>
<feColorMatrix in="SourceAlpha" type="matrix" values="0 0 0 0 0 0 0 0 0 0 0 0 0 0 0 0 0 0 127 0" result="hardAlpha"/>
<feOffset dy="15"/>
<feGaussianBlur stdDeviation="19"/>
<feComposite in2="hardAlpha" operator="out"/>
<feColorMatrix type="matrix" values="0 0 0 0 0.941176 0 0 0 0 0.180392 0 0 0 0 0.396078 0 0 0 1 0"/>
<feBlend mode="normal" in2="BackgroundImageFix" result="effect1_dropShadow_2822_20250"/>
<feBlend mode="normal" in="SourceGraphic" in2="effect1_dropShadow_2822_20250" result="shape"/>
</filter>
</defs>
</svg>
