<svg width="419" height="218" viewBox="0 0 419 218" fill="none" xmlns="http://www.w3.org/2000/svg">
  <path
    d="M2.49964 25.7063V24.837L6.33487 18.7688H6.96555V20.1154H6.53942L3.64169 24.7006V24.7688H8.80646V25.7063H2.49964ZM6.6076 27.4961V25.4421V25.0373V18.7688H7.61328V27.4961H6.6076ZM13.25 27.6154C12.608 27.6154 12.0611 27.4407 11.6094 27.0913C11.1577 26.739 10.8125 26.229 10.5739 25.5614C10.3352 24.891 10.2159 24.0813 10.2159 23.1325C10.2159 22.1893 10.3352 21.3839 10.5739 20.7163C10.8153 20.0458 11.1619 19.5344 11.6136 19.1822C12.0682 18.8271 12.6136 18.6495 13.25 18.6495C13.8864 18.6495 14.4304 18.8271 14.8821 19.1822C15.3366 19.5344 15.6832 20.0458 15.9219 20.7163C16.1634 21.3839 16.2841 22.1893 16.2841 23.1325C16.2841 24.0813 16.1648 24.891 15.9261 25.5614C15.6875 26.229 15.3423 26.739 14.8906 27.0913C14.4389 27.4407 13.892 27.6154 13.25 27.6154ZM13.25 26.6779C13.8864 26.6779 14.3807 26.3711 14.733 25.7575C15.0852 25.1438 15.2614 24.2688 15.2614 23.1325C15.2614 22.3768 15.1804 21.7333 15.0185 21.2021C14.8594 20.6708 14.6293 20.266 14.3281 19.9876C14.0298 19.7092 13.6705 19.57 13.25 19.57C12.6193 19.57 12.1264 19.881 11.7713 20.5032C11.4162 21.1225 11.2386 21.9989 11.2386 23.1325C11.2386 23.8881 11.3182 24.5302 11.4773 25.0586C11.6364 25.587 11.8651 25.989 12.1634 26.2646C12.4645 26.5401 12.8267 26.6779 13.25 26.6779ZM20.75 27.6154C20.108 27.6154 19.5611 27.4407 19.1094 27.0913C18.6577 26.739 18.3125 26.229 18.0739 25.5614C17.8352 24.891 17.7159 24.0813 17.7159 23.1325C17.7159 22.1893 17.8352 21.3839 18.0739 20.7163C18.3153 20.0458 18.6619 19.5344 19.1136 19.1822C19.5682 18.8271 20.1136 18.6495 20.75 18.6495C21.3864 18.6495 21.9304 18.8271 22.3821 19.1822C22.8366 19.5344 23.1832 20.0458 23.4219 20.7163C23.6634 21.3839 23.7841 22.1893 23.7841 23.1325C23.7841 24.0813 23.6648 24.891 23.4261 25.5614C23.1875 26.229 22.8423 26.739 22.3906 27.0913C21.9389 27.4407 21.392 27.6154 20.75 27.6154ZM20.75 26.6779C21.3864 26.6779 21.8807 26.3711 22.233 25.7575C22.5852 25.1438 22.7614 24.2688 22.7614 23.1325C22.7614 22.3768 22.6804 21.7333 22.5185 21.2021C22.3594 20.6708 22.1293 20.266 21.8281 19.9876C21.5298 19.7092 21.1705 19.57 20.75 19.57C20.1193 19.57 19.6264 19.881 19.2713 20.5032C18.9162 21.1225 18.7386 21.9989 18.7386 23.1325C18.7386 23.8881 18.8182 24.5302 18.9773 25.0586C19.1364 25.587 19.3651 25.989 19.6634 26.2646C19.9645 26.5401 20.3267 26.6779 20.75 26.6779ZM28.25 27.6154C27.608 27.6154 27.0611 27.4407 26.6094 27.0913C26.1577 26.739 25.8125 26.229 25.5739 25.5614C25.3352 24.891 25.2159 24.0813 25.2159 23.1325C25.2159 22.1893 25.3352 21.3839 25.5739 20.7163C25.8153 20.0458 26.1619 19.5344 26.6136 19.1822C27.0682 18.8271 27.6136 18.6495 28.25 18.6495C28.8864 18.6495 29.4304 18.8271 29.8821 19.1822C30.3366 19.5344 30.6832 20.0458 30.9219 20.7163C31.1634 21.3839 31.2841 22.1893 31.2841 23.1325C31.2841 24.0813 31.1648 24.891 30.9261 25.5614C30.6875 26.229 30.3423 26.739 29.8906 27.0913C29.4389 27.4407 28.892 27.6154 28.25 27.6154ZM28.25 26.6779C28.8864 26.6779 29.3807 26.3711 29.733 25.7575C30.0852 25.1438 30.2614 24.2688 30.2614 23.1325C30.2614 22.3768 30.1804 21.7333 30.0185 21.2021C29.8594 20.6708 29.6293 20.266 29.3281 19.9876C29.0298 19.7092 28.6705 19.57 28.25 19.57C27.6193 19.57 27.1264 19.881 26.7713 20.5032C26.4162 21.1225 26.2386 21.9989 26.2386 23.1325C26.2386 23.8881 26.3182 24.5302 26.4773 25.0586C26.6364 25.587 26.8651 25.989 27.1634 26.2646C27.4645 26.5401 27.8267 26.6779 28.25 26.6779Z"
    fill="#868EA3" />
  <line opacity="0.2" x1="48" y1="23.2461" x2="425" y2="23.2461" stroke="#E4E4E7" stroke-width="0.5" />
  <path
    d="M5.71165 62.8849C5.14915 62.8849 4.64773 62.7884 4.20739 62.5952C3.76989 62.402 3.42188 62.1335 3.16335 61.7898C2.90767 61.4432 2.76847 61.0412 2.74574 60.5838H3.8196C3.84233 60.8651 3.93892 61.108 4.10938 61.3125C4.27983 61.5142 4.50284 61.6705 4.77841 61.7812C5.05398 61.892 5.35938 61.9474 5.6946 61.9474C6.0696 61.9474 6.40199 61.8821 6.69176 61.7514C6.98153 61.6207 7.20881 61.4389 7.37358 61.206C7.53835 60.973 7.62074 60.7031 7.62074 60.3963C7.62074 60.0753 7.54119 59.7926 7.3821 59.5483C7.22301 59.3011 6.99006 59.108 6.68324 58.9688C6.37642 58.8295 6.00142 58.7599 5.55824 58.7599H4.85938V57.8224H5.55824C5.90483 57.8224 6.20881 57.7599 6.47017 57.6349C6.73438 57.5099 6.94034 57.3338 7.08807 57.1065C7.23864 56.8793 7.31392 56.6122 7.31392 56.3054C7.31392 56.0099 7.24858 55.7528 7.1179 55.5341C6.98722 55.3153 6.80256 55.1449 6.56392 55.0227C6.32813 54.9006 6.04972 54.8395 5.72869 54.8395C5.42756 54.8395 5.14347 54.8949 4.87642 55.0057C4.61222 55.1136 4.39631 55.2713 4.22869 55.4787C4.06108 55.6832 3.97017 55.9304 3.95597 56.2202H2.93324C2.95028 55.7628 3.08807 55.3622 3.34659 55.0185C3.60511 54.6719 3.94318 54.402 4.3608 54.2088C4.78125 54.0156 5.2429 53.919 5.74574 53.919C6.28551 53.919 6.74858 54.0284 7.13494 54.2472C7.52131 54.4631 7.81818 54.7486 8.02557 55.1037C8.23295 55.4588 8.33665 55.8423 8.33665 56.2543C8.33665 56.7457 8.20739 57.1648 7.94886 57.5114C7.69318 57.858 7.34517 58.098 6.90483 58.2315V58.2997C7.45597 58.3906 7.88636 58.625 8.19602 59.0028C8.50568 59.3778 8.66051 59.8423 8.66051 60.3963C8.66051 60.8707 8.53125 61.2969 8.27273 61.6747C8.01705 62.0497 7.66761 62.3452 7.22443 62.5611C6.78125 62.777 6.27699 62.8849 5.71165 62.8849ZM13.25 62.8849C12.608 62.8849 12.0611 62.7102 11.6094 62.3608C11.1577 62.0085 10.8125 61.4986 10.5739 60.831C10.3352 60.1605 10.2159 59.3509 10.2159 58.402C10.2159 57.4588 10.3352 56.6534 10.5739 55.9858C10.8153 55.3153 11.1619 54.804 11.6136 54.4517C12.0682 54.0966 12.6136 53.919 13.25 53.919C13.8864 53.919 14.4304 54.0966 14.8821 54.4517C15.3366 54.804 15.6832 55.3153 15.9219 55.9858C16.1634 56.6534 16.2841 57.4588 16.2841 58.402C16.2841 59.3509 16.1648 60.1605 15.9261 60.831C15.6875 61.4986 15.3423 62.0085 14.8906 62.3608C14.4389 62.7102 13.892 62.8849 13.25 62.8849ZM13.25 61.9474C13.8864 61.9474 14.3807 61.6406 14.733 61.027C15.0852 60.4134 15.2614 59.5384 15.2614 58.402C15.2614 57.6463 15.1804 57.0028 15.0185 56.4716C14.8594 55.9403 14.6293 55.5355 14.3281 55.2571C14.0298 54.9787 13.6705 54.8395 13.25 54.8395C12.6193 54.8395 12.1264 55.1506 11.7713 55.7727C11.4162 56.392 11.2386 57.2685 11.2386 58.402C11.2386 59.1577 11.3182 59.7997 11.4773 60.3281C11.6364 60.8565 11.8651 61.2585 12.1634 61.5341C12.4645 61.8097 12.8267 61.9474 13.25 61.9474ZM20.75 62.8849C20.108 62.8849 19.5611 62.7102 19.1094 62.3608C18.6577 62.0085 18.3125 61.4986 18.0739 60.831C17.8352 60.1605 17.7159 59.3509 17.7159 58.402C17.7159 57.4588 17.8352 56.6534 18.0739 55.9858C18.3153 55.3153 18.6619 54.804 19.1136 54.4517C19.5682 54.0966 20.1136 53.919 20.75 53.919C21.3864 53.919 21.9304 54.0966 22.3821 54.4517C22.8366 54.804 23.1832 55.3153 23.4219 55.9858C23.6634 56.6534 23.7841 57.4588 23.7841 58.402C23.7841 59.3509 23.6648 60.1605 23.4261 60.831C23.1875 61.4986 22.8423 62.0085 22.3906 62.3608C21.9389 62.7102 21.392 62.8849 20.75 62.8849ZM20.75 61.9474C21.3864 61.9474 21.8807 61.6406 22.233 61.027C22.5852 60.4134 22.7614 59.5384 22.7614 58.402C22.7614 57.6463 22.6804 57.0028 22.5185 56.4716C22.3594 55.9403 22.1293 55.5355 21.8281 55.2571C21.5298 54.9787 21.1705 54.8395 20.75 54.8395C20.1193 54.8395 19.6264 55.1506 19.2713 55.7727C18.9162 56.392 18.7386 57.2685 18.7386 58.402C18.7386 59.1577 18.8182 59.7997 18.9773 60.3281C19.1364 60.8565 19.3651 61.2585 19.6634 61.5341C19.9645 61.8097 20.3267 61.9474 20.75 61.9474ZM28.25 62.8849C27.608 62.8849 27.0611 62.7102 26.6094 62.3608C26.1577 62.0085 25.8125 61.4986 25.5739 60.831C25.3352 60.1605 25.2159 59.3509 25.2159 58.402C25.2159 57.4588 25.3352 56.6534 25.5739 55.9858C25.8153 55.3153 26.1619 54.804 26.6136 54.4517C27.0682 54.0966 27.6136 53.919 28.25 53.919C28.8864 53.919 29.4304 54.0966 29.8821 54.4517C30.3366 54.804 30.6832 55.3153 30.9219 55.9858C31.1634 56.6534 31.2841 57.4588 31.2841 58.402C31.2841 59.3509 31.1648 60.1605 30.9261 60.831C30.6875 61.4986 30.3423 62.0085 29.8906 62.3608C29.4389 62.7102 28.892 62.8849 28.25 62.8849ZM28.25 61.9474C28.8864 61.9474 29.3807 61.6406 29.733 61.027C30.0852 60.4134 30.2614 59.5384 30.2614 58.402C30.2614 57.6463 30.1804 57.0028 30.0185 56.4716C29.8594 55.9403 29.6293 55.5355 29.3281 55.2571C29.0298 54.9787 28.6705 54.8395 28.25 54.8395C27.6193 54.8395 27.1264 55.1506 26.7713 55.7727C26.4162 56.392 26.2386 57.2685 26.2386 58.402C26.2386 59.1577 26.3182 59.7997 26.4773 60.3281C26.6364 60.8565 26.8651 61.2585 27.1634 61.5341C27.4645 61.8097 27.8267 61.9474 28.25 61.9474Z"
    fill="#868EA3" />
  <line opacity="0.2" x1="48" y1="58.5156" x2="425" y2="58.5156" stroke="#E4E4E7" stroke-width="0.5" />
  <path
    d="M3.13778 98.9648V98.1978L6.01847 95.0444C6.35653 94.6751 6.63494 94.354 6.85369 94.0813C7.07244 93.8058 7.23438 93.5472 7.33949 93.3058C7.44744 93.0614 7.50142 92.8058 7.50142 92.5387C7.50142 92.2319 7.42756 91.9663 7.27983 91.7418C7.13494 91.5174 6.93608 91.3441 6.68324 91.2219C6.4304 91.0998 6.14631 91.0387 5.83097 91.0387C5.49574 91.0387 5.20312 91.1083 4.95312 91.2475C4.70597 91.3839 4.5142 91.5756 4.37784 91.8228C4.24432 92.07 4.17756 92.3597 4.17756 92.6921H3.17188C3.17188 92.1808 3.28977 91.7319 3.52557 91.3455C3.76136 90.9592 4.08239 90.658 4.48864 90.4421C4.89773 90.2262 5.35653 90.1183 5.86506 90.1183C6.37642 90.1183 6.82955 90.2262 7.22443 90.4421C7.61932 90.658 7.92898 90.9492 8.15341 91.3157C8.37784 91.6822 8.49006 92.0898 8.49006 92.5387C8.49006 92.8597 8.43182 93.1737 8.31534 93.4805C8.2017 93.7844 8.00284 94.1239 7.71875 94.4989C7.4375 94.8711 7.04688 95.3256 6.54688 95.8626L4.58665 97.9592V98.0273H8.64347V98.9648H3.13778ZM13.25 99.0842C12.608 99.0842 12.0611 98.9094 11.6094 98.56C11.1577 98.2077 10.8125 97.6978 10.5739 97.0302C10.3352 96.3597 10.2159 95.5501 10.2159 94.6012C10.2159 93.658 10.3352 92.8526 10.5739 92.185C10.8153 91.5146 11.1619 91.0032 11.6136 90.6509C12.0682 90.2958 12.6136 90.1183 13.25 90.1183C13.8864 90.1183 14.4304 90.2958 14.8821 90.6509C15.3366 91.0032 15.6832 91.5146 15.9219 92.185C16.1634 92.8526 16.2841 93.658 16.2841 94.6012C16.2841 95.5501 16.1648 96.3597 15.9261 97.0302C15.6875 97.6978 15.3423 98.2077 14.8906 98.56C14.4389 98.9094 13.892 99.0842 13.25 99.0842ZM13.25 98.1467C13.8864 98.1467 14.3807 97.8398 14.733 97.2262C15.0852 96.6126 15.2614 95.7376 15.2614 94.6012C15.2614 93.8455 15.1804 93.2021 15.0185 92.6708C14.8594 92.1396 14.6293 91.7347 14.3281 91.4563C14.0298 91.1779 13.6705 91.0387 13.25 91.0387C12.6193 91.0387 12.1264 91.3498 11.7713 91.9719C11.4162 92.5913 11.2386 93.4677 11.2386 94.6012C11.2386 95.3569 11.3182 95.9989 11.4773 96.5273C11.6364 97.0558 11.8651 97.4577 12.1634 97.7333C12.4645 98.0089 12.8267 98.1467 13.25 98.1467ZM20.75 99.0842C20.108 99.0842 19.5611 98.9094 19.1094 98.56C18.6577 98.2077 18.3125 97.6978 18.0739 97.0302C17.8352 96.3597 17.7159 95.5501 17.7159 94.6012C17.7159 93.658 17.8352 92.8526 18.0739 92.185C18.3153 91.5146 18.6619 91.0032 19.1136 90.6509C19.5682 90.2958 20.1136 90.1183 20.75 90.1183C21.3864 90.1183 21.9304 90.2958 22.3821 90.6509C22.8366 91.0032 23.1832 91.5146 23.4219 92.185C23.6634 92.8526 23.7841 93.658 23.7841 94.6012C23.7841 95.5501 23.6648 96.3597 23.4261 97.0302C23.1875 97.6978 22.8423 98.2077 22.3906 98.56C21.9389 98.9094 21.392 99.0842 20.75 99.0842ZM20.75 98.1467C21.3864 98.1467 21.8807 97.8398 22.233 97.2262C22.5852 96.6126 22.7614 95.7376 22.7614 94.6012C22.7614 93.8455 22.6804 93.2021 22.5185 92.6708C22.3594 92.1396 22.1293 91.7347 21.8281 91.4563C21.5298 91.1779 21.1705 91.0387 20.75 91.0387C20.1193 91.0387 19.6264 91.3498 19.2713 91.9719C18.9162 92.5913 18.7386 93.4677 18.7386 94.6012C18.7386 95.3569 18.8182 95.9989 18.9773 96.5273C19.1364 97.0558 19.3651 97.4577 19.6634 97.7333C19.9645 98.0089 20.3267 98.1467 20.75 98.1467ZM28.25 99.0842C27.608 99.0842 27.0611 98.9094 26.6094 98.56C26.1577 98.2077 25.8125 97.6978 25.5739 97.0302C25.3352 96.3597 25.2159 95.5501 25.2159 94.6012C25.2159 93.658 25.3352 92.8526 25.5739 92.185C25.8153 91.5146 26.1619 91.0032 26.6136 90.6509C27.0682 90.2958 27.6136 90.1183 28.25 90.1183C28.8864 90.1183 29.4304 90.2958 29.8821 90.6509C30.3366 91.0032 30.6832 91.5146 30.9219 92.185C31.1634 92.8526 31.2841 93.658 31.2841 94.6012C31.2841 95.5501 31.1648 96.3597 30.9261 97.0302C30.6875 97.6978 30.3423 98.2077 29.8906 98.56C29.4389 98.9094 28.892 99.0842 28.25 99.0842ZM28.25 98.1467C28.8864 98.1467 29.3807 97.8398 29.733 97.2262C30.0852 96.6126 30.2614 95.7376 30.2614 94.6012C30.2614 93.8455 30.1804 93.2021 30.0185 92.6708C29.8594 92.1396 29.6293 91.7347 29.3281 91.4563C29.0298 91.1779 28.6705 91.0387 28.25 91.0387C27.6193 91.0387 27.1264 91.3498 26.7713 91.9719C26.4162 92.5913 26.2386 93.4677 26.2386 94.6012C26.2386 95.3569 26.3182 95.9989 26.4773 96.5273C26.6364 97.0558 26.8651 97.4577 27.1634 97.7333C27.4645 98.0089 27.8267 98.1467 28.25 98.1467Z"
    fill="#868EA3" />
  <line opacity="0.2" x1="48" y1="94.7148" x2="425" y2="94.7148" stroke="#E4E4E7" stroke-width="0.5" />
  <path
    d="M7.89347 125.503V134.23H6.83665V126.611H6.78551L4.65483 128.026V126.952L6.83665 125.503H7.89347ZM13.25 134.35C12.608 134.35 12.0611 134.175 11.6094 133.826C11.1577 133.473 10.8125 132.963 10.5739 132.296C10.3352 131.625 10.2159 130.816 10.2159 129.867C10.2159 128.924 10.3352 128.118 10.5739 127.451C10.8153 126.78 11.1619 126.269 11.6136 125.917C12.0682 125.561 12.6136 125.384 13.25 125.384C13.8864 125.384 14.4304 125.561 14.8821 125.917C15.3366 126.269 15.6832 126.78 15.9219 127.451C16.1634 128.118 16.2841 128.924 16.2841 129.867C16.2841 130.816 16.1648 131.625 15.9261 132.296C15.6875 132.963 15.3423 133.473 14.8906 133.826C14.4389 134.175 13.892 134.35 13.25 134.35ZM13.25 133.412C13.8864 133.412 14.3807 133.105 14.733 132.492C15.0852 131.878 15.2614 131.003 15.2614 129.867C15.2614 129.111 15.1804 128.468 15.0185 127.936C14.8594 127.405 14.6293 127 14.3281 126.722C14.0298 126.444 13.6705 126.304 13.25 126.304C12.6193 126.304 12.1264 126.615 11.7713 127.238C11.4162 127.857 11.2386 128.733 11.2386 129.867C11.2386 130.623 11.3182 131.265 11.4773 131.793C11.6364 132.321 11.8651 132.723 12.1634 132.999C12.4645 133.275 12.8267 133.412 13.25 133.412ZM20.75 134.35C20.108 134.35 19.5611 134.175 19.1094 133.826C18.6577 133.473 18.3125 132.963 18.0739 132.296C17.8352 131.625 17.7159 130.816 17.7159 129.867C17.7159 128.924 17.8352 128.118 18.0739 127.451C18.3153 126.78 18.6619 126.269 19.1136 125.917C19.5682 125.561 20.1136 125.384 20.75 125.384C21.3864 125.384 21.9304 125.561 22.3821 125.917C22.8366 126.269 23.1832 126.78 23.4219 127.451C23.6634 128.118 23.7841 128.924 23.7841 129.867C23.7841 130.816 23.6648 131.625 23.4261 132.296C23.1875 132.963 22.8423 133.473 22.3906 133.826C21.9389 134.175 21.392 134.35 20.75 134.35ZM20.75 133.412C21.3864 133.412 21.8807 133.105 22.233 132.492C22.5852 131.878 22.7614 131.003 22.7614 129.867C22.7614 129.111 22.6804 128.468 22.5185 127.936C22.3594 127.405 22.1293 127 21.8281 126.722C21.5298 126.444 21.1705 126.304 20.75 126.304C20.1193 126.304 19.6264 126.615 19.2713 127.238C18.9162 127.857 18.7386 128.733 18.7386 129.867C18.7386 130.623 18.8182 131.265 18.9773 131.793C19.1364 132.321 19.3651 132.723 19.6634 132.999C19.9645 133.275 20.3267 133.412 20.75 133.412ZM28.25 134.35C27.608 134.35 27.0611 134.175 26.6094 133.826C26.1577 133.473 25.8125 132.963 25.5739 132.296C25.3352 131.625 25.2159 130.816 25.2159 129.867C25.2159 128.924 25.3352 128.118 25.5739 127.451C25.8153 126.78 26.1619 126.269 26.6136 125.917C27.0682 125.561 27.6136 125.384 28.25 125.384C28.8864 125.384 29.4304 125.561 29.8821 125.917C30.3366 126.269 30.6832 126.78 30.9219 127.451C31.1634 128.118 31.2841 128.924 31.2841 129.867C31.2841 130.816 31.1648 131.625 30.9261 132.296C30.6875 132.963 30.3423 133.473 29.8906 133.826C29.4389 134.175 28.892 134.35 28.25 134.35ZM28.25 133.412C28.8864 133.412 29.3807 133.105 29.733 132.492C30.0852 131.878 30.2614 131.003 30.2614 129.867C30.2614 129.111 30.1804 128.468 30.0185 127.936C29.8594 127.405 29.6293 127 29.3281 126.722C29.0298 126.444 28.6705 126.304 28.25 126.304C27.6193 126.304 27.1264 126.615 26.7713 127.238C26.4162 127.857 26.2386 128.733 26.2386 129.867C26.2386 130.623 26.3182 131.265 26.4773 131.793C26.6364 132.321 26.8651 132.723 27.1634 132.999C27.4645 133.275 27.8267 133.412 28.25 133.412Z"
    fill="#868EA3" />
  <line opacity="0.2" x1="48" y1="129.98" x2="425" y2="129.98" stroke="#E4E4E7" stroke-width="0.5" />
  <path
    d="M28.25 169.623C27.608 169.623 27.0611 169.449 26.6094 169.099C26.1577 168.747 25.8125 168.237 25.5739 167.569C25.3352 166.899 25.2159 166.089 25.2159 165.14C25.2159 164.197 25.3352 163.392 25.5739 162.724C25.8153 162.054 26.1619 161.542 26.6136 161.19C27.0682 160.835 27.6136 160.657 28.25 160.657C28.8864 160.657 29.4304 160.835 29.8821 161.19C30.3366 161.542 30.6832 162.054 30.9219 162.724C31.1634 163.392 31.2841 164.197 31.2841 165.14C31.2841 166.089 31.1648 166.899 30.9261 167.569C30.6875 168.237 30.3423 168.747 29.8906 169.099C29.4389 169.449 28.892 169.623 28.25 169.623ZM28.25 168.686C28.8864 168.686 29.3807 168.379 29.733 167.765C30.0852 167.152 30.2614 166.277 30.2614 165.14C30.2614 164.385 30.1804 163.741 30.0185 163.21C29.8594 162.679 29.6293 162.274 29.3281 161.995C29.0298 161.717 28.6705 161.578 28.25 161.578C27.6193 161.578 27.1264 161.889 26.7713 162.511C26.4162 163.13 26.2386 164.007 26.2386 165.14C26.2386 165.896 26.3182 166.538 26.4773 167.066C26.6364 167.595 26.8651 167.997 27.1634 168.272C27.4645 168.548 27.8267 168.686 28.25 168.686Z"
    fill="#868EA3" />
  <line opacity="0.2" x1="48" y1="165.254" x2="425" y2="165.254" stroke="#E4E4E7" stroke-width="0.5" />
  <g filter="url(#filter0_d_3981_110472)">
    <path
      d="M48 164C66.7936 164 93.0874 153.062 102.877 140.085C124.678 111.189 117.912 73.8221 146.103 73.8221C174.293 73.8221 186.697 99.7295 208.122 99.7295C229.546 99.7295 231.802 82.2918 258.113 47.4164C284.424 12.5409 305.218 84.6175 325.77 81.2954C346.321 77.9733 334.791 24 425 24"
      stroke="#F02E65" stroke-width="1.2" />
  </g>
  <path
    d="M54.6601 174.273V183H53.6033V175.381H53.5521L51.4215 176.795V175.722L53.6033 174.273H54.6601ZM59.8973 183.119C59.3973 183.119 58.947 183.02 58.5465 182.821C58.1459 182.622 57.8249 182.349 57.5834 182.003C57.3419 181.656 57.2098 181.261 57.1871 180.818H58.2098C58.2496 181.213 58.4286 181.54 58.7467 181.798C59.0678 182.054 59.4513 182.182 59.8973 182.182C60.2553 182.182 60.5735 182.098 60.8519 181.93C61.1331 181.763 61.3533 181.533 61.5124 181.24C61.6743 180.945 61.7553 180.611 61.7553 180.239C61.7553 179.858 61.6715 179.518 61.5038 179.22C61.3391 178.919 61.1118 178.682 60.822 178.509C60.5323 178.335 60.2013 178.247 59.8291 178.244C59.5621 178.241 59.2879 178.283 59.0067 178.368C58.7254 178.45 58.4939 178.557 58.3121 178.688L57.3235 178.568L57.8519 174.273H62.386V175.21H58.7382L58.4314 177.784H58.4825C58.6615 177.642 58.886 177.524 59.1558 177.43C59.4257 177.337 59.707 177.29 59.9996 177.29C60.5337 177.29 61.0095 177.418 61.4271 177.673C61.8476 177.926 62.1771 178.273 62.4158 178.713C62.6573 179.153 62.778 179.656 62.778 180.222C62.778 180.778 62.653 181.276 62.403 181.713C62.1558 182.148 61.8149 182.491 61.3803 182.744C60.9456 182.994 60.4513 183.119 59.8973 183.119ZM71.3401 174.273H72.397V180.511C72.397 181.068 72.2947 181.541 72.0901 181.93C71.8856 182.32 71.5972 182.615 71.2251 182.817C70.8529 183.018 70.414 183.119 69.9083 183.119C69.431 183.119 69.0063 183.033 68.6342 182.859C68.262 182.683 67.9694 182.433 67.7563 182.109C67.5433 181.786 67.4367 181.401 67.4367 180.955H68.4765C68.4765 181.202 68.5376 181.418 68.6597 181.602C68.7847 181.784 68.9552 181.926 69.1711 182.028C69.387 182.131 69.6328 182.182 69.9083 182.182C70.2123 182.182 70.4708 182.118 70.6839 181.99C70.897 181.862 71.0589 181.675 71.1697 181.428C71.2833 181.178 71.3401 180.872 71.3401 180.511V174.273ZM78.5035 180.324V176.455H79.5092V183H78.5035V181.892H78.4353C78.2819 182.224 78.0433 182.507 77.7194 182.74C77.3955 182.97 76.9864 183.085 76.4921 183.085C76.083 183.085 75.7194 182.996 75.4012 182.817C75.083 182.635 74.833 182.362 74.6512 181.999C74.4694 181.632 74.3785 181.17 74.3785 180.614V176.455H75.3842V180.545C75.3842 181.023 75.5177 181.403 75.7847 181.688C76.0546 181.972 76.3984 182.114 76.816 182.114C77.066 182.114 77.3203 182.05 77.5788 181.922C77.8401 181.794 78.0589 181.598 78.235 181.334C78.414 181.07 78.5035 180.733 78.5035 180.324ZM82.3568 174.273V183H81.3511V174.273H82.3568ZM84.8465 185.455C84.6761 185.455 84.5241 185.44 84.3906 185.412C84.257 185.386 84.1647 185.361 84.1136 185.335L84.3693 184.449C84.6136 184.511 84.8295 184.534 85.017 184.517C85.2045 184.5 85.3707 184.416 85.5156 184.266C85.6633 184.118 85.7982 183.878 85.9204 183.545L86.1079 183.034L83.6874 176.455H84.7784L86.5852 181.67H86.6534L88.4602 176.455H89.5511L86.7727 183.955C86.6477 184.293 86.4928 184.572 86.3082 184.794C86.1235 185.018 85.909 185.185 85.6647 185.293C85.4232 185.401 85.1505 185.455 84.8465 185.455Z"
    fill="#868EA3" />
  <path
    d="M388.045 174.273V183H386.988V175.381H386.937L384.806 176.795V175.722L386.988 174.273H388.045ZM393.452 183.119C393.094 183.114 392.737 183.045 392.379 182.915C392.021 182.784 391.694 182.564 391.398 182.254C391.103 181.942 390.866 181.52 390.687 180.989C390.508 180.455 390.418 179.784 390.418 178.977C390.418 178.205 390.491 177.52 390.636 176.923C390.781 176.324 390.991 175.82 391.266 175.411C391.542 174.999 391.874 174.686 392.263 174.473C392.656 174.26 393.097 174.153 393.589 174.153C394.077 174.153 394.512 174.251 394.893 174.447C395.276 174.641 395.589 174.911 395.83 175.257C396.072 175.604 396.228 176.003 396.299 176.455H395.259C395.163 176.062 394.975 175.737 394.697 175.479C394.418 175.22 394.049 175.091 393.589 175.091C392.913 175.091 392.38 175.385 391.991 175.973C391.604 176.561 391.41 177.386 391.407 178.449H391.475C391.634 178.207 391.823 178.001 392.042 177.831C392.263 177.658 392.508 177.524 392.775 177.43C393.042 177.337 393.325 177.29 393.623 177.29C394.123 177.29 394.58 177.415 394.995 177.665C395.41 177.912 395.742 178.254 395.992 178.692C396.242 179.126 396.367 179.625 396.367 180.188C396.367 180.727 396.246 181.222 396.005 181.67C395.763 182.116 395.424 182.472 394.987 182.736C394.552 182.997 394.04 183.125 393.452 183.119ZM393.452 182.182C393.81 182.182 394.131 182.092 394.415 181.913C394.702 181.734 394.928 181.494 395.093 181.193C395.261 180.892 395.344 180.557 395.344 180.188C395.344 179.827 395.263 179.499 395.102 179.203C394.942 178.905 394.722 178.668 394.441 178.491C394.163 178.315 393.844 178.227 393.487 178.227C393.217 178.227 392.965 178.281 392.732 178.389C392.499 178.494 392.295 178.639 392.119 178.824C391.945 179.009 391.809 179.22 391.71 179.459C391.61 179.695 391.56 179.943 391.56 180.205C391.56 180.551 391.641 180.875 391.803 181.176C391.968 181.477 392.192 181.72 392.477 181.905C392.763 182.089 393.089 182.182 393.452 182.182ZM401.929 183H400.821L404.026 174.273H405.117L408.321 183H407.213L404.605 175.653H404.537L401.929 183ZM402.338 179.591H406.804V180.528H402.338V179.591ZM413.669 180.324V176.455H414.675V183H413.669V181.892H413.601C413.448 182.224 413.209 182.507 412.885 182.74C412.561 182.97 412.152 183.085 411.658 183.085C411.249 183.085 410.885 182.996 410.567 182.817C410.249 182.635 409.999 182.362 409.817 181.999C409.635 181.632 409.544 181.17 409.544 180.614V176.455H410.55V180.545C410.55 181.023 410.684 181.403 410.951 181.688C411.221 181.972 411.564 182.114 411.982 182.114C412.232 182.114 412.486 182.05 412.745 181.922C413.006 181.794 413.225 181.598 413.401 181.334C413.58 181.07 413.669 180.733 413.669 180.324ZM419.159 185.591C418.673 185.591 418.256 185.528 417.906 185.403C417.557 185.281 417.266 185.119 417.033 184.918C416.803 184.719 416.619 184.506 416.483 184.278L417.284 183.716C417.375 183.835 417.49 183.972 417.629 184.125C417.768 184.281 417.959 184.416 418.2 184.53C418.445 184.646 418.764 184.705 419.159 184.705C419.687 184.705 420.124 184.577 420.467 184.321C420.811 184.065 420.983 183.665 420.983 183.119V181.79H420.898C420.824 181.909 420.719 182.057 420.582 182.233C420.449 182.406 420.256 182.561 420.003 182.697C419.753 182.831 419.415 182.898 418.989 182.898C418.46 182.898 417.986 182.773 417.565 182.523C417.148 182.273 416.817 181.909 416.572 181.432C416.331 180.955 416.21 180.375 416.21 179.693C416.21 179.023 416.328 178.439 416.564 177.942C416.8 177.442 417.128 177.055 417.548 176.783C417.969 176.507 418.455 176.369 419.006 176.369C419.432 176.369 419.77 176.44 420.02 176.582C420.273 176.722 420.466 176.881 420.599 177.06C420.736 177.236 420.841 177.381 420.915 177.494H421.017V176.455H421.989V183.188C421.989 183.75 421.861 184.207 421.605 184.56C421.352 184.915 421.011 185.175 420.582 185.339C420.156 185.507 419.682 185.591 419.159 185.591ZM419.125 181.994C419.528 181.994 419.869 181.902 420.148 181.717C420.426 181.533 420.638 181.267 420.783 180.92C420.928 180.574 421 180.159 421 179.676C421 179.205 420.929 178.788 420.787 178.428C420.645 178.067 420.435 177.784 420.156 177.58C419.878 177.375 419.534 177.273 419.125 177.273C418.699 177.273 418.344 177.381 418.06 177.597C417.778 177.812 417.567 178.102 417.425 178.466C417.286 178.83 417.216 179.233 417.216 179.676C417.216 180.131 417.287 180.533 417.429 180.882C417.574 181.229 417.787 181.501 418.068 181.7C418.352 181.896 418.705 181.994 419.125 181.994Z"
    fill="#868EA3" />
  <defs>
    <filter id="filter0_d_3981_110472" x="10" y="0.400391" width="453" height="217.199" filterUnits="userSpaceOnUse"
      color-interpolation-filters="sRGB">
      <feFlood flood-opacity="0" result="BackgroundImageFix" />
      <feColorMatrix in="SourceAlpha" type="matrix" values="0 0 0 0 0 0 0 0 0 0 0 0 0 0 0 0 0 0 127 0"
        result="hardAlpha" />
      <feOffset dy="15" />
      <feGaussianBlur stdDeviation="19" />
      <feComposite in2="hardAlpha" operator="out" />
      <feColorMatrix type="matrix" values="0 0 0 0 0.941176 0 0 0 0 0.180392 0 0 0 0 0.396078 0 0 0 1 0" />
      <feBlend mode="normal" in2="BackgroundImageFix" result="effect1_dropShadow_3981_110472" />
      <feBlend mode="normal" in="SourceGraphic" in2="effect1_dropShadow_3981_110472" result="shape" />
    </filter>
  </defs>
</svg>