<svg width="425" height="171" fill="none" xmlns="http://www.w3.org/2000/svg"><path d="M2.5 8.706v-.869l3.835-6.068h.63v1.346H6.54L3.642 7.701v.068h5.164v.937H2.5Zm4.108 1.79V1.77h1.005v8.727H6.608Zm6.642.12c-.642 0-1.189-.175-1.64-.525-.452-.352-.797-.862-1.036-1.53-.239-.67-.358-1.48-.358-2.429 0-.943.12-1.748.358-2.416.241-.67.588-1.182 1.04-1.534.454-.355 1-.532 1.636-.532.636 0 1.18.177 1.632.532.455.352.801.864 1.04 1.534.241.668.362 1.473.362 2.416 0 .95-.12 1.759-.358 2.43-.239.667-.584 1.177-1.035 1.53-.452.349-.999.523-1.641.523Zm0-.938c.636 0 1.13-.307 1.483-.92.352-.614.528-1.49.528-2.626 0-.755-.08-1.399-.242-1.93-.16-.531-.39-.936-.69-1.214a1.524 1.524 0 0 0-1.079-.418c-.63 0-1.124.311-1.479.933-.355.62-.532 1.496-.532 2.63 0 .755.08 1.397.238 1.926.16.528.388.93.686 1.206.301.275.664.413 1.087.413Zm7.5.937c-.642 0-1.189-.174-1.64-.524-.452-.352-.797-.862-1.036-1.53-.239-.67-.358-1.48-.358-2.429 0-.943.12-1.748.358-2.416.241-.67.588-1.182 1.04-1.534.454-.355 1-.532 1.636-.532.636 0 1.18.177 1.632.532.455.352.801.864 1.04 1.534.241.668.362 1.473.362 2.416 0 .95-.12 1.759-.358 2.43-.238.667-.584 1.177-1.035 1.53-.452.349-.999.523-1.641.523Zm0-.937c.636 0 1.13-.307 1.483-.92.352-.614.528-1.49.528-2.626 0-.755-.08-1.399-.242-1.93-.16-.531-.39-.936-.69-1.214a1.524 1.524 0 0 0-1.079-.418c-.63 0-1.124.311-1.479.933-.355.62-.532 1.496-.532 2.63 0 .755.08 1.397.238 1.926.16.528.388.93.686 1.206.302.275.664.413 1.087.413Zm7.5.937c-.642 0-1.189-.174-1.64-.524-.452-.352-.797-.862-1.036-1.53-.239-.67-.358-1.48-.358-2.429 0-.943.12-1.748.358-2.416.241-.67.588-1.182 1.04-1.534.454-.355 1-.532 1.636-.532.636 0 1.18.177 1.632.532.455.352.801.864 1.04 1.534.241.668.362 1.473.362 2.416 0 .95-.12 1.759-.358 2.43-.238.667-.584 1.177-1.035 1.53-.452.349-.999.523-1.641.523Zm0-.937c.636 0 1.13-.307 1.483-.92.352-.614.528-1.49.528-2.626 0-.755-.08-1.399-.242-1.93-.16-.531-.39-.936-.69-1.214a1.524 1.524 0 0 0-1.079-.418c-.63 0-1.124.311-1.479.933-.355.62-.532 1.496-.532 2.63 0 .755.08 1.397.238 1.926.16.528.388.93.686 1.206.302.275.664.413 1.087.413Z" fill="#868EA3"/><path opacity=".2" stroke="#E4E4E7" stroke-width=".5" d="M48 6.246h377"/><path d="M5.712 45.885c-.563 0-1.064-.097-1.505-.29a2.577 2.577 0 0 1-1.044-.805 2.165 2.165 0 0 1-.417-1.206H3.82c.022.281.119.524.29.728.17.202.393.358.668.47.276.11.581.165.917.165.375 0 .707-.065.997-.196.29-.13.517-.312.682-.545.164-.233.247-.503.247-.81 0-.32-.08-.603-.239-.848a1.58 1.58 0 0 0-.699-.58c-.307-.139-.682-.208-1.125-.208H4.86v-.938h.7c.346 0 .65-.062.911-.187a1.417 1.417 0 0 0 .844-1.33c0-.295-.065-.552-.196-.77a1.34 1.34 0 0 0-.554-.512 1.794 1.794 0 0 0-.835-.184c-.301 0-.586.056-.853.167-.264.108-.48.265-.647.473a1.232 1.232 0 0 0-.273.741H2.933c.017-.457.155-.858.414-1.201a2.602 2.602 0 0 1 1.014-.81c.42-.193.882-.29 1.385-.29.54 0 1.003.11 1.389.328.386.216.683.502.89.857.208.355.312.738.312 1.15 0 .492-.13.91-.388 1.257a1.965 1.965 0 0 1-1.044.72v.069c.551.09.981.325 1.291.703.31.375.465.84.465 1.393 0 .475-.13.9-.388 1.279-.256.375-.605.67-1.049.886-.443.216-.947.324-1.512.324Zm7.538 0c-.642 0-1.189-.175-1.64-.524-.452-.352-.797-.862-1.036-1.53-.239-.67-.358-1.48-.358-2.429 0-.943.12-1.749.358-2.416.241-.67.588-1.182 1.04-1.534.454-.355 1-.533 1.636-.533.636 0 1.18.178 1.632.533.455.352.801.863 1.04 1.534.241.667.362 1.473.362 2.416 0 .949-.12 1.758-.358 2.429-.239.668-.584 1.177-1.035 1.53-.452.35-.999.524-1.641.524Zm0-.938c.636 0 1.13-.306 1.483-.92.352-.614.528-1.489.528-2.625 0-.756-.08-1.4-.242-1.93-.16-.532-.39-.937-.69-1.215a1.524 1.524 0 0 0-1.079-.417c-.63 0-1.124.31-1.479.933-.355.619-.532 1.495-.532 2.629 0 .756.08 1.398.238 1.926.16.528.388.93.686 1.206.301.276.664.413 1.087.413Zm7.5.938c-.642 0-1.189-.175-1.64-.524-.452-.352-.797-.862-1.036-1.53-.239-.67-.358-1.48-.358-2.429 0-.943.12-1.749.358-2.416.241-.67.588-1.182 1.04-1.534.454-.355 1-.533 1.636-.533.636 0 1.18.178 1.632.533.455.352.801.863 1.04 1.534.241.667.362 1.473.362 2.416 0 .949-.12 1.758-.358 2.429-.238.668-.584 1.177-1.035 1.53-.452.35-.999.524-1.641.524Zm0-.938c.636 0 1.13-.306 1.483-.92.352-.614.528-1.489.528-2.625 0-.756-.08-1.4-.242-1.93-.16-.532-.39-.937-.69-1.215a1.524 1.524 0 0 0-1.079-.417c-.63 0-1.124.31-1.479.933-.355.619-.532 1.495-.532 2.629 0 .756.08 1.398.238 1.926.16.528.388.93.686 1.206.302.276.664.413 1.087.413Zm7.5.938c-.642 0-1.189-.175-1.64-.524-.452-.352-.797-.862-1.036-1.53-.239-.67-.358-1.48-.358-2.429 0-.943.12-1.749.358-2.416.241-.67.588-1.182 1.04-1.534.454-.355 1-.533 1.636-.533.636 0 1.18.178 1.632.533.455.352.801.863 1.04 1.534.241.667.362 1.473.362 2.416 0 .949-.12 1.758-.358 2.429-.238.668-.584 1.177-1.035 1.53-.452.35-.999.524-1.641.524Zm0-.938c.636 0 1.13-.306 1.483-.92.352-.614.528-1.489.528-2.625 0-.756-.08-1.4-.242-1.93-.16-.532-.39-.937-.69-1.215a1.524 1.524 0 0 0-1.079-.417c-.63 0-1.124.31-1.479.933-.355.619-.532 1.495-.532 2.629 0 .756.08 1.398.238 1.926.16.528.388.93.686 1.206.302.276.664.413 1.087.413Z" fill="#868EA3"/><path opacity=".2" stroke="#E4E4E7" stroke-width=".5" d="M48 41.516h377"/><path d="M3.138 81.965v-.767l2.88-3.154c.339-.369.617-.69.836-.963.218-.275.38-.534.485-.775.108-.245.162-.5.162-.767 0-.307-.073-.573-.221-.797a1.438 1.438 0 0 0-.597-.52 1.935 1.935 0 0 0-.852-.183c-.335 0-.628.07-.878.209a1.438 1.438 0 0 0-.575.575c-.134.247-.2.537-.2.87H3.172c0-.512.118-.961.354-1.347.235-.387.556-.688.963-.904.409-.216.868-.324 1.376-.324.511 0 .965.108 1.36.324.394.216.704.507.928.874.225.366.337.774.337 1.223 0 .32-.058.635-.175.942-.113.303-.312.643-.596 1.018-.282.372-.672.827-1.172 1.364l-1.96 2.096v.068h4.056v.938H3.138Zm10.112.12c-.642 0-1.189-.176-1.64-.525-.452-.352-.797-.862-1.036-1.53-.239-.67-.358-1.48-.358-2.429 0-.943.12-1.748.358-2.416.241-.67.588-1.182 1.04-1.534.454-.355 1-.533 1.636-.533.636 0 1.18.178 1.632.533.455.352.801.864 1.04 1.534.241.668.362 1.473.362 2.416 0 .95-.12 1.759-.358 2.43-.239.667-.584 1.177-1.035 1.529-.452.35-.999.524-1.641.524Zm0-.938c.636 0 1.13-.307 1.483-.92.352-.614.528-1.49.528-2.626 0-.755-.08-1.399-.242-1.93-.16-.531-.39-.936-.69-1.215a1.524 1.524 0 0 0-1.079-.417c-.63 0-1.124.31-1.479.933-.355.62-.532 1.496-.532 2.63 0 .755.08 1.397.238 1.925.16.529.388.93.686 1.206.301.276.664.414 1.087.414Zm7.5.937c-.642 0-1.189-.175-1.64-.524-.452-.352-.797-.862-1.036-1.53-.239-.67-.358-1.48-.358-2.429 0-.943.12-1.748.358-2.416.241-.67.588-1.182 1.04-1.534.454-.355 1-.533 1.636-.533.636 0 1.18.178 1.632.533.455.352.801.864 1.04 1.534.241.668.362 1.473.362 2.416 0 .95-.12 1.759-.358 2.43-.238.667-.584 1.177-1.035 1.529-.452.35-.999.524-1.641.524Zm0-.937c.636 0 1.13-.307 1.483-.92.352-.614.528-1.49.528-2.626 0-.755-.08-1.399-.242-1.93-.16-.531-.39-.936-.69-1.215a1.524 1.524 0 0 0-1.079-.417c-.63 0-1.124.31-1.479.933-.355.62-.532 1.496-.532 2.63 0 .755.08 1.397.238 1.925.16.529.388.93.686 1.206.302.276.664.414 1.087.414Zm7.5.937c-.642 0-1.189-.175-1.64-.524-.452-.352-.797-.862-1.036-1.53-.239-.67-.358-1.48-.358-2.429 0-.943.12-1.748.358-2.416.241-.67.588-1.182 1.04-1.534.454-.355 1-.533 1.636-.533.636 0 1.18.178 1.632.533.455.352.801.864 1.04 1.534.241.668.362 1.473.362 2.416 0 .95-.12 1.759-.358 2.43-.238.667-.584 1.177-1.035 1.529-.452.35-.999.524-1.641.524Zm0-.937c.636 0 1.13-.307 1.483-.92.352-.614.528-1.49.528-2.626 0-.755-.08-1.399-.242-1.93-.16-.531-.39-.936-.69-1.215a1.524 1.524 0 0 0-1.079-.417c-.63 0-1.124.31-1.479.933-.355.62-.532 1.496-.532 2.63 0 .755.08 1.397.238 1.925.16.529.388.93.686 1.206.302.276.664.414 1.087.414Z" fill="#868EA3"/><path opacity=".2" stroke="#E4E4E7" stroke-width=".5" d="M48 77.715h377"/><path d="M7.893 108.503v8.727H6.837v-7.619h-.051l-2.131 1.415v-1.074l2.182-1.449h1.056Zm5.357 8.847c-.642 0-1.189-.175-1.64-.524-.452-.353-.797-.863-1.036-1.53-.239-.671-.358-1.48-.358-2.429 0-.943.12-1.749.358-2.416.241-.671.588-1.182 1.04-1.534.454-.356 1-.533 1.636-.533.636 0 1.18.177 1.632.533.455.352.801.863 1.04 1.534.241.667.362 1.473.362 2.416 0 .949-.12 1.758-.358 2.429-.239.667-.584 1.177-1.035 1.53-.452.349-.999.524-1.641.524Zm0-.938c.636 0 1.13-.307 1.483-.92.352-.614.528-1.489.528-2.625 0-.756-.08-1.399-.242-1.931-.16-.531-.39-.936-.69-1.214a1.526 1.526 0 0 0-1.079-.418c-.63 0-1.124.311-1.479.934-.355.619-.532 1.495-.532 2.629 0 .756.08 1.398.238 1.926.16.528.388.93.686 1.206a1.55 1.55 0 0 0 1.087.413Zm7.5.938c-.642 0-1.189-.175-1.64-.524-.452-.353-.797-.863-1.036-1.53-.239-.671-.358-1.48-.358-2.429 0-.943.12-1.749.358-2.416.241-.671.588-1.182 1.04-1.534.454-.356 1-.533 1.636-.533.636 0 1.18.177 1.632.533.455.352.801.863 1.04 1.534.241.667.362 1.473.362 2.416 0 .949-.12 1.758-.358 2.429-.238.667-.584 1.177-1.035 1.53-.452.349-.999.524-1.641.524Zm0-.938c.636 0 1.13-.307 1.483-.92.352-.614.528-1.489.528-2.625 0-.756-.08-1.399-.242-1.931-.16-.531-.39-.936-.69-1.214a1.526 1.526 0 0 0-1.079-.418c-.63 0-1.124.311-1.479.934-.355.619-.532 1.495-.532 2.629 0 .756.08 1.398.238 1.926.16.528.388.93.686 1.206a1.55 1.55 0 0 0 1.087.413Zm7.5.938c-.642 0-1.189-.175-1.64-.524-.452-.353-.797-.863-1.036-1.53-.239-.671-.358-1.48-.358-2.429 0-.943.12-1.749.358-2.416.241-.671.588-1.182 1.04-1.534.454-.356 1-.533 1.636-.533.636 0 1.18.177 1.632.533.455.352.801.863 1.04 1.534.241.667.362 1.473.362 2.416 0 .949-.12 1.758-.358 2.429-.238.667-.584 1.177-1.035 1.53-.452.349-.999.524-1.641.524Zm0-.938c.636 0 1.13-.307 1.483-.92.352-.614.528-1.489.528-2.625 0-.756-.08-1.399-.242-1.931-.16-.531-.39-.936-.69-1.214a1.526 1.526 0 0 0-1.079-.418c-.63 0-1.124.311-1.479.934-.355.619-.532 1.495-.532 2.629 0 .756.08 1.398.238 1.926.16.528.388.93.686 1.206a1.55 1.55 0 0 0 1.087.413Z" fill="#868EA3"/><path opacity=".2" stroke="#E4E4E7" stroke-width=".5" d="M48 112.98h377"/><path d="M28.25 152.623c-.642 0-1.189-.174-1.64-.524-.452-.352-.797-.862-1.036-1.53-.239-.67-.358-1.48-.358-2.429 0-.943.12-1.748.358-2.416.241-.67.588-1.182 1.04-1.534.454-.355 1-.533 1.636-.533.636 0 1.18.178 1.632.533.455.352.801.864 1.04 1.534.241.668.362 1.473.362 2.416 0 .949-.12 1.759-.358 2.429-.238.668-.584 1.178-1.035 1.53-.452.35-.999.524-1.641.524Zm0-.937c.636 0 1.13-.307 1.483-.921.352-.613.528-1.488.528-2.625 0-.755-.08-1.399-.242-1.93-.16-.531-.39-.936-.69-1.215a1.525 1.525 0 0 0-1.079-.417c-.63 0-1.124.311-1.479.933-.355.619-.532 1.496-.532 2.629 0 .756.08 1.398.238 1.926.16.529.388.931.686 1.206.302.276.664.414 1.087.414Z" fill="#868EA3"/><path opacity=".2" stroke="#E4E4E7" stroke-width=".5" d="M48 148.254h377"/><g filter="url(#a)"><path d="M48 147c18.794 0 45.087-10.938 54.877-23.915 21.801-28.896 15.035-66.263 43.226-66.263 28.19 0 40.594 25.907 62.019 25.907 21.424 0 23.68-17.437 49.991-52.313 26.311-34.875 47.105 37.202 67.657 33.88C346.321 60.972 334.791 7 425 7" stroke="#F02E65" stroke-width="1.2"/></g><path d="M54.66 157.273V166h-1.057v-7.619h-.05l-2.131 1.414v-1.073l2.181-1.449h1.057Zm5.237 8.846c-.5 0-.95-.099-1.35-.298a2.515 2.515 0 0 1-.964-.818 2.231 2.231 0 0 1-.396-1.185h1.023c.04.395.219.722.537.98.32.256.704.384 1.15.384.358 0 .677-.084.955-.252.281-.167.501-.397.66-.69.162-.295.243-.629.243-1.001 0-.381-.084-.721-.251-1.019a1.842 1.842 0 0 0-.682-.711 1.921 1.921 0 0 0-.993-.265 2.73 2.73 0 0 0-.822.124 2.269 2.269 0 0 0-.695.32l-.988-.12.528-4.295h4.534v.937h-3.648l-.307 2.574h.052c.178-.142.403-.26.673-.354.27-.093.551-.14.844-.14a2.684 2.684 0 0 1 2.416 1.423c.241.44.362.943.362 1.509 0 .556-.125 1.054-.375 1.491a2.74 2.74 0 0 1-1.023 1.031 2.92 2.92 0 0 1-1.483.375Zm11.443-8.846h1.057v6.238c0 .557-.102 1.03-.307 1.419-.204.39-.493.685-.865.887-.372.201-.811.302-1.317.302-.477 0-.902-.086-1.274-.26a2.099 2.099 0 0 1-.878-.75c-.213-.323-.32-.708-.32-1.154h1.04c0 .247.062.463.184.647.125.182.295.324.511.426.216.103.462.154.737.154.304 0 .563-.064.776-.192.213-.128.375-.315.486-.562.113-.25.17-.556.17-.917v-6.238Zm7.163 6.051v-3.869h1.006V166h-1.005v-1.108h-.069a2.15 2.15 0 0 1-.716.848c-.323.23-.733.345-1.227.345-.409 0-.773-.089-1.09-.268a1.883 1.883 0 0 1-.75-.818c-.183-.367-.273-.829-.273-1.385v-4.159h1.005v4.09c0 .478.134.858.4 1.143.27.284.614.426 1.032.426.25 0 .504-.064.763-.192.261-.128.48-.324.656-.588.179-.264.269-.601.269-1.01Zm3.854-6.051V166H81.35v-8.727h1.006Zm2.49 11.182a2.23 2.23 0 0 1-.456-.043 1.198 1.198 0 0 1-.277-.077l.255-.886c.245.062.46.085.648.068a.778.778 0 0 0 .499-.251c.147-.148.282-.388.404-.721l.188-.511-2.42-6.579h1.09l1.807 5.215h.068l1.807-5.215h1.091l-2.778 7.5c-.125.338-.28.617-.465.839-.184.224-.399.391-.643.499a1.983 1.983 0 0 1-.819.162ZM388.045 157.273V166h-1.057v-7.619h-.051l-2.131 1.414v-1.073l2.182-1.449h1.057Zm5.407 8.846a3.26 3.26 0 0 1-1.073-.204 2.58 2.58 0 0 1-.981-.661c-.295-.312-.532-.734-.711-1.265-.179-.534-.269-1.205-.269-2.012 0-.772.073-1.457.218-2.054.145-.599.355-1.103.63-1.512.276-.412.608-.725.997-.938.393-.213.834-.32 1.326-.32.488 0 .923.098 1.304.294a2.5 2.5 0 0 1 .937.81c.242.347.398.746.469 1.198h-1.04a1.92 1.92 0 0 0-.562-.976c-.279-.259-.648-.388-1.108-.388-.676 0-1.209.294-1.598.882-.387.588-.581 1.413-.584 2.476h.068a2.563 2.563 0 0 1 1.3-1.019c.267-.093.55-.14.848-.14.5 0 .957.125 1.372.375.415.247.747.589.997 1.027.25.434.375.933.375 1.496 0 .539-.121 1.034-.362 1.482a2.765 2.765 0 0 1-1.018 1.066c-.435.261-.947.389-1.535.383Zm0-.937c.358 0 .679-.09.963-.269.287-.179.513-.419.678-.72.168-.301.251-.636.251-1.005 0-.361-.081-.689-.242-.985a1.872 1.872 0 0 0-.661-.712 1.748 1.748 0 0 0-.954-.264c-.27 0-.522.054-.755.162-.233.105-.437.25-.613.435-.174.185-.31.396-.409.635-.1.236-.15.484-.15.746a2.018 2.018 0 0 0 .917 1.7c.286.184.612.277.975.277Zm8.477.818h-1.108l3.205-8.727h1.091l3.204 8.727h-1.108l-2.608-7.347h-.068L401.929 166Zm.409-3.409h4.466v.937h-4.466v-.937Zm11.331.733v-3.869h1.006V166h-1.006v-1.108h-.068a2.146 2.146 0 0 1-.716.848c-.324.23-.733.345-1.227.345-.409 0-.773-.089-1.091-.268a1.885 1.885 0 0 1-.75-.818c-.182-.367-.273-.829-.273-1.385v-4.159h1.006v4.09c0 .478.134.858.401 1.143.27.284.613.426 1.031.426.25 0 .504-.064.763-.192.261-.128.48-.324.656-.588.179-.264.268-.601.268-1.01Zm5.49 5.267c-.486 0-.903-.063-1.253-.188a2.669 2.669 0 0 1-.873-.485 2.646 2.646 0 0 1-.55-.64l.801-.562c.091.119.206.256.345.409.139.156.33.291.571.405.245.116.564.175.959.175.528 0 .965-.128 1.308-.384.344-.256.516-.656.516-1.202v-1.329h-.085a5.36 5.36 0 0 1-.316.443 1.777 1.777 0 0 1-.579.464c-.25.134-.588.201-1.014.201a2.734 2.734 0 0 1-1.424-.375 2.642 2.642 0 0 1-.993-1.091c-.241-.477-.362-1.057-.362-1.739 0-.67.118-1.254.354-1.751.236-.5.564-.887.984-1.159.421-.276.907-.414 1.458-.414.426 0 .764.071 1.014.213.253.14.446.299.579.478.137.176.242.321.316.434h.102v-1.039h.972v6.733c0 .562-.128 1.019-.384 1.372a2.18 2.18 0 0 1-1.023.779c-.426.168-.9.252-1.423.252Zm-.034-3.597c.403 0 .744-.092 1.023-.277.278-.184.49-.45.635-.797.145-.346.217-.761.217-1.244 0-.471-.071-.888-.213-1.248a1.865 1.865 0 0 0-.631-.848c-.278-.205-.622-.307-1.031-.307-.426 0-.781.108-1.065.324a1.958 1.958 0 0 0-.635.869 3.366 3.366 0 0 0-.209 1.21c0 .455.071.857.213 1.206.145.347.358.619.639.818.284.196.637.294 1.057.294Z" fill="#868EA3"/><defs><filter id="a" x="10" y="-16.602" width="453" height="217.203" filterUnits="userSpaceOnUse" color-interpolation-filters="sRGB"><feFlood flood-opacity="0" result="BackgroundImageFix"/><feColorMatrix in="SourceAlpha" values="0 0 0 0 0 0 0 0 0 0 0 0 0 0 0 0 0 0 127 0" result="hardAlpha"/><feOffset dy="15"/><feGaussianBlur stdDeviation="19"/><feComposite in2="hardAlpha" operator="out"/><feColorMatrix values="0 0 0 0 0.941176 0 0 0 0 0.180392 0 0 0 0 0.396078 0 0 0 1 0"/><feBlend in2="BackgroundImageFix" result="effect1_dropShadow_2822_20250"/><feBlend in="SourceGraphic" in2="effect1_dropShadow_2822_20250" result="shape"/></filter></defs></svg>