<svg width="41" height="41" viewBox="0 0 41 41" fill="none" xmlns="http://www.w3.org/2000/svg">
<path d="M14.667 14.5V10.0556C14.667 8.58213 15.2991 7.16905 16.4244 6.12718C17.5496 5.08532 19.0757 4.5 20.667 4.5C22.2583 4.5 23.7844 5.08532 24.9096 6.12718C26.0349 7.16905 26.667 8.58213 26.667 10.0556" stroke="#FD366E" stroke-width="1.2" stroke-linecap="round" stroke-linejoin="round"/>
<path d="M31.5559 14.5H9.7781C8.05988 14.5 6.66699 16.2909 6.66699 18.5V32.5C6.66699 34.7091 8.05988 36.5 9.7781 36.5H31.5559C33.2741 36.5 34.667 34.7091 34.667 32.5V18.5C34.667 16.2909 33.2741 14.5 31.5559 14.5Z" fill="url(#paint0_linear_3129_11900)"/>
<path d="M9.7781 15.1H31.5559V13.9H9.7781V15.1ZM31.5559 15.1C32.8111 15.1 34.067 16.4732 34.067 18.5H35.267C35.267 16.1086 33.7371 13.9 31.5559 13.9V15.1ZM34.067 18.5V32.5H35.267V18.5H34.067ZM34.067 32.5C34.067 34.5268 32.8111 35.9 31.5559 35.9V37.1C33.7371 37.1 35.267 34.8914 35.267 32.5H34.067ZM31.5559 35.9H9.7781V37.1H31.5559V35.9ZM9.7781 35.9C8.52285 35.9 7.26699 34.5268 7.26699 32.5H6.06699C6.06699 34.8914 7.59692 37.1 9.7781 37.1V35.9ZM7.26699 32.5V18.5H6.06699V32.5H7.26699ZM7.26699 18.5C7.26699 16.4732 8.52285 15.1 9.7781 15.1V13.9C7.59692 13.9 6.06699 16.1086 6.06699 18.5H7.26699Z" fill="#FD366E"/>
<g filter="url(#filter0_b_3129_11900)">
<path fill-rule="evenodd" clip-rule="evenodd" d="M22.6755 26.1674C23.7223 25.5021 24.417 24.3322 24.417 23C24.417 20.9289 22.7381 19.25 20.667 19.25C18.5959 19.25 16.917 20.9289 16.917 23C16.917 24.3322 17.6117 25.5021 18.6585 26.1674L17.542 31.75H23.792L22.6755 26.1674Z" fill="#EDEDF0"/>
<path d="M22.6755 26.1674L22.3537 25.6609C22.1444 25.7939 22.0385 26.0419 22.0871 26.285L22.6755 26.1674ZM18.6585 26.1674L19.2469 26.285C19.2955 26.0419 19.1896 25.7939 18.9803 25.6609L18.6585 26.1674ZM17.542 31.75L16.9536 31.6323C16.9184 31.8086 16.964 31.9914 17.078 32.1304C17.192 32.2694 17.3622 32.35 17.542 32.35V31.75ZM23.792 31.75V32.35C23.9717 32.35 24.142 32.2694 24.256 32.1304C24.37 31.9914 24.4156 31.8086 24.3803 31.6323L23.792 31.75ZM23.817 23C23.817 24.1184 23.2346 25.1012 22.3537 25.6609L22.9973 26.6738C24.2101 25.9031 25.017 24.546 25.017 23H23.817ZM20.667 19.85C22.4067 19.85 23.817 21.2603 23.817 23H25.017C25.017 20.5976 23.0694 18.65 20.667 18.65V19.85ZM17.517 23C17.517 21.2603 18.9273 19.85 20.667 19.85V18.65C18.2646 18.65 16.317 20.5976 16.317 23H17.517ZM18.9803 25.6609C18.0994 25.1012 17.517 24.1184 17.517 23H16.317C16.317 24.546 17.1239 25.9031 18.3367 26.6738L18.9803 25.6609ZM18.1303 31.8677L19.2469 26.285L18.0702 26.0497L16.9536 31.6323L18.1303 31.8677ZM23.792 31.15H17.542V32.35H23.792V31.15ZM22.0871 26.285L23.2036 31.8677L24.3803 31.6323L23.2638 26.0497L22.0871 26.285Z" fill="#FD366E"/>
</g>
<path d="M29.667 8.5L33.167 4" stroke="#FD366E" stroke-width="1.2" stroke-linecap="round" stroke-linejoin="round"/>
<path d="M31.667 10.5L33.667 9.5" stroke="#FD366E" stroke-width="1.2" stroke-linecap="round" stroke-linejoin="round"/>
<defs>
<filter id="filter0_b_3129_11900" x="10.3169" y="12.6499" width="20.7002" height="25.7002" filterUnits="userSpaceOnUse" color-interpolation-filters="sRGB">
<feFlood flood-opacity="0" result="BackgroundImageFix"/>
<feGaussianBlur in="BackgroundImageFix" stdDeviation="3"/>
<feComposite in2="SourceAlpha" operator="in" result="effect1_backgroundBlur_3129_11900"/>
<feBlend mode="normal" in="SourceGraphic" in2="effect1_backgroundBlur_3129_11900" result="shape"/>
</filter>
<linearGradient id="paint0_linear_3129_11900" x1="20.6688" y1="14.25" x2="20.6688" y2="36.75" gradientUnits="userSpaceOnUse">
<stop stop-color="#FD366E" stop-opacity="0"/>
<stop offset="1" stop-color="#FD366E" stop-opacity="0.32"/>
</linearGradient>
</defs>
</svg>
