<svg width="56" height="56" viewBox="0 0 56 56" fill="none" xmlns="http://www.w3.org/2000/svg">
<g filter="url(#filter0_d_320_18000)">
<rect x="24.5059" y="0.780762" width="3.43463" height="3.43463" fill="#FD366E"/>
<rect x="24.5039" y="48.866" width="3.43463" height="3.43463" fill="#CA2B58"/>
<rect x="24.5029" y="17.9556" width="3.43463" height="3.43463" fill="#FD366E"/>
<rect x="24.5039" y="31.6934" width="3.43463" height="3.43463" fill="#FD366E"/>
<rect x="27.9375" y="0.781738" width="3.43463" height="3.43463" fill="#FD366E"/>
<rect x="27.9395" y="48.8657" width="3.43463" height="3.43463" fill="#CA2B58"/>
<rect x="27.9395" y="4.21582" width="3.43463" height="3.43463" fill="#FD366E"/>
<rect x="31.374" y="4.21558" width="3.43463" height="3.43463" fill="#FD366E"/>
<rect x="27.9404" y="17.9539" width="3.43463" height="3.43463" fill="#FD366E"/>
<rect x="27.9395" y="31.6926" width="3.43463" height="3.43463" fill="#FD366E"/>
<rect x="17.6348" y="0.781006" width="3.43463" height="3.43463" fill="#FD366E"/>
<rect x="17.6338" y="48.8662" width="3.43463" height="3.43463" fill="#CA2B58"/>
<rect x="17.6357" y="7.65015" width="3.43463" height="3.43463" fill="#FD366E"/>
<rect x="14.2012" y="7.65063" width="3.43463" height="3.43463" fill="white"/>
<rect x="10.7656" y="7.65039" width="3.43463" height="3.43463" fill="white"/>
<rect x="10.7646" y="11.0854" width="3.43463" height="3.43463" fill="white"/>
<rect x="7.33301" y="11.0847" width="3.43463" height="3.43463" fill="white"/>
<rect x="7.33203" y="14.5195" width="3.43463" height="3.43463" fill="white"/>
<rect x="7.3291" y="21.3899" width="3.43463" height="3.43463" fill="white"/>
<rect x="3.89746" y="21.3896" width="3.43463" height="3.43463" fill="white"/>
<rect x="17.6348" y="21.3899" width="3.43463" height="3.43463" fill="white"/>
<rect x="17.6367" y="14.5188" width="3.43463" height="3.43463" fill="white"/>
<rect x="17.6357" y="35.1274" width="3.43463" height="3.43463" fill="white"/>
<rect x="38.2422" y="21.3892" width="3.43463" height="3.43463" fill="white"/>
<rect x="3.89648" y="24.8242" width="3.43463" height="3.43463" fill="white"/>
<rect x="17.6338" y="24.8242" width="3.43463" height="3.43463" fill="white"/>
<rect x="38.2412" y="24.8242" width="3.43463" height="3.43463" fill="white"/>
<rect x="3.89551" y="28.2593" width="3.43463" height="3.43463" fill="white"/>
<rect x="17.6348" y="28.2583" width="3.43463" height="3.43463" fill="white"/>
<rect x="38.2393" y="28.2595" width="3.43463" height="3.43463" fill="white"/>
<rect x="10.7676" y="21.3887" width="3.43463" height="3.43463" fill="white"/>
<rect x="21.0664" y="21.3901" width="3.43463" height="3.43463" fill="white"/>
<rect x="21.0684" y="14.52" width="3.43463" height="3.43463" fill="white"/>
<rect x="21.0684" y="35.1279" width="3.43463" height="3.43463" fill="white"/>
<rect x="21.0693" y="11.0847" width="3.43463" height="3.43463" fill="white"/>
<rect x="21.0684" y="41.9968" width="3.43463" height="3.43463" fill="white"/>
<rect x="10.7666" y="41.9966" width="3.43463" height="3.43463" fill="white"/>
<rect x="7.33301" y="38.562" width="3.43463" height="3.43463" fill="white"/>
<rect x="38.2422" y="38.562" width="3.43463" height="3.43463" fill="white"/>
<rect x="38.2412" y="14.5203" width="3.43463" height="3.43463" fill="white"/>
<rect x="7.33105" y="35.1279" width="3.43463" height="3.43463" fill="white"/>
<rect x="38.2432" y="35.1272" width="3.43463" height="3.43463" fill="white"/>
<rect x="38.2422" y="11.0854" width="3.43463" height="3.43463" fill="white"/>
<rect x="34.8076" y="7.65039" width="3.43463" height="3.43463" fill="white"/>
<rect x="34.8086" y="41.9961" width="3.43463" height="3.43463" fill="white"/>
<rect x="21.0684" y="7.65063" width="3.43463" height="3.43463" fill="white"/>
<rect x="21.0664" y="38.5632" width="3.43463" height="3.43463" fill="white"/>
<rect x="27.9365" y="21.3899" width="3.43463" height="3.43463" fill="white"/>
<rect x="27.9414" y="14.5186" width="3.43463" height="3.43463" fill="white"/>
<rect x="27.9385" y="35.1279" width="3.43463" height="3.43463" fill="white"/>
<rect x="27.9375" y="11.0857" width="3.43463" height="3.43463" fill="white"/>
<rect x="27.9385" y="41.9971" width="3.43463" height="3.43463" fill="white"/>
<rect x="27.9385" y="7.65088" width="3.43463" height="3.43463" fill="white"/>
<rect x="27.9375" y="38.563" width="3.43463" height="3.43463" fill="white"/>
<rect x="41.6768" y="21.3896" width="3.43463" height="3.43463" fill="white"/>
<rect x="10.7656" y="24.8232" width="3.43463" height="3.43463" fill="white"/>
<rect x="24.5059" y="24.823" width="3.43463" height="3.43463" fill="white"/>
<rect x="31.373" y="24.824" width="3.43463" height="3.43463" fill="white"/>
<rect x="45.1104" y="24.8242" width="3.43463" height="3.43463" fill="white"/>
<rect x="10.7656" y="28.2585" width="3.43463" height="3.43463" fill="white"/>
<rect x="24.5049" y="28.2583" width="3.43463" height="3.43463" fill="white"/>
<rect x="31.375" y="28.2578" width="3.43463" height="3.43463" fill="white"/>
<rect x="45.1123" y="28.2583" width="3.43463" height="3.43463" fill="white"/>
<rect x="7.3291" y="21.3899" width="3.43463" height="3.43463" fill="white"/>
<rect x="24.5039" y="21.3889" width="3.43463" height="3.43463" fill="white"/>
<rect x="24.5039" y="14.5203" width="3.43463" height="3.43463" fill="white"/>
<rect x="24.5029" y="35.1277" width="3.43463" height="3.43463" fill="white"/>
<rect x="24.502" y="11.0864" width="3.43463" height="3.43463" fill="white"/>
<rect x="24.5039" y="41.9971" width="3.43463" height="3.43463" fill="white"/>
<rect x="14.2021" y="41.9968" width="3.43463" height="3.43463" fill="white"/>
<rect x="10.7646" y="38.5627" width="3.43463" height="3.43463" fill="white"/>
<rect x="41.6777" y="38.5627" width="3.43463" height="3.43463" fill="white"/>
<rect x="41.6787" y="14.519" width="3.43463" height="3.43463" fill="white"/>
<rect x="10.7627" y="35.1284" width="3.43463" height="3.43463" fill="white"/>
<rect x="41.6787" y="35.1274" width="3.43463" height="3.43463" fill="white"/>
<rect x="41.6777" y="11.0859" width="3.43463" height="3.43463" fill="white"/>
<rect x="38.2402" y="7.65137" width="3.43463" height="3.43463" fill="white"/>
<rect x="38.2412" y="41.9976" width="3.43463" height="3.43463" fill="white"/>
<rect x="24.5029" y="45.4324" width="3.43463" height="3.43463" fill="white"/>
<rect x="24.5029" y="7.65112" width="3.43463" height="3.43463" fill="white"/>
<rect x="24.5049" y="38.562" width="3.43463" height="3.43463" fill="white"/>
<rect x="24.5039" y="4.21655" width="3.43463" height="3.43463" fill="white"/>
<rect x="31.375" y="21.3892" width="3.43463" height="3.43463" fill="white"/>
<rect x="31.374" y="14.5198" width="3.43463" height="3.43463" fill="white"/>
<rect x="31.373" y="35.1284" width="3.43463" height="3.43463" fill="white"/>
<rect x="45.1094" y="21.3901" width="3.43463" height="3.43463" fill="white"/>
<rect x="7.33105" y="24.824" width="3.43463" height="3.43463" fill="white"/>
<rect x="21.0713" y="24.8228" width="3.43463" height="3.43463" fill="white"/>
<rect x="27.9355" y="24.8245" width="3.43463" height="3.43463" fill="white"/>
<rect x="41.6787" y="24.823" width="3.43463" height="3.43463" fill="white"/>
<rect x="7.33301" y="28.2581" width="3.43463" height="3.43463" fill="white"/>
<rect x="21.0703" y="28.2578" width="3.43463" height="3.43463" fill="white"/>
<rect x="27.9375" y="28.2585" width="3.43463" height="3.43463" fill="white"/>
<rect x="41.6777" y="28.2588" width="3.43463" height="3.43463" fill="white"/>
<rect x="10.7666" y="14.5188" width="3.43463" height="3.43463" fill="white"/>
<rect x="17.6338" y="41.9973" width="3.43463" height="3.43463" fill="#FD366E"/>
<rect x="17.6348" y="11.0854" width="3.43463" height="3.43463" fill="#FD366E"/>
<rect x="14.2002" y="11.0857" width="3.43463" height="3.43463" fill="#FD366E"/>
<rect x="17.6348" y="38.5625" width="3.43463" height="3.43463" fill="#FD366E"/>
<rect x="14.2002" y="38.5627" width="3.43463" height="3.43463" fill="#FD366E"/>
<rect x="17.6328" y="17.9551" width="3.43463" height="3.43463" fill="#FD366E"/>
<rect x="17.6367" y="31.6917" width="3.43463" height="3.43463" fill="#FD366E"/>
<rect x="14.1992" y="4.21655" width="3.43463" height="3.43463" fill="#FD366E"/>
<rect x="10.7666" y="4.21533" width="3.43463" height="3.43463" fill="#FD366E"/>
<rect x="14.2012" y="35.1277" width="3.43463" height="3.43463" fill="#FD366E"/>
<rect x="14.1992" y="14.5205" width="3.43463" height="3.43463" fill="#FD366E"/>
<rect x="14.2031" y="17.9534" width="3.43463" height="3.43463" fill="#FD366E"/>
<rect x="14.2021" y="21.3887" width="3.43463" height="3.43463" fill="#FD366E"/>
<rect x="14.2012" y="24.824" width="3.43463" height="3.43463" fill="#FD366E"/>
<rect x="14.2002" y="28.2588" width="3.43463" height="3.43463" fill="#FD366E"/>
<rect x="14.1992" y="31.6934" width="3.43463" height="3.43463" fill="#FD366E"/>
<rect x="31.373" y="0.781982" width="3.43463" height="3.43463" fill="#FD366E"/>
<rect x="31.375" y="48.866" width="3.43463" height="3.43463" fill="#CA2B58"/>
<rect x="31.373" y="7.65112" width="3.43463" height="3.43463" fill="#FD366E"/>
<rect x="31.374" y="41.9971" width="3.43463" height="3.43463" fill="#FD366E"/>
<rect x="31.375" y="11.085" width="3.43463" height="3.43463" fill="#FD366E"/>
<rect x="34.8076" y="11.0852" width="3.43463" height="3.43463" fill="#FD366E"/>
<rect x="31.3721" y="38.5632" width="3.43463" height="3.43463" fill="#FD366E"/>
<rect x="34.8096" y="38.5618" width="3.43463" height="3.43463" fill="#FD366E"/>
<rect x="31.376" y="17.9539" width="3.43463" height="3.43463" fill="#FD366E"/>
<rect x="31.374" y="31.6926" width="3.43463" height="3.43463" fill="#FD366E"/>
<rect x="34.8096" y="4.21582" width="3.43463" height="3.43463" fill="#FD366E"/>
<rect x="38.2412" y="4.21606" width="3.43463" height="3.43463" fill="#FD366E"/>
<rect x="34.8086" y="35.1277" width="3.43463" height="3.43463" fill="#FD366E"/>
<rect x="34.8066" y="14.5205" width="3.43463" height="3.43463" fill="#FD366E"/>
<rect x="34.8047" y="17.9558" width="3.43463" height="3.43463" fill="#FD366E"/>
<rect x="34.8096" y="21.3887" width="3.43463" height="3.43463" fill="#FD366E"/>
<rect x="34.8086" y="24.8232" width="3.43463" height="3.43463" fill="#FD366E"/>
<rect x="34.8076" y="28.2588" width="3.43463" height="3.43463" fill="#FD366E"/>
<rect x="34.8096" y="31.6926" width="3.43463" height="3.43463" fill="#FD366E"/>
<rect x="38.2432" y="17.9541" width="3.43463" height="3.43463" fill="#FD366E"/>
<rect x="38.2412" y="31.6929" width="3.43463" height="3.43463" fill="#FD366E"/>
<rect x="7.33105" y="7.65039" width="3.43463" height="3.43463" fill="#FD366E"/>
<rect x="7.33203" y="41.9968" width="3.43463" height="3.43463" fill="#FD366E"/>
<rect x="7.33008" y="17.9548" width="3.43463" height="3.43463" fill="#FD366E"/>
<rect x="7.33203" y="31.6926" width="3.43463" height="3.43463" fill="#FD366E"/>
<rect x="3.89746" y="11.085" width="3.43463" height="3.43463" fill="#FD366E"/>
<rect x="3.89746" y="38.5627" width="3.43463" height="3.43463" fill="#FD366E"/>
<rect x="3.89844" y="35.1272" width="3.43463" height="3.43463" fill="#FD366E"/>
<rect x="3.89941" y="14.519" width="3.43463" height="3.43463" fill="#FD366E"/>
<rect x="3.89844" y="17.9541" width="3.43463" height="3.43463" fill="#FD366E"/>
<rect x="3.89648" y="31.6931" width="3.43463" height="3.43463" fill="#FD366E"/>
<rect x="0.459961" y="17.9551" width="3.43463" height="3.43463" fill="#FD366E"/>
<rect x="0.461914" y="21.3892" width="3.43463" height="3.43463" fill="#FD366E"/>
<rect x="0.460938" y="24.824" width="3.43463" height="3.43463" fill="#FD366E"/>
<rect x="0.459961" y="28.2595" width="3.43463" height="3.43463" fill="#FD366E"/>
<rect x="0.461914" y="31.6929" width="3.43463" height="3.43463" fill="#FD366E"/>
<rect x="41.6758" y="7.65112" width="3.43463" height="3.43463" fill="#FD366E"/>
<rect x="41.6758" y="41.9973" width="3.43463" height="3.43463" fill="#CA2B58"/>
<rect x="41.6777" y="17.9546" width="3.43463" height="3.43463" fill="#FD366E"/>
<rect x="41.6787" y="31.6924" width="3.43463" height="3.43463" fill="#FD366E"/>
<rect x="45.1123" y="11.0852" width="3.43463" height="3.43463" fill="#CA2B58"/>
<rect x="45.1094" y="38.5637" width="3.43463" height="3.43463" fill="#CA2B58"/>
<rect x="45.1104" y="35.1279" width="3.43463" height="3.43463" fill="#CA2B58"/>
<rect x="45.1113" y="14.5198" width="3.43463" height="3.43463" fill="#CA2B58"/>
<rect x="45.1104" y="17.9548" width="3.43463" height="3.43463" fill="#FD366E"/>
<rect x="45.1113" y="31.6929" width="3.43463" height="3.43463" fill="#FD366E"/>
<rect x="48.5479" y="17.9539" width="3.43463" height="3.43463" fill="#CA2B58"/>
<rect x="48.5469" y="21.3887" width="3.43463" height="3.43463" fill="#CA2B58"/>
<rect x="48.5449" y="24.8235" width="3.43463" height="3.43463" fill="#CA2B58"/>
<rect x="48.5449" y="28.2588" width="3.43463" height="3.43463" fill="#CA2B58"/>
<rect x="48.543" y="31.6934" width="3.43463" height="3.43463" fill="#CA2B58"/>
<rect x="10.7656" y="17.9543" width="3.43463" height="3.43463" fill="#FD366E"/>
<rect x="10.7637" y="31.6931" width="3.43463" height="3.43463" fill="#FD366E"/>
<rect x="21.0674" y="0.781738" width="3.43463" height="3.43463" fill="#FD366E"/>
<rect x="21.0693" y="48.8665" width="3.43463" height="3.43463" fill="#CA2B58"/>
<rect x="21.0664" y="4.21655" width="3.43463" height="3.43463" fill="#FD366E"/>
<rect x="17.6348" y="4.2168" width="3.43463" height="3.43463" fill="#FD366E"/>
<rect x="21.0674" y="17.9551" width="3.43463" height="3.43463" fill="#FD366E"/>
<rect x="21.0693" y="31.6929" width="3.43463" height="3.43463" fill="#FD366E"/>
<rect x="27.9375" y="45.4316" width="3.43463" height="3.43463" fill="#FD366E"/>
<rect x="31.376" y="45.4312" width="3.43463" height="3.43463" fill="#FD366E"/>
<rect x="14.2002" y="45.4319" width="3.43463" height="3.43463" fill="#CA2B58"/>
<rect x="17.6357" y="45.4314" width="3.43463" height="3.43463" fill="#FD366E"/>
<rect x="10.7656" y="45.4316" width="3.43463" height="3.43463" fill="#FD366E"/>
<rect x="34.8076" y="45.4321" width="3.43463" height="3.43463" fill="#CA2B58"/>
<rect x="38.2402" y="45.4324" width="3.43463" height="3.43463" fill="#CA2B58"/>
<rect x="21.0674" y="45.4316" width="3.43463" height="3.43463" fill="#FD366E"/>
</g>
<defs>
<filter id="filter0_d_320_18000" x="0.458984" y="0.780762" width="54.9581" height="54.9556" filterUnits="userSpaceOnUse" color-interpolation-filters="sRGB">
<feFlood flood-opacity="0" result="BackgroundImageFix"/>
<feColorMatrix in="SourceAlpha" type="matrix" values="0 0 0 0 0 0 0 0 0 0 0 0 0 0 0 0 0 0 127 0" result="hardAlpha"/>
<feOffset dx="3.43463" dy="3.43463"/>
<feComposite in2="hardAlpha" operator="out"/>
<feColorMatrix type="matrix" values="0 0 0 0 0 0 0 0 0 0 0 0 0 0 0 0 0 0 0.12 0"/>
<feBlend mode="normal" in2="BackgroundImageFix" result="effect1_dropShadow_320_18000"/>
<feBlend mode="normal" in="SourceGraphic" in2="effect1_dropShadow_320_18000" result="shape"/>
</filter>
</defs>
</svg>
