<svg width="363" height="363" viewBox="0 0 363 363" fill="none" xmlns="http://www.w3.org/2000/svg">
<g filter="url(#filter0_d_660_6080)">
<rect x="158.668" width="22.6667" height="22.6667" fill="#FD366E"/>
<rect x="158.668" y="317.333" width="22.6667" height="22.6667" fill="#CA2B58"/>
<rect x="158.668" y="113.334" width="22.6667" height="22.6667" fill="#FD366E"/>
<rect x="158.668" y="204" width="22.6667" height="22.6667" fill="#FD366E"/>
<rect x="181.332" width="22.6667" height="22.6667" fill="#FD366E"/>
<rect x="181.332" y="317.333" width="22.6667" height="22.6667" fill="#CA2B58"/>
<rect x="181.332" y="22.6663" width="22.6667" height="22.6667" fill="#FD366E"/>
<rect x="204" y="22.6663" width="22.6667" height="22.6667" fill="#FD366E"/>
<rect x="181.332" y="113.334" width="22.6667" height="22.6667" fill="#FD366E"/>
<rect x="181.332" y="204" width="22.6667" height="22.6667" fill="#FD366E"/>
<rect x="113.332" width="22.6667" height="22.6667" fill="#FD366E"/>
<rect x="113.332" width="22.6667" height="22.6667" fill="white" fill-opacity="0.24"/>
<rect x="113.332" y="317.333" width="22.6667" height="22.6667" fill="#CA2B58"/>
<rect x="113.332" y="45.3337" width="22.6667" height="22.6667" fill="#FD366E"/>
<rect x="90.668" y="45.3337" width="22.6667" height="22.6667" fill="#EDEDF0"/>
<rect x="68" y="45.3337" width="22.6667" height="22.6667" fill="#EDEDF0"/>
<rect x="68" y="68" width="22.6667" height="22.6667" fill="#EDEDF0"/>
<rect x="45.332" y="67.9998" width="22.6667" height="22.6667" fill="#EDEDF0"/>
<rect x="45.332" y="90.6663" width="22.6667" height="22.6667" fill="#EDEDF0"/>
<rect x="45.332" y="136" width="22.6667" height="22.6667" fill="#EDEDF0"/>
<rect x="22.668" y="136" width="22.6667" height="22.6667" fill="#EDEDF0"/>
<rect x="113.332" y="136" width="22.6667" height="22.6667" fill="#EDEDF0"/>
<rect x="113.332" y="90.6663" width="22.6667" height="22.6667" fill="#EDEDF0"/>
<rect x="113.332" y="226.666" width="22.6667" height="22.6667" fill="#EDEDF0"/>
<rect x="249.332" y="136" width="22.6667" height="22.6667" fill="#EDEDF0"/>
<rect x="22.668" y="158.666" width="22.6667" height="22.6667" fill="#EDEDF0"/>
<rect x="113.332" y="158.666" width="22.6667" height="22.6667" fill="#EDEDF0"/>
<rect x="249.332" y="158.666" width="22.6667" height="22.6667" fill="#EDEDF0"/>
<rect x="22.668" y="181.333" width="22.6667" height="22.6667" fill="#EDEDF0"/>
<rect x="113.332" y="181.333" width="22.6667" height="22.6667" fill="#EDEDF0"/>
<rect x="249.332" y="181.333" width="22.6667" height="22.6667" fill="#EDEDF0"/>
<rect x="68" y="136" width="22.6667" height="22.6667" fill="#EDEDF0"/>
<rect x="136" y="136" width="22.6667" height="22.6667" fill="#EDEDF0"/>
<rect x="136" y="90.6663" width="22.6667" height="22.6667" fill="#EDEDF0"/>
<rect x="136" y="226.666" width="22.6667" height="22.6667" fill="#EDEDF0"/>
<rect x="136" y="68" width="22.6667" height="22.6667" fill="#EDEDF0"/>
<rect x="136" y="272" width="22.6667" height="22.6667" fill="#EDEDF0"/>
<rect x="68" y="272" width="22.6667" height="22.6667" fill="#EDEDF0"/>
<rect x="45.332" y="249.333" width="22.6667" height="22.6667" fill="#EDEDF0"/>
<rect x="249.332" y="249.333" width="22.6667" height="22.6667" fill="#EDEDF0"/>
<rect x="249.332" y="90.6663" width="22.6667" height="22.6667" fill="#EDEDF0"/>
<rect x="45.332" y="226.666" width="22.6667" height="22.6667" fill="#EDEDF0"/>
<rect x="249.332" y="226.666" width="22.6667" height="22.6667" fill="#EDEDF0"/>
<rect x="249.332" y="68" width="22.6667" height="22.6667" fill="#EDEDF0"/>
<rect x="226.668" y="45.3337" width="22.6667" height="22.6667" fill="#EDEDF0"/>
<rect x="226.666" y="272" width="22.6667" height="22.6667" fill="#EDEDF0"/>
<rect x="136" y="45.3337" width="22.6667" height="22.6667" fill="#EDEDF0"/>
<rect x="136" y="249.333" width="22.6667" height="22.6667" fill="#EDEDF0"/>
<rect x="181.332" y="136" width="22.6667" height="22.6667" fill="#EDEDF0"/>
<rect x="181.332" y="90.6663" width="22.6667" height="22.6667" fill="#EDEDF0"/>
<rect x="181.332" y="226.666" width="22.6667" height="22.6667" fill="#EDEDF0"/>
<rect x="181.332" y="68" width="22.6667" height="22.6667" fill="#EDEDF0"/>
<rect x="181.332" y="272" width="22.6667" height="22.6667" fill="#EDEDF0"/>
<rect x="181.332" y="45.3337" width="22.6667" height="22.6667" fill="#EDEDF0"/>
<rect x="181.332" y="249.333" width="22.6667" height="22.6667" fill="#EDEDF0"/>
<rect x="272" y="136" width="22.6667" height="22.6667" fill="#EDEDF0"/>
<rect x="68" y="158.666" width="22.6667" height="22.6667" fill="#EDEDF0"/>
<rect x="158.668" y="158.666" width="22.6667" height="22.6667" fill="#EDEDF0"/>
<rect x="204" y="158.666" width="22.6667" height="22.6667" fill="#EDEDF0"/>
<rect x="294.668" y="158.666" width="22.6667" height="22.6667" fill="#EDEDF0"/>
<rect x="68" y="181.333" width="22.6667" height="22.6667" fill="#EDEDF0"/>
<rect x="158.668" y="181.333" width="22.6667" height="22.6667" fill="#EDEDF0"/>
<rect x="204" y="181.333" width="22.6667" height="22.6667" fill="#EDEDF0"/>
<rect x="294.668" y="181.333" width="22.6667" height="22.6667" fill="#EDEDF0"/>
<rect x="45.332" y="136" width="22.6667" height="22.6667" fill="#EDEDF0"/>
<rect x="158.668" y="136" width="22.6667" height="22.6667" fill="#EDEDF0"/>
<rect x="158.668" y="90.6663" width="22.6667" height="22.6667" fill="#EDEDF0"/>
<rect x="158.668" y="226.666" width="22.6667" height="22.6667" fill="#EDEDF0"/>
<rect x="158.668" y="68" width="22.6667" height="22.6667" fill="#EDEDF0"/>
<rect x="158.668" y="272" width="22.6667" height="22.6667" fill="#EDEDF0"/>
<rect x="90.668" y="272" width="22.6667" height="22.6667" fill="#EDEDF0"/>
<rect x="68" y="249.333" width="22.6667" height="22.6667" fill="#EDEDF0"/>
<rect x="272" y="249.333" width="22.6667" height="22.6667" fill="#EDEDF0"/>
<rect x="272" y="90.6663" width="22.6667" height="22.6667" fill="#EDEDF0"/>
<rect x="68" y="226.666" width="22.6667" height="22.6667" fill="#EDEDF0"/>
<rect x="272" y="226.666" width="22.6667" height="22.6667" fill="#EDEDF0"/>
<rect x="272" y="68" width="22.6667" height="22.6667" fill="#EDEDF0"/>
<rect x="249.332" y="45.3337" width="22.6667" height="22.6667" fill="#EDEDF0"/>
<rect x="249.332" y="272" width="22.6667" height="22.6667" fill="#EDEDF0"/>
<rect x="158.668" y="294.666" width="22.6667" height="22.6667" fill="#EDEDF0"/>
<rect x="158.668" y="45.3337" width="22.6667" height="22.6667" fill="#EDEDF0"/>
<rect x="158.668" y="249.333" width="22.6667" height="22.6667" fill="#EDEDF0"/>
<rect x="158.668" y="22.6663" width="22.6667" height="22.6667" fill="#EDEDF0"/>
<rect x="204" y="136" width="22.6667" height="22.6667" fill="#EDEDF0"/>
<rect x="204" y="90.6663" width="22.6667" height="22.6667" fill="#EDEDF0"/>
<rect x="204" y="226.666" width="22.6667" height="22.6667" fill="#EDEDF0"/>
<rect x="294.668" y="136" width="22.6667" height="22.6667" fill="#EDEDF0"/>
<rect x="45.332" y="158.666" width="22.6667" height="22.6667" fill="#EDEDF0"/>
<rect x="136" y="158.666" width="22.6667" height="22.6667" fill="#EDEDF0"/>
<rect x="181.332" y="158.666" width="22.6667" height="22.6667" fill="#EDEDF0"/>
<rect x="272" y="158.666" width="22.6667" height="22.6667" fill="#EDEDF0"/>
<rect x="45.332" y="181.333" width="22.6667" height="22.6667" fill="#EDEDF0"/>
<rect x="136" y="181.333" width="22.6667" height="22.6667" fill="#EDEDF0"/>
<rect x="181.332" y="181.333" width="22.6667" height="22.6667" fill="#EDEDF0"/>
<rect x="272" y="181.333" width="22.6667" height="22.6667" fill="#EDEDF0"/>
<rect x="68" y="90.6663" width="22.6667" height="22.6667" fill="#EDEDF0"/>
<rect x="113.332" y="272" width="22.6667" height="22.6667" fill="#FD366E"/>
<rect x="113.332" y="68" width="22.6667" height="22.6667" fill="#FD366E"/>
<rect x="113.332" y="68" width="22.6667" height="22.6667" fill="white" fill-opacity="0.24"/>
<rect x="90.668" y="68" width="22.6667" height="22.6667" fill="#FD366E"/>
<rect x="90.668" y="68" width="22.6667" height="22.6667" fill="white" fill-opacity="0.24"/>
<rect x="113.332" y="249.333" width="22.6667" height="22.6667" fill="#FD366E"/>
<rect x="90.668" y="249.333" width="22.6667" height="22.6667" fill="#FD366E"/>
<rect x="113.332" y="113.334" width="22.6667" height="22.6667" fill="#FD366E"/>
<rect x="113.332" y="204" width="22.6667" height="22.6667" fill="#FD366E"/>
<rect x="90.668" y="22.6663" width="22.6667" height="22.6667" fill="#FD366E"/>
<rect x="90.668" y="22.6663" width="22.6667" height="22.6667" fill="white" fill-opacity="0.24"/>
<rect x="68" y="22.6663" width="22.6667" height="22.6667" fill="#FD366E"/>
<rect x="68" y="22.6663" width="22.6667" height="22.6667" fill="white" fill-opacity="0.24"/>
<rect x="90.668" y="226.666" width="22.6667" height="22.6667" fill="#FD366E"/>
<rect x="90.668" y="90.6663" width="22.6667" height="22.6667" fill="#FD366E"/>
<rect x="90.668" y="90.6663" width="22.6667" height="22.6667" fill="white" fill-opacity="0.24"/>
<rect x="90.668" y="113.334" width="22.6667" height="22.6667" fill="#FD366E"/>
<rect x="90.668" y="136" width="22.6667" height="22.6667" fill="#FD366E"/>
<rect x="90.668" y="158.666" width="22.6667" height="22.6667" fill="#FD366E"/>
<rect x="90.668" y="181.333" width="22.6667" height="22.6667" fill="#FD366E"/>
<rect x="90.668" y="204" width="22.6667" height="22.6667" fill="#FD366E"/>
<rect x="204" width="22.6667" height="22.6667" fill="#FD366E"/>
<rect x="204" y="317.333" width="22.6667" height="22.6667" fill="#CA2B58"/>
<rect x="204" y="45.3337" width="22.6667" height="22.6667" fill="#FD366E"/>
<rect x="204" y="272" width="22.6667" height="22.6667" fill="#FD366E"/>
<rect x="204" y="68" width="22.6667" height="22.6667" fill="#FD366E"/>
<rect x="226.668" y="68" width="22.6667" height="22.6667" fill="#FD366E"/>
<rect x="204" y="249.333" width="22.6667" height="22.6667" fill="#FD366E"/>
<rect x="226.666" y="249.333" width="22.6667" height="22.6667" fill="#FD366E"/>
<rect x="204" y="113.334" width="22.6667" height="22.6667" fill="#FD366E"/>
<rect x="204" y="204" width="22.6667" height="22.6667" fill="#FD366E"/>
<rect x="226.668" y="22.6663" width="22.6667" height="22.6667" fill="#FD366E"/>
<rect x="249.332" y="22.6663" width="22.6667" height="22.6667" fill="#FD366E"/>
<rect x="226.666" y="226.666" width="22.6667" height="22.6667" fill="#FD366E"/>
<rect x="226.668" y="90.6663" width="22.6667" height="22.6667" fill="#FD366E"/>
<rect x="226.668" y="113.334" width="22.6667" height="22.6667" fill="#FD366E"/>
<rect x="226.666" y="136" width="22.6667" height="22.6667" fill="#FD366E"/>
<rect x="226.666" y="158.666" width="22.6667" height="22.6667" fill="#FD366E"/>
<rect x="226.666" y="181.333" width="22.6667" height="22.6667" fill="#FD366E"/>
<rect x="226.666" y="204" width="22.6667" height="22.6667" fill="#FD366E"/>
<rect x="249.332" y="113.334" width="22.6667" height="22.6667" fill="#FD366E"/>
<rect x="249.332" y="204" width="22.6667" height="22.6667" fill="#FD366E"/>
<rect x="45.332" y="45.3335" width="22.6667" height="22.6667" fill="#FD366E"/>
<rect x="45.332" y="45.3335" width="22.6667" height="22.6667" fill="white" fill-opacity="0.24"/>
<rect x="45.332" y="272" width="22.6667" height="22.6667" fill="#FD366E"/>
<rect x="45.332" y="113.333" width="22.6667" height="22.6667" fill="#FD366E"/>
<rect x="45.332" y="204" width="22.6667" height="22.6667" fill="#FD366E"/>
<rect x="22.668" y="67.9998" width="22.6667" height="22.6667" fill="#FD366E"/>
<rect x="22.668" y="67.9998" width="22.6667" height="22.6667" fill="white" fill-opacity="0.24"/>
<rect x="22.668" y="249.333" width="22.6667" height="22.6667" fill="#FD366E"/>
<rect x="22.668" y="226.666" width="22.6667" height="22.6667" fill="#FD366E"/>
<rect x="22.668" y="90.6663" width="22.6667" height="22.6667" fill="#FD366E"/>
<rect x="22.668" y="113.333" width="22.6667" height="22.6667" fill="#FD366E"/>
<rect x="22.668" y="204" width="22.6667" height="22.6667" fill="#FD366E"/>
<rect y="113.333" width="22.6667" height="22.6667" fill="#FD366E"/>
<rect y="113.333" width="22.6667" height="22.6667" fill="white" fill-opacity="0.24"/>
<rect y="136" width="22.6667" height="22.6667" fill="#FD366E"/>
<rect y="136" width="22.6667" height="22.6667" fill="white" fill-opacity="0.24"/>
<rect y="158.666" width="22.6667" height="22.6667" fill="#FD366E"/>
<rect y="158.666" width="22.6667" height="22.6667" fill="white" fill-opacity="0.24"/>
<rect y="181.333" width="22.6667" height="22.6667" fill="#FD366E"/>
<rect y="204" width="22.6667" height="22.6667" fill="#FD366E"/>
<rect x="272" y="45.3337" width="22.6667" height="22.6667" fill="#FD366E"/>
<rect x="272" y="272" width="22.6667" height="22.6667" fill="#CA2B58"/>
<rect x="272" y="113.334" width="22.6667" height="22.6667" fill="#FD366E"/>
<rect x="272" y="204" width="22.6667" height="22.6667" fill="#FD366E"/>
<rect x="294.668" y="67.9998" width="22.6667" height="22.6667" fill="#CA2B58"/>
<rect x="294.668" y="249.333" width="22.6667" height="22.6667" fill="#CA2B58"/>
<rect x="294.668" y="226.666" width="22.6667" height="22.6667" fill="#CA2B58"/>
<rect x="294.668" y="90.6663" width="22.6667" height="22.6667" fill="#CA2B58"/>
<rect x="294.668" y="113.333" width="22.6667" height="22.6667" fill="#FD366E"/>
<rect x="294.668" y="204" width="22.6667" height="22.6667" fill="#FD366E"/>
<rect x="317.332" y="113.333" width="22.6667" height="22.6667" fill="#CA2B58"/>
<rect x="317.332" y="136" width="22.6667" height="22.6667" fill="#CA2B58"/>
<rect x="317.332" y="158.666" width="22.6667" height="22.6667" fill="#CA2B58"/>
<rect x="317.332" y="181.333" width="22.6667" height="22.6667" fill="#CA2B58"/>
<rect x="317.332" y="204" width="22.6667" height="22.6667" fill="#CA2B58"/>
<rect x="68" y="113.334" width="22.6667" height="22.6667" fill="#FD366E"/>
<rect x="68" y="204" width="22.6667" height="22.6667" fill="#FD366E"/>
<rect x="136" width="22.6667" height="22.6667" fill="#FD366E"/>
<rect x="136" y="317.333" width="22.6667" height="22.6667" fill="#CA2B58"/>
<rect x="136" y="22.6663" width="22.6667" height="22.6667" fill="#FD366E"/>
<rect x="113.332" y="22.6663" width="22.6667" height="22.6667" fill="#FD366E"/>
<rect x="136" y="113.334" width="22.6667" height="22.6667" fill="#FD366E"/>
<rect x="136" y="204" width="22.6667" height="22.6667" fill="#FD366E"/>
<rect x="181.332" y="294.666" width="22.6667" height="22.6667" fill="#FD366E"/>
<rect x="204" y="294.666" width="22.6667" height="22.6667" fill="#FD366E"/>
<rect x="90.668" y="294.666" width="22.6667" height="22.6667" fill="#CA2B58"/>
<rect x="113.332" y="294.666" width="22.6667" height="22.6667" fill="#FD366E"/>
<rect x="68" y="294.666" width="22.6667" height="22.6667" fill="#FD366E"/>
<rect x="226.666" y="294.666" width="22.6667" height="22.6667" fill="#CA2B58"/>
<rect x="249.332" y="294.666" width="22.6667" height="22.6667" fill="#CA2B58"/>
<rect x="136" y="294.666" width="22.6667" height="22.6667" fill="#FD366E"/>
</g>
<defs>
<filter id="filter0_d_660_6080" x="0" y="0" width="362.667" height="362.667" filterUnits="userSpaceOnUse" color-interpolation-filters="sRGB">
<feFlood flood-opacity="0" result="BackgroundImageFix"/>
<feColorMatrix in="SourceAlpha" type="matrix" values="0 0 0 0 0 0 0 0 0 0 0 0 0 0 0 0 0 0 127 0" result="hardAlpha"/>
<feOffset dx="22.6666" dy="22.6666"/>
<feComposite in2="hardAlpha" operator="out"/>
<feColorMatrix type="matrix" values="0 0 0 0 0 0 0 0 0 0 0 0 0 0 0 0 0 0 0.12 0"/>
<feBlend mode="normal" in2="BackgroundImageFix" result="effect1_dropShadow_660_6080"/>
<feBlend mode="normal" in="SourceGraphic" in2="effect1_dropShadow_660_6080" result="shape"/>
</filter>
</defs>
</svg>
