<svg width="176" height="154" viewBox="0 0 176 154" fill="none" xmlns="http://www.w3.org/2000/svg">
    <rect x="64.5352" y="0.733337" width="11.7333" height="11.7333" fill="#ADADB0" />
    <rect x="64.5352" y="0.733337" width="11.7333" height="11.7333" fill="white" fill-opacity="0.48" />
    <rect x="70.4004" y="12.4668" width="11.7333" height="11.7333" fill="#ADADB0" />
    <rect x="70.4004" y="24.2001" width="11.7333" height="11.7333" fill="#ADADB0" />
    <rect x="52.8008" y="0.733429" width="11.7333" height="11.7333" fill="#ADADB0" />
    <rect x="52.8008" y="0.733429" width="11.7333" height="11.7333" fill="white" fill-opacity="0.48" />
    <rect x="58.6641" y="12.4664" width="11.7333" height="11.7333" fill="#ADADB0" />
    <rect x="58.6641" y="24.2003" width="11.7333" height="11.7333" fill="#ADADB0" />
    <rect x="46.9355" y="12.4664" width="11.7333" height="11.7333" fill="#ADADB0" />
    <rect x="46.9355" y="24.2003" width="11.7333" height="11.7333" fill="#ADADB0" />
    <rect x="46.9355" y="35.9333" width="11.7333" height="11.7333" fill="#ADADB0" />
    <rect x="35.1992" y="12.4668" width="11.7333" height="11.7333" fill="#ADADB0" />
    <rect x="35.1992" y="12.4668" width="11.7333" height="11.7333" fill="white" fill-opacity="0.48" />
    <rect x="35.1992" y="24.2001" width="11.7333" height="11.7333" fill="#ADADB0" />
    <rect x="35.1992" y="35.9334" width="11.7333" height="11.7333" fill="#ADADB0" />
    <rect x="35.1992" y="47.6667" width="11.7333" height="11.7333" fill="#ADADB0" />
    <rect x="23.4648" y="71.1334" width="11.7333" height="11.7333" fill="#ADADB0" />
    <rect y="59.4001" width="11.7333" height="11.7333" fill="#ADADB0" />
    <rect y="59.4001" width="11.7333" height="11.7333" fill="white" fill-opacity="0.48" />
    <rect y="71.1334" width="11.7333" height="11.7333" fill="#ADADB0" />
    <rect y="71.1334" width="11.7333" height="11.7333" fill="white" fill-opacity="0.48" />
    <rect y="82.8667" width="11.7333" height="11.7333" fill="#ADADB0" />
    <rect y="82.8667" width="11.7333" height="11.7333" fill="white" fill-opacity="0.48" />
    <rect y="94.6001" width="11.7333" height="11.7333" fill="#ADADB0" />
    <rect y="94.6001" width="11.7333" height="11.7333" fill="white" fill-opacity="0.48" />
    <rect x="11.7363" y="94.6003" width="11.7333" height="11.7333" fill="#ADADB0" />
    <rect x="11.7363" y="82.8664" width="11.7333" height="11.7333" fill="#ADADB0" />
    <rect x="11.7363" y="71.1334" width="11.7333" height="11.7333" fill="#ADADB0" />
    <rect x="11.7363" y="59.4003" width="11.7333" height="11.7333" fill="#ADADB0" />
    <rect x="11.7363" y="47.6664" width="11.7333" height="11.7333" fill="#ADADB0" />
    <rect x="11.7363" y="35.9333" width="11.7333" height="11.7333" fill="#ADADB0" />
    <rect x="11.7363" y="35.9333" width="11.7333" height="11.7333" fill="white" fill-opacity="0.48" />
    <rect x="23.4648" y="35.9333" width="11.7333" height="11.7333" fill="#ADADB0" />
    <rect x="23.4648" y="35.9333" width="11.7333" height="11.7333" fill="white" fill-opacity="0.48" />
    <rect x="23.4648" y="24.2003" width="11.7333" height="11.7333" fill="#ADADB0" />
    <rect x="23.4648" y="24.2003" width="11.7333" height="11.7333" fill="white" fill-opacity="0.48" />
    <rect x="23.4648" y="47.6664" width="11.7333" height="11.7333" fill="#ADADB0" />
    <rect x="23.4648" y="94.6003" width="11.7333" height="11.7333" fill="#ADADB0" />
    <rect x="23.4648" y="59.4003" width="11.7333" height="11.7333" fill="#ADADB0" />
    <rect x="76.2637" y="0.733337" width="11.7333" height="11.7333" fill="#ADADB0" />
    <rect x="76.2637" y="0.733337" width="11.7333" height="11.7333" fill="white" fill-opacity="0.48" />
    <rect x="82.1367" y="12.4664" width="11.7333" height="11.7333" fill="#ADADB0" />
    <rect x="82.1367" y="24.2003" width="11.7333" height="11.7333" fill="#ADADB0" />
    <rect x="88" y="0.733429" width="11.7333" height="11.7333" fill="#ADADB0" />
    <rect x="88" y="0.733429" width="11.7333" height="11.7333" fill="white" fill-opacity="0.48" />
    <rect x="93.8633" y="12.4664" width="11.7333" height="11.7333" fill="#ADADB0" />
    <rect x="93.8633" y="24.2003" width="11.7333" height="11.7333" fill="#ADADB0" />
    <rect x="105.6" y="12.4668" width="11.7333" height="11.7333" fill="#ADADB0" />
    <rect x="105.6" y="24.2001" width="11.7333" height="11.7333" fill="#ADADB0" />
    <rect x="117.336" y="24.2003" width="11.7333" height="11.7333" fill="#ADADB0" />
    <rect x="129.064" y="24.2003" width="11.7333" height="11.7333" fill="#ADADB0" />
    <rect x="129.064" y="35.9333" width="11.7333" height="11.7333" fill="#ADADB0" />
    <rect x="140.801" y="35.9334" width="11.7333" height="11.7333" fill="#ADADB0" />
    <rect x="140.801" y="35.9334" width="11.7333" height="11.7333" fill="black" fill-opacity="0.16" />
    <rect x="129.064" y="47.6664" width="11.7333" height="11.7333" fill="#ADADB0" />
    <rect x="129.064" y="47.6664" width="11.7333" height="11.7333" fill="black" fill-opacity="0.16" />
    <rect x="117.336" y="47.6664" width="11.7333" height="11.7333" fill="#ADADB0" />
    <rect x="105.6" y="47.6667" width="11.7333" height="11.7333" fill="#ADADB0" />
    <rect x="164.264" y="71.1334" width="11.7333" height="11.7333" fill="#ADADB0" />
    <rect x="164.264" y="71.1334" width="11.7333" height="11.7333" fill="black" fill-opacity="0.16" />
    <rect x="164.264" y="118.066" width="11.7333" height="11.7333" fill="#ADADB0" />
    <rect x="164.264" y="118.066" width="11.7333" height="11.7333" fill="black" fill-opacity="0.16" />
    <rect x="164.264" y="82.8664" width="11.7333" height="11.7333" fill="#ADADB0" />
    <rect x="164.264" y="82.8664" width="11.7333" height="11.7333" fill="black" fill-opacity="0.16" />
    <rect x="164.264" y="129.8" width="11.7333" height="11.7333" fill="#ADADB0" />
    <rect x="164.264" y="129.8" width="11.7333" height="11.7333" fill="black" fill-opacity="0.16" />
    <rect x="164.264" y="94.6003" width="11.7333" height="11.7333" fill="#ADADB0" />
    <rect x="164.264" y="94.6003" width="11.7333" height="11.7333" fill="black" fill-opacity="0.16" />
    <rect x="164.264" y="141.533" width="11.7333" height="11.7333" fill="#ADADB0" />
    <rect x="164.264" y="141.533" width="11.7333" height="11.7333" fill="black" fill-opacity="0.16" />
    <rect x="140.801" y="71.1334" width="11.7333" height="11.7333" fill="#ADADB0" />
    <rect x="140.801" y="118.067" width="11.7333" height="11.7333" fill="#ADADB0" />
    <rect x="140.801" y="82.8667" width="11.7333" height="11.7333" fill="#ADADB0" />
    <rect x="140.801" y="129.8" width="11.7333" height="11.7333" fill="#ADADB0" />
    <rect x="140.801" y="94.6001" width="11.7333" height="11.7333" fill="#ADADB0" />
    <rect x="140.801" y="94.6001" width="11.7333" height="11.7333" fill="black" fill-opacity="0.16" />
    <rect x="140.801" y="141.533" width="11.7333" height="11.7333" fill="#ADADB0" />
    <rect x="140.801" y="141.533" width="11.7333" height="11.7333" fill="black" fill-opacity="0.16" />
    <rect x="129.064" y="71.1334" width="11.7333" height="11.7333" fill="#ADADB0" />
    <rect x="129.064" y="118.066" width="11.7333" height="11.7333" fill="#ADADB0" />
    <rect x="129.064" y="82.8664" width="11.7333" height="11.7333" fill="#ADADB0" />
    <rect x="129.064" y="129.8" width="11.7333" height="11.7333" fill="#ADADB0" />
    <rect x="129.064" y="94.6003" width="11.7333" height="11.7333" fill="#ADADB0" />
    <rect x="129.064" y="141.533" width="11.7333" height="11.7333" fill="#ADADB0" />
    <rect x="129.064" y="141.533" width="11.7333" height="11.7333" fill="black" fill-opacity="0.16" />
    <rect x="117.336" y="118.066" width="11.7333" height="11.7333" fill="#ADADB0" />
    <rect x="105.6" y="94.6001" width="11.7333" height="11.7333" fill="#ADADB0" />
    <rect x="105.6" y="118.067" width="11.7333" height="11.7333" fill="#ADADB0" />
    <rect x="93.8633" y="118.066" width="11.7333" height="11.7333" fill="#ADADB0" />
    <rect x="82.1367" y="118.066" width="11.7333" height="11.7333" fill="#ADADB0" />
    <rect x="70.4004" y="118.067" width="11.7333" height="11.7333" fill="#ADADB0" />
    <rect x="58.6641" y="118.066" width="11.7333" height="11.7333" fill="#ADADB0" />
    <rect x="46.9355" y="118.066" width="11.7333" height="11.7333" fill="#ADADB0" />
    <rect x="35.1992" y="118.067" width="11.7333" height="11.7333" fill="#ADADB0" />
    <rect x="23.4648" y="118.066" width="11.7333" height="11.7333" fill="#ADADB0" />
    <rect x="23.4648" y="118.066" width="11.7333" height="11.7333" fill="white" fill-opacity="0.48" />
    <rect x="11.7363" y="106.333" width="11.7333" height="11.7333" fill="#ADADB0" />
    <rect x="11.7363" y="106.333" width="11.7333" height="11.7333" fill="white" fill-opacity="0.48" />
    <rect x="23.4648" y="106.333" width="11.7333" height="11.7333" fill="#ADADB0" />
    <rect x="35.1992" y="106.333" width="11.7333" height="11.7333" fill="#ADADB0" />
    <rect x="46.9355" y="106.333" width="11.7333" height="11.7333" fill="#ADADB0" />
    <rect x="35.1992" y="94.6001" width="11.7333" height="11.7333" fill="#ADADB0" />
    <rect x="23.4648" y="82.8664" width="11.7333" height="11.7333" fill="#ADADB0" />
    <rect x="105.6" y="129.8" width="11.7333" height="11.7333" fill="#ADADB0" />
    <rect x="93.8633" y="129.8" width="11.7333" height="11.7333" fill="#ADADB0" />
    <rect x="82.1367" y="129.8" width="11.7333" height="11.7333" fill="#ADADB0" />
    <rect x="70.4004" y="129.8" width="11.7333" height="11.7333" fill="#ADADB0" />
    <rect x="58.6641" y="129.8" width="11.7333" height="11.7333" fill="#ADADB0" />
    <rect x="46.9355" y="129.8" width="11.7333" height="11.7333" fill="#ADADB0" />
    <rect x="35.1992" y="129.8" width="11.7333" height="11.7333" fill="#ADADB0" />
    <rect x="105.6" y="141.533" width="11.7333" height="11.7333" fill="#ADADB0" />
    <rect x="93.8633" y="141.533" width="11.7333" height="11.7333" fill="#ADADB0" />
    <rect x="82.1367" y="141.533" width="11.7333" height="11.7333" fill="#ADADB0" />
    <rect x="70.4004" y="141.533" width="11.7333" height="11.7333" fill="#ADADB0" />
    <rect x="58.6641" y="141.533" width="11.7333" height="11.7333" fill="#ADADB0" />
    <rect x="46.9355" y="141.533" width="11.7333" height="11.7333" fill="#ADADB0" />
    <rect x="117.336" y="94.6003" width="11.7333" height="11.7333" fill="#ADADB0" />
    <rect x="117.336" y="141.533" width="11.7333" height="11.7333" fill="#ADADB0" />
    <rect x="117.336" y="82.8664" width="11.7333" height="11.7333" fill="#ADADB0" />
    <rect x="117.336" y="129.8" width="11.7333" height="11.7333" fill="#ADADB0" />
    <rect x="152.535" y="71.1334" width="11.7333" height="11.7333" fill="#ADADB0" />
    <rect x="152.535" y="118.066" width="11.7333" height="11.7333" fill="#ADADB0" />
    <rect x="152.535" y="82.8664" width="11.7333" height="11.7333" fill="#ADADB0" />
    <rect x="152.535" y="129.8" width="11.7333" height="11.7333" fill="#ADADB0" />
    <rect x="152.535" y="94.6003" width="11.7333" height="11.7333" fill="#ADADB0" />
    <rect x="152.535" y="94.6003" width="11.7333" height="11.7333" fill="black" fill-opacity="0.16" />
    <rect x="152.535" y="141.533" width="11.7333" height="11.7333" fill="#ADADB0" />
    <rect x="152.535" y="141.533" width="11.7333" height="11.7333" fill="black" fill-opacity="0.16" />
    <rect x="105.6" y="35.9334" width="11.7333" height="11.7333" fill="#ADADB0" />
    <rect x="93.8633" y="35.9333" width="11.7333" height="11.7333" fill="#ADADB0" />
    <rect x="117.336" y="35.9333" width="11.7333" height="11.7333" fill="#ADADB0" />
    <rect x="140.801" y="47.6667" width="11.7333" height="11.7333" fill="#ADADB0" />
    <rect x="140.801" y="47.6667" width="11.7333" height="11.7333" fill="black" fill-opacity="0.16" />
</svg>
    