<svg width="100" height="88" viewBox="0 0 100 88" fill="none" xmlns="http://www.w3.org/2000/svg">
    <rect x="36.668" y="0.666748" width="6.66667" height="6.66667" fill="#56565C" />
    <rect x="36.668" y="0.666748" width="6.66667" height="6.66667" fill="white" fill-opacity="0.48" />
    <rect x="40" y="7.3335" width="6.66667" height="6.66667" fill="#56565C" />
    <rect x="40" y="14" width="6.66667" height="6.66667" fill="#56565C" />
    <rect x="30" y="0.666748" width="6.66667" height="6.66667" fill="#56565C" />
    <rect x="30" y="0.666748" width="6.66667" height="6.66667" fill="white" fill-opacity="0.48" />
    <rect x="33.332" y="7.33325" width="6.66667" height="6.66667" fill="#56565C" />
    <rect x="33.332" y="14.0002" width="6.66667" height="6.66667" fill="#56565C" />
    <rect x="26.668" y="7.33325" width="6.66667" height="6.66667" fill="#56565C" />
    <rect x="26.668" y="14.0002" width="6.66667" height="6.66667" fill="#56565C" />
    <rect x="26.668" y="20.6667" width="6.66667" height="6.66667" fill="#56565C" />
    <rect x="20" y="7.3335" width="6.66667" height="6.66667" fill="#56565C" />
    <rect x="20" y="7.3335" width="6.66667" height="6.66667" fill="white" fill-opacity="0.48" />
    <rect x="20" y="14" width="6.66667" height="6.66667" fill="#56565C" />
    <rect x="20" y="20.6667" width="6.66667" height="6.66667" fill="#56565C" />
    <rect x="20" y="27.3335" width="6.66667" height="6.66667" fill="#56565C" />
    <rect x="13.332" y="40.6667" width="6.66667" height="6.66667" fill="#56565C" />
    <rect y="34" width="6.66667" height="6.66667" fill="#56565C" />
    <rect y="34" width="6.66667" height="6.66667" fill="white" fill-opacity="0.48" />
    <rect y="40.6667" width="6.66667" height="6.66667" fill="#56565C" />
    <rect y="40.6667" width="6.66667" height="6.66667" fill="white" fill-opacity="0.48" />
    <rect y="47.3335" width="6.66667" height="6.66667" fill="#56565C" />
    <rect y="47.3335" width="6.66667" height="6.66667" fill="white" fill-opacity="0.48" />
    <rect y="54" width="6.66667" height="6.66667" fill="#56565C" />
    <rect y="54" width="6.66667" height="6.66667" fill="white" fill-opacity="0.48" />
    <rect x="6.66797" y="54.0002" width="6.66667" height="6.66667" fill="#56565C" />
    <rect x="6.66797" y="47.3333" width="6.66667" height="6.66667" fill="#56565C" />
    <rect x="6.66797" y="40.6667" width="6.66667" height="6.66667" fill="#56565C" />
    <rect x="6.66797" y="34.0002" width="6.66667" height="6.66667" fill="#56565C" />
    <rect x="6.66797" y="27.3333" width="6.66667" height="6.66667" fill="#56565C" />
    <rect x="6.66797" y="20.6667" width="6.66667" height="6.66667" fill="#56565C" />
    <rect x="6.66797" y="20.6667" width="6.66667" height="6.66667" fill="white" fill-opacity="0.48" />
    <rect x="13.332" y="20.6667" width="6.66667" height="6.66667" fill="#56565C" />
    <rect x="13.332" y="20.6667" width="6.66667" height="6.66667" fill="white" fill-opacity="0.48" />
    <rect x="13.332" y="14.0002" width="6.66667" height="6.66667" fill="#56565C" />
    <rect x="13.332" y="14.0002" width="6.66667" height="6.66667" fill="white" fill-opacity="0.48" />
    <rect x="13.332" y="27.3333" width="6.66667" height="6.66667" fill="#56565C" />
    <rect x="13.332" y="54.0002" width="6.66667" height="6.66667" fill="#56565C" />
    <rect x="13.332" y="34.0002" width="6.66667" height="6.66667" fill="#56565C" />
    <rect x="43.332" y="0.666748" width="6.66667" height="6.66667" fill="#56565C" />
    <rect x="43.332" y="0.666748" width="6.66667" height="6.66667" fill="white" fill-opacity="0.48" />
    <rect x="46.668" y="7.33325" width="6.66667" height="6.66667" fill="#56565C" />
    <rect x="46.668" y="14.0002" width="6.66667" height="6.66667" fill="#56565C" />
    <rect x="50" y="0.666748" width="6.66667" height="6.66667" fill="#56565C" />
    <rect x="50" y="0.666748" width="6.66667" height="6.66667" fill="white" fill-opacity="0.48" />
    <rect x="53.332" y="7.33325" width="6.66667" height="6.66667" fill="#56565C" />
    <rect x="53.332" y="14.0002" width="6.66667" height="6.66667" fill="#56565C" />
    <rect x="60" y="7.3335" width="6.66667" height="6.66667" fill="#56565C" />
    <rect x="60" y="14" width="6.66667" height="6.66667" fill="#56565C" />
    <rect x="66.668" y="14.0002" width="6.66667" height="6.66667" fill="#56565C" />
    <rect x="73.332" y="14.0002" width="6.66667" height="6.66667" fill="#56565C" />
    <rect x="73.332" y="20.6667" width="6.66667" height="6.66667" fill="#56565C" />
    <rect x="80" y="20.6667" width="6.66667" height="6.66667" fill="#56565C" />
    <rect x="80" y="20.6667" width="6.66667" height="6.66667" fill="black" fill-opacity="0.16" />
    <rect x="73.332" y="27.3333" width="6.66667" height="6.66667" fill="#56565C" />
    <rect x="73.332" y="27.3333" width="6.66667" height="6.66667" fill="black" fill-opacity="0.16" />
    <rect x="66.668" y="27.3333" width="6.66667" height="6.66667" fill="#56565C" />
    <rect x="60" y="27.3335" width="6.66667" height="6.66667" fill="#56565C" />
    <rect x="93.332" y="40.6667" width="6.66667" height="6.66667" fill="#56565C" />
    <rect x="93.332" y="40.6667" width="6.66667" height="6.66667" fill="black" fill-opacity="0.16" />
    <rect x="93.332" y="67.3333" width="6.66667" height="6.66667" fill="#56565C" />
    <rect x="93.332" y="67.3333" width="6.66667" height="6.66667" fill="black" fill-opacity="0.16" />
    <rect x="93.332" y="47.3333" width="6.66667" height="6.66667" fill="#56565C" />
    <rect x="93.332" y="47.3333" width="6.66667" height="6.66667" fill="black" fill-opacity="0.16" />
    <rect x="93.332" y="74.0002" width="6.66667" height="6.66667" fill="#56565C" />
    <rect x="93.332" y="74.0002" width="6.66667" height="6.66667" fill="black" fill-opacity="0.16" />
    <rect x="93.332" y="54.0002" width="6.66667" height="6.66667" fill="#56565C" />
    <rect x="93.332" y="54.0002" width="6.66667" height="6.66667" fill="black" fill-opacity="0.16" />
    <rect x="93.332" y="80.6667" width="6.66667" height="6.66667" fill="#56565C" />
    <rect x="93.332" y="80.6667" width="6.66667" height="6.66667" fill="black" fill-opacity="0.16" />
    <rect x="80" y="40.6667" width="6.66667" height="6.66667" fill="#56565C" />
    <rect x="80" y="67.3335" width="6.66667" height="6.66667" fill="#56565C" />
    <rect x="80" y="47.3335" width="6.66667" height="6.66667" fill="#56565C" />
    <rect x="80" y="74" width="6.66667" height="6.66667" fill="#56565C" />
    <rect x="80" y="54" width="6.66667" height="6.66667" fill="#56565C" />
    <rect x="80" y="54" width="6.66667" height="6.66667" fill="black" fill-opacity="0.16" />
    <rect x="80" y="80.6667" width="6.66667" height="6.66667" fill="#56565C" />
    <rect x="80" y="80.6667" width="6.66667" height="6.66667" fill="black" fill-opacity="0.16" />
    <rect x="73.332" y="40.6667" width="6.66667" height="6.66667" fill="#56565C" />
    <rect x="73.332" y="67.3333" width="6.66667" height="6.66667" fill="#56565C" />
    <rect x="73.332" y="47.3333" width="6.66667" height="6.66667" fill="#56565C" />
    <rect x="73.332" y="74.0002" width="6.66667" height="6.66667" fill="#56565C" />
    <rect x="73.332" y="54.0002" width="6.66667" height="6.66667" fill="#56565C" />
    <rect x="73.332" y="80.6667" width="6.66667" height="6.66667" fill="#56565C" />
    <rect x="73.332" y="80.6667" width="6.66667" height="6.66667" fill="black" fill-opacity="0.16" />
    <rect x="66.668" y="67.3333" width="6.66667" height="6.66667" fill="#56565C" />
    <rect x="60" y="54" width="6.66667" height="6.66667" fill="#56565C" />
    <rect x="60" y="67.3335" width="6.66667" height="6.66667" fill="#56565C" />
    <rect x="53.332" y="67.3333" width="6.66667" height="6.66667" fill="#56565C" />
    <rect x="46.668" y="67.3333" width="6.66667" height="6.66667" fill="#56565C" />
    <rect x="40" y="67.3335" width="6.66667" height="6.66667" fill="#56565C" />
    <rect x="33.332" y="67.3333" width="6.66667" height="6.66667" fill="#56565C" />
    <rect x="26.668" y="67.3333" width="6.66667" height="6.66667" fill="#56565C" />
    <rect x="20" y="67.3335" width="6.66667" height="6.66667" fill="#56565C" />
    <rect x="13.332" y="67.3333" width="6.66667" height="6.66667" fill="#56565C" />
    <rect x="13.332" y="67.3333" width="6.66667" height="6.66667" fill="white" fill-opacity="0.48" />
    <rect x="6.66797" y="60.6667" width="6.66667" height="6.66667" fill="#56565C" />
    <rect x="6.66797" y="60.6667" width="6.66667" height="6.66667" fill="white" fill-opacity="0.48" />
    <rect x="13.332" y="60.6667" width="6.66667" height="6.66667" fill="#56565C" />
    <rect x="20" y="60.6667" width="6.66667" height="6.66667" fill="#56565C" />
    <rect x="26.668" y="60.6667" width="6.66667" height="6.66667" fill="#56565C" />
    <rect x="20" y="54" width="6.66667" height="6.66667" fill="#56565C" />
    <rect x="13.332" y="47.3333" width="6.66667" height="6.66667" fill="#56565C" />
    <rect x="60" y="74" width="6.66667" height="6.66667" fill="#56565C" />
    <rect x="53.332" y="74.0002" width="6.66667" height="6.66667" fill="#56565C" />
    <rect x="46.668" y="74.0002" width="6.66667" height="6.66667" fill="#56565C" />
    <rect x="40" y="74" width="6.66667" height="6.66667" fill="#56565C" />
    <rect x="33.332" y="74.0002" width="6.66667" height="6.66667" fill="#56565C" />
    <rect x="26.668" y="74.0002" width="6.66667" height="6.66667" fill="#56565C" />
    <rect x="20" y="74" width="6.66667" height="6.66667" fill="#56565C" />
    <rect x="60" y="80.6667" width="6.66667" height="6.66667" fill="#56565C" />
    <rect x="53.332" y="80.6667" width="6.66667" height="6.66667" fill="#56565C" />
    <rect x="46.668" y="80.6667" width="6.66667" height="6.66667" fill="#56565C" />
    <rect x="40" y="80.6667" width="6.66667" height="6.66667" fill="#56565C" />
    <rect x="33.332" y="80.6667" width="6.66667" height="6.66667" fill="#56565C" />
    <rect x="26.668" y="80.6667" width="6.66667" height="6.66667" fill="#56565C" />
    <rect x="66.668" y="54.0002" width="6.66667" height="6.66667" fill="#56565C" />
    <rect x="66.668" y="80.6667" width="6.66667" height="6.66667" fill="#56565C" />
    <rect x="66.668" y="47.3333" width="6.66667" height="6.66667" fill="#56565C" />
    <rect x="66.668" y="74.0002" width="6.66667" height="6.66667" fill="#56565C" />
    <rect x="86.668" y="40.6667" width="6.66667" height="6.66667" fill="#56565C" />
    <rect x="86.668" y="67.3333" width="6.66667" height="6.66667" fill="#56565C" />
    <rect x="86.668" y="47.3333" width="6.66667" height="6.66667" fill="#56565C" />
    <rect x="86.668" y="74.0002" width="6.66667" height="6.66667" fill="#56565C" />
    <rect x="86.668" y="54.0002" width="6.66667" height="6.66667" fill="#56565C" />
    <rect x="86.668" y="54.0002" width="6.66667" height="6.66667" fill="black" fill-opacity="0.16" />
    <rect x="86.668" y="80.6667" width="6.66667" height="6.66667" fill="#56565C" />
    <rect x="86.668" y="80.6667" width="6.66667" height="6.66667" fill="black" fill-opacity="0.16" />
    <rect x="60" y="20.6667" width="6.66667" height="6.66667" fill="#56565C" />
    <rect x="53.332" y="20.6667" width="6.66667" height="6.66667" fill="#56565C" />
    <rect x="66.668" y="20.6667" width="6.66667" height="6.66667" fill="#56565C" />
    <rect x="80" y="27.3335" width="6.66667" height="6.66667" fill="#56565C" />
    <rect x="80" y="27.3335" width="6.66667" height="6.66667" fill="black" fill-opacity="0.16" />
</svg>
    