<svg width="56" height="56" viewBox="0 0 56 56" fill="none" xmlns="http://www.w3.org/2000/svg">
    <g clip-path="url(#clip0_320_18179)" filter="url(#filter0_d_320_18179)">
        <rect width="51.5195" height="51.5195" transform="translate(0.117188 0.91626)" fill="white" />
        <rect x="20.7266" y="7.78613" width="3.43464" height="3.43464" fill="#FD366E" />
        <rect x="20.7236" y="11.2195" width="3.43464" height="3.43464" fill="#FD366E" />
        <rect x="17.2939" y="7.78687" width="3.43464" height="3.43464" fill="#FD366E" />
        <rect x="17.2939" y="11.2205" width="3.43464" height="3.43464" fill="#FD366E" />
        <rect x="17.293" y="14.6553" width="3.43464" height="3.43464" fill="#D8D8DB" />
        <rect x="17.293" y="45.5674" width="3.43464" height="3.43464" fill="#D8D8DB" />
        <rect x="17.292" y="4.35156" width="3.43464" height="3.43464" fill="#D8D8DB" />
        <rect x="20.7256" y="14.6548" width="3.43464" height="3.43464" fill="#D8D8DB" />
        <rect x="20.7246" y="45.5669" width="3.43464" height="3.43464" fill="#D8D8DB" />
        <rect x="20.7275" y="4.35205" width="3.43464" height="3.43464" fill="#D8D8DB" />
        <rect x="27.5938" y="14.6553" width="3.43464" height="3.43464" fill="#D8D8DB" />
        <rect x="27.5938" y="45.5671" width="3.43464" height="3.43464" fill="#D8D8DB" />
        <rect x="27.5928" y="4.35132" width="3.43464" height="3.43464" fill="#D8D8DB" />
        <rect x="34.4619" y="14.6545" width="3.43464" height="3.43464" fill="#D8D8DB" />
        <rect x="34.4648" y="45.5667" width="3.43464" height="3.43464" fill="#D8D8DB" />
        <rect x="34.4609" y="4.35059" width="3.43464" height="3.43464" fill="#D8D8DB" />
        <rect x="41.333" y="14.655" width="3.43464" height="3.43464" fill="#D8D8DB" />
        <rect x="41.3301" y="45.5662" width="3.43464" height="3.43464" fill="#D8D8DB" />
        <rect x="41.332" y="4.35107" width="3.43464" height="3.43464" fill="#D8D8DB" />
        <rect x="13.8584" y="7.78589" width="3.43464" height="3.43464" fill="#FD366E" />
        <rect x="13.8584" y="11.22" width="3.43464" height="3.43464" fill="#FD366E" />
        <rect x="13.8604" y="14.6555" width="3.43464" height="3.43464" fill="#D8D8DB" />
        <rect x="13.8574" y="45.5667" width="3.43464" height="3.43464" fill="#D8D8DB" />
        <rect x="13.8594" y="4.35181" width="3.43464" height="3.43464" fill="#D8D8DB" />
        <rect x="10.4199" y="7.78516" width="3.43464" height="3.43464" fill="#FD366E" />
        <rect x="10.4189" y="11.2202" width="3.43464" height="3.43464" fill="#FD366E" />
        <rect x="10.4219" y="14.6555" width="3.43464" height="3.43464" fill="#D8D8DB" />
        <rect x="10.418" y="45.5662" width="3.43464" height="3.43464" fill="#D8D8DB" />
        <rect x="10.4209" y="4.35156" width="3.43464" height="3.43464" fill="#D8D8DB" />
        <rect x="3.54785" y="14.6545" width="3.43464" height="3.43464" fill="#D8D8DB" />
        <rect x="3.54785" y="28.3933" width="3.43464" height="3.43464" fill="#D8D8DB" />
        <rect x="44.7627" y="28.3923" width="3.43464" height="3.43464" fill="#D8D8DB" />
        <rect x="3.54785" y="42.1316" width="3.43464" height="3.43464" fill="#D8D8DB" />
        <rect x="44.7656" y="42.1318" width="3.43464" height="3.43464" fill="#D8D8DB" />
        <rect x="3.54688" y="45.5662" width="3.43464" height="3.43464" fill="#D8D8DB" />
        <rect x="44.7656" y="45.5664" width="3.43464" height="3.43464" fill="#D8D8DB" />
        <rect x="3.5459" y="11.219" width="3.43464" height="3.43464" fill="#D8D8DB" />
        <rect x="3.54883" y="24.9583" width="3.43464" height="3.43464" fill="#D8D8DB" />
        <rect x="44.7666" y="24.9585" width="3.43464" height="3.43464" fill="#D8D8DB" />
        <rect x="3.54883" y="38.698" width="3.43464" height="3.43464" fill="#D8D8DB" />
        <rect x="44.7637" y="38.697" width="3.43464" height="3.43464" fill="#D8D8DB" />
        <rect x="3.5459" y="7.78491" width="3.43464" height="3.43464" fill="#D8D8DB" />
        <rect x="3.5459" y="21.5234" width="3.43464" height="3.43464" fill="#D8D8DB" />
        <rect x="44.7666" y="21.5244" width="3.43464" height="3.43464" fill="#D8D8DB" />
        <rect x="3.54883" y="35.2629" width="3.43464" height="3.43464" fill="#D8D8DB" />
        <rect x="44.7646" y="35.262" width="3.43464" height="3.43464" fill="#D8D8DB" />
        <rect x="3.5459" y="4.35132" width="3.43464" height="3.43464" fill="#D8D8DB" />
        <rect x="3.54688" y="18.0894" width="3.43464" height="3.43464" fill="#D8D8DB" />
        <rect x="44.7676" y="18.0901" width="3.43464" height="3.43464" fill="#D8D8DB" />
        <rect x="3.54688" y="31.8276" width="3.43464" height="3.43464" fill="#D8D8DB" />
        <rect x="44.7646" y="31.8279" width="3.43464" height="3.43464" fill="#D8D8DB" />
        <rect x="6.98438" y="7.78491" width="3.43464" height="3.43464" fill="#FD366E" />
        <rect x="6.9873" y="11.2205" width="3.43464" height="3.43464" fill="#FD366E" />
        <rect x="6.98633" y="14.6545" width="3.43464" height="3.43464" fill="#D8D8DB" />
        <rect x="6.98633" y="45.5667" width="3.43464" height="3.43464" fill="#D8D8DB" />
        <rect x="6.98535" y="4.35132" width="3.43464" height="3.43464" fill="#D8D8DB" />
        <rect x="0.112305" y="14.6543" width="3.43464" height="3.43464" fill="#ADADB0" />
        <rect x="24.1592" y="7.78564" width="3.43464" height="3.43464" fill="#FD366E" />
        <rect x="34.4629" y="7.78491" width="3.43464" height="3.43464" fill="#982042" />
        <rect x="24.1592" y="11.22" width="3.43464" height="3.43464" fill="#FD366E" />
        <rect x="24.1582" y="14.6545" width="3.43464" height="3.43464" fill="#D8D8DB" />
        <rect x="24.1602" y="45.5674" width="3.43464" height="3.43464" fill="#D8D8DB" />
        <rect x="24.1572" y="4.35059" width="3.43464" height="3.43464" fill="#D8D8DB" />
        <rect x="31.0293" y="14.655" width="3.43464" height="3.43464" fill="#D8D8DB" />
        <rect x="31.0293" y="45.5664" width="3.43464" height="3.43464" fill="#D8D8DB" />
        <rect x="31.0283" y="4.35107" width="3.43464" height="3.43464" fill="#D8D8DB" />
        <rect x="37.8975" y="14.6553" width="3.43464" height="3.43464" fill="#D8D8DB" />
        <rect x="37.8965" y="45.5667" width="3.43464" height="3.43464" fill="#D8D8DB" />
        <rect x="37.8965" y="4.35132" width="3.43464" height="3.43464" fill="#D8D8DB" />
        <rect x="44.7656" y="14.6545" width="3.43464" height="3.43464" fill="#D8D8DB" />
        <rect x="44.7676" y="4.35205" width="3.43464" height="3.43464" fill="#D8D8DB" />
        <rect x="44.7666" y="7.78564" width="3.43464" height="3.43464" fill="#D8D8DB" />
        <rect x="44.7666" y="11.2197" width="3.43464" height="3.43464" fill="#D8D8DB" />
        <rect x="48.2012" y="14.6553" width="3.43464" height="3.43464" fill="#ADADB0" />
        <rect x="48.1973" y="31.8271" width="3.43464" height="3.43464" fill="#ADADB0" />
        <rect x="0.114258" y="31.8279" width="3.43464" height="3.43464" fill="#ADADB0" />
        <rect x="48.2002" y="49.0007" width="3.43464" height="3.43464" fill="#ADADB0" />
        <rect x="0.114258" y="49.0007" width="3.43464" height="3.43464" fill="#ADADB0" />
        <rect x="48.1982" y="11.2197" width="3.43464" height="3.43464" fill="#ADADB0" />
        <rect x="48.1982" y="28.3926" width="3.43464" height="3.43464" fill="#ADADB0" />
        <rect x="0.112305" y="28.3928" width="3.43464" height="3.43464" fill="#ADADB0" />
        <rect x="48.2002" y="45.5674" width="3.43464" height="3.43464" fill="#ADADB0" />
        <rect x="0.114258" y="45.5671" width="3.43464" height="3.43464" fill="#ADADB0" />
        <rect x="48.1992" y="7.78564" width="3.43464" height="3.43464" fill="#ADADB0" />
        <rect x="48.1992" y="24.9578" width="3.43464" height="3.43464" fill="#ADADB0" />
        <rect x="0.113281" y="24.9583" width="3.43464" height="3.43464" fill="#ADADB0" />
        <rect x="48.1982" y="42.1311" width="3.43464" height="3.43464" fill="#ADADB0" />
        <rect x="0.115234" y="42.1318" width="3.43464" height="3.43464" fill="#ADADB0" />
        <rect x="48.2002" y="4.35132" width="3.43464" height="3.43464" fill="#ADADB0" />
        <rect x="48.1963" y="21.5227" width="3.43464" height="3.43464" fill="#ADADB0" />
        <rect x="0.113281" y="21.5242" width="3.43464" height="3.43464" fill="#ADADB0" />
        <rect x="48.1992" y="38.6975" width="3.43464" height="3.43464" fill="#ADADB0" />
        <rect x="0.113281" y="38.6973" width="3.43464" height="3.43464" fill="#ADADB0" />
        <rect x="48.2012" y="0.916748" width="3.43464" height="3.43464" fill="#ADADB0" />
        <rect x="48.1973" y="18.0891" width="3.43464" height="3.43464" fill="#ADADB0" />
        <rect x="0.111328" y="18.0889" width="3.43464" height="3.43464" fill="#ADADB0" />
        <rect x="48.2002" y="35.2622" width="3.43464" height="3.43464" fill="#ADADB0" />
        <rect x="0.114258" y="35.2622" width="3.43464" height="3.43464" fill="#ADADB0" />
        <rect x="37.8965" y="0.916748" width="3.43464" height="3.43464" fill="#ADADB0" />
        <rect x="37.8965" y="49.0012" width="3.43464" height="3.43464" fill="#ADADB0" />
        <rect x="27.5928" y="0.916504" width="3.43464" height="3.43464" fill="#ADADB0" />
        <rect x="27.5928" y="49.0007" width="3.43464" height="3.43464" fill="#ADADB0" />
        <rect x="17.293" y="0.916992" width="3.43464" height="3.43464" fill="#ADADB0" />
        <rect x="17.292" y="49.0012" width="3.43464" height="3.43464" fill="#ADADB0" />
        <rect x="6.98633" y="0.916748" width="3.43464" height="3.43464" fill="#ADADB0" />
        <rect x="6.98535" y="49.0012" width="3.43464" height="3.43464" fill="#ADADB0" />
        <rect x="44.7646" y="0.916504" width="3.43464" height="3.43464" fill="#ADADB0" />
        <rect x="44.7646" y="49.0002" width="3.43464" height="3.43464" fill="#ADADB0" />
        <rect x="34.4609" y="0.91626" width="3.43464" height="3.43464" fill="#ADADB0" />
        <rect x="34.4639" y="49.0012" width="3.43464" height="3.43464" fill="#ADADB0" />
        <rect x="24.1582" y="0.916504" width="3.43464" height="3.43464" fill="#ADADB0" />
        <rect x="24.1602" y="49.0007" width="3.43464" height="3.43464" fill="#ADADB0" />
        <rect x="13.8574" y="0.91626" width="3.43464" height="3.43464" fill="#ADADB0" />
        <rect x="13.8564" y="49" width="3.43464" height="3.43464" fill="#ADADB0" />
        <rect x="3.54688" y="0.916504" width="3.43464" height="3.43464" fill="#ADADB0" />
        <rect x="3.5498" y="49.001" width="3.43464" height="3.43464" fill="#ADADB0" />
        <rect x="41.333" y="0.916504" width="3.43464" height="3.43464" fill="#ADADB0" />
        <rect x="41.332" y="49.0007" width="3.43464" height="3.43464" fill="#ADADB0" />
        <rect x="31.0264" y="0.915771" width="3.43464" height="3.43464" fill="#ADADB0" />
        <rect x="31.0312" y="49.002" width="3.43464" height="3.43464" fill="#ADADB0" />
        <rect x="20.7285" y="0.917236" width="3.43464" height="3.43464" fill="#ADADB0" />
        <rect x="20.7246" y="49.0005" width="3.43464" height="3.43464" fill="#ADADB0" />
        <rect x="10.4189" y="0.91626" width="3.43464" height="3.43464" fill="#ADADB0" />
        <rect x="10.418" y="49.0005" width="3.43464" height="3.43464" fill="#ADADB0" />
        <rect x="0.111328" y="0.915771" width="3.43464" height="3.43464" fill="#ADADB0" />
        <rect x="0.111328" y="4.35034" width="3.43464" height="3.43464" fill="#ADADB0" />
        <rect x="0.113281" y="7.7854" width="3.43464" height="3.43464" fill="#ADADB0" />
        <rect x="0.113281" y="11.2195" width="3.43464" height="3.43464" fill="#ADADB0" />
        <rect x="34.4629" y="11.2197" width="3.43464" height="3.43464" fill="#982042" />
        <rect x="27.5918" y="7.78564" width="3.43464" height="3.43464" fill="#982042" />
        <rect x="37.8955" y="7.78516" width="3.43464" height="3.43464" fill="white" />
        <rect x="27.5938" y="11.2202" width="3.43464" height="3.43464" fill="#982042" />
        <rect x="10.4199" y="38.6978" width="3.43464" height="3.43464" fill="#982042" />
        <rect x="20.7266" y="38.698" width="3.43464" height="3.43464" fill="#982042" />
        <rect x="31.0303" y="38.698" width="3.43464" height="3.43464" fill="#982042" />
        <rect x="37.8975" y="11.2205" width="3.43464" height="3.43464" fill="#982042" />
        <rect x="31.0273" y="7.78491" width="3.43464" height="3.43464" fill="white" />
        <rect x="41.3311" y="7.7854" width="3.43464" height="3.43464" fill="#982042" />
        <rect x="31.0273" y="11.2195" width="3.43464" height="3.43464" fill="#982042" />
        <rect x="13.8584" y="38.6978" width="3.43464" height="3.43464" fill="#982042" />
        <rect x="24.1592" y="38.6975" width="3.43464" height="3.43464" fill="#982042" />
        <rect x="34.4629" y="38.698" width="3.43464" height="3.43464" fill="#982042" />
        <rect x="37.8984" y="38.6982" width="3.43464" height="3.43464" fill="#982042" />
        <rect x="41.3311" y="11.2195" width="3.43464" height="3.43464" fill="#982042" />
    </g>
    <defs>
        <filter id="filter0_d_320_18179" x="0.117188" y="0.91626" width="55.815" height="54.3817"
            filterUnits="userSpaceOnUse" color-interpolation-filters="sRGB">
            <feFlood flood-opacity="0" result="BackgroundImageFix" />
            <feColorMatrix in="SourceAlpha" type="matrix"
                values="0 0 0 0 0 0 0 0 0 0 0 0 0 0 0 0 0 0 127 0" result="hardAlpha" />
            <feOffset dx="4.29545" dy="2.8622" />
            <feComposite in2="hardAlpha" operator="out" />
            <feColorMatrix type="matrix" values="0 0 0 0 0 0 0 0 0 0 0 0 0 0 0 0 0 0 0.12 0" />
            <feBlend mode="normal" in2="BackgroundImageFix" result="effect1_dropShadow_320_18179" />
            <feBlend mode="normal" in="SourceGraphic" in2="effect1_dropShadow_320_18179"
                result="shape" />
        </filter>
        <clipPath id="clip0_320_18179">
            <rect width="51.5195" height="51.5195" fill="white"
                transform="translate(0.117188 0.91626)" />
        </clipPath>
    </defs>
</svg>