<svg width="688" height="315" viewBox="0 0 688 315" fill="none" xmlns="http://www.w3.org/2000/svg">
<mask id="mask0_13_11282" style="mask-type:alpha" maskUnits="userSpaceOnUse" x="0" y="0" width="728" height="315">
<rect width="728" height="315" transform="matrix(-1 0 0 1 728 0)" fill="url(#paint0_linear_13_11282)"/>
</mask>
<g mask="url(#mask0_13_11282)">
<g filter="url(#filter0_bdi_13_11282)">
<rect x="376.584" y="11.9531" width="231.611" height="227.686" rx="44.5953" fill="white" fill-opacity="0.02" shape-rendering="crispEdges"/>
<rect x="376.584" y="11.9531" width="231.611" height="227.686" rx="44.5953" fill="url(#paint1_linear_13_11282)" fill-opacity="0.08" shape-rendering="crispEdges"/>
<rect x="377.847" y="13.2162" width="229.085" height="225.16" rx="43.3322" stroke="url(#paint2_linear_13_11282)" stroke-opacity="0.15" stroke-width="2.52617" shape-rendering="crispEdges"/>
<rect x="377.847" y="13.2162" width="229.085" height="225.16" rx="43.3322" stroke="url(#paint3_linear_13_11282)" stroke-width="2.52617" shape-rendering="crispEdges"/>
<rect x="377.847" y="13.2162" width="229.085" height="225.16" rx="43.3322" stroke="url(#paint4_linear_13_11282)" stroke-width="2.52617" shape-rendering="crispEdges"/>
<g clip-path="url(#clip0_13_11282)">
<path fill-rule="evenodd" clip-rule="evenodd" d="M420.753 113.569C420.425 113.569 420.343 113.405 420.507 113.159L422.23 110.944C422.394 110.697 422.804 110.533 423.132 110.533H452.427C452.756 110.533 452.838 110.78 452.674 111.026L451.279 113.159C451.114 113.405 450.704 113.652 450.458 113.652L420.753 113.569Z" fill="url(#paint5_linear_13_11282)"/>
<path fill-rule="evenodd" clip-rule="evenodd" d="M408.362 121.119C408.034 121.119 407.952 120.955 408.116 120.709L409.839 118.493C410.003 118.247 410.413 118.083 410.742 118.083H448.16C448.489 118.083 448.653 118.329 448.571 118.575L447.914 120.545C447.832 120.873 447.504 121.037 447.176 121.037L408.362 121.119Z" fill="url(#paint6_linear_13_11282)"/>
<path fill-rule="evenodd" clip-rule="evenodd" d="M428.22 128.668C427.892 128.668 427.81 128.422 427.974 128.176L429.123 126.124C429.287 125.878 429.615 125.632 429.944 125.632H446.355C446.683 125.632 446.848 125.878 446.848 126.207L446.683 128.176C446.683 128.504 446.355 128.75 446.109 128.75L428.22 128.668Z" fill="url(#paint7_linear_13_11282)"/>
<path fill-rule="evenodd" clip-rule="evenodd" d="M513.397 112.092C508.227 113.405 504.699 114.39 499.611 115.703C498.38 116.031 498.298 116.113 497.231 114.882C496 113.487 495.098 112.585 493.375 111.764C488.205 109.22 483.199 109.959 478.522 112.995C472.942 116.606 470.07 121.939 470.152 128.586C470.234 135.151 474.747 140.567 481.23 141.469C486.81 142.208 491.487 140.238 495.18 136.053C495.918 135.151 496.575 134.166 497.395 133.017C494.441 133.017 490.749 133.017 481.558 133.017C479.835 133.017 479.425 131.951 479.999 130.556C481.066 128.012 483.035 123.745 484.184 121.611C484.43 121.119 485.005 120.298 486.235 120.298H516.105C515.941 122.514 515.941 124.729 515.612 126.945C514.71 132.853 512.494 138.269 508.884 143.028C502.975 150.824 495.262 155.665 485.497 156.978C477.455 158.045 469.988 156.486 463.423 151.562C457.351 146.967 453.904 140.895 453.002 133.346C451.935 124.401 454.561 116.359 459.977 109.302C465.803 101.671 473.516 96.8295 482.953 95.1063C490.667 93.7113 498.052 94.6139 504.699 99.1271C509.048 101.999 512.166 105.938 514.217 110.697C514.71 111.436 514.381 111.846 513.397 112.092Z" fill="url(#paint8_linear_13_11282)"/>
<path d="M540.559 157.471C533.091 157.307 526.281 155.173 520.537 150.25C515.695 146.065 512.659 140.731 511.674 134.413C510.197 125.14 512.741 116.934 518.321 109.631C524.311 101.753 531.532 97.6504 541.297 95.9272C549.667 94.4502 557.545 95.2707 564.684 100.112C571.167 104.543 575.187 110.534 576.254 118.411C577.649 129.489 574.449 138.516 566.818 146.229C561.402 151.727 554.755 155.173 547.123 156.733C544.908 157.143 542.692 157.225 540.559 157.471ZM560.089 124.319C560.007 123.253 560.007 122.432 559.843 121.611C558.365 113.488 550.898 108.892 543.103 110.698C535.471 112.421 530.548 117.262 528.742 124.976C527.265 131.376 530.384 137.859 536.292 140.485C540.805 142.454 545.318 142.208 549.667 139.993C556.15 136.628 559.678 131.376 560.089 124.319Z" fill="url(#paint9_linear_13_11282)"/>
</g>
</g>
<g opacity="0.5" filter="url(#filter1_bdi_13_11282)">
<rect x="626.943" y="11.9531" width="231.611" height="227.686" rx="44.5953" fill="white" fill-opacity="0.02" shape-rendering="crispEdges"/>
<rect x="628.206" y="13.2162" width="229.085" height="225.16" rx="43.3322" stroke="url(#paint10_linear_13_11282)" stroke-opacity="0.15" stroke-width="2.52617" shape-rendering="crispEdges"/>
</g>
<g opacity="0.5" filter="url(#filter2_bdi_13_11282)">
<path d="M126.225 83.3055C126.225 58.3298 126.225 45.842 131.085 36.3025C135.361 27.9114 142.183 21.0892 150.574 16.8137C160.114 11.9531 172.601 11.9531 197.577 11.9531H286.483C311.459 11.9531 323.947 11.9531 333.486 16.8137C341.877 21.0892 348.7 27.9114 352.975 36.3025C357.836 45.842 357.836 58.3298 357.836 83.3055V168.287C357.836 193.262 357.836 205.75 352.975 215.29C348.7 223.681 341.877 230.503 333.486 234.779C323.947 239.639 311.459 239.639 286.483 239.639H197.577C172.601 239.639 160.114 239.639 150.574 234.779C142.183 230.503 135.361 223.681 131.085 215.29C126.225 205.75 126.225 193.262 126.225 168.287V83.3055Z" fill="white" fill-opacity="0.02" shape-rendering="crispEdges"/>
<path d="M127.488 83.3055C127.488 70.7968 127.489 61.4913 128.091 54.1183C128.692 46.7601 129.886 41.438 132.211 36.876C136.365 28.7225 142.994 22.0935 151.147 17.9391C155.709 15.6147 161.032 14.4208 168.39 13.8196C175.763 13.2172 185.068 13.2162 197.577 13.2162H286.483C298.992 13.2162 308.297 13.2172 315.67 13.8196C323.029 14.4208 328.351 15.6147 332.913 17.9391C341.066 22.0935 347.695 28.7225 351.85 36.876C354.174 41.438 355.368 46.7601 355.969 54.1183C356.572 61.4913 356.573 70.7968 356.573 83.3055V168.287C356.573 180.795 356.572 190.101 355.969 197.474C355.368 204.832 354.174 210.154 351.85 214.716C347.695 222.87 341.066 229.499 332.913 233.653C328.351 235.978 323.029 237.172 315.67 237.773C308.297 238.375 298.992 238.376 286.483 238.376H197.577C185.068 238.376 175.763 238.375 168.39 237.773C161.032 237.172 155.709 235.978 151.147 233.653C142.994 229.499 136.365 222.87 132.211 214.716C129.886 210.154 128.692 204.832 128.091 197.474C127.489 190.101 127.488 180.795 127.488 168.287V83.3055Z" stroke="url(#paint11_linear_13_11282)" stroke-opacity="0.15" stroke-width="2.52617" shape-rendering="crispEdges"/>
</g>
<path d="M568.265 370.672L568.265 238.059" stroke="url(#paint12_linear_13_11282)" stroke-width="2.13603" stroke-linecap="round"/>
<path d="M493.158 427.785L493.157 254.489" stroke="url(#paint13_linear_13_11282)" stroke-width="2.13603" stroke-linecap="round"/>
<path d="M530.712 427.785L530.711 295.172" stroke="url(#paint14_linear_13_11282)" stroke-width="2.13603" stroke-linecap="round"/>
<path d="M456.386 404.704L456.386 287.349" stroke="url(#paint15_linear_13_11282)" stroke-width="2.13603" stroke-linecap="round"/>
<g style="mix-blend-mode:screen" filter="url(#filter3_f_13_11282)">
<path d="M568.265 370.672L568.265 238.059" stroke="url(#paint16_linear_13_11282)" stroke-width="2.13603" stroke-linecap="round"/>
<path d="M493.158 427.785L493.157 254.489" stroke="url(#paint17_linear_13_11282)" stroke-width="2.13603" stroke-linecap="round"/>
<path d="M530.712 427.785L530.711 295.172" stroke="url(#paint18_linear_13_11282)" stroke-width="2.13603" stroke-linecap="round"/>
<path d="M456.386 404.704L456.386 287.349" stroke="url(#paint19_linear_13_11282)" stroke-width="2.13603" stroke-linecap="round"/>
</g>
<g filter="url(#filter4_f_13_11282)">
<g style="mix-blend-mode:screen" filter="url(#filter5_f_13_11282)">
<circle cx="567.874" cy="238.45" r="14.4739" fill="url(#paint20_radial_13_11282)" fill-opacity="0.5"/>
</g>
<g style="mix-blend-mode:screen">
<circle cx="567.873" cy="238.45" r="7.9373" fill="url(#paint21_radial_13_11282)"/>
</g>
</g>
</g>
<defs>
<filter id="filter0_bdi_13_11282" x="250.275" y="-114.356" width="484.229" height="480.304" filterUnits="userSpaceOnUse" color-interpolation-filters="sRGB">
<feFlood flood-opacity="0" result="BackgroundImageFix"/>
<feGaussianBlur in="BackgroundImageFix" stdDeviation="63.1544"/>
<feComposite in2="SourceAlpha" operator="in" result="effect1_backgroundBlur_13_11282"/>
<feColorMatrix in="SourceAlpha" type="matrix" values="0 0 0 0 0 0 0 0 0 0 0 0 0 0 0 0 0 0 127 0" result="hardAlpha"/>
<feOffset dx="15.6062"/>
<feGaussianBlur stdDeviation="26.0103"/>
<feComposite in2="hardAlpha" operator="out"/>
<feColorMatrix type="matrix" values="0 0 0 0 0 0 0 0 0 0 0 0 0 0 0 0 0 0 0.16 0"/>
<feBlend mode="normal" in2="effect1_backgroundBlur_13_11282" result="effect2_dropShadow_13_11282"/>
<feBlend mode="normal" in="SourceGraphic" in2="effect2_dropShadow_13_11282" result="shape"/>
<feColorMatrix in="SourceAlpha" type="matrix" values="0 0 0 0 0 0 0 0 0 0 0 0 0 0 0 0 0 0 127 0" result="hardAlpha"/>
<feOffset dy="1.30052"/>
<feGaussianBlur stdDeviation="0.650258"/>
<feComposite in2="hardAlpha" operator="arithmetic" k2="-1" k3="1"/>
<feColorMatrix type="matrix" values="0 0 0 0 1 0 0 0 0 1 0 0 0 0 1 0 0 0 0.25 0"/>
<feBlend mode="normal" in2="shape" result="effect3_innerShadow_13_11282"/>
</filter>
<filter id="filter1_bdi_13_11282" x="500.635" y="-114.356" width="484.229" height="480.304" filterUnits="userSpaceOnUse" color-interpolation-filters="sRGB">
<feFlood flood-opacity="0" result="BackgroundImageFix"/>
<feGaussianBlur in="BackgroundImageFix" stdDeviation="63.1544"/>
<feComposite in2="SourceAlpha" operator="in" result="effect1_backgroundBlur_13_11282"/>
<feColorMatrix in="SourceAlpha" type="matrix" values="0 0 0 0 0 0 0 0 0 0 0 0 0 0 0 0 0 0 127 0" result="hardAlpha"/>
<feOffset dx="15.6062"/>
<feGaussianBlur stdDeviation="26.0103"/>
<feComposite in2="hardAlpha" operator="out"/>
<feColorMatrix type="matrix" values="0 0 0 0 0 0 0 0 0 0 0 0 0 0 0 0 0 0 0.16 0"/>
<feBlend mode="normal" in2="effect1_backgroundBlur_13_11282" result="effect2_dropShadow_13_11282"/>
<feBlend mode="normal" in="SourceGraphic" in2="effect2_dropShadow_13_11282" result="shape"/>
<feColorMatrix in="SourceAlpha" type="matrix" values="0 0 0 0 0 0 0 0 0 0 0 0 0 0 0 0 0 0 127 0" result="hardAlpha"/>
<feOffset dy="1.30052"/>
<feGaussianBlur stdDeviation="0.650258"/>
<feComposite in2="hardAlpha" operator="arithmetic" k2="-1" k3="1"/>
<feColorMatrix type="matrix" values="0 0 0 0 1 0 0 0 0 1 0 0 0 0 1 0 0 0 0.25 0"/>
<feBlend mode="normal" in2="shape" result="effect3_innerShadow_13_11282"/>
</filter>
<filter id="filter2_bdi_13_11282" x="-0.084137" y="-114.356" width="484.229" height="480.304" filterUnits="userSpaceOnUse" color-interpolation-filters="sRGB">
<feFlood flood-opacity="0" result="BackgroundImageFix"/>
<feGaussianBlur in="BackgroundImageFix" stdDeviation="63.1544"/>
<feComposite in2="SourceAlpha" operator="in" result="effect1_backgroundBlur_13_11282"/>
<feColorMatrix in="SourceAlpha" type="matrix" values="0 0 0 0 0 0 0 0 0 0 0 0 0 0 0 0 0 0 127 0" result="hardAlpha"/>
<feOffset dx="15.6062"/>
<feGaussianBlur stdDeviation="26.0103"/>
<feComposite in2="hardAlpha" operator="out"/>
<feColorMatrix type="matrix" values="0 0 0 0 0 0 0 0 0 0 0 0 0 0 0 0 0 0 0.16 0"/>
<feBlend mode="normal" in2="effect1_backgroundBlur_13_11282" result="effect2_dropShadow_13_11282"/>
<feBlend mode="normal" in="SourceGraphic" in2="effect2_dropShadow_13_11282" result="shape"/>
<feColorMatrix in="SourceAlpha" type="matrix" values="0 0 0 0 0 0 0 0 0 0 0 0 0 0 0 0 0 0 127 0" result="hardAlpha"/>
<feOffset dy="1.30052"/>
<feGaussianBlur stdDeviation="0.650258"/>
<feComposite in2="hardAlpha" operator="arithmetic" k2="-1" k3="1"/>
<feColorMatrix type="matrix" values="0 0 0 0 1 0 0 0 0 1 0 0 0 0 1 0 0 0 0.25 0"/>
<feBlend mode="normal" in2="shape" result="effect3_innerShadow_13_11282"/>
</filter>
<filter id="filter3_f_13_11282" x="410.723" y="229.167" width="166.434" height="254.842" filterUnits="userSpaceOnUse" color-interpolation-filters="sRGB">
<feFlood flood-opacity="0" result="BackgroundImageFix"/>
<feBlend mode="normal" in="SourceGraphic" in2="BackgroundImageFix" result="shape"/>
<feGaussianBlur stdDeviation="3.91187" result="effect1_foregroundBlur_13_11282"/>
</filter>
<filter id="filter4_f_13_11282" x="543.128" y="213.705" width="49.4914" height="49.4914" filterUnits="userSpaceOnUse" color-interpolation-filters="sRGB">
<feFlood flood-opacity="0" result="BackgroundImageFix"/>
<feBlend mode="normal" in="SourceGraphic" in2="BackgroundImageFix" result="shape"/>
<feGaussianBlur stdDeviation="5.1359" result="effect1_foregroundBlur_13_11282"/>
</filter>
<filter id="filter5_f_13_11282" x="548.731" y="219.307" width="38.2858" height="38.2858" filterUnits="userSpaceOnUse" color-interpolation-filters="sRGB">
<feFlood flood-opacity="0" result="BackgroundImageFix"/>
<feBlend mode="normal" in="SourceGraphic" in2="BackgroundImageFix" result="shape"/>
<feGaussianBlur stdDeviation="2.3345" result="effect1_foregroundBlur_13_11282"/>
</filter>
<linearGradient id="paint0_linear_13_11282" x1="0" y1="157.5" x2="607.5" y2="157.5" gradientUnits="userSpaceOnUse">
<stop stop-color="#19191C" stop-opacity="0"/>
<stop offset="0.356496" stop-color="#19191C"/>
<stop offset="1" stop-color="#19191C" stop-opacity="0"/>
</linearGradient>
<linearGradient id="paint1_linear_13_11282" x1="492.389" y1="159.039" x2="492.389" y2="239.639" gradientUnits="userSpaceOnUse">
<stop stop-color="white" stop-opacity="0"/>
<stop offset="1" stop-color="white"/>
</linearGradient>
<linearGradient id="paint2_linear_13_11282" x1="492.389" y1="27.986" x2="492.389" y2="281.981" gradientUnits="userSpaceOnUse">
<stop stop-color="white"/>
<stop offset="1" stop-color="white" stop-opacity="0"/>
</linearGradient>
<linearGradient id="paint3_linear_13_11282" x1="526.408" y1="84.3226" x2="589.389" y2="236.885" gradientUnits="userSpaceOnUse">
<stop offset="0.5" stop-color="white" stop-opacity="0"/>
<stop offset="1" stop-color="white"/>
</linearGradient>
<linearGradient id="paint4_linear_13_11282" x1="492.375" y1="107.794" x2="390.276" y2="8.04123" gradientUnits="userSpaceOnUse">
<stop offset="0.582792" stop-color="white" stop-opacity="0"/>
<stop offset="1" stop-color="white"/>
</linearGradient>
<linearGradient id="paint5_linear_13_11282" x1="436.59" y1="110.533" x2="436.59" y2="114.334" gradientUnits="userSpaceOnUse">
<stop stop-color="white"/>
<stop offset="1" stop-color="#999999"/>
</linearGradient>
<linearGradient id="paint6_linear_13_11282" x1="428.313" y1="118.083" x2="428.313" y2="121.783" gradientUnits="userSpaceOnUse">
<stop stop-color="white"/>
<stop offset="1" stop-color="#999999"/>
</linearGradient>
<linearGradient id="paint7_linear_13_11282" x1="437.37" y1="125.632" x2="437.37" y2="129.433" gradientUnits="userSpaceOnUse">
<stop stop-color="white"/>
<stop offset="1" stop-color="#999999"/>
</linearGradient>
<linearGradient id="paint8_linear_13_11282" x1="484.436" y1="94.5037" x2="484.436" y2="171.041" gradientUnits="userSpaceOnUse">
<stop stop-color="white"/>
<stop offset="1" stop-color="#999999"/>
</linearGradient>
<linearGradient id="paint9_linear_13_11282" x1="543.917" y1="95.2639" x2="543.917" y2="171.086" gradientUnits="userSpaceOnUse">
<stop stop-color="white"/>
<stop offset="1" stop-color="#999999"/>
</linearGradient>
<linearGradient id="paint10_linear_13_11282" x1="742.749" y1="27.986" x2="742.749" y2="281.981" gradientUnits="userSpaceOnUse">
<stop stop-color="white" stop-opacity="0.5"/>
<stop offset="1" stop-color="white" stop-opacity="0.5"/>
</linearGradient>
<linearGradient id="paint11_linear_13_11282" x1="242.03" y1="27.986" x2="242.03" y2="281.981" gradientUnits="userSpaceOnUse">
<stop stop-color="white" stop-opacity="0.5"/>
<stop offset="1" stop-color="white" stop-opacity="0.5"/>
</linearGradient>
<linearGradient id="paint12_linear_13_11282" x1="568.265" y1="371.062" x2="609.281" y2="250.441" gradientUnits="userSpaceOnUse">
<stop stop-color="#FD366E" stop-opacity="0"/>
<stop offset="0.935" stop-color="white"/>
</linearGradient>
<linearGradient id="paint13_linear_13_11282" x1="493.158" y1="428.295" x2="500.271" y2="252.732" gradientUnits="userSpaceOnUse">
<stop stop-color="#FD366E" stop-opacity="0"/>
<stop offset="1" stop-color="white"/>
</linearGradient>
<linearGradient id="paint14_linear_13_11282" x1="530.712" y1="428.175" x2="535" y2="293.744" gradientUnits="userSpaceOnUse">
<stop stop-color="white" stop-opacity="0"/>
<stop offset="1" stop-color="white"/>
</linearGradient>
<linearGradient id="paint15_linear_13_11282" x1="456.386" y1="405.05" x2="503.674" y2="309.323" gradientUnits="userSpaceOnUse">
<stop stop-color="white" stop-opacity="0"/>
<stop offset="1" stop-color="white"/>
</linearGradient>
<linearGradient id="paint16_linear_13_11282" x1="568.265" y1="371.062" x2="609.281" y2="250.441" gradientUnits="userSpaceOnUse">
<stop stop-color="#FD366E" stop-opacity="0"/>
<stop offset="0.935" stop-color="white"/>
</linearGradient>
<linearGradient id="paint17_linear_13_11282" x1="493.158" y1="428.295" x2="500.271" y2="252.732" gradientUnits="userSpaceOnUse">
<stop stop-color="#FD366E" stop-opacity="0"/>
<stop offset="1" stop-color="white"/>
</linearGradient>
<linearGradient id="paint18_linear_13_11282" x1="530.712" y1="428.175" x2="535" y2="293.744" gradientUnits="userSpaceOnUse">
<stop stop-color="white" stop-opacity="0"/>
<stop offset="1" stop-color="white"/>
</linearGradient>
<linearGradient id="paint19_linear_13_11282" x1="456.386" y1="405.05" x2="503.674" y2="309.323" gradientUnits="userSpaceOnUse">
<stop stop-color="white" stop-opacity="0"/>
<stop offset="1" stop-color="white"/>
</linearGradient>
<radialGradient id="paint20_radial_13_11282" cx="0" cy="0" r="1" gradientUnits="userSpaceOnUse" gradientTransform="translate(567.874 238.45) rotate(90) scale(14.4739)">
<stop stop-color="white"/>
<stop offset="1" stop-color="white" stop-opacity="0"/>
</radialGradient>
<radialGradient id="paint21_radial_13_11282" cx="0" cy="0" r="1" gradientUnits="userSpaceOnUse" gradientTransform="translate(567.873 238.45) rotate(90) scale(7.9373)">
<stop stop-color="white"/>
<stop offset="1" stop-color="white" stop-opacity="0"/>
</radialGradient>
<clipPath id="clip0_13_11282">
<rect width="169.861" height="64.0056" fill="white" transform="translate(407.459 93.7933)"/>
</clipPath>
</defs>
</svg>
