<svg width="338" height="175" viewBox="0 0 338 175" fill="none" xmlns="http://www.w3.org/2000/svg">
<g filter="url(#filter0_b_354_6056)">
<path d="M313.338 167.104C291.184 167.104 276.631 157.066 276.631 132.843V75.4501H256.866V52.7548H278.152V20.676H302.478V52.7548H334.624V75.4501H302.478V132.625C302.478 140.699 305.736 144.19 313.555 144.19H333.321V167.104H313.338Z" fill="url(#paint0_linear_354_6056)" fill-opacity="0.12"/>
</g>
<g filter="url(#filter1_b_354_6056)">
<path d="M226.48 35.0585C217.009 35.0585 209.96 28.0798 209.96 18.9202C209.96 9.97874 217.009 3.00002 226.48 3.00002C235.952 3.00002 243 9.97874 243 18.9202C243 28.0798 235.952 35.0585 226.48 35.0585ZM213.264 167V75.4043H193V52.7234H239.256V167H213.264Z" fill="url(#paint1_linear_354_6056)" fill-opacity="0.2"/>
</g>
<g filter="url(#filter2_b_354_6056)">
<path d="M79.3054 167.104V52.755H104.935V65.8484H106.89C111.885 57.1195 122.311 49.9181 137.515 49.9181C162.493 49.9181 178.349 68.6853 178.349 92.2535V167.104H152.719V98.3637C152.719 84.1792 142.728 74.3592 129.696 74.3592C115.578 74.3592 104.935 85.2703 104.935 99.6731V167.104H79.3054Z" fill="url(#paint2_linear_354_6056)" fill-opacity="0.2"/>
</g>
<g filter="url(#filter3_b_354_6056)">
<path d="M27.222 167.104V75.4502H7.23962V52.755H52.8517V167.104H27.222Z" fill="url(#paint3_linear_354_6056)" fill-opacity="0.2"/>
</g>
<g filter="url(#filter4_b_354_6056)">
<path d="M23.9642 18.9303C23.9642 28.0957 30.9146 35.0789 40.2542 35.0789C49.5939 35.0789 56.5443 28.0957 56.5443 18.9303C56.5443 9.98317 49.5939 3.00002 40.2542 3.00002C30.9146 3.00002 23.9642 9.98317 23.9642 18.9303Z" fill="url(#paint4_linear_354_6056)" fill-opacity="0.12"/>
</g>
<path d="M333.697 144.19H313.931C306.112 144.19 302.854 140.699 302.854 132.625V75.4501H335V52.7548H302.854V20.676H278.528V52.7548H257.242V75.4501H277.007V132.843C277.007 157.066 291.56 167.104 313.714 167.104H333.697" stroke="url(#paint5_linear_354_6056)" stroke-width="0.501535"/>
<path d="M333.697 144.19H313.931C306.112 144.19 302.854 140.699 302.854 132.625V75.4501H335V52.7548H302.854V20.676H278.528V52.7548H257.242V75.4501H277.007V132.843C277.007 157.066 291.56 167.104 313.714 167.104H333.697" stroke="url(#paint6_linear_354_6056)" stroke-opacity="0.2" stroke-width="0.501535"/>
<path d="M210.337 18.9303C210.337 28.2353 217.401 35.3296 226.878 35.3296C236.355 35.3296 243.419 28.2353 243.419 18.9303C243.419 9.84133 236.353 2.74925 226.878 2.74925C217.403 2.74925 210.337 9.84133 210.337 18.9303Z" stroke="url(#paint7_linear_354_6056)" stroke-width="0.501535"/>
<path d="M210.337 18.9303C210.337 28.2353 217.401 35.3296 226.878 35.3296C236.355 35.3296 243.419 28.2353 243.419 18.9303C243.419 9.84133 236.353 2.74925 226.878 2.74925C217.403 2.74925 210.337 9.84133 210.337 18.9303Z" stroke="url(#paint8_linear_354_6056)" stroke-opacity="0.2" stroke-width="0.501535"/>
<path d="M79.6813 65.8484V167.104H105.311V99.6731C105.311 85.2703 115.954 74.3592 130.072 74.3592C143.104 74.3592 153.095 84.1792 153.095 98.3637V167.104H178.725V92.2535C178.725 68.6853 162.869 49.9181 137.891 49.9181C122.687 49.9181 112.261 57.1195 107.266 65.8484H105.311V52.755H92.4961" stroke="url(#paint9_linear_354_6056)" stroke-width="0.501535"/>
<path d="M79.6813 65.8484V167.104H105.311V99.6731C105.311 85.2703 115.954 74.3592 130.072 74.3592C143.104 74.3592 153.095 84.1792 153.095 98.3637V167.104H178.725V92.2535C178.725 68.6853 162.869 49.9181 137.891 49.9181C122.687 49.9181 112.261 57.1195 107.266 65.8484H105.311V52.755H92.4961" stroke="url(#paint10_linear_354_6056)" stroke-opacity="0.2" stroke-width="0.501535"/>
<path d="M27.5974 167.104V75.4502H7.61499V52.755H53.227V167.104" stroke="url(#paint11_linear_354_6056)" stroke-width="0.501535"/>
<path d="M27.5974 167.104V75.4502H7.61499V52.755H53.227V167.104" stroke="url(#paint12_linear_354_6056)" stroke-opacity="0.2" stroke-width="0.501535"/>
<path d="M52.2306 7.56387C49.3287 4.72708 45.2749 3.00002 40.6302 3.00002C31.2906 3.00002 24.3402 9.98317 24.3402 18.9303C24.3402 28.0957 31.2906 35.0789 40.6302 35.0789C44.6655 35.0789 48.2548 33.7753 51.0302 31.5553" stroke="url(#paint13_linear_354_6056)" stroke-width="0.501535"/>
<path d="M52.2306 7.56387C49.3287 4.72708 45.2749 3.00002 40.6302 3.00002C31.2906 3.00002 24.3402 9.98317 24.3402 18.9303C24.3402 28.0957 31.2906 35.0789 40.6302 35.0789C44.6655 35.0789 48.2548 33.7753 51.0302 31.5553" stroke="url(#paint14_linear_354_6056)" stroke-opacity="0.2" stroke-width="0.501535"/>
<g style="mix-blend-mode:plus-lighter" filter="url(#filter5_f_354_6056)">
<path d="M333.697 144.19H313.931C306.112 144.19 302.854 140.699 302.854 132.625V75.4501H335V52.7548H302.854V20.676H278.528V52.7548H257.242V75.4501H277.007V132.843C277.007 157.066 291.56 167.104 313.714 167.104H333.697" stroke="url(#paint15_linear_354_6056)" stroke-width="0.501535"/>
<path d="M333.697 144.19H313.931C306.112 144.19 302.854 140.699 302.854 132.625V75.4501H335V52.7548H302.854V20.676H278.528V52.7548H257.242V75.4501H277.007V132.843C277.007 157.066 291.56 167.104 313.714 167.104H333.697" stroke="url(#paint16_linear_354_6056)" stroke-opacity="0.2" stroke-width="0.501535"/>
<path d="M210.337 18.9303C210.337 28.2353 217.401 35.3296 226.878 35.3296C236.355 35.3296 243.419 28.2353 243.419 18.9303C243.419 9.84133 236.353 2.74925 226.878 2.74925C217.403 2.74925 210.337 9.84133 210.337 18.9303Z" stroke="url(#paint17_linear_354_6056)" stroke-width="0.501535"/>
<path d="M210.337 18.9303C210.337 28.2353 217.401 35.3296 226.878 35.3296C236.355 35.3296 243.419 28.2353 243.419 18.9303C243.419 9.84133 236.353 2.74925 226.878 2.74925C217.403 2.74925 210.337 9.84133 210.337 18.9303Z" stroke="url(#paint18_linear_354_6056)" stroke-opacity="0.2" stroke-width="0.501535"/>
<path d="M79.6813 65.8483V167.104H105.311V99.6729C105.311 85.2702 115.954 74.359 130.072 74.359C143.104 74.359 153.095 84.1791 153.095 98.3636V167.104H178.725V92.2533C178.725 68.6852 162.869 49.918 137.891 49.918C122.687 49.918 112.261 57.1194 107.266 65.8483H105.311V52.7549H92.4961" stroke="url(#paint19_linear_354_6056)" stroke-width="0.501535"/>
<path d="M79.6813 65.8483V167.104H105.311V99.6729C105.311 85.2702 115.954 74.359 130.072 74.359C143.104 74.359 153.095 84.1791 153.095 98.3636V167.104H178.725V92.2533C178.725 68.6852 162.869 49.918 137.891 49.918C122.687 49.918 112.261 57.1194 107.266 65.8483H105.311V52.7549H92.4961" stroke="url(#paint20_linear_354_6056)" stroke-opacity="0.2" stroke-width="0.501535"/>
<path d="M27.5974 167.104V75.4502H7.61499V52.7549H53.227V167.104" stroke="url(#paint21_linear_354_6056)" stroke-width="0.501535"/>
<path d="M27.5974 167.104V75.4502H7.61499V52.7549H53.227V167.104" stroke="url(#paint22_linear_354_6056)" stroke-opacity="0.2" stroke-width="0.501535"/>
<path d="M52.2301 7.56387C49.3282 4.72708 45.2744 3.00002 40.6297 3.00002C31.2901 3.00002 24.3397 9.98317 24.3397 18.9303C24.3397 28.0957 31.2901 35.0789 40.6297 35.0789C44.665 35.0789 48.2543 33.7753 51.0297 31.5553" stroke="url(#paint23_linear_354_6056)" stroke-width="0.501535"/>
<path d="M52.2301 7.56387C49.3282 4.72708 45.2744 3.00002 40.6297 3.00002C31.2901 3.00002 24.3397 9.98317 24.3397 18.9303C24.3397 28.0957 31.2901 35.0789 40.6297 35.0789C44.665 35.0789 48.2543 33.7753 51.0297 31.5553" stroke="url(#paint24_linear_354_6056)" stroke-opacity="0.2" stroke-width="0.501535"/>
</g>
<g style="mix-blend-mode:screen" filter="url(#filter6_f_354_6056)">
<ellipse cx="7.50956" cy="52.6995" rx="2.81852" ry="2.8318" fill="white"/>
</g>
<g style="mix-blend-mode:screen" filter="url(#filter7_f_354_6056)">
<ellipse cx="7.50963" cy="52.6994" rx="4.50963" ry="4.53088" fill="url(#paint25_radial_354_6056)" fill-opacity="0.19"/>
</g>
<g style="mix-blend-mode:screen" filter="url(#filter8_f_354_6056)">
<ellipse cx="51.5096" cy="7.53089" rx="4.50963" ry="4.53088" fill="url(#paint26_radial_354_6056)" fill-opacity="0.19"/>
</g>
<g style="mix-blend-mode:screen">
<ellipse cx="51.5096" cy="7.53089" rx="4.50963" ry="4.53088" fill="url(#paint27_radial_354_6056)" fill-opacity="0.49"/>
</g>
<g style="mix-blend-mode:screen" filter="url(#filter9_f_354_6056)">
<ellipse cx="105.218" cy="167.104" rx="2.81852" ry="2.8318" fill="white"/>
</g>
<g style="mix-blend-mode:screen" filter="url(#filter10_f_354_6056)">
<ellipse cx="105.218" cy="167.104" rx="4.50963" ry="4.53088" fill="url(#paint28_radial_354_6056)" fill-opacity="0.19"/>
</g>
<g style="mix-blend-mode:screen" filter="url(#filter11_f_354_6056)">
<ellipse cx="238.628" cy="52.6995" rx="2.81852" ry="2.8318" fill="white"/>
</g>
<g style="mix-blend-mode:screen" filter="url(#filter12_f_354_6056)">
<ellipse cx="238.628" cy="52.6994" rx="4.50963" ry="4.53088" fill="url(#paint29_radial_354_6056)" fill-opacity="0.19"/>
</g>
<g style="mix-blend-mode:screen" filter="url(#filter13_f_354_6056)">
<ellipse cx="302.515" cy="20.6056" rx="2.81852" ry="2.8318" fill="white"/>
</g>
<g style="mix-blend-mode:screen" filter="url(#filter14_f_354_6056)">
<ellipse cx="302.515" cy="20.6056" rx="4.50963" ry="4.53088" fill="url(#paint30_radial_354_6056)" fill-opacity="0.19"/>
</g>
<defs>
<filter id="filter0_b_354_6056" x="240.866" y="4.67601" width="109.758" height="178.428" filterUnits="userSpaceOnUse" color-interpolation-filters="sRGB">
<feFlood flood-opacity="0" result="BackgroundImageFix"/>
<feGaussianBlur in="BackgroundImageFix" stdDeviation="8"/>
<feComposite in2="SourceAlpha" operator="in" result="effect1_backgroundBlur_354_6056"/>
<feBlend mode="normal" in="SourceGraphic" in2="effect1_backgroundBlur_354_6056" result="shape"/>
</filter>
<filter id="filter1_b_354_6056" x="177" y="-13" width="82" height="196" filterUnits="userSpaceOnUse" color-interpolation-filters="sRGB">
<feFlood flood-opacity="0" result="BackgroundImageFix"/>
<feGaussianBlur in="BackgroundImageFix" stdDeviation="8"/>
<feComposite in2="SourceAlpha" operator="in" result="effect1_backgroundBlur_354_6056"/>
<feBlend mode="normal" in="SourceGraphic" in2="effect1_backgroundBlur_354_6056" result="shape"/>
</filter>
<filter id="filter2_b_354_6056" x="63.3054" y="33.9181" width="131.043" height="149.186" filterUnits="userSpaceOnUse" color-interpolation-filters="sRGB">
<feFlood flood-opacity="0" result="BackgroundImageFix"/>
<feGaussianBlur in="BackgroundImageFix" stdDeviation="8"/>
<feComposite in2="SourceAlpha" operator="in" result="effect1_backgroundBlur_354_6056"/>
<feBlend mode="normal" in="SourceGraphic" in2="effect1_backgroundBlur_354_6056" result="shape"/>
</filter>
<filter id="filter3_b_354_6056" x="-8.76038" y="36.755" width="77.6121" height="146.349" filterUnits="userSpaceOnUse" color-interpolation-filters="sRGB">
<feFlood flood-opacity="0" result="BackgroundImageFix"/>
<feGaussianBlur in="BackgroundImageFix" stdDeviation="8"/>
<feComposite in2="SourceAlpha" operator="in" result="effect1_backgroundBlur_354_6056"/>
<feBlend mode="normal" in="SourceGraphic" in2="effect1_backgroundBlur_354_6056" result="shape"/>
</filter>
<filter id="filter4_b_354_6056" x="7.96423" y="-13" width="64.5801" height="64.0788" filterUnits="userSpaceOnUse" color-interpolation-filters="sRGB">
<feFlood flood-opacity="0" result="BackgroundImageFix"/>
<feGaussianBlur in="BackgroundImageFix" stdDeviation="8"/>
<feComposite in2="SourceAlpha" operator="in" result="effect1_backgroundBlur_354_6056"/>
<feBlend mode="normal" in="SourceGraphic" in2="effect1_backgroundBlur_354_6056" result="shape"/>
</filter>
<filter id="filter5_f_354_6056" x="5.07152" y="0.205748" width="332.472" height="169.442" filterUnits="userSpaceOnUse" color-interpolation-filters="sRGB">
<feFlood flood-opacity="0" result="BackgroundImageFix"/>
<feBlend mode="normal" in="SourceGraphic" in2="BackgroundImageFix" result="shape"/>
<feGaussianBlur stdDeviation="1.14637" result="effect1_foregroundBlur_354_6056"/>
</filter>
<filter id="filter6_f_354_6056" x="0.392164" y="45.5688" width="14.2348" height="14.2613" filterUnits="userSpaceOnUse" color-interpolation-filters="sRGB">
<feFlood flood-opacity="0" result="BackgroundImageFix"/>
<feBlend mode="normal" in="SourceGraphic" in2="BackgroundImageFix" result="shape"/>
<feGaussianBlur stdDeviation="2.14944" result="effect1_foregroundBlur_354_6056"/>
</filter>
<filter id="filter7_f_354_6056" x="1.85363" y="47.0222" width="11.312" height="11.3545" filterUnits="userSpaceOnUse" color-interpolation-filters="sRGB">
<feFlood flood-opacity="0" result="BackgroundImageFix"/>
<feBlend mode="normal" in="SourceGraphic" in2="BackgroundImageFix" result="shape"/>
<feGaussianBlur stdDeviation="0.573183" result="effect1_foregroundBlur_354_6056"/>
</filter>
<filter id="filter8_f_354_6056" x="45.8536" y="1.85365" width="11.312" height="11.3545" filterUnits="userSpaceOnUse" color-interpolation-filters="sRGB">
<feFlood flood-opacity="0" result="BackgroundImageFix"/>
<feBlend mode="normal" in="SourceGraphic" in2="BackgroundImageFix" result="shape"/>
<feGaussianBlur stdDeviation="0.573183" result="effect1_foregroundBlur_354_6056"/>
</filter>
<filter id="filter9_f_354_6056" x="98.101" y="159.973" width="14.2348" height="14.2614" filterUnits="userSpaceOnUse" color-interpolation-filters="sRGB">
<feFlood flood-opacity="0" result="BackgroundImageFix"/>
<feBlend mode="normal" in="SourceGraphic" in2="BackgroundImageFix" result="shape"/>
<feGaussianBlur stdDeviation="2.14944" result="effect1_foregroundBlur_354_6056"/>
</filter>
<filter id="filter10_f_354_6056" x="99.5625" y="161.427" width="11.312" height="11.3545" filterUnits="userSpaceOnUse" color-interpolation-filters="sRGB">
<feFlood flood-opacity="0" result="BackgroundImageFix"/>
<feBlend mode="normal" in="SourceGraphic" in2="BackgroundImageFix" result="shape"/>
<feGaussianBlur stdDeviation="0.573183" result="effect1_foregroundBlur_354_6056"/>
</filter>
<filter id="filter11_f_354_6056" x="231.511" y="45.5688" width="14.2348" height="14.2613" filterUnits="userSpaceOnUse" color-interpolation-filters="sRGB">
<feFlood flood-opacity="0" result="BackgroundImageFix"/>
<feBlend mode="normal" in="SourceGraphic" in2="BackgroundImageFix" result="shape"/>
<feGaussianBlur stdDeviation="2.14944" result="effect1_foregroundBlur_354_6056"/>
</filter>
<filter id="filter12_f_354_6056" x="232.972" y="47.0222" width="11.312" height="11.3545" filterUnits="userSpaceOnUse" color-interpolation-filters="sRGB">
<feFlood flood-opacity="0" result="BackgroundImageFix"/>
<feBlend mode="normal" in="SourceGraphic" in2="BackgroundImageFix" result="shape"/>
<feGaussianBlur stdDeviation="0.573183" result="effect1_foregroundBlur_354_6056"/>
</filter>
<filter id="filter13_f_354_6056" x="295.397" y="13.4749" width="14.2348" height="14.2613" filterUnits="userSpaceOnUse" color-interpolation-filters="sRGB">
<feFlood flood-opacity="0" result="BackgroundImageFix"/>
<feBlend mode="normal" in="SourceGraphic" in2="BackgroundImageFix" result="shape"/>
<feGaussianBlur stdDeviation="2.14944" result="effect1_foregroundBlur_354_6056"/>
</filter>
<filter id="filter14_f_354_6056" x="296.859" y="14.9284" width="11.312" height="11.3545" filterUnits="userSpaceOnUse" color-interpolation-filters="sRGB">
<feFlood flood-opacity="0" result="BackgroundImageFix"/>
<feBlend mode="normal" in="SourceGraphic" in2="BackgroundImageFix" result="shape"/>
<feGaussianBlur stdDeviation="0.573183" result="effect1_foregroundBlur_354_6056"/>
</filter>
<linearGradient id="paint0_linear_354_6056" x1="295.46" y1="107.977" x2="270.325" y2="31.7816" gradientUnits="userSpaceOnUse">
<stop stop-color="white" stop-opacity="0"/>
<stop offset="1" stop-color="white"/>
</linearGradient>
<linearGradient id="paint1_linear_354_6056" x1="217.816" y1="100.778" x2="238.056" y2="54.406" gradientUnits="userSpaceOnUse">
<stop stop-color="white" stop-opacity="0"/>
<stop offset="1" stop-color="white"/>
</linearGradient>
<linearGradient id="paint2_linear_354_6056" x1="105.03" y1="108.58" x2="76.4063" y2="131.765" gradientUnits="userSpaceOnUse">
<stop stop-color="white" stop-opacity="0"/>
<stop offset="1" stop-color="white"/>
</linearGradient>
<linearGradient id="paint3_linear_354_6056" x1="51.8545" y1="99.1409" x2="6.92375" y2="54.4209" gradientUnits="userSpaceOnUse">
<stop stop-color="white" stop-opacity="0"/>
<stop offset="1" stop-color="white"/>
</linearGradient>
<linearGradient id="paint4_linear_354_6056" x1="56.364" y1="19.0954" x2="27.5901" y2="9.92338" gradientUnits="userSpaceOnUse">
<stop stop-color="white" stop-opacity="0"/>
<stop offset="1" stop-color="white"/>
</linearGradient>
<linearGradient id="paint5_linear_354_6056" x1="302.89" y1="22.1159" x2="359.582" y2="139.792" gradientUnits="userSpaceOnUse">
<stop stop-color="white"/>
<stop offset="1" stop-color="white" stop-opacity="0.3"/>
</linearGradient>
<linearGradient id="paint6_linear_354_6056" x1="302.514" y1="20.6056" x2="301.579" y2="36.7009" gradientUnits="userSpaceOnUse">
<stop stop-color="white"/>
<stop offset="1" stop-color="white" stop-opacity="0"/>
</linearGradient>
<linearGradient id="paint7_linear_354_6056" x1="240.318" y1="52.8882" x2="193.82" y2="75.9345" gradientUnits="userSpaceOnUse">
<stop stop-color="white"/>
<stop offset="1" stop-color="white" stop-opacity="0.3"/>
</linearGradient>
<linearGradient id="paint8_linear_354_6056" x1="238.627" y1="53.2657" x2="220.863" y2="63.7067" gradientUnits="userSpaceOnUse">
<stop stop-color="white"/>
<stop offset="1" stop-color="white" stop-opacity="0"/>
</linearGradient>
<linearGradient id="paint9_linear_354_6056" x1="112.501" y1="61.2769" x2="179.007" y2="61.2769" gradientUnits="userSpaceOnUse">
<stop stop-color="white"/>
<stop offset="1" stop-color="white" stop-opacity="0.3"/>
</linearGradient>
<linearGradient id="paint10_linear_354_6056" x1="105.406" y1="167.104" x2="107.219" y2="157.647" gradientUnits="userSpaceOnUse">
<stop stop-color="white"/>
<stop offset="1" stop-color="white" stop-opacity="0"/>
</linearGradient>
<linearGradient id="paint11_linear_354_6056" x1="22.7293" y1="18.9066" x2="53.3572" y2="18.9066" gradientUnits="userSpaceOnUse">
<stop stop-color="white"/>
<stop offset="1" stop-color="white" stop-opacity="0.3"/>
</linearGradient>
<linearGradient id="paint12_linear_354_6056" x1="7.5093" y1="53.2657" x2="17.5199" y2="64.3574" gradientUnits="userSpaceOnUse">
<stop stop-color="white"/>
<stop offset="1" stop-color="white" stop-opacity="0"/>
</linearGradient>
<linearGradient id="paint13_linear_354_6056" x1="53.3578" y1="7.39059" x2="53.3578" y2="36.2749" gradientUnits="userSpaceOnUse">
<stop stop-color="white"/>
<stop offset="1" stop-color="white" stop-opacity="0.1"/>
</linearGradient>
<linearGradient id="paint14_linear_354_6056" x1="7.50983" y1="53.2657" x2="17.5204" y2="64.3574" gradientUnits="userSpaceOnUse">
<stop stop-color="white"/>
<stop offset="1" stop-color="white" stop-opacity="0"/>
</linearGradient>
<linearGradient id="paint15_linear_354_6056" x1="302.89" y1="22.1159" x2="359.582" y2="139.792" gradientUnits="userSpaceOnUse">
<stop stop-color="white"/>
<stop offset="1" stop-color="white" stop-opacity="0.3"/>
</linearGradient>
<linearGradient id="paint16_linear_354_6056" x1="302.514" y1="20.6056" x2="301.579" y2="36.7009" gradientUnits="userSpaceOnUse">
<stop stop-color="white"/>
<stop offset="1" stop-color="white" stop-opacity="0"/>
</linearGradient>
<linearGradient id="paint17_linear_354_6056" x1="240.318" y1="52.8882" x2="193.82" y2="75.9345" gradientUnits="userSpaceOnUse">
<stop stop-color="white"/>
<stop offset="1" stop-color="white" stop-opacity="0.3"/>
</linearGradient>
<linearGradient id="paint18_linear_354_6056" x1="238.627" y1="53.2657" x2="220.863" y2="63.7067" gradientUnits="userSpaceOnUse">
<stop stop-color="white"/>
<stop offset="1" stop-color="white" stop-opacity="0"/>
</linearGradient>
<linearGradient id="paint19_linear_354_6056" x1="112.501" y1="61.2768" x2="179.007" y2="61.2768" gradientUnits="userSpaceOnUse">
<stop stop-color="white"/>
<stop offset="1" stop-color="white" stop-opacity="0.3"/>
</linearGradient>
<linearGradient id="paint20_linear_354_6056" x1="105.406" y1="167.104" x2="107.219" y2="157.647" gradientUnits="userSpaceOnUse">
<stop stop-color="white"/>
<stop offset="1" stop-color="white" stop-opacity="0"/>
</linearGradient>
<linearGradient id="paint21_linear_354_6056" x1="22.7293" y1="18.9065" x2="53.3572" y2="18.9065" gradientUnits="userSpaceOnUse">
<stop stop-color="white"/>
<stop offset="1" stop-color="white" stop-opacity="0.3"/>
</linearGradient>
<linearGradient id="paint22_linear_354_6056" x1="7.5093" y1="53.2657" x2="17.5199" y2="64.3573" gradientUnits="userSpaceOnUse">
<stop stop-color="white"/>
<stop offset="1" stop-color="white" stop-opacity="0"/>
</linearGradient>
<linearGradient id="paint23_linear_354_6056" x1="53.3573" y1="7.39059" x2="53.3573" y2="36.2749" gradientUnits="userSpaceOnUse">
<stop stop-color="white"/>
<stop offset="1" stop-color="white" stop-opacity="0.1"/>
</linearGradient>
<linearGradient id="paint24_linear_354_6056" x1="7.50934" y1="53.2657" x2="17.5199" y2="64.3574" gradientUnits="userSpaceOnUse">
<stop stop-color="white"/>
<stop offset="1" stop-color="white" stop-opacity="0"/>
</linearGradient>
<radialGradient id="paint25_radial_354_6056" cx="0" cy="0" r="1" gradientUnits="userSpaceOnUse" gradientTransform="translate(7.50963 52.6994) rotate(90) scale(4.53088 4.50963)">
<stop stop-color="white"/>
<stop offset="1" stop-color="white" stop-opacity="0"/>
</radialGradient>
<radialGradient id="paint26_radial_354_6056" cx="0" cy="0" r="1" gradientUnits="userSpaceOnUse" gradientTransform="translate(51.5096 7.53089) rotate(90) scale(4.53088 4.50963)">
<stop stop-color="white"/>
<stop offset="1" stop-color="white" stop-opacity="0"/>
</radialGradient>
<radialGradient id="paint27_radial_354_6056" cx="0" cy="0" r="1" gradientUnits="userSpaceOnUse" gradientTransform="translate(51.5096 7.53089) rotate(90) scale(4.53088 4.50963)">
<stop stop-color="white"/>
<stop offset="1" stop-color="white" stop-opacity="0"/>
</radialGradient>
<radialGradient id="paint28_radial_354_6056" cx="0" cy="0" r="1" gradientUnits="userSpaceOnUse" gradientTransform="translate(105.218 167.104) rotate(90) scale(4.53088 4.50963)">
<stop stop-color="white"/>
<stop offset="1" stop-color="white" stop-opacity="0"/>
</radialGradient>
<radialGradient id="paint29_radial_354_6056" cx="0" cy="0" r="1" gradientUnits="userSpaceOnUse" gradientTransform="translate(238.628 52.6994) rotate(90) scale(4.53088 4.50963)">
<stop stop-color="white"/>
<stop offset="1" stop-color="white" stop-opacity="0"/>
</radialGradient>
<radialGradient id="paint30_radial_354_6056" cx="0" cy="0" r="1" gradientUnits="userSpaceOnUse" gradientTransform="translate(302.515 20.6056) rotate(90) scale(4.53088 4.50963)">
<stop stop-color="white"/>
<stop offset="1" stop-color="white" stop-opacity="0"/>
</radialGradient>
</defs>
</svg>
