<svg width="2722" height="1932" viewBox="0 0 2722 1932" fill="none" xmlns="http://www.w3.org/2000/svg">
  <g filter="url(#filter0_f_389_1414)">
    <path
      d="M2422.71 461.532L1351.5 1634.13C1320.14 1668.47 1320.68 1721.21 1352.75 1754.89C1388.21 1792.14 1447.85 1791.43 1482.42 1753.35L2549.97 577.421C2584.7 539.158 2578.12 479.125 2535.92 449.298C2500.49 424.26 2451.97 429.504 2422.71 461.532Z"
      fill="url(#paint0_linear_389_1414)" />
  </g>
  <g filter="url(#filter1_f_389_1414)">
    <path
      d="M2109.38 330.163L1038.18 1502.76C1006.81 1537.1 1007.36 1589.84 1039.42 1623.52C1074.88 1660.77 1134.52 1660.06 1169.09 1621.98L2236.64 446.052C2271.37 407.789 2264.79 347.756 2222.59 317.929C2187.16 292.891 2138.64 298.135 2109.38 330.163Z"
      fill="url(#paint1_linear_389_1414)" />
  </g>
  <g filter="url(#filter2_f_389_1414)">
    <path
      d="M1631.57 269.315L560.361 1441.92C528.997 1476.25 529.541 1528.99 561.606 1562.67C597.07 1599.92 656.703 1599.21 691.273 1561.13L1758.82 385.204C1793.56 346.941 1786.98 286.908 1744.78 257.081C1709.35 232.043 1660.83 237.286 1631.57 269.315Z"
      fill="url(#paint2_linear_389_1414)" />
  </g>
  <g filter="url(#filter3_f_389_1414)">
    <path
      d="M1243.9 177.054L172.688 1349.66C141.324 1383.99 141.868 1436.73 173.933 1470.41C209.397 1507.66 269.03 1506.95 303.6 1468.87L1371.15 292.943C1405.89 254.681 1399.31 194.648 1357.1 164.82C1321.68 139.782 1273.15 145.026 1243.9 177.054Z"
      fill="url(#paint3_linear_389_1414)" />
  </g>
  <defs>
    <filter id="filter0_f_389_1414" x="1179.48" y="284.659" width="1541.69" height="1646.57"
      filterUnits="userSpaceOnUse" color-interpolation-filters="sRGB">
      <feFlood flood-opacity="0" result="BackgroundImageFix" />
      <feBlend mode="normal" in="SourceGraphic" in2="BackgroundImageFix" result="shape" />
      <feGaussianBlur stdDeviation="74.4276" result="effect1_foregroundBlur_389_1414" />
    </filter>
    <filter id="filter1_f_389_1414" x="866.152" y="153.29" width="1541.69" height="1646.57" filterUnits="userSpaceOnUse"
      color-interpolation-filters="sRGB">
      <feFlood flood-opacity="0" result="BackgroundImageFix" />
      <feBlend mode="normal" in="SourceGraphic" in2="BackgroundImageFix" result="shape" />
      <feGaussianBlur stdDeviation="74.4276" result="effect1_foregroundBlur_389_1414" />
    </filter>
    <filter id="filter2_f_389_1414" x="388.337" y="92.4422" width="1541.69" height="1646.57"
      filterUnits="userSpaceOnUse" color-interpolation-filters="sRGB">
      <feFlood flood-opacity="0" result="BackgroundImageFix" />
      <feBlend mode="normal" in="SourceGraphic" in2="BackgroundImageFix" result="shape" />
      <feGaussianBlur stdDeviation="74.4276" result="effect1_foregroundBlur_389_1414" />
    </filter>
    <filter id="filter3_f_389_1414" x="0.665085" y="0.181931" width="1541.69" height="1646.57"
      filterUnits="userSpaceOnUse" color-interpolation-filters="sRGB">
      <feFlood flood-opacity="0" result="BackgroundImageFix" />
      <feBlend mode="normal" in="SourceGraphic" in2="BackgroundImageFix" result="shape" />
      <feGaussianBlur stdDeviation="74.4276" result="effect1_foregroundBlur_389_1414" />
    </filter>
    <linearGradient id="paint0_linear_389_1414" x1="2148.63" y1="638.832" x2="1376.71" y2="1696.3"
      gradientUnits="userSpaceOnUse">
      <stop stop-color="white" stop-opacity="0.08" />
      <stop offset="1" stop-color="white" stop-opacity="0" />
    </linearGradient>
    <linearGradient id="paint1_linear_389_1414" x1="1835.3" y1="507.462" x2="1063.38" y2="1564.93"
      gradientUnits="userSpaceOnUse">
      <stop stop-color="white" stop-opacity="0.12" />
      <stop offset="1" stop-color="white" stop-opacity="0" />
    </linearGradient>
    <linearGradient id="paint2_linear_389_1414" x1="1357.48" y1="446.614" x2="585.564" y2="1504.09"
      gradientUnits="userSpaceOnUse">
      <stop stop-color="white" stop-opacity="0.08" />
      <stop offset="1" stop-color="white" stop-opacity="0" />
    </linearGradient>
    <linearGradient id="paint3_linear_389_1414" x1="969.811" y1="354.354" x2="197.892" y2="1411.83"
      gradientUnits="userSpaceOnUse">
      <stop stop-color="white" stop-opacity="0.12" />
      <stop offset="1" stop-color="white" stop-opacity="0" />
    </linearGradient>
  </defs>
</svg>