<svg width="623" height="329" viewBox="0 0 623 329" fill="none" xmlns="http://www.w3.org/2000/svg">
<g filter="url(#filter0_b_1027_18)">
<path d="M574.382 301.201C534.884 301.201 508.939 283.388 508.939 240.405V138.563H473.701V98.2906H511.65V41.3673H555.02V98.2906H612.331V138.563H555.02V240.018C555.02 254.346 560.829 260.542 574.769 260.542H610.007V301.201H574.382Z" fill="url(#paint0_linear_1027_18)" fill-opacity="0.18"/>
</g>
<g filter="url(#filter1_b_1027_18)">
<path d="M396.333 301.201V138.563H360.708V98.2903H442.027V301.201H396.333Z" fill="url(#paint1_linear_1027_18)" fill-opacity="0.18"/>
</g>
<g filter="url(#filter2_b_1027_18)">
<path d="M157.138 301.201V98.2904H202.831V121.524H206.316C215.223 106.035 233.81 93.2564 260.916 93.2564C305.448 93.2564 333.716 126.559 333.716 168.38V301.201H288.023V179.222C288.023 154.052 270.21 136.627 246.976 136.627C221.806 136.627 202.831 155.988 202.831 181.546V301.201H157.138Z" fill="url(#paint2_linear_1027_18)" fill-opacity="0.19"/>
</g>
<g filter="url(#filter3_b_1027_18)">
<path d="M64.2808 301.201V138.563H28.6553V98.2907H109.974V301.201H64.2808Z" fill="url(#paint3_linear_1027_18)" fill-opacity="0.18"/>
</g>
<g filter="url(#filter4_b_1027_18)">
<path d="M58.4707 38.2681C58.4707 54.5319 70.8622 66.9234 87.5132 66.9234C104.164 66.9234 116.556 54.5319 116.556 38.2681C116.556 22.3915 104.164 10.0001 87.5132 10.0001C70.8622 10.0001 58.4707 22.3915 58.4707 38.2681Z" fill="url(#paint4_linear_1027_18)" fill-opacity="0.12"/>
</g>
<path d="M610.676 260.541H575.438C561.498 260.541 555.689 254.345 555.689 240.017V138.562H613V98.2896H555.689V41.3663H512.319V98.2896H474.37V138.562H509.608V240.404C509.608 283.387 535.553 301.2 575.051 301.2H610.676" stroke="url(#paint5_linear_1027_18)" stroke-width="1.71765" stroke-linecap="round"/>
<path d="M610.676 260.541H575.438C561.498 260.541 555.689 254.345 555.689 240.017V138.562H613V98.2896H555.689V41.3663H512.319V98.2896H474.37V138.562H509.608V240.404C509.608 283.387 535.553 301.2 575.051 301.2H610.676" stroke="url(#paint6_linear_1027_18)" stroke-opacity="0.2" stroke-width="1.71765" stroke-linecap="round"/>
<path d="M361.375 138.562H397V301.2H442.694V98.2894H361.375" stroke="url(#paint7_linear_1027_18)" stroke-width="1.71765" stroke-linecap="round"/>
<path d="M361.375 138.562H397V301.2H442.694V98.2894H361.375" stroke="url(#paint8_linear_1027_18)" stroke-opacity="0.2" stroke-width="1.71765" stroke-linecap="round"/>
<g filter="url(#filter5_b_1027_18)">
<path d="M448.476 38.6559C448.476 22.3921 436.084 10.0006 419.433 10.0006C402.782 10.0006 390.391 22.3921 390.391 38.6559C390.391 54.5325 402.782 66.924 419.433 66.924C436.084 66.924 448.476 54.5325 448.476 38.6559Z" fill="url(#paint9_linear_1027_18)" fill-opacity="0.12"/>
</g>
<path d="M398.082 58.8255C403.256 63.8594 410.483 66.924 418.764 66.924C435.415 66.924 447.807 54.5325 447.807 38.6559C447.807 22.3921 435.415 10.0006 418.764 10.0006C411.57 10.0006 405.171 12.3139 400.223 16.2532" stroke="url(#paint10_linear_1027_18)" stroke-width="1.71765" stroke-linecap="round"/>
<path d="M398.082 58.8255C403.256 63.8594 410.483 66.924 418.764 66.924C435.415 66.924 447.807 54.5325 447.807 38.6559C447.807 22.3921 435.415 10.0006 418.764 10.0006C411.57 10.0006 405.171 12.3139 400.223 16.2532" stroke="url(#paint11_linear_1027_18)" stroke-opacity="0.2" stroke-width="1.71765" stroke-linecap="round"/>
<path d="M157.807 121.523V301.2H203.5V181.545C203.5 155.987 222.475 136.626 247.645 136.626C270.879 136.626 288.692 154.051 288.692 179.221V301.2H334.385V168.379C334.385 126.557 306.117 93.2554 261.585 93.2554C234.479 93.2554 215.892 106.034 206.985 121.523H203.5V98.2894H180.653" stroke="url(#paint12_linear_1027_18)" stroke-width="1.71765" stroke-linecap="round"/>
<path d="M64.9497 301.2V138.562H29.3242V98.2897H110.643V301.2" stroke="url(#paint13_linear_1027_18)" stroke-width="1.71765" stroke-linecap="round"/>
<path d="M64.9497 301.2V138.562H29.3242V98.2897H110.643V301.2" stroke="url(#paint14_linear_1027_18)" stroke-opacity="0.2" stroke-width="1.71765" stroke-linecap="round"/>
<path d="M108.866 18.0986C103.692 13.0647 96.4649 10.0001 88.1841 10.0001C71.5331 10.0001 59.1416 22.3915 59.1416 38.2681C59.1416 54.5319 71.5331 66.9234 88.1841 66.9234C95.3784 66.9234 101.778 64.6102 106.726 60.6709" stroke="url(#paint15_linear_1027_18)" stroke-width="1.71765" stroke-linecap="round"/>
<path d="M108.866 18.0986C103.692 13.0647 96.4649 10.0001 88.1841 10.0001C71.5331 10.0001 59.1416 22.3915 59.1416 38.2681C59.1416 54.5319 71.5331 66.9234 88.1841 66.9234C95.3784 66.9234 101.778 64.6102 106.726 60.6709" stroke="url(#paint16_linear_1027_18)" stroke-opacity="0.2" stroke-width="1.71765" stroke-linecap="round"/>
<g style="mix-blend-mode:screen" opacity="0.7" filter="url(#filter6_f_1027_18)">
<g filter="url(#filter7_b_1027_18)">
<path d="M58.4707 38.2681C58.4707 54.5319 70.8622 66.9234 87.5132 66.9234C104.164 66.9234 116.556 54.5319 116.556 38.2681C116.556 22.3915 104.164 10.0001 87.5132 10.0001C70.8622 10.0001 58.4707 22.3915 58.4707 38.2681Z" fill="url(#paint17_linear_1027_18)" fill-opacity="0.12"/>
</g>
<path d="M610.676 260.541H575.438C561.498 260.541 555.689 254.345 555.689 240.017V138.562H613V98.2896H555.689V41.3663H512.319V98.2896H474.37V138.562H509.608V240.404C509.608 283.387 535.553 301.2 575.051 301.2H610.676" stroke="url(#paint18_linear_1027_18)" stroke-width="1.71765" stroke-linecap="round"/>
<path d="M610.676 260.541H575.438C561.498 260.541 555.689 254.345 555.689 240.017V138.562H613V98.2896H555.689V41.3663H512.319V98.2896H474.37V138.562H509.608V240.404C509.608 283.387 535.553 301.2 575.051 301.2H610.676" stroke="url(#paint19_linear_1027_18)" stroke-opacity="0.2" stroke-width="1.71765" stroke-linecap="round"/>
<path d="M361.375 138.562H397V301.2H442.694V98.2894H361.375" stroke="url(#paint20_linear_1027_18)" stroke-width="1.71765" stroke-linecap="round"/>
<path d="M361.375 138.562H397V301.2H442.694V98.2894H361.375" stroke="url(#paint21_linear_1027_18)" stroke-opacity="0.2" stroke-width="1.71765" stroke-linecap="round"/>
<g filter="url(#filter8_b_1027_18)">
<path d="M448.476 38.6559C448.476 22.3921 436.084 10.0006 419.433 10.0006C402.782 10.0006 390.391 22.3921 390.391 38.6559C390.391 54.5325 402.782 66.924 419.433 66.924C436.084 66.924 448.476 54.5325 448.476 38.6559Z" fill="url(#paint22_linear_1027_18)" fill-opacity="0.12"/>
</g>
<path d="M398.082 58.8255C403.256 63.8594 410.483 66.924 418.764 66.924C435.415 66.924 447.807 54.5325 447.807 38.6559C447.807 22.3921 435.415 10.0006 418.764 10.0006C411.57 10.0006 405.171 12.3139 400.223 16.2532" stroke="url(#paint23_linear_1027_18)" stroke-width="1.71765" stroke-linecap="round"/>
<path d="M398.082 58.8255C403.256 63.8594 410.483 66.924 418.764 66.924C435.415 66.924 447.807 54.5325 447.807 38.6559C447.807 22.3921 435.415 10.0006 418.764 10.0006C411.57 10.0006 405.171 12.3139 400.223 16.2532" stroke="url(#paint24_linear_1027_18)" stroke-opacity="0.2" stroke-width="1.71765" stroke-linecap="round"/>
<path d="M157.807 121.523V301.2H203.5V181.545C203.5 155.987 222.475 136.626 247.645 136.626C270.879 136.626 288.692 154.051 288.692 179.221V301.2H334.385V168.379C334.385 126.557 306.117 93.2554 261.585 93.2554C234.479 93.2554 215.892 106.034 206.985 121.523H203.5V98.2894H180.653" stroke="url(#paint25_linear_1027_18)" stroke-width="1.71765" stroke-linecap="round"/>
<path d="M64.9497 301.2V138.562H29.3242V98.2897H110.643V301.2" stroke="url(#paint26_linear_1027_18)" stroke-width="1.71765" stroke-linecap="round"/>
<path d="M64.9497 301.2V138.562H29.3242V98.2897H110.643V301.2" stroke="url(#paint27_linear_1027_18)" stroke-opacity="0.2" stroke-width="1.71765" stroke-linecap="round"/>
<path d="M108.866 18.0986C103.692 13.0647 96.4649 10.0001 88.1841 10.0001C71.5331 10.0001 59.1416 22.3915 59.1416 38.2681C59.1416 54.5319 71.5331 66.9234 88.1841 66.9234C95.3784 66.9234 101.778 64.6102 106.726 60.6709" stroke="url(#paint28_linear_1027_18)" stroke-width="1.71765" stroke-linecap="round"/>
<path d="M108.866 18.0986C103.692 13.0647 96.4649 10.0001 88.1841 10.0001C71.5331 10.0001 59.1416 22.3915 59.1416 38.2681C59.1416 54.5319 71.5331 66.9234 88.1841 66.9234C95.3784 66.9234 101.778 64.6102 106.726 60.6709" stroke="url(#paint29_linear_1027_18)" stroke-opacity="0.2" stroke-width="1.71765" stroke-linecap="round"/>
</g>
<g style="mix-blend-mode:screen" filter="url(#filter9_f_1027_18)">
<circle cx="29.1361" cy="98.1911" r="5.71034" fill="white"/>
</g>
<g style="mix-blend-mode:screen" filter="url(#filter10_f_1027_18)">
<circle cx="29.1365" cy="98.1922" r="9.13655" fill="url(#paint30_radial_1027_18)" fill-opacity="0.19"/>
</g>
<g style="mix-blend-mode:screen" filter="url(#filter11_f_1027_18)">
<circle cx="203.335" cy="301.201" r="5.53081" fill="white"/>
</g>
<g style="mix-blend-mode:screen" filter="url(#filter12_f_1027_18)">
<circle cx="203.337" cy="301.201" r="8.84929" fill="url(#paint31_radial_1027_18)" fill-opacity="0.19"/>
</g>
<g style="mix-blend-mode:screen" filter="url(#filter13_f_1027_18)">
<circle cx="441.185" cy="98.1909" r="7.16987" fill="white"/>
</g>
<g style="mix-blend-mode:screen" filter="url(#filter14_f_1027_18)">
<circle cx="441.184" cy="98.1927" r="11.4718" fill="url(#paint32_radial_1027_18)" fill-opacity="0.19"/>
</g>
<g style="mix-blend-mode:screen" filter="url(#filter15_f_1027_18)">
<circle cx="555.084" cy="41.2416" r="5.76211" fill="white"/>
</g>
<g style="mix-blend-mode:screen" filter="url(#filter16_f_1027_18)">
<circle cx="555.085" cy="41.2415" r="9.21937" fill="url(#paint33_radial_1027_18)" fill-opacity="0.19"/>
</g>
<defs>
<filter id="filter0_b_1027_18" x="456.951" y="24.6174" width="172.13" height="293.334" filterUnits="userSpaceOnUse" color-interpolation-filters="sRGB">
<feFlood flood-opacity="0" result="BackgroundImageFix"/>
<feGaussianBlur in="BackgroundImageFix" stdDeviation="8.37496"/>
<feComposite in2="SourceAlpha" operator="in" result="effect1_backgroundBlur_1027_18"/>
<feBlend mode="normal" in="SourceGraphic" in2="effect1_backgroundBlur_1027_18" result="shape"/>
</filter>
<filter id="filter1_b_1027_18" x="343.958" y="81.5404" width="114.819" height="236.41" filterUnits="userSpaceOnUse" color-interpolation-filters="sRGB">
<feFlood flood-opacity="0" result="BackgroundImageFix"/>
<feGaussianBlur in="BackgroundImageFix" stdDeviation="8.37496"/>
<feComposite in2="SourceAlpha" operator="in" result="effect1_backgroundBlur_1027_18"/>
<feBlend mode="normal" in="SourceGraphic" in2="effect1_backgroundBlur_1027_18" result="shape"/>
</filter>
<filter id="filter2_b_1027_18" x="140.388" y="76.5065" width="210.078" height="241.444" filterUnits="userSpaceOnUse" color-interpolation-filters="sRGB">
<feFlood flood-opacity="0" result="BackgroundImageFix"/>
<feGaussianBlur in="BackgroundImageFix" stdDeviation="8.37496"/>
<feComposite in2="SourceAlpha" operator="in" result="effect1_backgroundBlur_1027_18"/>
<feBlend mode="normal" in="SourceGraphic" in2="effect1_backgroundBlur_1027_18" result="shape"/>
</filter>
<filter id="filter3_b_1027_18" x="11.9053" y="81.5408" width="114.819" height="236.41" filterUnits="userSpaceOnUse" color-interpolation-filters="sRGB">
<feFlood flood-opacity="0" result="BackgroundImageFix"/>
<feGaussianBlur in="BackgroundImageFix" stdDeviation="8.37496"/>
<feComposite in2="SourceAlpha" operator="in" result="effect1_backgroundBlur_1027_18"/>
<feBlend mode="normal" in="SourceGraphic" in2="effect1_backgroundBlur_1027_18" result="shape"/>
</filter>
<filter id="filter4_b_1027_18" x="41.7208" y="-6.74987" width="91.5848" height="90.4232" filterUnits="userSpaceOnUse" color-interpolation-filters="sRGB">
<feFlood flood-opacity="0" result="BackgroundImageFix"/>
<feGaussianBlur in="BackgroundImageFix" stdDeviation="8.37496"/>
<feComposite in2="SourceAlpha" operator="in" result="effect1_backgroundBlur_1027_18"/>
<feBlend mode="normal" in="SourceGraphic" in2="effect1_backgroundBlur_1027_18" result="shape"/>
</filter>
<filter id="filter5_b_1027_18" x="373.641" y="-6.7493" width="91.5848" height="90.4232" filterUnits="userSpaceOnUse" color-interpolation-filters="sRGB">
<feFlood flood-opacity="0" result="BackgroundImageFix"/>
<feGaussianBlur in="BackgroundImageFix" stdDeviation="8.37496"/>
<feComposite in2="SourceAlpha" operator="in" result="effect1_backgroundBlur_1027_18"/>
<feBlend mode="normal" in="SourceGraphic" in2="effect1_backgroundBlur_1027_18" result="shape"/>
</filter>
<filter id="filter6_f_1027_18" x="19.8776" y="0.552979" width="602.569" height="310.094" filterUnits="userSpaceOnUse" color-interpolation-filters="sRGB">
<feFlood flood-opacity="0" result="BackgroundImageFix"/>
<feBlend mode="normal" in="SourceGraphic" in2="BackgroundImageFix" result="shape"/>
<feGaussianBlur stdDeviation="4.29413" result="effect1_foregroundBlur_1027_18"/>
</filter>
<filter id="filter7_b_1027_18" x="41.7208" y="-6.74987" width="91.5848" height="90.4232" filterUnits="userSpaceOnUse" color-interpolation-filters="sRGB">
<feFlood flood-opacity="0" result="BackgroundImageFix"/>
<feGaussianBlur in="BackgroundImageFix" stdDeviation="8.37496"/>
<feComposite in2="SourceAlpha" operator="in" result="effect1_backgroundBlur_1027_18"/>
<feBlend mode="normal" in="SourceGraphic" in2="effect1_backgroundBlur_1027_18" result="shape"/>
</filter>
<filter id="filter8_b_1027_18" x="373.641" y="-6.7493" width="91.5848" height="90.4232" filterUnits="userSpaceOnUse" color-interpolation-filters="sRGB">
<feFlood flood-opacity="0" result="BackgroundImageFix"/>
<feGaussianBlur in="BackgroundImageFix" stdDeviation="8.37496"/>
<feComposite in2="SourceAlpha" operator="in" result="effect1_backgroundBlur_1027_18"/>
<feBlend mode="normal" in="SourceGraphic" in2="effect1_backgroundBlur_1027_18" result="shape"/>
</filter>
<filter id="filter9_f_1027_18" x="0.584408" y="69.6394" width="57.1036" height="57.1034" filterUnits="userSpaceOnUse" color-interpolation-filters="sRGB">
<feFlood flood-opacity="0" result="BackgroundImageFix"/>
<feBlend mode="normal" in="SourceGraphic" in2="BackgroundImageFix" result="shape"/>
<feGaussianBlur stdDeviation="11.4207" result="effect1_foregroundBlur_1027_18"/>
</filter>
<filter id="filter10_f_1027_18" x="13.909" y="82.9646" width="30.4555" height="30.4552" filterUnits="userSpaceOnUse" color-interpolation-filters="sRGB">
<feFlood flood-opacity="0" result="BackgroundImageFix"/>
<feBlend mode="normal" in="SourceGraphic" in2="BackgroundImageFix" result="shape"/>
<feGaussianBlur stdDeviation="3.04552" result="effect1_foregroundBlur_1027_18"/>
</filter>
<filter id="filter11_f_1027_18" x="175.681" y="273.547" width="55.308" height="55.3081" filterUnits="userSpaceOnUse" color-interpolation-filters="sRGB">
<feFlood flood-opacity="0" result="BackgroundImageFix"/>
<feBlend mode="normal" in="SourceGraphic" in2="BackgroundImageFix" result="shape"/>
<feGaussianBlur stdDeviation="11.0616" result="effect1_foregroundBlur_1027_18"/>
</filter>
<filter id="filter12_f_1027_18" x="188.588" y="286.452" width="29.4973" height="29.4977" filterUnits="userSpaceOnUse" color-interpolation-filters="sRGB">
<feFlood flood-opacity="0" result="BackgroundImageFix"/>
<feBlend mode="normal" in="SourceGraphic" in2="BackgroundImageFix" result="shape"/>
<feGaussianBlur stdDeviation="2.94977" result="effect1_foregroundBlur_1027_18"/>
</filter>
<filter id="filter13_f_1027_18" x="405.335" y="62.3416" width="71.6988" height="71.6987" filterUnits="userSpaceOnUse" color-interpolation-filters="sRGB">
<feFlood flood-opacity="0" result="BackgroundImageFix"/>
<feBlend mode="normal" in="SourceGraphic" in2="BackgroundImageFix" result="shape"/>
<feGaussianBlur stdDeviation="14.3397" result="effect1_foregroundBlur_1027_18"/>
</filter>
<filter id="filter14_f_1027_18" x="422.064" y="79.073" width="38.2391" height="38.2393" filterUnits="userSpaceOnUse" color-interpolation-filters="sRGB">
<feFlood flood-opacity="0" result="BackgroundImageFix"/>
<feBlend mode="normal" in="SourceGraphic" in2="BackgroundImageFix" result="shape"/>
<feGaussianBlur stdDeviation="3.82393" result="effect1_foregroundBlur_1027_18"/>
</filter>
<filter id="filter15_f_1027_18" x="526.274" y="12.4311" width="57.6213" height="57.6211" filterUnits="userSpaceOnUse" color-interpolation-filters="sRGB">
<feFlood flood-opacity="0" result="BackgroundImageFix"/>
<feBlend mode="normal" in="SourceGraphic" in2="BackgroundImageFix" result="shape"/>
<feGaussianBlur stdDeviation="11.5242" result="effect1_foregroundBlur_1027_18"/>
</filter>
<filter id="filter16_f_1027_18" x="539.719" y="25.8759" width="30.731" height="30.7312" filterUnits="userSpaceOnUse" color-interpolation-filters="sRGB">
<feFlood flood-opacity="0" result="BackgroundImageFix"/>
<feBlend mode="normal" in="SourceGraphic" in2="BackgroundImageFix" result="shape"/>
<feGaussianBlur stdDeviation="3.07312" result="effect1_foregroundBlur_1027_18"/>
</filter>
<linearGradient id="paint0_linear_1027_18" x1="542.507" y1="196.282" x2="498.075" y2="60.9496" gradientUnits="userSpaceOnUse">
<stop stop-color="#1E1E22" stop-opacity="0"/>
<stop offset="1" stop-color="white"/>
</linearGradient>
<linearGradient id="paint1_linear_1027_18" x1="404.336" y1="183.616" x2="440.516" y2="101.541" gradientUnits="userSpaceOnUse">
<stop stop-color="#1E1E22" stop-opacity="0"/>
<stop offset="1" stop-color="white"/>
</linearGradient>
<linearGradient id="paint2_linear_1027_18" x1="203.001" y1="197.351" x2="152.159" y2="238.726" gradientUnits="userSpaceOnUse">
<stop stop-color="#1E1E22" stop-opacity="0"/>
<stop offset="1" stop-color="white"/>
</linearGradient>
<linearGradient id="paint3_linear_1027_18" x1="108.196" y1="180.602" x2="28.4668" y2="100.872" gradientUnits="userSpaceOnUse">
<stop stop-color="#1E1E22" stop-opacity="0"/>
<stop offset="1" stop-color="white"/>
</linearGradient>
<linearGradient id="paint4_linear_1027_18" x1="116.234" y1="38.561" x2="64.9796" y2="22.146" gradientUnits="userSpaceOnUse">
<stop stop-color="#1E1E22" stop-opacity="0"/>
<stop offset="1" stop-color="white"/>
</linearGradient>
<linearGradient id="paint5_linear_1027_18" x1="555.753" y1="43.9213" x2="656.057" y2="253.104" gradientUnits="userSpaceOnUse">
<stop stop-color="white"/>
<stop offset="1" stop-color="white" stop-opacity="0.3"/>
</linearGradient>
<linearGradient id="paint6_linear_1027_18" x1="555.083" y1="41.2413" x2="553.431" y2="69.8031" gradientUnits="userSpaceOnUse">
<stop stop-color="white"/>
<stop offset="1" stop-color="white" stop-opacity="0"/>
</linearGradient>
<linearGradient id="paint7_linear_1027_18" x1="444.197" y1="98.5255" x2="361.452" y2="139.73" gradientUnits="userSpaceOnUse">
<stop stop-color="white"/>
<stop offset="1" stop-color="white" stop-opacity="0.3"/>
</linearGradient>
<linearGradient id="paint8_linear_1027_18" x1="441.182" y1="99.1955" x2="409.587" y2="117.853" gradientUnits="userSpaceOnUse">
<stop stop-color="white"/>
<stop offset="1" stop-color="white" stop-opacity="0"/>
</linearGradient>
<linearGradient id="paint9_linear_1027_18" x1="390.712" y1="38.3631" x2="441.967" y2="54.778" gradientUnits="userSpaceOnUse">
<stop stop-color="#1E1E22" stop-opacity="0"/>
<stop offset="1" stop-color="white"/>
</linearGradient>
<linearGradient id="paint10_linear_1027_18" x1="412.936" y1="59.3841" x2="396.833" y2="19.6634" gradientUnits="userSpaceOnUse">
<stop stop-color="white"/>
<stop offset="1" stop-color="white" stop-opacity="0.1"/>
</linearGradient>
<linearGradient id="paint11_linear_1027_18" x1="477.813" y1="-22.2716" x2="460.058" y2="-42.0366" gradientUnits="userSpaceOnUse">
<stop stop-color="white"/>
<stop offset="1" stop-color="white" stop-opacity="0"/>
</linearGradient>
<linearGradient id="paint12_linear_1027_18" x1="158.508" y1="187.134" x2="334.889" y2="113.411" gradientUnits="userSpaceOnUse">
<stop stop-color="white"/>
<stop offset="1" stop-color="white" stop-opacity="0.3"/>
</linearGradient>
<linearGradient id="paint13_linear_1027_18" x1="56.2707" y1="38.2263" x2="110.875" y2="38.2263" gradientUnits="userSpaceOnUse">
<stop stop-color="white"/>
<stop offset="1" stop-color="white" stop-opacity="0.3"/>
</linearGradient>
<linearGradient id="paint14_linear_1027_18" x1="29.1358" y1="99.196" x2="46.8907" y2="118.961" gradientUnits="userSpaceOnUse">
<stop stop-color="white"/>
<stop offset="1" stop-color="white" stop-opacity="0"/>
</linearGradient>
<linearGradient id="paint15_linear_1027_18" x1="110.875" y1="17.7911" x2="110.875" y2="60.4571" gradientUnits="userSpaceOnUse">
<stop stop-color="white"/>
<stop offset="1" stop-color="white" stop-opacity="0.1"/>
</linearGradient>
<linearGradient id="paint16_linear_1027_18" x1="29.1357" y1="99.1957" x2="46.8906" y2="118.961" gradientUnits="userSpaceOnUse">
<stop stop-color="white"/>
<stop offset="1" stop-color="white" stop-opacity="0"/>
</linearGradient>
<linearGradient id="paint17_linear_1027_18" x1="116.234" y1="38.561" x2="64.9796" y2="22.146" gradientUnits="userSpaceOnUse">
<stop stop-color="#1E1E22" stop-opacity="0"/>
<stop offset="1" stop-color="white"/>
</linearGradient>
<linearGradient id="paint18_linear_1027_18" x1="555.753" y1="43.9213" x2="656.057" y2="253.104" gradientUnits="userSpaceOnUse">
<stop stop-color="white"/>
<stop offset="1" stop-color="white" stop-opacity="0.3"/>
</linearGradient>
<linearGradient id="paint19_linear_1027_18" x1="555.083" y1="41.2413" x2="553.431" y2="69.8031" gradientUnits="userSpaceOnUse">
<stop stop-color="white"/>
<stop offset="1" stop-color="white" stop-opacity="0"/>
</linearGradient>
<linearGradient id="paint20_linear_1027_18" x1="444.197" y1="98.5255" x2="361.452" y2="139.73" gradientUnits="userSpaceOnUse">
<stop stop-color="white"/>
<stop offset="1" stop-color="white" stop-opacity="0.3"/>
</linearGradient>
<linearGradient id="paint21_linear_1027_18" x1="441.182" y1="99.1955" x2="409.587" y2="117.853" gradientUnits="userSpaceOnUse">
<stop stop-color="white"/>
<stop offset="1" stop-color="white" stop-opacity="0"/>
</linearGradient>
<linearGradient id="paint22_linear_1027_18" x1="390.712" y1="38.3631" x2="441.967" y2="54.778" gradientUnits="userSpaceOnUse">
<stop stop-color="#1E1E22" stop-opacity="0"/>
<stop offset="1" stop-color="white"/>
</linearGradient>
<linearGradient id="paint23_linear_1027_18" x1="412.936" y1="59.3841" x2="396.833" y2="19.6634" gradientUnits="userSpaceOnUse">
<stop stop-color="white"/>
<stop offset="1" stop-color="white" stop-opacity="0.1"/>
</linearGradient>
<linearGradient id="paint24_linear_1027_18" x1="477.813" y1="-22.2716" x2="460.058" y2="-42.0366" gradientUnits="userSpaceOnUse">
<stop stop-color="white"/>
<stop offset="1" stop-color="white" stop-opacity="0"/>
</linearGradient>
<linearGradient id="paint25_linear_1027_18" x1="158.508" y1="187.134" x2="334.889" y2="113.411" gradientUnits="userSpaceOnUse">
<stop stop-color="white"/>
<stop offset="1" stop-color="white" stop-opacity="0.3"/>
</linearGradient>
<linearGradient id="paint26_linear_1027_18" x1="56.2707" y1="38.2263" x2="110.875" y2="38.2263" gradientUnits="userSpaceOnUse">
<stop stop-color="white"/>
<stop offset="1" stop-color="white" stop-opacity="0.3"/>
</linearGradient>
<linearGradient id="paint27_linear_1027_18" x1="29.1358" y1="99.196" x2="46.8907" y2="118.961" gradientUnits="userSpaceOnUse">
<stop stop-color="white"/>
<stop offset="1" stop-color="white" stop-opacity="0"/>
</linearGradient>
<linearGradient id="paint28_linear_1027_18" x1="110.875" y1="17.7911" x2="110.875" y2="60.4571" gradientUnits="userSpaceOnUse">
<stop stop-color="white"/>
<stop offset="1" stop-color="white" stop-opacity="0.1"/>
</linearGradient>
<linearGradient id="paint29_linear_1027_18" x1="29.1357" y1="99.1957" x2="46.8906" y2="118.961" gradientUnits="userSpaceOnUse">
<stop stop-color="white"/>
<stop offset="1" stop-color="white" stop-opacity="0"/>
</linearGradient>
<radialGradient id="paint30_radial_1027_18" cx="0" cy="0" r="1" gradientUnits="userSpaceOnUse" gradientTransform="translate(29.1365 98.1922) rotate(90) scale(9.13655)">
<stop stop-color="white"/>
<stop offset="1" stop-color="white" stop-opacity="0"/>
</radialGradient>
<radialGradient id="paint31_radial_1027_18" cx="0" cy="0" r="1" gradientUnits="userSpaceOnUse" gradientTransform="translate(203.337 301.201) rotate(90) scale(8.84929)">
<stop stop-color="white"/>
<stop offset="1" stop-color="white" stop-opacity="0"/>
</radialGradient>
<radialGradient id="paint32_radial_1027_18" cx="0" cy="0" r="1" gradientUnits="userSpaceOnUse" gradientTransform="translate(441.184 98.1927) rotate(90) scale(11.4718)">
<stop stop-color="white"/>
<stop offset="1" stop-color="white" stop-opacity="0"/>
</radialGradient>
<radialGradient id="paint33_radial_1027_18" cx="0" cy="0" r="1" gradientUnits="userSpaceOnUse" gradientTransform="translate(555.085 41.2415) rotate(90) scale(9.21937)">
<stop stop-color="white"/>
<stop offset="1" stop-color="white" stop-opacity="0"/>
</radialGradient>
</defs>
</svg>
