<svg xmlns="http://www.w3.org/2000/svg" width="623" height="329" fill="none" viewBox="0 0 623 329"><g filter="url(#filter0_b_1027_18)"><path fill="url(#paint0_linear_1027_18)" fill-opacity=".18" d="M574.382 301.201C534.884 301.201 508.939 283.388 508.939 240.405V138.563H473.701V98.2906H511.65V41.3673H555.02V98.2906H612.331V138.563H555.02V240.018C555.02 254.346 560.829 260.542 574.769 260.542H610.007V301.201H574.382Z"/></g><g filter="url(#filter1_b_1027_18)"><path fill="url(#paint1_linear_1027_18)" fill-opacity=".18" d="M396.333 301.201V138.563H360.708V98.2903H442.027V301.201H396.333Z"/></g><g filter="url(#filter2_b_1027_18)"><path fill="url(#paint2_linear_1027_18)" fill-opacity=".19" d="M157.138 301.201V98.2904H202.831V121.524H206.316C215.223 106.035 233.81 93.2564 260.916 93.2564C305.448 93.2564 333.716 126.559 333.716 168.38V301.201H288.023V179.222C288.023 154.052 270.21 136.627 246.976 136.627C221.806 136.627 202.831 155.988 202.831 181.546V301.201H157.138Z"/></g><g filter="url(#filter3_b_1027_18)"><path fill="url(#paint3_linear_1027_18)" fill-opacity=".18" d="M64.2808 301.201V138.563H28.6553V98.2907H109.974V301.201H64.2808Z"/></g><g filter="url(#filter4_b_1027_18)"><path fill="url(#paint4_linear_1027_18)" fill-opacity=".12" d="M58.4707 38.2681C58.4707 54.5319 70.8622 66.9234 87.5132 66.9234C104.164 66.9234 116.556 54.5319 116.556 38.2681C116.556 22.3915 104.164 10.0001 87.5132 10.0001C70.8622 10.0001 58.4707 22.3915 58.4707 38.2681Z"/></g><path stroke="url(#paint5_linear_1027_18)" stroke-linecap="round" stroke-width="1.718" d="M610.676 260.541H575.438C561.498 260.541 555.689 254.345 555.689 240.017V138.562H613V98.2896H555.689V41.3663H512.319V98.2896H474.37V138.562H509.608V240.404C509.608 283.387 535.553 301.2 575.051 301.2H610.676"/><path stroke="url(#paint6_linear_1027_18)" stroke-linecap="round" stroke-opacity=".2" stroke-width="1.718" d="M610.676 260.541H575.438C561.498 260.541 555.689 254.345 555.689 240.017V138.562H613V98.2896H555.689V41.3663H512.319V98.2896H474.37V138.562H509.608V240.404C509.608 283.387 535.553 301.2 575.051 301.2H610.676"/><path stroke="url(#paint7_linear_1027_18)" stroke-linecap="round" stroke-width="1.718" d="M361.375 138.562H397V301.2H442.694V98.2894H361.375"/><path stroke="url(#paint8_linear_1027_18)" stroke-linecap="round" stroke-opacity=".2" stroke-width="1.718" d="M361.375 138.562H397V301.2H442.694V98.2894H361.375"/><g filter="url(#filter5_b_1027_18)"><path fill="url(#paint9_linear_1027_18)" fill-opacity=".12" d="M448.476 38.6559C448.476 22.3921 436.084 10.0006 419.433 10.0006C402.782 10.0006 390.391 22.3921 390.391 38.6559C390.391 54.5325 402.782 66.924 419.433 66.924C436.084 66.924 448.476 54.5325 448.476 38.6559Z"/></g><path stroke="url(#paint10_linear_1027_18)" stroke-linecap="round" stroke-width="1.718" d="M398.082 58.8255C403.256 63.8594 410.483 66.924 418.764 66.924C435.415 66.924 447.807 54.5325 447.807 38.6559C447.807 22.3921 435.415 10.0006 418.764 10.0006C411.57 10.0006 405.171 12.3139 400.223 16.2532"/><path stroke="url(#paint11_linear_1027_18)" stroke-linecap="round" stroke-opacity=".2" stroke-width="1.718" d="M398.082 58.8255C403.256 63.8594 410.483 66.924 418.764 66.924C435.415 66.924 447.807 54.5325 447.807 38.6559C447.807 22.3921 435.415 10.0006 418.764 10.0006C411.57 10.0006 405.171 12.3139 400.223 16.2532"/><path stroke="url(#paint12_linear_1027_18)" stroke-linecap="round" stroke-width="1.718" d="M157.807 121.523V301.2H203.5V181.545C203.5 155.987 222.475 136.626 247.645 136.626C270.879 136.626 288.692 154.051 288.692 179.221V301.2H334.385V168.379C334.385 126.557 306.117 93.2554 261.585 93.2554C234.479 93.2554 215.892 106.034 206.985 121.523H203.5V98.2894H180.653"/><path stroke="url(#paint13_linear_1027_18)" stroke-linecap="round" stroke-width="1.718" d="M64.9497 301.2V138.562H29.3242V98.2897H110.643V301.2"/><path stroke="url(#paint14_linear_1027_18)" stroke-linecap="round" stroke-opacity=".2" stroke-width="1.718" d="M64.9497 301.2V138.562H29.3242V98.2897H110.643V301.2"/><path stroke="url(#paint15_linear_1027_18)" stroke-linecap="round" stroke-width="1.718" d="M108.866 18.0986C103.692 13.0647 96.4649 10.0001 88.1841 10.0001C71.5331 10.0001 59.1416 22.3915 59.1416 38.2681C59.1416 54.5319 71.5331 66.9234 88.1841 66.9234C95.3784 66.9234 101.778 64.6102 106.726 60.6709"/><path stroke="url(#paint16_linear_1027_18)" stroke-linecap="round" stroke-opacity=".2" stroke-width="1.718" d="M108.866 18.0986C103.692 13.0647 96.4649 10.0001 88.1841 10.0001C71.5331 10.0001 59.1416 22.3915 59.1416 38.2681C59.1416 54.5319 71.5331 66.9234 88.1841 66.9234C95.3784 66.9234 101.778 64.6102 106.726 60.6709"/><g style="mix-blend-mode:screen" filter="url(#filter6_f_1027_18)" opacity=".7"><g filter="url(#filter7_b_1027_18)"><path fill="url(#paint17_linear_1027_18)" fill-opacity=".12" d="M58.4707 38.2681C58.4707 54.5319 70.8622 66.9234 87.5132 66.9234C104.164 66.9234 116.556 54.5319 116.556 38.2681C116.556 22.3915 104.164 10.0001 87.5132 10.0001C70.8622 10.0001 58.4707 22.3915 58.4707 38.2681Z"/></g><path stroke="url(#paint18_linear_1027_18)" stroke-linecap="round" stroke-width="1.718" d="M610.676 260.541H575.438C561.498 260.541 555.689 254.345 555.689 240.017V138.562H613V98.2896H555.689V41.3663H512.319V98.2896H474.37V138.562H509.608V240.404C509.608 283.387 535.553 301.2 575.051 301.2H610.676"/><path stroke="url(#paint19_linear_1027_18)" stroke-linecap="round" stroke-opacity=".2" stroke-width="1.718" d="M610.676 260.541H575.438C561.498 260.541 555.689 254.345 555.689 240.017V138.562H613V98.2896H555.689V41.3663H512.319V98.2896H474.37V138.562H509.608V240.404C509.608 283.387 535.553 301.2 575.051 301.2H610.676"/><path stroke="url(#paint20_linear_1027_18)" stroke-linecap="round" stroke-width="1.718" d="M361.375 138.562H397V301.2H442.694V98.2894H361.375"/><path stroke="url(#paint21_linear_1027_18)" stroke-linecap="round" stroke-opacity=".2" stroke-width="1.718" d="M361.375 138.562H397V301.2H442.694V98.2894H361.375"/><g filter="url(#filter8_b_1027_18)"><path fill="url(#paint22_linear_1027_18)" fill-opacity=".12" d="M448.476 38.6559C448.476 22.3921 436.084 10.0006 419.433 10.0006C402.782 10.0006 390.391 22.3921 390.391 38.6559C390.391 54.5325 402.782 66.924 419.433 66.924C436.084 66.924 448.476 54.5325 448.476 38.6559Z"/></g><path stroke="url(#paint23_linear_1027_18)" stroke-linecap="round" stroke-width="1.718" d="M398.082 58.8255C403.256 63.8594 410.483 66.924 418.764 66.924C435.415 66.924 447.807 54.5325 447.807 38.6559C447.807 22.3921 435.415 10.0006 418.764 10.0006C411.57 10.0006 405.171 12.3139 400.223 16.2532"/><path stroke="url(#paint24_linear_1027_18)" stroke-linecap="round" stroke-opacity=".2" stroke-width="1.718" d="M398.082 58.8255C403.256 63.8594 410.483 66.924 418.764 66.924C435.415 66.924 447.807 54.5325 447.807 38.6559C447.807 22.3921 435.415 10.0006 418.764 10.0006C411.57 10.0006 405.171 12.3139 400.223 16.2532"/><path stroke="url(#paint25_linear_1027_18)" stroke-linecap="round" stroke-width="1.718" d="M157.807 121.523V301.2H203.5V181.545C203.5 155.987 222.475 136.626 247.645 136.626C270.879 136.626 288.692 154.051 288.692 179.221V301.2H334.385V168.379C334.385 126.557 306.117 93.2554 261.585 93.2554C234.479 93.2554 215.892 106.034 206.985 121.523H203.5V98.2894H180.653"/><path stroke="url(#paint26_linear_1027_18)" stroke-linecap="round" stroke-width="1.718" d="M64.9497 301.2V138.562H29.3242V98.2897H110.643V301.2"/><path stroke="url(#paint27_linear_1027_18)" stroke-linecap="round" stroke-opacity=".2" stroke-width="1.718" d="M64.9497 301.2V138.562H29.3242V98.2897H110.643V301.2"/><path stroke="url(#paint28_linear_1027_18)" stroke-linecap="round" stroke-width="1.718" d="M108.866 18.0986C103.692 13.0647 96.4649 10.0001 88.1841 10.0001C71.5331 10.0001 59.1416 22.3915 59.1416 38.2681C59.1416 54.5319 71.5331 66.9234 88.1841 66.9234C95.3784 66.9234 101.778 64.6102 106.726 60.6709"/><path stroke="url(#paint29_linear_1027_18)" stroke-linecap="round" stroke-opacity=".2" stroke-width="1.718" d="M108.866 18.0986C103.692 13.0647 96.4649 10.0001 88.1841 10.0001C71.5331 10.0001 59.1416 22.3915 59.1416 38.2681C59.1416 54.5319 71.5331 66.9234 88.1841 66.9234C95.3784 66.9234 101.778 64.6102 106.726 60.6709"/></g><g style="mix-blend-mode:screen" filter="url(#filter9_f_1027_18)"><circle cx="29.136" cy="98.191" r="5.71" fill="#fff"/></g><g style="mix-blend-mode:screen" filter="url(#filter10_f_1027_18)"><circle cx="29.137" cy="98.192" r="9.137" fill="url(#paint30_radial_1027_18)" fill-opacity=".19"/></g><g style="mix-blend-mode:screen" filter="url(#filter11_f_1027_18)"><circle cx="203.335" cy="301.201" r="5.531" fill="#fff"/></g><g style="mix-blend-mode:screen" filter="url(#filter12_f_1027_18)"><circle cx="203.337" cy="301.201" r="8.849" fill="url(#paint31_radial_1027_18)" fill-opacity=".19"/></g><g style="mix-blend-mode:screen" filter="url(#filter13_f_1027_18)"><circle cx="441.185" cy="98.191" r="7.17" fill="#fff"/></g><g style="mix-blend-mode:screen" filter="url(#filter14_f_1027_18)"><circle cx="441.184" cy="98.193" r="11.472" fill="url(#paint32_radial_1027_18)" fill-opacity=".19"/></g><g style="mix-blend-mode:screen" filter="url(#filter15_f_1027_18)"><circle cx="555.084" cy="41.242" r="5.762" fill="#fff"/></g><g style="mix-blend-mode:screen" filter="url(#filter16_f_1027_18)"><circle cx="555.085" cy="41.242" r="9.219" fill="url(#paint33_radial_1027_18)" fill-opacity=".19"/></g><defs><filter id="filter0_b_1027_18" width="172.13" height="293.334" x="456.951" y="24.617" color-interpolation-filters="sRGB" filterUnits="userSpaceOnUse"><feFlood flood-opacity="0" result="BackgroundImageFix"/><feGaussianBlur in="BackgroundImageFix" stdDeviation="8.375"/><feComposite in2="SourceAlpha" operator="in" result="effect1_backgroundBlur_1027_18"/><feBlend in="SourceGraphic" in2="effect1_backgroundBlur_1027_18" mode="normal" result="shape"/></filter><filter id="filter1_b_1027_18" width="114.819" height="236.41" x="343.958" y="81.54" color-interpolation-filters="sRGB" filterUnits="userSpaceOnUse"><feFlood flood-opacity="0" result="BackgroundImageFix"/><feGaussianBlur in="BackgroundImageFix" stdDeviation="8.375"/><feComposite in2="SourceAlpha" operator="in" result="effect1_backgroundBlur_1027_18"/><feBlend in="SourceGraphic" in2="effect1_backgroundBlur_1027_18" mode="normal" result="shape"/></filter><filter id="filter2_b_1027_18" width="210.078" height="241.444" x="140.388" y="76.507" color-interpolation-filters="sRGB" filterUnits="userSpaceOnUse"><feFlood flood-opacity="0" result="BackgroundImageFix"/><feGaussianBlur in="BackgroundImageFix" stdDeviation="8.375"/><feComposite in2="SourceAlpha" operator="in" result="effect1_backgroundBlur_1027_18"/><feBlend in="SourceGraphic" in2="effect1_backgroundBlur_1027_18" mode="normal" result="shape"/></filter><filter id="filter3_b_1027_18" width="114.819" height="236.41" x="11.905" y="81.541" color-interpolation-filters="sRGB" filterUnits="userSpaceOnUse"><feFlood flood-opacity="0" result="BackgroundImageFix"/><feGaussianBlur in="BackgroundImageFix" stdDeviation="8.375"/><feComposite in2="SourceAlpha" operator="in" result="effect1_backgroundBlur_1027_18"/><feBlend in="SourceGraphic" in2="effect1_backgroundBlur_1027_18" mode="normal" result="shape"/></filter><filter id="filter4_b_1027_18" width="91.585" height="90.423" x="41.721" y="-6.75" color-interpolation-filters="sRGB" filterUnits="userSpaceOnUse"><feFlood flood-opacity="0" result="BackgroundImageFix"/><feGaussianBlur in="BackgroundImageFix" stdDeviation="8.375"/><feComposite in2="SourceAlpha" operator="in" result="effect1_backgroundBlur_1027_18"/><feBlend in="SourceGraphic" in2="effect1_backgroundBlur_1027_18" mode="normal" result="shape"/></filter><filter id="filter5_b_1027_18" width="91.585" height="90.423" x="373.641" y="-6.749" color-interpolation-filters="sRGB" filterUnits="userSpaceOnUse"><feFlood flood-opacity="0" result="BackgroundImageFix"/><feGaussianBlur in="BackgroundImageFix" stdDeviation="8.375"/><feComposite in2="SourceAlpha" operator="in" result="effect1_backgroundBlur_1027_18"/><feBlend in="SourceGraphic" in2="effect1_backgroundBlur_1027_18" mode="normal" result="shape"/></filter><filter id="filter6_f_1027_18" width="602.569" height="310.094" x="19.878" y=".553" color-interpolation-filters="sRGB" filterUnits="userSpaceOnUse"><feFlood flood-opacity="0" result="BackgroundImageFix"/><feBlend in="SourceGraphic" in2="BackgroundImageFix" mode="normal" result="shape"/><feGaussianBlur result="effect1_foregroundBlur_1027_18" stdDeviation="4.294"/></filter><filter id="filter7_b_1027_18" width="91.585" height="90.423" x="41.721" y="-6.75" color-interpolation-filters="sRGB" filterUnits="userSpaceOnUse"><feFlood flood-opacity="0" result="BackgroundImageFix"/><feGaussianBlur in="BackgroundImageFix" stdDeviation="8.375"/><feComposite in2="SourceAlpha" operator="in" result="effect1_backgroundBlur_1027_18"/><feBlend in="SourceGraphic" in2="effect1_backgroundBlur_1027_18" mode="normal" result="shape"/></filter><filter id="filter8_b_1027_18" width="91.585" height="90.423" x="373.641" y="-6.749" color-interpolation-filters="sRGB" filterUnits="userSpaceOnUse"><feFlood flood-opacity="0" result="BackgroundImageFix"/><feGaussianBlur in="BackgroundImageFix" stdDeviation="8.375"/><feComposite in2="SourceAlpha" operator="in" result="effect1_backgroundBlur_1027_18"/><feBlend in="SourceGraphic" in2="effect1_backgroundBlur_1027_18" mode="normal" result="shape"/></filter><filter id="filter9_f_1027_18" width="57.104" height="57.103" x=".584" y="69.639" color-interpolation-filters="sRGB" filterUnits="userSpaceOnUse"><feFlood flood-opacity="0" result="BackgroundImageFix"/><feBlend in="SourceGraphic" in2="BackgroundImageFix" mode="normal" result="shape"/><feGaussianBlur result="effect1_foregroundBlur_1027_18" stdDeviation="11.421"/></filter><filter id="filter10_f_1027_18" width="30.456" height="30.455" x="13.909" y="82.965" color-interpolation-filters="sRGB" filterUnits="userSpaceOnUse"><feFlood flood-opacity="0" result="BackgroundImageFix"/><feBlend in="SourceGraphic" in2="BackgroundImageFix" mode="normal" result="shape"/><feGaussianBlur result="effect1_foregroundBlur_1027_18" stdDeviation="3.046"/></filter><filter id="filter11_f_1027_18" width="55.308" height="55.308" x="175.681" y="273.547" color-interpolation-filters="sRGB" filterUnits="userSpaceOnUse"><feFlood flood-opacity="0" result="BackgroundImageFix"/><feBlend in="SourceGraphic" in2="BackgroundImageFix" mode="normal" result="shape"/><feGaussianBlur result="effect1_foregroundBlur_1027_18" stdDeviation="11.062"/></filter><filter id="filter12_f_1027_18" width="29.497" height="29.498" x="188.588" y="286.452" color-interpolation-filters="sRGB" filterUnits="userSpaceOnUse"><feFlood flood-opacity="0" result="BackgroundImageFix"/><feBlend in="SourceGraphic" in2="BackgroundImageFix" mode="normal" result="shape"/><feGaussianBlur result="effect1_foregroundBlur_1027_18" stdDeviation="2.95"/></filter><filter id="filter13_f_1027_18" width="71.699" height="71.699" x="405.335" y="62.342" color-interpolation-filters="sRGB" filterUnits="userSpaceOnUse"><feFlood flood-opacity="0" result="BackgroundImageFix"/><feBlend in="SourceGraphic" in2="BackgroundImageFix" mode="normal" result="shape"/><feGaussianBlur result="effect1_foregroundBlur_1027_18" stdDeviation="14.34"/></filter><filter id="filter14_f_1027_18" width="38.239" height="38.239" x="422.064" y="79.073" color-interpolation-filters="sRGB" filterUnits="userSpaceOnUse"><feFlood flood-opacity="0" result="BackgroundImageFix"/><feBlend in="SourceGraphic" in2="BackgroundImageFix" mode="normal" result="shape"/><feGaussianBlur result="effect1_foregroundBlur_1027_18" stdDeviation="3.824"/></filter><filter id="filter15_f_1027_18" width="57.621" height="57.621" x="526.274" y="12.431" color-interpolation-filters="sRGB" filterUnits="userSpaceOnUse"><feFlood flood-opacity="0" result="BackgroundImageFix"/><feBlend in="SourceGraphic" in2="BackgroundImageFix" mode="normal" result="shape"/><feGaussianBlur result="effect1_foregroundBlur_1027_18" stdDeviation="11.524"/></filter><filter id="filter16_f_1027_18" width="30.731" height="30.731" x="539.719" y="25.876" color-interpolation-filters="sRGB" filterUnits="userSpaceOnUse"><feFlood flood-opacity="0" result="BackgroundImageFix"/><feBlend in="SourceGraphic" in2="BackgroundImageFix" mode="normal" result="shape"/><feGaussianBlur result="effect1_foregroundBlur_1027_18" stdDeviation="3.073"/></filter><linearGradient id="paint0_linear_1027_18" x1="542.507" x2="498.075" y1="196.282" y2="60.95" gradientUnits="userSpaceOnUse"><stop stop-color="#1E1E22" stop-opacity="0"/><stop offset="1" stop-color="#fff"/></linearGradient><linearGradient id="paint1_linear_1027_18" x1="404.336" x2="440.516" y1="183.616" y2="101.541" gradientUnits="userSpaceOnUse"><stop stop-color="#1E1E22" stop-opacity="0"/><stop offset="1" stop-color="#fff"/></linearGradient><linearGradient id="paint2_linear_1027_18" x1="203.001" x2="152.159" y1="197.351" y2="238.726" gradientUnits="userSpaceOnUse"><stop stop-color="#1E1E22" stop-opacity="0"/><stop offset="1" stop-color="#fff"/></linearGradient><linearGradient id="paint3_linear_1027_18" x1="108.196" x2="28.467" y1="180.602" y2="100.872" gradientUnits="userSpaceOnUse"><stop stop-color="#1E1E22" stop-opacity="0"/><stop offset="1" stop-color="#fff"/></linearGradient><linearGradient id="paint4_linear_1027_18" x1="116.234" x2="64.98" y1="38.561" y2="22.146" gradientUnits="userSpaceOnUse"><stop stop-color="#1E1E22" stop-opacity="0"/><stop offset="1" stop-color="#fff"/></linearGradient><linearGradient id="paint5_linear_1027_18" x1="555.753" x2="656.057" y1="43.921" y2="253.104" gradientUnits="userSpaceOnUse"><stop stop-color="#fff"/><stop offset="1" stop-color="#fff" stop-opacity=".3"/></linearGradient><linearGradient id="paint6_linear_1027_18" x1="555.083" x2="553.431" y1="41.241" y2="69.803" gradientUnits="userSpaceOnUse"><stop stop-color="#fff"/><stop offset="1" stop-color="#fff" stop-opacity="0"/></linearGradient><linearGradient id="paint7_linear_1027_18" x1="444.197" x2="361.452" y1="98.525" y2="139.73" gradientUnits="userSpaceOnUse"><stop stop-color="#fff"/><stop offset="1" stop-color="#fff" stop-opacity=".3"/></linearGradient><linearGradient id="paint8_linear_1027_18" x1="441.182" x2="409.587" y1="99.195" y2="117.853" gradientUnits="userSpaceOnUse"><stop stop-color="#fff"/><stop offset="1" stop-color="#fff" stop-opacity="0"/></linearGradient><linearGradient id="paint9_linear_1027_18" x1="390.712" x2="441.967" y1="38.363" y2="54.778" gradientUnits="userSpaceOnUse"><stop stop-color="#1E1E22" stop-opacity="0"/><stop offset="1" stop-color="#fff"/></linearGradient><linearGradient id="paint10_linear_1027_18" x1="412.936" x2="396.833" y1="59.384" y2="19.663" gradientUnits="userSpaceOnUse"><stop stop-color="#fff"/><stop offset="1" stop-color="#fff" stop-opacity=".1"/></linearGradient><linearGradient id="paint11_linear_1027_18" x1="477.813" x2="460.058" y1="-22.272" y2="-42.037" gradientUnits="userSpaceOnUse"><stop stop-color="#fff"/><stop offset="1" stop-color="#fff" stop-opacity="0"/></linearGradient><linearGradient id="paint12_linear_1027_18" x1="158.508" x2="334.889" y1="187.134" y2="113.411" gradientUnits="userSpaceOnUse"><stop stop-color="#fff"/><stop offset="1" stop-color="#fff" stop-opacity=".3"/></linearGradient><linearGradient id="paint13_linear_1027_18" x1="56.271" x2="110.875" y1="38.226" y2="38.226" gradientUnits="userSpaceOnUse"><stop stop-color="#fff"/><stop offset="1" stop-color="#fff" stop-opacity=".3"/></linearGradient><linearGradient id="paint14_linear_1027_18" x1="29.136" x2="46.891" y1="99.196" y2="118.961" gradientUnits="userSpaceOnUse"><stop stop-color="#fff"/><stop offset="1" stop-color="#fff" stop-opacity="0"/></linearGradient><linearGradient id="paint15_linear_1027_18" x1="110.875" x2="110.875" y1="17.791" y2="60.457" gradientUnits="userSpaceOnUse"><stop stop-color="#fff"/><stop offset="1" stop-color="#fff" stop-opacity=".1"/></linearGradient><linearGradient id="paint16_linear_1027_18" x1="29.136" x2="46.891" y1="99.196" y2="118.961" gradientUnits="userSpaceOnUse"><stop stop-color="#fff"/><stop offset="1" stop-color="#fff" stop-opacity="0"/></linearGradient><linearGradient id="paint17_linear_1027_18" x1="116.234" x2="64.98" y1="38.561" y2="22.146" gradientUnits="userSpaceOnUse"><stop stop-color="#1E1E22" stop-opacity="0"/><stop offset="1" stop-color="#fff"/></linearGradient><linearGradient id="paint18_linear_1027_18" x1="555.753" x2="656.057" y1="43.921" y2="253.104" gradientUnits="userSpaceOnUse"><stop stop-color="#fff"/><stop offset="1" stop-color="#fff" stop-opacity=".3"/></linearGradient><linearGradient id="paint19_linear_1027_18" x1="555.083" x2="553.431" y1="41.241" y2="69.803" gradientUnits="userSpaceOnUse"><stop stop-color="#fff"/><stop offset="1" stop-color="#fff" stop-opacity="0"/></linearGradient><linearGradient id="paint20_linear_1027_18" x1="444.197" x2="361.452" y1="98.525" y2="139.73" gradientUnits="userSpaceOnUse"><stop stop-color="#fff"/><stop offset="1" stop-color="#fff" stop-opacity=".3"/></linearGradient><linearGradient id="paint21_linear_1027_18" x1="441.182" x2="409.587" y1="99.195" y2="117.853" gradientUnits="userSpaceOnUse"><stop stop-color="#fff"/><stop offset="1" stop-color="#fff" stop-opacity="0"/></linearGradient><linearGradient id="paint22_linear_1027_18" x1="390.712" x2="441.967" y1="38.363" y2="54.778" gradientUnits="userSpaceOnUse"><stop stop-color="#1E1E22" stop-opacity="0"/><stop offset="1" stop-color="#fff"/></linearGradient><linearGradient id="paint23_linear_1027_18" x1="412.936" x2="396.833" y1="59.384" y2="19.663" gradientUnits="userSpaceOnUse"><stop stop-color="#fff"/><stop offset="1" stop-color="#fff" stop-opacity=".1"/></linearGradient><linearGradient id="paint24_linear_1027_18" x1="477.813" x2="460.058" y1="-22.272" y2="-42.037" gradientUnits="userSpaceOnUse"><stop stop-color="#fff"/><stop offset="1" stop-color="#fff" stop-opacity="0"/></linearGradient><linearGradient id="paint25_linear_1027_18" x1="158.508" x2="334.889" y1="187.134" y2="113.411" gradientUnits="userSpaceOnUse"><stop stop-color="#fff"/><stop offset="1" stop-color="#fff" stop-opacity=".3"/></linearGradient><linearGradient id="paint26_linear_1027_18" x1="56.271" x2="110.875" y1="38.226" y2="38.226" gradientUnits="userSpaceOnUse"><stop stop-color="#fff"/><stop offset="1" stop-color="#fff" stop-opacity=".3"/></linearGradient><linearGradient id="paint27_linear_1027_18" x1="29.136" x2="46.891" y1="99.196" y2="118.961" gradientUnits="userSpaceOnUse"><stop stop-color="#fff"/><stop offset="1" stop-color="#fff" stop-opacity="0"/></linearGradient><linearGradient id="paint28_linear_1027_18" x1="110.875" x2="110.875" y1="17.791" y2="60.457" gradientUnits="userSpaceOnUse"><stop stop-color="#fff"/><stop offset="1" stop-color="#fff" stop-opacity=".1"/></linearGradient><linearGradient id="paint29_linear_1027_18" x1="29.136" x2="46.891" y1="99.196" y2="118.961" gradientUnits="userSpaceOnUse"><stop stop-color="#fff"/><stop offset="1" stop-color="#fff" stop-opacity="0"/></linearGradient><radialGradient id="paint30_radial_1027_18" cx="0" cy="0" r="1" gradientTransform="translate(29.1365 98.1922) rotate(90) scale(9.13655)" gradientUnits="userSpaceOnUse"><stop stop-color="#fff"/><stop offset="1" stop-color="#fff" stop-opacity="0"/></radialGradient><radialGradient id="paint31_radial_1027_18" cx="0" cy="0" r="1" gradientTransform="translate(203.337 301.201) rotate(90) scale(8.84929)" gradientUnits="userSpaceOnUse"><stop stop-color="#fff"/><stop offset="1" stop-color="#fff" stop-opacity="0"/></radialGradient><radialGradient id="paint32_radial_1027_18" cx="0" cy="0" r="1" gradientTransform="translate(441.184 98.1927) rotate(90) scale(11.4718)" gradientUnits="userSpaceOnUse"><stop stop-color="#fff"/><stop offset="1" stop-color="#fff" stop-opacity="0"/></radialGradient><radialGradient id="paint33_radial_1027_18" cx="0" cy="0" r="1" gradientTransform="translate(555.085 41.2415) rotate(90) scale(9.21937)" gradientUnits="userSpaceOnUse"><stop stop-color="#fff"/><stop offset="1" stop-color="#fff" stop-opacity="0"/></radialGradient></defs></svg>