<svg xmlns="http://www.w3.org/2000/svg" width="232" height="325" fill="none" viewBox="0 0 232 325"><g clip-path="url(#clip0_2060_26176)"><g filter="url(#filter0_d_2060_26176)"><g clip-path="url(#clip1_2060_26176)"><path fill="#000" fill-rule="evenodd" d="M0 8.27122C0 3.81452 3.61287 0.20166 8.06956 0.20166H223.93C228.387 0.20166 232 3.81453 232 8.27122V316.932C232 321.389 228.387 325.002 223.93 325.002H8.06956C3.61286 325.002 0 321.389 0 316.932V8.27122ZM95.8261 10.2886C95.8261 9.17441 96.7293 8.2712 97.8435 8.2712H134.157C135.271 8.2712 136.174 9.17441 136.174 10.2886C136.174 11.4028 135.271 12.306 134.157 12.306H97.8435C96.7293 12.306 95.8261 11.4028 95.8261 10.2886Z" clip-rule="evenodd"/><path fill="url(#paint0_linear_2060_26176)" fill-opacity=".2" fill-rule="evenodd" d="M0 8.27122C0 3.81452 3.61287 0.20166 8.06956 0.20166H223.93C228.387 0.20166 232 3.81453 232 8.27122V316.932C232 321.389 228.387 325.002 223.93 325.002H8.06956C3.61286 325.002 0 321.389 0 316.932V8.27122ZM95.8261 10.2886C95.8261 9.17441 96.7293 8.2712 97.8435 8.2712H134.157C135.271 8.2712 136.174 9.17441 136.174 10.2886C136.174 11.4028 135.271 12.306 134.157 12.306H97.8435C96.7293 12.306 95.8261 11.4028 95.8261 10.2886Z" clip-rule="evenodd"/><mask id="mask0_2060_26176" width="41" height="326" x="191" y="0" maskUnits="userSpaceOnUse" style="mask-type:alpha"><rect width="40.348" height="324.8" x="191.652" y=".202" fill="url(#paint1_linear_2060_26176)" fill-opacity=".32"/></mask><g mask="url(#mask0_2060_26176)"><mask id="mask1_2060_26176" width="41" height="326" x="191" y="0" maskUnits="userSpaceOnUse" style="mask-type:alpha"><rect width="40.348" height="324.8" fill="url(#paint2_linear_2060_26176)" transform="matrix(-1 0 0 1 232 0.20166)"/></mask><g mask="url(#mask1_2060_26176)"><rect width="4.035" height="4.035" x="232" y=".202" fill="#fff" opacity=".64" rx="1.009" transform="rotate(90 232 0.20166)"/><rect width="4.035" height="4.035" x="232" y="6.254" fill="#fff" opacity=".4" rx="1.009" transform="rotate(90 232 6.25391)"/><rect width="4.035" height="4.035" x="232" y="12.306" fill="#fff" opacity=".32" rx="1.009" transform="rotate(90 232 12.3062)"/><rect width="4.035" height="4.035" x="232" y="18.358" fill="#fff" opacity=".16" rx="1.009" transform="rotate(90 232 18.3579)"/><rect width="4.035" height="4.035" x="232" y="24.41" fill="#fff" opacity=".8" rx="1.009" transform="rotate(90 232 24.4102)"/><rect width="4.035" height="4.035" x="232" y="30.462" fill="#fff" opacity=".64" rx="1.009" transform="rotate(90 232 30.4624)"/><rect width="4.035" height="4.035" x="232" y="36.515" fill="#fff" opacity=".4" rx="1.009" transform="rotate(90 232 36.5146)"/><rect width="4.035" height="4.035" x="232" y="42.567" fill="#fff" opacity=".32" rx="1.009" transform="rotate(90 232 42.5669)"/><rect width="4.035" height="4.035" x="232" y="48.619" fill="#fff" opacity=".16" rx="1.009" transform="rotate(90 232 48.6191)"/><rect width="4.035" height="4.035" x="232" y="54.671" fill="#fff" opacity=".4" rx="1.009" transform="rotate(90 232 54.6714)"/><rect width="4.035" height="4.035" x="232" y="60.723" fill="#fff" opacity=".32" rx="1.009" transform="rotate(90 232 60.7231)"/><rect width="4.035" height="4.035" x="232" y="66.775" fill="#fff" opacity=".8" rx="1.009" transform="rotate(90 232 66.7754)"/><rect width="4.035" height="4.035" x="232" y="72.828" fill="#fff" opacity=".16" rx="1.009" transform="rotate(90 232 72.8276)"/><rect width="4.035" height="4.035" x="232" y="78.88" fill="#fff" opacity=".4" rx="1.009" transform="rotate(90 232 78.8799)"/><rect width="4.035" height="4.035" x="232" y="84.932" fill="#fff" opacity=".32" rx="1.009" transform="rotate(90 232 84.9321)"/><rect width="4.035" height="4.035" x="232" y="90.984" fill="#fff" opacity=".32" rx="1.009" transform="rotate(90 232 90.9844)"/><rect width="4.035" height="4.035" x="232" y="97.037" fill="#fff" opacity=".32" rx="1.009" transform="rotate(90 232 97.0366)"/><rect width="4.035" height="4.035" x="232" y="103.088" fill="#fff" opacity=".64" rx="1.009" transform="rotate(90 232 103.088)"/><rect width="4.035" height="4.035" x="232" y="109.141" fill="#fff" opacity=".16" rx="1.009" transform="rotate(90 232 109.141)"/><rect width="4.035" height="4.035" x="232" y="115.193" fill="#fff" opacity=".64" rx="1.009" transform="rotate(90 232 115.193)"/><rect width="4.035" height="4.035" x="232" y="121.245" fill="#fff" opacity=".4" rx="1.009" transform="rotate(90 232 121.245)"/><rect width="4.035" height="4.035" x="232" y="127.297" fill="#fff" opacity=".32" rx="1.009" transform="rotate(90 232 127.297)"/><rect width="4.035" height="4.035" x="232" y="133.35" fill="#fff" opacity=".16" rx="1.009" transform="rotate(90 232 133.35)"/><rect width="4.035" height="4.035" x="232" y="139.402" fill="#fff" opacity=".8" rx="1.009" transform="rotate(90 232 139.402)"/><rect width="4.035" height="4.035" x="232" y="145.454" fill="#fff" opacity=".8" rx="1.009" transform="rotate(90 232 145.454)"/><rect width="4.035" height="4.035" x="232" y="151.506" fill="#fff" opacity=".64" rx="1.009" transform="rotate(90 232 151.506)"/><rect width="4.035" height="4.035" x="232" y="157.558" fill="#fff" opacity=".4" rx="1.009" transform="rotate(90 232 157.558)"/><rect width="4.035" height="4.035" x="232" y="163.61" fill="#fff" opacity=".8" rx="1.009" transform="rotate(90 232 163.61)"/><rect width="4.035" height="4.035" x="232" y="169.663" fill="#fff" opacity=".4" rx="1.009" transform="rotate(90 232 169.663)"/><rect width="4.035" height="4.035" x="232" y="175.715" fill="#fff" opacity=".16" rx="1.009" transform="rotate(90 232 175.715)"/><rect width="4.035" height="4.035" x="232" y="181.767" fill="#fff" opacity=".32" rx="1.009" transform="rotate(90 232 181.767)"/><rect width="4.035" height="4.035" x="232" y="187.819" fill="#fff" opacity=".16" rx="1.009" transform="rotate(90 232 187.819)"/><rect width="4.035" height="4.035" x="232" y="193.871" fill="#fff" opacity=".64" rx="1.009" transform="rotate(90 232 193.871)"/><rect width="4.035" height="4.035" x="232" y="199.923" fill="#fff" opacity=".16" rx="1.009" transform="rotate(90 232 199.923)"/><rect width="4.035" height="4.035" x="232" y="205.976" fill="#fff" opacity=".64" rx="1.009" transform="rotate(90 232 205.976)"/><rect width="4.035" height="4.035" x="232" y="212.028" fill="#fff" opacity=".32" rx="1.009" transform="rotate(90 232 212.028)"/><rect width="4.035" height="4.035" x="232" y="218.08" fill="#fff" opacity=".8" rx="1.009" transform="rotate(90 232 218.08)"/><rect width="4.035" height="4.035" x="232" y="224.132" fill="#fff" opacity=".4" rx="1.009" transform="rotate(90 232 224.132)"/><rect width="4.035" height="4.035" x="232" y="230.184" fill="#fff" opacity=".32" rx="1.009" transform="rotate(90 232 230.184)"/><rect width="4.035" height="4.035" x="232" y="236.236" fill="#fff" opacity=".32" rx="1.009" transform="rotate(90 232 236.236)"/><rect width="4.035" height="4.035" x="232" y="242.289" fill="#fff" opacity=".64" rx="1.009" transform="rotate(90 232 242.289)"/><rect width="4.035" height="4.035" x="232" y="248.341" fill="#fff" opacity=".4" rx="1.009" transform="rotate(90 232 248.341)"/><rect width="4.035" height="4.035" x="232" y="254.393" fill="#fff" opacity=".16" rx="1.009" transform="rotate(90 232 254.393)"/><rect width="4.035" height="4.035" x="232" y="260.445" fill="#fff" opacity=".8" rx="1.009" transform="rotate(90 232 260.445)"/><rect width="4.035" height="4.035" x="232" y="266.497" fill="#fff" opacity=".8" rx="1.009" transform="rotate(90 232 266.497)"/><rect width="4.035" height="4.035" x="232" y="272.549" fill="#fff" opacity=".8" rx="1.009" transform="rotate(90 232 272.549)"/><rect width="4.035" height="4.035" x="232" y="278.602" fill="#fff" opacity=".64" rx="1.009" transform="rotate(90 232 278.602)"/><rect width="4.035" height="4.035" x="232" y="284.654" fill="#fff" opacity=".4" rx="1.009" transform="rotate(90 232 284.654)"/><rect width="4.035" height="4.035" x="232" y="290.706" fill="#fff" opacity=".4" rx="1.009" transform="rotate(90 232 290.706)"/><rect width="4.035" height="4.035" x="232" y="296.758" fill="#fff" opacity=".32" rx="1.009" transform="rotate(90 232 296.758)"/><rect width="4.035" height="4.035" x="232" y="302.811" fill="#fff" opacity=".16" rx="1.009" transform="rotate(90 232 302.811)"/><rect width="4.035" height="4.035" x="232" y="308.862" fill="#fff" opacity=".64" rx="1.009" transform="rotate(90 232 308.862)"/><rect width="4.035" height="4.035" x="232" y="314.915" fill="#fff" opacity=".32" rx="1.009" transform="rotate(90 232 314.915)"/><rect width="4.035" height="4.035" x="232" y="320.967" fill="#fff" opacity=".16" rx="1.009" transform="rotate(90 232 320.967)"/><rect width="4.035" height="4.035" fill="#fff" opacity=".64" rx="1.009" transform="matrix(-4.37114e-08 -1 -1 4.37114e-08 225.947 325.001)"/><rect width="4.035" height="4.035" fill="#fff" opacity=".4" rx="1.009" transform="matrix(-4.37114e-08 -1 -1 4.37114e-08 225.947 318.949)"/><rect width="4.035" height="4.035" fill="#fff" opacity=".32" rx="1.009" transform="matrix(-4.37114e-08 -1 -1 4.37114e-08 225.947 312.897)"/><rect width="4.035" height="4.035" fill="#fff" opacity=".16" rx="1.009" transform="matrix(-4.37114e-08 -1 -1 4.37114e-08 225.947 306.845)"/><rect width="4.035" height="4.035" fill="#fff" opacity=".8" rx="1.009" transform="matrix(-4.37114e-08 -1 -1 4.37114e-08 225.947 300.793)"/><rect width="4.035" height="4.035" fill="#fff" opacity=".64" rx="1.009" transform="matrix(-4.37114e-08 -1 -1 4.37114e-08 225.947 294.741)"/><rect width="4.035" height="4.035" fill="#fff" opacity=".4" rx="1.009" transform="matrix(-4.37114e-08 -1 -1 4.37114e-08 225.947 288.688)"/><rect width="4.035" height="4.035" fill="#fff" opacity=".32" rx="1.009" transform="matrix(-4.37114e-08 -1 -1 4.37114e-08 225.947 282.636)"/><rect width="4.035" height="4.035" fill="#fff" opacity=".16" rx="1.009" transform="matrix(-4.37114e-08 -1 -1 4.37114e-08 225.947 276.584)"/><rect width="4.035" height="4.035" fill="#fff" opacity=".4" rx="1.009" transform="matrix(-4.37114e-08 -1 -1 4.37114e-08 225.947 270.532)"/><rect width="4.035" height="4.035" fill="#fff" opacity=".32" rx="1.009" transform="matrix(-4.37114e-08 -1 -1 4.37114e-08 225.947 264.479)"/><rect width="4.035" height="4.035" fill="#fff" opacity=".8" rx="1.009" transform="matrix(-4.37114e-08 -1 -1 4.37114e-08 225.947 258.428)"/><rect width="4.035" height="4.035" fill="#fff" opacity=".16" rx="1.009" transform="matrix(-4.37114e-08 -1 -1 4.37114e-08 225.947 252.375)"/><rect width="4.035" height="4.035" fill="#fff" opacity=".4" rx="1.009" transform="matrix(-4.37114e-08 -1 -1 4.37114e-08 225.947 246.323)"/><rect width="4.035" height="4.035" fill="#fff" opacity=".32" rx="1.009" transform="matrix(-4.37114e-08 -1 -1 4.37114e-08 225.947 240.271)"/><rect width="4.035" height="4.035" fill="#fff" opacity=".32" rx="1.009" transform="matrix(-4.37114e-08 -1 -1 4.37114e-08 225.947 234.219)"/><rect width="4.035" height="4.035" fill="#fff" opacity=".32" rx="1.009" transform="matrix(-4.37114e-08 -1 -1 4.37114e-08 225.947 228.167)"/><rect width="4.035" height="4.035" fill="#fff" opacity=".64" rx="1.009" transform="matrix(-4.37114e-08 -1 -1 4.37114e-08 225.947 222.115)"/><rect width="4.035" height="4.035" fill="#fff" opacity=".16" rx="1.009" transform="matrix(-4.37114e-08 -1 -1 4.37114e-08 225.947 216.062)"/><rect width="4.035" height="4.035" fill="#fff" opacity=".64" rx="1.009" transform="matrix(-4.37114e-08 -1 -1 4.37114e-08 225.947 210.01)"/><rect width="4.035" height="4.035" fill="#fff" opacity=".4" rx="1.009" transform="matrix(-4.37114e-08 -1 -1 4.37114e-08 225.947 203.958)"/><rect width="4.035" height="4.035" fill="#fff" opacity=".32" rx="1.009" transform="matrix(-4.37114e-08 -1 -1 4.37114e-08 225.947 197.906)"/><rect width="4.035" height="4.035" fill="#fff" opacity=".16" rx="1.009" transform="matrix(-4.37114e-08 -1 -1 4.37114e-08 225.947 191.854)"/><rect width="4.035" height="4.035" fill="#fff" opacity=".8" rx="1.009" transform="matrix(-4.37114e-08 -1 -1 4.37114e-08 225.947 185.802)"/><rect width="4.035" height="4.035" fill="#fff" opacity=".8" rx="1.009" transform="matrix(-4.37114e-08 -1 -1 4.37114e-08 225.947 179.75)"/><rect width="4.035" height="4.035" fill="#fff" opacity=".64" rx="1.009" transform="matrix(-4.37114e-08 -1 -1 4.37114e-08 225.947 173.697)"/><rect width="4.035" height="4.035" fill="#fff" opacity=".4" rx="1.009" transform="matrix(-4.37114e-08 -1 -1 4.37114e-08 225.947 167.645)"/><rect width="4.035" height="4.035" fill="#fff" opacity=".8" rx="1.009" transform="matrix(-4.37114e-08 -1 -1 4.37114e-08 225.947 161.593)"/><rect width="4.035" height="4.035" fill="#fff" opacity=".4" rx="1.009" transform="matrix(-4.37114e-08 -1 -1 4.37114e-08 225.947 155.541)"/><rect width="4.035" height="4.035" fill="#fff" opacity=".16" rx="1.009" transform="matrix(-4.37114e-08 -1 -1 4.37114e-08 225.947 149.488)"/><rect width="4.035" height="4.035" fill="#fff" opacity=".32" rx="1.009" transform="matrix(-4.37114e-08 -1 -1 4.37114e-08 225.947 143.437)"/><rect width="4.035" height="4.035" fill="#fff" opacity=".16" rx="1.009" transform="matrix(-4.37114e-08 -1 -1 4.37114e-08 225.947 137.384)"/><rect width="4.035" height="4.035" fill="#fff" opacity=".64" rx="1.009" transform="matrix(-4.37114e-08 -1 -1 4.37114e-08 225.947 131.332)"/><rect width="4.035" height="4.035" fill="#fff" opacity=".16" rx="1.009" transform="matrix(-4.37114e-08 -1 -1 4.37114e-08 225.947 125.28)"/><rect width="4.035" height="4.035" fill="#fff" opacity=".64" rx="1.009" transform="matrix(-4.37114e-08 -1 -1 4.37114e-08 225.947 119.228)"/><rect width="4.035" height="4.035" fill="#fff" opacity=".32" rx="1.009" transform="matrix(-4.37114e-08 -1 -1 4.37114e-08 225.947 113.175)"/><rect width="4.035" height="4.035" fill="#fff" opacity=".8" rx="1.009" transform="matrix(-4.37114e-08 -1 -1 4.37114e-08 225.947 107.124)"/><rect width="4.035" height="4.035" fill="#fff" opacity=".4" rx="1.009" transform="matrix(-4.37114e-08 -1 -1 4.37114e-08 225.947 101.071)"/><rect width="4.035" height="4.035" fill="#fff" opacity=".32" rx="1.009" transform="matrix(-4.37114e-08 -1 -1 4.37114e-08 225.947 95.019)"/><rect width="4.035" height="4.035" fill="#fff" opacity=".32" rx="1.009" transform="matrix(-4.37114e-08 -1 -1 4.37114e-08 225.947 88.9668)"/><rect width="4.035" height="4.035" fill="#fff" opacity=".64" rx="1.009" transform="matrix(-4.37114e-08 -1 -1 4.37114e-08 225.947 82.9146)"/><rect width="4.035" height="4.035" fill="#fff" opacity=".4" rx="1.009" transform="matrix(-4.37114e-08 -1 -1 4.37114e-08 225.947 76.8623)"/><rect width="4.035" height="4.035" fill="#fff" opacity=".16" rx="1.009" transform="matrix(-4.37114e-08 -1 -1 4.37114e-08 225.947 70.8101)"/><rect width="4.035" height="4.035" fill="#fff" opacity=".8" rx="1.009" transform="matrix(-4.37114e-08 -1 -1 4.37114e-08 225.947 64.7583)"/><rect width="4.035" height="4.035" fill="#fff" opacity=".8" rx="1.009" transform="matrix(-4.37114e-08 -1 -1 4.37114e-08 225.947 58.7061)"/><rect width="4.035" height="4.035" fill="#fff" opacity=".8" rx="1.009" transform="matrix(-4.37114e-08 -1 -1 4.37114e-08 225.947 52.6538)"/><rect width="4.035" height="4.035" fill="#fff" opacity=".64" rx="1.009" transform="matrix(-4.37114e-08 -1 -1 4.37114e-08 225.947 46.6016)"/><rect width="4.035" height="4.035" fill="#fff" opacity=".4" rx="1.009" transform="matrix(-4.37114e-08 -1 -1 4.37114e-08 225.947 40.5493)"/><rect width="4.035" height="4.035" fill="#fff" opacity=".4" rx="1.009" transform="matrix(-4.37114e-08 -1 -1 4.37114e-08 225.947 34.4971)"/><rect width="4.035" height="4.035" fill="#fff" opacity=".32" rx="1.009" transform="matrix(-4.37114e-08 -1 -1 4.37114e-08 225.947 28.4448)"/><rect width="4.035" height="4.035" fill="#fff" opacity=".16" rx="1.009" transform="matrix(-4.37114e-08 -1 -1 4.37114e-08 225.947 22.3926)"/><rect width="4.035" height="4.035" fill="#fff" opacity=".64" rx="1.009" transform="matrix(-4.37114e-08 -1 -1 4.37114e-08 225.947 16.3408)"/><rect width="4.035" height="4.035" fill="#fff" opacity=".32" rx="1.009" transform="matrix(-4.37114e-08 -1 -1 4.37114e-08 225.947 10.2886)"/><rect width="4.035" height="4.035" fill="#fff" opacity=".16" rx="1.009" transform="matrix(-4.37114e-08 -1 -1 4.37114e-08 225.947 4.23633)"/><rect width="4.035" height="4.035" x="219.896" y=".202" fill="#fff" opacity=".4" rx="1.009" transform="rotate(90 219.896 0.20166)"/><rect width="4.035" height="4.035" x="219.896" y="6.254" fill="#fff" opacity=".32" rx="1.009" transform="rotate(90 219.896 6.25391)"/><rect width="4.035" height="4.035" x="219.896" y="12.306" fill="#fff" opacity=".16" rx="1.009" transform="rotate(90 219.896 12.3062)"/><rect width="4.035" height="4.035" x="219.896" y="18.358" fill="#fff" opacity=".8" rx="1.009" transform="rotate(90 219.896 18.3584)"/><rect width="4.035" height="4.035" x="219.896" y="24.41" fill="#fff" opacity=".8" rx="1.009" transform="rotate(90 219.896 24.4102)"/><rect width="4.035" height="4.035" x="219.896" y="30.462" fill="#fff" opacity=".64" rx="1.009" transform="rotate(90 219.896 30.4624)"/><rect width="4.035" height="4.035" x="219.896" y="36.515" fill="#fff" opacity=".32" rx="1.009" transform="rotate(90 219.896 36.5146)"/><rect width="4.035" height="4.035" x="219.896" y="42.567" fill="#fff" opacity=".32" rx="1.009" transform="rotate(90 219.896 42.5669)"/><rect width="4.035" height="4.035" x="219.896" y="48.619" fill="#fff" opacity=".32" rx="1.009" transform="rotate(90 219.896 48.6191)"/><rect width="4.035" height="4.035" x="219.896" y="54.671" fill="#fff" opacity=".64" rx="1.009" transform="rotate(90 219.896 54.6714)"/><rect width="4.035" height="4.035" x="219.896" y="60.724" fill="#fff" opacity=".16" rx="1.009" transform="rotate(90 219.896 60.7236)"/><rect width="4.035" height="4.035" x="219.896" y="66.775" fill="#fff" opacity=".64" rx="1.009" transform="rotate(90 219.896 66.7754)"/><rect width="4.035" height="4.035" x="219.896" y="72.828" fill="#fff" opacity=".4" rx="1.009" transform="rotate(90 219.896 72.8276)"/><rect width="4.035" height="4.035" x="219.896" y="78.88" fill="#fff" opacity=".4" rx="1.009" transform="rotate(90 219.896 78.8799)"/><rect width="4.035" height="4.035" x="219.896" y="84.932" fill="#fff" opacity=".8" rx="1.009" transform="rotate(90 219.896 84.9321)"/><rect width="4.035" height="4.035" x="219.896" y="90.984" fill="#fff" opacity=".4" rx="1.009" transform="rotate(90 219.896 90.9844)"/><rect width="4.035" height="4.035" x="219.896" y="97.037" fill="#fff" opacity=".4" rx="1.009" transform="rotate(90 219.896 97.0366)"/><rect width="4.035" height="4.035" x="219.896" y="103.088" fill="#fff" opacity=".16" rx="1.009" transform="rotate(90 219.896 103.088)"/><rect width="4.035" height="4.035" x="219.896" y="109.141" fill="#fff" opacity=".8" rx="1.009" transform="rotate(90 219.896 109.141)"/><rect width="4.035" height="4.035" x="219.896" y="115.193" fill="#fff" opacity=".8" rx="1.009" transform="rotate(90 219.896 115.193)"/><rect width="4.035" height="4.035" x="219.896" y="121.245" fill="#fff" opacity=".8" rx="1.009" transform="rotate(90 219.896 121.245)"/><rect width="4.035" height="4.035" x="219.896" y="127.297" fill="#fff" opacity=".64" rx="1.009" transform="rotate(90 219.896 127.297)"/><rect width="4.035" height="4.035" x="219.896" y="133.35" fill="#fff" opacity=".4" rx="1.009" transform="rotate(90 219.896 133.35)"/><rect width="4.035" height="4.035" x="219.896" y="139.401" fill="#fff" opacity=".4" rx="1.009" transform="rotate(90 219.896 139.401)"/><rect width="4.035" height="4.035" x="219.896" y="145.454" fill="#fff" opacity=".32" rx="1.009" transform="rotate(90 219.896 145.454)"/><rect width="4.035" height="4.035" x="219.896" y="151.506" fill="#fff" opacity=".16" rx="1.009" transform="rotate(90 219.896 151.506)"/><rect width="4.035" height="4.035" x="219.896" y="157.558" fill="#fff" opacity=".64" rx="1.009" transform="rotate(90 219.896 157.558)"/><rect width="4.035" height="4.035" x="219.896" y="163.61" fill="#fff" opacity=".32" rx="1.009" transform="rotate(90 219.896 163.61)"/><rect width="4.035" height="4.035" x="219.896" y="169.663" fill="#fff" opacity=".16" rx="1.009" transform="rotate(90 219.896 169.663)"/><rect width="4.035" height="4.035" x="219.896" y="175.715" fill="#fff" opacity=".16" rx="1.009" transform="rotate(90 219.896 175.715)"/><rect width="4.035" height="4.035" x="219.896" y="181.767" fill="#fff" opacity=".64" rx="1.009" transform="rotate(90 219.896 181.767)"/><rect width="4.035" height="4.035" x="219.896" y="187.819" fill="#fff" opacity=".4" rx="1.009" transform="rotate(90 219.896 187.819)"/><rect width="4.035" height="4.035" x="219.896" y="193.871" fill="#fff" opacity=".32" rx="1.009" transform="rotate(90 219.896 193.871)"/><rect width="4.035" height="4.035" x="219.896" y="199.923" fill="#fff" opacity=".16" rx="1.009" transform="rotate(90 219.896 199.923)"/><rect width="4.035" height="4.035" x="219.896" y="205.976" fill="#fff" opacity=".32" rx="1.009" transform="rotate(90 219.896 205.976)"/><rect width="4.035" height="4.035" x="219.896" y="212.028" fill="#fff" opacity=".32" rx="1.009" transform="rotate(90 219.896 212.028)"/><rect width="4.035" height="4.035" x="219.896" y="218.08" fill="#fff" opacity=".64" rx="1.009" transform="rotate(90 219.896 218.08)"/><rect width="4.035" height="4.035" x="219.896" y="224.132" fill="#fff" opacity=".4" rx="1.009" transform="rotate(90 219.896 224.132)"/><rect width="4.035" height="4.035" x="219.896" y="230.184" fill="#fff" opacity=".8" rx="1.009" transform="rotate(90 219.896 230.184)"/><rect width="4.035" height="4.035" x="219.896" y="236.236" fill="#fff" opacity=".64" rx="1.009" transform="rotate(90 219.896 236.236)"/><rect width="4.035" height="4.035" x="219.896" y="242.289" fill="#fff" opacity=".4" rx="1.009" transform="rotate(90 219.896 242.289)"/><rect width="4.035" height="4.035" x="219.896" y="248.341" fill="#fff" opacity=".32" rx="1.009" transform="rotate(90 219.896 248.341)"/><rect width="4.035" height="4.035" x="219.896" y="254.393" fill="#fff" opacity=".16" rx="1.009" transform="rotate(90 219.896 254.393)"/><rect width="4.035" height="4.035" x="219.896" y="260.445" fill="#fff" opacity=".4" rx="1.009" transform="rotate(90 219.896 260.445)"/><rect width="4.035" height="4.035" x="219.896" y="266.497" fill="#fff" opacity=".32" rx="1.009" transform="rotate(90 219.896 266.497)"/><rect width="4.035" height="4.035" x="219.896" y="272.549" fill="#fff" opacity=".8" rx="1.009" transform="rotate(90 219.896 272.549)"/><rect width="4.035" height="4.035" x="219.896" y="278.602" fill="#fff" opacity=".16" rx="1.009" transform="rotate(90 219.896 278.602)"/><rect width="4.035" height="4.035" x="219.896" y="284.654" fill="#fff" opacity=".32" rx="1.009" transform="rotate(90 219.896 284.654)"/><rect width="4.035" height="4.035" x="219.896" y="290.706" fill="#fff" opacity=".16" rx="1.009" transform="rotate(90 219.896 290.706)"/><rect width="4.035" height="4.035" x="219.896" y="296.758" fill="#fff" opacity=".64" rx="1.009" transform="rotate(90 219.896 296.758)"/><rect width="4.035" height="4.035" x="219.896" y="302.811" fill="#fff" opacity=".16" rx="1.009" transform="rotate(90 219.896 302.811)"/><rect width="4.035" height="4.035" x="219.896" y="308.862" fill="#fff" opacity=".64" rx="1.009" transform="rotate(90 219.896 308.862)"/><rect width="4.035" height="4.035" x="219.896" y="314.915" fill="#fff" opacity=".32" rx="1.009" transform="rotate(90 219.896 314.915)"/><rect width="4.035" height="4.035" x="219.896" y="320.967" fill="#fff" opacity=".8" rx="1.009" transform="rotate(90 219.896 320.967)"/><rect width="4.035" height="4.035" x="213.844" y=".202" fill="#fff" opacity=".64" rx="1.009" transform="rotate(90 213.844 0.20166)"/><rect width="4.035" height="4.035" x="213.844" y="6.254" fill="#fff" opacity=".4" rx="1.009" transform="rotate(90 213.844 6.25391)"/><rect width="4.035" height="4.035" x="213.844" y="12.306" fill="#fff" opacity=".32" rx="1.009" transform="rotate(90 213.844 12.3062)"/><rect width="4.035" height="4.035" x="213.844" y="18.358" fill="#fff" opacity=".16" rx="1.009" transform="rotate(90 213.844 18.3584)"/><rect width="4.035" height="4.035" x="213.844" y="24.41" fill="#fff" opacity=".8" rx="1.009" transform="rotate(90 213.844 24.4102)"/><rect width="4.035" height="4.035" x="213.844" y="30.462" fill="#fff" opacity=".64" rx="1.009" transform="rotate(90 213.844 30.4624)"/><rect width="4.035" height="4.035" x="213.844" y="36.515" fill="#fff" opacity=".4" rx="1.009" transform="rotate(90 213.844 36.5146)"/><rect width="4.035" height="4.035" x="213.844" y="42.567" fill="#fff" opacity=".32" rx="1.009" transform="rotate(90 213.844 42.5669)"/><rect width="4.035" height="4.035" x="213.844" y="48.619" fill="#fff" opacity=".16" rx="1.009" transform="rotate(90 213.844 48.6191)"/><rect width="4.035" height="4.035" x="213.844" y="54.671" fill="#fff" opacity=".4" rx="1.009" transform="rotate(90 213.844 54.6714)"/><rect width="4.035" height="4.035" x="213.844" y="60.724" fill="#fff" opacity=".32" rx="1.009" transform="rotate(90 213.844 60.7236)"/><rect width="4.035" height="4.035" x="213.844" y="66.775" fill="#fff" opacity=".8" rx="1.009" transform="rotate(90 213.844 66.7754)"/><rect width="4.035" height="4.035" x="213.844" y="72.828" fill="#fff" opacity=".16" rx="1.009" transform="rotate(90 213.844 72.8276)"/><rect width="4.035" height="4.035" x="213.844" y="78.88" fill="#fff" opacity=".4" rx="1.009" transform="rotate(90 213.844 78.8799)"/><rect width="4.035" height="4.035" x="213.844" y="84.932" fill="#fff" opacity=".32" rx="1.009" transform="rotate(90 213.844 84.9321)"/><rect width="4.035" height="4.035" x="213.844" y="90.984" fill="#fff" opacity=".32" rx="1.009" transform="rotate(90 213.844 90.9844)"/><rect width="4.035" height="4.035" x="213.844" y="97.037" fill="#fff" opacity=".32" rx="1.009" transform="rotate(90 213.844 97.0366)"/><rect width="4.035" height="4.035" x="213.844" y="103.088" fill="#fff" opacity=".64" rx="1.009" transform="rotate(90 213.844 103.088)"/><rect width="4.035" height="4.035" x="213.844" y="109.141" fill="#fff" opacity=".16" rx="1.009" transform="rotate(90 213.844 109.141)"/><rect width="4.035" height="4.035" x="213.844" y="115.193" fill="#fff" opacity=".64" rx="1.009" transform="rotate(90 213.844 115.193)"/><rect width="4.035" height="4.035" x="213.844" y="121.245" fill="#fff" opacity=".4" rx="1.009" transform="rotate(90 213.844 121.245)"/><rect width="4.035" height="4.035" x="213.844" y="127.297" fill="#fff" opacity=".32" rx="1.009" transform="rotate(90 213.844 127.297)"/><rect width="4.035" height="4.035" x="213.844" y="133.35" fill="#fff" opacity=".16" rx="1.009" transform="rotate(90 213.844 133.35)"/><rect width="4.035" height="4.035" x="213.844" y="139.401" fill="#fff" opacity=".8" rx="1.009" transform="rotate(90 213.844 139.401)"/><rect width="4.035" height="4.035" x="213.844" y="145.454" fill="#fff" opacity=".8" rx="1.009" transform="rotate(90 213.844 145.454)"/><rect width="4.035" height="4.035" x="213.844" y="151.506" fill="#fff" opacity=".64" rx="1.009" transform="rotate(90 213.844 151.506)"/><rect width="4.035" height="4.035" x="213.844" y="157.558" fill="#fff" opacity=".4" rx="1.009" transform="rotate(90 213.844 157.558)"/><rect width="4.035" height="4.035" x="213.844" y="163.61" fill="#fff" opacity=".8" rx="1.009" transform="rotate(90 213.844 163.61)"/><rect width="4.035" height="4.035" x="213.844" y="169.663" fill="#fff" opacity=".4" rx="1.009" transform="rotate(90 213.844 169.663)"/><rect width="4.035" height="4.035" x="213.844" y="175.715" fill="#fff" opacity=".16" rx="1.009" transform="rotate(90 213.844 175.715)"/><rect width="4.035" height="4.035" x="213.844" y="181.767" fill="#fff" opacity=".32" rx="1.009" transform="rotate(90 213.844 181.767)"/><rect width="4.035" height="4.035" x="213.844" y="187.819" fill="#fff" opacity=".16" rx="1.009" transform="rotate(90 213.844 187.819)"/><rect width="4.035" height="4.035" x="213.844" y="193.871" fill="#fff" opacity=".64" rx="1.009" transform="rotate(90 213.844 193.871)"/><rect width="4.035" height="4.035" x="213.844" y="199.923" fill="#fff" opacity=".16" rx="1.009" transform="rotate(90 213.844 199.923)"/><rect width="4.035" height="4.035" x="213.844" y="205.976" fill="#fff" opacity=".64" rx="1.009" transform="rotate(90 213.844 205.976)"/><rect width="4.035" height="4.035" x="213.844" y="212.028" fill="#fff" opacity=".32" rx="1.009" transform="rotate(90 213.844 212.028)"/><rect width="4.035" height="4.035" x="213.844" y="218.08" fill="#fff" opacity=".8" rx="1.009" transform="rotate(90 213.844 218.08)"/><rect width="4.035" height="4.035" x="213.844" y="224.132" fill="#fff" opacity=".4" rx="1.009" transform="rotate(90 213.844 224.132)"/><rect width="4.035" height="4.035" x="213.844" y="230.184" fill="#fff" opacity=".32" rx="1.009" transform="rotate(90 213.844 230.184)"/><rect width="4.035" height="4.035" x="213.844" y="236.236" fill="#fff" opacity=".32" rx="1.009" transform="rotate(90 213.844 236.236)"/><rect width="4.035" height="4.035" x="213.844" y="242.289" fill="#fff" opacity=".64" rx="1.009" transform="rotate(90 213.844 242.289)"/><rect width="4.035" height="4.035" x="213.844" y="248.341" fill="#fff" opacity=".4" rx="1.009" transform="rotate(90 213.844 248.341)"/><rect width="4.035" height="4.035" x="213.844" y="254.393" fill="#fff" opacity=".16" rx="1.009" transform="rotate(90 213.844 254.393)"/><rect width="4.035" height="4.035" x="213.844" y="260.445" fill="#fff" opacity=".8" rx="1.009" transform="rotate(90 213.844 260.445)"/><rect width="4.035" height="4.035" x="213.844" y="266.497" fill="#fff" opacity=".8" rx="1.009" transform="rotate(90 213.844 266.497)"/><rect width="4.035" height="4.035" x="213.844" y="272.549" fill="#fff" opacity=".8" rx="1.009" transform="rotate(90 213.844 272.549)"/><rect width="4.035" height="4.035" x="213.844" y="278.602" fill="#fff" opacity=".64" rx="1.009" transform="rotate(90 213.844 278.602)"/><rect width="4.035" height="4.035" x="213.844" y="284.654" fill="#fff" opacity=".4" rx="1.009" transform="rotate(90 213.844 284.654)"/><rect width="4.035" height="4.035" x="213.844" y="290.706" fill="#fff" opacity=".4" rx="1.009" transform="rotate(90 213.844 290.706)"/><rect width="4.035" height="4.035" x="213.844" y="296.758" fill="#fff" opacity=".32" rx="1.009" transform="rotate(90 213.844 296.758)"/><rect width="4.035" height="4.035" x="213.844" y="302.811" fill="#fff" opacity=".16" rx="1.009" transform="rotate(90 213.844 302.811)"/><rect width="4.035" height="4.035" x="213.844" y="308.862" fill="#fff" opacity=".64" rx="1.009" transform="rotate(90 213.844 308.862)"/><rect width="4.035" height="4.035" x="213.844" y="314.915" fill="#fff" opacity=".32" rx="1.009" transform="rotate(90 213.844 314.915)"/><rect width="4.035" height="4.035" x="213.844" y="320.967" fill="#fff" opacity=".16" rx="1.009" transform="rotate(90 213.844 320.967)"/><rect width="4.035" height="4.035" fill="#fff" opacity=".64" rx="1.009" transform="matrix(-4.37114e-08 -1 -1 4.37114e-08 207.791 325.001)"/><rect width="4.035" height="4.035" fill="#fff" opacity=".4" rx="1.009" transform="matrix(-4.37114e-08 -1 -1 4.37114e-08 207.791 318.949)"/><rect width="4.035" height="4.035" fill="#fff" opacity=".32" rx="1.009" transform="matrix(-4.37114e-08 -1 -1 4.37114e-08 207.791 312.897)"/><rect width="4.035" height="4.035" fill="#fff" opacity=".16" rx="1.009" transform="matrix(-4.37114e-08 -1 -1 4.37114e-08 207.791 306.845)"/><rect width="4.035" height="4.035" fill="#fff" opacity=".8" rx="1.009" transform="matrix(-4.37114e-08 -1 -1 4.37114e-08 207.791 300.793)"/><rect width="4.035" height="4.035" fill="#fff" opacity=".64" rx="1.009" transform="matrix(-4.37114e-08 -1 -1 4.37114e-08 207.791 294.741)"/><rect width="4.035" height="4.035" fill="#fff" opacity=".4" rx="1.009" transform="matrix(-4.37114e-08 -1 -1 4.37114e-08 207.791 288.688)"/><rect width="4.035" height="4.035" fill="#fff" opacity=".32" rx="1.009" transform="matrix(-4.37114e-08 -1 -1 4.37114e-08 207.791 282.636)"/><rect width="4.035" height="4.035" fill="#fff" opacity=".16" rx="1.009" transform="matrix(-4.37114e-08 -1 -1 4.37114e-08 207.791 276.584)"/><rect width="4.035" height="4.035" fill="#fff" opacity=".4" rx="1.009" transform="matrix(-4.37114e-08 -1 -1 4.37114e-08 207.791 270.532)"/><rect width="4.035" height="4.035" fill="#fff" opacity=".32" rx="1.009" transform="matrix(-4.37114e-08 -1 -1 4.37114e-08 207.791 264.479)"/><rect width="4.035" height="4.035" fill="#fff" opacity=".8" rx="1.009" transform="matrix(-4.37114e-08 -1 -1 4.37114e-08 207.791 258.428)"/><rect width="4.035" height="4.035" fill="#fff" opacity=".16" rx="1.009" transform="matrix(-4.37114e-08 -1 -1 4.37114e-08 207.791 252.375)"/><rect width="4.035" height="4.035" fill="#fff" opacity=".4" rx="1.009" transform="matrix(-4.37114e-08 -1 -1 4.37114e-08 207.791 246.323)"/><rect width="4.035" height="4.035" fill="#fff" opacity=".32" rx="1.009" transform="matrix(-4.37114e-08 -1 -1 4.37114e-08 207.791 240.271)"/><rect width="4.035" height="4.035" fill="#fff" opacity=".32" rx="1.009" transform="matrix(-4.37114e-08 -1 -1 4.37114e-08 207.791 234.219)"/><rect width="4.035" height="4.035" fill="#fff" opacity=".32" rx="1.009" transform="matrix(-4.37114e-08 -1 -1 4.37114e-08 207.791 228.167)"/><rect width="4.035" height="4.035" fill="#fff" opacity=".64" rx="1.009" transform="matrix(-4.37114e-08 -1 -1 4.37114e-08 207.791 222.115)"/><rect width="4.035" height="4.035" fill="#fff" opacity=".16" rx="1.009" transform="matrix(-4.37114e-08 -1 -1 4.37114e-08 207.791 216.062)"/><rect width="4.035" height="4.035" fill="#fff" opacity=".64" rx="1.009" transform="matrix(-4.37114e-08 -1 -1 4.37114e-08 207.791 210.01)"/><rect width="4.035" height="4.035" fill="#fff" opacity=".4" rx="1.009" transform="matrix(-4.37114e-08 -1 -1 4.37114e-08 207.791 203.958)"/><rect width="4.035" height="4.035" fill="#fff" opacity=".32" rx="1.009" transform="matrix(-4.37114e-08 -1 -1 4.37114e-08 207.791 197.906)"/><rect width="4.035" height="4.035" fill="#fff" opacity=".16" rx="1.009" transform="matrix(-4.37114e-08 -1 -1 4.37114e-08 207.791 191.854)"/><rect width="4.035" height="4.035" fill="#fff" opacity=".8" rx="1.009" transform="matrix(-4.37114e-08 -1 -1 4.37114e-08 207.791 185.802)"/><rect width="4.035" height="4.035" fill="#fff" opacity=".8" rx="1.009" transform="matrix(-4.37114e-08 -1 -1 4.37114e-08 207.791 179.75)"/><rect width="4.035" height="4.035" fill="#fff" opacity=".64" rx="1.009" transform="matrix(-4.37114e-08 -1 -1 4.37114e-08 207.791 173.697)"/><rect width="4.035" height="4.035" fill="#fff" opacity=".4" rx="1.009" transform="matrix(-4.37114e-08 -1 -1 4.37114e-08 207.791 167.645)"/><rect width="4.035" height="4.035" fill="#fff" opacity=".8" rx="1.009" transform="matrix(-4.37114e-08 -1 -1 4.37114e-08 207.791 161.593)"/><rect width="4.035" height="4.035" fill="#fff" opacity=".4" rx="1.009" transform="matrix(-4.37114e-08 -1 -1 4.37114e-08 207.791 155.541)"/><rect width="4.035" height="4.035" fill="#fff" opacity=".16" rx="1.009" transform="matrix(-4.37114e-08 -1 -1 4.37114e-08 207.791 149.488)"/><rect width="4.035" height="4.035" fill="#fff" opacity=".32" rx="1.009" transform="matrix(-4.37114e-08 -1 -1 4.37114e-08 207.791 143.437)"/><rect width="4.035" height="4.035" fill="#fff" opacity=".16" rx="1.009" transform="matrix(-4.37114e-08 -1 -1 4.37114e-08 207.791 137.384)"/><rect width="4.035" height="4.035" fill="#fff" opacity=".64" rx="1.009" transform="matrix(-4.37114e-08 -1 -1 4.37114e-08 207.791 131.332)"/><rect width="4.035" height="4.035" fill="#fff" opacity=".16" rx="1.009" transform="matrix(-4.37114e-08 -1 -1 4.37114e-08 207.791 125.28)"/><rect width="4.035" height="4.035" fill="#fff" opacity=".64" rx="1.009" transform="matrix(-4.37114e-08 -1 -1 4.37114e-08 207.791 119.228)"/><rect width="4.035" height="4.035" fill="#fff" opacity=".32" rx="1.009" transform="matrix(-4.37114e-08 -1 -1 4.37114e-08 207.791 113.175)"/><rect width="4.035" height="4.035" fill="#fff" opacity=".8" rx="1.009" transform="matrix(-4.37114e-08 -1 -1 4.37114e-08 207.791 107.124)"/><rect width="4.035" height="4.035" fill="#fff" opacity=".4" rx="1.009" transform="matrix(-4.37114e-08 -1 -1 4.37114e-08 207.791 101.071)"/><rect width="4.035" height="4.035" fill="#fff" opacity=".32" rx="1.009" transform="matrix(-4.37114e-08 -1 -1 4.37114e-08 207.791 95.019)"/><rect width="4.035" height="4.035" fill="#fff" opacity=".32" rx="1.009" transform="matrix(-4.37114e-08 -1 -1 4.37114e-08 207.791 88.9668)"/><rect width="4.035" height="4.035" fill="#fff" opacity=".64" rx="1.009" transform="matrix(-4.37114e-08 -1 -1 4.37114e-08 207.791 82.9146)"/><rect width="4.035" height="4.035" fill="#fff" opacity=".4" rx="1.009" transform="matrix(-4.37114e-08 -1 -1 4.37114e-08 207.791 76.8623)"/><rect width="4.035" height="4.035" fill="#fff" opacity=".16" rx="1.009" transform="matrix(-4.37114e-08 -1 -1 4.37114e-08 207.791 70.8101)"/><rect width="4.035" height="4.035" fill="#fff" opacity=".8" rx="1.009" transform="matrix(-4.37114e-08 -1 -1 4.37114e-08 207.791 64.7583)"/><rect width="4.035" height="4.035" fill="#fff" opacity=".8" rx="1.009" transform="matrix(-4.37114e-08 -1 -1 4.37114e-08 207.791 58.7061)"/><rect width="4.035" height="4.035" fill="#fff" opacity=".8" rx="1.009" transform="matrix(-4.37114e-08 -1 -1 4.37114e-08 207.791 52.6538)"/><rect width="4.035" height="4.035" fill="#fff" opacity=".64" rx="1.009" transform="matrix(-4.37114e-08 -1 -1 4.37114e-08 207.791 46.6016)"/><rect width="4.035" height="4.035" fill="#fff" opacity=".4" rx="1.009" transform="matrix(-4.37114e-08 -1 -1 4.37114e-08 207.791 40.5493)"/><rect width="4.035" height="4.035" fill="#fff" opacity=".4" rx="1.009" transform="matrix(-4.37114e-08 -1 -1 4.37114e-08 207.791 34.4971)"/><rect width="4.035" height="4.035" fill="#fff" opacity=".32" rx="1.009" transform="matrix(-4.37114e-08 -1 -1 4.37114e-08 207.791 28.4448)"/><rect width="4.035" height="4.035" fill="#fff" opacity=".16" rx="1.009" transform="matrix(-4.37114e-08 -1 -1 4.37114e-08 207.791 22.3926)"/><rect width="4.035" height="4.035" fill="#fff" opacity=".64" rx="1.009" transform="matrix(-4.37114e-08 -1 -1 4.37114e-08 207.791 16.3408)"/><rect width="4.035" height="4.035" fill="#fff" opacity=".32" rx="1.009" transform="matrix(-4.37114e-08 -1 -1 4.37114e-08 207.791 10.2886)"/><rect width="4.035" height="4.035" fill="#fff" opacity=".16" rx="1.009" transform="matrix(-4.37114e-08 -1 -1 4.37114e-08 207.791 4.23633)"/><rect width="4.035" height="4.035" x="201.738" y=".202" fill="#fff" opacity=".4" rx="1.009" transform="rotate(90 201.738 0.20166)"/><rect width="4.035" height="4.035" x="201.738" y="6.254" fill="#fff" opacity=".32" rx="1.009" transform="rotate(90 201.738 6.25391)"/><rect width="4.035" height="4.035" x="201.738" y="12.306" fill="#fff" opacity=".16" rx="1.009" transform="rotate(90 201.738 12.3062)"/><rect width="4.035" height="4.035" x="201.738" y="18.358" fill="#fff" opacity=".8" rx="1.009" transform="rotate(90 201.738 18.3584)"/><rect width="4.035" height="4.035" x="201.738" y="24.41" fill="#fff" opacity=".8" rx="1.009" transform="rotate(90 201.738 24.4102)"/><rect width="4.035" height="4.035" x="201.738" y="30.462" fill="#fff" opacity=".64" rx="1.009" transform="rotate(90 201.738 30.4624)"/><rect width="4.035" height="4.035" x="201.738" y="36.515" fill="#fff" opacity=".32" rx="1.009" transform="rotate(90 201.738 36.5146)"/><rect width="4.035" height="4.035" x="201.738" y="42.567" fill="#fff" opacity=".32" rx="1.009" transform="rotate(90 201.738 42.5669)"/><rect width="4.035" height="4.035" x="201.738" y="48.619" fill="#fff" opacity=".32" rx="1.009" transform="rotate(90 201.738 48.6191)"/><rect width="4.035" height="4.035" x="201.738" y="54.671" fill="#fff" opacity=".64" rx="1.009" transform="rotate(90 201.738 54.6714)"/><rect width="4.035" height="4.035" x="201.738" y="60.724" fill="#fff" opacity=".16" rx="1.009" transform="rotate(90 201.738 60.7236)"/><rect width="4.035" height="4.035" x="201.738" y="66.775" fill="#fff" opacity=".64" rx="1.009" transform="rotate(90 201.738 66.7754)"/><rect width="4.035" height="4.035" x="201.738" y="72.828" fill="#fff" opacity=".4" rx="1.009" transform="rotate(90 201.738 72.8276)"/><rect width="4.035" height="4.035" x="201.738" y="78.88" fill="#fff" opacity=".4" rx="1.009" transform="rotate(90 201.738 78.8799)"/><rect width="4.035" height="4.035" x="201.738" y="84.932" fill="#fff" opacity=".8" rx="1.009" transform="rotate(90 201.738 84.9321)"/><rect width="4.035" height="4.035" x="201.738" y="90.984" fill="#fff" opacity=".4" rx="1.009" transform="rotate(90 201.738 90.9844)"/><rect width="4.035" height="4.035" x="201.738" y="97.037" fill="#fff" opacity=".4" rx="1.009" transform="rotate(90 201.738 97.0366)"/><rect width="4.035" height="4.035" x="201.738" y="103.088" fill="#fff" opacity=".16" rx="1.009" transform="rotate(90 201.738 103.088)"/><rect width="4.035" height="4.035" x="201.738" y="109.141" fill="#fff" opacity=".8" rx="1.009" transform="rotate(90 201.738 109.141)"/><rect width="4.035" height="4.035" x="201.738" y="115.193" fill="#fff" opacity=".8" rx="1.009" transform="rotate(90 201.738 115.193)"/><rect width="4.035" height="4.035" x="201.738" y="121.245" fill="#fff" opacity=".8" rx="1.009" transform="rotate(90 201.738 121.245)"/><rect width="4.035" height="4.035" x="201.738" y="127.297" fill="#fff" opacity=".64" rx="1.009" transform="rotate(90 201.738 127.297)"/><rect width="4.035" height="4.035" x="201.738" y="133.35" fill="#fff" opacity=".4" rx="1.009" transform="rotate(90 201.738 133.35)"/><rect width="4.035" height="4.035" x="201.738" y="139.401" fill="#fff" opacity=".4" rx="1.009" transform="rotate(90 201.738 139.401)"/><rect width="4.035" height="4.035" x="201.738" y="145.454" fill="#fff" opacity=".32" rx="1.009" transform="rotate(90 201.738 145.454)"/><rect width="4.035" height="4.035" x="201.738" y="151.506" fill="#fff" opacity=".16" rx="1.009" transform="rotate(90 201.738 151.506)"/><rect width="4.035" height="4.035" x="201.738" y="157.558" fill="#fff" opacity=".64" rx="1.009" transform="rotate(90 201.738 157.558)"/><rect width="4.035" height="4.035" x="201.738" y="163.61" fill="#fff" opacity=".32" rx="1.009" transform="rotate(90 201.738 163.61)"/><rect width="4.035" height="4.035" x="201.738" y="169.663" fill="#fff" opacity=".16" rx="1.009" transform="rotate(90 201.738 169.663)"/><rect width="4.035" height="4.035" x="201.738" y="175.715" fill="#fff" opacity=".16" rx="1.009" transform="rotate(90 201.738 175.715)"/><rect width="4.035" height="4.035" x="201.738" y="181.767" fill="#fff" opacity=".64" rx="1.009" transform="rotate(90 201.738 181.767)"/><rect width="4.035" height="4.035" x="201.738" y="187.819" fill="#fff" opacity=".4" rx="1.009" transform="rotate(90 201.738 187.819)"/><rect width="4.035" height="4.035" x="201.738" y="193.871" fill="#fff" opacity=".32" rx="1.009" transform="rotate(90 201.738 193.871)"/><rect width="4.035" height="4.035" x="201.738" y="199.923" fill="#fff" opacity=".16" rx="1.009" transform="rotate(90 201.738 199.923)"/><rect width="4.035" height="4.035" x="201.738" y="205.976" fill="#fff" opacity=".32" rx="1.009" transform="rotate(90 201.738 205.976)"/><rect width="4.035" height="4.035" x="201.738" y="212.028" fill="#fff" opacity=".32" rx="1.009" transform="rotate(90 201.738 212.028)"/><rect width="4.035" height="4.035" x="201.738" y="218.08" fill="#fff" opacity=".64" rx="1.009" transform="rotate(90 201.738 218.08)"/><rect width="4.035" height="4.035" x="201.738" y="224.132" fill="#fff" opacity=".4" rx="1.009" transform="rotate(90 201.738 224.132)"/><rect width="4.035" height="4.035" x="201.738" y="230.184" fill="#fff" opacity=".8" rx="1.009" transform="rotate(90 201.738 230.184)"/><rect width="4.035" height="4.035" x="201.738" y="236.236" fill="#fff" opacity=".64" rx="1.009" transform="rotate(90 201.738 236.236)"/><rect width="4.035" height="4.035" x="201.738" y="242.289" fill="#fff" opacity=".4" rx="1.009" transform="rotate(90 201.738 242.289)"/><rect width="4.035" height="4.035" x="201.738" y="248.341" fill="#fff" opacity=".32" rx="1.009" transform="rotate(90 201.738 248.341)"/><rect width="4.035" height="4.035" x="201.738" y="254.393" fill="#fff" opacity=".16" rx="1.009" transform="rotate(90 201.738 254.393)"/><rect width="4.035" height="4.035" x="201.738" y="260.445" fill="#fff" opacity=".4" rx="1.009" transform="rotate(90 201.738 260.445)"/><rect width="4.035" height="4.035" x="201.738" y="266.497" fill="#fff" opacity=".32" rx="1.009" transform="rotate(90 201.738 266.497)"/><rect width="4.035" height="4.035" x="201.738" y="272.549" fill="#fff" opacity=".8" rx="1.009" transform="rotate(90 201.738 272.549)"/><rect width="4.035" height="4.035" x="201.738" y="278.602" fill="#fff" opacity=".16" rx="1.009" transform="rotate(90 201.738 278.602)"/><rect width="4.035" height="4.035" x="201.738" y="284.654" fill="#fff" opacity=".32" rx="1.009" transform="rotate(90 201.738 284.654)"/><rect width="4.035" height="4.035" x="201.738" y="290.706" fill="#fff" opacity=".16" rx="1.009" transform="rotate(90 201.738 290.706)"/><rect width="4.035" height="4.035" x="201.738" y="296.758" fill="#fff" opacity=".64" rx="1.009" transform="rotate(90 201.738 296.758)"/><rect width="4.035" height="4.035" x="201.738" y="302.811" fill="#fff" opacity=".16" rx="1.009" transform="rotate(90 201.738 302.811)"/><rect width="4.035" height="4.035" x="201.738" y="308.862" fill="#fff" opacity=".64" rx="1.009" transform="rotate(90 201.738 308.862)"/><rect width="4.035" height="4.035" x="201.738" y="314.915" fill="#fff" opacity=".32" rx="1.009" transform="rotate(90 201.738 314.915)"/><rect width="4.035" height="4.035" x="201.738" y="320.967" fill="#fff" opacity=".8" rx="1.009" transform="rotate(90 201.738 320.967)"/><rect width="4.035" height="4.035" x="195.688" y=".202" fill="#fff" opacity=".64" rx="1.009" transform="rotate(90 195.688 0.20166)"/><rect width="4.035" height="4.035" x="195.688" y="6.254" fill="#fff" opacity=".4" rx="1.009" transform="rotate(90 195.688 6.25391)"/><rect width="4.035" height="4.035" x="195.688" y="12.306" fill="#fff" opacity=".32" rx="1.009" transform="rotate(90 195.688 12.3062)"/><rect width="4.035" height="4.035" x="195.688" y="18.358" fill="#fff" opacity=".16" rx="1.009" transform="rotate(90 195.688 18.3584)"/><rect width="4.035" height="4.035" x="195.688" y="24.41" fill="#fff" opacity=".8" rx="1.009" transform="rotate(90 195.688 24.4102)"/><rect width="4.035" height="4.035" x="195.688" y="30.462" fill="#fff" opacity=".64" rx="1.009" transform="rotate(90 195.688 30.4624)"/><rect width="4.035" height="4.035" x="195.688" y="36.515" fill="#fff" opacity=".4" rx="1.009" transform="rotate(90 195.688 36.5146)"/><rect width="4.035" height="4.035" x="195.688" y="42.567" fill="#fff" opacity=".32" rx="1.009" transform="rotate(90 195.688 42.5669)"/><rect width="4.035" height="4.035" x="195.688" y="48.619" fill="#fff" opacity=".16" rx="1.009" transform="rotate(90 195.688 48.6191)"/><rect width="4.035" height="4.035" x="195.688" y="54.671" fill="#fff" opacity=".4" rx="1.009" transform="rotate(90 195.688 54.6714)"/><rect width="4.035" height="4.035" x="195.688" y="60.724" fill="#fff" opacity=".32" rx="1.009" transform="rotate(90 195.688 60.7236)"/><rect width="4.035" height="4.035" x="195.688" y="66.775" fill="#fff" opacity=".8" rx="1.009" transform="rotate(90 195.688 66.7754)"/><rect width="4.035" height="4.035" x="195.688" y="72.828" fill="#fff" opacity=".16" rx="1.009" transform="rotate(90 195.688 72.8276)"/><rect width="4.035" height="4.035" x="195.688" y="78.88" fill="#fff" opacity=".4" rx="1.009" transform="rotate(90 195.688 78.8799)"/><rect width="4.035" height="4.035" x="195.688" y="84.932" fill="#fff" opacity=".32" rx="1.009" transform="rotate(90 195.688 84.9321)"/><rect width="4.035" height="4.035" x="195.688" y="90.984" fill="#fff" opacity=".32" rx="1.009" transform="rotate(90 195.688 90.9844)"/><rect width="4.035" height="4.035" x="195.688" y="97.037" fill="#fff" opacity=".32" rx="1.009" transform="rotate(90 195.688 97.0366)"/><rect width="4.035" height="4.035" x="195.688" y="103.088" fill="#fff" opacity=".64" rx="1.009" transform="rotate(90 195.688 103.088)"/><rect width="4.035" height="4.035" x="195.688" y="109.141" fill="#fff" opacity=".16" rx="1.009" transform="rotate(90 195.688 109.141)"/><rect width="4.035" height="4.035" x="195.688" y="115.193" fill="#fff" opacity=".64" rx="1.009" transform="rotate(90 195.688 115.193)"/><rect width="4.035" height="4.035" x="195.688" y="121.245" fill="#fff" opacity=".4" rx="1.009" transform="rotate(90 195.688 121.245)"/><rect width="4.035" height="4.035" x="195.688" y="127.297" fill="#fff" opacity=".32" rx="1.009" transform="rotate(90 195.688 127.297)"/><rect width="4.035" height="4.035" x="195.688" y="133.35" fill="#fff" opacity=".16" rx="1.009" transform="rotate(90 195.688 133.35)"/><rect width="4.035" height="4.035" x="195.688" y="139.401" fill="#fff" opacity=".8" rx="1.009" transform="rotate(90 195.688 139.401)"/><rect width="4.035" height="4.035" x="195.688" y="145.454" fill="#fff" opacity=".8" rx="1.009" transform="rotate(90 195.688 145.454)"/><rect width="4.035" height="4.035" x="195.688" y="151.506" fill="#fff" opacity=".64" rx="1.009" transform="rotate(90 195.688 151.506)"/><rect width="4.035" height="4.035" x="195.688" y="157.558" fill="#fff" opacity=".4" rx="1.009" transform="rotate(90 195.688 157.558)"/><rect width="4.035" height="4.035" x="195.688" y="163.61" fill="#fff" opacity=".8" rx="1.009" transform="rotate(90 195.688 163.61)"/><rect width="4.035" height="4.035" x="195.688" y="169.663" fill="#fff" opacity=".4" rx="1.009" transform="rotate(90 195.688 169.663)"/><rect width="4.035" height="4.035" x="195.688" y="175.715" fill="#fff" opacity=".16" rx="1.009" transform="rotate(90 195.688 175.715)"/><rect width="4.035" height="4.035" x="195.688" y="181.767" fill="#fff" opacity=".32" rx="1.009" transform="rotate(90 195.688 181.767)"/><rect width="4.035" height="4.035" x="195.688" y="187.819" fill="#fff" opacity=".16" rx="1.009" transform="rotate(90 195.688 187.819)"/><rect width="4.035" height="4.035" x="195.688" y="193.871" fill="#fff" opacity=".64" rx="1.009" transform="rotate(90 195.688 193.871)"/><rect width="4.035" height="4.035" x="195.688" y="199.923" fill="#fff" opacity=".16" rx="1.009" transform="rotate(90 195.688 199.923)"/><rect width="4.035" height="4.035" x="195.688" y="205.976" fill="#fff" opacity=".64" rx="1.009" transform="rotate(90 195.688 205.976)"/><rect width="4.035" height="4.035" x="195.688" y="212.028" fill="#fff" opacity=".32" rx="1.009" transform="rotate(90 195.688 212.028)"/><rect width="4.035" height="4.035" x="195.688" y="218.08" fill="#fff" opacity=".8" rx="1.009" transform="rotate(90 195.688 218.08)"/><rect width="4.035" height="4.035" x="195.688" y="224.132" fill="#fff" opacity=".4" rx="1.009" transform="rotate(90 195.688 224.132)"/><rect width="4.035" height="4.035" x="195.688" y="230.184" fill="#fff" opacity=".32" rx="1.009" transform="rotate(90 195.688 230.184)"/><rect width="4.035" height="4.035" x="195.688" y="236.236" fill="#fff" opacity=".32" rx="1.009" transform="rotate(90 195.688 236.236)"/><rect width="4.035" height="4.035" x="195.688" y="242.289" fill="#fff" opacity=".64" rx="1.009" transform="rotate(90 195.688 242.289)"/><rect width="4.035" height="4.035" x="195.688" y="248.341" fill="#fff" opacity=".4" rx="1.009" transform="rotate(90 195.688 248.341)"/><rect width="4.035" height="4.035" x="195.688" y="254.393" fill="#fff" opacity=".16" rx="1.009" transform="rotate(90 195.688 254.393)"/><rect width="4.035" height="4.035" x="195.688" y="260.445" fill="#fff" opacity=".8" rx="1.009" transform="rotate(90 195.688 260.445)"/><rect width="4.035" height="4.035" x="195.688" y="266.497" fill="#fff" opacity=".8" rx="1.009" transform="rotate(90 195.688 266.497)"/><rect width="4.035" height="4.035" x="195.688" y="272.549" fill="#fff" opacity=".8" rx="1.009" transform="rotate(90 195.688 272.549)"/><rect width="4.035" height="4.035" x="195.688" y="278.602" fill="#fff" opacity=".64" rx="1.009" transform="rotate(90 195.688 278.602)"/><rect width="4.035" height="4.035" x="195.688" y="284.654" fill="#fff" opacity=".4" rx="1.009" transform="rotate(90 195.688 284.654)"/><rect width="4.035" height="4.035" x="195.688" y="290.706" fill="#fff" opacity=".4" rx="1.009" transform="rotate(90 195.688 290.706)"/><rect width="4.035" height="4.035" x="195.688" y="296.758" fill="#fff" opacity=".32" rx="1.009" transform="rotate(90 195.688 296.758)"/><rect width="4.035" height="4.035" x="195.688" y="302.811" fill="#fff" opacity=".16" rx="1.009" transform="rotate(90 195.688 302.811)"/><rect width="4.035" height="4.035" x="195.688" y="308.862" fill="#fff" opacity=".64" rx="1.009" transform="rotate(90 195.688 308.862)"/><rect width="4.035" height="4.035" x="195.688" y="314.915" fill="#fff" opacity=".32" rx="1.009" transform="rotate(90 195.688 314.915)"/><rect width="4.035" height="4.035" x="195.688" y="320.967" fill="#fff" opacity=".16" rx="1.009" transform="rotate(90 195.688 320.967)"/></g></g><mask id="mask2_2060_26176" width="232" height="326" x="0" y="0" maskUnits="userSpaceOnUse" style="mask-type:alpha"><path fill="#000" fill-rule="evenodd" d="M8.06956 0.20166C3.61287 0.20166 0 3.81452 0 8.27122V316.932C0 321.389 3.61286 325.002 8.06956 325.002H223.93C228.387 325.002 232 321.389 232 316.932V8.27122C232 3.81453 228.387 0.20166 223.93 0.20166H8.06956ZM97.8435 8.27122C96.7293 8.27122 95.8261 9.17444 95.8261 10.2886C95.8261 11.4028 96.7293 12.306 97.8435 12.306H134.157C135.271 12.306 136.174 11.4028 136.174 10.2886C136.174 9.17444 135.271 8.27122 134.157 8.27122H97.8435Z" clip-rule="evenodd"/><path fill="url(#paint3_linear_2060_26176)" fill-opacity=".2" fill-rule="evenodd" d="M8.06956 0.20166C3.61287 0.20166 0 3.81452 0 8.27122V316.932C0 321.389 3.61286 325.002 8.06956 325.002H223.93C228.387 325.002 232 321.389 232 316.932V8.27122C232 3.81453 228.387 0.20166 223.93 0.20166H8.06956ZM97.8435 8.27122C96.7293 8.27122 95.8261 9.17444 95.8261 10.2886C95.8261 11.4028 96.7293 12.306 97.8435 12.306H134.157C135.271 12.306 136.174 11.4028 136.174 10.2886C136.174 9.17444 135.271 8.27122 134.157 8.27122H97.8435Z" clip-rule="evenodd"/></mask><g mask="url(#mask2_2060_26176)"><rect width="386.761" height="443.771" x="-9.033" y="-87.05" fill="url(#paint4_linear_2060_26176)" rx="8.07" transform="rotate(16.309 -9.0332 -87.0503)" style="mix-blend-mode:overlay"/><rect width="386.761" height="443.771" x="-9.033" y="-87.05" fill="url(#paint5_linear_2060_26176)" fill-opacity=".64" rx="8.07" transform="rotate(16.309 -9.0332 -87.0503)" style="mix-blend-mode:overlay"/></g><g clip-path="url(#clip2_2060_26176)"><path stroke="url(#paint6_linear_2060_26176)" stroke-width="1.009" d="M90.7991 187.834L90.7992 187.834C75.9846 166.495 46.4962 160.257 25.32 173.696L-12.4273 197.854L-12.4313 197.857L-12.4313 197.857C-22.6062 204.233 -29.6599 214.679 -31.6943 226.479L-31.6948 226.481C-33.4603 236.395 -31.9655 246.574 -27.2174 255.392L-27.0738 255.659L-27.2418 255.911C-30.4978 260.795 -32.6668 266.219 -33.6156 271.912L-33.6167 271.918L-33.6167 271.918C-35.7889 284.001 -32.9377 296.492 -25.878 306.403L-25.8757 306.406C-10.9231 327.747 18.4292 333.983 39.6041 320.546L90.7991 187.834ZM90.7991 187.834L90.8053 187.842C97.9992 197.751 100.85 210.238 98.5421 222.456L98.5403 222.467C97.5915 228.16 95.4225 233.584 92.1665 238.467L91.9984 238.72L92.1421 238.986C96.8902 247.804 98.3849 257.983 96.6195 267.897L96.619 267.9C94.5846 279.7 87.5309 290.146 77.356 296.522L77.3531 296.524L39.6046 320.546L90.7991 187.834ZM21.4798 309.241L21.4704 309.243C9.0498 312.453 -3.92958 307.569 -11.188 297.104C-15.6617 290.95 -17.3348 283.264 -16.0786 275.727L-16.0764 275.714L-16.0735 275.701C-15.9355 275.08 -15.7976 274.494 -15.6606 273.911L-15.6603 273.91C-15.5229 273.326 -15.3864 272.746 -15.2499 272.132L-15.2453 272.111L-15.2389 272.091L-14.5526 269.894L-14.3448 269.23L-13.778 269.634L-11.8563 271.007L-11.8528 271.01C-7.36833 274.271 -2.47726 276.717 2.82246 278.348C2.82296 278.348 2.82345 278.348 2.82394 278.348L4.19324 278.759L4.59154 278.878L4.55016 279.292L4.41361 280.658C4.28644 282.462 4.80367 284.405 5.83801 285.959C7.91657 288.943 11.5382 290.361 15.0241 289.465C15.8509 289.189 16.6105 288.933 17.2353 288.559L54.8396 264.542C54.8398 264.542 54.84 264.541 54.8401 264.541C56.6505 263.377 57.8007 261.71 58.1857 259.657C58.5715 257.599 58.0563 255.401 56.894 253.722C54.8241 250.748 51.2067 249.45 47.7055 250.35C46.8787 250.626 46.1191 250.883 45.4943 251.256L31.0898 260.448C31.0892 260.448 31.0888 260.448 31.0882 260.449C28.7054 261.99 26.0465 263.109 23.2529 263.808C10.8318 267.017 -2.14771 262.132 -9.40533 251.666C-13.7348 245.52 -15.5531 237.835 -14.1558 230.285C-12.895 223.005 -8.41811 216.432 -2.12277 212.514C-2.12208 212.514 -2.12139 212.513 -2.1207 212.513L35.6207 188.495C35.6213 188.495 35.622 188.495 35.6226 188.494C38.0055 186.953 40.6593 185.837 43.4369 185.004L43.4462 185.001L43.4556 184.999C55.8761 181.789 68.8555 186.673 76.1139 197.137C80.5876 203.291 82.2608 210.977 81.0046 218.515L81.0024 218.528L80.9995 218.541C80.7234 219.784 80.4448 220.899 80.0262 222.156C80.0257 222.157 80.0252 222.159 80.0247 222.16L79.3413 224.347L79.1335 225.012L78.5668 224.607L76.645 223.235L76.6415 223.232C72.1572 219.971 67.2663 217.525 61.9667 215.894C61.9661 215.894 61.9654 215.894 61.9648 215.894L60.5955 215.483L60.1972 215.364L60.2385 214.95L60.3751 213.584C60.5023 211.78 59.9851 209.837 58.951 208.283C56.8808 205.311 53.2646 204.014 49.7646 204.914C48.9377 205.19 48.178 205.447 47.5533 205.82L9.94907 229.837C9.94881 229.838 9.94855 229.838 9.94829 229.838C8.13809 231.002 6.98802 232.669 6.60306 234.722C6.21729 236.78 6.73219 238.977 7.89406 240.656L21.4798 309.241ZM21.4798 309.241L21.4891 309.238M21.4798 309.241L21.4891 309.238M21.4891 309.238C24.2668 308.404 26.9208 307.289 29.3038 305.747C29.3043 305.747 29.3048 305.747 29.3053 305.746L67.0467 281.729C67.0473 281.729 67.0478 281.728 67.0484 281.728C73.3447 277.81 77.8221 271.235 79.0823 263.954L79.0828 263.951M21.4891 309.238L79.0828 263.951M79.0828 263.951C80.339 256.414 78.6659 248.728 74.1921 242.573C66.9337 232.109 53.9544 227.225 41.5338 230.435L41.5244 230.437M79.0828 263.951L41.5244 230.437M41.5244 230.437L41.5151 230.44M41.5244 230.437L41.5151 230.44M41.5151 230.44C38.7374 231.273 36.0834 232.389 33.7005 233.931M41.5151 230.44L33.7005 233.931M33.7005 233.931C33.7 233.931 33.6995 233.931 33.699 233.931M33.7005 233.931L33.699 233.931M33.699 233.931L19.2944 243.123C18.6696 243.497 17.91 243.753 17.0831 244.029C13.582 244.93 9.96458 243.631 7.89471 240.657L33.699 233.931Z"/></g><path fill="#fff" d="M18.0144 46.4453L18.0144 32.3236L27.012 32.3236L27.012 33.9375L19.7695 33.9375L19.7695 38.4564L25.8015 38.4564L25.8015 40.0704L19.7695 40.0704L19.7695 44.8314L27.2742 44.8314L27.2742 46.4453L18.0144 46.4453ZM28.8002 46.4453L28.8002 32.3236L30.4545 32.3236L30.4545 46.4453L28.8002 46.4453ZM40.6289 37.7302L40.6289 32.3236L42.2831 32.3236L42.2831 46.4453L40.8508 46.4453L40.6289 44.7911C39.7681 45.9746 38.5913 46.5664 37.0985 46.5664C35.6459 46.5664 34.4557 46.1024 33.5277 45.1744C32.6131 44.2329 32.1558 42.9418 32.1558 41.301C32.1558 39.7408 32.6198 38.4766 33.5478 37.5083C34.4758 36.5265 35.6594 36.0356 37.0985 36.0356C38.7393 36.0356 39.9161 36.6004 40.6289 37.7302ZM37.2598 45.0937C38.2685 45.0937 39.0822 44.744 39.7009 44.0446C40.333 43.3453 40.6491 42.4442 40.6491 41.3413C40.6491 40.2116 40.333 39.2903 39.7009 38.5775C39.0822 37.8647 38.2685 37.5083 37.2598 37.5083C36.2377 37.5083 35.4106 37.8647 34.7785 38.5775C34.1598 39.2768 33.8505 40.1847 33.8505 41.301C33.8505 42.4173 34.1598 43.3318 34.7785 44.0446C35.4106 44.744 36.2377 45.0937 37.2598 45.0937ZM53.4333 44.9323L53.9579 44.9323L53.9579 46.4453L53.05 46.4453C52.391 46.4453 51.9203 46.3108 51.6379 46.0418C51.3554 45.7729 51.2075 45.3761 51.194 44.8516C50.4005 45.9948 49.2506 46.5664 47.7443 46.5664C46.6011 46.5664 45.6798 46.2974 44.9805 45.7594C44.2945 45.2214 43.9516 44.4884 43.9516 43.5604C43.9516 42.5249 44.3013 41.7313 45.0006 41.1799C45.7134 40.6285 46.7423 40.3528 48.0872 40.3528L51.1133 40.3528L51.1133 39.6467C51.1133 38.9742 50.8847 38.4497 50.4274 38.0731C49.9836 37.6966 49.3582 37.5083 48.5512 37.5083C47.8384 37.5083 47.2467 37.6697 46.7759 37.9924C46.3187 38.3018 46.0362 38.7187 45.9286 39.2432L44.2744 39.2432C44.3954 38.2345 44.8392 37.4477 45.6059 36.8829C46.3859 36.318 47.3946 36.0356 48.6319 36.0356C49.95 36.0356 50.9654 36.3584 51.6782 37.0039C52.4045 37.636 52.7676 38.5506 52.7676 39.7476L52.7676 44.2464C52.7676 44.5153 52.8147 44.6969 52.9088 44.7911C53.0164 44.8852 53.1912 44.9323 53.4333 44.9323ZM51.1133 42.2491L51.1133 41.7448L47.9259 41.7448C46.3926 41.7448 45.626 42.3164 45.626 43.4596C45.626 43.9706 45.8278 44.3809 46.2312 44.6902C46.6347 44.9995 47.1794 45.1542 47.8653 45.1542C48.874 45.1542 49.6675 44.8919 50.2459 44.3674C50.8242 43.8294 51.1133 43.1233 51.1133 42.2491ZM63.0196 37.7302L63.0196 32.3236L64.6738 32.3236L64.6738 46.4453L63.2415 46.4453L63.0196 44.7911C62.1588 45.9746 60.982 46.5664 59.4891 46.5664C58.0366 46.5664 56.8463 46.1024 55.9183 45.1744C55.0038 44.2329 54.5465 42.9418 54.5465 41.301C54.5465 39.7409 55.0105 38.4766 55.9385 37.5083C56.8665 36.5265 58.0501 36.0356 59.4891 36.0356C61.1299 36.0356 62.3068 36.6004 63.0196 37.7302ZM59.6505 45.0937C60.6592 45.0937 61.4729 44.744 62.0916 44.0446C62.7237 43.3453 63.0397 42.4442 63.0397 41.3413C63.0397 40.2116 62.7237 39.2903 62.0916 38.5775C61.4729 37.8647 60.6592 37.5083 59.6505 37.5083C58.6284 37.5083 57.8012 37.8647 57.1691 38.5775C56.5505 39.2769 56.2411 40.1847 56.2411 41.301C56.2411 42.4173 56.5505 43.3318 57.1691 44.0446C57.8012 44.744 58.6284 45.0937 59.6505 45.0937ZM72.0458 46.4453L72.0458 32.3236L80.8215 32.3236L80.8215 33.9375L73.8009 33.9375L73.8009 38.6582L79.611 38.6582L79.611 40.2721L73.8009 40.2721L73.8009 46.4453L72.0458 46.4453ZM88.9304 41.301L88.9304 36.1566L90.5847 36.1566L90.5847 46.4453L89.1523 46.4453L88.9304 45.0735C88.1504 46.0687 87.0543 46.5664 85.6421 46.5664C84.4182 46.5664 83.4364 46.1898 82.6967 45.4366C81.957 44.6835 81.5871 43.4999 81.5871 41.886L81.5871 36.1566L83.2414 36.1566L83.2414 41.7851C83.2414 42.8476 83.47 43.6613 83.9273 44.2262C84.398 44.7776 85.0638 45.0533 85.9245 45.0533C86.866 45.0533 87.599 44.7171 88.1235 44.0446C88.6614 43.3722 88.9304 42.4576 88.9304 41.301ZM91.5486 46.4453L95.4624 41.1598L91.8109 36.1566L93.7879 36.1566L96.5114 39.9695L99.2752 36.1566L101.151 36.1566L97.4798 41.1598L101.414 46.4453L99.4366 46.4453L96.4307 42.3097L93.4248 46.4453L91.5486 46.4453Z"/><path fill="#ADADB0" d="M17.2599 61.4852C17.2599 59.9924 17.8006 58.7456 18.8819 57.745C19.9632 56.7363 21.2826 56.2319 22.84 56.2319C24.3329 56.2319 25.5514 56.6435 26.4955 57.4666C27.4397 58.2897 27.9117 59.3428 27.9117 60.6258C27.9117 61.578 27.6696 62.3567 27.1855 62.962C26.7013 63.5672 26.084 63.8698 25.3335 63.8698C24.9704 63.8698 24.6718 63.781 24.4378 63.6035C24.2118 63.426 24.0827 63.2121 24.0504 62.962L24.0262 62.7804C23.889 63.1032 23.651 63.3654 23.3121 63.5672C22.9732 63.7608 22.5898 63.8577 22.1622 63.8577C21.5489 63.8577 21.0284 63.6438 20.6007 63.2161C20.1811 62.7804 19.9713 62.2236 19.9713 61.5457C19.9713 60.7791 20.2214 60.1255 20.7217 59.5848C21.2221 59.0361 21.8111 58.7617 22.489 58.7617C22.9409 58.7617 23.3121 58.8465 23.6026 59.0159C23.8931 59.1854 24.0868 59.4073 24.1836 59.6817L24.3652 58.8707L25.1398 58.8707L24.7767 62.3204C24.7202 62.8692 24.9542 63.1435 25.4788 63.1435C25.8822 63.1435 26.2292 62.9014 26.5197 62.4173C26.8183 61.925 26.9676 61.3198 26.9676 60.6016C26.9676 59.5445 26.5883 58.6891 25.8298 58.0355C25.0712 57.3818 24.0706 57.055 22.8279 57.055C21.4561 57.055 20.3425 57.4787 19.4871 58.326C18.6317 59.1652 18.204 60.2143 18.204 61.4731C18.204 62.74 18.5914 63.7366 19.3661 64.4629C20.1488 65.1811 21.2503 65.5402 22.6705 65.5402C23.7438 65.5402 24.6678 65.29 25.4424 64.7897L25.4182 65.6733C24.7242 66.1333 23.7801 66.3633 22.5858 66.3633C21.0122 66.3633 19.7292 65.9154 18.7366 65.0197C17.7521 64.132 17.2599 62.9539 17.2599 61.4852ZM24.0504 60.9526C24.0504 60.5007 23.9213 60.1457 23.6631 59.8874C23.4129 59.6212 23.0821 59.488 22.6705 59.488C22.1702 59.488 21.7466 59.6857 21.3996 60.0811C21.0607 60.4765 20.8912 60.9526 20.8912 61.5094C20.8912 61.9936 21.0203 62.385 21.2785 62.6836C21.5448 62.9821 21.8878 63.1314 22.3074 63.1314C22.8077 63.1314 23.2233 62.9297 23.5542 62.5262C23.885 62.1227 24.0504 61.5982 24.0504 60.9526ZM32.0565 64.5355C31.1366 64.5355 30.3942 64.245 29.8293 63.664C29.2725 63.083 28.9941 62.3204 28.9941 61.3763C28.9941 60.4402 29.2644 59.6817 29.8051 59.1007C30.3458 58.5116 31.0519 58.217 31.9234 58.217C32.803 58.217 33.505 58.4793 34.0295 59.0038C34.554 59.5203 34.8284 60.2344 34.8526 61.1463C34.8526 61.2351 34.8446 61.3763 34.8284 61.57L30.0351 61.57L30.0351 61.6547C30.0512 62.2518 30.2328 62.736 30.5798 63.1072C30.9348 63.4703 31.4029 63.6519 31.9839 63.6519C32.4277 63.6519 32.803 63.543 33.1096 63.3251C33.4243 63.0991 33.6341 62.7885 33.739 62.393L34.7437 62.393C34.6226 63.0225 34.32 63.5389 33.8359 63.9424C33.3517 64.3378 32.7586 64.5355 32.0565 64.5355ZM30.0956 60.7469L33.7874 60.7469C33.739 60.2223 33.5494 59.8148 33.2185 59.5243C32.8877 59.2338 32.46 59.0886 31.9355 59.0886C31.4674 59.0886 31.0559 59.2419 30.7008 59.5485C30.3458 59.8552 30.144 60.2546 30.0956 60.7469ZM35.9852 64.4629L35.9852 55.9898L36.9778 55.9898L36.9778 64.4629L35.9852 64.4629ZM43.2035 59.2338L43.2035 55.9898L44.196 55.9898L44.196 64.4629L43.3366 64.4629L43.2035 63.4703C42.687 64.1805 41.9809 64.5355 41.0852 64.5355C40.2137 64.5355 39.4996 64.2571 38.9428 63.7003C38.394 63.1354 38.1197 62.3608 38.1197 61.3763C38.1197 60.4402 38.3981 59.6817 38.9549 59.1007C39.5117 58.5116 40.2218 58.217 41.0852 58.217C42.0697 58.217 42.7758 58.556 43.2035 59.2338ZM41.1821 63.6519C41.7873 63.6519 42.2755 63.4421 42.6467 63.0225C43.026 62.6029 43.2156 62.0622 43.2156 61.4005C43.2156 60.7226 43.026 60.1699 42.6467 59.7422C42.2755 59.3145 41.7873 59.1007 41.1821 59.1007C40.5688 59.1007 40.0725 59.3145 39.6932 59.7422C39.322 60.1618 39.1364 60.7065 39.1364 61.3763C39.1364 62.0461 39.322 62.5948 39.6932 63.0225C40.0725 63.4421 40.5688 63.6519 41.1821 63.6519ZM51.0072 63.5551L51.3219 63.5551L51.3219 64.4629L50.7772 64.4629C50.3818 64.4629 50.0994 64.3822 49.9299 64.2208C49.7605 64.0594 49.6717 63.8214 49.6636 63.5066C49.1875 64.1926 48.4976 64.5355 47.5938 64.5355C46.9079 64.5355 46.3551 64.3741 45.9355 64.0513C45.5239 63.7286 45.3182 63.2888 45.3182 62.732C45.3182 62.1106 45.528 61.6345 45.9476 61.3037C46.3753 60.9728 46.9926 60.8074 47.7995 60.8074L49.6152 60.8074L49.6152 60.3837C49.6152 59.9802 49.478 59.6655 49.2037 59.4396C48.9374 59.2136 48.5621 59.1007 48.0779 59.1007C47.6503 59.1007 47.2952 59.1975 47.0128 59.3912C46.7384 59.5768 46.5689 59.8269 46.5044 60.1416L45.5118 60.1416C45.5845 59.5364 45.8507 59.0644 46.3107 58.7254C46.7787 58.3865 47.384 58.217 48.1264 58.217C48.9172 58.217 49.5264 58.4107 49.9541 58.7981C50.3899 59.1773 50.6078 59.7261 50.6078 60.4442L50.6078 63.1435C50.6078 63.3049 50.636 63.4138 50.6925 63.4703C50.757 63.5268 50.8619 63.5551 51.0072 63.5551ZM49.6152 61.9452L49.6152 61.6426L47.7027 61.6426C46.7828 61.6426 46.3228 61.9855 46.3228 62.6714C46.3228 62.9781 46.4439 63.2242 46.6859 63.4098C46.928 63.5954 47.2549 63.6882 47.6664 63.6882C48.2716 63.6882 48.7477 63.5309 49.0947 63.2161C49.4417 62.8934 49.6152 62.4697 49.6152 61.9452ZM56.88 59.2338L56.88 55.9898L57.8725 55.9898L57.8725 64.4629L57.0131 64.4629L56.88 63.4703C56.3635 64.1805 55.6574 64.5355 54.7617 64.5355C53.8902 64.5355 53.176 64.2571 52.6192 63.7003C52.0705 63.1354 51.7962 62.3608 51.7962 61.3763C51.7962 60.4402 52.0746 59.6817 52.6314 59.1007C53.1882 58.5116 53.8983 58.217 54.7617 58.217C55.7462 58.217 56.4523 58.556 56.88 59.2338ZM54.8586 63.6519C55.4638 63.6519 55.952 63.4421 56.3232 63.0225C56.7024 62.6029 56.8921 62.0622 56.8921 61.4005C56.8921 60.7226 56.7024 60.1699 56.3232 59.7422C55.952 59.3145 55.4638 59.1007 54.8586 59.1007C54.2453 59.1007 53.749 59.3145 53.3697 59.7422C52.9985 60.1618 52.8129 60.7065 52.8129 61.3763C52.8129 62.0461 52.9985 62.5948 53.3697 63.0225C53.749 63.4421 54.2453 63.6519 54.8586 63.6519ZM58.571 59.1975L58.571 58.2897L59.6846 58.2897L59.6846 57.5997C59.6846 57.051 59.8097 56.6475 60.0598 56.3893C60.3181 56.123 60.7296 55.9898 61.2945 55.9898L62.4202 55.9898L62.4202 56.8977L61.355 56.8977C61.1129 56.8977 60.9394 56.9501 60.8345 57.055C60.7296 57.1599 60.6772 57.3334 60.6772 57.5755L60.6772 58.2897L62.4202 58.2897L62.4202 59.1975L60.6772 59.1975L60.6772 64.4629L59.6846 64.4629L59.6846 59.1975L58.571 59.1975ZM67.4585 61.3763L67.4585 58.2897L68.4511 58.2897L68.4511 64.4629L67.5917 64.4629L67.4585 63.6398C66.9905 64.2369 66.3328 64.5355 65.4855 64.5355C64.7512 64.5355 64.1621 64.3096 63.7183 63.8577C63.2744 63.4058 63.0525 62.6957 63.0525 61.7273L63.0525 58.2897L64.0451 58.2897L64.0451 61.6668C64.0451 62.3043 64.1823 62.7925 64.4566 63.1314C64.7391 63.4623 65.1385 63.6277 65.655 63.6277C66.2198 63.6277 66.6596 63.426 66.9743 63.0225C67.2971 62.619 67.4585 62.0703 67.4585 61.3763ZM69.1505 64.4629L71.4987 61.2916L69.3078 58.2897L70.4941 58.2897L72.1281 60.5774L73.7864 58.2897L74.9121 58.2897L72.7092 61.2916L75.0695 64.4629L73.8833 64.4629L72.0797 61.9815L70.2762 64.4629L69.1505 64.4629Z"/><path fill="#fff" d="M28.1796 292.925V295.667H21.4352C19.4703 295.667 17.7547 294.564 16.8368 292.925C16.7033 292.687 16.5865 292.437 16.4886 292.177C16.2962 291.669 16.1753 291.123 16.1387 290.554V289.813C16.1466 289.686 16.1592 289.56 16.1756 289.435C16.2091 289.18 16.2598 288.93 16.3264 288.688C16.9564 286.386 19.0051 284.7 21.4352 284.7C23.8654 284.7 25.9138 286.386 26.5438 288.688H23.66C23.1866 287.937 22.3671 287.441 21.4352 287.441C20.5033 287.441 19.6839 287.937 19.2104 288.688C19.0661 288.916 18.9542 289.167 18.8808 289.435C18.8157 289.673 18.7809 289.924 18.7809 290.183C18.7809 290.969 19.1009 291.677 19.6139 292.177C20.0893 292.641 20.7301 292.925 21.4352 292.925H28.1796Z"/><path fill="#fff" d="M28.1808 289.435V292.177H23.2578C23.7708 291.677 24.0908 290.969 24.0908 290.183C24.0908 289.924 24.056 289.673 23.9909 289.435H28.1808Z"/><g clip-path="url(#clip3_2060_26176)"><path fill="#fff" d="M54.6582 296.724V295.322H62.0927V296.724H54.6582Z"/><path fill="#fff" d="M52.5643 294.927C51.1729 294.927 50.2589 294.301 50.2589 292.789V289.208H49.0176V287.792H50.3544V285.791H51.8822V287.792H53.9011V289.208H51.8822V292.776C51.8822 293.279 52.0869 293.497 52.5779 293.497H53.8193V294.927H52.5643Z"/><path fill="#fff" d="M47.1106 286.69C46.524 286.69 46.0875 286.254 46.0875 285.682C46.0875 285.124 46.524 284.688 47.1106 284.688C47.6971 284.688 48.1337 285.124 48.1337 285.682C48.1337 286.254 47.6971 286.69 47.1106 286.69ZM46.2921 294.927V289.209H45.0371V287.792H47.9018V294.927H46.2921Z"/><path fill="#fff" d="M37.8672 294.927V287.792H39.4769V288.609H39.5996C39.9134 288.064 40.5682 287.615 41.523 287.615C43.0918 287.615 44.0876 288.786 44.0876 290.256V294.927H42.4779V290.638C42.4779 289.752 41.8504 289.14 41.032 289.14C40.1453 289.14 39.4769 289.821 39.4769 290.719V294.927H37.8672Z"/><path fill="#fff" d="M35.4133 286.69C34.8267 286.69 34.3902 286.254 34.3902 285.682C34.3902 285.124 34.8267 284.688 35.4133 284.688C35.9999 284.688 36.4364 285.124 36.4364 285.682C36.4364 286.254 35.9999 286.69 35.4133 286.69ZM34.5948 294.927V289.209H33.3398V287.792H36.2045V294.927H34.5948Z"/></g><path fill="#fff" d="M17.3178 307.793L16.7035 307.793L16.7035 302.85L19.7397 302.85L19.7397 303.415L17.3178 303.415L17.3178 305.067L19.3655 305.067L19.3655 305.632L17.3178 305.632L17.3178 307.793ZM23.6517 307.793L20.5167 307.793L20.5167 302.85L23.5599 302.85L23.5599 303.415L21.131 303.415L21.131 304.997L23.1716 304.997L23.1716 305.562L21.131 305.562L21.131 307.228L23.6517 307.228L23.6517 307.793ZM26.1756 307.793L24.5022 307.793L24.5022 302.85L26.1262 302.85C27.1924 302.85 27.7502 303.359 27.7502 304.157C27.7502 304.714 27.4325 305.067 26.9523 305.23C27.489 305.329 27.962 305.668 27.962 306.381C27.962 307.256 27.3689 307.793 26.1756 307.793ZM25.1165 303.408L25.1165 304.997L26.1545 304.997C26.8041 304.997 27.1359 304.7 27.1359 304.199C27.1359 303.705 26.8111 303.408 26.1545 303.408L25.1165 303.408ZM25.1165 305.548L25.1165 307.235L26.1756 307.235C26.9594 307.235 27.3336 306.917 27.3336 306.409C27.3336 305.851 26.9241 305.548 26.1756 305.548L25.1165 305.548ZM34.4208 307.793L31.1093 307.793L31.1093 307.292L32.9733 305.625C33.4252 305.223 33.7783 304.842 33.7783 304.312C33.7783 303.691 33.3687 303.338 32.7474 303.338C32.1401 303.338 31.7306 303.761 31.7306 304.439L31.7306 304.531L31.1375 304.531L31.1375 304.404C31.1375 303.472 31.773 302.808 32.7474 302.808C33.7783 302.808 34.3855 303.394 34.3855 304.284C34.3855 305.018 33.9265 305.491 33.3546 305.992L31.9283 307.249L34.4208 307.249L34.4208 307.793ZM37.03 307.835C36.3592 307.835 35.8649 307.518 35.5754 307.016C35.3424 306.614 35.1941 306.021 35.1941 305.343C35.1941 303.789 35.879 302.808 37.0229 302.808C37.8984 302.808 38.4916 303.345 38.6116 304.171L38.0185 304.171C37.9055 303.669 37.5666 303.331 36.9947 303.331C36.1685 303.331 35.7449 304.185 35.7449 305.159C35.7449 305.308 35.7378 305.279 35.7449 305.399C35.7449 305.385 35.7661 305.315 35.7872 305.265C35.9708 304.849 36.458 304.524 37.0864 304.524C38.0326 304.524 38.6963 305.166 38.6963 306.176C38.6963 307.129 38.0185 307.835 37.03 307.835ZM37.0229 307.313C37.6725 307.313 38.1032 306.84 38.1032 306.176C38.1032 305.519 37.6937 305.046 37.0441 305.046C36.3874 305.046 35.9355 305.512 35.9355 306.19C35.9355 306.854 36.3733 307.313 37.0229 307.313ZM44.3037 306.028L41.9524 306.028L41.9524 305.541L44.3037 305.541L44.3037 306.028ZM48.3044 307.793L47.7465 307.793L47.7465 302.85L48.4668 302.85L49.6812 305.689L50.8816 302.85L51.5806 302.85L51.5806 307.793L51.0228 307.793L51.0228 303.832L49.9142 306.423L49.42 306.423L48.3044 303.832L48.3044 307.793ZM52.9301 307.793L52.3017 307.793L54.0528 302.85L54.8083 302.85L56.5665 307.793L55.9098 307.793L55.4367 306.458L53.4102 306.458L52.9301 307.793ZM54.4129 303.521L53.5868 305.901L55.2531 305.901L54.4129 303.521ZM57.904 307.793L57.2897 307.793L57.2897 302.85L59.055 302.85C60.0576 302.85 60.7284 303.443 60.7284 304.368C60.7284 305.06 60.2977 305.597 59.6481 305.774L60.7778 307.793L60.0859 307.793L59.0197 305.894L57.904 305.894L57.904 307.793ZM57.904 303.415L57.904 305.329L59.0055 305.329C59.6693 305.329 60.1 304.947 60.1 304.368C60.1 303.789 59.6693 303.415 59.0126 303.415L57.904 303.415ZM65.7614 302.85L65.7614 307.242L67.0111 307.242L67.0111 307.793L63.8761 307.793L63.8761 307.242L65.1753 307.242L65.1753 304.326C65.1047 304.376 65.02 304.397 64.9141 304.397L63.8902 304.397L63.8902 303.867L64.8505 303.867C65.0694 303.867 65.1824 303.684 65.1824 303.443L65.1824 302.85L65.7614 302.85Z" opacity=".64"/><path fill="#fff" d="M184.153 307.793L183.673 307.793L183.857 306.607L183.179 306.607L183.179 306.12L183.928 306.12L184.062 305.188L183.334 305.188L183.334 304.7L184.132 304.7L184.316 303.514L184.796 303.514L184.612 304.7L185.58 304.7L185.763 303.514L186.243 303.514L186.06 304.7L186.738 304.7L186.738 305.188L185.989 305.188L185.855 306.12L186.582 306.12L186.582 306.607L185.785 306.607L185.601 307.793L185.121 307.793L185.304 306.607L184.337 306.607L184.153 307.793ZM184.542 305.188L184.408 306.12L185.375 306.12L185.509 305.188L184.542 305.188ZM189.25 302.808C190.33 302.808 191.001 303.705 191.001 305.209L191.001 305.435C191.001 306.939 190.33 307.835 189.25 307.835C188.169 307.835 187.499 306.939 187.499 305.435L187.499 305.209C187.499 303.705 188.169 302.808 189.25 302.808ZM188.085 305.23L188.085 305.413C188.085 305.689 188.106 305.936 188.148 306.148L190.161 303.931C189.963 303.542 189.652 303.338 189.25 303.338C188.515 303.338 188.085 304.03 188.085 305.23ZM190.415 305.413L190.415 305.23C190.415 304.954 190.394 304.707 190.351 304.488L188.339 306.72C188.544 307.094 188.854 307.299 189.25 307.299C189.984 307.299 190.415 306.614 190.415 305.413ZM193.642 302.808C194.722 302.808 195.393 303.705 195.393 305.209L195.393 305.435C195.393 306.939 194.722 307.835 193.642 307.835C192.562 307.835 191.891 306.939 191.891 305.435L191.891 305.209C191.891 303.705 192.562 302.808 193.642 302.808ZM192.477 305.23L192.477 305.413C192.477 305.689 192.498 305.936 192.541 306.148L194.553 303.931C194.355 303.542 194.044 303.338 193.642 303.338C192.908 303.338 192.477 304.03 192.477 305.23ZM194.807 305.413L194.807 305.23C194.807 304.954 194.786 304.707 194.744 304.488L192.731 306.72C192.936 307.094 193.247 307.299 193.642 307.299C194.376 307.299 194.807 306.614 194.807 305.413ZM198.048 302.85L198.048 307.242L199.298 307.242L199.298 307.793L196.163 307.793L196.163 307.242L197.462 307.242L197.462 304.326C197.392 304.376 197.307 304.397 197.201 304.397L196.177 304.397L196.177 303.867L197.138 303.867C197.357 303.867 197.469 303.684 197.469 303.443L197.469 302.85L198.048 302.85ZM202.372 305.223C202.803 305.308 203.234 305.668 203.234 306.423C203.234 307.263 202.591 307.835 201.546 307.835C200.508 307.835 199.866 307.249 199.866 306.268L200.452 306.268C200.459 306.917 200.911 307.306 201.582 307.306C202.196 307.306 202.627 306.946 202.627 306.381C202.627 305.865 202.295 305.541 201.56 305.541L201.13 305.541L201.13 305.011L201.497 305.011C202.196 305.011 202.535 304.651 202.535 304.15C202.535 303.648 202.111 303.338 201.546 303.338C200.974 303.338 200.53 303.712 200.523 304.277L199.936 304.277C199.951 303.373 200.628 302.808 201.539 302.808C202.528 302.808 203.142 303.338 203.142 304.128C203.142 304.736 202.817 305.096 202.372 305.223ZM206.503 305.223C206.934 305.308 207.364 305.668 207.364 306.423C207.364 307.263 206.722 307.835 205.677 307.835C204.639 307.835 203.996 307.249 203.996 306.268L204.582 306.268C204.589 306.917 205.041 307.306 205.712 307.306C206.326 307.306 206.757 306.946 206.757 306.381C206.757 305.865 206.425 305.541 205.691 305.541L205.26 305.541L205.26 305.011L205.627 305.011C206.326 305.011 206.665 304.651 206.665 304.15C206.665 303.648 206.242 303.338 205.677 303.338C205.105 303.338 204.66 303.712 204.653 304.277L204.067 304.277C204.081 303.373 204.759 302.808 205.67 302.808C206.658 302.808 207.272 303.338 207.272 304.128C207.272 304.736 206.948 305.096 206.503 305.223ZM208.961 307.793L208.319 307.793L210.585 303.394L207.916 303.394L207.916 302.85L211.306 302.85L211.306 303.267L208.961 307.793ZM213.77 302.85L213.77 307.242L215.02 307.242L215.02 307.793L211.885 307.793L211.885 307.242L213.184 307.242L213.184 304.326C213.113 304.376 213.029 304.397 212.923 304.397L211.899 304.397L211.899 303.867L212.859 303.867C213.078 303.867 213.191 303.684 213.191 303.443L213.191 302.85L213.77 302.85Z" opacity=".64"/><g filter="url(#filter1_b_2060_26176)"><rect width="231.496" height="324.296" x=".252" y=".454" stroke="url(#paint7_linear_2060_26176)" stroke-opacity=".64" stroke-width=".504" rx="7.817"/></g><g filter="url(#filter2_f_2060_26176)"><path fill="url(#paint8_linear_2060_26176)" d="M289.46 124.453L35.3991 402.561C27.9605 410.704 28.0895 423.214 35.6944 431.202C44.1055 440.036 58.2488 439.868 66.4479 430.837L319.642 151.938C327.88 142.864 326.319 128.625 316.31 121.551C307.908 115.613 296.399 116.857 289.46 124.453Z"/></g><g filter="url(#filter3_f_2060_26176)"><path fill="url(#paint9_linear_2060_26176)" d="M316.19 -15.7562L62.1296 262.352C54.6909 270.495 54.8199 283.005 62.4249 290.993C70.836 299.827 84.9792 299.659 93.1783 290.628L346.372 11.7294C354.61 2.65457 353.049 -11.5836 343.04 -18.6578C334.638 -24.5961 323.13 -23.3525 316.19 -15.7562Z"/></g><g filter="url(#filter4_f_2060_26176)"><path fill="url(#paint10_linear_2060_26176)" d="M218.851 -38.4515L-35.2102 239.657C-42.6489 247.8 -42.5199 260.31 -34.915 268.297C-26.5039 277.132 -12.3606 276.964 -4.16152 267.933L249.032 -10.9659C257.271 -20.0407 255.71 -34.2789 245.7 -41.3531C237.298 -47.2914 225.79 -46.0478 218.851 -38.4515Z"/></g><g filter="url(#filter5_f_2060_26176)"><path fill="url(#paint11_linear_2060_26176)" d="M110.921 -52.0692L-143.14 226.039C-150.579 234.182 -150.45 246.692 -142.845 254.68C-134.434 263.514 -120.29 263.346 -112.091 254.315L141.102 -24.5836C149.341 -33.6584 147.78 -47.8966 137.771 -54.9708C129.369 -60.9091 117.86 -59.6654 110.921 -52.0692Z"/></g></g></g></g><defs><filter id="filter0_d_2060_26176" width="326.817" height="419.617" x="-47.409" y="-45.19" color-interpolation-filters="sRGB" filterUnits="userSpaceOnUse"><feFlood flood-opacity="0" result="BackgroundImageFix"/><feColorMatrix in="SourceAlpha" result="hardAlpha" type="matrix" values="0 0 0 0 0 0 0 0 0 0 0 0 0 0 0 0 0 0 127 0"/><feOffset dy="2.017"/><feGaussianBlur stdDeviation="23.704"/><feComposite in2="hardAlpha" operator="out"/><feColorMatrix type="matrix" values="0 0 0 0 0 0 0 0 0 0 0 0 0 0 0 0 0 0 0.16 0"/><feBlend in2="BackgroundImageFix" mode="normal" result="effect1_dropShadow_2060_26176"/><feBlend in="SourceGraphic" in2="effect1_dropShadow_2060_26176" mode="normal" result="shape"/></filter><filter id="filter1_b_2060_26176" width="248.139" height="340.939" x="-8.07" y="-7.868" color-interpolation-filters="sRGB" filterUnits="userSpaceOnUse"><feFlood flood-opacity="0" result="BackgroundImageFix"/><feGaussianBlur in="BackgroundImageFix" stdDeviation="4.035"/><feComposite in2="SourceAlpha" operator="in" result="effect1_backgroundBlur_2060_26176"/><feBlend in="SourceGraphic" in2="effect1_backgroundBlur_2060_26176" mode="normal" result="shape"/></filter><filter id="filter2_f_2060_26176" width="365.646" height="390.521" x="-5.4" y="82.504" color-interpolation-filters="sRGB" filterUnits="userSpaceOnUse"><feFlood flood-opacity="0" result="BackgroundImageFix"/><feBlend in="SourceGraphic" in2="BackgroundImageFix" mode="normal" result="shape"/><feGaussianBlur result="effect1_foregroundBlur_2060_26176" stdDeviation="17.652"/></filter><filter id="filter3_f_2060_26176" width="365.646" height="390.521" x="21.33" y="-57.705" color-interpolation-filters="sRGB" filterUnits="userSpaceOnUse"><feFlood flood-opacity="0" result="BackgroundImageFix"/><feBlend in="SourceGraphic" in2="BackgroundImageFix" mode="normal" result="shape"/><feGaussianBlur result="effect1_foregroundBlur_2060_26176" stdDeviation="17.652"/></filter><filter id="filter4_f_2060_26176" width="365.646" height="390.521" x="-76.009" y="-80.4" color-interpolation-filters="sRGB" filterUnits="userSpaceOnUse"><feFlood flood-opacity="0" result="BackgroundImageFix"/><feBlend in="SourceGraphic" in2="BackgroundImageFix" mode="normal" result="shape"/><feGaussianBlur result="effect1_foregroundBlur_2060_26176" stdDeviation="17.652"/></filter><filter id="filter5_f_2060_26176" width="365.646" height="390.521" x="-183.939" y="-94.018" color-interpolation-filters="sRGB" filterUnits="userSpaceOnUse"><feFlood flood-opacity="0" result="BackgroundImageFix"/><feBlend in="SourceGraphic" in2="BackgroundImageFix" mode="normal" result="shape"/><feGaussianBlur result="effect1_foregroundBlur_2060_26176" stdDeviation="17.652"/></filter><linearGradient id="paint0_linear_2060_26176" x1="223.426" x2="-27.991" y1="7.263" y2="370.645" gradientUnits="userSpaceOnUse"><stop stop-color="#fff" stop-opacity=".48"/><stop offset="1" stop-opacity="0"/></linearGradient><linearGradient id="paint1_linear_2060_26176" x1="211.826" x2="211.826" y1=".202" y2="325.002" gradientUnits="userSpaceOnUse"><stop stop-color="#D9D9D9"/><stop offset=".199" stop-color="#D9D9D9" stop-opacity=".4"/><stop offset=".392" stop-color="#D9D9D9"/><stop offset=".58" stop-color="#D9D9D9" stop-opacity=".4"/><stop offset=".754" stop-color="#D9D9D9"/><stop offset=".964" stop-color="#D9D9D9" stop-opacity=".4"/></linearGradient><linearGradient id="paint2_linear_2060_26176" x1="3.32" x2="40.348" y1="146.546" y2="146.546" gradientUnits="userSpaceOnUse"><stop stop-color="#222224"/><stop offset="1" stop-color="#222224" stop-opacity="0"/></linearGradient><linearGradient id="paint3_linear_2060_26176" x1="223.426" x2="-27.991" y1="7.263" y2="370.645" gradientUnits="userSpaceOnUse"><stop stop-color="#fff" stop-opacity=".48"/><stop offset="1" stop-opacity="0"/></linearGradient><linearGradient id="paint4_linear_2060_26176" x1="184.347" x2="184.347" y1="-87.05" y2="356.721" gradientUnits="userSpaceOnUse"><stop stop-color="#F1C6DD"/><stop offset=".139" stop-color="#C1A4E8"/><stop offset=".239" stop-color="#B8E2FB"/><stop offset=".375" stop-color="#F2EFE8"/><stop offset=".478" stop-color="#F9DCDD"/><stop offset=".558" stop-color="#E1C1E5"/><stop offset=".624" stop-color="#BDAFE3"/><stop offset=".72" stop-color="#C7EDEB"/><stop offset=".83" stop-color="#E7F5EB"/><stop offset=".913" stop-color="#F2F0E7"/><stop offset="1" stop-color="#DDC1E1"/></linearGradient><linearGradient id="paint5_linear_2060_26176" x1="184.347" x2="184.347" y1="-87.05" y2="356.721" gradientUnits="userSpaceOnUse"><stop stop-color="#F1C6DD"/><stop offset=".139" stop-color="#C1A4E8"/><stop offset=".239" stop-color="#B8E2FB"/><stop offset=".375" stop-color="#F2EFE8"/><stop offset=".478" stop-color="#F9DCDD"/><stop offset=".558" stop-color="#E1C1E5"/><stop offset=".624" stop-color="#BDAFE3"/><stop offset=".72" stop-color="#C7EDEB"/><stop offset=".83" stop-color="#E7F5EB"/><stop offset=".913" stop-color="#F2F0E7"/><stop offset="1" stop-color="#DDC1E1"/></linearGradient><linearGradient id="paint6_linear_2060_26176" x1="83.222" x2="-61.568" y1="176.537" y2="361.851" gradientUnits="userSpaceOnUse"><stop stop-color="#fff" stop-opacity=".32"/><stop offset=".29" stop-color="#fff" stop-opacity=".08"/><stop offset="1" stop-color="#fff" stop-opacity="0"/></linearGradient><linearGradient id="paint7_linear_2060_26176" x1="245.617" x2="64.304" y1="7.515" y2="170.923" gradientUnits="userSpaceOnUse"><stop stop-color="#fff" stop-opacity=".44"/><stop offset="1" stop-color="#fff" stop-opacity="0"/></linearGradient><linearGradient id="paint8_linear_2060_26176" x1="224.455" x2="41.377" y1="166.503" y2="417.306" gradientUnits="userSpaceOnUse"><stop stop-color="#fff" stop-opacity=".16"/><stop offset="1" stop-color="#fff" stop-opacity="0"/></linearGradient><linearGradient id="paint9_linear_2060_26176" x1="251.185" x2="68.107" y1="26.294" y2="277.097" gradientUnits="userSpaceOnUse"><stop stop-color="#fff" stop-opacity=".16"/><stop offset="1" stop-color="#fff" stop-opacity="0"/></linearGradient><linearGradient id="paint10_linear_2060_26176" x1="153.845" x2="-29.233" y1="3.599" y2="254.402" gradientUnits="userSpaceOnUse"><stop stop-color="#fff" stop-opacity=".16"/><stop offset="1" stop-color="#fff" stop-opacity="0"/></linearGradient><linearGradient id="paint11_linear_2060_26176" x1="45.916" x2="-137.162" y1="-10.019" y2="240.784" gradientUnits="userSpaceOnUse"><stop stop-color="#fff" stop-opacity=".16"/><stop offset="1" stop-color="#fff" stop-opacity="0"/></linearGradient><clipPath id="clip0_2060_26176"><rect width="232" height="324" y=".602" fill="#fff" rx="8"/></clipPath><clipPath id="clip1_2060_26176"><rect width="232" height="324.8" y=".202" fill="#fff" rx="8.07"/></clipPath><clipPath id="clip2_2060_26176"><rect width="134.661" height="161.977" fill="#fff" transform="translate(-34.8008 166.132)"/></clipPath><clipPath id="clip3_2060_26176"><rect width="28.748" height="12.104" fill="#fff" transform="translate(33.2871 284.654)"/></clipPath></defs></svg>