<svg xmlns="http://www.w3.org/2000/svg" width="232" height="325" fill="none" viewBox="0 0 232 325"><g clip-path="url(#clip0_2060_26179)"><g filter="url(#filter0_d_2060_26179)"><g clip-path="url(#clip1_2060_26179)"><path fill="#000" fill-rule="evenodd" d="M0 8.27122C0 3.81452 3.61287 0.20166 8.06956 0.20166H223.93C228.387 0.20166 232 3.81453 232 8.27122V316.932C232 321.389 228.387 325.002 223.93 325.002H8.06956C3.61286 325.002 0 321.389 0 316.932V8.27122ZM95.8261 10.2886C95.8261 9.17441 96.7293 8.2712 97.8435 8.2712H134.157C135.271 8.2712 136.174 9.17441 136.174 10.2886C136.174 11.4028 135.271 12.306 134.157 12.306H97.8435C96.7293 12.306 95.8261 11.4028 95.8261 10.2886Z" clip-rule="evenodd"/><path fill="url(#paint0_linear_2060_26179)" fill-opacity=".2" fill-rule="evenodd" d="M0 8.27122C0 3.81452 3.61287 0.20166 8.06956 0.20166H223.93C228.387 0.20166 232 3.81453 232 8.27122V316.932C232 321.389 228.387 325.002 223.93 325.002H8.06956C3.61286 325.002 0 321.389 0 316.932V8.27122ZM95.8261 10.2886C95.8261 9.17441 96.7293 8.2712 97.8435 8.2712H134.157C135.271 8.2712 136.174 9.17441 136.174 10.2886C136.174 11.4028 135.271 12.306 134.157 12.306H97.8435C96.7293 12.306 95.8261 11.4028 95.8261 10.2886Z" clip-rule="evenodd"/><mask id="mask0_2060_26179" width="41" height="326" x="191" y="0" maskUnits="userSpaceOnUse" style="mask-type:alpha"><rect width="40.348" height="324.8" x="191.652" y=".202" fill="url(#paint1_linear_2060_26179)" fill-opacity=".32"/></mask><g mask="url(#mask0_2060_26179)"><mask id="mask1_2060_26179" width="41" height="326" x="191" y="0" maskUnits="userSpaceOnUse" style="mask-type:alpha"><rect width="40.348" height="324.8" fill="url(#paint2_linear_2060_26179)" transform="matrix(-1 0 0 1 232 0.20166)"/></mask><g mask="url(#mask1_2060_26179)"><rect width="4.035" height="4.035" x="232" y=".202" fill="#fff" opacity=".64" rx="1.009" transform="rotate(90 232 0.20166)"/><rect width="4.035" height="4.035" x="232" y="6.254" fill="#fff" opacity=".4" rx="1.009" transform="rotate(90 232 6.25391)"/><rect width="4.035" height="4.035" x="232" y="12.306" fill="#fff" opacity=".32" rx="1.009" transform="rotate(90 232 12.3062)"/><rect width="4.035" height="4.035" x="232" y="18.358" fill="#fff" opacity=".16" rx="1.009" transform="rotate(90 232 18.3579)"/><rect width="4.035" height="4.035" x="232" y="24.41" fill="#fff" opacity=".8" rx="1.009" transform="rotate(90 232 24.4102)"/><rect width="4.035" height="4.035" x="232" y="30.462" fill="#fff" opacity=".64" rx="1.009" transform="rotate(90 232 30.4624)"/><rect width="4.035" height="4.035" x="232" y="36.515" fill="#fff" opacity=".4" rx="1.009" transform="rotate(90 232 36.5146)"/><rect width="4.035" height="4.035" x="232" y="42.567" fill="#fff" opacity=".32" rx="1.009" transform="rotate(90 232 42.5669)"/><rect width="4.035" height="4.035" x="232" y="48.619" fill="#fff" opacity=".16" rx="1.009" transform="rotate(90 232 48.6191)"/><rect width="4.035" height="4.035" x="232" y="54.671" fill="#fff" opacity=".4" rx="1.009" transform="rotate(90 232 54.6714)"/><rect width="4.035" height="4.035" x="232" y="60.723" fill="#fff" opacity=".32" rx="1.009" transform="rotate(90 232 60.7231)"/><rect width="4.035" height="4.035" x="232" y="66.775" fill="#fff" opacity=".8" rx="1.009" transform="rotate(90 232 66.7754)"/><rect width="4.035" height="4.035" x="232" y="72.828" fill="#fff" opacity=".16" rx="1.009" transform="rotate(90 232 72.8276)"/><rect width="4.035" height="4.035" x="232" y="78.88" fill="#fff" opacity=".4" rx="1.009" transform="rotate(90 232 78.8799)"/><rect width="4.035" height="4.035" x="232" y="84.932" fill="#fff" opacity=".32" rx="1.009" transform="rotate(90 232 84.9321)"/><rect width="4.035" height="4.035" x="232" y="90.984" fill="#fff" opacity=".32" rx="1.009" transform="rotate(90 232 90.9844)"/><rect width="4.035" height="4.035" x="232" y="97.037" fill="#fff" opacity=".32" rx="1.009" transform="rotate(90 232 97.0366)"/><rect width="4.035" height="4.035" x="232" y="103.088" fill="#fff" opacity=".64" rx="1.009" transform="rotate(90 232 103.088)"/><rect width="4.035" height="4.035" x="232" y="109.141" fill="#fff" opacity=".16" rx="1.009" transform="rotate(90 232 109.141)"/><rect width="4.035" height="4.035" x="232" y="115.193" fill="#fff" opacity=".64" rx="1.009" transform="rotate(90 232 115.193)"/><rect width="4.035" height="4.035" x="232" y="121.245" fill="#fff" opacity=".4" rx="1.009" transform="rotate(90 232 121.245)"/><rect width="4.035" height="4.035" x="232" y="127.297" fill="#fff" opacity=".32" rx="1.009" transform="rotate(90 232 127.297)"/><rect width="4.035" height="4.035" x="232" y="133.35" fill="#fff" opacity=".16" rx="1.009" transform="rotate(90 232 133.35)"/><rect width="4.035" height="4.035" x="232" y="139.402" fill="#fff" opacity=".8" rx="1.009" transform="rotate(90 232 139.402)"/><rect width="4.035" height="4.035" x="232" y="145.454" fill="#fff" opacity=".8" rx="1.009" transform="rotate(90 232 145.454)"/><rect width="4.035" height="4.035" x="232" y="151.506" fill="#fff" opacity=".64" rx="1.009" transform="rotate(90 232 151.506)"/><rect width="4.035" height="4.035" x="232" y="157.558" fill="#fff" opacity=".4" rx="1.009" transform="rotate(90 232 157.558)"/><rect width="4.035" height="4.035" x="232" y="163.61" fill="#fff" opacity=".8" rx="1.009" transform="rotate(90 232 163.61)"/><rect width="4.035" height="4.035" x="232" y="169.663" fill="#fff" opacity=".4" rx="1.009" transform="rotate(90 232 169.663)"/><rect width="4.035" height="4.035" x="232" y="175.715" fill="#fff" opacity=".16" rx="1.009" transform="rotate(90 232 175.715)"/><rect width="4.035" height="4.035" x="232" y="181.767" fill="#fff" opacity=".32" rx="1.009" transform="rotate(90 232 181.767)"/><rect width="4.035" height="4.035" x="232" y="187.819" fill="#fff" opacity=".16" rx="1.009" transform="rotate(90 232 187.819)"/><rect width="4.035" height="4.035" x="232" y="193.871" fill="#fff" opacity=".64" rx="1.009" transform="rotate(90 232 193.871)"/><rect width="4.035" height="4.035" x="232" y="199.923" fill="#fff" opacity=".16" rx="1.009" transform="rotate(90 232 199.923)"/><rect width="4.035" height="4.035" x="232" y="205.976" fill="#fff" opacity=".64" rx="1.009" transform="rotate(90 232 205.976)"/><rect width="4.035" height="4.035" x="232" y="212.028" fill="#fff" opacity=".32" rx="1.009" transform="rotate(90 232 212.028)"/><rect width="4.035" height="4.035" x="232" y="218.08" fill="#fff" opacity=".8" rx="1.009" transform="rotate(90 232 218.08)"/><rect width="4.035" height="4.035" x="232" y="224.132" fill="#fff" opacity=".4" rx="1.009" transform="rotate(90 232 224.132)"/><rect width="4.035" height="4.035" x="232" y="230.184" fill="#fff" opacity=".32" rx="1.009" transform="rotate(90 232 230.184)"/><rect width="4.035" height="4.035" x="232" y="236.236" fill="#fff" opacity=".32" rx="1.009" transform="rotate(90 232 236.236)"/><rect width="4.035" height="4.035" x="232" y="242.289" fill="#fff" opacity=".64" rx="1.009" transform="rotate(90 232 242.289)"/><rect width="4.035" height="4.035" x="232" y="248.341" fill="#fff" opacity=".4" rx="1.009" transform="rotate(90 232 248.341)"/><rect width="4.035" height="4.035" x="232" y="254.393" fill="#fff" opacity=".16" rx="1.009" transform="rotate(90 232 254.393)"/><rect width="4.035" height="4.035" x="232" y="260.445" fill="#fff" opacity=".8" rx="1.009" transform="rotate(90 232 260.445)"/><rect width="4.035" height="4.035" x="232" y="266.497" fill="#fff" opacity=".8" rx="1.009" transform="rotate(90 232 266.497)"/><rect width="4.035" height="4.035" x="232" y="272.549" fill="#fff" opacity=".8" rx="1.009" transform="rotate(90 232 272.549)"/><rect width="4.035" height="4.035" x="232" y="278.602" fill="#fff" opacity=".64" rx="1.009" transform="rotate(90 232 278.602)"/><rect width="4.035" height="4.035" x="232" y="284.654" fill="#fff" opacity=".4" rx="1.009" transform="rotate(90 232 284.654)"/><rect width="4.035" height="4.035" x="232" y="290.706" fill="#fff" opacity=".4" rx="1.009" transform="rotate(90 232 290.706)"/><rect width="4.035" height="4.035" x="232" y="296.758" fill="#fff" opacity=".32" rx="1.009" transform="rotate(90 232 296.758)"/><rect width="4.035" height="4.035" x="232" y="302.811" fill="#fff" opacity=".16" rx="1.009" transform="rotate(90 232 302.811)"/><rect width="4.035" height="4.035" x="232" y="308.862" fill="#fff" opacity=".64" rx="1.009" transform="rotate(90 232 308.862)"/><rect width="4.035" height="4.035" x="232" y="314.915" fill="#fff" opacity=".32" rx="1.009" transform="rotate(90 232 314.915)"/><rect width="4.035" height="4.035" x="232" y="320.967" fill="#fff" opacity=".16" rx="1.009" transform="rotate(90 232 320.967)"/><rect width="4.035" height="4.035" fill="#fff" opacity=".64" rx="1.009" transform="matrix(-4.37114e-08 -1 -1 4.37114e-08 225.947 325.001)"/><rect width="4.035" height="4.035" fill="#fff" opacity=".4" rx="1.009" transform="matrix(-4.37114e-08 -1 -1 4.37114e-08 225.947 318.949)"/><rect width="4.035" height="4.035" fill="#fff" opacity=".32" rx="1.009" transform="matrix(-4.37114e-08 -1 -1 4.37114e-08 225.947 312.897)"/><rect width="4.035" height="4.035" fill="#fff" opacity=".16" rx="1.009" transform="matrix(-4.37114e-08 -1 -1 4.37114e-08 225.947 306.845)"/><rect width="4.035" height="4.035" fill="#fff" opacity=".8" rx="1.009" transform="matrix(-4.37114e-08 -1 -1 4.37114e-08 225.947 300.793)"/><rect width="4.035" height="4.035" fill="#fff" opacity=".64" rx="1.009" transform="matrix(-4.37114e-08 -1 -1 4.37114e-08 225.947 294.741)"/><rect width="4.035" height="4.035" fill="#fff" opacity=".4" rx="1.009" transform="matrix(-4.37114e-08 -1 -1 4.37114e-08 225.947 288.688)"/><rect width="4.035" height="4.035" fill="#fff" opacity=".32" rx="1.009" transform="matrix(-4.37114e-08 -1 -1 4.37114e-08 225.947 282.636)"/><rect width="4.035" height="4.035" fill="#fff" opacity=".16" rx="1.009" transform="matrix(-4.37114e-08 -1 -1 4.37114e-08 225.947 276.584)"/><rect width="4.035" height="4.035" fill="#fff" opacity=".4" rx="1.009" transform="matrix(-4.37114e-08 -1 -1 4.37114e-08 225.947 270.532)"/><rect width="4.035" height="4.035" fill="#fff" opacity=".32" rx="1.009" transform="matrix(-4.37114e-08 -1 -1 4.37114e-08 225.947 264.479)"/><rect width="4.035" height="4.035" fill="#fff" opacity=".8" rx="1.009" transform="matrix(-4.37114e-08 -1 -1 4.37114e-08 225.947 258.428)"/><rect width="4.035" height="4.035" fill="#fff" opacity=".16" rx="1.009" transform="matrix(-4.37114e-08 -1 -1 4.37114e-08 225.947 252.375)"/><rect width="4.035" height="4.035" fill="#fff" opacity=".4" rx="1.009" transform="matrix(-4.37114e-08 -1 -1 4.37114e-08 225.947 246.323)"/><rect width="4.035" height="4.035" fill="#fff" opacity=".32" rx="1.009" transform="matrix(-4.37114e-08 -1 -1 4.37114e-08 225.947 240.271)"/><rect width="4.035" height="4.035" fill="#fff" opacity=".32" rx="1.009" transform="matrix(-4.37114e-08 -1 -1 4.37114e-08 225.947 234.219)"/><rect width="4.035" height="4.035" fill="#fff" opacity=".32" rx="1.009" transform="matrix(-4.37114e-08 -1 -1 4.37114e-08 225.947 228.167)"/><rect width="4.035" height="4.035" fill="#fff" opacity=".64" rx="1.009" transform="matrix(-4.37114e-08 -1 -1 4.37114e-08 225.947 222.115)"/><rect width="4.035" height="4.035" fill="#fff" opacity=".16" rx="1.009" transform="matrix(-4.37114e-08 -1 -1 4.37114e-08 225.947 216.062)"/><rect width="4.035" height="4.035" fill="#fff" opacity=".64" rx="1.009" transform="matrix(-4.37114e-08 -1 -1 4.37114e-08 225.947 210.01)"/><rect width="4.035" height="4.035" fill="#fff" opacity=".4" rx="1.009" transform="matrix(-4.37114e-08 -1 -1 4.37114e-08 225.947 203.958)"/><rect width="4.035" height="4.035" fill="#fff" opacity=".32" rx="1.009" transform="matrix(-4.37114e-08 -1 -1 4.37114e-08 225.947 197.906)"/><rect width="4.035" height="4.035" fill="#fff" opacity=".16" rx="1.009" transform="matrix(-4.37114e-08 -1 -1 4.37114e-08 225.947 191.854)"/><rect width="4.035" height="4.035" fill="#fff" opacity=".8" rx="1.009" transform="matrix(-4.37114e-08 -1 -1 4.37114e-08 225.947 185.802)"/><rect width="4.035" height="4.035" fill="#fff" opacity=".8" rx="1.009" transform="matrix(-4.37114e-08 -1 -1 4.37114e-08 225.947 179.75)"/><rect width="4.035" height="4.035" fill="#fff" opacity=".64" rx="1.009" transform="matrix(-4.37114e-08 -1 -1 4.37114e-08 225.947 173.697)"/><rect width="4.035" height="4.035" fill="#fff" opacity=".4" rx="1.009" transform="matrix(-4.37114e-08 -1 -1 4.37114e-08 225.947 167.645)"/><rect width="4.035" height="4.035" fill="#fff" opacity=".8" rx="1.009" transform="matrix(-4.37114e-08 -1 -1 4.37114e-08 225.947 161.593)"/><rect width="4.035" height="4.035" fill="#fff" opacity=".4" rx="1.009" transform="matrix(-4.37114e-08 -1 -1 4.37114e-08 225.947 155.541)"/><rect width="4.035" height="4.035" fill="#fff" opacity=".16" rx="1.009" transform="matrix(-4.37114e-08 -1 -1 4.37114e-08 225.947 149.488)"/><rect width="4.035" height="4.035" fill="#fff" opacity=".32" rx="1.009" transform="matrix(-4.37114e-08 -1 -1 4.37114e-08 225.947 143.437)"/><rect width="4.035" height="4.035" fill="#fff" opacity=".16" rx="1.009" transform="matrix(-4.37114e-08 -1 -1 4.37114e-08 225.947 137.384)"/><rect width="4.035" height="4.035" fill="#fff" opacity=".64" rx="1.009" transform="matrix(-4.37114e-08 -1 -1 4.37114e-08 225.947 131.332)"/><rect width="4.035" height="4.035" fill="#fff" opacity=".16" rx="1.009" transform="matrix(-4.37114e-08 -1 -1 4.37114e-08 225.947 125.28)"/><rect width="4.035" height="4.035" fill="#fff" opacity=".64" rx="1.009" transform="matrix(-4.37114e-08 -1 -1 4.37114e-08 225.947 119.228)"/><rect width="4.035" height="4.035" fill="#fff" opacity=".32" rx="1.009" transform="matrix(-4.37114e-08 -1 -1 4.37114e-08 225.947 113.175)"/><rect width="4.035" height="4.035" fill="#fff" opacity=".8" rx="1.009" transform="matrix(-4.37114e-08 -1 -1 4.37114e-08 225.947 107.124)"/><rect width="4.035" height="4.035" fill="#fff" opacity=".4" rx="1.009" transform="matrix(-4.37114e-08 -1 -1 4.37114e-08 225.947 101.071)"/><rect width="4.035" height="4.035" fill="#fff" opacity=".32" rx="1.009" transform="matrix(-4.37114e-08 -1 -1 4.37114e-08 225.947 95.019)"/><rect width="4.035" height="4.035" fill="#fff" opacity=".32" rx="1.009" transform="matrix(-4.37114e-08 -1 -1 4.37114e-08 225.947 88.9668)"/><rect width="4.035" height="4.035" fill="#fff" opacity=".64" rx="1.009" transform="matrix(-4.37114e-08 -1 -1 4.37114e-08 225.947 82.9146)"/><rect width="4.035" height="4.035" fill="#fff" opacity=".4" rx="1.009" transform="matrix(-4.37114e-08 -1 -1 4.37114e-08 225.947 76.8623)"/><rect width="4.035" height="4.035" fill="#fff" opacity=".16" rx="1.009" transform="matrix(-4.37114e-08 -1 -1 4.37114e-08 225.947 70.8101)"/><rect width="4.035" height="4.035" fill="#fff" opacity=".8" rx="1.009" transform="matrix(-4.37114e-08 -1 -1 4.37114e-08 225.947 64.7583)"/><rect width="4.035" height="4.035" fill="#fff" opacity=".8" rx="1.009" transform="matrix(-4.37114e-08 -1 -1 4.37114e-08 225.947 58.7061)"/><rect width="4.035" height="4.035" fill="#fff" opacity=".8" rx="1.009" transform="matrix(-4.37114e-08 -1 -1 4.37114e-08 225.947 52.6538)"/><rect width="4.035" height="4.035" fill="#fff" opacity=".64" rx="1.009" transform="matrix(-4.37114e-08 -1 -1 4.37114e-08 225.947 46.6016)"/><rect width="4.035" height="4.035" fill="#fff" opacity=".4" rx="1.009" transform="matrix(-4.37114e-08 -1 -1 4.37114e-08 225.947 40.5493)"/><rect width="4.035" height="4.035" fill="#fff" opacity=".4" rx="1.009" transform="matrix(-4.37114e-08 -1 -1 4.37114e-08 225.947 34.4971)"/><rect width="4.035" height="4.035" fill="#fff" opacity=".32" rx="1.009" transform="matrix(-4.37114e-08 -1 -1 4.37114e-08 225.947 28.4448)"/><rect width="4.035" height="4.035" fill="#fff" opacity=".16" rx="1.009" transform="matrix(-4.37114e-08 -1 -1 4.37114e-08 225.947 22.3926)"/><rect width="4.035" height="4.035" fill="#fff" opacity=".64" rx="1.009" transform="matrix(-4.37114e-08 -1 -1 4.37114e-08 225.947 16.3408)"/><rect width="4.035" height="4.035" fill="#fff" opacity=".32" rx="1.009" transform="matrix(-4.37114e-08 -1 -1 4.37114e-08 225.947 10.2886)"/><rect width="4.035" height="4.035" fill="#fff" opacity=".16" rx="1.009" transform="matrix(-4.37114e-08 -1 -1 4.37114e-08 225.947 4.23633)"/><rect width="4.035" height="4.035" x="219.896" y=".202" fill="#fff" opacity=".4" rx="1.009" transform="rotate(90 219.896 0.20166)"/><rect width="4.035" height="4.035" x="219.896" y="6.254" fill="#fff" opacity=".32" rx="1.009" transform="rotate(90 219.896 6.25391)"/><rect width="4.035" height="4.035" x="219.896" y="12.306" fill="#fff" opacity=".16" rx="1.009" transform="rotate(90 219.896 12.3062)"/><rect width="4.035" height="4.035" x="219.896" y="18.358" fill="#fff" opacity=".8" rx="1.009" transform="rotate(90 219.896 18.3584)"/><rect width="4.035" height="4.035" x="219.896" y="24.41" fill="#fff" opacity=".8" rx="1.009" transform="rotate(90 219.896 24.4102)"/><rect width="4.035" height="4.035" x="219.896" y="30.462" fill="#fff" opacity=".64" rx="1.009" transform="rotate(90 219.896 30.4624)"/><rect width="4.035" height="4.035" x="219.896" y="36.515" fill="#fff" opacity=".32" rx="1.009" transform="rotate(90 219.896 36.5146)"/><rect width="4.035" height="4.035" x="219.896" y="42.567" fill="#fff" opacity=".32" rx="1.009" transform="rotate(90 219.896 42.5669)"/><rect width="4.035" height="4.035" x="219.896" y="48.619" fill="#fff" opacity=".32" rx="1.009" transform="rotate(90 219.896 48.6191)"/><rect width="4.035" height="4.035" x="219.896" y="54.671" fill="#fff" opacity=".64" rx="1.009" transform="rotate(90 219.896 54.6714)"/><rect width="4.035" height="4.035" x="219.896" y="60.724" fill="#fff" opacity=".16" rx="1.009" transform="rotate(90 219.896 60.7236)"/><rect width="4.035" height="4.035" x="219.896" y="66.775" fill="#fff" opacity=".64" rx="1.009" transform="rotate(90 219.896 66.7754)"/><rect width="4.035" height="4.035" x="219.896" y="72.828" fill="#fff" opacity=".4" rx="1.009" transform="rotate(90 219.896 72.8276)"/><rect width="4.035" height="4.035" x="219.896" y="78.88" fill="#fff" opacity=".4" rx="1.009" transform="rotate(90 219.896 78.8799)"/><rect width="4.035" height="4.035" x="219.896" y="84.932" fill="#fff" opacity=".8" rx="1.009" transform="rotate(90 219.896 84.9321)"/><rect width="4.035" height="4.035" x="219.896" y="90.984" fill="#fff" opacity=".4" rx="1.009" transform="rotate(90 219.896 90.9844)"/><rect width="4.035" height="4.035" x="219.896" y="97.037" fill="#fff" opacity=".4" rx="1.009" transform="rotate(90 219.896 97.0366)"/><rect width="4.035" height="4.035" x="219.896" y="103.088" fill="#fff" opacity=".16" rx="1.009" transform="rotate(90 219.896 103.088)"/><rect width="4.035" height="4.035" x="219.896" y="109.141" fill="#fff" opacity=".8" rx="1.009" transform="rotate(90 219.896 109.141)"/><rect width="4.035" height="4.035" x="219.896" y="115.193" fill="#fff" opacity=".8" rx="1.009" transform="rotate(90 219.896 115.193)"/><rect width="4.035" height="4.035" x="219.896" y="121.245" fill="#fff" opacity=".8" rx="1.009" transform="rotate(90 219.896 121.245)"/><rect width="4.035" height="4.035" x="219.896" y="127.297" fill="#fff" opacity=".64" rx="1.009" transform="rotate(90 219.896 127.297)"/><rect width="4.035" height="4.035" x="219.896" y="133.35" fill="#fff" opacity=".4" rx="1.009" transform="rotate(90 219.896 133.35)"/><rect width="4.035" height="4.035" x="219.896" y="139.401" fill="#fff" opacity=".4" rx="1.009" transform="rotate(90 219.896 139.401)"/><rect width="4.035" height="4.035" x="219.896" y="145.454" fill="#fff" opacity=".32" rx="1.009" transform="rotate(90 219.896 145.454)"/><rect width="4.035" height="4.035" x="219.896" y="151.506" fill="#fff" opacity=".16" rx="1.009" transform="rotate(90 219.896 151.506)"/><rect width="4.035" height="4.035" x="219.896" y="157.558" fill="#fff" opacity=".64" rx="1.009" transform="rotate(90 219.896 157.558)"/><rect width="4.035" height="4.035" x="219.896" y="163.61" fill="#fff" opacity=".32" rx="1.009" transform="rotate(90 219.896 163.61)"/><rect width="4.035" height="4.035" x="219.896" y="169.663" fill="#fff" opacity=".16" rx="1.009" transform="rotate(90 219.896 169.663)"/><rect width="4.035" height="4.035" x="219.896" y="175.715" fill="#fff" opacity=".16" rx="1.009" transform="rotate(90 219.896 175.715)"/><rect width="4.035" height="4.035" x="219.896" y="181.767" fill="#fff" opacity=".64" rx="1.009" transform="rotate(90 219.896 181.767)"/><rect width="4.035" height="4.035" x="219.896" y="187.819" fill="#fff" opacity=".4" rx="1.009" transform="rotate(90 219.896 187.819)"/><rect width="4.035" height="4.035" x="219.896" y="193.871" fill="#fff" opacity=".32" rx="1.009" transform="rotate(90 219.896 193.871)"/><rect width="4.035" height="4.035" x="219.896" y="199.923" fill="#fff" opacity=".16" rx="1.009" transform="rotate(90 219.896 199.923)"/><rect width="4.035" height="4.035" x="219.896" y="205.976" fill="#fff" opacity=".32" rx="1.009" transform="rotate(90 219.896 205.976)"/><rect width="4.035" height="4.035" x="219.896" y="212.028" fill="#fff" opacity=".32" rx="1.009" transform="rotate(90 219.896 212.028)"/><rect width="4.035" height="4.035" x="219.896" y="218.08" fill="#fff" opacity=".64" rx="1.009" transform="rotate(90 219.896 218.08)"/><rect width="4.035" height="4.035" x="219.896" y="224.132" fill="#fff" opacity=".4" rx="1.009" transform="rotate(90 219.896 224.132)"/><rect width="4.035" height="4.035" x="219.896" y="230.184" fill="#fff" opacity=".8" rx="1.009" transform="rotate(90 219.896 230.184)"/><rect width="4.035" height="4.035" x="219.896" y="236.236" fill="#fff" opacity=".64" rx="1.009" transform="rotate(90 219.896 236.236)"/><rect width="4.035" height="4.035" x="219.896" y="242.289" fill="#fff" opacity=".4" rx="1.009" transform="rotate(90 219.896 242.289)"/><rect width="4.035" height="4.035" x="219.896" y="248.341" fill="#fff" opacity=".32" rx="1.009" transform="rotate(90 219.896 248.341)"/><rect width="4.035" height="4.035" x="219.896" y="254.393" fill="#fff" opacity=".16" rx="1.009" transform="rotate(90 219.896 254.393)"/><rect width="4.035" height="4.035" x="219.896" y="260.445" fill="#fff" opacity=".4" rx="1.009" transform="rotate(90 219.896 260.445)"/><rect width="4.035" height="4.035" x="219.896" y="266.497" fill="#fff" opacity=".32" rx="1.009" transform="rotate(90 219.896 266.497)"/><rect width="4.035" height="4.035" x="219.896" y="272.549" fill="#fff" opacity=".8" rx="1.009" transform="rotate(90 219.896 272.549)"/><rect width="4.035" height="4.035" x="219.896" y="278.602" fill="#fff" opacity=".16" rx="1.009" transform="rotate(90 219.896 278.602)"/><rect width="4.035" height="4.035" x="219.896" y="284.654" fill="#fff" opacity=".32" rx="1.009" transform="rotate(90 219.896 284.654)"/><rect width="4.035" height="4.035" x="219.896" y="290.706" fill="#fff" opacity=".16" rx="1.009" transform="rotate(90 219.896 290.706)"/><rect width="4.035" height="4.035" x="219.896" y="296.758" fill="#fff" opacity=".64" rx="1.009" transform="rotate(90 219.896 296.758)"/><rect width="4.035" height="4.035" x="219.896" y="302.811" fill="#fff" opacity=".16" rx="1.009" transform="rotate(90 219.896 302.811)"/><rect width="4.035" height="4.035" x="219.896" y="308.862" fill="#fff" opacity=".64" rx="1.009" transform="rotate(90 219.896 308.862)"/><rect width="4.035" height="4.035" x="219.896" y="314.915" fill="#fff" opacity=".32" rx="1.009" transform="rotate(90 219.896 314.915)"/><rect width="4.035" height="4.035" x="219.896" y="320.967" fill="#fff" opacity=".8" rx="1.009" transform="rotate(90 219.896 320.967)"/><rect width="4.035" height="4.035" x="213.844" y=".202" fill="#fff" opacity=".64" rx="1.009" transform="rotate(90 213.844 0.20166)"/><rect width="4.035" height="4.035" x="213.844" y="6.254" fill="#fff" opacity=".4" rx="1.009" transform="rotate(90 213.844 6.25391)"/><rect width="4.035" height="4.035" x="213.844" y="12.306" fill="#fff" opacity=".32" rx="1.009" transform="rotate(90 213.844 12.3062)"/><rect width="4.035" height="4.035" x="213.844" y="18.358" fill="#fff" opacity=".16" rx="1.009" transform="rotate(90 213.844 18.3584)"/><rect width="4.035" height="4.035" x="213.844" y="24.41" fill="#fff" opacity=".8" rx="1.009" transform="rotate(90 213.844 24.4102)"/><rect width="4.035" height="4.035" x="213.844" y="30.462" fill="#fff" opacity=".64" rx="1.009" transform="rotate(90 213.844 30.4624)"/><rect width="4.035" height="4.035" x="213.844" y="36.515" fill="#fff" opacity=".4" rx="1.009" transform="rotate(90 213.844 36.5146)"/><rect width="4.035" height="4.035" x="213.844" y="42.567" fill="#fff" opacity=".32" rx="1.009" transform="rotate(90 213.844 42.5669)"/><rect width="4.035" height="4.035" x="213.844" y="48.619" fill="#fff" opacity=".16" rx="1.009" transform="rotate(90 213.844 48.6191)"/><rect width="4.035" height="4.035" x="213.844" y="54.671" fill="#fff" opacity=".4" rx="1.009" transform="rotate(90 213.844 54.6714)"/><rect width="4.035" height="4.035" x="213.844" y="60.724" fill="#fff" opacity=".32" rx="1.009" transform="rotate(90 213.844 60.7236)"/><rect width="4.035" height="4.035" x="213.844" y="66.775" fill="#fff" opacity=".8" rx="1.009" transform="rotate(90 213.844 66.7754)"/><rect width="4.035" height="4.035" x="213.844" y="72.828" fill="#fff" opacity=".16" rx="1.009" transform="rotate(90 213.844 72.8276)"/><rect width="4.035" height="4.035" x="213.844" y="78.88" fill="#fff" opacity=".4" rx="1.009" transform="rotate(90 213.844 78.8799)"/><rect width="4.035" height="4.035" x="213.844" y="84.932" fill="#fff" opacity=".32" rx="1.009" transform="rotate(90 213.844 84.9321)"/><rect width="4.035" height="4.035" x="213.844" y="90.984" fill="#fff" opacity=".32" rx="1.009" transform="rotate(90 213.844 90.9844)"/><rect width="4.035" height="4.035" x="213.844" y="97.037" fill="#fff" opacity=".32" rx="1.009" transform="rotate(90 213.844 97.0366)"/><rect width="4.035" height="4.035" x="213.844" y="103.088" fill="#fff" opacity=".64" rx="1.009" transform="rotate(90 213.844 103.088)"/><rect width="4.035" height="4.035" x="213.844" y="109.141" fill="#fff" opacity=".16" rx="1.009" transform="rotate(90 213.844 109.141)"/><rect width="4.035" height="4.035" x="213.844" y="115.193" fill="#fff" opacity=".64" rx="1.009" transform="rotate(90 213.844 115.193)"/><rect width="4.035" height="4.035" x="213.844" y="121.245" fill="#fff" opacity=".4" rx="1.009" transform="rotate(90 213.844 121.245)"/><rect width="4.035" height="4.035" x="213.844" y="127.297" fill="#fff" opacity=".32" rx="1.009" transform="rotate(90 213.844 127.297)"/><rect width="4.035" height="4.035" x="213.844" y="133.35" fill="#fff" opacity=".16" rx="1.009" transform="rotate(90 213.844 133.35)"/><rect width="4.035" height="4.035" x="213.844" y="139.401" fill="#fff" opacity=".8" rx="1.009" transform="rotate(90 213.844 139.401)"/><rect width="4.035" height="4.035" x="213.844" y="145.454" fill="#fff" opacity=".8" rx="1.009" transform="rotate(90 213.844 145.454)"/><rect width="4.035" height="4.035" x="213.844" y="151.506" fill="#fff" opacity=".64" rx="1.009" transform="rotate(90 213.844 151.506)"/><rect width="4.035" height="4.035" x="213.844" y="157.558" fill="#fff" opacity=".4" rx="1.009" transform="rotate(90 213.844 157.558)"/><rect width="4.035" height="4.035" x="213.844" y="163.61" fill="#fff" opacity=".8" rx="1.009" transform="rotate(90 213.844 163.61)"/><rect width="4.035" height="4.035" x="213.844" y="169.663" fill="#fff" opacity=".4" rx="1.009" transform="rotate(90 213.844 169.663)"/><rect width="4.035" height="4.035" x="213.844" y="175.715" fill="#fff" opacity=".16" rx="1.009" transform="rotate(90 213.844 175.715)"/><rect width="4.035" height="4.035" x="213.844" y="181.767" fill="#fff" opacity=".32" rx="1.009" transform="rotate(90 213.844 181.767)"/><rect width="4.035" height="4.035" x="213.844" y="187.819" fill="#fff" opacity=".16" rx="1.009" transform="rotate(90 213.844 187.819)"/><rect width="4.035" height="4.035" x="213.844" y="193.871" fill="#fff" opacity=".64" rx="1.009" transform="rotate(90 213.844 193.871)"/><rect width="4.035" height="4.035" x="213.844" y="199.923" fill="#fff" opacity=".16" rx="1.009" transform="rotate(90 213.844 199.923)"/><rect width="4.035" height="4.035" x="213.844" y="205.976" fill="#fff" opacity=".64" rx="1.009" transform="rotate(90 213.844 205.976)"/><rect width="4.035" height="4.035" x="213.844" y="212.028" fill="#fff" opacity=".32" rx="1.009" transform="rotate(90 213.844 212.028)"/><rect width="4.035" height="4.035" x="213.844" y="218.08" fill="#fff" opacity=".8" rx="1.009" transform="rotate(90 213.844 218.08)"/><rect width="4.035" height="4.035" x="213.844" y="224.132" fill="#fff" opacity=".4" rx="1.009" transform="rotate(90 213.844 224.132)"/><rect width="4.035" height="4.035" x="213.844" y="230.184" fill="#fff" opacity=".32" rx="1.009" transform="rotate(90 213.844 230.184)"/><rect width="4.035" height="4.035" x="213.844" y="236.236" fill="#fff" opacity=".32" rx="1.009" transform="rotate(90 213.844 236.236)"/><rect width="4.035" height="4.035" x="213.844" y="242.289" fill="#fff" opacity=".64" rx="1.009" transform="rotate(90 213.844 242.289)"/><rect width="4.035" height="4.035" x="213.844" y="248.341" fill="#fff" opacity=".4" rx="1.009" transform="rotate(90 213.844 248.341)"/><rect width="4.035" height="4.035" x="213.844" y="254.393" fill="#fff" opacity=".16" rx="1.009" transform="rotate(90 213.844 254.393)"/><rect width="4.035" height="4.035" x="213.844" y="260.445" fill="#fff" opacity=".8" rx="1.009" transform="rotate(90 213.844 260.445)"/><rect width="4.035" height="4.035" x="213.844" y="266.497" fill="#fff" opacity=".8" rx="1.009" transform="rotate(90 213.844 266.497)"/><rect width="4.035" height="4.035" x="213.844" y="272.549" fill="#fff" opacity=".8" rx="1.009" transform="rotate(90 213.844 272.549)"/><rect width="4.035" height="4.035" x="213.844" y="278.602" fill="#fff" opacity=".64" rx="1.009" transform="rotate(90 213.844 278.602)"/><rect width="4.035" height="4.035" x="213.844" y="284.654" fill="#fff" opacity=".4" rx="1.009" transform="rotate(90 213.844 284.654)"/><rect width="4.035" height="4.035" x="213.844" y="290.706" fill="#fff" opacity=".4" rx="1.009" transform="rotate(90 213.844 290.706)"/><rect width="4.035" height="4.035" x="213.844" y="296.758" fill="#fff" opacity=".32" rx="1.009" transform="rotate(90 213.844 296.758)"/><rect width="4.035" height="4.035" x="213.844" y="302.811" fill="#fff" opacity=".16" rx="1.009" transform="rotate(90 213.844 302.811)"/><rect width="4.035" height="4.035" x="213.844" y="308.862" fill="#fff" opacity=".64" rx="1.009" transform="rotate(90 213.844 308.862)"/><rect width="4.035" height="4.035" x="213.844" y="314.915" fill="#fff" opacity=".32" rx="1.009" transform="rotate(90 213.844 314.915)"/><rect width="4.035" height="4.035" x="213.844" y="320.967" fill="#fff" opacity=".16" rx="1.009" transform="rotate(90 213.844 320.967)"/><rect width="4.035" height="4.035" fill="#fff" opacity=".64" rx="1.009" transform="matrix(-4.37114e-08 -1 -1 4.37114e-08 207.791 325.001)"/><rect width="4.035" height="4.035" fill="#fff" opacity=".4" rx="1.009" transform="matrix(-4.37114e-08 -1 -1 4.37114e-08 207.791 318.949)"/><rect width="4.035" height="4.035" fill="#fff" opacity=".32" rx="1.009" transform="matrix(-4.37114e-08 -1 -1 4.37114e-08 207.791 312.897)"/><rect width="4.035" height="4.035" fill="#fff" opacity=".16" rx="1.009" transform="matrix(-4.37114e-08 -1 -1 4.37114e-08 207.791 306.845)"/><rect width="4.035" height="4.035" fill="#fff" opacity=".8" rx="1.009" transform="matrix(-4.37114e-08 -1 -1 4.37114e-08 207.791 300.793)"/><rect width="4.035" height="4.035" fill="#fff" opacity=".64" rx="1.009" transform="matrix(-4.37114e-08 -1 -1 4.37114e-08 207.791 294.741)"/><rect width="4.035" height="4.035" fill="#fff" opacity=".4" rx="1.009" transform="matrix(-4.37114e-08 -1 -1 4.37114e-08 207.791 288.688)"/><rect width="4.035" height="4.035" fill="#fff" opacity=".32" rx="1.009" transform="matrix(-4.37114e-08 -1 -1 4.37114e-08 207.791 282.636)"/><rect width="4.035" height="4.035" fill="#fff" opacity=".16" rx="1.009" transform="matrix(-4.37114e-08 -1 -1 4.37114e-08 207.791 276.584)"/><rect width="4.035" height="4.035" fill="#fff" opacity=".4" rx="1.009" transform="matrix(-4.37114e-08 -1 -1 4.37114e-08 207.791 270.532)"/><rect width="4.035" height="4.035" fill="#fff" opacity=".32" rx="1.009" transform="matrix(-4.37114e-08 -1 -1 4.37114e-08 207.791 264.479)"/><rect width="4.035" height="4.035" fill="#fff" opacity=".8" rx="1.009" transform="matrix(-4.37114e-08 -1 -1 4.37114e-08 207.791 258.428)"/><rect width="4.035" height="4.035" fill="#fff" opacity=".16" rx="1.009" transform="matrix(-4.37114e-08 -1 -1 4.37114e-08 207.791 252.375)"/><rect width="4.035" height="4.035" fill="#fff" opacity=".4" rx="1.009" transform="matrix(-4.37114e-08 -1 -1 4.37114e-08 207.791 246.323)"/><rect width="4.035" height="4.035" fill="#fff" opacity=".32" rx="1.009" transform="matrix(-4.37114e-08 -1 -1 4.37114e-08 207.791 240.271)"/><rect width="4.035" height="4.035" fill="#fff" opacity=".32" rx="1.009" transform="matrix(-4.37114e-08 -1 -1 4.37114e-08 207.791 234.219)"/><rect width="4.035" height="4.035" fill="#fff" opacity=".32" rx="1.009" transform="matrix(-4.37114e-08 -1 -1 4.37114e-08 207.791 228.167)"/><rect width="4.035" height="4.035" fill="#fff" opacity=".64" rx="1.009" transform="matrix(-4.37114e-08 -1 -1 4.37114e-08 207.791 222.115)"/><rect width="4.035" height="4.035" fill="#fff" opacity=".16" rx="1.009" transform="matrix(-4.37114e-08 -1 -1 4.37114e-08 207.791 216.062)"/><rect width="4.035" height="4.035" fill="#fff" opacity=".64" rx="1.009" transform="matrix(-4.37114e-08 -1 -1 4.37114e-08 207.791 210.01)"/><rect width="4.035" height="4.035" fill="#fff" opacity=".4" rx="1.009" transform="matrix(-4.37114e-08 -1 -1 4.37114e-08 207.791 203.958)"/><rect width="4.035" height="4.035" fill="#fff" opacity=".32" rx="1.009" transform="matrix(-4.37114e-08 -1 -1 4.37114e-08 207.791 197.906)"/><rect width="4.035" height="4.035" fill="#fff" opacity=".16" rx="1.009" transform="matrix(-4.37114e-08 -1 -1 4.37114e-08 207.791 191.854)"/><rect width="4.035" height="4.035" fill="#fff" opacity=".8" rx="1.009" transform="matrix(-4.37114e-08 -1 -1 4.37114e-08 207.791 185.802)"/><rect width="4.035" height="4.035" fill="#fff" opacity=".8" rx="1.009" transform="matrix(-4.37114e-08 -1 -1 4.37114e-08 207.791 179.75)"/><rect width="4.035" height="4.035" fill="#fff" opacity=".64" rx="1.009" transform="matrix(-4.37114e-08 -1 -1 4.37114e-08 207.791 173.697)"/><rect width="4.035" height="4.035" fill="#fff" opacity=".4" rx="1.009" transform="matrix(-4.37114e-08 -1 -1 4.37114e-08 207.791 167.645)"/><rect width="4.035" height="4.035" fill="#fff" opacity=".8" rx="1.009" transform="matrix(-4.37114e-08 -1 -1 4.37114e-08 207.791 161.593)"/><rect width="4.035" height="4.035" fill="#fff" opacity=".4" rx="1.009" transform="matrix(-4.37114e-08 -1 -1 4.37114e-08 207.791 155.541)"/><rect width="4.035" height="4.035" fill="#fff" opacity=".16" rx="1.009" transform="matrix(-4.37114e-08 -1 -1 4.37114e-08 207.791 149.488)"/><rect width="4.035" height="4.035" fill="#fff" opacity=".32" rx="1.009" transform="matrix(-4.37114e-08 -1 -1 4.37114e-08 207.791 143.437)"/><rect width="4.035" height="4.035" fill="#fff" opacity=".16" rx="1.009" transform="matrix(-4.37114e-08 -1 -1 4.37114e-08 207.791 137.384)"/><rect width="4.035" height="4.035" fill="#fff" opacity=".64" rx="1.009" transform="matrix(-4.37114e-08 -1 -1 4.37114e-08 207.791 131.332)"/><rect width="4.035" height="4.035" fill="#fff" opacity=".16" rx="1.009" transform="matrix(-4.37114e-08 -1 -1 4.37114e-08 207.791 125.28)"/><rect width="4.035" height="4.035" fill="#fff" opacity=".64" rx="1.009" transform="matrix(-4.37114e-08 -1 -1 4.37114e-08 207.791 119.228)"/><rect width="4.035" height="4.035" fill="#fff" opacity=".32" rx="1.009" transform="matrix(-4.37114e-08 -1 -1 4.37114e-08 207.791 113.175)"/><rect width="4.035" height="4.035" fill="#fff" opacity=".8" rx="1.009" transform="matrix(-4.37114e-08 -1 -1 4.37114e-08 207.791 107.124)"/><rect width="4.035" height="4.035" fill="#fff" opacity=".4" rx="1.009" transform="matrix(-4.37114e-08 -1 -1 4.37114e-08 207.791 101.071)"/><rect width="4.035" height="4.035" fill="#fff" opacity=".32" rx="1.009" transform="matrix(-4.37114e-08 -1 -1 4.37114e-08 207.791 95.019)"/><rect width="4.035" height="4.035" fill="#fff" opacity=".32" rx="1.009" transform="matrix(-4.37114e-08 -1 -1 4.37114e-08 207.791 88.9668)"/><rect width="4.035" height="4.035" fill="#fff" opacity=".64" rx="1.009" transform="matrix(-4.37114e-08 -1 -1 4.37114e-08 207.791 82.9146)"/><rect width="4.035" height="4.035" fill="#fff" opacity=".4" rx="1.009" transform="matrix(-4.37114e-08 -1 -1 4.37114e-08 207.791 76.8623)"/><rect width="4.035" height="4.035" fill="#fff" opacity=".16" rx="1.009" transform="matrix(-4.37114e-08 -1 -1 4.37114e-08 207.791 70.8101)"/><rect width="4.035" height="4.035" fill="#fff" opacity=".8" rx="1.009" transform="matrix(-4.37114e-08 -1 -1 4.37114e-08 207.791 64.7583)"/><rect width="4.035" height="4.035" fill="#fff" opacity=".8" rx="1.009" transform="matrix(-4.37114e-08 -1 -1 4.37114e-08 207.791 58.7061)"/><rect width="4.035" height="4.035" fill="#fff" opacity=".8" rx="1.009" transform="matrix(-4.37114e-08 -1 -1 4.37114e-08 207.791 52.6538)"/><rect width="4.035" height="4.035" fill="#fff" opacity=".64" rx="1.009" transform="matrix(-4.37114e-08 -1 -1 4.37114e-08 207.791 46.6016)"/><rect width="4.035" height="4.035" fill="#fff" opacity=".4" rx="1.009" transform="matrix(-4.37114e-08 -1 -1 4.37114e-08 207.791 40.5493)"/><rect width="4.035" height="4.035" fill="#fff" opacity=".4" rx="1.009" transform="matrix(-4.37114e-08 -1 -1 4.37114e-08 207.791 34.4971)"/><rect width="4.035" height="4.035" fill="#fff" opacity=".32" rx="1.009" transform="matrix(-4.37114e-08 -1 -1 4.37114e-08 207.791 28.4448)"/><rect width="4.035" height="4.035" fill="#fff" opacity=".16" rx="1.009" transform="matrix(-4.37114e-08 -1 -1 4.37114e-08 207.791 22.3926)"/><rect width="4.035" height="4.035" fill="#fff" opacity=".64" rx="1.009" transform="matrix(-4.37114e-08 -1 -1 4.37114e-08 207.791 16.3408)"/><rect width="4.035" height="4.035" fill="#fff" opacity=".32" rx="1.009" transform="matrix(-4.37114e-08 -1 -1 4.37114e-08 207.791 10.2886)"/><rect width="4.035" height="4.035" fill="#fff" opacity=".16" rx="1.009" transform="matrix(-4.37114e-08 -1 -1 4.37114e-08 207.791 4.23633)"/><rect width="4.035" height="4.035" x="201.738" y=".202" fill="#fff" opacity=".4" rx="1.009" transform="rotate(90 201.738 0.20166)"/><rect width="4.035" height="4.035" x="201.738" y="6.254" fill="#fff" opacity=".32" rx="1.009" transform="rotate(90 201.738 6.25391)"/><rect width="4.035" height="4.035" x="201.738" y="12.306" fill="#fff" opacity=".16" rx="1.009" transform="rotate(90 201.738 12.3062)"/><rect width="4.035" height="4.035" x="201.738" y="18.358" fill="#fff" opacity=".8" rx="1.009" transform="rotate(90 201.738 18.3584)"/><rect width="4.035" height="4.035" x="201.738" y="24.41" fill="#fff" opacity=".8" rx="1.009" transform="rotate(90 201.738 24.4102)"/><rect width="4.035" height="4.035" x="201.738" y="30.462" fill="#fff" opacity=".64" rx="1.009" transform="rotate(90 201.738 30.4624)"/><rect width="4.035" height="4.035" x="201.738" y="36.515" fill="#fff" opacity=".32" rx="1.009" transform="rotate(90 201.738 36.5146)"/><rect width="4.035" height="4.035" x="201.738" y="42.567" fill="#fff" opacity=".32" rx="1.009" transform="rotate(90 201.738 42.5669)"/><rect width="4.035" height="4.035" x="201.738" y="48.619" fill="#fff" opacity=".32" rx="1.009" transform="rotate(90 201.738 48.6191)"/><rect width="4.035" height="4.035" x="201.738" y="54.671" fill="#fff" opacity=".64" rx="1.009" transform="rotate(90 201.738 54.6714)"/><rect width="4.035" height="4.035" x="201.738" y="60.724" fill="#fff" opacity=".16" rx="1.009" transform="rotate(90 201.738 60.7236)"/><rect width="4.035" height="4.035" x="201.738" y="66.775" fill="#fff" opacity=".64" rx="1.009" transform="rotate(90 201.738 66.7754)"/><rect width="4.035" height="4.035" x="201.738" y="72.828" fill="#fff" opacity=".4" rx="1.009" transform="rotate(90 201.738 72.8276)"/><rect width="4.035" height="4.035" x="201.738" y="78.88" fill="#fff" opacity=".4" rx="1.009" transform="rotate(90 201.738 78.8799)"/><rect width="4.035" height="4.035" x="201.738" y="84.932" fill="#fff" opacity=".8" rx="1.009" transform="rotate(90 201.738 84.9321)"/><rect width="4.035" height="4.035" x="201.738" y="90.984" fill="#fff" opacity=".4" rx="1.009" transform="rotate(90 201.738 90.9844)"/><rect width="4.035" height="4.035" x="201.738" y="97.037" fill="#fff" opacity=".4" rx="1.009" transform="rotate(90 201.738 97.0366)"/><rect width="4.035" height="4.035" x="201.738" y="103.088" fill="#fff" opacity=".16" rx="1.009" transform="rotate(90 201.738 103.088)"/><rect width="4.035" height="4.035" x="201.738" y="109.141" fill="#fff" opacity=".8" rx="1.009" transform="rotate(90 201.738 109.141)"/><rect width="4.035" height="4.035" x="201.738" y="115.193" fill="#fff" opacity=".8" rx="1.009" transform="rotate(90 201.738 115.193)"/><rect width="4.035" height="4.035" x="201.738" y="121.245" fill="#fff" opacity=".8" rx="1.009" transform="rotate(90 201.738 121.245)"/><rect width="4.035" height="4.035" x="201.738" y="127.297" fill="#fff" opacity=".64" rx="1.009" transform="rotate(90 201.738 127.297)"/><rect width="4.035" height="4.035" x="201.738" y="133.35" fill="#fff" opacity=".4" rx="1.009" transform="rotate(90 201.738 133.35)"/><rect width="4.035" height="4.035" x="201.738" y="139.401" fill="#fff" opacity=".4" rx="1.009" transform="rotate(90 201.738 139.401)"/><rect width="4.035" height="4.035" x="201.738" y="145.454" fill="#fff" opacity=".32" rx="1.009" transform="rotate(90 201.738 145.454)"/><rect width="4.035" height="4.035" x="201.738" y="151.506" fill="#fff" opacity=".16" rx="1.009" transform="rotate(90 201.738 151.506)"/><rect width="4.035" height="4.035" x="201.738" y="157.558" fill="#fff" opacity=".64" rx="1.009" transform="rotate(90 201.738 157.558)"/><rect width="4.035" height="4.035" x="201.738" y="163.61" fill="#fff" opacity=".32" rx="1.009" transform="rotate(90 201.738 163.61)"/><rect width="4.035" height="4.035" x="201.738" y="169.663" fill="#fff" opacity=".16" rx="1.009" transform="rotate(90 201.738 169.663)"/><rect width="4.035" height="4.035" x="201.738" y="175.715" fill="#fff" opacity=".16" rx="1.009" transform="rotate(90 201.738 175.715)"/><rect width="4.035" height="4.035" x="201.738" y="181.767" fill="#fff" opacity=".64" rx="1.009" transform="rotate(90 201.738 181.767)"/><rect width="4.035" height="4.035" x="201.738" y="187.819" fill="#fff" opacity=".4" rx="1.009" transform="rotate(90 201.738 187.819)"/><rect width="4.035" height="4.035" x="201.738" y="193.871" fill="#fff" opacity=".32" rx="1.009" transform="rotate(90 201.738 193.871)"/><rect width="4.035" height="4.035" x="201.738" y="199.923" fill="#fff" opacity=".16" rx="1.009" transform="rotate(90 201.738 199.923)"/><rect width="4.035" height="4.035" x="201.738" y="205.976" fill="#fff" opacity=".32" rx="1.009" transform="rotate(90 201.738 205.976)"/><rect width="4.035" height="4.035" x="201.738" y="212.028" fill="#fff" opacity=".32" rx="1.009" transform="rotate(90 201.738 212.028)"/><rect width="4.035" height="4.035" x="201.738" y="218.08" fill="#fff" opacity=".64" rx="1.009" transform="rotate(90 201.738 218.08)"/><rect width="4.035" height="4.035" x="201.738" y="224.132" fill="#fff" opacity=".4" rx="1.009" transform="rotate(90 201.738 224.132)"/><rect width="4.035" height="4.035" x="201.738" y="230.184" fill="#fff" opacity=".8" rx="1.009" transform="rotate(90 201.738 230.184)"/><rect width="4.035" height="4.035" x="201.738" y="236.236" fill="#fff" opacity=".64" rx="1.009" transform="rotate(90 201.738 236.236)"/><rect width="4.035" height="4.035" x="201.738" y="242.289" fill="#fff" opacity=".4" rx="1.009" transform="rotate(90 201.738 242.289)"/><rect width="4.035" height="4.035" x="201.738" y="248.341" fill="#fff" opacity=".32" rx="1.009" transform="rotate(90 201.738 248.341)"/><rect width="4.035" height="4.035" x="201.738" y="254.393" fill="#fff" opacity=".16" rx="1.009" transform="rotate(90 201.738 254.393)"/><rect width="4.035" height="4.035" x="201.738" y="260.445" fill="#fff" opacity=".4" rx="1.009" transform="rotate(90 201.738 260.445)"/><rect width="4.035" height="4.035" x="201.738" y="266.497" fill="#fff" opacity=".32" rx="1.009" transform="rotate(90 201.738 266.497)"/><rect width="4.035" height="4.035" x="201.738" y="272.549" fill="#fff" opacity=".8" rx="1.009" transform="rotate(90 201.738 272.549)"/><rect width="4.035" height="4.035" x="201.738" y="278.602" fill="#fff" opacity=".16" rx="1.009" transform="rotate(90 201.738 278.602)"/><rect width="4.035" height="4.035" x="201.738" y="284.654" fill="#fff" opacity=".32" rx="1.009" transform="rotate(90 201.738 284.654)"/><rect width="4.035" height="4.035" x="201.738" y="290.706" fill="#fff" opacity=".16" rx="1.009" transform="rotate(90 201.738 290.706)"/><rect width="4.035" height="4.035" x="201.738" y="296.758" fill="#fff" opacity=".64" rx="1.009" transform="rotate(90 201.738 296.758)"/><rect width="4.035" height="4.035" x="201.738" y="302.811" fill="#fff" opacity=".16" rx="1.009" transform="rotate(90 201.738 302.811)"/><rect width="4.035" height="4.035" x="201.738" y="308.862" fill="#fff" opacity=".64" rx="1.009" transform="rotate(90 201.738 308.862)"/><rect width="4.035" height="4.035" x="201.738" y="314.915" fill="#fff" opacity=".32" rx="1.009" transform="rotate(90 201.738 314.915)"/><rect width="4.035" height="4.035" x="201.738" y="320.967" fill="#fff" opacity=".8" rx="1.009" transform="rotate(90 201.738 320.967)"/><rect width="4.035" height="4.035" x="195.688" y=".202" fill="#fff" opacity=".64" rx="1.009" transform="rotate(90 195.688 0.20166)"/><rect width="4.035" height="4.035" x="195.688" y="6.254" fill="#fff" opacity=".4" rx="1.009" transform="rotate(90 195.688 6.25391)"/><rect width="4.035" height="4.035" x="195.688" y="12.306" fill="#fff" opacity=".32" rx="1.009" transform="rotate(90 195.688 12.3062)"/><rect width="4.035" height="4.035" x="195.688" y="18.358" fill="#fff" opacity=".16" rx="1.009" transform="rotate(90 195.688 18.3584)"/><rect width="4.035" height="4.035" x="195.688" y="24.41" fill="#fff" opacity=".8" rx="1.009" transform="rotate(90 195.688 24.4102)"/><rect width="4.035" height="4.035" x="195.688" y="30.462" fill="#fff" opacity=".64" rx="1.009" transform="rotate(90 195.688 30.4624)"/><rect width="4.035" height="4.035" x="195.688" y="36.515" fill="#fff" opacity=".4" rx="1.009" transform="rotate(90 195.688 36.5146)"/><rect width="4.035" height="4.035" x="195.688" y="42.567" fill="#fff" opacity=".32" rx="1.009" transform="rotate(90 195.688 42.5669)"/><rect width="4.035" height="4.035" x="195.688" y="48.619" fill="#fff" opacity=".16" rx="1.009" transform="rotate(90 195.688 48.6191)"/><rect width="4.035" height="4.035" x="195.688" y="54.671" fill="#fff" opacity=".4" rx="1.009" transform="rotate(90 195.688 54.6714)"/><rect width="4.035" height="4.035" x="195.688" y="60.724" fill="#fff" opacity=".32" rx="1.009" transform="rotate(90 195.688 60.7236)"/><rect width="4.035" height="4.035" x="195.688" y="66.775" fill="#fff" opacity=".8" rx="1.009" transform="rotate(90 195.688 66.7754)"/><rect width="4.035" height="4.035" x="195.688" y="72.828" fill="#fff" opacity=".16" rx="1.009" transform="rotate(90 195.688 72.8276)"/><rect width="4.035" height="4.035" x="195.688" y="78.88" fill="#fff" opacity=".4" rx="1.009" transform="rotate(90 195.688 78.8799)"/><rect width="4.035" height="4.035" x="195.688" y="84.932" fill="#fff" opacity=".32" rx="1.009" transform="rotate(90 195.688 84.9321)"/><rect width="4.035" height="4.035" x="195.688" y="90.984" fill="#fff" opacity=".32" rx="1.009" transform="rotate(90 195.688 90.9844)"/><rect width="4.035" height="4.035" x="195.688" y="97.037" fill="#fff" opacity=".32" rx="1.009" transform="rotate(90 195.688 97.0366)"/><rect width="4.035" height="4.035" x="195.688" y="103.088" fill="#fff" opacity=".64" rx="1.009" transform="rotate(90 195.688 103.088)"/><rect width="4.035" height="4.035" x="195.688" y="109.141" fill="#fff" opacity=".16" rx="1.009" transform="rotate(90 195.688 109.141)"/><rect width="4.035" height="4.035" x="195.688" y="115.193" fill="#fff" opacity=".64" rx="1.009" transform="rotate(90 195.688 115.193)"/><rect width="4.035" height="4.035" x="195.688" y="121.245" fill="#fff" opacity=".4" rx="1.009" transform="rotate(90 195.688 121.245)"/><rect width="4.035" height="4.035" x="195.688" y="127.297" fill="#fff" opacity=".32" rx="1.009" transform="rotate(90 195.688 127.297)"/><rect width="4.035" height="4.035" x="195.688" y="133.35" fill="#fff" opacity=".16" rx="1.009" transform="rotate(90 195.688 133.35)"/><rect width="4.035" height="4.035" x="195.688" y="139.401" fill="#fff" opacity=".8" rx="1.009" transform="rotate(90 195.688 139.401)"/><rect width="4.035" height="4.035" x="195.688" y="145.454" fill="#fff" opacity=".8" rx="1.009" transform="rotate(90 195.688 145.454)"/><rect width="4.035" height="4.035" x="195.688" y="151.506" fill="#fff" opacity=".64" rx="1.009" transform="rotate(90 195.688 151.506)"/><rect width="4.035" height="4.035" x="195.688" y="157.558" fill="#fff" opacity=".4" rx="1.009" transform="rotate(90 195.688 157.558)"/><rect width="4.035" height="4.035" x="195.688" y="163.61" fill="#fff" opacity=".8" rx="1.009" transform="rotate(90 195.688 163.61)"/><rect width="4.035" height="4.035" x="195.688" y="169.663" fill="#fff" opacity=".4" rx="1.009" transform="rotate(90 195.688 169.663)"/><rect width="4.035" height="4.035" x="195.688" y="175.715" fill="#fff" opacity=".16" rx="1.009" transform="rotate(90 195.688 175.715)"/><rect width="4.035" height="4.035" x="195.688" y="181.767" fill="#fff" opacity=".32" rx="1.009" transform="rotate(90 195.688 181.767)"/><rect width="4.035" height="4.035" x="195.688" y="187.819" fill="#fff" opacity=".16" rx="1.009" transform="rotate(90 195.688 187.819)"/><rect width="4.035" height="4.035" x="195.688" y="193.871" fill="#fff" opacity=".64" rx="1.009" transform="rotate(90 195.688 193.871)"/><rect width="4.035" height="4.035" x="195.688" y="199.923" fill="#fff" opacity=".16" rx="1.009" transform="rotate(90 195.688 199.923)"/><rect width="4.035" height="4.035" x="195.688" y="205.976" fill="#fff" opacity=".64" rx="1.009" transform="rotate(90 195.688 205.976)"/><rect width="4.035" height="4.035" x="195.688" y="212.028" fill="#fff" opacity=".32" rx="1.009" transform="rotate(90 195.688 212.028)"/><rect width="4.035" height="4.035" x="195.688" y="218.08" fill="#fff" opacity=".8" rx="1.009" transform="rotate(90 195.688 218.08)"/><rect width="4.035" height="4.035" x="195.688" y="224.132" fill="#fff" opacity=".4" rx="1.009" transform="rotate(90 195.688 224.132)"/><rect width="4.035" height="4.035" x="195.688" y="230.184" fill="#fff" opacity=".32" rx="1.009" transform="rotate(90 195.688 230.184)"/><rect width="4.035" height="4.035" x="195.688" y="236.236" fill="#fff" opacity=".32" rx="1.009" transform="rotate(90 195.688 236.236)"/><rect width="4.035" height="4.035" x="195.688" y="242.289" fill="#fff" opacity=".64" rx="1.009" transform="rotate(90 195.688 242.289)"/><rect width="4.035" height="4.035" x="195.688" y="248.341" fill="#fff" opacity=".4" rx="1.009" transform="rotate(90 195.688 248.341)"/><rect width="4.035" height="4.035" x="195.688" y="254.393" fill="#fff" opacity=".16" rx="1.009" transform="rotate(90 195.688 254.393)"/><rect width="4.035" height="4.035" x="195.688" y="260.445" fill="#fff" opacity=".8" rx="1.009" transform="rotate(90 195.688 260.445)"/><rect width="4.035" height="4.035" x="195.688" y="266.497" fill="#fff" opacity=".8" rx="1.009" transform="rotate(90 195.688 266.497)"/><rect width="4.035" height="4.035" x="195.688" y="272.549" fill="#fff" opacity=".8" rx="1.009" transform="rotate(90 195.688 272.549)"/><rect width="4.035" height="4.035" x="195.688" y="278.602" fill="#fff" opacity=".64" rx="1.009" transform="rotate(90 195.688 278.602)"/><rect width="4.035" height="4.035" x="195.688" y="284.654" fill="#fff" opacity=".4" rx="1.009" transform="rotate(90 195.688 284.654)"/><rect width="4.035" height="4.035" x="195.688" y="290.706" fill="#fff" opacity=".4" rx="1.009" transform="rotate(90 195.688 290.706)"/><rect width="4.035" height="4.035" x="195.688" y="296.758" fill="#fff" opacity=".32" rx="1.009" transform="rotate(90 195.688 296.758)"/><rect width="4.035" height="4.035" x="195.688" y="302.811" fill="#fff" opacity=".16" rx="1.009" transform="rotate(90 195.688 302.811)"/><rect width="4.035" height="4.035" x="195.688" y="308.862" fill="#fff" opacity=".64" rx="1.009" transform="rotate(90 195.688 308.862)"/><rect width="4.035" height="4.035" x="195.688" y="314.915" fill="#fff" opacity=".32" rx="1.009" transform="rotate(90 195.688 314.915)"/><rect width="4.035" height="4.035" x="195.688" y="320.967" fill="#fff" opacity=".16" rx="1.009" transform="rotate(90 195.688 320.967)"/></g></g><mask id="mask2_2060_26179" width="232" height="326" x="0" y="0" maskUnits="userSpaceOnUse" style="mask-type:alpha"><path fill="#000" fill-rule="evenodd" d="M8.06956 0.20166C3.61287 0.20166 0 3.81452 0 8.27122V316.932C0 321.389 3.61286 325.002 8.06956 325.002H223.93C228.387 325.002 232 321.389 232 316.932V8.27122C232 3.81453 228.387 0.20166 223.93 0.20166H8.06956ZM97.8435 8.27122C96.7293 8.27122 95.8261 9.17444 95.8261 10.2886C95.8261 11.4028 96.7293 12.306 97.8435 12.306H134.157C135.271 12.306 136.174 11.4028 136.174 10.2886C136.174 9.17444 135.271 8.27122 134.157 8.27122H97.8435Z" clip-rule="evenodd"/><path fill="url(#paint3_linear_2060_26179)" fill-opacity=".2" fill-rule="evenodd" d="M8.06956 0.20166C3.61287 0.20166 0 3.81452 0 8.27122V316.932C0 321.389 3.61286 325.002 8.06956 325.002H223.93C228.387 325.002 232 321.389 232 316.932V8.27122C232 3.81453 228.387 0.20166 223.93 0.20166H8.06956ZM97.8435 8.27122C96.7293 8.27122 95.8261 9.17444 95.8261 10.2886C95.8261 11.4028 96.7293 12.306 97.8435 12.306H134.157C135.271 12.306 136.174 11.4028 136.174 10.2886C136.174 9.17444 135.271 8.27122 134.157 8.27122H97.8435Z" clip-rule="evenodd"/></mask><g mask="url(#mask2_2060_26179)"><rect width="386.761" height="443.771" x="-9.033" y="-87.05" fill="url(#paint4_linear_2060_26179)" rx="8.07" transform="rotate(16.309 -9.0332 -87.0505)" style="mix-blend-mode:overlay"/><rect width="386.761" height="443.771" x="-9.033" y="-87.05" fill="url(#paint5_linear_2060_26179)" fill-opacity=".64" rx="8.07" transform="rotate(16.309 -9.0332 -87.0505)" style="mix-blend-mode:overlay"/></g><path stroke="url(#paint6_linear_2060_26179)" stroke-width="1.009" d="M67.7438 230.729L68.1542 231.044L67.9648 231.423L68.3268 231.604C88.5976 242.822 102.845 263.602 104.999 288.101H-40.443C-38.3791 263.742 -24.0999 242.854 -3.38319 231.413L-2.93321 231.165L-3.19024 230.719L-15.3854 209.598L-15.386 209.598C-15.56 209.298 -15.6598 208.953 -15.6598 208.58C-15.6598 207.456 -14.7521 206.548 -13.6284 206.548C-12.8833 206.548 -12.2245 206.953 -11.8659 207.568C-11.8657 207.568 -11.8656 207.568 -11.8654 207.568L0.365345 228.758L0.628616 229.367L1.10743 229.172L1.64262 228.953L1.62403 228.921C11.0034 224.794 21.3733 222.501 32.2792 222.501C43.5668 222.501 54.278 224.957 63.4311 229.163L63.8486 229.355L64.0784 228.957L76.425 207.571L76.4326 207.558L76.4365 207.55C76.791 206.954 77.4402 206.558 78.182 206.558C79.3057 206.558 80.2134 207.466 80.2134 208.589C80.2134 208.968 80.1107 209.319 79.9422 209.602L79.939 209.608L67.7438 230.729ZM-1.45281 268.242H-1.45208C2.19741 268.237 5.1487 265.28 5.154 261.636V261.635C5.154 257.986 2.19699 255.029 -1.45281 255.029C-5.1026 255.029 -8.0596 257.986 -8.0596 261.635C-8.0596 265.285 -5.1026 268.242 -1.45281 268.242ZM65.9917 268.242H65.9925C69.642 268.237 72.5932 265.28 72.5985 261.636V261.635C72.5985 257.986 69.6415 255.029 65.9917 255.029C62.3419 255.029 59.3849 257.986 59.3849 261.635C59.3849 265.285 62.3419 268.242 65.9917 268.242Z"/><path fill="#fff" d="M24.0868 46.5664C22.0694 46.5664 20.4622 45.9141 19.2652 44.6095C18.0816 43.2915 17.4899 41.5498 17.4899 39.3844C17.4899 37.2326 18.1018 35.4976 19.3257 34.1796C20.5496 32.8615 22.1837 32.2025 24.228 32.2025C25.7881 32.2025 27.0994 32.6262 28.1619 33.4735C29.2378 34.3208 29.9036 35.4774 30.1591 36.9434L28.3031 36.9434C28.0341 35.9616 27.5365 35.195 26.8102 34.6436C26.084 34.0922 25.1963 33.8164 24.1473 33.8164C22.6813 33.8164 21.5045 34.3342 20.6168 35.3698C19.7292 36.392 19.2854 37.7302 19.2854 39.3844C19.2854 41.0387 19.7157 42.3836 20.5765 43.4192C21.4372 44.4414 22.6006 44.9524 24.0666 44.9524C25.156 44.9524 26.0638 44.6835 26.7901 44.1455C27.5163 43.5941 28.0139 42.8207 28.2829 41.8255L30.1389 41.8255C29.8834 43.2915 29.2109 44.4481 28.1215 45.2954C27.0321 46.1427 25.6872 46.5664 24.0868 46.5664ZM40.9129 44.9323L41.4374 44.9323L41.4374 46.4453L40.5296 46.4453C39.8706 46.4453 39.3999 46.3108 39.1174 46.0418C38.835 45.7728 38.687 45.3761 38.6736 44.8516C37.8801 45.9948 36.7302 46.5664 35.2239 46.5664C34.0807 46.5664 33.1594 46.2974 32.46 45.7594C31.7741 45.2214 31.4312 44.4884 31.4312 43.5604C31.4312 42.5248 31.7808 41.7313 32.4802 41.1799C33.193 40.6285 34.2219 40.3528 35.5668 40.3528L38.5929 40.3528L38.5929 39.6467C38.5929 38.9742 38.3643 38.4497 37.907 38.0731C37.4632 37.6966 36.8378 37.5083 36.0308 37.5083C35.318 37.5083 34.7262 37.6697 34.2555 37.9924C33.7982 38.3018 33.5158 38.7187 33.4082 39.2432L31.7539 39.2432C31.875 38.2345 32.3188 37.4477 33.0854 36.8829C33.8655 36.318 34.8742 36.0356 36.1115 36.0356C37.4295 36.0356 38.445 36.3584 39.1578 37.0039C39.884 37.636 40.2472 38.5506 40.2472 39.7476L40.2472 44.2464C40.2472 44.5153 40.2942 44.6969 40.3884 44.7911C40.496 44.8852 40.6708 44.9323 40.9129 44.9323ZM38.5929 42.2491L38.5929 41.7448L35.4054 41.7448C33.8722 41.7448 33.1056 42.3164 33.1056 43.4596C33.1056 43.9706 33.3073 44.3808 33.7108 44.6902C34.1143 44.9995 34.659 45.1542 35.3449 45.1542C36.3536 45.1542 37.1471 44.8919 37.7254 44.3674C38.3037 43.8294 38.5929 43.1233 38.5929 42.2491ZM44.1213 34.1191C43.9196 34.3208 43.6641 34.4217 43.3547 34.4217C43.0454 34.4217 42.7899 34.3208 42.5881 34.1191C42.3864 33.9173 42.2855 33.6618 42.2855 33.3524C42.2855 33.0431 42.3864 32.7876 42.5881 32.5858C42.7899 32.3841 43.0454 32.2832 43.3547 32.2832C43.6641 32.2832 43.9196 32.3841 44.1213 32.5858C44.3231 32.7876 44.4239 33.0431 44.4239 33.3524C44.4239 33.6618 44.3231 33.9173 44.1213 34.1191ZM42.5074 46.4453L42.5074 36.1566L44.1617 36.1566L44.1617 46.4453L42.5074 46.4453ZM54.6387 45.1138C53.6973 46.0822 52.4734 46.5664 50.9671 46.5664C49.4608 46.5664 48.2301 46.0822 47.2752 45.1138C46.3338 44.132 45.8631 42.8611 45.8631 41.301C45.8631 39.7409 46.3338 38.4766 47.2752 37.5083C48.2301 36.5265 49.4608 36.0356 50.9671 36.0356C52.4734 36.0356 53.6973 36.5265 54.6387 37.5083C55.5936 38.4766 56.0711 39.7409 56.0711 41.301C56.0711 42.8611 55.5936 44.132 54.6387 45.1138ZM48.5059 44.0244C49.138 44.7373 49.9584 45.0937 50.9671 45.0937C51.9758 45.0937 52.7962 44.7373 53.4283 44.0244C54.0604 43.3116 54.3765 42.4038 54.3765 41.301C54.3765 40.1981 54.0604 39.2903 53.4283 38.5775C52.7962 37.8647 51.9758 37.5083 50.9671 37.5083C49.9584 37.5083 49.138 37.8647 48.5059 38.5775C47.8737 39.2903 47.5577 40.1981 47.5577 41.301C47.5577 42.4038 47.8737 43.3116 48.5059 44.0244ZM63.7523 46.4453L61.9366 46.4453L67.3231 32.3236L69.401 32.3236L74.7672 46.4453L72.8911 46.4453L71.3982 42.6324L65.2452 42.6324L63.7523 46.4453ZM68.3116 34.2401L65.7697 41.0387L70.8737 41.0387L68.3116 34.2401ZM80.6823 36.1566L81.1463 36.1566L81.1463 37.7705L80.3192 37.7705C79.3374 37.7705 78.6313 38.1 78.2009 38.7591C77.784 39.4181 77.5755 40.2318 77.5755 41.2001L77.5755 46.4453L75.9213 46.4453L75.9213 36.1566L77.3536 36.1566L77.5755 37.71C78.2076 36.6744 79.2432 36.1566 80.6823 36.1566ZM83.9924 34.1191C83.7907 34.3208 83.5351 34.4217 83.2258 34.4217C82.9165 34.4217 82.6609 34.3208 82.4592 34.1191C82.2574 33.9173 82.1566 33.6618 82.1566 33.3524C82.1566 33.0431 82.2574 32.7876 82.4592 32.5858C82.6609 32.3841 82.9165 32.2832 83.2258 32.2832C83.5351 32.2832 83.7907 32.3841 83.9924 32.5858C84.1941 32.7876 84.295 33.0431 84.295 33.3524C84.295 33.6618 84.1941 33.9173 83.9924 34.1191ZM82.3785 46.4453L82.3785 36.1566L84.0327 36.1566L84.0327 46.4453L82.3785 46.4453ZM95.1957 44.9323L95.7202 44.9323L95.7202 46.4453L94.8124 46.4453C94.1534 46.4453 93.6827 46.3108 93.4002 46.0418C93.1178 45.7729 92.9698 45.3761 92.9564 44.8516C92.1629 45.9948 91.013 46.5664 89.5067 46.5664C88.3635 46.5664 87.4422 46.2974 86.7428 45.7594C86.0569 45.2214 85.714 44.4884 85.714 43.5604C85.714 42.5249 86.0636 41.7313 86.763 41.1799C87.4758 40.6285 88.5047 40.3528 89.8496 40.3528L92.8757 40.3528L92.8757 39.6467C92.8757 38.9742 92.6471 38.4497 92.1898 38.0731C91.746 37.6966 91.1206 37.5083 90.3136 37.5083C89.6008 37.5083 89.009 37.6697 88.5383 37.9924C88.081 38.3018 87.7986 38.7187 87.691 39.2432L86.0367 39.2432C86.1578 38.2345 86.6016 37.4478 87.3682 36.8829C88.1483 36.318 89.157 36.0356 90.3943 36.0356C91.7123 36.0356 92.7278 36.3584 93.4406 37.0039C94.1668 37.636 94.53 38.5506 94.53 39.7476L94.53 44.2464C94.53 44.5153 94.577 44.6969 94.6712 44.7911C94.7788 44.8852 94.9536 44.9323 95.1957 44.9323ZM92.8757 42.2491L92.8757 41.7448L89.6882 41.7448C88.155 41.7448 87.3884 42.3164 87.3884 43.4596C87.3884 43.9706 87.5901 44.3809 87.9936 44.6902C88.3971 44.9995 88.9418 45.1542 89.6277 45.1542C90.6364 45.1542 91.4299 44.8919 92.0082 44.3674C92.5865 43.8294 92.8757 43.1233 92.8757 42.2491ZM96.3666 43.0561L98.0612 43.0561C98.0881 43.6748 98.3571 44.1791 98.8681 44.5691C99.3792 44.9592 100.058 45.1542 100.906 45.1542C101.632 45.1542 102.224 45.013 102.681 44.7305C103.152 44.4347 103.387 44.0513 103.387 43.5806C103.387 43.3251 103.333 43.1099 103.226 42.9351C103.132 42.7602 103.024 42.6257 102.903 42.5316C102.795 42.424 102.594 42.3366 102.298 42.2693C102.002 42.1886 101.773 42.1415 101.612 42.1281C101.45 42.1012 101.155 42.0609 100.724 42.0071C100.065 41.9264 99.5204 41.8389 99.09 41.7448C98.6597 41.6372 98.236 41.4825 97.8191 41.2808C97.4022 41.0656 97.0928 40.7832 96.8911 40.4335C96.6894 40.0704 96.5885 39.6333 96.5885 39.1222C96.5885 38.1942 96.9651 37.4478 97.7182 36.8829C98.4848 36.3046 99.4532 36.0221 100.623 36.0356C101.834 36.049 102.815 36.3382 103.569 36.9031C104.322 37.4545 104.739 38.248 104.819 39.2836L103.125 39.2836C103.058 38.7456 102.795 38.3085 102.338 37.9723C101.894 37.6226 101.323 37.4478 100.623 37.4478C99.897 37.4478 99.312 37.589 98.8681 37.8714C98.4378 38.1538 98.2226 38.5304 98.2226 39.0011C98.2226 39.2701 98.2764 39.492 98.384 39.6669C98.505 39.8417 98.7 39.9829 98.969 40.0905C99.2514 40.1847 99.507 40.2587 99.7356 40.3124C99.9777 40.3528 100.334 40.3999 100.805 40.4537C101.343 40.5209 101.793 40.5882 102.156 40.6554C102.52 40.7227 102.896 40.8302 103.286 40.9782C103.676 41.1261 103.986 41.301 104.214 41.5027C104.456 41.7044 104.651 41.9734 104.799 42.3097C104.947 42.6324 105.021 43.0158 105.021 43.4596C105.021 44.401 104.624 45.1542 103.831 45.7191C103.051 46.2839 102.076 46.5664 100.906 46.5664C99.5473 46.5664 98.4512 46.257 97.6174 45.6384C96.7969 45.0197 96.38 44.1589 96.3666 43.0561Z"/><path fill="#ADADB0" d="M17.2599 61.4852C17.2599 59.9924 17.8006 58.7456 18.8819 57.745C19.9632 56.7363 21.2826 56.2319 22.84 56.2319C24.3329 56.2319 25.5514 56.6435 26.4955 57.4666C27.4397 58.2897 27.9117 59.3428 27.9117 60.6258C27.9117 61.578 27.6696 62.3567 27.1855 62.962C26.7013 63.5672 26.084 63.8698 25.3335 63.8698C24.9704 63.8698 24.6718 63.781 24.4378 63.6035C24.2118 63.426 24.0827 63.2121 24.0504 62.962L24.0262 62.7804C23.889 63.1032 23.651 63.3654 23.3121 63.5672C22.9732 63.7608 22.5898 63.8577 22.1622 63.8577C21.5489 63.8577 21.0284 63.6438 20.6007 63.2161C20.1811 62.7804 19.9713 62.2236 19.9713 61.5457C19.9713 60.7791 20.2214 60.1255 20.7217 59.5848C21.2221 59.0361 21.8111 58.7617 22.489 58.7617C22.9409 58.7617 23.3121 58.8465 23.6026 59.0159C23.8931 59.1854 24.0868 59.4073 24.1836 59.6817L24.3652 58.8707L25.1398 58.8707L24.7767 62.3204C24.7202 62.8692 24.9542 63.1435 25.4788 63.1435C25.8822 63.1435 26.2292 62.9014 26.5197 62.4173C26.8183 61.925 26.9676 61.3198 26.9676 60.6016C26.9676 59.5445 26.5883 58.6891 25.8298 58.0355C25.0712 57.3818 24.0706 57.055 22.8279 57.055C21.4561 57.055 20.3425 57.4787 19.4871 58.326C18.6317 59.1652 18.204 60.2143 18.204 61.4731C18.204 62.74 18.5914 63.7366 19.3661 64.4629C20.1488 65.1811 21.2503 65.5402 22.6705 65.5402C23.7438 65.5402 24.6678 65.29 25.4424 64.7897L25.4182 65.6733C24.7242 66.1333 23.7801 66.3633 22.5858 66.3633C21.0122 66.3633 19.7292 65.9154 18.7366 65.0197C17.7521 64.132 17.2599 62.9539 17.2599 61.4852ZM24.0504 60.9526C24.0504 60.5007 23.9213 60.1457 23.6631 59.8874C23.4129 59.6212 23.0821 59.488 22.6705 59.488C22.1702 59.488 21.7466 59.6857 21.3996 60.0811C21.0607 60.4765 20.8912 60.9526 20.8912 61.5094C20.8912 61.9936 21.0203 62.385 21.2785 62.6836C21.5448 62.9821 21.8878 63.1314 22.3074 63.1314C22.8077 63.1314 23.2233 62.9297 23.5542 62.5262C23.885 62.1227 24.0504 61.5982 24.0504 60.9526ZM32.0565 64.5355C31.1366 64.5355 30.3942 64.245 29.8293 63.664C29.2725 63.083 28.9941 62.3204 28.9941 61.3763C28.9941 60.4402 29.2644 59.6817 29.8051 59.1007C30.3458 58.5116 31.0519 58.217 31.9234 58.217C32.803 58.217 33.505 58.4793 34.0295 59.0038C34.554 59.5203 34.8284 60.2344 34.8526 61.1463C34.8526 61.2351 34.8446 61.3763 34.8284 61.57L30.0351 61.57L30.0351 61.6547C30.0512 62.2518 30.2328 62.736 30.5798 63.1072C30.9348 63.4703 31.4029 63.6519 31.9839 63.6519C32.4277 63.6519 32.803 63.543 33.1096 63.3251C33.4243 63.0991 33.6341 62.7885 33.739 62.393L34.7437 62.393C34.6226 63.0225 34.32 63.5389 33.8359 63.9424C33.3517 64.3378 32.7586 64.5355 32.0565 64.5355ZM30.0956 60.7469L33.7874 60.7469C33.739 60.2223 33.5494 59.8148 33.2185 59.5243C32.8877 59.2338 32.46 59.0886 31.9355 59.0886C31.4674 59.0886 31.0559 59.2419 30.7008 59.5485C30.3458 59.8552 30.144 60.2546 30.0956 60.7469ZM35.9852 64.4629L35.9852 55.9898L36.9778 55.9898L36.9778 64.4629L35.9852 64.4629ZM43.2035 59.2338L43.2035 55.9898L44.196 55.9898L44.196 64.4629L43.3366 64.4629L43.2035 63.4703C42.687 64.1805 41.9809 64.5355 41.0852 64.5355C40.2137 64.5355 39.4996 64.2571 38.9428 63.7003C38.394 63.1354 38.1197 62.3608 38.1197 61.3763C38.1197 60.4402 38.3981 59.6817 38.9549 59.1007C39.5117 58.5116 40.2218 58.217 41.0852 58.217C42.0697 58.217 42.7758 58.556 43.2035 59.2338ZM41.1821 63.6519C41.7873 63.6519 42.2755 63.4421 42.6467 63.0225C43.026 62.6029 43.2156 62.0622 43.2156 61.4005C43.2156 60.7226 43.026 60.1699 42.6467 59.7422C42.2755 59.3145 41.7873 59.1007 41.1821 59.1007C40.5688 59.1007 40.0725 59.3145 39.6932 59.7422C39.322 60.1618 39.1364 60.7065 39.1364 61.3763C39.1364 62.0461 39.322 62.5948 39.6932 63.0225C40.0725 63.4421 40.5688 63.6519 41.1821 63.6519ZM51.0072 63.5551L51.3219 63.5551L51.3219 64.4629L50.7772 64.4629C50.3818 64.4629 50.0994 64.3822 49.9299 64.2208C49.7605 64.0594 49.6717 63.8214 49.6636 63.5066C49.1875 64.1926 48.4976 64.5355 47.5938 64.5355C46.9079 64.5355 46.3551 64.3741 45.9355 64.0513C45.5239 63.7286 45.3182 63.2888 45.3182 62.732C45.3182 62.1106 45.528 61.6345 45.9476 61.3037C46.3753 60.9728 46.9926 60.8074 47.7995 60.8074L49.6152 60.8074L49.6152 60.3837C49.6152 59.9802 49.478 59.6655 49.2037 59.4396C48.9374 59.2136 48.5621 59.1007 48.0779 59.1007C47.6503 59.1007 47.2952 59.1975 47.0128 59.3912C46.7384 59.5768 46.5689 59.8269 46.5044 60.1416L45.5118 60.1416C45.5845 59.5364 45.8507 59.0644 46.3107 58.7254C46.7787 58.3865 47.384 58.217 48.1264 58.217C48.9172 58.217 49.5264 58.4107 49.9541 58.7981C50.3899 59.1773 50.6078 59.7261 50.6078 60.4442L50.6078 63.1435C50.6078 63.3049 50.636 63.4138 50.6925 63.4703C50.757 63.5268 50.8619 63.5551 51.0072 63.5551ZM49.6152 61.9452L49.6152 61.6426L47.7027 61.6426C46.7828 61.6426 46.3228 61.9855 46.3228 62.6714C46.3228 62.9781 46.4439 63.2242 46.6859 63.4098C46.928 63.5954 47.2549 63.6882 47.6664 63.6882C48.2716 63.6882 48.7477 63.5309 49.0947 63.2161C49.4417 62.8934 49.6152 62.4697 49.6152 61.9452ZM56.88 59.2338L56.88 55.9898L57.8725 55.9898L57.8725 64.4629L57.0131 64.4629L56.88 63.4703C56.3635 64.1805 55.6574 64.5355 54.7617 64.5355C53.8902 64.5355 53.176 64.2571 52.6192 63.7003C52.0705 63.1354 51.7962 62.3608 51.7962 61.3763C51.7962 60.4402 52.0746 59.6817 52.6314 59.1007C53.1882 58.5116 53.8983 58.217 54.7617 58.217C55.7462 58.217 56.4523 58.556 56.88 59.2338ZM54.8586 63.6519C55.4638 63.6519 55.952 63.4421 56.3232 63.0225C56.7024 62.6029 56.8921 62.0622 56.8921 61.4005C56.8921 60.7226 56.7024 60.1699 56.3232 59.7422C55.952 59.3145 55.4638 59.1007 54.8586 59.1007C54.2453 59.1007 53.749 59.3145 53.3697 59.7422C52.9985 60.1618 52.8129 60.7065 52.8129 61.3763C52.8129 62.0461 52.9985 62.5948 53.3697 63.0225C53.749 63.4421 54.2453 63.6519 54.8586 63.6519ZM58.571 59.1975L58.571 58.2897L59.6846 58.2897L59.6846 57.5997C59.6846 57.051 59.8097 56.6475 60.0598 56.3893C60.3181 56.123 60.7296 55.9898 61.2945 55.9898L62.4202 55.9898L62.4202 56.8977L61.355 56.8977C61.1129 56.8977 60.9394 56.9501 60.8345 57.055C60.7296 57.1599 60.6772 57.3334 60.6772 57.5755L60.6772 58.2897L62.4202 58.2897L62.4202 59.1975L60.6772 59.1975L60.6772 64.4629L59.6846 64.4629L59.6846 59.1975L58.571 59.1975ZM67.4585 61.3763L67.4585 58.2897L68.4511 58.2897L68.4511 64.4629L67.5917 64.4629L67.4585 63.6398C66.9905 64.2369 66.3328 64.5355 65.4855 64.5355C64.7512 64.5355 64.1621 64.3096 63.7183 63.8577C63.2744 63.4058 63.0525 62.6957 63.0525 61.7273L63.0525 58.2897L64.0451 58.2897L64.0451 61.6668C64.0451 62.3043 64.1823 62.7925 64.4566 63.1314C64.7391 63.4623 65.1385 63.6277 65.655 63.6277C66.2198 63.6277 66.6596 63.426 66.9743 63.0225C67.2971 62.619 67.4585 62.0703 67.4585 61.3763ZM69.1505 64.4629L71.4987 61.2916L69.3078 58.2897L70.4941 58.2897L72.1281 60.5774L73.7864 58.2897L74.9121 58.2897L72.7092 61.2916L75.0695 64.4629L73.8833 64.4629L72.0797 61.9815L70.2762 64.4629L69.1505 64.4629Z"/><path fill="#fff" d="M28.1796 292.925V295.667H21.4352C19.4703 295.667 17.7547 294.564 16.8368 292.925C16.7033 292.687 16.5865 292.437 16.4886 292.177C16.2962 291.669 16.1753 291.123 16.1387 290.554V289.813C16.1466 289.686 16.1592 289.56 16.1756 289.435C16.2091 289.18 16.2598 288.93 16.3264 288.688C16.9564 286.386 19.0051 284.7 21.4352 284.7C23.8654 284.7 25.9138 286.386 26.5438 288.688H23.66C23.1866 287.937 22.3671 287.441 21.4352 287.441C20.5033 287.441 19.6839 287.937 19.2104 288.688C19.0661 288.916 18.9542 289.167 18.8808 289.435C18.8157 289.673 18.7809 289.924 18.7809 290.183C18.7809 290.969 19.1009 291.677 19.6139 292.177C20.0893 292.641 20.7301 292.925 21.4352 292.925H28.1796Z"/><path fill="#fff" d="M28.1808 289.435V292.177H23.2578C23.7708 291.677 24.0908 290.969 24.0908 290.183C24.0908 289.924 24.056 289.673 23.9909 289.435H28.1808Z"/><g clip-path="url(#clip2_2060_26179)"><path fill="#fff" d="M54.6582 296.724V295.322H62.0927V296.724H54.6582Z"/><path fill="#fff" d="M52.5643 294.927C51.1729 294.927 50.2589 294.301 50.2589 292.789V289.208H49.0176V287.792H50.3544V285.791H51.8822V287.792H53.9011V289.208H51.8822V292.776C51.8822 293.279 52.0869 293.497 52.5779 293.497H53.8193V294.927H52.5643Z"/><path fill="#fff" d="M47.1106 286.69C46.524 286.69 46.0875 286.254 46.0875 285.682C46.0875 285.124 46.524 284.688 47.1106 284.688C47.6971 284.688 48.1337 285.124 48.1337 285.682C48.1337 286.254 47.6971 286.69 47.1106 286.69ZM46.2921 294.927V289.209H45.0371V287.792H47.9018V294.927H46.2921Z"/><path fill="#fff" d="M37.8672 294.927V287.792H39.4769V288.609H39.5996C39.9134 288.064 40.5682 287.615 41.523 287.615C43.0918 287.615 44.0876 288.786 44.0876 290.256V294.927H42.4779V290.638C42.4779 289.752 41.8504 289.14 41.032 289.14C40.1453 289.14 39.4769 289.821 39.4769 290.719V294.927H37.8672Z"/><path fill="#fff" d="M35.4133 286.69C34.8267 286.69 34.3902 286.254 34.3902 285.682C34.3902 285.124 34.8267 284.688 35.4133 284.688C35.9999 284.688 36.4364 285.124 36.4364 285.682C36.4364 286.254 35.9999 286.69 35.4133 286.69ZM34.5948 294.927V289.209H33.3398V287.792H36.2045V294.927H34.5948Z"/></g><path fill="#fff" d="M17.3178 307.793L16.7035 307.793L16.7035 302.85L19.7397 302.85L19.7397 303.415L17.3178 303.415L17.3178 305.067L19.3655 305.067L19.3655 305.632L17.3178 305.632L17.3178 307.793ZM23.6517 307.793L20.5167 307.793L20.5167 302.85L23.5599 302.85L23.5599 303.415L21.131 303.415L21.131 304.997L23.1716 304.997L23.1716 305.562L21.131 305.562L21.131 307.228L23.6517 307.228L23.6517 307.793ZM26.1756 307.793L24.5022 307.793L24.5022 302.85L26.1262 302.85C27.1924 302.85 27.7502 303.359 27.7502 304.157C27.7502 304.714 27.4325 305.067 26.9523 305.23C27.489 305.329 27.962 305.668 27.962 306.381C27.962 307.256 27.3689 307.793 26.1756 307.793ZM25.1165 303.408L25.1165 304.997L26.1545 304.997C26.8041 304.997 27.1359 304.7 27.1359 304.199C27.1359 303.705 26.8111 303.408 26.1545 303.408L25.1165 303.408ZM25.1165 305.548L25.1165 307.235L26.1756 307.235C26.9594 307.235 27.3336 306.917 27.3336 306.409C27.3336 305.851 26.9241 305.548 26.1756 305.548L25.1165 305.548ZM34.4208 307.793L31.1093 307.793L31.1093 307.292L32.9733 305.625C33.4252 305.223 33.7783 304.842 33.7783 304.312C33.7783 303.691 33.3687 303.338 32.7474 303.338C32.1401 303.338 31.7306 303.761 31.7306 304.439L31.7306 304.531L31.1375 304.531L31.1375 304.404C31.1375 303.472 31.773 302.808 32.7474 302.808C33.7783 302.808 34.3855 303.394 34.3855 304.284C34.3855 305.018 33.9265 305.491 33.3546 305.992L31.9283 307.249L34.4208 307.249L34.4208 307.793ZM37.03 307.835C36.3592 307.835 35.8649 307.518 35.5754 307.016C35.3424 306.614 35.1941 306.021 35.1941 305.343C35.1941 303.789 35.879 302.808 37.0229 302.808C37.8984 302.808 38.4916 303.345 38.6116 304.171L38.0185 304.171C37.9055 303.669 37.5666 303.331 36.9947 303.331C36.1685 303.331 35.7449 304.185 35.7449 305.159C35.7449 305.308 35.7378 305.279 35.7449 305.399C35.7449 305.385 35.7661 305.315 35.7872 305.265C35.9708 304.849 36.458 304.524 37.0864 304.524C38.0326 304.524 38.6963 305.166 38.6963 306.176C38.6963 307.129 38.0185 307.835 37.03 307.835ZM37.0229 307.313C37.6725 307.313 38.1032 306.84 38.1032 306.176C38.1032 305.519 37.6937 305.046 37.0441 305.046C36.3874 305.046 35.9355 305.512 35.9355 306.19C35.9355 306.854 36.3733 307.313 37.0229 307.313ZM44.3037 306.028L41.9524 306.028L41.9524 305.541L44.3037 305.541L44.3037 306.028ZM48.3044 307.793L47.7465 307.793L47.7465 302.85L48.4668 302.85L49.6812 305.689L50.8816 302.85L51.5806 302.85L51.5806 307.793L51.0228 307.793L51.0228 303.832L49.9142 306.423L49.42 306.423L48.3044 303.832L48.3044 307.793ZM52.9301 307.793L52.3017 307.793L54.0528 302.85L54.8083 302.85L56.5665 307.793L55.9098 307.793L55.4367 306.458L53.4102 306.458L52.9301 307.793ZM54.4129 303.521L53.5868 305.901L55.2531 305.901L54.4129 303.521ZM57.904 307.793L57.2897 307.793L57.2897 302.85L59.055 302.85C60.0576 302.85 60.7284 303.443 60.7284 304.368C60.7284 305.06 60.2977 305.597 59.6481 305.774L60.7778 307.793L60.0859 307.793L59.0197 305.894L57.904 305.894L57.904 307.793ZM57.904 303.415L57.904 305.329L59.0055 305.329C59.6693 305.329 60.1 304.947 60.1 304.368C60.1 303.789 59.6693 303.415 59.0126 303.415L57.904 303.415ZM65.7614 302.85L65.7614 307.242L67.0111 307.242L67.0111 307.793L63.8761 307.793L63.8761 307.242L65.1753 307.242L65.1753 304.326C65.1047 304.376 65.02 304.397 64.9141 304.397L63.8902 304.397L63.8902 303.867L64.8505 303.867C65.0694 303.867 65.1824 303.684 65.1824 303.443L65.1824 302.85L65.7614 302.85Z" opacity=".64"/><path fill="#fff" d="M184.153 307.793L183.673 307.793L183.857 306.607L183.179 306.607L183.179 306.12L183.928 306.12L184.062 305.188L183.334 305.188L183.334 304.7L184.132 304.7L184.316 303.514L184.796 303.514L184.612 304.7L185.58 304.7L185.763 303.514L186.243 303.514L186.06 304.7L186.738 304.7L186.738 305.188L185.989 305.188L185.855 306.12L186.582 306.12L186.582 306.607L185.785 306.607L185.601 307.793L185.121 307.793L185.304 306.607L184.337 306.607L184.153 307.793ZM184.542 305.188L184.408 306.12L185.375 306.12L185.509 305.188L184.542 305.188ZM189.25 302.808C190.33 302.808 191.001 303.705 191.001 305.209L191.001 305.435C191.001 306.939 190.33 307.835 189.25 307.835C188.169 307.835 187.499 306.939 187.499 305.435L187.499 305.209C187.499 303.705 188.169 302.808 189.25 302.808ZM188.085 305.23L188.085 305.413C188.085 305.689 188.106 305.936 188.148 306.148L190.161 303.931C189.963 303.542 189.652 303.338 189.25 303.338C188.515 303.338 188.085 304.03 188.085 305.23ZM190.415 305.413L190.415 305.23C190.415 304.954 190.394 304.707 190.351 304.488L188.339 306.72C188.544 307.094 188.854 307.299 189.25 307.299C189.984 307.299 190.415 306.614 190.415 305.413ZM193.642 302.808C194.722 302.808 195.393 303.705 195.393 305.209L195.393 305.435C195.393 306.939 194.722 307.835 193.642 307.835C192.562 307.835 191.891 306.939 191.891 305.435L191.891 305.209C191.891 303.705 192.562 302.808 193.642 302.808ZM192.477 305.23L192.477 305.413C192.477 305.689 192.498 305.936 192.541 306.148L194.553 303.931C194.355 303.542 194.044 303.338 193.642 303.338C192.908 303.338 192.477 304.03 192.477 305.23ZM194.807 305.413L194.807 305.23C194.807 304.954 194.786 304.707 194.744 304.488L192.731 306.72C192.936 307.094 193.247 307.299 193.642 307.299C194.376 307.299 194.807 306.614 194.807 305.413ZM198.048 302.85L198.048 307.242L199.298 307.242L199.298 307.793L196.163 307.793L196.163 307.242L197.462 307.242L197.462 304.326C197.392 304.376 197.307 304.397 197.201 304.397L196.177 304.397L196.177 303.867L197.138 303.867C197.357 303.867 197.469 303.684 197.469 303.443L197.469 302.85L198.048 302.85ZM202.372 305.223C202.803 305.308 203.234 305.668 203.234 306.423C203.234 307.263 202.591 307.835 201.546 307.835C200.508 307.835 199.866 307.249 199.866 306.268L200.452 306.268C200.459 306.917 200.911 307.306 201.582 307.306C202.196 307.306 202.627 306.946 202.627 306.381C202.627 305.865 202.295 305.541 201.56 305.541L201.13 305.541L201.13 305.011L201.497 305.011C202.196 305.011 202.535 304.651 202.535 304.15C202.535 303.648 202.111 303.338 201.546 303.338C200.974 303.338 200.53 303.712 200.523 304.277L199.936 304.277C199.951 303.373 200.628 302.808 201.539 302.808C202.528 302.808 203.142 303.338 203.142 304.128C203.142 304.736 202.817 305.096 202.372 305.223ZM206.503 305.223C206.934 305.308 207.364 305.668 207.364 306.423C207.364 307.263 206.722 307.835 205.677 307.835C204.639 307.835 203.996 307.249 203.996 306.268L204.582 306.268C204.589 306.917 205.041 307.306 205.712 307.306C206.326 307.306 206.757 306.946 206.757 306.381C206.757 305.865 206.425 305.541 205.691 305.541L205.26 305.541L205.26 305.011L205.627 305.011C206.326 305.011 206.665 304.651 206.665 304.15C206.665 303.648 206.242 303.338 205.677 303.338C205.105 303.338 204.66 303.712 204.653 304.277L204.067 304.277C204.081 303.373 204.759 302.808 205.67 302.808C206.658 302.808 207.272 303.338 207.272 304.128C207.272 304.736 206.948 305.096 206.503 305.223ZM208.961 307.793L208.319 307.793L210.585 303.394L207.916 303.394L207.916 302.85L211.306 302.85L211.306 303.267L208.961 307.793ZM213.77 302.85L213.77 307.242L215.02 307.242L215.02 307.793L211.885 307.793L211.885 307.242L213.184 307.242L213.184 304.326C213.113 304.376 213.029 304.397 212.923 304.397L211.899 304.397L211.899 303.867L212.859 303.867C213.078 303.867 213.191 303.684 213.191 303.443L213.191 302.85L213.77 302.85Z" opacity=".64"/><g filter="url(#filter1_b_2060_26179)"><rect width="231.496" height="324.296" x=".252" y=".454" stroke="url(#paint7_linear_2060_26179)" stroke-opacity=".64" stroke-width=".504" rx="7.817"/></g><g filter="url(#filter2_f_2060_26179)"><path fill="url(#paint8_linear_2060_26179)" d="M289.46 124.453L35.3991 402.561C27.9605 410.704 28.0895 423.214 35.6944 431.202C44.1055 440.036 58.2488 439.868 66.4479 430.837L319.642 151.938C327.88 142.864 326.319 128.625 316.31 121.551C307.908 115.613 296.399 116.857 289.46 124.453Z"/></g><g filter="url(#filter3_f_2060_26179)"><path fill="url(#paint9_linear_2060_26179)" d="M316.19 -15.7562L62.1296 262.352C54.6909 270.495 54.8199 283.005 62.4249 290.993C70.836 299.827 84.9792 299.659 93.1783 290.628L346.372 11.7294C354.61 2.65457 353.049 -11.5836 343.04 -18.6578C334.638 -24.5961 323.13 -23.3525 316.19 -15.7562Z"/></g><g filter="url(#filter4_f_2060_26179)"><path fill="url(#paint10_linear_2060_26179)" d="M218.851 -38.4515L-35.2102 239.657C-42.6489 247.8 -42.5199 260.31 -34.915 268.297C-26.5039 277.132 -12.3606 276.964 -4.16152 267.933L249.032 -10.9659C257.271 -20.0407 255.71 -34.2789 245.7 -41.3531C237.298 -47.2914 225.79 -46.0478 218.851 -38.4515Z"/></g><g filter="url(#filter5_f_2060_26179)"><path fill="url(#paint11_linear_2060_26179)" d="M110.921 -52.069L-143.14 226.04C-150.579 234.182 -150.45 246.692 -142.845 254.68C-134.434 263.514 -120.29 263.347 -112.091 254.315L141.102 -24.5833C149.341 -33.6582 147.78 -47.8964 137.771 -54.9705C129.369 -60.9089 117.86 -59.6652 110.921 -52.069Z"/></g></g></g></g><defs><filter id="filter0_d_2060_26179" width="326.817" height="419.617" x="-47.409" y="-45.19" color-interpolation-filters="sRGB" filterUnits="userSpaceOnUse"><feFlood flood-opacity="0" result="BackgroundImageFix"/><feColorMatrix in="SourceAlpha" result="hardAlpha" type="matrix" values="0 0 0 0 0 0 0 0 0 0 0 0 0 0 0 0 0 0 127 0"/><feOffset dy="2.017"/><feGaussianBlur stdDeviation="23.704"/><feComposite in2="hardAlpha" operator="out"/><feColorMatrix type="matrix" values="0 0 0 0 0 0 0 0 0 0 0 0 0 0 0 0 0 0 0.16 0"/><feBlend in2="BackgroundImageFix" mode="normal" result="effect1_dropShadow_2060_26179"/><feBlend in="SourceGraphic" in2="effect1_dropShadow_2060_26179" mode="normal" result="shape"/></filter><filter id="filter1_b_2060_26179" width="248.139" height="340.939" x="-8.07" y="-7.868" color-interpolation-filters="sRGB" filterUnits="userSpaceOnUse"><feFlood flood-opacity="0" result="BackgroundImageFix"/><feGaussianBlur in="BackgroundImageFix" stdDeviation="4.035"/><feComposite in2="SourceAlpha" operator="in" result="effect1_backgroundBlur_2060_26179"/><feBlend in="SourceGraphic" in2="effect1_backgroundBlur_2060_26179" mode="normal" result="shape"/></filter><filter id="filter2_f_2060_26179" width="365.646" height="390.521" x="-5.4" y="82.504" color-interpolation-filters="sRGB" filterUnits="userSpaceOnUse"><feFlood flood-opacity="0" result="BackgroundImageFix"/><feBlend in="SourceGraphic" in2="BackgroundImageFix" mode="normal" result="shape"/><feGaussianBlur result="effect1_foregroundBlur_2060_26179" stdDeviation="17.652"/></filter><filter id="filter3_f_2060_26179" width="365.646" height="390.521" x="21.33" y="-57.705" color-interpolation-filters="sRGB" filterUnits="userSpaceOnUse"><feFlood flood-opacity="0" result="BackgroundImageFix"/><feBlend in="SourceGraphic" in2="BackgroundImageFix" mode="normal" result="shape"/><feGaussianBlur result="effect1_foregroundBlur_2060_26179" stdDeviation="17.652"/></filter><filter id="filter4_f_2060_26179" width="365.646" height="390.521" x="-76.009" y="-80.4" color-interpolation-filters="sRGB" filterUnits="userSpaceOnUse"><feFlood flood-opacity="0" result="BackgroundImageFix"/><feBlend in="SourceGraphic" in2="BackgroundImageFix" mode="normal" result="shape"/><feGaussianBlur result="effect1_foregroundBlur_2060_26179" stdDeviation="17.652"/></filter><filter id="filter5_f_2060_26179" width="365.646" height="390.521" x="-183.939" y="-94.018" color-interpolation-filters="sRGB" filterUnits="userSpaceOnUse"><feFlood flood-opacity="0" result="BackgroundImageFix"/><feBlend in="SourceGraphic" in2="BackgroundImageFix" mode="normal" result="shape"/><feGaussianBlur result="effect1_foregroundBlur_2060_26179" stdDeviation="17.652"/></filter><linearGradient id="paint0_linear_2060_26179" x1="223.426" x2="-27.991" y1="7.263" y2="370.645" gradientUnits="userSpaceOnUse"><stop stop-color="#fff" stop-opacity=".48"/><stop offset="1" stop-opacity="0"/></linearGradient><linearGradient id="paint1_linear_2060_26179" x1="211.826" x2="211.826" y1=".202" y2="325.002" gradientUnits="userSpaceOnUse"><stop stop-color="#D9D9D9"/><stop offset=".199" stop-color="#D9D9D9" stop-opacity=".4"/><stop offset=".392" stop-color="#D9D9D9"/><stop offset=".58" stop-color="#D9D9D9" stop-opacity=".4"/><stop offset=".754" stop-color="#D9D9D9"/><stop offset=".964" stop-color="#D9D9D9" stop-opacity=".4"/></linearGradient><linearGradient id="paint2_linear_2060_26179" x1="3.32" x2="40.348" y1="146.546" y2="146.546" gradientUnits="userSpaceOnUse"><stop stop-color="#222224"/><stop offset="1" stop-color="#222224" stop-opacity="0"/></linearGradient><linearGradient id="paint3_linear_2060_26179" x1="223.426" x2="-27.991" y1="7.263" y2="370.645" gradientUnits="userSpaceOnUse"><stop stop-color="#fff" stop-opacity=".48"/><stop offset="1" stop-opacity="0"/></linearGradient><linearGradient id="paint4_linear_2060_26179" x1="184.347" x2="184.347" y1="-87.05" y2="356.721" gradientUnits="userSpaceOnUse"><stop stop-color="#F1C6DD"/><stop offset=".139" stop-color="#C1A4E8"/><stop offset=".239" stop-color="#B8E2FB"/><stop offset=".375" stop-color="#F2EFE8"/><stop offset=".478" stop-color="#F9DCDD"/><stop offset=".558" stop-color="#E1C1E5"/><stop offset=".624" stop-color="#BDAFE3"/><stop offset=".72" stop-color="#C7EDEB"/><stop offset=".83" stop-color="#E7F5EB"/><stop offset=".913" stop-color="#F2F0E7"/><stop offset="1" stop-color="#DDC1E1"/></linearGradient><linearGradient id="paint5_linear_2060_26179" x1="184.347" x2="184.347" y1="-87.05" y2="356.721" gradientUnits="userSpaceOnUse"><stop stop-color="#F1C6DD"/><stop offset=".139" stop-color="#C1A4E8"/><stop offset=".239" stop-color="#B8E2FB"/><stop offset=".375" stop-color="#F2EFE8"/><stop offset=".478" stop-color="#F9DCDD"/><stop offset=".558" stop-color="#E1C1E5"/><stop offset=".624" stop-color="#BDAFE3"/><stop offset=".72" stop-color="#C7EDEB"/><stop offset=".83" stop-color="#E7F5EB"/><stop offset=".913" stop-color="#F2F0E7"/><stop offset="1" stop-color="#DDC1E1"/></linearGradient><linearGradient id="paint6_linear_2060_26179" x1="87.475" x2="38.398" y1="211.356" y2="345.481" gradientUnits="userSpaceOnUse"><stop stop-color="#fff" stop-opacity=".32"/><stop offset=".29" stop-color="#fff" stop-opacity=".08"/><stop offset="1" stop-color="#fff" stop-opacity="0"/></linearGradient><linearGradient id="paint7_linear_2060_26179" x1="245.617" x2="64.304" y1="7.515" y2="170.923" gradientUnits="userSpaceOnUse"><stop stop-color="#fff" stop-opacity=".44"/><stop offset="1" stop-color="#fff" stop-opacity="0"/></linearGradient><linearGradient id="paint8_linear_2060_26179" x1="224.455" x2="41.377" y1="166.503" y2="417.306" gradientUnits="userSpaceOnUse"><stop stop-color="#fff" stop-opacity=".16"/><stop offset="1" stop-color="#fff" stop-opacity="0"/></linearGradient><linearGradient id="paint9_linear_2060_26179" x1="251.185" x2="68.107" y1="26.294" y2="277.097" gradientUnits="userSpaceOnUse"><stop stop-color="#fff" stop-opacity=".16"/><stop offset="1" stop-color="#fff" stop-opacity="0"/></linearGradient><linearGradient id="paint10_linear_2060_26179" x1="153.845" x2="-29.233" y1="3.599" y2="254.402" gradientUnits="userSpaceOnUse"><stop stop-color="#fff" stop-opacity=".16"/><stop offset="1" stop-color="#fff" stop-opacity="0"/></linearGradient><linearGradient id="paint11_linear_2060_26179" x1="45.916" x2="-137.162" y1="-10.018" y2="240.785" gradientUnits="userSpaceOnUse"><stop stop-color="#fff" stop-opacity=".16"/><stop offset="1" stop-color="#fff" stop-opacity="0"/></linearGradient><clipPath id="clip0_2060_26179"><rect width="232" height="324" y=".602" fill="#fff" rx="8"/></clipPath><clipPath id="clip1_2060_26179"><rect width="232" height="324.8" y=".202" fill="#fff" rx="8.07"/></clipPath><clipPath id="clip2_2060_26179"><rect width="28.748" height="12.104" fill="#fff" transform="translate(33.2871 284.654)"/></clipPath></defs></svg>