<svg xmlns="http://www.w3.org/2000/svg" width="232" height="325" fill="none" viewBox="0 0 232 325"><g clip-path="url(#clip0_2060_26174)"><g filter="url(#filter0_b_2060_26174)"><mask id="path-2-inside-1_2060_26174" fill="#fff"><path fill-rule="evenodd" d="M0.87953 5.00762C0 6.7338 0 8.99349 0 13.5129V311.69C0 316.21 0 318.469 0.87953 320.195C1.65319 321.714 2.88767 322.948 4.40606 323.722C6.13223 324.602 8.39192 324.602 12.9113 324.602H219.089C223.608 324.602 225.868 324.602 227.594 323.722C229.112 322.948 230.347 321.714 231.12 320.195C232 318.469 232 316.21 232 311.69V13.5129C232 8.99349 232 6.7338 231.12 5.00762C230.347 3.48924 229.112 2.25475 227.594 1.48109C225.868 0.601562 223.608 0.601562 219.089 0.601562H12.9113C8.39192 0.601562 6.13223 0.601562 4.40606 1.48109C2.88767 2.25475 1.65319 3.48924 0.87953 5.00762ZM97.8435 8.67113C96.7293 8.67113 95.8261 9.57434 95.8261 10.6885C95.8261 11.8027 96.7293 12.7059 97.8435 12.7059H134.157C135.271 12.7059 136.174 11.8027 136.174 10.6885C136.174 9.57434 135.271 8.67113 134.157 8.67113H97.8435Z" clip-rule="evenodd"/></mask><path fill="#17171A" fill-rule="evenodd" d="M0.87953 5.00762C0 6.7338 0 8.99349 0 13.5129V311.69C0 316.21 0 318.469 0.87953 320.195C1.65319 321.714 2.88767 322.948 4.40606 323.722C6.13223 324.602 8.39192 324.602 12.9113 324.602H219.089C223.608 324.602 225.868 324.602 227.594 323.722C229.112 322.948 230.347 321.714 231.12 320.195C232 318.469 232 316.21 232 311.69V13.5129C232 8.99349 232 6.7338 231.12 5.00762C230.347 3.48924 229.112 2.25475 227.594 1.48109C225.868 0.601562 223.608 0.601562 219.089 0.601562H12.9113C8.39192 0.601562 6.13223 0.601562 4.40606 1.48109C2.88767 2.25475 1.65319 3.48924 0.87953 5.00762ZM97.8435 8.67113C96.7293 8.67113 95.8261 9.57434 95.8261 10.6885C95.8261 11.8027 96.7293 12.7059 97.8435 12.7059H134.157C135.271 12.7059 136.174 11.8027 136.174 10.6885C136.174 9.57434 135.271 8.67113 134.157 8.67113H97.8435Z" clip-rule="evenodd"/><path fill="url(#paint0_linear_2060_26174)" fill-opacity=".8" fill-rule="evenodd" d="M0.87953 5.00762C0 6.7338 0 8.99349 0 13.5129V311.69C0 316.21 0 318.469 0.87953 320.195C1.65319 321.714 2.88767 322.948 4.40606 323.722C6.13223 324.602 8.39192 324.602 12.9113 324.602H219.089C223.608 324.602 225.868 324.602 227.594 323.722C229.112 322.948 230.347 321.714 231.12 320.195C232 318.469 232 316.21 232 311.69V13.5129C232 8.99349 232 6.7338 231.12 5.00762C230.347 3.48924 229.112 2.25475 227.594 1.48109C225.868 0.601562 223.608 0.601562 219.089 0.601562H12.9113C8.39192 0.601562 6.13223 0.601562 4.40606 1.48109C2.88767 2.25475 1.65319 3.48924 0.87953 5.00762ZM97.8435 8.67113C96.7293 8.67113 95.8261 9.57434 95.8261 10.6885C95.8261 11.8027 96.7293 12.7059 97.8435 12.7059H134.157C135.271 12.7059 136.174 11.8027 136.174 10.6885C136.174 9.57434 135.271 8.67113 134.157 8.67113H97.8435Z" clip-rule="evenodd"/><path fill="url(#paint1_linear_2060_26174)" fill-opacity=".32" d="M0.87953 5.00762L0.430153 4.77865L0.430153 4.77865L0.87953 5.00762ZM0.87953 320.195L1.32891 319.967L1.32891 319.967L0.87953 320.195ZM4.40606 323.722L4.17708 324.171L4.17709 324.171L4.40606 323.722ZM227.594 323.722L227.823 324.171L227.823 324.171L227.594 323.722ZM231.12 320.195L230.671 319.967L230.671 319.967L231.12 320.195ZM231.12 5.00762L230.671 5.23659L230.671 5.23659L231.12 5.00762ZM227.594 1.48109L227.823 1.03172L227.823 1.03171L227.594 1.48109ZM4.40606 1.48109L4.17709 1.03172L4.17709 1.03172L4.40606 1.48109ZM0.504348 13.5129C0.504348 11.2449 0.50474 9.57418 0.612614 8.25387C0.720007 6.93944 0.931407 6.01673 1.32891 5.23659L0.430153 4.77865C-0.0518769 5.72469 -0.280242 6.79492 -0.392732 8.17173C-0.50474 9.54265 -0.504348 11.2615 -0.504348 13.5129H0.504348ZM0.504348 311.69V13.5129H-0.504348V311.69H0.504348ZM1.32891 319.967C0.931407 319.186 0.720007 318.264 0.612614 316.949C0.50474 315.629 0.504348 313.958 0.504348 311.69H-0.504348C-0.504348 313.942 -0.50474 315.66 -0.392732 317.031C-0.280242 318.408 -0.0518769 319.478 0.430153 320.424L1.32891 319.967ZM4.63503 323.273C3.21154 322.547 2.05421 321.39 1.32891 319.967L0.430152 320.424C1.25216 322.038 2.56381 323.349 4.17708 324.171L4.63503 323.273ZM12.9113 324.097C10.6433 324.097 8.97261 324.097 7.6523 323.989C6.33787 323.882 5.41516 323.67 4.63503 323.273L4.17709 324.171C5.12313 324.653 6.19335 324.882 7.57016 324.994C8.94107 325.106 10.6599 325.106 12.9113 325.106V324.097ZM219.089 324.097H12.9113V325.106H219.089V324.097ZM227.365 323.273C226.585 323.67 225.662 323.882 224.348 323.989C223.027 324.097 221.357 324.097 219.089 324.097V325.106C221.34 325.106 223.059 325.106 224.43 324.994C225.807 324.882 226.877 324.653 227.823 324.171L227.365 323.273ZM230.671 319.967C229.946 321.39 228.788 322.547 227.365 323.273L227.823 324.171C229.436 323.349 230.748 322.038 231.57 320.424L230.671 319.967ZM231.496 311.69C231.496 313.958 231.495 315.629 231.387 316.949C231.28 318.264 231.069 319.186 230.671 319.967L231.57 320.424C232.052 319.478 232.28 318.408 232.393 317.031C232.505 315.66 232.504 313.942 232.504 311.69H231.496ZM231.496 13.5129V311.69H232.504V13.5129H231.496ZM230.671 5.23659C231.069 6.01673 231.28 6.93943 231.387 8.25386C231.495 9.57418 231.496 11.2449 231.496 13.5129H232.504C232.504 11.2615 232.505 9.54264 232.393 8.17172C232.28 6.79492 232.052 5.72469 231.57 4.77865L230.671 5.23659ZM227.365 1.93047C228.788 2.65577 229.946 3.8131 230.671 5.23659L231.57 4.77865C230.748 3.16537 229.436 1.85373 227.823 1.03172L227.365 1.93047ZM219.089 1.10591C221.357 1.10591 223.027 1.1063 224.348 1.21418C225.662 1.32157 226.585 1.53297 227.365 1.93047L227.823 1.03171C226.877 0.549686 225.807 0.32132 224.43 0.208831C223.059 0.0968225 221.34 0.0972147 219.089 0.0972147V1.10591ZM12.9113 1.10591H219.089V0.0972147H12.9113V1.10591ZM4.63503 1.93047C5.41517 1.53297 6.33787 1.32157 7.6523 1.21418C8.97261 1.1063 10.6433 1.10591 12.9113 1.10591V0.0972147C10.6599 0.0972147 8.94108 0.0968225 7.57016 0.208831C6.19335 0.32132 5.12313 0.549686 4.17709 1.03172L4.63503 1.93047ZM1.32891 5.23659C2.05421 3.8131 3.21154 2.65577 4.63503 1.93047L4.17709 1.03172C2.5638 1.85373 1.25216 3.16537 0.430153 4.77865L1.32891 5.23659ZM96.3304 10.6885C96.3304 9.85289 97.0078 9.17548 97.8435 9.17548V8.16678C96.4508 8.16678 95.3217 9.2958 95.3217 10.6885H96.3304ZM97.8435 12.2016C97.0078 12.2016 96.3304 11.5241 96.3304 10.6885H95.3217C95.3217 12.0812 96.4508 13.2103 97.8435 13.2103V12.2016ZM134.157 12.2016H97.8435V13.2103H134.157V12.2016ZM135.67 10.6885C135.67 11.5241 134.992 12.2016 134.157 12.2016V13.2103C135.549 13.2103 136.678 12.0812 136.678 10.6885H135.67ZM134.157 9.17548C134.992 9.17548 135.67 9.85289 135.67 10.6885H136.678C136.678 9.2958 135.549 8.16678 134.157 8.16678V9.17548ZM97.8435 9.17548H134.157V8.16678H97.8435V9.17548Z" mask="url(#path-2-inside-1_2060_26174)"/></g><g filter="url(#filter1_f_2060_26174)"><path fill="url(#paint2_linear_2060_26174)" fill-opacity=".08" d="M157.356 12.601L-35.5495 239.189C-48.9242 254.899 -48.4158 278.134 -34.3666 293.244C-18.2371 310.592 9.24589 310.538 25.3077 293.128L227.091 74.4092C245.877 54.0468 242.855 21.8896 220.605 5.38319C200.907 -9.22943 173.255 -6.07377 157.356 12.601Z"/></g><mask id="mask0_2060_26174" width="41" height="326" x="191" y="0" maskUnits="userSpaceOnUse" style="mask-type:alpha"><rect width="40.348" height="324.8" x="191.652" y=".602" fill="url(#paint3_linear_2060_26174)"/></mask><g mask="url(#mask0_2060_26174)"><mask id="mask1_2060_26174" width="41" height="326" x="191" y="0" maskUnits="userSpaceOnUse" style="mask-type:alpha"><rect width="40.348" height="324.8" fill="url(#paint4_linear_2060_26174)" transform="matrix(-1 0 0 1 232 0.601562)"/></mask><g mask="url(#mask1_2060_26174)"><rect width="4.035" height="4.035" x="232" y=".602" fill="#FD366E" opacity=".64" rx="1.009" transform="rotate(90 232 0.601562)"/><rect width="4.035" height="4.035" x="232" y="6.654" fill="#FD366E" opacity=".4" rx="1.009" transform="rotate(90 232 6.65381)"/><rect width="4.035" height="4.035" x="232" y="12.706" fill="#FD366E" opacity=".32" rx="1.009" transform="rotate(90 232 12.7061)"/><rect width="4.035" height="4.035" x="232" y="18.758" fill="#FD366E" opacity=".16" rx="1.009" transform="rotate(90 232 18.7583)"/><rect width="4.035" height="4.035" x="232" y="24.81" fill="#FD366E" opacity=".8" rx="1.009" transform="rotate(90 232 24.8101)"/><rect width="4.035" height="4.035" x="232" y="30.862" fill="#FD366E" opacity=".64" rx="1.009" transform="rotate(90 232 30.8623)"/><rect width="4.035" height="4.035" x="232" y="36.915" fill="#FD366E" opacity=".4" rx="1.009" transform="rotate(90 232 36.9146)"/><rect width="4.035" height="4.035" x="232" y="42.967" fill="#FD366E" opacity=".32" rx="1.009" transform="rotate(90 232 42.9668)"/><rect width="4.035" height="4.035" x="232" y="49.019" fill="#FD366E" opacity=".16" rx="1.009" transform="rotate(90 232 49.019)"/><rect width="4.035" height="4.035" x="232" y="55.071" fill="#FD366E" opacity=".4" rx="1.009" transform="rotate(90 232 55.0713)"/><rect width="4.035" height="4.035" x="232" y="61.123" fill="#FD366E" opacity=".32" rx="1.009" transform="rotate(90 232 61.1235)"/><rect width="4.035" height="4.035" x="232" y="67.175" fill="#FD366E" opacity=".8" rx="1.009" transform="rotate(90 232 67.1753)"/><rect width="4.035" height="4.035" x="232" y="73.228" fill="#FD366E" opacity=".16" rx="1.009" transform="rotate(90 232 73.2275)"/><rect width="4.035" height="4.035" x="232" y="79.28" fill="#FD366E" opacity=".4" rx="1.009" transform="rotate(90 232 79.2798)"/><rect width="4.035" height="4.035" x="232" y="85.332" fill="#FD366E" opacity=".32" rx="1.009" transform="rotate(90 232 85.332)"/><rect width="4.035" height="4.035" x="232" y="91.384" fill="#FD366E" opacity=".32" rx="1.009" transform="rotate(90 232 91.3843)"/><rect width="4.035" height="4.035" x="232" y="97.436" fill="#FD366E" opacity=".32" rx="1.009" transform="rotate(90 232 97.4365)"/><rect width="4.035" height="4.035" x="232" y="103.488" fill="#FD366E" opacity=".64" rx="1.009" transform="rotate(90 232 103.488)"/><rect width="4.035" height="4.035" x="232" y="109.541" fill="#FD366E" opacity=".16" rx="1.009" transform="rotate(90 232 109.541)"/><rect width="4.035" height="4.035" x="232" y="115.593" fill="#FD366E" opacity=".64" rx="1.009" transform="rotate(90 232 115.593)"/><rect width="4.035" height="4.035" x="232" y="121.645" fill="#FD366E" opacity=".4" rx="1.009" transform="rotate(90 232 121.645)"/><rect width="4.035" height="4.035" x="232" y="127.697" fill="#FD366E" opacity=".32" rx="1.009" transform="rotate(90 232 127.697)"/><rect width="4.035" height="4.035" x="232" y="133.75" fill="#FD366E" opacity=".16" rx="1.009" transform="rotate(90 232 133.75)"/><rect width="4.035" height="4.035" x="232" y="139.802" fill="#FD366E" opacity=".8" rx="1.009" transform="rotate(90 232 139.802)"/><rect width="4.035" height="4.035" x="232" y="145.854" fill="#FD366E" opacity=".8" rx="1.009" transform="rotate(90 232 145.854)"/><rect width="4.035" height="4.035" x="232" y="151.906" fill="#FD366E" opacity=".64" rx="1.009" transform="rotate(90 232 151.906)"/><rect width="4.035" height="4.035" x="232" y="157.958" fill="#FD366E" opacity=".4" rx="1.009" transform="rotate(90 232 157.958)"/><rect width="4.035" height="4.035" x="232" y="164.01" fill="#FD366E" opacity=".8" rx="1.009" transform="rotate(90 232 164.01)"/><rect width="4.035" height="4.035" x="232" y="170.062" fill="#FD366E" opacity=".4" rx="1.009" transform="rotate(90 232 170.062)"/><rect width="4.035" height="4.035" x="232" y="176.115" fill="#FD366E" opacity=".16" rx="1.009" transform="rotate(90 232 176.115)"/><rect width="4.035" height="4.035" x="232" y="182.167" fill="#FD366E" opacity=".32" rx="1.009" transform="rotate(90 232 182.167)"/><rect width="4.035" height="4.035" x="232" y="188.219" fill="#FD366E" opacity=".16" rx="1.009" transform="rotate(90 232 188.219)"/><rect width="4.035" height="4.035" x="232" y="194.271" fill="#FD366E" opacity=".64" rx="1.009" transform="rotate(90 232 194.271)"/><rect width="4.035" height="4.035" x="232" y="200.323" fill="#FD366E" opacity=".16" rx="1.009" transform="rotate(90 232 200.323)"/><rect width="4.035" height="4.035" x="232" y="206.375" fill="#FD366E" opacity=".64" rx="1.009" transform="rotate(90 232 206.375)"/><rect width="4.035" height="4.035" x="232" y="212.428" fill="#FD366E" opacity=".32" rx="1.009" transform="rotate(90 232 212.428)"/><rect width="4.035" height="4.035" x="232" y="218.48" fill="#FD366E" opacity=".8" rx="1.009" transform="rotate(90 232 218.48)"/><rect width="4.035" height="4.035" x="232" y="224.532" fill="#FD366E" opacity=".4" rx="1.009" transform="rotate(90 232 224.532)"/><rect width="4.035" height="4.035" x="232" y="230.584" fill="#FD366E" opacity=".32" rx="1.009" transform="rotate(90 232 230.584)"/><rect width="4.035" height="4.035" x="232" y="236.636" fill="#FD366E" opacity=".32" rx="1.009" transform="rotate(90 232 236.636)"/><rect width="4.035" height="4.035" x="232" y="242.688" fill="#FD366E" opacity=".64" rx="1.009" transform="rotate(90 232 242.688)"/><rect width="4.035" height="4.035" x="232" y="248.741" fill="#FD366E" opacity=".4" rx="1.009" transform="rotate(90 232 248.741)"/><rect width="4.035" height="4.035" x="232" y="254.793" fill="#FD366E" opacity=".16" rx="1.009" transform="rotate(90 232 254.793)"/><rect width="4.035" height="4.035" x="232" y="260.845" fill="#FD366E" opacity=".8" rx="1.009" transform="rotate(90 232 260.845)"/><rect width="4.035" height="4.035" x="232" y="266.897" fill="#FD366E" opacity=".8" rx="1.009" transform="rotate(90 232 266.897)"/><rect width="4.035" height="4.035" x="232" y="272.949" fill="#FD366E" opacity=".8" rx="1.009" transform="rotate(90 232 272.949)"/><rect width="4.035" height="4.035" x="232" y="279.001" fill="#FD366E" opacity=".64" rx="1.009" transform="rotate(90 232 279.001)"/><rect width="4.035" height="4.035" x="232" y="285.054" fill="#FD366E" opacity=".4" rx="1.009" transform="rotate(90 232 285.054)"/><rect width="4.035" height="4.035" x="232" y="291.106" fill="#FD366E" opacity=".4" rx="1.009" transform="rotate(90 232 291.106)"/><rect width="4.035" height="4.035" x="232" y="297.158" fill="#FD366E" opacity=".32" rx="1.009" transform="rotate(90 232 297.158)"/><rect width="4.035" height="4.035" x="232" y="303.21" fill="#FD366E" opacity=".16" rx="1.009" transform="rotate(90 232 303.21)"/><rect width="4.035" height="4.035" x="232" y="309.262" fill="#FD366E" opacity=".64" rx="1.009" transform="rotate(90 232 309.262)"/><rect width="4.035" height="4.035" x="232" y="315.314" fill="#FD366E" opacity=".32" rx="1.009" transform="rotate(90 232 315.314)"/><rect width="4.035" height="4.035" x="232" y="321.367" fill="#FD366E" opacity=".16" rx="1.009" transform="rotate(90 232 321.367)"/><rect width="4.035" height="4.035" fill="#FD366E" opacity=".64" rx="1.009" transform="matrix(-4.37114e-08 -1 -1 4.37114e-08 225.947 325.401)"/><rect width="4.035" height="4.035" fill="#FD366E" opacity=".4" rx="1.009" transform="matrix(-4.37114e-08 -1 -1 4.37114e-08 225.947 319.349)"/><rect width="4.035" height="4.035" fill="#FD366E" opacity=".32" rx="1.009" transform="matrix(-4.37114e-08 -1 -1 4.37114e-08 225.947 313.297)"/><rect width="4.035" height="4.035" fill="#FD366E" opacity=".16" rx="1.009" transform="matrix(-4.37114e-08 -1 -1 4.37114e-08 225.947 307.245)"/><rect width="4.035" height="4.035" fill="#FD366E" opacity=".8" rx="1.009" transform="matrix(-4.37114e-08 -1 -1 4.37114e-08 225.947 301.193)"/><rect width="4.035" height="4.035" fill="#FD366E" opacity=".64" rx="1.009" transform="matrix(-4.37114e-08 -1 -1 4.37114e-08 225.947 295.141)"/><rect width="4.035" height="4.035" fill="#FD366E" opacity=".4" rx="1.009" transform="matrix(-4.37114e-08 -1 -1 4.37114e-08 225.947 289.088)"/><rect width="4.035" height="4.035" fill="#FD366E" opacity=".32" rx="1.009" transform="matrix(-4.37114e-08 -1 -1 4.37114e-08 225.947 283.036)"/><rect width="4.035" height="4.035" fill="#FD366E" opacity=".16" rx="1.009" transform="matrix(-4.37114e-08 -1 -1 4.37114e-08 225.947 276.984)"/><rect width="4.035" height="4.035" fill="#FD366E" opacity=".4" rx="1.009" transform="matrix(-4.37114e-08 -1 -1 4.37114e-08 225.947 270.932)"/><rect width="4.035" height="4.035" fill="#FD366E" opacity=".32" rx="1.009" transform="matrix(-4.37114e-08 -1 -1 4.37114e-08 225.947 264.879)"/><rect width="4.035" height="4.035" fill="#FD366E" opacity=".8" rx="1.009" transform="matrix(-4.37114e-08 -1 -1 4.37114e-08 225.947 258.828)"/><rect width="4.035" height="4.035" fill="#FD366E" opacity=".16" rx="1.009" transform="matrix(-4.37114e-08 -1 -1 4.37114e-08 225.947 252.775)"/><rect width="4.035" height="4.035" fill="#FD366E" opacity=".4" rx="1.009" transform="matrix(-4.37114e-08 -1 -1 4.37114e-08 225.947 246.723)"/><rect width="4.035" height="4.035" fill="#FD366E" opacity=".32" rx="1.009" transform="matrix(-4.37114e-08 -1 -1 4.37114e-08 225.947 240.671)"/><rect width="4.035" height="4.035" fill="#FD366E" opacity=".32" rx="1.009" transform="matrix(-4.37114e-08 -1 -1 4.37114e-08 225.947 234.619)"/><rect width="4.035" height="4.035" fill="#FD366E" opacity=".32" rx="1.009" transform="matrix(-4.37114e-08 -1 -1 4.37114e-08 225.947 228.566)"/><rect width="4.035" height="4.035" fill="#FD366E" opacity=".64" rx="1.009" transform="matrix(-4.37114e-08 -1 -1 4.37114e-08 225.947 222.515)"/><rect width="4.035" height="4.035" fill="#FD366E" opacity=".16" rx="1.009" transform="matrix(-4.37114e-08 -1 -1 4.37114e-08 225.947 216.462)"/><rect width="4.035" height="4.035" fill="#FD366E" opacity=".64" rx="1.009" transform="matrix(-4.37114e-08 -1 -1 4.37114e-08 225.947 210.41)"/><rect width="4.035" height="4.035" fill="#FD366E" opacity=".4" rx="1.009" transform="matrix(-4.37114e-08 -1 -1 4.37114e-08 225.947 204.358)"/><rect width="4.035" height="4.035" fill="#FD366E" opacity=".32" rx="1.009" transform="matrix(-4.37114e-08 -1 -1 4.37114e-08 225.947 198.306)"/><rect width="4.035" height="4.035" fill="#FD366E" opacity=".16" rx="1.009" transform="matrix(-4.37114e-08 -1 -1 4.37114e-08 225.947 192.253)"/><rect width="4.035" height="4.035" fill="#FD366E" opacity=".8" rx="1.009" transform="matrix(-4.37114e-08 -1 -1 4.37114e-08 225.947 186.201)"/><rect width="4.035" height="4.035" fill="#FD366E" opacity=".8" rx="1.009" transform="matrix(-4.37114e-08 -1 -1 4.37114e-08 225.947 180.149)"/><rect width="4.035" height="4.035" fill="#FD366E" opacity=".64" rx="1.009" transform="matrix(-4.37114e-08 -1 -1 4.37114e-08 225.947 174.097)"/><rect width="4.035" height="4.035" fill="#FD366E" opacity=".4" rx="1.009" transform="matrix(-4.37114e-08 -1 -1 4.37114e-08 225.947 168.045)"/><rect width="4.035" height="4.035" fill="#FD366E" opacity=".8" rx="1.009" transform="matrix(-4.37114e-08 -1 -1 4.37114e-08 225.947 161.993)"/><rect width="4.035" height="4.035" fill="#FD366E" opacity=".4" rx="1.009" transform="matrix(-4.37114e-08 -1 -1 4.37114e-08 225.947 155.94)"/><rect width="4.035" height="4.035" fill="#FD366E" opacity=".16" rx="1.009" transform="matrix(-4.37114e-08 -1 -1 4.37114e-08 225.947 149.888)"/><rect width="4.035" height="4.035" fill="#FD366E" opacity=".32" rx="1.009" transform="matrix(-4.37114e-08 -1 -1 4.37114e-08 225.947 143.836)"/><rect width="4.035" height="4.035" fill="#FD366E" opacity=".16" rx="1.009" transform="matrix(-4.37114e-08 -1 -1 4.37114e-08 225.947 137.784)"/><rect width="4.035" height="4.035" fill="#FD366E" opacity=".64" rx="1.009" transform="matrix(-4.37114e-08 -1 -1 4.37114e-08 225.947 131.732)"/><rect width="4.035" height="4.035" fill="#FD366E" opacity=".16" rx="1.009" transform="matrix(-4.37114e-08 -1 -1 4.37114e-08 225.947 125.68)"/><rect width="4.035" height="4.035" fill="#FD366E" opacity=".64" rx="1.009" transform="matrix(-4.37114e-08 -1 -1 4.37114e-08 225.947 119.627)"/><rect width="4.035" height="4.035" fill="#FD366E" opacity=".32" rx="1.009" transform="matrix(-4.37114e-08 -1 -1 4.37114e-08 225.947 113.575)"/><rect width="4.035" height="4.035" fill="#FD366E" opacity=".8" rx="1.009" transform="matrix(-4.37114e-08 -1 -1 4.37114e-08 225.947 107.523)"/><rect width="4.035" height="4.035" fill="#FD366E" opacity=".4" rx="1.009" transform="matrix(-4.37114e-08 -1 -1 4.37114e-08 225.947 101.471)"/><rect width="4.035" height="4.035" fill="#FD366E" opacity=".32" rx="1.009" transform="matrix(-4.37114e-08 -1 -1 4.37114e-08 225.947 95.4189)"/><rect width="4.035" height="4.035" fill="#FD366E" opacity=".32" rx="1.009" transform="matrix(-4.37114e-08 -1 -1 4.37114e-08 225.947 89.3667)"/><rect width="4.035" height="4.035" fill="#FD366E" opacity=".64" rx="1.009" transform="matrix(-4.37114e-08 -1 -1 4.37114e-08 225.947 83.3145)"/><rect width="4.035" height="4.035" fill="#FD366E" opacity=".4" rx="1.009" transform="matrix(-4.37114e-08 -1 -1 4.37114e-08 225.947 77.2622)"/><rect width="4.035" height="4.035" fill="#FD366E" opacity=".16" rx="1.009" transform="matrix(-4.37114e-08 -1 -1 4.37114e-08 225.947 71.21)"/><rect width="4.035" height="4.035" fill="#FD366E" opacity=".8" rx="1.009" transform="matrix(-4.37114e-08 -1 -1 4.37114e-08 225.947 65.1582)"/><rect width="4.035" height="4.035" fill="#FD366E" opacity=".8" rx="1.009" transform="matrix(-4.37114e-08 -1 -1 4.37114e-08 225.947 59.106)"/><rect width="4.035" height="4.035" fill="#FD366E" opacity=".8" rx="1.009" transform="matrix(-4.37114e-08 -1 -1 4.37114e-08 225.947 53.0537)"/><rect width="4.035" height="4.035" fill="#FD366E" opacity=".64" rx="1.009" transform="matrix(-4.37114e-08 -1 -1 4.37114e-08 225.947 47.0015)"/><rect width="4.035" height="4.035" fill="#FD366E" opacity=".4" rx="1.009" transform="matrix(-4.37114e-08 -1 -1 4.37114e-08 225.947 40.9492)"/><rect width="4.035" height="4.035" fill="#FD366E" opacity=".4" rx="1.009" transform="matrix(-4.37114e-08 -1 -1 4.37114e-08 225.947 34.897)"/><rect width="4.035" height="4.035" fill="#FD366E" opacity=".32" rx="1.009" transform="matrix(-4.37114e-08 -1 -1 4.37114e-08 225.947 28.8447)"/><rect width="4.035" height="4.035" fill="#FD366E" opacity=".16" rx="1.009" transform="matrix(-4.37114e-08 -1 -1 4.37114e-08 225.947 22.793)"/><rect width="4.035" height="4.035" fill="#FD366E" opacity=".64" rx="1.009" transform="matrix(-4.37114e-08 -1 -1 4.37114e-08 225.947 16.7407)"/><rect width="4.035" height="4.035" fill="#FD366E" opacity=".32" rx="1.009" transform="matrix(-4.37114e-08 -1 -1 4.37114e-08 225.947 10.6885)"/><rect width="4.035" height="4.035" fill="#FD366E" opacity=".16" rx="1.009" transform="matrix(-4.37114e-08 -1 -1 4.37114e-08 225.947 4.63623)"/><rect width="4.035" height="4.035" x="219.896" y=".602" fill="#FD366E" opacity=".4" rx="1.009" transform="rotate(90 219.896 0.601562)"/><rect width="4.035" height="4.035" x="219.896" y="6.654" fill="#FD366E" opacity=".32" rx="1.009" transform="rotate(90 219.896 6.65381)"/><rect width="4.035" height="4.035" x="219.896" y="12.706" fill="#FD366E" opacity=".16" rx="1.009" transform="rotate(90 219.896 12.7061)"/><rect width="4.035" height="4.035" x="219.896" y="18.758" fill="#FD366E" opacity=".8" rx="1.009" transform="rotate(90 219.896 18.7583)"/><rect width="4.035" height="4.035" x="219.896" y="24.81" fill="#FD366E" opacity=".8" rx="1.009" transform="rotate(90 219.896 24.8101)"/><rect width="4.035" height="4.035" x="219.896" y="30.862" fill="#FD366E" opacity=".64" rx="1.009" transform="rotate(90 219.896 30.8623)"/><rect width="4.035" height="4.035" x="219.896" y="36.915" fill="#FD366E" opacity=".32" rx="1.009" transform="rotate(90 219.896 36.9146)"/><rect width="4.035" height="4.035" x="219.896" y="42.967" fill="#FD366E" opacity=".32" rx="1.009" transform="rotate(90 219.896 42.9668)"/><rect width="4.035" height="4.035" x="219.896" y="49.019" fill="#FD366E" opacity=".32" rx="1.009" transform="rotate(90 219.896 49.019)"/><rect width="4.035" height="4.035" x="219.896" y="55.071" fill="#FD366E" opacity=".64" rx="1.009" transform="rotate(90 219.896 55.0713)"/><rect width="4.035" height="4.035" x="219.896" y="61.123" fill="#FD366E" opacity=".16" rx="1.009" transform="rotate(90 219.896 61.1235)"/><rect width="4.035" height="4.035" x="219.896" y="67.175" fill="#FD366E" opacity=".64" rx="1.009" transform="rotate(90 219.896 67.1753)"/><rect width="4.035" height="4.035" x="219.896" y="73.228" fill="#FD366E" opacity=".4" rx="1.009" transform="rotate(90 219.896 73.2275)"/><rect width="4.035" height="4.035" x="219.896" y="79.28" fill="#FD366E" opacity=".4" rx="1.009" transform="rotate(90 219.896 79.2798)"/><rect width="4.035" height="4.035" x="219.896" y="85.332" fill="#FD366E" opacity=".8" rx="1.009" transform="rotate(90 219.896 85.332)"/><rect width="4.035" height="4.035" x="219.896" y="91.384" fill="#FD366E" opacity=".4" rx="1.009" transform="rotate(90 219.896 91.3843)"/><rect width="4.035" height="4.035" x="219.896" y="97.436" fill="#FD366E" opacity=".4" rx="1.009" transform="rotate(90 219.896 97.4365)"/><rect width="4.035" height="4.035" x="219.896" y="103.488" fill="#FD366E" opacity=".16" rx="1.009" transform="rotate(90 219.896 103.488)"/><rect width="4.035" height="4.035" x="219.896" y="109.541" fill="#FD366E" opacity=".8" rx="1.009" transform="rotate(90 219.896 109.541)"/><rect width="4.035" height="4.035" x="219.896" y="115.593" fill="#FD366E" opacity=".8" rx="1.009" transform="rotate(90 219.896 115.593)"/><rect width="4.035" height="4.035" x="219.896" y="121.645" fill="#FD366E" opacity=".8" rx="1.009" transform="rotate(90 219.896 121.645)"/><rect width="4.035" height="4.035" x="219.896" y="127.697" fill="#FD366E" opacity=".64" rx="1.009" transform="rotate(90 219.896 127.697)"/><rect width="4.035" height="4.035" x="219.896" y="133.75" fill="#FD366E" opacity=".4" rx="1.009" transform="rotate(90 219.896 133.75)"/><rect width="4.035" height="4.035" x="219.896" y="139.802" fill="#FD366E" opacity=".4" rx="1.009" transform="rotate(90 219.896 139.802)"/><rect width="4.035" height="4.035" x="219.896" y="145.854" fill="#FD366E" opacity=".32" rx="1.009" transform="rotate(90 219.896 145.854)"/><rect width="4.035" height="4.035" x="219.896" y="151.906" fill="#FD366E" opacity=".16" rx="1.009" transform="rotate(90 219.896 151.906)"/><rect width="4.035" height="4.035" x="219.896" y="157.958" fill="#FD366E" opacity=".64" rx="1.009" transform="rotate(90 219.896 157.958)"/><rect width="4.035" height="4.035" x="219.896" y="164.01" fill="#FD366E" opacity=".32" rx="1.009" transform="rotate(90 219.896 164.01)"/><rect width="4.035" height="4.035" x="219.896" y="170.062" fill="#FD366E" opacity=".16" rx="1.009" transform="rotate(90 219.896 170.062)"/><rect width="4.035" height="4.035" x="219.896" y="176.115" fill="#FD366E" opacity=".16" rx="1.009" transform="rotate(90 219.896 176.115)"/><rect width="4.035" height="4.035" x="219.896" y="182.167" fill="#FD366E" opacity=".64" rx="1.009" transform="rotate(90 219.896 182.167)"/><rect width="4.035" height="4.035" x="219.896" y="188.219" fill="#FD366E" opacity=".4" rx="1.009" transform="rotate(90 219.896 188.219)"/><rect width="4.035" height="4.035" x="219.896" y="194.271" fill="#FD366E" opacity=".32" rx="1.009" transform="rotate(90 219.896 194.271)"/><rect width="4.035" height="4.035" x="219.896" y="200.323" fill="#FD366E" opacity=".16" rx="1.009" transform="rotate(90 219.896 200.323)"/><rect width="4.035" height="4.035" x="219.896" y="206.375" fill="#FD366E" opacity=".32" rx="1.009" transform="rotate(90 219.896 206.375)"/><rect width="4.035" height="4.035" x="219.896" y="212.428" fill="#FD366E" opacity=".32" rx="1.009" transform="rotate(90 219.896 212.428)"/><rect width="4.035" height="4.035" x="219.896" y="218.479" fill="#FD366E" opacity=".64" rx="1.009" transform="rotate(90 219.896 218.479)"/><rect width="4.035" height="4.035" x="219.896" y="224.532" fill="#FD366E" opacity=".4" rx="1.009" transform="rotate(90 219.896 224.532)"/><rect width="4.035" height="4.035" x="219.896" y="230.584" fill="#FD366E" opacity=".8" rx="1.009" transform="rotate(90 219.896 230.584)"/><rect width="4.035" height="4.035" x="219.896" y="236.636" fill="#FD366E" opacity=".64" rx="1.009" transform="rotate(90 219.896 236.636)"/><rect width="4.035" height="4.035" x="219.896" y="242.688" fill="#FD366E" opacity=".4" rx="1.009" transform="rotate(90 219.896 242.688)"/><rect width="4.035" height="4.035" x="219.896" y="248.741" fill="#FD366E" opacity=".32" rx="1.009" transform="rotate(90 219.896 248.741)"/><rect width="4.035" height="4.035" x="219.896" y="254.793" fill="#FD366E" opacity=".16" rx="1.009" transform="rotate(90 219.896 254.793)"/><rect width="4.035" height="4.035" x="219.896" y="260.845" fill="#FD366E" opacity=".4" rx="1.009" transform="rotate(90 219.896 260.845)"/><rect width="4.035" height="4.035" x="219.896" y="266.897" fill="#FD366E" opacity=".32" rx="1.009" transform="rotate(90 219.896 266.897)"/><rect width="4.035" height="4.035" x="219.896" y="272.949" fill="#FD366E" opacity=".8" rx="1.009" transform="rotate(90 219.896 272.949)"/><rect width="4.035" height="4.035" x="219.896" y="279.001" fill="#FD366E" opacity=".16" rx="1.009" transform="rotate(90 219.896 279.001)"/><rect width="4.035" height="4.035" x="219.896" y="285.054" fill="#FD366E" opacity=".32" rx="1.009" transform="rotate(90 219.896 285.054)"/><rect width="4.035" height="4.035" x="219.896" y="291.106" fill="#FD366E" opacity=".16" rx="1.009" transform="rotate(90 219.896 291.106)"/><rect width="4.035" height="4.035" x="219.896" y="297.158" fill="#FD366E" opacity=".64" rx="1.009" transform="rotate(90 219.896 297.158)"/><rect width="4.035" height="4.035" x="219.896" y="303.21" fill="#FD366E" opacity=".16" rx="1.009" transform="rotate(90 219.896 303.21)"/><rect width="4.035" height="4.035" x="219.896" y="309.262" fill="#FD366E" opacity=".64" rx="1.009" transform="rotate(90 219.896 309.262)"/><rect width="4.035" height="4.035" x="219.896" y="315.314" fill="#FD366E" opacity=".32" rx="1.009" transform="rotate(90 219.896 315.314)"/><rect width="4.035" height="4.035" x="219.896" y="321.367" fill="#FD366E" opacity=".8" rx="1.009" transform="rotate(90 219.896 321.367)"/><rect width="4.035" height="4.035" x="213.844" y=".602" fill="#FD366E" opacity=".64" rx="1.009" transform="rotate(90 213.844 0.601562)"/><rect width="4.035" height="4.035" x="213.844" y="6.654" fill="#FD366E" opacity=".4" rx="1.009" transform="rotate(90 213.844 6.65381)"/><rect width="4.035" height="4.035" x="213.844" y="12.706" fill="#FD366E" opacity=".32" rx="1.009" transform="rotate(90 213.844 12.7061)"/><rect width="4.035" height="4.035" x="213.844" y="18.758" fill="#FD366E" opacity=".16" rx="1.009" transform="rotate(90 213.844 18.7583)"/><rect width="4.035" height="4.035" x="213.844" y="24.81" fill="#FD366E" opacity=".8" rx="1.009" transform="rotate(90 213.844 24.8101)"/><rect width="4.035" height="4.035" x="213.844" y="30.862" fill="#FD366E" opacity=".64" rx="1.009" transform="rotate(90 213.844 30.8623)"/><rect width="4.035" height="4.035" x="213.844" y="36.915" fill="#FD366E" opacity=".4" rx="1.009" transform="rotate(90 213.844 36.9146)"/><rect width="4.035" height="4.035" x="213.844" y="42.967" fill="#FD366E" opacity=".32" rx="1.009" transform="rotate(90 213.844 42.9668)"/><rect width="4.035" height="4.035" x="213.844" y="49.019" fill="#FD366E" opacity=".16" rx="1.009" transform="rotate(90 213.844 49.019)"/><rect width="4.035" height="4.035" x="213.844" y="55.071" fill="#FD366E" opacity=".4" rx="1.009" transform="rotate(90 213.844 55.0713)"/><rect width="4.035" height="4.035" x="213.844" y="61.123" fill="#FD366E" opacity=".32" rx="1.009" transform="rotate(90 213.844 61.1235)"/><rect width="4.035" height="4.035" x="213.844" y="67.175" fill="#FD366E" opacity=".8" rx="1.009" transform="rotate(90 213.844 67.1753)"/><rect width="4.035" height="4.035" x="213.844" y="73.228" fill="#FD366E" opacity=".16" rx="1.009" transform="rotate(90 213.844 73.2275)"/><rect width="4.035" height="4.035" x="213.844" y="79.28" fill="#FD366E" opacity=".4" rx="1.009" transform="rotate(90 213.844 79.2798)"/><rect width="4.035" height="4.035" x="213.844" y="85.332" fill="#FD366E" opacity=".32" rx="1.009" transform="rotate(90 213.844 85.332)"/><rect width="4.035" height="4.035" x="213.844" y="91.384" fill="#FD366E" opacity=".32" rx="1.009" transform="rotate(90 213.844 91.3843)"/><rect width="4.035" height="4.035" x="213.844" y="97.436" fill="#FD366E" opacity=".32" rx="1.009" transform="rotate(90 213.844 97.4365)"/><rect width="4.035" height="4.035" x="213.844" y="103.488" fill="#FD366E" opacity=".64" rx="1.009" transform="rotate(90 213.844 103.488)"/><rect width="4.035" height="4.035" x="213.844" y="109.541" fill="#FD366E" opacity=".16" rx="1.009" transform="rotate(90 213.844 109.541)"/><rect width="4.035" height="4.035" x="213.844" y="115.593" fill="#FD366E" opacity=".64" rx="1.009" transform="rotate(90 213.844 115.593)"/><rect width="4.035" height="4.035" x="213.844" y="121.645" fill="#FD366E" opacity=".4" rx="1.009" transform="rotate(90 213.844 121.645)"/><rect width="4.035" height="4.035" x="213.844" y="127.697" fill="#FD366E" opacity=".32" rx="1.009" transform="rotate(90 213.844 127.697)"/><rect width="4.035" height="4.035" x="213.844" y="133.75" fill="#FD366E" opacity=".16" rx="1.009" transform="rotate(90 213.844 133.75)"/><rect width="4.035" height="4.035" x="213.844" y="139.802" fill="#FD366E" opacity=".8" rx="1.009" transform="rotate(90 213.844 139.802)"/><rect width="4.035" height="4.035" x="213.844" y="145.854" fill="#FD366E" opacity=".8" rx="1.009" transform="rotate(90 213.844 145.854)"/><rect width="4.035" height="4.035" x="213.844" y="151.906" fill="#FD366E" opacity=".64" rx="1.009" transform="rotate(90 213.844 151.906)"/><rect width="4.035" height="4.035" x="213.844" y="157.958" fill="#FD366E" opacity=".4" rx="1.009" transform="rotate(90 213.844 157.958)"/><rect width="4.035" height="4.035" x="213.844" y="164.01" fill="#FD366E" opacity=".8" rx="1.009" transform="rotate(90 213.844 164.01)"/><rect width="4.035" height="4.035" x="213.844" y="170.062" fill="#FD366E" opacity=".4" rx="1.009" transform="rotate(90 213.844 170.062)"/><rect width="4.035" height="4.035" x="213.844" y="176.115" fill="#FD366E" opacity=".16" rx="1.009" transform="rotate(90 213.844 176.115)"/><rect width="4.035" height="4.035" x="213.844" y="182.167" fill="#FD366E" opacity=".32" rx="1.009" transform="rotate(90 213.844 182.167)"/><rect width="4.035" height="4.035" x="213.844" y="188.219" fill="#FD366E" opacity=".16" rx="1.009" transform="rotate(90 213.844 188.219)"/><rect width="4.035" height="4.035" x="213.844" y="194.271" fill="#FD366E" opacity=".64" rx="1.009" transform="rotate(90 213.844 194.271)"/><rect width="4.035" height="4.035" x="213.844" y="200.323" fill="#FD366E" opacity=".16" rx="1.009" transform="rotate(90 213.844 200.323)"/><rect width="4.035" height="4.035" x="213.844" y="206.375" fill="#FD366E" opacity=".64" rx="1.009" transform="rotate(90 213.844 206.375)"/><rect width="4.035" height="4.035" x="213.844" y="212.428" fill="#FD366E" opacity=".32" rx="1.009" transform="rotate(90 213.844 212.428)"/><rect width="4.035" height="4.035" x="213.844" y="218.479" fill="#FD366E" opacity=".8" rx="1.009" transform="rotate(90 213.844 218.479)"/><rect width="4.035" height="4.035" x="213.844" y="224.532" fill="#FD366E" opacity=".4" rx="1.009" transform="rotate(90 213.844 224.532)"/><rect width="4.035" height="4.035" x="213.844" y="230.584" fill="#FD366E" opacity=".32" rx="1.009" transform="rotate(90 213.844 230.584)"/><rect width="4.035" height="4.035" x="213.844" y="236.636" fill="#FD366E" opacity=".32" rx="1.009" transform="rotate(90 213.844 236.636)"/><rect width="4.035" height="4.035" x="213.844" y="242.688" fill="#FD366E" opacity=".64" rx="1.009" transform="rotate(90 213.844 242.688)"/><rect width="4.035" height="4.035" x="213.844" y="248.741" fill="#FD366E" opacity=".4" rx="1.009" transform="rotate(90 213.844 248.741)"/><rect width="4.035" height="4.035" x="213.844" y="254.793" fill="#FD366E" opacity=".16" rx="1.009" transform="rotate(90 213.844 254.793)"/><rect width="4.035" height="4.035" x="213.844" y="260.845" fill="#FD366E" opacity=".8" rx="1.009" transform="rotate(90 213.844 260.845)"/><rect width="4.035" height="4.035" x="213.844" y="266.897" fill="#FD366E" opacity=".8" rx="1.009" transform="rotate(90 213.844 266.897)"/><rect width="4.035" height="4.035" x="213.844" y="272.949" fill="#FD366E" opacity=".8" rx="1.009" transform="rotate(90 213.844 272.949)"/><rect width="4.035" height="4.035" x="213.844" y="279.001" fill="#FD366E" opacity=".64" rx="1.009" transform="rotate(90 213.844 279.001)"/><rect width="4.035" height="4.035" x="213.844" y="285.054" fill="#FD366E" opacity=".4" rx="1.009" transform="rotate(90 213.844 285.054)"/><rect width="4.035" height="4.035" x="213.844" y="291.106" fill="#FD366E" opacity=".4" rx="1.009" transform="rotate(90 213.844 291.106)"/><rect width="4.035" height="4.035" x="213.844" y="297.158" fill="#FD366E" opacity=".32" rx="1.009" transform="rotate(90 213.844 297.158)"/><rect width="4.035" height="4.035" x="213.844" y="303.21" fill="#FD366E" opacity=".16" rx="1.009" transform="rotate(90 213.844 303.21)"/><rect width="4.035" height="4.035" x="213.844" y="309.262" fill="#FD366E" opacity=".64" rx="1.009" transform="rotate(90 213.844 309.262)"/><rect width="4.035" height="4.035" x="213.844" y="315.314" fill="#FD366E" opacity=".32" rx="1.009" transform="rotate(90 213.844 315.314)"/><rect width="4.035" height="4.035" x="213.844" y="321.367" fill="#FD366E" opacity=".16" rx="1.009" transform="rotate(90 213.844 321.367)"/><rect width="4.035" height="4.035" fill="#FD366E" opacity=".64" rx="1.009" transform="matrix(-4.37114e-08 -1 -1 4.37114e-08 207.791 325.401)"/><rect width="4.035" height="4.035" fill="#FD366E" opacity=".4" rx="1.009" transform="matrix(-4.37114e-08 -1 -1 4.37114e-08 207.791 319.349)"/><rect width="4.035" height="4.035" fill="#FD366E" opacity=".32" rx="1.009" transform="matrix(-4.37114e-08 -1 -1 4.37114e-08 207.791 313.297)"/><rect width="4.035" height="4.035" fill="#FD366E" opacity=".16" rx="1.009" transform="matrix(-4.37114e-08 -1 -1 4.37114e-08 207.791 307.245)"/><rect width="4.035" height="4.035" fill="#FD366E" opacity=".8" rx="1.009" transform="matrix(-4.37114e-08 -1 -1 4.37114e-08 207.791 301.193)"/><rect width="4.035" height="4.035" fill="#FD366E" opacity=".64" rx="1.009" transform="matrix(-4.37114e-08 -1 -1 4.37114e-08 207.791 295.141)"/><rect width="4.035" height="4.035" fill="#FD366E" opacity=".4" rx="1.009" transform="matrix(-4.37114e-08 -1 -1 4.37114e-08 207.791 289.088)"/><rect width="4.035" height="4.035" fill="#FD366E" opacity=".32" rx="1.009" transform="matrix(-4.37114e-08 -1 -1 4.37114e-08 207.791 283.036)"/><rect width="4.035" height="4.035" fill="#FD366E" opacity=".16" rx="1.009" transform="matrix(-4.37114e-08 -1 -1 4.37114e-08 207.791 276.984)"/><rect width="4.035" height="4.035" fill="#FD366E" opacity=".4" rx="1.009" transform="matrix(-4.37114e-08 -1 -1 4.37114e-08 207.791 270.932)"/><rect width="4.035" height="4.035" fill="#FD366E" opacity=".32" rx="1.009" transform="matrix(-4.37114e-08 -1 -1 4.37114e-08 207.791 264.879)"/><rect width="4.035" height="4.035" fill="#FD366E" opacity=".8" rx="1.009" transform="matrix(-4.37114e-08 -1 -1 4.37114e-08 207.791 258.828)"/><rect width="4.035" height="4.035" fill="#FD366E" opacity=".16" rx="1.009" transform="matrix(-4.37114e-08 -1 -1 4.37114e-08 207.791 252.775)"/><rect width="4.035" height="4.035" fill="#FD366E" opacity=".4" rx="1.009" transform="matrix(-4.37114e-08 -1 -1 4.37114e-08 207.791 246.723)"/><rect width="4.035" height="4.035" fill="#FD366E" opacity=".32" rx="1.009" transform="matrix(-4.37114e-08 -1 -1 4.37114e-08 207.791 240.671)"/><rect width="4.035" height="4.035" fill="#FD366E" opacity=".32" rx="1.009" transform="matrix(-4.37114e-08 -1 -1 4.37114e-08 207.791 234.619)"/><rect width="4.035" height="4.035" fill="#FD366E" opacity=".32" rx="1.009" transform="matrix(-4.37114e-08 -1 -1 4.37114e-08 207.791 228.566)"/><rect width="4.035" height="4.035" fill="#FD366E" opacity=".64" rx="1.009" transform="matrix(-4.37114e-08 -1 -1 4.37114e-08 207.791 222.515)"/><rect width="4.035" height="4.035" fill="#FD366E" opacity=".16" rx="1.009" transform="matrix(-4.37114e-08 -1 -1 4.37114e-08 207.791 216.462)"/><rect width="4.035" height="4.035" fill="#FD366E" opacity=".64" rx="1.009" transform="matrix(-4.37114e-08 -1 -1 4.37114e-08 207.791 210.41)"/><rect width="4.035" height="4.035" fill="#FD366E" opacity=".4" rx="1.009" transform="matrix(-4.37114e-08 -1 -1 4.37114e-08 207.791 204.358)"/><rect width="4.035" height="4.035" fill="#FD366E" opacity=".32" rx="1.009" transform="matrix(-4.37114e-08 -1 -1 4.37114e-08 207.791 198.306)"/><rect width="4.035" height="4.035" fill="#FD366E" opacity=".16" rx="1.009" transform="matrix(-4.37114e-08 -1 -1 4.37114e-08 207.791 192.253)"/><rect width="4.035" height="4.035" fill="#FD366E" opacity=".8" rx="1.009" transform="matrix(-4.37114e-08 -1 -1 4.37114e-08 207.791 186.201)"/><rect width="4.035" height="4.035" fill="#FD366E" opacity=".8" rx="1.009" transform="matrix(-4.37114e-08 -1 -1 4.37114e-08 207.791 180.149)"/><rect width="4.035" height="4.035" fill="#FD366E" opacity=".64" rx="1.009" transform="matrix(-4.37114e-08 -1 -1 4.37114e-08 207.791 174.097)"/><rect width="4.035" height="4.035" fill="#FD366E" opacity=".4" rx="1.009" transform="matrix(-4.37114e-08 -1 -1 4.37114e-08 207.791 168.045)"/><rect width="4.035" height="4.035" fill="#FD366E" opacity=".8" rx="1.009" transform="matrix(-4.37114e-08 -1 -1 4.37114e-08 207.791 161.993)"/><rect width="4.035" height="4.035" fill="#FD366E" opacity=".4" rx="1.009" transform="matrix(-4.37114e-08 -1 -1 4.37114e-08 207.791 155.94)"/><rect width="4.035" height="4.035" fill="#FD366E" opacity=".16" rx="1.009" transform="matrix(-4.37114e-08 -1 -1 4.37114e-08 207.791 149.888)"/><rect width="4.035" height="4.035" fill="#FD366E" opacity=".32" rx="1.009" transform="matrix(-4.37114e-08 -1 -1 4.37114e-08 207.791 143.836)"/><rect width="4.035" height="4.035" fill="#FD366E" opacity=".16" rx="1.009" transform="matrix(-4.37114e-08 -1 -1 4.37114e-08 207.791 137.784)"/><rect width="4.035" height="4.035" fill="#FD366E" opacity=".64" rx="1.009" transform="matrix(-4.37114e-08 -1 -1 4.37114e-08 207.791 131.732)"/><rect width="4.035" height="4.035" fill="#FD366E" opacity=".16" rx="1.009" transform="matrix(-4.37114e-08 -1 -1 4.37114e-08 207.791 125.68)"/><rect width="4.035" height="4.035" fill="#FD366E" opacity=".64" rx="1.009" transform="matrix(-4.37114e-08 -1 -1 4.37114e-08 207.791 119.627)"/><rect width="4.035" height="4.035" fill="#FD366E" opacity=".32" rx="1.009" transform="matrix(-4.37114e-08 -1 -1 4.37114e-08 207.791 113.575)"/><rect width="4.035" height="4.035" fill="#FD366E" opacity=".8" rx="1.009" transform="matrix(-4.37114e-08 -1 -1 4.37114e-08 207.791 107.523)"/><rect width="4.035" height="4.035" fill="#FD366E" opacity=".4" rx="1.009" transform="matrix(-4.37114e-08 -1 -1 4.37114e-08 207.791 101.471)"/><rect width="4.035" height="4.035" fill="#FD366E" opacity=".32" rx="1.009" transform="matrix(-4.37114e-08 -1 -1 4.37114e-08 207.791 95.4189)"/><rect width="4.035" height="4.035" fill="#FD366E" opacity=".32" rx="1.009" transform="matrix(-4.37114e-08 -1 -1 4.37114e-08 207.791 89.3667)"/><rect width="4.035" height="4.035" fill="#FD366E" opacity=".64" rx="1.009" transform="matrix(-4.37114e-08 -1 -1 4.37114e-08 207.791 83.3145)"/><rect width="4.035" height="4.035" fill="#FD366E" opacity=".4" rx="1.009" transform="matrix(-4.37114e-08 -1 -1 4.37114e-08 207.791 77.2622)"/><rect width="4.035" height="4.035" fill="#FD366E" opacity=".16" rx="1.009" transform="matrix(-4.37114e-08 -1 -1 4.37114e-08 207.791 71.21)"/><rect width="4.035" height="4.035" fill="#FD366E" opacity=".8" rx="1.009" transform="matrix(-4.37114e-08 -1 -1 4.37114e-08 207.791 65.1582)"/><rect width="4.035" height="4.035" fill="#FD366E" opacity=".8" rx="1.009" transform="matrix(-4.37114e-08 -1 -1 4.37114e-08 207.791 59.106)"/><rect width="4.035" height="4.035" fill="#FD366E" opacity=".8" rx="1.009" transform="matrix(-4.37114e-08 -1 -1 4.37114e-08 207.791 53.0537)"/><rect width="4.035" height="4.035" fill="#FD366E" opacity=".64" rx="1.009" transform="matrix(-4.37114e-08 -1 -1 4.37114e-08 207.791 47.0015)"/><rect width="4.035" height="4.035" fill="#FD366E" opacity=".4" rx="1.009" transform="matrix(-4.37114e-08 -1 -1 4.37114e-08 207.791 40.9492)"/><rect width="4.035" height="4.035" fill="#FD366E" opacity=".4" rx="1.009" transform="matrix(-4.37114e-08 -1 -1 4.37114e-08 207.791 34.897)"/><rect width="4.035" height="4.035" fill="#FD366E" opacity=".32" rx="1.009" transform="matrix(-4.37114e-08 -1 -1 4.37114e-08 207.791 28.8447)"/><rect width="4.035" height="4.035" fill="#FD366E" opacity=".16" rx="1.009" transform="matrix(-4.37114e-08 -1 -1 4.37114e-08 207.791 22.793)"/><rect width="4.035" height="4.035" fill="#FD366E" opacity=".64" rx="1.009" transform="matrix(-4.37114e-08 -1 -1 4.37114e-08 207.791 16.7407)"/><rect width="4.035" height="4.035" fill="#FD366E" opacity=".32" rx="1.009" transform="matrix(-4.37114e-08 -1 -1 4.37114e-08 207.791 10.6885)"/><rect width="4.035" height="4.035" fill="#FD366E" opacity=".16" rx="1.009" transform="matrix(-4.37114e-08 -1 -1 4.37114e-08 207.791 4.63623)"/><rect width="4.035" height="4.035" x="201.738" y=".602" fill="#FD366E" opacity=".4" rx="1.009" transform="rotate(90 201.738 0.601562)"/><rect width="4.035" height="4.035" x="201.738" y="6.654" fill="#FD366E" opacity=".32" rx="1.009" transform="rotate(90 201.738 6.65381)"/><rect width="4.035" height="4.035" x="201.738" y="12.706" fill="#FD366E" opacity=".16" rx="1.009" transform="rotate(90 201.738 12.7061)"/><rect width="4.035" height="4.035" x="201.738" y="18.758" fill="#FD366E" opacity=".8" rx="1.009" transform="rotate(90 201.738 18.7583)"/><rect width="4.035" height="4.035" x="201.738" y="24.81" fill="#FD366E" opacity=".8" rx="1.009" transform="rotate(90 201.738 24.8101)"/><rect width="4.035" height="4.035" x="201.738" y="30.862" fill="#FD366E" opacity=".64" rx="1.009" transform="rotate(90 201.738 30.8623)"/><rect width="4.035" height="4.035" x="201.738" y="36.915" fill="#FD366E" opacity=".32" rx="1.009" transform="rotate(90 201.738 36.9146)"/><rect width="4.035" height="4.035" x="201.738" y="42.967" fill="#FD366E" opacity=".32" rx="1.009" transform="rotate(90 201.738 42.9668)"/><rect width="4.035" height="4.035" x="201.738" y="49.019" fill="#FD366E" opacity=".32" rx="1.009" transform="rotate(90 201.738 49.019)"/><rect width="4.035" height="4.035" x="201.738" y="55.071" fill="#FD366E" opacity=".64" rx="1.009" transform="rotate(90 201.738 55.0713)"/><rect width="4.035" height="4.035" x="201.738" y="61.123" fill="#FD366E" opacity=".16" rx="1.009" transform="rotate(90 201.738 61.1235)"/><rect width="4.035" height="4.035" x="201.738" y="67.175" fill="#FD366E" opacity=".64" rx="1.009" transform="rotate(90 201.738 67.1753)"/><rect width="4.035" height="4.035" x="201.738" y="73.228" fill="#FD366E" opacity=".4" rx="1.009" transform="rotate(90 201.738 73.2275)"/><rect width="4.035" height="4.035" x="201.738" y="79.28" fill="#FD366E" opacity=".4" rx="1.009" transform="rotate(90 201.738 79.2798)"/><rect width="4.035" height="4.035" x="201.738" y="85.332" fill="#FD366E" opacity=".8" rx="1.009" transform="rotate(90 201.738 85.332)"/><rect width="4.035" height="4.035" x="201.738" y="91.384" fill="#FD366E" opacity=".4" rx="1.009" transform="rotate(90 201.738 91.3843)"/><rect width="4.035" height="4.035" x="201.738" y="97.436" fill="#FD366E" opacity=".4" rx="1.009" transform="rotate(90 201.738 97.4365)"/><rect width="4.035" height="4.035" x="201.738" y="103.488" fill="#FD366E" opacity=".16" rx="1.009" transform="rotate(90 201.738 103.488)"/><rect width="4.035" height="4.035" x="201.738" y="109.541" fill="#FD366E" opacity=".8" rx="1.009" transform="rotate(90 201.738 109.541)"/><rect width="4.035" height="4.035" x="201.738" y="115.593" fill="#FD366E" opacity=".8" rx="1.009" transform="rotate(90 201.738 115.593)"/><rect width="4.035" height="4.035" x="201.738" y="121.645" fill="#FD366E" opacity=".8" rx="1.009" transform="rotate(90 201.738 121.645)"/><rect width="4.035" height="4.035" x="201.738" y="127.697" fill="#FD366E" opacity=".64" rx="1.009" transform="rotate(90 201.738 127.697)"/><rect width="4.035" height="4.035" x="201.738" y="133.75" fill="#FD366E" opacity=".4" rx="1.009" transform="rotate(90 201.738 133.75)"/><rect width="4.035" height="4.035" x="201.738" y="139.802" fill="#FD366E" opacity=".4" rx="1.009" transform="rotate(90 201.738 139.802)"/><rect width="4.035" height="4.035" x="201.738" y="145.854" fill="#FD366E" opacity=".32" rx="1.009" transform="rotate(90 201.738 145.854)"/><rect width="4.035" height="4.035" x="201.738" y="151.906" fill="#FD366E" opacity=".16" rx="1.009" transform="rotate(90 201.738 151.906)"/><rect width="4.035" height="4.035" x="201.738" y="157.958" fill="#FD366E" opacity=".64" rx="1.009" transform="rotate(90 201.738 157.958)"/><rect width="4.035" height="4.035" x="201.738" y="164.01" fill="#FD366E" opacity=".32" rx="1.009" transform="rotate(90 201.738 164.01)"/><rect width="4.035" height="4.035" x="201.738" y="170.062" fill="#FD366E" opacity=".16" rx="1.009" transform="rotate(90 201.738 170.062)"/><rect width="4.035" height="4.035" x="201.738" y="176.115" fill="#FD366E" opacity=".16" rx="1.009" transform="rotate(90 201.738 176.115)"/><rect width="4.035" height="4.035" x="201.738" y="182.167" fill="#FD366E" opacity=".64" rx="1.009" transform="rotate(90 201.738 182.167)"/><rect width="4.035" height="4.035" x="201.738" y="188.219" fill="#FD366E" opacity=".4" rx="1.009" transform="rotate(90 201.738 188.219)"/><rect width="4.035" height="4.035" x="201.738" y="194.271" fill="#FD366E" opacity=".32" rx="1.009" transform="rotate(90 201.738 194.271)"/><rect width="4.035" height="4.035" x="201.738" y="200.323" fill="#FD366E" opacity=".16" rx="1.009" transform="rotate(90 201.738 200.323)"/><rect width="4.035" height="4.035" x="201.738" y="206.375" fill="#FD366E" opacity=".32" rx="1.009" transform="rotate(90 201.738 206.375)"/><rect width="4.035" height="4.035" x="201.738" y="212.428" fill="#FD366E" opacity=".32" rx="1.009" transform="rotate(90 201.738 212.428)"/><rect width="4.035" height="4.035" x="201.738" y="218.479" fill="#FD366E" opacity=".64" rx="1.009" transform="rotate(90 201.738 218.479)"/><rect width="4.035" height="4.035" x="201.738" y="224.532" fill="#FD366E" opacity=".4" rx="1.009" transform="rotate(90 201.738 224.532)"/><rect width="4.035" height="4.035" x="201.738" y="230.584" fill="#FD366E" opacity=".8" rx="1.009" transform="rotate(90 201.738 230.584)"/><rect width="4.035" height="4.035" x="201.738" y="236.636" fill="#FD366E" opacity=".64" rx="1.009" transform="rotate(90 201.738 236.636)"/><rect width="4.035" height="4.035" x="201.738" y="242.688" fill="#FD366E" opacity=".4" rx="1.009" transform="rotate(90 201.738 242.688)"/><rect width="4.035" height="4.035" x="201.738" y="248.741" fill="#FD366E" opacity=".32" rx="1.009" transform="rotate(90 201.738 248.741)"/><rect width="4.035" height="4.035" x="201.738" y="254.793" fill="#FD366E" opacity=".16" rx="1.009" transform="rotate(90 201.738 254.793)"/><rect width="4.035" height="4.035" x="201.738" y="260.845" fill="#FD366E" opacity=".4" rx="1.009" transform="rotate(90 201.738 260.845)"/><rect width="4.035" height="4.035" x="201.738" y="266.897" fill="#FD366E" opacity=".32" rx="1.009" transform="rotate(90 201.738 266.897)"/><rect width="4.035" height="4.035" x="201.738" y="272.949" fill="#FD366E" opacity=".8" rx="1.009" transform="rotate(90 201.738 272.949)"/><rect width="4.035" height="4.035" x="201.738" y="279.001" fill="#FD366E" opacity=".16" rx="1.009" transform="rotate(90 201.738 279.001)"/><rect width="4.035" height="4.035" x="201.738" y="285.054" fill="#FD366E" opacity=".32" rx="1.009" transform="rotate(90 201.738 285.054)"/><rect width="4.035" height="4.035" x="201.738" y="291.106" fill="#FD366E" opacity=".16" rx="1.009" transform="rotate(90 201.738 291.106)"/><rect width="4.035" height="4.035" x="201.738" y="297.158" fill="#FD366E" opacity=".64" rx="1.009" transform="rotate(90 201.738 297.158)"/><rect width="4.035" height="4.035" x="201.738" y="303.21" fill="#FD366E" opacity=".16" rx="1.009" transform="rotate(90 201.738 303.21)"/><rect width="4.035" height="4.035" x="201.738" y="309.262" fill="#FD366E" opacity=".64" rx="1.009" transform="rotate(90 201.738 309.262)"/><rect width="4.035" height="4.035" x="201.738" y="315.314" fill="#FD366E" opacity=".32" rx="1.009" transform="rotate(90 201.738 315.314)"/><rect width="4.035" height="4.035" x="201.738" y="321.367" fill="#FD366E" opacity=".8" rx="1.009" transform="rotate(90 201.738 321.367)"/><rect width="4.035" height="4.035" x="195.688" y=".602" fill="#FD366E" opacity=".64" rx="1.009" transform="rotate(90 195.688 0.601562)"/><rect width="4.035" height="4.035" x="195.688" y="6.654" fill="#FD366E" opacity=".4" rx="1.009" transform="rotate(90 195.688 6.65381)"/><rect width="4.035" height="4.035" x="195.688" y="12.706" fill="#FD366E" opacity=".32" rx="1.009" transform="rotate(90 195.688 12.7061)"/><rect width="4.035" height="4.035" x="195.688" y="18.758" fill="#FD366E" opacity=".16" rx="1.009" transform="rotate(90 195.688 18.7583)"/><rect width="4.035" height="4.035" x="195.688" y="24.81" fill="#FD366E" opacity=".8" rx="1.009" transform="rotate(90 195.688 24.8101)"/><rect width="4.035" height="4.035" x="195.688" y="30.862" fill="#FD366E" opacity=".64" rx="1.009" transform="rotate(90 195.688 30.8623)"/><rect width="4.035" height="4.035" x="195.688" y="36.915" fill="#FD366E" opacity=".4" rx="1.009" transform="rotate(90 195.688 36.9146)"/><rect width="4.035" height="4.035" x="195.688" y="42.967" fill="#FD366E" opacity=".32" rx="1.009" transform="rotate(90 195.688 42.9668)"/><rect width="4.035" height="4.035" x="195.688" y="49.019" fill="#FD366E" opacity=".16" rx="1.009" transform="rotate(90 195.688 49.019)"/><rect width="4.035" height="4.035" x="195.688" y="55.071" fill="#FD366E" opacity=".4" rx="1.009" transform="rotate(90 195.688 55.0713)"/><rect width="4.035" height="4.035" x="195.688" y="61.123" fill="#FD366E" opacity=".32" rx="1.009" transform="rotate(90 195.688 61.1235)"/><rect width="4.035" height="4.035" x="195.688" y="67.175" fill="#FD366E" opacity=".8" rx="1.009" transform="rotate(90 195.688 67.1753)"/><rect width="4.035" height="4.035" x="195.688" y="73.228" fill="#FD366E" opacity=".16" rx="1.009" transform="rotate(90 195.688 73.2275)"/><rect width="4.035" height="4.035" x="195.688" y="79.28" fill="#FD366E" opacity=".4" rx="1.009" transform="rotate(90 195.688 79.2798)"/><rect width="4.035" height="4.035" x="195.688" y="85.332" fill="#FD366E" opacity=".32" rx="1.009" transform="rotate(90 195.688 85.332)"/><rect width="4.035" height="4.035" x="195.688" y="91.384" fill="#FD366E" opacity=".32" rx="1.009" transform="rotate(90 195.688 91.3843)"/><rect width="4.035" height="4.035" x="195.688" y="97.436" fill="#FD366E" opacity=".32" rx="1.009" transform="rotate(90 195.688 97.4365)"/><rect width="4.035" height="4.035" x="195.688" y="103.488" fill="#FD366E" opacity=".64" rx="1.009" transform="rotate(90 195.688 103.488)"/><rect width="4.035" height="4.035" x="195.688" y="109.541" fill="#FD366E" opacity=".16" rx="1.009" transform="rotate(90 195.688 109.541)"/><rect width="4.035" height="4.035" x="195.688" y="115.593" fill="#FD366E" opacity=".64" rx="1.009" transform="rotate(90 195.688 115.593)"/><rect width="4.035" height="4.035" x="195.688" y="121.645" fill="#FD366E" opacity=".4" rx="1.009" transform="rotate(90 195.688 121.645)"/><rect width="4.035" height="4.035" x="195.688" y="127.697" fill="#FD366E" opacity=".32" rx="1.009" transform="rotate(90 195.688 127.697)"/><rect width="4.035" height="4.035" x="195.688" y="133.75" fill="#FD366E" opacity=".16" rx="1.009" transform="rotate(90 195.688 133.75)"/><rect width="4.035" height="4.035" x="195.688" y="139.802" fill="#FD366E" opacity=".8" rx="1.009" transform="rotate(90 195.688 139.802)"/><rect width="4.035" height="4.035" x="195.688" y="145.854" fill="#FD366E" opacity=".8" rx="1.009" transform="rotate(90 195.688 145.854)"/><rect width="4.035" height="4.035" x="195.688" y="151.906" fill="#FD366E" opacity=".64" rx="1.009" transform="rotate(90 195.688 151.906)"/><rect width="4.035" height="4.035" x="195.688" y="157.958" fill="#FD366E" opacity=".4" rx="1.009" transform="rotate(90 195.688 157.958)"/><rect width="4.035" height="4.035" x="195.688" y="164.01" fill="#FD366E" opacity=".8" rx="1.009" transform="rotate(90 195.688 164.01)"/><rect width="4.035" height="4.035" x="195.688" y="170.062" fill="#FD366E" opacity=".4" rx="1.009" transform="rotate(90 195.688 170.062)"/><rect width="4.035" height="4.035" x="195.688" y="176.115" fill="#FD366E" opacity=".16" rx="1.009" transform="rotate(90 195.688 176.115)"/><rect width="4.035" height="4.035" x="195.688" y="182.167" fill="#FD366E" opacity=".32" rx="1.009" transform="rotate(90 195.688 182.167)"/><rect width="4.035" height="4.035" x="195.688" y="188.219" fill="#FD366E" opacity=".16" rx="1.009" transform="rotate(90 195.688 188.219)"/><rect width="4.035" height="4.035" x="195.688" y="194.271" fill="#FD366E" opacity=".64" rx="1.009" transform="rotate(90 195.688 194.271)"/><rect width="4.035" height="4.035" x="195.688" y="200.323" fill="#FD366E" opacity=".16" rx="1.009" transform="rotate(90 195.688 200.323)"/><rect width="4.035" height="4.035" x="195.688" y="206.375" fill="#FD366E" opacity=".64" rx="1.009" transform="rotate(90 195.688 206.375)"/><rect width="4.035" height="4.035" x="195.688" y="212.428" fill="#FD366E" opacity=".32" rx="1.009" transform="rotate(90 195.688 212.428)"/><rect width="4.035" height="4.035" x="195.688" y="218.479" fill="#FD366E" opacity=".8" rx="1.009" transform="rotate(90 195.688 218.479)"/><rect width="4.035" height="4.035" x="195.688" y="224.532" fill="#FD366E" opacity=".4" rx="1.009" transform="rotate(90 195.688 224.532)"/><rect width="4.035" height="4.035" x="195.688" y="230.584" fill="#FD366E" opacity=".32" rx="1.009" transform="rotate(90 195.688 230.584)"/><rect width="4.035" height="4.035" x="195.688" y="236.636" fill="#FD366E" opacity=".32" rx="1.009" transform="rotate(90 195.688 236.636)"/><rect width="4.035" height="4.035" x="195.688" y="242.688" fill="#FD366E" opacity=".64" rx="1.009" transform="rotate(90 195.688 242.688)"/><rect width="4.035" height="4.035" x="195.688" y="248.741" fill="#FD366E" opacity=".4" rx="1.009" transform="rotate(90 195.688 248.741)"/><rect width="4.035" height="4.035" x="195.688" y="254.793" fill="#FD366E" opacity=".16" rx="1.009" transform="rotate(90 195.688 254.793)"/><rect width="4.035" height="4.035" x="195.688" y="260.845" fill="#FD366E" opacity=".8" rx="1.009" transform="rotate(90 195.688 260.845)"/><rect width="4.035" height="4.035" x="195.688" y="266.897" fill="#FD366E" opacity=".8" rx="1.009" transform="rotate(90 195.688 266.897)"/><rect width="4.035" height="4.035" x="195.688" y="272.949" fill="#FD366E" opacity=".8" rx="1.009" transform="rotate(90 195.688 272.949)"/><rect width="4.035" height="4.035" x="195.688" y="279.001" fill="#FD366E" opacity=".64" rx="1.009" transform="rotate(90 195.688 279.001)"/><rect width="4.035" height="4.035" x="195.688" y="285.054" fill="#FD366E" opacity=".4" rx="1.009" transform="rotate(90 195.688 285.054)"/><rect width="4.035" height="4.035" x="195.688" y="291.106" fill="#FD366E" opacity=".4" rx="1.009" transform="rotate(90 195.688 291.106)"/><rect width="4.035" height="4.035" x="195.688" y="297.158" fill="#FD366E" opacity=".32" rx="1.009" transform="rotate(90 195.688 297.158)"/><rect width="4.035" height="4.035" x="195.688" y="303.21" fill="#FD366E" opacity=".16" rx="1.009" transform="rotate(90 195.688 303.21)"/><rect width="4.035" height="4.035" x="195.688" y="309.262" fill="#FD366E" opacity=".64" rx="1.009" transform="rotate(90 195.688 309.262)"/><rect width="4.035" height="4.035" x="195.688" y="315.314" fill="#FD366E" opacity=".32" rx="1.009" transform="rotate(90 195.688 315.314)"/><rect width="4.035" height="4.035" x="195.688" y="321.367" fill="#FD366E" opacity=".16" rx="1.009" transform="rotate(90 195.688 321.367)"/></g></g><path fill="#FD366E" d="M28.1796 293.325V296.067H21.4352C19.4703 296.067 17.7547 294.964 16.8368 293.325C16.7033 293.087 16.5865 292.837 16.4886 292.577C16.2962 292.069 16.1753 291.523 16.1387 290.954V290.212C16.1466 290.086 16.1592 289.96 16.1756 289.835C16.2091 289.58 16.2598 289.33 16.3264 289.088C16.9564 286.786 19.0051 285.1 21.4352 285.1C23.8654 285.1 25.9138 286.786 26.5438 289.088H23.66C23.1866 288.337 22.3671 287.841 21.4352 287.841C20.5033 287.841 19.6839 288.337 19.2104 289.088C19.0661 289.316 18.9542 289.567 18.8808 289.835C18.8157 290.073 18.7809 290.324 18.7809 290.583C18.7809 291.369 19.1009 292.077 19.6139 292.577C20.0893 293.041 20.7301 293.325 21.4352 293.325H28.1796Z"/><path fill="#FD366E" d="M28.1808 289.835V292.577H23.2578C23.7708 292.077 24.0908 291.369 24.0908 290.583C24.0908 290.323 24.056 290.073 23.9909 289.835H28.1808Z"/><g clip-path="url(#clip1_2060_26174)"><path fill="#FD366E" d="M54.6582 297.124V295.722H62.0927V297.124H54.6582Z"/><path fill="#fff" d="M52.5643 295.327C51.1729 295.327 50.2589 294.7 50.2589 293.189V289.608H49.0176V288.192H50.3544V286.19H51.8822V288.192H53.9011V289.608H51.8822V293.175C51.8822 293.679 52.0869 293.897 52.5779 293.897H53.8193V295.327H52.5643Z"/><path fill="#fff" d="M47.1106 287.089C46.524 287.089 46.0875 286.654 46.0875 286.082C46.0875 285.524 46.524 285.088 47.1106 285.088C47.6971 285.088 48.1337 285.524 48.1337 286.082C48.1337 286.654 47.6971 287.089 47.1106 287.089ZM46.2921 295.327V289.608H45.0371V288.192H47.9018V295.327H46.2921Z"/><path fill="#fff" d="M37.8672 295.326V288.192H39.4769V289.009H39.5996C39.9134 288.464 40.5682 288.015 41.523 288.015C43.0918 288.015 44.0876 289.186 44.0876 290.656V295.326H42.4779V291.037C42.4779 290.152 41.8504 289.54 41.032 289.54C40.1453 289.54 39.4769 290.22 39.4769 291.119V295.326H37.8672Z"/><path fill="#fff" d="M35.4133 287.089C34.8267 287.089 34.3902 286.654 34.3902 286.082C34.3902 285.524 34.8267 285.088 35.4133 285.088C35.9999 285.088 36.4364 285.524 36.4364 286.082C36.4364 286.654 35.9999 287.089 35.4133 287.089ZM34.5948 295.327V289.608H33.3398V288.192H36.2045V295.327H34.5948Z"/></g><path fill="#E4E4E7" d="M17.3178 308.193L16.7035 308.193L16.7035 303.25L19.7397 303.25L19.7397 303.815L17.3178 303.815L17.3178 305.467L19.3655 305.467L19.3655 306.032L17.3178 306.032L17.3178 308.193ZM23.6517 308.193L20.5167 308.193L20.5167 303.25L23.5599 303.25L23.5599 303.815L21.131 303.815L21.131 305.397L23.1716 305.397L23.1716 305.962L21.131 305.962L21.131 307.628L23.6517 307.628L23.6517 308.193ZM26.1756 308.193L24.5022 308.193L24.5022 303.25L26.1262 303.25C27.1924 303.25 27.7502 303.759 27.7502 304.557C27.7502 305.114 27.4325 305.467 26.9523 305.63C27.489 305.729 27.962 306.068 27.962 306.781C27.962 307.656 27.3689 308.193 26.1756 308.193ZM25.1165 303.808L25.1165 305.397L26.1545 305.397C26.8041 305.397 27.1359 305.1 27.1359 304.599C27.1359 304.105 26.8111 303.808 26.1545 303.808L25.1165 303.808ZM25.1165 305.948L25.1165 307.635L26.1756 307.635C26.9594 307.635 27.3336 307.317 27.3336 306.809C27.3336 306.251 26.9241 305.948 26.1756 305.948L25.1165 305.948ZM34.4208 308.193L31.1093 308.193L31.1093 307.692L32.9733 306.025C33.4252 305.623 33.7783 305.241 33.7783 304.712C33.7783 304.091 33.3687 303.737 32.7474 303.737C32.1401 303.737 31.7306 304.161 31.7306 304.839L31.7306 304.931L31.1375 304.931L31.1375 304.804C31.1375 303.872 31.773 303.208 32.7474 303.208C33.7783 303.208 34.3855 303.794 34.3855 304.684C34.3855 305.418 33.9265 305.891 33.3546 306.392L31.9283 307.649L34.4208 307.649L34.4208 308.193ZM37.03 308.235C36.3592 308.235 35.8649 307.917 35.5754 307.416C35.3424 307.014 35.1941 306.421 35.1941 305.743C35.1941 304.189 35.879 303.208 37.0229 303.208C37.8984 303.208 38.4916 303.745 38.6116 304.571L38.0185 304.571C37.9055 304.069 37.5666 303.73 36.9947 303.73C36.1685 303.73 35.7449 304.585 35.7449 305.559C35.7449 305.707 35.7378 305.679 35.7449 305.799C35.7449 305.785 35.7661 305.715 35.7872 305.665C35.9708 305.248 36.458 304.924 37.0864 304.924C38.0326 304.924 38.6963 305.566 38.6963 306.576C38.6963 307.529 38.0185 308.235 37.03 308.235ZM37.0229 307.713C37.6725 307.713 38.1032 307.24 38.1032 306.576C38.1032 305.919 37.6937 305.446 37.0441 305.446C36.3874 305.446 35.9355 305.912 35.9355 306.59C35.9355 307.254 36.3733 307.713 37.0229 307.713ZM44.3037 306.428L41.9524 306.428L41.9524 305.94L44.3037 305.94L44.3037 306.428ZM48.3044 308.193L47.7465 308.193L47.7465 303.25L48.4668 303.25L49.6812 306.089L50.8816 303.25L51.5806 303.25L51.5806 308.193L51.0228 308.193L51.0228 304.232L49.9142 306.823L49.42 306.823L48.3044 304.232L48.3044 308.193ZM52.9301 308.193L52.3017 308.193L54.0528 303.25L54.8083 303.25L56.5665 308.193L55.9098 308.193L55.4367 306.858L53.4102 306.858L52.9301 308.193ZM54.4129 303.921L53.5868 306.301L55.2531 306.301L54.4129 303.921ZM57.904 308.193L57.2897 308.193L57.2897 303.25L59.055 303.25C60.0576 303.25 60.7284 303.843 60.7284 304.768C60.7284 305.46 60.2977 305.997 59.6481 306.173L60.7778 308.193L60.0859 308.193L59.0197 306.293L57.904 306.293L57.904 308.193ZM57.904 303.815L57.904 305.729L59.0055 305.729C59.6693 305.729 60.1 305.347 60.1 304.768C60.1 304.189 59.6693 303.815 59.0126 303.815L57.904 303.815ZM65.7614 303.25L65.7614 307.642L67.0111 307.642L67.0111 308.193L63.8761 308.193L63.8761 307.642L65.1753 307.642L65.1753 304.726C65.1047 304.775 65.02 304.797 64.9141 304.797L63.8902 304.797L63.8902 304.267L64.8505 304.267C65.0694 304.267 65.1824 304.083 65.1824 303.843L65.1824 303.25L65.7614 303.25Z"/><path fill="#fff" fill-opacity=".5" d="M184.153 308.193L183.673 308.193L183.857 307.007L183.179 307.007L183.179 306.519L183.928 306.519L184.062 305.587L183.334 305.587L183.334 305.1L184.132 305.1L184.316 303.914L184.796 303.914L184.612 305.1L185.58 305.1L185.763 303.914L186.243 303.914L186.06 305.1L186.738 305.1L186.738 305.587L185.989 305.587L185.855 306.519L186.582 306.519L186.582 307.007L185.785 307.007L185.601 308.193L185.121 308.193L185.304 307.007L184.337 307.007L184.153 308.193ZM184.542 305.587L184.408 306.519L185.375 306.519L185.509 305.587L184.542 305.587ZM189.25 303.208C190.33 303.208 191.001 304.105 191.001 305.609L191.001 305.835C191.001 307.339 190.33 308.235 189.25 308.235C188.169 308.235 187.499 307.339 187.499 305.835L187.499 305.609C187.499 304.105 188.169 303.208 189.25 303.208ZM188.085 305.63L188.085 305.813C188.085 306.089 188.106 306.336 188.148 306.548L190.161 304.331C189.963 303.942 189.652 303.737 189.25 303.737C188.515 303.737 188.085 304.429 188.085 305.63ZM190.415 305.813L190.415 305.63C190.415 305.354 190.394 305.107 190.351 304.888L188.339 307.12C188.544 307.494 188.854 307.699 189.25 307.699C189.984 307.699 190.415 307.014 190.415 305.813ZM193.642 303.208C194.722 303.208 195.393 304.105 195.393 305.609L195.393 305.835C195.393 307.339 194.722 308.235 193.642 308.235C192.562 308.235 191.891 307.339 191.891 305.835L191.891 305.609C191.891 304.105 192.562 303.208 193.642 303.208ZM192.477 305.63L192.477 305.813C192.477 306.089 192.498 306.336 192.541 306.548L194.553 304.331C194.355 303.942 194.044 303.737 193.642 303.737C192.908 303.737 192.477 304.429 192.477 305.63ZM194.807 305.813L194.807 305.63C194.807 305.354 194.786 305.107 194.744 304.888L192.731 307.12C192.936 307.494 193.247 307.699 193.642 307.699C194.376 307.699 194.807 307.014 194.807 305.813ZM198.048 303.25L198.048 307.642L199.298 307.642L199.298 308.193L196.163 308.193L196.163 307.642L197.462 307.642L197.462 304.726C197.392 304.775 197.307 304.797 197.201 304.797L196.177 304.797L196.177 304.267L197.138 304.267C197.357 304.267 197.469 304.083 197.469 303.843L197.469 303.25L198.048 303.25ZM202.372 305.623C202.803 305.707 203.234 306.068 203.234 306.823C203.234 307.663 202.591 308.235 201.546 308.235C200.508 308.235 199.866 307.649 199.866 306.668L200.452 306.668C200.459 307.317 200.911 307.706 201.582 307.706C202.196 307.706 202.627 307.346 202.627 306.781C202.627 306.265 202.295 305.94 201.56 305.94L201.13 305.94L201.13 305.411L201.497 305.411C202.196 305.411 202.535 305.051 202.535 304.549C202.535 304.048 202.111 303.737 201.546 303.737C200.974 303.737 200.53 304.112 200.523 304.677L199.936 304.677C199.951 303.773 200.628 303.208 201.539 303.208C202.528 303.208 203.142 303.737 203.142 304.528C203.142 305.136 202.817 305.496 202.372 305.623ZM206.503 305.623C206.934 305.707 207.364 306.068 207.364 306.823C207.364 307.663 206.722 308.235 205.677 308.235C204.639 308.235 203.996 307.649 203.996 306.668L204.582 306.668C204.589 307.317 205.041 307.706 205.712 307.706C206.326 307.706 206.757 307.346 206.757 306.781C206.757 306.265 206.425 305.94 205.691 305.94L205.26 305.94L205.26 305.411L205.627 305.411C206.326 305.411 206.665 305.051 206.665 304.549C206.665 304.048 206.242 303.737 205.677 303.737C205.105 303.737 204.66 304.112 204.653 304.677L204.067 304.677C204.081 303.773 204.759 303.208 205.67 303.208C206.658 303.208 207.272 303.737 207.272 304.528C207.272 305.136 206.948 305.496 206.503 305.623ZM208.961 308.193L208.319 308.193L210.585 303.794L207.916 303.794L207.916 303.25L211.306 303.25L211.306 303.667L208.961 308.193ZM213.77 303.25L213.77 307.642L215.02 307.642L215.02 308.193L211.885 308.193L211.885 307.642L213.184 307.642L213.184 304.726C213.113 304.775 213.029 304.797 212.923 304.797L211.899 304.797L211.899 304.267L212.859 304.267C213.078 304.267 213.191 304.083 213.191 303.843L213.191 303.25L213.77 303.25Z"/><path fill="#fff" d="M17.4495 42.2254L19.2652 42.2254C19.3324 43.1803 19.709 43.9469 20.3949 44.5252C21.0808 45.0901 21.9618 45.3725 23.0377 45.3725C24.0061 45.3725 24.7861 45.1641 25.3779 44.7471C25.9831 44.3168 26.2857 43.725 26.2857 42.9718C26.2857 42.6356 26.2117 42.3397 26.0638 42.0842C25.9293 41.8152 25.7612 41.6067 25.5594 41.4588C25.3577 41.2974 25.0618 41.1494 24.6718 41.015C24.2952 40.8805 23.9523 40.7863 23.6429 40.7325C23.347 40.6653 22.9368 40.5846 22.4123 40.4904C21.7533 40.3828 21.1817 40.2551 20.6975 40.1071C20.2268 39.9457 19.7494 39.7305 19.2652 39.4616C18.7945 39.1791 18.4313 38.8025 18.1758 38.3318C17.9203 37.8476 17.7925 37.2761 17.7925 36.617C17.7925 35.4201 18.2363 34.4517 19.124 33.712C20.0116 32.9723 21.175 32.6024 22.6141 32.6024C24.1607 32.6024 25.3981 32.9992 26.3261 33.7927C27.2675 34.5728 27.7786 35.6083 27.8593 36.8995L26.0436 36.8995C25.936 36.0791 25.5729 35.4268 24.9542 34.9426C24.349 34.445 23.569 34.1962 22.6141 34.1962C21.6726 34.1962 20.9262 34.3979 20.3748 34.8014C19.8233 35.2049 19.5476 35.7765 19.5476 36.5162C19.5476 36.839 19.6149 37.1281 19.7494 37.3837C19.8973 37.6392 20.0654 37.8409 20.2537 37.9889C20.4554 38.1368 20.7446 38.278 21.1212 38.4125C21.5112 38.5336 21.8542 38.6277 22.1501 38.695C22.4459 38.7488 22.8561 38.8227 23.3807 38.9169C24.0397 39.0245 24.6113 39.159 25.0954 39.3203C25.5796 39.4683 26.0638 39.6835 26.548 39.9659C27.0321 40.2483 27.402 40.6317 27.6575 41.1158C27.9131 41.5865 28.0408 42.1514 28.0408 42.8104C28.0408 44.0343 27.5701 45.0363 26.6287 45.8163C25.7007 46.583 24.497 46.9663 23.0175 46.9663C21.3229 46.9663 19.9847 46.5359 19.0029 45.6751C18.0211 44.8009 17.5033 43.651 17.4495 42.2254ZM38.9231 45.3322L39.4476 45.3322L39.4476 46.8452L38.5398 46.8452C37.8808 46.8452 37.41 46.7107 37.1276 46.4417C36.8452 46.1728 36.6972 45.776 36.6838 45.2515C35.8903 46.3947 34.7404 46.9663 33.234 46.9663C32.0909 46.9663 31.1696 46.6973 30.4702 46.1593C29.7843 45.6213 29.4413 44.8883 29.4413 43.9603C29.4413 42.9248 29.791 42.1312 30.4904 41.5798C31.2032 41.0284 32.2321 40.7527 33.577 40.7527L36.6031 40.7527L36.6031 40.0466C36.6031 39.3741 36.3744 38.8496 35.9172 38.473C35.4733 38.0965 34.848 37.9082 34.041 37.9082C33.3282 37.9082 32.7364 38.0696 32.2657 38.3923C31.8084 38.7017 31.526 39.1186 31.4184 39.6431L29.7641 39.6431C29.8852 38.6344 30.329 37.8477 31.0956 37.2828C31.8757 36.7179 32.8844 36.4355 34.1217 36.4355C35.4397 36.4355 36.4551 36.7583 37.168 37.4038C37.8942 38.0359 38.2573 38.9505 38.2573 40.1475L38.2573 44.6463C38.2573 44.9152 38.3044 45.0968 38.3986 45.191C38.5062 45.2851 38.681 45.3322 38.9231 45.3322ZM36.6031 42.649L36.6031 42.1447L33.4156 42.1447C31.8824 42.1447 31.1158 42.7163 31.1158 43.8595C31.1158 44.3705 31.3175 44.7808 31.721 45.0901C32.1245 45.3994 32.6692 45.5541 33.3551 45.5541C34.3638 45.5541 35.1573 45.2918 35.7356 44.7673C36.3139 44.2293 36.6031 43.5232 36.6031 42.649ZM45.2787 36.5565L45.7427 36.5565L45.7427 38.1704L44.9155 38.1704C43.9337 38.1704 43.2276 38.4999 42.7973 39.159C42.3803 39.818 42.1719 40.6317 42.1719 41.6L42.1719 46.8452L40.5176 46.8452L40.5176 36.5565L41.95 36.5565L42.1719 38.1099C42.804 37.0743 43.8396 36.5565 45.2787 36.5565ZM55.7187 45.3322L56.2432 45.3322L56.2432 46.8452L55.3354 46.8452C54.6763 46.8452 54.2056 46.7107 53.9232 46.4417C53.6407 46.1728 53.4928 45.776 53.4794 45.2515C52.6858 46.3947 51.5359 46.9663 50.0296 46.9663C48.8864 46.9663 47.9651 46.6973 47.2658 46.1593C46.5799 45.6213 46.2369 44.8883 46.2369 43.9603C46.2369 42.9248 46.5866 42.1312 47.286 41.5798C47.9988 41.0284 49.0276 40.7527 50.3726 40.7527L53.3987 40.7527L53.3987 40.0466C53.3987 39.3741 53.17 38.8496 52.7127 38.473C52.2689 38.0965 51.6435 37.9082 50.8366 37.9082C50.1238 37.9082 49.532 38.0696 49.0613 38.3923C48.604 38.7017 48.3216 39.1186 48.214 39.6431L46.5597 39.6431C46.6807 38.6344 47.1246 37.8477 47.8912 37.2828C48.6712 36.7179 49.6799 36.4355 50.9173 36.4355C52.2353 36.4355 53.2507 36.7583 53.9635 37.4038C54.6898 38.0359 55.0529 38.9505 55.0529 40.1475L55.0529 44.6463C55.0529 44.9152 55.1 45.0968 55.1941 45.191C55.3017 45.2851 55.4766 45.3322 55.7187 45.3322ZM53.3987 42.649L53.3987 42.1447L50.2112 42.1447C48.678 42.1447 47.9114 42.7163 47.9114 43.8595C47.9114 44.3705 48.1131 44.7808 48.5166 45.0901C48.92 45.3994 49.4647 45.5541 50.1507 45.5541C51.1594 45.5541 51.9529 45.2918 52.5312 44.7673C53.1095 44.2293 53.3987 43.5232 53.3987 42.649ZM62.6334 46.8452L62.6334 32.7235L64.3886 32.7235L64.3886 40.7325L71.5099 32.7235L73.6484 32.7235L68.4839 38.6748L74.0519 46.8452L71.9538 46.8452L67.1927 40.0063L64.3886 43.1736L64.3886 46.8452L62.6334 46.8452ZM84.074 45.3322L84.5986 45.3322L84.5986 46.8452L83.6907 46.8452C83.0317 46.8452 82.561 46.7107 82.2786 46.4417C81.9961 46.1728 81.8482 45.776 81.8347 45.2515C81.0412 46.3947 79.8913 46.9663 78.385 46.9663C77.2418 46.9663 76.3205 46.6973 75.6212 46.1593C74.9353 45.6213 74.5923 44.8883 74.5923 43.9603C74.5923 42.9248 74.942 42.1312 75.6413 41.5798C76.3542 41.0284 77.383 40.7527 78.7279 40.7527L81.754 40.7527L81.754 40.0466C81.754 39.3741 81.5254 38.8496 81.0681 38.473C80.6243 38.0965 79.9989 37.9082 79.1919 37.9082C78.4791 37.9082 77.8874 38.0696 77.4166 38.3923C76.9594 38.7017 76.6769 39.1186 76.5693 39.6431L74.9151 39.6431C75.0361 38.6344 75.4799 37.8477 76.2466 37.2828C77.0266 36.7179 78.0353 36.4355 79.2726 36.4355C80.5907 36.4355 81.6061 36.7583 82.3189 37.4038C83.0452 38.0359 83.4083 38.9505 83.4083 40.1475L83.4083 44.6463C83.4083 44.9152 83.4554 45.0968 83.5495 45.191C83.6571 45.2851 83.8319 45.3322 84.074 45.3322ZM81.754 42.649L81.754 42.1447L78.5666 42.1447C77.0333 42.1447 76.2667 42.7163 76.2667 43.8595C76.2667 44.3706 76.4685 44.7808 76.8719 45.0901C77.2754 45.3994 77.8201 45.5541 78.506 45.5541C79.5147 45.5541 80.3082 45.2918 80.8866 44.7673C81.4649 44.2293 81.754 43.5232 81.754 42.649ZM94.767 45.3322L95.2915 45.3322L95.2915 46.8452L94.3837 46.8452C93.7247 46.8452 93.254 46.7107 92.9715 46.4417C92.6891 46.1728 92.5411 45.776 92.5277 45.2515C91.7342 46.3947 90.5843 46.9663 89.078 46.9663C87.9348 46.9663 87.0135 46.6973 86.3141 46.1593C85.6282 45.6213 85.2853 44.8883 85.2853 43.9603C85.2853 42.9248 85.6349 42.1312 86.3343 41.5798C87.0471 41.0284 88.076 40.7527 89.4209 40.7527L92.447 40.7527L92.447 40.0466C92.447 39.3741 92.2184 38.8496 91.7611 38.473C91.3173 38.0965 90.6919 37.9082 89.8849 37.9082C89.1721 37.9082 88.5803 38.0696 88.1096 38.3923C87.6523 38.7017 87.3699 39.1186 87.2623 39.6431L85.608 39.6431C85.7291 38.6344 86.1729 37.8477 86.9395 37.2828C87.7196 36.7179 88.7283 36.4355 89.9656 36.4355C91.2836 36.4355 92.2991 36.7583 93.0119 37.4038C93.7381 38.0359 94.1013 38.9505 94.1013 40.1475L94.1013 44.6463C94.1013 44.9152 94.1483 45.0968 94.2425 45.191C94.3501 45.2851 94.5249 45.3322 94.767 45.3322ZM92.447 42.649L92.447 42.1447L89.2595 42.1447C87.7263 42.1447 86.9597 42.7163 86.9597 43.8595C86.9597 44.3706 87.1614 44.7808 87.5649 45.0901C87.9684 45.3994 88.5131 45.5541 89.199 45.5541C90.2077 45.5541 91.0012 45.2918 91.5795 44.7673C92.1578 44.2293 92.447 43.5232 92.447 42.649ZM101.405 36.4355C102.656 36.4355 103.658 36.8121 104.411 37.5652C105.178 38.3184 105.561 39.5019 105.561 41.1158L105.561 46.8452L103.907 46.8452L103.907 41.2167C103.907 40.1542 103.664 39.3472 103.18 38.7958C102.71 38.231 102.024 37.9485 101.123 37.9485C100.154 37.9485 99.3943 38.2848 98.8429 38.9572C98.2915 39.6297 98.0158 40.5442 98.0158 41.7009L98.0158 46.8452L96.3615 46.8452L96.3615 36.5565L97.7939 36.5565L98.0158 37.9485C98.7958 36.9398 99.9256 36.4355 101.405 36.4355ZM115.46 38.1301L115.46 32.7235L117.114 32.7235L117.114 46.8452L115.682 46.8452L115.46 45.191C114.599 46.3745 113.422 46.9663 111.929 46.9663C110.477 46.9663 109.287 46.5023 108.359 45.5743C107.444 44.6328 106.987 43.3417 106.987 41.7009C106.987 40.1408 107.451 38.8765 108.379 37.9082C109.307 36.9264 110.49 36.4355 111.929 36.4355C113.57 36.4355 114.747 37.0004 115.46 38.1301ZM112.091 45.4936C113.1 45.4936 113.913 45.1439 114.532 44.4445C115.164 43.7452 115.48 42.8441 115.48 41.7412C115.48 40.6115 115.164 39.6902 114.532 38.9774C113.913 38.2646 113.1 37.9082 112.091 37.9082C111.069 37.9082 110.242 38.2646 109.609 38.9774C108.991 39.6768 108.681 40.5846 108.681 41.7009C108.681 42.8172 108.991 43.7317 109.609 44.4445C110.242 45.1439 111.069 45.4936 112.091 45.4936ZM127.578 45.5137C126.637 46.4821 125.413 46.9663 123.907 46.9663C122.4 46.9663 121.17 46.4821 120.215 45.5137C119.274 44.5319 118.803 43.261 118.803 41.7009C118.803 40.1408 119.274 38.8765 120.215 37.9082C121.17 36.9264 122.4 36.4355 123.907 36.4355C125.413 36.4355 126.637 36.9264 127.578 37.9082C128.533 38.8765 129.011 40.1408 129.011 41.7009C129.011 43.261 128.533 44.5319 127.578 45.5137ZM121.446 44.4244C122.078 45.1372 122.898 45.4936 123.907 45.4936C124.915 45.4936 125.736 45.1372 126.368 44.4244C127 43.7115 127.316 42.8037 127.316 41.7009C127.316 40.598 127 39.6902 126.368 38.9774C125.736 38.2646 124.915 37.9082 123.907 37.9082C122.898 37.9082 122.078 38.2646 121.446 38.9774C120.813 39.6902 120.497 40.598 120.497 41.7009C120.497 42.8037 120.813 43.7115 121.446 44.4244ZM135.467 36.5565L135.931 36.5565L135.931 38.1704L135.104 38.1704C134.122 38.1704 133.416 38.4999 132.986 39.159C132.569 39.818 132.36 40.6317 132.36 41.6L132.36 46.8452L130.706 46.8452L130.706 36.5565L132.138 36.5565L132.36 38.1099C132.992 37.0743 134.028 36.5565 135.467 36.5565ZM142.348 36.4355C143.8 36.4355 144.984 36.9062 145.899 37.8477C146.827 38.7757 147.291 40.0601 147.291 41.7009C147.291 43.261 146.827 44.5319 145.899 45.5137C144.971 46.4821 143.787 46.9663 142.348 46.9663C140.707 46.9663 139.53 46.4014 138.818 45.2717L138.818 50.88L137.163 50.88L137.163 36.5565L138.596 36.5565L138.818 38.2108C139.678 37.0273 140.855 36.4355 142.348 36.4355ZM142.187 45.4936C143.209 45.4936 144.029 45.1439 144.648 44.4445C145.28 43.7317 145.596 42.8172 145.596 41.7009C145.596 40.5846 145.28 39.6768 144.648 38.9774C144.029 38.2646 143.209 37.9082 142.187 37.9082C141.178 37.9082 140.357 38.2579 139.725 38.9572C139.107 39.6566 138.797 40.5577 138.797 41.6605C138.797 42.7903 139.107 43.7115 139.725 44.4244C140.357 45.1372 141.178 45.4936 142.187 45.4936Z"/><path fill="#ADADB0" d="M17.2599 61.8851C17.2599 60.3923 17.8006 59.1455 18.8819 58.1449C19.9632 57.1362 21.2826 56.6318 22.84 56.6318C24.3329 56.6318 25.5514 57.0434 26.4955 57.8665C27.4397 58.6896 27.9117 59.7427 27.9117 61.0257C27.9117 61.9779 27.6696 62.7566 27.1855 63.3619C26.7013 63.9671 26.084 64.2697 25.3335 64.2697C24.9704 64.2697 24.6718 64.1809 24.4378 64.0034C24.2118 63.8259 24.0827 63.612 24.0504 63.3619L24.0262 63.1803C23.889 63.5031 23.651 63.7653 23.3121 63.9671C22.9732 64.1607 22.5898 64.2576 22.1622 64.2576C21.5489 64.2576 21.0284 64.0437 20.6007 63.616C20.1811 63.1803 19.9713 62.6235 19.9713 61.9456C19.9713 61.179 20.2214 60.5254 20.7217 59.9847C21.2221 59.436 21.8111 59.1616 22.489 59.1616C22.9409 59.1616 23.3121 59.2464 23.6026 59.4158C23.8931 59.5853 24.0868 59.8072 24.1836 60.0816L24.3652 59.2706L25.1398 59.2706L24.7767 62.7203C24.7202 63.2691 24.9542 63.5434 25.4788 63.5434C25.8822 63.5434 26.2292 63.3013 26.5197 62.8172C26.8183 62.3249 26.9676 61.7197 26.9676 61.0015C26.9676 59.9444 26.5883 59.089 25.8298 58.4354C25.0712 57.7817 24.0706 57.4549 22.8279 57.4549C21.4561 57.4549 20.3425 57.8786 19.4871 58.7259C18.6317 59.5651 18.204 60.6142 18.204 61.873C18.204 63.1399 18.5914 64.1365 19.3661 64.8628C20.1488 65.581 21.2503 65.9401 22.6705 65.9401C23.7438 65.9401 24.6678 65.6899 25.4424 65.1896L25.4182 66.0732C24.7242 66.5332 23.7801 66.7632 22.5858 66.7632C21.0122 66.7632 19.7292 66.3153 18.7366 65.4196C17.7521 64.5319 17.2599 63.3538 17.2599 61.8851ZM24.0504 61.3525C24.0504 60.9006 23.9213 60.5456 23.6631 60.2873C23.4129 60.0211 23.0821 59.8879 22.6705 59.8879C22.1702 59.8879 21.7466 60.0856 21.3996 60.481C21.0607 60.8764 20.8912 61.3525 20.8912 61.9093C20.8912 62.3935 21.0203 62.7849 21.2785 63.0835C21.5448 63.382 21.8878 63.5313 22.3074 63.5313C22.8077 63.5313 23.2233 63.3296 23.5542 62.9261C23.885 62.5226 24.0504 61.9981 24.0504 61.3525ZM28.9578 62.8293L29.9746 62.8293C29.9907 63.2005 30.1521 63.5031 30.4587 63.7371C30.7654 63.9711 31.1729 64.0881 31.6813 64.0881C32.117 64.0881 32.4721 64.0034 32.7465 63.8339C33.0289 63.6564 33.1701 63.4264 33.1701 63.144C33.1701 62.9907 33.1378 62.8615 33.0733 62.7566C33.0168 62.6517 32.9522 62.571 32.8796 62.5146C32.8151 62.45 32.694 62.3975 32.5165 62.3572C32.339 62.3088 32.2018 62.2805 32.1049 62.2725C32.0081 62.2563 31.8306 62.2321 31.5723 62.1998C31.1769 62.1514 30.8501 62.099 30.5919 62.0425C30.3337 61.9779 30.0795 61.8851 29.8293 61.7641C29.5792 61.635 29.3936 61.4655 29.2725 61.2557C29.1515 61.0378 29.091 60.7756 29.091 60.4689C29.091 59.9121 29.3169 59.4643 29.7688 59.1253C30.2288 58.7783 30.8098 58.6089 31.5118 58.617C32.2381 58.625 32.8272 58.7985 33.2791 59.1374C33.731 59.4683 33.9811 59.9444 34.0295 60.5658L33.0128 60.5658C32.9724 60.243 32.8151 59.9807 32.5407 59.779C32.2744 59.5692 31.9314 59.4643 31.5118 59.4643C31.0761 59.4643 30.725 59.549 30.4587 59.7184C30.2005 59.8879 30.0714 60.1139 30.0714 60.3963C30.0714 60.5577 30.1037 60.6908 30.1682 60.7957C30.2409 60.9006 30.3579 60.9854 30.5193 61.0499C30.6887 61.1064 30.842 61.1508 30.9792 61.1831C31.1245 61.2073 31.3383 61.2355 31.6208 61.2678C31.9435 61.3082 32.2139 61.3485 32.4318 61.3888C32.6496 61.4292 32.8756 61.4938 33.1096 61.5825C33.3436 61.6713 33.5292 61.7762 33.6664 61.8972C33.8116 62.0183 33.9287 62.1797 34.0174 62.3814C34.1062 62.5751 34.1506 62.8051 34.1506 63.0714C34.1506 63.6362 33.9125 64.0881 33.4364 64.427C32.9684 64.766 32.3833 64.9354 31.6813 64.9354C30.8663 64.9354 30.2086 64.7498 29.7083 64.3786C29.216 64.0074 28.9659 63.491 28.9578 62.8293ZM40.7114 63.955L41.0261 63.955L41.0261 64.8628L40.4814 64.8628C40.086 64.8628 39.8036 64.7821 39.6341 64.6207C39.4647 64.4593 39.3759 64.2213 39.3678 63.9066C38.8917 64.5925 38.2018 64.9354 37.298 64.9354C36.6121 64.9354 36.0593 64.774 35.6397 64.4512C35.2281 64.1285 35.0224 63.6887 35.0224 63.1319C35.0224 62.5105 35.2322 62.0344 35.6518 61.7036C36.0795 61.3727 36.6968 61.2073 37.5038 61.2073L39.3194 61.2073L39.3194 60.7836C39.3194 60.3802 39.1822 60.0654 38.9079 59.8395C38.6416 59.6135 38.2663 59.5006 37.7822 59.5006C37.3545 59.5006 36.9994 59.5974 36.717 59.7911C36.4426 59.9767 36.2731 60.2268 36.2086 60.5415L35.216 60.5415C35.2887 59.9363 35.555 59.4643 36.0149 59.1253C36.483 58.7864 37.0882 58.617 37.8306 58.617C38.6214 58.617 39.2306 58.8106 39.6583 59.198C40.0941 59.5772 40.312 60.126 40.312 60.8442L40.312 63.5434C40.312 63.7048 40.3402 63.8138 40.3967 63.8702C40.4613 63.9267 40.5662 63.955 40.7114 63.955ZM39.3194 62.3451L39.3194 62.0425L37.4069 62.0425C36.487 62.0425 36.027 62.3854 36.027 63.0714C36.027 63.378 36.1481 63.6241 36.3902 63.8097C36.6322 63.9953 36.9591 64.0881 37.3706 64.0881C37.9758 64.0881 38.4519 63.9308 38.7989 63.616C39.1459 63.2933 39.3194 62.8696 39.3194 62.3451ZM44.6458 58.6896L44.9242 58.6896L44.9242 59.6579L44.4279 59.6579C43.8388 59.6579 43.4152 59.8556 43.157 60.251C42.9068 60.6464 42.7817 61.1347 42.7817 61.7157L42.7817 64.8628L41.7892 64.8628L41.7892 58.6896L42.6486 58.6896L42.7817 59.6216C43.161 59.0003 43.7824 58.6896 44.6458 58.6896ZM51.0308 63.955L51.3456 63.955L51.3456 64.8628L50.8009 64.8628C50.4054 64.8628 50.123 64.7821 49.9536 64.6207C49.7841 64.4593 49.6953 64.2213 49.6873 63.9066C49.2112 64.5925 48.5212 64.9354 47.6174 64.9354C46.9315 64.9354 46.3787 64.774 45.9591 64.4512C45.5476 64.1285 45.3418 63.6887 45.3418 63.1319C45.3418 62.5105 45.5516 62.0344 45.9712 61.7036C46.3989 61.3727 47.0162 61.2073 47.8232 61.2073L49.6388 61.2073L49.6388 60.7836C49.6388 60.3802 49.5017 60.0654 49.2273 59.8395C48.961 59.6135 48.5858 59.5006 48.1016 59.5006C47.6739 59.5006 47.3188 59.5974 47.0364 59.7911C46.762 59.9767 46.5926 60.2268 46.528 60.5415L45.5355 60.5415C45.6081 59.9363 45.8744 59.4643 46.3344 59.1253C46.8024 58.7864 47.4076 58.617 48.15 58.617C48.9408 58.617 49.5501 58.8106 49.9778 59.198C50.4135 59.5772 50.6314 60.126 50.6314 60.8442L50.6314 63.5434C50.6314 63.7048 50.6596 63.8138 50.7161 63.8702C50.7807 63.9267 50.8856 63.955 51.0308 63.955ZM49.6388 62.3451L49.6388 62.0425L47.7264 62.0425C46.8064 62.0425 46.3465 62.3854 46.3465 63.0714C46.3465 63.378 46.4675 63.6241 46.7096 63.8097C46.9517 63.9953 47.2785 64.0881 47.69 64.0881C48.2953 64.0881 48.7714 63.9308 49.1184 63.616C49.4653 63.2933 49.6388 62.8696 49.6388 62.3451ZM52.1086 64.8628L52.1086 56.3898L53.1012 56.3898L53.1012 61.9699L56.1999 58.6896L57.4224 58.6896L55.0136 61.2436L57.5919 64.8628L56.3935 64.8628L54.3479 61.9578L53.1012 63.2408L53.1012 64.8628L52.1086 64.8628Z"/><path fill="#fff" fill-opacity=".08" fill-rule="evenodd" d="M17.8321 181.028C7.47348 181.028 -0.923843 189.139 -0.923843 199.144V211.685H31.5383V215.169H-15.3515C-25.7101 215.169 -34.1074 223.28 -34.1074 233.285L-34.1074 260.459C-34.1074 270.464 -25.7101 278.574 -15.3515 278.574H-4.53075V263.246C-4.53075 253.241 3.86657 245.13 14.2252 245.13H48.8515C57.6165 245.13 64.7219 238.267 64.7219 229.801V199.144C64.7219 189.139 56.3246 181.028 45.966 181.028H17.8321ZM13.5038 203.324C17.0895 203.324 19.9962 200.517 19.9962 197.053C19.9962 193.59 17.0895 190.782 13.5038 190.782C9.91812 190.782 7.01136 193.59 7.01136 197.053C7.01136 200.517 9.91812 203.324 13.5038 203.324Z" clip-rule="evenodd"/><path fill="#fff" fill-opacity=".08" fill-rule="evenodd" d="M45.9641 312.715C56.3227 312.715 64.72 304.604 64.72 294.599V282.057L32.2578 282.057L32.2578 278.574L79.1476 278.574C89.5063 278.574 97.9036 270.463 97.9036 260.458V233.284C97.9036 223.279 89.5063 215.168 79.1476 215.168L68.3269 215.168V230.497C68.3269 240.502 59.9296 248.613 49.571 248.613L14.9446 248.613C6.17965 248.613 -0.925778 255.476 -0.925778 263.942L-0.925781 294.599C-0.925782 304.604 7.47153 312.715 17.8302 312.715H45.9641ZM50.2923 290.419C46.7067 290.419 43.7999 293.226 43.7999 296.689C43.7999 300.153 46.7067 302.96 50.2923 302.96C53.878 302.96 56.7848 300.153 56.7848 296.689C56.7848 293.226 53.878 290.419 50.2923 290.419Z" clip-rule="evenodd"/></g><defs><filter id="filter0_b_2060_26174" width="248.139" height="340.139" x="-8.07" y="-7.468" color-interpolation-filters="sRGB" filterUnits="userSpaceOnUse"><feFlood flood-opacity="0" result="BackgroundImageFix"/><feGaussianBlur in="BackgroundImageFix" stdDeviation="4.035"/><feComposite in2="SourceAlpha" operator="in" result="effect1_backgroundBlur_2060_26174"/><feBlend in="SourceGraphic" in2="effect1_backgroundBlur_2060_26174" mode="normal" result="shape"/></filter><filter id="filter1_f_2060_26174" width="446.085" height="471.404" x="-125.948" y="-84.488" color-interpolation-filters="sRGB" filterUnits="userSpaceOnUse"><feFlood flood-opacity="0" result="BackgroundImageFix"/><feBlend in="SourceGraphic" in2="BackgroundImageFix" mode="normal" result="shape"/><feGaussianBlur result="effect1_foregroundBlur_2060_26174" stdDeviation="40.348"/></filter><linearGradient id="paint0_linear_2060_26174" x1="232" x2="-10.522" y1=".602" y2="328.571" gradientUnits="userSpaceOnUse"><stop stop-color="#232325"/><stop offset="1" stop-color="#232325" stop-opacity="0"/><stop offset="1" stop-color="#232325" stop-opacity=".2"/></linearGradient><linearGradient id="paint1_linear_2060_26174" x1="221.913" x2="130.456" y1="-6.442" y2="36.748" gradientUnits="userSpaceOnUse"><stop stop-color="#fff"/><stop offset="1" stop-color="#fff" stop-opacity=".08"/></linearGradient><linearGradient id="paint2_linear_2060_26174" x1="168.72" x2="-14.358" y1="44.347" y2="295.15" gradientUnits="userSpaceOnUse"><stop stop-color="#fff"/><stop offset="1" stop-color="#fff" stop-opacity="0"/></linearGradient><linearGradient id="paint3_linear_2060_26174" x1="211.826" x2="211.826" y1=".602" y2="325.402" gradientUnits="userSpaceOnUse"><stop stop-color="#D9D9D9"/><stop offset=".199" stop-color="#D9D9D9" stop-opacity=".4"/><stop offset=".392" stop-color="#D9D9D9"/><stop offset=".58" stop-color="#D9D9D9" stop-opacity=".4"/><stop offset=".754" stop-color="#D9D9D9"/><stop offset=".964" stop-color="#D9D9D9" stop-opacity=".4"/></linearGradient><linearGradient id="paint4_linear_2060_26174" x1="3.32" x2="40.348" y1="146.546" y2="146.546" gradientUnits="userSpaceOnUse"><stop stop-color="#222224"/><stop offset="1" stop-color="#222224" stop-opacity="0"/></linearGradient><clipPath id="clip0_2060_26174"><rect width="232" height="324" y=".602" fill="#fff" rx="8"/></clipPath><clipPath id="clip1_2060_26174"><rect width="28.748" height="12.104" fill="#fff" transform="translate(33.2871 285.054)"/></clipPath></defs></svg>