<svg xmlns="http://www.w3.org/2000/svg" width="232" height="325" fill="none" viewBox="0 0 232 325"><g clip-path="url(#clip0_2060_26185)"><g filter="url(#filter0_d_2060_26185)"><g clip-path="url(#clip1_2060_26185)"><path fill="#000" fill-rule="evenodd" d="M0 8.27122C0 3.81452 3.61287 0.20166 8.06956 0.20166H223.93C228.387 0.20166 232 3.81453 232 8.27122V316.932C232 321.389 228.387 325.002 223.93 325.002H8.06956C3.61286 325.002 0 321.389 0 316.932V8.27122ZM95.8261 10.2886C95.8261 9.17441 96.7293 8.2712 97.8435 8.2712H134.157C135.271 8.2712 136.174 9.17441 136.174 10.2886C136.174 11.4028 135.271 12.306 134.157 12.306H97.8435C96.7293 12.306 95.8261 11.4028 95.8261 10.2886Z" clip-rule="evenodd"/><path fill="url(#paint0_linear_2060_26185)" fill-opacity=".2" fill-rule="evenodd" d="M0 8.27122C0 3.81452 3.61287 0.20166 8.06956 0.20166H223.93C228.387 0.20166 232 3.81453 232 8.27122V316.932C232 321.389 228.387 325.002 223.93 325.002H8.06956C3.61286 325.002 0 321.389 0 316.932V8.27122ZM95.8261 10.2886C95.8261 9.17441 96.7293 8.2712 97.8435 8.2712H134.157C135.271 8.2712 136.174 9.17441 136.174 10.2886C136.174 11.4028 135.271 12.306 134.157 12.306H97.8435C96.7293 12.306 95.8261 11.4028 95.8261 10.2886Z" clip-rule="evenodd"/><mask id="mask0_2060_26185" width="41" height="326" x="191" y="0" maskUnits="userSpaceOnUse" style="mask-type:alpha"><rect width="40.348" height="324.8" x="191.652" y=".202" fill="url(#paint1_linear_2060_26185)" fill-opacity=".32"/></mask><g mask="url(#mask0_2060_26185)"><mask id="mask1_2060_26185" width="41" height="326" x="191" y="0" maskUnits="userSpaceOnUse" style="mask-type:alpha"><rect width="40.348" height="324.8" fill="url(#paint2_linear_2060_26185)" transform="matrix(-1 0 0 1 232 0.20166)"/></mask><g mask="url(#mask1_2060_26185)"><rect width="4.035" height="4.035" x="232" y=".202" fill="#fff" opacity=".64" rx="1.009" transform="rotate(90 232 0.20166)"/><rect width="4.035" height="4.035" x="232" y="6.254" fill="#fff" opacity=".4" rx="1.009" transform="rotate(90 232 6.25391)"/><rect width="4.035" height="4.035" x="232" y="12.306" fill="#fff" opacity=".32" rx="1.009" transform="rotate(90 232 12.3062)"/><rect width="4.035" height="4.035" x="232" y="18.358" fill="#fff" opacity=".16" rx="1.009" transform="rotate(90 232 18.3579)"/><rect width="4.035" height="4.035" x="232" y="24.41" fill="#fff" opacity=".8" rx="1.009" transform="rotate(90 232 24.4102)"/><rect width="4.035" height="4.035" x="232" y="30.462" fill="#fff" opacity=".64" rx="1.009" transform="rotate(90 232 30.4624)"/><rect width="4.035" height="4.035" x="232" y="36.515" fill="#fff" opacity=".4" rx="1.009" transform="rotate(90 232 36.5146)"/><rect width="4.035" height="4.035" x="232" y="42.567" fill="#fff" opacity=".32" rx="1.009" transform="rotate(90 232 42.5669)"/><rect width="4.035" height="4.035" x="232" y="48.619" fill="#fff" opacity=".16" rx="1.009" transform="rotate(90 232 48.6191)"/><rect width="4.035" height="4.035" x="232" y="54.671" fill="#fff" opacity=".4" rx="1.009" transform="rotate(90 232 54.6714)"/><rect width="4.035" height="4.035" x="232" y="60.723" fill="#fff" opacity=".32" rx="1.009" transform="rotate(90 232 60.7231)"/><rect width="4.035" height="4.035" x="232" y="66.775" fill="#fff" opacity=".8" rx="1.009" transform="rotate(90 232 66.7754)"/><rect width="4.035" height="4.035" x="232" y="72.828" fill="#fff" opacity=".16" rx="1.009" transform="rotate(90 232 72.8276)"/><rect width="4.035" height="4.035" x="232" y="78.88" fill="#fff" opacity=".4" rx="1.009" transform="rotate(90 232 78.8799)"/><rect width="4.035" height="4.035" x="232" y="84.932" fill="#fff" opacity=".32" rx="1.009" transform="rotate(90 232 84.9321)"/><rect width="4.035" height="4.035" x="232" y="90.984" fill="#fff" opacity=".32" rx="1.009" transform="rotate(90 232 90.9844)"/><rect width="4.035" height="4.035" x="232" y="97.037" fill="#fff" opacity=".32" rx="1.009" transform="rotate(90 232 97.0366)"/><rect width="4.035" height="4.035" x="232" y="103.088" fill="#fff" opacity=".64" rx="1.009" transform="rotate(90 232 103.088)"/><rect width="4.035" height="4.035" x="232" y="109.141" fill="#fff" opacity=".16" rx="1.009" transform="rotate(90 232 109.141)"/><rect width="4.035" height="4.035" x="232" y="115.193" fill="#fff" opacity=".64" rx="1.009" transform="rotate(90 232 115.193)"/><rect width="4.035" height="4.035" x="232" y="121.245" fill="#fff" opacity=".4" rx="1.009" transform="rotate(90 232 121.245)"/><rect width="4.035" height="4.035" x="232" y="127.297" fill="#fff" opacity=".32" rx="1.009" transform="rotate(90 232 127.297)"/><rect width="4.035" height="4.035" x="232" y="133.35" fill="#fff" opacity=".16" rx="1.009" transform="rotate(90 232 133.35)"/><rect width="4.035" height="4.035" x="232" y="139.402" fill="#fff" opacity=".8" rx="1.009" transform="rotate(90 232 139.402)"/><rect width="4.035" height="4.035" x="232" y="145.454" fill="#fff" opacity=".8" rx="1.009" transform="rotate(90 232 145.454)"/><rect width="4.035" height="4.035" x="232" y="151.506" fill="#fff" opacity=".64" rx="1.009" transform="rotate(90 232 151.506)"/><rect width="4.035" height="4.035" x="232" y="157.558" fill="#fff" opacity=".4" rx="1.009" transform="rotate(90 232 157.558)"/><rect width="4.035" height="4.035" x="232" y="163.61" fill="#fff" opacity=".8" rx="1.009" transform="rotate(90 232 163.61)"/><rect width="4.035" height="4.035" x="232" y="169.663" fill="#fff" opacity=".4" rx="1.009" transform="rotate(90 232 169.663)"/><rect width="4.035" height="4.035" x="232" y="175.715" fill="#fff" opacity=".16" rx="1.009" transform="rotate(90 232 175.715)"/><rect width="4.035" height="4.035" x="232" y="181.767" fill="#fff" opacity=".32" rx="1.009" transform="rotate(90 232 181.767)"/><rect width="4.035" height="4.035" x="232" y="187.819" fill="#fff" opacity=".16" rx="1.009" transform="rotate(90 232 187.819)"/><rect width="4.035" height="4.035" x="232" y="193.871" fill="#fff" opacity=".64" rx="1.009" transform="rotate(90 232 193.871)"/><rect width="4.035" height="4.035" x="232" y="199.923" fill="#fff" opacity=".16" rx="1.009" transform="rotate(90 232 199.923)"/><rect width="4.035" height="4.035" x="232" y="205.976" fill="#fff" opacity=".64" rx="1.009" transform="rotate(90 232 205.976)"/><rect width="4.035" height="4.035" x="232" y="212.028" fill="#fff" opacity=".32" rx="1.009" transform="rotate(90 232 212.028)"/><rect width="4.035" height="4.035" x="232" y="218.08" fill="#fff" opacity=".8" rx="1.009" transform="rotate(90 232 218.08)"/><rect width="4.035" height="4.035" x="232" y="224.132" fill="#fff" opacity=".4" rx="1.009" transform="rotate(90 232 224.132)"/><rect width="4.035" height="4.035" x="232" y="230.184" fill="#fff" opacity=".32" rx="1.009" transform="rotate(90 232 230.184)"/><rect width="4.035" height="4.035" x="232" y="236.236" fill="#fff" opacity=".32" rx="1.009" transform="rotate(90 232 236.236)"/><rect width="4.035" height="4.035" x="232" y="242.289" fill="#fff" opacity=".64" rx="1.009" transform="rotate(90 232 242.289)"/><rect width="4.035" height="4.035" x="232" y="248.341" fill="#fff" opacity=".4" rx="1.009" transform="rotate(90 232 248.341)"/><rect width="4.035" height="4.035" x="232" y="254.393" fill="#fff" opacity=".16" rx="1.009" transform="rotate(90 232 254.393)"/><rect width="4.035" height="4.035" x="232" y="260.445" fill="#fff" opacity=".8" rx="1.009" transform="rotate(90 232 260.445)"/><rect width="4.035" height="4.035" x="232" y="266.497" fill="#fff" opacity=".8" rx="1.009" transform="rotate(90 232 266.497)"/><rect width="4.035" height="4.035" x="232" y="272.549" fill="#fff" opacity=".8" rx="1.009" transform="rotate(90 232 272.549)"/><rect width="4.035" height="4.035" x="232" y="278.602" fill="#fff" opacity=".64" rx="1.009" transform="rotate(90 232 278.602)"/><rect width="4.035" height="4.035" x="232" y="284.654" fill="#fff" opacity=".4" rx="1.009" transform="rotate(90 232 284.654)"/><rect width="4.035" height="4.035" x="232" y="290.706" fill="#fff" opacity=".4" rx="1.009" transform="rotate(90 232 290.706)"/><rect width="4.035" height="4.035" x="232" y="296.758" fill="#fff" opacity=".32" rx="1.009" transform="rotate(90 232 296.758)"/><rect width="4.035" height="4.035" x="232" y="302.811" fill="#fff" opacity=".16" rx="1.009" transform="rotate(90 232 302.811)"/><rect width="4.035" height="4.035" x="232" y="308.862" fill="#fff" opacity=".64" rx="1.009" transform="rotate(90 232 308.862)"/><rect width="4.035" height="4.035" x="232" y="314.915" fill="#fff" opacity=".32" rx="1.009" transform="rotate(90 232 314.915)"/><rect width="4.035" height="4.035" x="232" y="320.967" fill="#fff" opacity=".16" rx="1.009" transform="rotate(90 232 320.967)"/><rect width="4.035" height="4.035" fill="#fff" opacity=".64" rx="1.009" transform="matrix(-4.37114e-08 -1 -1 4.37114e-08 225.947 325.001)"/><rect width="4.035" height="4.035" fill="#fff" opacity=".4" rx="1.009" transform="matrix(-4.37114e-08 -1 -1 4.37114e-08 225.947 318.949)"/><rect width="4.035" height="4.035" fill="#fff" opacity=".32" rx="1.009" transform="matrix(-4.37114e-08 -1 -1 4.37114e-08 225.947 312.897)"/><rect width="4.035" height="4.035" fill="#fff" opacity=".16" rx="1.009" transform="matrix(-4.37114e-08 -1 -1 4.37114e-08 225.947 306.845)"/><rect width="4.035" height="4.035" fill="#fff" opacity=".8" rx="1.009" transform="matrix(-4.37114e-08 -1 -1 4.37114e-08 225.947 300.793)"/><rect width="4.035" height="4.035" fill="#fff" opacity=".64" rx="1.009" transform="matrix(-4.37114e-08 -1 -1 4.37114e-08 225.947 294.741)"/><rect width="4.035" height="4.035" fill="#fff" opacity=".4" rx="1.009" transform="matrix(-4.37114e-08 -1 -1 4.37114e-08 225.947 288.688)"/><rect width="4.035" height="4.035" fill="#fff" opacity=".32" rx="1.009" transform="matrix(-4.37114e-08 -1 -1 4.37114e-08 225.947 282.636)"/><rect width="4.035" height="4.035" fill="#fff" opacity=".16" rx="1.009" transform="matrix(-4.37114e-08 -1 -1 4.37114e-08 225.947 276.584)"/><rect width="4.035" height="4.035" fill="#fff" opacity=".4" rx="1.009" transform="matrix(-4.37114e-08 -1 -1 4.37114e-08 225.947 270.532)"/><rect width="4.035" height="4.035" fill="#fff" opacity=".32" rx="1.009" transform="matrix(-4.37114e-08 -1 -1 4.37114e-08 225.947 264.479)"/><rect width="4.035" height="4.035" fill="#fff" opacity=".8" rx="1.009" transform="matrix(-4.37114e-08 -1 -1 4.37114e-08 225.947 258.428)"/><rect width="4.035" height="4.035" fill="#fff" opacity=".16" rx="1.009" transform="matrix(-4.37114e-08 -1 -1 4.37114e-08 225.947 252.375)"/><rect width="4.035" height="4.035" fill="#fff" opacity=".4" rx="1.009" transform="matrix(-4.37114e-08 -1 -1 4.37114e-08 225.947 246.323)"/><rect width="4.035" height="4.035" fill="#fff" opacity=".32" rx="1.009" transform="matrix(-4.37114e-08 -1 -1 4.37114e-08 225.947 240.271)"/><rect width="4.035" height="4.035" fill="#fff" opacity=".32" rx="1.009" transform="matrix(-4.37114e-08 -1 -1 4.37114e-08 225.947 234.219)"/><rect width="4.035" height="4.035" fill="#fff" opacity=".32" rx="1.009" transform="matrix(-4.37114e-08 -1 -1 4.37114e-08 225.947 228.167)"/><rect width="4.035" height="4.035" fill="#fff" opacity=".64" rx="1.009" transform="matrix(-4.37114e-08 -1 -1 4.37114e-08 225.947 222.115)"/><rect width="4.035" height="4.035" fill="#fff" opacity=".16" rx="1.009" transform="matrix(-4.37114e-08 -1 -1 4.37114e-08 225.947 216.062)"/><rect width="4.035" height="4.035" fill="#fff" opacity=".64" rx="1.009" transform="matrix(-4.37114e-08 -1 -1 4.37114e-08 225.947 210.01)"/><rect width="4.035" height="4.035" fill="#fff" opacity=".4" rx="1.009" transform="matrix(-4.37114e-08 -1 -1 4.37114e-08 225.947 203.958)"/><rect width="4.035" height="4.035" fill="#fff" opacity=".32" rx="1.009" transform="matrix(-4.37114e-08 -1 -1 4.37114e-08 225.947 197.906)"/><rect width="4.035" height="4.035" fill="#fff" opacity=".16" rx="1.009" transform="matrix(-4.37114e-08 -1 -1 4.37114e-08 225.947 191.854)"/><rect width="4.035" height="4.035" fill="#fff" opacity=".8" rx="1.009" transform="matrix(-4.37114e-08 -1 -1 4.37114e-08 225.947 185.802)"/><rect width="4.035" height="4.035" fill="#fff" opacity=".8" rx="1.009" transform="matrix(-4.37114e-08 -1 -1 4.37114e-08 225.947 179.75)"/><rect width="4.035" height="4.035" fill="#fff" opacity=".64" rx="1.009" transform="matrix(-4.37114e-08 -1 -1 4.37114e-08 225.947 173.697)"/><rect width="4.035" height="4.035" fill="#fff" opacity=".4" rx="1.009" transform="matrix(-4.37114e-08 -1 -1 4.37114e-08 225.947 167.645)"/><rect width="4.035" height="4.035" fill="#fff" opacity=".8" rx="1.009" transform="matrix(-4.37114e-08 -1 -1 4.37114e-08 225.947 161.593)"/><rect width="4.035" height="4.035" fill="#fff" opacity=".4" rx="1.009" transform="matrix(-4.37114e-08 -1 -1 4.37114e-08 225.947 155.541)"/><rect width="4.035" height="4.035" fill="#fff" opacity=".16" rx="1.009" transform="matrix(-4.37114e-08 -1 -1 4.37114e-08 225.947 149.488)"/><rect width="4.035" height="4.035" fill="#fff" opacity=".32" rx="1.009" transform="matrix(-4.37114e-08 -1 -1 4.37114e-08 225.947 143.437)"/><rect width="4.035" height="4.035" fill="#fff" opacity=".16" rx="1.009" transform="matrix(-4.37114e-08 -1 -1 4.37114e-08 225.947 137.384)"/><rect width="4.035" height="4.035" fill="#fff" opacity=".64" rx="1.009" transform="matrix(-4.37114e-08 -1 -1 4.37114e-08 225.947 131.332)"/><rect width="4.035" height="4.035" fill="#fff" opacity=".16" rx="1.009" transform="matrix(-4.37114e-08 -1 -1 4.37114e-08 225.947 125.28)"/><rect width="4.035" height="4.035" fill="#fff" opacity=".64" rx="1.009" transform="matrix(-4.37114e-08 -1 -1 4.37114e-08 225.947 119.228)"/><rect width="4.035" height="4.035" fill="#fff" opacity=".32" rx="1.009" transform="matrix(-4.37114e-08 -1 -1 4.37114e-08 225.947 113.175)"/><rect width="4.035" height="4.035" fill="#fff" opacity=".8" rx="1.009" transform="matrix(-4.37114e-08 -1 -1 4.37114e-08 225.947 107.124)"/><rect width="4.035" height="4.035" fill="#fff" opacity=".4" rx="1.009" transform="matrix(-4.37114e-08 -1 -1 4.37114e-08 225.947 101.071)"/><rect width="4.035" height="4.035" fill="#fff" opacity=".32" rx="1.009" transform="matrix(-4.37114e-08 -1 -1 4.37114e-08 225.947 95.019)"/><rect width="4.035" height="4.035" fill="#fff" opacity=".32" rx="1.009" transform="matrix(-4.37114e-08 -1 -1 4.37114e-08 225.947 88.9668)"/><rect width="4.035" height="4.035" fill="#fff" opacity=".64" rx="1.009" transform="matrix(-4.37114e-08 -1 -1 4.37114e-08 225.947 82.9146)"/><rect width="4.035" height="4.035" fill="#fff" opacity=".4" rx="1.009" transform="matrix(-4.37114e-08 -1 -1 4.37114e-08 225.947 76.8623)"/><rect width="4.035" height="4.035" fill="#fff" opacity=".16" rx="1.009" transform="matrix(-4.37114e-08 -1 -1 4.37114e-08 225.947 70.8101)"/><rect width="4.035" height="4.035" fill="#fff" opacity=".8" rx="1.009" transform="matrix(-4.37114e-08 -1 -1 4.37114e-08 225.947 64.7583)"/><rect width="4.035" height="4.035" fill="#fff" opacity=".8" rx="1.009" transform="matrix(-4.37114e-08 -1 -1 4.37114e-08 225.947 58.7061)"/><rect width="4.035" height="4.035" fill="#fff" opacity=".8" rx="1.009" transform="matrix(-4.37114e-08 -1 -1 4.37114e-08 225.947 52.6538)"/><rect width="4.035" height="4.035" fill="#fff" opacity=".64" rx="1.009" transform="matrix(-4.37114e-08 -1 -1 4.37114e-08 225.947 46.6016)"/><rect width="4.035" height="4.035" fill="#fff" opacity=".4" rx="1.009" transform="matrix(-4.37114e-08 -1 -1 4.37114e-08 225.947 40.5493)"/><rect width="4.035" height="4.035" fill="#fff" opacity=".4" rx="1.009" transform="matrix(-4.37114e-08 -1 -1 4.37114e-08 225.947 34.4971)"/><rect width="4.035" height="4.035" fill="#fff" opacity=".32" rx="1.009" transform="matrix(-4.37114e-08 -1 -1 4.37114e-08 225.947 28.4448)"/><rect width="4.035" height="4.035" fill="#fff" opacity=".16" rx="1.009" transform="matrix(-4.37114e-08 -1 -1 4.37114e-08 225.947 22.3926)"/><rect width="4.035" height="4.035" fill="#fff" opacity=".64" rx="1.009" transform="matrix(-4.37114e-08 -1 -1 4.37114e-08 225.947 16.3408)"/><rect width="4.035" height="4.035" fill="#fff" opacity=".32" rx="1.009" transform="matrix(-4.37114e-08 -1 -1 4.37114e-08 225.947 10.2886)"/><rect width="4.035" height="4.035" fill="#fff" opacity=".16" rx="1.009" transform="matrix(-4.37114e-08 -1 -1 4.37114e-08 225.947 4.23633)"/><rect width="4.035" height="4.035" x="219.896" y=".202" fill="#fff" opacity=".4" rx="1.009" transform="rotate(90 219.896 0.20166)"/><rect width="4.035" height="4.035" x="219.896" y="6.254" fill="#fff" opacity=".32" rx="1.009" transform="rotate(90 219.896 6.25391)"/><rect width="4.035" height="4.035" x="219.896" y="12.306" fill="#fff" opacity=".16" rx="1.009" transform="rotate(90 219.896 12.3062)"/><rect width="4.035" height="4.035" x="219.896" y="18.358" fill="#fff" opacity=".8" rx="1.009" transform="rotate(90 219.896 18.3584)"/><rect width="4.035" height="4.035" x="219.896" y="24.41" fill="#fff" opacity=".8" rx="1.009" transform="rotate(90 219.896 24.4102)"/><rect width="4.035" height="4.035" x="219.896" y="30.462" fill="#fff" opacity=".64" rx="1.009" transform="rotate(90 219.896 30.4624)"/><rect width="4.035" height="4.035" x="219.896" y="36.515" fill="#fff" opacity=".32" rx="1.009" transform="rotate(90 219.896 36.5146)"/><rect width="4.035" height="4.035" x="219.896" y="42.567" fill="#fff" opacity=".32" rx="1.009" transform="rotate(90 219.896 42.5669)"/><rect width="4.035" height="4.035" x="219.896" y="48.619" fill="#fff" opacity=".32" rx="1.009" transform="rotate(90 219.896 48.6191)"/><rect width="4.035" height="4.035" x="219.896" y="54.671" fill="#fff" opacity=".64" rx="1.009" transform="rotate(90 219.896 54.6714)"/><rect width="4.035" height="4.035" x="219.896" y="60.724" fill="#fff" opacity=".16" rx="1.009" transform="rotate(90 219.896 60.7236)"/><rect width="4.035" height="4.035" x="219.896" y="66.775" fill="#fff" opacity=".64" rx="1.009" transform="rotate(90 219.896 66.7754)"/><rect width="4.035" height="4.035" x="219.896" y="72.828" fill="#fff" opacity=".4" rx="1.009" transform="rotate(90 219.896 72.8276)"/><rect width="4.035" height="4.035" x="219.896" y="78.88" fill="#fff" opacity=".4" rx="1.009" transform="rotate(90 219.896 78.8799)"/><rect width="4.035" height="4.035" x="219.896" y="84.932" fill="#fff" opacity=".8" rx="1.009" transform="rotate(90 219.896 84.9321)"/><rect width="4.035" height="4.035" x="219.896" y="90.984" fill="#fff" opacity=".4" rx="1.009" transform="rotate(90 219.896 90.9844)"/><rect width="4.035" height="4.035" x="219.896" y="97.037" fill="#fff" opacity=".4" rx="1.009" transform="rotate(90 219.896 97.0366)"/><rect width="4.035" height="4.035" x="219.896" y="103.088" fill="#fff" opacity=".16" rx="1.009" transform="rotate(90 219.896 103.088)"/><rect width="4.035" height="4.035" x="219.896" y="109.141" fill="#fff" opacity=".8" rx="1.009" transform="rotate(90 219.896 109.141)"/><rect width="4.035" height="4.035" x="219.896" y="115.193" fill="#fff" opacity=".8" rx="1.009" transform="rotate(90 219.896 115.193)"/><rect width="4.035" height="4.035" x="219.896" y="121.245" fill="#fff" opacity=".8" rx="1.009" transform="rotate(90 219.896 121.245)"/><rect width="4.035" height="4.035" x="219.896" y="127.297" fill="#fff" opacity=".64" rx="1.009" transform="rotate(90 219.896 127.297)"/><rect width="4.035" height="4.035" x="219.896" y="133.35" fill="#fff" opacity=".4" rx="1.009" transform="rotate(90 219.896 133.35)"/><rect width="4.035" height="4.035" x="219.896" y="139.401" fill="#fff" opacity=".4" rx="1.009" transform="rotate(90 219.896 139.401)"/><rect width="4.035" height="4.035" x="219.896" y="145.454" fill="#fff" opacity=".32" rx="1.009" transform="rotate(90 219.896 145.454)"/><rect width="4.035" height="4.035" x="219.896" y="151.506" fill="#fff" opacity=".16" rx="1.009" transform="rotate(90 219.896 151.506)"/><rect width="4.035" height="4.035" x="219.896" y="157.558" fill="#fff" opacity=".64" rx="1.009" transform="rotate(90 219.896 157.558)"/><rect width="4.035" height="4.035" x="219.896" y="163.61" fill="#fff" opacity=".32" rx="1.009" transform="rotate(90 219.896 163.61)"/><rect width="4.035" height="4.035" x="219.896" y="169.663" fill="#fff" opacity=".16" rx="1.009" transform="rotate(90 219.896 169.663)"/><rect width="4.035" height="4.035" x="219.896" y="175.715" fill="#fff" opacity=".16" rx="1.009" transform="rotate(90 219.896 175.715)"/><rect width="4.035" height="4.035" x="219.896" y="181.767" fill="#fff" opacity=".64" rx="1.009" transform="rotate(90 219.896 181.767)"/><rect width="4.035" height="4.035" x="219.896" y="187.819" fill="#fff" opacity=".4" rx="1.009" transform="rotate(90 219.896 187.819)"/><rect width="4.035" height="4.035" x="219.896" y="193.871" fill="#fff" opacity=".32" rx="1.009" transform="rotate(90 219.896 193.871)"/><rect width="4.035" height="4.035" x="219.896" y="199.923" fill="#fff" opacity=".16" rx="1.009" transform="rotate(90 219.896 199.923)"/><rect width="4.035" height="4.035" x="219.896" y="205.976" fill="#fff" opacity=".32" rx="1.009" transform="rotate(90 219.896 205.976)"/><rect width="4.035" height="4.035" x="219.896" y="212.028" fill="#fff" opacity=".32" rx="1.009" transform="rotate(90 219.896 212.028)"/><rect width="4.035" height="4.035" x="219.896" y="218.08" fill="#fff" opacity=".64" rx="1.009" transform="rotate(90 219.896 218.08)"/><rect width="4.035" height="4.035" x="219.896" y="224.132" fill="#fff" opacity=".4" rx="1.009" transform="rotate(90 219.896 224.132)"/><rect width="4.035" height="4.035" x="219.896" y="230.184" fill="#fff" opacity=".8" rx="1.009" transform="rotate(90 219.896 230.184)"/><rect width="4.035" height="4.035" x="219.896" y="236.236" fill="#fff" opacity=".64" rx="1.009" transform="rotate(90 219.896 236.236)"/><rect width="4.035" height="4.035" x="219.896" y="242.289" fill="#fff" opacity=".4" rx="1.009" transform="rotate(90 219.896 242.289)"/><rect width="4.035" height="4.035" x="219.896" y="248.341" fill="#fff" opacity=".32" rx="1.009" transform="rotate(90 219.896 248.341)"/><rect width="4.035" height="4.035" x="219.896" y="254.393" fill="#fff" opacity=".16" rx="1.009" transform="rotate(90 219.896 254.393)"/><rect width="4.035" height="4.035" x="219.896" y="260.445" fill="#fff" opacity=".4" rx="1.009" transform="rotate(90 219.896 260.445)"/><rect width="4.035" height="4.035" x="219.896" y="266.497" fill="#fff" opacity=".32" rx="1.009" transform="rotate(90 219.896 266.497)"/><rect width="4.035" height="4.035" x="219.896" y="272.549" fill="#fff" opacity=".8" rx="1.009" transform="rotate(90 219.896 272.549)"/><rect width="4.035" height="4.035" x="219.896" y="278.602" fill="#fff" opacity=".16" rx="1.009" transform="rotate(90 219.896 278.602)"/><rect width="4.035" height="4.035" x="219.896" y="284.654" fill="#fff" opacity=".32" rx="1.009" transform="rotate(90 219.896 284.654)"/><rect width="4.035" height="4.035" x="219.896" y="290.706" fill="#fff" opacity=".16" rx="1.009" transform="rotate(90 219.896 290.706)"/><rect width="4.035" height="4.035" x="219.896" y="296.758" fill="#fff" opacity=".64" rx="1.009" transform="rotate(90 219.896 296.758)"/><rect width="4.035" height="4.035" x="219.896" y="302.811" fill="#fff" opacity=".16" rx="1.009" transform="rotate(90 219.896 302.811)"/><rect width="4.035" height="4.035" x="219.896" y="308.862" fill="#fff" opacity=".64" rx="1.009" transform="rotate(90 219.896 308.862)"/><rect width="4.035" height="4.035" x="219.896" y="314.915" fill="#fff" opacity=".32" rx="1.009" transform="rotate(90 219.896 314.915)"/><rect width="4.035" height="4.035" x="219.896" y="320.967" fill="#fff" opacity=".8" rx="1.009" transform="rotate(90 219.896 320.967)"/><rect width="4.035" height="4.035" x="213.844" y=".202" fill="#fff" opacity=".64" rx="1.009" transform="rotate(90 213.844 0.20166)"/><rect width="4.035" height="4.035" x="213.844" y="6.254" fill="#fff" opacity=".4" rx="1.009" transform="rotate(90 213.844 6.25391)"/><rect width="4.035" height="4.035" x="213.844" y="12.306" fill="#fff" opacity=".32" rx="1.009" transform="rotate(90 213.844 12.3062)"/><rect width="4.035" height="4.035" x="213.844" y="18.358" fill="#fff" opacity=".16" rx="1.009" transform="rotate(90 213.844 18.3584)"/><rect width="4.035" height="4.035" x="213.844" y="24.41" fill="#fff" opacity=".8" rx="1.009" transform="rotate(90 213.844 24.4102)"/><rect width="4.035" height="4.035" x="213.844" y="30.462" fill="#fff" opacity=".64" rx="1.009" transform="rotate(90 213.844 30.4624)"/><rect width="4.035" height="4.035" x="213.844" y="36.515" fill="#fff" opacity=".4" rx="1.009" transform="rotate(90 213.844 36.5146)"/><rect width="4.035" height="4.035" x="213.844" y="42.567" fill="#fff" opacity=".32" rx="1.009" transform="rotate(90 213.844 42.5669)"/><rect width="4.035" height="4.035" x="213.844" y="48.619" fill="#fff" opacity=".16" rx="1.009" transform="rotate(90 213.844 48.6191)"/><rect width="4.035" height="4.035" x="213.844" y="54.671" fill="#fff" opacity=".4" rx="1.009" transform="rotate(90 213.844 54.6714)"/><rect width="4.035" height="4.035" x="213.844" y="60.724" fill="#fff" opacity=".32" rx="1.009" transform="rotate(90 213.844 60.7236)"/><rect width="4.035" height="4.035" x="213.844" y="66.775" fill="#fff" opacity=".8" rx="1.009" transform="rotate(90 213.844 66.7754)"/><rect width="4.035" height="4.035" x="213.844" y="72.828" fill="#fff" opacity=".16" rx="1.009" transform="rotate(90 213.844 72.8276)"/><rect width="4.035" height="4.035" x="213.844" y="78.88" fill="#fff" opacity=".4" rx="1.009" transform="rotate(90 213.844 78.8799)"/><rect width="4.035" height="4.035" x="213.844" y="84.932" fill="#fff" opacity=".32" rx="1.009" transform="rotate(90 213.844 84.9321)"/><rect width="4.035" height="4.035" x="213.844" y="90.984" fill="#fff" opacity=".32" rx="1.009" transform="rotate(90 213.844 90.9844)"/><rect width="4.035" height="4.035" x="213.844" y="97.037" fill="#fff" opacity=".32" rx="1.009" transform="rotate(90 213.844 97.0366)"/><rect width="4.035" height="4.035" x="213.844" y="103.088" fill="#fff" opacity=".64" rx="1.009" transform="rotate(90 213.844 103.088)"/><rect width="4.035" height="4.035" x="213.844" y="109.141" fill="#fff" opacity=".16" rx="1.009" transform="rotate(90 213.844 109.141)"/><rect width="4.035" height="4.035" x="213.844" y="115.193" fill="#fff" opacity=".64" rx="1.009" transform="rotate(90 213.844 115.193)"/><rect width="4.035" height="4.035" x="213.844" y="121.245" fill="#fff" opacity=".4" rx="1.009" transform="rotate(90 213.844 121.245)"/><rect width="4.035" height="4.035" x="213.844" y="127.297" fill="#fff" opacity=".32" rx="1.009" transform="rotate(90 213.844 127.297)"/><rect width="4.035" height="4.035" x="213.844" y="133.35" fill="#fff" opacity=".16" rx="1.009" transform="rotate(90 213.844 133.35)"/><rect width="4.035" height="4.035" x="213.844" y="139.401" fill="#fff" opacity=".8" rx="1.009" transform="rotate(90 213.844 139.401)"/><rect width="4.035" height="4.035" x="213.844" y="145.454" fill="#fff" opacity=".8" rx="1.009" transform="rotate(90 213.844 145.454)"/><rect width="4.035" height="4.035" x="213.844" y="151.506" fill="#fff" opacity=".64" rx="1.009" transform="rotate(90 213.844 151.506)"/><rect width="4.035" height="4.035" x="213.844" y="157.558" fill="#fff" opacity=".4" rx="1.009" transform="rotate(90 213.844 157.558)"/><rect width="4.035" height="4.035" x="213.844" y="163.61" fill="#fff" opacity=".8" rx="1.009" transform="rotate(90 213.844 163.61)"/><rect width="4.035" height="4.035" x="213.844" y="169.663" fill="#fff" opacity=".4" rx="1.009" transform="rotate(90 213.844 169.663)"/><rect width="4.035" height="4.035" x="213.844" y="175.715" fill="#fff" opacity=".16" rx="1.009" transform="rotate(90 213.844 175.715)"/><rect width="4.035" height="4.035" x="213.844" y="181.767" fill="#fff" opacity=".32" rx="1.009" transform="rotate(90 213.844 181.767)"/><rect width="4.035" height="4.035" x="213.844" y="187.819" fill="#fff" opacity=".16" rx="1.009" transform="rotate(90 213.844 187.819)"/><rect width="4.035" height="4.035" x="213.844" y="193.871" fill="#fff" opacity=".64" rx="1.009" transform="rotate(90 213.844 193.871)"/><rect width="4.035" height="4.035" x="213.844" y="199.923" fill="#fff" opacity=".16" rx="1.009" transform="rotate(90 213.844 199.923)"/><rect width="4.035" height="4.035" x="213.844" y="205.976" fill="#fff" opacity=".64" rx="1.009" transform="rotate(90 213.844 205.976)"/><rect width="4.035" height="4.035" x="213.844" y="212.028" fill="#fff" opacity=".32" rx="1.009" transform="rotate(90 213.844 212.028)"/><rect width="4.035" height="4.035" x="213.844" y="218.08" fill="#fff" opacity=".8" rx="1.009" transform="rotate(90 213.844 218.08)"/><rect width="4.035" height="4.035" x="213.844" y="224.132" fill="#fff" opacity=".4" rx="1.009" transform="rotate(90 213.844 224.132)"/><rect width="4.035" height="4.035" x="213.844" y="230.184" fill="#fff" opacity=".32" rx="1.009" transform="rotate(90 213.844 230.184)"/><rect width="4.035" height="4.035" x="213.844" y="236.236" fill="#fff" opacity=".32" rx="1.009" transform="rotate(90 213.844 236.236)"/><rect width="4.035" height="4.035" x="213.844" y="242.289" fill="#fff" opacity=".64" rx="1.009" transform="rotate(90 213.844 242.289)"/><rect width="4.035" height="4.035" x="213.844" y="248.341" fill="#fff" opacity=".4" rx="1.009" transform="rotate(90 213.844 248.341)"/><rect width="4.035" height="4.035" x="213.844" y="254.393" fill="#fff" opacity=".16" rx="1.009" transform="rotate(90 213.844 254.393)"/><rect width="4.035" height="4.035" x="213.844" y="260.445" fill="#fff" opacity=".8" rx="1.009" transform="rotate(90 213.844 260.445)"/><rect width="4.035" height="4.035" x="213.844" y="266.497" fill="#fff" opacity=".8" rx="1.009" transform="rotate(90 213.844 266.497)"/><rect width="4.035" height="4.035" x="213.844" y="272.549" fill="#fff" opacity=".8" rx="1.009" transform="rotate(90 213.844 272.549)"/><rect width="4.035" height="4.035" x="213.844" y="278.602" fill="#fff" opacity=".64" rx="1.009" transform="rotate(90 213.844 278.602)"/><rect width="4.035" height="4.035" x="213.844" y="284.654" fill="#fff" opacity=".4" rx="1.009" transform="rotate(90 213.844 284.654)"/><rect width="4.035" height="4.035" x="213.844" y="290.706" fill="#fff" opacity=".4" rx="1.009" transform="rotate(90 213.844 290.706)"/><rect width="4.035" height="4.035" x="213.844" y="296.758" fill="#fff" opacity=".32" rx="1.009" transform="rotate(90 213.844 296.758)"/><rect width="4.035" height="4.035" x="213.844" y="302.811" fill="#fff" opacity=".16" rx="1.009" transform="rotate(90 213.844 302.811)"/><rect width="4.035" height="4.035" x="213.844" y="308.862" fill="#fff" opacity=".64" rx="1.009" transform="rotate(90 213.844 308.862)"/><rect width="4.035" height="4.035" x="213.844" y="314.915" fill="#fff" opacity=".32" rx="1.009" transform="rotate(90 213.844 314.915)"/><rect width="4.035" height="4.035" x="213.844" y="320.967" fill="#fff" opacity=".16" rx="1.009" transform="rotate(90 213.844 320.967)"/><rect width="4.035" height="4.035" fill="#fff" opacity=".64" rx="1.009" transform="matrix(-4.37114e-08 -1 -1 4.37114e-08 207.791 325.001)"/><rect width="4.035" height="4.035" fill="#fff" opacity=".4" rx="1.009" transform="matrix(-4.37114e-08 -1 -1 4.37114e-08 207.791 318.949)"/><rect width="4.035" height="4.035" fill="#fff" opacity=".32" rx="1.009" transform="matrix(-4.37114e-08 -1 -1 4.37114e-08 207.791 312.897)"/><rect width="4.035" height="4.035" fill="#fff" opacity=".16" rx="1.009" transform="matrix(-4.37114e-08 -1 -1 4.37114e-08 207.791 306.845)"/><rect width="4.035" height="4.035" fill="#fff" opacity=".8" rx="1.009" transform="matrix(-4.37114e-08 -1 -1 4.37114e-08 207.791 300.793)"/><rect width="4.035" height="4.035" fill="#fff" opacity=".64" rx="1.009" transform="matrix(-4.37114e-08 -1 -1 4.37114e-08 207.791 294.741)"/><rect width="4.035" height="4.035" fill="#fff" opacity=".4" rx="1.009" transform="matrix(-4.37114e-08 -1 -1 4.37114e-08 207.791 288.688)"/><rect width="4.035" height="4.035" fill="#fff" opacity=".32" rx="1.009" transform="matrix(-4.37114e-08 -1 -1 4.37114e-08 207.791 282.636)"/><rect width="4.035" height="4.035" fill="#fff" opacity=".16" rx="1.009" transform="matrix(-4.37114e-08 -1 -1 4.37114e-08 207.791 276.584)"/><rect width="4.035" height="4.035" fill="#fff" opacity=".4" rx="1.009" transform="matrix(-4.37114e-08 -1 -1 4.37114e-08 207.791 270.532)"/><rect width="4.035" height="4.035" fill="#fff" opacity=".32" rx="1.009" transform="matrix(-4.37114e-08 -1 -1 4.37114e-08 207.791 264.479)"/><rect width="4.035" height="4.035" fill="#fff" opacity=".8" rx="1.009" transform="matrix(-4.37114e-08 -1 -1 4.37114e-08 207.791 258.428)"/><rect width="4.035" height="4.035" fill="#fff" opacity=".16" rx="1.009" transform="matrix(-4.37114e-08 -1 -1 4.37114e-08 207.791 252.375)"/><rect width="4.035" height="4.035" fill="#fff" opacity=".4" rx="1.009" transform="matrix(-4.37114e-08 -1 -1 4.37114e-08 207.791 246.323)"/><rect width="4.035" height="4.035" fill="#fff" opacity=".32" rx="1.009" transform="matrix(-4.37114e-08 -1 -1 4.37114e-08 207.791 240.271)"/><rect width="4.035" height="4.035" fill="#fff" opacity=".32" rx="1.009" transform="matrix(-4.37114e-08 -1 -1 4.37114e-08 207.791 234.219)"/><rect width="4.035" height="4.035" fill="#fff" opacity=".32" rx="1.009" transform="matrix(-4.37114e-08 -1 -1 4.37114e-08 207.791 228.167)"/><rect width="4.035" height="4.035" fill="#fff" opacity=".64" rx="1.009" transform="matrix(-4.37114e-08 -1 -1 4.37114e-08 207.791 222.115)"/><rect width="4.035" height="4.035" fill="#fff" opacity=".16" rx="1.009" transform="matrix(-4.37114e-08 -1 -1 4.37114e-08 207.791 216.062)"/><rect width="4.035" height="4.035" fill="#fff" opacity=".64" rx="1.009" transform="matrix(-4.37114e-08 -1 -1 4.37114e-08 207.791 210.01)"/><rect width="4.035" height="4.035" fill="#fff" opacity=".4" rx="1.009" transform="matrix(-4.37114e-08 -1 -1 4.37114e-08 207.791 203.958)"/><rect width="4.035" height="4.035" fill="#fff" opacity=".32" rx="1.009" transform="matrix(-4.37114e-08 -1 -1 4.37114e-08 207.791 197.906)"/><rect width="4.035" height="4.035" fill="#fff" opacity=".16" rx="1.009" transform="matrix(-4.37114e-08 -1 -1 4.37114e-08 207.791 191.854)"/><rect width="4.035" height="4.035" fill="#fff" opacity=".8" rx="1.009" transform="matrix(-4.37114e-08 -1 -1 4.37114e-08 207.791 185.802)"/><rect width="4.035" height="4.035" fill="#fff" opacity=".8" rx="1.009" transform="matrix(-4.37114e-08 -1 -1 4.37114e-08 207.791 179.75)"/><rect width="4.035" height="4.035" fill="#fff" opacity=".64" rx="1.009" transform="matrix(-4.37114e-08 -1 -1 4.37114e-08 207.791 173.697)"/><rect width="4.035" height="4.035" fill="#fff" opacity=".4" rx="1.009" transform="matrix(-4.37114e-08 -1 -1 4.37114e-08 207.791 167.645)"/><rect width="4.035" height="4.035" fill="#fff" opacity=".8" rx="1.009" transform="matrix(-4.37114e-08 -1 -1 4.37114e-08 207.791 161.593)"/><rect width="4.035" height="4.035" fill="#fff" opacity=".4" rx="1.009" transform="matrix(-4.37114e-08 -1 -1 4.37114e-08 207.791 155.541)"/><rect width="4.035" height="4.035" fill="#fff" opacity=".16" rx="1.009" transform="matrix(-4.37114e-08 -1 -1 4.37114e-08 207.791 149.488)"/><rect width="4.035" height="4.035" fill="#fff" opacity=".32" rx="1.009" transform="matrix(-4.37114e-08 -1 -1 4.37114e-08 207.791 143.437)"/><rect width="4.035" height="4.035" fill="#fff" opacity=".16" rx="1.009" transform="matrix(-4.37114e-08 -1 -1 4.37114e-08 207.791 137.384)"/><rect width="4.035" height="4.035" fill="#fff" opacity=".64" rx="1.009" transform="matrix(-4.37114e-08 -1 -1 4.37114e-08 207.791 131.332)"/><rect width="4.035" height="4.035" fill="#fff" opacity=".16" rx="1.009" transform="matrix(-4.37114e-08 -1 -1 4.37114e-08 207.791 125.28)"/><rect width="4.035" height="4.035" fill="#fff" opacity=".64" rx="1.009" transform="matrix(-4.37114e-08 -1 -1 4.37114e-08 207.791 119.228)"/><rect width="4.035" height="4.035" fill="#fff" opacity=".32" rx="1.009" transform="matrix(-4.37114e-08 -1 -1 4.37114e-08 207.791 113.175)"/><rect width="4.035" height="4.035" fill="#fff" opacity=".8" rx="1.009" transform="matrix(-4.37114e-08 -1 -1 4.37114e-08 207.791 107.124)"/><rect width="4.035" height="4.035" fill="#fff" opacity=".4" rx="1.009" transform="matrix(-4.37114e-08 -1 -1 4.37114e-08 207.791 101.071)"/><rect width="4.035" height="4.035" fill="#fff" opacity=".32" rx="1.009" transform="matrix(-4.37114e-08 -1 -1 4.37114e-08 207.791 95.019)"/><rect width="4.035" height="4.035" fill="#fff" opacity=".32" rx="1.009" transform="matrix(-4.37114e-08 -1 -1 4.37114e-08 207.791 88.9668)"/><rect width="4.035" height="4.035" fill="#fff" opacity=".64" rx="1.009" transform="matrix(-4.37114e-08 -1 -1 4.37114e-08 207.791 82.9146)"/><rect width="4.035" height="4.035" fill="#fff" opacity=".4" rx="1.009" transform="matrix(-4.37114e-08 -1 -1 4.37114e-08 207.791 76.8623)"/><rect width="4.035" height="4.035" fill="#fff" opacity=".16" rx="1.009" transform="matrix(-4.37114e-08 -1 -1 4.37114e-08 207.791 70.8101)"/><rect width="4.035" height="4.035" fill="#fff" opacity=".8" rx="1.009" transform="matrix(-4.37114e-08 -1 -1 4.37114e-08 207.791 64.7583)"/><rect width="4.035" height="4.035" fill="#fff" opacity=".8" rx="1.009" transform="matrix(-4.37114e-08 -1 -1 4.37114e-08 207.791 58.7061)"/><rect width="4.035" height="4.035" fill="#fff" opacity=".8" rx="1.009" transform="matrix(-4.37114e-08 -1 -1 4.37114e-08 207.791 52.6538)"/><rect width="4.035" height="4.035" fill="#fff" opacity=".64" rx="1.009" transform="matrix(-4.37114e-08 -1 -1 4.37114e-08 207.791 46.6016)"/><rect width="4.035" height="4.035" fill="#fff" opacity=".4" rx="1.009" transform="matrix(-4.37114e-08 -1 -1 4.37114e-08 207.791 40.5493)"/><rect width="4.035" height="4.035" fill="#fff" opacity=".4" rx="1.009" transform="matrix(-4.37114e-08 -1 -1 4.37114e-08 207.791 34.4971)"/><rect width="4.035" height="4.035" fill="#fff" opacity=".32" rx="1.009" transform="matrix(-4.37114e-08 -1 -1 4.37114e-08 207.791 28.4448)"/><rect width="4.035" height="4.035" fill="#fff" opacity=".16" rx="1.009" transform="matrix(-4.37114e-08 -1 -1 4.37114e-08 207.791 22.3926)"/><rect width="4.035" height="4.035" fill="#fff" opacity=".64" rx="1.009" transform="matrix(-4.37114e-08 -1 -1 4.37114e-08 207.791 16.3408)"/><rect width="4.035" height="4.035" fill="#fff" opacity=".32" rx="1.009" transform="matrix(-4.37114e-08 -1 -1 4.37114e-08 207.791 10.2886)"/><rect width="4.035" height="4.035" fill="#fff" opacity=".16" rx="1.009" transform="matrix(-4.37114e-08 -1 -1 4.37114e-08 207.791 4.23633)"/><rect width="4.035" height="4.035" x="201.738" y=".202" fill="#fff" opacity=".4" rx="1.009" transform="rotate(90 201.738 0.20166)"/><rect width="4.035" height="4.035" x="201.738" y="6.254" fill="#fff" opacity=".32" rx="1.009" transform="rotate(90 201.738 6.25391)"/><rect width="4.035" height="4.035" x="201.738" y="12.306" fill="#fff" opacity=".16" rx="1.009" transform="rotate(90 201.738 12.3062)"/><rect width="4.035" height="4.035" x="201.738" y="18.358" fill="#fff" opacity=".8" rx="1.009" transform="rotate(90 201.738 18.3584)"/><rect width="4.035" height="4.035" x="201.738" y="24.41" fill="#fff" opacity=".8" rx="1.009" transform="rotate(90 201.738 24.4102)"/><rect width="4.035" height="4.035" x="201.738" y="30.462" fill="#fff" opacity=".64" rx="1.009" transform="rotate(90 201.738 30.4624)"/><rect width="4.035" height="4.035" x="201.738" y="36.515" fill="#fff" opacity=".32" rx="1.009" transform="rotate(90 201.738 36.5146)"/><rect width="4.035" height="4.035" x="201.738" y="42.567" fill="#fff" opacity=".32" rx="1.009" transform="rotate(90 201.738 42.5669)"/><rect width="4.035" height="4.035" x="201.738" y="48.619" fill="#fff" opacity=".32" rx="1.009" transform="rotate(90 201.738 48.6191)"/><rect width="4.035" height="4.035" x="201.738" y="54.671" fill="#fff" opacity=".64" rx="1.009" transform="rotate(90 201.738 54.6714)"/><rect width="4.035" height="4.035" x="201.738" y="60.724" fill="#fff" opacity=".16" rx="1.009" transform="rotate(90 201.738 60.7236)"/><rect width="4.035" height="4.035" x="201.738" y="66.775" fill="#fff" opacity=".64" rx="1.009" transform="rotate(90 201.738 66.7754)"/><rect width="4.035" height="4.035" x="201.738" y="72.828" fill="#fff" opacity=".4" rx="1.009" transform="rotate(90 201.738 72.8276)"/><rect width="4.035" height="4.035" x="201.738" y="78.88" fill="#fff" opacity=".4" rx="1.009" transform="rotate(90 201.738 78.8799)"/><rect width="4.035" height="4.035" x="201.738" y="84.932" fill="#fff" opacity=".8" rx="1.009" transform="rotate(90 201.738 84.9321)"/><rect width="4.035" height="4.035" x="201.738" y="90.984" fill="#fff" opacity=".4" rx="1.009" transform="rotate(90 201.738 90.9844)"/><rect width="4.035" height="4.035" x="201.738" y="97.037" fill="#fff" opacity=".4" rx="1.009" transform="rotate(90 201.738 97.0366)"/><rect width="4.035" height="4.035" x="201.738" y="103.088" fill="#fff" opacity=".16" rx="1.009" transform="rotate(90 201.738 103.088)"/><rect width="4.035" height="4.035" x="201.738" y="109.141" fill="#fff" opacity=".8" rx="1.009" transform="rotate(90 201.738 109.141)"/><rect width="4.035" height="4.035" x="201.738" y="115.193" fill="#fff" opacity=".8" rx="1.009" transform="rotate(90 201.738 115.193)"/><rect width="4.035" height="4.035" x="201.738" y="121.245" fill="#fff" opacity=".8" rx="1.009" transform="rotate(90 201.738 121.245)"/><rect width="4.035" height="4.035" x="201.738" y="127.297" fill="#fff" opacity=".64" rx="1.009" transform="rotate(90 201.738 127.297)"/><rect width="4.035" height="4.035" x="201.738" y="133.35" fill="#fff" opacity=".4" rx="1.009" transform="rotate(90 201.738 133.35)"/><rect width="4.035" height="4.035" x="201.738" y="139.401" fill="#fff" opacity=".4" rx="1.009" transform="rotate(90 201.738 139.401)"/><rect width="4.035" height="4.035" x="201.738" y="145.454" fill="#fff" opacity=".32" rx="1.009" transform="rotate(90 201.738 145.454)"/><rect width="4.035" height="4.035" x="201.738" y="151.506" fill="#fff" opacity=".16" rx="1.009" transform="rotate(90 201.738 151.506)"/><rect width="4.035" height="4.035" x="201.738" y="157.558" fill="#fff" opacity=".64" rx="1.009" transform="rotate(90 201.738 157.558)"/><rect width="4.035" height="4.035" x="201.738" y="163.61" fill="#fff" opacity=".32" rx="1.009" transform="rotate(90 201.738 163.61)"/><rect width="4.035" height="4.035" x="201.738" y="169.663" fill="#fff" opacity=".16" rx="1.009" transform="rotate(90 201.738 169.663)"/><rect width="4.035" height="4.035" x="201.738" y="175.715" fill="#fff" opacity=".16" rx="1.009" transform="rotate(90 201.738 175.715)"/><rect width="4.035" height="4.035" x="201.738" y="181.767" fill="#fff" opacity=".64" rx="1.009" transform="rotate(90 201.738 181.767)"/><rect width="4.035" height="4.035" x="201.738" y="187.819" fill="#fff" opacity=".4" rx="1.009" transform="rotate(90 201.738 187.819)"/><rect width="4.035" height="4.035" x="201.738" y="193.871" fill="#fff" opacity=".32" rx="1.009" transform="rotate(90 201.738 193.871)"/><rect width="4.035" height="4.035" x="201.738" y="199.923" fill="#fff" opacity=".16" rx="1.009" transform="rotate(90 201.738 199.923)"/><rect width="4.035" height="4.035" x="201.738" y="205.976" fill="#fff" opacity=".32" rx="1.009" transform="rotate(90 201.738 205.976)"/><rect width="4.035" height="4.035" x="201.738" y="212.028" fill="#fff" opacity=".32" rx="1.009" transform="rotate(90 201.738 212.028)"/><rect width="4.035" height="4.035" x="201.738" y="218.08" fill="#fff" opacity=".64" rx="1.009" transform="rotate(90 201.738 218.08)"/><rect width="4.035" height="4.035" x="201.738" y="224.132" fill="#fff" opacity=".4" rx="1.009" transform="rotate(90 201.738 224.132)"/><rect width="4.035" height="4.035" x="201.738" y="230.184" fill="#fff" opacity=".8" rx="1.009" transform="rotate(90 201.738 230.184)"/><rect width="4.035" height="4.035" x="201.738" y="236.236" fill="#fff" opacity=".64" rx="1.009" transform="rotate(90 201.738 236.236)"/><rect width="4.035" height="4.035" x="201.738" y="242.289" fill="#fff" opacity=".4" rx="1.009" transform="rotate(90 201.738 242.289)"/><rect width="4.035" height="4.035" x="201.738" y="248.341" fill="#fff" opacity=".32" rx="1.009" transform="rotate(90 201.738 248.341)"/><rect width="4.035" height="4.035" x="201.738" y="254.393" fill="#fff" opacity=".16" rx="1.009" transform="rotate(90 201.738 254.393)"/><rect width="4.035" height="4.035" x="201.738" y="260.445" fill="#fff" opacity=".4" rx="1.009" transform="rotate(90 201.738 260.445)"/><rect width="4.035" height="4.035" x="201.738" y="266.497" fill="#fff" opacity=".32" rx="1.009" transform="rotate(90 201.738 266.497)"/><rect width="4.035" height="4.035" x="201.738" y="272.549" fill="#fff" opacity=".8" rx="1.009" transform="rotate(90 201.738 272.549)"/><rect width="4.035" height="4.035" x="201.738" y="278.602" fill="#fff" opacity=".16" rx="1.009" transform="rotate(90 201.738 278.602)"/><rect width="4.035" height="4.035" x="201.738" y="284.654" fill="#fff" opacity=".32" rx="1.009" transform="rotate(90 201.738 284.654)"/><rect width="4.035" height="4.035" x="201.738" y="290.706" fill="#fff" opacity=".16" rx="1.009" transform="rotate(90 201.738 290.706)"/><rect width="4.035" height="4.035" x="201.738" y="296.758" fill="#fff" opacity=".64" rx="1.009" transform="rotate(90 201.738 296.758)"/><rect width="4.035" height="4.035" x="201.738" y="302.811" fill="#fff" opacity=".16" rx="1.009" transform="rotate(90 201.738 302.811)"/><rect width="4.035" height="4.035" x="201.738" y="308.862" fill="#fff" opacity=".64" rx="1.009" transform="rotate(90 201.738 308.862)"/><rect width="4.035" height="4.035" x="201.738" y="314.915" fill="#fff" opacity=".32" rx="1.009" transform="rotate(90 201.738 314.915)"/><rect width="4.035" height="4.035" x="201.738" y="320.967" fill="#fff" opacity=".8" rx="1.009" transform="rotate(90 201.738 320.967)"/><rect width="4.035" height="4.035" x="195.688" y=".202" fill="#fff" opacity=".64" rx="1.009" transform="rotate(90 195.688 0.20166)"/><rect width="4.035" height="4.035" x="195.688" y="6.254" fill="#fff" opacity=".4" rx="1.009" transform="rotate(90 195.688 6.25391)"/><rect width="4.035" height="4.035" x="195.688" y="12.306" fill="#fff" opacity=".32" rx="1.009" transform="rotate(90 195.688 12.3062)"/><rect width="4.035" height="4.035" x="195.688" y="18.358" fill="#fff" opacity=".16" rx="1.009" transform="rotate(90 195.688 18.3584)"/><rect width="4.035" height="4.035" x="195.688" y="24.41" fill="#fff" opacity=".8" rx="1.009" transform="rotate(90 195.688 24.4102)"/><rect width="4.035" height="4.035" x="195.688" y="30.462" fill="#fff" opacity=".64" rx="1.009" transform="rotate(90 195.688 30.4624)"/><rect width="4.035" height="4.035" x="195.688" y="36.515" fill="#fff" opacity=".4" rx="1.009" transform="rotate(90 195.688 36.5146)"/><rect width="4.035" height="4.035" x="195.688" y="42.567" fill="#fff" opacity=".32" rx="1.009" transform="rotate(90 195.688 42.5669)"/><rect width="4.035" height="4.035" x="195.688" y="48.619" fill="#fff" opacity=".16" rx="1.009" transform="rotate(90 195.688 48.6191)"/><rect width="4.035" height="4.035" x="195.688" y="54.671" fill="#fff" opacity=".4" rx="1.009" transform="rotate(90 195.688 54.6714)"/><rect width="4.035" height="4.035" x="195.688" y="60.724" fill="#fff" opacity=".32" rx="1.009" transform="rotate(90 195.688 60.7236)"/><rect width="4.035" height="4.035" x="195.688" y="66.775" fill="#fff" opacity=".8" rx="1.009" transform="rotate(90 195.688 66.7754)"/><rect width="4.035" height="4.035" x="195.688" y="72.828" fill="#fff" opacity=".16" rx="1.009" transform="rotate(90 195.688 72.8276)"/><rect width="4.035" height="4.035" x="195.688" y="78.88" fill="#fff" opacity=".4" rx="1.009" transform="rotate(90 195.688 78.8799)"/><rect width="4.035" height="4.035" x="195.688" y="84.932" fill="#fff" opacity=".32" rx="1.009" transform="rotate(90 195.688 84.9321)"/><rect width="4.035" height="4.035" x="195.688" y="90.984" fill="#fff" opacity=".32" rx="1.009" transform="rotate(90 195.688 90.9844)"/><rect width="4.035" height="4.035" x="195.688" y="97.037" fill="#fff" opacity=".32" rx="1.009" transform="rotate(90 195.688 97.0366)"/><rect width="4.035" height="4.035" x="195.688" y="103.088" fill="#fff" opacity=".64" rx="1.009" transform="rotate(90 195.688 103.088)"/><rect width="4.035" height="4.035" x="195.688" y="109.141" fill="#fff" opacity=".16" rx="1.009" transform="rotate(90 195.688 109.141)"/><rect width="4.035" height="4.035" x="195.688" y="115.193" fill="#fff" opacity=".64" rx="1.009" transform="rotate(90 195.688 115.193)"/><rect width="4.035" height="4.035" x="195.688" y="121.245" fill="#fff" opacity=".4" rx="1.009" transform="rotate(90 195.688 121.245)"/><rect width="4.035" height="4.035" x="195.688" y="127.297" fill="#fff" opacity=".32" rx="1.009" transform="rotate(90 195.688 127.297)"/><rect width="4.035" height="4.035" x="195.688" y="133.35" fill="#fff" opacity=".16" rx="1.009" transform="rotate(90 195.688 133.35)"/><rect width="4.035" height="4.035" x="195.688" y="139.401" fill="#fff" opacity=".8" rx="1.009" transform="rotate(90 195.688 139.401)"/><rect width="4.035" height="4.035" x="195.688" y="145.454" fill="#fff" opacity=".8" rx="1.009" transform="rotate(90 195.688 145.454)"/><rect width="4.035" height="4.035" x="195.688" y="151.506" fill="#fff" opacity=".64" rx="1.009" transform="rotate(90 195.688 151.506)"/><rect width="4.035" height="4.035" x="195.688" y="157.558" fill="#fff" opacity=".4" rx="1.009" transform="rotate(90 195.688 157.558)"/><rect width="4.035" height="4.035" x="195.688" y="163.61" fill="#fff" opacity=".8" rx="1.009" transform="rotate(90 195.688 163.61)"/><rect width="4.035" height="4.035" x="195.688" y="169.663" fill="#fff" opacity=".4" rx="1.009" transform="rotate(90 195.688 169.663)"/><rect width="4.035" height="4.035" x="195.688" y="175.715" fill="#fff" opacity=".16" rx="1.009" transform="rotate(90 195.688 175.715)"/><rect width="4.035" height="4.035" x="195.688" y="181.767" fill="#fff" opacity=".32" rx="1.009" transform="rotate(90 195.688 181.767)"/><rect width="4.035" height="4.035" x="195.688" y="187.819" fill="#fff" opacity=".16" rx="1.009" transform="rotate(90 195.688 187.819)"/><rect width="4.035" height="4.035" x="195.688" y="193.871" fill="#fff" opacity=".64" rx="1.009" transform="rotate(90 195.688 193.871)"/><rect width="4.035" height="4.035" x="195.688" y="199.923" fill="#fff" opacity=".16" rx="1.009" transform="rotate(90 195.688 199.923)"/><rect width="4.035" height="4.035" x="195.688" y="205.976" fill="#fff" opacity=".64" rx="1.009" transform="rotate(90 195.688 205.976)"/><rect width="4.035" height="4.035" x="195.688" y="212.028" fill="#fff" opacity=".32" rx="1.009" transform="rotate(90 195.688 212.028)"/><rect width="4.035" height="4.035" x="195.688" y="218.08" fill="#fff" opacity=".8" rx="1.009" transform="rotate(90 195.688 218.08)"/><rect width="4.035" height="4.035" x="195.688" y="224.132" fill="#fff" opacity=".4" rx="1.009" transform="rotate(90 195.688 224.132)"/><rect width="4.035" height="4.035" x="195.688" y="230.184" fill="#fff" opacity=".32" rx="1.009" transform="rotate(90 195.688 230.184)"/><rect width="4.035" height="4.035" x="195.688" y="236.236" fill="#fff" opacity=".32" rx="1.009" transform="rotate(90 195.688 236.236)"/><rect width="4.035" height="4.035" x="195.688" y="242.289" fill="#fff" opacity=".64" rx="1.009" transform="rotate(90 195.688 242.289)"/><rect width="4.035" height="4.035" x="195.688" y="248.341" fill="#fff" opacity=".4" rx="1.009" transform="rotate(90 195.688 248.341)"/><rect width="4.035" height="4.035" x="195.688" y="254.393" fill="#fff" opacity=".16" rx="1.009" transform="rotate(90 195.688 254.393)"/><rect width="4.035" height="4.035" x="195.688" y="260.445" fill="#fff" opacity=".8" rx="1.009" transform="rotate(90 195.688 260.445)"/><rect width="4.035" height="4.035" x="195.688" y="266.497" fill="#fff" opacity=".8" rx="1.009" transform="rotate(90 195.688 266.497)"/><rect width="4.035" height="4.035" x="195.688" y="272.549" fill="#fff" opacity=".8" rx="1.009" transform="rotate(90 195.688 272.549)"/><rect width="4.035" height="4.035" x="195.688" y="278.602" fill="#fff" opacity=".64" rx="1.009" transform="rotate(90 195.688 278.602)"/><rect width="4.035" height="4.035" x="195.688" y="284.654" fill="#fff" opacity=".4" rx="1.009" transform="rotate(90 195.688 284.654)"/><rect width="4.035" height="4.035" x="195.688" y="290.706" fill="#fff" opacity=".4" rx="1.009" transform="rotate(90 195.688 290.706)"/><rect width="4.035" height="4.035" x="195.688" y="296.758" fill="#fff" opacity=".32" rx="1.009" transform="rotate(90 195.688 296.758)"/><rect width="4.035" height="4.035" x="195.688" y="302.811" fill="#fff" opacity=".16" rx="1.009" transform="rotate(90 195.688 302.811)"/><rect width="4.035" height="4.035" x="195.688" y="308.862" fill="#fff" opacity=".64" rx="1.009" transform="rotate(90 195.688 308.862)"/><rect width="4.035" height="4.035" x="195.688" y="314.915" fill="#fff" opacity=".32" rx="1.009" transform="rotate(90 195.688 314.915)"/><rect width="4.035" height="4.035" x="195.688" y="320.967" fill="#fff" opacity=".16" rx="1.009" transform="rotate(90 195.688 320.967)"/></g></g><mask id="mask2_2060_26185" width="232" height="326" x="0" y="0" maskUnits="userSpaceOnUse" style="mask-type:alpha"><path fill="#000" fill-rule="evenodd" d="M8.06956 0.20166C3.61287 0.20166 0 3.81452 0 8.27122V316.932C0 321.389 3.61286 325.002 8.06956 325.002H223.93C228.387 325.002 232 321.389 232 316.932V8.27122C232 3.81453 228.387 0.20166 223.93 0.20166H8.06956ZM97.8435 8.27122C96.7293 8.27122 95.8261 9.17444 95.8261 10.2886C95.8261 11.4028 96.7293 12.306 97.8435 12.306H134.157C135.271 12.306 136.174 11.4028 136.174 10.2886C136.174 9.17444 135.271 8.27122 134.157 8.27122H97.8435Z" clip-rule="evenodd"/><path fill="url(#paint3_linear_2060_26185)" fill-opacity=".2" fill-rule="evenodd" d="M8.06956 0.20166C3.61287 0.20166 0 3.81452 0 8.27122V316.932C0 321.389 3.61286 325.002 8.06956 325.002H223.93C228.387 325.002 232 321.389 232 316.932V8.27122C232 3.81453 228.387 0.20166 223.93 0.20166H8.06956ZM97.8435 8.27122C96.7293 8.27122 95.8261 9.17444 95.8261 10.2886C95.8261 11.4028 96.7293 12.306 97.8435 12.306H134.157C135.271 12.306 136.174 11.4028 136.174 10.2886C136.174 9.17444 135.271 8.27122 134.157 8.27122H97.8435Z" clip-rule="evenodd"/></mask><g mask="url(#mask2_2060_26185)"><rect width="386.761" height="443.771" x="-9.033" y="-87.05" fill="url(#paint4_linear_2060_26185)" rx="8.07" transform="rotate(16.309 -9.0332 -87.0505)" style="mix-blend-mode:overlay"/><rect width="386.761" height="443.771" x="-9.033" y="-87.05" fill="url(#paint5_linear_2060_26185)" fill-opacity=".64" rx="8.07" transform="rotate(16.309 -9.0332 -87.0505)" style="mix-blend-mode:overlay"/></g><path stroke="url(#paint6_linear_2060_26185)" stroke-width="1.009" d="M22.4022 280.435H102.382V311.626H22.4022C-0.854851 311.626 -21.1663 298.782 -32.0357 279.681C-33.6157 276.905 -34.9985 273.992 -36.1584 270.968L-36.1585 270.968C-38.4337 265.048 -39.8647 258.696 -40.3003 252.067V243.394C-40.2061 241.922 -40.0579 240.461 -39.8642 239.016L-39.8642 239.016C-39.467 236.042 -38.8671 233.132 -38.0785 230.303L-38.0785 230.303C-30.6176 203.48 -6.36087 183.836 22.4022 183.836C50.9362 183.836 75.0326 203.168 82.6986 229.663H49.2263C43.4669 220.846 33.6065 215.027 22.4022 215.027C11.0999 215.027 1.16508 220.948 -4.57212 229.895C-6.32101 232.616 -7.67797 235.615 -8.56701 238.814C-9.35664 241.651 -9.77757 244.641 -9.77757 247.731C-9.77757 257.102 -5.90017 265.552 0.317772 271.513C6.07998 277.046 13.8517 280.435 22.4022 280.435ZM102.382 239.453V270.645H45.3587C51.0651 264.745 54.5821 256.656 54.5821 247.731C54.5821 244.872 54.2218 242.099 53.5426 239.453H102.382Z"/><path fill="#fff" d="M26.205 46.4453L18.0144 46.4453L18.0144 32.3236L19.7695 32.3236L19.7695 44.8314L26.205 44.8314L26.205 46.4453ZM34.2489 41.301L34.2489 36.1566L35.9031 36.1566L35.9031 46.4453L34.4708 46.4453L34.2489 45.0735C33.4688 46.0687 32.3727 46.5664 30.9605 46.5664C29.7367 46.5664 28.7549 46.1898 28.0151 45.4366C27.2754 44.6835 26.9056 43.4999 26.9056 41.886L26.9056 36.1566L28.5598 36.1566L28.5598 41.7851C28.5598 42.8476 28.7885 43.6613 29.2458 44.2262C29.7165 44.7776 30.3822 45.0533 31.243 45.0533C32.1844 45.0533 32.9174 44.7171 33.4419 44.0446C33.9799 43.3722 34.2489 42.4576 34.2489 41.301ZM37.9565 46.4453L37.9565 32.3236L39.6107 32.3236L39.6107 41.6237L44.7753 36.1566L46.8128 36.1566L42.7982 40.4133L47.0953 46.4453L45.098 46.4453L41.6886 41.6036L39.6107 43.742L39.6107 46.4453L37.9565 46.4453ZM52.2082 46.5664C50.675 46.5664 49.4377 46.0822 48.4962 45.1138C47.5682 44.1455 47.1042 42.8745 47.1042 41.301C47.1042 39.7409 47.5548 38.4766 48.4559 37.5083C49.357 36.5265 50.5338 36.0356 51.9863 36.0356C53.4523 36.0356 54.6224 36.4727 55.4966 37.3469C56.3708 38.2076 56.8281 39.3979 56.8684 40.9177C56.8684 41.0656 56.855 41.301 56.8281 41.6237L48.8392 41.6237L48.8392 41.765C48.8661 42.7602 49.1687 43.5672 49.747 44.1858C50.3388 44.7911 51.1188 45.0937 52.0872 45.0937C52.8269 45.0937 53.4523 44.9121 53.9634 44.549C54.4879 44.1724 54.8376 43.6546 55.0124 42.9956L56.6868 42.9956C56.4851 44.0446 55.9808 44.9054 55.1738 45.5778C54.3668 46.2369 53.3783 46.5664 52.2082 46.5664ZM48.9401 40.2519L55.0931 40.2519C55.0124 39.3777 54.6964 38.6985 54.1449 38.2144C53.5935 37.7302 52.8807 37.4881 52.0065 37.4881C51.2264 37.4881 50.5405 37.7436 49.9488 38.2547C49.357 38.7658 49.0208 39.4315 48.9401 40.2519ZM63.3097 41.8255L65.1254 41.8255C65.1926 42.7804 65.5692 43.547 66.2551 44.1253C66.941 44.6902 67.822 44.9726 68.8979 44.9726C69.8662 44.9726 70.6463 44.7642 71.2381 44.3472C71.8433 43.9169 72.1459 43.3251 72.1459 42.5719C72.1459 42.2357 72.0719 41.9398 71.924 41.6843C71.7895 41.4153 71.6214 41.2068 71.4196 41.0589C71.2179 40.8975 70.922 40.7495 70.532 40.6151C70.1554 40.4806 69.8124 40.3864 69.5031 40.3326C69.2072 40.2654 68.797 40.1847 68.2725 40.0905C67.6135 39.9829 67.0419 39.8552 66.5577 39.7072C66.087 39.5458 65.6095 39.3306 65.1254 39.0617C64.6546 38.7792 64.2915 38.4026 64.036 37.9319C63.7804 37.4477 63.6527 36.8762 63.6527 36.2171C63.6527 35.0202 64.0965 34.0518 64.9842 33.3121C65.8718 32.5724 67.0352 32.2025 68.4742 32.2025C70.0209 32.2025 71.2582 32.5993 72.1862 33.3928C73.1277 34.1729 73.6388 35.2084 73.7195 36.4996L71.9038 36.4996C71.7962 35.6792 71.4331 35.0269 70.8144 34.5427C70.2092 34.0451 69.4291 33.7963 68.4742 33.7963C67.5328 33.7963 66.7864 33.998 66.2349 34.4015C65.6835 34.805 65.4078 35.3766 65.4078 36.1163C65.4078 36.4391 65.4751 36.7282 65.6095 36.9838C65.7575 37.2393 65.9256 37.441 66.1139 37.589C66.3156 37.7369 66.6048 37.8781 66.9814 38.0126C67.3714 38.1337 67.7144 38.2278 68.0102 38.2951C68.3061 38.3489 68.7163 38.4228 69.2409 38.517C69.8999 38.6246 70.4715 38.7591 70.9556 38.9204C71.4398 39.0684 71.924 39.2836 72.4082 39.566C72.8923 39.8484 73.2622 40.2318 73.5177 40.7159C73.7733 41.1866 73.901 41.7515 73.901 42.4105C73.901 43.6344 73.4303 44.6364 72.4889 45.4164C71.5609 46.1831 70.3571 46.5664 68.8777 46.5664C67.1831 46.5664 65.8449 46.136 64.8631 45.2752C63.8813 44.401 63.3635 43.2511 63.3097 41.8255ZM77.2988 34.1191C77.097 34.3208 76.8415 34.4217 76.5321 34.4217C76.2228 34.4217 75.9673 34.3208 75.7655 34.1191C75.5638 33.9173 75.4629 33.6618 75.4629 33.3524C75.4629 33.0431 75.5638 32.7876 75.7655 32.5858C75.9673 32.3841 76.2228 32.2832 76.5321 32.2832C76.8415 32.2832 77.097 32.3841 77.2988 32.5858C77.5005 32.7876 77.6014 33.0431 77.6014 33.3524C77.6014 33.6618 77.5005 33.9173 77.2988 34.1191ZM75.6848 46.4453L75.6848 36.1566L77.3391 36.1566L77.3391 46.4453L75.6848 46.4453ZM79.4036 46.4453L79.4036 32.3236L81.0579 32.3236L81.0579 46.4453L79.4036 46.4453ZM85.9467 46.4453L82.0935 36.1566L83.8688 36.1566L86.9756 44.5691L90.0622 36.1566L91.7972 36.1566L87.944 46.4453L85.9467 46.4453ZM97.118 46.5664C95.5848 46.5664 94.3475 46.0822 93.406 45.1138C92.478 44.1455 92.014 42.8745 92.014 41.301C92.014 39.7409 92.4646 38.4766 93.3657 37.5083C94.2668 36.5265 95.4436 36.0356 96.8961 36.0356C98.3621 36.0356 99.5322 36.4727 100.406 37.3469C101.281 38.2076 101.738 39.3979 101.778 40.9177C101.778 41.0656 101.765 41.301 101.738 41.6238L93.749 41.6238L93.749 41.765C93.7759 42.7602 94.0785 43.5672 94.6568 44.1858C95.2486 44.7911 96.0287 45.0937 96.997 45.0937C97.7367 45.0937 98.3621 44.9121 98.8732 44.549C99.3977 44.1724 99.7474 43.6546 99.9222 42.9956L101.597 42.9956C101.395 44.0446 100.891 44.9054 100.084 45.5778C99.2767 46.2369 98.2881 46.5664 97.118 46.5664ZM93.8499 40.2519L100.003 40.2519C99.9222 39.3777 99.6062 38.6985 99.0547 38.2144C98.5033 37.7302 97.7905 37.4881 96.9163 37.4881C96.1362 37.4881 95.4503 37.7436 94.8586 38.2547C94.2668 38.7658 93.9306 39.4315 93.8499 40.2519ZM108.225 36.1566L108.689 36.1566L108.689 37.7705L107.862 37.7705C106.88 37.7705 106.174 38.1 105.744 38.7591C105.327 39.4181 105.118 40.2318 105.118 41.2001L105.118 46.4453L103.464 46.4453L103.464 36.1566L104.897 36.1566L105.118 37.71C105.751 36.6744 106.786 36.1566 108.225 36.1566Z"/><path fill="#ADADB0" d="M17.2599 61.4852C17.2599 59.9924 17.8006 58.7456 18.8819 57.745C19.9632 56.7363 21.2826 56.2319 22.84 56.2319C24.3329 56.2319 25.5514 56.6435 26.4955 57.4666C27.4397 58.2897 27.9117 59.3428 27.9117 60.6258C27.9117 61.578 27.6696 62.3567 27.1855 62.962C26.7013 63.5672 26.084 63.8698 25.3335 63.8698C24.9704 63.8698 24.6718 63.781 24.4378 63.6035C24.2118 63.426 24.0827 63.2121 24.0504 62.962L24.0262 62.7804C23.889 63.1032 23.651 63.3654 23.3121 63.5672C22.9732 63.7608 22.5898 63.8577 22.1622 63.8577C21.5489 63.8577 21.0284 63.6438 20.6007 63.2161C20.1811 62.7804 19.9713 62.2236 19.9713 61.5457C19.9713 60.7791 20.2214 60.1255 20.7217 59.5848C21.2221 59.0361 21.8111 58.7617 22.489 58.7617C22.9409 58.7617 23.3121 58.8465 23.6026 59.0159C23.8931 59.1854 24.0868 59.4073 24.1836 59.6817L24.3652 58.8707L25.1398 58.8707L24.7767 62.3204C24.7202 62.8692 24.9542 63.1435 25.4788 63.1435C25.8822 63.1435 26.2292 62.9014 26.5197 62.4173C26.8183 61.925 26.9676 61.3198 26.9676 60.6016C26.9676 59.5445 26.5883 58.6891 25.8298 58.0355C25.0712 57.3818 24.0706 57.055 22.8279 57.055C21.4561 57.055 20.3425 57.4787 19.4871 58.326C18.6317 59.1652 18.204 60.2143 18.204 61.4731C18.204 62.74 18.5914 63.7366 19.3661 64.4629C20.1488 65.1811 21.2503 65.5402 22.6705 65.5402C23.7438 65.5402 24.6678 65.29 25.4424 64.7897L25.4182 65.6733C24.7242 66.1333 23.7801 66.3633 22.5858 66.3633C21.0122 66.3633 19.7292 65.9154 18.7366 65.0197C17.7521 64.132 17.2599 62.9539 17.2599 61.4852ZM24.0504 60.9526C24.0504 60.5007 23.9213 60.1457 23.6631 59.8874C23.4129 59.6212 23.0821 59.488 22.6705 59.488C22.1702 59.488 21.7466 59.6857 21.3996 60.0811C21.0607 60.4765 20.8912 60.9526 20.8912 61.5094C20.8912 61.9936 21.0203 62.385 21.2785 62.6836C21.5448 62.9821 21.8878 63.1314 22.3074 63.1314C22.8077 63.1314 23.2233 62.9297 23.5542 62.5262C23.885 62.1227 24.0504 61.5982 24.0504 60.9526ZM29.212 64.4629L29.212 55.9898L30.2046 55.9898L30.2046 64.4629L29.212 64.4629ZM36.6118 63.664C36.0469 64.245 35.3126 64.5355 34.4088 64.5355C33.505 64.5355 32.7667 64.245 32.1937 63.664C31.6289 63.0749 31.3464 62.3124 31.3464 61.3763C31.3464 60.4402 31.6289 59.6817 32.1937 59.1007C32.7667 58.5116 33.505 58.217 34.4088 58.217C35.3126 58.217 36.0469 58.5116 36.6118 59.1007C37.1848 59.6817 37.4712 60.4402 37.4712 61.3763C37.4712 62.3124 37.1848 63.0749 36.6118 63.664ZM32.9321 63.0104C33.3114 63.4381 33.8036 63.6519 34.4088 63.6519C35.014 63.6519 35.5063 63.4381 35.8856 63.0104C36.2648 62.5827 36.4545 62.038 36.4545 61.3763C36.4545 60.7146 36.2648 60.1699 35.8856 59.7422C35.5063 59.3145 35.014 59.1007 34.4088 59.1007C33.8036 59.1007 33.3114 59.3145 32.9321 59.7422C32.5528 60.1699 32.3632 60.7146 32.3632 61.3763C32.3632 62.038 32.5528 62.5827 32.9321 63.0104ZM38.6094 64.4629L38.6094 55.9898L39.602 55.9898L39.602 61.57L42.7007 58.2897L43.9232 58.2897L41.5145 60.8437L44.0927 64.4629L42.8944 64.4629L40.8487 61.5578L39.602 62.8409L39.602 64.4629L38.6094 64.4629ZM44.3483 62.4294L45.3651 62.4294C45.3812 62.8006 45.5426 63.1032 45.8492 63.3372C46.1559 63.5712 46.5634 63.6882 47.0718 63.6882C47.5075 63.6882 47.8626 63.6035 48.137 63.434C48.4194 63.2565 48.5606 63.0265 48.5606 62.7441C48.5606 62.5908 48.5283 62.4616 48.4638 62.3567C48.4073 62.2518 48.3427 62.1711 48.2701 62.1146C48.2055 62.0501 48.0845 61.9976 47.907 61.9573C47.7294 61.9089 47.5923 61.8806 47.4954 61.8726C47.3986 61.8564 47.2211 61.8322 46.9628 61.7999C46.5674 61.7515 46.2406 61.6991 45.9824 61.6426C45.7242 61.578 45.47 61.4852 45.2198 61.3642C44.9697 61.2351 44.7841 61.0656 44.663 60.8558C44.542 60.6379 44.4814 60.3757 44.4814 60.069C44.4814 59.5122 44.7074 59.0644 45.1593 58.7254C45.6193 58.3784 46.2003 58.209 46.9023 58.217C47.6286 58.2251 48.2177 58.3986 48.6695 58.7375C49.1214 59.0684 49.3716 59.5445 49.42 60.1658L48.4033 60.1658C48.3629 59.8431 48.2055 59.5808 47.9312 59.3791C47.6649 59.1693 47.3219 59.0644 46.9023 59.0644C46.4666 59.0644 46.1155 59.1491 45.8492 59.3185C45.591 59.488 45.4619 59.714 45.4619 59.9964C45.4619 60.1578 45.4942 60.2909 45.5587 60.3958C45.6314 60.5007 45.7484 60.5855 45.9098 60.65C46.0792 60.7065 46.2325 60.7509 46.3697 60.7832C46.515 60.8074 46.7288 60.8356 47.0113 60.8679C47.334 60.9082 47.6044 60.9486 47.8222 60.9889C48.0401 61.0293 48.2661 61.0938 48.5001 61.1826C48.7341 61.2714 48.9197 61.3763 49.0569 61.4973C49.2021 61.6184 49.3191 61.7798 49.4079 61.9815C49.4967 62.1752 49.5411 62.4052 49.5411 62.6714C49.5411 63.2363 49.303 63.6882 48.8269 64.0271C48.3589 64.3661 47.7738 64.5355 47.0718 64.5355C46.2567 64.5355 45.5991 64.3499 45.0988 63.9787C44.6065 63.6075 44.3564 63.0911 44.3483 62.4294ZM50.4855 60.42L50.4855 60.0327C50.4855 58.8223 50.7841 57.8337 51.3812 57.0671C51.9784 56.3005 52.753 55.9172 53.7052 55.9172C54.6494 55.9172 55.42 56.3005 56.0172 57.0671C56.6143 57.8337 56.9129 58.8223 56.9129 60.0327L56.9129 60.42C56.9129 61.6708 56.6184 62.6714 56.0293 63.4219C55.4402 64.1643 54.6655 64.5355 53.7052 64.5355C52.745 64.5355 51.9662 64.1643 51.3691 63.4219C50.78 62.6714 50.4855 61.6708 50.4855 60.42ZM55.884 60.3837L55.884 60.069C55.884 59.0765 55.6863 58.2937 55.2909 57.7208C54.8955 57.1398 54.3669 56.8493 53.7052 56.8493C53.0435 56.8493 52.5109 57.1398 52.1075 57.7208C51.7121 58.2937 51.5144 59.0765 51.5144 60.069L51.5144 60.3837C51.5144 61.3763 51.7121 62.1631 52.1075 62.7441C52.5109 63.317 53.0435 63.6035 53.7052 63.6035C54.3669 63.6035 54.8955 63.317 55.2909 62.7441C55.6863 62.1631 55.884 61.3763 55.884 60.3837ZM61.1396 58.217C61.89 58.217 62.4912 58.443 62.9431 58.8949C63.4031 59.3468 63.6331 60.0569 63.6331 61.0253L63.6331 64.4629L62.6405 64.4629L62.6405 61.0858C62.6405 60.4483 62.4953 59.9641 62.2048 59.6333C61.9223 59.2943 61.5108 59.1249 60.9701 59.1249C60.3891 59.1249 59.9332 59.3266 59.6023 59.7301C59.2715 60.1336 59.106 60.6823 59.106 61.3763L59.106 64.4629L58.1135 64.4629L58.1135 58.2897L58.9729 58.2897L59.106 59.1249C59.5741 58.5197 60.2519 58.217 61.1396 58.217Z"/><path fill="#fff" d="M28.1796 292.925V295.667H21.4352C19.4703 295.667 17.7547 294.564 16.8368 292.925C16.7033 292.687 16.5865 292.437 16.4886 292.177C16.2962 291.669 16.1753 291.123 16.1387 290.554V289.813C16.1466 289.686 16.1592 289.56 16.1756 289.435C16.2091 289.18 16.2598 288.93 16.3264 288.688C16.9564 286.386 19.0051 284.7 21.4352 284.7C23.8654 284.7 25.9138 286.386 26.5438 288.688H23.66C23.1866 287.937 22.3671 287.441 21.4352 287.441C20.5033 287.441 19.6839 287.937 19.2104 288.688C19.0661 288.916 18.9542 289.167 18.8808 289.435C18.8157 289.673 18.7809 289.924 18.7809 290.183C18.7809 290.969 19.1009 291.677 19.6139 292.177C20.0893 292.641 20.7301 292.925 21.4352 292.925H28.1796Z"/><path fill="#fff" d="M28.1808 289.435V292.177H23.2578C23.7708 291.677 24.0908 290.969 24.0908 290.183C24.0908 289.924 24.056 289.673 23.9909 289.435H28.1808Z"/><g clip-path="url(#clip2_2060_26185)"><path fill="#fff" d="M54.6582 296.724V295.322H62.0927V296.724H54.6582Z"/><path fill="#fff" d="M52.5643 294.927C51.1729 294.927 50.2589 294.301 50.2589 292.789V289.208H49.0176V287.792H50.3544V285.791H51.8822V287.792H53.9011V289.208H51.8822V292.776C51.8822 293.279 52.0869 293.497 52.5779 293.497H53.8193V294.927H52.5643Z"/><path fill="#fff" d="M47.1106 286.69C46.524 286.69 46.0875 286.254 46.0875 285.682C46.0875 285.124 46.524 284.688 47.1106 284.688C47.6971 284.688 48.1337 285.124 48.1337 285.682C48.1337 286.254 47.6971 286.69 47.1106 286.69ZM46.2921 294.927V289.209H45.0371V287.792H47.9018V294.927H46.2921Z"/><path fill="#fff" d="M37.8672 294.927V287.792H39.4769V288.609H39.5996C39.9134 288.064 40.5682 287.615 41.523 287.615C43.0918 287.615 44.0876 288.786 44.0876 290.256V294.927H42.4779V290.638C42.4779 289.752 41.8504 289.14 41.032 289.14C40.1453 289.14 39.4769 289.821 39.4769 290.719V294.927H37.8672Z"/><path fill="#fff" d="M35.4133 286.69C34.8267 286.69 34.3902 286.254 34.3902 285.682C34.3902 285.124 34.8267 284.688 35.4133 284.688C35.9999 284.688 36.4364 285.124 36.4364 285.682C36.4364 286.254 35.9999 286.69 35.4133 286.69ZM34.5948 294.927V289.209H33.3398V287.792H36.2045V294.927H34.5948Z"/></g><path fill="#fff" d="M17.3178 307.793L16.7035 307.793L16.7035 302.85L19.7397 302.85L19.7397 303.415L17.3178 303.415L17.3178 305.067L19.3655 305.067L19.3655 305.632L17.3178 305.632L17.3178 307.793ZM23.6517 307.793L20.5167 307.793L20.5167 302.85L23.5599 302.85L23.5599 303.415L21.131 303.415L21.131 304.997L23.1716 304.997L23.1716 305.562L21.131 305.562L21.131 307.228L23.6517 307.228L23.6517 307.793ZM26.1756 307.793L24.5022 307.793L24.5022 302.85L26.1262 302.85C27.1924 302.85 27.7502 303.359 27.7502 304.157C27.7502 304.714 27.4325 305.067 26.9523 305.23C27.489 305.329 27.962 305.668 27.962 306.381C27.962 307.256 27.3689 307.793 26.1756 307.793ZM25.1165 303.408L25.1165 304.997L26.1545 304.997C26.8041 304.997 27.1359 304.7 27.1359 304.199C27.1359 303.705 26.8111 303.408 26.1545 303.408L25.1165 303.408ZM25.1165 305.548L25.1165 307.235L26.1756 307.235C26.9594 307.235 27.3336 306.917 27.3336 306.409C27.3336 305.851 26.9241 305.548 26.1756 305.548L25.1165 305.548ZM34.4208 307.793L31.1093 307.793L31.1093 307.292L32.9733 305.625C33.4252 305.223 33.7783 304.842 33.7783 304.312C33.7783 303.691 33.3687 303.338 32.7474 303.338C32.1401 303.338 31.7306 303.761 31.7306 304.439L31.7306 304.531L31.1375 304.531L31.1375 304.404C31.1375 303.472 31.773 302.808 32.7474 302.808C33.7783 302.808 34.3855 303.394 34.3855 304.284C34.3855 305.018 33.9265 305.491 33.3546 305.992L31.9283 307.249L34.4208 307.249L34.4208 307.793ZM37.03 307.835C36.3592 307.835 35.8649 307.518 35.5754 307.016C35.3424 306.614 35.1941 306.021 35.1941 305.343C35.1941 303.789 35.879 302.808 37.0229 302.808C37.8984 302.808 38.4916 303.345 38.6116 304.171L38.0185 304.171C37.9055 303.669 37.5666 303.331 36.9947 303.331C36.1685 303.331 35.7449 304.185 35.7449 305.159C35.7449 305.308 35.7378 305.279 35.7449 305.399C35.7449 305.385 35.7661 305.315 35.7872 305.265C35.9708 304.849 36.458 304.524 37.0864 304.524C38.0326 304.524 38.6963 305.166 38.6963 306.176C38.6963 307.129 38.0185 307.835 37.03 307.835ZM37.0229 307.313C37.6725 307.313 38.1032 306.84 38.1032 306.176C38.1032 305.519 37.6937 305.046 37.0441 305.046C36.3874 305.046 35.9355 305.512 35.9355 306.19C35.9355 306.854 36.3733 307.313 37.0229 307.313ZM44.3037 306.028L41.9524 306.028L41.9524 305.541L44.3037 305.541L44.3037 306.028ZM48.3044 307.793L47.7465 307.793L47.7465 302.85L48.4668 302.85L49.6812 305.689L50.8816 302.85L51.5806 302.85L51.5806 307.793L51.0228 307.793L51.0228 303.832L49.9142 306.423L49.42 306.423L48.3044 303.832L48.3044 307.793ZM52.9301 307.793L52.3017 307.793L54.0528 302.85L54.8083 302.85L56.5665 307.793L55.9098 307.793L55.4367 306.458L53.4102 306.458L52.9301 307.793ZM54.4129 303.521L53.5868 305.901L55.2531 305.901L54.4129 303.521ZM57.904 307.793L57.2897 307.793L57.2897 302.85L59.055 302.85C60.0576 302.85 60.7284 303.443 60.7284 304.368C60.7284 305.06 60.2977 305.597 59.6481 305.774L60.7778 307.793L60.0859 307.793L59.0197 305.894L57.904 305.894L57.904 307.793ZM57.904 303.415L57.904 305.329L59.0055 305.329C59.6693 305.329 60.1 304.947 60.1 304.368C60.1 303.789 59.6693 303.415 59.0126 303.415L57.904 303.415ZM65.7614 302.85L65.7614 307.242L67.0111 307.242L67.0111 307.793L63.8761 307.793L63.8761 307.242L65.1753 307.242L65.1753 304.326C65.1047 304.376 65.02 304.397 64.9141 304.397L63.8902 304.397L63.8902 303.867L64.8505 303.867C65.0694 303.867 65.1824 303.684 65.1824 303.443L65.1824 302.85L65.7614 302.85Z" opacity=".64"/><path fill="#fff" d="M184.153 307.793L183.673 307.793L183.857 306.607L183.179 306.607L183.179 306.12L183.928 306.12L184.062 305.188L183.334 305.188L183.334 304.7L184.132 304.7L184.316 303.514L184.796 303.514L184.612 304.7L185.58 304.7L185.763 303.514L186.243 303.514L186.06 304.7L186.738 304.7L186.738 305.188L185.989 305.188L185.855 306.12L186.582 306.12L186.582 306.607L185.785 306.607L185.601 307.793L185.121 307.793L185.304 306.607L184.337 306.607L184.153 307.793ZM184.542 305.188L184.408 306.12L185.375 306.12L185.509 305.188L184.542 305.188ZM189.25 302.808C190.33 302.808 191.001 303.705 191.001 305.209L191.001 305.435C191.001 306.939 190.33 307.835 189.25 307.835C188.169 307.835 187.499 306.939 187.499 305.435L187.499 305.209C187.499 303.705 188.169 302.808 189.25 302.808ZM188.085 305.23L188.085 305.413C188.085 305.689 188.106 305.936 188.148 306.148L190.161 303.931C189.963 303.542 189.652 303.338 189.25 303.338C188.515 303.338 188.085 304.03 188.085 305.23ZM190.415 305.413L190.415 305.23C190.415 304.954 190.394 304.707 190.351 304.488L188.339 306.72C188.544 307.094 188.854 307.299 189.25 307.299C189.984 307.299 190.415 306.614 190.415 305.413ZM193.642 302.808C194.722 302.808 195.393 303.705 195.393 305.209L195.393 305.435C195.393 306.939 194.722 307.835 193.642 307.835C192.562 307.835 191.891 306.939 191.891 305.435L191.891 305.209C191.891 303.705 192.562 302.808 193.642 302.808ZM192.477 305.23L192.477 305.413C192.477 305.689 192.498 305.936 192.541 306.148L194.553 303.931C194.355 303.542 194.044 303.338 193.642 303.338C192.908 303.338 192.477 304.03 192.477 305.23ZM194.807 305.413L194.807 305.23C194.807 304.954 194.786 304.707 194.744 304.488L192.731 306.72C192.936 307.094 193.247 307.299 193.642 307.299C194.376 307.299 194.807 306.614 194.807 305.413ZM198.048 302.85L198.048 307.242L199.298 307.242L199.298 307.793L196.163 307.793L196.163 307.242L197.462 307.242L197.462 304.326C197.392 304.376 197.307 304.397 197.201 304.397L196.177 304.397L196.177 303.867L197.138 303.867C197.357 303.867 197.469 303.684 197.469 303.443L197.469 302.85L198.048 302.85ZM202.372 305.223C202.803 305.308 203.234 305.668 203.234 306.423C203.234 307.263 202.591 307.835 201.546 307.835C200.508 307.835 199.866 307.249 199.866 306.268L200.452 306.268C200.459 306.917 200.911 307.306 201.582 307.306C202.196 307.306 202.627 306.946 202.627 306.381C202.627 305.865 202.295 305.541 201.56 305.541L201.13 305.541L201.13 305.011L201.497 305.011C202.196 305.011 202.535 304.651 202.535 304.15C202.535 303.648 202.111 303.338 201.546 303.338C200.974 303.338 200.53 303.712 200.523 304.277L199.936 304.277C199.951 303.373 200.628 302.808 201.539 302.808C202.528 302.808 203.142 303.338 203.142 304.128C203.142 304.736 202.817 305.096 202.372 305.223ZM206.503 305.223C206.934 305.308 207.364 305.668 207.364 306.423C207.364 307.263 206.722 307.835 205.677 307.835C204.639 307.835 203.996 307.249 203.996 306.268L204.582 306.268C204.589 306.917 205.041 307.306 205.712 307.306C206.326 307.306 206.757 306.946 206.757 306.381C206.757 305.865 206.425 305.541 205.691 305.541L205.26 305.541L205.26 305.011L205.627 305.011C206.326 305.011 206.665 304.651 206.665 304.15C206.665 303.648 206.242 303.338 205.677 303.338C205.105 303.338 204.66 303.712 204.653 304.277L204.067 304.277C204.081 303.373 204.759 302.808 205.67 302.808C206.658 302.808 207.272 303.338 207.272 304.128C207.272 304.736 206.948 305.096 206.503 305.223ZM208.961 307.793L208.319 307.793L210.585 303.394L207.916 303.394L207.916 302.85L211.306 302.85L211.306 303.267L208.961 307.793ZM213.77 302.85L213.77 307.242L215.02 307.242L215.02 307.793L211.885 307.793L211.885 307.242L213.184 307.242L213.184 304.326C213.113 304.376 213.029 304.397 212.923 304.397L211.899 304.397L211.899 303.867L212.859 303.867C213.078 303.867 213.191 303.684 213.191 303.443L213.191 302.85L213.77 302.85Z" opacity=".64"/><g filter="url(#filter1_b_2060_26185)"><rect width="231.496" height="324.296" x=".252" y=".454" stroke="url(#paint7_linear_2060_26185)" stroke-opacity=".64" stroke-width=".504" rx="7.817"/></g><g filter="url(#filter2_f_2060_26185)"><path fill="url(#paint8_linear_2060_26185)" d="M289.46 124.453L35.3991 402.561C27.9605 410.704 28.0895 423.214 35.6944 431.202C44.1055 440.036 58.2488 439.868 66.4479 430.837L319.642 151.938C327.88 142.864 326.319 128.625 316.31 121.551C307.908 115.613 296.399 116.857 289.46 124.453Z"/></g><g filter="url(#filter3_f_2060_26185)"><path fill="url(#paint9_linear_2060_26185)" d="M316.19 -15.7562L62.1296 262.352C54.6909 270.495 54.8199 283.005 62.4249 290.993C70.836 299.827 84.9792 299.659 93.1783 290.628L346.372 11.7294C354.61 2.65457 353.049 -11.5836 343.04 -18.6578C334.638 -24.5961 323.13 -23.3525 316.19 -15.7562Z"/></g><g filter="url(#filter4_f_2060_26185)"><path fill="url(#paint10_linear_2060_26185)" d="M218.851 -38.4515L-35.2102 239.657C-42.6489 247.8 -42.5199 260.31 -34.915 268.297C-26.5039 277.132 -12.3606 276.964 -4.16152 267.933L249.032 -10.9659C257.271 -20.0407 255.71 -34.2789 245.7 -41.3531C237.298 -47.2914 225.79 -46.0478 218.851 -38.4515Z"/></g><g filter="url(#filter5_f_2060_26185)"><path fill="url(#paint11_linear_2060_26185)" d="M110.921 -52.069L-143.14 226.04C-150.579 234.182 -150.45 246.692 -142.845 254.68C-134.434 263.514 -120.29 263.347 -112.091 254.315L141.102 -24.5833C149.341 -33.6582 147.78 -47.8964 137.771 -54.9705C129.369 -60.9089 117.86 -59.6652 110.921 -52.069Z"/></g></g></g></g><defs><filter id="filter0_d_2060_26185" width="326.817" height="419.617" x="-47.409" y="-45.19" color-interpolation-filters="sRGB" filterUnits="userSpaceOnUse"><feFlood flood-opacity="0" result="BackgroundImageFix"/><feColorMatrix in="SourceAlpha" result="hardAlpha" type="matrix" values="0 0 0 0 0 0 0 0 0 0 0 0 0 0 0 0 0 0 127 0"/><feOffset dy="2.017"/><feGaussianBlur stdDeviation="23.704"/><feComposite in2="hardAlpha" operator="out"/><feColorMatrix type="matrix" values="0 0 0 0 0 0 0 0 0 0 0 0 0 0 0 0 0 0 0.16 0"/><feBlend in2="BackgroundImageFix" mode="normal" result="effect1_dropShadow_2060_26185"/><feBlend in="SourceGraphic" in2="effect1_dropShadow_2060_26185" mode="normal" result="shape"/></filter><filter id="filter1_b_2060_26185" width="248.139" height="340.939" x="-8.07" y="-7.868" color-interpolation-filters="sRGB" filterUnits="userSpaceOnUse"><feFlood flood-opacity="0" result="BackgroundImageFix"/><feGaussianBlur in="BackgroundImageFix" stdDeviation="4.035"/><feComposite in2="SourceAlpha" operator="in" result="effect1_backgroundBlur_2060_26185"/><feBlend in="SourceGraphic" in2="effect1_backgroundBlur_2060_26185" mode="normal" result="shape"/></filter><filter id="filter2_f_2060_26185" width="365.646" height="390.521" x="-5.4" y="82.504" color-interpolation-filters="sRGB" filterUnits="userSpaceOnUse"><feFlood flood-opacity="0" result="BackgroundImageFix"/><feBlend in="SourceGraphic" in2="BackgroundImageFix" mode="normal" result="shape"/><feGaussianBlur result="effect1_foregroundBlur_2060_26185" stdDeviation="17.652"/></filter><filter id="filter3_f_2060_26185" width="365.646" height="390.521" x="21.33" y="-57.705" color-interpolation-filters="sRGB" filterUnits="userSpaceOnUse"><feFlood flood-opacity="0" result="BackgroundImageFix"/><feBlend in="SourceGraphic" in2="BackgroundImageFix" mode="normal" result="shape"/><feGaussianBlur result="effect1_foregroundBlur_2060_26185" stdDeviation="17.652"/></filter><filter id="filter4_f_2060_26185" width="365.646" height="390.521" x="-76.009" y="-80.4" color-interpolation-filters="sRGB" filterUnits="userSpaceOnUse"><feFlood flood-opacity="0" result="BackgroundImageFix"/><feBlend in="SourceGraphic" in2="BackgroundImageFix" mode="normal" result="shape"/><feGaussianBlur result="effect1_foregroundBlur_2060_26185" stdDeviation="17.652"/></filter><filter id="filter5_f_2060_26185" width="365.646" height="390.521" x="-183.939" y="-94.018" color-interpolation-filters="sRGB" filterUnits="userSpaceOnUse"><feFlood flood-opacity="0" result="BackgroundImageFix"/><feBlend in="SourceGraphic" in2="BackgroundImageFix" mode="normal" result="shape"/><feGaussianBlur result="effect1_foregroundBlur_2060_26185" stdDeviation="17.652"/></filter><linearGradient id="paint0_linear_2060_26185" x1="223.426" x2="-27.991" y1="7.263" y2="370.645" gradientUnits="userSpaceOnUse"><stop stop-color="#fff" stop-opacity=".48"/><stop offset="1" stop-opacity="0"/></linearGradient><linearGradient id="paint1_linear_2060_26185" x1="211.826" x2="211.826" y1=".202" y2="325.002" gradientUnits="userSpaceOnUse"><stop stop-color="#D9D9D9"/><stop offset=".199" stop-color="#D9D9D9" stop-opacity=".4"/><stop offset=".392" stop-color="#D9D9D9"/><stop offset=".58" stop-color="#D9D9D9" stop-opacity=".4"/><stop offset=".754" stop-color="#D9D9D9"/><stop offset=".964" stop-color="#D9D9D9" stop-opacity=".4"/></linearGradient><linearGradient id="paint2_linear_2060_26185" x1="3.32" x2="40.348" y1="146.546" y2="146.546" gradientUnits="userSpaceOnUse"><stop stop-color="#222224"/><stop offset="1" stop-color="#222224" stop-opacity="0"/></linearGradient><linearGradient id="paint3_linear_2060_26185" x1="223.426" x2="-27.991" y1="7.263" y2="370.645" gradientUnits="userSpaceOnUse"><stop stop-color="#fff" stop-opacity=".48"/><stop offset="1" stop-opacity="0"/></linearGradient><linearGradient id="paint4_linear_2060_26185" x1="184.347" x2="184.347" y1="-87.05" y2="356.721" gradientUnits="userSpaceOnUse"><stop stop-color="#F1C6DD"/><stop offset=".139" stop-color="#C1A4E8"/><stop offset=".239" stop-color="#B8E2FB"/><stop offset=".375" stop-color="#F2EFE8"/><stop offset=".478" stop-color="#F9DCDD"/><stop offset=".558" stop-color="#E1C1E5"/><stop offset=".624" stop-color="#BDAFE3"/><stop offset=".72" stop-color="#C7EDEB"/><stop offset=".83" stop-color="#E7F5EB"/><stop offset=".913" stop-color="#F2F0E7"/><stop offset="1" stop-color="#DDC1E1"/></linearGradient><linearGradient id="paint5_linear_2060_26185" x1="184.347" x2="184.347" y1="-87.05" y2="356.721" gradientUnits="userSpaceOnUse"><stop stop-color="#F1C6DD"/><stop offset=".139" stop-color="#C1A4E8"/><stop offset=".239" stop-color="#B8E2FB"/><stop offset=".375" stop-color="#F2EFE8"/><stop offset=".478" stop-color="#F9DCDD"/><stop offset=".558" stop-color="#E1C1E5"/><stop offset=".624" stop-color="#BDAFE3"/><stop offset=".72" stop-color="#C7EDEB"/><stop offset=".83" stop-color="#E7F5EB"/><stop offset=".913" stop-color="#F2F0E7"/><stop offset="1" stop-color="#DDC1E1"/></linearGradient><linearGradient id="paint6_linear_2060_26185" x1="85.165" x2="-17.991" y1="191.618" y2="368.826" gradientUnits="userSpaceOnUse"><stop stop-color="#fff" stop-opacity=".32"/><stop offset=".29" stop-color="#fff" stop-opacity=".08"/><stop offset="1" stop-color="#fff" stop-opacity="0"/></linearGradient><linearGradient id="paint7_linear_2060_26185" x1="245.617" x2="64.304" y1="7.515" y2="170.923" gradientUnits="userSpaceOnUse"><stop stop-color="#fff" stop-opacity=".44"/><stop offset="1" stop-color="#fff" stop-opacity="0"/></linearGradient><linearGradient id="paint8_linear_2060_26185" x1="224.455" x2="41.377" y1="166.503" y2="417.306" gradientUnits="userSpaceOnUse"><stop stop-color="#fff" stop-opacity=".16"/><stop offset="1" stop-color="#fff" stop-opacity="0"/></linearGradient><linearGradient id="paint9_linear_2060_26185" x1="251.185" x2="68.107" y1="26.294" y2="277.097" gradientUnits="userSpaceOnUse"><stop stop-color="#fff" stop-opacity=".16"/><stop offset="1" stop-color="#fff" stop-opacity="0"/></linearGradient><linearGradient id="paint10_linear_2060_26185" x1="153.845" x2="-29.233" y1="3.599" y2="254.402" gradientUnits="userSpaceOnUse"><stop stop-color="#fff" stop-opacity=".16"/><stop offset="1" stop-color="#fff" stop-opacity="0"/></linearGradient><linearGradient id="paint11_linear_2060_26185" x1="45.916" x2="-137.162" y1="-10.018" y2="240.785" gradientUnits="userSpaceOnUse"><stop stop-color="#fff" stop-opacity=".16"/><stop offset="1" stop-color="#fff" stop-opacity="0"/></linearGradient><clipPath id="clip0_2060_26185"><rect width="232" height="324" y=".602" fill="#fff" rx="8"/></clipPath><clipPath id="clip1_2060_26185"><rect width="232" height="324.8" y=".202" fill="#fff" rx="8.07"/></clipPath><clipPath id="clip2_2060_26185"><rect width="28.748" height="12.104" fill="#fff" transform="translate(33.2871 284.654)"/></clipPath></defs></svg>