<svg xmlns="http://www.w3.org/2000/svg" width="232" height="325" fill="none" viewBox="0 0 232 325"><g clip-path="url(#clip0_2060_26186)"><g filter="url(#filter0_b_2060_26186)"><mask id="path-2-inside-1_2060_26186" fill="#fff"><path fill-rule="evenodd" d="M0.87953 5.00762C0 6.7338 0 8.99349 0 13.5129V311.69C0 316.21 0 318.469 0.87953 320.195C1.65319 321.714 2.88767 322.948 4.40606 323.722C6.13223 324.602 8.39192 324.602 12.9113 324.602H219.089C223.608 324.602 225.868 324.602 227.594 323.722C229.112 322.948 230.347 321.714 231.12 320.195C232 318.469 232 316.21 232 311.69V13.5129C232 8.99349 232 6.7338 231.12 5.00762C230.347 3.48924 229.112 2.25475 227.594 1.48109C225.868 0.601562 223.608 0.601562 219.089 0.601562H12.9113C8.39192 0.601562 6.13223 0.601562 4.40606 1.48109C2.88767 2.25475 1.65319 3.48924 0.87953 5.00762ZM97.8435 8.67113C96.7293 8.67113 95.8261 9.57434 95.8261 10.6885C95.8261 11.8027 96.7293 12.7059 97.8435 12.7059H134.157C135.271 12.7059 136.174 11.8027 136.174 10.6885C136.174 9.57434 135.271 8.67113 134.157 8.67113H97.8435Z" clip-rule="evenodd"/></mask><path fill="#17171A" fill-rule="evenodd" d="M0.87953 5.00762C0 6.7338 0 8.99349 0 13.5129V311.69C0 316.21 0 318.469 0.87953 320.195C1.65319 321.714 2.88767 322.948 4.40606 323.722C6.13223 324.602 8.39192 324.602 12.9113 324.602H219.089C223.608 324.602 225.868 324.602 227.594 323.722C229.112 322.948 230.347 321.714 231.12 320.195C232 318.469 232 316.21 232 311.69V13.5129C232 8.99349 232 6.7338 231.12 5.00762C230.347 3.48924 229.112 2.25475 227.594 1.48109C225.868 0.601562 223.608 0.601562 219.089 0.601562H12.9113C8.39192 0.601562 6.13223 0.601562 4.40606 1.48109C2.88767 2.25475 1.65319 3.48924 0.87953 5.00762ZM97.8435 8.67113C96.7293 8.67113 95.8261 9.57434 95.8261 10.6885C95.8261 11.8027 96.7293 12.7059 97.8435 12.7059H134.157C135.271 12.7059 136.174 11.8027 136.174 10.6885C136.174 9.57434 135.271 8.67113 134.157 8.67113H97.8435Z" clip-rule="evenodd"/><path fill="url(#paint0_linear_2060_26186)" fill-opacity=".8" fill-rule="evenodd" d="M0.87953 5.00762C0 6.7338 0 8.99349 0 13.5129V311.69C0 316.21 0 318.469 0.87953 320.195C1.65319 321.714 2.88767 322.948 4.40606 323.722C6.13223 324.602 8.39192 324.602 12.9113 324.602H219.089C223.608 324.602 225.868 324.602 227.594 323.722C229.112 322.948 230.347 321.714 231.12 320.195C232 318.469 232 316.21 232 311.69V13.5129C232 8.99349 232 6.7338 231.12 5.00762C230.347 3.48924 229.112 2.25475 227.594 1.48109C225.868 0.601562 223.608 0.601562 219.089 0.601562H12.9113C8.39192 0.601562 6.13223 0.601562 4.40606 1.48109C2.88767 2.25475 1.65319 3.48924 0.87953 5.00762ZM97.8435 8.67113C96.7293 8.67113 95.8261 9.57434 95.8261 10.6885C95.8261 11.8027 96.7293 12.7059 97.8435 12.7059H134.157C135.271 12.7059 136.174 11.8027 136.174 10.6885C136.174 9.57434 135.271 8.67113 134.157 8.67113H97.8435Z" clip-rule="evenodd"/><path fill="url(#paint1_linear_2060_26186)" fill-opacity=".32" d="M0.87953 5.00762L0.430153 4.77865L0.430153 4.77865L0.87953 5.00762ZM0.87953 320.195L1.32891 319.967L1.32891 319.967L0.87953 320.195ZM4.40606 323.722L4.17708 324.171L4.17709 324.171L4.40606 323.722ZM227.594 323.722L227.823 324.171L227.823 324.171L227.594 323.722ZM231.12 320.195L230.671 319.967L230.671 319.967L231.12 320.195ZM231.12 5.00762L230.671 5.23659L230.671 5.23659L231.12 5.00762ZM227.594 1.48109L227.823 1.03172L227.823 1.03171L227.594 1.48109ZM4.40606 1.48109L4.17709 1.03172L4.17709 1.03172L4.40606 1.48109ZM0.504348 13.5129C0.504348 11.2449 0.50474 9.57418 0.612614 8.25387C0.720007 6.93944 0.931407 6.01673 1.32891 5.23659L0.430153 4.77865C-0.0518769 5.72469 -0.280242 6.79492 -0.392732 8.17173C-0.50474 9.54265 -0.504348 11.2615 -0.504348 13.5129H0.504348ZM0.504348 311.69V13.5129H-0.504348V311.69H0.504348ZM1.32891 319.967C0.931407 319.186 0.720007 318.264 0.612614 316.949C0.50474 315.629 0.504348 313.958 0.504348 311.69H-0.504348C-0.504348 313.942 -0.50474 315.66 -0.392732 317.031C-0.280242 318.408 -0.0518769 319.478 0.430153 320.424L1.32891 319.967ZM4.63503 323.273C3.21154 322.547 2.05421 321.39 1.32891 319.967L0.430152 320.424C1.25216 322.038 2.56381 323.349 4.17708 324.171L4.63503 323.273ZM12.9113 324.097C10.6433 324.097 8.97261 324.097 7.6523 323.989C6.33787 323.882 5.41516 323.67 4.63503 323.273L4.17709 324.171C5.12313 324.653 6.19335 324.882 7.57016 324.994C8.94107 325.106 10.6599 325.106 12.9113 325.106V324.097ZM219.089 324.097H12.9113V325.106H219.089V324.097ZM227.365 323.273C226.585 323.67 225.662 323.882 224.348 323.989C223.027 324.097 221.357 324.097 219.089 324.097V325.106C221.34 325.106 223.059 325.106 224.43 324.994C225.807 324.882 226.877 324.653 227.823 324.171L227.365 323.273ZM230.671 319.967C229.946 321.39 228.788 322.547 227.365 323.273L227.823 324.171C229.436 323.349 230.748 322.038 231.57 320.424L230.671 319.967ZM231.496 311.69C231.496 313.958 231.495 315.629 231.387 316.949C231.28 318.264 231.069 319.186 230.671 319.967L231.57 320.424C232.052 319.478 232.28 318.408 232.393 317.031C232.505 315.66 232.504 313.942 232.504 311.69H231.496ZM231.496 13.5129V311.69H232.504V13.5129H231.496ZM230.671 5.23659C231.069 6.01673 231.28 6.93943 231.387 8.25386C231.495 9.57418 231.496 11.2449 231.496 13.5129H232.504C232.504 11.2615 232.505 9.54264 232.393 8.17172C232.28 6.79492 232.052 5.72469 231.57 4.77865L230.671 5.23659ZM227.365 1.93047C228.788 2.65577 229.946 3.8131 230.671 5.23659L231.57 4.77865C230.748 3.16537 229.436 1.85373 227.823 1.03172L227.365 1.93047ZM219.089 1.10591C221.357 1.10591 223.027 1.1063 224.348 1.21418C225.662 1.32157 226.585 1.53297 227.365 1.93047L227.823 1.03171C226.877 0.549686 225.807 0.32132 224.43 0.208831C223.059 0.0968225 221.34 0.0972147 219.089 0.0972147V1.10591ZM12.9113 1.10591H219.089V0.0972147H12.9113V1.10591ZM4.63503 1.93047C5.41517 1.53297 6.33787 1.32157 7.6523 1.21418C8.97261 1.1063 10.6433 1.10591 12.9113 1.10591V0.0972147C10.6599 0.0972147 8.94108 0.0968225 7.57016 0.208831C6.19335 0.32132 5.12313 0.549686 4.17709 1.03172L4.63503 1.93047ZM1.32891 5.23659C2.05421 3.8131 3.21154 2.65577 4.63503 1.93047L4.17709 1.03172C2.5638 1.85373 1.25216 3.16537 0.430153 4.77865L1.32891 5.23659ZM96.3304 10.6885C96.3304 9.85289 97.0078 9.17548 97.8435 9.17548V8.16678C96.4508 8.16678 95.3217 9.2958 95.3217 10.6885H96.3304ZM97.8435 12.2016C97.0078 12.2016 96.3304 11.5241 96.3304 10.6885H95.3217C95.3217 12.0812 96.4508 13.2103 97.8435 13.2103V12.2016ZM134.157 12.2016H97.8435V13.2103H134.157V12.2016ZM135.67 10.6885C135.67 11.5241 134.992 12.2016 134.157 12.2016V13.2103C135.549 13.2103 136.678 12.0812 136.678 10.6885H135.67ZM134.157 9.17548C134.992 9.17548 135.67 9.85289 135.67 10.6885H136.678C136.678 9.2958 135.549 8.16678 134.157 8.16678V9.17548ZM97.8435 9.17548H134.157V8.16678H97.8435V9.17548Z" mask="url(#path-2-inside-1_2060_26186)"/></g><g filter="url(#filter1_f_2060_26186)"><path fill="url(#paint2_linear_2060_26186)" fill-opacity=".08" d="M157.356 12.601L-35.5495 239.189C-48.9242 254.899 -48.4158 278.134 -34.3666 293.244C-18.2371 310.592 9.24589 310.538 25.3077 293.128L227.091 74.4092C245.877 54.0468 242.855 21.8896 220.605 5.38319C200.907 -9.22943 173.255 -6.07377 157.356 12.601Z"/></g><mask id="mask0_2060_26186" width="41" height="326" x="191" y="0" maskUnits="userSpaceOnUse" style="mask-type:alpha"><rect width="40.348" height="324.8" x="191.652" y=".602" fill="url(#paint3_linear_2060_26186)"/></mask><g mask="url(#mask0_2060_26186)"><mask id="mask1_2060_26186" width="41" height="326" x="191" y="0" maskUnits="userSpaceOnUse" style="mask-type:alpha"><rect width="40.348" height="324.8" fill="url(#paint4_linear_2060_26186)" transform="matrix(-1 0 0 1 232 0.601562)"/></mask><g mask="url(#mask1_2060_26186)"><rect width="4.035" height="4.035" x="232" y=".602" fill="#FD366E" opacity=".64" rx="1.009" transform="rotate(90 232 0.601562)"/><rect width="4.035" height="4.035" x="232" y="6.654" fill="#FD366E" opacity=".4" rx="1.009" transform="rotate(90 232 6.65381)"/><rect width="4.035" height="4.035" x="232" y="12.706" fill="#FD366E" opacity=".32" rx="1.009" transform="rotate(90 232 12.7061)"/><rect width="4.035" height="4.035" x="232" y="18.758" fill="#FD366E" opacity=".16" rx="1.009" transform="rotate(90 232 18.7583)"/><rect width="4.035" height="4.035" x="232" y="24.81" fill="#FD366E" opacity=".8" rx="1.009" transform="rotate(90 232 24.8101)"/><rect width="4.035" height="4.035" x="232" y="30.862" fill="#FD366E" opacity=".64" rx="1.009" transform="rotate(90 232 30.8623)"/><rect width="4.035" height="4.035" x="232" y="36.915" fill="#FD366E" opacity=".4" rx="1.009" transform="rotate(90 232 36.9146)"/><rect width="4.035" height="4.035" x="232" y="42.967" fill="#FD366E" opacity=".32" rx="1.009" transform="rotate(90 232 42.9668)"/><rect width="4.035" height="4.035" x="232" y="49.019" fill="#FD366E" opacity=".16" rx="1.009" transform="rotate(90 232 49.019)"/><rect width="4.035" height="4.035" x="232" y="55.071" fill="#FD366E" opacity=".4" rx="1.009" transform="rotate(90 232 55.0713)"/><rect width="4.035" height="4.035" x="232" y="61.123" fill="#FD366E" opacity=".32" rx="1.009" transform="rotate(90 232 61.1235)"/><rect width="4.035" height="4.035" x="232" y="67.175" fill="#FD366E" opacity=".8" rx="1.009" transform="rotate(90 232 67.1753)"/><rect width="4.035" height="4.035" x="232" y="73.228" fill="#FD366E" opacity=".16" rx="1.009" transform="rotate(90 232 73.2275)"/><rect width="4.035" height="4.035" x="232" y="79.28" fill="#FD366E" opacity=".4" rx="1.009" transform="rotate(90 232 79.2798)"/><rect width="4.035" height="4.035" x="232" y="85.332" fill="#FD366E" opacity=".32" rx="1.009" transform="rotate(90 232 85.332)"/><rect width="4.035" height="4.035" x="232" y="91.384" fill="#FD366E" opacity=".32" rx="1.009" transform="rotate(90 232 91.3843)"/><rect width="4.035" height="4.035" x="232" y="97.436" fill="#FD366E" opacity=".32" rx="1.009" transform="rotate(90 232 97.4365)"/><rect width="4.035" height="4.035" x="232" y="103.488" fill="#FD366E" opacity=".64" rx="1.009" transform="rotate(90 232 103.488)"/><rect width="4.035" height="4.035" x="232" y="109.541" fill="#FD366E" opacity=".16" rx="1.009" transform="rotate(90 232 109.541)"/><rect width="4.035" height="4.035" x="232" y="115.593" fill="#FD366E" opacity=".64" rx="1.009" transform="rotate(90 232 115.593)"/><rect width="4.035" height="4.035" x="232" y="121.645" fill="#FD366E" opacity=".4" rx="1.009" transform="rotate(90 232 121.645)"/><rect width="4.035" height="4.035" x="232" y="127.697" fill="#FD366E" opacity=".32" rx="1.009" transform="rotate(90 232 127.697)"/><rect width="4.035" height="4.035" x="232" y="133.75" fill="#FD366E" opacity=".16" rx="1.009" transform="rotate(90 232 133.75)"/><rect width="4.035" height="4.035" x="232" y="139.802" fill="#FD366E" opacity=".8" rx="1.009" transform="rotate(90 232 139.802)"/><rect width="4.035" height="4.035" x="232" y="145.854" fill="#FD366E" opacity=".8" rx="1.009" transform="rotate(90 232 145.854)"/><rect width="4.035" height="4.035" x="232" y="151.906" fill="#FD366E" opacity=".64" rx="1.009" transform="rotate(90 232 151.906)"/><rect width="4.035" height="4.035" x="232" y="157.958" fill="#FD366E" opacity=".4" rx="1.009" transform="rotate(90 232 157.958)"/><rect width="4.035" height="4.035" x="232" y="164.01" fill="#FD366E" opacity=".8" rx="1.009" transform="rotate(90 232 164.01)"/><rect width="4.035" height="4.035" x="232" y="170.062" fill="#FD366E" opacity=".4" rx="1.009" transform="rotate(90 232 170.062)"/><rect width="4.035" height="4.035" x="232" y="176.115" fill="#FD366E" opacity=".16" rx="1.009" transform="rotate(90 232 176.115)"/><rect width="4.035" height="4.035" x="232" y="182.167" fill="#FD366E" opacity=".32" rx="1.009" transform="rotate(90 232 182.167)"/><rect width="4.035" height="4.035" x="232" y="188.219" fill="#FD366E" opacity=".16" rx="1.009" transform="rotate(90 232 188.219)"/><rect width="4.035" height="4.035" x="232" y="194.271" fill="#FD366E" opacity=".64" rx="1.009" transform="rotate(90 232 194.271)"/><rect width="4.035" height="4.035" x="232" y="200.323" fill="#FD366E" opacity=".16" rx="1.009" transform="rotate(90 232 200.323)"/><rect width="4.035" height="4.035" x="232" y="206.375" fill="#FD366E" opacity=".64" rx="1.009" transform="rotate(90 232 206.375)"/><rect width="4.035" height="4.035" x="232" y="212.428" fill="#FD366E" opacity=".32" rx="1.009" transform="rotate(90 232 212.428)"/><rect width="4.035" height="4.035" x="232" y="218.48" fill="#FD366E" opacity=".8" rx="1.009" transform="rotate(90 232 218.48)"/><rect width="4.035" height="4.035" x="232" y="224.532" fill="#FD366E" opacity=".4" rx="1.009" transform="rotate(90 232 224.532)"/><rect width="4.035" height="4.035" x="232" y="230.584" fill="#FD366E" opacity=".32" rx="1.009" transform="rotate(90 232 230.584)"/><rect width="4.035" height="4.035" x="232" y="236.636" fill="#FD366E" opacity=".32" rx="1.009" transform="rotate(90 232 236.636)"/><rect width="4.035" height="4.035" x="232" y="242.688" fill="#FD366E" opacity=".64" rx="1.009" transform="rotate(90 232 242.688)"/><rect width="4.035" height="4.035" x="232" y="248.741" fill="#FD366E" opacity=".4" rx="1.009" transform="rotate(90 232 248.741)"/><rect width="4.035" height="4.035" x="232" y="254.793" fill="#FD366E" opacity=".16" rx="1.009" transform="rotate(90 232 254.793)"/><rect width="4.035" height="4.035" x="232" y="260.845" fill="#FD366E" opacity=".8" rx="1.009" transform="rotate(90 232 260.845)"/><rect width="4.035" height="4.035" x="232" y="266.897" fill="#FD366E" opacity=".8" rx="1.009" transform="rotate(90 232 266.897)"/><rect width="4.035" height="4.035" x="232" y="272.949" fill="#FD366E" opacity=".8" rx="1.009" transform="rotate(90 232 272.949)"/><rect width="4.035" height="4.035" x="232" y="279.001" fill="#FD366E" opacity=".64" rx="1.009" transform="rotate(90 232 279.001)"/><rect width="4.035" height="4.035" x="232" y="285.054" fill="#FD366E" opacity=".4" rx="1.009" transform="rotate(90 232 285.054)"/><rect width="4.035" height="4.035" x="232" y="291.106" fill="#FD366E" opacity=".4" rx="1.009" transform="rotate(90 232 291.106)"/><rect width="4.035" height="4.035" x="232" y="297.158" fill="#FD366E" opacity=".32" rx="1.009" transform="rotate(90 232 297.158)"/><rect width="4.035" height="4.035" x="232" y="303.21" fill="#FD366E" opacity=".16" rx="1.009" transform="rotate(90 232 303.21)"/><rect width="4.035" height="4.035" x="232" y="309.262" fill="#FD366E" opacity=".64" rx="1.009" transform="rotate(90 232 309.262)"/><rect width="4.035" height="4.035" x="232" y="315.314" fill="#FD366E" opacity=".32" rx="1.009" transform="rotate(90 232 315.314)"/><rect width="4.035" height="4.035" x="232" y="321.367" fill="#FD366E" opacity=".16" rx="1.009" transform="rotate(90 232 321.367)"/><rect width="4.035" height="4.035" fill="#FD366E" opacity=".64" rx="1.009" transform="matrix(-4.37114e-08 -1 -1 4.37114e-08 225.947 325.401)"/><rect width="4.035" height="4.035" fill="#FD366E" opacity=".4" rx="1.009" transform="matrix(-4.37114e-08 -1 -1 4.37114e-08 225.947 319.349)"/><rect width="4.035" height="4.035" fill="#FD366E" opacity=".32" rx="1.009" transform="matrix(-4.37114e-08 -1 -1 4.37114e-08 225.947 313.297)"/><rect width="4.035" height="4.035" fill="#FD366E" opacity=".16" rx="1.009" transform="matrix(-4.37114e-08 -1 -1 4.37114e-08 225.947 307.245)"/><rect width="4.035" height="4.035" fill="#FD366E" opacity=".8" rx="1.009" transform="matrix(-4.37114e-08 -1 -1 4.37114e-08 225.947 301.193)"/><rect width="4.035" height="4.035" fill="#FD366E" opacity=".64" rx="1.009" transform="matrix(-4.37114e-08 -1 -1 4.37114e-08 225.947 295.141)"/><rect width="4.035" height="4.035" fill="#FD366E" opacity=".4" rx="1.009" transform="matrix(-4.37114e-08 -1 -1 4.37114e-08 225.947 289.088)"/><rect width="4.035" height="4.035" fill="#FD366E" opacity=".32" rx="1.009" transform="matrix(-4.37114e-08 -1 -1 4.37114e-08 225.947 283.036)"/><rect width="4.035" height="4.035" fill="#FD366E" opacity=".16" rx="1.009" transform="matrix(-4.37114e-08 -1 -1 4.37114e-08 225.947 276.984)"/><rect width="4.035" height="4.035" fill="#FD366E" opacity=".4" rx="1.009" transform="matrix(-4.37114e-08 -1 -1 4.37114e-08 225.947 270.932)"/><rect width="4.035" height="4.035" fill="#FD366E" opacity=".32" rx="1.009" transform="matrix(-4.37114e-08 -1 -1 4.37114e-08 225.947 264.879)"/><rect width="4.035" height="4.035" fill="#FD366E" opacity=".8" rx="1.009" transform="matrix(-4.37114e-08 -1 -1 4.37114e-08 225.947 258.828)"/><rect width="4.035" height="4.035" fill="#FD366E" opacity=".16" rx="1.009" transform="matrix(-4.37114e-08 -1 -1 4.37114e-08 225.947 252.775)"/><rect width="4.035" height="4.035" fill="#FD366E" opacity=".4" rx="1.009" transform="matrix(-4.37114e-08 -1 -1 4.37114e-08 225.947 246.723)"/><rect width="4.035" height="4.035" fill="#FD366E" opacity=".32" rx="1.009" transform="matrix(-4.37114e-08 -1 -1 4.37114e-08 225.947 240.671)"/><rect width="4.035" height="4.035" fill="#FD366E" opacity=".32" rx="1.009" transform="matrix(-4.37114e-08 -1 -1 4.37114e-08 225.947 234.619)"/><rect width="4.035" height="4.035" fill="#FD366E" opacity=".32" rx="1.009" transform="matrix(-4.37114e-08 -1 -1 4.37114e-08 225.947 228.566)"/><rect width="4.035" height="4.035" fill="#FD366E" opacity=".64" rx="1.009" transform="matrix(-4.37114e-08 -1 -1 4.37114e-08 225.947 222.515)"/><rect width="4.035" height="4.035" fill="#FD366E" opacity=".16" rx="1.009" transform="matrix(-4.37114e-08 -1 -1 4.37114e-08 225.947 216.462)"/><rect width="4.035" height="4.035" fill="#FD366E" opacity=".64" rx="1.009" transform="matrix(-4.37114e-08 -1 -1 4.37114e-08 225.947 210.41)"/><rect width="4.035" height="4.035" fill="#FD366E" opacity=".4" rx="1.009" transform="matrix(-4.37114e-08 -1 -1 4.37114e-08 225.947 204.358)"/><rect width="4.035" height="4.035" fill="#FD366E" opacity=".32" rx="1.009" transform="matrix(-4.37114e-08 -1 -1 4.37114e-08 225.947 198.306)"/><rect width="4.035" height="4.035" fill="#FD366E" opacity=".16" rx="1.009" transform="matrix(-4.37114e-08 -1 -1 4.37114e-08 225.947 192.253)"/><rect width="4.035" height="4.035" fill="#FD366E" opacity=".8" rx="1.009" transform="matrix(-4.37114e-08 -1 -1 4.37114e-08 225.947 186.201)"/><rect width="4.035" height="4.035" fill="#FD366E" opacity=".8" rx="1.009" transform="matrix(-4.37114e-08 -1 -1 4.37114e-08 225.947 180.149)"/><rect width="4.035" height="4.035" fill="#FD366E" opacity=".64" rx="1.009" transform="matrix(-4.37114e-08 -1 -1 4.37114e-08 225.947 174.097)"/><rect width="4.035" height="4.035" fill="#FD366E" opacity=".4" rx="1.009" transform="matrix(-4.37114e-08 -1 -1 4.37114e-08 225.947 168.045)"/><rect width="4.035" height="4.035" fill="#FD366E" opacity=".8" rx="1.009" transform="matrix(-4.37114e-08 -1 -1 4.37114e-08 225.947 161.993)"/><rect width="4.035" height="4.035" fill="#FD366E" opacity=".4" rx="1.009" transform="matrix(-4.37114e-08 -1 -1 4.37114e-08 225.947 155.94)"/><rect width="4.035" height="4.035" fill="#FD366E" opacity=".16" rx="1.009" transform="matrix(-4.37114e-08 -1 -1 4.37114e-08 225.947 149.888)"/><rect width="4.035" height="4.035" fill="#FD366E" opacity=".32" rx="1.009" transform="matrix(-4.37114e-08 -1 -1 4.37114e-08 225.947 143.836)"/><rect width="4.035" height="4.035" fill="#FD366E" opacity=".16" rx="1.009" transform="matrix(-4.37114e-08 -1 -1 4.37114e-08 225.947 137.784)"/><rect width="4.035" height="4.035" fill="#FD366E" opacity=".64" rx="1.009" transform="matrix(-4.37114e-08 -1 -1 4.37114e-08 225.947 131.732)"/><rect width="4.035" height="4.035" fill="#FD366E" opacity=".16" rx="1.009" transform="matrix(-4.37114e-08 -1 -1 4.37114e-08 225.947 125.68)"/><rect width="4.035" height="4.035" fill="#FD366E" opacity=".64" rx="1.009" transform="matrix(-4.37114e-08 -1 -1 4.37114e-08 225.947 119.627)"/><rect width="4.035" height="4.035" fill="#FD366E" opacity=".32" rx="1.009" transform="matrix(-4.37114e-08 -1 -1 4.37114e-08 225.947 113.575)"/><rect width="4.035" height="4.035" fill="#FD366E" opacity=".8" rx="1.009" transform="matrix(-4.37114e-08 -1 -1 4.37114e-08 225.947 107.523)"/><rect width="4.035" height="4.035" fill="#FD366E" opacity=".4" rx="1.009" transform="matrix(-4.37114e-08 -1 -1 4.37114e-08 225.947 101.471)"/><rect width="4.035" height="4.035" fill="#FD366E" opacity=".32" rx="1.009" transform="matrix(-4.37114e-08 -1 -1 4.37114e-08 225.947 95.4189)"/><rect width="4.035" height="4.035" fill="#FD366E" opacity=".32" rx="1.009" transform="matrix(-4.37114e-08 -1 -1 4.37114e-08 225.947 89.3667)"/><rect width="4.035" height="4.035" fill="#FD366E" opacity=".64" rx="1.009" transform="matrix(-4.37114e-08 -1 -1 4.37114e-08 225.947 83.3145)"/><rect width="4.035" height="4.035" fill="#FD366E" opacity=".4" rx="1.009" transform="matrix(-4.37114e-08 -1 -1 4.37114e-08 225.947 77.2622)"/><rect width="4.035" height="4.035" fill="#FD366E" opacity=".16" rx="1.009" transform="matrix(-4.37114e-08 -1 -1 4.37114e-08 225.947 71.21)"/><rect width="4.035" height="4.035" fill="#FD366E" opacity=".8" rx="1.009" transform="matrix(-4.37114e-08 -1 -1 4.37114e-08 225.947 65.1582)"/><rect width="4.035" height="4.035" fill="#FD366E" opacity=".8" rx="1.009" transform="matrix(-4.37114e-08 -1 -1 4.37114e-08 225.947 59.106)"/><rect width="4.035" height="4.035" fill="#FD366E" opacity=".8" rx="1.009" transform="matrix(-4.37114e-08 -1 -1 4.37114e-08 225.947 53.0537)"/><rect width="4.035" height="4.035" fill="#FD366E" opacity=".64" rx="1.009" transform="matrix(-4.37114e-08 -1 -1 4.37114e-08 225.947 47.0015)"/><rect width="4.035" height="4.035" fill="#FD366E" opacity=".4" rx="1.009" transform="matrix(-4.37114e-08 -1 -1 4.37114e-08 225.947 40.9492)"/><rect width="4.035" height="4.035" fill="#FD366E" opacity=".4" rx="1.009" transform="matrix(-4.37114e-08 -1 -1 4.37114e-08 225.947 34.897)"/><rect width="4.035" height="4.035" fill="#FD366E" opacity=".32" rx="1.009" transform="matrix(-4.37114e-08 -1 -1 4.37114e-08 225.947 28.8447)"/><rect width="4.035" height="4.035" fill="#FD366E" opacity=".16" rx="1.009" transform="matrix(-4.37114e-08 -1 -1 4.37114e-08 225.947 22.793)"/><rect width="4.035" height="4.035" fill="#FD366E" opacity=".64" rx="1.009" transform="matrix(-4.37114e-08 -1 -1 4.37114e-08 225.947 16.7407)"/><rect width="4.035" height="4.035" fill="#FD366E" opacity=".32" rx="1.009" transform="matrix(-4.37114e-08 -1 -1 4.37114e-08 225.947 10.6885)"/><rect width="4.035" height="4.035" fill="#FD366E" opacity=".16" rx="1.009" transform="matrix(-4.37114e-08 -1 -1 4.37114e-08 225.947 4.63623)"/><rect width="4.035" height="4.035" x="219.896" y=".602" fill="#FD366E" opacity=".4" rx="1.009" transform="rotate(90 219.896 0.601562)"/><rect width="4.035" height="4.035" x="219.896" y="6.654" fill="#FD366E" opacity=".32" rx="1.009" transform="rotate(90 219.896 6.65381)"/><rect width="4.035" height="4.035" x="219.896" y="12.706" fill="#FD366E" opacity=".16" rx="1.009" transform="rotate(90 219.896 12.7061)"/><rect width="4.035" height="4.035" x="219.896" y="18.758" fill="#FD366E" opacity=".8" rx="1.009" transform="rotate(90 219.896 18.7583)"/><rect width="4.035" height="4.035" x="219.896" y="24.81" fill="#FD366E" opacity=".8" rx="1.009" transform="rotate(90 219.896 24.8101)"/><rect width="4.035" height="4.035" x="219.896" y="30.862" fill="#FD366E" opacity=".64" rx="1.009" transform="rotate(90 219.896 30.8623)"/><rect width="4.035" height="4.035" x="219.896" y="36.915" fill="#FD366E" opacity=".32" rx="1.009" transform="rotate(90 219.896 36.9146)"/><rect width="4.035" height="4.035" x="219.896" y="42.967" fill="#FD366E" opacity=".32" rx="1.009" transform="rotate(90 219.896 42.9668)"/><rect width="4.035" height="4.035" x="219.896" y="49.019" fill="#FD366E" opacity=".32" rx="1.009" transform="rotate(90 219.896 49.019)"/><rect width="4.035" height="4.035" x="219.896" y="55.071" fill="#FD366E" opacity=".64" rx="1.009" transform="rotate(90 219.896 55.0713)"/><rect width="4.035" height="4.035" x="219.896" y="61.123" fill="#FD366E" opacity=".16" rx="1.009" transform="rotate(90 219.896 61.1235)"/><rect width="4.035" height="4.035" x="219.896" y="67.175" fill="#FD366E" opacity=".64" rx="1.009" transform="rotate(90 219.896 67.1753)"/><rect width="4.035" height="4.035" x="219.896" y="73.228" fill="#FD366E" opacity=".4" rx="1.009" transform="rotate(90 219.896 73.2275)"/><rect width="4.035" height="4.035" x="219.896" y="79.28" fill="#FD366E" opacity=".4" rx="1.009" transform="rotate(90 219.896 79.2798)"/><rect width="4.035" height="4.035" x="219.896" y="85.332" fill="#FD366E" opacity=".8" rx="1.009" transform="rotate(90 219.896 85.332)"/><rect width="4.035" height="4.035" x="219.896" y="91.384" fill="#FD366E" opacity=".4" rx="1.009" transform="rotate(90 219.896 91.3843)"/><rect width="4.035" height="4.035" x="219.896" y="97.436" fill="#FD366E" opacity=".4" rx="1.009" transform="rotate(90 219.896 97.4365)"/><rect width="4.035" height="4.035" x="219.896" y="103.488" fill="#FD366E" opacity=".16" rx="1.009" transform="rotate(90 219.896 103.488)"/><rect width="4.035" height="4.035" x="219.896" y="109.541" fill="#FD366E" opacity=".8" rx="1.009" transform="rotate(90 219.896 109.541)"/><rect width="4.035" height="4.035" x="219.896" y="115.593" fill="#FD366E" opacity=".8" rx="1.009" transform="rotate(90 219.896 115.593)"/><rect width="4.035" height="4.035" x="219.896" y="121.645" fill="#FD366E" opacity=".8" rx="1.009" transform="rotate(90 219.896 121.645)"/><rect width="4.035" height="4.035" x="219.896" y="127.697" fill="#FD366E" opacity=".64" rx="1.009" transform="rotate(90 219.896 127.697)"/><rect width="4.035" height="4.035" x="219.896" y="133.75" fill="#FD366E" opacity=".4" rx="1.009" transform="rotate(90 219.896 133.75)"/><rect width="4.035" height="4.035" x="219.896" y="139.802" fill="#FD366E" opacity=".4" rx="1.009" transform="rotate(90 219.896 139.802)"/><rect width="4.035" height="4.035" x="219.896" y="145.854" fill="#FD366E" opacity=".32" rx="1.009" transform="rotate(90 219.896 145.854)"/><rect width="4.035" height="4.035" x="219.896" y="151.906" fill="#FD366E" opacity=".16" rx="1.009" transform="rotate(90 219.896 151.906)"/><rect width="4.035" height="4.035" x="219.896" y="157.958" fill="#FD366E" opacity=".64" rx="1.009" transform="rotate(90 219.896 157.958)"/><rect width="4.035" height="4.035" x="219.896" y="164.01" fill="#FD366E" opacity=".32" rx="1.009" transform="rotate(90 219.896 164.01)"/><rect width="4.035" height="4.035" x="219.896" y="170.062" fill="#FD366E" opacity=".16" rx="1.009" transform="rotate(90 219.896 170.062)"/><rect width="4.035" height="4.035" x="219.896" y="176.115" fill="#FD366E" opacity=".16" rx="1.009" transform="rotate(90 219.896 176.115)"/><rect width="4.035" height="4.035" x="219.896" y="182.167" fill="#FD366E" opacity=".64" rx="1.009" transform="rotate(90 219.896 182.167)"/><rect width="4.035" height="4.035" x="219.896" y="188.219" fill="#FD366E" opacity=".4" rx="1.009" transform="rotate(90 219.896 188.219)"/><rect width="4.035" height="4.035" x="219.896" y="194.271" fill="#FD366E" opacity=".32" rx="1.009" transform="rotate(90 219.896 194.271)"/><rect width="4.035" height="4.035" x="219.896" y="200.323" fill="#FD366E" opacity=".16" rx="1.009" transform="rotate(90 219.896 200.323)"/><rect width="4.035" height="4.035" x="219.896" y="206.375" fill="#FD366E" opacity=".32" rx="1.009" transform="rotate(90 219.896 206.375)"/><rect width="4.035" height="4.035" x="219.896" y="212.428" fill="#FD366E" opacity=".32" rx="1.009" transform="rotate(90 219.896 212.428)"/><rect width="4.035" height="4.035" x="219.896" y="218.479" fill="#FD366E" opacity=".64" rx="1.009" transform="rotate(90 219.896 218.479)"/><rect width="4.035" height="4.035" x="219.896" y="224.532" fill="#FD366E" opacity=".4" rx="1.009" transform="rotate(90 219.896 224.532)"/><rect width="4.035" height="4.035" x="219.896" y="230.584" fill="#FD366E" opacity=".8" rx="1.009" transform="rotate(90 219.896 230.584)"/><rect width="4.035" height="4.035" x="219.896" y="236.636" fill="#FD366E" opacity=".64" rx="1.009" transform="rotate(90 219.896 236.636)"/><rect width="4.035" height="4.035" x="219.896" y="242.688" fill="#FD366E" opacity=".4" rx="1.009" transform="rotate(90 219.896 242.688)"/><rect width="4.035" height="4.035" x="219.896" y="248.741" fill="#FD366E" opacity=".32" rx="1.009" transform="rotate(90 219.896 248.741)"/><rect width="4.035" height="4.035" x="219.896" y="254.793" fill="#FD366E" opacity=".16" rx="1.009" transform="rotate(90 219.896 254.793)"/><rect width="4.035" height="4.035" x="219.896" y="260.845" fill="#FD366E" opacity=".4" rx="1.009" transform="rotate(90 219.896 260.845)"/><rect width="4.035" height="4.035" x="219.896" y="266.897" fill="#FD366E" opacity=".32" rx="1.009" transform="rotate(90 219.896 266.897)"/><rect width="4.035" height="4.035" x="219.896" y="272.949" fill="#FD366E" opacity=".8" rx="1.009" transform="rotate(90 219.896 272.949)"/><rect width="4.035" height="4.035" x="219.896" y="279.001" fill="#FD366E" opacity=".16" rx="1.009" transform="rotate(90 219.896 279.001)"/><rect width="4.035" height="4.035" x="219.896" y="285.054" fill="#FD366E" opacity=".32" rx="1.009" transform="rotate(90 219.896 285.054)"/><rect width="4.035" height="4.035" x="219.896" y="291.106" fill="#FD366E" opacity=".16" rx="1.009" transform="rotate(90 219.896 291.106)"/><rect width="4.035" height="4.035" x="219.896" y="297.158" fill="#FD366E" opacity=".64" rx="1.009" transform="rotate(90 219.896 297.158)"/><rect width="4.035" height="4.035" x="219.896" y="303.21" fill="#FD366E" opacity=".16" rx="1.009" transform="rotate(90 219.896 303.21)"/><rect width="4.035" height="4.035" x="219.896" y="309.262" fill="#FD366E" opacity=".64" rx="1.009" transform="rotate(90 219.896 309.262)"/><rect width="4.035" height="4.035" x="219.896" y="315.314" fill="#FD366E" opacity=".32" rx="1.009" transform="rotate(90 219.896 315.314)"/><rect width="4.035" height="4.035" x="219.896" y="321.367" fill="#FD366E" opacity=".8" rx="1.009" transform="rotate(90 219.896 321.367)"/><rect width="4.035" height="4.035" x="213.844" y=".602" fill="#FD366E" opacity=".64" rx="1.009" transform="rotate(90 213.844 0.601562)"/><rect width="4.035" height="4.035" x="213.844" y="6.654" fill="#FD366E" opacity=".4" rx="1.009" transform="rotate(90 213.844 6.65381)"/><rect width="4.035" height="4.035" x="213.844" y="12.706" fill="#FD366E" opacity=".32" rx="1.009" transform="rotate(90 213.844 12.7061)"/><rect width="4.035" height="4.035" x="213.844" y="18.758" fill="#FD366E" opacity=".16" rx="1.009" transform="rotate(90 213.844 18.7583)"/><rect width="4.035" height="4.035" x="213.844" y="24.81" fill="#FD366E" opacity=".8" rx="1.009" transform="rotate(90 213.844 24.8101)"/><rect width="4.035" height="4.035" x="213.844" y="30.862" fill="#FD366E" opacity=".64" rx="1.009" transform="rotate(90 213.844 30.8623)"/><rect width="4.035" height="4.035" x="213.844" y="36.915" fill="#FD366E" opacity=".4" rx="1.009" transform="rotate(90 213.844 36.9146)"/><rect width="4.035" height="4.035" x="213.844" y="42.967" fill="#FD366E" opacity=".32" rx="1.009" transform="rotate(90 213.844 42.9668)"/><rect width="4.035" height="4.035" x="213.844" y="49.019" fill="#FD366E" opacity=".16" rx="1.009" transform="rotate(90 213.844 49.019)"/><rect width="4.035" height="4.035" x="213.844" y="55.071" fill="#FD366E" opacity=".4" rx="1.009" transform="rotate(90 213.844 55.0713)"/><rect width="4.035" height="4.035" x="213.844" y="61.123" fill="#FD366E" opacity=".32" rx="1.009" transform="rotate(90 213.844 61.1235)"/><rect width="4.035" height="4.035" x="213.844" y="67.175" fill="#FD366E" opacity=".8" rx="1.009" transform="rotate(90 213.844 67.1753)"/><rect width="4.035" height="4.035" x="213.844" y="73.228" fill="#FD366E" opacity=".16" rx="1.009" transform="rotate(90 213.844 73.2275)"/><rect width="4.035" height="4.035" x="213.844" y="79.28" fill="#FD366E" opacity=".4" rx="1.009" transform="rotate(90 213.844 79.2798)"/><rect width="4.035" height="4.035" x="213.844" y="85.332" fill="#FD366E" opacity=".32" rx="1.009" transform="rotate(90 213.844 85.332)"/><rect width="4.035" height="4.035" x="213.844" y="91.384" fill="#FD366E" opacity=".32" rx="1.009" transform="rotate(90 213.844 91.3843)"/><rect width="4.035" height="4.035" x="213.844" y="97.436" fill="#FD366E" opacity=".32" rx="1.009" transform="rotate(90 213.844 97.4365)"/><rect width="4.035" height="4.035" x="213.844" y="103.488" fill="#FD366E" opacity=".64" rx="1.009" transform="rotate(90 213.844 103.488)"/><rect width="4.035" height="4.035" x="213.844" y="109.541" fill="#FD366E" opacity=".16" rx="1.009" transform="rotate(90 213.844 109.541)"/><rect width="4.035" height="4.035" x="213.844" y="115.593" fill="#FD366E" opacity=".64" rx="1.009" transform="rotate(90 213.844 115.593)"/><rect width="4.035" height="4.035" x="213.844" y="121.645" fill="#FD366E" opacity=".4" rx="1.009" transform="rotate(90 213.844 121.645)"/><rect width="4.035" height="4.035" x="213.844" y="127.697" fill="#FD366E" opacity=".32" rx="1.009" transform="rotate(90 213.844 127.697)"/><rect width="4.035" height="4.035" x="213.844" y="133.75" fill="#FD366E" opacity=".16" rx="1.009" transform="rotate(90 213.844 133.75)"/><rect width="4.035" height="4.035" x="213.844" y="139.802" fill="#FD366E" opacity=".8" rx="1.009" transform="rotate(90 213.844 139.802)"/><rect width="4.035" height="4.035" x="213.844" y="145.854" fill="#FD366E" opacity=".8" rx="1.009" transform="rotate(90 213.844 145.854)"/><rect width="4.035" height="4.035" x="213.844" y="151.906" fill="#FD366E" opacity=".64" rx="1.009" transform="rotate(90 213.844 151.906)"/><rect width="4.035" height="4.035" x="213.844" y="157.958" fill="#FD366E" opacity=".4" rx="1.009" transform="rotate(90 213.844 157.958)"/><rect width="4.035" height="4.035" x="213.844" y="164.01" fill="#FD366E" opacity=".8" rx="1.009" transform="rotate(90 213.844 164.01)"/><rect width="4.035" height="4.035" x="213.844" y="170.062" fill="#FD366E" opacity=".4" rx="1.009" transform="rotate(90 213.844 170.062)"/><rect width="4.035" height="4.035" x="213.844" y="176.115" fill="#FD366E" opacity=".16" rx="1.009" transform="rotate(90 213.844 176.115)"/><rect width="4.035" height="4.035" x="213.844" y="182.167" fill="#FD366E" opacity=".32" rx="1.009" transform="rotate(90 213.844 182.167)"/><rect width="4.035" height="4.035" x="213.844" y="188.219" fill="#FD366E" opacity=".16" rx="1.009" transform="rotate(90 213.844 188.219)"/><rect width="4.035" height="4.035" x="213.844" y="194.271" fill="#FD366E" opacity=".64" rx="1.009" transform="rotate(90 213.844 194.271)"/><rect width="4.035" height="4.035" x="213.844" y="200.323" fill="#FD366E" opacity=".16" rx="1.009" transform="rotate(90 213.844 200.323)"/><rect width="4.035" height="4.035" x="213.844" y="206.375" fill="#FD366E" opacity=".64" rx="1.009" transform="rotate(90 213.844 206.375)"/><rect width="4.035" height="4.035" x="213.844" y="212.428" fill="#FD366E" opacity=".32" rx="1.009" transform="rotate(90 213.844 212.428)"/><rect width="4.035" height="4.035" x="213.844" y="218.479" fill="#FD366E" opacity=".8" rx="1.009" transform="rotate(90 213.844 218.479)"/><rect width="4.035" height="4.035" x="213.844" y="224.532" fill="#FD366E" opacity=".4" rx="1.009" transform="rotate(90 213.844 224.532)"/><rect width="4.035" height="4.035" x="213.844" y="230.584" fill="#FD366E" opacity=".32" rx="1.009" transform="rotate(90 213.844 230.584)"/><rect width="4.035" height="4.035" x="213.844" y="236.636" fill="#FD366E" opacity=".32" rx="1.009" transform="rotate(90 213.844 236.636)"/><rect width="4.035" height="4.035" x="213.844" y="242.688" fill="#FD366E" opacity=".64" rx="1.009" transform="rotate(90 213.844 242.688)"/><rect width="4.035" height="4.035" x="213.844" y="248.741" fill="#FD366E" opacity=".4" rx="1.009" transform="rotate(90 213.844 248.741)"/><rect width="4.035" height="4.035" x="213.844" y="254.793" fill="#FD366E" opacity=".16" rx="1.009" transform="rotate(90 213.844 254.793)"/><rect width="4.035" height="4.035" x="213.844" y="260.845" fill="#FD366E" opacity=".8" rx="1.009" transform="rotate(90 213.844 260.845)"/><rect width="4.035" height="4.035" x="213.844" y="266.897" fill="#FD366E" opacity=".8" rx="1.009" transform="rotate(90 213.844 266.897)"/><rect width="4.035" height="4.035" x="213.844" y="272.949" fill="#FD366E" opacity=".8" rx="1.009" transform="rotate(90 213.844 272.949)"/><rect width="4.035" height="4.035" x="213.844" y="279.001" fill="#FD366E" opacity=".64" rx="1.009" transform="rotate(90 213.844 279.001)"/><rect width="4.035" height="4.035" x="213.844" y="285.054" fill="#FD366E" opacity=".4" rx="1.009" transform="rotate(90 213.844 285.054)"/><rect width="4.035" height="4.035" x="213.844" y="291.106" fill="#FD366E" opacity=".4" rx="1.009" transform="rotate(90 213.844 291.106)"/><rect width="4.035" height="4.035" x="213.844" y="297.158" fill="#FD366E" opacity=".32" rx="1.009" transform="rotate(90 213.844 297.158)"/><rect width="4.035" height="4.035" x="213.844" y="303.21" fill="#FD366E" opacity=".16" rx="1.009" transform="rotate(90 213.844 303.21)"/><rect width="4.035" height="4.035" x="213.844" y="309.262" fill="#FD366E" opacity=".64" rx="1.009" transform="rotate(90 213.844 309.262)"/><rect width="4.035" height="4.035" x="213.844" y="315.314" fill="#FD366E" opacity=".32" rx="1.009" transform="rotate(90 213.844 315.314)"/><rect width="4.035" height="4.035" x="213.844" y="321.367" fill="#FD366E" opacity=".16" rx="1.009" transform="rotate(90 213.844 321.367)"/><rect width="4.035" height="4.035" fill="#FD366E" opacity=".64" rx="1.009" transform="matrix(-4.37114e-08 -1 -1 4.37114e-08 207.791 325.401)"/><rect width="4.035" height="4.035" fill="#FD366E" opacity=".4" rx="1.009" transform="matrix(-4.37114e-08 -1 -1 4.37114e-08 207.791 319.349)"/><rect width="4.035" height="4.035" fill="#FD366E" opacity=".32" rx="1.009" transform="matrix(-4.37114e-08 -1 -1 4.37114e-08 207.791 313.297)"/><rect width="4.035" height="4.035" fill="#FD366E" opacity=".16" rx="1.009" transform="matrix(-4.37114e-08 -1 -1 4.37114e-08 207.791 307.245)"/><rect width="4.035" height="4.035" fill="#FD366E" opacity=".8" rx="1.009" transform="matrix(-4.37114e-08 -1 -1 4.37114e-08 207.791 301.193)"/><rect width="4.035" height="4.035" fill="#FD366E" opacity=".64" rx="1.009" transform="matrix(-4.37114e-08 -1 -1 4.37114e-08 207.791 295.141)"/><rect width="4.035" height="4.035" fill="#FD366E" opacity=".4" rx="1.009" transform="matrix(-4.37114e-08 -1 -1 4.37114e-08 207.791 289.088)"/><rect width="4.035" height="4.035" fill="#FD366E" opacity=".32" rx="1.009" transform="matrix(-4.37114e-08 -1 -1 4.37114e-08 207.791 283.036)"/><rect width="4.035" height="4.035" fill="#FD366E" opacity=".16" rx="1.009" transform="matrix(-4.37114e-08 -1 -1 4.37114e-08 207.791 276.984)"/><rect width="4.035" height="4.035" fill="#FD366E" opacity=".4" rx="1.009" transform="matrix(-4.37114e-08 -1 -1 4.37114e-08 207.791 270.932)"/><rect width="4.035" height="4.035" fill="#FD366E" opacity=".32" rx="1.009" transform="matrix(-4.37114e-08 -1 -1 4.37114e-08 207.791 264.879)"/><rect width="4.035" height="4.035" fill="#FD366E" opacity=".8" rx="1.009" transform="matrix(-4.37114e-08 -1 -1 4.37114e-08 207.791 258.828)"/><rect width="4.035" height="4.035" fill="#FD366E" opacity=".16" rx="1.009" transform="matrix(-4.37114e-08 -1 -1 4.37114e-08 207.791 252.775)"/><rect width="4.035" height="4.035" fill="#FD366E" opacity=".4" rx="1.009" transform="matrix(-4.37114e-08 -1 -1 4.37114e-08 207.791 246.723)"/><rect width="4.035" height="4.035" fill="#FD366E" opacity=".32" rx="1.009" transform="matrix(-4.37114e-08 -1 -1 4.37114e-08 207.791 240.671)"/><rect width="4.035" height="4.035" fill="#FD366E" opacity=".32" rx="1.009" transform="matrix(-4.37114e-08 -1 -1 4.37114e-08 207.791 234.619)"/><rect width="4.035" height="4.035" fill="#FD366E" opacity=".32" rx="1.009" transform="matrix(-4.37114e-08 -1 -1 4.37114e-08 207.791 228.566)"/><rect width="4.035" height="4.035" fill="#FD366E" opacity=".64" rx="1.009" transform="matrix(-4.37114e-08 -1 -1 4.37114e-08 207.791 222.515)"/><rect width="4.035" height="4.035" fill="#FD366E" opacity=".16" rx="1.009" transform="matrix(-4.37114e-08 -1 -1 4.37114e-08 207.791 216.462)"/><rect width="4.035" height="4.035" fill="#FD366E" opacity=".64" rx="1.009" transform="matrix(-4.37114e-08 -1 -1 4.37114e-08 207.791 210.41)"/><rect width="4.035" height="4.035" fill="#FD366E" opacity=".4" rx="1.009" transform="matrix(-4.37114e-08 -1 -1 4.37114e-08 207.791 204.358)"/><rect width="4.035" height="4.035" fill="#FD366E" opacity=".32" rx="1.009" transform="matrix(-4.37114e-08 -1 -1 4.37114e-08 207.791 198.306)"/><rect width="4.035" height="4.035" fill="#FD366E" opacity=".16" rx="1.009" transform="matrix(-4.37114e-08 -1 -1 4.37114e-08 207.791 192.253)"/><rect width="4.035" height="4.035" fill="#FD366E" opacity=".8" rx="1.009" transform="matrix(-4.37114e-08 -1 -1 4.37114e-08 207.791 186.201)"/><rect width="4.035" height="4.035" fill="#FD366E" opacity=".8" rx="1.009" transform="matrix(-4.37114e-08 -1 -1 4.37114e-08 207.791 180.149)"/><rect width="4.035" height="4.035" fill="#FD366E" opacity=".64" rx="1.009" transform="matrix(-4.37114e-08 -1 -1 4.37114e-08 207.791 174.097)"/><rect width="4.035" height="4.035" fill="#FD366E" opacity=".4" rx="1.009" transform="matrix(-4.37114e-08 -1 -1 4.37114e-08 207.791 168.045)"/><rect width="4.035" height="4.035" fill="#FD366E" opacity=".8" rx="1.009" transform="matrix(-4.37114e-08 -1 -1 4.37114e-08 207.791 161.993)"/><rect width="4.035" height="4.035" fill="#FD366E" opacity=".4" rx="1.009" transform="matrix(-4.37114e-08 -1 -1 4.37114e-08 207.791 155.94)"/><rect width="4.035" height="4.035" fill="#FD366E" opacity=".16" rx="1.009" transform="matrix(-4.37114e-08 -1 -1 4.37114e-08 207.791 149.888)"/><rect width="4.035" height="4.035" fill="#FD366E" opacity=".32" rx="1.009" transform="matrix(-4.37114e-08 -1 -1 4.37114e-08 207.791 143.836)"/><rect width="4.035" height="4.035" fill="#FD366E" opacity=".16" rx="1.009" transform="matrix(-4.37114e-08 -1 -1 4.37114e-08 207.791 137.784)"/><rect width="4.035" height="4.035" fill="#FD366E" opacity=".64" rx="1.009" transform="matrix(-4.37114e-08 -1 -1 4.37114e-08 207.791 131.732)"/><rect width="4.035" height="4.035" fill="#FD366E" opacity=".16" rx="1.009" transform="matrix(-4.37114e-08 -1 -1 4.37114e-08 207.791 125.68)"/><rect width="4.035" height="4.035" fill="#FD366E" opacity=".64" rx="1.009" transform="matrix(-4.37114e-08 -1 -1 4.37114e-08 207.791 119.627)"/><rect width="4.035" height="4.035" fill="#FD366E" opacity=".32" rx="1.009" transform="matrix(-4.37114e-08 -1 -1 4.37114e-08 207.791 113.575)"/><rect width="4.035" height="4.035" fill="#FD366E" opacity=".8" rx="1.009" transform="matrix(-4.37114e-08 -1 -1 4.37114e-08 207.791 107.523)"/><rect width="4.035" height="4.035" fill="#FD366E" opacity=".4" rx="1.009" transform="matrix(-4.37114e-08 -1 -1 4.37114e-08 207.791 101.471)"/><rect width="4.035" height="4.035" fill="#FD366E" opacity=".32" rx="1.009" transform="matrix(-4.37114e-08 -1 -1 4.37114e-08 207.791 95.4189)"/><rect width="4.035" height="4.035" fill="#FD366E" opacity=".32" rx="1.009" transform="matrix(-4.37114e-08 -1 -1 4.37114e-08 207.791 89.3667)"/><rect width="4.035" height="4.035" fill="#FD366E" opacity=".64" rx="1.009" transform="matrix(-4.37114e-08 -1 -1 4.37114e-08 207.791 83.3145)"/><rect width="4.035" height="4.035" fill="#FD366E" opacity=".4" rx="1.009" transform="matrix(-4.37114e-08 -1 -1 4.37114e-08 207.791 77.2622)"/><rect width="4.035" height="4.035" fill="#FD366E" opacity=".16" rx="1.009" transform="matrix(-4.37114e-08 -1 -1 4.37114e-08 207.791 71.21)"/><rect width="4.035" height="4.035" fill="#FD366E" opacity=".8" rx="1.009" transform="matrix(-4.37114e-08 -1 -1 4.37114e-08 207.791 65.1582)"/><rect width="4.035" height="4.035" fill="#FD366E" opacity=".8" rx="1.009" transform="matrix(-4.37114e-08 -1 -1 4.37114e-08 207.791 59.106)"/><rect width="4.035" height="4.035" fill="#FD366E" opacity=".8" rx="1.009" transform="matrix(-4.37114e-08 -1 -1 4.37114e-08 207.791 53.0537)"/><rect width="4.035" height="4.035" fill="#FD366E" opacity=".64" rx="1.009" transform="matrix(-4.37114e-08 -1 -1 4.37114e-08 207.791 47.0015)"/><rect width="4.035" height="4.035" fill="#FD366E" opacity=".4" rx="1.009" transform="matrix(-4.37114e-08 -1 -1 4.37114e-08 207.791 40.9492)"/><rect width="4.035" height="4.035" fill="#FD366E" opacity=".4" rx="1.009" transform="matrix(-4.37114e-08 -1 -1 4.37114e-08 207.791 34.897)"/><rect width="4.035" height="4.035" fill="#FD366E" opacity=".32" rx="1.009" transform="matrix(-4.37114e-08 -1 -1 4.37114e-08 207.791 28.8447)"/><rect width="4.035" height="4.035" fill="#FD366E" opacity=".16" rx="1.009" transform="matrix(-4.37114e-08 -1 -1 4.37114e-08 207.791 22.793)"/><rect width="4.035" height="4.035" fill="#FD366E" opacity=".64" rx="1.009" transform="matrix(-4.37114e-08 -1 -1 4.37114e-08 207.791 16.7407)"/><rect width="4.035" height="4.035" fill="#FD366E" opacity=".32" rx="1.009" transform="matrix(-4.37114e-08 -1 -1 4.37114e-08 207.791 10.6885)"/><rect width="4.035" height="4.035" fill="#FD366E" opacity=".16" rx="1.009" transform="matrix(-4.37114e-08 -1 -1 4.37114e-08 207.791 4.63623)"/><rect width="4.035" height="4.035" x="201.738" y=".602" fill="#FD366E" opacity=".4" rx="1.009" transform="rotate(90 201.738 0.601562)"/><rect width="4.035" height="4.035" x="201.738" y="6.654" fill="#FD366E" opacity=".32" rx="1.009" transform="rotate(90 201.738 6.65381)"/><rect width="4.035" height="4.035" x="201.738" y="12.706" fill="#FD366E" opacity=".16" rx="1.009" transform="rotate(90 201.738 12.7061)"/><rect width="4.035" height="4.035" x="201.738" y="18.758" fill="#FD366E" opacity=".8" rx="1.009" transform="rotate(90 201.738 18.7583)"/><rect width="4.035" height="4.035" x="201.738" y="24.81" fill="#FD366E" opacity=".8" rx="1.009" transform="rotate(90 201.738 24.8101)"/><rect width="4.035" height="4.035" x="201.738" y="30.862" fill="#FD366E" opacity=".64" rx="1.009" transform="rotate(90 201.738 30.8623)"/><rect width="4.035" height="4.035" x="201.738" y="36.915" fill="#FD366E" opacity=".32" rx="1.009" transform="rotate(90 201.738 36.9146)"/><rect width="4.035" height="4.035" x="201.738" y="42.967" fill="#FD366E" opacity=".32" rx="1.009" transform="rotate(90 201.738 42.9668)"/><rect width="4.035" height="4.035" x="201.738" y="49.019" fill="#FD366E" opacity=".32" rx="1.009" transform="rotate(90 201.738 49.019)"/><rect width="4.035" height="4.035" x="201.738" y="55.071" fill="#FD366E" opacity=".64" rx="1.009" transform="rotate(90 201.738 55.0713)"/><rect width="4.035" height="4.035" x="201.738" y="61.123" fill="#FD366E" opacity=".16" rx="1.009" transform="rotate(90 201.738 61.1235)"/><rect width="4.035" height="4.035" x="201.738" y="67.175" fill="#FD366E" opacity=".64" rx="1.009" transform="rotate(90 201.738 67.1753)"/><rect width="4.035" height="4.035" x="201.738" y="73.228" fill="#FD366E" opacity=".4" rx="1.009" transform="rotate(90 201.738 73.2275)"/><rect width="4.035" height="4.035" x="201.738" y="79.28" fill="#FD366E" opacity=".4" rx="1.009" transform="rotate(90 201.738 79.2798)"/><rect width="4.035" height="4.035" x="201.738" y="85.332" fill="#FD366E" opacity=".8" rx="1.009" transform="rotate(90 201.738 85.332)"/><rect width="4.035" height="4.035" x="201.738" y="91.384" fill="#FD366E" opacity=".4" rx="1.009" transform="rotate(90 201.738 91.3843)"/><rect width="4.035" height="4.035" x="201.738" y="97.436" fill="#FD366E" opacity=".4" rx="1.009" transform="rotate(90 201.738 97.4365)"/><rect width="4.035" height="4.035" x="201.738" y="103.488" fill="#FD366E" opacity=".16" rx="1.009" transform="rotate(90 201.738 103.488)"/><rect width="4.035" height="4.035" x="201.738" y="109.541" fill="#FD366E" opacity=".8" rx="1.009" transform="rotate(90 201.738 109.541)"/><rect width="4.035" height="4.035" x="201.738" y="115.593" fill="#FD366E" opacity=".8" rx="1.009" transform="rotate(90 201.738 115.593)"/><rect width="4.035" height="4.035" x="201.738" y="121.645" fill="#FD366E" opacity=".8" rx="1.009" transform="rotate(90 201.738 121.645)"/><rect width="4.035" height="4.035" x="201.738" y="127.697" fill="#FD366E" opacity=".64" rx="1.009" transform="rotate(90 201.738 127.697)"/><rect width="4.035" height="4.035" x="201.738" y="133.75" fill="#FD366E" opacity=".4" rx="1.009" transform="rotate(90 201.738 133.75)"/><rect width="4.035" height="4.035" x="201.738" y="139.802" fill="#FD366E" opacity=".4" rx="1.009" transform="rotate(90 201.738 139.802)"/><rect width="4.035" height="4.035" x="201.738" y="145.854" fill="#FD366E" opacity=".32" rx="1.009" transform="rotate(90 201.738 145.854)"/><rect width="4.035" height="4.035" x="201.738" y="151.906" fill="#FD366E" opacity=".16" rx="1.009" transform="rotate(90 201.738 151.906)"/><rect width="4.035" height="4.035" x="201.738" y="157.958" fill="#FD366E" opacity=".64" rx="1.009" transform="rotate(90 201.738 157.958)"/><rect width="4.035" height="4.035" x="201.738" y="164.01" fill="#FD366E" opacity=".32" rx="1.009" transform="rotate(90 201.738 164.01)"/><rect width="4.035" height="4.035" x="201.738" y="170.062" fill="#FD366E" opacity=".16" rx="1.009" transform="rotate(90 201.738 170.062)"/><rect width="4.035" height="4.035" x="201.738" y="176.115" fill="#FD366E" opacity=".16" rx="1.009" transform="rotate(90 201.738 176.115)"/><rect width="4.035" height="4.035" x="201.738" y="182.167" fill="#FD366E" opacity=".64" rx="1.009" transform="rotate(90 201.738 182.167)"/><rect width="4.035" height="4.035" x="201.738" y="188.219" fill="#FD366E" opacity=".4" rx="1.009" transform="rotate(90 201.738 188.219)"/><rect width="4.035" height="4.035" x="201.738" y="194.271" fill="#FD366E" opacity=".32" rx="1.009" transform="rotate(90 201.738 194.271)"/><rect width="4.035" height="4.035" x="201.738" y="200.323" fill="#FD366E" opacity=".16" rx="1.009" transform="rotate(90 201.738 200.323)"/><rect width="4.035" height="4.035" x="201.738" y="206.375" fill="#FD366E" opacity=".32" rx="1.009" transform="rotate(90 201.738 206.375)"/><rect width="4.035" height="4.035" x="201.738" y="212.428" fill="#FD366E" opacity=".32" rx="1.009" transform="rotate(90 201.738 212.428)"/><rect width="4.035" height="4.035" x="201.738" y="218.479" fill="#FD366E" opacity=".64" rx="1.009" transform="rotate(90 201.738 218.479)"/><rect width="4.035" height="4.035" x="201.738" y="224.532" fill="#FD366E" opacity=".4" rx="1.009" transform="rotate(90 201.738 224.532)"/><rect width="4.035" height="4.035" x="201.738" y="230.584" fill="#FD366E" opacity=".8" rx="1.009" transform="rotate(90 201.738 230.584)"/><rect width="4.035" height="4.035" x="201.738" y="236.636" fill="#FD366E" opacity=".64" rx="1.009" transform="rotate(90 201.738 236.636)"/><rect width="4.035" height="4.035" x="201.738" y="242.688" fill="#FD366E" opacity=".4" rx="1.009" transform="rotate(90 201.738 242.688)"/><rect width="4.035" height="4.035" x="201.738" y="248.741" fill="#FD366E" opacity=".32" rx="1.009" transform="rotate(90 201.738 248.741)"/><rect width="4.035" height="4.035" x="201.738" y="254.793" fill="#FD366E" opacity=".16" rx="1.009" transform="rotate(90 201.738 254.793)"/><rect width="4.035" height="4.035" x="201.738" y="260.845" fill="#FD366E" opacity=".4" rx="1.009" transform="rotate(90 201.738 260.845)"/><rect width="4.035" height="4.035" x="201.738" y="266.897" fill="#FD366E" opacity=".32" rx="1.009" transform="rotate(90 201.738 266.897)"/><rect width="4.035" height="4.035" x="201.738" y="272.949" fill="#FD366E" opacity=".8" rx="1.009" transform="rotate(90 201.738 272.949)"/><rect width="4.035" height="4.035" x="201.738" y="279.001" fill="#FD366E" opacity=".16" rx="1.009" transform="rotate(90 201.738 279.001)"/><rect width="4.035" height="4.035" x="201.738" y="285.054" fill="#FD366E" opacity=".32" rx="1.009" transform="rotate(90 201.738 285.054)"/><rect width="4.035" height="4.035" x="201.738" y="291.106" fill="#FD366E" opacity=".16" rx="1.009" transform="rotate(90 201.738 291.106)"/><rect width="4.035" height="4.035" x="201.738" y="297.158" fill="#FD366E" opacity=".64" rx="1.009" transform="rotate(90 201.738 297.158)"/><rect width="4.035" height="4.035" x="201.738" y="303.21" fill="#FD366E" opacity=".16" rx="1.009" transform="rotate(90 201.738 303.21)"/><rect width="4.035" height="4.035" x="201.738" y="309.262" fill="#FD366E" opacity=".64" rx="1.009" transform="rotate(90 201.738 309.262)"/><rect width="4.035" height="4.035" x="201.738" y="315.314" fill="#FD366E" opacity=".32" rx="1.009" transform="rotate(90 201.738 315.314)"/><rect width="4.035" height="4.035" x="201.738" y="321.367" fill="#FD366E" opacity=".8" rx="1.009" transform="rotate(90 201.738 321.367)"/><rect width="4.035" height="4.035" x="195.688" y=".602" fill="#FD366E" opacity=".64" rx="1.009" transform="rotate(90 195.688 0.601562)"/><rect width="4.035" height="4.035" x="195.688" y="6.654" fill="#FD366E" opacity=".4" rx="1.009" transform="rotate(90 195.688 6.65381)"/><rect width="4.035" height="4.035" x="195.688" y="12.706" fill="#FD366E" opacity=".32" rx="1.009" transform="rotate(90 195.688 12.7061)"/><rect width="4.035" height="4.035" x="195.688" y="18.758" fill="#FD366E" opacity=".16" rx="1.009" transform="rotate(90 195.688 18.7583)"/><rect width="4.035" height="4.035" x="195.688" y="24.81" fill="#FD366E" opacity=".8" rx="1.009" transform="rotate(90 195.688 24.8101)"/><rect width="4.035" height="4.035" x="195.688" y="30.862" fill="#FD366E" opacity=".64" rx="1.009" transform="rotate(90 195.688 30.8623)"/><rect width="4.035" height="4.035" x="195.688" y="36.915" fill="#FD366E" opacity=".4" rx="1.009" transform="rotate(90 195.688 36.9146)"/><rect width="4.035" height="4.035" x="195.688" y="42.967" fill="#FD366E" opacity=".32" rx="1.009" transform="rotate(90 195.688 42.9668)"/><rect width="4.035" height="4.035" x="195.688" y="49.019" fill="#FD366E" opacity=".16" rx="1.009" transform="rotate(90 195.688 49.019)"/><rect width="4.035" height="4.035" x="195.688" y="55.071" fill="#FD366E" opacity=".4" rx="1.009" transform="rotate(90 195.688 55.0713)"/><rect width="4.035" height="4.035" x="195.688" y="61.123" fill="#FD366E" opacity=".32" rx="1.009" transform="rotate(90 195.688 61.1235)"/><rect width="4.035" height="4.035" x="195.688" y="67.175" fill="#FD366E" opacity=".8" rx="1.009" transform="rotate(90 195.688 67.1753)"/><rect width="4.035" height="4.035" x="195.688" y="73.228" fill="#FD366E" opacity=".16" rx="1.009" transform="rotate(90 195.688 73.2275)"/><rect width="4.035" height="4.035" x="195.688" y="79.28" fill="#FD366E" opacity=".4" rx="1.009" transform="rotate(90 195.688 79.2798)"/><rect width="4.035" height="4.035" x="195.688" y="85.332" fill="#FD366E" opacity=".32" rx="1.009" transform="rotate(90 195.688 85.332)"/><rect width="4.035" height="4.035" x="195.688" y="91.384" fill="#FD366E" opacity=".32" rx="1.009" transform="rotate(90 195.688 91.3843)"/><rect width="4.035" height="4.035" x="195.688" y="97.436" fill="#FD366E" opacity=".32" rx="1.009" transform="rotate(90 195.688 97.4365)"/><rect width="4.035" height="4.035" x="195.688" y="103.488" fill="#FD366E" opacity=".64" rx="1.009" transform="rotate(90 195.688 103.488)"/><rect width="4.035" height="4.035" x="195.688" y="109.541" fill="#FD366E" opacity=".16" rx="1.009" transform="rotate(90 195.688 109.541)"/><rect width="4.035" height="4.035" x="195.688" y="115.593" fill="#FD366E" opacity=".64" rx="1.009" transform="rotate(90 195.688 115.593)"/><rect width="4.035" height="4.035" x="195.688" y="121.645" fill="#FD366E" opacity=".4" rx="1.009" transform="rotate(90 195.688 121.645)"/><rect width="4.035" height="4.035" x="195.688" y="127.697" fill="#FD366E" opacity=".32" rx="1.009" transform="rotate(90 195.688 127.697)"/><rect width="4.035" height="4.035" x="195.688" y="133.75" fill="#FD366E" opacity=".16" rx="1.009" transform="rotate(90 195.688 133.75)"/><rect width="4.035" height="4.035" x="195.688" y="139.802" fill="#FD366E" opacity=".8" rx="1.009" transform="rotate(90 195.688 139.802)"/><rect width="4.035" height="4.035" x="195.688" y="145.854" fill="#FD366E" opacity=".8" rx="1.009" transform="rotate(90 195.688 145.854)"/><rect width="4.035" height="4.035" x="195.688" y="151.906" fill="#FD366E" opacity=".64" rx="1.009" transform="rotate(90 195.688 151.906)"/><rect width="4.035" height="4.035" x="195.688" y="157.958" fill="#FD366E" opacity=".4" rx="1.009" transform="rotate(90 195.688 157.958)"/><rect width="4.035" height="4.035" x="195.688" y="164.01" fill="#FD366E" opacity=".8" rx="1.009" transform="rotate(90 195.688 164.01)"/><rect width="4.035" height="4.035" x="195.688" y="170.062" fill="#FD366E" opacity=".4" rx="1.009" transform="rotate(90 195.688 170.062)"/><rect width="4.035" height="4.035" x="195.688" y="176.115" fill="#FD366E" opacity=".16" rx="1.009" transform="rotate(90 195.688 176.115)"/><rect width="4.035" height="4.035" x="195.688" y="182.167" fill="#FD366E" opacity=".32" rx="1.009" transform="rotate(90 195.688 182.167)"/><rect width="4.035" height="4.035" x="195.688" y="188.219" fill="#FD366E" opacity=".16" rx="1.009" transform="rotate(90 195.688 188.219)"/><rect width="4.035" height="4.035" x="195.688" y="194.271" fill="#FD366E" opacity=".64" rx="1.009" transform="rotate(90 195.688 194.271)"/><rect width="4.035" height="4.035" x="195.688" y="200.323" fill="#FD366E" opacity=".16" rx="1.009" transform="rotate(90 195.688 200.323)"/><rect width="4.035" height="4.035" x="195.688" y="206.375" fill="#FD366E" opacity=".64" rx="1.009" transform="rotate(90 195.688 206.375)"/><rect width="4.035" height="4.035" x="195.688" y="212.428" fill="#FD366E" opacity=".32" rx="1.009" transform="rotate(90 195.688 212.428)"/><rect width="4.035" height="4.035" x="195.688" y="218.479" fill="#FD366E" opacity=".8" rx="1.009" transform="rotate(90 195.688 218.479)"/><rect width="4.035" height="4.035" x="195.688" y="224.532" fill="#FD366E" opacity=".4" rx="1.009" transform="rotate(90 195.688 224.532)"/><rect width="4.035" height="4.035" x="195.688" y="230.584" fill="#FD366E" opacity=".32" rx="1.009" transform="rotate(90 195.688 230.584)"/><rect width="4.035" height="4.035" x="195.688" y="236.636" fill="#FD366E" opacity=".32" rx="1.009" transform="rotate(90 195.688 236.636)"/><rect width="4.035" height="4.035" x="195.688" y="242.688" fill="#FD366E" opacity=".64" rx="1.009" transform="rotate(90 195.688 242.688)"/><rect width="4.035" height="4.035" x="195.688" y="248.741" fill="#FD366E" opacity=".4" rx="1.009" transform="rotate(90 195.688 248.741)"/><rect width="4.035" height="4.035" x="195.688" y="254.793" fill="#FD366E" opacity=".16" rx="1.009" transform="rotate(90 195.688 254.793)"/><rect width="4.035" height="4.035" x="195.688" y="260.845" fill="#FD366E" opacity=".8" rx="1.009" transform="rotate(90 195.688 260.845)"/><rect width="4.035" height="4.035" x="195.688" y="266.897" fill="#FD366E" opacity=".8" rx="1.009" transform="rotate(90 195.688 266.897)"/><rect width="4.035" height="4.035" x="195.688" y="272.949" fill="#FD366E" opacity=".8" rx="1.009" transform="rotate(90 195.688 272.949)"/><rect width="4.035" height="4.035" x="195.688" y="279.001" fill="#FD366E" opacity=".64" rx="1.009" transform="rotate(90 195.688 279.001)"/><rect width="4.035" height="4.035" x="195.688" y="285.054" fill="#FD366E" opacity=".4" rx="1.009" transform="rotate(90 195.688 285.054)"/><rect width="4.035" height="4.035" x="195.688" y="291.106" fill="#FD366E" opacity=".4" rx="1.009" transform="rotate(90 195.688 291.106)"/><rect width="4.035" height="4.035" x="195.688" y="297.158" fill="#FD366E" opacity=".32" rx="1.009" transform="rotate(90 195.688 297.158)"/><rect width="4.035" height="4.035" x="195.688" y="303.21" fill="#FD366E" opacity=".16" rx="1.009" transform="rotate(90 195.688 303.21)"/><rect width="4.035" height="4.035" x="195.688" y="309.262" fill="#FD366E" opacity=".64" rx="1.009" transform="rotate(90 195.688 309.262)"/><rect width="4.035" height="4.035" x="195.688" y="315.314" fill="#FD366E" opacity=".32" rx="1.009" transform="rotate(90 195.688 315.314)"/><rect width="4.035" height="4.035" x="195.688" y="321.367" fill="#FD366E" opacity=".16" rx="1.009" transform="rotate(90 195.688 321.367)"/></g></g><path fill="#FD366E" d="M28.1796 293.325V296.067H21.4352C19.4703 296.067 17.7547 294.964 16.8368 293.325C16.7033 293.087 16.5865 292.837 16.4886 292.577C16.2962 292.069 16.1753 291.523 16.1387 290.954V290.212C16.1466 290.086 16.1592 289.96 16.1756 289.835C16.2091 289.58 16.2598 289.33 16.3264 289.088C16.9564 286.786 19.0051 285.1 21.4352 285.1C23.8654 285.1 25.9138 286.786 26.5438 289.088H23.66C23.1866 288.337 22.3671 287.841 21.4352 287.841C20.5033 287.841 19.6839 288.337 19.2104 289.088C19.0661 289.316 18.9542 289.567 18.8808 289.835C18.8157 290.073 18.7809 290.324 18.7809 290.583C18.7809 291.369 19.1009 292.077 19.6139 292.577C20.0893 293.041 20.7301 293.325 21.4352 293.325H28.1796Z"/><path fill="#FD366E" d="M28.1808 289.835V292.577H23.2578C23.7708 292.077 24.0908 291.369 24.0908 290.583C24.0908 290.323 24.056 290.073 23.9909 289.835H28.1808Z"/><g clip-path="url(#clip1_2060_26186)"><path fill="#FD366E" d="M54.6582 297.124V295.722H62.0927V297.124H54.6582Z"/><path fill="#fff" d="M52.5643 295.327C51.1729 295.327 50.2589 294.7 50.2589 293.189V289.608H49.0176V288.192H50.3544V286.19H51.8822V288.192H53.9011V289.608H51.8822V293.175C51.8822 293.679 52.0869 293.897 52.5779 293.897H53.8193V295.327H52.5643Z"/><path fill="#fff" d="M47.1106 287.089C46.524 287.089 46.0875 286.654 46.0875 286.082C46.0875 285.524 46.524 285.088 47.1106 285.088C47.6971 285.088 48.1337 285.524 48.1337 286.082C48.1337 286.654 47.6971 287.089 47.1106 287.089ZM46.2921 295.327V289.608H45.0371V288.192H47.9018V295.327H46.2921Z"/><path fill="#fff" d="M37.8672 295.326V288.192H39.4769V289.009H39.5996C39.9134 288.464 40.5682 288.015 41.523 288.015C43.0918 288.015 44.0876 289.186 44.0876 290.656V295.326H42.4779V291.037C42.4779 290.152 41.8504 289.54 41.032 289.54C40.1453 289.54 39.4769 290.22 39.4769 291.119V295.326H37.8672Z"/><path fill="#fff" d="M35.4133 287.089C34.8267 287.089 34.3902 286.654 34.3902 286.082C34.3902 285.524 34.8267 285.088 35.4133 285.088C35.9999 285.088 36.4364 285.524 36.4364 286.082C36.4364 286.654 35.9999 287.089 35.4133 287.089ZM34.5948 295.327V289.608H33.3398V288.192H36.2045V295.327H34.5948Z"/></g><path fill="#E4E4E7" d="M17.3178 308.193L16.7035 308.193L16.7035 303.25L19.7397 303.25L19.7397 303.815L17.3178 303.815L17.3178 305.467L19.3655 305.467L19.3655 306.032L17.3178 306.032L17.3178 308.193ZM23.6517 308.193L20.5167 308.193L20.5167 303.25L23.5599 303.25L23.5599 303.815L21.131 303.815L21.131 305.397L23.1716 305.397L23.1716 305.962L21.131 305.962L21.131 307.628L23.6517 307.628L23.6517 308.193ZM26.1756 308.193L24.5022 308.193L24.5022 303.25L26.1262 303.25C27.1924 303.25 27.7502 303.759 27.7502 304.557C27.7502 305.114 27.4325 305.467 26.9523 305.63C27.489 305.729 27.962 306.068 27.962 306.781C27.962 307.656 27.3689 308.193 26.1756 308.193ZM25.1165 303.808L25.1165 305.397L26.1545 305.397C26.8041 305.397 27.1359 305.1 27.1359 304.599C27.1359 304.105 26.8111 303.808 26.1545 303.808L25.1165 303.808ZM25.1165 305.948L25.1165 307.635L26.1756 307.635C26.9594 307.635 27.3336 307.317 27.3336 306.809C27.3336 306.251 26.9241 305.948 26.1756 305.948L25.1165 305.948ZM34.4208 308.193L31.1093 308.193L31.1093 307.692L32.9733 306.025C33.4252 305.623 33.7783 305.241 33.7783 304.712C33.7783 304.091 33.3687 303.737 32.7474 303.737C32.1401 303.737 31.7306 304.161 31.7306 304.839L31.7306 304.931L31.1375 304.931L31.1375 304.804C31.1375 303.872 31.773 303.208 32.7474 303.208C33.7783 303.208 34.3855 303.794 34.3855 304.684C34.3855 305.418 33.9265 305.891 33.3546 306.392L31.9283 307.649L34.4208 307.649L34.4208 308.193ZM37.03 308.235C36.3592 308.235 35.8649 307.917 35.5754 307.416C35.3424 307.014 35.1941 306.421 35.1941 305.743C35.1941 304.189 35.879 303.208 37.0229 303.208C37.8984 303.208 38.4916 303.745 38.6116 304.571L38.0185 304.571C37.9055 304.069 37.5666 303.73 36.9947 303.73C36.1685 303.73 35.7449 304.585 35.7449 305.559C35.7449 305.707 35.7378 305.679 35.7449 305.799C35.7449 305.785 35.7661 305.715 35.7872 305.665C35.9708 305.248 36.458 304.924 37.0864 304.924C38.0326 304.924 38.6963 305.566 38.6963 306.576C38.6963 307.529 38.0185 308.235 37.03 308.235ZM37.0229 307.713C37.6725 307.713 38.1032 307.24 38.1032 306.576C38.1032 305.919 37.6937 305.446 37.0441 305.446C36.3874 305.446 35.9355 305.912 35.9355 306.59C35.9355 307.254 36.3733 307.713 37.0229 307.713ZM44.3037 306.428L41.9524 306.428L41.9524 305.94L44.3037 305.94L44.3037 306.428ZM48.3044 308.193L47.7465 308.193L47.7465 303.25L48.4668 303.25L49.6812 306.089L50.8816 303.25L51.5806 303.25L51.5806 308.193L51.0228 308.193L51.0228 304.232L49.9142 306.823L49.42 306.823L48.3044 304.232L48.3044 308.193ZM52.9301 308.193L52.3017 308.193L54.0528 303.25L54.8083 303.25L56.5665 308.193L55.9098 308.193L55.4367 306.858L53.4102 306.858L52.9301 308.193ZM54.4129 303.921L53.5868 306.301L55.2531 306.301L54.4129 303.921ZM57.904 308.193L57.2897 308.193L57.2897 303.25L59.055 303.25C60.0576 303.25 60.7284 303.843 60.7284 304.768C60.7284 305.46 60.2977 305.997 59.6481 306.173L60.7778 308.193L60.0859 308.193L59.0197 306.293L57.904 306.293L57.904 308.193ZM57.904 303.815L57.904 305.729L59.0055 305.729C59.6693 305.729 60.1 305.347 60.1 304.768C60.1 304.189 59.6693 303.815 59.0126 303.815L57.904 303.815ZM65.7614 303.25L65.7614 307.642L67.0111 307.642L67.0111 308.193L63.8761 308.193L63.8761 307.642L65.1753 307.642L65.1753 304.726C65.1047 304.775 65.02 304.797 64.9141 304.797L63.8902 304.797L63.8902 304.267L64.8505 304.267C65.0694 304.267 65.1824 304.083 65.1824 303.843L65.1824 303.25L65.7614 303.25Z"/><path fill="#fff" fill-opacity=".5" d="M184.153 308.193L183.673 308.193L183.857 307.007L183.179 307.007L183.179 306.519L183.928 306.519L184.062 305.587L183.334 305.587L183.334 305.1L184.132 305.1L184.316 303.914L184.796 303.914L184.612 305.1L185.58 305.1L185.763 303.914L186.243 303.914L186.06 305.1L186.738 305.1L186.738 305.587L185.989 305.587L185.855 306.519L186.582 306.519L186.582 307.007L185.785 307.007L185.601 308.193L185.121 308.193L185.304 307.007L184.337 307.007L184.153 308.193ZM184.542 305.587L184.408 306.519L185.375 306.519L185.509 305.587L184.542 305.587ZM189.25 303.208C190.33 303.208 191.001 304.105 191.001 305.609L191.001 305.835C191.001 307.339 190.33 308.235 189.25 308.235C188.169 308.235 187.499 307.339 187.499 305.835L187.499 305.609C187.499 304.105 188.169 303.208 189.25 303.208ZM188.085 305.63L188.085 305.813C188.085 306.089 188.106 306.336 188.148 306.548L190.161 304.331C189.963 303.942 189.652 303.737 189.25 303.737C188.515 303.737 188.085 304.429 188.085 305.63ZM190.415 305.813L190.415 305.63C190.415 305.354 190.394 305.107 190.351 304.888L188.339 307.12C188.544 307.494 188.854 307.699 189.25 307.699C189.984 307.699 190.415 307.014 190.415 305.813ZM193.642 303.208C194.722 303.208 195.393 304.105 195.393 305.609L195.393 305.835C195.393 307.339 194.722 308.235 193.642 308.235C192.562 308.235 191.891 307.339 191.891 305.835L191.891 305.609C191.891 304.105 192.562 303.208 193.642 303.208ZM192.477 305.63L192.477 305.813C192.477 306.089 192.498 306.336 192.541 306.548L194.553 304.331C194.355 303.942 194.044 303.737 193.642 303.737C192.908 303.737 192.477 304.429 192.477 305.63ZM194.807 305.813L194.807 305.63C194.807 305.354 194.786 305.107 194.744 304.888L192.731 307.12C192.936 307.494 193.247 307.699 193.642 307.699C194.376 307.699 194.807 307.014 194.807 305.813ZM198.048 303.25L198.048 307.642L199.298 307.642L199.298 308.193L196.163 308.193L196.163 307.642L197.462 307.642L197.462 304.726C197.392 304.775 197.307 304.797 197.201 304.797L196.177 304.797L196.177 304.267L197.138 304.267C197.357 304.267 197.469 304.083 197.469 303.843L197.469 303.25L198.048 303.25ZM202.372 305.623C202.803 305.707 203.234 306.068 203.234 306.823C203.234 307.663 202.591 308.235 201.546 308.235C200.508 308.235 199.866 307.649 199.866 306.668L200.452 306.668C200.459 307.317 200.911 307.706 201.582 307.706C202.196 307.706 202.627 307.346 202.627 306.781C202.627 306.265 202.295 305.94 201.56 305.94L201.13 305.94L201.13 305.411L201.497 305.411C202.196 305.411 202.535 305.051 202.535 304.549C202.535 304.048 202.111 303.737 201.546 303.737C200.974 303.737 200.53 304.112 200.523 304.677L199.936 304.677C199.951 303.773 200.628 303.208 201.539 303.208C202.528 303.208 203.142 303.737 203.142 304.528C203.142 305.136 202.817 305.496 202.372 305.623ZM206.503 305.623C206.934 305.707 207.364 306.068 207.364 306.823C207.364 307.663 206.722 308.235 205.677 308.235C204.639 308.235 203.996 307.649 203.996 306.668L204.582 306.668C204.589 307.317 205.041 307.706 205.712 307.706C206.326 307.706 206.757 307.346 206.757 306.781C206.757 306.265 206.425 305.94 205.691 305.94L205.26 305.94L205.26 305.411L205.627 305.411C206.326 305.411 206.665 305.051 206.665 304.549C206.665 304.048 206.242 303.737 205.677 303.737C205.105 303.737 204.66 304.112 204.653 304.677L204.067 304.677C204.081 303.773 204.759 303.208 205.67 303.208C206.658 303.208 207.272 303.737 207.272 304.528C207.272 305.136 206.948 305.496 206.503 305.623ZM208.961 308.193L208.319 308.193L210.585 303.794L207.916 303.794L207.916 303.25L211.306 303.25L211.306 303.667L208.961 308.193ZM213.77 303.25L213.77 307.642L215.02 307.642L215.02 308.193L211.885 308.193L211.885 307.642L213.184 307.642L213.184 304.726C213.113 304.775 213.029 304.797 212.923 304.797L211.899 304.797L211.899 304.267L212.859 304.267C213.078 304.267 213.191 304.083 213.191 303.843L213.191 303.25L213.77 303.25Z"/><path fill="#fff" d="M18.0144 46.8452L18.0144 32.7235L20.2335 32.7235L25.2367 44.4445L30.1793 32.7235L32.3581 32.7235L32.3581 46.8452L30.6433 46.8452L30.6433 35.7092L25.9629 46.8452L24.4095 46.8452L19.7292 35.7092L19.7292 46.8452L18.0144 46.8452ZM43.7499 45.3322L44.2744 45.3322L44.2744 46.8452L43.3665 46.8452C42.7075 46.8452 42.2368 46.7107 41.9544 46.4417C41.6719 46.1728 41.524 45.776 41.5105 45.2515C40.717 46.3947 39.5671 46.9663 38.0608 46.9663C36.9176 46.9663 35.9963 46.6973 35.297 46.1593C34.6111 45.6213 34.2681 44.8883 34.2681 43.9603C34.2681 42.9248 34.6178 42.1312 35.3172 41.5798C36.03 41.0284 37.0588 40.7527 38.4038 40.7527L41.4299 40.7527L41.4299 40.0466C41.4299 39.3741 41.2012 38.8496 40.7439 38.473C40.3001 38.0965 39.6747 37.9082 38.8678 37.9082C38.155 37.9082 37.5632 38.0696 37.0925 38.3923C36.6352 38.7017 36.3528 39.1186 36.2452 39.6431L34.5909 39.6431C34.7119 38.6344 35.1558 37.8477 35.9224 37.2828C36.7024 36.7179 37.7111 36.4355 38.9485 36.4355C40.2665 36.4355 41.2819 36.7583 41.9947 37.4038C42.721 38.0359 43.0841 38.9505 43.0841 40.1475L43.0841 44.6463C43.0841 44.9152 43.1312 45.0968 43.2253 45.191C43.3329 45.2851 43.5078 45.3322 43.7499 45.3322ZM41.4299 42.649L41.4299 42.1447L38.2424 42.1447C36.7092 42.1447 35.9425 42.7163 35.9425 43.8595C35.9425 44.3705 36.1443 44.7808 36.5478 45.0901C36.9512 45.3994 37.4959 45.5541 38.1819 45.5541C39.1905 45.5541 39.9841 45.2918 40.5624 44.7673C41.1407 44.2293 41.4299 43.5232 41.4299 42.649ZM47.9558 46.9057L43.9412 36.5565L45.6963 36.5565L48.8636 44.7673L51.9301 36.5565L53.6852 36.5565L48.9443 48.5802C48.5946 49.4813 48.2651 50.0865 47.9558 50.3958C47.6465 50.7186 47.1488 50.88 46.4629 50.88L44.4859 50.88L44.4859 49.367L45.9586 49.367C46.4159 49.367 46.7252 49.293 46.8866 49.145C47.0614 48.9971 47.2497 48.6676 47.4514 48.1565L47.9558 46.9057ZM60.0376 46.8452L60.0376 32.7235L69.0352 32.7235L69.0352 34.3374L61.7927 34.3374L61.7927 38.8563L67.8247 38.8563L67.8247 40.4703L61.7927 40.4703L61.7927 45.2313L69.2974 45.2313L69.2974 46.8452L60.0376 46.8452ZM75.8669 36.4355C77.1177 36.4355 78.1196 36.8121 78.8728 37.5652C79.6394 38.3184 80.0227 39.5019 80.0227 41.1158L80.0227 46.8452L78.3684 46.8452L78.3684 41.2167C78.3684 40.1542 78.1264 39.3472 77.6422 38.7958C77.1715 38.231 76.4855 37.9485 75.5844 37.9485C74.6161 37.9485 73.8562 38.2848 73.3048 38.9572C72.7534 39.6297 72.4777 40.5442 72.4777 41.7009L72.4777 46.8452L70.8234 46.8452L70.8234 36.5565L72.2557 36.5565L72.4777 37.9485C73.2577 36.9398 74.3875 36.4355 75.8669 36.4355ZM89.9218 38.1301L89.9218 32.7235L91.576 32.7235L91.576 46.8452L90.1437 46.8452L89.9218 45.191C89.061 46.3745 87.8842 46.9663 86.3914 46.9663C84.9388 46.9663 83.7486 46.5023 82.8206 45.5743C81.906 44.6328 81.4487 43.3417 81.4487 41.7009C81.4487 40.1408 81.9127 38.8765 82.8407 37.9082C83.7687 36.9264 84.9523 36.4355 86.3914 36.4355C88.0322 36.4355 89.209 37.0003 89.9218 38.1301ZM86.5527 45.4936C87.5614 45.4936 88.3751 45.1439 88.9938 44.4445C89.6259 43.7452 89.942 42.8441 89.942 41.7412C89.942 40.6115 89.6259 39.6902 88.9938 38.9774C88.3751 38.2646 87.5614 37.9082 86.5527 37.9082C85.5306 37.9082 84.7035 38.2646 84.0714 38.9774C83.4527 39.6768 83.1434 40.5846 83.1434 41.7009C83.1434 42.8172 83.4527 43.7317 84.0714 44.4445C84.7035 45.1439 85.5306 45.4936 86.5527 45.4936ZM98.3687 46.9663C96.8355 46.9663 95.5981 46.4821 94.6567 45.5137C93.7287 44.5454 93.2647 43.2744 93.2647 41.7009C93.2647 40.1408 93.7152 38.8765 94.6163 37.9082C95.5174 36.9264 96.6942 36.4355 98.1468 36.4355C99.6127 36.4355 100.783 36.8726 101.657 37.7468C102.531 38.6075 102.988 39.7978 103.029 41.3176C103.029 41.4655 103.015 41.7009 102.988 42.0237L94.9996 42.0237L94.9996 42.1649C95.0265 43.1601 95.3291 43.9671 95.9075 44.5857C96.4992 45.191 97.2793 45.4936 98.2476 45.4936C98.9873 45.4936 99.6127 45.312 100.124 44.9489C100.648 44.5723 100.998 44.0545 101.173 43.3955L102.847 43.3955C102.646 44.4445 102.141 45.3053 101.334 45.9777C100.527 46.6368 99.5388 46.9663 98.3687 46.9663ZM95.1005 40.6518L101.254 40.6518C101.173 39.7776 100.857 39.0984 100.305 38.6143C99.7539 38.1301 99.0411 37.888 98.1669 37.888C97.3869 37.888 96.701 38.1435 96.1092 38.6546C95.5174 39.1657 95.1812 39.8314 95.1005 40.6518ZM109.476 36.5565L109.94 36.5565L109.94 38.1704L109.113 38.1704C108.131 38.1704 107.425 38.4999 106.994 39.159C106.578 39.818 106.369 40.6317 106.369 41.6L106.369 46.8452L104.715 46.8452L104.715 36.5565L106.147 36.5565L106.369 38.1099C107.001 37.0743 108.037 36.5565 109.476 36.5565Z"/><path fill="#ADADB0" d="M17.2599 61.8851C17.2599 60.3923 17.8006 59.1455 18.8819 58.1449C19.9632 57.1362 21.2826 56.6318 22.84 56.6318C24.3329 56.6318 25.5514 57.0434 26.4955 57.8665C27.4397 58.6896 27.9117 59.7427 27.9117 61.0257C27.9117 61.9779 27.6696 62.7566 27.1855 63.3619C26.7013 63.9671 26.084 64.2697 25.3335 64.2697C24.9704 64.2697 24.6718 64.1809 24.4378 64.0034C24.2118 63.8259 24.0827 63.612 24.0504 63.3619L24.0262 63.1803C23.889 63.5031 23.651 63.7653 23.3121 63.9671C22.9732 64.1607 22.5898 64.2576 22.1622 64.2576C21.5489 64.2576 21.0284 64.0437 20.6007 63.616C20.1811 63.1803 19.9713 62.6235 19.9713 61.9456C19.9713 61.179 20.2214 60.5254 20.7217 59.9847C21.2221 59.436 21.8111 59.1616 22.489 59.1616C22.9409 59.1616 23.3121 59.2464 23.6026 59.4158C23.8931 59.5853 24.0868 59.8072 24.1836 60.0816L24.3652 59.2706L25.1398 59.2706L24.7767 62.7203C24.7202 63.2691 24.9542 63.5434 25.4788 63.5434C25.8822 63.5434 26.2292 63.3013 26.5197 62.8172C26.8183 62.3249 26.9676 61.7197 26.9676 61.0015C26.9676 59.9444 26.5883 59.089 25.8298 58.4354C25.0712 57.7817 24.0706 57.4549 22.8279 57.4549C21.4561 57.4549 20.3425 57.8786 19.4871 58.7259C18.6317 59.5651 18.204 60.6142 18.204 61.873C18.204 63.1399 18.5914 64.1365 19.3661 64.8628C20.1488 65.581 21.2503 65.9401 22.6705 65.9401C23.7438 65.9401 24.6678 65.6899 25.4424 65.1896L25.4182 66.0732C24.7242 66.5332 23.7801 66.7632 22.5858 66.7632C21.0122 66.7632 19.7292 66.3153 18.7366 65.4196C17.7521 64.5319 17.2599 63.3538 17.2599 61.8851ZM24.0504 61.3525C24.0504 60.9006 23.9213 60.5456 23.6631 60.2873C23.4129 60.0211 23.0821 59.8879 22.6705 59.8879C22.1702 59.8879 21.7466 60.0856 21.3996 60.481C21.0607 60.8764 20.8912 61.3525 20.8912 61.9093C20.8912 62.3935 21.0203 62.7849 21.2785 63.0835C21.5448 63.382 21.8878 63.5313 22.3074 63.5313C22.8077 63.5313 23.2233 63.3296 23.5542 62.9261C23.885 62.5226 24.0504 61.9981 24.0504 61.3525ZM36.0994 58.617C36.7934 58.617 37.3542 58.8348 37.7819 59.2706C38.2176 59.7063 38.4355 60.3842 38.4355 61.3041L38.4355 64.8628L37.443 64.8628L37.443 61.3646C37.443 60.7675 37.3138 60.3116 37.0556 59.9968C36.8055 59.6821 36.4464 59.5248 35.9783 59.5248C35.4619 59.5248 35.0544 59.7063 34.7558 60.0695C34.4653 60.4326 34.32 60.9289 34.32 61.5583L34.32 64.8628L33.3275 64.8628L33.3275 61.3646C33.3275 60.7675 33.1984 60.3116 32.9401 59.9968C32.6819 59.6821 32.3147 59.5248 31.8386 59.5248C31.3383 59.5248 30.9389 59.7184 30.6403 60.1058C30.3498 60.4851 30.2046 60.9854 30.2046 61.6067L30.2046 64.8628L29.212 64.8628L29.212 58.6896L30.0714 58.6896L30.2046 59.5369C30.6484 58.9236 31.2496 58.617 32.0081 58.617C32.4519 58.617 32.8433 58.7178 33.1822 58.9196C33.5292 59.1132 33.7874 59.4037 33.9569 59.7911C34.4007 59.0083 35.1149 58.617 36.0994 58.617ZM45.1678 63.955L45.4825 63.955L45.4825 64.8628L44.9378 64.8628C44.5424 64.8628 44.26 64.7821 44.0905 64.6207C43.921 64.4593 43.8323 64.2213 43.8242 63.9066C43.3481 64.5925 42.6582 64.9354 41.7544 64.9354C41.0685 64.9354 40.5157 64.774 40.0961 64.4512C39.6845 64.1285 39.4788 63.6887 39.4788 63.1319C39.4788 62.5105 39.6886 62.0344 40.1082 61.7036C40.5359 61.3727 41.1532 61.2073 41.9601 61.2073L43.7758 61.2073L43.7758 60.7836C43.7758 60.3802 43.6386 60.0654 43.3642 59.8395C43.098 59.6135 42.7227 59.5006 42.2385 59.5006C41.8109 59.5006 41.4558 59.5974 41.1734 59.7911C40.899 59.9767 40.7295 60.2268 40.665 60.5415L39.6724 60.5415C39.745 59.9363 40.0113 59.4643 40.4713 59.1253C40.9393 58.7864 41.5446 58.617 42.287 58.617C43.0778 58.617 43.687 58.8106 44.1147 59.198C44.5505 59.5772 44.7684 60.126 44.7684 60.8442L44.7684 63.5434C44.7684 63.7048 44.7966 63.8138 44.8531 63.8702C44.9176 63.9267 45.0225 63.955 45.1678 63.955ZM43.7758 62.3451L43.7758 62.0425L41.8633 62.0425C40.9434 62.0425 40.4834 62.3854 40.4834 63.0714C40.4834 63.378 40.6045 63.6241 40.8465 63.8097C41.0886 63.9953 41.4154 64.0881 41.827 64.0881C42.4322 64.0881 42.9083 63.9308 43.2553 63.616C43.6023 63.2933 43.7758 62.8696 43.7758 62.3451ZM47.8124 64.8991L45.4036 58.6896L46.4567 58.6896L48.3571 63.616L50.197 58.6896L51.25 58.6896L48.4055 65.9038C48.1957 66.4444 47.998 66.8076 47.8124 66.9932C47.6268 67.1868 47.3282 67.2837 46.9167 67.2837L45.7305 67.2837L45.7305 66.3758L46.6141 66.3758C46.8884 66.3758 47.074 66.3315 47.1709 66.2427C47.2758 66.1539 47.3888 65.9562 47.5098 65.6496L47.8124 64.8991ZM54.563 64.9354C53.6431 64.9354 52.9007 64.6449 52.3358 64.0639C51.779 63.4829 51.5006 62.7203 51.5006 61.7762C51.5006 60.8401 51.771 60.0816 52.3116 59.5006C52.8523 58.9115 53.5584 58.617 54.4299 58.617C55.3095 58.617 56.0115 58.8792 56.536 59.4037C57.0606 59.9202 57.3349 60.6343 57.3591 61.5462C57.3591 61.635 57.3511 61.7762 57.3349 61.9699L52.5416 61.9699L52.5416 62.0546C52.5578 62.6517 52.7393 63.1359 53.0863 63.5071C53.4414 63.8702 53.9094 64.0518 54.4904 64.0518C54.9342 64.0518 55.3095 63.9429 55.6161 63.725C55.9308 63.499 56.1406 63.1884 56.2455 62.793L57.2502 62.793C57.1292 63.4224 56.8266 63.9388 56.3424 64.3423C55.8582 64.7377 55.2651 64.9354 54.563 64.9354ZM52.6021 61.1468L56.294 61.1468C56.2455 60.6222 56.0559 60.2147 55.7251 59.9242C55.3942 59.6337 54.9665 59.4885 54.442 59.4885C53.974 59.4885 53.5624 59.6418 53.2074 59.9484C52.8523 60.2551 52.6506 60.6545 52.6021 61.1468ZM61.5178 58.617C62.2683 58.617 62.8695 58.8429 63.3214 59.2948C63.7814 59.7467 64.0113 60.4568 64.0113 61.4252L64.0113 64.8628L63.0188 64.8628L63.0188 61.4857C63.0188 60.8482 62.8735 60.364 62.583 60.0332C62.3006 59.6942 61.889 59.5248 61.3484 59.5248C60.7674 59.5248 60.3114 59.7265 59.9806 60.13C59.6497 60.5335 59.4843 61.0822 59.4843 61.7762L59.4843 64.8628L58.4918 64.8628L58.4918 58.6896L59.3512 58.6896L59.4843 59.5248C59.9523 58.9196 60.6302 58.617 61.5178 58.617ZM70.0718 59.6337L70.0718 56.3898L71.0644 56.3898L71.0644 64.8628L70.205 64.8628L70.0718 63.8702C69.5554 64.5804 68.8493 64.9354 67.9536 64.9354C67.0821 64.9354 66.3679 64.657 65.8111 64.1002C65.2624 63.5354 64.988 62.7607 64.988 61.7762C64.988 60.8401 65.2664 60.0816 65.8232 59.5006C66.38 58.9115 67.0901 58.617 67.9536 58.617C68.9381 58.617 69.6441 58.9559 70.0718 59.6337ZM68.0504 64.0518C68.6556 64.0518 69.1438 63.842 69.515 63.4224C69.8943 63.0028 70.0839 62.4621 70.0839 61.8004C70.0839 61.1226 69.8943 60.5698 69.515 60.1421C69.1438 59.7144 68.6556 59.5006 68.0504 59.5006C67.4371 59.5006 66.9408 59.7144 66.5616 60.1421C66.1904 60.5617 66.0048 61.1064 66.0048 61.7762C66.0048 62.446 66.1904 62.9947 66.5616 63.4224C66.9408 63.842 67.4371 64.0518 68.0504 64.0518ZM75.261 64.9354C74.3411 64.9354 73.5987 64.6449 73.0338 64.0639C72.477 63.4829 72.1986 62.7203 72.1986 61.7762C72.1986 60.8401 72.4689 60.0816 73.0096 59.5006C73.5503 58.9115 74.2563 58.617 75.1279 58.617C76.0074 58.617 76.7095 58.8792 77.234 59.4037C77.7585 59.9202 78.0329 60.6343 78.0571 61.5462C78.0571 61.635 78.049 61.7762 78.0329 61.9699L73.2396 61.9699L73.2396 62.0546C73.2557 62.6517 73.4373 63.1359 73.7843 63.5071C74.1393 63.8702 74.6074 64.0518 75.1884 64.0518C75.6322 64.0518 76.0074 63.9429 76.3141 63.725C76.6288 63.499 76.8386 63.1884 76.9435 62.793L77.9482 62.793C77.8271 63.4224 77.5245 63.9388 77.0403 64.3423C76.5562 64.7377 75.9631 64.9354 75.261 64.9354ZM73.3001 61.1468L76.9919 61.1468C76.9435 60.6222 76.7539 60.2147 76.423 59.9242C76.0922 59.6337 75.6645 59.4885 75.14 59.4885C74.6719 59.4885 74.2604 59.6418 73.9053 59.9484C73.5503 60.2551 73.3485 60.6545 73.3001 61.1468ZM82.0463 58.6896L82.3247 58.6896L82.3247 59.6579L81.8285 59.6579C81.2394 59.6579 80.8157 59.8556 80.5575 60.251C80.3073 60.6464 80.1823 61.1347 80.1823 61.7157L80.1823 64.8628L79.1897 64.8628L79.1897 58.6896L80.0491 58.6896L80.1823 59.6216C80.5615 59.0003 81.1829 58.6896 82.0463 58.6896Z"/></g><defs><filter id="filter0_b_2060_26186" width="248.139" height="340.139" x="-8.07" y="-7.468" color-interpolation-filters="sRGB" filterUnits="userSpaceOnUse"><feFlood flood-opacity="0" result="BackgroundImageFix"/><feGaussianBlur in="BackgroundImageFix" stdDeviation="4.035"/><feComposite in2="SourceAlpha" operator="in" result="effect1_backgroundBlur_2060_26186"/><feBlend in="SourceGraphic" in2="effect1_backgroundBlur_2060_26186" mode="normal" result="shape"/></filter><filter id="filter1_f_2060_26186" width="446.085" height="471.404" x="-125.948" y="-84.488" color-interpolation-filters="sRGB" filterUnits="userSpaceOnUse"><feFlood flood-opacity="0" result="BackgroundImageFix"/><feBlend in="SourceGraphic" in2="BackgroundImageFix" mode="normal" result="shape"/><feGaussianBlur result="effect1_foregroundBlur_2060_26186" stdDeviation="40.348"/></filter><linearGradient id="paint0_linear_2060_26186" x1="232" x2="-10.522" y1=".602" y2="328.571" gradientUnits="userSpaceOnUse"><stop stop-color="#232325"/><stop offset="1" stop-color="#232325" stop-opacity="0"/><stop offset="1" stop-color="#232325" stop-opacity=".2"/></linearGradient><linearGradient id="paint1_linear_2060_26186" x1="221.913" x2="130.456" y1="-6.442" y2="36.748" gradientUnits="userSpaceOnUse"><stop stop-color="#fff"/><stop offset="1" stop-color="#fff" stop-opacity=".08"/></linearGradient><linearGradient id="paint2_linear_2060_26186" x1="168.72" x2="-14.358" y1="44.347" y2="295.15" gradientUnits="userSpaceOnUse"><stop stop-color="#fff"/><stop offset="1" stop-color="#fff" stop-opacity="0"/></linearGradient><linearGradient id="paint3_linear_2060_26186" x1="211.826" x2="211.826" y1=".602" y2="325.402" gradientUnits="userSpaceOnUse"><stop stop-color="#D9D9D9"/><stop offset=".199" stop-color="#D9D9D9" stop-opacity=".4"/><stop offset=".392" stop-color="#D9D9D9"/><stop offset=".58" stop-color="#D9D9D9" stop-opacity=".4"/><stop offset=".754" stop-color="#D9D9D9"/><stop offset=".964" stop-color="#D9D9D9" stop-opacity=".4"/></linearGradient><linearGradient id="paint4_linear_2060_26186" x1="3.32" x2="40.348" y1="146.546" y2="146.546" gradientUnits="userSpaceOnUse"><stop stop-color="#222224"/><stop offset="1" stop-color="#222224" stop-opacity="0"/></linearGradient><clipPath id="clip0_2060_26186"><rect width="232" height="324" y=".602" fill="#fff" rx="8"/></clipPath><clipPath id="clip1_2060_26186"><rect width="28.748" height="12.104" fill="#fff" transform="translate(33.2871 285.054)"/></clipPath></defs></svg>