<svg xmlns="http://www.w3.org/2000/svg" width="232" height="325" fill="none" viewBox="0 0 232 325"><g clip-path="url(#clip0_2060_26177)"><g filter="url(#filter0_d_2060_26177)"><g clip-path="url(#clip1_2060_26177)"><g filter="url(#filter1_b_2060_26177)"><mask id="path-3-inside-1_2060_26177" fill="#fff"><path fill-rule="evenodd" d="M0.87953 5.00762C0 6.7338 0 8.99349 0 13.5129V312.49C0 317.01 0 319.269 0.87953 320.995C1.65319 322.514 2.88767 323.748 4.40606 324.522C6.13223 325.402 8.39192 325.402 12.9113 325.402H219.089C223.608 325.402 225.868 325.402 227.594 324.522C229.112 323.748 230.347 322.514 231.12 320.995C232 319.269 232 317.01 232 312.49V13.5129C232 8.99349 232 6.7338 231.12 5.00762C230.347 3.48924 229.112 2.25475 227.594 1.48109C225.868 0.601562 223.608 0.601562 219.089 0.601562H12.9113C8.39192 0.601562 6.13223 0.601562 4.40606 1.48109C2.88767 2.25475 1.65319 3.48924 0.87953 5.00762ZM97.8435 8.67113C96.7293 8.67113 95.8261 9.57434 95.8261 10.6885C95.8261 11.8027 96.7293 12.7059 97.8435 12.7059H134.157C135.271 12.7059 136.174 11.8027 136.174 10.6885C136.174 9.57434 135.271 8.67113 134.157 8.67113H97.8435Z" clip-rule="evenodd"/></mask><path fill="#151518" fill-rule="evenodd" d="M0.87953 5.00762C0 6.7338 0 8.99349 0 13.5129V312.49C0 317.01 0 319.269 0.87953 320.995C1.65319 322.514 2.88767 323.748 4.40606 324.522C6.13223 325.402 8.39192 325.402 12.9113 325.402H219.089C223.608 325.402 225.868 325.402 227.594 324.522C229.112 323.748 230.347 322.514 231.12 320.995C232 319.269 232 317.01 232 312.49V13.5129C232 8.99349 232 6.7338 231.12 5.00762C230.347 3.48924 229.112 2.25475 227.594 1.48109C225.868 0.601562 223.608 0.601562 219.089 0.601562H12.9113C8.39192 0.601562 6.13223 0.601562 4.40606 1.48109C2.88767 2.25475 1.65319 3.48924 0.87953 5.00762ZM97.8435 8.67113C96.7293 8.67113 95.8261 9.57434 95.8261 10.6885C95.8261 11.8027 96.7293 12.7059 97.8435 12.7059H134.157C135.271 12.7059 136.174 11.8027 136.174 10.6885C136.174 9.57434 135.271 8.67113 134.157 8.67113H97.8435Z" clip-rule="evenodd"/><path fill="#FD366E" fill-opacity=".12" fill-rule="evenodd" d="M0.87953 5.00762C0 6.7338 0 8.99349 0 13.5129V312.49C0 317.01 0 319.269 0.87953 320.995C1.65319 322.514 2.88767 323.748 4.40606 324.522C6.13223 325.402 8.39192 325.402 12.9113 325.402H219.089C223.608 325.402 225.868 325.402 227.594 324.522C229.112 323.748 230.347 322.514 231.12 320.995C232 319.269 232 317.01 232 312.49V13.5129C232 8.99349 232 6.7338 231.12 5.00762C230.347 3.48924 229.112 2.25475 227.594 1.48109C225.868 0.601562 223.608 0.601562 219.089 0.601562H12.9113C8.39192 0.601562 6.13223 0.601562 4.40606 1.48109C2.88767 2.25475 1.65319 3.48924 0.87953 5.00762ZM97.8435 8.67113C96.7293 8.67113 95.8261 9.57434 95.8261 10.6885C95.8261 11.8027 96.7293 12.7059 97.8435 12.7059H134.157C135.271 12.7059 136.174 11.8027 136.174 10.6885C136.174 9.57434 135.271 8.67113 134.157 8.67113H97.8435Z" clip-rule="evenodd"/><path fill="url(#paint0_linear_2060_26177)" fill-opacity=".48" d="M0.87953 5.00762L0.430153 4.77865L0.430153 4.77865L0.87953 5.00762ZM0.87953 320.995L1.32891 320.767L1.32891 320.767L0.87953 320.995ZM4.40606 324.522L4.17708 324.971L4.17709 324.971L4.40606 324.522ZM227.594 324.522L227.823 324.971L227.823 324.971L227.594 324.522ZM231.12 320.995L230.671 320.767L230.671 320.767L231.12 320.995ZM231.12 5.00762L230.671 5.23659L230.671 5.23659L231.12 5.00762ZM227.594 1.48109L227.823 1.03172L227.823 1.03171L227.594 1.48109ZM4.40606 1.48109L4.17709 1.03172L4.17709 1.03172L4.40606 1.48109ZM0.504348 13.5129C0.504348 11.2449 0.50474 9.57418 0.612614 8.25386C0.720007 6.93944 0.931407 6.01673 1.32891 5.23659L0.430153 4.77865C-0.0518769 5.72469 -0.280242 6.79492 -0.392732 8.17172C-0.50474 9.54265 -0.504348 11.2615 -0.504348 13.5129H0.504348ZM0.504348 312.49V13.5129H-0.504348V312.49H0.504348ZM1.32891 320.767C0.931407 319.986 0.720007 319.064 0.612614 317.749C0.50474 316.429 0.504348 314.758 0.504348 312.49H-0.504348C-0.504348 314.742 -0.50474 316.46 -0.392732 317.831C-0.280242 319.208 -0.0518769 320.278 0.430153 321.224L1.32891 320.767ZM4.63503 324.073C3.21154 323.347 2.05421 322.19 1.32891 320.767L0.430152 321.224C1.25216 322.838 2.56381 324.149 4.17708 324.971L4.63503 324.073ZM12.9113 324.897C10.6433 324.897 8.97261 324.897 7.6523 324.789C6.33787 324.682 5.41516 324.47 4.63503 324.073L4.17709 324.971C5.12313 325.453 6.19335 325.682 7.57016 325.794C8.94107 325.906 10.6599 325.906 12.9113 325.906V324.897ZM219.089 324.897H12.9113V325.906H219.089V324.897ZM227.365 324.073C226.585 324.47 225.662 324.682 224.348 324.789C223.027 324.897 221.357 324.897 219.089 324.897V325.906C221.34 325.906 223.059 325.906 224.43 325.794C225.807 325.682 226.877 325.453 227.823 324.971L227.365 324.073ZM230.671 320.767C229.946 322.19 228.788 323.347 227.365 324.073L227.823 324.971C229.436 324.149 230.748 322.838 231.57 321.224L230.671 320.767ZM231.496 312.49C231.496 314.758 231.495 316.429 231.387 317.749C231.28 319.064 231.069 319.986 230.671 320.767L231.57 321.224C232.052 320.278 232.28 319.208 232.393 317.831C232.505 316.46 232.504 314.742 232.504 312.49H231.496ZM231.496 13.5129V312.49H232.504V13.5129H231.496ZM230.671 5.23659C231.069 6.01673 231.28 6.93943 231.387 8.25386C231.495 9.57418 231.496 11.2449 231.496 13.5129H232.504C232.504 11.2615 232.505 9.54264 232.393 8.17172C232.28 6.79492 232.052 5.72469 231.57 4.77865L230.671 5.23659ZM227.365 1.93047C228.788 2.65577 229.946 3.8131 230.671 5.23659L231.57 4.77865C230.748 3.16537 229.436 1.85373 227.823 1.03172L227.365 1.93047ZM219.089 1.10591C221.357 1.10591 223.027 1.1063 224.348 1.21418C225.662 1.32157 226.585 1.53297 227.365 1.93047L227.823 1.03171C226.877 0.549686 225.807 0.32132 224.43 0.208831C223.059 0.0968225 221.34 0.0972147 219.089 0.0972147V1.10591ZM12.9113 1.10591H219.089V0.0972147H12.9113V1.10591ZM4.63503 1.93047C5.41517 1.53297 6.33787 1.32157 7.6523 1.21418C8.97261 1.1063 10.6433 1.10591 12.9113 1.10591V0.0972147C10.6599 0.0972147 8.94108 0.0968225 7.57016 0.208831C6.19335 0.32132 5.12313 0.549686 4.17709 1.03172L4.63503 1.93047ZM1.32891 5.23659C2.05421 3.8131 3.21154 2.65577 4.63503 1.93047L4.17709 1.03172C2.5638 1.85373 1.25216 3.16537 0.430153 4.77865L1.32891 5.23659ZM96.3304 10.6885C96.3304 9.85289 97.0078 9.17548 97.8435 9.17548V8.16678C96.4508 8.16678 95.3217 9.2958 95.3217 10.6885H96.3304ZM97.8435 12.2016C97.0078 12.2016 96.3304 11.5241 96.3304 10.6885H95.3217C95.3217 12.0812 96.4508 13.2103 97.8435 13.2103V12.2016ZM134.157 12.2016H97.8435V13.2103H134.157V12.2016ZM135.67 10.6885C135.67 11.5241 134.992 12.2016 134.157 12.2016V13.2103C135.549 13.2103 136.678 12.0812 136.678 10.6885H135.67ZM134.157 9.17548C134.992 9.17548 135.67 9.85289 135.67 10.6885H136.678C136.678 9.2958 135.549 8.16678 134.157 8.16678V9.17548ZM97.8435 9.17548H134.157V8.16678H97.8435V9.17548Z" mask="url(#path-3-inside-1_2060_26177)"/><path fill="url(#paint1_linear_2060_26177)" d="M0.87953 5.00762L0.430153 4.77865L0.430153 4.77865L0.87953 5.00762ZM0.87953 320.995L1.32891 320.767L1.32891 320.767L0.87953 320.995ZM4.40606 324.522L4.17708 324.971L4.17709 324.971L4.40606 324.522ZM227.594 324.522L227.823 324.971L227.823 324.971L227.594 324.522ZM231.12 320.995L230.671 320.767L230.671 320.767L231.12 320.995ZM231.12 5.00762L230.671 5.23659L230.671 5.23659L231.12 5.00762ZM227.594 1.48109L227.823 1.03172L227.823 1.03171L227.594 1.48109ZM4.40606 1.48109L4.17709 1.03172L4.17709 1.03172L4.40606 1.48109ZM0.504348 13.5129C0.504348 11.2449 0.50474 9.57418 0.612614 8.25386C0.720007 6.93944 0.931407 6.01673 1.32891 5.23659L0.430153 4.77865C-0.0518769 5.72469 -0.280242 6.79492 -0.392732 8.17172C-0.50474 9.54265 -0.504348 11.2615 -0.504348 13.5129H0.504348ZM0.504348 312.49V13.5129H-0.504348V312.49H0.504348ZM1.32891 320.767C0.931407 319.986 0.720007 319.064 0.612614 317.749C0.50474 316.429 0.504348 314.758 0.504348 312.49H-0.504348C-0.504348 314.742 -0.50474 316.46 -0.392732 317.831C-0.280242 319.208 -0.0518769 320.278 0.430153 321.224L1.32891 320.767ZM4.63503 324.073C3.21154 323.347 2.05421 322.19 1.32891 320.767L0.430152 321.224C1.25216 322.838 2.56381 324.149 4.17708 324.971L4.63503 324.073ZM12.9113 324.897C10.6433 324.897 8.97261 324.897 7.6523 324.789C6.33787 324.682 5.41516 324.47 4.63503 324.073L4.17709 324.971C5.12313 325.453 6.19335 325.682 7.57016 325.794C8.94107 325.906 10.6599 325.906 12.9113 325.906V324.897ZM219.089 324.897H12.9113V325.906H219.089V324.897ZM227.365 324.073C226.585 324.47 225.662 324.682 224.348 324.789C223.027 324.897 221.357 324.897 219.089 324.897V325.906C221.34 325.906 223.059 325.906 224.43 325.794C225.807 325.682 226.877 325.453 227.823 324.971L227.365 324.073ZM230.671 320.767C229.946 322.19 228.788 323.347 227.365 324.073L227.823 324.971C229.436 324.149 230.748 322.838 231.57 321.224L230.671 320.767ZM231.496 312.49C231.496 314.758 231.495 316.429 231.387 317.749C231.28 319.064 231.069 319.986 230.671 320.767L231.57 321.224C232.052 320.278 232.28 319.208 232.393 317.831C232.505 316.46 232.504 314.742 232.504 312.49H231.496ZM231.496 13.5129V312.49H232.504V13.5129H231.496ZM230.671 5.23659C231.069 6.01673 231.28 6.93943 231.387 8.25386C231.495 9.57418 231.496 11.2449 231.496 13.5129H232.504C232.504 11.2615 232.505 9.54264 232.393 8.17172C232.28 6.79492 232.052 5.72469 231.57 4.77865L230.671 5.23659ZM227.365 1.93047C228.788 2.65577 229.946 3.8131 230.671 5.23659L231.57 4.77865C230.748 3.16537 229.436 1.85373 227.823 1.03172L227.365 1.93047ZM219.089 1.10591C221.357 1.10591 223.027 1.1063 224.348 1.21418C225.662 1.32157 226.585 1.53297 227.365 1.93047L227.823 1.03171C226.877 0.549686 225.807 0.32132 224.43 0.208831C223.059 0.0968225 221.34 0.0972147 219.089 0.0972147V1.10591ZM12.9113 1.10591H219.089V0.0972147H12.9113V1.10591ZM4.63503 1.93047C5.41517 1.53297 6.33787 1.32157 7.6523 1.21418C8.97261 1.1063 10.6433 1.10591 12.9113 1.10591V0.0972147C10.6599 0.0972147 8.94108 0.0968225 7.57016 0.208831C6.19335 0.32132 5.12313 0.549686 4.17709 1.03172L4.63503 1.93047ZM1.32891 5.23659C2.05421 3.8131 3.21154 2.65577 4.63503 1.93047L4.17709 1.03172C2.5638 1.85373 1.25216 3.16537 0.430153 4.77865L1.32891 5.23659ZM96.3304 10.6885C96.3304 9.85289 97.0078 9.17548 97.8435 9.17548V8.16678C96.4508 8.16678 95.3217 9.2958 95.3217 10.6885H96.3304ZM97.8435 12.2016C97.0078 12.2016 96.3304 11.5241 96.3304 10.6885H95.3217C95.3217 12.0812 96.4508 13.2103 97.8435 13.2103V12.2016ZM134.157 12.2016H97.8435V13.2103H134.157V12.2016ZM135.67 10.6885C135.67 11.5241 134.992 12.2016 134.157 12.2016V13.2103C135.549 13.2103 136.678 12.0812 136.678 10.6885H135.67ZM134.157 9.17548C134.992 9.17548 135.67 9.85289 135.67 10.6885H136.678C136.678 9.2958 135.549 8.16678 134.157 8.16678V9.17548ZM97.8435 9.17548H134.157V8.16678H97.8435V9.17548Z" mask="url(#path-3-inside-1_2060_26177)"/></g><path fill="#fff" d="M26.205 46.8452L18.0144 46.8452L18.0144 32.7235L19.7695 32.7235L19.7695 45.2313L26.205 45.2313L26.205 46.8452ZM36.421 45.3322L36.9456 45.3322L36.9456 46.8452L36.0377 46.8452C35.3787 46.8452 34.908 46.7107 34.6256 46.4417C34.3431 46.1728 34.1952 45.776 34.1817 45.2515C33.3882 46.3947 32.2383 46.9663 30.732 46.9663C29.5888 46.9663 28.6675 46.6973 27.9682 46.1593C27.2823 45.6213 26.9393 44.8883 26.9393 43.9603C26.9393 42.9248 27.289 42.1312 27.9884 41.5798C28.7012 41.0284 29.73 40.7527 31.075 40.7527L34.1011 40.7527L34.1011 40.0466C34.1011 39.3741 33.8724 38.8496 33.4151 38.473C32.9713 38.0965 32.3459 37.9082 31.539 37.9082C30.8262 37.9082 30.2344 38.0696 29.7637 38.3923C29.3064 38.7017 29.0239 39.1186 28.9164 39.6431L27.2621 39.6431C27.3831 38.6344 27.827 37.8477 28.5936 37.2828C29.3736 36.7179 30.3823 36.4355 31.6197 36.4355C32.9377 36.4355 33.9531 36.7583 34.6659 37.4038C35.3922 38.0359 35.7553 38.9505 35.7553 40.1475L35.7553 44.6463C35.7553 44.9152 35.8024 45.0968 35.8965 45.191C36.0041 45.2851 36.179 45.3322 36.421 45.3322ZM34.101 42.649L34.101 42.1447L30.9136 42.1447C29.3804 42.1447 28.6137 42.7163 28.6137 43.8595C28.6137 44.3705 28.8155 44.7808 29.219 45.0901C29.6224 45.3994 30.1671 45.5541 30.853 45.5541C31.8617 45.5541 32.6553 45.2918 33.2336 44.7673C33.8119 44.2293 34.101 43.5232 34.101 42.649ZM45.2177 41.7009L45.2177 36.5565L46.8719 36.5565L46.8719 46.8452L45.4396 46.8452L45.2177 45.4734C44.4376 46.4686 43.3415 46.9663 41.9293 46.9663C40.7054 46.9663 39.7236 46.5897 38.9839 45.8365C38.2442 45.0834 37.8744 43.8998 37.8744 42.2859L37.8744 36.5565L39.5286 36.5565L39.5286 42.185C39.5286 43.2475 39.7573 44.0612 40.2145 44.6261C40.6853 45.1775 41.351 45.4532 42.2118 45.4532C43.1532 45.4532 43.8862 45.117 44.4107 44.4445C44.9487 43.7721 45.2177 42.8575 45.2177 41.7009ZM53.6863 36.5565L54.1503 36.5565L54.1503 38.1704L53.3232 38.1704C52.3414 38.1704 51.6353 38.4999 51.2049 39.159C50.788 39.818 50.5795 40.6317 50.5795 41.6L50.5795 46.8452L48.9252 46.8452L48.9252 36.5565L50.3576 36.5565L50.5795 38.1099C51.2116 37.0743 52.2472 36.5565 53.6863 36.5565ZM64.1263 45.3322L64.6508 45.3322L64.6508 46.8452L63.743 46.8452C63.084 46.8452 62.6133 46.7107 62.3308 46.4417C62.0484 46.1728 61.9004 45.776 61.887 45.2515C61.0935 46.3947 59.9436 46.9663 58.4373 46.9663C57.2941 46.9663 56.3728 46.6973 55.6734 46.1593C54.9875 45.6213 54.6446 44.8883 54.6446 43.9603C54.6446 42.9248 54.9942 42.1312 55.6936 41.5798C56.4064 41.0284 57.4353 40.7527 58.7802 40.7527L61.8063 40.7527L61.8063 40.0466C61.8063 39.3741 61.5777 38.8496 61.1204 38.473C60.6766 38.0965 60.0512 37.9082 59.2442 37.9082C58.5314 37.9082 57.9396 38.0696 57.4689 38.3923C57.0116 38.7017 56.7292 39.1186 56.6216 39.6431L54.9673 39.6431C55.0884 38.6344 55.5322 37.8477 56.2988 37.2828C57.0789 36.7179 58.0876 36.4355 59.3249 36.4355C60.6429 36.4355 61.6584 36.7583 62.3712 37.4038C63.0974 38.0359 63.4606 38.9505 63.4606 40.1475L63.4606 44.6463C63.4606 44.9152 63.5076 45.0968 63.6018 45.191C63.7094 45.2851 63.8842 45.3322 64.1263 45.3322ZM61.8063 42.649L61.8063 42.1447L58.6188 42.1447C57.0856 42.1447 56.319 42.7163 56.319 43.8595C56.319 44.3706 56.5207 44.7808 56.9242 45.0901C57.3277 45.3994 57.8724 45.5541 58.5583 45.5541C59.567 45.5541 60.3605 45.2918 60.9388 44.7673C61.5171 44.2293 61.8063 43.5232 61.8063 42.649ZM75.56 46.8452L71.0411 46.8452L71.0411 32.7235L75.56 32.7235C77.7522 32.7235 79.4805 33.369 80.7447 34.6602C82.0224 35.9379 82.6612 37.6459 82.6612 39.7843C82.6612 41.9093 82.0224 43.6174 80.7447 44.9085C79.4805 46.1997 77.7522 46.8452 75.56 46.8452ZM72.7962 34.3374L72.7962 45.2313L75.56 45.2313C77.2412 45.2313 78.5458 44.7404 79.4738 43.7586C80.4018 42.7768 80.8658 41.4521 80.8658 39.7843C80.8658 38.1032 80.4018 36.7784 79.4738 35.8101C78.5592 34.8283 77.2546 34.3374 75.56 34.3374L72.7962 34.3374ZM91.6295 41.7009L91.6295 36.5565L93.2837 36.5565L93.2837 46.8452L91.8514 46.8452L91.6295 45.4734C90.8494 46.4686 89.7533 46.9663 88.3411 46.9663C87.1172 46.9663 86.1354 46.5897 85.3957 45.8365C84.656 45.0834 84.2862 43.8998 84.2862 42.2859L84.2862 36.5565L85.9404 36.5565L85.9404 42.185C85.9404 43.2475 86.1691 44.0612 86.6263 44.6261C87.0971 45.1775 87.7628 45.4532 88.6236 45.4532C89.565 45.4532 90.298 45.117 90.8225 44.4445C91.3605 43.7721 91.6295 42.8575 91.6295 41.7009ZM100.657 46.8452L100.657 32.7235L106.064 32.7235C107.476 32.7235 108.613 33.1202 109.473 33.9137C110.334 34.6938 110.764 35.7428 110.764 37.0609C110.764 38.0427 110.489 38.8967 109.937 39.623C109.399 40.3358 108.673 40.8199 107.759 41.0755L110.926 46.8452L108.949 46.8452L105.963 41.4184L102.412 41.4184L102.412 46.8452L100.657 46.8452ZM105.943 34.3374L102.412 34.3374L102.412 39.8045L105.923 39.8045C106.851 39.8045 107.59 39.5557 108.142 39.0581C108.693 38.5605 108.969 37.8947 108.969 37.0609C108.969 36.2405 108.693 35.5815 108.142 35.0838C107.59 34.5862 106.857 34.3374 105.943 34.3374ZM115.532 46.9057L111.517 36.5565L113.273 36.5565L116.44 44.7673L119.506 36.5565L121.261 36.5565L116.521 48.5802C116.171 49.4813 115.841 50.0865 115.532 50.3958C115.223 50.7186 114.725 50.88 114.039 50.88L112.062 50.88L112.062 49.367L113.535 49.367C113.992 49.367 114.301 49.293 114.463 49.145C114.638 48.9971 114.826 48.6676 115.028 48.1565L115.532 46.9057Z"/><path fill="#ADADB0" d="M17.2599 61.8851C17.2599 60.3923 17.8006 59.1455 18.8819 58.1449C19.9632 57.1362 21.2826 56.6318 22.84 56.6318C24.3329 56.6318 25.5514 57.0434 26.4955 57.8665C27.4397 58.6896 27.9117 59.7427 27.9117 61.0257C27.9117 61.9779 27.6696 62.7566 27.1855 63.3619C26.7013 63.9671 26.084 64.2697 25.3335 64.2697C24.9704 64.2697 24.6718 64.1809 24.4378 64.0034C24.2118 63.8259 24.0827 63.612 24.0504 63.3619L24.0262 63.1803C23.889 63.5031 23.651 63.7653 23.3121 63.9671C22.9732 64.1607 22.5898 64.2576 22.1622 64.2576C21.5489 64.2576 21.0284 64.0437 20.6007 63.616C20.1811 63.1803 19.9713 62.6235 19.9713 61.9456C19.9713 61.179 20.2214 60.5254 20.7217 59.9847C21.2221 59.436 21.8111 59.1616 22.489 59.1616C22.9409 59.1616 23.3121 59.2464 23.6026 59.4158C23.8931 59.5853 24.0868 59.8072 24.1836 60.0816L24.3652 59.2706L25.1398 59.2706L24.7767 62.7203C24.7202 63.2691 24.9542 63.5434 25.4788 63.5434C25.8822 63.5434 26.2292 63.3013 26.5197 62.8172C26.8183 62.3249 26.9676 61.7197 26.9676 61.0015C26.9676 59.9444 26.5883 59.089 25.8298 58.4354C25.0712 57.7817 24.0706 57.4549 22.8279 57.4549C21.4561 57.4549 20.3425 57.8786 19.4871 58.7259C18.6317 59.5651 18.204 60.6142 18.204 61.873C18.204 63.1399 18.5914 64.1365 19.3661 64.8628C20.1488 65.581 21.2503 65.9401 22.6705 65.9401C23.7438 65.9401 24.6678 65.6899 25.4424 65.1896L25.4182 66.0732C24.7242 66.5332 23.7801 66.7632 22.5858 66.7632C21.0122 66.7632 19.7292 66.3153 18.7366 65.4196C17.7521 64.5319 17.2599 63.3538 17.2599 61.8851ZM24.0504 61.3525C24.0504 60.9006 23.9213 60.5456 23.6631 60.2873C23.4129 60.0211 23.0821 59.8879 22.6705 59.8879C22.1702 59.8879 21.7466 60.0856 21.3996 60.481C21.0607 60.8764 20.8912 61.3525 20.8912 61.9093C20.8912 62.3935 21.0203 62.7849 21.2785 63.0835C21.5448 63.382 21.8878 63.5313 22.3074 63.5313C22.8077 63.5313 23.2233 63.3296 23.5542 62.9261C23.885 62.5226 24.0504 61.9981 24.0504 61.3525ZM29.212 64.8628L29.212 56.3898L30.2046 56.3898L30.2046 64.8628L29.212 64.8628ZM36.6118 64.0639C36.0469 64.6449 35.3126 64.9354 34.4088 64.9354C33.505 64.9354 32.7667 64.6449 32.1937 64.0639C31.6289 63.4748 31.3464 62.7123 31.3464 61.7762C31.3464 60.8401 31.6289 60.0816 32.1937 59.5006C32.7667 58.9115 33.505 58.617 34.4088 58.617C35.3126 58.617 36.0469 58.9115 36.6118 59.5006C37.1848 60.0816 37.4712 60.8401 37.4712 61.7762C37.4712 62.7123 37.1848 63.4748 36.6118 64.0639ZM32.9321 63.4103C33.3114 63.838 33.8036 64.0518 34.4088 64.0518C35.014 64.0518 35.5063 63.838 35.8856 63.4103C36.2648 62.9826 36.4545 62.4379 36.4545 61.7762C36.4545 61.1145 36.2648 60.5698 35.8856 60.1421C35.5063 59.7144 35.014 59.5006 34.4088 59.5006C33.8036 59.5006 33.3114 59.7144 32.9321 60.1421C32.5528 60.5698 32.3632 61.1145 32.3632 61.7762C32.3632 62.4379 32.5528 62.9826 32.9321 63.4103ZM41.466 58.6896L41.7444 58.6896L41.7444 59.6579L41.2482 59.6579C40.6591 59.6579 40.2354 59.8556 39.9772 60.251C39.727 60.6464 39.602 61.1347 39.602 61.7157L39.602 64.8628L38.6094 64.8628L38.6094 58.6896L39.4688 58.6896L39.602 59.6216C39.9812 59.0003 40.6026 58.6896 41.466 58.6896ZM47.1161 59.6337L47.1161 56.3898L48.1087 56.3898L48.1087 64.8628L47.2493 64.8628L47.1161 63.8702C46.5997 64.5804 45.8936 64.9354 44.9979 64.9354C44.1263 64.9354 43.4122 64.657 42.8554 64.1002C42.3067 63.5354 42.0323 62.7607 42.0323 61.7762C42.0323 60.8401 42.3107 60.0816 42.8675 59.5006C43.4243 58.9115 44.1344 58.617 44.9979 58.617C45.9823 58.617 46.6884 58.9559 47.1161 59.6337ZM45.0947 64.0518C45.6999 64.0518 46.1881 63.842 46.5593 63.4224C46.9386 63.0028 47.1282 62.4621 47.1282 61.8004C47.1282 61.1226 46.9386 60.5698 46.5593 60.1421C46.1881 59.7144 45.6999 59.5006 45.0947 59.5006C44.4814 59.5006 43.9851 59.7144 43.6059 60.1421C43.2347 60.5617 43.0491 61.1064 43.0491 61.7762C43.0491 62.446 43.2347 62.9947 43.6059 63.4224C43.9851 63.842 44.4814 64.0518 45.0947 64.0518ZM53.782 61.7762L53.782 58.6896L54.7746 58.6896L54.7746 64.8628L53.9152 64.8628L53.782 64.0397C53.314 64.6368 52.6563 64.9354 51.809 64.9354C51.0747 64.9354 50.4856 64.7095 50.0418 64.2576C49.598 63.8057 49.376 63.0956 49.376 62.1272L49.376 58.6896L50.3686 58.6896L50.3686 62.0667C50.3686 62.7042 50.5058 63.1924 50.7801 63.5313C51.0626 63.8622 51.462 64.0276 51.9785 64.0276C52.5433 64.0276 52.9831 63.8259 53.2978 63.4224C53.6206 63.0189 53.782 62.4702 53.782 61.7762ZM58.9842 58.6896L59.2626 58.6896L59.2626 59.6579L58.7664 59.6579C58.1773 59.6579 57.7536 59.8556 57.4954 60.251C57.2453 60.6464 57.1202 61.1347 57.1202 61.7157L57.1202 64.8628L56.1276 64.8628L56.1276 58.6896L56.987 58.6896L57.1202 59.6216C57.4994 59.0003 58.1208 58.6896 58.9842 58.6896ZM61.9617 64.8991L59.553 58.6896L60.606 58.6896L62.5064 63.616L64.3463 58.6896L65.3994 58.6896L62.5548 65.9038C62.345 66.4444 62.1473 66.8076 61.9617 66.9932C61.7761 67.1868 61.4776 67.2837 61.066 67.2837L59.8798 67.2837L59.8798 66.3758L60.7634 66.3758C61.0378 66.3758 61.2234 66.3315 61.3202 66.2427C61.4251 66.1539 61.5381 65.9562 61.6591 65.6496L61.9617 64.8991Z"/><path fill="#FD366E" d="M28.1796 293.325V296.067H21.4352C19.4703 296.067 17.7547 294.964 16.8368 293.325C16.7033 293.087 16.5865 292.837 16.4886 292.577C16.2962 292.069 16.1753 291.523 16.1387 290.954V290.212C16.1466 290.086 16.1592 289.96 16.1756 289.835C16.2091 289.58 16.2598 289.33 16.3264 289.088C16.9564 286.786 19.0051 285.1 21.4352 285.1C23.8654 285.1 25.9138 286.786 26.5438 289.088H23.66C23.1866 288.337 22.3671 287.841 21.4352 287.841C20.5033 287.841 19.6839 288.337 19.2104 289.088C19.0661 289.316 18.9542 289.567 18.8808 289.835C18.8157 290.073 18.7809 290.324 18.7809 290.583C18.7809 291.369 19.1009 292.077 19.6139 292.577C20.0893 293.041 20.7301 293.325 21.4352 293.325H28.1796Z"/><path fill="#FD366E" d="M28.1808 289.835V292.577H23.2578C23.7708 292.077 24.0908 291.369 24.0908 290.583C24.0908 290.323 24.056 290.073 23.9909 289.835H28.1808Z"/><g clip-path="url(#clip2_2060_26177)"><path fill="#FD366E" d="M54.6582 297.124V295.722H62.0927V297.124H54.6582Z"/><path fill="#fff" d="M52.5643 295.327C51.1729 295.327 50.2589 294.7 50.2589 293.189V289.608H49.0176V288.192H50.3544V286.19H51.8822V288.192H53.9011V289.608H51.8822V293.175C51.8822 293.679 52.0869 293.897 52.5779 293.897H53.8193V295.327H52.5643Z"/><path fill="#fff" d="M47.1106 287.089C46.524 287.089 46.0875 286.654 46.0875 286.082C46.0875 285.524 46.524 285.088 47.1106 285.088C47.6971 285.088 48.1337 285.524 48.1337 286.082C48.1337 286.654 47.6971 287.089 47.1106 287.089ZM46.2921 295.327V289.608H45.0371V288.192H47.9018V295.327H46.2921Z"/><path fill="#fff" d="M37.8672 295.326V288.192H39.4769V289.009H39.5996C39.9134 288.464 40.5682 288.015 41.523 288.015C43.0918 288.015 44.0876 289.186 44.0876 290.656V295.326H42.4779V291.037C42.4779 290.152 41.8504 289.54 41.032 289.54C40.1453 289.54 39.4769 290.22 39.4769 291.119V295.326H37.8672Z"/><path fill="#fff" d="M35.4133 287.089C34.8267 287.089 34.3902 286.654 34.3902 286.082C34.3902 285.524 34.8267 285.088 35.4133 285.088C35.9999 285.088 36.4364 285.524 36.4364 286.082C36.4364 286.654 35.9999 287.089 35.4133 287.089ZM34.5948 295.327V289.608H33.3398V288.192H36.2045V295.327H34.5948Z"/></g><path fill="#E4E4E7" d="M17.3178 308.193L16.7035 308.193L16.7035 303.25L19.7397 303.25L19.7397 303.815L17.3178 303.815L17.3178 305.467L19.3655 305.467L19.3655 306.032L17.3178 306.032L17.3178 308.193ZM23.6517 308.193L20.5167 308.193L20.5167 303.25L23.5599 303.25L23.5599 303.815L21.131 303.815L21.131 305.397L23.1716 305.397L23.1716 305.962L21.131 305.962L21.131 307.628L23.6517 307.628L23.6517 308.193ZM26.1756 308.193L24.5022 308.193L24.5022 303.25L26.1262 303.25C27.1924 303.25 27.7502 303.759 27.7502 304.557C27.7502 305.114 27.4325 305.467 26.9523 305.63C27.489 305.729 27.962 306.068 27.962 306.781C27.962 307.656 27.3689 308.193 26.1756 308.193ZM25.1165 303.808L25.1165 305.397L26.1545 305.397C26.8041 305.397 27.1359 305.1 27.1359 304.599C27.1359 304.105 26.8111 303.808 26.1545 303.808L25.1165 303.808ZM25.1165 305.948L25.1165 307.635L26.1756 307.635C26.9594 307.635 27.3336 307.317 27.3336 306.809C27.3336 306.251 26.9241 305.948 26.1756 305.948L25.1165 305.948ZM34.4208 308.193L31.1093 308.193L31.1093 307.692L32.9733 306.025C33.4252 305.623 33.7783 305.241 33.7783 304.712C33.7783 304.091 33.3687 303.737 32.7474 303.737C32.1401 303.737 31.7306 304.161 31.7306 304.839L31.7306 304.931L31.1375 304.931L31.1375 304.804C31.1375 303.872 31.773 303.208 32.7474 303.208C33.7783 303.208 34.3855 303.794 34.3855 304.684C34.3855 305.418 33.9265 305.891 33.3546 306.392L31.9283 307.649L34.4208 307.649L34.4208 308.193ZM37.03 308.235C36.3592 308.235 35.8649 307.917 35.5754 307.416C35.3424 307.014 35.1941 306.421 35.1941 305.743C35.1941 304.189 35.879 303.208 37.0229 303.208C37.8984 303.208 38.4916 303.745 38.6116 304.571L38.0185 304.571C37.9055 304.069 37.5666 303.73 36.9947 303.73C36.1685 303.73 35.7449 304.585 35.7449 305.559C35.7449 305.707 35.7378 305.679 35.7449 305.799C35.7449 305.785 35.7661 305.715 35.7872 305.665C35.9708 305.248 36.458 304.924 37.0864 304.924C38.0326 304.924 38.6963 305.566 38.6963 306.576C38.6963 307.529 38.0185 308.235 37.03 308.235ZM37.0229 307.713C37.6725 307.713 38.1032 307.24 38.1032 306.576C38.1032 305.919 37.6937 305.446 37.0441 305.446C36.3874 305.446 35.9355 305.912 35.9355 306.59C35.9355 307.254 36.3733 307.713 37.0229 307.713ZM44.3037 306.428L41.9524 306.428L41.9524 305.94L44.3037 305.94L44.3037 306.428ZM48.3044 308.193L47.7465 308.193L47.7465 303.25L48.4668 303.25L49.6812 306.089L50.8816 303.25L51.5806 303.25L51.5806 308.193L51.0228 308.193L51.0228 304.232L49.9142 306.823L49.42 306.823L48.3044 304.232L48.3044 308.193ZM52.9301 308.193L52.3017 308.193L54.0528 303.25L54.8083 303.25L56.5665 308.193L55.9098 308.193L55.4367 306.858L53.4102 306.858L52.9301 308.193ZM54.4129 303.921L53.5868 306.301L55.2531 306.301L54.4129 303.921ZM57.904 308.193L57.2897 308.193L57.2897 303.25L59.055 303.25C60.0576 303.25 60.7284 303.843 60.7284 304.768C60.7284 305.46 60.2977 305.997 59.6481 306.173L60.7778 308.193L60.0859 308.193L59.0197 306.293L57.904 306.293L57.904 308.193ZM57.904 303.815L57.904 305.729L59.0055 305.729C59.6693 305.729 60.1 305.347 60.1 304.768C60.1 304.189 59.6693 303.815 59.0126 303.815L57.904 303.815ZM65.7614 303.25L65.7614 307.642L67.0111 307.642L67.0111 308.193L63.8761 308.193L63.8761 307.642L65.1753 307.642L65.1753 304.726C65.1047 304.775 65.02 304.797 64.9141 304.797L63.8902 304.797L63.8902 304.267L64.8505 304.267C65.0694 304.267 65.1824 304.083 65.1824 303.843L65.1824 303.25L65.7614 303.25Z"/><path fill="#fff" fill-opacity=".5" d="M184.153 308.193L183.673 308.193L183.857 307.007L183.179 307.007L183.179 306.519L183.928 306.519L184.062 305.587L183.334 305.587L183.334 305.1L184.132 305.1L184.316 303.914L184.796 303.914L184.612 305.1L185.58 305.1L185.763 303.914L186.243 303.914L186.06 305.1L186.738 305.1L186.738 305.587L185.989 305.587L185.855 306.519L186.582 306.519L186.582 307.007L185.785 307.007L185.601 308.193L185.121 308.193L185.304 307.007L184.337 307.007L184.153 308.193ZM184.542 305.587L184.408 306.519L185.375 306.519L185.509 305.587L184.542 305.587ZM189.25 303.208C190.33 303.208 191.001 304.105 191.001 305.609L191.001 305.835C191.001 307.339 190.33 308.235 189.25 308.235C188.169 308.235 187.499 307.339 187.499 305.835L187.499 305.609C187.499 304.105 188.169 303.208 189.25 303.208ZM188.085 305.63L188.085 305.813C188.085 306.089 188.106 306.336 188.148 306.548L190.161 304.331C189.963 303.942 189.652 303.737 189.25 303.737C188.515 303.737 188.085 304.429 188.085 305.63ZM190.415 305.813L190.415 305.63C190.415 305.354 190.394 305.107 190.351 304.888L188.339 307.12C188.544 307.494 188.854 307.699 189.25 307.699C189.984 307.699 190.415 307.014 190.415 305.813ZM193.642 303.208C194.722 303.208 195.393 304.105 195.393 305.609L195.393 305.835C195.393 307.339 194.722 308.235 193.642 308.235C192.562 308.235 191.891 307.339 191.891 305.835L191.891 305.609C191.891 304.105 192.562 303.208 193.642 303.208ZM192.477 305.63L192.477 305.813C192.477 306.089 192.498 306.336 192.541 306.548L194.553 304.331C194.355 303.942 194.044 303.737 193.642 303.737C192.908 303.737 192.477 304.429 192.477 305.63ZM194.807 305.813L194.807 305.63C194.807 305.354 194.786 305.107 194.744 304.888L192.731 307.12C192.936 307.494 193.247 307.699 193.642 307.699C194.376 307.699 194.807 307.014 194.807 305.813ZM198.048 303.25L198.048 307.642L199.298 307.642L199.298 308.193L196.163 308.193L196.163 307.642L197.462 307.642L197.462 304.726C197.392 304.775 197.307 304.797 197.201 304.797L196.177 304.797L196.177 304.267L197.138 304.267C197.357 304.267 197.469 304.083 197.469 303.843L197.469 303.25L198.048 303.25ZM202.372 305.623C202.803 305.707 203.234 306.068 203.234 306.823C203.234 307.663 202.591 308.235 201.546 308.235C200.508 308.235 199.866 307.649 199.866 306.668L200.452 306.668C200.459 307.317 200.911 307.706 201.582 307.706C202.196 307.706 202.627 307.346 202.627 306.781C202.627 306.265 202.295 305.94 201.56 305.94L201.13 305.94L201.13 305.411L201.497 305.411C202.196 305.411 202.535 305.051 202.535 304.549C202.535 304.048 202.111 303.737 201.546 303.737C200.974 303.737 200.53 304.112 200.523 304.677L199.936 304.677C199.951 303.773 200.628 303.208 201.539 303.208C202.528 303.208 203.142 303.737 203.142 304.528C203.142 305.136 202.817 305.496 202.372 305.623ZM206.503 305.623C206.934 305.707 207.364 306.068 207.364 306.823C207.364 307.663 206.722 308.235 205.677 308.235C204.639 308.235 203.996 307.649 203.996 306.668L204.582 306.668C204.589 307.317 205.041 307.706 205.712 307.706C206.326 307.706 206.757 307.346 206.757 306.781C206.757 306.265 206.425 305.94 205.691 305.94L205.26 305.94L205.26 305.411L205.627 305.411C206.326 305.411 206.665 305.051 206.665 304.549C206.665 304.048 206.242 303.737 205.677 303.737C205.105 303.737 204.66 304.112 204.653 304.677L204.067 304.677C204.081 303.773 204.759 303.208 205.67 303.208C206.658 303.208 207.272 303.737 207.272 304.528C207.272 305.136 206.948 305.496 206.503 305.623ZM208.961 308.193L208.319 308.193L210.585 303.794L207.916 303.794L207.916 303.25L211.306 303.25L211.306 303.667L208.961 308.193ZM213.77 303.25L213.77 307.642L215.02 307.642L215.02 308.193L211.885 308.193L211.885 307.642L213.184 307.642L213.184 304.726C213.113 304.775 213.029 304.797 212.923 304.797L211.899 304.797L211.899 304.267L212.859 304.267C213.078 304.267 213.191 304.083 213.191 303.843L213.191 303.25L213.77 303.25Z"/><g filter="url(#filter2_b_2060_26177)"><rect width="231.496" height="324.296" x=".252" y=".854" stroke="url(#paint2_linear_2060_26177)" stroke-opacity=".48" stroke-width=".504" rx="7.817"/><rect width="231.496" height="324.296" x=".252" y=".854" stroke="url(#paint3_linear_2060_26177)" stroke-opacity=".64" stroke-width=".504" rx="7.817"/></g><g filter="url(#filter3_f_2060_26177)"><path fill="url(#paint4_linear_2060_26177)" d="M289.46 124.853L35.3991 402.961C27.9605 411.104 28.0895 423.614 35.6944 431.602C44.1055 440.436 58.2488 440.268 66.4479 431.237L319.642 152.338C327.88 143.263 326.319 129.025 316.31 121.951C307.908 116.013 296.399 117.256 289.46 124.853Z"/></g><g filter="url(#filter4_f_2060_26177)"><path fill="url(#paint5_linear_2060_26177)" d="M316.19 -15.3558L62.1296 262.753C54.6909 270.896 54.8199 283.406 62.4249 291.393C70.836 300.228 84.9792 300.06 93.1783 291.028L346.372 12.1298C354.61 3.05496 353.049 -11.1832 343.04 -18.2574C334.638 -24.1957 323.13 -22.9521 316.19 -15.3558Z"/></g><g filter="url(#filter5_f_2060_26177)"><path fill="url(#paint6_linear_2060_26177)" d="M218.851 -38.0516L-35.2102 240.057C-42.6489 248.2 -42.5199 260.71 -34.915 268.697C-26.5039 277.532 -12.3606 277.364 -4.16152 268.332L249.032 -10.566C257.271 -19.6408 255.71 -33.879 245.7 -40.9532C237.298 -46.8915 225.79 -45.6479 218.851 -38.0516Z"/></g><g filter="url(#filter6_f_2060_26177)"><path fill="url(#paint7_linear_2060_26177)" d="M110.921 -51.6691L-143.14 226.44C-150.579 234.582 -150.45 247.092 -142.845 255.08C-134.434 263.914 -120.29 263.746 -112.091 254.715L141.102 -24.1834C149.341 -33.2583 147.78 -47.4965 137.771 -54.5706C129.369 -60.509 117.86 -59.2653 110.921 -51.6691Z"/></g><mask id="mask0_2060_26177" width="41" height="326" x="191" y="0" maskUnits="userSpaceOnUse" style="mask-type:alpha"><rect width="40.348" height="324.8" x="191.652" y=".602" fill="url(#paint8_linear_2060_26177)"/></mask><g mask="url(#mask0_2060_26177)"><mask id="mask1_2060_26177" width="41" height="326" x="191" y="0" maskUnits="userSpaceOnUse" style="mask-type:alpha"><rect width="40.348" height="324.8" fill="url(#paint9_linear_2060_26177)" transform="matrix(-1 0 0 1 232 0.601562)"/></mask><g mask="url(#mask1_2060_26177)"><rect width="4.035" height="4.035" x="232" y=".602" fill="#FD366E" opacity=".64" rx="1.009" transform="rotate(90 232 0.601562)"/><rect width="4.035" height="4.035" x="232" y="6.654" fill="#FD366E" opacity=".4" rx="1.009" transform="rotate(90 232 6.65381)"/><rect width="4.035" height="4.035" x="232" y="12.706" fill="#FD366E" opacity=".32" rx="1.009" transform="rotate(90 232 12.7061)"/><rect width="4.035" height="4.035" x="232" y="18.758" fill="#FD366E" opacity=".16" rx="1.009" transform="rotate(90 232 18.7583)"/><rect width="4.035" height="4.035" x="232" y="24.81" fill="#FD366E" opacity=".8" rx="1.009" transform="rotate(90 232 24.8101)"/><rect width="4.035" height="4.035" x="232" y="30.862" fill="#FD366E" opacity=".64" rx="1.009" transform="rotate(90 232 30.8623)"/><rect width="4.035" height="4.035" x="232" y="36.915" fill="#FD366E" opacity=".4" rx="1.009" transform="rotate(90 232 36.9146)"/><rect width="4.035" height="4.035" x="232" y="42.967" fill="#FD366E" opacity=".32" rx="1.009" transform="rotate(90 232 42.9668)"/><rect width="4.035" height="4.035" x="232" y="49.019" fill="#FD366E" opacity=".16" rx="1.009" transform="rotate(90 232 49.019)"/><rect width="4.035" height="4.035" x="232" y="55.071" fill="#FD366E" opacity=".4" rx="1.009" transform="rotate(90 232 55.0713)"/><rect width="4.035" height="4.035" x="232" y="61.123" fill="#FD366E" opacity=".32" rx="1.009" transform="rotate(90 232 61.1235)"/><rect width="4.035" height="4.035" x="232" y="67.175" fill="#FD366E" opacity=".8" rx="1.009" transform="rotate(90 232 67.1753)"/><rect width="4.035" height="4.035" x="232" y="73.228" fill="#FD366E" opacity=".16" rx="1.009" transform="rotate(90 232 73.2275)"/><rect width="4.035" height="4.035" x="232" y="79.28" fill="#FD366E" opacity=".4" rx="1.009" transform="rotate(90 232 79.2798)"/><rect width="4.035" height="4.035" x="232" y="85.332" fill="#FD366E" opacity=".32" rx="1.009" transform="rotate(90 232 85.332)"/><rect width="4.035" height="4.035" x="232" y="91.384" fill="#FD366E" opacity=".32" rx="1.009" transform="rotate(90 232 91.3843)"/><rect width="4.035" height="4.035" x="232" y="97.436" fill="#FD366E" opacity=".32" rx="1.009" transform="rotate(90 232 97.4365)"/><rect width="4.035" height="4.035" x="232" y="103.488" fill="#FD366E" opacity=".64" rx="1.009" transform="rotate(90 232 103.488)"/><rect width="4.035" height="4.035" x="232" y="109.541" fill="#FD366E" opacity=".16" rx="1.009" transform="rotate(90 232 109.541)"/><rect width="4.035" height="4.035" x="232" y="115.593" fill="#FD366E" opacity=".64" rx="1.009" transform="rotate(90 232 115.593)"/><rect width="4.035" height="4.035" x="232" y="121.645" fill="#FD366E" opacity=".4" rx="1.009" transform="rotate(90 232 121.645)"/><rect width="4.035" height="4.035" x="232" y="127.697" fill="#FD366E" opacity=".32" rx="1.009" transform="rotate(90 232 127.697)"/><rect width="4.035" height="4.035" x="232" y="133.75" fill="#FD366E" opacity=".16" rx="1.009" transform="rotate(90 232 133.75)"/><rect width="4.035" height="4.035" x="232" y="139.802" fill="#FD366E" opacity=".8" rx="1.009" transform="rotate(90 232 139.802)"/><rect width="4.035" height="4.035" x="232" y="145.854" fill="#FD366E" opacity=".8" rx="1.009" transform="rotate(90 232 145.854)"/><rect width="4.035" height="4.035" x="232" y="151.906" fill="#FD366E" opacity=".64" rx="1.009" transform="rotate(90 232 151.906)"/><rect width="4.035" height="4.035" x="232" y="157.958" fill="#FD366E" opacity=".4" rx="1.009" transform="rotate(90 232 157.958)"/><rect width="4.035" height="4.035" x="232" y="164.01" fill="#FD366E" opacity=".8" rx="1.009" transform="rotate(90 232 164.01)"/><rect width="4.035" height="4.035" x="232" y="170.062" fill="#FD366E" opacity=".4" rx="1.009" transform="rotate(90 232 170.062)"/><rect width="4.035" height="4.035" x="232" y="176.115" fill="#FD366E" opacity=".16" rx="1.009" transform="rotate(90 232 176.115)"/><rect width="4.035" height="4.035" x="232" y="182.167" fill="#FD366E" opacity=".32" rx="1.009" transform="rotate(90 232 182.167)"/><rect width="4.035" height="4.035" x="232" y="188.219" fill="#FD366E" opacity=".16" rx="1.009" transform="rotate(90 232 188.219)"/><rect width="4.035" height="4.035" x="232" y="194.271" fill="#FD366E" opacity=".64" rx="1.009" transform="rotate(90 232 194.271)"/><rect width="4.035" height="4.035" x="232" y="200.323" fill="#FD366E" opacity=".16" rx="1.009" transform="rotate(90 232 200.323)"/><rect width="4.035" height="4.035" x="232" y="206.375" fill="#FD366E" opacity=".64" rx="1.009" transform="rotate(90 232 206.375)"/><rect width="4.035" height="4.035" x="232" y="212.428" fill="#FD366E" opacity=".32" rx="1.009" transform="rotate(90 232 212.428)"/><rect width="4.035" height="4.035" x="232" y="218.48" fill="#FD366E" opacity=".8" rx="1.009" transform="rotate(90 232 218.48)"/><rect width="4.035" height="4.035" x="232" y="224.532" fill="#FD366E" opacity=".4" rx="1.009" transform="rotate(90 232 224.532)"/><rect width="4.035" height="4.035" x="232" y="230.584" fill="#FD366E" opacity=".32" rx="1.009" transform="rotate(90 232 230.584)"/><rect width="4.035" height="4.035" x="232" y="236.636" fill="#FD366E" opacity=".32" rx="1.009" transform="rotate(90 232 236.636)"/><rect width="4.035" height="4.035" x="232" y="242.688" fill="#FD366E" opacity=".64" rx="1.009" transform="rotate(90 232 242.688)"/><rect width="4.035" height="4.035" x="232" y="248.741" fill="#FD366E" opacity=".4" rx="1.009" transform="rotate(90 232 248.741)"/><rect width="4.035" height="4.035" x="232" y="254.793" fill="#FD366E" opacity=".16" rx="1.009" transform="rotate(90 232 254.793)"/><rect width="4.035" height="4.035" x="232" y="260.845" fill="#FD366E" opacity=".8" rx="1.009" transform="rotate(90 232 260.845)"/><rect width="4.035" height="4.035" x="232" y="266.897" fill="#FD366E" opacity=".8" rx="1.009" transform="rotate(90 232 266.897)"/><rect width="4.035" height="4.035" x="232" y="272.949" fill="#FD366E" opacity=".8" rx="1.009" transform="rotate(90 232 272.949)"/><rect width="4.035" height="4.035" x="232" y="279.001" fill="#FD366E" opacity=".64" rx="1.009" transform="rotate(90 232 279.001)"/><rect width="4.035" height="4.035" x="232" y="285.054" fill="#FD366E" opacity=".4" rx="1.009" transform="rotate(90 232 285.054)"/><rect width="4.035" height="4.035" x="232" y="291.106" fill="#FD366E" opacity=".4" rx="1.009" transform="rotate(90 232 291.106)"/><rect width="4.035" height="4.035" x="232" y="297.158" fill="#FD366E" opacity=".32" rx="1.009" transform="rotate(90 232 297.158)"/><rect width="4.035" height="4.035" x="232" y="303.21" fill="#FD366E" opacity=".16" rx="1.009" transform="rotate(90 232 303.21)"/><rect width="4.035" height="4.035" x="232" y="309.262" fill="#FD366E" opacity=".64" rx="1.009" transform="rotate(90 232 309.262)"/><rect width="4.035" height="4.035" x="232" y="315.314" fill="#FD366E" opacity=".32" rx="1.009" transform="rotate(90 232 315.314)"/><rect width="4.035" height="4.035" x="232" y="321.367" fill="#FD366E" opacity=".16" rx="1.009" transform="rotate(90 232 321.367)"/><rect width="4.035" height="4.035" fill="#FD366E" opacity=".64" rx="1.009" transform="matrix(-4.37114e-08 -1 -1 4.37114e-08 225.947 325.401)"/><rect width="4.035" height="4.035" fill="#FD366E" opacity=".4" rx="1.009" transform="matrix(-4.37114e-08 -1 -1 4.37114e-08 225.947 319.349)"/><rect width="4.035" height="4.035" fill="#FD366E" opacity=".32" rx="1.009" transform="matrix(-4.37114e-08 -1 -1 4.37114e-08 225.947 313.297)"/><rect width="4.035" height="4.035" fill="#FD366E" opacity=".16" rx="1.009" transform="matrix(-4.37114e-08 -1 -1 4.37114e-08 225.947 307.245)"/><rect width="4.035" height="4.035" fill="#FD366E" opacity=".8" rx="1.009" transform="matrix(-4.37114e-08 -1 -1 4.37114e-08 225.947 301.193)"/><rect width="4.035" height="4.035" fill="#FD366E" opacity=".64" rx="1.009" transform="matrix(-4.37114e-08 -1 -1 4.37114e-08 225.947 295.141)"/><rect width="4.035" height="4.035" fill="#FD366E" opacity=".4" rx="1.009" transform="matrix(-4.37114e-08 -1 -1 4.37114e-08 225.947 289.088)"/><rect width="4.035" height="4.035" fill="#FD366E" opacity=".32" rx="1.009" transform="matrix(-4.37114e-08 -1 -1 4.37114e-08 225.947 283.036)"/><rect width="4.035" height="4.035" fill="#FD366E" opacity=".16" rx="1.009" transform="matrix(-4.37114e-08 -1 -1 4.37114e-08 225.947 276.984)"/><rect width="4.035" height="4.035" fill="#FD366E" opacity=".4" rx="1.009" transform="matrix(-4.37114e-08 -1 -1 4.37114e-08 225.947 270.932)"/><rect width="4.035" height="4.035" fill="#FD366E" opacity=".32" rx="1.009" transform="matrix(-4.37114e-08 -1 -1 4.37114e-08 225.947 264.879)"/><rect width="4.035" height="4.035" fill="#FD366E" opacity=".8" rx="1.009" transform="matrix(-4.37114e-08 -1 -1 4.37114e-08 225.947 258.828)"/><rect width="4.035" height="4.035" fill="#FD366E" opacity=".16" rx="1.009" transform="matrix(-4.37114e-08 -1 -1 4.37114e-08 225.947 252.775)"/><rect width="4.035" height="4.035" fill="#FD366E" opacity=".4" rx="1.009" transform="matrix(-4.37114e-08 -1 -1 4.37114e-08 225.947 246.723)"/><rect width="4.035" height="4.035" fill="#FD366E" opacity=".32" rx="1.009" transform="matrix(-4.37114e-08 -1 -1 4.37114e-08 225.947 240.671)"/><rect width="4.035" height="4.035" fill="#FD366E" opacity=".32" rx="1.009" transform="matrix(-4.37114e-08 -1 -1 4.37114e-08 225.947 234.619)"/><rect width="4.035" height="4.035" fill="#FD366E" opacity=".32" rx="1.009" transform="matrix(-4.37114e-08 -1 -1 4.37114e-08 225.947 228.566)"/><rect width="4.035" height="4.035" fill="#FD366E" opacity=".64" rx="1.009" transform="matrix(-4.37114e-08 -1 -1 4.37114e-08 225.947 222.515)"/><rect width="4.035" height="4.035" fill="#FD366E" opacity=".16" rx="1.009" transform="matrix(-4.37114e-08 -1 -1 4.37114e-08 225.947 216.462)"/><rect width="4.035" height="4.035" fill="#FD366E" opacity=".64" rx="1.009" transform="matrix(-4.37114e-08 -1 -1 4.37114e-08 225.947 210.41)"/><rect width="4.035" height="4.035" fill="#FD366E" opacity=".4" rx="1.009" transform="matrix(-4.37114e-08 -1 -1 4.37114e-08 225.947 204.358)"/><rect width="4.035" height="4.035" fill="#FD366E" opacity=".32" rx="1.009" transform="matrix(-4.37114e-08 -1 -1 4.37114e-08 225.947 198.306)"/><rect width="4.035" height="4.035" fill="#FD366E" opacity=".16" rx="1.009" transform="matrix(-4.37114e-08 -1 -1 4.37114e-08 225.947 192.253)"/><rect width="4.035" height="4.035" fill="#FD366E" opacity=".8" rx="1.009" transform="matrix(-4.37114e-08 -1 -1 4.37114e-08 225.947 186.201)"/><rect width="4.035" height="4.035" fill="#FD366E" opacity=".8" rx="1.009" transform="matrix(-4.37114e-08 -1 -1 4.37114e-08 225.947 180.149)"/><rect width="4.035" height="4.035" fill="#FD366E" opacity=".64" rx="1.009" transform="matrix(-4.37114e-08 -1 -1 4.37114e-08 225.947 174.097)"/><rect width="4.035" height="4.035" fill="#FD366E" opacity=".4" rx="1.009" transform="matrix(-4.37114e-08 -1 -1 4.37114e-08 225.947 168.045)"/><rect width="4.035" height="4.035" fill="#FD366E" opacity=".8" rx="1.009" transform="matrix(-4.37114e-08 -1 -1 4.37114e-08 225.947 161.993)"/><rect width="4.035" height="4.035" fill="#FD366E" opacity=".4" rx="1.009" transform="matrix(-4.37114e-08 -1 -1 4.37114e-08 225.947 155.94)"/><rect width="4.035" height="4.035" fill="#FD366E" opacity=".16" rx="1.009" transform="matrix(-4.37114e-08 -1 -1 4.37114e-08 225.947 149.888)"/><rect width="4.035" height="4.035" fill="#FD366E" opacity=".32" rx="1.009" transform="matrix(-4.37114e-08 -1 -1 4.37114e-08 225.947 143.836)"/><rect width="4.035" height="4.035" fill="#FD366E" opacity=".16" rx="1.009" transform="matrix(-4.37114e-08 -1 -1 4.37114e-08 225.947 137.784)"/><rect width="4.035" height="4.035" fill="#FD366E" opacity=".64" rx="1.009" transform="matrix(-4.37114e-08 -1 -1 4.37114e-08 225.947 131.732)"/><rect width="4.035" height="4.035" fill="#FD366E" opacity=".16" rx="1.009" transform="matrix(-4.37114e-08 -1 -1 4.37114e-08 225.947 125.68)"/><rect width="4.035" height="4.035" fill="#FD366E" opacity=".64" rx="1.009" transform="matrix(-4.37114e-08 -1 -1 4.37114e-08 225.947 119.627)"/><rect width="4.035" height="4.035" fill="#FD366E" opacity=".32" rx="1.009" transform="matrix(-4.37114e-08 -1 -1 4.37114e-08 225.947 113.575)"/><rect width="4.035" height="4.035" fill="#FD366E" opacity=".8" rx="1.009" transform="matrix(-4.37114e-08 -1 -1 4.37114e-08 225.947 107.523)"/><rect width="4.035" height="4.035" fill="#FD366E" opacity=".4" rx="1.009" transform="matrix(-4.37114e-08 -1 -1 4.37114e-08 225.947 101.471)"/><rect width="4.035" height="4.035" fill="#FD366E" opacity=".32" rx="1.009" transform="matrix(-4.37114e-08 -1 -1 4.37114e-08 225.947 95.4189)"/><rect width="4.035" height="4.035" fill="#FD366E" opacity=".32" rx="1.009" transform="matrix(-4.37114e-08 -1 -1 4.37114e-08 225.947 89.3667)"/><rect width="4.035" height="4.035" fill="#FD366E" opacity=".64" rx="1.009" transform="matrix(-4.37114e-08 -1 -1 4.37114e-08 225.947 83.3145)"/><rect width="4.035" height="4.035" fill="#FD366E" opacity=".4" rx="1.009" transform="matrix(-4.37114e-08 -1 -1 4.37114e-08 225.947 77.2622)"/><rect width="4.035" height="4.035" fill="#FD366E" opacity=".16" rx="1.009" transform="matrix(-4.37114e-08 -1 -1 4.37114e-08 225.947 71.21)"/><rect width="4.035" height="4.035" fill="#FD366E" opacity=".8" rx="1.009" transform="matrix(-4.37114e-08 -1 -1 4.37114e-08 225.947 65.1582)"/><rect width="4.035" height="4.035" fill="#FD366E" opacity=".8" rx="1.009" transform="matrix(-4.37114e-08 -1 -1 4.37114e-08 225.947 59.106)"/><rect width="4.035" height="4.035" fill="#FD366E" opacity=".8" rx="1.009" transform="matrix(-4.37114e-08 -1 -1 4.37114e-08 225.947 53.0537)"/><rect width="4.035" height="4.035" fill="#FD366E" opacity=".64" rx="1.009" transform="matrix(-4.37114e-08 -1 -1 4.37114e-08 225.947 47.0015)"/><rect width="4.035" height="4.035" fill="#FD366E" opacity=".4" rx="1.009" transform="matrix(-4.37114e-08 -1 -1 4.37114e-08 225.947 40.9492)"/><rect width="4.035" height="4.035" fill="#FD366E" opacity=".4" rx="1.009" transform="matrix(-4.37114e-08 -1 -1 4.37114e-08 225.947 34.897)"/><rect width="4.035" height="4.035" fill="#FD366E" opacity=".32" rx="1.009" transform="matrix(-4.37114e-08 -1 -1 4.37114e-08 225.947 28.8447)"/><rect width="4.035" height="4.035" fill="#FD366E" opacity=".16" rx="1.009" transform="matrix(-4.37114e-08 -1 -1 4.37114e-08 225.947 22.793)"/><rect width="4.035" height="4.035" fill="#FD366E" opacity=".64" rx="1.009" transform="matrix(-4.37114e-08 -1 -1 4.37114e-08 225.947 16.7407)"/><rect width="4.035" height="4.035" fill="#FD366E" opacity=".32" rx="1.009" transform="matrix(-4.37114e-08 -1 -1 4.37114e-08 225.947 10.6885)"/><rect width="4.035" height="4.035" fill="#FD366E" opacity=".16" rx="1.009" transform="matrix(-4.37114e-08 -1 -1 4.37114e-08 225.947 4.63623)"/><rect width="4.035" height="4.035" x="219.896" y=".602" fill="#FD366E" opacity=".4" rx="1.009" transform="rotate(90 219.896 0.601562)"/><rect width="4.035" height="4.035" x="219.896" y="6.654" fill="#FD366E" opacity=".32" rx="1.009" transform="rotate(90 219.896 6.65381)"/><rect width="4.035" height="4.035" x="219.896" y="12.706" fill="#FD366E" opacity=".16" rx="1.009" transform="rotate(90 219.896 12.7061)"/><rect width="4.035" height="4.035" x="219.896" y="18.758" fill="#FD366E" opacity=".8" rx="1.009" transform="rotate(90 219.896 18.7583)"/><rect width="4.035" height="4.035" x="219.896" y="24.81" fill="#FD366E" opacity=".8" rx="1.009" transform="rotate(90 219.896 24.8101)"/><rect width="4.035" height="4.035" x="219.896" y="30.862" fill="#FD366E" opacity=".64" rx="1.009" transform="rotate(90 219.896 30.8623)"/><rect width="4.035" height="4.035" x="219.896" y="36.915" fill="#FD366E" opacity=".32" rx="1.009" transform="rotate(90 219.896 36.9146)"/><rect width="4.035" height="4.035" x="219.896" y="42.967" fill="#FD366E" opacity=".32" rx="1.009" transform="rotate(90 219.896 42.9668)"/><rect width="4.035" height="4.035" x="219.896" y="49.019" fill="#FD366E" opacity=".32" rx="1.009" transform="rotate(90 219.896 49.019)"/><rect width="4.035" height="4.035" x="219.896" y="55.071" fill="#FD366E" opacity=".64" rx="1.009" transform="rotate(90 219.896 55.0713)"/><rect width="4.035" height="4.035" x="219.896" y="61.123" fill="#FD366E" opacity=".16" rx="1.009" transform="rotate(90 219.896 61.1235)"/><rect width="4.035" height="4.035" x="219.896" y="67.175" fill="#FD366E" opacity=".64" rx="1.009" transform="rotate(90 219.896 67.1753)"/><rect width="4.035" height="4.035" x="219.896" y="73.228" fill="#FD366E" opacity=".4" rx="1.009" transform="rotate(90 219.896 73.2275)"/><rect width="4.035" height="4.035" x="219.896" y="79.28" fill="#FD366E" opacity=".4" rx="1.009" transform="rotate(90 219.896 79.2798)"/><rect width="4.035" height="4.035" x="219.896" y="85.332" fill="#FD366E" opacity=".8" rx="1.009" transform="rotate(90 219.896 85.332)"/><rect width="4.035" height="4.035" x="219.896" y="91.384" fill="#FD366E" opacity=".4" rx="1.009" transform="rotate(90 219.896 91.3843)"/><rect width="4.035" height="4.035" x="219.896" y="97.436" fill="#FD366E" opacity=".4" rx="1.009" transform="rotate(90 219.896 97.4365)"/><rect width="4.035" height="4.035" x="219.896" y="103.488" fill="#FD366E" opacity=".16" rx="1.009" transform="rotate(90 219.896 103.488)"/><rect width="4.035" height="4.035" x="219.896" y="109.541" fill="#FD366E" opacity=".8" rx="1.009" transform="rotate(90 219.896 109.541)"/><rect width="4.035" height="4.035" x="219.896" y="115.593" fill="#FD366E" opacity=".8" rx="1.009" transform="rotate(90 219.896 115.593)"/><rect width="4.035" height="4.035" x="219.896" y="121.645" fill="#FD366E" opacity=".8" rx="1.009" transform="rotate(90 219.896 121.645)"/><rect width="4.035" height="4.035" x="219.896" y="127.697" fill="#FD366E" opacity=".64" rx="1.009" transform="rotate(90 219.896 127.697)"/><rect width="4.035" height="4.035" x="219.896" y="133.75" fill="#FD366E" opacity=".4" rx="1.009" transform="rotate(90 219.896 133.75)"/><rect width="4.035" height="4.035" x="219.896" y="139.802" fill="#FD366E" opacity=".4" rx="1.009" transform="rotate(90 219.896 139.802)"/><rect width="4.035" height="4.035" x="219.896" y="145.854" fill="#FD366E" opacity=".32" rx="1.009" transform="rotate(90 219.896 145.854)"/><rect width="4.035" height="4.035" x="219.896" y="151.906" fill="#FD366E" opacity=".16" rx="1.009" transform="rotate(90 219.896 151.906)"/><rect width="4.035" height="4.035" x="219.896" y="157.958" fill="#FD366E" opacity=".64" rx="1.009" transform="rotate(90 219.896 157.958)"/><rect width="4.035" height="4.035" x="219.896" y="164.01" fill="#FD366E" opacity=".32" rx="1.009" transform="rotate(90 219.896 164.01)"/><rect width="4.035" height="4.035" x="219.896" y="170.062" fill="#FD366E" opacity=".16" rx="1.009" transform="rotate(90 219.896 170.062)"/><rect width="4.035" height="4.035" x="219.896" y="176.115" fill="#FD366E" opacity=".16" rx="1.009" transform="rotate(90 219.896 176.115)"/><rect width="4.035" height="4.035" x="219.896" y="182.167" fill="#FD366E" opacity=".64" rx="1.009" transform="rotate(90 219.896 182.167)"/><rect width="4.035" height="4.035" x="219.896" y="188.219" fill="#FD366E" opacity=".4" rx="1.009" transform="rotate(90 219.896 188.219)"/><rect width="4.035" height="4.035" x="219.896" y="194.271" fill="#FD366E" opacity=".32" rx="1.009" transform="rotate(90 219.896 194.271)"/><rect width="4.035" height="4.035" x="219.896" y="200.323" fill="#FD366E" opacity=".16" rx="1.009" transform="rotate(90 219.896 200.323)"/><rect width="4.035" height="4.035" x="219.896" y="206.375" fill="#FD366E" opacity=".32" rx="1.009" transform="rotate(90 219.896 206.375)"/><rect width="4.035" height="4.035" x="219.896" y="212.428" fill="#FD366E" opacity=".32" rx="1.009" transform="rotate(90 219.896 212.428)"/><rect width="4.035" height="4.035" x="219.896" y="218.479" fill="#FD366E" opacity=".64" rx="1.009" transform="rotate(90 219.896 218.479)"/><rect width="4.035" height="4.035" x="219.896" y="224.532" fill="#FD366E" opacity=".4" rx="1.009" transform="rotate(90 219.896 224.532)"/><rect width="4.035" height="4.035" x="219.896" y="230.584" fill="#FD366E" opacity=".8" rx="1.009" transform="rotate(90 219.896 230.584)"/><rect width="4.035" height="4.035" x="219.896" y="236.636" fill="#FD366E" opacity=".64" rx="1.009" transform="rotate(90 219.896 236.636)"/><rect width="4.035" height="4.035" x="219.896" y="242.688" fill="#FD366E" opacity=".4" rx="1.009" transform="rotate(90 219.896 242.688)"/><rect width="4.035" height="4.035" x="219.896" y="248.741" fill="#FD366E" opacity=".32" rx="1.009" transform="rotate(90 219.896 248.741)"/><rect width="4.035" height="4.035" x="219.896" y="254.793" fill="#FD366E" opacity=".16" rx="1.009" transform="rotate(90 219.896 254.793)"/><rect width="4.035" height="4.035" x="219.896" y="260.845" fill="#FD366E" opacity=".4" rx="1.009" transform="rotate(90 219.896 260.845)"/><rect width="4.035" height="4.035" x="219.896" y="266.897" fill="#FD366E" opacity=".32" rx="1.009" transform="rotate(90 219.896 266.897)"/><rect width="4.035" height="4.035" x="219.896" y="272.949" fill="#FD366E" opacity=".8" rx="1.009" transform="rotate(90 219.896 272.949)"/><rect width="4.035" height="4.035" x="219.896" y="279.001" fill="#FD366E" opacity=".16" rx="1.009" transform="rotate(90 219.896 279.001)"/><rect width="4.035" height="4.035" x="219.896" y="285.054" fill="#FD366E" opacity=".32" rx="1.009" transform="rotate(90 219.896 285.054)"/><rect width="4.035" height="4.035" x="219.896" y="291.106" fill="#FD366E" opacity=".16" rx="1.009" transform="rotate(90 219.896 291.106)"/><rect width="4.035" height="4.035" x="219.896" y="297.158" fill="#FD366E" opacity=".64" rx="1.009" transform="rotate(90 219.896 297.158)"/><rect width="4.035" height="4.035" x="219.896" y="303.21" fill="#FD366E" opacity=".16" rx="1.009" transform="rotate(90 219.896 303.21)"/><rect width="4.035" height="4.035" x="219.896" y="309.262" fill="#FD366E" opacity=".64" rx="1.009" transform="rotate(90 219.896 309.262)"/><rect width="4.035" height="4.035" x="219.896" y="315.314" fill="#FD366E" opacity=".32" rx="1.009" transform="rotate(90 219.896 315.314)"/><rect width="4.035" height="4.035" x="219.896" y="321.367" fill="#FD366E" opacity=".8" rx="1.009" transform="rotate(90 219.896 321.367)"/><rect width="4.035" height="4.035" x="213.844" y=".602" fill="#FD366E" opacity=".64" rx="1.009" transform="rotate(90 213.844 0.601562)"/><rect width="4.035" height="4.035" x="213.844" y="6.654" fill="#FD366E" opacity=".4" rx="1.009" transform="rotate(90 213.844 6.65381)"/><rect width="4.035" height="4.035" x="213.844" y="12.706" fill="#FD366E" opacity=".32" rx="1.009" transform="rotate(90 213.844 12.7061)"/><rect width="4.035" height="4.035" x="213.844" y="18.758" fill="#FD366E" opacity=".16" rx="1.009" transform="rotate(90 213.844 18.7583)"/><rect width="4.035" height="4.035" x="213.844" y="24.81" fill="#FD366E" opacity=".8" rx="1.009" transform="rotate(90 213.844 24.8101)"/><rect width="4.035" height="4.035" x="213.844" y="30.862" fill="#FD366E" opacity=".64" rx="1.009" transform="rotate(90 213.844 30.8623)"/><rect width="4.035" height="4.035" x="213.844" y="36.915" fill="#FD366E" opacity=".4" rx="1.009" transform="rotate(90 213.844 36.9146)"/><rect width="4.035" height="4.035" x="213.844" y="42.967" fill="#FD366E" opacity=".32" rx="1.009" transform="rotate(90 213.844 42.9668)"/><rect width="4.035" height="4.035" x="213.844" y="49.019" fill="#FD366E" opacity=".16" rx="1.009" transform="rotate(90 213.844 49.019)"/><rect width="4.035" height="4.035" x="213.844" y="55.071" fill="#FD366E" opacity=".4" rx="1.009" transform="rotate(90 213.844 55.0713)"/><rect width="4.035" height="4.035" x="213.844" y="61.123" fill="#FD366E" opacity=".32" rx="1.009" transform="rotate(90 213.844 61.1235)"/><rect width="4.035" height="4.035" x="213.844" y="67.175" fill="#FD366E" opacity=".8" rx="1.009" transform="rotate(90 213.844 67.1753)"/><rect width="4.035" height="4.035" x="213.844" y="73.228" fill="#FD366E" opacity=".16" rx="1.009" transform="rotate(90 213.844 73.2275)"/><rect width="4.035" height="4.035" x="213.844" y="79.28" fill="#FD366E" opacity=".4" rx="1.009" transform="rotate(90 213.844 79.2798)"/><rect width="4.035" height="4.035" x="213.844" y="85.332" fill="#FD366E" opacity=".32" rx="1.009" transform="rotate(90 213.844 85.332)"/><rect width="4.035" height="4.035" x="213.844" y="91.384" fill="#FD366E" opacity=".32" rx="1.009" transform="rotate(90 213.844 91.3843)"/><rect width="4.035" height="4.035" x="213.844" y="97.436" fill="#FD366E" opacity=".32" rx="1.009" transform="rotate(90 213.844 97.4365)"/><rect width="4.035" height="4.035" x="213.844" y="103.488" fill="#FD366E" opacity=".64" rx="1.009" transform="rotate(90 213.844 103.488)"/><rect width="4.035" height="4.035" x="213.844" y="109.541" fill="#FD366E" opacity=".16" rx="1.009" transform="rotate(90 213.844 109.541)"/><rect width="4.035" height="4.035" x="213.844" y="115.593" fill="#FD366E" opacity=".64" rx="1.009" transform="rotate(90 213.844 115.593)"/><rect width="4.035" height="4.035" x="213.844" y="121.645" fill="#FD366E" opacity=".4" rx="1.009" transform="rotate(90 213.844 121.645)"/><rect width="4.035" height="4.035" x="213.844" y="127.697" fill="#FD366E" opacity=".32" rx="1.009" transform="rotate(90 213.844 127.697)"/><rect width="4.035" height="4.035" x="213.844" y="133.75" fill="#FD366E" opacity=".16" rx="1.009" transform="rotate(90 213.844 133.75)"/><rect width="4.035" height="4.035" x="213.844" y="139.802" fill="#FD366E" opacity=".8" rx="1.009" transform="rotate(90 213.844 139.802)"/><rect width="4.035" height="4.035" x="213.844" y="145.854" fill="#FD366E" opacity=".8" rx="1.009" transform="rotate(90 213.844 145.854)"/><rect width="4.035" height="4.035" x="213.844" y="151.906" fill="#FD366E" opacity=".64" rx="1.009" transform="rotate(90 213.844 151.906)"/><rect width="4.035" height="4.035" x="213.844" y="157.958" fill="#FD366E" opacity=".4" rx="1.009" transform="rotate(90 213.844 157.958)"/><rect width="4.035" height="4.035" x="213.844" y="164.01" fill="#FD366E" opacity=".8" rx="1.009" transform="rotate(90 213.844 164.01)"/><rect width="4.035" height="4.035" x="213.844" y="170.062" fill="#FD366E" opacity=".4" rx="1.009" transform="rotate(90 213.844 170.062)"/><rect width="4.035" height="4.035" x="213.844" y="176.115" fill="#FD366E" opacity=".16" rx="1.009" transform="rotate(90 213.844 176.115)"/><rect width="4.035" height="4.035" x="213.844" y="182.167" fill="#FD366E" opacity=".32" rx="1.009" transform="rotate(90 213.844 182.167)"/><rect width="4.035" height="4.035" x="213.844" y="188.219" fill="#FD366E" opacity=".16" rx="1.009" transform="rotate(90 213.844 188.219)"/><rect width="4.035" height="4.035" x="213.844" y="194.271" fill="#FD366E" opacity=".64" rx="1.009" transform="rotate(90 213.844 194.271)"/><rect width="4.035" height="4.035" x="213.844" y="200.323" fill="#FD366E" opacity=".16" rx="1.009" transform="rotate(90 213.844 200.323)"/><rect width="4.035" height="4.035" x="213.844" y="206.375" fill="#FD366E" opacity=".64" rx="1.009" transform="rotate(90 213.844 206.375)"/><rect width="4.035" height="4.035" x="213.844" y="212.428" fill="#FD366E" opacity=".32" rx="1.009" transform="rotate(90 213.844 212.428)"/><rect width="4.035" height="4.035" x="213.844" y="218.479" fill="#FD366E" opacity=".8" rx="1.009" transform="rotate(90 213.844 218.479)"/><rect width="4.035" height="4.035" x="213.844" y="224.532" fill="#FD366E" opacity=".4" rx="1.009" transform="rotate(90 213.844 224.532)"/><rect width="4.035" height="4.035" x="213.844" y="230.584" fill="#FD366E" opacity=".32" rx="1.009" transform="rotate(90 213.844 230.584)"/><rect width="4.035" height="4.035" x="213.844" y="236.636" fill="#FD366E" opacity=".32" rx="1.009" transform="rotate(90 213.844 236.636)"/><rect width="4.035" height="4.035" x="213.844" y="242.688" fill="#FD366E" opacity=".64" rx="1.009" transform="rotate(90 213.844 242.688)"/><rect width="4.035" height="4.035" x="213.844" y="248.741" fill="#FD366E" opacity=".4" rx="1.009" transform="rotate(90 213.844 248.741)"/><rect width="4.035" height="4.035" x="213.844" y="254.793" fill="#FD366E" opacity=".16" rx="1.009" transform="rotate(90 213.844 254.793)"/><rect width="4.035" height="4.035" x="213.844" y="260.845" fill="#FD366E" opacity=".8" rx="1.009" transform="rotate(90 213.844 260.845)"/><rect width="4.035" height="4.035" x="213.844" y="266.897" fill="#FD366E" opacity=".8" rx="1.009" transform="rotate(90 213.844 266.897)"/><rect width="4.035" height="4.035" x="213.844" y="272.949" fill="#FD366E" opacity=".8" rx="1.009" transform="rotate(90 213.844 272.949)"/><rect width="4.035" height="4.035" x="213.844" y="279.001" fill="#FD366E" opacity=".64" rx="1.009" transform="rotate(90 213.844 279.001)"/><rect width="4.035" height="4.035" x="213.844" y="285.054" fill="#FD366E" opacity=".4" rx="1.009" transform="rotate(90 213.844 285.054)"/><rect width="4.035" height="4.035" x="213.844" y="291.106" fill="#FD366E" opacity=".4" rx="1.009" transform="rotate(90 213.844 291.106)"/><rect width="4.035" height="4.035" x="213.844" y="297.158" fill="#FD366E" opacity=".32" rx="1.009" transform="rotate(90 213.844 297.158)"/><rect width="4.035" height="4.035" x="213.844" y="303.21" fill="#FD366E" opacity=".16" rx="1.009" transform="rotate(90 213.844 303.21)"/><rect width="4.035" height="4.035" x="213.844" y="309.262" fill="#FD366E" opacity=".64" rx="1.009" transform="rotate(90 213.844 309.262)"/><rect width="4.035" height="4.035" x="213.844" y="315.314" fill="#FD366E" opacity=".32" rx="1.009" transform="rotate(90 213.844 315.314)"/><rect width="4.035" height="4.035" x="213.844" y="321.367" fill="#FD366E" opacity=".16" rx="1.009" transform="rotate(90 213.844 321.367)"/><rect width="4.035" height="4.035" fill="#FD366E" opacity=".64" rx="1.009" transform="matrix(-4.37114e-08 -1 -1 4.37114e-08 207.791 325.401)"/><rect width="4.035" height="4.035" fill="#FD366E" opacity=".4" rx="1.009" transform="matrix(-4.37114e-08 -1 -1 4.37114e-08 207.791 319.349)"/><rect width="4.035" height="4.035" fill="#FD366E" opacity=".32" rx="1.009" transform="matrix(-4.37114e-08 -1 -1 4.37114e-08 207.791 313.297)"/><rect width="4.035" height="4.035" fill="#FD366E" opacity=".16" rx="1.009" transform="matrix(-4.37114e-08 -1 -1 4.37114e-08 207.791 307.245)"/><rect width="4.035" height="4.035" fill="#FD366E" opacity=".8" rx="1.009" transform="matrix(-4.37114e-08 -1 -1 4.37114e-08 207.791 301.193)"/><rect width="4.035" height="4.035" fill="#FD366E" opacity=".64" rx="1.009" transform="matrix(-4.37114e-08 -1 -1 4.37114e-08 207.791 295.141)"/><rect width="4.035" height="4.035" fill="#FD366E" opacity=".4" rx="1.009" transform="matrix(-4.37114e-08 -1 -1 4.37114e-08 207.791 289.088)"/><rect width="4.035" height="4.035" fill="#FD366E" opacity=".32" rx="1.009" transform="matrix(-4.37114e-08 -1 -1 4.37114e-08 207.791 283.036)"/><rect width="4.035" height="4.035" fill="#FD366E" opacity=".16" rx="1.009" transform="matrix(-4.37114e-08 -1 -1 4.37114e-08 207.791 276.984)"/><rect width="4.035" height="4.035" fill="#FD366E" opacity=".4" rx="1.009" transform="matrix(-4.37114e-08 -1 -1 4.37114e-08 207.791 270.932)"/><rect width="4.035" height="4.035" fill="#FD366E" opacity=".32" rx="1.009" transform="matrix(-4.37114e-08 -1 -1 4.37114e-08 207.791 264.879)"/><rect width="4.035" height="4.035" fill="#FD366E" opacity=".8" rx="1.009" transform="matrix(-4.37114e-08 -1 -1 4.37114e-08 207.791 258.828)"/><rect width="4.035" height="4.035" fill="#FD366E" opacity=".16" rx="1.009" transform="matrix(-4.37114e-08 -1 -1 4.37114e-08 207.791 252.775)"/><rect width="4.035" height="4.035" fill="#FD366E" opacity=".4" rx="1.009" transform="matrix(-4.37114e-08 -1 -1 4.37114e-08 207.791 246.723)"/><rect width="4.035" height="4.035" fill="#FD366E" opacity=".32" rx="1.009" transform="matrix(-4.37114e-08 -1 -1 4.37114e-08 207.791 240.671)"/><rect width="4.035" height="4.035" fill="#FD366E" opacity=".32" rx="1.009" transform="matrix(-4.37114e-08 -1 -1 4.37114e-08 207.791 234.619)"/><rect width="4.035" height="4.035" fill="#FD366E" opacity=".32" rx="1.009" transform="matrix(-4.37114e-08 -1 -1 4.37114e-08 207.791 228.566)"/><rect width="4.035" height="4.035" fill="#FD366E" opacity=".64" rx="1.009" transform="matrix(-4.37114e-08 -1 -1 4.37114e-08 207.791 222.515)"/><rect width="4.035" height="4.035" fill="#FD366E" opacity=".16" rx="1.009" transform="matrix(-4.37114e-08 -1 -1 4.37114e-08 207.791 216.462)"/><rect width="4.035" height="4.035" fill="#FD366E" opacity=".64" rx="1.009" transform="matrix(-4.37114e-08 -1 -1 4.37114e-08 207.791 210.41)"/><rect width="4.035" height="4.035" fill="#FD366E" opacity=".4" rx="1.009" transform="matrix(-4.37114e-08 -1 -1 4.37114e-08 207.791 204.358)"/><rect width="4.035" height="4.035" fill="#FD366E" opacity=".32" rx="1.009" transform="matrix(-4.37114e-08 -1 -1 4.37114e-08 207.791 198.306)"/><rect width="4.035" height="4.035" fill="#FD366E" opacity=".16" rx="1.009" transform="matrix(-4.37114e-08 -1 -1 4.37114e-08 207.791 192.253)"/><rect width="4.035" height="4.035" fill="#FD366E" opacity=".8" rx="1.009" transform="matrix(-4.37114e-08 -1 -1 4.37114e-08 207.791 186.201)"/><rect width="4.035" height="4.035" fill="#FD366E" opacity=".8" rx="1.009" transform="matrix(-4.37114e-08 -1 -1 4.37114e-08 207.791 180.149)"/><rect width="4.035" height="4.035" fill="#FD366E" opacity=".64" rx="1.009" transform="matrix(-4.37114e-08 -1 -1 4.37114e-08 207.791 174.097)"/><rect width="4.035" height="4.035" fill="#FD366E" opacity=".4" rx="1.009" transform="matrix(-4.37114e-08 -1 -1 4.37114e-08 207.791 168.045)"/><rect width="4.035" height="4.035" fill="#FD366E" opacity=".8" rx="1.009" transform="matrix(-4.37114e-08 -1 -1 4.37114e-08 207.791 161.993)"/><rect width="4.035" height="4.035" fill="#FD366E" opacity=".4" rx="1.009" transform="matrix(-4.37114e-08 -1 -1 4.37114e-08 207.791 155.94)"/><rect width="4.035" height="4.035" fill="#FD366E" opacity=".16" rx="1.009" transform="matrix(-4.37114e-08 -1 -1 4.37114e-08 207.791 149.888)"/><rect width="4.035" height="4.035" fill="#FD366E" opacity=".32" rx="1.009" transform="matrix(-4.37114e-08 -1 -1 4.37114e-08 207.791 143.836)"/><rect width="4.035" height="4.035" fill="#FD366E" opacity=".16" rx="1.009" transform="matrix(-4.37114e-08 -1 -1 4.37114e-08 207.791 137.784)"/><rect width="4.035" height="4.035" fill="#FD366E" opacity=".64" rx="1.009" transform="matrix(-4.37114e-08 -1 -1 4.37114e-08 207.791 131.732)"/><rect width="4.035" height="4.035" fill="#FD366E" opacity=".16" rx="1.009" transform="matrix(-4.37114e-08 -1 -1 4.37114e-08 207.791 125.68)"/><rect width="4.035" height="4.035" fill="#FD366E" opacity=".64" rx="1.009" transform="matrix(-4.37114e-08 -1 -1 4.37114e-08 207.791 119.627)"/><rect width="4.035" height="4.035" fill="#FD366E" opacity=".32" rx="1.009" transform="matrix(-4.37114e-08 -1 -1 4.37114e-08 207.791 113.575)"/><rect width="4.035" height="4.035" fill="#FD366E" opacity=".8" rx="1.009" transform="matrix(-4.37114e-08 -1 -1 4.37114e-08 207.791 107.523)"/><rect width="4.035" height="4.035" fill="#FD366E" opacity=".4" rx="1.009" transform="matrix(-4.37114e-08 -1 -1 4.37114e-08 207.791 101.471)"/><rect width="4.035" height="4.035" fill="#FD366E" opacity=".32" rx="1.009" transform="matrix(-4.37114e-08 -1 -1 4.37114e-08 207.791 95.4189)"/><rect width="4.035" height="4.035" fill="#FD366E" opacity=".32" rx="1.009" transform="matrix(-4.37114e-08 -1 -1 4.37114e-08 207.791 89.3667)"/><rect width="4.035" height="4.035" fill="#FD366E" opacity=".64" rx="1.009" transform="matrix(-4.37114e-08 -1 -1 4.37114e-08 207.791 83.3145)"/><rect width="4.035" height="4.035" fill="#FD366E" opacity=".4" rx="1.009" transform="matrix(-4.37114e-08 -1 -1 4.37114e-08 207.791 77.2622)"/><rect width="4.035" height="4.035" fill="#FD366E" opacity=".16" rx="1.009" transform="matrix(-4.37114e-08 -1 -1 4.37114e-08 207.791 71.21)"/><rect width="4.035" height="4.035" fill="#FD366E" opacity=".8" rx="1.009" transform="matrix(-4.37114e-08 -1 -1 4.37114e-08 207.791 65.1582)"/><rect width="4.035" height="4.035" fill="#FD366E" opacity=".8" rx="1.009" transform="matrix(-4.37114e-08 -1 -1 4.37114e-08 207.791 59.106)"/><rect width="4.035" height="4.035" fill="#FD366E" opacity=".8" rx="1.009" transform="matrix(-4.37114e-08 -1 -1 4.37114e-08 207.791 53.0537)"/><rect width="4.035" height="4.035" fill="#FD366E" opacity=".64" rx="1.009" transform="matrix(-4.37114e-08 -1 -1 4.37114e-08 207.791 47.0015)"/><rect width="4.035" height="4.035" fill="#FD366E" opacity=".4" rx="1.009" transform="matrix(-4.37114e-08 -1 -1 4.37114e-08 207.791 40.9492)"/><rect width="4.035" height="4.035" fill="#FD366E" opacity=".4" rx="1.009" transform="matrix(-4.37114e-08 -1 -1 4.37114e-08 207.791 34.897)"/><rect width="4.035" height="4.035" fill="#FD366E" opacity=".32" rx="1.009" transform="matrix(-4.37114e-08 -1 -1 4.37114e-08 207.791 28.8447)"/><rect width="4.035" height="4.035" fill="#FD366E" opacity=".16" rx="1.009" transform="matrix(-4.37114e-08 -1 -1 4.37114e-08 207.791 22.793)"/><rect width="4.035" height="4.035" fill="#FD366E" opacity=".64" rx="1.009" transform="matrix(-4.37114e-08 -1 -1 4.37114e-08 207.791 16.7407)"/><rect width="4.035" height="4.035" fill="#FD366E" opacity=".32" rx="1.009" transform="matrix(-4.37114e-08 -1 -1 4.37114e-08 207.791 10.6885)"/><rect width="4.035" height="4.035" fill="#FD366E" opacity=".16" rx="1.009" transform="matrix(-4.37114e-08 -1 -1 4.37114e-08 207.791 4.63623)"/><rect width="4.035" height="4.035" x="201.738" y=".602" fill="#FD366E" opacity=".4" rx="1.009" transform="rotate(90 201.738 0.601562)"/><rect width="4.035" height="4.035" x="201.738" y="6.654" fill="#FD366E" opacity=".32" rx="1.009" transform="rotate(90 201.738 6.65381)"/><rect width="4.035" height="4.035" x="201.738" y="12.706" fill="#FD366E" opacity=".16" rx="1.009" transform="rotate(90 201.738 12.7061)"/><rect width="4.035" height="4.035" x="201.738" y="18.758" fill="#FD366E" opacity=".8" rx="1.009" transform="rotate(90 201.738 18.7583)"/><rect width="4.035" height="4.035" x="201.738" y="24.81" fill="#FD366E" opacity=".8" rx="1.009" transform="rotate(90 201.738 24.8101)"/><rect width="4.035" height="4.035" x="201.738" y="30.862" fill="#FD366E" opacity=".64" rx="1.009" transform="rotate(90 201.738 30.8623)"/><rect width="4.035" height="4.035" x="201.738" y="36.915" fill="#FD366E" opacity=".32" rx="1.009" transform="rotate(90 201.738 36.9146)"/><rect width="4.035" height="4.035" x="201.738" y="42.967" fill="#FD366E" opacity=".32" rx="1.009" transform="rotate(90 201.738 42.9668)"/><rect width="4.035" height="4.035" x="201.738" y="49.019" fill="#FD366E" opacity=".32" rx="1.009" transform="rotate(90 201.738 49.019)"/><rect width="4.035" height="4.035" x="201.738" y="55.071" fill="#FD366E" opacity=".64" rx="1.009" transform="rotate(90 201.738 55.0713)"/><rect width="4.035" height="4.035" x="201.738" y="61.123" fill="#FD366E" opacity=".16" rx="1.009" transform="rotate(90 201.738 61.1235)"/><rect width="4.035" height="4.035" x="201.738" y="67.175" fill="#FD366E" opacity=".64" rx="1.009" transform="rotate(90 201.738 67.1753)"/><rect width="4.035" height="4.035" x="201.738" y="73.228" fill="#FD366E" opacity=".4" rx="1.009" transform="rotate(90 201.738 73.2275)"/><rect width="4.035" height="4.035" x="201.738" y="79.28" fill="#FD366E" opacity=".4" rx="1.009" transform="rotate(90 201.738 79.2798)"/><rect width="4.035" height="4.035" x="201.738" y="85.332" fill="#FD366E" opacity=".8" rx="1.009" transform="rotate(90 201.738 85.332)"/><rect width="4.035" height="4.035" x="201.738" y="91.384" fill="#FD366E" opacity=".4" rx="1.009" transform="rotate(90 201.738 91.3843)"/><rect width="4.035" height="4.035" x="201.738" y="97.436" fill="#FD366E" opacity=".4" rx="1.009" transform="rotate(90 201.738 97.4365)"/><rect width="4.035" height="4.035" x="201.738" y="103.488" fill="#FD366E" opacity=".16" rx="1.009" transform="rotate(90 201.738 103.488)"/><rect width="4.035" height="4.035" x="201.738" y="109.541" fill="#FD366E" opacity=".8" rx="1.009" transform="rotate(90 201.738 109.541)"/><rect width="4.035" height="4.035" x="201.738" y="115.593" fill="#FD366E" opacity=".8" rx="1.009" transform="rotate(90 201.738 115.593)"/><rect width="4.035" height="4.035" x="201.738" y="121.645" fill="#FD366E" opacity=".8" rx="1.009" transform="rotate(90 201.738 121.645)"/><rect width="4.035" height="4.035" x="201.738" y="127.697" fill="#FD366E" opacity=".64" rx="1.009" transform="rotate(90 201.738 127.697)"/><rect width="4.035" height="4.035" x="201.738" y="133.75" fill="#FD366E" opacity=".4" rx="1.009" transform="rotate(90 201.738 133.75)"/><rect width="4.035" height="4.035" x="201.738" y="139.802" fill="#FD366E" opacity=".4" rx="1.009" transform="rotate(90 201.738 139.802)"/><rect width="4.035" height="4.035" x="201.738" y="145.854" fill="#FD366E" opacity=".32" rx="1.009" transform="rotate(90 201.738 145.854)"/><rect width="4.035" height="4.035" x="201.738" y="151.906" fill="#FD366E" opacity=".16" rx="1.009" transform="rotate(90 201.738 151.906)"/><rect width="4.035" height="4.035" x="201.738" y="157.958" fill="#FD366E" opacity=".64" rx="1.009" transform="rotate(90 201.738 157.958)"/><rect width="4.035" height="4.035" x="201.738" y="164.01" fill="#FD366E" opacity=".32" rx="1.009" transform="rotate(90 201.738 164.01)"/><rect width="4.035" height="4.035" x="201.738" y="170.062" fill="#FD366E" opacity=".16" rx="1.009" transform="rotate(90 201.738 170.062)"/><rect width="4.035" height="4.035" x="201.738" y="176.115" fill="#FD366E" opacity=".16" rx="1.009" transform="rotate(90 201.738 176.115)"/><rect width="4.035" height="4.035" x="201.738" y="182.167" fill="#FD366E" opacity=".64" rx="1.009" transform="rotate(90 201.738 182.167)"/><rect width="4.035" height="4.035" x="201.738" y="188.219" fill="#FD366E" opacity=".4" rx="1.009" transform="rotate(90 201.738 188.219)"/><rect width="4.035" height="4.035" x="201.738" y="194.271" fill="#FD366E" opacity=".32" rx="1.009" transform="rotate(90 201.738 194.271)"/><rect width="4.035" height="4.035" x="201.738" y="200.323" fill="#FD366E" opacity=".16" rx="1.009" transform="rotate(90 201.738 200.323)"/><rect width="4.035" height="4.035" x="201.738" y="206.375" fill="#FD366E" opacity=".32" rx="1.009" transform="rotate(90 201.738 206.375)"/><rect width="4.035" height="4.035" x="201.738" y="212.428" fill="#FD366E" opacity=".32" rx="1.009" transform="rotate(90 201.738 212.428)"/><rect width="4.035" height="4.035" x="201.738" y="218.479" fill="#FD366E" opacity=".64" rx="1.009" transform="rotate(90 201.738 218.479)"/><rect width="4.035" height="4.035" x="201.738" y="224.532" fill="#FD366E" opacity=".4" rx="1.009" transform="rotate(90 201.738 224.532)"/><rect width="4.035" height="4.035" x="201.738" y="230.584" fill="#FD366E" opacity=".8" rx="1.009" transform="rotate(90 201.738 230.584)"/><rect width="4.035" height="4.035" x="201.738" y="236.636" fill="#FD366E" opacity=".64" rx="1.009" transform="rotate(90 201.738 236.636)"/><rect width="4.035" height="4.035" x="201.738" y="242.688" fill="#FD366E" opacity=".4" rx="1.009" transform="rotate(90 201.738 242.688)"/><rect width="4.035" height="4.035" x="201.738" y="248.741" fill="#FD366E" opacity=".32" rx="1.009" transform="rotate(90 201.738 248.741)"/><rect width="4.035" height="4.035" x="201.738" y="254.793" fill="#FD366E" opacity=".16" rx="1.009" transform="rotate(90 201.738 254.793)"/><rect width="4.035" height="4.035" x="201.738" y="260.845" fill="#FD366E" opacity=".4" rx="1.009" transform="rotate(90 201.738 260.845)"/><rect width="4.035" height="4.035" x="201.738" y="266.897" fill="#FD366E" opacity=".32" rx="1.009" transform="rotate(90 201.738 266.897)"/><rect width="4.035" height="4.035" x="201.738" y="272.949" fill="#FD366E" opacity=".8" rx="1.009" transform="rotate(90 201.738 272.949)"/><rect width="4.035" height="4.035" x="201.738" y="279.001" fill="#FD366E" opacity=".16" rx="1.009" transform="rotate(90 201.738 279.001)"/><rect width="4.035" height="4.035" x="201.738" y="285.054" fill="#FD366E" opacity=".32" rx="1.009" transform="rotate(90 201.738 285.054)"/><rect width="4.035" height="4.035" x="201.738" y="291.106" fill="#FD366E" opacity=".16" rx="1.009" transform="rotate(90 201.738 291.106)"/><rect width="4.035" height="4.035" x="201.738" y="297.158" fill="#FD366E" opacity=".64" rx="1.009" transform="rotate(90 201.738 297.158)"/><rect width="4.035" height="4.035" x="201.738" y="303.21" fill="#FD366E" opacity=".16" rx="1.009" transform="rotate(90 201.738 303.21)"/><rect width="4.035" height="4.035" x="201.738" y="309.262" fill="#FD366E" opacity=".64" rx="1.009" transform="rotate(90 201.738 309.262)"/><rect width="4.035" height="4.035" x="201.738" y="315.314" fill="#FD366E" opacity=".32" rx="1.009" transform="rotate(90 201.738 315.314)"/><rect width="4.035" height="4.035" x="201.738" y="321.367" fill="#FD366E" opacity=".8" rx="1.009" transform="rotate(90 201.738 321.367)"/><rect width="4.035" height="4.035" x="195.688" y=".602" fill="#FD366E" opacity=".64" rx="1.009" transform="rotate(90 195.688 0.601562)"/><rect width="4.035" height="4.035" x="195.688" y="6.654" fill="#FD366E" opacity=".4" rx="1.009" transform="rotate(90 195.688 6.65381)"/><rect width="4.035" height="4.035" x="195.688" y="12.706" fill="#FD366E" opacity=".32" rx="1.009" transform="rotate(90 195.688 12.7061)"/><rect width="4.035" height="4.035" x="195.688" y="18.758" fill="#FD366E" opacity=".16" rx="1.009" transform="rotate(90 195.688 18.7583)"/><rect width="4.035" height="4.035" x="195.688" y="24.81" fill="#FD366E" opacity=".8" rx="1.009" transform="rotate(90 195.688 24.8101)"/><rect width="4.035" height="4.035" x="195.688" y="30.862" fill="#FD366E" opacity=".64" rx="1.009" transform="rotate(90 195.688 30.8623)"/><rect width="4.035" height="4.035" x="195.688" y="36.915" fill="#FD366E" opacity=".4" rx="1.009" transform="rotate(90 195.688 36.9146)"/><rect width="4.035" height="4.035" x="195.688" y="42.967" fill="#FD366E" opacity=".32" rx="1.009" transform="rotate(90 195.688 42.9668)"/><rect width="4.035" height="4.035" x="195.688" y="49.019" fill="#FD366E" opacity=".16" rx="1.009" transform="rotate(90 195.688 49.019)"/><rect width="4.035" height="4.035" x="195.688" y="55.071" fill="#FD366E" opacity=".4" rx="1.009" transform="rotate(90 195.688 55.0713)"/><rect width="4.035" height="4.035" x="195.688" y="61.123" fill="#FD366E" opacity=".32" rx="1.009" transform="rotate(90 195.688 61.1235)"/><rect width="4.035" height="4.035" x="195.688" y="67.175" fill="#FD366E" opacity=".8" rx="1.009" transform="rotate(90 195.688 67.1753)"/><rect width="4.035" height="4.035" x="195.688" y="73.228" fill="#FD366E" opacity=".16" rx="1.009" transform="rotate(90 195.688 73.2275)"/><rect width="4.035" height="4.035" x="195.688" y="79.28" fill="#FD366E" opacity=".4" rx="1.009" transform="rotate(90 195.688 79.2798)"/><rect width="4.035" height="4.035" x="195.688" y="85.332" fill="#FD366E" opacity=".32" rx="1.009" transform="rotate(90 195.688 85.332)"/><rect width="4.035" height="4.035" x="195.688" y="91.384" fill="#FD366E" opacity=".32" rx="1.009" transform="rotate(90 195.688 91.3843)"/><rect width="4.035" height="4.035" x="195.688" y="97.436" fill="#FD366E" opacity=".32" rx="1.009" transform="rotate(90 195.688 97.4365)"/><rect width="4.035" height="4.035" x="195.688" y="103.488" fill="#FD366E" opacity=".64" rx="1.009" transform="rotate(90 195.688 103.488)"/><rect width="4.035" height="4.035" x="195.688" y="109.541" fill="#FD366E" opacity=".16" rx="1.009" transform="rotate(90 195.688 109.541)"/><rect width="4.035" height="4.035" x="195.688" y="115.593" fill="#FD366E" opacity=".64" rx="1.009" transform="rotate(90 195.688 115.593)"/><rect width="4.035" height="4.035" x="195.688" y="121.645" fill="#FD366E" opacity=".4" rx="1.009" transform="rotate(90 195.688 121.645)"/><rect width="4.035" height="4.035" x="195.688" y="127.697" fill="#FD366E" opacity=".32" rx="1.009" transform="rotate(90 195.688 127.697)"/><rect width="4.035" height="4.035" x="195.688" y="133.75" fill="#FD366E" opacity=".16" rx="1.009" transform="rotate(90 195.688 133.75)"/><rect width="4.035" height="4.035" x="195.688" y="139.802" fill="#FD366E" opacity=".8" rx="1.009" transform="rotate(90 195.688 139.802)"/><rect width="4.035" height="4.035" x="195.688" y="145.854" fill="#FD366E" opacity=".8" rx="1.009" transform="rotate(90 195.688 145.854)"/><rect width="4.035" height="4.035" x="195.688" y="151.906" fill="#FD366E" opacity=".64" rx="1.009" transform="rotate(90 195.688 151.906)"/><rect width="4.035" height="4.035" x="195.688" y="157.958" fill="#FD366E" opacity=".4" rx="1.009" transform="rotate(90 195.688 157.958)"/><rect width="4.035" height="4.035" x="195.688" y="164.01" fill="#FD366E" opacity=".8" rx="1.009" transform="rotate(90 195.688 164.01)"/><rect width="4.035" height="4.035" x="195.688" y="170.062" fill="#FD366E" opacity=".4" rx="1.009" transform="rotate(90 195.688 170.062)"/><rect width="4.035" height="4.035" x="195.688" y="176.115" fill="#FD366E" opacity=".16" rx="1.009" transform="rotate(90 195.688 176.115)"/><rect width="4.035" height="4.035" x="195.688" y="182.167" fill="#FD366E" opacity=".32" rx="1.009" transform="rotate(90 195.688 182.167)"/><rect width="4.035" height="4.035" x="195.688" y="188.219" fill="#FD366E" opacity=".16" rx="1.009" transform="rotate(90 195.688 188.219)"/><rect width="4.035" height="4.035" x="195.688" y="194.271" fill="#FD366E" opacity=".64" rx="1.009" transform="rotate(90 195.688 194.271)"/><rect width="4.035" height="4.035" x="195.688" y="200.323" fill="#FD366E" opacity=".16" rx="1.009" transform="rotate(90 195.688 200.323)"/><rect width="4.035" height="4.035" x="195.688" y="206.375" fill="#FD366E" opacity=".64" rx="1.009" transform="rotate(90 195.688 206.375)"/><rect width="4.035" height="4.035" x="195.688" y="212.428" fill="#FD366E" opacity=".32" rx="1.009" transform="rotate(90 195.688 212.428)"/><rect width="4.035" height="4.035" x="195.688" y="218.479" fill="#FD366E" opacity=".8" rx="1.009" transform="rotate(90 195.688 218.479)"/><rect width="4.035" height="4.035" x="195.688" y="224.532" fill="#FD366E" opacity=".4" rx="1.009" transform="rotate(90 195.688 224.532)"/><rect width="4.035" height="4.035" x="195.688" y="230.584" fill="#FD366E" opacity=".32" rx="1.009" transform="rotate(90 195.688 230.584)"/><rect width="4.035" height="4.035" x="195.688" y="236.636" fill="#FD366E" opacity=".32" rx="1.009" transform="rotate(90 195.688 236.636)"/><rect width="4.035" height="4.035" x="195.688" y="242.688" fill="#FD366E" opacity=".64" rx="1.009" transform="rotate(90 195.688 242.688)"/><rect width="4.035" height="4.035" x="195.688" y="248.741" fill="#FD366E" opacity=".4" rx="1.009" transform="rotate(90 195.688 248.741)"/><rect width="4.035" height="4.035" x="195.688" y="254.793" fill="#FD366E" opacity=".16" rx="1.009" transform="rotate(90 195.688 254.793)"/><rect width="4.035" height="4.035" x="195.688" y="260.845" fill="#FD366E" opacity=".8" rx="1.009" transform="rotate(90 195.688 260.845)"/><rect width="4.035" height="4.035" x="195.688" y="266.897" fill="#FD366E" opacity=".8" rx="1.009" transform="rotate(90 195.688 266.897)"/><rect width="4.035" height="4.035" x="195.688" y="272.949" fill="#FD366E" opacity=".8" rx="1.009" transform="rotate(90 195.688 272.949)"/><rect width="4.035" height="4.035" x="195.688" y="279.001" fill="#FD366E" opacity=".64" rx="1.009" transform="rotate(90 195.688 279.001)"/><rect width="4.035" height="4.035" x="195.688" y="285.054" fill="#FD366E" opacity=".4" rx="1.009" transform="rotate(90 195.688 285.054)"/><rect width="4.035" height="4.035" x="195.688" y="291.106" fill="#FD366E" opacity=".4" rx="1.009" transform="rotate(90 195.688 291.106)"/><rect width="4.035" height="4.035" x="195.688" y="297.158" fill="#FD366E" opacity=".32" rx="1.009" transform="rotate(90 195.688 297.158)"/><rect width="4.035" height="4.035" x="195.688" y="303.21" fill="#FD366E" opacity=".16" rx="1.009" transform="rotate(90 195.688 303.21)"/><rect width="4.035" height="4.035" x="195.688" y="309.262" fill="#FD366E" opacity=".64" rx="1.009" transform="rotate(90 195.688 309.262)"/><rect width="4.035" height="4.035" x="195.688" y="315.314" fill="#FD366E" opacity=".32" rx="1.009" transform="rotate(90 195.688 315.314)"/><rect width="4.035" height="4.035" x="195.688" y="321.367" fill="#FD366E" opacity=".16" rx="1.009" transform="rotate(90 195.688 321.367)"/></g></g><g clip-path="url(#clip3_2060_26177)"><path fill="#fff" fill-opacity=".08" fill-rule="evenodd" d="M25.0498 173.67C46.4638 160.08 76.2511 166.395 91.2135 187.946C98.4887 197.966 101.371 210.595 99.0378 222.949C98.0769 228.715 95.8806 234.205 92.5861 239.147C97.3906 248.07 98.9005 258.365 97.116 268.385C95.057 280.328 87.919 290.898 77.6238 297.349L39.8749 321.371C18.4609 334.961 -11.1892 328.646 -26.2888 307.095C-33.4268 297.075 -36.3094 284.446 -34.1131 272.229C-33.1522 266.464 -30.9559 260.973 -27.6615 256.031C-32.4659 247.109 -33.9758 236.814 -32.1914 226.793C-30.1323 214.851 -22.9943 204.281 -12.6992 197.829L25.0498 173.67ZM-10.7767 297.212C-3.63875 307.507 9.12727 312.312 21.3442 309.155C24.0896 308.331 26.6977 307.233 29.0313 305.723L66.7802 281.701C72.9573 277.857 77.3499 271.406 78.5854 264.268C79.8208 256.855 78.1736 249.305 73.7809 243.266C66.643 232.97 53.8769 228.166 41.66 231.323C38.9146 232.147 36.3065 233.245 33.9729 234.755L19.5597 243.952C18.8734 244.364 18.0498 244.638 17.2261 244.913C13.5199 245.874 9.67634 244.501 7.48004 241.344C6.24462 239.559 5.69554 237.226 6.10735 235.029C6.51915 232.833 7.75458 231.049 9.67634 229.813L47.288 205.791C47.9744 205.379 48.798 205.105 49.6216 204.83C53.3279 203.869 57.1714 205.242 59.3677 208.399C60.4659 210.046 61.0149 212.105 60.8777 214.027L60.7404 215.4L62.1131 215.812C67.4666 217.459 72.4083 219.93 76.9381 223.224L78.8599 224.597L79.5463 222.401C79.9581 221.165 80.2326 220.067 80.5071 218.832C81.7426 211.419 80.0953 203.869 75.7027 197.829C68.5647 187.534 55.7987 182.73 43.5818 185.887C40.8364 186.711 38.2283 187.809 35.8947 189.319L-1.85425 213.341C-8.03135 217.184 -12.424 223.636 -13.6594 230.774C-15.0321 238.187 -13.2476 245.736 -8.99224 251.776C-1.85425 262.071 10.9118 266.876 23.1287 263.719C25.8741 263.032 28.4822 261.934 30.8158 260.424L45.229 251.227C45.9153 250.815 46.739 250.541 47.5626 250.266C51.2688 249.305 55.1124 250.678 57.3087 253.835C58.5441 255.62 59.0932 257.953 58.6814 260.15C58.2696 262.346 57.0341 264.13 55.1124 265.366L17.5007 289.388C16.8143 289.8 15.9907 290.074 15.1671 290.349C11.4608 291.31 7.61731 289.8 5.421 286.642C4.32285 284.995 3.77378 282.936 3.91105 281.014L4.04831 279.642L2.67562 279.23C-2.67786 277.583 -7.61955 275.112 -12.1494 271.817L-14.0712 270.445L-14.7575 272.641C-14.8948 273.259 -15.0321 273.842 -15.1693 274.426C-15.3066 275.009 -15.4439 275.592 -15.5811 276.21C-16.8166 283.623 -15.1693 291.172 -10.7767 297.212Z" clip-rule="evenodd"/></g></g></g></g><defs><filter id="filter0_d_2060_26177" width="326.817" height="419.617" x="-47.409" y="-44.79" color-interpolation-filters="sRGB" filterUnits="userSpaceOnUse"><feFlood flood-opacity="0" result="BackgroundImageFix"/><feColorMatrix in="SourceAlpha" result="hardAlpha" type="matrix" values="0 0 0 0 0 0 0 0 0 0 0 0 0 0 0 0 0 0 127 0"/><feOffset dy="2.017"/><feGaussianBlur stdDeviation="23.704"/><feComposite in2="hardAlpha" operator="out"/><feColorMatrix type="matrix" values="0 0 0 0 0 0 0 0 0 0 0 0 0 0 0 0 0 0 0.16 0"/><feBlend in2="BackgroundImageFix" mode="normal" result="effect1_dropShadow_2060_26177"/><feBlend in="SourceGraphic" in2="effect1_dropShadow_2060_26177" mode="normal" result="shape"/></filter><filter id="filter1_b_2060_26177" width="248.139" height="340.939" x="-8.07" y="-7.468" color-interpolation-filters="sRGB" filterUnits="userSpaceOnUse"><feFlood flood-opacity="0" result="BackgroundImageFix"/><feGaussianBlur in="BackgroundImageFix" stdDeviation="4.035"/><feComposite in2="SourceAlpha" operator="in" result="effect1_backgroundBlur_2060_26177"/><feBlend in="SourceGraphic" in2="effect1_backgroundBlur_2060_26177" mode="normal" result="shape"/></filter><filter id="filter2_b_2060_26177" width="248.139" height="340.939" x="-8.07" y="-7.468" color-interpolation-filters="sRGB" filterUnits="userSpaceOnUse"><feFlood flood-opacity="0" result="BackgroundImageFix"/><feGaussianBlur in="BackgroundImageFix" stdDeviation="4.035"/><feComposite in2="SourceAlpha" operator="in" result="effect1_backgroundBlur_2060_26177"/><feBlend in="SourceGraphic" in2="effect1_backgroundBlur_2060_26177" mode="normal" result="shape"/></filter><filter id="filter3_f_2060_26177" width="365.646" height="390.521" x="-5.4" y="82.904" color-interpolation-filters="sRGB" filterUnits="userSpaceOnUse"><feFlood flood-opacity="0" result="BackgroundImageFix"/><feBlend in="SourceGraphic" in2="BackgroundImageFix" mode="normal" result="shape"/><feGaussianBlur result="effect1_foregroundBlur_2060_26177" stdDeviation="17.652"/></filter><filter id="filter4_f_2060_26177" width="365.646" height="390.521" x="21.33" y="-57.305" color-interpolation-filters="sRGB" filterUnits="userSpaceOnUse"><feFlood flood-opacity="0" result="BackgroundImageFix"/><feBlend in="SourceGraphic" in2="BackgroundImageFix" mode="normal" result="shape"/><feGaussianBlur result="effect1_foregroundBlur_2060_26177" stdDeviation="17.652"/></filter><filter id="filter5_f_2060_26177" width="365.646" height="390.521" x="-76.009" y="-80.001" color-interpolation-filters="sRGB" filterUnits="userSpaceOnUse"><feFlood flood-opacity="0" result="BackgroundImageFix"/><feBlend in="SourceGraphic" in2="BackgroundImageFix" mode="normal" result="shape"/><feGaussianBlur result="effect1_foregroundBlur_2060_26177" stdDeviation="17.652"/></filter><filter id="filter6_f_2060_26177" width="365.646" height="390.521" x="-183.939" y="-93.618" color-interpolation-filters="sRGB" filterUnits="userSpaceOnUse"><feFlood flood-opacity="0" result="BackgroundImageFix"/><feBlend in="SourceGraphic" in2="BackgroundImageFix" mode="normal" result="shape"/><feGaussianBlur result="effect1_foregroundBlur_2060_26177" stdDeviation="17.652"/></filter><linearGradient id="paint0_linear_2060_26177" x1="232" x2="138.647" y1=".602" y2="13.938" gradientUnits="userSpaceOnUse"><stop stop-color="#FD366E"/><stop offset="1" stop-color="#FD366E" stop-opacity="0"/></linearGradient><linearGradient id="paint1_linear_2060_26177" x1="223.174" x2="167.894" y1=".602" y2="77.115" gradientUnits="userSpaceOnUse"><stop stop-color="#fff" stop-opacity=".2"/><stop offset="1" stop-color="#fff" stop-opacity="0"/></linearGradient><linearGradient id="paint2_linear_2060_26177" x1="216.617" x2="90.278" y1="19.262" y2="113.828" gradientUnits="userSpaceOnUse"><stop stop-color="#FD366E"/><stop offset="1" stop-color="#FD366E" stop-opacity="0"/></linearGradient><linearGradient id="paint3_linear_2060_26177" x1="256.209" x2="164.67" y1="48.515" y2="120.132" gradientUnits="userSpaceOnUse"><stop stop-color="#fff" stop-opacity=".44"/><stop offset="1" stop-color="#fff" stop-opacity="0"/></linearGradient><linearGradient id="paint4_linear_2060_26177" x1="224.455" x2="41.377" y1="166.903" y2="417.706" gradientUnits="userSpaceOnUse"><stop stop-color="#FD366E" stop-opacity=".16"/><stop offset="1" stop-color="#FD366E" stop-opacity="0"/></linearGradient><linearGradient id="paint5_linear_2060_26177" x1="251.185" x2="68.107" y1="26.695" y2="277.498" gradientUnits="userSpaceOnUse"><stop stop-color="#FD366E" stop-opacity=".16"/><stop offset="1" stop-color="#FD366E" stop-opacity="0"/></linearGradient><linearGradient id="paint6_linear_2060_26177" x1="153.845" x2="-29.233" y1="3.999" y2="254.802" gradientUnits="userSpaceOnUse"><stop stop-color="#FD366E" stop-opacity=".16"/><stop offset="1" stop-color="#FD366E" stop-opacity="0"/></linearGradient><linearGradient id="paint7_linear_2060_26177" x1="45.916" x2="-137.162" y1="-9.618" y2="241.185" gradientUnits="userSpaceOnUse"><stop stop-color="#FD366E" stop-opacity=".16"/><stop offset="1" stop-color="#FD366E" stop-opacity="0"/></linearGradient><linearGradient id="paint8_linear_2060_26177" x1="211.826" x2="211.826" y1=".602" y2="325.402" gradientUnits="userSpaceOnUse"><stop stop-color="#D9D9D9"/><stop offset=".199" stop-color="#D9D9D9" stop-opacity=".4"/><stop offset=".392" stop-color="#D9D9D9"/><stop offset=".58" stop-color="#D9D9D9" stop-opacity=".4"/><stop offset=".754" stop-color="#D9D9D9"/><stop offset=".964" stop-color="#D9D9D9" stop-opacity=".4"/></linearGradient><linearGradient id="paint9_linear_2060_26177" x1="3.32" x2="40.348" y1="146.546" y2="146.546" gradientUnits="userSpaceOnUse"><stop stop-color="#222224"/><stop offset="1" stop-color="#222224" stop-opacity="0"/></linearGradient><clipPath id="clip0_2060_26177"><rect width="232" height="324" y=".602" fill="#fff" rx="8"/></clipPath><clipPath id="clip1_2060_26177"><rect width="232" height="324.8" y=".602" fill="#fff" rx="8.07"/></clipPath><clipPath id="clip2_2060_26177"><rect width="28.748" height="12.104" fill="#fff" transform="translate(33.2871 285.054)"/></clipPath><clipPath id="clip3_2060_26177"><rect width="134.661" height="161.977" fill="#fff" transform="translate(-34.8008 166.532)"/></clipPath></defs></svg>