<svg xmlns="http://www.w3.org/2000/svg" width="232" height="325" fill="none" viewBox="0 0 232 325"><g clip-path="url(#clip0_2060_26175)"><g filter="url(#filter0_b_2060_26175)"><mask id="path-2-inside-1_2060_26175" fill="#fff"><path fill-rule="evenodd" d="M0.87953 5.00762C0 6.7338 0 8.99349 0 13.5129V311.69C0 316.21 0 318.469 0.87953 320.195C1.65319 321.714 2.88767 322.948 4.40606 323.722C6.13223 324.602 8.39192 324.602 12.9113 324.602H219.089C223.608 324.602 225.868 324.602 227.594 323.722C229.112 322.948 230.347 321.714 231.12 320.195C232 318.469 232 316.21 232 311.69V13.5129C232 8.99349 232 6.7338 231.12 5.00762C230.347 3.48924 229.112 2.25475 227.594 1.48109C225.868 0.601562 223.608 0.601562 219.089 0.601562H12.9113C8.39192 0.601562 6.13223 0.601562 4.40606 1.48109C2.88767 2.25475 1.65319 3.48924 0.87953 5.00762ZM97.8435 8.67113C96.7293 8.67113 95.8261 9.57434 95.8261 10.6885C95.8261 11.8027 96.7293 12.7059 97.8435 12.7059H134.157C135.271 12.7059 136.174 11.8027 136.174 10.6885C136.174 9.57434 135.271 8.67113 134.157 8.67113H97.8435Z" clip-rule="evenodd"/></mask><path fill="#17171A" fill-rule="evenodd" d="M0.87953 5.00762C0 6.7338 0 8.99349 0 13.5129V311.69C0 316.21 0 318.469 0.87953 320.195C1.65319 321.714 2.88767 322.948 4.40606 323.722C6.13223 324.602 8.39192 324.602 12.9113 324.602H219.089C223.608 324.602 225.868 324.602 227.594 323.722C229.112 322.948 230.347 321.714 231.12 320.195C232 318.469 232 316.21 232 311.69V13.5129C232 8.99349 232 6.7338 231.12 5.00762C230.347 3.48924 229.112 2.25475 227.594 1.48109C225.868 0.601562 223.608 0.601562 219.089 0.601562H12.9113C8.39192 0.601562 6.13223 0.601562 4.40606 1.48109C2.88767 2.25475 1.65319 3.48924 0.87953 5.00762ZM97.8435 8.67113C96.7293 8.67113 95.8261 9.57434 95.8261 10.6885C95.8261 11.8027 96.7293 12.7059 97.8435 12.7059H134.157C135.271 12.7059 136.174 11.8027 136.174 10.6885C136.174 9.57434 135.271 8.67113 134.157 8.67113H97.8435Z" clip-rule="evenodd"/><path fill="url(#paint0_linear_2060_26175)" fill-opacity=".8" fill-rule="evenodd" d="M0.87953 5.00762C0 6.7338 0 8.99349 0 13.5129V311.69C0 316.21 0 318.469 0.87953 320.195C1.65319 321.714 2.88767 322.948 4.40606 323.722C6.13223 324.602 8.39192 324.602 12.9113 324.602H219.089C223.608 324.602 225.868 324.602 227.594 323.722C229.112 322.948 230.347 321.714 231.12 320.195C232 318.469 232 316.21 232 311.69V13.5129C232 8.99349 232 6.7338 231.12 5.00762C230.347 3.48924 229.112 2.25475 227.594 1.48109C225.868 0.601562 223.608 0.601562 219.089 0.601562H12.9113C8.39192 0.601562 6.13223 0.601562 4.40606 1.48109C2.88767 2.25475 1.65319 3.48924 0.87953 5.00762ZM97.8435 8.67113C96.7293 8.67113 95.8261 9.57434 95.8261 10.6885C95.8261 11.8027 96.7293 12.7059 97.8435 12.7059H134.157C135.271 12.7059 136.174 11.8027 136.174 10.6885C136.174 9.57434 135.271 8.67113 134.157 8.67113H97.8435Z" clip-rule="evenodd"/><path fill="url(#paint1_linear_2060_26175)" fill-opacity=".32" d="M0.87953 5.00762L0.430153 4.77865L0.430153 4.77865L0.87953 5.00762ZM0.87953 320.195L1.32891 319.967L1.32891 319.967L0.87953 320.195ZM4.40606 323.722L4.17708 324.171L4.17709 324.171L4.40606 323.722ZM227.594 323.722L227.823 324.171L227.823 324.171L227.594 323.722ZM231.12 320.195L230.671 319.967L230.671 319.967L231.12 320.195ZM231.12 5.00762L230.671 5.23659L230.671 5.23659L231.12 5.00762ZM227.594 1.48109L227.823 1.03172L227.823 1.03171L227.594 1.48109ZM4.40606 1.48109L4.17709 1.03172L4.17709 1.03172L4.40606 1.48109ZM0.504348 13.5129C0.504348 11.2449 0.50474 9.57418 0.612614 8.25387C0.720007 6.93944 0.931407 6.01673 1.32891 5.23659L0.430153 4.77865C-0.0518769 5.72469 -0.280242 6.79492 -0.392732 8.17173C-0.50474 9.54265 -0.504348 11.2615 -0.504348 13.5129H0.504348ZM0.504348 311.69V13.5129H-0.504348V311.69H0.504348ZM1.32891 319.967C0.931407 319.186 0.720007 318.264 0.612614 316.949C0.50474 315.629 0.504348 313.958 0.504348 311.69H-0.504348C-0.504348 313.942 -0.50474 315.66 -0.392732 317.031C-0.280242 318.408 -0.0518769 319.478 0.430153 320.424L1.32891 319.967ZM4.63503 323.273C3.21154 322.547 2.05421 321.39 1.32891 319.967L0.430152 320.424C1.25216 322.038 2.56381 323.349 4.17708 324.171L4.63503 323.273ZM12.9113 324.097C10.6433 324.097 8.97261 324.097 7.6523 323.989C6.33787 323.882 5.41516 323.67 4.63503 323.273L4.17709 324.171C5.12313 324.653 6.19335 324.882 7.57016 324.994C8.94107 325.106 10.6599 325.106 12.9113 325.106V324.097ZM219.089 324.097H12.9113V325.106H219.089V324.097ZM227.365 323.273C226.585 323.67 225.662 323.882 224.348 323.989C223.027 324.097 221.357 324.097 219.089 324.097V325.106C221.34 325.106 223.059 325.106 224.43 324.994C225.807 324.882 226.877 324.653 227.823 324.171L227.365 323.273ZM230.671 319.967C229.946 321.39 228.788 322.547 227.365 323.273L227.823 324.171C229.436 323.349 230.748 322.038 231.57 320.424L230.671 319.967ZM231.496 311.69C231.496 313.958 231.495 315.629 231.387 316.949C231.28 318.264 231.069 319.186 230.671 319.967L231.57 320.424C232.052 319.478 232.28 318.408 232.393 317.031C232.505 315.66 232.504 313.942 232.504 311.69H231.496ZM231.496 13.5129V311.69H232.504V13.5129H231.496ZM230.671 5.23659C231.069 6.01673 231.28 6.93943 231.387 8.25386C231.495 9.57418 231.496 11.2449 231.496 13.5129H232.504C232.504 11.2615 232.505 9.54264 232.393 8.17172C232.28 6.79492 232.052 5.72469 231.57 4.77865L230.671 5.23659ZM227.365 1.93047C228.788 2.65577 229.946 3.8131 230.671 5.23659L231.57 4.77865C230.748 3.16537 229.436 1.85373 227.823 1.03172L227.365 1.93047ZM219.089 1.10591C221.357 1.10591 223.027 1.1063 224.348 1.21418C225.662 1.32157 226.585 1.53297 227.365 1.93047L227.823 1.03171C226.877 0.549686 225.807 0.32132 224.43 0.208831C223.059 0.0968225 221.34 0.0972147 219.089 0.0972147V1.10591ZM12.9113 1.10591H219.089V0.0972147H12.9113V1.10591ZM4.63503 1.93047C5.41517 1.53297 6.33787 1.32157 7.6523 1.21418C8.97261 1.1063 10.6433 1.10591 12.9113 1.10591V0.0972147C10.6599 0.0972147 8.94108 0.0968225 7.57016 0.208831C6.19335 0.32132 5.12313 0.549686 4.17709 1.03172L4.63503 1.93047ZM1.32891 5.23659C2.05421 3.8131 3.21154 2.65577 4.63503 1.93047L4.17709 1.03172C2.5638 1.85373 1.25216 3.16537 0.430153 4.77865L1.32891 5.23659ZM96.3304 10.6885C96.3304 9.85289 97.0078 9.17548 97.8435 9.17548V8.16678C96.4508 8.16678 95.3217 9.2958 95.3217 10.6885H96.3304ZM97.8435 12.2016C97.0078 12.2016 96.3304 11.5241 96.3304 10.6885H95.3217C95.3217 12.0812 96.4508 13.2103 97.8435 13.2103V12.2016ZM134.157 12.2016H97.8435V13.2103H134.157V12.2016ZM135.67 10.6885C135.67 11.5241 134.992 12.2016 134.157 12.2016V13.2103C135.549 13.2103 136.678 12.0812 136.678 10.6885H135.67ZM134.157 9.17548C134.992 9.17548 135.67 9.85289 135.67 10.6885H136.678C136.678 9.2958 135.549 8.16678 134.157 8.16678V9.17548ZM97.8435 9.17548H134.157V8.16678H97.8435V9.17548Z" mask="url(#path-2-inside-1_2060_26175)"/></g><g filter="url(#filter1_f_2060_26175)"><path fill="url(#paint2_linear_2060_26175)" fill-opacity=".08" d="M157.356 12.601L-35.5495 239.189C-48.9242 254.899 -48.4158 278.134 -34.3666 293.244C-18.2371 310.592 9.24589 310.538 25.3077 293.128L227.091 74.4092C245.877 54.0468 242.855 21.8896 220.605 5.38319C200.907 -9.22943 173.255 -6.07377 157.356 12.601Z"/></g><mask id="mask0_2060_26175" width="41" height="326" x="191" y="0" maskUnits="userSpaceOnUse" style="mask-type:alpha"><rect width="40.348" height="324.8" x="191.652" y=".602" fill="url(#paint3_linear_2060_26175)"/></mask><g mask="url(#mask0_2060_26175)"><mask id="mask1_2060_26175" width="41" height="326" x="191" y="0" maskUnits="userSpaceOnUse" style="mask-type:alpha"><rect width="40.348" height="324.8" fill="url(#paint4_linear_2060_26175)" transform="matrix(-1 0 0 1 232 0.601562)"/></mask><g mask="url(#mask1_2060_26175)"><rect width="4.035" height="4.035" x="232" y=".602" fill="#FD366E" opacity=".64" rx="1.009" transform="rotate(90 232 0.601562)"/><rect width="4.035" height="4.035" x="232" y="6.654" fill="#FD366E" opacity=".4" rx="1.009" transform="rotate(90 232 6.65381)"/><rect width="4.035" height="4.035" x="232" y="12.706" fill="#FD366E" opacity=".32" rx="1.009" transform="rotate(90 232 12.7061)"/><rect width="4.035" height="4.035" x="232" y="18.758" fill="#FD366E" opacity=".16" rx="1.009" transform="rotate(90 232 18.7583)"/><rect width="4.035" height="4.035" x="232" y="24.81" fill="#FD366E" opacity=".8" rx="1.009" transform="rotate(90 232 24.8101)"/><rect width="4.035" height="4.035" x="232" y="30.862" fill="#FD366E" opacity=".64" rx="1.009" transform="rotate(90 232 30.8623)"/><rect width="4.035" height="4.035" x="232" y="36.915" fill="#FD366E" opacity=".4" rx="1.009" transform="rotate(90 232 36.9146)"/><rect width="4.035" height="4.035" x="232" y="42.967" fill="#FD366E" opacity=".32" rx="1.009" transform="rotate(90 232 42.9668)"/><rect width="4.035" height="4.035" x="232" y="49.019" fill="#FD366E" opacity=".16" rx="1.009" transform="rotate(90 232 49.019)"/><rect width="4.035" height="4.035" x="232" y="55.071" fill="#FD366E" opacity=".4" rx="1.009" transform="rotate(90 232 55.0713)"/><rect width="4.035" height="4.035" x="232" y="61.123" fill="#FD366E" opacity=".32" rx="1.009" transform="rotate(90 232 61.1235)"/><rect width="4.035" height="4.035" x="232" y="67.175" fill="#FD366E" opacity=".8" rx="1.009" transform="rotate(90 232 67.1753)"/><rect width="4.035" height="4.035" x="232" y="73.228" fill="#FD366E" opacity=".16" rx="1.009" transform="rotate(90 232 73.2275)"/><rect width="4.035" height="4.035" x="232" y="79.28" fill="#FD366E" opacity=".4" rx="1.009" transform="rotate(90 232 79.2798)"/><rect width="4.035" height="4.035" x="232" y="85.332" fill="#FD366E" opacity=".32" rx="1.009" transform="rotate(90 232 85.332)"/><rect width="4.035" height="4.035" x="232" y="91.384" fill="#FD366E" opacity=".32" rx="1.009" transform="rotate(90 232 91.3843)"/><rect width="4.035" height="4.035" x="232" y="97.436" fill="#FD366E" opacity=".32" rx="1.009" transform="rotate(90 232 97.4365)"/><rect width="4.035" height="4.035" x="232" y="103.488" fill="#FD366E" opacity=".64" rx="1.009" transform="rotate(90 232 103.488)"/><rect width="4.035" height="4.035" x="232" y="109.541" fill="#FD366E" opacity=".16" rx="1.009" transform="rotate(90 232 109.541)"/><rect width="4.035" height="4.035" x="232" y="115.593" fill="#FD366E" opacity=".64" rx="1.009" transform="rotate(90 232 115.593)"/><rect width="4.035" height="4.035" x="232" y="121.645" fill="#FD366E" opacity=".4" rx="1.009" transform="rotate(90 232 121.645)"/><rect width="4.035" height="4.035" x="232" y="127.697" fill="#FD366E" opacity=".32" rx="1.009" transform="rotate(90 232 127.697)"/><rect width="4.035" height="4.035" x="232" y="133.75" fill="#FD366E" opacity=".16" rx="1.009" transform="rotate(90 232 133.75)"/><rect width="4.035" height="4.035" x="232" y="139.802" fill="#FD366E" opacity=".8" rx="1.009" transform="rotate(90 232 139.802)"/><rect width="4.035" height="4.035" x="232" y="145.854" fill="#FD366E" opacity=".8" rx="1.009" transform="rotate(90 232 145.854)"/><rect width="4.035" height="4.035" x="232" y="151.906" fill="#FD366E" opacity=".64" rx="1.009" transform="rotate(90 232 151.906)"/><rect width="4.035" height="4.035" x="232" y="157.958" fill="#FD366E" opacity=".4" rx="1.009" transform="rotate(90 232 157.958)"/><rect width="4.035" height="4.035" x="232" y="164.01" fill="#FD366E" opacity=".8" rx="1.009" transform="rotate(90 232 164.01)"/><rect width="4.035" height="4.035" x="232" y="170.062" fill="#FD366E" opacity=".4" rx="1.009" transform="rotate(90 232 170.062)"/><rect width="4.035" height="4.035" x="232" y="176.115" fill="#FD366E" opacity=".16" rx="1.009" transform="rotate(90 232 176.115)"/><rect width="4.035" height="4.035" x="232" y="182.167" fill="#FD366E" opacity=".32" rx="1.009" transform="rotate(90 232 182.167)"/><rect width="4.035" height="4.035" x="232" y="188.219" fill="#FD366E" opacity=".16" rx="1.009" transform="rotate(90 232 188.219)"/><rect width="4.035" height="4.035" x="232" y="194.271" fill="#FD366E" opacity=".64" rx="1.009" transform="rotate(90 232 194.271)"/><rect width="4.035" height="4.035" x="232" y="200.323" fill="#FD366E" opacity=".16" rx="1.009" transform="rotate(90 232 200.323)"/><rect width="4.035" height="4.035" x="232" y="206.375" fill="#FD366E" opacity=".64" rx="1.009" transform="rotate(90 232 206.375)"/><rect width="4.035" height="4.035" x="232" y="212.428" fill="#FD366E" opacity=".32" rx="1.009" transform="rotate(90 232 212.428)"/><rect width="4.035" height="4.035" x="232" y="218.48" fill="#FD366E" opacity=".8" rx="1.009" transform="rotate(90 232 218.48)"/><rect width="4.035" height="4.035" x="232" y="224.532" fill="#FD366E" opacity=".4" rx="1.009" transform="rotate(90 232 224.532)"/><rect width="4.035" height="4.035" x="232" y="230.584" fill="#FD366E" opacity=".32" rx="1.009" transform="rotate(90 232 230.584)"/><rect width="4.035" height="4.035" x="232" y="236.636" fill="#FD366E" opacity=".32" rx="1.009" transform="rotate(90 232 236.636)"/><rect width="4.035" height="4.035" x="232" y="242.688" fill="#FD366E" opacity=".64" rx="1.009" transform="rotate(90 232 242.688)"/><rect width="4.035" height="4.035" x="232" y="248.741" fill="#FD366E" opacity=".4" rx="1.009" transform="rotate(90 232 248.741)"/><rect width="4.035" height="4.035" x="232" y="254.793" fill="#FD366E" opacity=".16" rx="1.009" transform="rotate(90 232 254.793)"/><rect width="4.035" height="4.035" x="232" y="260.845" fill="#FD366E" opacity=".8" rx="1.009" transform="rotate(90 232 260.845)"/><rect width="4.035" height="4.035" x="232" y="266.897" fill="#FD366E" opacity=".8" rx="1.009" transform="rotate(90 232 266.897)"/><rect width="4.035" height="4.035" x="232" y="272.949" fill="#FD366E" opacity=".8" rx="1.009" transform="rotate(90 232 272.949)"/><rect width="4.035" height="4.035" x="232" y="279.001" fill="#FD366E" opacity=".64" rx="1.009" transform="rotate(90 232 279.001)"/><rect width="4.035" height="4.035" x="232" y="285.054" fill="#FD366E" opacity=".4" rx="1.009" transform="rotate(90 232 285.054)"/><rect width="4.035" height="4.035" x="232" y="291.106" fill="#FD366E" opacity=".4" rx="1.009" transform="rotate(90 232 291.106)"/><rect width="4.035" height="4.035" x="232" y="297.158" fill="#FD366E" opacity=".32" rx="1.009" transform="rotate(90 232 297.158)"/><rect width="4.035" height="4.035" x="232" y="303.21" fill="#FD366E" opacity=".16" rx="1.009" transform="rotate(90 232 303.21)"/><rect width="4.035" height="4.035" x="232" y="309.262" fill="#FD366E" opacity=".64" rx="1.009" transform="rotate(90 232 309.262)"/><rect width="4.035" height="4.035" x="232" y="315.314" fill="#FD366E" opacity=".32" rx="1.009" transform="rotate(90 232 315.314)"/><rect width="4.035" height="4.035" x="232" y="321.367" fill="#FD366E" opacity=".16" rx="1.009" transform="rotate(90 232 321.367)"/><rect width="4.035" height="4.035" fill="#FD366E" opacity=".64" rx="1.009" transform="matrix(-4.37114e-08 -1 -1 4.37114e-08 225.947 325.401)"/><rect width="4.035" height="4.035" fill="#FD366E" opacity=".4" rx="1.009" transform="matrix(-4.37114e-08 -1 -1 4.37114e-08 225.947 319.349)"/><rect width="4.035" height="4.035" fill="#FD366E" opacity=".32" rx="1.009" transform="matrix(-4.37114e-08 -1 -1 4.37114e-08 225.947 313.297)"/><rect width="4.035" height="4.035" fill="#FD366E" opacity=".16" rx="1.009" transform="matrix(-4.37114e-08 -1 -1 4.37114e-08 225.947 307.245)"/><rect width="4.035" height="4.035" fill="#FD366E" opacity=".8" rx="1.009" transform="matrix(-4.37114e-08 -1 -1 4.37114e-08 225.947 301.193)"/><rect width="4.035" height="4.035" fill="#FD366E" opacity=".64" rx="1.009" transform="matrix(-4.37114e-08 -1 -1 4.37114e-08 225.947 295.141)"/><rect width="4.035" height="4.035" fill="#FD366E" opacity=".4" rx="1.009" transform="matrix(-4.37114e-08 -1 -1 4.37114e-08 225.947 289.088)"/><rect width="4.035" height="4.035" fill="#FD366E" opacity=".32" rx="1.009" transform="matrix(-4.37114e-08 -1 -1 4.37114e-08 225.947 283.036)"/><rect width="4.035" height="4.035" fill="#FD366E" opacity=".16" rx="1.009" transform="matrix(-4.37114e-08 -1 -1 4.37114e-08 225.947 276.984)"/><rect width="4.035" height="4.035" fill="#FD366E" opacity=".4" rx="1.009" transform="matrix(-4.37114e-08 -1 -1 4.37114e-08 225.947 270.932)"/><rect width="4.035" height="4.035" fill="#FD366E" opacity=".32" rx="1.009" transform="matrix(-4.37114e-08 -1 -1 4.37114e-08 225.947 264.879)"/><rect width="4.035" height="4.035" fill="#FD366E" opacity=".8" rx="1.009" transform="matrix(-4.37114e-08 -1 -1 4.37114e-08 225.947 258.828)"/><rect width="4.035" height="4.035" fill="#FD366E" opacity=".16" rx="1.009" transform="matrix(-4.37114e-08 -1 -1 4.37114e-08 225.947 252.775)"/><rect width="4.035" height="4.035" fill="#FD366E" opacity=".4" rx="1.009" transform="matrix(-4.37114e-08 -1 -1 4.37114e-08 225.947 246.723)"/><rect width="4.035" height="4.035" fill="#FD366E" opacity=".32" rx="1.009" transform="matrix(-4.37114e-08 -1 -1 4.37114e-08 225.947 240.671)"/><rect width="4.035" height="4.035" fill="#FD366E" opacity=".32" rx="1.009" transform="matrix(-4.37114e-08 -1 -1 4.37114e-08 225.947 234.619)"/><rect width="4.035" height="4.035" fill="#FD366E" opacity=".32" rx="1.009" transform="matrix(-4.37114e-08 -1 -1 4.37114e-08 225.947 228.566)"/><rect width="4.035" height="4.035" fill="#FD366E" opacity=".64" rx="1.009" transform="matrix(-4.37114e-08 -1 -1 4.37114e-08 225.947 222.515)"/><rect width="4.035" height="4.035" fill="#FD366E" opacity=".16" rx="1.009" transform="matrix(-4.37114e-08 -1 -1 4.37114e-08 225.947 216.462)"/><rect width="4.035" height="4.035" fill="#FD366E" opacity=".64" rx="1.009" transform="matrix(-4.37114e-08 -1 -1 4.37114e-08 225.947 210.41)"/><rect width="4.035" height="4.035" fill="#FD366E" opacity=".4" rx="1.009" transform="matrix(-4.37114e-08 -1 -1 4.37114e-08 225.947 204.358)"/><rect width="4.035" height="4.035" fill="#FD366E" opacity=".32" rx="1.009" transform="matrix(-4.37114e-08 -1 -1 4.37114e-08 225.947 198.306)"/><rect width="4.035" height="4.035" fill="#FD366E" opacity=".16" rx="1.009" transform="matrix(-4.37114e-08 -1 -1 4.37114e-08 225.947 192.253)"/><rect width="4.035" height="4.035" fill="#FD366E" opacity=".8" rx="1.009" transform="matrix(-4.37114e-08 -1 -1 4.37114e-08 225.947 186.201)"/><rect width="4.035" height="4.035" fill="#FD366E" opacity=".8" rx="1.009" transform="matrix(-4.37114e-08 -1 -1 4.37114e-08 225.947 180.149)"/><rect width="4.035" height="4.035" fill="#FD366E" opacity=".64" rx="1.009" transform="matrix(-4.37114e-08 -1 -1 4.37114e-08 225.947 174.097)"/><rect width="4.035" height="4.035" fill="#FD366E" opacity=".4" rx="1.009" transform="matrix(-4.37114e-08 -1 -1 4.37114e-08 225.947 168.045)"/><rect width="4.035" height="4.035" fill="#FD366E" opacity=".8" rx="1.009" transform="matrix(-4.37114e-08 -1 -1 4.37114e-08 225.947 161.993)"/><rect width="4.035" height="4.035" fill="#FD366E" opacity=".4" rx="1.009" transform="matrix(-4.37114e-08 -1 -1 4.37114e-08 225.947 155.94)"/><rect width="4.035" height="4.035" fill="#FD366E" opacity=".16" rx="1.009" transform="matrix(-4.37114e-08 -1 -1 4.37114e-08 225.947 149.888)"/><rect width="4.035" height="4.035" fill="#FD366E" opacity=".32" rx="1.009" transform="matrix(-4.37114e-08 -1 -1 4.37114e-08 225.947 143.836)"/><rect width="4.035" height="4.035" fill="#FD366E" opacity=".16" rx="1.009" transform="matrix(-4.37114e-08 -1 -1 4.37114e-08 225.947 137.784)"/><rect width="4.035" height="4.035" fill="#FD366E" opacity=".64" rx="1.009" transform="matrix(-4.37114e-08 -1 -1 4.37114e-08 225.947 131.732)"/><rect width="4.035" height="4.035" fill="#FD366E" opacity=".16" rx="1.009" transform="matrix(-4.37114e-08 -1 -1 4.37114e-08 225.947 125.68)"/><rect width="4.035" height="4.035" fill="#FD366E" opacity=".64" rx="1.009" transform="matrix(-4.37114e-08 -1 -1 4.37114e-08 225.947 119.627)"/><rect width="4.035" height="4.035" fill="#FD366E" opacity=".32" rx="1.009" transform="matrix(-4.37114e-08 -1 -1 4.37114e-08 225.947 113.575)"/><rect width="4.035" height="4.035" fill="#FD366E" opacity=".8" rx="1.009" transform="matrix(-4.37114e-08 -1 -1 4.37114e-08 225.947 107.523)"/><rect width="4.035" height="4.035" fill="#FD366E" opacity=".4" rx="1.009" transform="matrix(-4.37114e-08 -1 -1 4.37114e-08 225.947 101.471)"/><rect width="4.035" height="4.035" fill="#FD366E" opacity=".32" rx="1.009" transform="matrix(-4.37114e-08 -1 -1 4.37114e-08 225.947 95.4189)"/><rect width="4.035" height="4.035" fill="#FD366E" opacity=".32" rx="1.009" transform="matrix(-4.37114e-08 -1 -1 4.37114e-08 225.947 89.3667)"/><rect width="4.035" height="4.035" fill="#FD366E" opacity=".64" rx="1.009" transform="matrix(-4.37114e-08 -1 -1 4.37114e-08 225.947 83.3145)"/><rect width="4.035" height="4.035" fill="#FD366E" opacity=".4" rx="1.009" transform="matrix(-4.37114e-08 -1 -1 4.37114e-08 225.947 77.2622)"/><rect width="4.035" height="4.035" fill="#FD366E" opacity=".16" rx="1.009" transform="matrix(-4.37114e-08 -1 -1 4.37114e-08 225.947 71.21)"/><rect width="4.035" height="4.035" fill="#FD366E" opacity=".8" rx="1.009" transform="matrix(-4.37114e-08 -1 -1 4.37114e-08 225.947 65.1582)"/><rect width="4.035" height="4.035" fill="#FD366E" opacity=".8" rx="1.009" transform="matrix(-4.37114e-08 -1 -1 4.37114e-08 225.947 59.106)"/><rect width="4.035" height="4.035" fill="#FD366E" opacity=".8" rx="1.009" transform="matrix(-4.37114e-08 -1 -1 4.37114e-08 225.947 53.0537)"/><rect width="4.035" height="4.035" fill="#FD366E" opacity=".64" rx="1.009" transform="matrix(-4.37114e-08 -1 -1 4.37114e-08 225.947 47.0015)"/><rect width="4.035" height="4.035" fill="#FD366E" opacity=".4" rx="1.009" transform="matrix(-4.37114e-08 -1 -1 4.37114e-08 225.947 40.9492)"/><rect width="4.035" height="4.035" fill="#FD366E" opacity=".4" rx="1.009" transform="matrix(-4.37114e-08 -1 -1 4.37114e-08 225.947 34.897)"/><rect width="4.035" height="4.035" fill="#FD366E" opacity=".32" rx="1.009" transform="matrix(-4.37114e-08 -1 -1 4.37114e-08 225.947 28.8447)"/><rect width="4.035" height="4.035" fill="#FD366E" opacity=".16" rx="1.009" transform="matrix(-4.37114e-08 -1 -1 4.37114e-08 225.947 22.793)"/><rect width="4.035" height="4.035" fill="#FD366E" opacity=".64" rx="1.009" transform="matrix(-4.37114e-08 -1 -1 4.37114e-08 225.947 16.7407)"/><rect width="4.035" height="4.035" fill="#FD366E" opacity=".32" rx="1.009" transform="matrix(-4.37114e-08 -1 -1 4.37114e-08 225.947 10.6885)"/><rect width="4.035" height="4.035" fill="#FD366E" opacity=".16" rx="1.009" transform="matrix(-4.37114e-08 -1 -1 4.37114e-08 225.947 4.63623)"/><rect width="4.035" height="4.035" x="219.896" y=".602" fill="#FD366E" opacity=".4" rx="1.009" transform="rotate(90 219.896 0.601562)"/><rect width="4.035" height="4.035" x="219.896" y="6.654" fill="#FD366E" opacity=".32" rx="1.009" transform="rotate(90 219.896 6.65381)"/><rect width="4.035" height="4.035" x="219.896" y="12.706" fill="#FD366E" opacity=".16" rx="1.009" transform="rotate(90 219.896 12.7061)"/><rect width="4.035" height="4.035" x="219.896" y="18.758" fill="#FD366E" opacity=".8" rx="1.009" transform="rotate(90 219.896 18.7583)"/><rect width="4.035" height="4.035" x="219.896" y="24.81" fill="#FD366E" opacity=".8" rx="1.009" transform="rotate(90 219.896 24.8101)"/><rect width="4.035" height="4.035" x="219.896" y="30.862" fill="#FD366E" opacity=".64" rx="1.009" transform="rotate(90 219.896 30.8623)"/><rect width="4.035" height="4.035" x="219.896" y="36.915" fill="#FD366E" opacity=".32" rx="1.009" transform="rotate(90 219.896 36.9146)"/><rect width="4.035" height="4.035" x="219.896" y="42.967" fill="#FD366E" opacity=".32" rx="1.009" transform="rotate(90 219.896 42.9668)"/><rect width="4.035" height="4.035" x="219.896" y="49.019" fill="#FD366E" opacity=".32" rx="1.009" transform="rotate(90 219.896 49.019)"/><rect width="4.035" height="4.035" x="219.896" y="55.071" fill="#FD366E" opacity=".64" rx="1.009" transform="rotate(90 219.896 55.0713)"/><rect width="4.035" height="4.035" x="219.896" y="61.123" fill="#FD366E" opacity=".16" rx="1.009" transform="rotate(90 219.896 61.1235)"/><rect width="4.035" height="4.035" x="219.896" y="67.175" fill="#FD366E" opacity=".64" rx="1.009" transform="rotate(90 219.896 67.1753)"/><rect width="4.035" height="4.035" x="219.896" y="73.228" fill="#FD366E" opacity=".4" rx="1.009" transform="rotate(90 219.896 73.2275)"/><rect width="4.035" height="4.035" x="219.896" y="79.28" fill="#FD366E" opacity=".4" rx="1.009" transform="rotate(90 219.896 79.2798)"/><rect width="4.035" height="4.035" x="219.896" y="85.332" fill="#FD366E" opacity=".8" rx="1.009" transform="rotate(90 219.896 85.332)"/><rect width="4.035" height="4.035" x="219.896" y="91.384" fill="#FD366E" opacity=".4" rx="1.009" transform="rotate(90 219.896 91.3843)"/><rect width="4.035" height="4.035" x="219.896" y="97.436" fill="#FD366E" opacity=".4" rx="1.009" transform="rotate(90 219.896 97.4365)"/><rect width="4.035" height="4.035" x="219.896" y="103.488" fill="#FD366E" opacity=".16" rx="1.009" transform="rotate(90 219.896 103.488)"/><rect width="4.035" height="4.035" x="219.896" y="109.541" fill="#FD366E" opacity=".8" rx="1.009" transform="rotate(90 219.896 109.541)"/><rect width="4.035" height="4.035" x="219.896" y="115.593" fill="#FD366E" opacity=".8" rx="1.009" transform="rotate(90 219.896 115.593)"/><rect width="4.035" height="4.035" x="219.896" y="121.645" fill="#FD366E" opacity=".8" rx="1.009" transform="rotate(90 219.896 121.645)"/><rect width="4.035" height="4.035" x="219.896" y="127.697" fill="#FD366E" opacity=".64" rx="1.009" transform="rotate(90 219.896 127.697)"/><rect width="4.035" height="4.035" x="219.896" y="133.75" fill="#FD366E" opacity=".4" rx="1.009" transform="rotate(90 219.896 133.75)"/><rect width="4.035" height="4.035" x="219.896" y="139.802" fill="#FD366E" opacity=".4" rx="1.009" transform="rotate(90 219.896 139.802)"/><rect width="4.035" height="4.035" x="219.896" y="145.854" fill="#FD366E" opacity=".32" rx="1.009" transform="rotate(90 219.896 145.854)"/><rect width="4.035" height="4.035" x="219.896" y="151.906" fill="#FD366E" opacity=".16" rx="1.009" transform="rotate(90 219.896 151.906)"/><rect width="4.035" height="4.035" x="219.896" y="157.958" fill="#FD366E" opacity=".64" rx="1.009" transform="rotate(90 219.896 157.958)"/><rect width="4.035" height="4.035" x="219.896" y="164.01" fill="#FD366E" opacity=".32" rx="1.009" transform="rotate(90 219.896 164.01)"/><rect width="4.035" height="4.035" x="219.896" y="170.062" fill="#FD366E" opacity=".16" rx="1.009" transform="rotate(90 219.896 170.062)"/><rect width="4.035" height="4.035" x="219.896" y="176.115" fill="#FD366E" opacity=".16" rx="1.009" transform="rotate(90 219.896 176.115)"/><rect width="4.035" height="4.035" x="219.896" y="182.167" fill="#FD366E" opacity=".64" rx="1.009" transform="rotate(90 219.896 182.167)"/><rect width="4.035" height="4.035" x="219.896" y="188.219" fill="#FD366E" opacity=".4" rx="1.009" transform="rotate(90 219.896 188.219)"/><rect width="4.035" height="4.035" x="219.896" y="194.271" fill="#FD366E" opacity=".32" rx="1.009" transform="rotate(90 219.896 194.271)"/><rect width="4.035" height="4.035" x="219.896" y="200.323" fill="#FD366E" opacity=".16" rx="1.009" transform="rotate(90 219.896 200.323)"/><rect width="4.035" height="4.035" x="219.896" y="206.375" fill="#FD366E" opacity=".32" rx="1.009" transform="rotate(90 219.896 206.375)"/><rect width="4.035" height="4.035" x="219.896" y="212.428" fill="#FD366E" opacity=".32" rx="1.009" transform="rotate(90 219.896 212.428)"/><rect width="4.035" height="4.035" x="219.896" y="218.479" fill="#FD366E" opacity=".64" rx="1.009" transform="rotate(90 219.896 218.479)"/><rect width="4.035" height="4.035" x="219.896" y="224.532" fill="#FD366E" opacity=".4" rx="1.009" transform="rotate(90 219.896 224.532)"/><rect width="4.035" height="4.035" x="219.896" y="230.584" fill="#FD366E" opacity=".8" rx="1.009" transform="rotate(90 219.896 230.584)"/><rect width="4.035" height="4.035" x="219.896" y="236.636" fill="#FD366E" opacity=".64" rx="1.009" transform="rotate(90 219.896 236.636)"/><rect width="4.035" height="4.035" x="219.896" y="242.688" fill="#FD366E" opacity=".4" rx="1.009" transform="rotate(90 219.896 242.688)"/><rect width="4.035" height="4.035" x="219.896" y="248.741" fill="#FD366E" opacity=".32" rx="1.009" transform="rotate(90 219.896 248.741)"/><rect width="4.035" height="4.035" x="219.896" y="254.793" fill="#FD366E" opacity=".16" rx="1.009" transform="rotate(90 219.896 254.793)"/><rect width="4.035" height="4.035" x="219.896" y="260.845" fill="#FD366E" opacity=".4" rx="1.009" transform="rotate(90 219.896 260.845)"/><rect width="4.035" height="4.035" x="219.896" y="266.897" fill="#FD366E" opacity=".32" rx="1.009" transform="rotate(90 219.896 266.897)"/><rect width="4.035" height="4.035" x="219.896" y="272.949" fill="#FD366E" opacity=".8" rx="1.009" transform="rotate(90 219.896 272.949)"/><rect width="4.035" height="4.035" x="219.896" y="279.001" fill="#FD366E" opacity=".16" rx="1.009" transform="rotate(90 219.896 279.001)"/><rect width="4.035" height="4.035" x="219.896" y="285.054" fill="#FD366E" opacity=".32" rx="1.009" transform="rotate(90 219.896 285.054)"/><rect width="4.035" height="4.035" x="219.896" y="291.106" fill="#FD366E" opacity=".16" rx="1.009" transform="rotate(90 219.896 291.106)"/><rect width="4.035" height="4.035" x="219.896" y="297.158" fill="#FD366E" opacity=".64" rx="1.009" transform="rotate(90 219.896 297.158)"/><rect width="4.035" height="4.035" x="219.896" y="303.21" fill="#FD366E" opacity=".16" rx="1.009" transform="rotate(90 219.896 303.21)"/><rect width="4.035" height="4.035" x="219.896" y="309.262" fill="#FD366E" opacity=".64" rx="1.009" transform="rotate(90 219.896 309.262)"/><rect width="4.035" height="4.035" x="219.896" y="315.314" fill="#FD366E" opacity=".32" rx="1.009" transform="rotate(90 219.896 315.314)"/><rect width="4.035" height="4.035" x="219.896" y="321.367" fill="#FD366E" opacity=".8" rx="1.009" transform="rotate(90 219.896 321.367)"/><rect width="4.035" height="4.035" x="213.844" y=".602" fill="#FD366E" opacity=".64" rx="1.009" transform="rotate(90 213.844 0.601562)"/><rect width="4.035" height="4.035" x="213.844" y="6.654" fill="#FD366E" opacity=".4" rx="1.009" transform="rotate(90 213.844 6.65381)"/><rect width="4.035" height="4.035" x="213.844" y="12.706" fill="#FD366E" opacity=".32" rx="1.009" transform="rotate(90 213.844 12.7061)"/><rect width="4.035" height="4.035" x="213.844" y="18.758" fill="#FD366E" opacity=".16" rx="1.009" transform="rotate(90 213.844 18.7583)"/><rect width="4.035" height="4.035" x="213.844" y="24.81" fill="#FD366E" opacity=".8" rx="1.009" transform="rotate(90 213.844 24.8101)"/><rect width="4.035" height="4.035" x="213.844" y="30.862" fill="#FD366E" opacity=".64" rx="1.009" transform="rotate(90 213.844 30.8623)"/><rect width="4.035" height="4.035" x="213.844" y="36.915" fill="#FD366E" opacity=".4" rx="1.009" transform="rotate(90 213.844 36.9146)"/><rect width="4.035" height="4.035" x="213.844" y="42.967" fill="#FD366E" opacity=".32" rx="1.009" transform="rotate(90 213.844 42.9668)"/><rect width="4.035" height="4.035" x="213.844" y="49.019" fill="#FD366E" opacity=".16" rx="1.009" transform="rotate(90 213.844 49.019)"/><rect width="4.035" height="4.035" x="213.844" y="55.071" fill="#FD366E" opacity=".4" rx="1.009" transform="rotate(90 213.844 55.0713)"/><rect width="4.035" height="4.035" x="213.844" y="61.123" fill="#FD366E" opacity=".32" rx="1.009" transform="rotate(90 213.844 61.1235)"/><rect width="4.035" height="4.035" x="213.844" y="67.175" fill="#FD366E" opacity=".8" rx="1.009" transform="rotate(90 213.844 67.1753)"/><rect width="4.035" height="4.035" x="213.844" y="73.228" fill="#FD366E" opacity=".16" rx="1.009" transform="rotate(90 213.844 73.2275)"/><rect width="4.035" height="4.035" x="213.844" y="79.28" fill="#FD366E" opacity=".4" rx="1.009" transform="rotate(90 213.844 79.2798)"/><rect width="4.035" height="4.035" x="213.844" y="85.332" fill="#FD366E" opacity=".32" rx="1.009" transform="rotate(90 213.844 85.332)"/><rect width="4.035" height="4.035" x="213.844" y="91.384" fill="#FD366E" opacity=".32" rx="1.009" transform="rotate(90 213.844 91.3843)"/><rect width="4.035" height="4.035" x="213.844" y="97.436" fill="#FD366E" opacity=".32" rx="1.009" transform="rotate(90 213.844 97.4365)"/><rect width="4.035" height="4.035" x="213.844" y="103.488" fill="#FD366E" opacity=".64" rx="1.009" transform="rotate(90 213.844 103.488)"/><rect width="4.035" height="4.035" x="213.844" y="109.541" fill="#FD366E" opacity=".16" rx="1.009" transform="rotate(90 213.844 109.541)"/><rect width="4.035" height="4.035" x="213.844" y="115.593" fill="#FD366E" opacity=".64" rx="1.009" transform="rotate(90 213.844 115.593)"/><rect width="4.035" height="4.035" x="213.844" y="121.645" fill="#FD366E" opacity=".4" rx="1.009" transform="rotate(90 213.844 121.645)"/><rect width="4.035" height="4.035" x="213.844" y="127.697" fill="#FD366E" opacity=".32" rx="1.009" transform="rotate(90 213.844 127.697)"/><rect width="4.035" height="4.035" x="213.844" y="133.75" fill="#FD366E" opacity=".16" rx="1.009" transform="rotate(90 213.844 133.75)"/><rect width="4.035" height="4.035" x="213.844" y="139.802" fill="#FD366E" opacity=".8" rx="1.009" transform="rotate(90 213.844 139.802)"/><rect width="4.035" height="4.035" x="213.844" y="145.854" fill="#FD366E" opacity=".8" rx="1.009" transform="rotate(90 213.844 145.854)"/><rect width="4.035" height="4.035" x="213.844" y="151.906" fill="#FD366E" opacity=".64" rx="1.009" transform="rotate(90 213.844 151.906)"/><rect width="4.035" height="4.035" x="213.844" y="157.958" fill="#FD366E" opacity=".4" rx="1.009" transform="rotate(90 213.844 157.958)"/><rect width="4.035" height="4.035" x="213.844" y="164.01" fill="#FD366E" opacity=".8" rx="1.009" transform="rotate(90 213.844 164.01)"/><rect width="4.035" height="4.035" x="213.844" y="170.062" fill="#FD366E" opacity=".4" rx="1.009" transform="rotate(90 213.844 170.062)"/><rect width="4.035" height="4.035" x="213.844" y="176.115" fill="#FD366E" opacity=".16" rx="1.009" transform="rotate(90 213.844 176.115)"/><rect width="4.035" height="4.035" x="213.844" y="182.167" fill="#FD366E" opacity=".32" rx="1.009" transform="rotate(90 213.844 182.167)"/><rect width="4.035" height="4.035" x="213.844" y="188.219" fill="#FD366E" opacity=".16" rx="1.009" transform="rotate(90 213.844 188.219)"/><rect width="4.035" height="4.035" x="213.844" y="194.271" fill="#FD366E" opacity=".64" rx="1.009" transform="rotate(90 213.844 194.271)"/><rect width="4.035" height="4.035" x="213.844" y="200.323" fill="#FD366E" opacity=".16" rx="1.009" transform="rotate(90 213.844 200.323)"/><rect width="4.035" height="4.035" x="213.844" y="206.375" fill="#FD366E" opacity=".64" rx="1.009" transform="rotate(90 213.844 206.375)"/><rect width="4.035" height="4.035" x="213.844" y="212.428" fill="#FD366E" opacity=".32" rx="1.009" transform="rotate(90 213.844 212.428)"/><rect width="4.035" height="4.035" x="213.844" y="218.479" fill="#FD366E" opacity=".8" rx="1.009" transform="rotate(90 213.844 218.479)"/><rect width="4.035" height="4.035" x="213.844" y="224.532" fill="#FD366E" opacity=".4" rx="1.009" transform="rotate(90 213.844 224.532)"/><rect width="4.035" height="4.035" x="213.844" y="230.584" fill="#FD366E" opacity=".32" rx="1.009" transform="rotate(90 213.844 230.584)"/><rect width="4.035" height="4.035" x="213.844" y="236.636" fill="#FD366E" opacity=".32" rx="1.009" transform="rotate(90 213.844 236.636)"/><rect width="4.035" height="4.035" x="213.844" y="242.688" fill="#FD366E" opacity=".64" rx="1.009" transform="rotate(90 213.844 242.688)"/><rect width="4.035" height="4.035" x="213.844" y="248.741" fill="#FD366E" opacity=".4" rx="1.009" transform="rotate(90 213.844 248.741)"/><rect width="4.035" height="4.035" x="213.844" y="254.793" fill="#FD366E" opacity=".16" rx="1.009" transform="rotate(90 213.844 254.793)"/><rect width="4.035" height="4.035" x="213.844" y="260.845" fill="#FD366E" opacity=".8" rx="1.009" transform="rotate(90 213.844 260.845)"/><rect width="4.035" height="4.035" x="213.844" y="266.897" fill="#FD366E" opacity=".8" rx="1.009" transform="rotate(90 213.844 266.897)"/><rect width="4.035" height="4.035" x="213.844" y="272.949" fill="#FD366E" opacity=".8" rx="1.009" transform="rotate(90 213.844 272.949)"/><rect width="4.035" height="4.035" x="213.844" y="279.001" fill="#FD366E" opacity=".64" rx="1.009" transform="rotate(90 213.844 279.001)"/><rect width="4.035" height="4.035" x="213.844" y="285.054" fill="#FD366E" opacity=".4" rx="1.009" transform="rotate(90 213.844 285.054)"/><rect width="4.035" height="4.035" x="213.844" y="291.106" fill="#FD366E" opacity=".4" rx="1.009" transform="rotate(90 213.844 291.106)"/><rect width="4.035" height="4.035" x="213.844" y="297.158" fill="#FD366E" opacity=".32" rx="1.009" transform="rotate(90 213.844 297.158)"/><rect width="4.035" height="4.035" x="213.844" y="303.21" fill="#FD366E" opacity=".16" rx="1.009" transform="rotate(90 213.844 303.21)"/><rect width="4.035" height="4.035" x="213.844" y="309.262" fill="#FD366E" opacity=".64" rx="1.009" transform="rotate(90 213.844 309.262)"/><rect width="4.035" height="4.035" x="213.844" y="315.314" fill="#FD366E" opacity=".32" rx="1.009" transform="rotate(90 213.844 315.314)"/><rect width="4.035" height="4.035" x="213.844" y="321.367" fill="#FD366E" opacity=".16" rx="1.009" transform="rotate(90 213.844 321.367)"/><rect width="4.035" height="4.035" fill="#FD366E" opacity=".64" rx="1.009" transform="matrix(-4.37114e-08 -1 -1 4.37114e-08 207.791 325.401)"/><rect width="4.035" height="4.035" fill="#FD366E" opacity=".4" rx="1.009" transform="matrix(-4.37114e-08 -1 -1 4.37114e-08 207.791 319.349)"/><rect width="4.035" height="4.035" fill="#FD366E" opacity=".32" rx="1.009" transform="matrix(-4.37114e-08 -1 -1 4.37114e-08 207.791 313.297)"/><rect width="4.035" height="4.035" fill="#FD366E" opacity=".16" rx="1.009" transform="matrix(-4.37114e-08 -1 -1 4.37114e-08 207.791 307.245)"/><rect width="4.035" height="4.035" fill="#FD366E" opacity=".8" rx="1.009" transform="matrix(-4.37114e-08 -1 -1 4.37114e-08 207.791 301.193)"/><rect width="4.035" height="4.035" fill="#FD366E" opacity=".64" rx="1.009" transform="matrix(-4.37114e-08 -1 -1 4.37114e-08 207.791 295.141)"/><rect width="4.035" height="4.035" fill="#FD366E" opacity=".4" rx="1.009" transform="matrix(-4.37114e-08 -1 -1 4.37114e-08 207.791 289.088)"/><rect width="4.035" height="4.035" fill="#FD366E" opacity=".32" rx="1.009" transform="matrix(-4.37114e-08 -1 -1 4.37114e-08 207.791 283.036)"/><rect width="4.035" height="4.035" fill="#FD366E" opacity=".16" rx="1.009" transform="matrix(-4.37114e-08 -1 -1 4.37114e-08 207.791 276.984)"/><rect width="4.035" height="4.035" fill="#FD366E" opacity=".4" rx="1.009" transform="matrix(-4.37114e-08 -1 -1 4.37114e-08 207.791 270.932)"/><rect width="4.035" height="4.035" fill="#FD366E" opacity=".32" rx="1.009" transform="matrix(-4.37114e-08 -1 -1 4.37114e-08 207.791 264.879)"/><rect width="4.035" height="4.035" fill="#FD366E" opacity=".8" rx="1.009" transform="matrix(-4.37114e-08 -1 -1 4.37114e-08 207.791 258.828)"/><rect width="4.035" height="4.035" fill="#FD366E" opacity=".16" rx="1.009" transform="matrix(-4.37114e-08 -1 -1 4.37114e-08 207.791 252.775)"/><rect width="4.035" height="4.035" fill="#FD366E" opacity=".4" rx="1.009" transform="matrix(-4.37114e-08 -1 -1 4.37114e-08 207.791 246.723)"/><rect width="4.035" height="4.035" fill="#FD366E" opacity=".32" rx="1.009" transform="matrix(-4.37114e-08 -1 -1 4.37114e-08 207.791 240.671)"/><rect width="4.035" height="4.035" fill="#FD366E" opacity=".32" rx="1.009" transform="matrix(-4.37114e-08 -1 -1 4.37114e-08 207.791 234.619)"/><rect width="4.035" height="4.035" fill="#FD366E" opacity=".32" rx="1.009" transform="matrix(-4.37114e-08 -1 -1 4.37114e-08 207.791 228.566)"/><rect width="4.035" height="4.035" fill="#FD366E" opacity=".64" rx="1.009" transform="matrix(-4.37114e-08 -1 -1 4.37114e-08 207.791 222.515)"/><rect width="4.035" height="4.035" fill="#FD366E" opacity=".16" rx="1.009" transform="matrix(-4.37114e-08 -1 -1 4.37114e-08 207.791 216.462)"/><rect width="4.035" height="4.035" fill="#FD366E" opacity=".64" rx="1.009" transform="matrix(-4.37114e-08 -1 -1 4.37114e-08 207.791 210.41)"/><rect width="4.035" height="4.035" fill="#FD366E" opacity=".4" rx="1.009" transform="matrix(-4.37114e-08 -1 -1 4.37114e-08 207.791 204.358)"/><rect width="4.035" height="4.035" fill="#FD366E" opacity=".32" rx="1.009" transform="matrix(-4.37114e-08 -1 -1 4.37114e-08 207.791 198.306)"/><rect width="4.035" height="4.035" fill="#FD366E" opacity=".16" rx="1.009" transform="matrix(-4.37114e-08 -1 -1 4.37114e-08 207.791 192.253)"/><rect width="4.035" height="4.035" fill="#FD366E" opacity=".8" rx="1.009" transform="matrix(-4.37114e-08 -1 -1 4.37114e-08 207.791 186.201)"/><rect width="4.035" height="4.035" fill="#FD366E" opacity=".8" rx="1.009" transform="matrix(-4.37114e-08 -1 -1 4.37114e-08 207.791 180.149)"/><rect width="4.035" height="4.035" fill="#FD366E" opacity=".64" rx="1.009" transform="matrix(-4.37114e-08 -1 -1 4.37114e-08 207.791 174.097)"/><rect width="4.035" height="4.035" fill="#FD366E" opacity=".4" rx="1.009" transform="matrix(-4.37114e-08 -1 -1 4.37114e-08 207.791 168.045)"/><rect width="4.035" height="4.035" fill="#FD366E" opacity=".8" rx="1.009" transform="matrix(-4.37114e-08 -1 -1 4.37114e-08 207.791 161.993)"/><rect width="4.035" height="4.035" fill="#FD366E" opacity=".4" rx="1.009" transform="matrix(-4.37114e-08 -1 -1 4.37114e-08 207.791 155.94)"/><rect width="4.035" height="4.035" fill="#FD366E" opacity=".16" rx="1.009" transform="matrix(-4.37114e-08 -1 -1 4.37114e-08 207.791 149.888)"/><rect width="4.035" height="4.035" fill="#FD366E" opacity=".32" rx="1.009" transform="matrix(-4.37114e-08 -1 -1 4.37114e-08 207.791 143.836)"/><rect width="4.035" height="4.035" fill="#FD366E" opacity=".16" rx="1.009" transform="matrix(-4.37114e-08 -1 -1 4.37114e-08 207.791 137.784)"/><rect width="4.035" height="4.035" fill="#FD366E" opacity=".64" rx="1.009" transform="matrix(-4.37114e-08 -1 -1 4.37114e-08 207.791 131.732)"/><rect width="4.035" height="4.035" fill="#FD366E" opacity=".16" rx="1.009" transform="matrix(-4.37114e-08 -1 -1 4.37114e-08 207.791 125.68)"/><rect width="4.035" height="4.035" fill="#FD366E" opacity=".64" rx="1.009" transform="matrix(-4.37114e-08 -1 -1 4.37114e-08 207.791 119.627)"/><rect width="4.035" height="4.035" fill="#FD366E" opacity=".32" rx="1.009" transform="matrix(-4.37114e-08 -1 -1 4.37114e-08 207.791 113.575)"/><rect width="4.035" height="4.035" fill="#FD366E" opacity=".8" rx="1.009" transform="matrix(-4.37114e-08 -1 -1 4.37114e-08 207.791 107.523)"/><rect width="4.035" height="4.035" fill="#FD366E" opacity=".4" rx="1.009" transform="matrix(-4.37114e-08 -1 -1 4.37114e-08 207.791 101.471)"/><rect width="4.035" height="4.035" fill="#FD366E" opacity=".32" rx="1.009" transform="matrix(-4.37114e-08 -1 -1 4.37114e-08 207.791 95.4189)"/><rect width="4.035" height="4.035" fill="#FD366E" opacity=".32" rx="1.009" transform="matrix(-4.37114e-08 -1 -1 4.37114e-08 207.791 89.3667)"/><rect width="4.035" height="4.035" fill="#FD366E" opacity=".64" rx="1.009" transform="matrix(-4.37114e-08 -1 -1 4.37114e-08 207.791 83.3145)"/><rect width="4.035" height="4.035" fill="#FD366E" opacity=".4" rx="1.009" transform="matrix(-4.37114e-08 -1 -1 4.37114e-08 207.791 77.2622)"/><rect width="4.035" height="4.035" fill="#FD366E" opacity=".16" rx="1.009" transform="matrix(-4.37114e-08 -1 -1 4.37114e-08 207.791 71.21)"/><rect width="4.035" height="4.035" fill="#FD366E" opacity=".8" rx="1.009" transform="matrix(-4.37114e-08 -1 -1 4.37114e-08 207.791 65.1582)"/><rect width="4.035" height="4.035" fill="#FD366E" opacity=".8" rx="1.009" transform="matrix(-4.37114e-08 -1 -1 4.37114e-08 207.791 59.106)"/><rect width="4.035" height="4.035" fill="#FD366E" opacity=".8" rx="1.009" transform="matrix(-4.37114e-08 -1 -1 4.37114e-08 207.791 53.0537)"/><rect width="4.035" height="4.035" fill="#FD366E" opacity=".64" rx="1.009" transform="matrix(-4.37114e-08 -1 -1 4.37114e-08 207.791 47.0015)"/><rect width="4.035" height="4.035" fill="#FD366E" opacity=".4" rx="1.009" transform="matrix(-4.37114e-08 -1 -1 4.37114e-08 207.791 40.9492)"/><rect width="4.035" height="4.035" fill="#FD366E" opacity=".4" rx="1.009" transform="matrix(-4.37114e-08 -1 -1 4.37114e-08 207.791 34.897)"/><rect width="4.035" height="4.035" fill="#FD366E" opacity=".32" rx="1.009" transform="matrix(-4.37114e-08 -1 -1 4.37114e-08 207.791 28.8447)"/><rect width="4.035" height="4.035" fill="#FD366E" opacity=".16" rx="1.009" transform="matrix(-4.37114e-08 -1 -1 4.37114e-08 207.791 22.793)"/><rect width="4.035" height="4.035" fill="#FD366E" opacity=".64" rx="1.009" transform="matrix(-4.37114e-08 -1 -1 4.37114e-08 207.791 16.7407)"/><rect width="4.035" height="4.035" fill="#FD366E" opacity=".32" rx="1.009" transform="matrix(-4.37114e-08 -1 -1 4.37114e-08 207.791 10.6885)"/><rect width="4.035" height="4.035" fill="#FD366E" opacity=".16" rx="1.009" transform="matrix(-4.37114e-08 -1 -1 4.37114e-08 207.791 4.63623)"/><rect width="4.035" height="4.035" x="201.738" y=".602" fill="#FD366E" opacity=".4" rx="1.009" transform="rotate(90 201.738 0.601562)"/><rect width="4.035" height="4.035" x="201.738" y="6.654" fill="#FD366E" opacity=".32" rx="1.009" transform="rotate(90 201.738 6.65381)"/><rect width="4.035" height="4.035" x="201.738" y="12.706" fill="#FD366E" opacity=".16" rx="1.009" transform="rotate(90 201.738 12.7061)"/><rect width="4.035" height="4.035" x="201.738" y="18.758" fill="#FD366E" opacity=".8" rx="1.009" transform="rotate(90 201.738 18.7583)"/><rect width="4.035" height="4.035" x="201.738" y="24.81" fill="#FD366E" opacity=".8" rx="1.009" transform="rotate(90 201.738 24.8101)"/><rect width="4.035" height="4.035" x="201.738" y="30.862" fill="#FD366E" opacity=".64" rx="1.009" transform="rotate(90 201.738 30.8623)"/><rect width="4.035" height="4.035" x="201.738" y="36.915" fill="#FD366E" opacity=".32" rx="1.009" transform="rotate(90 201.738 36.9146)"/><rect width="4.035" height="4.035" x="201.738" y="42.967" fill="#FD366E" opacity=".32" rx="1.009" transform="rotate(90 201.738 42.9668)"/><rect width="4.035" height="4.035" x="201.738" y="49.019" fill="#FD366E" opacity=".32" rx="1.009" transform="rotate(90 201.738 49.019)"/><rect width="4.035" height="4.035" x="201.738" y="55.071" fill="#FD366E" opacity=".64" rx="1.009" transform="rotate(90 201.738 55.0713)"/><rect width="4.035" height="4.035" x="201.738" y="61.123" fill="#FD366E" opacity=".16" rx="1.009" transform="rotate(90 201.738 61.1235)"/><rect width="4.035" height="4.035" x="201.738" y="67.175" fill="#FD366E" opacity=".64" rx="1.009" transform="rotate(90 201.738 67.1753)"/><rect width="4.035" height="4.035" x="201.738" y="73.228" fill="#FD366E" opacity=".4" rx="1.009" transform="rotate(90 201.738 73.2275)"/><rect width="4.035" height="4.035" x="201.738" y="79.28" fill="#FD366E" opacity=".4" rx="1.009" transform="rotate(90 201.738 79.2798)"/><rect width="4.035" height="4.035" x="201.738" y="85.332" fill="#FD366E" opacity=".8" rx="1.009" transform="rotate(90 201.738 85.332)"/><rect width="4.035" height="4.035" x="201.738" y="91.384" fill="#FD366E" opacity=".4" rx="1.009" transform="rotate(90 201.738 91.3843)"/><rect width="4.035" height="4.035" x="201.738" y="97.436" fill="#FD366E" opacity=".4" rx="1.009" transform="rotate(90 201.738 97.4365)"/><rect width="4.035" height="4.035" x="201.738" y="103.488" fill="#FD366E" opacity=".16" rx="1.009" transform="rotate(90 201.738 103.488)"/><rect width="4.035" height="4.035" x="201.738" y="109.541" fill="#FD366E" opacity=".8" rx="1.009" transform="rotate(90 201.738 109.541)"/><rect width="4.035" height="4.035" x="201.738" y="115.593" fill="#FD366E" opacity=".8" rx="1.009" transform="rotate(90 201.738 115.593)"/><rect width="4.035" height="4.035" x="201.738" y="121.645" fill="#FD366E" opacity=".8" rx="1.009" transform="rotate(90 201.738 121.645)"/><rect width="4.035" height="4.035" x="201.738" y="127.697" fill="#FD366E" opacity=".64" rx="1.009" transform="rotate(90 201.738 127.697)"/><rect width="4.035" height="4.035" x="201.738" y="133.75" fill="#FD366E" opacity=".4" rx="1.009" transform="rotate(90 201.738 133.75)"/><rect width="4.035" height="4.035" x="201.738" y="139.802" fill="#FD366E" opacity=".4" rx="1.009" transform="rotate(90 201.738 139.802)"/><rect width="4.035" height="4.035" x="201.738" y="145.854" fill="#FD366E" opacity=".32" rx="1.009" transform="rotate(90 201.738 145.854)"/><rect width="4.035" height="4.035" x="201.738" y="151.906" fill="#FD366E" opacity=".16" rx="1.009" transform="rotate(90 201.738 151.906)"/><rect width="4.035" height="4.035" x="201.738" y="157.958" fill="#FD366E" opacity=".64" rx="1.009" transform="rotate(90 201.738 157.958)"/><rect width="4.035" height="4.035" x="201.738" y="164.01" fill="#FD366E" opacity=".32" rx="1.009" transform="rotate(90 201.738 164.01)"/><rect width="4.035" height="4.035" x="201.738" y="170.062" fill="#FD366E" opacity=".16" rx="1.009" transform="rotate(90 201.738 170.062)"/><rect width="4.035" height="4.035" x="201.738" y="176.115" fill="#FD366E" opacity=".16" rx="1.009" transform="rotate(90 201.738 176.115)"/><rect width="4.035" height="4.035" x="201.738" y="182.167" fill="#FD366E" opacity=".64" rx="1.009" transform="rotate(90 201.738 182.167)"/><rect width="4.035" height="4.035" x="201.738" y="188.219" fill="#FD366E" opacity=".4" rx="1.009" transform="rotate(90 201.738 188.219)"/><rect width="4.035" height="4.035" x="201.738" y="194.271" fill="#FD366E" opacity=".32" rx="1.009" transform="rotate(90 201.738 194.271)"/><rect width="4.035" height="4.035" x="201.738" y="200.323" fill="#FD366E" opacity=".16" rx="1.009" transform="rotate(90 201.738 200.323)"/><rect width="4.035" height="4.035" x="201.738" y="206.375" fill="#FD366E" opacity=".32" rx="1.009" transform="rotate(90 201.738 206.375)"/><rect width="4.035" height="4.035" x="201.738" y="212.428" fill="#FD366E" opacity=".32" rx="1.009" transform="rotate(90 201.738 212.428)"/><rect width="4.035" height="4.035" x="201.738" y="218.479" fill="#FD366E" opacity=".64" rx="1.009" transform="rotate(90 201.738 218.479)"/><rect width="4.035" height="4.035" x="201.738" y="224.532" fill="#FD366E" opacity=".4" rx="1.009" transform="rotate(90 201.738 224.532)"/><rect width="4.035" height="4.035" x="201.738" y="230.584" fill="#FD366E" opacity=".8" rx="1.009" transform="rotate(90 201.738 230.584)"/><rect width="4.035" height="4.035" x="201.738" y="236.636" fill="#FD366E" opacity=".64" rx="1.009" transform="rotate(90 201.738 236.636)"/><rect width="4.035" height="4.035" x="201.738" y="242.688" fill="#FD366E" opacity=".4" rx="1.009" transform="rotate(90 201.738 242.688)"/><rect width="4.035" height="4.035" x="201.738" y="248.741" fill="#FD366E" opacity=".32" rx="1.009" transform="rotate(90 201.738 248.741)"/><rect width="4.035" height="4.035" x="201.738" y="254.793" fill="#FD366E" opacity=".16" rx="1.009" transform="rotate(90 201.738 254.793)"/><rect width="4.035" height="4.035" x="201.738" y="260.845" fill="#FD366E" opacity=".4" rx="1.009" transform="rotate(90 201.738 260.845)"/><rect width="4.035" height="4.035" x="201.738" y="266.897" fill="#FD366E" opacity=".32" rx="1.009" transform="rotate(90 201.738 266.897)"/><rect width="4.035" height="4.035" x="201.738" y="272.949" fill="#FD366E" opacity=".8" rx="1.009" transform="rotate(90 201.738 272.949)"/><rect width="4.035" height="4.035" x="201.738" y="279.001" fill="#FD366E" opacity=".16" rx="1.009" transform="rotate(90 201.738 279.001)"/><rect width="4.035" height="4.035" x="201.738" y="285.054" fill="#FD366E" opacity=".32" rx="1.009" transform="rotate(90 201.738 285.054)"/><rect width="4.035" height="4.035" x="201.738" y="291.106" fill="#FD366E" opacity=".16" rx="1.009" transform="rotate(90 201.738 291.106)"/><rect width="4.035" height="4.035" x="201.738" y="297.158" fill="#FD366E" opacity=".64" rx="1.009" transform="rotate(90 201.738 297.158)"/><rect width="4.035" height="4.035" x="201.738" y="303.21" fill="#FD366E" opacity=".16" rx="1.009" transform="rotate(90 201.738 303.21)"/><rect width="4.035" height="4.035" x="201.738" y="309.262" fill="#FD366E" opacity=".64" rx="1.009" transform="rotate(90 201.738 309.262)"/><rect width="4.035" height="4.035" x="201.738" y="315.314" fill="#FD366E" opacity=".32" rx="1.009" transform="rotate(90 201.738 315.314)"/><rect width="4.035" height="4.035" x="201.738" y="321.367" fill="#FD366E" opacity=".8" rx="1.009" transform="rotate(90 201.738 321.367)"/><rect width="4.035" height="4.035" x="195.688" y=".602" fill="#FD366E" opacity=".64" rx="1.009" transform="rotate(90 195.688 0.601562)"/><rect width="4.035" height="4.035" x="195.688" y="6.654" fill="#FD366E" opacity=".4" rx="1.009" transform="rotate(90 195.688 6.65381)"/><rect width="4.035" height="4.035" x="195.688" y="12.706" fill="#FD366E" opacity=".32" rx="1.009" transform="rotate(90 195.688 12.7061)"/><rect width="4.035" height="4.035" x="195.688" y="18.758" fill="#FD366E" opacity=".16" rx="1.009" transform="rotate(90 195.688 18.7583)"/><rect width="4.035" height="4.035" x="195.688" y="24.81" fill="#FD366E" opacity=".8" rx="1.009" transform="rotate(90 195.688 24.8101)"/><rect width="4.035" height="4.035" x="195.688" y="30.862" fill="#FD366E" opacity=".64" rx="1.009" transform="rotate(90 195.688 30.8623)"/><rect width="4.035" height="4.035" x="195.688" y="36.915" fill="#FD366E" opacity=".4" rx="1.009" transform="rotate(90 195.688 36.9146)"/><rect width="4.035" height="4.035" x="195.688" y="42.967" fill="#FD366E" opacity=".32" rx="1.009" transform="rotate(90 195.688 42.9668)"/><rect width="4.035" height="4.035" x="195.688" y="49.019" fill="#FD366E" opacity=".16" rx="1.009" transform="rotate(90 195.688 49.019)"/><rect width="4.035" height="4.035" x="195.688" y="55.071" fill="#FD366E" opacity=".4" rx="1.009" transform="rotate(90 195.688 55.0713)"/><rect width="4.035" height="4.035" x="195.688" y="61.123" fill="#FD366E" opacity=".32" rx="1.009" transform="rotate(90 195.688 61.1235)"/><rect width="4.035" height="4.035" x="195.688" y="67.175" fill="#FD366E" opacity=".8" rx="1.009" transform="rotate(90 195.688 67.1753)"/><rect width="4.035" height="4.035" x="195.688" y="73.228" fill="#FD366E" opacity=".16" rx="1.009" transform="rotate(90 195.688 73.2275)"/><rect width="4.035" height="4.035" x="195.688" y="79.28" fill="#FD366E" opacity=".4" rx="1.009" transform="rotate(90 195.688 79.2798)"/><rect width="4.035" height="4.035" x="195.688" y="85.332" fill="#FD366E" opacity=".32" rx="1.009" transform="rotate(90 195.688 85.332)"/><rect width="4.035" height="4.035" x="195.688" y="91.384" fill="#FD366E" opacity=".32" rx="1.009" transform="rotate(90 195.688 91.3843)"/><rect width="4.035" height="4.035" x="195.688" y="97.436" fill="#FD366E" opacity=".32" rx="1.009" transform="rotate(90 195.688 97.4365)"/><rect width="4.035" height="4.035" x="195.688" y="103.488" fill="#FD366E" opacity=".64" rx="1.009" transform="rotate(90 195.688 103.488)"/><rect width="4.035" height="4.035" x="195.688" y="109.541" fill="#FD366E" opacity=".16" rx="1.009" transform="rotate(90 195.688 109.541)"/><rect width="4.035" height="4.035" x="195.688" y="115.593" fill="#FD366E" opacity=".64" rx="1.009" transform="rotate(90 195.688 115.593)"/><rect width="4.035" height="4.035" x="195.688" y="121.645" fill="#FD366E" opacity=".4" rx="1.009" transform="rotate(90 195.688 121.645)"/><rect width="4.035" height="4.035" x="195.688" y="127.697" fill="#FD366E" opacity=".32" rx="1.009" transform="rotate(90 195.688 127.697)"/><rect width="4.035" height="4.035" x="195.688" y="133.75" fill="#FD366E" opacity=".16" rx="1.009" transform="rotate(90 195.688 133.75)"/><rect width="4.035" height="4.035" x="195.688" y="139.802" fill="#FD366E" opacity=".8" rx="1.009" transform="rotate(90 195.688 139.802)"/><rect width="4.035" height="4.035" x="195.688" y="145.854" fill="#FD366E" opacity=".8" rx="1.009" transform="rotate(90 195.688 145.854)"/><rect width="4.035" height="4.035" x="195.688" y="151.906" fill="#FD366E" opacity=".64" rx="1.009" transform="rotate(90 195.688 151.906)"/><rect width="4.035" height="4.035" x="195.688" y="157.958" fill="#FD366E" opacity=".4" rx="1.009" transform="rotate(90 195.688 157.958)"/><rect width="4.035" height="4.035" x="195.688" y="164.01" fill="#FD366E" opacity=".8" rx="1.009" transform="rotate(90 195.688 164.01)"/><rect width="4.035" height="4.035" x="195.688" y="170.062" fill="#FD366E" opacity=".4" rx="1.009" transform="rotate(90 195.688 170.062)"/><rect width="4.035" height="4.035" x="195.688" y="176.115" fill="#FD366E" opacity=".16" rx="1.009" transform="rotate(90 195.688 176.115)"/><rect width="4.035" height="4.035" x="195.688" y="182.167" fill="#FD366E" opacity=".32" rx="1.009" transform="rotate(90 195.688 182.167)"/><rect width="4.035" height="4.035" x="195.688" y="188.219" fill="#FD366E" opacity=".16" rx="1.009" transform="rotate(90 195.688 188.219)"/><rect width="4.035" height="4.035" x="195.688" y="194.271" fill="#FD366E" opacity=".64" rx="1.009" transform="rotate(90 195.688 194.271)"/><rect width="4.035" height="4.035" x="195.688" y="200.323" fill="#FD366E" opacity=".16" rx="1.009" transform="rotate(90 195.688 200.323)"/><rect width="4.035" height="4.035" x="195.688" y="206.375" fill="#FD366E" opacity=".64" rx="1.009" transform="rotate(90 195.688 206.375)"/><rect width="4.035" height="4.035" x="195.688" y="212.428" fill="#FD366E" opacity=".32" rx="1.009" transform="rotate(90 195.688 212.428)"/><rect width="4.035" height="4.035" x="195.688" y="218.479" fill="#FD366E" opacity=".8" rx="1.009" transform="rotate(90 195.688 218.479)"/><rect width="4.035" height="4.035" x="195.688" y="224.532" fill="#FD366E" opacity=".4" rx="1.009" transform="rotate(90 195.688 224.532)"/><rect width="4.035" height="4.035" x="195.688" y="230.584" fill="#FD366E" opacity=".32" rx="1.009" transform="rotate(90 195.688 230.584)"/><rect width="4.035" height="4.035" x="195.688" y="236.636" fill="#FD366E" opacity=".32" rx="1.009" transform="rotate(90 195.688 236.636)"/><rect width="4.035" height="4.035" x="195.688" y="242.688" fill="#FD366E" opacity=".64" rx="1.009" transform="rotate(90 195.688 242.688)"/><rect width="4.035" height="4.035" x="195.688" y="248.741" fill="#FD366E" opacity=".4" rx="1.009" transform="rotate(90 195.688 248.741)"/><rect width="4.035" height="4.035" x="195.688" y="254.793" fill="#FD366E" opacity=".16" rx="1.009" transform="rotate(90 195.688 254.793)"/><rect width="4.035" height="4.035" x="195.688" y="260.845" fill="#FD366E" opacity=".8" rx="1.009" transform="rotate(90 195.688 260.845)"/><rect width="4.035" height="4.035" x="195.688" y="266.897" fill="#FD366E" opacity=".8" rx="1.009" transform="rotate(90 195.688 266.897)"/><rect width="4.035" height="4.035" x="195.688" y="272.949" fill="#FD366E" opacity=".8" rx="1.009" transform="rotate(90 195.688 272.949)"/><rect width="4.035" height="4.035" x="195.688" y="279.001" fill="#FD366E" opacity=".64" rx="1.009" transform="rotate(90 195.688 279.001)"/><rect width="4.035" height="4.035" x="195.688" y="285.054" fill="#FD366E" opacity=".4" rx="1.009" transform="rotate(90 195.688 285.054)"/><rect width="4.035" height="4.035" x="195.688" y="291.106" fill="#FD366E" opacity=".4" rx="1.009" transform="rotate(90 195.688 291.106)"/><rect width="4.035" height="4.035" x="195.688" y="297.158" fill="#FD366E" opacity=".32" rx="1.009" transform="rotate(90 195.688 297.158)"/><rect width="4.035" height="4.035" x="195.688" y="303.21" fill="#FD366E" opacity=".16" rx="1.009" transform="rotate(90 195.688 303.21)"/><rect width="4.035" height="4.035" x="195.688" y="309.262" fill="#FD366E" opacity=".64" rx="1.009" transform="rotate(90 195.688 309.262)"/><rect width="4.035" height="4.035" x="195.688" y="315.314" fill="#FD366E" opacity=".32" rx="1.009" transform="rotate(90 195.688 315.314)"/><rect width="4.035" height="4.035" x="195.688" y="321.367" fill="#FD366E" opacity=".16" rx="1.009" transform="rotate(90 195.688 321.367)"/></g></g><path fill="#FD366E" d="M28.1796 293.325V296.067H21.4352C19.4703 296.067 17.7547 294.964 16.8368 293.325C16.7033 293.087 16.5865 292.837 16.4886 292.577C16.2962 292.069 16.1753 291.523 16.1387 290.954V290.212C16.1466 290.086 16.1592 289.96 16.1756 289.835C16.2091 289.58 16.2598 289.33 16.3264 289.088C16.9564 286.786 19.0051 285.1 21.4352 285.1C23.8654 285.1 25.9138 286.786 26.5438 289.088H23.66C23.1866 288.337 22.3671 287.841 21.4352 287.841C20.5033 287.841 19.6839 288.337 19.2104 289.088C19.0661 289.316 18.9542 289.567 18.8808 289.835C18.8157 290.073 18.7809 290.324 18.7809 290.583C18.7809 291.369 19.1009 292.077 19.6139 292.577C20.0893 293.041 20.7301 293.325 21.4352 293.325H28.1796Z"/><path fill="#FD366E" d="M28.1808 289.835V292.577H23.2578C23.7708 292.077 24.0908 291.369 24.0908 290.583C24.0908 290.323 24.056 290.073 23.9909 289.835H28.1808Z"/><g clip-path="url(#clip1_2060_26175)"><path fill="#FD366E" d="M54.6582 297.124V295.722H62.0927V297.124H54.6582Z"/><path fill="#fff" d="M52.5643 295.327C51.1729 295.327 50.2589 294.7 50.2589 293.189V289.608H49.0176V288.192H50.3544V286.19H51.8822V288.192H53.9011V289.608H51.8822V293.175C51.8822 293.679 52.0869 293.897 52.5779 293.897H53.8193V295.327H52.5643Z"/><path fill="#fff" d="M47.1106 287.089C46.524 287.089 46.0875 286.654 46.0875 286.082C46.0875 285.524 46.524 285.088 47.1106 285.088C47.6971 285.088 48.1337 285.524 48.1337 286.082C48.1337 286.654 47.6971 287.089 47.1106 287.089ZM46.2921 295.327V289.608H45.0371V288.192H47.9018V295.327H46.2921Z"/><path fill="#fff" d="M37.8672 295.326V288.192H39.4769V289.009H39.5996C39.9134 288.464 40.5682 288.015 41.523 288.015C43.0918 288.015 44.0876 289.186 44.0876 290.656V295.326H42.4779V291.037C42.4779 290.152 41.8504 289.54 41.032 289.54C40.1453 289.54 39.4769 290.22 39.4769 291.119V295.326H37.8672Z"/><path fill="#fff" d="M35.4133 287.089C34.8267 287.089 34.3902 286.654 34.3902 286.082C34.3902 285.524 34.8267 285.088 35.4133 285.088C35.9999 285.088 36.4364 285.524 36.4364 286.082C36.4364 286.654 35.9999 287.089 35.4133 287.089ZM34.5948 295.327V289.608H33.3398V288.192H36.2045V295.327H34.5948Z"/></g><path fill="#E4E4E7" d="M17.3178 308.193L16.7035 308.193L16.7035 303.25L19.7397 303.25L19.7397 303.815L17.3178 303.815L17.3178 305.467L19.3655 305.467L19.3655 306.032L17.3178 306.032L17.3178 308.193ZM23.6517 308.193L20.5167 308.193L20.5167 303.25L23.5599 303.25L23.5599 303.815L21.131 303.815L21.131 305.397L23.1716 305.397L23.1716 305.962L21.131 305.962L21.131 307.628L23.6517 307.628L23.6517 308.193ZM26.1756 308.193L24.5022 308.193L24.5022 303.25L26.1262 303.25C27.1924 303.25 27.7502 303.759 27.7502 304.557C27.7502 305.114 27.4325 305.467 26.9523 305.63C27.489 305.729 27.962 306.068 27.962 306.781C27.962 307.656 27.3689 308.193 26.1756 308.193ZM25.1165 303.808L25.1165 305.397L26.1545 305.397C26.8041 305.397 27.1359 305.1 27.1359 304.599C27.1359 304.105 26.8111 303.808 26.1545 303.808L25.1165 303.808ZM25.1165 305.948L25.1165 307.635L26.1756 307.635C26.9594 307.635 27.3336 307.317 27.3336 306.809C27.3336 306.251 26.9241 305.948 26.1756 305.948L25.1165 305.948ZM34.4208 308.193L31.1093 308.193L31.1093 307.692L32.9733 306.025C33.4252 305.623 33.7783 305.241 33.7783 304.712C33.7783 304.091 33.3687 303.737 32.7474 303.737C32.1401 303.737 31.7306 304.161 31.7306 304.839L31.7306 304.931L31.1375 304.931L31.1375 304.804C31.1375 303.872 31.773 303.208 32.7474 303.208C33.7783 303.208 34.3855 303.794 34.3855 304.684C34.3855 305.418 33.9265 305.891 33.3546 306.392L31.9283 307.649L34.4208 307.649L34.4208 308.193ZM37.03 308.235C36.3592 308.235 35.8649 307.917 35.5754 307.416C35.3424 307.014 35.1941 306.421 35.1941 305.743C35.1941 304.189 35.879 303.208 37.0229 303.208C37.8984 303.208 38.4916 303.745 38.6116 304.571L38.0185 304.571C37.9055 304.069 37.5666 303.73 36.9947 303.73C36.1685 303.73 35.7449 304.585 35.7449 305.559C35.7449 305.707 35.7378 305.679 35.7449 305.799C35.7449 305.785 35.7661 305.715 35.7872 305.665C35.9708 305.248 36.458 304.924 37.0864 304.924C38.0326 304.924 38.6963 305.566 38.6963 306.576C38.6963 307.529 38.0185 308.235 37.03 308.235ZM37.0229 307.713C37.6725 307.713 38.1032 307.24 38.1032 306.576C38.1032 305.919 37.6937 305.446 37.0441 305.446C36.3874 305.446 35.9355 305.912 35.9355 306.59C35.9355 307.254 36.3733 307.713 37.0229 307.713ZM44.3037 306.428L41.9524 306.428L41.9524 305.94L44.3037 305.94L44.3037 306.428ZM48.3044 308.193L47.7465 308.193L47.7465 303.25L48.4668 303.25L49.6812 306.089L50.8816 303.25L51.5806 303.25L51.5806 308.193L51.0228 308.193L51.0228 304.232L49.9142 306.823L49.42 306.823L48.3044 304.232L48.3044 308.193ZM52.9301 308.193L52.3017 308.193L54.0528 303.25L54.8083 303.25L56.5665 308.193L55.9098 308.193L55.4367 306.858L53.4102 306.858L52.9301 308.193ZM54.4129 303.921L53.5868 306.301L55.2531 306.301L54.4129 303.921ZM57.904 308.193L57.2897 308.193L57.2897 303.25L59.055 303.25C60.0576 303.25 60.7284 303.843 60.7284 304.768C60.7284 305.46 60.2977 305.997 59.6481 306.173L60.7778 308.193L60.0859 308.193L59.0197 306.293L57.904 306.293L57.904 308.193ZM57.904 303.815L57.904 305.729L59.0055 305.729C59.6693 305.729 60.1 305.347 60.1 304.768C60.1 304.189 59.6693 303.815 59.0126 303.815L57.904 303.815ZM65.7614 303.25L65.7614 307.642L67.0111 307.642L67.0111 308.193L63.8761 308.193L63.8761 307.642L65.1753 307.642L65.1753 304.726C65.1047 304.775 65.02 304.797 64.9141 304.797L63.8902 304.797L63.8902 304.267L64.8505 304.267C65.0694 304.267 65.1824 304.083 65.1824 303.843L65.1824 303.25L65.7614 303.25Z"/><path fill="#fff" fill-opacity=".5" d="M184.153 308.193L183.673 308.193L183.857 307.007L183.179 307.007L183.179 306.519L183.928 306.519L184.062 305.587L183.334 305.587L183.334 305.1L184.132 305.1L184.316 303.914L184.796 303.914L184.612 305.1L185.58 305.1L185.763 303.914L186.243 303.914L186.06 305.1L186.738 305.1L186.738 305.587L185.989 305.587L185.855 306.519L186.582 306.519L186.582 307.007L185.785 307.007L185.601 308.193L185.121 308.193L185.304 307.007L184.337 307.007L184.153 308.193ZM184.542 305.587L184.408 306.519L185.375 306.519L185.509 305.587L184.542 305.587ZM189.25 303.208C190.33 303.208 191.001 304.105 191.001 305.609L191.001 305.835C191.001 307.339 190.33 308.235 189.25 308.235C188.169 308.235 187.499 307.339 187.499 305.835L187.499 305.609C187.499 304.105 188.169 303.208 189.25 303.208ZM188.085 305.63L188.085 305.813C188.085 306.089 188.106 306.336 188.148 306.548L190.161 304.331C189.963 303.942 189.652 303.737 189.25 303.737C188.515 303.737 188.085 304.429 188.085 305.63ZM190.415 305.813L190.415 305.63C190.415 305.354 190.394 305.107 190.351 304.888L188.339 307.12C188.544 307.494 188.854 307.699 189.25 307.699C189.984 307.699 190.415 307.014 190.415 305.813ZM193.642 303.208C194.722 303.208 195.393 304.105 195.393 305.609L195.393 305.835C195.393 307.339 194.722 308.235 193.642 308.235C192.562 308.235 191.891 307.339 191.891 305.835L191.891 305.609C191.891 304.105 192.562 303.208 193.642 303.208ZM192.477 305.63L192.477 305.813C192.477 306.089 192.498 306.336 192.541 306.548L194.553 304.331C194.355 303.942 194.044 303.737 193.642 303.737C192.908 303.737 192.477 304.429 192.477 305.63ZM194.807 305.813L194.807 305.63C194.807 305.354 194.786 305.107 194.744 304.888L192.731 307.12C192.936 307.494 193.247 307.699 193.642 307.699C194.376 307.699 194.807 307.014 194.807 305.813ZM198.048 303.25L198.048 307.642L199.298 307.642L199.298 308.193L196.163 308.193L196.163 307.642L197.462 307.642L197.462 304.726C197.392 304.775 197.307 304.797 197.201 304.797L196.177 304.797L196.177 304.267L197.138 304.267C197.357 304.267 197.469 304.083 197.469 303.843L197.469 303.25L198.048 303.25ZM202.372 305.623C202.803 305.707 203.234 306.068 203.234 306.823C203.234 307.663 202.591 308.235 201.546 308.235C200.508 308.235 199.866 307.649 199.866 306.668L200.452 306.668C200.459 307.317 200.911 307.706 201.582 307.706C202.196 307.706 202.627 307.346 202.627 306.781C202.627 306.265 202.295 305.94 201.56 305.94L201.13 305.94L201.13 305.411L201.497 305.411C202.196 305.411 202.535 305.051 202.535 304.549C202.535 304.048 202.111 303.737 201.546 303.737C200.974 303.737 200.53 304.112 200.523 304.677L199.936 304.677C199.951 303.773 200.628 303.208 201.539 303.208C202.528 303.208 203.142 303.737 203.142 304.528C203.142 305.136 202.817 305.496 202.372 305.623ZM206.503 305.623C206.934 305.707 207.364 306.068 207.364 306.823C207.364 307.663 206.722 308.235 205.677 308.235C204.639 308.235 203.996 307.649 203.996 306.668L204.582 306.668C204.589 307.317 205.041 307.706 205.712 307.706C206.326 307.706 206.757 307.346 206.757 306.781C206.757 306.265 206.425 305.94 205.691 305.94L205.26 305.94L205.26 305.411L205.627 305.411C206.326 305.411 206.665 305.051 206.665 304.549C206.665 304.048 206.242 303.737 205.677 303.737C205.105 303.737 204.66 304.112 204.653 304.677L204.067 304.677C204.081 303.773 204.759 303.208 205.67 303.208C206.658 303.208 207.272 303.737 207.272 304.528C207.272 305.136 206.948 305.496 206.503 305.623ZM208.961 308.193L208.319 308.193L210.585 303.794L207.916 303.794L207.916 303.25L211.306 303.25L211.306 303.667L208.961 308.193ZM213.77 303.25L213.77 307.642L215.02 307.642L215.02 308.193L211.885 308.193L211.885 307.642L213.184 307.642L213.184 304.726C213.113 304.775 213.029 304.797 212.923 304.797L211.899 304.797L211.899 304.267L212.859 304.267C213.078 304.267 213.191 304.083 213.191 303.843L213.191 303.25L213.77 303.25Z"/><path fill="#fff" d="M18.0144 46.8452L18.0144 32.7235L19.7695 32.7235L19.7695 38.8563L27.0725 38.8563L27.0725 32.7235L28.8276 32.7235L28.8276 46.8452L27.0725 46.8452L27.0725 40.4703L19.7695 40.4703L19.7695 46.8452L18.0144 46.8452ZM39.5374 45.5137C38.596 46.4821 37.3721 46.9663 35.8658 46.9663C34.3595 46.9663 33.1289 46.4821 32.174 45.5137C31.2325 44.5319 30.7618 43.261 30.7618 41.7009C30.7618 40.1408 31.2325 38.8765 32.174 37.9082C33.1289 36.9264 34.3595 36.4355 35.8658 36.4355C37.3721 36.4355 38.596 36.9264 39.5374 37.9082C40.4923 38.8765 40.9698 40.1408 40.9698 41.7009C40.9698 43.261 40.4923 44.5319 39.5374 45.5137ZM33.4046 44.4243C34.0367 45.1372 34.8571 45.4936 35.8658 45.4936C36.8745 45.4936 37.6949 45.1372 38.327 44.4243C38.9591 43.7115 39.2752 42.8037 39.2752 41.7009C39.2752 40.598 38.9591 39.6902 38.327 38.9774C37.6949 38.2646 36.8745 37.9082 35.8658 37.9082C34.8571 37.9082 34.0367 38.2646 33.4046 38.9774C32.7725 39.6902 32.4564 40.598 32.4564 41.7009C32.4564 42.8037 32.7725 43.7115 33.4046 44.4243ZM42.665 46.8452L42.665 32.7235L44.3193 32.7235L44.3193 46.8452L42.665 46.8452ZM46.3838 46.8452L46.3838 32.7235L48.0381 32.7235L48.0381 46.8452L46.3838 46.8452ZM53.0883 46.9057L49.0737 36.5565L50.8288 36.5565L53.9962 44.7673L57.0626 36.5565L58.8177 36.5565L54.0768 48.5802C53.7272 49.4813 53.3977 50.0865 53.0883 50.3958C52.779 50.7186 52.2814 50.88 51.5955 50.88L49.6184 50.88L49.6184 49.367L51.0911 49.367C51.5484 49.367 51.8577 49.293 52.0191 49.145C52.1939 48.9971 52.3822 48.6676 52.584 48.1565L53.0883 46.9057ZM65.1701 46.8452L65.1701 32.7235L70.1733 32.7235C71.6527 32.7235 72.8026 33.0597 73.623 33.7322C74.4434 34.3912 74.8536 35.299 74.8536 36.4557C74.8536 37.9889 74.1139 39.011 72.6345 39.5221C73.4549 39.6835 74.1274 40.0332 74.6519 40.5711C75.1764 41.1091 75.4387 41.8555 75.4387 42.8104C75.4387 44.0747 74.9948 45.0632 74.1072 45.776C73.233 46.4888 71.9687 46.8452 70.3145 46.8452L65.1701 46.8452ZM70.254 34.3172L66.9253 34.3172L66.9253 38.8563L70.254 38.8563C71.1551 38.8563 71.8544 38.6546 72.352 38.2511C72.8497 37.8477 73.0985 37.2895 73.0985 36.5767C73.0985 35.8639 72.8497 35.3125 72.352 34.9224C71.8679 34.519 71.1685 34.3172 70.254 34.3172ZM70.3145 40.4299L66.9253 40.4299L66.9253 45.2515L70.3145 45.2515C71.3904 45.2515 72.2108 45.043 72.7757 44.6261C73.354 44.2092 73.6432 43.6308 73.6432 42.8911C73.6432 42.0976 73.354 41.4924 72.7757 41.0755C72.1974 40.6451 71.377 40.4299 70.3145 40.4299ZM86.2955 45.3322L86.8201 45.3322L86.8201 46.8452L85.9122 46.8452C85.2532 46.8452 84.7825 46.7107 84.5001 46.4417C84.2176 46.1728 84.0697 45.776 84.0562 45.2515C83.2627 46.3947 82.1128 46.9663 80.6065 46.9663C79.4633 46.9663 78.542 46.6973 77.8427 46.1593C77.1567 45.6213 76.8138 44.8883 76.8138 43.9603C76.8138 42.9248 77.1635 42.1312 77.8628 41.5798C78.5756 41.0284 79.6045 40.7527 80.9494 40.7527L83.9755 40.7527L83.9755 40.0466C83.9755 39.3741 83.7469 38.8496 83.2896 38.473C82.8458 38.0965 82.2204 37.9082 81.4134 37.9082C80.7006 37.9082 80.1089 38.0696 79.6381 38.3923C79.1809 38.7017 78.8984 39.1186 78.7908 39.6431L77.1366 39.6431C77.2576 38.6344 77.7014 37.8477 78.4681 37.2828C79.2481 36.7179 80.2568 36.4355 81.4941 36.4355C82.8122 36.4355 83.8276 36.7583 84.5404 37.4038C85.2667 38.0359 85.6298 38.9505 85.6298 40.1475L85.6298 44.6463C85.6298 44.9152 85.6769 45.0968 85.771 45.191C85.8786 45.2851 86.0534 45.3322 86.2955 45.3322ZM83.9755 42.649L83.9755 42.1447L80.7881 42.1447C79.2548 42.1447 78.4882 42.7163 78.4882 43.8595C78.4882 44.3706 78.69 44.7808 79.0934 45.0901C79.4969 45.3994 80.0416 45.5541 80.7275 45.5541C81.7362 45.5541 82.5297 45.2918 83.1081 44.7673C83.6864 44.2293 83.9755 43.5232 83.9755 42.649ZM92.6511 36.5565L93.1151 36.5565L93.1151 38.1704L92.288 38.1704C91.3062 38.1704 90.6001 38.4999 90.1697 39.159C89.7528 39.818 89.5443 40.6317 89.5443 41.6L89.5443 46.8452L87.8901 46.8452L87.8901 36.5565L89.3224 36.5565L89.5443 38.1099C90.1764 37.0743 91.212 36.5565 92.6511 36.5565ZM98.3761 46.9663C96.8698 46.9663 95.6593 46.4955 94.7448 45.5541C93.8437 44.5992 93.3931 43.3215 93.3931 41.721C93.3931 40.1475 93.8571 38.8765 94.7851 37.9082C95.7131 36.9264 96.9236 36.4355 98.4164 36.4355C99.6538 36.4355 100.662 36.765 101.443 37.424C102.236 38.0696 102.74 38.9639 102.956 40.1071L101.221 40.1071C101.073 39.4212 100.75 38.8832 100.252 38.4932C99.7681 38.1032 99.1494 37.9082 98.3962 37.9082C97.4145 37.9082 96.6142 38.2646 95.9956 38.9774C95.3903 39.6768 95.0877 40.5913 95.0877 41.721C95.0877 42.8373 95.3903 43.7452 95.9956 44.4445C96.6142 45.1439 97.4145 45.4936 98.3962 45.4936C99.1225 45.4936 99.7277 45.3053 100.212 44.9287C100.71 44.5387 101.039 44.0074 101.2 43.335L102.956 43.335C102.754 44.4512 102.249 45.3389 101.443 45.9979C100.636 46.6435 99.6134 46.9663 98.3761 46.9663ZM104.567 46.8452L104.567 32.7235L106.222 32.7235L106.222 46.8452L104.567 46.8452ZM117.385 45.3322L117.909 45.3322L117.909 46.8452L117.001 46.8452C116.342 46.8452 115.872 46.7107 115.589 46.4417C115.307 46.1728 115.159 45.776 115.145 45.2515C114.352 46.3947 113.202 46.9663 111.696 46.9663C110.552 46.9663 109.631 46.6973 108.932 46.1593C108.246 45.6213 107.903 44.8884 107.903 43.9604C107.903 42.9248 108.253 42.1312 108.952 41.5798C109.665 41.0284 110.694 40.7527 112.039 40.7527L115.065 40.7527L115.065 40.0466C115.065 39.3741 114.836 38.8496 114.379 38.473C113.935 38.0965 113.309 37.9082 112.503 37.9082C111.79 37.9082 111.198 38.0696 110.727 38.3924C110.27 38.7017 109.988 39.1186 109.88 39.6431L108.226 39.6431C108.347 38.6344 108.791 37.8477 109.557 37.2828C110.337 36.7179 111.346 36.4355 112.583 36.4355C113.901 36.4355 114.917 36.7583 115.629 37.4038C116.356 38.0359 116.719 38.9505 116.719 40.1475L116.719 44.6463C116.719 44.9152 116.766 45.0968 116.86 45.191C116.968 45.2851 117.143 45.3322 117.385 45.3322ZM115.065 42.649L115.065 42.1447L111.877 42.1447C110.344 42.1447 109.577 42.7163 109.577 43.8595C109.577 44.3706 109.779 44.7808 110.183 45.0901C110.586 45.3994 111.131 45.5541 111.817 45.5541C112.825 45.5541 113.619 45.2918 114.197 44.7673C114.775 44.2293 115.065 43.5232 115.065 42.649ZM121.591 46.9057L117.576 36.5565L119.331 36.5565L122.498 44.7673L125.565 36.5565L127.32 36.5565L122.579 48.5802C122.229 49.4813 121.9 50.0865 121.591 50.3958C121.281 50.7186 120.784 50.88 120.098 50.88L118.121 50.88L118.121 49.367L119.593 49.367C120.051 49.367 120.36 49.293 120.521 49.145C120.696 48.9971 120.884 48.6676 121.086 48.1565L121.591 46.9057Z"/><path fill="#ADADB0" d="M17.2599 61.8851C17.2599 60.3923 17.8006 59.1455 18.8819 58.1449C19.9632 57.1362 21.2826 56.6318 22.84 56.6318C24.3329 56.6318 25.5514 57.0434 26.4955 57.8665C27.4397 58.6896 27.9117 59.7427 27.9117 61.0257C27.9117 61.9779 27.6696 62.7566 27.1855 63.3619C26.7013 63.9671 26.084 64.2697 25.3335 64.2697C24.9704 64.2697 24.6718 64.1809 24.4378 64.0034C24.2118 63.8259 24.0827 63.612 24.0504 63.3619L24.0262 63.1803C23.889 63.5031 23.651 63.7653 23.3121 63.9671C22.9732 64.1607 22.5898 64.2576 22.1622 64.2576C21.5489 64.2576 21.0284 64.0437 20.6007 63.616C20.1811 63.1803 19.9713 62.6235 19.9713 61.9456C19.9713 61.179 20.2214 60.5254 20.7217 59.9847C21.2221 59.436 21.8111 59.1616 22.489 59.1616C22.9409 59.1616 23.3121 59.2464 23.6026 59.4158C23.8931 59.5853 24.0868 59.8072 24.1836 60.0816L24.3652 59.2706L25.1398 59.2706L24.7767 62.7203C24.7202 63.2691 24.9542 63.5434 25.4788 63.5434C25.8822 63.5434 26.2292 63.3013 26.5197 62.8172C26.8183 62.3249 26.9676 61.7197 26.9676 61.0015C26.9676 59.9444 26.5883 59.089 25.8298 58.4354C25.0712 57.7817 24.0706 57.4549 22.8279 57.4549C21.4561 57.4549 20.3425 57.8786 19.4871 58.7259C18.6317 59.5651 18.204 60.6142 18.204 61.873C18.204 63.1399 18.5914 64.1365 19.3661 64.8628C20.1488 65.581 21.2503 65.9401 22.6705 65.9401C23.7438 65.9401 24.6678 65.6899 25.4424 65.1896L25.4182 66.0732C24.7242 66.5332 23.7801 66.7632 22.5858 66.7632C21.0122 66.7632 19.7292 66.3153 18.7366 65.4196C17.7521 64.5319 17.2599 63.3538 17.2599 61.8851ZM24.0504 61.3525C24.0504 60.9006 23.9213 60.5456 23.6631 60.2873C23.4129 60.0211 23.0821 59.8879 22.6705 59.8879C22.1702 59.8879 21.7466 60.0856 21.3996 60.481C21.0607 60.8764 20.8912 61.3525 20.8912 61.9093C20.8912 62.3935 21.0203 62.7849 21.2785 63.0835C21.5448 63.382 21.8878 63.5313 22.3074 63.5313C22.8077 63.5313 23.2233 63.3296 23.5542 62.9261C23.885 62.5226 24.0504 61.9981 24.0504 61.3525ZM32.2381 58.617C32.9886 58.617 33.5938 58.8429 34.0537 59.2948C34.5137 59.7467 34.7437 60.4568 34.7437 61.4252L34.7437 64.8628L33.7511 64.8628L33.7511 61.4857C33.7511 60.8482 33.6059 60.364 33.3154 60.0332C33.0249 59.6942 32.6093 59.5248 32.0686 59.5248C31.4957 59.5248 31.0398 59.7265 30.7008 60.13C30.37 60.5335 30.2046 61.0822 30.2046 61.7762L30.2046 64.8628L29.212 64.8628L29.212 56.3898L30.2046 56.3898L30.2046 59.7063C30.6564 58.9801 31.3343 58.617 32.2381 58.617ZM40.9855 64.0639C40.4206 64.6449 39.6863 64.9354 38.7825 64.9354C37.8787 64.9354 37.1403 64.6449 36.5674 64.0639C36.0025 63.4748 35.7201 62.7123 35.7201 61.7762C35.7201 60.8401 36.0025 60.0816 36.5674 59.5006C37.1403 58.9115 37.8787 58.617 38.7825 58.617C39.6863 58.617 40.4206 58.9115 40.9855 59.5006C41.5584 60.0816 41.8449 60.8401 41.8449 61.7762C41.8449 62.7123 41.5584 63.4748 40.9855 64.0639ZM37.3057 63.4103C37.685 63.838 38.1773 64.0518 38.7825 64.0518C39.3877 64.0518 39.8799 63.838 40.2592 63.4103C40.6385 62.9826 40.8281 62.4379 40.8281 61.7762C40.8281 61.1145 40.6385 60.5698 40.2592 60.1421C39.8799 59.7144 39.3877 59.5006 38.7825 59.5006C38.1773 59.5006 37.685 59.7144 37.3057 60.1421C36.9265 60.5698 36.7368 61.1145 36.7368 61.7762C36.7368 62.4379 36.9265 62.9826 37.3057 63.4103ZM42.9831 64.8628L42.9831 56.3898L43.9756 56.3898L43.9756 64.8628L42.9831 64.8628ZM45.3354 64.8628L45.3354 56.3898L46.3279 56.3898L46.3279 64.8628L45.3354 64.8628ZM49.4791 64.8991L47.0704 58.6896L48.1234 58.6896L50.0238 63.616L51.8637 58.6896L52.9168 58.6896L50.0722 65.9038C49.8624 66.4444 49.6647 66.8076 49.4791 66.9932C49.2935 67.1868 48.9949 67.2837 48.5834 67.2837L47.3972 67.2837L47.3972 66.3758L48.2808 66.3758C48.5552 66.3758 48.7408 66.3315 48.8376 66.2427C48.9425 66.1539 49.0555 65.9562 49.1765 65.6496L49.4791 64.8991ZM56.7679 58.617C57.6394 58.617 58.3496 58.8994 58.8983 59.4643C59.4551 60.0211 59.7335 60.7917 59.7335 61.7762C59.7335 62.7123 59.4551 63.4748 58.8983 64.0639C58.3415 64.6449 57.6314 64.9354 56.7679 64.9354C55.7834 64.9354 55.0773 64.5965 54.6497 63.9187L54.5165 64.8628L53.6571 64.8628L53.6571 56.3898L54.6497 56.3898L54.6497 59.6821C55.1661 58.972 55.8722 58.617 56.7679 58.617ZM56.6711 64.0518C57.2844 64.0518 57.7766 63.842 58.1478 63.4224C58.5271 62.9947 58.7167 62.446 58.7167 61.7762C58.7167 61.1064 58.5271 60.5617 58.1478 60.1421C57.7766 59.7144 57.2844 59.5006 56.6711 59.5006C56.0659 59.5006 55.5736 59.7104 55.1944 60.13C54.8232 60.5496 54.6376 61.0903 54.6376 61.752C54.6376 62.4298 54.8232 62.9826 55.1944 63.4103C55.5736 63.838 56.0659 64.0518 56.6711 64.0518ZM66.3268 63.955L66.6415 63.955L66.6415 64.8628L66.0968 64.8628C65.7014 64.8628 65.4189 64.7821 65.2495 64.6207C65.08 64.4593 64.9912 64.2213 64.9832 63.9066C64.5071 64.5925 63.8171 64.9354 62.9133 64.9354C62.2274 64.9354 61.6747 64.774 61.255 64.4512C60.8435 64.1285 60.6377 63.6887 60.6377 63.1319C60.6377 62.5105 60.8475 62.0344 61.2671 61.7036C61.6948 61.3727 62.3122 61.2073 63.1191 61.2073L64.9348 61.2073L64.9348 60.7836C64.9348 60.3802 64.7976 60.0654 64.5232 59.8395C64.2569 59.6135 63.8817 59.5006 63.3975 59.5006C62.9698 59.5006 62.6148 59.5974 62.3323 59.7911C62.058 59.9767 61.8885 60.2268 61.8239 60.5415L60.8314 60.5415C60.904 59.9363 61.1703 59.4643 61.6303 59.1253C62.0983 58.7864 62.7035 58.617 63.4459 58.617C64.2367 58.617 64.846 58.8106 65.2737 59.198C65.7094 59.5772 65.9273 60.126 65.9273 60.8442L65.9273 63.5434C65.9273 63.7048 65.9556 63.8138 66.012 63.8702C66.0766 63.9267 66.1815 63.955 66.3268 63.955ZM64.9348 62.3451L64.9348 62.0425L63.0223 62.0425C62.1023 62.0425 61.6424 62.3854 61.6424 63.0714C61.6424 63.378 61.7634 63.6241 62.0055 63.8097C62.2476 63.9953 62.5744 64.0881 62.986 64.0881C63.5912 64.0881 64.0673 63.9308 64.4143 63.616C64.7613 63.2933 64.9348 62.8696 64.9348 62.3451ZM70.2612 58.6896L70.5396 58.6896L70.5396 59.6579L70.0433 59.6579C69.4542 59.6579 69.0305 59.8556 68.7723 60.251C68.5222 60.6464 68.3971 61.1347 68.3971 61.7157L68.3971 64.8628L67.4045 64.8628L67.4045 58.6896L68.2639 58.6896L68.3971 59.6216C68.7763 59.0003 69.3977 58.6896 70.2612 58.6896ZM73.8172 64.9354C72.9134 64.9354 72.1871 64.653 71.6384 64.0881C71.0977 63.5152 70.8274 62.7486 70.8274 61.7883C70.8274 60.8442 71.1058 60.0816 71.6626 59.5006C72.2194 58.9115 72.9457 58.617 73.8414 58.617C74.5838 58.617 75.189 58.8147 75.657 59.2101C76.1331 59.5974 76.4358 60.134 76.5649 60.8199L75.5239 60.8199C75.4351 60.4084 75.2415 60.0856 74.9429 59.8516C74.6524 59.6176 74.2812 59.5006 73.8293 59.5006C73.2402 59.5006 72.7601 59.7144 72.3889 60.1421C72.0257 60.5617 71.8442 61.1104 71.8442 61.7883C71.8442 62.4581 72.0257 63.0028 72.3889 63.4224C72.7601 63.842 73.2402 64.0518 73.8293 64.0518C74.265 64.0518 74.6282 63.9388 74.9187 63.7129C75.2172 63.4789 75.415 63.1601 75.5118 62.7566L76.5649 62.7566C76.4438 63.4264 76.1412 63.959 75.657 64.3544C75.1729 64.7418 74.5596 64.9354 73.8172 64.9354ZM77.653 64.8628L77.653 56.3898L78.6456 56.3898L78.6456 64.8628L77.653 64.8628ZM85.4644 63.955L85.7791 63.955L85.7791 64.8628L85.2344 64.8628C84.839 64.8628 84.5566 64.7821 84.3871 64.6207C84.2177 64.4593 84.1289 64.2213 84.1208 63.9066C83.6447 64.5925 82.9548 64.9354 82.051 64.9354C81.3651 64.9354 80.8123 64.774 80.3927 64.4512C79.9811 64.1285 79.7754 63.6887 79.7754 63.1319C79.7754 62.5105 79.9852 62.0344 80.4048 61.7036C80.8325 61.3727 81.4498 61.2073 82.2567 61.2073L84.0724 61.2073L84.0724 60.7836C84.0724 60.3802 83.9352 60.0654 83.6609 59.8395C83.3946 59.6135 83.0193 59.5006 82.5351 59.5006C82.1075 59.5006 81.7524 59.5974 81.47 59.7911C81.1956 59.9767 81.0261 60.2268 80.9616 60.5415L79.969 60.5415C80.0417 59.9363 80.3079 59.4643 80.7679 59.1253C81.2359 58.7864 81.8412 58.617 82.5836 58.617C83.3744 58.617 83.9836 58.8106 84.4113 59.198C84.8471 59.5772 85.065 60.126 85.065 60.8442L85.065 63.5434C85.065 63.7048 85.0932 63.8138 85.1497 63.8702C85.2142 63.9267 85.3191 63.955 85.4644 63.955ZM84.0724 62.3451L84.0724 62.0425L82.1599 62.0425C81.24 62.0425 80.78 62.3854 80.78 63.0714C80.78 63.378 80.9011 63.6241 81.1431 63.8097C81.3852 63.9953 81.7121 64.0881 82.1236 64.0881C82.7288 64.0881 83.2049 63.9308 83.5519 63.616C83.8989 63.2933 84.0724 62.8696 84.0724 62.3451ZM88.109 64.8991L85.7002 58.6896L86.7533 58.6896L88.6537 63.616L90.4936 58.6896L91.5466 58.6896L88.7021 65.9038C88.4923 66.4444 88.2946 66.8076 88.109 66.9932C87.9234 67.1868 87.6248 67.2837 87.2133 67.2837L86.0271 67.2837L86.0271 66.3758L86.9107 66.3758C87.185 66.3758 87.3706 66.3315 87.4675 66.2427C87.5724 66.1539 87.6854 65.9562 87.8064 65.6496L88.109 64.8991Z"/></g><defs><filter id="filter0_b_2060_26175" width="248.139" height="340.139" x="-8.07" y="-7.468" color-interpolation-filters="sRGB" filterUnits="userSpaceOnUse"><feFlood flood-opacity="0" result="BackgroundImageFix"/><feGaussianBlur in="BackgroundImageFix" stdDeviation="4.035"/><feComposite in2="SourceAlpha" operator="in" result="effect1_backgroundBlur_2060_26175"/><feBlend in="SourceGraphic" in2="effect1_backgroundBlur_2060_26175" mode="normal" result="shape"/></filter><filter id="filter1_f_2060_26175" width="446.085" height="471.404" x="-125.948" y="-84.488" color-interpolation-filters="sRGB" filterUnits="userSpaceOnUse"><feFlood flood-opacity="0" result="BackgroundImageFix"/><feBlend in="SourceGraphic" in2="BackgroundImageFix" mode="normal" result="shape"/><feGaussianBlur result="effect1_foregroundBlur_2060_26175" stdDeviation="40.348"/></filter><linearGradient id="paint0_linear_2060_26175" x1="232" x2="-10.522" y1=".602" y2="328.571" gradientUnits="userSpaceOnUse"><stop stop-color="#232325"/><stop offset="1" stop-color="#232325" stop-opacity="0"/><stop offset="1" stop-color="#232325" stop-opacity=".2"/></linearGradient><linearGradient id="paint1_linear_2060_26175" x1="221.913" x2="130.456" y1="-6.442" y2="36.748" gradientUnits="userSpaceOnUse"><stop stop-color="#fff"/><stop offset="1" stop-color="#fff" stop-opacity=".08"/></linearGradient><linearGradient id="paint2_linear_2060_26175" x1="168.72" x2="-14.358" y1="44.347" y2="295.15" gradientUnits="userSpaceOnUse"><stop stop-color="#fff"/><stop offset="1" stop-color="#fff" stop-opacity="0"/></linearGradient><linearGradient id="paint3_linear_2060_26175" x1="211.826" x2="211.826" y1=".602" y2="325.402" gradientUnits="userSpaceOnUse"><stop stop-color="#D9D9D9"/><stop offset=".199" stop-color="#D9D9D9" stop-opacity=".4"/><stop offset=".392" stop-color="#D9D9D9"/><stop offset=".58" stop-color="#D9D9D9" stop-opacity=".4"/><stop offset=".754" stop-color="#D9D9D9"/><stop offset=".964" stop-color="#D9D9D9" stop-opacity=".4"/></linearGradient><linearGradient id="paint4_linear_2060_26175" x1="3.32" x2="40.348" y1="146.546" y2="146.546" gradientUnits="userSpaceOnUse"><stop stop-color="#222224"/><stop offset="1" stop-color="#222224" stop-opacity="0"/></linearGradient><clipPath id="clip0_2060_26175"><rect width="232" height="324" y=".602" fill="#fff" rx="8"/></clipPath><clipPath id="clip1_2060_26175"><rect width="28.748" height="12.104" fill="#fff" transform="translate(33.2871 285.054)"/></clipPath></defs></svg>