<svg xmlns="http://www.w3.org/2000/svg" width="232" height="325" fill="none" viewBox="0 0 232 325"><g clip-path="url(#clip0_2060_26178)"><g filter="url(#filter0_d_2060_26178)"><g clip-path="url(#clip1_2060_26178)"><g filter="url(#filter1_b_2060_26178)"><mask id="path-3-inside-1_2060_26178" fill="#fff"><path fill-rule="evenodd" d="M0.87953 5.00762C0 6.7338 0 8.99349 0 13.5129V312.49C0 317.01 0 319.269 0.87953 320.995C1.65319 322.514 2.88767 323.748 4.40606 324.522C6.13223 325.402 8.39192 325.402 12.9113 325.402H219.089C223.608 325.402 225.868 325.402 227.594 324.522C229.112 323.748 230.347 322.514 231.12 320.995C232 319.269 232 317.01 232 312.49V13.5129C232 8.99349 232 6.7338 231.12 5.00762C230.347 3.48924 229.112 2.25475 227.594 1.48109C225.868 0.601562 223.608 0.601562 219.089 0.601562H12.9113C8.39192 0.601562 6.13223 0.601562 4.40606 1.48109C2.88767 2.25475 1.65319 3.48924 0.87953 5.00762ZM97.8435 8.67113C96.7293 8.67113 95.8261 9.57434 95.8261 10.6885C95.8261 11.8027 96.7293 12.7059 97.8435 12.7059H134.157C135.271 12.7059 136.174 11.8027 136.174 10.6885C136.174 9.57434 135.271 8.67113 134.157 8.67113H97.8435Z" clip-rule="evenodd"/></mask><path fill="#151518" fill-rule="evenodd" d="M0.87953 5.00762C0 6.7338 0 8.99349 0 13.5129V312.49C0 317.01 0 319.269 0.87953 320.995C1.65319 322.514 2.88767 323.748 4.40606 324.522C6.13223 325.402 8.39192 325.402 12.9113 325.402H219.089C223.608 325.402 225.868 325.402 227.594 324.522C229.112 323.748 230.347 322.514 231.12 320.995C232 319.269 232 317.01 232 312.49V13.5129C232 8.99349 232 6.7338 231.12 5.00762C230.347 3.48924 229.112 2.25475 227.594 1.48109C225.868 0.601562 223.608 0.601562 219.089 0.601562H12.9113C8.39192 0.601562 6.13223 0.601562 4.40606 1.48109C2.88767 2.25475 1.65319 3.48924 0.87953 5.00762ZM97.8435 8.67113C96.7293 8.67113 95.8261 9.57434 95.8261 10.6885C95.8261 11.8027 96.7293 12.7059 97.8435 12.7059H134.157C135.271 12.7059 136.174 11.8027 136.174 10.6885C136.174 9.57434 135.271 8.67113 134.157 8.67113H97.8435Z" clip-rule="evenodd"/><path fill="#FD366E" fill-opacity=".12" fill-rule="evenodd" d="M0.87953 5.00762C0 6.7338 0 8.99349 0 13.5129V312.49C0 317.01 0 319.269 0.87953 320.995C1.65319 322.514 2.88767 323.748 4.40606 324.522C6.13223 325.402 8.39192 325.402 12.9113 325.402H219.089C223.608 325.402 225.868 325.402 227.594 324.522C229.112 323.748 230.347 322.514 231.12 320.995C232 319.269 232 317.01 232 312.49V13.5129C232 8.99349 232 6.7338 231.12 5.00762C230.347 3.48924 229.112 2.25475 227.594 1.48109C225.868 0.601562 223.608 0.601562 219.089 0.601562H12.9113C8.39192 0.601562 6.13223 0.601562 4.40606 1.48109C2.88767 2.25475 1.65319 3.48924 0.87953 5.00762ZM97.8435 8.67113C96.7293 8.67113 95.8261 9.57434 95.8261 10.6885C95.8261 11.8027 96.7293 12.7059 97.8435 12.7059H134.157C135.271 12.7059 136.174 11.8027 136.174 10.6885C136.174 9.57434 135.271 8.67113 134.157 8.67113H97.8435Z" clip-rule="evenodd"/><path fill="url(#paint0_linear_2060_26178)" fill-opacity=".48" d="M0.87953 5.00762L0.430153 4.77865L0.430153 4.77865L0.87953 5.00762ZM0.87953 320.995L1.32891 320.767L1.32891 320.767L0.87953 320.995ZM4.40606 324.522L4.17708 324.971L4.17709 324.971L4.40606 324.522ZM227.594 324.522L227.823 324.971L227.823 324.971L227.594 324.522ZM231.12 320.995L230.671 320.767L230.671 320.767L231.12 320.995ZM231.12 5.00762L230.671 5.23659L230.671 5.23659L231.12 5.00762ZM227.594 1.48109L227.823 1.03172L227.823 1.03171L227.594 1.48109ZM4.40606 1.48109L4.17709 1.03172L4.17709 1.03172L4.40606 1.48109ZM0.504348 13.5129C0.504348 11.2449 0.50474 9.57418 0.612614 8.25386C0.720007 6.93944 0.931407 6.01673 1.32891 5.23659L0.430153 4.77865C-0.0518769 5.72469 -0.280242 6.79492 -0.392732 8.17172C-0.50474 9.54265 -0.504348 11.2615 -0.504348 13.5129H0.504348ZM0.504348 312.49V13.5129H-0.504348V312.49H0.504348ZM1.32891 320.767C0.931407 319.986 0.720007 319.064 0.612614 317.749C0.50474 316.429 0.504348 314.758 0.504348 312.49H-0.504348C-0.504348 314.742 -0.50474 316.46 -0.392732 317.831C-0.280242 319.208 -0.0518769 320.278 0.430153 321.224L1.32891 320.767ZM4.63503 324.073C3.21154 323.347 2.05421 322.19 1.32891 320.767L0.430152 321.224C1.25216 322.838 2.56381 324.149 4.17708 324.971L4.63503 324.073ZM12.9113 324.897C10.6433 324.897 8.97261 324.897 7.6523 324.789C6.33787 324.682 5.41516 324.47 4.63503 324.073L4.17709 324.971C5.12313 325.453 6.19335 325.682 7.57016 325.794C8.94107 325.906 10.6599 325.906 12.9113 325.906V324.897ZM219.089 324.897H12.9113V325.906H219.089V324.897ZM227.365 324.073C226.585 324.47 225.662 324.682 224.348 324.789C223.027 324.897 221.357 324.897 219.089 324.897V325.906C221.34 325.906 223.059 325.906 224.43 325.794C225.807 325.682 226.877 325.453 227.823 324.971L227.365 324.073ZM230.671 320.767C229.946 322.19 228.788 323.347 227.365 324.073L227.823 324.971C229.436 324.149 230.748 322.838 231.57 321.224L230.671 320.767ZM231.496 312.49C231.496 314.758 231.495 316.429 231.387 317.749C231.28 319.064 231.069 319.986 230.671 320.767L231.57 321.224C232.052 320.278 232.28 319.208 232.393 317.831C232.505 316.46 232.504 314.742 232.504 312.49H231.496ZM231.496 13.5129V312.49H232.504V13.5129H231.496ZM230.671 5.23659C231.069 6.01673 231.28 6.93943 231.387 8.25386C231.495 9.57418 231.496 11.2449 231.496 13.5129H232.504C232.504 11.2615 232.505 9.54264 232.393 8.17172C232.28 6.79492 232.052 5.72469 231.57 4.77865L230.671 5.23659ZM227.365 1.93047C228.788 2.65577 229.946 3.8131 230.671 5.23659L231.57 4.77865C230.748 3.16537 229.436 1.85373 227.823 1.03172L227.365 1.93047ZM219.089 1.10591C221.357 1.10591 223.027 1.1063 224.348 1.21418C225.662 1.32157 226.585 1.53297 227.365 1.93047L227.823 1.03171C226.877 0.549686 225.807 0.32132 224.43 0.208831C223.059 0.0968225 221.34 0.0972147 219.089 0.0972147V1.10591ZM12.9113 1.10591H219.089V0.0972147H12.9113V1.10591ZM4.63503 1.93047C5.41517 1.53297 6.33787 1.32157 7.6523 1.21418C8.97261 1.1063 10.6433 1.10591 12.9113 1.10591V0.0972147C10.6599 0.0972147 8.94108 0.0968225 7.57016 0.208831C6.19335 0.32132 5.12313 0.549686 4.17709 1.03172L4.63503 1.93047ZM1.32891 5.23659C2.05421 3.8131 3.21154 2.65577 4.63503 1.93047L4.17709 1.03172C2.5638 1.85373 1.25216 3.16537 0.430153 4.77865L1.32891 5.23659ZM96.3304 10.6885C96.3304 9.85289 97.0078 9.17548 97.8435 9.17548V8.16678C96.4508 8.16678 95.3217 9.2958 95.3217 10.6885H96.3304ZM97.8435 12.2016C97.0078 12.2016 96.3304 11.5241 96.3304 10.6885H95.3217C95.3217 12.0812 96.4508 13.2103 97.8435 13.2103V12.2016ZM134.157 12.2016H97.8435V13.2103H134.157V12.2016ZM135.67 10.6885C135.67 11.5241 134.992 12.2016 134.157 12.2016V13.2103C135.549 13.2103 136.678 12.0812 136.678 10.6885H135.67ZM134.157 9.17548C134.992 9.17548 135.67 9.85289 135.67 10.6885H136.678C136.678 9.2958 135.549 8.16678 134.157 8.16678V9.17548ZM97.8435 9.17548H134.157V8.16678H97.8435V9.17548Z" mask="url(#path-3-inside-1_2060_26178)"/><path fill="url(#paint1_linear_2060_26178)" d="M0.87953 5.00762L0.430153 4.77865L0.430153 4.77865L0.87953 5.00762ZM0.87953 320.995L1.32891 320.767L1.32891 320.767L0.87953 320.995ZM4.40606 324.522L4.17708 324.971L4.17709 324.971L4.40606 324.522ZM227.594 324.522L227.823 324.971L227.823 324.971L227.594 324.522ZM231.12 320.995L230.671 320.767L230.671 320.767L231.12 320.995ZM231.12 5.00762L230.671 5.23659L230.671 5.23659L231.12 5.00762ZM227.594 1.48109L227.823 1.03172L227.823 1.03171L227.594 1.48109ZM4.40606 1.48109L4.17709 1.03172L4.17709 1.03172L4.40606 1.48109ZM0.504348 13.5129C0.504348 11.2449 0.50474 9.57418 0.612614 8.25386C0.720007 6.93944 0.931407 6.01673 1.32891 5.23659L0.430153 4.77865C-0.0518769 5.72469 -0.280242 6.79492 -0.392732 8.17172C-0.50474 9.54265 -0.504348 11.2615 -0.504348 13.5129H0.504348ZM0.504348 312.49V13.5129H-0.504348V312.49H0.504348ZM1.32891 320.767C0.931407 319.986 0.720007 319.064 0.612614 317.749C0.50474 316.429 0.504348 314.758 0.504348 312.49H-0.504348C-0.504348 314.742 -0.50474 316.46 -0.392732 317.831C-0.280242 319.208 -0.0518769 320.278 0.430153 321.224L1.32891 320.767ZM4.63503 324.073C3.21154 323.347 2.05421 322.19 1.32891 320.767L0.430152 321.224C1.25216 322.838 2.56381 324.149 4.17708 324.971L4.63503 324.073ZM12.9113 324.897C10.6433 324.897 8.97261 324.897 7.6523 324.789C6.33787 324.682 5.41516 324.47 4.63503 324.073L4.17709 324.971C5.12313 325.453 6.19335 325.682 7.57016 325.794C8.94107 325.906 10.6599 325.906 12.9113 325.906V324.897ZM219.089 324.897H12.9113V325.906H219.089V324.897ZM227.365 324.073C226.585 324.47 225.662 324.682 224.348 324.789C223.027 324.897 221.357 324.897 219.089 324.897V325.906C221.34 325.906 223.059 325.906 224.43 325.794C225.807 325.682 226.877 325.453 227.823 324.971L227.365 324.073ZM230.671 320.767C229.946 322.19 228.788 323.347 227.365 324.073L227.823 324.971C229.436 324.149 230.748 322.838 231.57 321.224L230.671 320.767ZM231.496 312.49C231.496 314.758 231.495 316.429 231.387 317.749C231.28 319.064 231.069 319.986 230.671 320.767L231.57 321.224C232.052 320.278 232.28 319.208 232.393 317.831C232.505 316.46 232.504 314.742 232.504 312.49H231.496ZM231.496 13.5129V312.49H232.504V13.5129H231.496ZM230.671 5.23659C231.069 6.01673 231.28 6.93943 231.387 8.25386C231.495 9.57418 231.496 11.2449 231.496 13.5129H232.504C232.504 11.2615 232.505 9.54264 232.393 8.17172C232.28 6.79492 232.052 5.72469 231.57 4.77865L230.671 5.23659ZM227.365 1.93047C228.788 2.65577 229.946 3.8131 230.671 5.23659L231.57 4.77865C230.748 3.16537 229.436 1.85373 227.823 1.03172L227.365 1.93047ZM219.089 1.10591C221.357 1.10591 223.027 1.1063 224.348 1.21418C225.662 1.32157 226.585 1.53297 227.365 1.93047L227.823 1.03171C226.877 0.549686 225.807 0.32132 224.43 0.208831C223.059 0.0968225 221.34 0.0972147 219.089 0.0972147V1.10591ZM12.9113 1.10591H219.089V0.0972147H12.9113V1.10591ZM4.63503 1.93047C5.41517 1.53297 6.33787 1.32157 7.6523 1.21418C8.97261 1.1063 10.6433 1.10591 12.9113 1.10591V0.0972147C10.6599 0.0972147 8.94108 0.0968225 7.57016 0.208831C6.19335 0.32132 5.12313 0.549686 4.17709 1.03172L4.63503 1.93047ZM1.32891 5.23659C2.05421 3.8131 3.21154 2.65577 4.63503 1.93047L4.17709 1.03172C2.5638 1.85373 1.25216 3.16537 0.430153 4.77865L1.32891 5.23659ZM96.3304 10.6885C96.3304 9.85289 97.0078 9.17548 97.8435 9.17548V8.16678C96.4508 8.16678 95.3217 9.2958 95.3217 10.6885H96.3304ZM97.8435 12.2016C97.0078 12.2016 96.3304 11.5241 96.3304 10.6885H95.3217C95.3217 12.0812 96.4508 13.2103 97.8435 13.2103V12.2016ZM134.157 12.2016H97.8435V13.2103H134.157V12.2016ZM135.67 10.6885C135.67 11.5241 134.992 12.2016 134.157 12.2016V13.2103C135.549 13.2103 136.678 12.0812 136.678 10.6885H135.67ZM134.157 9.17548C134.992 9.17548 135.67 9.85289 135.67 10.6885H136.678C136.678 9.2958 135.549 8.16678 134.157 8.16678V9.17548ZM97.8435 9.17548H134.157V8.16678H97.8435V9.17548Z" mask="url(#path-3-inside-1_2060_26178)"/></g><path fill="#fff" d="M20.5765 43.3753L20.5765 32.7235L22.3316 32.7235L22.3316 43.5165C22.3316 44.6059 22.0492 45.433 21.4843 45.9979C20.9194 46.5628 20.0923 46.8452 19.0029 46.8452L17.1671 46.8452L17.1671 45.2313L18.781 45.2313C19.4131 45.2313 19.8704 45.0834 20.1528 44.7875C20.4353 44.4916 20.5765 44.0209 20.5765 43.3753ZM33.722 45.3322L34.2465 45.3322L34.2465 46.8452L33.3387 46.8452C32.6797 46.8452 32.209 46.7107 31.9265 46.4417C31.6441 46.1728 31.4961 45.776 31.4827 45.2515C30.6892 46.3947 29.5393 46.9663 28.033 46.9663C26.8898 46.9663 25.9685 46.6973 25.2691 46.1593C24.5832 45.6213 24.2403 44.8883 24.2403 43.9603C24.2403 42.9248 24.5899 42.1312 25.2893 41.5798C26.0021 41.0284 27.031 40.7527 28.3759 40.7527L31.402 40.7527L31.402 40.0466C31.402 39.3741 31.1734 38.8496 30.7161 38.473C30.2723 38.0965 29.6469 37.9082 28.8399 37.9082C28.1271 37.9082 27.5353 38.0696 27.0646 38.3923C26.6073 38.7017 26.3249 39.1186 26.2173 39.6431L24.563 39.6431C24.6841 38.6344 25.1279 37.8477 25.8945 37.2828C26.6746 36.7179 27.6833 36.4355 28.9206 36.4355C30.2386 36.4355 31.2541 36.7583 31.9669 37.4038C32.6931 38.0359 33.0563 38.9505 33.0563 40.1475L33.0563 44.6463C33.0563 44.9152 33.1033 45.0968 33.1975 45.191C33.3051 45.2851 33.4799 45.3322 33.722 45.3322ZM31.402 42.649L31.402 42.1447L28.2145 42.1447C26.6813 42.1447 25.9147 42.7163 25.9147 43.8595C25.9147 44.3705 26.1164 44.7808 26.5199 45.0901C26.9234 45.3994 27.4681 45.5541 28.154 45.5541C29.1627 45.5541 29.9562 45.2918 30.5345 44.7673C31.1128 44.2293 31.402 43.5232 31.402 42.649ZM43.3082 38.1301L43.3082 32.7235L44.9625 32.7235L44.9625 46.8452L43.5301 46.8452L43.3082 45.191C42.4475 46.3745 41.2707 46.9663 39.7778 46.9663C38.3253 46.9663 37.135 46.5023 36.207 45.5743C35.2925 44.6328 34.8352 43.3417 34.8352 41.7009C34.8352 40.1408 35.2992 38.8765 36.2272 37.9082C37.1552 36.9264 38.3387 36.4355 39.7778 36.4355C41.4186 36.4355 42.5954 37.0003 43.3082 38.1301ZM39.9392 45.4936C40.9479 45.4936 41.7616 45.1439 42.3802 44.4445C43.0123 43.7452 43.3284 42.8441 43.3284 41.7412C43.3284 40.6115 43.0124 39.6902 42.3802 38.9774C41.7616 38.2646 40.9479 37.9082 39.9392 37.9082C38.917 37.9082 38.0899 38.2646 37.4578 38.9774C36.8391 39.6768 36.5298 40.5846 36.5298 41.7009C36.5298 42.8172 36.8391 43.7317 37.4578 44.4445C38.0899 45.1439 38.917 45.4936 39.9392 45.4936ZM51.7551 46.9663C50.2219 46.9663 48.9846 46.4821 48.0431 45.5137C47.1151 44.5454 46.6511 43.2744 46.6511 41.7009C46.6511 40.1408 47.1017 38.8765 48.0028 37.9082C48.9039 36.9264 50.0807 36.4355 51.5332 36.4355C52.9992 36.4355 54.1693 36.8726 55.0435 37.7468C55.9177 38.6075 56.3749 39.7978 56.4153 41.3176C56.4153 41.4655 56.4018 41.7009 56.3749 42.0237L48.3861 42.0237L48.3861 42.1649C48.413 43.1601 48.7156 43.9671 49.2939 44.5857C49.8857 45.191 50.6657 45.4936 51.6341 45.4936C52.3738 45.4936 52.9992 45.312 53.5102 44.9489C54.0348 44.5723 54.3844 44.0545 54.5593 43.3955L56.2337 43.3955C56.032 44.4445 55.5276 45.3053 54.7207 45.9777C53.9137 46.6368 52.9252 46.9663 51.7551 46.9663ZM48.4869 40.6518L54.64 40.6518C54.5593 39.7776 54.2432 39.0984 53.6918 38.6143C53.1404 38.1301 52.4276 37.888 51.5534 37.888C50.7733 37.888 50.0874 38.1435 49.4956 38.6546C48.9039 39.1657 48.5676 39.8314 48.4869 40.6518ZM63.4215 46.8452L63.4215 32.7235L68.4246 32.7235C69.904 32.7235 71.0539 33.0597 71.8743 33.7322C72.6947 34.3912 73.1049 35.299 73.1049 36.4557C73.1049 37.9889 72.3652 39.011 70.8858 39.5221C71.7062 39.6835 72.3787 40.0332 72.9032 40.5711C73.4277 41.1091 73.69 41.8555 73.69 42.8104C73.69 44.0747 73.2462 45.0632 72.3585 45.776C71.4843 46.4888 70.2201 46.8452 68.5658 46.8452L63.4215 46.8452ZM68.5053 34.3172L65.1766 34.3172L65.1766 38.8563L68.5053 38.8563C69.4064 38.8563 70.1058 38.6546 70.6034 38.2511C71.101 37.8477 71.3498 37.2895 71.3498 36.5767C71.3498 35.8639 71.101 35.3125 70.6034 34.9224C70.1192 34.519 69.4198 34.3172 68.5053 34.3172ZM68.5658 40.4299L65.1766 40.4299L65.1766 45.2515L68.5658 45.2515C69.6418 45.2515 70.4622 45.043 71.027 44.6261C71.6054 44.2092 71.8945 43.6308 71.8945 42.8911C71.8945 42.0976 71.6054 41.4924 71.027 41.0755C70.4487 40.6451 69.6283 40.4299 68.5658 40.4299ZM84.5469 45.3322L85.0714 45.3322L85.0714 46.8452L84.1636 46.8452C83.5045 46.8452 83.0338 46.7107 82.7514 46.4417C82.4689 46.1728 82.321 45.776 82.3076 45.2515C81.514 46.3947 80.3641 46.9663 78.8578 46.9663C77.7146 46.9663 76.7934 46.6973 76.094 46.1593C75.4081 45.6213 75.0651 44.8883 75.0651 43.9603C75.0651 42.9248 75.4148 42.1312 76.1142 41.5798C76.827 41.0284 77.8558 40.7527 79.2008 40.7527L82.2269 40.7527L82.2269 40.0466C82.2269 39.3741 81.9982 38.8496 81.5409 38.473C81.0971 38.0965 80.4717 37.9082 79.6648 37.9082C78.952 37.9082 78.3602 38.0696 77.8895 38.3923C77.4322 38.7017 77.1498 39.1186 77.0422 39.6431L75.3879 39.6431C75.5089 38.6344 75.9528 37.8477 76.7194 37.2828C77.4994 36.7179 78.5081 36.4355 79.7455 36.4355C81.0635 36.4355 82.0789 36.7583 82.7917 37.4038C83.518 38.0359 83.8811 38.9505 83.8811 40.1475L83.8811 44.6463C83.8811 44.9152 83.9282 45.0968 84.0223 45.191C84.1299 45.2851 84.3048 45.3322 84.5469 45.3322ZM82.2269 42.649L82.2269 42.1447L79.0394 42.1447C77.5062 42.1447 76.7396 42.7163 76.7396 43.8595C76.7396 44.3706 76.9413 44.7808 77.3448 45.0901C77.7483 45.3994 78.2929 45.5541 78.9789 45.5541C79.9876 45.5541 80.7811 45.2918 81.3594 44.7673C81.9377 44.2293 82.2269 43.5232 82.2269 42.649ZM93.3435 41.7009L93.3435 36.5565L94.9977 36.5565L94.9977 46.8452L93.5654 46.8452L93.3435 45.4734C92.5634 46.4686 91.4673 46.9663 90.0551 46.9663C88.8312 46.9663 87.8494 46.5897 87.1097 45.8365C86.37 45.0834 86.0002 43.8998 86.0002 42.2859L86.0002 36.5565L87.6544 36.5565L87.6544 42.185C87.6544 43.2475 87.8831 44.0612 88.3403 44.6261C88.8111 45.1775 89.4768 45.4532 90.3376 45.4532C91.279 45.4532 92.012 45.117 92.5365 44.4445C93.0745 43.7721 93.3435 42.8575 93.3435 41.7009ZM105.161 38.1301L105.161 32.7235L106.815 32.7235L106.815 46.8452L105.383 46.8452L105.161 45.191C104.3 46.3745 103.123 46.9663 101.631 46.9663C100.178 46.9663 98.9878 46.5023 98.0598 45.5743C97.1452 44.6328 96.6879 43.3417 96.6879 41.7009C96.6879 40.1408 97.1519 38.8765 98.0799 37.9082C99.0079 36.9264 100.191 36.4355 101.631 36.4355C103.271 36.4355 104.448 37.0004 105.161 38.1301ZM101.792 45.4936C102.801 45.4936 103.614 45.1439 104.233 44.4445C104.865 43.7452 105.181 42.8441 105.181 41.7412C105.181 40.6115 104.865 39.6902 104.233 38.9774C103.614 38.2646 102.801 37.9082 101.792 37.9082C100.77 37.9082 99.9427 38.2646 99.3105 38.9774C98.6919 39.6768 98.3825 40.5846 98.3825 41.7009C98.3825 42.8172 98.6919 43.7317 99.3105 44.4445C99.9427 45.1439 100.77 45.4936 101.792 45.4936ZM113.487 46.9663C111.98 46.9663 110.77 46.4955 109.856 45.5541C108.954 44.5992 108.504 43.3215 108.504 41.721C108.504 40.1475 108.968 38.8765 109.896 37.9082C110.824 36.9264 112.034 36.4355 113.527 36.4355C114.764 36.4355 115.773 36.765 116.553 37.424C117.347 38.0696 117.851 38.9639 118.066 40.1071L116.331 40.1071C116.183 39.4212 115.861 38.8832 115.363 38.4932C114.879 38.1032 114.26 37.9082 113.507 37.9082C112.525 37.9082 111.725 38.2646 111.106 38.9774C110.501 39.6768 110.198 40.5913 110.198 41.721C110.198 42.8373 110.501 43.7452 111.106 44.4445C111.725 45.1439 112.525 45.4936 113.507 45.4936C114.233 45.4936 114.838 45.3053 115.323 44.9287C115.82 44.5387 116.15 44.0074 116.311 43.335L118.066 43.335C117.865 44.4512 117.36 45.3389 116.553 45.9979C115.746 46.6435 114.724 46.9663 113.487 46.9663ZM124.722 36.4355C125.972 36.4355 126.981 36.8121 127.748 37.5652C128.514 38.3184 128.898 39.5019 128.898 41.1158L128.898 46.8452L127.243 46.8452L127.243 41.2167C127.243 40.1542 127.001 39.3473 126.517 38.7958C126.033 38.231 125.34 37.9485 124.439 37.9485C123.484 37.9485 122.724 38.2848 122.16 38.9572C121.608 39.6297 121.332 40.5442 121.332 41.7009L121.332 46.8452L119.678 46.8452L119.678 32.7235L121.332 32.7235L121.332 38.2511C122.086 37.0407 123.215 36.4355 124.722 36.4355ZM139.099 45.5137C138.157 46.4821 136.934 46.9663 135.427 46.9663C133.921 46.9663 132.69 46.4821 131.735 45.5137C130.794 44.5319 130.323 43.261 130.323 41.7009C130.323 40.1408 130.794 38.8765 131.735 37.9082C132.69 36.9264 133.921 36.4355 135.427 36.4355C136.934 36.4355 138.157 36.9264 139.099 37.9082C140.054 38.8765 140.531 40.1408 140.531 41.7009C140.531 43.261 140.054 44.5319 139.099 45.5137ZM132.966 44.4244C133.598 45.1372 134.419 45.4936 135.427 45.4936C136.436 45.4936 137.256 45.1372 137.888 44.4244C138.521 43.7115 138.837 42.8037 138.837 41.7009C138.837 40.598 138.521 39.6902 137.888 38.9774C137.256 38.2646 136.436 37.9082 135.427 37.9082C134.419 37.9082 133.598 38.2646 132.966 38.9774C132.334 39.6902 132.018 40.598 132.018 41.7009C132.018 42.8037 132.334 43.7115 132.966 44.4244ZM147.27 36.4355C148.521 36.4355 149.523 36.8121 150.276 37.5652C151.042 38.3184 151.426 39.5019 151.426 41.1158L151.426 46.8452L149.771 46.8452L149.771 41.2167C149.771 40.1542 149.529 39.3473 149.045 38.7958C148.574 38.231 147.889 37.9485 146.987 37.9485C146.019 37.9485 145.259 38.2848 144.708 38.9572C144.156 39.6297 143.881 40.5442 143.881 41.7009L143.881 46.8452L142.226 46.8452L142.226 36.5565L143.659 36.5565L143.881 37.9485C144.661 36.9398 145.79 36.4355 147.27 36.4355Z"/><path fill="#ADADB0" d="M17.2599 61.8851C17.2599 60.3923 17.8006 59.1455 18.8819 58.1449C19.9632 57.1362 21.2826 56.6318 22.84 56.6318C24.3329 56.6318 25.5514 57.0434 26.4955 57.8665C27.4397 58.6896 27.9117 59.7427 27.9117 61.0257C27.9117 61.9779 27.6696 62.7566 27.1855 63.3619C26.7013 63.9671 26.084 64.2697 25.3335 64.2697C24.9704 64.2697 24.6718 64.1809 24.4378 64.0034C24.2118 63.8259 24.0827 63.612 24.0504 63.3619L24.0262 63.1803C23.889 63.5031 23.651 63.7653 23.3121 63.9671C22.9732 64.1607 22.5898 64.2576 22.1622 64.2576C21.5489 64.2576 21.0284 64.0437 20.6007 63.616C20.1811 63.1803 19.9713 62.6235 19.9713 61.9456C19.9713 61.179 20.2214 60.5254 20.7217 59.9847C21.2221 59.436 21.8111 59.1616 22.489 59.1616C22.9409 59.1616 23.3121 59.2464 23.6026 59.4158C23.8931 59.5853 24.0868 59.8072 24.1836 60.0816L24.3652 59.2706L25.1398 59.2706L24.7767 62.7203C24.7202 63.2691 24.9542 63.5434 25.4788 63.5434C25.8822 63.5434 26.2292 63.3013 26.5197 62.8172C26.8183 62.3249 26.9676 61.7197 26.9676 61.0015C26.9676 59.9444 26.5883 59.089 25.8298 58.4354C25.0712 57.7817 24.0706 57.4549 22.8279 57.4549C21.4561 57.4549 20.3425 57.8786 19.4871 58.7259C18.6317 59.5651 18.204 60.6142 18.204 61.873C18.204 63.1399 18.5914 64.1365 19.3661 64.8628C20.1488 65.581 21.2503 65.9401 22.6705 65.9401C23.7438 65.9401 24.6678 65.6899 25.4424 65.1896L25.4182 66.0732C24.7242 66.5332 23.7801 66.7632 22.5858 66.7632C21.0122 66.7632 19.7292 66.3153 18.7366 65.4196C17.7521 64.5319 17.2599 63.3538 17.2599 61.8851ZM24.0504 61.3525C24.0504 60.9006 23.9213 60.5456 23.6631 60.2873C23.4129 60.0211 23.0821 59.8879 22.6705 59.8879C22.1702 59.8879 21.7466 60.0856 21.3996 60.481C21.0607 60.8764 20.8912 61.3525 20.8912 61.9093C20.8912 62.3935 21.0203 62.7849 21.2785 63.0835C21.5448 63.382 21.8878 63.5313 22.3074 63.5313C22.8077 63.5313 23.2233 63.3296 23.5542 62.9261C23.885 62.5226 24.0504 61.9981 24.0504 61.3525ZM30.2409 57.467C30.1198 57.5881 29.9665 57.6486 29.7809 57.6486C29.5953 57.6486 29.442 57.5881 29.3209 57.467C29.1999 57.346 29.1394 57.1927 29.1394 57.0071C29.1394 56.8215 29.1999 56.6682 29.3209 56.5471C29.442 56.4261 29.5953 56.3655 29.7809 56.3655C29.9665 56.3655 30.1198 56.4261 30.2409 56.5471C30.3619 56.6682 30.4224 56.8215 30.4224 57.0071C30.4224 57.1927 30.3619 57.346 30.2409 57.467ZM27.8321 67.2837L27.8321 66.3758L28.6068 66.3758C28.8489 66.3758 29.0224 66.3234 29.1273 66.2185C29.2322 66.1136 29.2846 65.9401 29.2846 65.698L29.2846 58.6896L30.2772 58.6896L30.2772 65.6738C30.2772 66.2225 30.1481 66.626 29.8898 66.8842C29.6397 67.1505 29.2322 67.2837 28.6673 67.2837L27.8321 67.2837ZM37.0943 63.955L37.409 63.955L37.409 64.8628L36.8643 64.8628C36.4689 64.8628 36.1865 64.7821 36.017 64.6207C35.8475 64.4593 35.7588 64.2213 35.7507 63.9066C35.2746 64.5925 34.5847 64.9354 33.6809 64.9354C32.995 64.9354 32.4422 64.774 32.0226 64.4512C31.611 64.1285 31.4052 63.6887 31.4052 63.1319C31.4052 62.5105 31.6151 62.0344 32.0347 61.7036C32.4624 61.3727 33.0797 61.2073 33.8866 61.2073L35.7023 61.2073L35.7023 60.7836C35.7023 60.3802 35.5651 60.0654 35.2907 59.8395C35.0244 59.6135 34.6492 59.5006 34.165 59.5006C33.7374 59.5006 33.3823 59.5974 33.0999 59.7911C32.8255 59.9767 32.656 60.2268 32.5915 60.5415L31.5989 60.5415C31.6715 59.9363 31.9378 59.4643 32.3978 59.1253C32.8658 58.7864 33.4711 58.617 34.2135 58.617C35.0043 58.617 35.6135 58.8106 36.0412 59.198C36.477 59.5772 36.6948 60.126 36.6948 60.8442L36.6948 63.5434C36.6948 63.7048 36.7231 63.8138 36.7796 63.8702C36.8441 63.9267 36.949 63.955 37.0943 63.955ZM35.7023 62.3451L35.7023 62.0425L33.7898 62.0425C32.8699 62.0425 32.4099 62.3854 32.4099 63.0714C32.4099 63.378 32.531 63.6241 32.773 63.8097C33.0151 63.9953 33.3419 64.0881 33.7535 64.0881C34.3587 64.0881 34.8348 63.9308 35.1818 63.616C35.5288 63.2933 35.7023 62.8696 35.7023 62.3451ZM42.9671 59.6337L42.9671 56.3898L43.9596 56.3898L43.9596 64.8628L43.1002 64.8628L42.9671 63.8702C42.4506 64.5804 41.7445 64.9354 40.8488 64.9354C39.9773 64.9354 39.2631 64.657 38.7063 64.1002C38.1576 63.5354 37.8832 62.7607 37.8832 61.7762C37.8832 60.8401 38.1616 60.0816 38.7184 59.5006C39.2752 58.9115 39.9854 58.617 40.8488 58.617C41.8333 58.617 42.5394 58.9559 42.9671 59.6337ZM40.9456 64.0518C41.5509 64.0518 42.0391 63.842 42.4103 63.4224C42.7895 63.0028 42.9792 62.4621 42.9792 61.8004C42.9792 61.1226 42.7895 60.5698 42.4103 60.1421C42.0391 59.7144 41.5509 59.5006 40.9456 59.5006C40.3324 59.5006 39.8361 59.7144 39.4568 60.1421C39.0856 60.5617 38.9 61.1064 38.9 61.7762C38.9 62.446 39.0856 62.9947 39.4568 63.4224C39.8361 63.842 40.3324 64.0518 40.9456 64.0518ZM48.1562 64.9354C47.2363 64.9354 46.4939 64.6449 45.929 64.0639C45.3722 63.4829 45.0938 62.7203 45.0938 61.7762C45.0938 60.8401 45.3642 60.0816 45.9048 59.5006C46.4455 58.9115 47.1516 58.617 48.0231 58.617C48.9027 58.617 49.6047 58.8792 50.1293 59.4037C50.6538 59.9202 50.9281 60.6343 50.9523 61.5462C50.9523 61.635 50.9443 61.7762 50.9281 61.9699L46.1348 61.9699L46.1348 62.0546C46.151 62.6517 46.3325 63.1359 46.6795 63.5071C47.0346 63.8702 47.5026 64.0518 48.0836 64.0518C48.5274 64.0518 48.9027 63.9429 49.2093 63.725C49.524 63.499 49.7338 63.1884 49.8387 62.793L50.8434 62.793C50.7224 63.4224 50.4198 63.9388 49.9356 64.3423C49.4514 64.7377 48.8583 64.9354 48.1562 64.9354ZM46.1953 61.1468L49.8872 61.1468C49.8387 60.6222 49.6491 60.2147 49.3183 59.9242C48.9874 59.6337 48.5597 59.4885 48.0352 59.4885C47.5672 59.4885 47.1556 59.6418 46.8006 59.9484C46.4455 60.2551 46.2438 60.6545 46.1953 61.1468ZM55.1958 58.617C56.0673 58.617 56.7774 58.8994 57.3261 59.4643C57.8829 60.0211 58.1613 60.7917 58.1613 61.7762C58.1613 62.7123 57.8829 63.4748 57.3261 64.0639C56.7693 64.6449 56.0592 64.9354 55.1958 64.9354C54.2113 64.9354 53.5052 64.5965 53.0775 63.9187L52.9444 64.8628L52.085 64.8628L52.085 56.3898L53.0775 56.3898L53.0775 59.6821C53.594 58.972 54.3001 58.617 55.1958 58.617ZM55.0989 64.0518C55.7122 64.0518 56.2045 63.842 56.5757 63.4224C56.9549 62.9947 57.1446 62.446 57.1446 61.7762C57.1446 61.1064 56.9549 60.5617 56.5757 60.1421C56.2045 59.7144 55.7122 59.5006 55.0989 59.5006C54.4937 59.5006 54.0015 59.7104 53.6222 60.13C53.251 60.5496 53.0654 61.0903 53.0654 61.752C53.0654 62.4298 53.251 62.9826 53.6222 63.4103C54.0015 63.838 54.4937 64.0518 55.0989 64.0518Z"/><path fill="#FD366E" d="M28.1796 293.325V296.067H21.4352C19.4703 296.067 17.7547 294.964 16.8368 293.325C16.7033 293.087 16.5865 292.837 16.4886 292.577C16.2962 292.069 16.1753 291.523 16.1387 290.954V290.212C16.1466 290.086 16.1592 289.96 16.1756 289.835C16.2091 289.58 16.2598 289.33 16.3264 289.088C16.9564 286.786 19.0051 285.1 21.4352 285.1C23.8654 285.1 25.9138 286.786 26.5438 289.088H23.66C23.1866 288.337 22.3671 287.841 21.4352 287.841C20.5033 287.841 19.6839 288.337 19.2104 289.088C19.0661 289.316 18.9542 289.567 18.8808 289.835C18.8157 290.073 18.7809 290.324 18.7809 290.583C18.7809 291.369 19.1009 292.077 19.6139 292.577C20.0893 293.041 20.7301 293.325 21.4352 293.325H28.1796Z"/><path fill="#FD366E" d="M28.1808 289.835V292.577H23.2578C23.7708 292.077 24.0908 291.369 24.0908 290.583C24.0908 290.323 24.056 290.073 23.9909 289.835H28.1808Z"/><g clip-path="url(#clip2_2060_26178)"><path fill="#FD366E" d="M54.6582 297.124V295.722H62.0927V297.124H54.6582Z"/><path fill="#fff" d="M52.5643 295.327C51.1729 295.327 50.2589 294.7 50.2589 293.189V289.608H49.0176V288.192H50.3544V286.19H51.8822V288.192H53.9011V289.608H51.8822V293.175C51.8822 293.679 52.0869 293.897 52.5779 293.897H53.8193V295.327H52.5643Z"/><path fill="#fff" d="M47.1106 287.089C46.524 287.089 46.0875 286.654 46.0875 286.082C46.0875 285.524 46.524 285.088 47.1106 285.088C47.6971 285.088 48.1337 285.524 48.1337 286.082C48.1337 286.654 47.6971 287.089 47.1106 287.089ZM46.2921 295.327V289.608H45.0371V288.192H47.9018V295.327H46.2921Z"/><path fill="#fff" d="M37.8672 295.326V288.192H39.4769V289.009H39.5996C39.9134 288.464 40.5682 288.015 41.523 288.015C43.0918 288.015 44.0876 289.186 44.0876 290.656V295.326H42.4779V291.037C42.4779 290.152 41.8504 289.54 41.032 289.54C40.1453 289.54 39.4769 290.22 39.4769 291.119V295.326H37.8672Z"/><path fill="#fff" d="M35.4133 287.089C34.8267 287.089 34.3902 286.654 34.3902 286.082C34.3902 285.524 34.8267 285.088 35.4133 285.088C35.9999 285.088 36.4364 285.524 36.4364 286.082C36.4364 286.654 35.9999 287.089 35.4133 287.089ZM34.5948 295.327V289.608H33.3398V288.192H36.2045V295.327H34.5948Z"/></g><path fill="#E4E4E7" d="M17.3178 308.193L16.7035 308.193L16.7035 303.25L19.7397 303.25L19.7397 303.815L17.3178 303.815L17.3178 305.467L19.3655 305.467L19.3655 306.032L17.3178 306.032L17.3178 308.193ZM23.6517 308.193L20.5167 308.193L20.5167 303.25L23.5599 303.25L23.5599 303.815L21.131 303.815L21.131 305.397L23.1716 305.397L23.1716 305.962L21.131 305.962L21.131 307.628L23.6517 307.628L23.6517 308.193ZM26.1756 308.193L24.5022 308.193L24.5022 303.25L26.1262 303.25C27.1924 303.25 27.7502 303.759 27.7502 304.557C27.7502 305.114 27.4325 305.467 26.9523 305.63C27.489 305.729 27.962 306.068 27.962 306.781C27.962 307.656 27.3689 308.193 26.1756 308.193ZM25.1165 303.808L25.1165 305.397L26.1545 305.397C26.8041 305.397 27.1359 305.1 27.1359 304.599C27.1359 304.105 26.8111 303.808 26.1545 303.808L25.1165 303.808ZM25.1165 305.948L25.1165 307.635L26.1756 307.635C26.9594 307.635 27.3336 307.317 27.3336 306.809C27.3336 306.251 26.9241 305.948 26.1756 305.948L25.1165 305.948ZM34.4208 308.193L31.1093 308.193L31.1093 307.692L32.9733 306.025C33.4252 305.623 33.7783 305.241 33.7783 304.712C33.7783 304.091 33.3687 303.737 32.7474 303.737C32.1401 303.737 31.7306 304.161 31.7306 304.839L31.7306 304.931L31.1375 304.931L31.1375 304.804C31.1375 303.872 31.773 303.208 32.7474 303.208C33.7783 303.208 34.3855 303.794 34.3855 304.684C34.3855 305.418 33.9265 305.891 33.3546 306.392L31.9283 307.649L34.4208 307.649L34.4208 308.193ZM37.03 308.235C36.3592 308.235 35.8649 307.917 35.5754 307.416C35.3424 307.014 35.1941 306.421 35.1941 305.743C35.1941 304.189 35.879 303.208 37.0229 303.208C37.8984 303.208 38.4916 303.745 38.6116 304.571L38.0185 304.571C37.9055 304.069 37.5666 303.73 36.9947 303.73C36.1685 303.73 35.7449 304.585 35.7449 305.559C35.7449 305.707 35.7378 305.679 35.7449 305.799C35.7449 305.785 35.7661 305.715 35.7872 305.665C35.9708 305.248 36.458 304.924 37.0864 304.924C38.0326 304.924 38.6963 305.566 38.6963 306.576C38.6963 307.529 38.0185 308.235 37.03 308.235ZM37.0229 307.713C37.6725 307.713 38.1032 307.24 38.1032 306.576C38.1032 305.919 37.6937 305.446 37.0441 305.446C36.3874 305.446 35.9355 305.912 35.9355 306.59C35.9355 307.254 36.3733 307.713 37.0229 307.713ZM44.3037 306.428L41.9524 306.428L41.9524 305.94L44.3037 305.94L44.3037 306.428ZM48.3044 308.193L47.7465 308.193L47.7465 303.25L48.4668 303.25L49.6812 306.089L50.8816 303.25L51.5806 303.25L51.5806 308.193L51.0228 308.193L51.0228 304.232L49.9142 306.823L49.42 306.823L48.3044 304.232L48.3044 308.193ZM52.9301 308.193L52.3017 308.193L54.0528 303.25L54.8083 303.25L56.5665 308.193L55.9098 308.193L55.4367 306.858L53.4102 306.858L52.9301 308.193ZM54.4129 303.921L53.5868 306.301L55.2531 306.301L54.4129 303.921ZM57.904 308.193L57.2897 308.193L57.2897 303.25L59.055 303.25C60.0576 303.25 60.7284 303.843 60.7284 304.768C60.7284 305.46 60.2977 305.997 59.6481 306.173L60.7778 308.193L60.0859 308.193L59.0197 306.293L57.904 306.293L57.904 308.193ZM57.904 303.815L57.904 305.729L59.0055 305.729C59.6693 305.729 60.1 305.347 60.1 304.768C60.1 304.189 59.6693 303.815 59.0126 303.815L57.904 303.815ZM65.7614 303.25L65.7614 307.642L67.0111 307.642L67.0111 308.193L63.8761 308.193L63.8761 307.642L65.1753 307.642L65.1753 304.726C65.1047 304.775 65.02 304.797 64.9141 304.797L63.8902 304.797L63.8902 304.267L64.8505 304.267C65.0694 304.267 65.1824 304.083 65.1824 303.843L65.1824 303.25L65.7614 303.25Z"/><path fill="#fff" fill-opacity=".5" d="M184.153 308.193L183.673 308.193L183.857 307.007L183.179 307.007L183.179 306.519L183.928 306.519L184.062 305.587L183.334 305.587L183.334 305.1L184.132 305.1L184.316 303.914L184.796 303.914L184.612 305.1L185.58 305.1L185.763 303.914L186.243 303.914L186.06 305.1L186.738 305.1L186.738 305.587L185.989 305.587L185.855 306.519L186.582 306.519L186.582 307.007L185.785 307.007L185.601 308.193L185.121 308.193L185.304 307.007L184.337 307.007L184.153 308.193ZM184.542 305.587L184.408 306.519L185.375 306.519L185.509 305.587L184.542 305.587ZM189.25 303.208C190.33 303.208 191.001 304.105 191.001 305.609L191.001 305.835C191.001 307.339 190.33 308.235 189.25 308.235C188.169 308.235 187.499 307.339 187.499 305.835L187.499 305.609C187.499 304.105 188.169 303.208 189.25 303.208ZM188.085 305.63L188.085 305.813C188.085 306.089 188.106 306.336 188.148 306.548L190.161 304.331C189.963 303.942 189.652 303.737 189.25 303.737C188.515 303.737 188.085 304.429 188.085 305.63ZM190.415 305.813L190.415 305.63C190.415 305.354 190.394 305.107 190.351 304.888L188.339 307.12C188.544 307.494 188.854 307.699 189.25 307.699C189.984 307.699 190.415 307.014 190.415 305.813ZM193.642 303.208C194.722 303.208 195.393 304.105 195.393 305.609L195.393 305.835C195.393 307.339 194.722 308.235 193.642 308.235C192.562 308.235 191.891 307.339 191.891 305.835L191.891 305.609C191.891 304.105 192.562 303.208 193.642 303.208ZM192.477 305.63L192.477 305.813C192.477 306.089 192.498 306.336 192.541 306.548L194.553 304.331C194.355 303.942 194.044 303.737 193.642 303.737C192.908 303.737 192.477 304.429 192.477 305.63ZM194.807 305.813L194.807 305.63C194.807 305.354 194.786 305.107 194.744 304.888L192.731 307.12C192.936 307.494 193.247 307.699 193.642 307.699C194.376 307.699 194.807 307.014 194.807 305.813ZM198.048 303.25L198.048 307.642L199.298 307.642L199.298 308.193L196.163 308.193L196.163 307.642L197.462 307.642L197.462 304.726C197.392 304.775 197.307 304.797 197.201 304.797L196.177 304.797L196.177 304.267L197.138 304.267C197.357 304.267 197.469 304.083 197.469 303.843L197.469 303.25L198.048 303.25ZM202.372 305.623C202.803 305.707 203.234 306.068 203.234 306.823C203.234 307.663 202.591 308.235 201.546 308.235C200.508 308.235 199.866 307.649 199.866 306.668L200.452 306.668C200.459 307.317 200.911 307.706 201.582 307.706C202.196 307.706 202.627 307.346 202.627 306.781C202.627 306.265 202.295 305.94 201.56 305.94L201.13 305.94L201.13 305.411L201.497 305.411C202.196 305.411 202.535 305.051 202.535 304.549C202.535 304.048 202.111 303.737 201.546 303.737C200.974 303.737 200.53 304.112 200.523 304.677L199.936 304.677C199.951 303.773 200.628 303.208 201.539 303.208C202.528 303.208 203.142 303.737 203.142 304.528C203.142 305.136 202.817 305.496 202.372 305.623ZM206.503 305.623C206.934 305.707 207.364 306.068 207.364 306.823C207.364 307.663 206.722 308.235 205.677 308.235C204.639 308.235 203.996 307.649 203.996 306.668L204.582 306.668C204.589 307.317 205.041 307.706 205.712 307.706C206.326 307.706 206.757 307.346 206.757 306.781C206.757 306.265 206.425 305.94 205.691 305.94L205.26 305.94L205.26 305.411L205.627 305.411C206.326 305.411 206.665 305.051 206.665 304.549C206.665 304.048 206.242 303.737 205.677 303.737C205.105 303.737 204.66 304.112 204.653 304.677L204.067 304.677C204.081 303.773 204.759 303.208 205.67 303.208C206.658 303.208 207.272 303.737 207.272 304.528C207.272 305.136 206.948 305.496 206.503 305.623ZM208.961 308.193L208.319 308.193L210.585 303.794L207.916 303.794L207.916 303.25L211.306 303.25L211.306 303.667L208.961 308.193ZM213.77 303.25L213.77 307.642L215.02 307.642L215.02 308.193L211.885 308.193L211.885 307.642L213.184 307.642L213.184 304.726C213.113 304.775 213.029 304.797 212.923 304.797L211.899 304.797L211.899 304.267L212.859 304.267C213.078 304.267 213.191 304.083 213.191 303.843L213.191 303.25L213.77 303.25Z"/><g filter="url(#filter2_b_2060_26178)"><rect width="231.496" height="324.296" x=".252" y=".854" stroke="url(#paint2_linear_2060_26178)" stroke-opacity=".48" stroke-width=".504" rx="7.817"/><rect width="231.496" height="324.296" x=".252" y=".854" stroke="url(#paint3_linear_2060_26178)" stroke-opacity=".64" stroke-width=".504" rx="7.817"/></g><g filter="url(#filter3_f_2060_26178)"><path fill="url(#paint4_linear_2060_26178)" d="M289.46 124.853L35.3991 402.961C27.9605 411.104 28.0895 423.614 35.6944 431.602C44.1055 440.436 58.2488 440.268 66.4479 431.237L319.642 152.338C327.88 143.263 326.319 129.025 316.31 121.951C307.908 116.013 296.399 117.256 289.46 124.853Z"/></g><g filter="url(#filter4_f_2060_26178)"><path fill="url(#paint5_linear_2060_26178)" d="M316.19 -15.3558L62.1296 262.753C54.6909 270.896 54.8199 283.406 62.4249 291.393C70.836 300.228 84.9792 300.06 93.1783 291.028L346.372 12.1298C354.61 3.05496 353.049 -11.1832 343.04 -18.2574C334.638 -24.1957 323.13 -22.9521 316.19 -15.3558Z"/></g><g filter="url(#filter5_f_2060_26178)"><path fill="url(#paint6_linear_2060_26178)" d="M218.851 -38.0516L-35.2102 240.057C-42.6489 248.2 -42.5199 260.71 -34.915 268.697C-26.5039 277.532 -12.3606 277.364 -4.16152 268.332L249.032 -10.566C257.271 -19.6408 255.71 -33.879 245.7 -40.9532C237.298 -46.8915 225.79 -45.6479 218.851 -38.0516Z"/></g><g filter="url(#filter6_f_2060_26178)"><path fill="url(#paint7_linear_2060_26178)" d="M110.921 -51.6693L-143.14 226.439C-150.579 234.582 -150.45 247.092 -142.845 255.08C-134.434 263.914 -120.29 263.746 -112.091 254.715L141.102 -24.1837C149.341 -33.2585 147.78 -47.4967 137.771 -54.5709C129.369 -60.5092 117.86 -59.2655 110.921 -51.6693Z"/></g><mask id="mask0_2060_26178" width="41" height="326" x="191" y="0" maskUnits="userSpaceOnUse" style="mask-type:alpha"><rect width="40.348" height="324.8" x="191.652" y=".602" fill="url(#paint8_linear_2060_26178)"/></mask><g mask="url(#mask0_2060_26178)"><mask id="mask1_2060_26178" width="41" height="326" x="191" y="0" maskUnits="userSpaceOnUse" style="mask-type:alpha"><rect width="40.348" height="324.8" fill="url(#paint9_linear_2060_26178)" transform="matrix(-1 0 0 1 232 0.601562)"/></mask><g mask="url(#mask1_2060_26178)"><rect width="4.035" height="4.035" x="232" y=".602" fill="#FD366E" opacity=".64" rx="1.009" transform="rotate(90 232 0.601562)"/><rect width="4.035" height="4.035" x="232" y="6.654" fill="#FD366E" opacity=".4" rx="1.009" transform="rotate(90 232 6.65381)"/><rect width="4.035" height="4.035" x="232" y="12.706" fill="#FD366E" opacity=".32" rx="1.009" transform="rotate(90 232 12.7061)"/><rect width="4.035" height="4.035" x="232" y="18.758" fill="#FD366E" opacity=".16" rx="1.009" transform="rotate(90 232 18.7583)"/><rect width="4.035" height="4.035" x="232" y="24.81" fill="#FD366E" opacity=".8" rx="1.009" transform="rotate(90 232 24.8101)"/><rect width="4.035" height="4.035" x="232" y="30.862" fill="#FD366E" opacity=".64" rx="1.009" transform="rotate(90 232 30.8623)"/><rect width="4.035" height="4.035" x="232" y="36.915" fill="#FD366E" opacity=".4" rx="1.009" transform="rotate(90 232 36.9146)"/><rect width="4.035" height="4.035" x="232" y="42.967" fill="#FD366E" opacity=".32" rx="1.009" transform="rotate(90 232 42.9668)"/><rect width="4.035" height="4.035" x="232" y="49.019" fill="#FD366E" opacity=".16" rx="1.009" transform="rotate(90 232 49.019)"/><rect width="4.035" height="4.035" x="232" y="55.071" fill="#FD366E" opacity=".4" rx="1.009" transform="rotate(90 232 55.0713)"/><rect width="4.035" height="4.035" x="232" y="61.123" fill="#FD366E" opacity=".32" rx="1.009" transform="rotate(90 232 61.1235)"/><rect width="4.035" height="4.035" x="232" y="67.175" fill="#FD366E" opacity=".8" rx="1.009" transform="rotate(90 232 67.1753)"/><rect width="4.035" height="4.035" x="232" y="73.228" fill="#FD366E" opacity=".16" rx="1.009" transform="rotate(90 232 73.2275)"/><rect width="4.035" height="4.035" x="232" y="79.28" fill="#FD366E" opacity=".4" rx="1.009" transform="rotate(90 232 79.2798)"/><rect width="4.035" height="4.035" x="232" y="85.332" fill="#FD366E" opacity=".32" rx="1.009" transform="rotate(90 232 85.332)"/><rect width="4.035" height="4.035" x="232" y="91.384" fill="#FD366E" opacity=".32" rx="1.009" transform="rotate(90 232 91.3843)"/><rect width="4.035" height="4.035" x="232" y="97.436" fill="#FD366E" opacity=".32" rx="1.009" transform="rotate(90 232 97.4365)"/><rect width="4.035" height="4.035" x="232" y="103.488" fill="#FD366E" opacity=".64" rx="1.009" transform="rotate(90 232 103.488)"/><rect width="4.035" height="4.035" x="232" y="109.541" fill="#FD366E" opacity=".16" rx="1.009" transform="rotate(90 232 109.541)"/><rect width="4.035" height="4.035" x="232" y="115.593" fill="#FD366E" opacity=".64" rx="1.009" transform="rotate(90 232 115.593)"/><rect width="4.035" height="4.035" x="232" y="121.645" fill="#FD366E" opacity=".4" rx="1.009" transform="rotate(90 232 121.645)"/><rect width="4.035" height="4.035" x="232" y="127.697" fill="#FD366E" opacity=".32" rx="1.009" transform="rotate(90 232 127.697)"/><rect width="4.035" height="4.035" x="232" y="133.75" fill="#FD366E" opacity=".16" rx="1.009" transform="rotate(90 232 133.75)"/><rect width="4.035" height="4.035" x="232" y="139.802" fill="#FD366E" opacity=".8" rx="1.009" transform="rotate(90 232 139.802)"/><rect width="4.035" height="4.035" x="232" y="145.854" fill="#FD366E" opacity=".8" rx="1.009" transform="rotate(90 232 145.854)"/><rect width="4.035" height="4.035" x="232" y="151.906" fill="#FD366E" opacity=".64" rx="1.009" transform="rotate(90 232 151.906)"/><rect width="4.035" height="4.035" x="232" y="157.958" fill="#FD366E" opacity=".4" rx="1.009" transform="rotate(90 232 157.958)"/><rect width="4.035" height="4.035" x="232" y="164.01" fill="#FD366E" opacity=".8" rx="1.009" transform="rotate(90 232 164.01)"/><rect width="4.035" height="4.035" x="232" y="170.062" fill="#FD366E" opacity=".4" rx="1.009" transform="rotate(90 232 170.062)"/><rect width="4.035" height="4.035" x="232" y="176.115" fill="#FD366E" opacity=".16" rx="1.009" transform="rotate(90 232 176.115)"/><rect width="4.035" height="4.035" x="232" y="182.167" fill="#FD366E" opacity=".32" rx="1.009" transform="rotate(90 232 182.167)"/><rect width="4.035" height="4.035" x="232" y="188.219" fill="#FD366E" opacity=".16" rx="1.009" transform="rotate(90 232 188.219)"/><rect width="4.035" height="4.035" x="232" y="194.271" fill="#FD366E" opacity=".64" rx="1.009" transform="rotate(90 232 194.271)"/><rect width="4.035" height="4.035" x="232" y="200.323" fill="#FD366E" opacity=".16" rx="1.009" transform="rotate(90 232 200.323)"/><rect width="4.035" height="4.035" x="232" y="206.375" fill="#FD366E" opacity=".64" rx="1.009" transform="rotate(90 232 206.375)"/><rect width="4.035" height="4.035" x="232" y="212.428" fill="#FD366E" opacity=".32" rx="1.009" transform="rotate(90 232 212.428)"/><rect width="4.035" height="4.035" x="232" y="218.48" fill="#FD366E" opacity=".8" rx="1.009" transform="rotate(90 232 218.48)"/><rect width="4.035" height="4.035" x="232" y="224.532" fill="#FD366E" opacity=".4" rx="1.009" transform="rotate(90 232 224.532)"/><rect width="4.035" height="4.035" x="232" y="230.584" fill="#FD366E" opacity=".32" rx="1.009" transform="rotate(90 232 230.584)"/><rect width="4.035" height="4.035" x="232" y="236.636" fill="#FD366E" opacity=".32" rx="1.009" transform="rotate(90 232 236.636)"/><rect width="4.035" height="4.035" x="232" y="242.688" fill="#FD366E" opacity=".64" rx="1.009" transform="rotate(90 232 242.688)"/><rect width="4.035" height="4.035" x="232" y="248.741" fill="#FD366E" opacity=".4" rx="1.009" transform="rotate(90 232 248.741)"/><rect width="4.035" height="4.035" x="232" y="254.793" fill="#FD366E" opacity=".16" rx="1.009" transform="rotate(90 232 254.793)"/><rect width="4.035" height="4.035" x="232" y="260.845" fill="#FD366E" opacity=".8" rx="1.009" transform="rotate(90 232 260.845)"/><rect width="4.035" height="4.035" x="232" y="266.897" fill="#FD366E" opacity=".8" rx="1.009" transform="rotate(90 232 266.897)"/><rect width="4.035" height="4.035" x="232" y="272.949" fill="#FD366E" opacity=".8" rx="1.009" transform="rotate(90 232 272.949)"/><rect width="4.035" height="4.035" x="232" y="279.001" fill="#FD366E" opacity=".64" rx="1.009" transform="rotate(90 232 279.001)"/><rect width="4.035" height="4.035" x="232" y="285.054" fill="#FD366E" opacity=".4" rx="1.009" transform="rotate(90 232 285.054)"/><rect width="4.035" height="4.035" x="232" y="291.106" fill="#FD366E" opacity=".4" rx="1.009" transform="rotate(90 232 291.106)"/><rect width="4.035" height="4.035" x="232" y="297.158" fill="#FD366E" opacity=".32" rx="1.009" transform="rotate(90 232 297.158)"/><rect width="4.035" height="4.035" x="232" y="303.21" fill="#FD366E" opacity=".16" rx="1.009" transform="rotate(90 232 303.21)"/><rect width="4.035" height="4.035" x="232" y="309.262" fill="#FD366E" opacity=".64" rx="1.009" transform="rotate(90 232 309.262)"/><rect width="4.035" height="4.035" x="232" y="315.314" fill="#FD366E" opacity=".32" rx="1.009" transform="rotate(90 232 315.314)"/><rect width="4.035" height="4.035" x="232" y="321.367" fill="#FD366E" opacity=".16" rx="1.009" transform="rotate(90 232 321.367)"/><rect width="4.035" height="4.035" fill="#FD366E" opacity=".64" rx="1.009" transform="matrix(-4.37114e-08 -1 -1 4.37114e-08 225.947 325.401)"/><rect width="4.035" height="4.035" fill="#FD366E" opacity=".4" rx="1.009" transform="matrix(-4.37114e-08 -1 -1 4.37114e-08 225.947 319.349)"/><rect width="4.035" height="4.035" fill="#FD366E" opacity=".32" rx="1.009" transform="matrix(-4.37114e-08 -1 -1 4.37114e-08 225.947 313.297)"/><rect width="4.035" height="4.035" fill="#FD366E" opacity=".16" rx="1.009" transform="matrix(-4.37114e-08 -1 -1 4.37114e-08 225.947 307.245)"/><rect width="4.035" height="4.035" fill="#FD366E" opacity=".8" rx="1.009" transform="matrix(-4.37114e-08 -1 -1 4.37114e-08 225.947 301.193)"/><rect width="4.035" height="4.035" fill="#FD366E" opacity=".64" rx="1.009" transform="matrix(-4.37114e-08 -1 -1 4.37114e-08 225.947 295.141)"/><rect width="4.035" height="4.035" fill="#FD366E" opacity=".4" rx="1.009" transform="matrix(-4.37114e-08 -1 -1 4.37114e-08 225.947 289.088)"/><rect width="4.035" height="4.035" fill="#FD366E" opacity=".32" rx="1.009" transform="matrix(-4.37114e-08 -1 -1 4.37114e-08 225.947 283.036)"/><rect width="4.035" height="4.035" fill="#FD366E" opacity=".16" rx="1.009" transform="matrix(-4.37114e-08 -1 -1 4.37114e-08 225.947 276.984)"/><rect width="4.035" height="4.035" fill="#FD366E" opacity=".4" rx="1.009" transform="matrix(-4.37114e-08 -1 -1 4.37114e-08 225.947 270.932)"/><rect width="4.035" height="4.035" fill="#FD366E" opacity=".32" rx="1.009" transform="matrix(-4.37114e-08 -1 -1 4.37114e-08 225.947 264.879)"/><rect width="4.035" height="4.035" fill="#FD366E" opacity=".8" rx="1.009" transform="matrix(-4.37114e-08 -1 -1 4.37114e-08 225.947 258.828)"/><rect width="4.035" height="4.035" fill="#FD366E" opacity=".16" rx="1.009" transform="matrix(-4.37114e-08 -1 -1 4.37114e-08 225.947 252.775)"/><rect width="4.035" height="4.035" fill="#FD366E" opacity=".4" rx="1.009" transform="matrix(-4.37114e-08 -1 -1 4.37114e-08 225.947 246.723)"/><rect width="4.035" height="4.035" fill="#FD366E" opacity=".32" rx="1.009" transform="matrix(-4.37114e-08 -1 -1 4.37114e-08 225.947 240.671)"/><rect width="4.035" height="4.035" fill="#FD366E" opacity=".32" rx="1.009" transform="matrix(-4.37114e-08 -1 -1 4.37114e-08 225.947 234.619)"/><rect width="4.035" height="4.035" fill="#FD366E" opacity=".32" rx="1.009" transform="matrix(-4.37114e-08 -1 -1 4.37114e-08 225.947 228.566)"/><rect width="4.035" height="4.035" fill="#FD366E" opacity=".64" rx="1.009" transform="matrix(-4.37114e-08 -1 -1 4.37114e-08 225.947 222.515)"/><rect width="4.035" height="4.035" fill="#FD366E" opacity=".16" rx="1.009" transform="matrix(-4.37114e-08 -1 -1 4.37114e-08 225.947 216.462)"/><rect width="4.035" height="4.035" fill="#FD366E" opacity=".64" rx="1.009" transform="matrix(-4.37114e-08 -1 -1 4.37114e-08 225.947 210.41)"/><rect width="4.035" height="4.035" fill="#FD366E" opacity=".4" rx="1.009" transform="matrix(-4.37114e-08 -1 -1 4.37114e-08 225.947 204.358)"/><rect width="4.035" height="4.035" fill="#FD366E" opacity=".32" rx="1.009" transform="matrix(-4.37114e-08 -1 -1 4.37114e-08 225.947 198.306)"/><rect width="4.035" height="4.035" fill="#FD366E" opacity=".16" rx="1.009" transform="matrix(-4.37114e-08 -1 -1 4.37114e-08 225.947 192.253)"/><rect width="4.035" height="4.035" fill="#FD366E" opacity=".8" rx="1.009" transform="matrix(-4.37114e-08 -1 -1 4.37114e-08 225.947 186.201)"/><rect width="4.035" height="4.035" fill="#FD366E" opacity=".8" rx="1.009" transform="matrix(-4.37114e-08 -1 -1 4.37114e-08 225.947 180.149)"/><rect width="4.035" height="4.035" fill="#FD366E" opacity=".64" rx="1.009" transform="matrix(-4.37114e-08 -1 -1 4.37114e-08 225.947 174.097)"/><rect width="4.035" height="4.035" fill="#FD366E" opacity=".4" rx="1.009" transform="matrix(-4.37114e-08 -1 -1 4.37114e-08 225.947 168.045)"/><rect width="4.035" height="4.035" fill="#FD366E" opacity=".8" rx="1.009" transform="matrix(-4.37114e-08 -1 -1 4.37114e-08 225.947 161.993)"/><rect width="4.035" height="4.035" fill="#FD366E" opacity=".4" rx="1.009" transform="matrix(-4.37114e-08 -1 -1 4.37114e-08 225.947 155.94)"/><rect width="4.035" height="4.035" fill="#FD366E" opacity=".16" rx="1.009" transform="matrix(-4.37114e-08 -1 -1 4.37114e-08 225.947 149.888)"/><rect width="4.035" height="4.035" fill="#FD366E" opacity=".32" rx="1.009" transform="matrix(-4.37114e-08 -1 -1 4.37114e-08 225.947 143.836)"/><rect width="4.035" height="4.035" fill="#FD366E" opacity=".16" rx="1.009" transform="matrix(-4.37114e-08 -1 -1 4.37114e-08 225.947 137.784)"/><rect width="4.035" height="4.035" fill="#FD366E" opacity=".64" rx="1.009" transform="matrix(-4.37114e-08 -1 -1 4.37114e-08 225.947 131.732)"/><rect width="4.035" height="4.035" fill="#FD366E" opacity=".16" rx="1.009" transform="matrix(-4.37114e-08 -1 -1 4.37114e-08 225.947 125.68)"/><rect width="4.035" height="4.035" fill="#FD366E" opacity=".64" rx="1.009" transform="matrix(-4.37114e-08 -1 -1 4.37114e-08 225.947 119.627)"/><rect width="4.035" height="4.035" fill="#FD366E" opacity=".32" rx="1.009" transform="matrix(-4.37114e-08 -1 -1 4.37114e-08 225.947 113.575)"/><rect width="4.035" height="4.035" fill="#FD366E" opacity=".8" rx="1.009" transform="matrix(-4.37114e-08 -1 -1 4.37114e-08 225.947 107.523)"/><rect width="4.035" height="4.035" fill="#FD366E" opacity=".4" rx="1.009" transform="matrix(-4.37114e-08 -1 -1 4.37114e-08 225.947 101.471)"/><rect width="4.035" height="4.035" fill="#FD366E" opacity=".32" rx="1.009" transform="matrix(-4.37114e-08 -1 -1 4.37114e-08 225.947 95.4189)"/><rect width="4.035" height="4.035" fill="#FD366E" opacity=".32" rx="1.009" transform="matrix(-4.37114e-08 -1 -1 4.37114e-08 225.947 89.3667)"/><rect width="4.035" height="4.035" fill="#FD366E" opacity=".64" rx="1.009" transform="matrix(-4.37114e-08 -1 -1 4.37114e-08 225.947 83.3145)"/><rect width="4.035" height="4.035" fill="#FD366E" opacity=".4" rx="1.009" transform="matrix(-4.37114e-08 -1 -1 4.37114e-08 225.947 77.2622)"/><rect width="4.035" height="4.035" fill="#FD366E" opacity=".16" rx="1.009" transform="matrix(-4.37114e-08 -1 -1 4.37114e-08 225.947 71.21)"/><rect width="4.035" height="4.035" fill="#FD366E" opacity=".8" rx="1.009" transform="matrix(-4.37114e-08 -1 -1 4.37114e-08 225.947 65.1582)"/><rect width="4.035" height="4.035" fill="#FD366E" opacity=".8" rx="1.009" transform="matrix(-4.37114e-08 -1 -1 4.37114e-08 225.947 59.106)"/><rect width="4.035" height="4.035" fill="#FD366E" opacity=".8" rx="1.009" transform="matrix(-4.37114e-08 -1 -1 4.37114e-08 225.947 53.0537)"/><rect width="4.035" height="4.035" fill="#FD366E" opacity=".64" rx="1.009" transform="matrix(-4.37114e-08 -1 -1 4.37114e-08 225.947 47.0015)"/><rect width="4.035" height="4.035" fill="#FD366E" opacity=".4" rx="1.009" transform="matrix(-4.37114e-08 -1 -1 4.37114e-08 225.947 40.9492)"/><rect width="4.035" height="4.035" fill="#FD366E" opacity=".4" rx="1.009" transform="matrix(-4.37114e-08 -1 -1 4.37114e-08 225.947 34.897)"/><rect width="4.035" height="4.035" fill="#FD366E" opacity=".32" rx="1.009" transform="matrix(-4.37114e-08 -1 -1 4.37114e-08 225.947 28.8447)"/><rect width="4.035" height="4.035" fill="#FD366E" opacity=".16" rx="1.009" transform="matrix(-4.37114e-08 -1 -1 4.37114e-08 225.947 22.793)"/><rect width="4.035" height="4.035" fill="#FD366E" opacity=".64" rx="1.009" transform="matrix(-4.37114e-08 -1 -1 4.37114e-08 225.947 16.7407)"/><rect width="4.035" height="4.035" fill="#FD366E" opacity=".32" rx="1.009" transform="matrix(-4.37114e-08 -1 -1 4.37114e-08 225.947 10.6885)"/><rect width="4.035" height="4.035" fill="#FD366E" opacity=".16" rx="1.009" transform="matrix(-4.37114e-08 -1 -1 4.37114e-08 225.947 4.63623)"/><rect width="4.035" height="4.035" x="219.896" y=".602" fill="#FD366E" opacity=".4" rx="1.009" transform="rotate(90 219.896 0.601562)"/><rect width="4.035" height="4.035" x="219.896" y="6.654" fill="#FD366E" opacity=".32" rx="1.009" transform="rotate(90 219.896 6.65381)"/><rect width="4.035" height="4.035" x="219.896" y="12.706" fill="#FD366E" opacity=".16" rx="1.009" transform="rotate(90 219.896 12.7061)"/><rect width="4.035" height="4.035" x="219.896" y="18.758" fill="#FD366E" opacity=".8" rx="1.009" transform="rotate(90 219.896 18.7583)"/><rect width="4.035" height="4.035" x="219.896" y="24.81" fill="#FD366E" opacity=".8" rx="1.009" transform="rotate(90 219.896 24.8101)"/><rect width="4.035" height="4.035" x="219.896" y="30.862" fill="#FD366E" opacity=".64" rx="1.009" transform="rotate(90 219.896 30.8623)"/><rect width="4.035" height="4.035" x="219.896" y="36.915" fill="#FD366E" opacity=".32" rx="1.009" transform="rotate(90 219.896 36.9146)"/><rect width="4.035" height="4.035" x="219.896" y="42.967" fill="#FD366E" opacity=".32" rx="1.009" transform="rotate(90 219.896 42.9668)"/><rect width="4.035" height="4.035" x="219.896" y="49.019" fill="#FD366E" opacity=".32" rx="1.009" transform="rotate(90 219.896 49.019)"/><rect width="4.035" height="4.035" x="219.896" y="55.071" fill="#FD366E" opacity=".64" rx="1.009" transform="rotate(90 219.896 55.0713)"/><rect width="4.035" height="4.035" x="219.896" y="61.123" fill="#FD366E" opacity=".16" rx="1.009" transform="rotate(90 219.896 61.1235)"/><rect width="4.035" height="4.035" x="219.896" y="67.175" fill="#FD366E" opacity=".64" rx="1.009" transform="rotate(90 219.896 67.1753)"/><rect width="4.035" height="4.035" x="219.896" y="73.228" fill="#FD366E" opacity=".4" rx="1.009" transform="rotate(90 219.896 73.2275)"/><rect width="4.035" height="4.035" x="219.896" y="79.28" fill="#FD366E" opacity=".4" rx="1.009" transform="rotate(90 219.896 79.2798)"/><rect width="4.035" height="4.035" x="219.896" y="85.332" fill="#FD366E" opacity=".8" rx="1.009" transform="rotate(90 219.896 85.332)"/><rect width="4.035" height="4.035" x="219.896" y="91.384" fill="#FD366E" opacity=".4" rx="1.009" transform="rotate(90 219.896 91.3843)"/><rect width="4.035" height="4.035" x="219.896" y="97.436" fill="#FD366E" opacity=".4" rx="1.009" transform="rotate(90 219.896 97.4365)"/><rect width="4.035" height="4.035" x="219.896" y="103.488" fill="#FD366E" opacity=".16" rx="1.009" transform="rotate(90 219.896 103.488)"/><rect width="4.035" height="4.035" x="219.896" y="109.541" fill="#FD366E" opacity=".8" rx="1.009" transform="rotate(90 219.896 109.541)"/><rect width="4.035" height="4.035" x="219.896" y="115.593" fill="#FD366E" opacity=".8" rx="1.009" transform="rotate(90 219.896 115.593)"/><rect width="4.035" height="4.035" x="219.896" y="121.645" fill="#FD366E" opacity=".8" rx="1.009" transform="rotate(90 219.896 121.645)"/><rect width="4.035" height="4.035" x="219.896" y="127.697" fill="#FD366E" opacity=".64" rx="1.009" transform="rotate(90 219.896 127.697)"/><rect width="4.035" height="4.035" x="219.896" y="133.75" fill="#FD366E" opacity=".4" rx="1.009" transform="rotate(90 219.896 133.75)"/><rect width="4.035" height="4.035" x="219.896" y="139.802" fill="#FD366E" opacity=".4" rx="1.009" transform="rotate(90 219.896 139.802)"/><rect width="4.035" height="4.035" x="219.896" y="145.854" fill="#FD366E" opacity=".32" rx="1.009" transform="rotate(90 219.896 145.854)"/><rect width="4.035" height="4.035" x="219.896" y="151.906" fill="#FD366E" opacity=".16" rx="1.009" transform="rotate(90 219.896 151.906)"/><rect width="4.035" height="4.035" x="219.896" y="157.958" fill="#FD366E" opacity=".64" rx="1.009" transform="rotate(90 219.896 157.958)"/><rect width="4.035" height="4.035" x="219.896" y="164.01" fill="#FD366E" opacity=".32" rx="1.009" transform="rotate(90 219.896 164.01)"/><rect width="4.035" height="4.035" x="219.896" y="170.062" fill="#FD366E" opacity=".16" rx="1.009" transform="rotate(90 219.896 170.062)"/><rect width="4.035" height="4.035" x="219.896" y="176.115" fill="#FD366E" opacity=".16" rx="1.009" transform="rotate(90 219.896 176.115)"/><rect width="4.035" height="4.035" x="219.896" y="182.167" fill="#FD366E" opacity=".64" rx="1.009" transform="rotate(90 219.896 182.167)"/><rect width="4.035" height="4.035" x="219.896" y="188.219" fill="#FD366E" opacity=".4" rx="1.009" transform="rotate(90 219.896 188.219)"/><rect width="4.035" height="4.035" x="219.896" y="194.271" fill="#FD366E" opacity=".32" rx="1.009" transform="rotate(90 219.896 194.271)"/><rect width="4.035" height="4.035" x="219.896" y="200.323" fill="#FD366E" opacity=".16" rx="1.009" transform="rotate(90 219.896 200.323)"/><rect width="4.035" height="4.035" x="219.896" y="206.375" fill="#FD366E" opacity=".32" rx="1.009" transform="rotate(90 219.896 206.375)"/><rect width="4.035" height="4.035" x="219.896" y="212.428" fill="#FD366E" opacity=".32" rx="1.009" transform="rotate(90 219.896 212.428)"/><rect width="4.035" height="4.035" x="219.896" y="218.479" fill="#FD366E" opacity=".64" rx="1.009" transform="rotate(90 219.896 218.479)"/><rect width="4.035" height="4.035" x="219.896" y="224.532" fill="#FD366E" opacity=".4" rx="1.009" transform="rotate(90 219.896 224.532)"/><rect width="4.035" height="4.035" x="219.896" y="230.584" fill="#FD366E" opacity=".8" rx="1.009" transform="rotate(90 219.896 230.584)"/><rect width="4.035" height="4.035" x="219.896" y="236.636" fill="#FD366E" opacity=".64" rx="1.009" transform="rotate(90 219.896 236.636)"/><rect width="4.035" height="4.035" x="219.896" y="242.688" fill="#FD366E" opacity=".4" rx="1.009" transform="rotate(90 219.896 242.688)"/><rect width="4.035" height="4.035" x="219.896" y="248.741" fill="#FD366E" opacity=".32" rx="1.009" transform="rotate(90 219.896 248.741)"/><rect width="4.035" height="4.035" x="219.896" y="254.793" fill="#FD366E" opacity=".16" rx="1.009" transform="rotate(90 219.896 254.793)"/><rect width="4.035" height="4.035" x="219.896" y="260.845" fill="#FD366E" opacity=".4" rx="1.009" transform="rotate(90 219.896 260.845)"/><rect width="4.035" height="4.035" x="219.896" y="266.897" fill="#FD366E" opacity=".32" rx="1.009" transform="rotate(90 219.896 266.897)"/><rect width="4.035" height="4.035" x="219.896" y="272.949" fill="#FD366E" opacity=".8" rx="1.009" transform="rotate(90 219.896 272.949)"/><rect width="4.035" height="4.035" x="219.896" y="279.001" fill="#FD366E" opacity=".16" rx="1.009" transform="rotate(90 219.896 279.001)"/><rect width="4.035" height="4.035" x="219.896" y="285.054" fill="#FD366E" opacity=".32" rx="1.009" transform="rotate(90 219.896 285.054)"/><rect width="4.035" height="4.035" x="219.896" y="291.106" fill="#FD366E" opacity=".16" rx="1.009" transform="rotate(90 219.896 291.106)"/><rect width="4.035" height="4.035" x="219.896" y="297.158" fill="#FD366E" opacity=".64" rx="1.009" transform="rotate(90 219.896 297.158)"/><rect width="4.035" height="4.035" x="219.896" y="303.21" fill="#FD366E" opacity=".16" rx="1.009" transform="rotate(90 219.896 303.21)"/><rect width="4.035" height="4.035" x="219.896" y="309.262" fill="#FD366E" opacity=".64" rx="1.009" transform="rotate(90 219.896 309.262)"/><rect width="4.035" height="4.035" x="219.896" y="315.314" fill="#FD366E" opacity=".32" rx="1.009" transform="rotate(90 219.896 315.314)"/><rect width="4.035" height="4.035" x="219.896" y="321.367" fill="#FD366E" opacity=".8" rx="1.009" transform="rotate(90 219.896 321.367)"/><rect width="4.035" height="4.035" x="213.844" y=".602" fill="#FD366E" opacity=".64" rx="1.009" transform="rotate(90 213.844 0.601562)"/><rect width="4.035" height="4.035" x="213.844" y="6.654" fill="#FD366E" opacity=".4" rx="1.009" transform="rotate(90 213.844 6.65381)"/><rect width="4.035" height="4.035" x="213.844" y="12.706" fill="#FD366E" opacity=".32" rx="1.009" transform="rotate(90 213.844 12.7061)"/><rect width="4.035" height="4.035" x="213.844" y="18.758" fill="#FD366E" opacity=".16" rx="1.009" transform="rotate(90 213.844 18.7583)"/><rect width="4.035" height="4.035" x="213.844" y="24.81" fill="#FD366E" opacity=".8" rx="1.009" transform="rotate(90 213.844 24.8101)"/><rect width="4.035" height="4.035" x="213.844" y="30.862" fill="#FD366E" opacity=".64" rx="1.009" transform="rotate(90 213.844 30.8623)"/><rect width="4.035" height="4.035" x="213.844" y="36.915" fill="#FD366E" opacity=".4" rx="1.009" transform="rotate(90 213.844 36.9146)"/><rect width="4.035" height="4.035" x="213.844" y="42.967" fill="#FD366E" opacity=".32" rx="1.009" transform="rotate(90 213.844 42.9668)"/><rect width="4.035" height="4.035" x="213.844" y="49.019" fill="#FD366E" opacity=".16" rx="1.009" transform="rotate(90 213.844 49.019)"/><rect width="4.035" height="4.035" x="213.844" y="55.071" fill="#FD366E" opacity=".4" rx="1.009" transform="rotate(90 213.844 55.0713)"/><rect width="4.035" height="4.035" x="213.844" y="61.123" fill="#FD366E" opacity=".32" rx="1.009" transform="rotate(90 213.844 61.1235)"/><rect width="4.035" height="4.035" x="213.844" y="67.175" fill="#FD366E" opacity=".8" rx="1.009" transform="rotate(90 213.844 67.1753)"/><rect width="4.035" height="4.035" x="213.844" y="73.228" fill="#FD366E" opacity=".16" rx="1.009" transform="rotate(90 213.844 73.2275)"/><rect width="4.035" height="4.035" x="213.844" y="79.28" fill="#FD366E" opacity=".4" rx="1.009" transform="rotate(90 213.844 79.2798)"/><rect width="4.035" height="4.035" x="213.844" y="85.332" fill="#FD366E" opacity=".32" rx="1.009" transform="rotate(90 213.844 85.332)"/><rect width="4.035" height="4.035" x="213.844" y="91.384" fill="#FD366E" opacity=".32" rx="1.009" transform="rotate(90 213.844 91.3843)"/><rect width="4.035" height="4.035" x="213.844" y="97.436" fill="#FD366E" opacity=".32" rx="1.009" transform="rotate(90 213.844 97.4365)"/><rect width="4.035" height="4.035" x="213.844" y="103.488" fill="#FD366E" opacity=".64" rx="1.009" transform="rotate(90 213.844 103.488)"/><rect width="4.035" height="4.035" x="213.844" y="109.541" fill="#FD366E" opacity=".16" rx="1.009" transform="rotate(90 213.844 109.541)"/><rect width="4.035" height="4.035" x="213.844" y="115.593" fill="#FD366E" opacity=".64" rx="1.009" transform="rotate(90 213.844 115.593)"/><rect width="4.035" height="4.035" x="213.844" y="121.645" fill="#FD366E" opacity=".4" rx="1.009" transform="rotate(90 213.844 121.645)"/><rect width="4.035" height="4.035" x="213.844" y="127.697" fill="#FD366E" opacity=".32" rx="1.009" transform="rotate(90 213.844 127.697)"/><rect width="4.035" height="4.035" x="213.844" y="133.75" fill="#FD366E" opacity=".16" rx="1.009" transform="rotate(90 213.844 133.75)"/><rect width="4.035" height="4.035" x="213.844" y="139.802" fill="#FD366E" opacity=".8" rx="1.009" transform="rotate(90 213.844 139.802)"/><rect width="4.035" height="4.035" x="213.844" y="145.854" fill="#FD366E" opacity=".8" rx="1.009" transform="rotate(90 213.844 145.854)"/><rect width="4.035" height="4.035" x="213.844" y="151.906" fill="#FD366E" opacity=".64" rx="1.009" transform="rotate(90 213.844 151.906)"/><rect width="4.035" height="4.035" x="213.844" y="157.958" fill="#FD366E" opacity=".4" rx="1.009" transform="rotate(90 213.844 157.958)"/><rect width="4.035" height="4.035" x="213.844" y="164.01" fill="#FD366E" opacity=".8" rx="1.009" transform="rotate(90 213.844 164.01)"/><rect width="4.035" height="4.035" x="213.844" y="170.062" fill="#FD366E" opacity=".4" rx="1.009" transform="rotate(90 213.844 170.062)"/><rect width="4.035" height="4.035" x="213.844" y="176.115" fill="#FD366E" opacity=".16" rx="1.009" transform="rotate(90 213.844 176.115)"/><rect width="4.035" height="4.035" x="213.844" y="182.167" fill="#FD366E" opacity=".32" rx="1.009" transform="rotate(90 213.844 182.167)"/><rect width="4.035" height="4.035" x="213.844" y="188.219" fill="#FD366E" opacity=".16" rx="1.009" transform="rotate(90 213.844 188.219)"/><rect width="4.035" height="4.035" x="213.844" y="194.271" fill="#FD366E" opacity=".64" rx="1.009" transform="rotate(90 213.844 194.271)"/><rect width="4.035" height="4.035" x="213.844" y="200.323" fill="#FD366E" opacity=".16" rx="1.009" transform="rotate(90 213.844 200.323)"/><rect width="4.035" height="4.035" x="213.844" y="206.375" fill="#FD366E" opacity=".64" rx="1.009" transform="rotate(90 213.844 206.375)"/><rect width="4.035" height="4.035" x="213.844" y="212.428" fill="#FD366E" opacity=".32" rx="1.009" transform="rotate(90 213.844 212.428)"/><rect width="4.035" height="4.035" x="213.844" y="218.479" fill="#FD366E" opacity=".8" rx="1.009" transform="rotate(90 213.844 218.479)"/><rect width="4.035" height="4.035" x="213.844" y="224.532" fill="#FD366E" opacity=".4" rx="1.009" transform="rotate(90 213.844 224.532)"/><rect width="4.035" height="4.035" x="213.844" y="230.584" fill="#FD366E" opacity=".32" rx="1.009" transform="rotate(90 213.844 230.584)"/><rect width="4.035" height="4.035" x="213.844" y="236.636" fill="#FD366E" opacity=".32" rx="1.009" transform="rotate(90 213.844 236.636)"/><rect width="4.035" height="4.035" x="213.844" y="242.688" fill="#FD366E" opacity=".64" rx="1.009" transform="rotate(90 213.844 242.688)"/><rect width="4.035" height="4.035" x="213.844" y="248.741" fill="#FD366E" opacity=".4" rx="1.009" transform="rotate(90 213.844 248.741)"/><rect width="4.035" height="4.035" x="213.844" y="254.793" fill="#FD366E" opacity=".16" rx="1.009" transform="rotate(90 213.844 254.793)"/><rect width="4.035" height="4.035" x="213.844" y="260.845" fill="#FD366E" opacity=".8" rx="1.009" transform="rotate(90 213.844 260.845)"/><rect width="4.035" height="4.035" x="213.844" y="266.897" fill="#FD366E" opacity=".8" rx="1.009" transform="rotate(90 213.844 266.897)"/><rect width="4.035" height="4.035" x="213.844" y="272.949" fill="#FD366E" opacity=".8" rx="1.009" transform="rotate(90 213.844 272.949)"/><rect width="4.035" height="4.035" x="213.844" y="279.001" fill="#FD366E" opacity=".64" rx="1.009" transform="rotate(90 213.844 279.001)"/><rect width="4.035" height="4.035" x="213.844" y="285.054" fill="#FD366E" opacity=".4" rx="1.009" transform="rotate(90 213.844 285.054)"/><rect width="4.035" height="4.035" x="213.844" y="291.106" fill="#FD366E" opacity=".4" rx="1.009" transform="rotate(90 213.844 291.106)"/><rect width="4.035" height="4.035" x="213.844" y="297.158" fill="#FD366E" opacity=".32" rx="1.009" transform="rotate(90 213.844 297.158)"/><rect width="4.035" height="4.035" x="213.844" y="303.21" fill="#FD366E" opacity=".16" rx="1.009" transform="rotate(90 213.844 303.21)"/><rect width="4.035" height="4.035" x="213.844" y="309.262" fill="#FD366E" opacity=".64" rx="1.009" transform="rotate(90 213.844 309.262)"/><rect width="4.035" height="4.035" x="213.844" y="315.314" fill="#FD366E" opacity=".32" rx="1.009" transform="rotate(90 213.844 315.314)"/><rect width="4.035" height="4.035" x="213.844" y="321.367" fill="#FD366E" opacity=".16" rx="1.009" transform="rotate(90 213.844 321.367)"/><rect width="4.035" height="4.035" fill="#FD366E" opacity=".64" rx="1.009" transform="matrix(-4.37114e-08 -1 -1 4.37114e-08 207.791 325.401)"/><rect width="4.035" height="4.035" fill="#FD366E" opacity=".4" rx="1.009" transform="matrix(-4.37114e-08 -1 -1 4.37114e-08 207.791 319.349)"/><rect width="4.035" height="4.035" fill="#FD366E" opacity=".32" rx="1.009" transform="matrix(-4.37114e-08 -1 -1 4.37114e-08 207.791 313.297)"/><rect width="4.035" height="4.035" fill="#FD366E" opacity=".16" rx="1.009" transform="matrix(-4.37114e-08 -1 -1 4.37114e-08 207.791 307.245)"/><rect width="4.035" height="4.035" fill="#FD366E" opacity=".8" rx="1.009" transform="matrix(-4.37114e-08 -1 -1 4.37114e-08 207.791 301.193)"/><rect width="4.035" height="4.035" fill="#FD366E" opacity=".64" rx="1.009" transform="matrix(-4.37114e-08 -1 -1 4.37114e-08 207.791 295.141)"/><rect width="4.035" height="4.035" fill="#FD366E" opacity=".4" rx="1.009" transform="matrix(-4.37114e-08 -1 -1 4.37114e-08 207.791 289.088)"/><rect width="4.035" height="4.035" fill="#FD366E" opacity=".32" rx="1.009" transform="matrix(-4.37114e-08 -1 -1 4.37114e-08 207.791 283.036)"/><rect width="4.035" height="4.035" fill="#FD366E" opacity=".16" rx="1.009" transform="matrix(-4.37114e-08 -1 -1 4.37114e-08 207.791 276.984)"/><rect width="4.035" height="4.035" fill="#FD366E" opacity=".4" rx="1.009" transform="matrix(-4.37114e-08 -1 -1 4.37114e-08 207.791 270.932)"/><rect width="4.035" height="4.035" fill="#FD366E" opacity=".32" rx="1.009" transform="matrix(-4.37114e-08 -1 -1 4.37114e-08 207.791 264.879)"/><rect width="4.035" height="4.035" fill="#FD366E" opacity=".8" rx="1.009" transform="matrix(-4.37114e-08 -1 -1 4.37114e-08 207.791 258.828)"/><rect width="4.035" height="4.035" fill="#FD366E" opacity=".16" rx="1.009" transform="matrix(-4.37114e-08 -1 -1 4.37114e-08 207.791 252.775)"/><rect width="4.035" height="4.035" fill="#FD366E" opacity=".4" rx="1.009" transform="matrix(-4.37114e-08 -1 -1 4.37114e-08 207.791 246.723)"/><rect width="4.035" height="4.035" fill="#FD366E" opacity=".32" rx="1.009" transform="matrix(-4.37114e-08 -1 -1 4.37114e-08 207.791 240.671)"/><rect width="4.035" height="4.035" fill="#FD366E" opacity=".32" rx="1.009" transform="matrix(-4.37114e-08 -1 -1 4.37114e-08 207.791 234.619)"/><rect width="4.035" height="4.035" fill="#FD366E" opacity=".32" rx="1.009" transform="matrix(-4.37114e-08 -1 -1 4.37114e-08 207.791 228.566)"/><rect width="4.035" height="4.035" fill="#FD366E" opacity=".64" rx="1.009" transform="matrix(-4.37114e-08 -1 -1 4.37114e-08 207.791 222.515)"/><rect width="4.035" height="4.035" fill="#FD366E" opacity=".16" rx="1.009" transform="matrix(-4.37114e-08 -1 -1 4.37114e-08 207.791 216.462)"/><rect width="4.035" height="4.035" fill="#FD366E" opacity=".64" rx="1.009" transform="matrix(-4.37114e-08 -1 -1 4.37114e-08 207.791 210.41)"/><rect width="4.035" height="4.035" fill="#FD366E" opacity=".4" rx="1.009" transform="matrix(-4.37114e-08 -1 -1 4.37114e-08 207.791 204.358)"/><rect width="4.035" height="4.035" fill="#FD366E" opacity=".32" rx="1.009" transform="matrix(-4.37114e-08 -1 -1 4.37114e-08 207.791 198.306)"/><rect width="4.035" height="4.035" fill="#FD366E" opacity=".16" rx="1.009" transform="matrix(-4.37114e-08 -1 -1 4.37114e-08 207.791 192.253)"/><rect width="4.035" height="4.035" fill="#FD366E" opacity=".8" rx="1.009" transform="matrix(-4.37114e-08 -1 -1 4.37114e-08 207.791 186.201)"/><rect width="4.035" height="4.035" fill="#FD366E" opacity=".8" rx="1.009" transform="matrix(-4.37114e-08 -1 -1 4.37114e-08 207.791 180.149)"/><rect width="4.035" height="4.035" fill="#FD366E" opacity=".64" rx="1.009" transform="matrix(-4.37114e-08 -1 -1 4.37114e-08 207.791 174.097)"/><rect width="4.035" height="4.035" fill="#FD366E" opacity=".4" rx="1.009" transform="matrix(-4.37114e-08 -1 -1 4.37114e-08 207.791 168.045)"/><rect width="4.035" height="4.035" fill="#FD366E" opacity=".8" rx="1.009" transform="matrix(-4.37114e-08 -1 -1 4.37114e-08 207.791 161.993)"/><rect width="4.035" height="4.035" fill="#FD366E" opacity=".4" rx="1.009" transform="matrix(-4.37114e-08 -1 -1 4.37114e-08 207.791 155.94)"/><rect width="4.035" height="4.035" fill="#FD366E" opacity=".16" rx="1.009" transform="matrix(-4.37114e-08 -1 -1 4.37114e-08 207.791 149.888)"/><rect width="4.035" height="4.035" fill="#FD366E" opacity=".32" rx="1.009" transform="matrix(-4.37114e-08 -1 -1 4.37114e-08 207.791 143.836)"/><rect width="4.035" height="4.035" fill="#FD366E" opacity=".16" rx="1.009" transform="matrix(-4.37114e-08 -1 -1 4.37114e-08 207.791 137.784)"/><rect width="4.035" height="4.035" fill="#FD366E" opacity=".64" rx="1.009" transform="matrix(-4.37114e-08 -1 -1 4.37114e-08 207.791 131.732)"/><rect width="4.035" height="4.035" fill="#FD366E" opacity=".16" rx="1.009" transform="matrix(-4.37114e-08 -1 -1 4.37114e-08 207.791 125.68)"/><rect width="4.035" height="4.035" fill="#FD366E" opacity=".64" rx="1.009" transform="matrix(-4.37114e-08 -1 -1 4.37114e-08 207.791 119.627)"/><rect width="4.035" height="4.035" fill="#FD366E" opacity=".32" rx="1.009" transform="matrix(-4.37114e-08 -1 -1 4.37114e-08 207.791 113.575)"/><rect width="4.035" height="4.035" fill="#FD366E" opacity=".8" rx="1.009" transform="matrix(-4.37114e-08 -1 -1 4.37114e-08 207.791 107.523)"/><rect width="4.035" height="4.035" fill="#FD366E" opacity=".4" rx="1.009" transform="matrix(-4.37114e-08 -1 -1 4.37114e-08 207.791 101.471)"/><rect width="4.035" height="4.035" fill="#FD366E" opacity=".32" rx="1.009" transform="matrix(-4.37114e-08 -1 -1 4.37114e-08 207.791 95.4189)"/><rect width="4.035" height="4.035" fill="#FD366E" opacity=".32" rx="1.009" transform="matrix(-4.37114e-08 -1 -1 4.37114e-08 207.791 89.3667)"/><rect width="4.035" height="4.035" fill="#FD366E" opacity=".64" rx="1.009" transform="matrix(-4.37114e-08 -1 -1 4.37114e-08 207.791 83.3145)"/><rect width="4.035" height="4.035" fill="#FD366E" opacity=".4" rx="1.009" transform="matrix(-4.37114e-08 -1 -1 4.37114e-08 207.791 77.2622)"/><rect width="4.035" height="4.035" fill="#FD366E" opacity=".16" rx="1.009" transform="matrix(-4.37114e-08 -1 -1 4.37114e-08 207.791 71.21)"/><rect width="4.035" height="4.035" fill="#FD366E" opacity=".8" rx="1.009" transform="matrix(-4.37114e-08 -1 -1 4.37114e-08 207.791 65.1582)"/><rect width="4.035" height="4.035" fill="#FD366E" opacity=".8" rx="1.009" transform="matrix(-4.37114e-08 -1 -1 4.37114e-08 207.791 59.106)"/><rect width="4.035" height="4.035" fill="#FD366E" opacity=".8" rx="1.009" transform="matrix(-4.37114e-08 -1 -1 4.37114e-08 207.791 53.0537)"/><rect width="4.035" height="4.035" fill="#FD366E" opacity=".64" rx="1.009" transform="matrix(-4.37114e-08 -1 -1 4.37114e-08 207.791 47.0015)"/><rect width="4.035" height="4.035" fill="#FD366E" opacity=".4" rx="1.009" transform="matrix(-4.37114e-08 -1 -1 4.37114e-08 207.791 40.9492)"/><rect width="4.035" height="4.035" fill="#FD366E" opacity=".4" rx="1.009" transform="matrix(-4.37114e-08 -1 -1 4.37114e-08 207.791 34.897)"/><rect width="4.035" height="4.035" fill="#FD366E" opacity=".32" rx="1.009" transform="matrix(-4.37114e-08 -1 -1 4.37114e-08 207.791 28.8447)"/><rect width="4.035" height="4.035" fill="#FD366E" opacity=".16" rx="1.009" transform="matrix(-4.37114e-08 -1 -1 4.37114e-08 207.791 22.793)"/><rect width="4.035" height="4.035" fill="#FD366E" opacity=".64" rx="1.009" transform="matrix(-4.37114e-08 -1 -1 4.37114e-08 207.791 16.7407)"/><rect width="4.035" height="4.035" fill="#FD366E" opacity=".32" rx="1.009" transform="matrix(-4.37114e-08 -1 -1 4.37114e-08 207.791 10.6885)"/><rect width="4.035" height="4.035" fill="#FD366E" opacity=".16" rx="1.009" transform="matrix(-4.37114e-08 -1 -1 4.37114e-08 207.791 4.63623)"/><rect width="4.035" height="4.035" x="201.738" y=".602" fill="#FD366E" opacity=".4" rx="1.009" transform="rotate(90 201.738 0.601562)"/><rect width="4.035" height="4.035" x="201.738" y="6.654" fill="#FD366E" opacity=".32" rx="1.009" transform="rotate(90 201.738 6.65381)"/><rect width="4.035" height="4.035" x="201.738" y="12.706" fill="#FD366E" opacity=".16" rx="1.009" transform="rotate(90 201.738 12.7061)"/><rect width="4.035" height="4.035" x="201.738" y="18.758" fill="#FD366E" opacity=".8" rx="1.009" transform="rotate(90 201.738 18.7583)"/><rect width="4.035" height="4.035" x="201.738" y="24.81" fill="#FD366E" opacity=".8" rx="1.009" transform="rotate(90 201.738 24.8101)"/><rect width="4.035" height="4.035" x="201.738" y="30.862" fill="#FD366E" opacity=".64" rx="1.009" transform="rotate(90 201.738 30.8623)"/><rect width="4.035" height="4.035" x="201.738" y="36.915" fill="#FD366E" opacity=".32" rx="1.009" transform="rotate(90 201.738 36.9146)"/><rect width="4.035" height="4.035" x="201.738" y="42.967" fill="#FD366E" opacity=".32" rx="1.009" transform="rotate(90 201.738 42.9668)"/><rect width="4.035" height="4.035" x="201.738" y="49.019" fill="#FD366E" opacity=".32" rx="1.009" transform="rotate(90 201.738 49.019)"/><rect width="4.035" height="4.035" x="201.738" y="55.071" fill="#FD366E" opacity=".64" rx="1.009" transform="rotate(90 201.738 55.0713)"/><rect width="4.035" height="4.035" x="201.738" y="61.123" fill="#FD366E" opacity=".16" rx="1.009" transform="rotate(90 201.738 61.1235)"/><rect width="4.035" height="4.035" x="201.738" y="67.175" fill="#FD366E" opacity=".64" rx="1.009" transform="rotate(90 201.738 67.1753)"/><rect width="4.035" height="4.035" x="201.738" y="73.228" fill="#FD366E" opacity=".4" rx="1.009" transform="rotate(90 201.738 73.2275)"/><rect width="4.035" height="4.035" x="201.738" y="79.28" fill="#FD366E" opacity=".4" rx="1.009" transform="rotate(90 201.738 79.2798)"/><rect width="4.035" height="4.035" x="201.738" y="85.332" fill="#FD366E" opacity=".8" rx="1.009" transform="rotate(90 201.738 85.332)"/><rect width="4.035" height="4.035" x="201.738" y="91.384" fill="#FD366E" opacity=".4" rx="1.009" transform="rotate(90 201.738 91.3843)"/><rect width="4.035" height="4.035" x="201.738" y="97.436" fill="#FD366E" opacity=".4" rx="1.009" transform="rotate(90 201.738 97.4365)"/><rect width="4.035" height="4.035" x="201.738" y="103.488" fill="#FD366E" opacity=".16" rx="1.009" transform="rotate(90 201.738 103.488)"/><rect width="4.035" height="4.035" x="201.738" y="109.541" fill="#FD366E" opacity=".8" rx="1.009" transform="rotate(90 201.738 109.541)"/><rect width="4.035" height="4.035" x="201.738" y="115.593" fill="#FD366E" opacity=".8" rx="1.009" transform="rotate(90 201.738 115.593)"/><rect width="4.035" height="4.035" x="201.738" y="121.645" fill="#FD366E" opacity=".8" rx="1.009" transform="rotate(90 201.738 121.645)"/><rect width="4.035" height="4.035" x="201.738" y="127.697" fill="#FD366E" opacity=".64" rx="1.009" transform="rotate(90 201.738 127.697)"/><rect width="4.035" height="4.035" x="201.738" y="133.75" fill="#FD366E" opacity=".4" rx="1.009" transform="rotate(90 201.738 133.75)"/><rect width="4.035" height="4.035" x="201.738" y="139.802" fill="#FD366E" opacity=".4" rx="1.009" transform="rotate(90 201.738 139.802)"/><rect width="4.035" height="4.035" x="201.738" y="145.854" fill="#FD366E" opacity=".32" rx="1.009" transform="rotate(90 201.738 145.854)"/><rect width="4.035" height="4.035" x="201.738" y="151.906" fill="#FD366E" opacity=".16" rx="1.009" transform="rotate(90 201.738 151.906)"/><rect width="4.035" height="4.035" x="201.738" y="157.958" fill="#FD366E" opacity=".64" rx="1.009" transform="rotate(90 201.738 157.958)"/><rect width="4.035" height="4.035" x="201.738" y="164.01" fill="#FD366E" opacity=".32" rx="1.009" transform="rotate(90 201.738 164.01)"/><rect width="4.035" height="4.035" x="201.738" y="170.062" fill="#FD366E" opacity=".16" rx="1.009" transform="rotate(90 201.738 170.062)"/><rect width="4.035" height="4.035" x="201.738" y="176.115" fill="#FD366E" opacity=".16" rx="1.009" transform="rotate(90 201.738 176.115)"/><rect width="4.035" height="4.035" x="201.738" y="182.167" fill="#FD366E" opacity=".64" rx="1.009" transform="rotate(90 201.738 182.167)"/><rect width="4.035" height="4.035" x="201.738" y="188.219" fill="#FD366E" opacity=".4" rx="1.009" transform="rotate(90 201.738 188.219)"/><rect width="4.035" height="4.035" x="201.738" y="194.271" fill="#FD366E" opacity=".32" rx="1.009" transform="rotate(90 201.738 194.271)"/><rect width="4.035" height="4.035" x="201.738" y="200.323" fill="#FD366E" opacity=".16" rx="1.009" transform="rotate(90 201.738 200.323)"/><rect width="4.035" height="4.035" x="201.738" y="206.375" fill="#FD366E" opacity=".32" rx="1.009" transform="rotate(90 201.738 206.375)"/><rect width="4.035" height="4.035" x="201.738" y="212.428" fill="#FD366E" opacity=".32" rx="1.009" transform="rotate(90 201.738 212.428)"/><rect width="4.035" height="4.035" x="201.738" y="218.479" fill="#FD366E" opacity=".64" rx="1.009" transform="rotate(90 201.738 218.479)"/><rect width="4.035" height="4.035" x="201.738" y="224.532" fill="#FD366E" opacity=".4" rx="1.009" transform="rotate(90 201.738 224.532)"/><rect width="4.035" height="4.035" x="201.738" y="230.584" fill="#FD366E" opacity=".8" rx="1.009" transform="rotate(90 201.738 230.584)"/><rect width="4.035" height="4.035" x="201.738" y="236.636" fill="#FD366E" opacity=".64" rx="1.009" transform="rotate(90 201.738 236.636)"/><rect width="4.035" height="4.035" x="201.738" y="242.688" fill="#FD366E" opacity=".4" rx="1.009" transform="rotate(90 201.738 242.688)"/><rect width="4.035" height="4.035" x="201.738" y="248.741" fill="#FD366E" opacity=".32" rx="1.009" transform="rotate(90 201.738 248.741)"/><rect width="4.035" height="4.035" x="201.738" y="254.793" fill="#FD366E" opacity=".16" rx="1.009" transform="rotate(90 201.738 254.793)"/><rect width="4.035" height="4.035" x="201.738" y="260.845" fill="#FD366E" opacity=".4" rx="1.009" transform="rotate(90 201.738 260.845)"/><rect width="4.035" height="4.035" x="201.738" y="266.897" fill="#FD366E" opacity=".32" rx="1.009" transform="rotate(90 201.738 266.897)"/><rect width="4.035" height="4.035" x="201.738" y="272.949" fill="#FD366E" opacity=".8" rx="1.009" transform="rotate(90 201.738 272.949)"/><rect width="4.035" height="4.035" x="201.738" y="279.001" fill="#FD366E" opacity=".16" rx="1.009" transform="rotate(90 201.738 279.001)"/><rect width="4.035" height="4.035" x="201.738" y="285.054" fill="#FD366E" opacity=".32" rx="1.009" transform="rotate(90 201.738 285.054)"/><rect width="4.035" height="4.035" x="201.738" y="291.106" fill="#FD366E" opacity=".16" rx="1.009" transform="rotate(90 201.738 291.106)"/><rect width="4.035" height="4.035" x="201.738" y="297.158" fill="#FD366E" opacity=".64" rx="1.009" transform="rotate(90 201.738 297.158)"/><rect width="4.035" height="4.035" x="201.738" y="303.21" fill="#FD366E" opacity=".16" rx="1.009" transform="rotate(90 201.738 303.21)"/><rect width="4.035" height="4.035" x="201.738" y="309.262" fill="#FD366E" opacity=".64" rx="1.009" transform="rotate(90 201.738 309.262)"/><rect width="4.035" height="4.035" x="201.738" y="315.314" fill="#FD366E" opacity=".32" rx="1.009" transform="rotate(90 201.738 315.314)"/><rect width="4.035" height="4.035" x="201.738" y="321.367" fill="#FD366E" opacity=".8" rx="1.009" transform="rotate(90 201.738 321.367)"/><rect width="4.035" height="4.035" x="195.688" y=".602" fill="#FD366E" opacity=".64" rx="1.009" transform="rotate(90 195.688 0.601562)"/><rect width="4.035" height="4.035" x="195.688" y="6.654" fill="#FD366E" opacity=".4" rx="1.009" transform="rotate(90 195.688 6.65381)"/><rect width="4.035" height="4.035" x="195.688" y="12.706" fill="#FD366E" opacity=".32" rx="1.009" transform="rotate(90 195.688 12.7061)"/><rect width="4.035" height="4.035" x="195.688" y="18.758" fill="#FD366E" opacity=".16" rx="1.009" transform="rotate(90 195.688 18.7583)"/><rect width="4.035" height="4.035" x="195.688" y="24.81" fill="#FD366E" opacity=".8" rx="1.009" transform="rotate(90 195.688 24.8101)"/><rect width="4.035" height="4.035" x="195.688" y="30.862" fill="#FD366E" opacity=".64" rx="1.009" transform="rotate(90 195.688 30.8623)"/><rect width="4.035" height="4.035" x="195.688" y="36.915" fill="#FD366E" opacity=".4" rx="1.009" transform="rotate(90 195.688 36.9146)"/><rect width="4.035" height="4.035" x="195.688" y="42.967" fill="#FD366E" opacity=".32" rx="1.009" transform="rotate(90 195.688 42.9668)"/><rect width="4.035" height="4.035" x="195.688" y="49.019" fill="#FD366E" opacity=".16" rx="1.009" transform="rotate(90 195.688 49.019)"/><rect width="4.035" height="4.035" x="195.688" y="55.071" fill="#FD366E" opacity=".4" rx="1.009" transform="rotate(90 195.688 55.0713)"/><rect width="4.035" height="4.035" x="195.688" y="61.123" fill="#FD366E" opacity=".32" rx="1.009" transform="rotate(90 195.688 61.1235)"/><rect width="4.035" height="4.035" x="195.688" y="67.175" fill="#FD366E" opacity=".8" rx="1.009" transform="rotate(90 195.688 67.1753)"/><rect width="4.035" height="4.035" x="195.688" y="73.228" fill="#FD366E" opacity=".16" rx="1.009" transform="rotate(90 195.688 73.2275)"/><rect width="4.035" height="4.035" x="195.688" y="79.28" fill="#FD366E" opacity=".4" rx="1.009" transform="rotate(90 195.688 79.2798)"/><rect width="4.035" height="4.035" x="195.688" y="85.332" fill="#FD366E" opacity=".32" rx="1.009" transform="rotate(90 195.688 85.332)"/><rect width="4.035" height="4.035" x="195.688" y="91.384" fill="#FD366E" opacity=".32" rx="1.009" transform="rotate(90 195.688 91.3843)"/><rect width="4.035" height="4.035" x="195.688" y="97.436" fill="#FD366E" opacity=".32" rx="1.009" transform="rotate(90 195.688 97.4365)"/><rect width="4.035" height="4.035" x="195.688" y="103.488" fill="#FD366E" opacity=".64" rx="1.009" transform="rotate(90 195.688 103.488)"/><rect width="4.035" height="4.035" x="195.688" y="109.541" fill="#FD366E" opacity=".16" rx="1.009" transform="rotate(90 195.688 109.541)"/><rect width="4.035" height="4.035" x="195.688" y="115.593" fill="#FD366E" opacity=".64" rx="1.009" transform="rotate(90 195.688 115.593)"/><rect width="4.035" height="4.035" x="195.688" y="121.645" fill="#FD366E" opacity=".4" rx="1.009" transform="rotate(90 195.688 121.645)"/><rect width="4.035" height="4.035" x="195.688" y="127.697" fill="#FD366E" opacity=".32" rx="1.009" transform="rotate(90 195.688 127.697)"/><rect width="4.035" height="4.035" x="195.688" y="133.75" fill="#FD366E" opacity=".16" rx="1.009" transform="rotate(90 195.688 133.75)"/><rect width="4.035" height="4.035" x="195.688" y="139.802" fill="#FD366E" opacity=".8" rx="1.009" transform="rotate(90 195.688 139.802)"/><rect width="4.035" height="4.035" x="195.688" y="145.854" fill="#FD366E" opacity=".8" rx="1.009" transform="rotate(90 195.688 145.854)"/><rect width="4.035" height="4.035" x="195.688" y="151.906" fill="#FD366E" opacity=".64" rx="1.009" transform="rotate(90 195.688 151.906)"/><rect width="4.035" height="4.035" x="195.688" y="157.958" fill="#FD366E" opacity=".4" rx="1.009" transform="rotate(90 195.688 157.958)"/><rect width="4.035" height="4.035" x="195.688" y="164.01" fill="#FD366E" opacity=".8" rx="1.009" transform="rotate(90 195.688 164.01)"/><rect width="4.035" height="4.035" x="195.688" y="170.062" fill="#FD366E" opacity=".4" rx="1.009" transform="rotate(90 195.688 170.062)"/><rect width="4.035" height="4.035" x="195.688" y="176.115" fill="#FD366E" opacity=".16" rx="1.009" transform="rotate(90 195.688 176.115)"/><rect width="4.035" height="4.035" x="195.688" y="182.167" fill="#FD366E" opacity=".32" rx="1.009" transform="rotate(90 195.688 182.167)"/><rect width="4.035" height="4.035" x="195.688" y="188.219" fill="#FD366E" opacity=".16" rx="1.009" transform="rotate(90 195.688 188.219)"/><rect width="4.035" height="4.035" x="195.688" y="194.271" fill="#FD366E" opacity=".64" rx="1.009" transform="rotate(90 195.688 194.271)"/><rect width="4.035" height="4.035" x="195.688" y="200.323" fill="#FD366E" opacity=".16" rx="1.009" transform="rotate(90 195.688 200.323)"/><rect width="4.035" height="4.035" x="195.688" y="206.375" fill="#FD366E" opacity=".64" rx="1.009" transform="rotate(90 195.688 206.375)"/><rect width="4.035" height="4.035" x="195.688" y="212.428" fill="#FD366E" opacity=".32" rx="1.009" transform="rotate(90 195.688 212.428)"/><rect width="4.035" height="4.035" x="195.688" y="218.479" fill="#FD366E" opacity=".8" rx="1.009" transform="rotate(90 195.688 218.479)"/><rect width="4.035" height="4.035" x="195.688" y="224.532" fill="#FD366E" opacity=".4" rx="1.009" transform="rotate(90 195.688 224.532)"/><rect width="4.035" height="4.035" x="195.688" y="230.584" fill="#FD366E" opacity=".32" rx="1.009" transform="rotate(90 195.688 230.584)"/><rect width="4.035" height="4.035" x="195.688" y="236.636" fill="#FD366E" opacity=".32" rx="1.009" transform="rotate(90 195.688 236.636)"/><rect width="4.035" height="4.035" x="195.688" y="242.688" fill="#FD366E" opacity=".64" rx="1.009" transform="rotate(90 195.688 242.688)"/><rect width="4.035" height="4.035" x="195.688" y="248.741" fill="#FD366E" opacity=".4" rx="1.009" transform="rotate(90 195.688 248.741)"/><rect width="4.035" height="4.035" x="195.688" y="254.793" fill="#FD366E" opacity=".16" rx="1.009" transform="rotate(90 195.688 254.793)"/><rect width="4.035" height="4.035" x="195.688" y="260.845" fill="#FD366E" opacity=".8" rx="1.009" transform="rotate(90 195.688 260.845)"/><rect width="4.035" height="4.035" x="195.688" y="266.897" fill="#FD366E" opacity=".8" rx="1.009" transform="rotate(90 195.688 266.897)"/><rect width="4.035" height="4.035" x="195.688" y="272.949" fill="#FD366E" opacity=".8" rx="1.009" transform="rotate(90 195.688 272.949)"/><rect width="4.035" height="4.035" x="195.688" y="279.001" fill="#FD366E" opacity=".64" rx="1.009" transform="rotate(90 195.688 279.001)"/><rect width="4.035" height="4.035" x="195.688" y="285.054" fill="#FD366E" opacity=".4" rx="1.009" transform="rotate(90 195.688 285.054)"/><rect width="4.035" height="4.035" x="195.688" y="291.106" fill="#FD366E" opacity=".4" rx="1.009" transform="rotate(90 195.688 291.106)"/><rect width="4.035" height="4.035" x="195.688" y="297.158" fill="#FD366E" opacity=".32" rx="1.009" transform="rotate(90 195.688 297.158)"/><rect width="4.035" height="4.035" x="195.688" y="303.21" fill="#FD366E" opacity=".16" rx="1.009" transform="rotate(90 195.688 303.21)"/><rect width="4.035" height="4.035" x="195.688" y="309.262" fill="#FD366E" opacity=".64" rx="1.009" transform="rotate(90 195.688 309.262)"/><rect width="4.035" height="4.035" x="195.688" y="315.314" fill="#FD366E" opacity=".32" rx="1.009" transform="rotate(90 195.688 315.314)"/><rect width="4.035" height="4.035" x="195.688" y="321.367" fill="#FD366E" opacity=".16" rx="1.009" transform="rotate(90 195.688 321.367)"/></g></g><path fill="#fff" fill-opacity=".08" fill-rule="evenodd" d="M54.4124 197.58C59.7503 191.417 63.3484 182.833 62.3638 174.292C54.6715 174.584 45.3652 179.187 39.8496 185.343C34.8966 190.806 30.573 199.535 31.7353 207.908C40.316 208.542 49.0744 203.75 54.4124 197.58ZM73.6542 251.787C73.8689 273.865 93.9399 281.209 94.162 281.304C93.9991 281.821 90.9562 291.768 83.5897 302.052C77.2153 310.936 70.6039 319.783 60.1871 319.973C49.9554 320.155 46.6609 314.182 34.9558 314.182C23.2583 314.182 19.6009 319.782 9.91707 320.154C-0.13694 320.512 -7.79962 310.543 -14.2185 301.689C-27.3524 283.579 -37.3842 250.511 -23.9097 228.193C-17.2169 217.114 -5.26021 210.088 7.72561 209.913C17.5945 209.73 26.9156 216.252 32.9495 216.252C38.9834 216.252 50.3108 208.411 62.2157 209.564C67.1983 209.761 81.191 211.481 90.1715 224.033C89.4459 224.464 73.4765 233.334 73.6542 251.787Z" clip-rule="evenodd"/></g></g></g><defs><filter id="filter0_d_2060_26178" width="326.817" height="419.617" x="-47.409" y="-44.79" color-interpolation-filters="sRGB" filterUnits="userSpaceOnUse"><feFlood flood-opacity="0" result="BackgroundImageFix"/><feColorMatrix in="SourceAlpha" result="hardAlpha" type="matrix" values="0 0 0 0 0 0 0 0 0 0 0 0 0 0 0 0 0 0 127 0"/><feOffset dy="2.017"/><feGaussianBlur stdDeviation="23.704"/><feComposite in2="hardAlpha" operator="out"/><feColorMatrix type="matrix" values="0 0 0 0 0 0 0 0 0 0 0 0 0 0 0 0 0 0 0.16 0"/><feBlend in2="BackgroundImageFix" mode="normal" result="effect1_dropShadow_2060_26178"/><feBlend in="SourceGraphic" in2="effect1_dropShadow_2060_26178" mode="normal" result="shape"/></filter><filter id="filter1_b_2060_26178" width="248.139" height="340.939" x="-8.07" y="-7.468" color-interpolation-filters="sRGB" filterUnits="userSpaceOnUse"><feFlood flood-opacity="0" result="BackgroundImageFix"/><feGaussianBlur in="BackgroundImageFix" stdDeviation="4.035"/><feComposite in2="SourceAlpha" operator="in" result="effect1_backgroundBlur_2060_26178"/><feBlend in="SourceGraphic" in2="effect1_backgroundBlur_2060_26178" mode="normal" result="shape"/></filter><filter id="filter2_b_2060_26178" width="248.139" height="340.939" x="-8.07" y="-7.468" color-interpolation-filters="sRGB" filterUnits="userSpaceOnUse"><feFlood flood-opacity="0" result="BackgroundImageFix"/><feGaussianBlur in="BackgroundImageFix" stdDeviation="4.035"/><feComposite in2="SourceAlpha" operator="in" result="effect1_backgroundBlur_2060_26178"/><feBlend in="SourceGraphic" in2="effect1_backgroundBlur_2060_26178" mode="normal" result="shape"/></filter><filter id="filter3_f_2060_26178" width="365.646" height="390.521" x="-5.4" y="82.904" color-interpolation-filters="sRGB" filterUnits="userSpaceOnUse"><feFlood flood-opacity="0" result="BackgroundImageFix"/><feBlend in="SourceGraphic" in2="BackgroundImageFix" mode="normal" result="shape"/><feGaussianBlur result="effect1_foregroundBlur_2060_26178" stdDeviation="17.652"/></filter><filter id="filter4_f_2060_26178" width="365.646" height="390.521" x="21.33" y="-57.305" color-interpolation-filters="sRGB" filterUnits="userSpaceOnUse"><feFlood flood-opacity="0" result="BackgroundImageFix"/><feBlend in="SourceGraphic" in2="BackgroundImageFix" mode="normal" result="shape"/><feGaussianBlur result="effect1_foregroundBlur_2060_26178" stdDeviation="17.652"/></filter><filter id="filter5_f_2060_26178" width="365.646" height="390.521" x="-76.009" y="-80.001" color-interpolation-filters="sRGB" filterUnits="userSpaceOnUse"><feFlood flood-opacity="0" result="BackgroundImageFix"/><feBlend in="SourceGraphic" in2="BackgroundImageFix" mode="normal" result="shape"/><feGaussianBlur result="effect1_foregroundBlur_2060_26178" stdDeviation="17.652"/></filter><filter id="filter6_f_2060_26178" width="365.646" height="390.521" x="-183.939" y="-93.618" color-interpolation-filters="sRGB" filterUnits="userSpaceOnUse"><feFlood flood-opacity="0" result="BackgroundImageFix"/><feBlend in="SourceGraphic" in2="BackgroundImageFix" mode="normal" result="shape"/><feGaussianBlur result="effect1_foregroundBlur_2060_26178" stdDeviation="17.652"/></filter><linearGradient id="paint0_linear_2060_26178" x1="232" x2="138.647" y1=".602" y2="13.938" gradientUnits="userSpaceOnUse"><stop stop-color="#FD366E"/><stop offset="1" stop-color="#FD366E" stop-opacity="0"/></linearGradient><linearGradient id="paint1_linear_2060_26178" x1="223.174" x2="167.894" y1=".602" y2="77.115" gradientUnits="userSpaceOnUse"><stop stop-color="#fff" stop-opacity=".2"/><stop offset="1" stop-color="#fff" stop-opacity="0"/></linearGradient><linearGradient id="paint2_linear_2060_26178" x1="216.617" x2="90.278" y1="19.262" y2="113.828" gradientUnits="userSpaceOnUse"><stop stop-color="#FD366E"/><stop offset="1" stop-color="#FD366E" stop-opacity="0"/></linearGradient><linearGradient id="paint3_linear_2060_26178" x1="256.209" x2="164.67" y1="48.515" y2="120.132" gradientUnits="userSpaceOnUse"><stop stop-color="#fff" stop-opacity=".44"/><stop offset="1" stop-color="#fff" stop-opacity="0"/></linearGradient><linearGradient id="paint4_linear_2060_26178" x1="224.455" x2="41.377" y1="166.903" y2="417.706" gradientUnits="userSpaceOnUse"><stop stop-color="#FD366E" stop-opacity=".16"/><stop offset="1" stop-color="#FD366E" stop-opacity="0"/></linearGradient><linearGradient id="paint5_linear_2060_26178" x1="251.185" x2="68.107" y1="26.695" y2="277.498" gradientUnits="userSpaceOnUse"><stop stop-color="#FD366E" stop-opacity=".16"/><stop offset="1" stop-color="#FD366E" stop-opacity="0"/></linearGradient><linearGradient id="paint6_linear_2060_26178" x1="153.845" x2="-29.233" y1="3.999" y2="254.802" gradientUnits="userSpaceOnUse"><stop stop-color="#FD366E" stop-opacity=".16"/><stop offset="1" stop-color="#FD366E" stop-opacity="0"/></linearGradient><linearGradient id="paint7_linear_2060_26178" x1="45.916" x2="-137.162" y1="-9.619" y2="241.184" gradientUnits="userSpaceOnUse"><stop stop-color="#FD366E" stop-opacity=".16"/><stop offset="1" stop-color="#FD366E" stop-opacity="0"/></linearGradient><linearGradient id="paint8_linear_2060_26178" x1="211.826" x2="211.826" y1=".602" y2="325.402" gradientUnits="userSpaceOnUse"><stop stop-color="#D9D9D9"/><stop offset=".199" stop-color="#D9D9D9" stop-opacity=".4"/><stop offset=".392" stop-color="#D9D9D9"/><stop offset=".58" stop-color="#D9D9D9" stop-opacity=".4"/><stop offset=".754" stop-color="#D9D9D9"/><stop offset=".964" stop-color="#D9D9D9" stop-opacity=".4"/></linearGradient><linearGradient id="paint9_linear_2060_26178" x1="3.32" x2="40.348" y1="146.546" y2="146.546" gradientUnits="userSpaceOnUse"><stop stop-color="#222224"/><stop offset="1" stop-color="#222224" stop-opacity="0"/></linearGradient><clipPath id="clip0_2060_26178"><rect width="232" height="324" y=".602" fill="#fff" rx="8"/></clipPath><clipPath id="clip1_2060_26178"><rect width="232" height="324.8" y=".602" fill="#fff" rx="8.07"/></clipPath><clipPath id="clip2_2060_26178"><rect width="28.748" height="12.104" fill="#fff" transform="translate(33.2871 285.054)"/></clipPath></defs></svg>