<svg width="17" height="16" viewBox="0 0 17 16" fill="none" xmlns="http://www.w3.org/2000/svg">
<g clip-path="url(#clip0_3409_6709)">
<path d="M16.4988 8.17774C16.4988 7.52185 16.4444 7.04322 16.3265 6.54688H8.66211V9.50725H13.1609C13.0703 10.2429 12.5805 11.3509 11.492 12.0954L11.4768 12.1945L13.9001 14.029L14.068 14.0454C15.6099 12.6538 16.4988 10.6063 16.4988 8.17774Z" fill="#4285F4"/>
<path d="M8.66168 15.9776C10.8657 15.9776 12.716 15.2684 14.0676 14.0453L11.4916 12.0953C10.8023 12.5651 9.87707 12.893 8.66168 12.893C6.50296 12.893 4.67078 11.5015 4.01765 9.57812L3.92192 9.58607L1.40209 11.4917L1.36914 11.5812C2.71153 14.1871 5.46891 15.9776 8.66168 15.9776Z" fill="#34A853"/>
<path d="M4.01924 9.58021C3.84691 9.08386 3.74717 8.55201 3.74717 8.0025C3.74717 7.45293 3.84691 6.92114 4.01017 6.42479L4.00561 6.31908L1.4542 4.38281L1.37073 4.42161C0.817464 5.50297 0.5 6.7173 0.5 8.0025C0.5 9.2877 0.817464 10.502 1.37073 11.5833L4.01924 9.58021Z" fill="#FBBC05"/>
<path d="M8.66168 3.10791C10.1945 3.10791 11.2285 3.75494 11.8181 4.29565L14.122 2.09749C12.707 0.812292 10.8657 0.0234375 8.66168 0.0234375C5.46891 0.0234375 2.71153 1.81385 1.36914 4.4197L4.00859 6.42287C4.67078 4.4995 6.50296 3.10791 8.66168 3.10791Z" fill="#EB4335"/>
</g>
<defs>
<clipPath id="clip0_3409_6709">
<rect width="16" height="16" fill="white" transform="translate(0.5)"/>
</clipPath>
</defs>
</svg>
