<svg xmlns="http://www.w3.org/2000/svg" width="17" height="16" fill="none"><g clip-path="url(#a)"><path fill="#4285F4" d="M16.499 8.178c0-.656-.055-1.135-.172-1.631H8.662v2.96h4.499c-.09.736-.58 1.844-1.669 2.588l-.015.1 2.423 1.834.168.016c1.542-1.391 2.43-3.439 2.43-5.867Z"/><path fill="#34A853" d="M8.662 15.978c2.204 0 4.054-.71 5.406-1.933l-2.576-1.95c-.69.47-1.615.798-2.83.798a4.904 4.904 0 0 1-4.644-3.315l-.096.008-2.52 1.906-.033.09c1.343 2.605 4.1 4.396 7.293 4.396Z"/><path fill="#FBBC05" d="M4.02 9.58a4.81 4.81 0 0 1-.273-1.578c0-.55.1-1.08.263-1.577l-.004-.106-2.552-1.936-.083.039A7.837 7.837 0 0 0 .5 8.002c0 1.286.317 2.5.87 3.581L4.02 9.58Z"/><path fill="#EB4335" d="M8.662 3.108c1.532 0 2.566.647 3.156 1.188l2.304-2.199C12.707.812 10.866.023 8.662.023c-3.193 0-5.95 1.79-7.293 4.397l2.64 2.003a4.924 4.924 0 0 1 4.653-3.315Z"/></g><defs><clipPath id="a"><path fill="#fff" d="M.5 0h16v16H.5z"/></clipPath></defs></svg>