<svg xmlns="http://www.w3.org/2000/svg" width="350" height="350" fill="none" viewBox="0 0 350 350"><path stroke="url(#paint0_linear_373_2939)" stroke-width="2" d="M245.32 142.081L246.133 142.705L245.758 143.456L246.475 143.815C286.668 166.057 314.918 207.258 319.188 255.835H30.8115C34.9035 207.537 63.2159 166.122 104.292 143.437L105.184 142.944L104.675 142.061L80.4946 100.182L80.4934 100.183C80.1484 99.5872 79.9505 98.9033 79.9505 98.1636C79.9505 95.9355 81.7502 94.1357 83.9783 94.1357C85.4554 94.1357 86.7614 94.9387 87.4725 96.1561C87.473 96.1569 87.4734 96.1576 87.4739 96.1584L111.724 138.172L112.246 139.38L113.196 138.992L114.257 138.559L114.22 138.495C132.817 130.313 153.378 125.765 175.002 125.765C197.383 125.765 218.62 130.637 236.769 138.975L237.597 139.355L238.052 138.566L262.532 96.1642L262.547 96.1381L262.555 96.1228C263.258 94.941 264.545 94.1551 266.016 94.1551C268.244 94.1551 270.044 95.9549 270.044 98.1829C270.044 98.9338 269.84 99.629 269.506 100.191L269.5 100.202L245.32 142.081ZM108.12 216.46L108.121 216.46C115.357 216.449 121.209 210.587 121.219 203.362V203.36C121.219 196.123 115.356 190.26 108.12 190.26C100.883 190.26 95.0198 196.123 95.0198 203.36C95.0198 210.597 100.883 216.46 108.12 216.46ZM241.846 216.46L241.847 216.46C249.083 216.449 254.935 210.587 254.945 203.362V203.36C254.945 196.123 249.082 190.26 241.846 190.26C234.609 190.26 228.746 196.123 228.746 203.36C228.746 210.597 234.609 216.46 241.846 216.46Z"/><defs><linearGradient id="paint0_linear_373_2939" x1="284.443" x2="187.134" y1="103.668" y2="369.606" gradientUnits="userSpaceOnUse"><stop stop-color="#fff" stop-opacity=".32"/><stop offset=".29" stop-color="#fff" stop-opacity=".08"/><stop offset="1" stop-color="#fff" stop-opacity="0"/></linearGradient></defs></svg>