<svg xmlns="http://www.w3.org/2000/svg" width="351" height="350" fill="none" viewBox="0 0 351 350"><path stroke="url(#paint0_linear_373_2950)" stroke-width="2" d="M218.322 74.9049L218.321 74.9054C208.056 86.7709 191.362 95.9649 175.002 95.0919C173.134 79.1332 181.399 62.4964 190.944 51.9687L190.948 51.9643C201.498 40.1898 219.175 31.3259 233.948 30.4311C235.5 46.7151 228.575 63.0666 218.322 74.9049ZM83.8088 281.396L83.8087 281.396C70.8748 263.562 59.4516 238.332 54.5906 212.068C49.7284 185.797 51.4523 158.619 64.6397 136.776C77.7358 115.097 101.129 101.355 126.522 101.013L126.527 101.013C136.105 100.836 145.46 103.913 154.018 107.099C155.153 107.521 156.275 107.947 157.383 108.366C160.426 109.518 163.356 110.627 166.103 111.519C169.851 112.734 173.37 113.582 176.522 113.582C179.693 113.582 183.477 112.559 187.64 111.135C189.94 110.348 192.432 109.411 195.043 108.428C197.134 107.641 199.302 106.826 201.507 106.036C211.544 102.444 222.884 99.1963 234.453 100.316L234.482 100.319L234.51 100.32C244.173 100.702 270.973 104.007 288.523 127.709C282.955 131.074 255.901 148.918 256.23 183.049C256.446 205.279 266.671 220.111 276.883 229.387C281.983 234.02 287.081 237.27 290.933 239.374C292.859 240.426 294.477 241.193 295.63 241.705C296.018 241.877 296.367 242.026 296.656 242.146C295.298 246.309 289.133 263.95 276.116 282.121C269.788 290.941 263.412 299.638 256.068 306.187C248.746 312.717 240.526 317.053 230.509 317.236C220.809 317.409 214.346 314.741 207.451 311.896L206.99 311.706C199.89 308.778 192.306 305.754 180.5 305.754C168.714 305.754 160.963 308.584 153.806 311.471C153.298 311.676 152.793 311.881 152.291 312.085C145.733 314.748 139.545 317.261 130.816 317.596C121.214 317.937 112.676 313.355 104.89 306.393C97.1002 299.427 90.1775 290.181 83.8088 281.396Z"/><defs><linearGradient id="paint0_linear_373_2950" x1="267.454" x2="10.692" y1="47.995" y2="385.348" gradientUnits="userSpaceOnUse"><stop stop-color="#fff" stop-opacity=".32"/><stop offset=".29" stop-color="#fff" stop-opacity=".08"/><stop offset="1" stop-color="#fff" stop-opacity="0"/></linearGradient></defs></svg>