<svg width="350" height="350" viewBox="0 0 350 350" fill="none" xmlns="http://www.w3.org/2000/svg">
<path d="M39.307 221.865L39.3068 221.865C34.7957 210.127 31.9583 197.532 31.0945 184.389V167.192C31.2815 164.274 31.5753 161.376 31.9592 158.512L31.9593 158.511C32.7468 152.614 33.9364 146.844 35.4998 141.235L35.5 141.235C50.293 88.0523 98.3883 49.1025 155.419 49.1025C211.995 49.1025 259.772 87.4343 274.972 139.967H208.604C197.185 122.484 177.634 110.947 155.419 110.947C133.009 110.947 113.31 122.687 101.935 140.427C98.4674 145.821 95.7768 151.769 94.0141 158.111C92.4484 163.735 91.6138 169.664 91.6138 175.791C91.6138 194.372 99.3018 211.125 111.63 222.945C123.056 233.916 138.465 240.635 155.419 240.635H314V302.48H155.419C109.305 302.48 69.0327 277.014 47.4813 239.141C44.3486 233.636 41.6068 227.86 39.307 221.865ZM314 159.379V221.223H200.936C212.25 209.525 219.224 193.487 219.224 175.791C219.224 170.122 218.509 164.623 217.163 159.379H314Z" stroke="url(#paint0_linear_373_2946)" stroke-width="2"/>
<defs>
<linearGradient id="paint0_linear_373_2946" x1="279.862" y1="64.5336" x2="75.3295" y2="415.893" gradientUnits="userSpaceOnUse">
<stop stop-color="white" stop-opacity="0.32"/>
<stop offset="0.289874" stop-color="white" stop-opacity="0.08"/>
<stop offset="1" stop-color="white" stop-opacity="0"/>
</linearGradient>
</defs>
</svg>
