<svg xmlns="http://www.w3.org/2000/svg" width="350" height="350" fill="none" viewBox="0 0 350 350"><path stroke="url(#paint0_linear_2003_75027)" stroke-width="2" d="M135.854 288.714C136.041 287.483 136.377 286.276 136.856 285.121C137.633 283.245 138.771 281.541 140.207 280.106C141.642 278.671 143.347 277.532 145.222 276.756C147.098 275.979 149.108 275.58 151.138 275.58C154.706 275.58 157.476 276.359 159.601 277.762C161.729 279.168 163.124 281.143 164.037 283.384C165.82 287.767 165.814 293.341 165.809 298.111L165.809 298.217V298.218V299.074C165.809 312.456 173.46 324.045 184.627 329.713C183.285 326.211 182.594 322.485 182.598 318.719C182.599 311.473 184.734 306.427 188.15 302.42C191.503 298.486 196.063 295.595 200.794 292.594L200.866 292.549L200.87 292.546L200.872 292.545L200.877 292.542C208.499 287.712 216.751 282.462 222.44 271.952L222.44 271.951C225.504 266.298 227.106 259.969 227.099 253.539V253.537C227.102 250.038 226.63 246.556 225.697 243.188C216.018 250.661 198.217 255.563 178.041 255.563C165.11 255.563 153.194 253.55 143.765 250.161C135.464 247.179 128.951 243.078 125.462 238.22C123.997 243.694 123.638 249.581 123.638 253.538V253.569L135.854 288.714ZM135.854 288.714C129.398 281.531 126.32 273.127 124.867 266.31C124.087 262.646 123.78 259.456 123.667 257.185C123.611 256.05 123.604 255.146 123.61 254.529C123.614 254.221 123.62 253.985 123.626 253.827C123.629 253.748 123.632 253.69 123.634 253.651L123.636 253.609L123.636 253.6L123.636 253.599L123.636 253.599L135.854 288.714ZM218.846 36.61L218.846 36.6105C221.175 39.4995 222.387 43.4192 224.931 51.7977L224.932 51.7984L279.449 230.877C259.41 220.736 237.994 213.575 215.879 209.623L180.117 88.7629C179.773 87.5842 179.055 86.5491 178.072 85.8131C177.089 85.0771 175.894 84.68 174.666 84.6814C173.438 84.6828 172.243 85.0827 171.262 85.8209C170.281 86.5591 169.565 87.5958 169.224 88.7753L133.892 209.562C111.678 213.498 90.1653 220.671 70.039 230.848L124.841 51.6673C124.841 51.6672 124.841 51.667 124.841 51.6668C127.386 43.3628 128.598 39.4688 130.916 36.5902C132.998 34.0149 135.704 32.0141 138.777 30.7775C142.207 29.4014 146.311 29.3839 155.063 29.3839H194.684C203.444 29.3839 207.547 29.4014 210.99 30.7874L210.99 30.7876C214.064 32.0238 216.768 34.0284 218.846 36.61Z"/><defs><linearGradient id="paint0_linear_2003_75027" x1="254.859" x2="-110.045" y1="47.9" y2="397.358" gradientUnits="userSpaceOnUse"><stop stop-color="#fff" stop-opacity=".32"/><stop offset=".29" stop-color="#fff" stop-opacity=".08"/><stop offset="1" stop-color="#fff" stop-opacity="0"/></linearGradient></defs></svg>