<svg xmlns="http://www.w3.org/2000/svg" width="350" height="350" fill="none" viewBox="0 0 350 350"><path stroke="url(#paint0_linear_373_2942)" stroke-width="2" d="M186.768 67.4153L187.116 66.4786L186.768 67.4153C189.351 68.3757 191.526 69.5524 192.866 70.5064L214.022 92.1994C214.001 92.2008 213.98 92.2023 213.959 92.2037C212.113 92.3309 210.447 92.4454 208.729 92.4454L114.696 92.4455L166.563 67.6802C169.056 66.5615 173.589 65.75 178.775 65.75C181.125 65.75 183.971 66.3756 186.768 67.4153ZM228.479 107.025L228.485 107.032L228.493 107.039L284.25 162.594V255.049L249.392 255.049L103.073 104.011L208.729 104.01C208.816 104.01 208.903 104.01 208.989 104.01L223.722 104.01C225.325 104.47 226.858 105.344 228.479 107.025ZM147.188 296.5L94.9486 239.455V112.488L241.208 263.179V296.5L147.188 296.5ZM53.5002 190.043C53.5002 188.999 53.7532 187.441 54.1494 185.746C54.5365 184.091 55.0434 182.377 55.525 181.016L83.3836 123.451V227.743L60.0746 204.434C56.288 199.335 53.5002 194.816 53.5002 190.043Z"/><defs><linearGradient id="paint0_linear_373_2942" x1="256.544" x2="60.705" y1="79.725" y2="381.283" gradientUnits="userSpaceOnUse"><stop stop-color="#fff" stop-opacity=".32"/><stop offset=".29" stop-color="#fff" stop-opacity=".08"/><stop offset="1" stop-color="#fff" stop-opacity="0"/></linearGradient></defs></svg>