<svg width="350" height="350" viewBox="0 0 350 350" fill="none" xmlns="http://www.w3.org/2000/svg">
<mask id="path-1-inside-1_373_2941" fill="white">
<path d="M166.155 108.096C165.95 108.704 164.998 108.611 164.456 108.788C163.972 109.05 163.578 109.506 163.021 109.506C162.512 109.506 161.691 109.295 161.626 108.788C161.527 108.096 162.528 107.386 163.16 107.386C163.57 107.184 164.046 107.074 164.547 107.074C165.006 107.074 165.441 107.167 165.835 107.344L165.81 107.336C165.991 107.412 166.122 107.589 166.122 107.8C166.122 107.826 166.122 107.842 166.114 107.868V108.079H166.147L166.155 108.096ZM171.8 108.096V107.868C171.734 107.657 171.931 107.429 172.095 107.344C172.473 107.175 172.916 107.074 173.384 107.074C173.884 107.074 174.36 107.192 174.778 107.395L174.762 107.386C175.41 107.386 176.403 108.096 176.296 108.814C176.239 109.329 175.427 109.506 174.91 109.506C174.344 109.506 173.966 109.05 173.466 108.788C172.932 108.594 171.972 108.704 171.792 108.104L171.8 108.096ZM182.893 124.802C178.528 127.648 173.367 129.65 167.837 130.427L167.64 130.452C162.668 130.156 158.147 128.357 154.454 125.486L154.512 125.528C152.936 124.118 151.64 122.699 150.688 121.989C149.006 120.579 149.211 118.476 149.933 118.476C151.049 118.645 151.254 119.886 151.976 120.587C152.961 121.28 154.184 122.699 155.669 124.101C158.926 126.871 163.045 128.67 167.566 129.025L167.64 129.033C173.006 128.552 177.888 126.778 182.106 124.033L181.974 124.118C183.976 122.69 186.536 120.596 188.621 119.185C190.221 117.749 190.147 116.364 191.484 116.364C192.797 116.533 191.837 117.775 189.974 119.869C187.956 121.457 185.65 123.087 183.263 124.599L182.902 124.81L182.893 124.802ZM109.49 220.569H109.589C110.155 220.569 110.713 220.628 111.254 220.73L111.197 220.721C115.661 221.904 119.336 224.758 121.642 228.584L121.683 228.66L131.012 246.219L131.045 246.253C134.795 252.782 138.824 258.432 143.328 263.643L143.238 263.533C147.258 267.925 149.966 273.635 150.696 279.969L150.713 280.104V280.172C150.614 287.072 145.683 292.764 139.258 293.82L139.185 293.829C137.544 294.09 135.64 294.234 133.712 294.234C126.68 294.234 120.1 292.266 114.454 288.829L114.627 288.93C105.987 285.205 95.96 282.9 85.4575 282.579H85.3344C82.2821 282.368 79.6236 280.763 77.9416 278.39L77.9251 278.364C77.4821 276.895 77.2277 275.205 77.2277 273.449C77.2277 270.493 77.9498 267.714 79.2298 265.29L79.1887 265.383V265.341L79.2134 265.307C79.5498 263.719 79.7467 261.886 79.7467 260.011C79.7467 257.697 79.4513 255.459 78.8934 253.331L78.9344 253.508C78.598 252.241 78.401 250.78 78.401 249.268C78.401 247.224 78.7539 245.273 79.4103 243.466L79.3775 243.584C81.0185 240.062 83.439 239.361 86.4503 237.959C90.0441 236.836 93.1703 235.138 95.8944 232.951L95.8287 233.002H95.8451V232.976C98.4708 230.147 100.407 226.633 102.696 224.133C104.296 222.03 106.733 220.671 109.482 220.586H109.498L109.49 220.569ZM220.374 220.054C220.366 220.198 220.366 220.375 220.366 220.552C220.366 226.828 224.05 232.216 229.318 234.556L229.416 234.598C229.81 234.623 230.27 234.64 230.729 234.64C237.548 234.64 243.652 231.507 247.755 226.557L247.78 226.524L249.946 226.422C250.381 226.355 250.881 226.321 251.39 226.321C254.188 226.321 256.739 227.436 258.635 229.26L258.627 229.252L258.66 229.285C260.703 231.828 262.122 234.969 262.655 238.424L262.672 238.534C263.123 242.799 264.625 246.642 266.914 249.851L266.873 249.783C270.286 252.79 272.657 256.962 273.379 261.701L273.396 261.81L273.429 261.734V261.92L273.396 261.793C273.24 264.555 271.501 265.974 268.292 268.077C258.577 272.275 250.233 277.857 243.045 284.699L243.103 284.648C238.114 291.337 230.787 295.957 222.401 297.198L222.229 297.215C221.622 297.3 220.916 297.35 220.202 297.35C213.901 297.35 208.485 293.432 206.122 287.84L206.081 287.739L206.032 287.705C205.269 285.29 204.834 282.511 204.834 279.631C204.834 276.118 205.482 272.765 206.672 269.682L206.606 269.868C208.526 264.226 210.175 257.486 211.267 250.544L211.357 249.843C211.488 242.985 212.21 236.388 213.474 229.995L213.359 230.696C214.056 226.321 216.485 222.638 219.874 220.35L219.931 220.316L220.391 220.088L220.374 220.054ZM197.966 125.511C202.889 143.644 208.953 159.311 216.403 174.134L215.755 172.724C220.785 181.929 224.698 192.613 226.938 203.931L227.053 204.64C227.127 204.64 227.217 204.64 227.308 204.64C229.088 204.64 230.811 204.885 232.452 205.35L232.313 205.316C233.215 201.98 233.732 198.154 233.732 194.201C233.732 182.158 228.916 171.262 221.154 163.467L221.146 163.458C218.889 161.347 218.766 159.92 219.882 159.92C227.849 167.605 233.741 177.47 236.662 188.585L236.76 189.016C237.49 191.794 237.909 194.987 237.909 198.281C237.909 201.245 237.572 204.134 236.932 206.895L236.982 206.642C237.589 206.963 238.294 207.208 239.041 207.343L239.09 207.352C249.675 212.985 253.581 217.25 251.702 223.576V223.12C251.086 223.086 250.471 223.12 249.855 223.12H249.691C251.242 218.188 247.829 214.412 238.77 210.198C229.392 205.975 221.892 206.65 220.621 215.105C220.53 215.519 220.465 216 220.44 216.498V216.524C219.841 216.777 219.127 217.014 218.389 217.182L218.298 217.199C214.13 220.037 211.16 224.454 210.184 229.606L210.167 229.725C208.953 235.594 208.19 242.393 208.067 249.344V249.446V249.479C207.32 254.859 206.18 259.674 204.637 264.285L204.801 263.728C196.735 270.518 186.331 274.623 174.984 274.623C165.712 274.623 157.064 271.878 149.769 267.131L149.966 267.249C148.768 265.113 147.398 263.263 145.839 261.616L145.847 261.625C145.051 260.273 144.116 259.116 143.041 258.12L143.025 258.111C144.723 258.111 146.364 257.849 147.915 257.368L147.792 257.402C149.269 256.684 150.401 255.442 151 253.922L151.016 253.88C151.164 253.094 151.254 252.199 151.254 251.278C151.254 247.52 149.818 244.116 147.472 241.599L147.48 241.608C142.401 235.181 136.329 229.826 129.462 225.73L129.15 225.561C123.644 222.284 119.476 217.157 117.416 211.017L117.359 210.831C116.596 208.145 116.153 205.054 116.153 201.862C116.153 198.88 116.538 195.992 117.252 193.238L117.203 193.467C120.296 182.369 124.76 172.681 130.495 163.94L130.266 164.303C131.365 163.619 130.643 165.73 126.081 174.582C122.192 180.603 119.87 188.011 119.87 195.975C119.87 203.069 121.708 209.716 124.924 215.451L124.826 215.265C125.252 204.21 127.656 193.838 131.669 184.362L131.464 184.911C140.12 168.847 146.676 150.19 150.13 130.418L150.294 129.312C150.787 129.692 152.518 130.739 153.256 131.44C155.488 132.842 157.154 134.954 159.304 136.347C161.494 138.543 164.497 139.894 167.796 139.894C167.968 139.894 168.141 139.894 168.313 139.886H168.288C168.69 139.92 169.059 139.954 169.412 139.954C173.178 139.878 176.69 138.839 179.743 137.065L179.636 137.124C182.606 135.714 184.969 133.602 187.226 132.901H187.275C191.665 131.677 195.341 129.067 197.942 125.562L197.974 125.511H197.966ZM169.256 102.902C169.281 102.902 169.306 102.902 169.33 102.902C173.999 102.902 178.307 104.481 181.777 107.15L181.72 107.108C184.822 109.084 188.399 110.765 192.182 111.956L192.51 112.04H192.543C194.561 112.969 196.227 114.413 197.416 116.212L197.441 116.255V114.869C197.818 115.646 198.048 116.567 198.048 117.538C198.048 118.366 197.884 119.151 197.597 119.869L197.613 119.827C195.25 124.109 191.418 127.293 186.84 128.678L186.709 128.712V128.729C183.96 130.156 181.572 132.243 178.766 133.636C175.894 135.41 172.44 136.457 168.74 136.457C168.616 136.457 168.493 136.457 168.37 136.457H168.387C168.206 136.465 167.993 136.474 167.78 136.474C166.352 136.474 164.973 136.212 163.71 135.722L163.792 135.748C162.487 135.013 161.412 134.32 160.37 133.577L160.485 133.661C158.623 131.981 156.571 130.368 154.422 128.89L154.208 128.754V128.704H154.159C151.082 127.023 148.662 124.447 147.168 121.305L147.127 121.204C146.906 120.638 146.783 119.979 146.783 119.295C146.783 117.454 147.702 115.832 149.088 114.886L149.105 114.878C151.402 113.451 153.002 112.015 154.061 111.331C155.127 110.554 155.529 110.258 155.866 109.945H155.882V109.912C158.081 107.049 160.994 104.853 164.35 103.611L164.481 103.569C165.909 103.147 167.55 102.902 169.248 102.885L169.256 102.902ZM155.209 84.8951H155.578C157.121 84.9289 158.541 85.461 159.689 86.3309L159.673 86.314C161.142 87.6569 162.339 89.2869 163.16 91.1281L163.193 91.221C164.12 93.2903 164.694 95.6973 164.76 98.2311V98.2564V98.2987C164.793 98.6872 164.809 99.1348 164.809 99.5824C164.809 100.115 164.785 100.647 164.735 101.17L164.744 101.103V101.947C164.44 102.023 164.169 102.133 163.89 102.201C162.323 102.868 161.002 103.577 159.747 104.38L159.862 104.312C159.927 103.848 159.96 103.316 159.96 102.775C159.96 102.327 159.935 101.88 159.886 101.441L159.894 101.491V101.331C159.747 100.03 159.451 98.8392 159.016 97.7159L159.049 97.8088C158.713 96.694 158.122 95.748 157.351 94.9963C156.9 94.574 156.301 94.3122 155.636 94.3122C155.578 94.3122 155.521 94.3122 155.464 94.3207H155.472H155.258C154.413 94.4136 153.708 94.9541 153.355 95.6973L153.347 95.7142C152.715 96.4997 152.28 97.471 152.116 98.5352V98.5689C151.927 99.2953 151.829 100.131 151.829 100.993C151.829 101.365 151.845 101.736 151.886 102.099V102.057V102.218C152.017 103.518 152.313 104.718 152.74 105.832L152.707 105.739C153.051 106.854 153.634 107.809 154.405 108.569C154.504 108.67 154.618 108.755 154.75 108.822H154.758C154.077 109.27 153.486 109.743 152.945 110.266L152.953 110.258C152.584 110.596 152.132 110.849 151.632 110.967L151.607 110.976C150.598 109.734 149.663 108.341 148.858 106.871L148.793 106.736C147.866 104.667 147.291 102.268 147.201 99.726V99.6922C147.168 99.2868 147.152 98.8139 147.152 98.3324C147.152 96.297 147.472 94.3376 148.054 92.5048L148.022 92.6399C148.629 90.4609 149.622 88.5775 150.943 86.9728L150.926 86.9981C151.968 85.7312 153.494 84.9289 155.209 84.8867H155.217L155.209 84.8951ZM185.585 84.2701H185.716C185.724 84.2701 185.732 84.2701 185.749 84.2701C188.005 84.2701 190.073 85.0556 191.73 86.3731L191.706 86.3562C193.585 87.8511 195.094 89.7346 196.153 91.8883L196.194 91.9812C197.187 94.2278 197.802 96.8375 197.892 99.5909V99.6247C197.892 99.4135 197.95 99.2024 197.95 98.9912V100.098L197.909 99.878L197.868 99.6247C197.843 102.327 197.285 104.878 196.284 107.201L196.333 107.082C195.825 108.459 195.086 109.641 194.151 110.621C193.905 110.469 193.601 110.326 193.297 110.199L193.248 110.182C192.141 109.827 191.172 109.346 190.294 108.755L190.335 108.78C189.704 108.51 188.949 108.273 188.169 108.096L188.079 108.079C188.744 107.437 189.359 106.753 189.925 106.027L189.958 105.984C190.475 104.734 190.795 103.29 190.861 101.77V101.745V101.533C190.861 101.466 190.861 101.398 190.861 101.322C190.861 99.8865 190.631 98.5098 190.204 97.226L190.229 97.3189C189.712 95.9761 189.08 94.819 188.325 93.7632L188.358 93.8055C187.644 93.0622 186.701 92.5555 185.642 92.4119H185.617H185.453C185.445 92.4119 185.429 92.4119 185.421 92.4119C184.337 92.4119 183.369 92.9609 182.778 93.797L182.77 93.8055C181.818 94.7599 181.096 95.9423 180.686 97.2683L180.67 97.3274C180.153 98.5689 179.816 100.013 179.751 101.517V101.542V101.745C179.767 102.758 179.841 103.738 179.972 104.692L179.956 104.565C177.978 103.856 175.468 103.138 173.728 102.437C173.63 101.821 173.564 101.094 173.548 100.351V100.326V100.115C173.54 99.9456 173.54 99.7513 173.54 99.5571C173.54 96.8206 174.106 94.2278 175.131 91.8883L175.082 92.0065C175.952 89.6501 177.486 87.716 179.447 86.4069L179.488 86.3816C181.162 85.064 183.287 84.2701 185.585 84.2701ZM180.161 48.333C178.569 48.333 176.928 48.4175 175.238 48.5526C131.907 52.0661 143.402 99.2868 142.737 115.021C142.327 127.065 138.356 138.07 131.866 147.048L131.972 146.896C120.428 160.426 111.008 176.237 104.477 193.543L104.124 194.615C102.007 200.401 100.776 207.081 100.776 214.058C100.776 216.465 100.924 218.838 101.203 221.16L101.178 220.882C100.719 221.27 100.333 221.743 100.063 222.284L100.054 222.309C97.3877 225.138 95.4431 228.643 93.2523 231.16C90.9303 232.993 88.2062 234.437 85.2523 235.333L85.08 235.375C81.2728 236.549 78.1713 239.108 76.2595 242.478L76.2185 242.554C75.3651 244.344 74.8646 246.447 74.8646 248.677C74.8646 248.762 74.8646 248.838 74.8646 248.922C74.881 250.932 75.078 252.875 75.4636 254.767L75.4308 254.572C75.8903 256.422 76.1528 258.55 76.1528 260.738C76.1528 262.174 76.038 263.584 75.8164 264.961L75.8328 264.809C74.4626 267.452 73.6667 270.594 73.6667 273.93C73.6667 276.278 74.0605 278.525 74.7908 280.611L74.7498 280.476C76.9898 283.753 80.3785 286.067 84.3005 286.802L84.3908 286.819C94.8441 287.722 104.502 289.969 113.609 293.406L112.838 293.153C118.565 296.658 125.466 298.727 132.826 298.727C135.238 298.727 137.601 298.508 139.898 298.077L139.661 298.111C145.133 296.835 149.597 293.161 152.001 288.237L152.05 288.128C158.073 288.094 164.662 285.29 175.222 284.606C182.385 283.998 191.361 287.427 201.642 286.717C201.946 288.06 202.348 289.234 202.856 290.34L202.807 290.231L202.84 290.264C205.991 297.055 212.604 301.666 220.268 301.666C220.932 301.666 221.589 301.633 222.237 301.565L222.155 301.573C231.599 300.138 239.706 295.087 245.236 287.866L245.293 287.79C252.21 281.303 260.284 275.957 269.129 272.14L269.679 271.928C273.224 270.315 275.767 266.988 276.325 262.984L276.333 262.925C275.849 257.064 273.117 251.954 269.047 248.432L269.014 248.407V247.385L268.982 247.351C267.226 244.564 265.995 241.253 265.527 237.706L265.511 237.579C265.076 233.246 263.23 229.421 260.465 226.54H260.432C259.825 225.975 259.168 225.831 258.504 225.113C257.962 224.716 257.289 224.471 256.559 224.437C258.159 219.353 259.078 213.509 259.078 207.436C259.078 199.497 257.494 191.938 254.639 185.08L254.778 185.451C249.002 171.33 241.494 159.176 232.362 148.551L232.477 148.695C223.41 139.557 217.478 127.15 216.493 113.332L216.485 113.155C216.756 90.444 218.906 48.4259 180.145 48.3668L180.161 48.333Z"/>
</mask>
<path d="M166.155 108.096C165.95 108.704 164.998 108.611 164.456 108.788C163.972 109.05 163.578 109.506 163.021 109.506C162.512 109.506 161.691 109.295 161.626 108.788C161.527 108.096 162.528 107.386 163.16 107.386C163.57 107.184 164.046 107.074 164.547 107.074C165.006 107.074 165.441 107.167 165.835 107.344L165.81 107.336C165.991 107.412 166.122 107.589 166.122 107.8C166.122 107.826 166.122 107.842 166.114 107.868V108.079H166.147L166.155 108.096ZM171.8 108.096V107.868C171.734 107.657 171.931 107.429 172.095 107.344C172.473 107.175 172.916 107.074 173.384 107.074C173.884 107.074 174.36 107.192 174.778 107.395L174.762 107.386C175.41 107.386 176.403 108.096 176.296 108.814C176.239 109.329 175.427 109.506 174.91 109.506C174.344 109.506 173.966 109.05 173.466 108.788C172.932 108.594 171.972 108.704 171.792 108.104L171.8 108.096ZM182.893 124.802C178.528 127.648 173.367 129.65 167.837 130.427L167.64 130.452C162.668 130.156 158.147 128.357 154.454 125.486L154.512 125.528C152.936 124.118 151.64 122.699 150.688 121.989C149.006 120.579 149.211 118.476 149.933 118.476C151.049 118.645 151.254 119.886 151.976 120.587C152.961 121.28 154.184 122.699 155.669 124.101C158.926 126.871 163.045 128.67 167.566 129.025L167.64 129.033C173.006 128.552 177.888 126.778 182.106 124.033L181.974 124.118C183.976 122.69 186.536 120.596 188.621 119.185C190.221 117.749 190.147 116.364 191.484 116.364C192.797 116.533 191.837 117.775 189.974 119.869C187.956 121.457 185.65 123.087 183.263 124.599L182.902 124.81L182.893 124.802ZM109.49 220.569H109.589C110.155 220.569 110.713 220.628 111.254 220.73L111.197 220.721C115.661 221.904 119.336 224.758 121.642 228.584L121.683 228.66L131.012 246.219L131.045 246.253C134.795 252.782 138.824 258.432 143.328 263.643L143.238 263.533C147.258 267.925 149.966 273.635 150.696 279.969L150.713 280.104V280.172C150.614 287.072 145.683 292.764 139.258 293.82L139.185 293.829C137.544 294.09 135.64 294.234 133.712 294.234C126.68 294.234 120.1 292.266 114.454 288.829L114.627 288.93C105.987 285.205 95.96 282.9 85.4575 282.579H85.3344C82.2821 282.368 79.6236 280.763 77.9416 278.39L77.9251 278.364C77.4821 276.895 77.2277 275.205 77.2277 273.449C77.2277 270.493 77.9498 267.714 79.2298 265.29L79.1887 265.383V265.341L79.2134 265.307C79.5498 263.719 79.7467 261.886 79.7467 260.011C79.7467 257.697 79.4513 255.459 78.8934 253.331L78.9344 253.508C78.598 252.241 78.401 250.78 78.401 249.268C78.401 247.224 78.7539 245.273 79.4103 243.466L79.3775 243.584C81.0185 240.062 83.439 239.361 86.4503 237.959C90.0441 236.836 93.1703 235.138 95.8944 232.951L95.8287 233.002H95.8451V232.976C98.4708 230.147 100.407 226.633 102.696 224.133C104.296 222.03 106.733 220.671 109.482 220.586H109.498L109.49 220.569ZM220.374 220.054C220.366 220.198 220.366 220.375 220.366 220.552C220.366 226.828 224.05 232.216 229.318 234.556L229.416 234.598C229.81 234.623 230.27 234.64 230.729 234.64C237.548 234.64 243.652 231.507 247.755 226.557L247.78 226.524L249.946 226.422C250.381 226.355 250.881 226.321 251.39 226.321C254.188 226.321 256.739 227.436 258.635 229.26L258.627 229.252L258.66 229.285C260.703 231.828 262.122 234.969 262.655 238.424L262.672 238.534C263.123 242.799 264.625 246.642 266.914 249.851L266.873 249.783C270.286 252.79 272.657 256.962 273.379 261.701L273.396 261.81L273.429 261.734V261.92L273.396 261.793C273.24 264.555 271.501 265.974 268.292 268.077C258.577 272.275 250.233 277.857 243.045 284.699L243.103 284.648C238.114 291.337 230.787 295.957 222.401 297.198L222.229 297.215C221.622 297.3 220.916 297.35 220.202 297.35C213.901 297.35 208.485 293.432 206.122 287.84L206.081 287.739L206.032 287.705C205.269 285.29 204.834 282.511 204.834 279.631C204.834 276.118 205.482 272.765 206.672 269.682L206.606 269.868C208.526 264.226 210.175 257.486 211.267 250.544L211.357 249.843C211.488 242.985 212.21 236.388 213.474 229.995L213.359 230.696C214.056 226.321 216.485 222.638 219.874 220.35L219.931 220.316L220.391 220.088L220.374 220.054ZM197.966 125.511C202.889 143.644 208.953 159.311 216.403 174.134L215.755 172.724C220.785 181.929 224.698 192.613 226.938 203.931L227.053 204.64C227.127 204.64 227.217 204.64 227.308 204.64C229.088 204.64 230.811 204.885 232.452 205.35L232.313 205.316C233.215 201.98 233.732 198.154 233.732 194.201C233.732 182.158 228.916 171.262 221.154 163.467L221.146 163.458C218.889 161.347 218.766 159.92 219.882 159.92C227.849 167.605 233.741 177.47 236.662 188.585L236.76 189.016C237.49 191.794 237.909 194.987 237.909 198.281C237.909 201.245 237.572 204.134 236.932 206.895L236.982 206.642C237.589 206.963 238.294 207.208 239.041 207.343L239.09 207.352C249.675 212.985 253.581 217.25 251.702 223.576V223.12C251.086 223.086 250.471 223.12 249.855 223.12H249.691C251.242 218.188 247.829 214.412 238.77 210.198C229.392 205.975 221.892 206.65 220.621 215.105C220.53 215.519 220.465 216 220.44 216.498V216.524C219.841 216.777 219.127 217.014 218.389 217.182L218.298 217.199C214.13 220.037 211.16 224.454 210.184 229.606L210.167 229.725C208.953 235.594 208.19 242.393 208.067 249.344V249.446V249.479C207.32 254.859 206.18 259.674 204.637 264.285L204.801 263.728C196.735 270.518 186.331 274.623 174.984 274.623C165.712 274.623 157.064 271.878 149.769 267.131L149.966 267.249C148.768 265.113 147.398 263.263 145.839 261.616L145.847 261.625C145.051 260.273 144.116 259.116 143.041 258.12L143.025 258.111C144.723 258.111 146.364 257.849 147.915 257.368L147.792 257.402C149.269 256.684 150.401 255.442 151 253.922L151.016 253.88C151.164 253.094 151.254 252.199 151.254 251.278C151.254 247.52 149.818 244.116 147.472 241.599L147.48 241.608C142.401 235.181 136.329 229.826 129.462 225.73L129.15 225.561C123.644 222.284 119.476 217.157 117.416 211.017L117.359 210.831C116.596 208.145 116.153 205.054 116.153 201.862C116.153 198.88 116.538 195.992 117.252 193.238L117.203 193.467C120.296 182.369 124.76 172.681 130.495 163.94L130.266 164.303C131.365 163.619 130.643 165.73 126.081 174.582C122.192 180.603 119.87 188.011 119.87 195.975C119.87 203.069 121.708 209.716 124.924 215.451L124.826 215.265C125.252 204.21 127.656 193.838 131.669 184.362L131.464 184.911C140.12 168.847 146.676 150.19 150.13 130.418L150.294 129.312C150.787 129.692 152.518 130.739 153.256 131.44C155.488 132.842 157.154 134.954 159.304 136.347C161.494 138.543 164.497 139.894 167.796 139.894C167.968 139.894 168.141 139.894 168.313 139.886H168.288C168.69 139.92 169.059 139.954 169.412 139.954C173.178 139.878 176.69 138.839 179.743 137.065L179.636 137.124C182.606 135.714 184.969 133.602 187.226 132.901H187.275C191.665 131.677 195.341 129.067 197.942 125.562L197.974 125.511H197.966ZM169.256 102.902C169.281 102.902 169.306 102.902 169.33 102.902C173.999 102.902 178.307 104.481 181.777 107.15L181.72 107.108C184.822 109.084 188.399 110.765 192.182 111.956L192.51 112.04H192.543C194.561 112.969 196.227 114.413 197.416 116.212L197.441 116.255V114.869C197.818 115.646 198.048 116.567 198.048 117.538C198.048 118.366 197.884 119.151 197.597 119.869L197.613 119.827C195.25 124.109 191.418 127.293 186.84 128.678L186.709 128.712V128.729C183.96 130.156 181.572 132.243 178.766 133.636C175.894 135.41 172.44 136.457 168.74 136.457C168.616 136.457 168.493 136.457 168.37 136.457H168.387C168.206 136.465 167.993 136.474 167.78 136.474C166.352 136.474 164.973 136.212 163.71 135.722L163.792 135.748C162.487 135.013 161.412 134.32 160.37 133.577L160.485 133.661C158.623 131.981 156.571 130.368 154.422 128.89L154.208 128.754V128.704H154.159C151.082 127.023 148.662 124.447 147.168 121.305L147.127 121.204C146.906 120.638 146.783 119.979 146.783 119.295C146.783 117.454 147.702 115.832 149.088 114.886L149.105 114.878C151.402 113.451 153.002 112.015 154.061 111.331C155.127 110.554 155.529 110.258 155.866 109.945H155.882V109.912C158.081 107.049 160.994 104.853 164.35 103.611L164.481 103.569C165.909 103.147 167.55 102.902 169.248 102.885L169.256 102.902ZM155.209 84.8951H155.578C157.121 84.9289 158.541 85.461 159.689 86.3309L159.673 86.314C161.142 87.6569 162.339 89.2869 163.16 91.1281L163.193 91.221C164.12 93.2903 164.694 95.6973 164.76 98.2311V98.2564V98.2987C164.793 98.6872 164.809 99.1348 164.809 99.5824C164.809 100.115 164.785 100.647 164.735 101.17L164.744 101.103V101.947C164.44 102.023 164.169 102.133 163.89 102.201C162.323 102.868 161.002 103.577 159.747 104.38L159.862 104.312C159.927 103.848 159.96 103.316 159.96 102.775C159.96 102.327 159.935 101.88 159.886 101.441L159.894 101.491V101.331C159.747 100.03 159.451 98.8392 159.016 97.7159L159.049 97.8088C158.713 96.694 158.122 95.748 157.351 94.9963C156.9 94.574 156.301 94.3122 155.636 94.3122C155.578 94.3122 155.521 94.3122 155.464 94.3207H155.472H155.258C154.413 94.4136 153.708 94.9541 153.355 95.6973L153.347 95.7142C152.715 96.4997 152.28 97.471 152.116 98.5352V98.5689C151.927 99.2953 151.829 100.131 151.829 100.993C151.829 101.365 151.845 101.736 151.886 102.099V102.057V102.218C152.017 103.518 152.313 104.718 152.74 105.832L152.707 105.739C153.051 106.854 153.634 107.809 154.405 108.569C154.504 108.67 154.618 108.755 154.75 108.822H154.758C154.077 109.27 153.486 109.743 152.945 110.266L152.953 110.258C152.584 110.596 152.132 110.849 151.632 110.967L151.607 110.976C150.598 109.734 149.663 108.341 148.858 106.871L148.793 106.736C147.866 104.667 147.291 102.268 147.201 99.726V99.6922C147.168 99.2868 147.152 98.8139 147.152 98.3324C147.152 96.297 147.472 94.3376 148.054 92.5048L148.022 92.6399C148.629 90.4609 149.622 88.5775 150.943 86.9728L150.926 86.9981C151.968 85.7312 153.494 84.9289 155.209 84.8867H155.217L155.209 84.8951ZM185.585 84.2701H185.716C185.724 84.2701 185.732 84.2701 185.749 84.2701C188.005 84.2701 190.073 85.0556 191.73 86.3731L191.706 86.3562C193.585 87.8511 195.094 89.7346 196.153 91.8883L196.194 91.9812C197.187 94.2278 197.802 96.8375 197.892 99.5909V99.6247C197.892 99.4135 197.95 99.2024 197.95 98.9912V100.098L197.909 99.878L197.868 99.6247C197.843 102.327 197.285 104.878 196.284 107.201L196.333 107.082C195.825 108.459 195.086 109.641 194.151 110.621C193.905 110.469 193.601 110.326 193.297 110.199L193.248 110.182C192.141 109.827 191.172 109.346 190.294 108.755L190.335 108.78C189.704 108.51 188.949 108.273 188.169 108.096L188.079 108.079C188.744 107.437 189.359 106.753 189.925 106.027L189.958 105.984C190.475 104.734 190.795 103.29 190.861 101.77V101.745V101.533C190.861 101.466 190.861 101.398 190.861 101.322C190.861 99.8865 190.631 98.5098 190.204 97.226L190.229 97.3189C189.712 95.9761 189.08 94.819 188.325 93.7632L188.358 93.8055C187.644 93.0622 186.701 92.5555 185.642 92.4119H185.617H185.453C185.445 92.4119 185.429 92.4119 185.421 92.4119C184.337 92.4119 183.369 92.9609 182.778 93.797L182.77 93.8055C181.818 94.7599 181.096 95.9423 180.686 97.2683L180.67 97.3274C180.153 98.5689 179.816 100.013 179.751 101.517V101.542V101.745C179.767 102.758 179.841 103.738 179.972 104.692L179.956 104.565C177.978 103.856 175.468 103.138 173.728 102.437C173.63 101.821 173.564 101.094 173.548 100.351V100.326V100.115C173.54 99.9456 173.54 99.7513 173.54 99.5571C173.54 96.8206 174.106 94.2278 175.131 91.8883L175.082 92.0065C175.952 89.6501 177.486 87.716 179.447 86.4069L179.488 86.3816C181.162 85.064 183.287 84.2701 185.585 84.2701ZM180.161 48.333C178.569 48.333 176.928 48.4175 175.238 48.5526C131.907 52.0661 143.402 99.2868 142.737 115.021C142.327 127.065 138.356 138.07 131.866 147.048L131.972 146.896C120.428 160.426 111.008 176.237 104.477 193.543L104.124 194.615C102.007 200.401 100.776 207.081 100.776 214.058C100.776 216.465 100.924 218.838 101.203 221.16L101.178 220.882C100.719 221.27 100.333 221.743 100.063 222.284L100.054 222.309C97.3877 225.138 95.4431 228.643 93.2523 231.16C90.9303 232.993 88.2062 234.437 85.2523 235.333L85.08 235.375C81.2728 236.549 78.1713 239.108 76.2595 242.478L76.2185 242.554C75.3651 244.344 74.8646 246.447 74.8646 248.677C74.8646 248.762 74.8646 248.838 74.8646 248.922C74.881 250.932 75.078 252.875 75.4636 254.767L75.4308 254.572C75.8903 256.422 76.1528 258.55 76.1528 260.738C76.1528 262.174 76.038 263.584 75.8164 264.961L75.8328 264.809C74.4626 267.452 73.6667 270.594 73.6667 273.93C73.6667 276.278 74.0605 278.525 74.7908 280.611L74.7498 280.476C76.9898 283.753 80.3785 286.067 84.3005 286.802L84.3908 286.819C94.8441 287.722 104.502 289.969 113.609 293.406L112.838 293.153C118.565 296.658 125.466 298.727 132.826 298.727C135.238 298.727 137.601 298.508 139.898 298.077L139.661 298.111C145.133 296.835 149.597 293.161 152.001 288.237L152.05 288.128C158.073 288.094 164.662 285.29 175.222 284.606C182.385 283.998 191.361 287.427 201.642 286.717C201.946 288.06 202.348 289.234 202.856 290.34L202.807 290.231L202.84 290.264C205.991 297.055 212.604 301.666 220.268 301.666C220.932 301.666 221.589 301.633 222.237 301.565L222.155 301.573C231.599 300.138 239.706 295.087 245.236 287.866L245.293 287.79C252.21 281.303 260.284 275.957 269.129 272.14L269.679 271.928C273.224 270.315 275.767 266.988 276.325 262.984L276.333 262.925C275.849 257.064 273.117 251.954 269.047 248.432L269.014 248.407V247.385L268.982 247.351C267.226 244.564 265.995 241.253 265.527 237.706L265.511 237.579C265.076 233.246 263.23 229.421 260.465 226.54H260.432C259.825 225.975 259.168 225.831 258.504 225.113C257.962 224.716 257.289 224.471 256.559 224.437C258.159 219.353 259.078 213.509 259.078 207.436C259.078 199.497 257.494 191.938 254.639 185.08L254.778 185.451C249.002 171.33 241.494 159.176 232.362 148.551L232.477 148.695C223.41 139.557 217.478 127.15 216.493 113.332L216.485 113.155C216.756 90.444 218.906 48.4259 180.145 48.3668L180.161 48.333Z" stroke="url(#paint0_linear_373_2941)" stroke-width="4" mask="url(#path-1-inside-1_373_2941)"/>
<defs>
<linearGradient id="paint0_linear_373_2941" x1="251.338" y1="64.6325" x2="22.9925" y2="345.922" gradientUnits="userSpaceOnUse">
<stop stop-color="white" stop-opacity="0.32"/>
<stop offset="0.289874" stop-color="white" stop-opacity="0.08"/>
<stop offset="1" stop-color="white" stop-opacity="0"/>
</linearGradient>
</defs>
</svg>
