<svg xmlns="http://www.w3.org/2000/svg" width="350" height="350" fill="none" viewBox="0 0 350 350"><path stroke="url(#paint0_linear_373_2945)" stroke-width="2" d="M164.048 213.772H165.048V212.772V140V139H164.048H152.714H151.714V140V186.891C151.714 189.131 151.752 191.072 151.832 192.707C151.628 192.383 151.412 192.043 151.183 191.685C151.182 191.683 151.181 191.682 151.18 191.68L118.419 139.468L118.125 139H117.572H103.862H102.862V140V212.772V213.772H103.862H115.246H116.246V212.772V165.069C116.246 162.864 116.222 160.972 116.171 159.402C116.256 159.542 116.343 159.681 116.431 159.82L150.335 213.308L150.629 213.772H151.179H164.048ZM79.156 212.625L79.1651 212.634C80.744 214.137 82.6766 214.889 84.9032 214.889C87.1579 214.889 89.1085 214.14 90.6908 212.634L90.6914 212.633C92.2961 211.103 93.1295 209.239 93.1295 207.089C93.1295 204.912 92.3017 203.031 90.6956 201.497C89.1157 199.957 87.1637 199.187 84.9032 199.187C82.6687 199.187 80.7333 199.961 79.156 201.502C77.5824 203.038 76.7759 204.918 76.7759 207.089C76.7759 209.231 77.5863 211.092 79.156 212.625ZM178.641 212.772V213.772H179.641H219.484H220.484V212.772V202.572V201.572H219.484H192.421V182.055H215.822H216.822V181.055V170.855V169.855H215.822H192.421V151.251H217.901H218.901V150.251V140V139H217.901H179.641H178.641V140V212.772ZM276.11 151.251H277.11V150.251V140V139H276.11H223.595H222.595V140V150.251V151.251H223.595H242.937V212.772V213.772H243.937H255.717H256.717V212.772V151.251H276.11ZM36 36H314V314H36V36Z"/><defs><linearGradient id="paint0_linear_373_2945" x1="280.467" x2="44.871" y1="53.015" y2="415.791" gradientUnits="userSpaceOnUse"><stop stop-color="#fff" stop-opacity=".32"/><stop offset=".29" stop-color="#fff" stop-opacity=".08"/><stop offset="1" stop-color="#fff" stop-opacity="0"/></linearGradient></defs></svg>