<svg width="350" height="350" viewBox="0 0 350 350" fill="none" xmlns="http://www.w3.org/2000/svg">
  <path
    d="M166.912 43.0672L166.918 43.0667C167.921 42.97 172.662 42.9864 177.559 43.0647C182.438 43.1427 187.278 43.2786 188.474 43.4022C198.516 44.5353 207.463 46.4133 215.861 49.1351L215.862 49.1355C263.527 64.5074 298.671 105.998 305.818 155.373L305.818 155.374C306.871 162.591 306.999 164.69 306.999 174.526C306.999 184.361 306.871 186.46 305.818 193.677L305.818 193.678C302.219 218.505 291.5 241.794 274.865 260.894L274.864 260.895C267.047 269.893 257.17 278.533 247.849 284.592L247.844 284.595L247.616 284.745L227.184 253.799L227.184 253.799C215.63 236.316 192.11 200.704 174.91 174.622C166.309 161.581 158.414 149.647 152.621 140.92C149.724 136.557 147.352 132.996 145.68 130.498C144.844 129.25 144.182 128.266 143.716 127.58C143.483 127.238 143.298 126.968 143.164 126.775C143.097 126.679 143.04 126.599 142.996 126.538L142.992 126.532C142.964 126.495 142.906 126.414 142.847 126.35C142.479 125.947 142.099 125.581 141.637 125.283C141.165 124.979 140.649 124.773 140.029 124.631C138.845 124.362 137.183 124.315 134.571 124.315C132.35 124.315 131.069 124.327 130.213 124.41C129.276 124.502 128.791 124.685 128.175 124.986L128.155 124.995L128.137 125.005C127.424 125.391 126.429 126.171 125.908 126.85L125.11 127.852L124.894 128.125L124.893 128.473L124.815 180.429L124.815 180.43L124.764 232.36L124.763 232.582L124.858 232.784L125.402 233.949L125.41 233.968L125.42 233.986C125.887 234.889 126.576 235.672 127.508 236.262L127.51 236.263L128.701 237.014L128.946 237.168H129.235H133.716C137.535 237.168 138.541 237.115 139.629 236.571L139.638 236.566L139.646 236.562C140.245 236.249 140.745 235.919 141.194 235.457C141.637 235.002 141.987 234.462 142.345 233.788L142.345 233.787C142.557 233.387 142.66 232.966 142.733 232.074C142.805 231.188 142.855 229.719 142.892 227.147C142.967 221.988 142.993 212.273 143.031 193.616C143.057 182.959 143.096 173.268 143.141 166.244C143.164 162.732 143.188 159.888 143.213 157.926C143.213 157.924 143.213 157.923 143.213 157.922C143.346 158.114 143.486 158.317 143.632 158.531C145.001 160.523 146.969 163.404 149.39 166.962C154.234 174.077 160.891 183.892 168.195 194.692L194.747 233.983L194.759 234.001L194.772 234.018L215.961 262.637C221.79 270.512 227.133 277.707 231.046 282.953C233.002 285.576 234.601 287.712 235.725 289.204C236.286 289.949 236.73 290.535 237.041 290.94C237.05 290.952 237.059 290.963 237.068 290.975C236.719 291.174 236.21 291.444 235.479 291.818C220.726 299.348 205.768 303.719 188.083 305.675C186.14 305.888 180.857 306 175.5 306C170.142 306 164.859 305.888 162.916 305.675C152.665 304.542 143.665 302.664 135.137 299.916C87.4719 284.544 52.3277 243.053 45.1813 193.678L45.1811 193.677C44.128 186.46 44 184.361 44 174.526C44 164.69 44.128 162.591 45.1811 155.374L45.1814 155.373C48.1631 134.683 56.054 115.15 68.3959 97.9251L68.3963 97.9245C90.5578 66.9491 125.549 46.7982 162.891 43.4304C164.142 43.331 165.504 43.201 166.325 43.1226C166.579 43.0984 166.781 43.0791 166.912 43.0672ZM222.973 219.905L224.805 222.713L224.811 219.361L224.888 172.792C224.914 156.565 224.914 144.849 224.882 137.105C224.866 133.234 224.841 130.351 224.808 128.393C224.791 127.414 224.772 126.66 224.751 126.127C224.74 125.861 224.728 125.642 224.715 125.473C224.706 125.355 224.689 125.146 224.64 124.979C224.196 123.46 222.997 122.061 221.528 121.32C220.97 121.018 220.455 120.859 219.595 120.777C218.783 120.701 217.604 120.689 215.703 120.689C213.691 120.689 212.513 120.7 211.708 120.789C210.819 120.886 210.338 121.083 209.729 121.395L209.719 121.4L209.709 121.405C208.218 122.213 207.144 123.577 206.659 125.273L206.656 125.285L206.653 125.296C206.616 125.439 206.602 125.619 206.595 125.724C206.584 125.868 206.575 126.053 206.566 126.276C206.548 126.722 206.531 127.345 206.515 128.137C206.483 129.722 206.456 132.004 206.433 134.949C206.388 140.838 206.362 149.388 206.362 160.332V194.184V194.482L206.525 194.732L214.762 207.318L214.762 207.319L222.973 219.905Z"
    stroke="url(#paint0_linear_1504_48744)" stroke-width="2" />
  <defs>
    <linearGradient id="paint0_linear_1504_48744" x1="275.316" y1="59.0501" x2="52.3412" y2="402.391"
      gradientUnits="userSpaceOnUse">
      <stop stop-color="white" stop-opacity="0.32" />
      <stop offset="0.289874" stop-color="white" stop-opacity="0.08" />
      <stop offset="1" stop-color="white" stop-opacity="0" />
    </linearGradient>
  </defs>
</svg>