<svg width="350" height="350" viewBox="0 0 350 350" fill="none" xmlns="http://www.w3.org/2000/svg">
<path d="M166.418 43.5667L166.413 43.5672C166.281 43.5791 166.079 43.5985 165.824 43.6228C165.003 43.7011 163.642 43.8311 162.391 43.9304C125.049 47.2982 90.058 67.4492 67.8964 98.4246L67.896 98.4252C55.554 115.65 47.6631 135.184 44.6814 155.873L44.6811 155.875C43.628 163.091 43.5 165.19 43.5 175.026C43.5 184.861 43.628 186.961 44.6811 194.177L44.6813 194.178C51.8277 243.553 86.9721 285.044 134.637 300.416C143.166 303.165 152.165 305.043 162.417 306.176C164.36 306.389 169.643 306.5 175 306.5C180.358 306.5 185.642 306.389 187.584 306.176M166.418 43.5667L187.693 307.17M166.418 43.5667C167.421 43.47 172.162 43.4864 177.06 43.5647C181.938 43.6427 186.779 43.7786 187.974 43.9022C198.017 45.0354 206.964 46.9133 215.361 49.6351L215.363 49.6355C263.028 65.0075 298.172 106.499 305.319 155.873L305.319 155.875C306.372 163.091 306.5 165.19 306.5 175.026C306.5 184.861 306.372 186.961 305.319 194.177L305.319 194.178C301.72 219.006 291.001 242.294 274.366 261.395L274.365 261.395C266.548 270.394 256.67 279.034 247.349 285.093L247.344 285.096L247.117 285.246L226.684 254.3L226.684 254.3C215.131 236.817 191.61 201.204 174.41 175.123C165.809 162.081 157.915 150.147 152.121 141.421C149.224 137.058 146.852 133.496 145.18 130.999C144.344 129.75 143.682 128.766 143.216 128.081C142.984 127.738 142.798 127.468 142.664 127.275C142.597 127.179 142.541 127.099 142.496 127.038L142.492 127.033C142.465 126.995 142.406 126.914 142.348 126.85C141.979 126.447 141.6 126.081 141.137 125.783C140.666 125.48 140.15 125.273 139.529 125.132C138.346 124.862 136.684 124.815 134.071 124.815C131.85 124.815 130.569 124.827 129.713 124.911C128.776 125.002 128.292 125.185 127.675 125.486L127.656 125.496L127.637 125.506C126.925 125.891 125.929 126.671 125.408 127.35L124.611 128.353L124.394 128.625L124.393 128.974L124.316 180.93L124.316 180.93L124.264 232.861L124.264 233.083L124.358 233.284L124.902 234.45L124.91 234.468L124.92 234.487C125.387 235.39 126.076 236.172 127.008 236.763L127.01 236.764L128.202 237.515L128.446 237.669H128.735H133.217C137.035 237.669 138.041 237.615 139.129 237.071L139.138 237.067L139.146 237.063C139.745 236.749 140.245 236.419 140.694 235.958C141.137 235.502 141.487 234.963 141.845 234.289L141.846 234.288C142.058 233.887 142.161 233.466 142.233 232.574C142.306 231.688 142.355 230.22 142.392 227.647C142.467 222.489 142.493 212.774 142.532 194.117M166.418 43.5667L141.735 157.006C141.997 157.383 142.325 157.857 142.714 158.422M187.584 306.176L187.693 307.17M187.584 306.176C187.584 306.176 187.583 306.176 187.583 306.176L187.693 307.17M187.584 306.176C205.269 304.22 220.226 299.849 234.979 292.319M187.693 307.17C205.489 305.201 220.566 300.798 235.435 293.209C236.245 292.795 236.823 292.489 237.218 292.254C237.171 292.217 237.139 292.184 237.129 292.175C237.118 292.164 237.109 292.154 237.1 292.145C237.095 292.139 237.09 292.133 237.086 292.128C237.072 292.113 237.058 292.097 237.046 292.083C237.04 292.076 237.034 292.07 237.029 292.063C236.996 292.024 236.956 291.974 236.911 291.917C236.826 291.81 236.711 291.661 236.568 291.476M234.979 292.319L235.428 293.197L234.98 292.319C234.98 292.319 234.979 292.319 234.979 292.319ZM234.979 292.319C235.71 291.946 236.22 291.675 236.568 291.476M236.568 291.476C236.774 291.358 236.923 291.265 237.027 291.19C237.091 291.144 237.111 291.124 237.107 291.127C237.106 291.129 237.101 291.134 237.093 291.143C237.086 291.151 237.078 291.161 237.069 291.174C237.048 291.203 237.017 291.252 236.989 291.322C236.925 291.484 236.903 291.703 236.986 291.925C237.056 292.114 237.171 292.215 237.203 292.242L237.844 291.474L237.292 292.209C237.94 291.816 238.037 291.635 237.844 291.474C237.636 291.319 227.922 278.291 216.265 262.543L195.076 233.923L168.524 194.633C156.282 176.532 145.858 161.196 142.74 156.701C142.731 157.16 142.723 157.736 142.714 158.422M236.568 291.476C236.559 291.464 236.551 291.453 236.542 291.441C236.231 291.036 235.787 290.45 235.225 289.704C234.102 288.213 232.503 286.076 230.547 283.454C226.634 278.208 221.291 271.013 215.462 263.138L194.272 234.518L194.259 234.501L194.247 234.483L167.696 195.193L168.506 194.644L167.695 195.192C160.391 184.393 153.734 174.577 148.891 167.462C146.469 163.905 144.501 161.023 143.133 159.031C142.986 158.818 142.846 158.615 142.714 158.422M142.714 158.422C142.714 158.423 142.714 158.425 142.714 158.426C142.689 160.389 142.665 163.232 142.642 166.744C142.597 173.768 142.558 183.46 142.532 194.117M142.532 194.117C142.532 194.117 142.532 194.117 142.532 194.117L141.554 194.115L142.532 194.117ZM222.474 220.406L224.306 223.214L224.311 219.861L224.389 173.292C224.415 157.066 224.415 145.35 224.383 137.605C224.366 133.734 224.342 130.851 224.309 128.893C224.292 127.915 224.273 127.161 224.252 126.627C224.241 126.362 224.229 126.142 224.216 125.974C224.207 125.856 224.19 125.65 224.142 125.483C223.698 123.963 222.499 122.561 221.028 121.821C220.471 121.519 219.956 121.359 219.096 121.278C218.284 121.201 217.105 121.189 215.203 121.189C213.191 121.189 212.014 121.201 211.209 121.289C210.319 121.387 209.838 121.583 209.23 121.895L209.22 121.9L209.21 121.906C207.719 122.713 206.645 124.077 206.16 125.774L206.157 125.785L206.154 125.796C206.116 125.939 206.103 126.119 206.095 126.224C206.085 126.368 206.075 126.553 206.066 126.776C206.048 127.222 206.031 127.845 206.015 128.637C205.984 130.222 205.956 132.505 205.933 135.449C205.888 141.338 205.862 149.889 205.862 160.833V194.684V194.982L206.025 195.232L214.262 207.818L214.263 207.82L222.474 220.406Z" stroke="url(#paint0_linear_373_2938)" stroke-width="2"/>
<defs>
<linearGradient id="paint0_linear_373_2938" x1="274.817" y1="59.5501" x2="51.8423" y2="402.892" gradientUnits="userSpaceOnUse">
<stop stop-color="white" stop-opacity="0.32"/>
<stop offset="0.289874" stop-color="white" stop-opacity="0.08"/>
<stop offset="1" stop-color="white" stop-opacity="0"/>
</linearGradient>
</defs>
</svg>
