<svg xmlns="http://www.w3.org/2000/svg" width="350" height="350" fill="none" viewBox="0 0 350 350"><path fill="#fff" fill-opacity=".12" fill-rule="evenodd" d="M170.628 122.312L176.239 89.5L176.581 87.5H174.552H154.307L131.401 223.881L131.066 225.881H133.094H153.339L166.574 146.668L184.489 146.861C190.193 146.861 193.905 148.21 195.626 150.908C197.347 153.607 197.669 158.167 196.594 164.592L186.602 223.881L186.265 225.881H188.293H208.861L219.675 161.701C221.934 147.312 220.32 137.544 214.833 132.406C209.452 127.268 201.275 124.57 190.3 124.312H172.315H170.286L170.628 122.312ZM217.699 161.391C217.699 161.387 217.7 161.384 217.701 161.38C219.945 147.076 218.16 138.261 213.466 133.866L213.459 133.859L213.451 133.853C208.573 129.194 200.973 126.567 190.276 126.312H170.286H167.915L168.315 123.974L174.21 89.5H155.999L133.429 223.881H151.645L164.601 146.339L164.883 144.65L166.595 144.668L184.489 144.861C184.493 144.861 184.497 144.861 184.5 144.861C190.354 144.863 195.011 146.225 197.312 149.833L195.765 150.819L197.312 149.833C199.464 153.208 199.652 158.437 198.567 164.922L198.567 164.925L188.63 223.881H207.17L217.699 161.391ZM128.751 172.688C130.688 157.782 128.806 146.025 123.102 137.418C117.398 128.81 108.198 124.439 95.5025 124.312H52.247L29.5007 260.5L29.1666 262.5H31.1943H51.6014L57.7346 225.881H77.1027C83.6654 225.881 90.0148 224.983 96.1481 223.183C102.281 221.383 108.037 217.143 113.418 210.463C117.831 205.194 121.272 199.284 123.748 192.732C126.33 186.179 127.999 179.499 128.751 172.688ZM49.9085 260.5L55.7621 225.551L56.0417 223.881H57.7346H77.1027C83.4803 223.881 89.6398 223.009 95.5849 221.264C101.213 219.612 106.649 215.677 111.86 209.208L111.872 209.193L111.885 209.179C116.15 204.085 119.479 198.372 121.877 192.025L121.882 192.011L121.887 191.998C124.406 185.605 126.031 179.098 126.763 172.468L126.765 172.449L126.768 172.43C128.67 157.788 126.774 146.58 121.435 138.523C116.185 130.6 107.692 126.437 95.4922 126.312H53.9406L31.5284 260.5H49.9085ZM69.4057 144.476H71.0986H74.3589C75.4703 144.476 76.6407 144.415 77.875 144.293L77.9581 144.285L78.0416 144.284C86.796 144.154 94.2067 145.129 100.21 147.291C103.932 148.609 106.213 151.745 107.289 156.062C108.349 160.317 108.311 165.932 107.328 172.779L107.327 172.786C106.128 180.923 104.338 187.511 101.896 192.46C99.4528 197.413 96.2652 200.901 92.1972 202.496L92.1822 202.502L92.167 202.507C84.9791 205.191 76.1091 206.423 65.6311 206.295H63.3837C62.602 206.295 61.8268 206.216 61.06 206.065L59.1533 205.689L59.4743 203.772L69.1261 146.146L69.4057 144.476ZM65.6433 204.295C75.9729 204.423 84.582 203.204 91.4674 200.633C98.3529 197.935 102.982 188.557 105.348 172.495C107.285 159.004 105.348 151.229 99.5375 149.174C93.8336 147.12 86.6802 146.156 78.0712 146.283C76.7799 146.411 75.5436 146.476 74.3589 146.476H71.0986L61.4468 204.103C61.6456 204.142 61.8443 204.175 62.043 204.202C62.4899 204.264 62.9368 204.295 63.3837 204.295H63.4424H65.6433ZM247.387 223.881H249.08H268.448C274.826 223.881 280.985 223.009 286.93 221.264C292.558 219.612 297.995 215.677 303.206 209.208L303.218 209.193L303.23 209.179C307.496 204.085 310.824 198.372 313.222 192.025L313.227 192.011L313.232 191.998C315.752 185.605 317.377 179.098 318.109 172.468L318.111 172.449L318.113 172.43C320.016 157.788 318.12 146.58 312.78 138.523C307.531 130.6 299.037 126.437 286.838 126.312H245.286L222.874 260.5H241.254L247.108 225.551L247.387 223.881ZM242.947 262.5H222.54H220.512L220.846 260.5L243.593 124.312H286.848C299.544 124.439 308.744 128.81 314.448 137.418C320.151 146.025 322.033 157.782 320.097 172.688C319.344 179.499 317.676 186.179 315.093 192.732C312.617 199.284 309.176 205.194 304.764 210.463C299.383 217.143 293.627 221.383 287.494 223.183C281.36 224.983 275.011 225.881 268.448 225.881H249.08L242.947 262.5ZM260.751 144.476H262.444H265.704C266.816 144.476 267.986 144.415 269.221 144.293L269.304 144.285L269.387 144.284C278.142 144.154 285.553 145.13 291.556 147.291C295.277 148.609 297.559 151.745 298.634 156.062C299.694 160.317 299.656 165.932 298.673 172.779L298.672 172.786C297.473 180.923 295.684 187.511 293.242 192.46C290.798 197.413 287.611 200.901 283.543 202.496L283.528 202.502L283.513 202.507C276.325 205.191 267.455 206.423 256.977 206.295H254.729C253.948 206.295 253.172 206.216 252.406 206.065L250.499 205.689L250.82 203.772L260.472 146.146L260.751 144.476ZM256.989 204.295C267.318 204.423 275.928 203.204 282.813 200.633C289.698 197.935 294.327 188.557 296.693 172.495C298.63 159.004 296.694 151.229 290.883 149.174C285.179 147.12 278.026 146.156 269.417 146.283C268.126 146.411 266.889 146.476 265.704 146.476H262.444L252.792 204.102L252.792 204.103C252.991 204.142 253.19 204.175 253.389 204.202C253.835 204.264 254.282 204.295 254.729 204.295H254.788H256.989Z" clip-rule="evenodd"/></svg>