<svg width="351" height="350" viewBox="0 0 351 350" fill="none" xmlns="http://www.w3.org/2000/svg">
<path d="M173.785 103.561H110.42V79.6329C110.42 60.3287 126.592 44.625 146.609 44.625H202.391C222.408 44.625 238.58 60.3287 238.58 79.6329V140.569C238.58 156.814 224.97 170.038 208.113 170.038H139.457C118.397 170.038 101.268 186.576 101.268 207.046V236.514H80.8135C60.7965 236.514 44.625 220.81 44.625 201.506L44.625 147.494C44.625 128.19 60.7965 112.486 80.8135 112.486H173.785H174.785V111.486V104.561V103.561H173.785ZM175.21 245.437H238.575V269.366C238.575 288.67 222.404 304.373 202.387 304.373H146.604C126.587 304.373 110.415 288.67 110.415 269.366L110.415 208.429C110.415 192.184 124.025 178.961 140.883 178.961L209.538 178.961C230.599 178.961 247.727 162.422 247.727 141.953V112.485H268.182C288.199 112.485 304.37 128.188 304.37 147.493V201.505C304.37 220.809 288.199 236.512 268.182 236.512L175.21 236.512H174.21V237.512V244.437V245.437H175.21ZM138.027 88.9424C145.658 88.9424 151.899 82.9444 151.899 75.4781C151.899 68.0119 145.658 62.0139 138.027 62.0139C130.395 62.0139 124.154 68.0119 124.154 75.4781C124.154 82.9444 130.395 88.9424 138.027 88.9424ZM210.969 260.056C203.337 260.056 197.096 266.054 197.096 273.52C197.096 280.987 203.337 286.985 210.969 286.985C218.6 286.985 224.842 280.987 224.842 273.52C224.842 266.054 218.6 260.056 210.969 260.056Z" stroke="url(#paint0_linear_373_2951)" stroke-width="2"/>
<defs>
<linearGradient id="paint0_linear_373_2951" x1="273.088" y1="60.4659" x2="52.8487" y2="399.592" gradientUnits="userSpaceOnUse">
<stop stop-color="white" stop-opacity="0.32"/>
<stop offset="0.289874" stop-color="white" stop-opacity="0.08"/>
<stop offset="1" stop-color="white" stop-opacity="0"/>
</linearGradient>
</defs>
</svg>
