<svg xmlns="http://www.w3.org/2000/svg" width="350" height="350" fill="none" viewBox="0 0 350 350"><g clip-path="url(#clip0_1980_68691)"><path stroke="url(#paint0_linear_1980_68691)" stroke-width="2" d="M303.564 138.366L303.569 138.375C310.746 151.349 309.554 167.275 300.846 179.171L300.832 179.189L300.82 179.208C300.41 179.824 299.891 180.451 299.327 181.129L299.322 181.135L297.881 182.802L297.809 182.885L297.757 182.982L252.199 267.507L251.952 267.967L252.188 268.433L278.316 320.044L278.328 320.068L278.342 320.092C278.634 320.598 278.5 321.038 278.137 321.352C277.737 321.698 277.159 321.791 276.692 321.522L276.562 321.693L150.414 284.486L150.271 284.444L150.122 284.445L127.009 284.67C113.4 284.779 100.78 277.794 93.8191 266.125L93.8176 266.123L47.146 188.431C47.1455 188.431 47.145 188.43 47.1445 188.429C39.5044 175.535 40.0788 158.693 48.2013 146.236L48.232 146.189L48.2572 146.139L92.7186 57.6504C99.5787 45.9911 111.974 38.8018 125.567 38.6919C125.568 38.6919 125.569 38.6919 125.569 38.6919L199.15 38.468L199.162 38.468L199.174 38.4676L223.832 37.7951C223.835 37.7951 223.838 37.7951 223.842 37.795C237.769 37.6906 250.606 45.1101 257.459 57.1082L257.461 57.1108L285.6 106.035L286.252 107.169L286.462 106.958L287.935 109.601L287.938 109.606L293.291 119.334L293.295 119.341L303.564 138.366ZM225.717 271.564L225.582 271.532L225.519 271.023L214.491 181.574L232.799 162.998L233.463 162.325L232.828 161.625L127.866 45.8646L127.079 44.9965L126.345 45.9104L126.133 46.1749L125.85 46.527L125.927 46.9719L141.574 137.092L115.155 162.698L114.422 163.408L115.147 164.126L223.609 271.644V271.78V271.787V272.941L224.751 272.777L224.752 272.777L225.872 273.887L225.717 272.632V271.772V271.564Z"/></g><defs><linearGradient id="paint0_linear_1980_68691" x1="276.138" x2="29.733" y1="55.191" y2="411.491" gradientUnits="userSpaceOnUse"><stop stop-color="#fff" stop-opacity=".32"/><stop offset=".29" stop-color="#fff" stop-opacity=".08"/><stop offset="1" stop-color="#fff" stop-opacity="0"/></linearGradient><clipPath id="clip0_1980_68691"><rect width="268.508" height="286.408" fill="#fff" transform="translate(40.7461 36.7959)"/></clipPath></defs></svg>