<svg width="350" height="350" viewBox="0 0 350 350" fill="none" xmlns="http://www.w3.org/2000/svg">
<path d="M123.973 270.629L225.071 206.447C242.23 234.599 259.263 262.539 276.72 291.171C225.458 284.279 175.141 277.511 123.973 270.629ZM232.562 199.868L231.732 199.31L232.562 199.868C248.509 176.199 264.469 152.541 280.431 128.882C283.306 124.622 286.185 120.367 289.065 116.11C290.422 114.105 291.779 112.099 293.135 110.093L292.837 115.967C289.923 173.324 287.01 230.683 284.095 288.04C281.765 284.941 279.795 281.75 277.821 278.512L277.821 278.511C274.152 272.499 270.486 266.485 266.82 260.471C255.169 241.361 243.518 222.25 231.796 203.181L231.796 203.181C231.307 202.386 231.351 201.932 231.478 201.575C231.557 201.353 231.691 201.116 231.887 200.827C231.983 200.686 232.085 200.543 232.199 200.385L232.204 200.377C232.318 200.22 232.441 200.047 232.562 199.868ZM86.1395 185.585L86.1383 185.586C86.0175 185.645 85.6254 185.698 85.0516 185.582C84.4974 185.469 84.0703 185.256 83.8991 185.097C81.4814 182.841 79.1863 180.472 76.7822 177.991C76.069 177.255 75.3462 176.509 74.6077 175.753C76.1416 173.489 77.6586 171.242 79.1658 169.008C83.5375 162.531 87.8277 156.175 92.2147 149.881C94.0062 147.312 96.1012 144.874 98.3951 142.744C107.243 134.531 116.211 126.438 125.195 118.36C126.768 116.946 128.343 115.438 129.904 113.944C131.09 112.808 132.268 111.679 133.433 110.605C136.182 108.069 138.984 105.705 142.052 103.803C151.206 98.128 160.698 93.0052 170.22 87.8659C173.757 85.9574 177.297 84.0466 180.826 82.1045C181.208 81.8946 181.648 81.6864 182.056 81.5606C182.501 81.4233 182.735 81.4392 182.805 81.4635C187.099 82.9375 191.348 84.5224 195.739 86.1602C196.731 86.5301 197.73 86.9028 198.738 87.2774C197.835 89.046 196.937 90.8053 196.043 92.557C192.261 99.9669 188.55 107.239 184.788 114.483C184.616 114.814 184.339 115.142 183.964 115.504C183.726 115.733 183.503 115.927 183.265 116.135C183.095 116.283 182.917 116.438 182.719 116.618C169.296 128.797 155.868 140.973 142.419 153.124L143.042 153.814L142.419 153.124C141.216 154.211 140.013 155.41 138.829 156.589C138.023 157.393 137.226 158.187 136.444 158.931C134.462 160.817 132.454 162.506 130.215 163.705L130.215 163.705C118.341 170.066 106.187 175.921 94.0134 181.786C91.3888 183.05 88.7633 184.315 86.1395 185.585ZM197.238 123.346L216.763 120.132C238.565 116.544 260.301 112.967 282.412 109.327L273.488 122.535C257.659 145.963 242.024 169.104 226.144 192.612C216.403 169.27 206.91 146.523 197.238 123.346ZM84.2947 206.315C92.4563 227.064 100.345 247.116 108.373 267.524C91.2891 268.02 74.715 268.503 57.6762 268.999C66.5504 248.102 75.2849 227.533 84.2947 206.315ZM129.207 174.777C125.09 191.907 120.992 208.574 116.921 225.124C114.814 233.69 112.715 242.226 110.625 250.778C108.441 245.221 106.246 239.642 104.055 234.073C98.913 221.005 93.7921 207.99 88.8832 195.425C97.2233 191.153 105.441 186.946 113.744 182.695C118.85 180.08 123.988 177.449 129.207 174.777ZM210.761 88.3801L210.761 88.3802C218.551 90.4173 226.35 92.4276 234.146 94.4375C238.68 95.6061 243.212 96.7745 247.742 97.9479C254.242 99.6317 260.739 101.328 267.237 103.025C268.181 103.272 269.125 103.518 270.069 103.765C260.923 105.13 251.776 106.496 242.62 107.863C226.872 110.215 211.098 112.57 195.262 114.934C196.658 112.172 198.061 109.412 199.465 106.65C202.447 100.784 205.431 94.9141 208.352 89.0176L207.456 88.5736L208.352 89.0176C208.718 88.2787 209.009 88.1728 209.186 88.1387C209.503 88.0777 209.929 88.1621 210.761 88.3801ZM292.26 101.267L226.91 83.4563L281.655 71.498L282.948 75.1271C286.015 83.7374 289.05 92.2549 292.26 101.267ZM90.0884 277.394H90.0889C92.6474 277.35 95.1919 277.245 97.7226 277.14C103.987 276.88 110.167 276.624 116.269 277.318C133.375 279.26 150.423 281.619 167.486 283.981C174.215 284.912 180.946 285.843 187.683 286.75L187.808 285.824L187.683 286.75C197.472 288.065 207.26 289.382 217.049 290.698C169.802 286.393 122.555 282.09 75.3065 277.787C80.2376 277.628 85.162 277.475 90.0884 277.394ZM57.3193 249.785L57.0919 249.686C57.0919 249.686 57.0919 249.686 57.092 249.685L57.3193 249.785ZM57.8159 246.167C61.9818 225.922 66.1521 205.64 70.4139 184.91C70.9715 185.488 71.5189 186.058 72.0591 186.62C74.3858 189.043 76.5789 191.327 78.8785 193.483C79.5382 194.102 79.7671 194.565 79.8283 194.963C79.8929 195.381 79.8008 195.91 79.4447 196.723C74.3296 208.361 69.2419 220.01 64.1547 231.658C62.0424 236.495 59.9301 241.332 57.8159 246.167ZM152.533 179.88C174.116 186.763 195.563 193.603 217.058 200.457C183.96 221.465 150.639 242.617 116.572 264.242C120.764 246.8 124.882 229.657 128.977 212.612C131.976 200.126 134.964 187.692 137.957 175.232L152.533 179.88ZM199.58 149.458C205.428 163.486 211.277 177.52 217.243 191.837C191.349 183.555 166.123 175.487 140.433 167.272C156.735 152.585 172.675 138.226 188.832 123.673C192.431 132.308 196.005 140.882 199.58 149.458ZM197.908 76.9413C210.718 75.2427 223.142 73.5955 235.455 71.9637C226.428 73.8847 217.382 75.8186 208.436 78.0922C204.662 79.051 201.562 78.3562 197.908 76.9413Z" stroke="url(#paint0_linear_373_2944)" stroke-width="2"/>
<defs>
<linearGradient id="paint0_linear_373_2944" x1="264.835" y1="83.4926" x2="79.9103" y2="384.994" gradientUnits="userSpaceOnUse">
<stop stop-color="white" stop-opacity="0.32"/>
<stop offset="0.289874" stop-color="white" stop-opacity="0.08"/>
<stop offset="1" stop-color="white" stop-opacity="0"/>
</linearGradient>
</defs>
</svg>
