<svg width="350" height="350" viewBox="0 0 350 350" fill="none" xmlns="http://www.w3.org/2000/svg">
<path d="M145.033 254.389L219.595 208.16L219.604 208.155C221.3 207.127 222.762 205.754 223.895 204.127C225.029 202.499 225.809 200.652 226.185 198.704C226.56 196.737 226.528 194.714 226.091 192.76C225.654 190.805 224.821 188.96 223.643 187.34C221.619 184.558 218.807 182.447 215.571 181.281C212.336 180.115 208.825 179.947 205.493 180.797C203.969 181.193 202.512 181.813 201.171 182.64L201.17 182.64L172.548 200.267L145.033 254.389ZM145.033 254.389C145.033 254.389 145.033 254.389 145.033 254.389C143.698 255.209 142.248 255.826 140.731 256.221L140.73 256.221C137.357 257.102 133.796 256.934 130.521 255.739C127.246 254.544 124.413 252.379 122.401 249.533L122.393 249.522C120.27 246.606 119.266 243.025 119.564 239.431C119.564 239.427 119.565 239.424 119.565 239.42L119.841 236.804L119.928 235.978L119.132 235.741L116.405 234.929L116.4 234.927C106.034 231.902 96.2484 227.159 87.4525 220.894L87.4413 220.886L83.6129 218.237L82.5222 217.483L82.0968 218.739L80.6839 222.911C79.9133 225.174 79.3095 227.49 78.8774 229.841L78.877 229.844C77.5806 236.991 77.7654 244.328 79.4199 251.401C81.0741 258.472 84.1621 265.128 88.4927 270.958C95.709 280.876 105.737 288.399 117.279 292.552C128.782 296.691 141.259 297.292 153.105 294.28H153.184L153.306 294.249C158.763 292.851 163.975 290.631 168.764 287.664L243.4 241.439C243.401 241.438 243.402 241.437 243.403 241.437C249.534 237.72 254.813 232.754 258.897 226.862C262.983 220.97 265.782 214.283 267.113 207.237L267.114 207.231C268.416 200.088 268.24 192.753 266.595 185.681C264.951 178.61 261.874 171.951 257.555 166.117C250.329 156.19 240.289 148.662 228.735 144.509C217.18 140.356 204.644 139.769 192.751 142.825C187.295 144.223 182.083 146.443 177.294 149.409C177.294 149.409 177.294 149.409 177.294 149.409L148.787 167.045C148.786 167.046 148.785 167.046 148.784 167.047C147.441 167.865 145.985 168.482 144.463 168.878C141.131 169.731 137.62 169.564 134.384 168.4C131.147 167.235 128.335 165.127 126.31 162.347L126.308 162.344C125.122 160.727 124.284 158.882 123.847 156.925C123.41 154.968 123.383 152.942 123.768 150.974L123.769 150.968C124.136 149.022 124.909 147.176 126.039 145.55C127.169 143.924 128.63 142.556 130.325 141.533L130.333 141.528L205.144 95.4536L205.147 95.4516C206.478 94.625 207.926 94.0047 209.442 93.6119C212.773 92.7552 216.284 92.921 219.519 94.0875C222.755 95.254 225.564 97.3673 227.581 100.152L227.584 100.156C229.712 103.068 230.72 106.65 230.423 110.244L230.146 112.872L230.059 113.694L230.851 113.934L233.578 114.757L233.587 114.76C243.957 117.776 253.743 122.52 262.533 128.793L262.54 128.797L262.547 128.802L266.375 131.44L267.465 132.191L267.89 130.937L269.302 126.766C269.302 126.766 269.303 126.765 269.303 126.765L145.033 254.389ZM290.71 60.8276L290.715 60.8338C297.686 70.2459 302.652 80.9878 305.307 92.3956C307.961 103.802 308.248 115.633 306.149 127.155C304.11 138.183 299.797 148.666 293.485 157.935L293.142 158.439L293.433 158.975C302.66 175.977 305.766 195.633 302.232 214.651C300.087 226.007 295.569 236.782 288.974 246.272C282.379 255.763 273.854 263.754 263.958 269.724L263.948 269.73L189.203 315.937C189.199 315.939 189.196 315.941 189.193 315.943C168.033 328.34 143.022 332.435 119.013 327.431C95.0008 322.427 73.7046 308.678 59.2589 288.855L59.2547 288.85C52.293 279.435 47.3347 268.694 44.6858 257.288C42.037 245.884 41.7537 234.057 43.8534 222.538C45.8921 211.512 50.2009 201.03 56.5064 191.758L56.8488 191.255L56.5588 190.719C47.3529 173.727 44.2473 154.092 47.7592 135.088C49.8991 123.73 54.4149 112.953 61.0105 103.462C67.6065 93.9708 76.1336 85.9805 86.033 80.0147L86.0331 80.0148L86.0429 80.0087L160.788 33.7842C181.939 21.3754 206.947 17.2701 230.955 22.266C254.967 27.2626 276.265 41.0065 290.71 60.8276ZM261.493 78.7179C254.272 68.7873 244.233 61.2565 232.678 57.103C221.122 52.9489 208.583 52.365 196.691 55.4272C191.236 56.8305 186.025 59.0502 181.234 62.011L181.233 62.0115L106.586 108.237C106.585 108.238 106.584 108.239 106.582 108.24C100.46 111.957 95.1856 116.918 91.1016 122.803C87.0168 128.688 84.2138 135.366 82.874 142.404L82.8732 142.408C81.5448 149.548 81.696 156.884 83.3173 163.962C84.9385 171.04 87.9951 177.71 92.2979 183.559C99.5189 193.488 109.556 201.018 121.109 205.174C132.663 209.33 145.198 209.918 157.09 206.863L157.091 206.862C162.546 205.455 167.756 203.232 172.546 200.268L261.493 78.7179Z" stroke="url(#paint0_linear_373_2937)" stroke-width="2"/>
<defs>
<linearGradient id="paint0_linear_373_2937" x1="275.597" y1="39.2227" x2="-0.3768" y2="403.775" gradientUnits="userSpaceOnUse">
<stop stop-color="white" stop-opacity="0.32"/>
<stop offset="0.289874" stop-color="white" stop-opacity="0.08"/>
<stop offset="1" stop-color="white" stop-opacity="0"/>
</linearGradient>
</defs>
</svg>
