<svg xmlns="http://www.w3.org/2000/svg" width="350" height="350" fill="none" viewBox="0 0 350 350"><g clip-path="url(#clip0_219_39153)"><path stroke="url(#paint0_linear_219_39153)" stroke-width="2" d="M291.031 57.0289L291.037 57.0376L291.043 57.0461C305.307 76.6923 310.959 101.452 306.383 125.677L306.381 125.687L306.38 125.698C304.498 136.986 300.198 147.74 293.742 157.424L293.409 157.924L293.694 158.453C303.108 175.936 306.072 196.119 302.571 215.776L302.57 215.781C298.536 239.177 284.551 259.889 264.376 272.532L264.37 272.535L189.524 320.165C147.54 346.809 89.3404 334.445 59.6927 292.129L59.6882 292.123C45.6905 272.472 40.0374 247.705 44.3442 223.749L44.3443 223.749L44.3464 223.736C46.2277 212.448 50.5283 201.694 56.9841 192.01L57.3173 191.51L57.0325 190.981C47.6182 173.498 44.6544 153.315 48.1549 133.658L48.1558 133.653C52.1896 110.257 66.1754 89.5449 86.3497 76.9023L86.3497 76.9023L86.3577 76.8972L161.202 28.9971C203.189 2.35143 261.657 14.7199 291.031 57.0289ZM153.569 297.755L153.587 297.75L153.606 297.744C159.113 296.092 164.376 293.88 169.1 290.824C169.101 290.823 169.102 290.822 169.103 290.822L243.935 243.201C243.937 243.2 243.938 243.2 243.939 243.199C256.423 235.429 265.301 222.394 267.799 207.957L267.8 207.951C270.291 193.007 266.974 177.767 258.103 165.565C243.712 144.816 217.977 135.133 193.35 141.497L193.331 141.502L193.312 141.507C187.805 143.16 182.543 145.371 177.818 148.428C177.817 148.429 177.816 148.429 177.815 148.43L149.254 166.654C148.016 167.395 146.509 167.904 144.87 168.451C137.928 170.237 130.755 167.662 126.651 161.764C124.347 158.435 123.325 154.078 124.09 149.998C124.854 145.927 127.134 142.621 130.723 140.314C130.724 140.313 130.724 140.313 130.725 140.313L205.285 92.6919C206.524 91.9512 208.03 91.4424 209.669 90.8959C216.609 89.1105 223.779 91.6822 227.883 97.5759C229.934 100.656 230.959 104.509 230.707 108.086L230.437 110.794L230.355 111.614L231.144 111.851L233.859 112.666C233.86 112.666 233.861 112.666 233.863 112.667C244.371 115.9 254.068 120.749 262.96 127.216L262.967 127.221L266.777 129.943L267.901 130.745L268.313 129.427L269.668 125.09C269.669 125.087 269.67 125.084 269.671 125.081C270.501 122.59 271.053 120.378 271.6 117.915L271.606 117.889L271.611 117.862C274.101 102.918 270.784 87.6784 261.914 75.4764C247.522 54.7274 221.787 45.0441 197.16 51.4084L197.141 51.4133L197.123 51.4188C191.616 53.0709 186.354 55.2823 181.63 58.3387C181.628 58.3396 181.627 58.3405 181.625 58.3413L106.793 105.962C106.792 105.963 106.791 105.963 106.79 105.964C94.3072 113.732 85.4304 126.766 82.9304 141.201C80.1601 156.169 83.7652 171.407 92.3493 183.592C106.739 204.344 132.475 214.03 157.103 207.667C162.642 206.282 167.914 204.064 172.639 201.007C172.64 201.006 172.641 201.006 172.642 201.005L201.202 182.781C202.441 182.04 203.947 181.531 205.587 180.985C212.529 179.199 219.702 181.773 223.806 187.671C226.11 191 227.131 195.357 226.366 199.437C225.603 203.508 223.322 206.815 219.732 209.123L145.171 256.743C143.933 257.484 142.427 257.993 140.787 258.539C133.875 260.317 126.694 257.505 122.573 251.587C120.523 248.507 119.497 244.654 119.749 241.077L120.02 238.369L120.102 237.549L119.312 237.312L116.597 236.497C116.596 236.497 116.595 236.497 116.594 236.496C106.086 233.263 96.3884 228.414 87.4969 221.947L87.4899 221.942L83.6795 219.22L82.5557 218.418L82.1438 219.736L80.7829 224.091L80.7704 224.131L80.7612 224.172C80.4906 225.39 80.2198 226.541 79.9475 227.698L79.9472 227.699C79.6753 228.855 79.4018 230.017 79.1282 231.248L79.1224 231.275L79.118 231.301C76.6273 246.245 79.9446 261.484 88.8147 273.686C103.206 294.435 128.941 304.119 153.569 297.755Z"/></g><defs><linearGradient id="paint0_linear_219_39153" x1="276.006" x2="-11.077" y1="34.631" y2="402.063" gradientUnits="userSpaceOnUse"><stop stop-color="#fff" stop-opacity=".32"/><stop offset=".29" stop-color="#fff" stop-opacity=".08"/><stop offset="1" stop-color="#fff" stop-opacity="0"/></linearGradient><clipPath id="clip0_219_39153"><rect width="267" height="321.162" fill="#fff" transform="translate(42 14)"/></clipPath></defs></svg>