<svg width="100" height="24" viewBox="0 0 100 24" fill="none" xmlns="http://www.w3.org/2000/svg">
<path d="M13.0712 0C6.22769 0 0.699219 5.49518 0.699219 12.2975C0.699219 17.7393 4.24173 22.3542 9.15295 23.9814C9.7702 24.0881 10.0117 23.7146 10.0117 23.3945C10.0117 23.1011 9.9849 22.1408 9.9849 21.1004C6.87178 21.6606 6.06667 20.3535 5.82513 19.66C5.69094 19.3132 5.07369 18.2195 4.56378 17.926C4.13438 17.686 3.51713 17.1258 4.53694 17.0991C5.50308 17.0724 6.20085 17.9794 6.44239 18.3528C7.56955 20.2201 9.34081 19.6866 10.0386 19.3665C10.1459 18.5662 10.468 18.0327 10.8169 17.7126C8.05262 17.3925 5.18104 16.3522 5.18104 11.6306C5.18104 10.2968 5.66411 9.17642 6.44239 8.3228C6.3082 8.00269 5.87881 6.74894 6.57657 5.06837C6.57657 5.06837 7.62323 4.74827 9.9849 6.32213C10.9779 6.05537 12.0245 5.89532 13.0712 5.89532C14.1178 5.89532 15.1645 6.0287 16.1575 6.32213C18.5191 4.72159 19.5658 5.06837 19.5658 5.06837C20.2367 6.74894 19.8073 8.02937 19.7 8.3228C20.4783 9.17642 20.9613 10.2701 20.9613 11.6306C20.9613 16.3522 18.0629 17.3925 15.2987 17.7126C15.7549 18.0861 16.1306 18.833 16.1306 19.9801C16.1306 21.634 16.1038 22.9411 16.1038 23.3679C16.1038 23.688 16.3453 24.0881 16.9626 23.9547C21.847 22.3275 25.3895 17.7126 25.3895 12.2708C25.47 5.49518 19.9147 0 13.0712 0Z" fill="white"/>
<path d="M60.1701 17.8994H60.1433C60.1701 17.8994 60.1701 17.8994 60.1701 17.8994ZM60.1701 17.8994C60.0359 17.8994 59.6871 17.9794 59.3113 17.9794C58.1305 17.9794 57.7279 17.4459 57.7279 16.7523V12.0841H60.1165C60.2506 12.0841 60.358 11.9774 60.358 11.7906V9.25644C60.358 9.12307 60.2506 9.01636 60.1165 9.01636H57.7279V5.89531C57.7279 5.78861 57.6474 5.70858 57.5132 5.70858H54.2928C54.1586 5.70858 54.0781 5.78861 54.0781 5.89531V9.12307C54.0781 9.12307 52.441 9.5232 52.3337 9.54988C52.2263 9.57655 52.1458 9.68325 52.1458 9.78996V11.8173C52.1458 11.9774 52.2531 12.1107 52.3873 12.1107H54.0512V16.9924C54.0512 20.6203 56.6008 20.9937 58.3452 20.9937C59.1503 20.9937 60.0896 20.7536 60.2506 20.6736C60.3312 20.6469 60.3848 20.5402 60.3848 20.4335V18.1928C60.4117 18.0327 60.3043 17.926 60.1701 17.8994ZM95.649 14.6449C95.649 11.9507 94.5486 11.6039 93.3946 11.7106C92.509 11.764 91.7844 12.2174 91.7844 12.2174V17.4459C91.7844 17.4459 92.509 17.9527 93.6093 17.9794C95.1659 18.0327 95.649 17.4725 95.649 14.6449ZM99.2988 14.4048C99.2988 19.4999 97.6349 20.9671 94.7365 20.9671C92.2943 20.9671 90.9524 19.74 90.9524 19.74C90.9524 19.74 90.8988 20.4335 90.8182 20.5136C90.7646 20.5936 90.7109 20.6203 90.6036 20.6203H88.3761C88.215 20.6203 88.0809 20.5136 88.0809 20.3802L88.1077 3.84129C88.1077 3.70791 88.215 3.60121 88.3492 3.60121H91.5429C91.677 3.60121 91.7844 3.70791 91.7844 3.84129L91.7576 9.4165C91.7576 9.4165 92.9921 8.61623 94.7902 8.61623H94.817C96.6419 8.61623 99.2988 9.28312 99.2988 14.4048ZM86.2291 9.01636H83.0891C82.9281 9.01636 82.8476 9.12307 82.8476 9.30979V17.3925C82.8476 17.3925 82.0156 17.9794 80.8885 17.9794C79.7613 17.9794 79.4393 17.4725 79.4393 16.3522V9.28312C79.4393 9.14974 79.3319 9.04304 79.1977 9.04304H76.0041C75.8699 9.04304 75.7626 9.14974 75.7626 9.28312V16.8857C75.7626 20.1668 77.6143 20.9671 80.137 20.9671C82.2303 20.9671 83.9211 19.82 83.9211 19.82C83.9211 19.82 84.0016 20.4069 84.0284 20.4869C84.0553 20.5669 84.1626 20.6203 84.27 20.6203H86.2828C86.4438 20.6203 86.5243 20.5136 86.5243 20.3802L86.5511 9.25644C86.5243 9.14974 86.3901 9.01636 86.2291 9.01636ZM50.7503 9.01636H47.5566C47.4224 9.01636 47.3151 9.14974 47.3151 9.30979V20.2201C47.3151 20.5136 47.503 20.6203 47.7713 20.6203H50.6429C50.9381 20.6203 51.0186 20.4869 51.0186 20.2201V9.25644C51.0186 9.12307 50.8844 9.01636 50.7503 9.01636ZM49.1937 3.97467C48.0397 3.97467 47.1272 4.88164 47.1272 6.02869C47.1272 7.17574 48.0397 8.08271 49.1937 8.08271C50.3209 8.08271 51.2333 7.17574 51.2333 6.02869C51.2333 4.88164 50.3209 3.97467 49.1937 3.97467ZM73.884 3.60121H70.7172C70.583 3.60121 70.4756 3.70791 70.4756 3.84129V9.92333H65.5107V3.86796C65.5107 3.73458 65.4034 3.62788 65.2692 3.62788H62.0756C61.9414 3.62788 61.834 3.73458 61.834 3.86796V20.4069C61.834 20.5402 61.9682 20.6469 62.0756 20.6469H65.2692C65.4034 20.6469 65.5107 20.5402 65.5107 20.4069V13.3111H70.4756L70.4488 20.3802C70.4488 20.5136 70.5561 20.6203 70.6903 20.6203H73.884C74.0181 20.6203 74.1255 20.5136 74.1255 20.3802V3.84129C74.1255 3.73458 74.0181 3.60121 73.884 3.60121ZM45.6243 10.937V19.4732C45.6243 19.5266 45.5975 19.6333 45.5438 19.6599C45.5438 19.6599 43.6652 20.9937 40.5789 20.9937C36.8486 20.9937 32.4473 19.82 32.4473 12.1908C32.4473 4.53485 36.3118 2.96099 40.069 2.98767C43.3432 2.98767 44.6582 3.70791 44.8461 3.84129C44.8997 3.92131 44.9266 3.97466 44.9266 4.05469L44.3093 6.69558C44.3093 6.82896 44.1751 6.98901 44.0141 6.93566C43.4774 6.77561 42.6723 6.4555 40.7668 6.4555C38.5662 6.4555 36.2045 7.06904 36.2045 12.004C36.2045 16.939 38.4588 17.4992 40.069 17.4992C41.4377 17.4992 41.9476 17.3392 41.9476 17.3392V13.9247H39.747C39.586 13.9247 39.4518 13.818 39.4518 13.6846V10.937C39.4518 10.8036 39.5591 10.6969 39.747 10.6969H45.356C45.517 10.6703 45.6243 10.8036 45.6243 10.937Z" fill="white"/>
</svg>
