<svg width="179" height="34" viewBox="0 0 179 34" fill="none" xmlns="http://www.w3.org/2000/svg">
<mask id="path-1-outside-1_5039_45404" maskUnits="userSpaceOnUse" x="0" y="0" width="179" height="34" fill="black">
<rect fill="white" width="179" height="34"/>
<path d="M1 13.8C1 9.31958 1 7.07937 1.87195 5.36808C2.63893 3.86278 3.86278 2.63893 5.36808 1.87195C7.07937 1 9.31958 1 13.8 1H165.2C169.68 1 171.921 1 173.632 1.87195C175.137 2.63893 176.361 3.86278 177.128 5.36808C178 7.07937 178 9.31958 178 13.8V20.2C178 24.6804 178 26.9206 177.128 28.6319C176.361 30.1372 175.137 31.3611 173.632 32.1281C171.921 33 169.68 33 165.2 33H13.8C9.31958 33 7.07937 33 5.36808 32.1281C3.86278 31.3611 2.63893 30.1372 1.87195 28.6319C1 26.9206 1 24.6804 1 20.2V13.8Z"/>
</mask>
<path d="M1 13.8C1 9.31958 1 7.07937 1.87195 5.36808C2.63893 3.86278 3.86278 2.63893 5.36808 1.87195C7.07937 1 9.31958 1 13.8 1H165.2C169.68 1 171.921 1 173.632 1.87195C175.137 2.63893 176.361 3.86278 177.128 5.36808C178 7.07937 178 9.31958 178 13.8V20.2C178 24.6804 178 26.9206 177.128 28.6319C176.361 30.1372 175.137 31.3611 173.632 32.1281C171.921 33 169.68 33 165.2 33H13.8C9.31958 33 7.07937 33 5.36808 32.1281C3.86278 31.3611 2.63893 30.1372 1.87195 28.6319C1 26.9206 1 24.6804 1 20.2V13.8Z" fill="#1D1D21"/>
<path d="M5.36808 32.1281L5.82207 31.237L5.36808 32.1281ZM177.128 28.6319L176.237 28.1779L177.128 28.6319ZM173.632 32.1281L173.178 31.237L173.632 32.1281ZM173.632 1.87195L173.178 2.76295L173.632 1.87195ZM177.128 5.36808L178.019 4.91409L177.128 5.36808ZM5.36808 1.87195L4.91409 0.980941L5.36808 1.87195ZM1.87195 5.36808L0.980941 4.91409L1.87195 5.36808ZM13.8 2H165.2V0H13.8V2ZM177 13.8V20.2H179V13.8H177ZM165.2 32H13.8V34H165.2V32ZM2 20.2V13.8H0V20.2H2ZM13.8 32C11.5433 32 9.9109 31.9992 8.62705 31.8943C7.35487 31.7904 6.51325 31.5892 5.82207 31.237L4.91409 33.0191C5.9342 33.5388 7.06833 33.7736 8.46418 33.8877C9.84837 34.0008 11.5763 34 13.8 34V32ZM0 20.2C0 22.4237 -0.000777721 24.1516 0.112315 25.5358C0.226361 26.9317 0.461167 28.0658 0.980941 29.0859L2.76295 28.1779C2.41078 27.4868 2.20961 26.6451 2.10567 25.373C2.00078 24.0891 2 22.4567 2 20.2H0ZM5.82207 31.237C4.50493 30.5659 3.43407 29.4951 2.76295 28.1779L0.980941 29.0859C1.8438 30.7794 3.22063 32.1562 4.91409 33.0191L5.82207 31.237ZM177 20.2C177 22.4567 176.999 24.0891 176.894 25.373C176.79 26.6451 176.589 27.4868 176.237 28.1779L178.019 29.0859C178.539 28.0658 178.774 26.9317 178.888 25.5358C179.001 24.1516 179 22.4237 179 20.2H177ZM165.2 34C167.424 34 169.152 34.0008 170.536 33.8877C171.932 33.7736 173.066 33.5388 174.086 33.0191L173.178 31.237C172.487 31.5892 171.645 31.7904 170.373 31.8943C169.089 31.9992 167.457 32 165.2 32V34ZM176.237 28.1779C175.566 29.4951 174.495 30.5659 173.178 31.237L174.086 33.0191C175.779 32.1562 177.156 30.7794 178.019 29.0859L176.237 28.1779ZM165.2 2C167.457 2 169.089 2.00078 170.373 2.10567C171.645 2.20961 172.487 2.41078 173.178 2.76295L174.086 0.980941C173.066 0.461167 171.932 0.226361 170.536 0.112315C169.152 -0.000777721 167.424 0 165.2 0V2ZM179 13.8C179 11.5763 179.001 9.84837 178.888 8.46418C178.774 7.06833 178.539 5.9342 178.019 4.91409L176.237 5.82207C176.589 6.51325 176.79 7.35487 176.894 8.62705C176.999 9.9109 177 11.5433 177 13.8H179ZM173.178 2.76295C174.495 3.43407 175.566 4.50493 176.237 5.82207L178.019 4.91409C177.156 3.22063 175.779 1.8438 174.086 0.980941L173.178 2.76295ZM13.8 0C11.5763 0 9.84837 -0.000777721 8.46418 0.112315C7.06833 0.226361 5.9342 0.461167 4.91409 0.980941L5.82207 2.76295C6.51325 2.41078 7.35487 2.20961 8.62705 2.10567C9.9109 2.00078 11.5433 2 13.8 2V0ZM2 13.8C2 11.5433 2.00078 9.9109 2.10567 8.62705C2.20961 7.35487 2.41078 6.51325 2.76295 5.82207L0.980941 4.91409C0.461167 5.9342 0.226361 7.06833 0.112315 8.46418C-0.000777721 9.84837 0 11.5763 0 13.8H2ZM4.91409 0.980941C3.22063 1.8438 1.8438 3.22063 0.980941 4.91409L2.76295 5.82207C3.43407 4.50493 4.50493 3.43407 5.82207 2.76295L4.91409 0.980941Z" fill="#414146" mask="url(#path-1-outside-1_5039_45404)"/>
<path d="M13.4148 22H10.1186V11.8182H13.5192C14.5168 11.8182 15.3736 12.022 16.0895 12.4297C16.8054 12.834 17.3539 13.4157 17.7351 14.1747C18.1196 14.9304 18.3118 15.8369 18.3118 16.8942C18.3118 17.9548 18.1179 18.8662 17.7301 19.6286C17.3456 20.3909 16.7888 20.9775 16.0597 21.3885C15.3305 21.7962 14.4489 22 13.4148 22ZM11.6548 20.6577H13.3303C14.1058 20.6577 14.7505 20.5118 15.2642 20.2202C15.7779 19.9252 16.1624 19.4993 16.4176 18.9425C16.6728 18.3823 16.8004 17.6996 16.8004 16.8942C16.8004 16.0954 16.6728 15.4176 16.4176 14.8608C16.1657 14.304 15.7895 13.8814 15.2891 13.593C14.7886 13.3047 14.1671 13.1605 13.4247 13.1605H11.6548V20.6577ZM23.331 22.1541C22.5786 22.1541 21.9307 21.9934 21.3871 21.6719C20.8469 21.3471 20.4292 20.8913 20.1343 20.3047C19.8426 19.7147 19.6968 19.0237 19.6968 18.2315C19.6968 17.4493 19.8426 16.7599 20.1343 16.1634C20.4292 15.5668 20.8402 15.1011 21.3672 14.7663C21.8975 14.4316 22.5173 14.2642 23.2266 14.2642C23.6575 14.2642 24.0751 14.3355 24.4794 14.478C24.8838 14.6205 25.2467 14.8442 25.5682 15.1491C25.8897 15.4541 26.1433 15.8501 26.3289 16.3374C26.5145 16.8213 26.6073 17.4096 26.6073 18.1023V18.6293H20.537V17.5156H25.1506C25.1506 17.1245 25.0711 16.7782 24.912 16.4766C24.7529 16.1716 24.5292 15.9313 24.2408 15.7557C23.9558 15.58 23.621 15.4922 23.2365 15.4922C22.8189 15.4922 22.4543 15.5949 22.1428 15.8004C21.8346 16.0026 21.5959 16.2678 21.4269 16.5959C21.2612 16.9207 21.1783 17.2737 21.1783 17.6548V18.5249C21.1783 19.0353 21.2678 19.4695 21.4468 19.8274C21.6291 20.1854 21.8826 20.4588 22.2074 20.6477C22.5322 20.8333 22.9117 20.9261 23.3459 20.9261C23.6276 20.9261 23.8845 20.8864 24.1165 20.8068C24.3485 20.724 24.549 20.6013 24.7181 20.4389C24.8871 20.2765 25.0164 20.076 25.1059 19.8374L26.5128 20.0909C26.4001 20.5052 26.1979 20.8681 25.9063 21.1797C25.6179 21.4879 25.255 21.7282 24.8175 21.9006C24.3833 22.0696 23.8878 22.1541 23.331 22.1541ZM28.1936 24.8636V14.3636H29.6453V15.6016H29.7696C29.8558 15.4425 29.9801 15.2585 30.1425 15.0497C30.3049 14.8409 30.5303 14.6586 30.8186 14.5028C31.107 14.3438 31.4881 14.2642 31.9621 14.2642C32.5785 14.2642 33.1287 14.42 33.6126 14.7315C34.0965 15.0431 34.476 15.4922 34.7511 16.0788C35.0295 16.6655 35.1687 17.3714 35.1687 18.1967C35.1687 19.022 35.0312 19.7296 34.7561 20.3196C34.481 20.9062 34.1032 21.3587 33.6226 21.6768C33.142 21.9917 32.5935 22.1491 31.977 22.1491C31.513 22.1491 31.1335 22.0713 30.8385 21.9155C30.5468 21.7597 30.3181 21.5774 30.1524 21.3686C29.9867 21.1598 29.8591 20.9742 29.7696 20.8118H29.6801V24.8636H28.1936ZM29.6503 18.1818C29.6503 18.7187 29.7282 19.1894 29.8839 19.5938C30.0397 19.9981 30.2651 20.3146 30.5601 20.5433C30.8551 20.7687 31.2163 20.8814 31.6439 20.8814C32.088 20.8814 32.4592 20.7637 32.7575 20.5284C33.0558 20.2898 33.2812 19.9666 33.4337 19.5589C33.5894 19.1513 33.6673 18.6922 33.6673 18.1818C33.6673 17.678 33.5911 17.2256 33.4386 16.8246C33.2895 16.4235 33.0641 16.107 32.7625 15.875C32.4642 15.643 32.0913 15.527 31.6439 15.527C31.213 15.527 30.8484 15.638 30.5501 15.8601C30.2552 16.0821 30.0314 16.392 29.879 16.7898C29.7265 17.1875 29.6503 17.6515 29.6503 18.1818ZM38.2577 11.8182V22H36.7712V11.8182H38.2577ZM43.4112 22.1541C42.6953 22.1541 42.0705 21.9901 41.5369 21.6619C41.0033 21.3338 40.589 20.8748 40.294 20.2848C39.999 19.6948 39.8515 19.0054 39.8515 18.2166C39.8515 17.4245 39.999 16.7318 40.294 16.1385C40.589 15.5452 41.0033 15.0845 41.5369 14.7564C42.0705 14.4283 42.6953 14.2642 43.4112 14.2642C44.1271 14.2642 44.7518 14.4283 45.2855 14.7564C45.8191 15.0845 46.2334 15.5452 46.5284 16.1385C46.8233 16.7318 46.9708 17.4245 46.9708 18.2166C46.9708 19.0054 46.8233 19.6948 46.5284 20.2848C46.2334 20.8748 45.8191 21.3338 45.2855 21.6619C44.7518 21.9901 44.1271 22.1541 43.4112 22.1541ZM43.4161 20.9062C43.8802 20.9062 44.2646 20.7836 44.5696 20.5384C44.8745 20.2931 45.0999 19.9666 45.2457 19.5589C45.3948 19.1513 45.4694 18.7022 45.4694 18.2116C45.4694 17.7244 45.3948 17.277 45.2457 16.8693C45.0999 16.4583 44.8745 16.1286 44.5696 15.88C44.2646 15.6314 43.8802 15.5071 43.4161 15.5071C42.9488 15.5071 42.561 15.6314 42.2528 15.88C41.9479 16.1286 41.7208 16.4583 41.5717 16.8693C41.4259 17.277 41.3529 17.7244 41.3529 18.2116C41.3529 18.7022 41.4259 19.1513 41.5717 19.5589C41.7208 19.9666 41.9479 20.2931 42.2528 20.5384C42.561 20.7836 42.9488 20.9062 43.4161 20.9062ZM49.247 24.8636C49.0249 24.8636 48.8227 24.8454 48.6404 24.8089C48.4581 24.7758 48.3223 24.7393 48.2328 24.6996L48.5907 23.4815C48.8625 23.5545 49.1044 23.5859 49.3166 23.576C49.5287 23.5661 49.716 23.4865 49.8784 23.3374C50.0441 23.1882 50.1899 22.9446 50.3159 22.6065L50.4998 22.0994L47.7058 14.3636H49.2967L51.2306 20.2898H51.3102L53.2441 14.3636H54.84L51.693 23.0192C51.5472 23.4169 51.3616 23.7533 51.1362 24.0284C50.9108 24.3068 50.6423 24.5156 50.3308 24.6548C50.0192 24.794 49.658 24.8636 49.247 24.8636ZM61.4716 22L59.2245 14.3636H60.7607L62.2572 19.9716H62.3317L63.8331 14.3636H65.3694L66.8608 19.9467H66.9354L68.4219 14.3636H69.9581L67.716 22H66.1996L64.6485 16.4865H64.5341L62.983 22H61.4716ZM71.3058 22V14.3636H72.7923V22H71.3058ZM72.0565 13.1854C71.798 13.1854 71.576 13.0992 71.3904 12.9268C71.2081 12.7512 71.1169 12.5424 71.1169 12.3004C71.1169 12.0552 71.2081 11.8464 71.3904 11.674C71.576 11.4983 71.798 11.4105 72.0565 11.4105C72.3151 11.4105 72.5355 11.4983 72.7178 11.674C72.9034 11.8464 72.9962 12.0552 72.9962 12.3004C72.9962 12.5424 72.9034 12.7512 72.7178 12.9268C72.5355 13.0992 72.3151 13.1854 72.0565 13.1854ZM78.2938 14.3636V15.5568H74.1226V14.3636H78.2938ZM75.2412 12.5341H76.7277V19.7578C76.7277 20.0462 76.7708 20.2633 76.857 20.4091C76.9432 20.5516 77.0542 20.6494 77.1901 20.7024C77.3293 20.7521 77.4801 20.777 77.6425 20.777C77.7618 20.777 77.8662 20.7687 77.9557 20.7521C78.0452 20.7356 78.1148 20.7223 78.1645 20.7124L78.433 21.9403C78.3468 21.9735 78.2242 22.0066 78.0651 22.0398C77.906 22.0762 77.7071 22.0961 77.4685 22.0994C77.0774 22.1061 76.7128 22.0365 76.3748 21.8906C76.0367 21.7448 75.7633 21.5194 75.5544 21.2145C75.3456 20.9096 75.2412 20.5268 75.2412 20.0661V12.5341ZM81.5257 17.4659V22H80.0392V11.8182H81.5058V15.6065H81.6003C81.7793 15.1955 82.0527 14.8691 82.4206 14.6271C82.7885 14.3852 83.2691 14.2642 83.8624 14.2642C84.386 14.2642 84.8434 14.3719 85.2345 14.5874C85.6289 14.8028 85.9339 15.1243 86.1493 15.5518C86.368 15.9761 86.4774 16.5064 86.4774 17.1428V22H84.9909V17.3217C84.9909 16.7616 84.8467 16.3274 84.5584 16.0192C84.27 15.7076 83.869 15.5518 83.3553 15.5518C83.0039 15.5518 82.6891 15.6264 82.4107 15.7756C82.1356 15.9247 81.9185 16.1435 81.7594 16.4318C81.6036 16.7169 81.5257 17.0616 81.5257 17.4659Z" fill="#EDEDF0"/>
<path d="M116.199 21.3722C117.442 21.3722 118.07 20.7228 118.344 20.2807H118.467C118.521 20.7505 118.849 21.1926 119.491 21.1926H120.707V19.8109H120.393C120.174 19.8109 120.065 19.6866 120.065 19.4931V13.9526H118.453V14.8369H118.33C118.016 14.3947 117.36 13.773 116.158 13.773C114.246 13.773 112.825 15.3757 112.825 17.5726C112.825 19.7695 114.273 21.3722 116.199 21.3722ZM116.486 19.7971C115.352 19.7971 114.464 18.9543 114.464 17.5864C114.464 16.2462 115.325 15.3343 116.472 15.3343C117.565 15.3343 118.48 16.1495 118.48 17.5864C118.48 18.8161 117.702 19.7971 116.486 19.7971Z" fill="#EDEDF0"/>
<path d="M121.658 24H123.27V20.2807H123.393C123.694 20.7228 124.336 21.3722 125.606 21.3722C127.518 21.3722 128.912 19.7418 128.912 17.5726C128.912 15.3896 127.423 13.773 125.497 13.773C124.267 13.773 123.666 14.45 123.38 14.8231H123.257V13.9526H121.658V24ZM125.265 19.8386C124.158 19.8386 123.243 19.0095 123.243 17.5726C123.243 16.3429 124.022 15.3067 125.237 15.3067C126.371 15.3067 127.259 16.2047 127.259 17.5726C127.259 18.9128 126.398 19.8386 125.265 19.8386Z" fill="#EDEDF0"/>
<path d="M129.743 24H131.355V20.2807H131.478C131.779 20.7228 132.421 21.3722 133.691 21.3722C135.603 21.3722 136.864 19.7418 136.864 17.5726C136.864 15.3896 135.508 13.773 133.582 13.773C132.352 13.773 131.751 14.45 131.465 14.8231H131.342V13.9526H129.743V24ZM133.35 19.8386C132.243 19.8386 131.328 19.0095 131.328 17.5726C131.328 16.3429 132.107 15.3067 133.322 15.3067C134.456 15.3067 135.344 16.2047 135.344 17.5726C135.344 18.9128 134.483 19.8386 133.35 19.8386Z" fill="#EDEDF0"/>
<path d="M138.995 21.3607H141.276L142.573 15.682H142.655L143.953 21.3607H146.221L148.036 14.1207H146.412L145.114 19.8132H144.991L143.693 14.1207H141.549L140.238 19.8132H140.115L138.831 14.1207H137.11L138.995 21.3607Z" fill="#EDEDF0"/>
<path d="M148.853 21.3607H150.465V17.7822C150.465 16.4143 151.093 15.5715 152.268 15.5715H152.978V13.9411H152.445C151.53 13.9411 150.833 14.5767 150.56 15.1846H150.451V14.1207H148.853V21.3607Z" fill="#EDEDF0"/>
<path d="M160.977 21.3607H162.234V19.91H160.99C160.499 19.91 160.294 19.6889 160.294 19.1777V15.5577H162.315V14.1207H160.294V12.0897H158.764V14.1207H157.425V15.5577H158.668V19.1915C158.668 20.7252 159.584 21.3607 160.977 21.3607Z" fill="#EDEDF0"/>
<path d="M166.558 21.3722C168.047 21.3722 169.358 20.6261 169.822 19.1201L168.347 18.7608C168.088 19.5622 167.336 19.9767 166.544 19.9767C165.369 19.9767 164.591 19.203 164.577 17.9871H170V17.5312C170 15.3757 168.675 13.773 166.489 13.773C164.563 13.773 162.911 15.3067 162.911 17.5864C162.911 19.7971 164.372 21.3722 166.558 21.3722ZM164.591 16.7989C164.686 15.9284 165.465 15.1961 166.489 15.1961C167.473 15.1961 168.279 15.8179 168.361 16.7989H164.591Z" fill="#EDEDF0"/>
<path fill-rule="evenodd" clip-rule="evenodd" d="M156.709 21.3607H155.097V15.5577H153.84V14.1207H156.709V21.3607Z" fill="#EDEDF0"/>
<path d="M155.783 13.116C156.37 13.116 156.807 12.6738 156.807 12.0935C156.807 11.527 156.37 11.0849 155.783 11.0849C155.195 11.0849 154.758 11.527 154.758 12.0935C154.758 12.6738 155.195 13.116 155.783 13.116Z" fill="#EDEDF0"/>
<path d="M108.073 19.5854V22.7806H100.191C97.894 22.7806 95.8887 21.4956 94.8159 19.5854C94.6599 19.3078 94.5234 19.0164 94.4089 18.714C94.1842 18.1215 94.0429 17.4856 94 16.8222V15.9584C94.0093 15.8105 94.024 15.6638 94.0432 15.5189C94.0824 15.2214 94.1416 14.9304 94.2194 14.6475C94.9558 11.9653 97.3502 10 100.191 10C103.031 10 105.425 11.9653 106.161 14.6475H102.791C102.237 13.7732 101.28 13.1951 100.191 13.1951C99.1013 13.1951 98.1435 13.7732 97.5902 14.6475C97.4216 14.9133 97.2907 15.2063 97.205 15.5189C97.1288 15.796 97.0882 16.0882 97.0882 16.3903C97.0882 17.3061 97.4622 18.1316 98.0618 18.714C98.6174 19.2546 99.3664 19.5854 100.191 19.5854H108.073Z" fill="#FD366E"/>
<path d="M108.073 15.5189V18.7141H102.319C102.919 18.1317 103.293 17.3062 103.293 16.3903C103.293 16.0882 103.252 15.796 103.176 15.5189H108.073Z" fill="#FD366E"/>
</svg>
