<svg width="49" height="48" viewBox="0 0 49 48" fill="none" xmlns="http://www.w3.org/2000/svg">
    <g clip-path="url(#clip0_50_1358)">
        <path
            d="M39.1305 43.2H9.39437C7.02778 43.2 5.59302 40.5879 6.86258 38.5906L18.9642 19.5526V10.2108H18.6826C17.578 10.2108 16.6826 9.31536 16.6826 8.21079V8C16.6826 6.89543 17.578 6 18.6826 6H29.3451C30.4497 6 31.3451 6.89543 31.3451 8V8.21079C31.3451 9.31536 30.4497 10.2108 29.3451 10.2108H28.9853V19.5526L41.6275 38.5372C42.9552 40.5309 41.5259 43.2 39.1305 43.2Z"
            stroke="#FD366E" stroke-width="1.2" stroke-linecap="round" />
        <path
            d="M41.4643 38.4897L33.0755 26.4H14.1326L6.69933 38.6431C5.48549 40.6423 6.92478 43.2 9.26368 43.2H38.9995C41.421 43.2 42.8447 40.4792 41.4643 38.4897Z"
            fill="url(#paint0_linear_50_1358)" />
        <path d="M14.7324 26.4H22.5324M33.3324 26.4H28.6824" stroke="#FD366E" stroke-width="1.2"
            stroke-linecap="round" />
        <circle cx="18.9326" cy="34.2" r="2.4" fill="url(#paint1_linear_50_1358)" stroke="white"
            stroke-width="1.2" stroke-linecap="round" />
        <path
            d="M25.5322 23.3996C27.1889 23.3996 28.532 24.7429 28.5322 26.3996C28.5322 28.0565 27.1891 29.3996 25.5322 29.3996C23.8756 29.3994 22.5322 28.0563 22.5322 26.3996C22.5324 24.7431 23.8757 23.3998 25.5322 23.3996Z"
            fill="url(#paint2_linear_50_1358)" stroke="white" stroke-width="1.2"
            stroke-linecap="round" />
    </g>
    <defs>
        <linearGradient id="paint0_linear_50_1358" x1="24.3326" y1="25.9503" x2="24.3326"
            y2="40.7358" gradientUnits="userSpaceOnUse">
            <stop stop-color="#FD366E" stop-opacity="0" />
            <stop offset="1" stop-color="#FD366E" stop-opacity="0.4" />
        </linearGradient>
        <linearGradient id="paint1_linear_50_1358" x1="18.9326" y1="31.2" x2="18.9326" y2="37.2"
            gradientUnits="userSpaceOnUse">
            <stop stop-color="white" stop-opacity="0" />
            <stop offset="1" stop-color="white" stop-opacity="0.4" />
        </linearGradient>
        <linearGradient id="paint2_linear_50_1358" x1="25.5326" y1="22.8" x2="25.5326" y2="30"
            gradientUnits="userSpaceOnUse">
            <stop stop-color="white" stop-opacity="0" />
            <stop offset="1" stop-color="white" stop-opacity="0.4" />
        </linearGradient>
        <clipPath id="clip0_50_1358">
            <rect width="48" height="48" fill="white" transform="translate(0.333008)" />
        </clipPath>
    </defs>
</svg>