<svg xmlns="http://www.w3.org/2000/svg" width="49" height="48" fill="none" viewBox="0 0 49 48"><path fill="url(#paint0_linear_62_2)" d="M9.66582 27.6V23.4H7.26582C5.60897 23.4 4.26582 22.0568 4.26582 20.4V7.79999C4.26582 6.14313 5.60897 4.79999 7.26582 4.79999H26.4658C28.1227 4.79999 29.4658 6.14313 29.4658 7.79999V20.4H23.0969C21.8702 20.4 20.7671 21.1468 20.3115 22.2858L19.8658 23.4H15.0658L9.66582 27.6Z"/><path fill="#fff" d="M9.66582 23.4V22.8H10.2658V23.4H9.66582ZM9.66582 27.6L10.0342 28.0736C9.8533 28.2143 9.60807 28.2397 9.40221 28.139C9.19635 28.0383 9.06582 27.8291 9.06582 27.6H9.66582ZM15.0658 23.4L14.6975 22.9264L14.86 22.8H15.0658V23.4ZM19.8658 23.4L20.4229 23.6228L20.272 24H19.8658V23.4ZM29.4658 20.4H30.0658V21H29.4658V20.4ZM20.3115 22.2858L20.8686 22.5086L20.8686 22.5086L20.3115 22.2858ZM10.2658 23.4V27.6H9.06582V23.4H10.2658ZM9.29746 27.1264L14.6975 22.9264L15.4342 23.8736L10.0342 28.0736L9.29746 27.1264ZM26.4658 5.39999H7.26582V4.19999H26.4658V5.39999ZM4.86582 7.79999V20.4H3.66582V7.79999H4.86582ZM7.26582 22.8H9.66582V24H7.26582V22.8ZM15.0658 22.8H19.8658V24H15.0658V22.8ZM28.8658 20.4V7.79999H30.0658V20.4H28.8658ZM29.4658 21H23.0969V19.8H29.4658V21ZM20.8686 22.5086L20.4229 23.6228L19.3087 23.1772L19.7544 22.063L20.8686 22.5086ZM4.86582 20.4C4.86582 21.7255 5.94034 22.8 7.26582 22.8V24C5.2776 24 3.66582 22.3882 3.66582 20.4H4.86582ZM7.26582 5.39999C5.94034 5.39999 4.86582 6.4745 4.86582 7.79999H3.66582C3.66582 5.81176 5.2776 4.19999 7.26582 4.19999V5.39999ZM23.0969 21C22.1155 21 21.233 21.5975 20.8686 22.5086L19.7544 22.063C20.3011 20.6962 21.6249 19.8 23.0969 19.8V21ZM26.4658 4.19999C28.454 4.19999 30.0658 5.81176 30.0658 7.79999H28.8658C28.8658 6.4745 27.7913 5.39999 26.4658 5.39999V4.19999Z"/><path fill="url(#paint1_linear_62_2)" d="M39.6662 43.2V39H42.0662C43.7231 39 45.0662 37.6568 45.0662 36V23.4C45.0662 21.7431 43.7231 20.4 42.0662 20.4H22.8662C21.2094 20.4 19.8662 21.7431 19.8662 23.4V36C19.8662 37.6568 21.2094 39 22.8662 39H34.2662L39.6662 43.2Z"/><path fill="#FD366E" d="M39.6662 39V38.4H39.0662V39H39.6662ZM39.6662 43.2L39.2978 43.6736C39.4787 43.8143 39.724 43.8397 39.9298 43.739C40.1357 43.6383 40.2662 43.4292 40.2662 43.2H39.6662ZM34.2662 39L34.6346 38.5264L34.4721 38.4H34.2662V39ZM39.0662 39V43.2H40.2662V39H39.0662ZM40.0346 42.7264L34.6346 38.5264L33.8978 39.4736L39.2978 43.6736L40.0346 42.7264ZM34.2662 38.4H22.8662V39.6H34.2662V38.4ZM20.4662 36V23.4H19.2662V36H20.4662ZM22.8662 21H42.0662V19.8H22.8662V21ZM44.4662 23.4V36H45.6662V23.4H44.4662ZM42.0662 38.4H39.6662V39.6H42.0662V38.4ZM44.4662 36C44.4662 37.3255 43.3917 38.4 42.0662 38.4V39.6C44.0544 39.6 45.6662 37.9882 45.6662 36H44.4662ZM42.0662 21C43.3917 21 44.4662 22.0745 44.4662 23.4H45.6662C45.6662 21.4118 44.0544 19.8 42.0662 19.8V21ZM20.4662 23.4C20.4662 22.0745 21.5407 21 22.8662 21V19.8C20.878 19.8 19.2662 21.4118 19.2662 23.4H20.4662ZM22.8662 38.4C21.5407 38.4 20.4662 37.3255 20.4662 36H19.2662C19.2662 37.9882 20.878 39.6 22.8662 39.6V38.4Z"/><defs><linearGradient id="paint0_linear_62_2" x1="16.866" x2="16.866" y1="4.8" y2="27.6" gradientUnits="userSpaceOnUse"><stop stop-color="#fff" stop-opacity="0"/><stop offset="1" stop-color="#fff" stop-opacity=".4"/></linearGradient><linearGradient id="paint1_linear_62_2" x1="32.466" x2="32.466" y1="20.4" y2="43.2" gradientUnits="userSpaceOnUse"><stop stop-color="#FD366E" stop-opacity="0"/><stop offset="1" stop-color="#FD366E" stop-opacity=".4"/></linearGradient></defs></svg>