<svg width="32" height="32" viewBox="0 0 32 32" fill="none" xmlns="http://www.w3.org/2000/svg">
<path d="M23.1672 12.7371L25.6008 8.52222C25.6437 8.45007 25.6691 8.36232 25.6691 8.26872C25.6691 7.98889 25.4429 7.76269 25.1631 7.76269C24.9768 7.76269 24.814 7.86312 24.7263 8.01327L24.7253 8.01522L22.2615 12.2828C20.4216 11.4375 18.2698 10.9441 16.0029 10.9441C13.7361 10.9441 11.5842 11.4375 9.64886 12.3218L9.74441 12.2828L7.28059 8.01424C7.19186 7.86214 7.02806 7.76074 6.84184 7.76074C6.56201 7.76074 6.33581 7.98694 6.33581 8.26677C6.33581 8.36037 6.36116 8.44714 6.40504 8.52222L6.40406 8.52027L8.83766 12.7352C4.65881 15.043 1.78256 19.2648 1.38574 24.1856L1.38281 24.2363H30.624C30.2243 19.2648 27.348 15.043 23.2433 12.7722L23.1692 12.7352L23.1672 12.7371ZM9.27154 20.0721C8.59879 20.0721 8.05376 19.527 8.05376 18.8543C8.05376 18.1815 8.59879 17.6365 9.27154 17.6365C9.94429 17.6365 10.4893 18.1815 10.4893 18.8543C10.4883 19.5261 9.94429 20.0711 9.27154 20.0721ZM22.7304 20.0721C22.0577 20.0721 21.5127 19.527 21.5127 18.8543C21.5127 18.1815 22.0577 17.6365 22.7304 17.6365C23.4032 17.6365 23.9482 18.1815 23.9482 18.8543C23.9472 19.5261 23.4032 20.0711 22.7304 20.0721Z" fill="#3DDC84"/>
</svg>
