<svg width="22" height="24" viewBox="0 0 22 24" fill="none" xmlns="http://www.w3.org/2000/svg">
    <path
        d="M15.3867 0.297852C15.7951 0.297852 16.126 0.62875 16.126 1.03711V2.5166H18.7148C20.3479 2.51686 21.6716 3.84055 21.6719 5.47363V21.002C21.6716 22.635 20.3479 23.9587 18.7148 23.959H3.18652C1.55344 23.9588 0.229753 22.635 0.229492 21.002V5.47363C0.229723 3.84053 1.55342 2.51683 3.18652 2.5166H5.77441V1.03711C5.77441 0.62875 6.10531 0.297852 6.51367 0.297852C6.92203 0.297852 7.25293 0.62875 7.25293 1.03711V2.5166H14.6475V1.03711C14.6475 0.62875 14.9784 0.297852 15.3867 0.297852ZM1.70801 10.6494V21.002C1.70827 21.8183 2.37016 22.4802 3.18652 22.4805H18.7148C19.5312 22.4802 20.1931 21.8183 20.1934 21.002V10.6494H1.70801ZM3.18652 3.99512C2.37014 3.99535 1.70824 4.65725 1.70801 5.47363V9.1709H20.1934V5.47363C20.1931 4.65727 19.5312 3.99538 18.7148 3.99512H16.126V5.47363C16.1259 5.88194 15.795 6.21289 15.3867 6.21289C14.9784 6.21289 14.6475 5.88194 14.6475 5.47363V3.99512H7.25293V5.47363C7.25286 5.88194 6.92199 6.21289 6.51367 6.21289C6.10535 6.21289 5.77448 5.88194 5.77441 5.47363V3.99512H3.18652Z"
        fill="url(#paint0_linear_1583_95101)" />
    <defs>
        <linearGradient id="paint0_linear_1583_95101" x1="10.9507" y1="0.297852" x2="10.6805"
            y2="21.8147" gradientUnits="userSpaceOnUse">
            <stop stop-color="#E4E4E7" />
            <stop offset="1" stop-color="#6C6C71" />
        </linearGradient>
    </defs>
</svg>