<svg width="25" height="20" viewBox="0 0 25 20" fill="none" xmlns="http://www.w3.org/2000/svg">
    <path
        d="M21.5342 0.516602C23.1624 0.516632 24.492 1.84548 24.4922 3.47363V16.7832C24.4922 18.4116 23.1625 19.7412 21.5342 19.7412H3.78809C2.15991 19.741 0.831055 18.4114 0.831055 16.7832V3.47363C0.831288 1.8456 2.16005 0.516834 3.78809 0.516602H21.5342ZM2.30957 16.7832C2.30957 17.5947 2.97663 18.2615 3.78809 18.2617H21.5342C22.3458 18.2617 23.0127 17.5948 23.0127 16.7832V4.89355L13.085 11.8428C12.8304 12.0209 12.4919 12.021 12.2373 11.8428L2.30957 4.89258V16.7832ZM3.78809 1.99512C3.09858 1.99532 2.51483 2.47745 2.35449 3.12012L12.6611 10.335L22.9668 3.12012C22.8064 2.47745 22.2238 1.99514 21.5342 1.99512H3.78809Z"
        fill="url(#paint0_linear_1583_95076)" />
    <defs>
        <linearGradient id="paint0_linear_1583_95076" x1="12.6616" y1="0.516602" x2="12.5"
            y2="18.0002" gradientUnits="userSpaceOnUse">
            <stop stop-color="#E4E4E7" />
            <stop offset="1" stop-color="#6C6C71" />
        </linearGradient>
    </defs>
</svg>