<svg width="28" height="27" viewBox="0 0 28 27" fill="none" xmlns="http://www.w3.org/2000/svg">
    <path
        d="M23.9736 12.8346C23.9774 14.2985 23.6354 15.7425 22.9754 17.0492C22.1928 18.615 20.9898 19.9319 19.5011 20.8526C18.0123 21.7733 16.2967 22.2613 14.5462 22.262C13.0824 22.2658 11.6383 21.9238 10.3316 21.2638L4.00977 23.3711L6.11706 17.0492C5.45707 15.7425 5.11505 14.2985 5.11887 12.8346C5.11954 11.0842 5.60755 9.36851 6.52822 7.87976C7.44889 6.39102 8.76587 5.18799 10.3316 4.40545C11.6383 3.74546 13.0824 3.40344 14.5462 3.40726H15.1008C17.4125 3.5348 19.596 4.51055 21.2331 6.14769C22.8703 7.78483 23.846 9.96831 23.9736 12.2801V12.8346Z"
        stroke="url(#paint0_linear_1583_95082)" stroke-width="1.5" stroke-linecap="round"
        stroke-linejoin="round" />
    <defs>
        <linearGradient id="paint0_linear_1583_95082" x1="13.9917" y1="3.40723" x2="13.7851"
            y2="21.5624" gradientUnits="userSpaceOnUse">
            <stop stop-color="#E4E4E7" />
            <stop offset="1" stop-color="#6C6C71" />
        </linearGradient>
    </defs>
</svg>