<svg width="24" height="24" viewBox="0 0 24 24" fill="none" xmlns="http://www.w3.org/2000/svg">
    <path d="M13.2202 19H20.655C20.8912 19 21.1232 18.9353 21.3277 18.8125C21.5322 18.6896 21.702 18.5128 21.82 18.3C21.938 18.0871 22.0001 17.8457 22 17.5999C21.9999 17.3542 21.9376 17.1128 21.8194 16.9L16.8264 7.90008C16.7084 7.68728 16.5386 7.51055 16.3341 7.38768C16.1297 7.26483 15.8977 7.20012 15.6616 7.20012C15.4255 7.20012 15.1936 7.26483 14.9891 7.38768C14.7847 7.51055 14.6149 7.68728 14.4969 7.90008L13.2202 10.2028L10.724 5.69984C10.6059 5.48706 10.4361 5.31036 10.2316 5.18751C10.027 5.06468 9.79504 5 9.55891 5C9.32278 5 9.0908 5.06468 8.88629 5.18751C8.68176 5.31036 8.51191 5.48706 8.3938 5.69984L2.18059 16.9C2.06239 17.1128 2.0001 17.3542 2 17.5999C1.9999 17.8457 2.06198 18.0871 2.18 18.3C2.29803 18.5128 2.46783 18.6896 2.67233 18.8125C2.87684 18.9353 3.10883 19 3.34498 19H8.01196C9.86107 19 11.2247 18.1548 12.163 16.5057L14.4411 12.4L15.6613 10.2028L19.3233 16.8028H14.4411L13.2202 19ZM7.93587 16.8005L4.67891 16.7998L9.56109 8.00034L11.9971 12.4L10.3661 15.3407C9.74296 16.4107 9.03505 16.8005 7.93587 16.8005Z" fill="#00DC82"/>
</svg>
