<svg width="24" height="24" viewBox="0 0 24 24" fill="none" xmlns="http://www.w3.org/2000/svg">
    <path
        d="M10.5811 7H12.1084L11.6768 9.31387H13.0491C13.8017 9.3301 14.3624 9.4997 14.7314 9.82268C15.1077 10.1457 15.2184 10.7596 15.0634 11.6641L14.3219 15.6982H12.7724L13.4808 11.8458C13.5545 11.4419 13.5323 11.1553 13.4144 10.9857C13.2964 10.8161 13.0418 10.7313 12.6507 10.7313L11.4222 10.7191L10.5147 15.6982H8.98735L10.5811 7Z"
        fill="#8892BF" />
    <path fill-rule="evenodd" clip-rule="evenodd"
        d="M3.58265 9.31391H6.54874C7.41932 9.32191 8.05016 9.59666 8.44129 10.1377C8.83241 10.6787 8.96146 11.4177 8.82865 12.3546C8.77707 12.7828 8.66264 13.2027 8.48556 13.6146C8.31578 14.0264 8.07982 14.3979 7.77724 14.7291C7.40825 15.149 7.01358 15.4155 6.59301 15.5286C6.17245 15.6418 5.73706 15.6982 5.28705 15.6982H3.95895L3.53838 18H2L3.58265 9.31391ZM4.2135 14.3293L4.87534 10.7071H5.0989C5.18013 10.7071 5.26491 10.703 5.35345 10.695C5.94379 10.687 6.43431 10.7475 6.82543 10.8767C7.22386 11.0058 7.35667 11.4945 7.22386 12.3425C7.06161 13.3521 6.7442 13.9416 6.27206 14.1112C5.79991 14.2729 5.20958 14.3494 4.50126 14.3414H4.34631C4.30204 14.3414 4.25777 14.3373 4.2135 14.3293Z"
        fill="#8892BF" />
    <path fill-rule="evenodd" clip-rule="evenodd"
        d="M19.6696 9.31391H16.7035L15.1208 18H16.6592L17.0798 15.6982H18.4079C18.8579 15.6982 19.2933 15.6418 19.7139 15.5286C20.1344 15.4155 20.5291 15.149 20.8981 14.7291C21.2007 14.3979 21.4366 14.0264 21.6064 13.6146C21.7835 13.2027 21.8979 12.7828 21.9495 12.3546C22.0823 11.4177 21.9532 10.6787 21.5621 10.1377C21.171 9.59666 20.5402 9.32191 19.6696 9.31391ZM17.9962 10.7071L17.3343 14.3293C17.3786 14.3373 17.4229 14.3414 17.4672 14.3414H17.6221C18.3304 14.3494 18.9207 14.2729 19.3929 14.1112C19.865 13.9416 20.1824 13.3521 20.3447 12.3425C20.4775 11.4945 20.3447 11.0058 19.9463 10.8767C19.5551 10.7475 19.0646 10.687 18.4743 10.695C18.3858 10.703 18.301 10.7071 18.2197 10.7071H17.9962Z"
        fill="#8892BF" />
</svg>