<svg width="28" height="28" viewBox="0 0 28 28" fill="none" xmlns="http://www.w3.org/2000/svg">
    <path
        d="M16.3164 0.819336C17.133 0.819413 17.7948 1.48125 17.7949 2.29785V4.44336L17.7988 4.44922C17.8042 4.45646 17.8147 4.46573 17.8301 4.47168L18.29 4.66211L18.3271 4.66797L18.334 4.66699L19.8525 3.14844L19.9648 3.04688C20.5457 2.57304 21.4029 2.607 21.9443 3.14844L25.0811 6.28516L25.1826 6.39746C25.6248 6.93963 25.6249 7.72254 25.1826 8.26465L25.0811 8.37695L23.5625 9.89453L23.5605 9.90137C23.5591 9.91001 23.5598 9.92344 23.5664 9.93848C23.6333 10.0892 23.6969 10.2419 23.7568 10.3965L23.7793 10.4277L23.7852 10.4316H25.9326C26.7492 10.4317 27.4111 11.0935 27.4111 11.9102V16.3467C27.4111 17.1633 26.7492 17.8251 25.9326 17.8252H23.7852C23.7844 17.8255 23.7823 17.8269 23.7793 17.8291L23.7559 17.8604L23.5654 18.3193C23.559 18.334 23.5582 18.347 23.5596 18.3555L23.5605 18.3623L25.082 19.8828C25.6595 20.4603 25.6595 21.3971 25.082 21.9746L21.9453 25.1113C21.3678 25.6888 20.431 25.6888 19.8535 25.1113L18.332 23.5898H18.333C18.3326 23.5896 18.3302 23.5895 18.3262 23.5889L18.2891 23.5947L17.8301 23.7852C17.8146 23.7912 17.8042 23.8003 17.7988 23.8076L17.7949 23.8135V25.959C17.7948 26.7756 17.133 27.4374 16.3164 27.4375H11.8799C11.0633 27.4374 10.4014 26.7756 10.4014 25.959V23.8115C10.4011 23.8109 10.4006 23.8087 10.3984 23.8057L10.3672 23.7832L9.91113 23.5947C9.89579 23.5879 9.88188 23.5874 9.87305 23.5889L9.86621 23.5898L8.35059 25.1074C7.80919 25.6489 6.95198 25.6828 6.37109 25.209L6.25879 25.1074L3.12207 21.9707C2.54464 21.3933 2.54476 20.4564 3.12207 19.8789L4.63867 18.3623L4.63965 18.3555L4.63379 18.3174L4.44434 17.8594C4.4384 17.8442 4.42903 17.8344 4.42188 17.8291L4.41602 17.8252H2.26953C1.45293 17.8251 0.791093 17.1633 0.791016 16.3467V11.9102C0.791093 11.0935 1.45293 10.4317 2.26953 10.4316H4.41602L4.42188 10.4277C4.42903 10.4225 4.43842 10.4127 4.44434 10.3975C4.50454 10.2417 4.56832 10.0875 4.63574 9.93555L4.6416 9.89746L4.63965 9.89062H4.64062L3.12305 8.37402C2.54554 7.79652 2.54554 6.85973 3.12305 6.28223L6.25977 3.14551C6.83727 2.568 7.77406 2.568 8.35156 3.14551L9.87109 4.66504H9.87012C9.87055 4.66526 9.87297 4.66632 9.87695 4.66699C9.88572 4.66845 9.89982 4.66779 9.91504 4.66113L10.3672 4.47363L10.3975 4.45117L10.4014 4.44531V2.29785C10.4014 1.48125 11.0633 0.819413 11.8799 0.819336H16.3164ZM11.8799 4.44531C11.8799 5.05444 11.5124 5.56798 11.0039 5.80859L10.9004 5.85254C10.77 5.90294 10.6409 5.95641 10.5137 6.0127C9.99766 6.24093 9.36931 6.17933 8.91406 5.79199L8.8252 5.71094L7.30566 4.19141L4.16895 7.32812L5.68555 8.8457L5.76758 8.93359C6.12964 9.359 6.20703 9.93576 6.0293 10.4307L5.9873 10.5352L5.82324 10.9307C5.60613 11.4919 5.06577 11.9101 4.41602 11.9102H2.26953V16.3467H4.41602C5.06581 16.3467 5.60612 16.765 5.82324 17.3262L5.98633 17.7188L6.02832 17.8232C6.20543 18.3176 6.12773 18.8934 5.7666 19.3184L5.68457 19.4072L4.16797 20.9248L7.30469 24.0615L8.82129 22.5449L8.90918 22.4629C9.36458 22.0751 9.99355 22.0137 10.5098 22.2422L10.9004 22.4043C11.4617 22.6214 11.8799 23.1619 11.8799 23.8115V25.959H16.3164V23.8135C16.3165 23.1635 16.7351 22.6235 17.2959 22.4062L17.6885 22.2432L17.7939 22.2012C18.2886 22.0237 18.8641 22.1014 19.2891 22.4629L19.3779 22.5439L20.8994 24.0654L24.0361 20.9287L22.5156 19.4072C22.056 18.9476 21.9687 18.2688 22.2139 17.7178C22.2714 17.5884 22.3266 17.4574 22.3779 17.3252C22.5955 16.7652 23.1352 16.3467 23.7852 16.3467H25.9326V11.9102H23.7852C23.1757 11.9101 22.6626 11.5423 22.4219 11.0342L22.3779 10.9307C22.3267 10.7986 22.2722 10.6681 22.2148 10.5391C21.9702 9.98816 22.0567 9.30936 22.5166 8.84961L24.0352 7.33105L20.8984 4.19434L19.3789 5.71289C18.948 6.14352 18.3247 6.24654 17.7949 6.05664L17.6904 6.01465C17.5607 5.95711 17.4287 5.90196 17.2959 5.85059C16.7349 5.63344 16.3165 5.09321 16.3164 4.44336V2.29785H11.8799V4.44531ZM14.0986 8.95312C16.9571 8.95319 19.2744 11.2704 19.2744 14.1289C19.2743 16.9873 16.9571 19.3046 14.0986 19.3047C11.2402 19.3047 8.92292 16.9874 8.92285 14.1289C8.92285 11.2704 11.2401 8.95312 14.0986 8.95312ZM14.0986 10.4316C12.0568 10.4316 10.4014 12.0871 10.4014 14.1289C10.4014 16.1706 12.0569 17.8262 14.0986 17.8262C16.1403 17.8261 17.7958 16.1706 17.7959 14.1289C17.7959 12.0871 16.1404 10.4317 14.0986 10.4316Z"
        fill="url(#paint0_linear_1583_95086)" />
    <defs>
        <linearGradient id="paint0_linear_1583_95086" x1="14.1011" y1="0.819336" x2="13.8257"
            y2="25.0259" gradientUnits="userSpaceOnUse">
            <stop stop-color="#E4E4E7" />
            <stop offset="1" stop-color="#6C6C71" />
        </linearGradient>
    </defs>
</svg>