<svg width="20" height="20" viewBox="0 0 20 20" fill="none" xmlns="http://www.w3.org/2000/svg">
<path fill-rule="evenodd" clip-rule="evenodd" d="M6.31069 1.66669H7.07024V4.01568H7.07027V2.4497H7.82982V4.01568H8.58934V2.4497H9.34889V4.01568H10.1085V3.23267H10.868V4.01568H15.2083V7.48324H4.79163V5.91726V4.01568V2.4497H5.55117V4.01568H5.5512V3.23267H6.31069V1.66669Z" fill="#EDEDF0"/>
<rect x="4.79163" y="8.26624" width="10.4167" height="3.46756" fill="#EDEDF0"/>
<path fill-rule="evenodd" clip-rule="evenodd" d="M13.6892 18.3334H12.9296V15.9844H12.9296V17.5504H12.1701V15.9844H11.4105V17.5504H10.651V15.9844H9.89138V16.7674H9.13183V15.9844H4.79158V12.5168H15.2083V14.0828V15.9844V17.5504H14.4487V15.9844H14.4487V16.7674H13.6892V18.3334Z" fill="#EDEDF0"/>
</svg>
