<svg width="320" height="176" viewBox="0 0 320 176" fill="none" xmlns="http://www.w3.org/2000/svg">
<g clip-path="url(#clip0_427_2822)">
<path d="M302 47L45 47" stroke="white" stroke-opacity="0.06" stroke-width="0.5" stroke-dasharray="4 4"/>
<path d="M302 64L45 64" stroke="white" stroke-opacity="0.06" stroke-width="0.5" stroke-dasharray="4 4"/>
<path d="M302 81L45 81" stroke="white" stroke-opacity="0.06" stroke-width="0.5" stroke-dasharray="4 4"/>
<path d="M302 98L45 98" stroke="white" stroke-opacity="0.06" stroke-width="0.5" stroke-dasharray="4 4"/>
<path d="M302 115L45 115" stroke="white" stroke-opacity="0.06" stroke-width="0.5" stroke-dasharray="4 4"/>
<path d="M302 132L45 132" stroke="white" stroke-opacity="0.06" stroke-width="0.5" stroke-dasharray="4 4"/>
<path fill-rule="evenodd" clip-rule="evenodd" d="M17.0004 14.0254C19.4719 14.0254 21.4754 16.0794 21.4754 18.6136C21.4754 20.6403 20.1946 22.3596 18.4176 22.9669C18.1907 23.0121 18.1102 22.8688 18.1102 22.7466C18.1102 22.5954 18.1156 22.1013 18.1156 21.4874C18.1156 21.0595 17.9724 20.7803 17.8117 20.638C18.8083 20.5244 19.8554 20.1363 19.8554 18.3741C19.8554 17.8729 19.6818 17.4639 19.3945 17.1426C19.4411 17.0267 19.5945 16.56 19.3507 15.9281C19.3507 15.9281 18.9757 15.8052 18.1214 16.3986C17.7638 16.297 17.3808 16.2459 17.0004 16.2441C16.62 16.2459 16.2374 16.297 15.8803 16.3986C15.0251 15.8052 14.6492 15.9281 14.6492 15.9281C14.4062 16.56 14.5597 17.0267 14.6058 17.1426C14.3199 17.4639 14.1449 17.8729 14.1449 18.3741C14.1449 20.1319 15.1898 20.5258 16.1837 20.6417C16.0557 20.7563 15.9398 20.9584 15.8995 21.2551C15.6445 21.3723 14.9965 21.5752 14.5973 20.874C14.5973 20.874 14.3606 20.4332 13.9113 20.4009C13.9113 20.4009 13.475 20.3952 13.8809 20.6798C13.8809 20.6798 14.174 20.8207 14.3776 21.351C14.3776 21.351 14.6403 22.1699 15.8852 21.8925C15.8875 22.276 15.8915 22.6374 15.8915 22.7466C15.8915 22.8679 15.8091 23.0098 15.5858 22.9673C13.8075 22.3609 12.5254 20.6407 12.5254 18.6136C12.5254 16.0794 14.5293 14.0254 17.0004 14.0254Z" fill="#E4E4E7"/>
<path d="M31.1488 17.5224C31.087 17.3285 31.0039 17.1548 30.8995 17.0014C30.7972 16.8459 30.6747 16.7138 30.532 16.6051C30.3892 16.4943 30.2262 16.4102 30.043 16.3526C29.8619 16.2951 29.6626 16.2663 29.4453 16.2663C29.0767 16.2663 28.7443 16.3612 28.4482 16.5508C28.152 16.7404 27.9176 17.0185 27.745 17.3849C27.5746 17.7493 27.4893 18.1957 27.4893 18.7241C27.4893 19.2546 27.5756 19.7031 27.7482 20.0696C27.9208 20.4361 28.1573 20.7141 28.4577 20.9038C28.7582 21.0934 29.1001 21.1882 29.4837 21.1882C29.8395 21.1882 30.1495 21.1158 30.4137 20.9709C30.68 20.826 30.8857 20.6214 31.0305 20.3572C31.1776 20.0909 31.2511 19.7777 31.2511 19.4176L31.5067 19.4656H29.6339V18.6506H32.2067V19.3952C32.2067 19.945 32.0895 20.4222 31.8551 20.8271C31.6229 21.2298 31.3011 21.5408 30.8899 21.7603C30.4808 21.9798 30.0121 22.0895 29.4837 22.0895C28.8913 22.0895 28.3714 21.9531 27.924 21.6804C27.4787 21.4077 27.1314 21.021 26.8821 20.5202C26.6328 20.0174 26.5082 19.4208 26.5082 18.7305C26.5082 18.2085 26.5806 17.7397 26.7255 17.3242C26.8704 16.9087 27.0739 16.5561 27.3359 16.2663C27.6001 15.9744 27.9102 15.7518 28.266 15.5984C28.6239 15.4428 29.0149 15.3651 29.4389 15.3651C29.7926 15.3651 30.1218 15.4173 30.4265 15.5217C30.7333 15.6261 31.006 15.7741 31.2447 15.9659C31.4854 16.1577 31.6847 16.3857 31.8423 16.6499C32 16.9119 32.1065 17.2028 32.1619 17.5224H31.1488ZM33.6507 22V17.0909H34.6063V22H33.6507ZM34.1333 16.3335C33.9671 16.3335 33.8244 16.2781 33.7051 16.1673C33.5879 16.0543 33.5293 15.9201 33.5293 15.7646C33.5293 15.6069 33.5879 15.4727 33.7051 15.3619C33.8244 15.2489 33.9671 15.1925 34.1333 15.1925C34.2995 15.1925 34.4412 15.2489 34.5584 15.3619C34.6777 15.4727 34.7374 15.6069 34.7374 15.7646C34.7374 15.9201 34.6777 16.0543 34.5584 16.1673C34.4412 16.2781 34.2995 16.3335 34.1333 16.3335ZM38.143 17.0909V17.858H35.4615V17.0909H38.143ZM36.1806 15.9148H37.1362V20.5586C37.1362 20.744 37.1639 20.8835 37.2193 20.9773C37.2747 21.0689 37.3461 21.1317 37.4335 21.1658C37.523 21.1978 37.6199 21.2138 37.7243 21.2138C37.801 21.2138 37.8681 21.2085 37.9257 21.1978C37.9832 21.1871 38.0279 21.1786 38.0599 21.1722L38.2325 21.9616C38.1771 21.983 38.0982 22.0043 37.996 22.0256C37.8937 22.049 37.7659 22.0618 37.6124 22.0639C37.361 22.0682 37.1267 22.0234 36.9093 21.9297C36.692 21.8359 36.5162 21.6911 36.382 21.495C36.2477 21.299 36.1806 21.0529 36.1806 20.7567V15.9148ZM39.3417 22V15.4545H40.3293V18.299H43.5925V15.4545H44.5832V22H43.5925V19.146H40.3293V22H39.3417ZM49.014 19.9641V17.0909H49.9728V22H49.0331V21.1499H48.982C48.8691 21.4119 48.688 21.6303 48.4387 21.805C48.1915 21.9776 47.8836 22.0639 47.515 22.0639C47.1997 22.0639 46.9206 21.9947 46.6777 21.8562C46.4369 21.7156 46.2473 21.5078 46.1088 21.233C45.9724 20.9581 45.9042 20.6183 45.9042 20.2134V17.0909H46.8598V20.0984C46.8598 20.4329 46.9525 20.6992 47.1379 20.8974C47.3233 21.0955 47.564 21.1946 47.8602 21.1946C48.0392 21.1946 48.2171 21.1499 48.3939 21.0604C48.5729 20.9709 48.721 20.8356 48.8382 20.6545C48.9575 20.4734 49.0161 20.2433 49.014 19.9641ZM51.293 22V15.4545H52.2486V17.8867H52.3061C52.3615 17.7844 52.4414 17.6662 52.5458 17.532C52.6502 17.3977 52.7951 17.2805 52.9805 17.1804C53.1658 17.0781 53.4109 17.027 53.7156 17.027C54.1119 17.027 54.4656 17.1271 54.7766 17.3274C55.0877 17.5277 55.3317 17.8164 55.5085 18.1935C55.6875 18.5707 55.777 19.0245 55.777 19.555C55.777 20.0856 55.6886 20.5405 55.5117 20.9197C55.3349 21.2969 55.092 21.5877 54.783 21.7923C54.4741 21.9947 54.1215 22.0959 53.7251 22.0959C53.4269 22.0959 53.1829 22.0458 52.9933 21.9457C52.8058 21.8455 52.6587 21.7283 52.5522 21.5941C52.4457 21.4599 52.3636 21.3406 52.3061 21.2362H52.2262V22H51.293ZM52.2294 19.5455C52.2294 19.8906 52.2795 20.1932 52.3796 20.4531C52.4798 20.7131 52.6246 20.9165 52.8143 21.0636C53.0039 21.2085 53.2362 21.2809 53.511 21.2809C53.7965 21.2809 54.0352 21.2053 54.2269 21.054C54.4187 20.9006 54.5636 20.6928 54.6616 20.4308C54.7617 20.1687 54.8118 19.8736 54.8118 19.5455C54.8118 19.2216 54.7628 18.9308 54.6648 18.6729C54.5689 18.4151 54.424 18.2116 54.2301 18.0625C54.0384 17.9134 53.7987 17.8388 53.511 17.8388C53.234 17.8388 52.9996 17.9102 52.8079 18.0529C52.6183 18.1957 52.4744 18.3949 52.3764 18.6506C52.2784 18.9062 52.2294 19.2045 52.2294 19.5455ZM62.8295 18.2894L61.9634 18.4428C61.9272 18.332 61.8696 18.2266 61.7908 18.1264C61.7141 18.0263 61.6097 17.9442 61.4776 17.8803C61.3455 17.8164 61.1804 17.7844 60.9822 17.7844C60.7116 17.7844 60.4858 17.8452 60.3047 17.9666C60.1235 18.0859 60.033 18.2404 60.033 18.43C60.033 18.5941 60.0937 18.7262 60.2152 18.8263C60.3366 18.9265 60.5326 19.0085 60.8032 19.0724L61.5831 19.2514C62.0348 19.3558 62.3714 19.5167 62.593 19.734C62.8146 19.9513 62.9254 20.2337 62.9254 20.581C62.9254 20.875 62.8402 21.1371 62.6697 21.3672C62.5014 21.5952 62.2659 21.7741 61.9634 21.9041C61.663 22.0341 61.3146 22.0991 60.9183 22.0991C60.3686 22.0991 59.9201 21.9819 59.5728 21.7475C59.2255 21.511 59.0124 21.1754 58.9336 20.7408L59.8572 20.6001C59.9147 20.8409 60.033 21.0231 60.212 21.1467C60.3909 21.2681 60.6243 21.3288 60.9119 21.3288C61.2251 21.3288 61.4755 21.2638 61.663 21.1339C61.8505 21.0018 61.9442 20.8409 61.9442 20.6513C61.9442 20.4979 61.8867 20.369 61.7716 20.2646C61.6587 20.1602 61.4851 20.0813 61.2507 20.0281L60.4197 19.8459C59.9616 19.7415 59.6228 19.5753 59.4034 19.3473C59.186 19.1193 59.0774 18.8306 59.0774 18.4812C59.0774 18.1914 59.1583 17.9379 59.3203 17.7205C59.4822 17.5032 59.7059 17.3338 59.9914 17.2124C60.277 17.0888 60.604 17.027 60.9726 17.027C61.5032 17.027 61.9208 17.142 62.2255 17.3722C62.5302 17.6001 62.7315 17.9059 62.8295 18.2894ZM66.2271 17.0909V17.858H63.5457V17.0909H66.2271ZM64.2648 15.9148H65.2204V20.5586C65.2204 20.744 65.2481 20.8835 65.3035 20.9773C65.3589 21.0689 65.4303 21.1317 65.5176 21.1658C65.6071 21.1978 65.7041 21.2138 65.8085 21.2138C65.8852 21.2138 65.9523 21.2085 66.0098 21.1978C66.0673 21.1871 66.1121 21.1786 66.144 21.1722L66.3166 21.9616C66.2612 21.983 66.1824 22.0043 66.0801 22.0256C65.9778 22.049 65.85 22.0618 65.6966 22.0639C65.4452 22.0682 65.2108 22.0234 64.9935 21.9297C64.7761 21.8359 64.6004 21.6911 64.4661 21.495C64.3319 21.299 64.2648 21.0529 64.2648 20.7567V15.9148ZM68.6723 22.1087C68.3613 22.1087 68.08 22.0511 67.8286 21.9361C67.5772 21.8189 67.378 21.6495 67.2309 21.4279C67.0861 21.2063 67.0136 20.9347 67.0136 20.6129C67.0136 20.3359 67.0669 20.108 67.1734 19.929C67.2799 19.75 67.4238 19.6083 67.6049 19.5039C67.786 19.3995 67.9884 19.3207 68.2121 19.2674C68.4358 19.2141 68.6638 19.1737 68.8961 19.146C69.1901 19.1119 69.4287 19.0842 69.612 19.0629C69.7952 19.0394 69.9284 19.0021 70.0115 18.951C70.0946 18.8999 70.1361 18.8168 70.1361 18.7017V18.6793C70.1361 18.4002 70.0573 18.1839 69.8996 18.0305C69.7441 17.8771 69.5118 17.8004 69.2029 17.8004C68.8812 17.8004 68.6276 17.8718 68.4422 18.0146C68.259 18.1552 68.1322 18.3118 68.0619 18.4844L67.1638 18.2798C67.2704 17.9815 67.4259 17.7408 67.6304 17.5575C67.8371 17.3722 68.0747 17.2379 68.3432 17.1548C68.6116 17.0696 68.8939 17.027 69.1901 17.027C69.3861 17.027 69.5939 17.0504 69.8133 17.0973C70.0349 17.142 70.2416 17.2251 70.4334 17.3466C70.6272 17.468 70.786 17.6417 70.9096 17.8675C71.0331 18.0913 71.0949 18.3821 71.0949 18.7401V22H70.1617V21.3288H70.1233C70.0615 21.4524 69.9689 21.5739 69.8453 21.6932C69.7217 21.8125 69.563 21.9116 69.3691 21.9904C69.1752 22.0692 68.9429 22.1087 68.6723 22.1087ZM68.8801 21.3416C69.1443 21.3416 69.3701 21.2894 69.5576 21.185C69.7473 21.0806 69.8911 20.9442 69.9891 20.7759C70.0892 20.6055 70.1393 20.4233 70.1393 20.2294V19.5966C70.1052 19.6307 70.0392 19.6626 69.9412 19.6925C69.8453 19.7202 69.7356 19.7447 69.612 19.766C69.4884 19.7852 69.368 19.8033 69.2508 19.8203C69.1336 19.8352 69.0356 19.848 68.9568 19.8587C68.7714 19.8821 68.602 19.9215 68.4486 19.9769C68.2973 20.0323 68.1759 20.1122 68.0843 20.2166C67.9948 20.3189 67.95 20.4553 67.95 20.6257C67.95 20.8622 68.0374 21.0412 68.2121 21.1626C68.3868 21.282 68.6095 21.3416 68.8801 21.3416ZM72.3272 22V17.0909H73.2509V17.8707H73.302C73.3915 17.6065 73.5492 17.3988 73.775 17.2475C74.003 17.0941 74.2608 17.0174 74.5485 17.0174C74.6081 17.0174 74.6785 17.0195 74.7594 17.0238C74.8425 17.0281 74.9075 17.0334 74.9544 17.0398V17.9538C74.916 17.9432 74.8478 17.9315 74.7498 17.9187C74.6518 17.9038 74.5538 17.8963 74.4558 17.8963C74.2299 17.8963 74.0286 17.9442 73.8517 18.0401C73.677 18.1339 73.5385 18.2649 73.4363 18.4332C73.334 18.5994 73.2829 18.7891 73.2829 19.0021V22H72.3272ZM79.4195 18.2894L78.5533 18.4428C78.5171 18.332 78.4596 18.2266 78.3808 18.1264C78.3041 18.0263 78.1997 17.9442 78.0676 17.8803C77.9354 17.8164 77.7703 17.7844 77.5722 17.7844C77.3016 17.7844 77.0757 17.8452 76.8946 17.9666C76.7135 18.0859 76.6229 18.2404 76.6229 18.43C76.6229 18.5941 76.6837 18.7262 76.8051 18.8263C76.9266 18.9265 77.1226 19.0085 77.3932 19.0724L78.173 19.2514C78.6247 19.3558 78.9614 19.5167 79.183 19.734C79.4046 19.9513 79.5153 20.2337 79.5153 20.581C79.5153 20.875 79.4301 21.1371 79.2597 21.3672C79.0913 21.5952 78.8559 21.7741 78.5533 21.9041C78.2529 22.0341 77.9046 22.0991 77.5082 22.0991C76.9585 22.0991 76.51 21.9819 76.1627 21.7475C75.8154 21.511 75.6024 21.1754 75.5235 20.7408L76.4472 20.6001C76.5047 20.8409 76.6229 21.0231 76.8019 21.1467C76.9809 21.2681 77.2142 21.3288 77.5019 21.3288C77.8151 21.3288 78.0654 21.2638 78.2529 21.1339C78.4404 21.0018 78.5342 20.8409 78.5342 20.6513C78.5342 20.4979 78.4766 20.369 78.3616 20.2646C78.2487 20.1602 78.075 20.0813 77.8406 20.0281L77.0097 19.8459C76.5516 19.7415 76.2128 19.5753 75.9933 19.3473C75.776 19.1193 75.6673 18.8306 75.6673 18.4812C75.6673 18.1914 75.7483 17.9379 75.9102 17.7205C76.0722 17.5032 76.2959 17.3338 76.5814 17.2124C76.8669 17.0888 77.194 17.027 77.5626 17.027C78.0931 17.027 78.5107 17.142 78.8154 17.3722C79.1201 17.6001 79.3215 17.9059 79.4195 18.2894Z" fill="#E4E4E7"/>
<path d="M48.09 158H45.276V157.574L46.86 156.158C47.244 155.816 47.544 155.492 47.544 155.042C47.544 154.514 47.196 154.214 46.668 154.214C46.152 154.214 45.804 154.574 45.804 155.15V155.228H45.3V155.12C45.3 154.328 45.84 153.764 46.668 153.764C47.544 153.764 48.06 154.262 48.06 155.018C48.06 155.642 47.67 156.044 47.184 156.47L45.972 157.538H48.09V158ZM50.7151 153.764C51.6331 153.764 52.2031 154.526 52.2031 155.804V155.996C52.2031 157.274 51.6331 158.036 50.7151 158.036C49.7971 158.036 49.2271 157.274 49.2271 155.996V155.804C49.2271 154.526 49.7971 153.764 50.7151 153.764ZM49.7251 155.822V155.978C49.7251 156.212 49.7431 156.422 49.7791 156.602L51.4891 154.718C51.3211 154.388 51.0571 154.214 50.7151 154.214C50.0911 154.214 49.7251 154.802 49.7251 155.822ZM51.7051 155.978V155.822C51.7051 155.588 51.6871 155.378 51.6511 155.192L49.9411 157.088C50.1151 157.406 50.3791 157.58 50.7151 157.58C51.3391 157.58 51.7051 156.998 51.7051 155.978ZM54.9396 153.8V157.532H56.0016V158H53.3376V157.532H54.4416V155.054C54.3816 155.096 54.3096 155.114 54.2196 155.114H53.3496V154.664H54.1656C54.3516 154.664 54.4476 154.508 54.4476 154.304V153.8H54.9396ZM58.4339 158.036C57.6899 158.036 57.1859 157.58 57.0839 156.878H57.5879C57.6779 157.292 57.9599 157.592 58.4579 157.592C59.1599 157.592 59.5199 156.866 59.5199 156.038C59.5199 155.918 59.5259 155.936 59.5199 155.834C59.5019 155.894 59.5019 155.9 59.4839 155.948C59.3219 156.302 58.9199 156.578 58.3799 156.578C57.5759 156.578 57.0119 156.032 57.0119 155.174C57.0119 154.364 57.5939 153.764 58.4279 153.764C58.9739 153.764 59.4059 154.016 59.6639 154.46C59.8739 154.826 59.9879 155.336 59.9879 155.882C59.9879 157.202 59.4119 158.036 58.4339 158.036ZM58.4159 156.134C58.9739 156.134 59.3579 155.738 59.3579 155.162C59.3579 154.598 58.9859 154.208 58.4339 154.208C57.8819 154.208 57.5159 154.61 57.5159 155.174C57.5159 155.732 57.8639 156.134 58.4159 156.134Z" fill="#ADADB0"/>
<path d="M88.59 158H85.776V157.574L87.36 156.158C87.744 155.816 88.044 155.492 88.044 155.042C88.044 154.514 87.696 154.214 87.168 154.214C86.652 154.214 86.304 154.574 86.304 155.15V155.228H85.8V155.12C85.8 154.328 86.34 153.764 87.168 153.764C88.044 153.764 88.56 154.262 88.56 155.018C88.56 155.642 88.17 156.044 87.684 156.47L86.472 157.538H88.59V158ZM91.2151 153.764C92.1331 153.764 92.7031 154.526 92.7031 155.804V155.996C92.7031 157.274 92.1331 158.036 91.2151 158.036C90.2971 158.036 89.7271 157.274 89.7271 155.996V155.804C89.7271 154.526 90.2971 153.764 91.2151 153.764ZM90.2251 155.822V155.978C90.2251 156.212 90.2431 156.422 90.2791 156.602L91.9891 154.718C91.8211 154.388 91.5571 154.214 91.2151 154.214C90.5911 154.214 90.2251 154.802 90.2251 155.822ZM92.2051 155.978V155.822C92.2051 155.588 92.1871 155.378 92.1511 155.192L90.4411 157.088C90.6151 157.406 90.8791 157.58 91.2151 157.58C91.8391 157.58 92.2051 156.998 92.2051 155.978ZM96.6516 158H93.8376V157.574L95.4216 156.158C95.8056 155.816 96.1056 155.492 96.1056 155.042C96.1056 154.514 95.7576 154.214 95.2296 154.214C94.7136 154.214 94.3656 154.574 94.3656 155.15V155.228H93.8616V155.12C93.8616 154.328 94.4016 153.764 95.2296 153.764C96.1056 153.764 96.6216 154.262 96.6216 155.018C96.6216 155.642 96.2316 156.044 95.7456 156.47L94.5336 157.538H96.6516V158ZM99.2767 153.764C100.195 153.764 100.765 154.526 100.765 155.804V155.996C100.765 157.274 100.195 158.036 99.2767 158.036C98.3587 158.036 97.7887 157.274 97.7887 155.996V155.804C97.7887 154.526 98.3587 153.764 99.2767 153.764ZM98.2867 155.822V155.978C98.2867 156.212 98.3047 156.422 98.3407 156.602L100.051 154.718C99.8827 154.388 99.6187 154.214 99.2767 154.214C98.6527 154.214 98.2867 154.802 98.2867 155.822ZM100.267 155.978V155.822C100.267 155.588 100.249 155.378 100.213 155.192L98.5027 157.088C98.6767 157.406 98.9407 157.58 99.2767 157.58C99.9007 157.58 100.267 156.998 100.267 155.978Z" fill="#ADADB0"/>
<path d="M129.09 158H126.276V157.574L127.86 156.158C128.244 155.816 128.544 155.492 128.544 155.042C128.544 154.514 128.196 154.214 127.668 154.214C127.152 154.214 126.804 154.574 126.804 155.15V155.228H126.3V155.12C126.3 154.328 126.84 153.764 127.668 153.764C128.544 153.764 129.06 154.262 129.06 155.018C129.06 155.642 128.67 156.044 128.184 156.47L126.972 157.538H129.09V158ZM131.715 153.764C132.633 153.764 133.203 154.526 133.203 155.804V155.996C133.203 157.274 132.633 158.036 131.715 158.036C130.797 158.036 130.227 157.274 130.227 155.996V155.804C130.227 154.526 130.797 153.764 131.715 153.764ZM130.725 155.822V155.978C130.725 156.212 130.743 156.422 130.779 156.602L132.489 154.718C132.321 154.388 132.057 154.214 131.715 154.214C131.091 154.214 130.725 154.802 130.725 155.822ZM132.705 155.978V155.822C132.705 155.588 132.687 155.378 132.651 155.192L130.941 157.088C131.115 157.406 131.379 157.58 131.715 157.58C132.339 157.58 132.705 156.998 132.705 155.978ZM137.152 158H134.338V157.574L135.922 156.158C136.306 155.816 136.606 155.492 136.606 155.042C136.606 154.514 136.258 154.214 135.73 154.214C135.214 154.214 134.866 154.574 134.866 155.15V155.228H134.362V155.12C134.362 154.328 134.902 153.764 135.73 153.764C136.606 153.764 137.122 154.262 137.122 155.018C137.122 155.642 136.732 156.044 136.246 156.47L135.034 157.538H137.152V158ZM139.789 153.8V157.532H140.851V158H138.187V157.532H139.291V155.054C139.231 155.096 139.159 155.114 139.069 155.114H138.199V154.664H139.015C139.201 154.664 139.297 154.508 139.297 154.304V153.8H139.789Z" fill="#ADADB0"/>
<path d="M169.59 158H166.776V157.574L168.36 156.158C168.744 155.816 169.044 155.492 169.044 155.042C169.044 154.514 168.696 154.214 168.168 154.214C167.652 154.214 167.304 154.574 167.304 155.15V155.228H166.8V155.12C166.8 154.328 167.34 153.764 168.168 153.764C169.044 153.764 169.56 154.262 169.56 155.018C169.56 155.642 169.17 156.044 168.684 156.47L167.472 157.538H169.59V158ZM172.215 153.764C173.133 153.764 173.703 154.526 173.703 155.804V155.996C173.703 157.274 173.133 158.036 172.215 158.036C171.297 158.036 170.727 157.274 170.727 155.996V155.804C170.727 154.526 171.297 153.764 172.215 153.764ZM171.225 155.822V155.978C171.225 156.212 171.243 156.422 171.279 156.602L172.989 154.718C172.821 154.388 172.557 154.214 172.215 154.214C171.591 154.214 171.225 154.802 171.225 155.822ZM173.205 155.978V155.822C173.205 155.588 173.187 155.378 173.151 155.192L171.441 157.088C171.615 157.406 171.879 157.58 172.215 157.58C172.839 157.58 173.205 156.998 173.205 155.978ZM177.652 158H174.838V157.574L176.422 156.158C176.806 155.816 177.106 155.492 177.106 155.042C177.106 154.514 176.758 154.214 176.23 154.214C175.714 154.214 175.366 154.574 175.366 155.15V155.228H174.862V155.12C174.862 154.328 175.402 153.764 176.23 153.764C177.106 153.764 177.622 154.262 177.622 155.018C177.622 155.642 177.232 156.044 176.746 156.47L175.534 157.538H177.652V158ZM181.501 158H178.687V157.574L180.271 156.158C180.655 155.816 180.955 155.492 180.955 155.042C180.955 154.514 180.607 154.214 180.079 154.214C179.563 154.214 179.215 154.574 179.215 155.15V155.228H178.711V155.12C178.711 154.328 179.251 153.764 180.079 153.764C180.955 153.764 181.471 154.262 181.471 155.018C181.471 155.642 181.081 156.044 180.595 156.47L179.383 157.538H181.501V158Z" fill="#ADADB0"/>
<path d="M210.09 158H207.276V157.574L208.86 156.158C209.244 155.816 209.544 155.492 209.544 155.042C209.544 154.514 209.196 154.214 208.668 154.214C208.152 154.214 207.804 154.574 207.804 155.15V155.228H207.3V155.12C207.3 154.328 207.84 153.764 208.668 153.764C209.544 153.764 210.06 154.262 210.06 155.018C210.06 155.642 209.67 156.044 209.184 156.47L207.972 157.538H210.09V158ZM212.715 153.764C213.633 153.764 214.203 154.526 214.203 155.804V155.996C214.203 157.274 213.633 158.036 212.715 158.036C211.797 158.036 211.227 157.274 211.227 155.996V155.804C211.227 154.526 211.797 153.764 212.715 153.764ZM211.725 155.822V155.978C211.725 156.212 211.743 156.422 211.779 156.602L213.489 154.718C213.321 154.388 213.057 154.214 212.715 154.214C212.091 154.214 211.725 154.802 211.725 155.822ZM213.705 155.978V155.822C213.705 155.588 213.687 155.378 213.651 155.192L211.941 157.088C212.115 157.406 212.379 157.58 212.715 157.58C213.339 157.58 213.705 156.998 213.705 155.978ZM218.152 158H215.338V157.574L216.922 156.158C217.306 155.816 217.606 155.492 217.606 155.042C217.606 154.514 217.258 154.214 216.73 154.214C216.214 154.214 215.866 154.574 215.866 155.15V155.228H215.362V155.12C215.362 154.328 215.902 153.764 216.73 153.764C217.606 153.764 218.122 154.262 218.122 155.018C218.122 155.642 217.732 156.044 217.246 156.47L216.034 157.538H218.152V158ZM221.311 155.816C221.677 155.888 222.043 156.194 222.043 156.836C222.043 157.55 221.497 158.036 220.609 158.036C219.727 158.036 219.181 157.538 219.181 156.704H219.679C219.685 157.256 220.069 157.586 220.639 157.586C221.161 157.586 221.527 157.28 221.527 156.8C221.527 156.362 221.245 156.086 220.621 156.086H220.255V155.636H220.567C221.161 155.636 221.449 155.33 221.449 154.904C221.449 154.478 221.089 154.214 220.609 154.214C220.123 154.214 219.745 154.532 219.739 155.012H219.241C219.253 154.244 219.829 153.764 220.603 153.764C221.443 153.764 221.965 154.214 221.965 154.886C221.965 155.402 221.689 155.708 221.311 155.816Z" fill="#ADADB0"/>
<path d="M250.59 158H247.776V157.574L249.36 156.158C249.744 155.816 250.044 155.492 250.044 155.042C250.044 154.514 249.696 154.214 249.168 154.214C248.652 154.214 248.304 154.574 248.304 155.15V155.228H247.8V155.12C247.8 154.328 248.34 153.764 249.168 153.764C250.044 153.764 250.56 154.262 250.56 155.018C250.56 155.642 250.17 156.044 249.684 156.47L248.472 157.538H250.59V158ZM253.215 153.764C254.133 153.764 254.703 154.526 254.703 155.804V155.996C254.703 157.274 254.133 158.036 253.215 158.036C252.297 158.036 251.727 157.274 251.727 155.996V155.804C251.727 154.526 252.297 153.764 253.215 153.764ZM252.225 155.822V155.978C252.225 156.212 252.243 156.422 252.279 156.602L253.989 154.718C253.821 154.388 253.557 154.214 253.215 154.214C252.591 154.214 252.225 154.802 252.225 155.822ZM254.205 155.978V155.822C254.205 155.588 254.187 155.378 254.151 155.192L252.441 157.088C252.615 157.406 252.879 157.58 253.215 157.58C253.839 157.58 254.205 156.998 254.205 155.978ZM258.652 158H255.838V157.574L257.422 156.158C257.806 155.816 258.106 155.492 258.106 155.042C258.106 154.514 257.758 154.214 257.23 154.214C256.714 154.214 256.366 154.574 256.366 155.15V155.228H255.862V155.12C255.862 154.328 256.402 153.764 257.23 153.764C258.106 153.764 258.622 154.262 258.622 155.018C258.622 155.642 258.232 156.044 257.746 156.47L256.534 157.538H258.652V158ZM262.147 158H261.643V156.974H259.561V156.524L261.583 153.8H262.147V156.512H262.771V156.974H262.147V158ZM261.643 154.466L260.125 156.512H261.643V154.466Z" fill="#ADADB0"/>
<path d="M291.09 158H288.276V157.574L289.86 156.158C290.244 155.816 290.544 155.492 290.544 155.042C290.544 154.514 290.196 154.214 289.668 154.214C289.152 154.214 288.804 154.574 288.804 155.15V155.228H288.3V155.12C288.3 154.328 288.84 153.764 289.668 153.764C290.544 153.764 291.06 154.262 291.06 155.018C291.06 155.642 290.67 156.044 290.184 156.47L288.972 157.538H291.09V158ZM293.715 153.764C294.633 153.764 295.203 154.526 295.203 155.804V155.996C295.203 157.274 294.633 158.036 293.715 158.036C292.797 158.036 292.227 157.274 292.227 155.996V155.804C292.227 154.526 292.797 153.764 293.715 153.764ZM292.725 155.822V155.978C292.725 156.212 292.743 156.422 292.779 156.602L294.489 154.718C294.321 154.388 294.057 154.214 293.715 154.214C293.091 154.214 292.725 154.802 292.725 155.822ZM294.705 155.978V155.822C294.705 155.588 294.687 155.378 294.651 155.192L292.941 157.088C293.115 157.406 293.379 157.58 293.715 157.58C294.339 157.58 294.705 156.998 294.705 155.978ZM299.152 158H296.338V157.574L297.922 156.158C298.306 155.816 298.606 155.492 298.606 155.042C298.606 154.514 298.258 154.214 297.73 154.214C297.214 154.214 296.866 154.574 296.866 155.15V155.228H296.362V155.12C296.362 154.328 296.902 153.764 297.73 153.764C298.606 153.764 299.122 154.262 299.122 155.018C299.122 155.642 298.732 156.044 298.246 156.47L297.034 157.538H299.152V158ZM301.783 155.186C302.581 155.186 303.133 155.762 303.133 156.596C303.133 157.526 302.467 158.03 301.705 158.03C300.793 158.03 300.271 157.424 300.229 156.692H300.727C300.775 157.178 301.123 157.58 301.705 157.58C302.173 157.58 302.623 157.25 302.623 156.602C302.623 156.032 302.269 155.63 301.711 155.63C301.465 155.63 300.967 155.702 300.793 156.2L300.307 156.188L300.445 153.8H302.893V154.262H300.907L300.811 155.588C301.057 155.282 301.411 155.186 301.783 155.186Z" fill="#ADADB0"/>
<path d="M45 43V145" stroke="white" stroke-opacity="0.06" stroke-width="0.5"/>
<path d="M53 43V145" stroke="white" stroke-opacity="0.06" stroke-width="0.5" stroke-dasharray="4 4"/>
<path d="M93.5 43V145" stroke="white" stroke-opacity="0.06" stroke-width="0.5" stroke-dasharray="4 4"/>
<path d="M134 43V145" stroke="white" stroke-opacity="0.06" stroke-width="0.5" stroke-dasharray="4 4"/>
<path d="M174.5 43V145" stroke="white" stroke-opacity="0.06" stroke-width="0.5" stroke-dasharray="4 4"/>
<path d="M215 43V145" stroke="white" stroke-opacity="0.06" stroke-width="0.5" stroke-dasharray="4 4"/>
<path d="M255.5 43V145" stroke="white" stroke-opacity="0.06" stroke-width="0.5" stroke-dasharray="4 4"/>
<path d="M296 43V145" stroke="white" stroke-opacity="0.06" stroke-width="0.5" stroke-dasharray="4 4"/>
<path d="M302 43V145" stroke="white" stroke-opacity="0.06" stroke-width="0.5"/>
<path d="M304 144.5L45 144.5" stroke="white" stroke-opacity="0.06" stroke-width="0.5"/>
<path d="M17.3124 46.186C18.1104 46.186 18.6624 46.762 18.6624 47.596C18.6624 48.526 17.9964 49.03 17.2344 49.03C16.3224 49.03 15.8004 48.424 15.7584 47.692H16.2564C16.3044 48.178 16.6524 48.58 17.2344 48.58C17.7024 48.58 18.1524 48.25 18.1524 47.602C18.1524 47.032 17.7984 46.63 17.2404 46.63C16.9944 46.63 16.4964 46.702 16.3224 47.2L15.8364 47.188L15.9744 44.8H18.4224V45.262H16.4364L16.3404 46.588C16.5864 46.282 16.9404 46.186 17.3124 46.186ZM21.3079 44.764C22.2259 44.764 22.7959 45.526 22.7959 46.804V46.996C22.7959 48.274 22.2259 49.036 21.3079 49.036C20.3899 49.036 19.8199 48.274 19.8199 46.996V46.804C19.8199 45.526 20.3899 44.764 21.3079 44.764ZM20.3179 46.822V46.978C20.3179 47.212 20.3359 47.422 20.3719 47.602L22.0819 45.718C21.9139 45.388 21.6499 45.214 21.3079 45.214C20.6839 45.214 20.3179 45.802 20.3179 46.822ZM22.2979 46.978V46.822C22.2979 46.588 22.2799 46.378 22.2439 46.192L20.5339 48.088C20.7079 48.406 20.9719 48.58 21.3079 48.58C21.9319 48.58 22.2979 47.998 22.2979 46.978ZM24.6143 49H24.1223V44.8H24.6143V47.566L26.2463 45.94H26.8703L25.5803 47.224L26.9303 49H26.3243L25.2383 47.56L24.6143 48.184V49Z" fill="#ADADB0"/>
<path d="M18.1119 66H17.6079V64.974H15.5259V64.524L17.5479 61.8H18.1119V64.512H18.7359V64.974H18.1119V66ZM17.6079 62.466L16.0899 64.512H17.6079V62.466ZM21.3079 61.764C22.2259 61.764 22.7959 62.526 22.7959 63.804V63.996C22.7959 65.274 22.2259 66.036 21.3079 66.036C20.3899 66.036 19.8199 65.274 19.8199 63.996V63.804C19.8199 62.526 20.3899 61.764 21.3079 61.764ZM20.3179 63.822V63.978C20.3179 64.212 20.3359 64.422 20.3719 64.602L22.0819 62.718C21.9139 62.388 21.6499 62.214 21.3079 62.214C20.6839 62.214 20.3179 62.802 20.3179 63.822ZM22.2979 63.978V63.822C22.2979 63.588 22.2799 63.378 22.2439 63.192L20.5339 65.088C20.7079 65.406 20.9719 65.58 21.3079 65.58C21.9319 65.58 22.2979 64.998 22.2979 63.978ZM24.6143 66H24.1223V61.8H24.6143V64.566L26.2463 62.94H26.8703L25.5803 64.224L26.9303 66H26.3243L25.2383 64.56L24.6143 65.184V66Z" fill="#ADADB0"/>
<path d="M17.8521 80.816C18.2181 80.888 18.5841 81.194 18.5841 81.836C18.5841 82.55 18.0381 83.036 17.1501 83.036C16.2681 83.036 15.7221 82.538 15.7221 81.704H16.2201C16.2261 82.256 16.6101 82.586 17.1801 82.586C17.7021 82.586 18.0681 82.28 18.0681 81.8C18.0681 81.362 17.7861 81.086 17.1621 81.086H16.7961V80.636H17.1081C17.7021 80.636 17.9901 80.33 17.9901 79.904C17.9901 79.478 17.6301 79.214 17.1501 79.214C16.6641 79.214 16.2861 79.532 16.2801 80.012H15.7821C15.7941 79.244 16.3701 78.764 17.1441 78.764C17.9841 78.764 18.5061 79.214 18.5061 79.886C18.5061 80.402 18.2301 80.708 17.8521 80.816ZM21.3079 78.764C22.2259 78.764 22.7959 79.526 22.7959 80.804V80.996C22.7959 82.274 22.2259 83.036 21.3079 83.036C20.3899 83.036 19.8199 82.274 19.8199 80.996V80.804C19.8199 79.526 20.3899 78.764 21.3079 78.764ZM20.3179 80.822V80.978C20.3179 81.212 20.3359 81.422 20.3719 81.602L22.0819 79.718C21.9139 79.388 21.6499 79.214 21.3079 79.214C20.6839 79.214 20.3179 79.802 20.3179 80.822ZM22.2979 80.978V80.822C22.2979 80.588 22.2799 80.378 22.2439 80.192L20.5339 82.088C20.7079 82.406 20.9719 82.58 21.3079 82.58C21.9319 82.58 22.2979 81.998 22.2979 80.978ZM24.6143 83H24.1223V78.8H24.6143V81.566L26.2463 79.94H26.8703L25.5803 81.224L26.9303 83H26.3243L25.2383 81.56L24.6143 82.184V83Z" fill="#ADADB0"/>
<path d="M18.6827 100H15.8687V99.574L17.4527 98.158C17.8367 97.816 18.1367 97.492 18.1367 97.042C18.1367 96.514 17.7887 96.214 17.2607 96.214C16.7447 96.214 16.3967 96.574 16.3967 97.15V97.228H15.8927V97.12C15.8927 96.328 16.4327 95.764 17.2607 95.764C18.1367 95.764 18.6527 96.262 18.6527 97.018C18.6527 97.642 18.2627 98.044 17.7767 98.47L16.5647 99.538H18.6827V100ZM21.3079 95.764C22.2259 95.764 22.7959 96.526 22.7959 97.804V97.996C22.7959 99.274 22.2259 100.036 21.3079 100.036C20.3899 100.036 19.8199 99.274 19.8199 97.996V97.804C19.8199 96.526 20.3899 95.764 21.3079 95.764ZM20.3179 97.822V97.978C20.3179 98.212 20.3359 98.422 20.3719 98.602L22.0819 96.718C21.9139 96.388 21.6499 96.214 21.3079 96.214C20.6839 96.214 20.3179 96.802 20.3179 97.822ZM22.2979 97.978V97.822C22.2979 97.588 22.2799 97.378 22.2439 97.192L20.5339 99.088C20.7079 99.406 20.9719 99.58 21.3079 99.58C21.9319 99.58 22.2979 98.998 22.2979 97.978ZM24.6143 100H24.1223V95.8H24.6143V98.566L26.2463 96.94H26.8703L25.5803 98.224L26.9303 100H26.3243L25.2383 98.56L24.6143 99.184V100Z" fill="#ADADB0"/>
<path d="M17.8692 112.8V116.532H18.9312V117H16.2672V116.532H17.3712V114.054C17.3112 114.096 17.2392 114.114 17.1492 114.114H16.2792V113.664H17.0952C17.2812 113.664 17.3772 113.508 17.3772 113.304V112.8H17.8692ZM21.3079 112.764C22.2259 112.764 22.7959 113.526 22.7959 114.804V114.996C22.7959 116.274 22.2259 117.036 21.3079 117.036C20.3899 117.036 19.8199 116.274 19.8199 114.996V114.804C19.8199 113.526 20.3899 112.764 21.3079 112.764ZM20.3179 114.822V114.978C20.3179 115.212 20.3359 115.422 20.3719 115.602L22.0819 113.718C21.9139 113.388 21.6499 113.214 21.3079 113.214C20.6839 113.214 20.3179 113.802 20.3179 114.822ZM22.2979 114.978V114.822C22.2979 114.588 22.2799 114.378 22.2439 114.192L20.5339 116.088C20.7079 116.406 20.9719 116.58 21.3079 116.58C21.9319 116.58 22.2979 115.998 22.2979 114.978ZM24.6143 117H24.1223V112.8H24.6143V115.566L26.2463 113.94H26.8703L25.5803 115.224L26.9303 117H26.3243L25.2383 115.56L24.6143 116.184V117Z" fill="#ADADB0"/>
<path d="M25.1336 129.764C26.0516 129.764 26.6216 130.526 26.6216 131.804V131.996C26.6216 133.274 26.0516 134.036 25.1336 134.036C24.2156 134.036 23.6456 133.274 23.6456 131.996V131.804C23.6456 130.526 24.2156 129.764 25.1336 129.764ZM24.1436 131.822V131.978C24.1436 132.212 24.1616 132.422 24.1976 132.602L25.9076 130.718C25.7396 130.388 25.4756 130.214 25.1336 130.214C24.5096 130.214 24.1436 130.802 24.1436 131.822ZM26.1236 131.978V131.822C26.1236 131.588 26.1056 131.378 26.0696 131.192L24.3596 133.088C24.5336 133.406 24.7976 133.58 25.1336 133.58C25.7576 133.58 26.1236 132.998 26.1236 131.978Z" fill="#ADADB0"/>
<path d="M120.137 134.221L42 144.5L302.25 143.316V43L229.824 74.5787C228.041 75.3562 226.745 76.9502 226.348 78.8547L226.32 78.9895C225.842 81.2839 224.072 83.0899 221.788 83.6138L208.459 86.6704C208.043 86.766 207.637 86.9058 207.251 87.0874L166.048 106.432C164.501 107.158 163.514 108.712 163.514 110.42C163.514 112.291 162.333 113.957 160.568 114.577L150.745 118.027C150.268 118.194 149.813 118.422 149.393 118.703L142.755 123.15C142.385 123.398 141.988 123.604 141.573 123.764L129.391 128.458C128.859 128.663 128.359 128.943 127.906 129.289L122.997 133.04C122.164 133.677 121.178 134.084 120.137 134.221Z" fill="url(#paint0_linear_427_2822)"/>
<path d="M42 144.5L120.137 134.221C121.178 134.084 122.164 133.677 122.997 133.04L127.906 129.289C128.359 128.943 128.859 128.663 129.391 128.458L141.573 123.764C141.988 123.604 142.385 123.398 142.755 123.15L149.393 118.703C149.813 118.422 150.267 118.194 150.745 118.027L160.568 114.577C162.333 113.957 163.514 112.291 163.514 110.42V110.42C163.514 108.712 164.501 107.158 166.048 106.432L207.251 87.0874C207.637 86.9058 208.043 86.766 208.459 86.6704L221.788 83.6138C224.072 83.0899 225.842 81.2839 226.32 78.9895L226.348 78.8547C226.745 76.9502 228.041 75.3562 229.824 74.5787L302.25 43" stroke="url(#paint1_linear_427_2822)" stroke-width="0.5"/>
</g>
<defs>
<linearGradient id="paint0_linear_427_2822" x1="172.125" y1="73.5309" x2="172.125" y2="144.5" gradientUnits="userSpaceOnUse">
<stop stop-color="#FD366E" stop-opacity="0.16"/>
<stop offset="1" stop-color="#FD366E" stop-opacity="0.02"/>
</linearGradient>
<linearGradient id="paint1_linear_427_2822" x1="302.25" y1="48.1877" x2="39.7768" y2="129.67" gradientUnits="userSpaceOnUse">
<stop stop-color="#FD366E"/>
<stop offset="0.214023" stop-color="#FD366E" stop-opacity="0.48"/>
<stop offset="0.977666" stop-color="#FD366E" stop-opacity="0.2"/>
<stop offset="1" stop-color="#FD366E" stop-opacity="0"/>
</linearGradient>
<clipPath id="clip0_427_2822">
<rect width="320" height="176" rx="8" fill="white"/>
</clipPath>
</defs>
</svg>
