<svg width="1200" height="400" viewBox="0 0 1200 400" fill="none" xmlns="http://www.w3.org/2000/svg">
<path d="M1164 93L90 93" stroke="white" stroke-opacity="0.06" stroke-dasharray="8 8"/>
<path d="M1164 136.4L90 136.4" stroke="white" stroke-opacity="0.06" stroke-dasharray="8 8"/>
<path d="M1164 179.8L90 179.8" stroke="white" stroke-opacity="0.06" stroke-dasharray="8 8"/>
<path d="M1164 223.2L90 223.2" stroke="white" stroke-opacity="0.06" stroke-dasharray="8 8"/>
<path d="M1164 266.6L90 266.6" stroke="white" stroke-opacity="0.06" stroke-dasharray="8 8"/>
<path d="M1164 310L90 310" stroke="white" stroke-opacity="0.06" stroke-dasharray="8 8"/>
<path fill-rule="evenodd" clip-rule="evenodd" d="M34.0008 28.0508C38.9439 28.0508 42.9508 32.1588 42.9508 37.2271C42.9508 41.2806 40.3893 44.7192 36.8352 45.9337C36.3815 46.0241 36.2204 45.7375 36.2204 45.4932C36.2204 45.1907 36.2311 44.2027 36.2311 42.9747C36.2311 42.1191 35.9447 41.5607 35.6234 41.2761C37.6166 41.0487 39.7109 40.2727 39.7109 36.7482C39.7109 35.7458 39.3636 34.9278 38.789 34.2852C38.8821 34.0534 39.1891 33.12 38.7013 31.8563C38.7013 31.8563 37.9513 31.6104 36.2428 32.7972C35.5276 32.594 34.7615 32.4918 34.0008 32.4882C33.24 32.4918 32.4748 32.594 31.7606 32.7972C30.0503 31.6104 29.2985 31.8563 29.2985 31.8563C28.8125 33.12 29.1195 34.0534 29.2116 34.2852C28.6397 34.9278 28.2898 35.7458 28.2898 36.7482C28.2898 40.2637 30.3796 41.0517 32.3674 41.2835C32.1114 41.5126 31.8796 41.9168 31.7991 42.5102C31.2889 42.7447 29.993 43.1505 29.1946 41.748C29.1946 41.748 28.7212 40.8663 27.8226 40.8019C27.8226 40.8019 26.95 40.7903 27.7617 41.3595C27.7617 41.3595 28.348 41.6414 28.7552 42.702C28.7552 42.702 29.2806 44.3398 31.7704 43.7849C31.7749 44.5519 31.783 45.2748 31.783 45.4932C31.783 45.7358 31.6183 46.0196 31.1717 45.9346C27.615 44.7219 25.0508 41.2815 25.0508 37.2271C25.0508 32.1588 29.0586 28.0508 34.0008 28.0508Z" fill="#E4E4E7"/>
<path d="M62.2976 35.0447C62.174 34.657 62.0078 34.3097 61.799 34.0028C61.5945 33.6918 61.3494 33.4276 61.0639 33.2102C60.7784 32.9886 60.4524 32.8203 60.0859 32.7053C59.7237 32.5902 59.3253 32.5327 58.8906 32.5327C58.1534 32.5327 57.4886 32.7223 56.8963 33.1016C56.304 33.4808 55.8352 34.0369 55.4901 34.7699C55.1491 35.4986 54.9787 36.3913 54.9787 37.4482C54.9787 38.5092 55.1513 39.4062 55.4964 40.1392C55.8416 40.8722 56.3146 41.4283 56.9155 41.8075C57.5163 42.1868 58.2003 42.3764 58.9673 42.3764C59.679 42.3764 60.299 42.2315 60.8274 41.9418C61.3601 41.652 61.7713 41.2429 62.0611 40.7145C62.3551 40.1818 62.5021 39.5554 62.5021 38.8352L63.0135 38.9311H59.2678V37.3011H64.4134V38.7905C64.4134 39.8899 64.179 40.8445 63.7102 41.6541C63.2457 42.4595 62.6023 43.0817 61.7798 43.5206C60.9616 43.9595 60.0241 44.179 58.9673 44.179C57.7827 44.179 56.7429 43.9062 55.848 43.3608C54.9574 42.8153 54.2628 42.0419 53.7642 41.0405C53.2656 40.0348 53.0163 38.8416 53.0163 37.4609C53.0163 36.4169 53.1612 35.4794 53.451 34.6484C53.7408 33.8175 54.1477 33.1122 54.6719 32.5327C55.2003 31.9489 55.8203 31.5036 56.532 31.1967C57.2479 30.8857 58.0298 30.7301 58.8778 30.7301C59.5852 30.7301 60.2436 30.8345 60.853 31.0433C61.4666 31.2521 62.0121 31.5483 62.4893 31.9318C62.9709 32.3153 63.3693 32.7713 63.6847 33.2997C64 33.8239 64.2131 34.4055 64.3239 35.0447H62.2976ZM67.3015 44V34.1818H69.2127V44H67.3015ZM68.2667 32.6669C67.9343 32.6669 67.6488 32.5561 67.4101 32.3345C67.1757 32.1087 67.0586 31.8402 67.0586 31.5291C67.0586 31.2138 67.1757 30.9453 67.4101 30.7237C67.6488 30.4979 67.9343 30.3849 68.2667 30.3849C68.599 30.3849 68.8824 30.4979 69.1168 30.7237C69.3554 30.9453 69.4748 31.2138 69.4748 31.5291C69.4748 31.8402 69.3554 32.1087 69.1168 32.3345C68.8824 32.5561 68.599 32.6669 68.2667 32.6669ZM76.286 34.1818V35.7159H70.923V34.1818H76.286ZM72.3613 31.8295H74.2725V41.1172C74.2725 41.4879 74.3279 41.767 74.4387 41.9545C74.5495 42.1378 74.6922 42.2635 74.8669 42.3317C75.0459 42.3956 75.2398 42.4276 75.4486 42.4276C75.602 42.4276 75.7363 42.4169 75.8513 42.3956C75.9664 42.3743 76.0559 42.3572 76.1198 42.3445L76.465 43.9233C76.3542 43.9659 76.1965 44.0085 75.9919 44.0511C75.7874 44.098 75.5317 44.1236 75.2249 44.1278C74.7221 44.1364 74.2533 44.0469 73.8186 43.8594C73.384 43.6719 73.0324 43.3821 72.764 42.9901C72.4955 42.598 72.3613 42.1058 72.3613 41.5135V31.8295ZM78.6835 44V30.9091H80.6586V36.598H87.1849V30.9091H89.1664V44H87.1849V38.2919H80.6586V44H78.6835ZM98.0279 39.9283V34.1818H99.9455V44H98.0663V42.2997H97.964C97.7381 42.8239 97.3759 43.2607 96.8773 43.6101C96.383 43.9553 95.7673 44.1278 95.03 44.1278C94.3994 44.1278 93.8411 43.9893 93.3553 43.7124C92.8738 43.4311 92.4945 43.0156 92.2175 42.4659C91.9448 41.9162 91.8085 41.2365 91.8085 40.4268V34.1818H93.7197V40.1967C93.7197 40.8658 93.905 41.3984 94.2758 41.7947C94.6465 42.1911 95.1281 42.3892 95.7204 42.3892C96.0783 42.3892 96.4342 42.2997 96.7879 42.1207C97.1458 41.9418 97.442 41.6712 97.6764 41.3089C97.915 40.9467 98.0322 40.4865 98.0279 39.9283ZM102.586 44V30.9091H104.497V35.7734H104.612C104.723 35.5689 104.883 35.3324 105.092 35.0639C105.3 34.7955 105.59 34.5611 105.961 34.3608C106.332 34.1562 106.822 34.054 107.431 34.054C108.224 34.054 108.931 34.2543 109.553 34.6548C110.175 35.0554 110.663 35.6328 111.017 36.3871C111.375 37.1413 111.554 38.049 111.554 39.1101C111.554 40.1712 111.377 41.081 111.023 41.8395C110.67 42.5937 110.184 43.1754 109.566 43.5845C108.948 43.9893 108.243 44.1918 107.45 44.1918C106.854 44.1918 106.366 44.0916 105.987 43.8913C105.612 43.6911 105.317 43.4567 105.104 43.1882C104.891 42.9197 104.727 42.6811 104.612 42.4723H104.452V44H102.586ZM104.459 39.0909C104.459 39.7812 104.559 40.3864 104.759 40.9062C104.96 41.4261 105.249 41.8331 105.629 42.1271C106.008 42.4169 106.472 42.5618 107.022 42.5618C107.593 42.5618 108.07 42.4105 108.454 42.108C108.837 41.8011 109.127 41.3857 109.323 40.8615C109.523 40.3374 109.624 39.7472 109.624 39.0909C109.624 38.4432 109.526 37.8615 109.33 37.3459C109.138 36.8303 108.848 36.4233 108.46 36.125C108.077 35.8267 107.597 35.6776 107.022 35.6776C106.468 35.6776 105.999 35.8203 105.616 36.1058C105.237 36.3913 104.949 36.7898 104.753 37.3011C104.557 37.8125 104.459 38.4091 104.459 39.0909ZM125.659 36.5788L123.927 36.8857C123.854 36.6641 123.739 36.4531 123.582 36.2528C123.428 36.0526 123.219 35.8885 122.955 35.7607C122.691 35.6328 122.361 35.5689 121.964 35.5689C121.423 35.5689 120.972 35.6903 120.609 35.9332C120.247 36.1719 120.066 36.4808 120.066 36.8601C120.066 37.1882 120.187 37.4524 120.43 37.6527C120.673 37.853 121.065 38.017 121.606 38.1449L123.166 38.5028C124.07 38.7116 124.743 39.0334 125.186 39.468C125.629 39.9027 125.851 40.4673 125.851 41.1619C125.851 41.75 125.68 42.2741 125.339 42.7344C125.003 43.1903 124.532 43.5483 123.927 43.8082C123.326 44.0682 122.629 44.1982 121.837 44.1982C120.737 44.1982 119.84 43.9638 119.146 43.495C118.451 43.022 118.025 42.3509 117.867 41.4815L119.714 41.2003C119.829 41.6818 120.066 42.0462 120.424 42.2933C120.782 42.5362 121.249 42.6577 121.824 42.6577C122.45 42.6577 122.951 42.5277 123.326 42.2678C123.701 42.0036 123.888 41.6818 123.888 41.3026C123.888 40.9957 123.773 40.7379 123.543 40.5291C123.317 40.3203 122.97 40.1626 122.501 40.0561L120.839 39.6918C119.923 39.483 119.246 39.1506 118.807 38.6946C118.372 38.2386 118.155 37.6612 118.155 36.9624C118.155 36.3828 118.317 35.8757 118.641 35.4411C118.964 35.0064 119.412 34.6676 119.983 34.4247C120.554 34.1776 121.208 34.054 121.945 34.054C123.006 34.054 123.842 34.2841 124.451 34.7443C125.06 35.2003 125.463 35.8118 125.659 36.5788ZM132.454 34.1818V35.7159H127.091V34.1818H132.454ZM128.53 31.8295H130.441V41.1172C130.441 41.4879 130.496 41.767 130.607 41.9545C130.718 42.1378 130.861 42.2635 131.035 42.3317C131.214 42.3956 131.408 42.4276 131.617 42.4276C131.77 42.4276 131.905 42.4169 132.02 42.3956C132.135 42.3743 132.224 42.3572 132.288 42.3445L132.633 43.9233C132.522 43.9659 132.365 44.0085 132.16 44.0511C131.956 44.098 131.7 44.1236 131.393 44.1278C130.89 44.1364 130.422 44.0469 129.987 43.8594C129.552 43.6719 129.201 43.3821 128.932 42.9901C128.664 42.598 128.53 42.1058 128.53 41.5135V31.8295ZM137.345 44.2173C136.723 44.2173 136.16 44.1023 135.657 43.8722C135.154 43.6378 134.756 43.299 134.462 42.8558C134.172 42.4126 134.027 41.8693 134.027 41.2259C134.027 40.6719 134.134 40.2159 134.347 39.858C134.56 39.5 134.848 39.2166 135.21 39.0078C135.572 38.799 135.977 38.6413 136.424 38.5348C136.872 38.4283 137.328 38.3473 137.792 38.2919C138.38 38.2237 138.857 38.1683 139.224 38.1257C139.59 38.0788 139.857 38.0043 140.023 37.902C140.189 37.7997 140.272 37.6335 140.272 37.4034V37.3587C140.272 36.8004 140.115 36.3679 139.799 36.0611C139.488 35.7543 139.024 35.6009 138.406 35.6009C137.762 35.6009 137.255 35.7436 136.884 36.0291C136.518 36.3104 136.264 36.6236 136.124 36.9688L134.328 36.5597C134.541 35.9631 134.852 35.4815 135.261 35.1151C135.674 34.7443 136.149 34.4759 136.686 34.3097C137.223 34.1392 137.788 34.054 138.38 34.054C138.772 34.054 139.188 34.1009 139.627 34.1946C140.07 34.2841 140.483 34.4503 140.867 34.6932C141.254 34.9361 141.572 35.2834 141.819 35.7351C142.066 36.1825 142.19 36.7642 142.19 37.4801V44H140.323V42.6577H140.247C140.123 42.9048 139.938 43.1477 139.691 43.3864C139.443 43.625 139.126 43.8232 138.738 43.9808C138.35 44.1385 137.886 44.2173 137.345 44.2173ZM137.76 42.6832C138.289 42.6832 138.74 42.5788 139.115 42.37C139.495 42.1612 139.782 41.8885 139.978 41.5518C140.178 41.2109 140.279 40.8466 140.279 40.4588V39.1932C140.21 39.2614 140.078 39.3253 139.882 39.3849C139.691 39.4403 139.471 39.4893 139.224 39.532C138.977 39.5703 138.736 39.6065 138.502 39.6406C138.267 39.6705 138.071 39.696 137.914 39.7173C137.543 39.7642 137.204 39.843 136.897 39.9538C136.595 40.0646 136.352 40.2244 136.169 40.4332C135.99 40.6378 135.9 40.9105 135.9 41.2514C135.9 41.7244 136.075 42.0824 136.424 42.3253C136.774 42.5639 137.219 42.6832 137.76 42.6832ZM144.654 44V34.1818H146.502V35.7415H146.604C146.783 35.2131 147.098 34.7976 147.55 34.495C148.006 34.1882 148.522 34.0348 149.097 34.0348C149.216 34.0348 149.357 34.0391 149.519 34.0476C149.685 34.0561 149.815 34.0668 149.909 34.0795V35.9077C149.832 35.8864 149.696 35.8629 149.5 35.8374C149.304 35.8075 149.108 35.7926 148.912 35.7926C148.46 35.7926 148.057 35.8885 147.703 36.0803C147.354 36.2678 147.077 36.5298 146.873 36.8665C146.668 37.1989 146.566 37.5781 146.566 38.0043V44H144.654ZM158.839 36.5788L157.107 36.8857C157.034 36.6641 156.919 36.4531 156.762 36.2528C156.608 36.0526 156.399 35.8885 156.135 35.7607C155.871 35.6328 155.541 35.5689 155.144 35.5689C154.603 35.5689 154.151 35.6903 153.789 35.9332C153.427 36.1719 153.246 36.4808 153.246 36.8601C153.246 37.1882 153.367 37.4524 153.61 37.6527C153.853 37.853 154.245 38.017 154.786 38.1449L156.346 38.5028C157.249 38.7116 157.923 39.0334 158.366 39.468C158.809 39.9027 159.031 40.4673 159.031 41.1619C159.031 41.75 158.86 42.2741 158.519 42.7344C158.183 43.1903 157.712 43.5483 157.107 43.8082C156.506 44.0682 155.809 44.1982 155.016 44.1982C153.917 44.1982 153.02 43.9638 152.325 43.495C151.631 43.022 151.205 42.3509 151.047 41.4815L152.894 41.2003C153.009 41.6818 153.246 42.0462 153.604 42.2933C153.962 42.5362 154.428 42.6577 155.004 42.6577C155.63 42.6577 156.131 42.5277 156.506 42.2678C156.881 42.0036 157.068 41.6818 157.068 41.3026C157.068 40.9957 156.953 40.7379 156.723 40.5291C156.497 40.3203 156.15 40.1626 155.681 40.0561L154.019 39.6918C153.103 39.483 152.426 39.1506 151.987 38.6946C151.552 38.2386 151.335 37.6612 151.335 36.9624C151.335 36.3828 151.497 35.8757 151.82 35.4411C152.144 35.0064 152.592 34.6676 153.163 34.4247C153.734 34.1776 154.388 34.054 155.125 34.054C156.186 34.054 157.021 34.2841 157.631 34.7443C158.24 35.2003 158.643 35.8118 158.839 36.5788Z" fill="#E4E4E7"/>
<path d="M106 86V338" stroke="white" stroke-opacity="0.06" stroke-dasharray="8 8"/>
<path d="M280.334 86V338" stroke="white" stroke-opacity="0.06" stroke-dasharray="8 8"/>
<path d="M454.666 86V338" stroke="white" stroke-opacity="0.06" stroke-dasharray="8 8"/>
<path d="M629 86V338" stroke="white" stroke-opacity="0.06" stroke-dasharray="8 8"/>
<path d="M803.334 86V338" stroke="white" stroke-opacity="0.06" stroke-dasharray="8 8"/>
<path d="M977.666 86V338" stroke="white" stroke-opacity="0.06" stroke-dasharray="8 8"/>
<path d="M1152 86V338" stroke="white" stroke-opacity="0.06" stroke-dasharray="8 8"/>
<path d="M1164 86V338" stroke="white" stroke-opacity="0.06"/>
<path d="M90 86V338" stroke="white" stroke-opacity="0.06"/>
<path d="M1168 337L90 337" stroke="white" stroke-opacity="0.06"/>
<path d="M96.18 364H90.552V363.148L93.72 360.316C94.488 359.632 95.088 358.984 95.088 358.084C95.088 357.028 94.392 356.428 93.336 356.428C92.304 356.428 91.608 357.148 91.608 358.3V358.456H90.6V358.24C90.6 356.656 91.68 355.528 93.336 355.528C95.088 355.528 96.12 356.524 96.12 358.036C96.12 359.284 95.34 360.088 94.368 360.94L91.944 363.076H96.18V364ZM101.43 355.528C103.266 355.528 104.406 357.052 104.406 359.608V359.992C104.406 362.548 103.266 364.072 101.43 364.072C99.5943 364.072 98.4543 362.548 98.4543 359.992V359.608C98.4543 357.052 99.5943 355.528 101.43 355.528ZM99.4503 359.644V359.956C99.4503 360.424 99.4863 360.844 99.5583 361.204L102.978 357.436C102.642 356.776 102.114 356.428 101.43 356.428C100.182 356.428 99.4503 357.604 99.4503 359.644ZM103.41 359.956V359.644C103.41 359.176 103.374 358.756 103.302 358.384L99.8823 362.176C100.23 362.812 100.758 363.16 101.43 363.16C102.678 363.16 103.41 361.996 103.41 359.956ZM109.879 355.6V363.064H112.003V364H106.675V363.064H108.883V358.108C108.763 358.192 108.619 358.228 108.439 358.228H106.699V357.328H108.331C108.703 357.328 108.895 357.016 108.895 356.608V355.6H109.879ZM116.868 364.072C115.38 364.072 114.372 363.16 114.168 361.756H115.176C115.356 362.584 115.92 363.184 116.916 363.184C118.32 363.184 119.04 361.732 119.04 360.076C119.04 359.836 119.052 359.872 119.04 359.668C119.004 359.788 119.004 359.8 118.968 359.896C118.644 360.604 117.84 361.156 116.76 361.156C115.152 361.156 114.024 360.064 114.024 358.348C114.024 356.728 115.188 355.528 116.856 355.528C117.948 355.528 118.812 356.032 119.328 356.92C119.748 357.652 119.976 358.672 119.976 359.764C119.976 362.404 118.824 364.072 116.868 364.072ZM116.832 360.268C117.948 360.268 118.716 359.476 118.716 358.324C118.716 357.196 117.972 356.416 116.868 356.416C115.764 356.416 115.032 357.22 115.032 358.348C115.032 359.464 115.728 360.268 116.832 360.268Z" fill="#ADADB0"/>
<path d="M270.514 364H264.886V363.148L268.054 360.316C268.822 359.632 269.422 358.984 269.422 358.084C269.422 357.028 268.726 356.428 267.67 356.428C266.638 356.428 265.942 357.148 265.942 358.3V358.456H264.934V358.24C264.934 356.656 266.014 355.528 267.67 355.528C269.422 355.528 270.454 356.524 270.454 358.036C270.454 359.284 269.674 360.088 268.702 360.94L266.278 363.076H270.514V364ZM275.764 355.528C277.6 355.528 278.74 357.052 278.74 359.608V359.992C278.74 362.548 277.6 364.072 275.764 364.072C273.928 364.072 272.788 362.548 272.788 359.992V359.608C272.788 357.052 273.928 355.528 275.764 355.528ZM273.784 359.644V359.956C273.784 360.424 273.82 360.844 273.892 361.204L277.312 357.436C276.976 356.776 276.448 356.428 275.764 356.428C274.516 356.428 273.784 357.604 273.784 359.644ZM277.744 359.956V359.644C277.744 359.176 277.708 358.756 277.636 358.384L274.216 362.176C274.564 362.812 275.092 363.16 275.764 363.16C277.012 363.16 277.744 361.996 277.744 359.956ZM286.637 364H281.009V363.148L284.177 360.316C284.945 359.632 285.545 358.984 285.545 358.084C285.545 357.028 284.849 356.428 283.793 356.428C282.761 356.428 282.065 357.148 282.065 358.3V358.456H281.057V358.24C281.057 356.656 282.137 355.528 283.793 355.528C285.545 355.528 286.577 356.524 286.577 358.036C286.577 359.284 285.797 360.088 284.825 360.94L282.401 363.076H286.637V364ZM291.887 355.528C293.723 355.528 294.863 357.052 294.863 359.608V359.992C294.863 362.548 293.723 364.072 291.887 364.072C290.051 364.072 288.911 362.548 288.911 359.992V359.608C288.911 357.052 290.051 355.528 291.887 355.528ZM289.907 359.644V359.956C289.907 360.424 289.943 360.844 290.015 361.204L293.435 357.436C293.099 356.776 292.571 356.428 291.887 356.428C290.639 356.428 289.907 357.604 289.907 359.644ZM293.867 359.956V359.644C293.867 359.176 293.831 358.756 293.759 358.384L290.339 362.176C290.687 362.812 291.215 363.16 291.887 363.16C293.135 363.16 293.867 361.996 293.867 359.956Z" fill="#ADADB0"/>
<path d="M445.846 364H440.218V363.148L443.386 360.316C444.154 359.632 444.754 358.984 444.754 358.084C444.754 357.028 444.058 356.428 443.002 356.428C441.97 356.428 441.274 357.148 441.274 358.3V358.456H440.266V358.24C440.266 356.656 441.346 355.528 443.002 355.528C444.754 355.528 445.786 356.524 445.786 358.036C445.786 359.284 445.006 360.088 444.034 360.94L441.61 363.076H445.846V364ZM451.096 355.528C452.932 355.528 454.072 357.052 454.072 359.608V359.992C454.072 362.548 452.932 364.072 451.096 364.072C449.26 364.072 448.12 362.548 448.12 359.992V359.608C448.12 357.052 449.26 355.528 451.096 355.528ZM449.116 359.644V359.956C449.116 360.424 449.152 360.844 449.224 361.204L452.644 357.436C452.308 356.776 451.78 356.428 451.096 356.428C449.848 356.428 449.116 357.604 449.116 359.644ZM453.076 359.956V359.644C453.076 359.176 453.04 358.756 452.968 358.384L449.548 362.176C449.896 362.812 450.424 363.16 451.096 363.16C452.344 363.16 453.076 361.996 453.076 359.956ZM461.969 364H456.341V363.148L459.509 360.316C460.277 359.632 460.877 358.984 460.877 358.084C460.877 357.028 460.181 356.428 459.125 356.428C458.093 356.428 457.397 357.148 457.397 358.3V358.456H456.389V358.24C456.389 356.656 457.469 355.528 459.125 355.528C460.877 355.528 461.909 356.524 461.909 358.036C461.909 359.284 461.129 360.088 460.157 360.94L457.733 363.076H461.969V364ZM467.243 355.6V363.064H469.367V364H464.039V363.064H466.247V358.108C466.127 358.192 465.983 358.228 465.803 358.228H464.063V357.328H465.695C466.067 357.328 466.259 357.016 466.259 356.608V355.6H467.243Z" fill="#ADADB0"/>
<path d="M620.18 364H614.552V363.148L617.72 360.316C618.488 359.632 619.088 358.984 619.088 358.084C619.088 357.028 618.392 356.428 617.336 356.428C616.304 356.428 615.608 357.148 615.608 358.3V358.456H614.6V358.24C614.6 356.656 615.68 355.528 617.336 355.528C619.088 355.528 620.12 356.524 620.12 358.036C620.12 359.284 619.34 360.088 618.368 360.94L615.944 363.076H620.18V364ZM625.43 355.528C627.266 355.528 628.406 357.052 628.406 359.608V359.992C628.406 362.548 627.266 364.072 625.43 364.072C623.594 364.072 622.454 362.548 622.454 359.992V359.608C622.454 357.052 623.594 355.528 625.43 355.528ZM623.45 359.644V359.956C623.45 360.424 623.486 360.844 623.558 361.204L626.978 357.436C626.642 356.776 626.114 356.428 625.43 356.428C624.182 356.428 623.45 357.604 623.45 359.644ZM627.41 359.956V359.644C627.41 359.176 627.374 358.756 627.302 358.384L623.882 362.176C624.23 362.812 624.758 363.16 625.43 363.16C626.678 363.16 627.41 361.996 627.41 359.956ZM636.303 364H630.675V363.148L633.843 360.316C634.611 359.632 635.211 358.984 635.211 358.084C635.211 357.028 634.515 356.428 633.459 356.428C632.427 356.428 631.731 357.148 631.731 358.3V358.456H630.723V358.24C630.723 356.656 631.803 355.528 633.459 355.528C635.211 355.528 636.243 356.524 636.243 358.036C636.243 359.284 635.463 360.088 634.491 360.94L632.067 363.076H636.303V364ZM644.001 364H638.373V363.148L641.541 360.316C642.309 359.632 642.909 358.984 642.909 358.084C642.909 357.028 642.213 356.428 641.157 356.428C640.125 356.428 639.429 357.148 639.429 358.3V358.456H638.421V358.24C638.421 356.656 639.501 355.528 641.157 355.528C642.909 355.528 643.941 356.524 643.941 358.036C643.941 359.284 643.161 360.088 642.189 360.94L639.765 363.076H644.001V364Z" fill="#ADADB0"/>
<path d="M794.514 364H788.886V363.148L792.054 360.316C792.822 359.632 793.422 358.984 793.422 358.084C793.422 357.028 792.726 356.428 791.67 356.428C790.638 356.428 789.942 357.148 789.942 358.3V358.456H788.934V358.24C788.934 356.656 790.014 355.528 791.67 355.528C793.422 355.528 794.454 356.524 794.454 358.036C794.454 359.284 793.674 360.088 792.702 360.94L790.278 363.076H794.514V364ZM799.764 355.528C801.6 355.528 802.74 357.052 802.74 359.608V359.992C802.74 362.548 801.6 364.072 799.764 364.072C797.928 364.072 796.788 362.548 796.788 359.992V359.608C796.788 357.052 797.928 355.528 799.764 355.528ZM797.784 359.644V359.956C797.784 360.424 797.82 360.844 797.892 361.204L801.312 357.436C800.976 356.776 800.448 356.428 799.764 356.428C798.516 356.428 797.784 357.604 797.784 359.644ZM801.744 359.956V359.644C801.744 359.176 801.708 358.756 801.636 358.384L798.216 362.176C798.564 362.812 799.092 363.16 799.764 363.16C801.012 363.16 801.744 361.996 801.744 359.956ZM810.637 364H805.009V363.148L808.177 360.316C808.945 359.632 809.545 358.984 809.545 358.084C809.545 357.028 808.849 356.428 807.793 356.428C806.761 356.428 806.065 357.148 806.065 358.3V358.456H805.057V358.24C805.057 356.656 806.137 355.528 807.793 355.528C809.545 355.528 810.577 356.524 810.577 358.036C810.577 359.284 809.797 360.088 808.825 360.94L806.401 363.076H810.637V364ZM816.955 359.632C817.687 359.776 818.419 360.388 818.419 361.672C818.419 363.1 817.327 364.072 815.551 364.072C813.787 364.072 812.695 363.076 812.695 361.408H813.691C813.703 362.512 814.471 363.172 815.611 363.172C816.655 363.172 817.387 362.56 817.387 361.6C817.387 360.724 816.823 360.172 815.575 360.172H814.843V359.272H815.467C816.655 359.272 817.231 358.66 817.231 357.808C817.231 356.956 816.511 356.428 815.551 356.428C814.579 356.428 813.823 357.064 813.811 358.024H812.815C812.839 356.488 813.991 355.528 815.539 355.528C817.219 355.528 818.263 356.428 818.263 357.772C818.263 358.804 817.711 359.416 816.955 359.632Z" fill="#ADADB0"/>
<path d="M968.846 364H963.218V363.148L966.386 360.316C967.154 359.632 967.754 358.984 967.754 358.084C967.754 357.028 967.058 356.428 966.002 356.428C964.97 356.428 964.274 357.148 964.274 358.3V358.456H963.266V358.24C963.266 356.656 964.346 355.528 966.002 355.528C967.754 355.528 968.786 356.524 968.786 358.036C968.786 359.284 968.006 360.088 967.034 360.94L964.61 363.076H968.846V364ZM974.096 355.528C975.932 355.528 977.072 357.052 977.072 359.608V359.992C977.072 362.548 975.932 364.072 974.096 364.072C972.26 364.072 971.12 362.548 971.12 359.992V359.608C971.12 357.052 972.26 355.528 974.096 355.528ZM972.116 359.644V359.956C972.116 360.424 972.152 360.844 972.224 361.204L975.644 357.436C975.308 356.776 974.78 356.428 974.096 356.428C972.848 356.428 972.116 357.604 972.116 359.644ZM976.076 359.956V359.644C976.076 359.176 976.04 358.756 975.968 358.384L972.548 362.176C972.896 362.812 973.424 363.16 974.096 363.16C975.344 363.16 976.076 361.996 976.076 359.956ZM984.969 364H979.341V363.148L982.509 360.316C983.277 359.632 983.877 358.984 983.877 358.084C983.877 357.028 983.181 356.428 982.125 356.428C981.093 356.428 980.397 357.148 980.397 358.3V358.456H979.389V358.24C979.389 356.656 980.469 355.528 982.125 355.528C983.877 355.528 984.909 356.524 984.909 358.036C984.909 359.284 984.129 360.088 983.157 360.94L980.733 363.076H984.969V364ZM991.959 364H990.951V361.948H986.787V361.048L990.831 355.6H991.959V361.024H993.207V361.948H991.959V364ZM990.951 356.932L987.915 361.024H990.951V356.932Z" fill="#ADADB0"/>
<path d="M1143.18 364H1137.55V363.148L1140.72 360.316C1141.49 359.632 1142.09 358.984 1142.09 358.084C1142.09 357.028 1141.39 356.428 1140.34 356.428C1139.3 356.428 1138.61 357.148 1138.61 358.3V358.456H1137.6V358.24C1137.6 356.656 1138.68 355.528 1140.34 355.528C1142.09 355.528 1143.12 356.524 1143.12 358.036C1143.12 359.284 1142.34 360.088 1141.37 360.94L1138.94 363.076H1143.18V364ZM1148.43 355.528C1150.27 355.528 1151.41 357.052 1151.41 359.608V359.992C1151.41 362.548 1150.27 364.072 1148.43 364.072C1146.59 364.072 1145.45 362.548 1145.45 359.992V359.608C1145.45 357.052 1146.59 355.528 1148.43 355.528ZM1146.45 359.644V359.956C1146.45 360.424 1146.49 360.844 1146.56 361.204L1149.98 357.436C1149.64 356.776 1149.11 356.428 1148.43 356.428C1147.18 356.428 1146.45 357.604 1146.45 359.644ZM1150.41 359.956V359.644C1150.41 359.176 1150.37 358.756 1150.3 358.384L1146.88 362.176C1147.23 362.812 1147.76 363.16 1148.43 363.16C1149.68 363.16 1150.41 361.996 1150.41 359.956ZM1159.3 364H1153.68V363.148L1156.84 360.316C1157.61 359.632 1158.21 358.984 1158.21 358.084C1158.21 357.028 1157.52 356.428 1156.46 356.428C1155.43 356.428 1154.73 357.148 1154.73 358.3V358.456H1153.72V358.24C1153.72 356.656 1154.8 355.528 1156.46 355.528C1158.21 355.528 1159.24 356.524 1159.24 358.036C1159.24 359.284 1158.46 360.088 1157.49 360.94L1155.07 363.076H1159.3V364ZM1164.57 358.372C1166.16 358.372 1167.27 359.524 1167.27 361.192C1167.27 363.052 1165.93 364.06 1164.41 364.06C1162.59 364.06 1161.54 362.848 1161.46 361.384H1162.45C1162.55 362.356 1163.25 363.16 1164.41 363.16C1165.35 363.16 1166.25 362.5 1166.25 361.204C1166.25 360.064 1165.54 359.26 1164.42 359.26C1163.93 359.26 1162.93 359.404 1162.59 360.4L1161.61 360.376L1161.89 355.6H1166.79V356.524H1162.81L1162.62 359.176C1163.11 358.564 1163.82 358.372 1164.57 358.372Z" fill="#ADADB0"/>
<path d="M34.6248 92.372C36.2208 92.372 37.3248 93.524 37.3248 95.192C37.3248 97.052 35.9928 98.06 34.4688 98.06C32.6448 98.06 31.6008 96.848 31.5168 95.384H32.5128C32.6088 96.356 33.3048 97.16 34.4688 97.16C35.4048 97.16 36.3048 96.5 36.3048 95.204C36.3048 94.064 35.5968 93.26 34.4808 93.26C33.9888 93.26 32.9928 93.404 32.6448 94.4L31.6728 94.376L31.9488 89.6H36.8448V90.524H32.8728L32.6808 93.176C33.1728 92.564 33.8808 92.372 34.6248 92.372ZM42.6158 89.528C44.4518 89.528 45.5918 91.052 45.5918 93.608V93.992C45.5918 96.548 44.4518 98.072 42.6158 98.072C40.7798 98.072 39.6397 96.548 39.6397 93.992V93.608C39.6397 91.052 40.7798 89.528 42.6158 89.528ZM40.6358 93.644V93.956C40.6358 94.424 40.6718 94.844 40.7437 95.204L44.1638 91.436C43.8278 90.776 43.2998 90.428 42.6158 90.428C41.3678 90.428 40.6358 91.604 40.6358 93.644ZM44.5958 93.956V93.644C44.5958 93.176 44.5598 92.756 44.4878 92.384L41.0678 96.176C41.4158 96.812 41.9438 97.16 42.6158 97.16C43.8638 97.16 44.5958 95.996 44.5958 93.956ZM49.2286 98H48.2446V89.6H49.2286V95.132L52.4926 91.88H53.7406L51.1606 94.448L53.8606 98H52.6486L50.4766 95.12L49.2286 96.368V98Z" fill="#ADADB0"/>
<path d="M36.2239 141.6H35.2159V139.548H31.0519V138.648L35.0959 133.2H36.2239V138.624H37.4719V139.548H36.2239V141.6ZM35.2159 134.532L32.1799 138.624H35.2159V134.532ZM42.6158 133.128C44.4518 133.128 45.5918 134.652 45.5918 137.208V137.592C45.5918 140.148 44.4518 141.672 42.6158 141.672C40.7798 141.672 39.6397 140.148 39.6397 137.592V137.208C39.6397 134.652 40.7798 133.128 42.6158 133.128ZM40.6358 137.244V137.556C40.6358 138.024 40.6718 138.444 40.7437 138.804L44.1638 135.036C43.8278 134.376 43.2998 134.028 42.6158 134.028C41.3678 134.028 40.6358 135.204 40.6358 137.244ZM44.5958 137.556V137.244C44.5958 136.776 44.5598 136.356 44.4878 135.984L41.0678 139.776C41.4158 140.412 41.9438 140.76 42.6158 140.76C43.8638 140.76 44.5958 139.596 44.5958 137.556ZM49.2286 141.6H48.2446V133.2H49.2286V138.732L52.4926 135.48H53.7406L51.1606 138.048L53.8606 141.6H52.6486L50.4766 138.72L49.2286 139.968V141.6Z" fill="#ADADB0"/>
<path d="M35.7042 180.832C36.4362 180.976 37.1682 181.588 37.1682 182.872C37.1682 184.3 36.0762 185.272 34.3002 185.272C32.5362 185.272 31.4442 184.276 31.4442 182.608H32.4402C32.4522 183.712 33.2202 184.372 34.3602 184.372C35.4042 184.372 36.1362 183.76 36.1362 182.8C36.1362 181.924 35.5722 181.372 34.3242 181.372H33.5922V180.472H34.2162C35.4042 180.472 35.9802 179.86 35.9802 179.008C35.9802 178.156 35.2602 177.628 34.3002 177.628C33.3282 177.628 32.5722 178.264 32.5602 179.224H31.5642C31.5882 177.688 32.7402 176.728 34.2882 176.728C35.9682 176.728 37.0122 177.628 37.0122 178.972C37.0122 180.004 36.4602 180.616 35.7042 180.832ZM42.6158 176.728C44.4518 176.728 45.5918 178.252 45.5918 180.808V181.192C45.5918 183.748 44.4518 185.272 42.6158 185.272C40.7798 185.272 39.6397 183.748 39.6397 181.192V180.808C39.6397 178.252 40.7798 176.728 42.6158 176.728ZM40.6358 180.844V181.156C40.6358 181.624 40.6718 182.044 40.7437 182.404L44.1638 178.636C43.8278 177.976 43.2998 177.628 42.6158 177.628C41.3678 177.628 40.6358 178.804 40.6358 180.844ZM44.5958 181.156V180.844C44.5958 180.376 44.5598 179.956 44.4878 179.584L41.0678 183.376C41.4158 184.012 41.9438 184.36 42.6158 184.36C43.8638 184.36 44.5958 183.196 44.5958 181.156ZM49.2286 185.2H48.2446V176.8H49.2286V182.332L52.4926 179.08H53.7406L51.1606 181.648L53.8606 185.2H52.6486L50.4766 182.32L49.2286 183.568V185.2Z" fill="#ADADB0"/>
<path d="M37.3655 228.8H31.7375V227.948L34.9055 225.116C35.6735 224.432 36.2735 223.784 36.2735 222.884C36.2735 221.828 35.5775 221.228 34.5215 221.228C33.4895 221.228 32.7935 221.948 32.7935 223.1V223.256H31.7855V223.04C31.7855 221.456 32.8655 220.328 34.5215 220.328C36.2735 220.328 37.3055 221.324 37.3055 222.836C37.3055 224.084 36.5255 224.888 35.5535 225.74L33.1295 227.876H37.3655V228.8ZM42.6158 220.328C44.4518 220.328 45.5918 221.852 45.5918 224.408V224.792C45.5918 227.348 44.4518 228.872 42.6158 228.872C40.7798 228.872 39.6397 227.348 39.6397 224.792V224.408C39.6397 221.852 40.7798 220.328 42.6158 220.328ZM40.6358 224.444V224.756C40.6358 225.224 40.6718 225.644 40.7437 226.004L44.1638 222.236C43.8278 221.576 43.2998 221.228 42.6158 221.228C41.3678 221.228 40.6358 222.404 40.6358 224.444ZM44.5958 224.756V224.444C44.5958 223.976 44.5598 223.556 44.4878 223.184L41.0678 226.976C41.4158 227.612 41.9438 227.96 42.6158 227.96C43.8638 227.96 44.5958 226.796 44.5958 224.756ZM49.2286 228.8H48.2446V220.4H49.2286V225.932L52.4926 222.68H53.7406L51.1606 225.248L53.8606 228.8H52.6486L50.4766 225.92L49.2286 227.168V228.8Z" fill="#ADADB0"/>
<path d="M35.7383 264V271.464H37.8623V272.4H32.5343V271.464H34.7423V266.508C34.6223 266.592 34.4783 266.628 34.2983 266.628H32.5583V265.728H34.1903C34.5623 265.728 34.7543 265.416 34.7543 265.008V264H35.7383ZM42.6158 263.928C44.4518 263.928 45.5918 265.452 45.5918 268.008V268.392C45.5918 270.948 44.4518 272.472 42.6158 272.472C40.7798 272.472 39.6397 270.948 39.6397 268.392V268.008C39.6397 265.452 40.7798 263.928 42.6158 263.928ZM40.6358 268.044V268.356C40.6358 268.824 40.6718 269.244 40.7437 269.604L44.1638 265.836C43.8278 265.176 43.2998 264.828 42.6158 264.828C41.3678 264.828 40.6358 266.004 40.6358 268.044ZM44.5958 268.356V268.044C44.5958 267.576 44.5598 267.156 44.4878 266.784L41.0678 270.576C41.4158 271.212 41.9438 271.56 42.6158 271.56C43.8638 271.56 44.5958 270.396 44.5958 268.356ZM49.2286 272.4H48.2446V264H49.2286V269.532L52.4926 266.28H53.7406L51.1606 268.848L53.8606 272.4H52.6486L50.4766 269.52L49.2286 270.768V272.4Z" fill="#ADADB0"/>
<path d="M50.2672 307.528C52.1032 307.528 53.2432 309.052 53.2432 311.608V311.992C53.2432 314.548 52.1032 316.072 50.2672 316.072C48.4312 316.072 47.2912 314.548 47.2912 311.992V311.608C47.2912 309.052 48.4312 307.528 50.2672 307.528ZM48.2872 311.644V311.956C48.2872 312.424 48.3232 312.844 48.3952 313.204L51.8152 309.436C51.4792 308.776 50.9512 308.428 50.2672 308.428C49.0192 308.428 48.2872 309.604 48.2872 311.644ZM52.2472 311.956V311.644C52.2472 311.176 52.2112 310.756 52.1392 310.384L48.7192 314.176C49.0672 314.812 49.5952 315.16 50.2672 315.16C51.5152 315.16 52.2472 313.996 52.2472 311.956Z" fill="#ADADB0"/>
<path d="M412.892 311.229L84 337L1164.5 334.072V86L858.197 165.547C854.324 166.553 851.207 169.423 849.886 173.2L848.425 177.375C846.937 181.63 843.189 184.692 838.723 185.302L772.5 194.348L595.309 243.899C591.284 245.025 588.5 248.694 588.5 252.874C588.5 257.285 585.407 261.092 581.089 261.995L533.521 271.945C532.842 272.087 532.176 272.288 531.531 272.545L500.86 284.783C500.288 285.012 499.698 285.196 499.097 285.334L444.682 297.824C443.896 298.004 443.13 298.263 442.396 298.597L416.925 310.188C415.651 310.767 414.287 311.119 412.892 311.229Z" fill="url(#paint0_linear_427_2685)"/>
<path d="M84 337L412.892 311.229C414.287 311.119 415.651 310.767 416.925 310.188L442.396 298.597C443.13 298.263 443.896 298.004 444.682 297.824L499.097 285.334C499.698 285.196 500.288 285.012 500.86 284.783L531.531 272.545C532.176 272.288 532.842 272.087 533.521 271.945L581.089 261.995C585.407 261.092 588.5 257.285 588.5 252.874V252.874C588.5 248.694 591.283 245.025 595.309 243.899L772.5 194.348L838.723 185.302C843.189 184.692 846.937 181.63 848.425 177.375L849.886 173.2C851.207 169.423 854.324 166.553 858.197 165.547L1164.5 86" stroke="url(#paint1_linear_427_2685)"/>
<defs>
<linearGradient id="paint0_linear_427_2685" x1="624.25" y1="161.5" x2="624.25" y2="337" gradientUnits="userSpaceOnUse">
<stop stop-color="#FD366E" stop-opacity="0.16"/>
<stop offset="1" stop-color="#FD366E" stop-opacity="0.02"/>
</linearGradient>
<linearGradient id="paint1_linear_427_2685" x1="1164.5" y1="98.8288" x2="224.97" y2="588.509" gradientUnits="userSpaceOnUse">
<stop stop-color="#FD366E"/>
<stop offset="0.214023" stop-color="#FD366E" stop-opacity="0.48"/>
<stop offset="0.977666" stop-color="#FD366E" stop-opacity="0.2"/>
<stop offset="1" stop-color="#FD366E" stop-opacity="0"/>
</linearGradient>
</defs>
</svg>
