<svg width="568" height="326" viewBox="0 0 568 326" fill="none" xmlns="http://www.w3.org/2000/svg">
<g clip-path="url(#clip0_5463_5883)">
<path d="M0 0H568V326H0V0Z" fill="#19191C"/>
<g filter="url(#filter0_dd_5463_5883)">
<rect width="265" height="242" transform="translate(152 41.9999)" fill="#1D1D21"/>
</g>
<path d="M168.606 69.3918V61.3853H173.626V62.4252H169.814V64.8647H173.364V65.9007H169.814V68.3519H173.673V69.3918H168.606ZM175.096 69.3918V63.3869H176.218V64.3643H176.292C176.417 64.0333 176.622 63.7753 176.906 63.5902C177.19 63.4026 177.53 63.3087 177.927 63.3087C178.328 63.3087 178.664 63.4026 178.935 63.5902C179.209 63.7779 179.411 64.0359 179.541 64.3643H179.604C179.747 64.0437 179.975 63.7883 180.288 63.598C180.601 63.4052 180.973 63.3087 181.406 63.3087C181.951 63.3087 182.395 63.4795 182.739 63.8209C183.086 64.1623 183.259 64.677 183.259 65.3651V69.3918H182.09V65.4746C182.09 65.068 181.979 64.7735 181.758 64.591C181.536 64.4086 181.272 64.3174 180.964 64.3174C180.584 64.3174 180.288 64.4347 180.077 64.6692C179.866 64.9012 179.76 65.1996 179.76 65.5645V69.3918H178.595V65.4003C178.595 65.0745 178.493 64.8126 178.29 64.6145C178.087 64.4164 177.822 64.3174 177.496 64.3174C177.275 64.3174 177.07 64.376 176.883 64.4933C176.698 64.608 176.548 64.7683 176.433 64.9742C176.321 65.18 176.265 65.4185 176.265 65.6896V69.3918H175.096ZM186.524 69.5247C186.143 69.5247 185.799 69.4543 185.492 69.3136C185.184 69.1703 184.94 68.9631 184.76 68.692C184.583 68.4209 184.495 68.0886 184.495 67.6951C184.495 67.3563 184.56 67.0774 184.69 66.8585C184.82 66.6396 184.996 66.4662 185.218 66.3385C185.439 66.2108 185.687 66.1144 185.961 66.0492C186.234 65.9841 186.513 65.9346 186.797 65.9007C187.157 65.859 187.449 65.8251 187.673 65.799C187.897 65.7704 188.06 65.7248 188.162 65.6622C188.263 65.5997 188.314 65.498 188.314 65.3573V65.3299C188.314 64.9885 188.218 64.7239 188.025 64.5363C187.835 64.3486 187.55 64.2548 187.173 64.2548C186.779 64.2548 186.469 64.3421 186.242 64.5167C186.018 64.6888 185.863 64.8803 185.777 65.0914L184.678 64.8412C184.809 64.4764 184.999 64.1818 185.249 63.9577C185.502 63.731 185.793 63.5668 186.121 63.4651C186.449 63.3609 186.795 63.3087 187.157 63.3087C187.397 63.3087 187.651 63.3374 187.919 63.3947C188.19 63.4495 188.443 63.5511 188.678 63.6997C188.915 63.8482 189.109 64.0607 189.26 64.3369C189.411 64.6106 189.487 64.9663 189.487 65.4042V69.3918H188.345V68.5708H188.298C188.223 68.722 188.11 68.8705 187.958 69.0165C187.807 69.1624 187.613 69.2836 187.376 69.3801C187.139 69.4765 186.855 69.5247 186.524 69.5247ZM186.778 68.5864C187.101 68.5864 187.377 68.5226 187.607 68.3949C187.838 68.2672 188.014 68.1004 188.134 67.8945C188.257 67.686 188.318 67.4631 188.318 67.226V66.4519C188.276 66.4936 188.196 66.5327 188.076 66.5692C187.958 66.6031 187.824 66.633 187.673 66.6591C187.522 66.6826 187.375 66.7047 187.231 66.7256C187.088 66.7438 186.968 66.7594 186.872 66.7725C186.645 66.8011 186.438 66.8494 186.25 66.9171C186.065 66.9849 185.916 67.0826 185.804 67.2103C185.695 67.3354 185.64 67.5022 185.64 67.7107C185.64 68 185.747 68.219 185.961 68.3675C186.174 68.5135 186.447 68.5864 186.778 68.5864ZM190.994 69.3918V63.3869H192.163V69.3918H190.994ZM191.585 62.4604C191.381 62.4604 191.207 62.3926 191.061 62.2571C190.917 62.119 190.846 61.9548 190.846 61.7645C190.846 61.5717 190.917 61.4075 191.061 61.2719C191.207 61.1338 191.381 61.0647 191.585 61.0647C191.788 61.0647 191.961 61.1338 192.105 61.2719C192.251 61.4075 192.324 61.5717 192.324 61.7645C192.324 61.9548 192.251 62.119 192.105 62.2571C191.961 62.3926 191.788 62.4604 191.585 62.4604ZM194.855 61.3853V69.3918H193.686V61.3853H194.855Z" fill="#C3C3C6"/>
<path d="M391.267 76.8599H177.732H177.721C175.979 76.8599 174.658 76.8599 173.605 76.9459C172.546 77.0324 171.738 77.207 171.028 77.5687C169.804 78.1923 168.809 79.1872 168.185 80.4109C167.824 81.1209 167.649 81.9297 167.563 82.988C167.477 84.041 167.477 85.3627 167.477 87.104V87.1158V94.104V94.1157C167.477 95.857 167.477 97.1787 167.563 98.2317C167.649 99.29 167.824 100.099 168.185 100.809C168.809 102.033 169.804 103.027 171.028 103.651C171.738 104.013 172.546 104.187 173.605 104.274C174.658 104.36 175.979 104.36 177.721 104.36H177.732H391.267H391.278C393.02 104.36 394.341 104.36 395.394 104.274C396.453 104.187 397.261 104.013 397.971 103.651C399.195 103.027 400.19 102.033 400.814 100.809C401.175 100.099 401.35 99.29 401.437 98.2317C401.523 97.1788 401.523 95.8571 401.523 94.116V94.104V87.1158V87.1038C401.523 85.3626 401.523 84.0409 401.437 82.988C401.35 81.9297 401.175 81.1209 400.814 80.4109C400.19 79.1872 399.195 78.1923 397.971 77.5687C397.261 77.207 396.453 77.0324 395.394 76.9459C394.341 76.8599 393.02 76.8599 391.278 76.8599H391.267Z" fill="#19191C"/>
<path d="M391.267 76.8599H177.732H177.721C175.979 76.8599 174.658 76.8599 173.605 76.9459C172.546 77.0324 171.738 77.207 171.028 77.5687C169.804 78.1923 168.809 79.1872 168.185 80.4109C167.824 81.1209 167.649 81.9297 167.563 82.988C167.477 84.041 167.477 85.3627 167.477 87.104V87.1158V94.104V94.1157C167.477 95.857 167.477 97.1787 167.563 98.2317C167.649 99.29 167.824 100.099 168.185 100.809C168.809 102.033 169.804 103.027 171.028 103.651C171.738 104.013 172.546 104.187 173.605 104.274C174.658 104.36 175.979 104.36 177.721 104.36H177.732H391.267H391.278C393.02 104.36 394.341 104.36 395.394 104.274C396.453 104.187 397.261 104.013 397.971 103.651C399.195 103.027 400.19 102.033 400.814 100.809C401.175 100.099 401.35 99.29 401.437 98.2317C401.523 97.1788 401.523 95.8571 401.523 94.116V94.104V87.1158V87.1038C401.523 85.3626 401.523 84.0409 401.437 82.988C401.35 81.9297 401.175 81.1209 400.814 80.4109C400.19 79.1872 399.195 78.1923 397.971 77.5687C397.261 77.207 396.453 77.0324 395.394 76.9459C394.341 76.8599 393.02 76.8599 391.278 76.8599H391.267Z" stroke="#2D2D31" stroke-width="0.5"/>
<path d="M178.134 95.1099V87.1034H182.966V87.9635H179.103V90.6688H182.715V91.5288H179.103V94.2498H183.028V95.1099H178.134ZM185.461 91.4976V95.1099H184.538V89.105H185.43V90.0433H185.508C185.649 89.7383 185.862 89.4933 186.149 89.3083C186.436 89.1206 186.806 89.0268 187.259 89.0268C187.666 89.0268 188.022 89.1102 188.327 89.277C188.632 89.4412 188.869 89.6914 189.038 90.0276C189.208 90.3612 189.292 90.7834 189.292 91.2943V95.1099H188.37V91.3568C188.37 90.8851 188.247 90.5176 188.002 90.2544C187.757 89.9885 187.421 89.8556 186.994 89.8556C186.699 89.8556 186.436 89.9195 186.204 90.0472C185.975 90.1749 185.793 90.3612 185.66 90.6062C185.528 90.8512 185.461 91.1483 185.461 91.4976ZM193.54 89.105V89.8869H190.428V89.105H193.54ZM191.335 87.6663H192.258V93.3897C192.258 93.6503 192.296 93.8458 192.371 93.9761C192.449 94.1038 192.549 94.1898 192.668 94.2342C192.791 94.2759 192.92 94.2967 193.055 94.2967C193.157 94.2967 193.24 94.2915 193.306 94.2811C193.371 94.268 193.423 94.2576 193.462 94.2498L193.65 95.0786C193.587 95.102 193.5 95.1255 193.388 95.149C193.276 95.175 193.134 95.1881 192.962 95.1881C192.701 95.1881 192.446 95.132 192.195 95.0199C191.948 94.9079 191.742 94.7372 191.578 94.5078C191.416 94.2785 191.335 93.9892 191.335 93.6399V87.6663ZM197.332 95.235C196.753 95.235 196.254 95.1073 195.834 94.8518C195.417 94.5938 195.095 94.2342 194.869 93.7728C194.645 93.3089 194.533 92.7694 194.533 92.1543C194.533 91.5393 194.645 90.9972 194.869 90.528C195.095 90.0563 195.411 89.6888 195.815 89.4256C196.221 89.1597 196.696 89.0268 197.238 89.0268C197.551 89.0268 197.859 89.0789 198.164 89.1832C198.469 89.2874 198.747 89.4569 198.997 89.6914C199.247 89.9234 199.447 90.2309 199.595 90.614C199.744 90.9972 199.818 91.4689 199.818 92.0292V92.4202H195.189V91.6227H198.88C198.88 91.2839 198.812 90.9815 198.677 90.7157C198.544 90.4498 198.353 90.24 198.106 90.0863C197.861 89.9325 197.571 89.8556 197.238 89.8556C196.87 89.8556 196.552 89.9468 196.284 90.1293C196.018 90.3091 195.814 90.5437 195.67 90.833C195.527 91.1223 195.455 91.4324 195.455 91.7634V92.2951C195.455 92.7486 195.533 93.133 195.69 93.4484C195.849 93.7611 196.069 93.9996 196.35 94.1638C196.632 94.3254 196.959 94.4062 197.332 94.4062C197.574 94.4062 197.793 94.3723 197.988 94.3045C198.187 94.2342 198.357 94.1299 198.501 93.9918C198.644 93.851 198.755 93.6764 198.833 93.4679L199.724 93.7181C199.63 94.0204 199.473 94.2863 199.251 94.5156C199.03 94.7424 198.756 94.9196 198.43 95.0473C198.104 95.1724 197.738 95.235 197.332 95.235ZM201.172 95.1099V89.105H202.063V90.012H202.126C202.235 89.7149 202.433 89.4738 202.72 89.2887C203.007 89.1037 203.33 89.0112 203.69 89.0112C203.757 89.0112 203.842 89.0125 203.944 89.0151C204.045 89.0177 204.122 89.0216 204.174 89.0268V89.9651C204.143 89.9573 204.071 89.9455 203.959 89.9299C203.85 89.9116 203.734 89.9025 203.611 89.9025C203.32 89.9025 203.059 89.9638 202.83 90.0863C202.603 90.2062 202.423 90.373 202.29 90.5867C202.16 90.7978 202.095 91.0389 202.095 91.3099V95.1099H201.172ZM210.783 95.235C210.204 95.235 209.705 95.1073 209.286 94.8518C208.869 94.5938 208.547 94.2342 208.32 93.7728C208.096 93.3089 207.984 92.7694 207.984 92.1543C207.984 91.5393 208.096 90.9972 208.32 90.528C208.547 90.0563 208.862 89.6888 209.266 89.4256C209.673 89.1597 210.147 89.0268 210.689 89.0268C211.002 89.0268 211.311 89.0789 211.616 89.1832C211.921 89.2874 212.198 89.4569 212.448 89.6914C212.699 89.9234 212.898 90.2309 213.046 90.614C213.195 90.9972 213.269 91.4689 213.269 92.0292V92.4202H208.641V91.6227H212.331C212.331 91.2839 212.263 90.9815 212.128 90.7157C211.995 90.4498 211.805 90.24 211.557 90.0863C211.312 89.9325 211.023 89.8556 210.689 89.8556C210.322 89.8556 210.004 89.9468 209.735 90.1293C209.469 90.3091 209.265 90.5437 209.121 90.833C208.978 91.1223 208.906 91.4324 208.906 91.7634V92.2951C208.906 92.7486 208.985 93.133 209.141 93.4484C209.3 93.7611 209.52 93.9996 209.802 94.1638C210.083 94.3254 210.41 94.4062 210.783 94.4062C211.025 94.4062 211.244 94.3723 211.44 94.3045C211.638 94.2342 211.808 94.1299 211.952 93.9918C212.095 93.851 212.206 93.6764 212.284 93.4679L213.175 93.7181C213.082 94.0204 212.924 94.2863 212.702 94.5156C212.481 94.7424 212.207 94.9196 211.881 95.0473C211.556 95.1724 211.189 95.235 210.783 95.235ZM214.623 95.1099V89.105H215.515V90.0433H215.593C215.718 89.7227 215.92 89.4738 216.199 89.2966C216.478 89.1167 216.813 89.0268 217.203 89.0268C217.6 89.0268 217.929 89.1167 218.193 89.2966C218.458 89.4738 218.666 89.7227 218.814 90.0433H218.877C219.03 89.7331 219.261 89.4868 219.569 89.3044C219.876 89.1193 220.245 89.0268 220.675 89.0268C221.212 89.0268 221.651 89.1949 221.992 89.5311C222.334 89.8647 222.505 90.3847 222.505 91.091V95.1099H221.582V91.091C221.582 90.6479 221.461 90.3313 221.218 90.141C220.976 89.9507 220.691 89.8556 220.362 89.8556C219.94 89.8556 219.613 89.9833 219.381 90.2387C219.149 90.4915 219.033 90.8121 219.033 91.2005V95.1099H218.095V90.9972C218.095 90.6557 217.984 90.3808 217.762 90.1723C217.541 89.9612 217.256 89.8556 216.906 89.8556C216.667 89.8556 216.442 89.9195 216.234 90.0472C216.028 90.1749 215.861 90.3521 215.734 90.5789C215.608 90.803 215.546 91.0623 215.546 91.3568V95.1099H214.623ZM225.909 95.2506C225.529 95.2506 225.183 95.1789 224.873 95.0356C224.563 94.8896 224.317 94.6798 224.134 94.4062C223.952 94.1299 223.861 93.7963 223.861 93.4054C223.861 93.0613 223.928 92.7825 224.064 92.5687C224.199 92.3524 224.38 92.183 224.607 92.0605C224.834 91.938 225.084 91.8468 225.358 91.7869C225.634 91.7243 225.912 91.6748 226.191 91.6383C226.555 91.5914 226.851 91.5562 227.078 91.5328C227.307 91.5067 227.474 91.4637 227.578 91.4037C227.685 91.3438 227.739 91.2395 227.739 91.091V91.0597C227.739 90.674 227.633 90.3743 227.422 90.1605C227.213 89.9468 226.897 89.84 226.472 89.84C226.032 89.84 225.686 89.9364 225.436 90.1293C225.186 90.3221 225.01 90.528 224.908 90.747L224.033 90.4342C224.189 90.0693 224.397 89.7852 224.658 89.582C224.921 89.3761 225.208 89.2327 225.518 89.1519C225.831 89.0685 226.138 89.0268 226.441 89.0268C226.634 89.0268 226.855 89.0503 227.105 89.0972C227.358 89.1415 227.602 89.234 227.836 89.3748C228.074 89.5155 228.27 89.7279 228.427 90.012C228.583 90.2961 228.661 90.6766 228.661 91.1535V95.1099H227.739V94.2967H227.692C227.629 94.427 227.525 94.5665 227.379 94.715C227.233 94.8636 227.039 94.99 226.796 95.0942C226.554 95.1985 226.258 95.2506 225.909 95.2506ZM226.05 94.4218C226.415 94.4218 226.722 94.3501 226.972 94.2068C227.225 94.0634 227.415 93.8784 227.543 93.6517C227.673 93.4249 227.739 93.1864 227.739 92.9362V92.0918C227.7 92.1387 227.614 92.1817 227.481 92.2208C227.35 92.2573 227.199 92.2899 227.027 92.3185C226.858 92.3446 226.692 92.3681 226.531 92.3889C226.372 92.4072 226.243 92.4228 226.144 92.4358C225.904 92.4671 225.68 92.5179 225.471 92.5883C225.265 92.6561 225.098 92.759 224.971 92.8971C224.846 93.0327 224.783 93.2177 224.783 93.4523C224.783 93.7728 224.902 94.0152 225.139 94.1794C225.379 94.341 225.682 94.4218 226.05 94.4218ZM230.296 95.1099V89.105H231.218V95.1099H230.296ZM230.765 88.1042C230.585 88.1042 230.43 88.043 230.3 87.9205C230.172 87.798 230.108 87.6507 230.108 87.4787C230.108 87.3067 230.172 87.1594 230.3 87.0369C230.43 86.9144 230.585 86.8532 230.765 86.8532C230.945 86.8532 231.098 86.9144 231.226 87.0369C231.356 87.1594 231.422 87.3067 231.422 87.4787C231.422 87.6507 231.356 87.798 231.226 87.9205C231.098 88.043 230.945 88.1042 230.765 88.1042ZM233.781 87.1034V95.1099H232.859V87.1034H233.781Z" fill="#818186"/>
<path d="M168.606 128.691V120.685H171.46C172.083 120.685 172.599 120.798 173.008 121.025C173.417 121.252 173.724 121.562 173.927 121.956C174.13 122.346 174.232 122.787 174.232 123.277C174.232 123.77 174.129 124.213 173.923 124.606C173.72 124.997 173.412 125.307 173 125.537C172.591 125.763 172.076 125.877 171.456 125.877H169.494V124.852H171.347C171.74 124.852 172.059 124.785 172.304 124.649C172.549 124.511 172.729 124.323 172.844 124.086C172.959 123.849 173.016 123.579 173.016 123.277C173.016 122.975 172.959 122.706 172.844 122.472C172.729 122.237 172.548 122.053 172.301 121.92C172.056 121.787 171.732 121.721 171.331 121.721H169.814V128.691H168.606ZM177.198 128.824C176.818 128.824 176.474 128.754 176.166 128.613C175.859 128.47 175.615 128.263 175.435 127.992C175.258 127.721 175.169 127.388 175.169 126.995C175.169 126.656 175.235 126.377 175.365 126.158C175.495 125.939 175.671 125.766 175.893 125.638C176.114 125.511 176.362 125.414 176.635 125.349C176.909 125.284 177.188 125.234 177.472 125.2C177.832 125.159 178.124 125.125 178.348 125.099C178.572 125.07 178.735 125.024 178.836 124.962C178.938 124.899 178.989 124.798 178.989 124.657V124.63C178.989 124.288 178.892 124.024 178.7 123.836C178.509 123.648 178.225 123.555 177.847 123.555C177.454 123.555 177.144 123.642 176.917 123.816C176.693 123.988 176.538 124.18 176.452 124.391L175.353 124.141C175.483 123.776 175.674 123.482 175.924 123.257C176.177 123.031 176.467 122.866 176.796 122.765C177.124 122.661 177.469 122.608 177.832 122.608C178.071 122.608 178.326 122.637 178.594 122.694C178.865 122.749 179.118 122.851 179.352 122.999C179.59 123.148 179.784 123.36 179.935 123.637C180.086 123.91 180.162 124.266 180.162 124.704V128.691H179.02V127.87H178.973C178.898 128.022 178.784 128.17 178.633 128.316C178.482 128.462 178.288 128.583 178.051 128.68C177.813 128.776 177.529 128.824 177.198 128.824ZM177.453 127.886C177.776 127.886 178.052 127.822 178.281 127.695C178.513 127.567 178.689 127.4 178.809 127.194C178.932 126.986 178.993 126.763 178.993 126.526V125.752C178.951 125.793 178.87 125.832 178.75 125.869C178.633 125.903 178.499 125.933 178.348 125.959C178.197 125.982 178.049 126.004 177.906 126.025C177.763 126.043 177.643 126.059 177.546 126.072C177.32 126.101 177.112 126.149 176.925 126.217C176.74 126.285 176.591 126.382 176.479 126.51C176.37 126.635 176.315 126.802 176.315 127.01C176.315 127.3 176.422 127.519 176.635 127.667C176.849 127.813 177.122 127.886 177.453 127.886ZM186.169 124.153L185.109 124.34C185.065 124.205 184.995 124.076 184.898 123.953C184.804 123.831 184.677 123.73 184.515 123.652C184.354 123.574 184.152 123.535 183.909 123.535C183.578 123.535 183.302 123.609 183.08 123.758C182.859 123.904 182.748 124.093 182.748 124.325C182.748 124.525 182.822 124.687 182.971 124.809C183.12 124.932 183.359 125.032 183.69 125.11L184.644 125.329C185.197 125.457 185.608 125.654 185.88 125.92C186.151 126.186 186.286 126.531 186.286 126.956C186.286 127.315 186.182 127.636 185.973 127.917C185.767 128.196 185.479 128.415 185.109 128.574C184.742 128.733 184.316 128.813 183.831 128.813C183.159 128.813 182.61 128.669 182.185 128.383C181.76 128.093 181.5 127.683 181.403 127.151L182.533 126.979C182.603 127.274 182.748 127.496 182.967 127.648C183.186 127.796 183.471 127.87 183.823 127.87C184.206 127.87 184.513 127.791 184.742 127.632C184.971 127.47 185.086 127.274 185.086 127.042C185.086 126.854 185.016 126.696 184.875 126.569C184.737 126.441 184.524 126.345 184.238 126.279L183.221 126.057C182.661 125.929 182.246 125.726 181.978 125.447C181.712 125.168 181.579 124.815 181.579 124.387C181.579 124.033 181.678 123.723 181.876 123.457C182.074 123.191 182.348 122.984 182.697 122.835C183.047 122.684 183.447 122.608 183.897 122.608C184.546 122.608 185.057 122.749 185.43 123.031C185.803 123.31 186.049 123.684 186.169 124.153ZM192.022 124.153L190.962 124.34C190.918 124.205 190.847 124.076 190.751 123.953C190.657 123.831 190.529 123.73 190.368 123.652C190.206 123.574 190.004 123.535 189.762 123.535C189.431 123.535 189.155 123.609 188.933 123.758C188.712 123.904 188.601 124.093 188.601 124.325C188.601 124.525 188.675 124.687 188.824 124.809C188.972 124.932 189.212 125.032 189.543 125.11L190.497 125.329C191.049 125.457 191.461 125.654 191.732 125.92C192.003 126.186 192.139 126.531 192.139 126.956C192.139 127.315 192.035 127.636 191.826 127.917C191.62 128.196 191.332 128.415 190.962 128.574C190.595 128.733 190.168 128.813 189.684 128.813C189.011 128.813 188.463 128.669 188.038 128.383C187.613 128.093 187.352 127.683 187.256 127.151L188.386 126.979C188.456 127.274 188.601 127.496 188.82 127.648C189.039 127.796 189.324 127.87 189.676 127.87C190.059 127.87 190.365 127.791 190.595 127.632C190.824 127.47 190.939 127.274 190.939 127.042C190.939 126.854 190.868 126.696 190.728 126.569C190.589 126.441 190.377 126.345 190.09 126.279L189.074 126.057C188.513 125.929 188.099 125.726 187.831 125.447C187.565 125.168 187.432 124.815 187.432 124.387C187.432 124.033 187.531 123.723 187.729 123.457C187.927 123.191 188.201 122.984 188.55 122.835C188.899 122.684 189.299 122.608 189.75 122.608C190.399 122.608 190.91 122.749 191.283 123.031C191.655 123.31 191.902 123.684 192.022 124.153ZM194.676 128.691L192.909 122.687H194.117L195.294 127.096H195.353L196.533 122.687H197.741L198.914 127.077H198.973L200.142 122.687H201.35L199.587 128.691H198.394L197.174 124.356H197.085L195.865 128.691H194.676ZM204.756 128.813C204.193 128.813 203.702 128.684 203.282 128.426C202.863 128.168 202.537 127.807 202.305 127.343C202.073 126.879 201.957 126.337 201.957 125.716C201.957 125.094 202.073 124.549 202.305 124.082C202.537 123.616 202.863 123.253 203.282 122.995C203.702 122.737 204.193 122.608 204.756 122.608C205.319 122.608 205.81 122.737 206.23 122.995C206.65 123.253 206.975 123.616 207.207 124.082C207.439 124.549 207.555 125.094 207.555 125.716C207.555 126.337 207.439 126.879 207.207 127.343C206.975 127.807 206.65 128.168 206.23 128.426C205.81 128.684 205.319 128.813 204.756 128.813ZM204.76 127.831C205.125 127.831 205.427 127.735 205.667 127.542C205.907 127.349 206.084 127.093 206.199 126.772C206.316 126.451 206.375 126.098 206.375 125.712C206.375 125.329 206.316 124.978 206.199 124.657C206.084 124.334 205.907 124.074 205.667 123.879C205.427 123.684 205.125 123.586 204.76 123.586C204.393 123.586 204.088 123.684 203.845 123.879C203.605 124.074 203.427 124.334 203.31 124.657C203.195 124.978 203.138 125.329 203.138 125.712C203.138 126.098 203.195 126.451 203.31 126.772C203.427 127.093 203.605 127.349 203.845 127.542C204.088 127.735 204.393 127.831 204.76 127.831ZM208.81 128.691V122.687H209.94V123.641H210.003C210.112 123.317 210.305 123.063 210.581 122.878C210.86 122.691 211.176 122.597 211.527 122.597C211.6 122.597 211.686 122.599 211.786 122.605C211.887 122.61 211.967 122.616 212.024 122.624V123.742C211.977 123.729 211.894 123.715 211.774 123.699C211.654 123.681 211.534 123.672 211.414 123.672C211.138 123.672 210.892 123.73 210.675 123.848C210.462 123.962 210.292 124.123 210.167 124.329C210.042 124.532 209.979 124.764 209.979 125.024V128.691H208.81ZM215.019 128.809C214.534 128.809 214.101 128.685 213.721 128.437C213.343 128.187 213.046 127.831 212.83 127.37C212.616 126.906 212.509 126.35 212.509 125.701C212.509 125.052 212.617 124.497 212.834 124.035C213.052 123.574 213.352 123.221 213.733 122.976C214.113 122.731 214.545 122.608 215.027 122.608C215.399 122.608 215.699 122.671 215.926 122.796C216.155 122.919 216.332 123.062 216.458 123.226C216.585 123.39 216.684 123.535 216.755 123.66H216.825V120.685H217.994V128.691H216.852V127.757H216.755C216.684 127.885 216.583 128.031 216.45 128.195C216.319 128.359 216.14 128.503 215.91 128.625C215.681 128.748 215.384 128.809 215.019 128.809ZM215.277 127.812C215.613 127.812 215.897 127.723 216.129 127.546C216.364 127.366 216.541 127.117 216.661 126.799C216.783 126.481 216.845 126.111 216.845 125.689C216.845 125.272 216.785 124.907 216.665 124.594C216.545 124.282 216.369 124.038 216.137 123.863C215.905 123.689 215.618 123.601 215.277 123.601C214.925 123.601 214.632 123.693 214.397 123.875C214.163 124.058 213.985 124.306 213.866 124.622C213.748 124.937 213.69 125.293 213.69 125.689C213.69 126.09 213.75 126.451 213.87 126.772C213.989 127.093 214.167 127.347 214.401 127.534C214.638 127.719 214.93 127.812 215.277 127.812Z" fill="#C3C3C6"/>
<path d="M391.267 136.16H177.732H177.721C175.979 136.16 174.658 136.16 173.605 136.246C172.546 136.332 171.738 136.507 171.028 136.868C169.804 137.492 168.809 138.487 168.185 139.711C167.824 140.421 167.649 141.229 167.563 142.288C167.477 143.341 167.477 144.662 167.477 146.404V146.415V154.131V154.142C167.477 155.884 167.477 157.205 167.563 158.258C167.649 159.317 167.824 160.125 168.185 160.835C168.809 162.059 169.804 163.054 171.028 163.678C171.738 164.039 172.546 164.214 173.605 164.301C174.658 164.387 175.979 164.387 177.721 164.387H177.732H391.267H391.278C393.02 164.387 394.341 164.387 395.394 164.301C396.453 164.214 397.261 164.039 397.971 163.678C399.195 163.054 400.19 162.059 400.814 160.835C401.175 160.125 401.35 159.317 401.437 158.258C401.523 157.205 401.523 155.884 401.523 154.143V154.131V146.415V146.403C401.523 144.662 401.523 143.341 401.437 142.288C401.35 141.229 401.175 140.421 400.814 139.711C400.19 138.487 399.195 137.492 397.971 136.868C397.261 136.507 396.453 136.332 395.394 136.246C394.341 136.16 393.02 136.16 391.278 136.16H391.267Z" fill="#19191C"/>
<path d="M391.267 136.16H177.732H177.721C175.979 136.16 174.658 136.16 173.605 136.246C172.546 136.332 171.738 136.507 171.028 136.868C169.804 137.492 168.809 138.487 168.185 139.711C167.824 140.421 167.649 141.229 167.563 142.288C167.477 143.341 167.477 144.662 167.477 146.404V146.415V154.131V154.142C167.477 155.884 167.477 157.205 167.563 158.258C167.649 159.317 167.824 160.125 168.185 160.835C168.809 162.059 169.804 163.054 171.028 163.678C171.738 164.039 172.546 164.214 173.605 164.301C174.658 164.387 175.979 164.387 177.721 164.387H177.732H391.267H391.278C393.02 164.387 394.341 164.387 395.394 164.301C396.453 164.214 397.261 164.039 397.971 163.678C399.195 163.054 400.19 162.059 400.814 160.835C401.175 160.125 401.35 159.317 401.437 158.258C401.523 157.205 401.523 155.884 401.523 154.143V154.131V146.415V146.403C401.523 144.662 401.523 143.341 401.437 142.288C401.35 141.229 401.175 140.421 400.814 139.711C400.19 138.487 399.195 137.492 397.971 136.868C397.261 136.507 396.453 136.332 395.394 136.246C394.341 136.16 393.02 136.16 391.278 136.16H391.267Z" stroke="#2D2D31" stroke-width="0.5"/>
<path d="M178.134 154.773V146.767H182.966V147.627H179.103V150.332H182.715V151.192H179.103V153.913H183.028V154.773H178.134ZM185.461 151.161V154.773H184.538V148.768H185.43V149.706H185.508C185.649 149.402 185.862 149.157 186.149 148.972C186.436 148.784 186.806 148.69 187.259 148.69C187.666 148.69 188.022 148.773 188.327 148.94C188.632 149.104 188.869 149.355 189.038 149.691C189.208 150.024 189.292 150.447 189.292 150.957V154.773H188.37V151.02C188.37 150.548 188.247 150.181 188.002 149.918C187.757 149.652 187.421 149.519 186.994 149.519C186.699 149.519 186.436 149.583 186.204 149.71C185.975 149.838 185.793 150.024 185.66 150.269C185.528 150.514 185.461 150.812 185.461 151.161ZM193.54 148.768V149.55H190.428V148.768H193.54ZM191.335 147.33H192.258V153.053C192.258 153.314 192.296 153.509 192.371 153.639C192.449 153.767 192.549 153.853 192.668 153.897C192.791 153.939 192.92 153.96 193.055 153.96C193.157 153.96 193.24 153.955 193.306 153.944C193.371 153.931 193.423 153.921 193.462 153.913L193.65 154.742C193.587 154.765 193.5 154.789 193.388 154.812C193.276 154.838 193.134 154.851 192.962 154.851C192.701 154.851 192.446 154.795 192.195 154.683C191.948 154.571 191.742 154.4 191.578 154.171C191.416 153.942 191.335 153.652 191.335 153.303V147.33ZM197.332 154.898C196.753 154.898 196.254 154.77 195.834 154.515C195.417 154.257 195.095 153.897 194.869 153.436C194.645 152.972 194.533 152.433 194.533 151.818C194.533 151.202 194.645 150.66 194.869 150.191C195.095 149.72 195.411 149.352 195.815 149.089C196.221 148.823 196.696 148.69 197.238 148.69C197.551 148.69 197.859 148.742 198.164 148.846C198.469 148.951 198.747 149.12 198.997 149.355C199.247 149.587 199.447 149.894 199.595 150.277C199.744 150.66 199.818 151.132 199.818 151.692V152.083H195.189V151.286H198.88C198.88 150.947 198.812 150.645 198.677 150.379C198.544 150.113 198.353 149.903 198.106 149.749C197.861 149.596 197.571 149.519 197.238 149.519C196.87 149.519 196.552 149.61 196.284 149.792C196.018 149.972 195.814 150.207 195.67 150.496C195.527 150.785 195.455 151.096 195.455 151.427V151.958C195.455 152.412 195.533 152.796 195.69 153.112C195.849 153.424 196.069 153.663 196.35 153.827C196.632 153.989 196.959 154.069 197.332 154.069C197.574 154.069 197.793 154.035 197.988 153.968C198.187 153.897 198.357 153.793 198.501 153.655C198.644 153.514 198.755 153.34 198.833 153.131L199.724 153.381C199.63 153.684 199.473 153.949 199.251 154.179C199.03 154.406 198.756 154.583 198.43 154.711C198.104 154.836 197.738 154.898 197.332 154.898ZM201.172 154.773V148.768H202.063V149.675H202.126C202.235 149.378 202.433 149.137 202.72 148.952C203.007 148.767 203.33 148.674 203.69 148.674C203.757 148.674 203.842 148.676 203.944 148.678C204.045 148.681 204.122 148.685 204.174 148.69V149.628C204.143 149.62 204.071 149.609 203.959 149.593C203.85 149.575 203.734 149.566 203.611 149.566C203.32 149.566 203.059 149.627 202.83 149.749C202.603 149.869 202.423 150.036 202.29 150.25C202.16 150.461 202.095 150.702 202.095 150.973V154.773H201.172ZM208.859 157.025C208.703 157.025 208.564 157.012 208.441 156.986C208.319 156.962 208.234 156.939 208.187 156.915L208.422 156.102C208.646 156.16 208.844 156.18 209.016 156.165C209.188 156.149 209.34 156.072 209.473 155.934C209.609 155.799 209.733 155.578 209.845 155.273L210.017 154.804L207.796 148.768H208.797L210.455 153.553H210.517L212.175 148.768H213.175L210.627 155.649C210.512 155.959 210.37 156.216 210.2 156.419C210.031 156.625 209.834 156.777 209.61 156.876C209.389 156.975 209.138 157.025 208.859 157.025ZM216.568 154.898C216.026 154.898 215.55 154.769 215.141 154.511C214.735 154.253 214.417 153.892 214.187 153.428C213.961 152.964 213.847 152.422 213.847 151.802C213.847 151.176 213.961 150.63 214.187 150.164C214.417 149.697 214.735 149.335 215.141 149.077C215.55 148.819 216.026 148.69 216.568 148.69C217.11 148.69 217.585 148.819 217.991 149.077C218.4 149.335 218.718 149.697 218.945 150.164C219.174 150.63 219.289 151.176 219.289 151.802C219.289 152.422 219.174 152.964 218.945 153.428C218.718 153.892 218.4 154.253 217.991 154.511C217.585 154.769 217.11 154.898 216.568 154.898ZM216.568 154.069C216.98 154.069 217.319 153.964 217.585 153.753C217.85 153.542 218.047 153.264 218.175 152.92C218.303 152.576 218.367 152.203 218.367 151.802C218.367 151.401 218.303 151.027 218.175 150.68C218.047 150.333 217.85 150.053 217.585 149.839C217.319 149.626 216.98 149.519 216.568 149.519C216.156 149.519 215.818 149.626 215.552 149.839C215.286 150.053 215.089 150.333 214.961 150.68C214.834 151.027 214.77 151.401 214.77 151.802C214.77 152.203 214.834 152.576 214.961 152.92C215.089 153.264 215.286 153.542 215.552 153.753C215.818 153.964 216.156 154.069 216.568 154.069ZM224.432 152.318V148.768H225.355V154.773H224.432V153.757H224.37C224.229 154.062 224.01 154.321 223.713 154.535C223.416 154.746 223.041 154.851 222.587 154.851C222.212 154.851 221.878 154.769 221.586 154.605C221.294 154.438 221.065 154.188 220.898 153.854C220.731 153.518 220.648 153.095 220.648 152.584V148.768H221.571V152.521C221.571 152.959 221.693 153.308 221.938 153.569C222.186 153.83 222.501 153.96 222.884 153.96C223.113 153.96 223.347 153.901 223.584 153.784C223.824 153.667 224.024 153.487 224.186 153.244C224.35 153.002 224.432 152.693 224.432 152.318ZM226.995 154.773V148.768H227.887V149.675H227.949C228.059 149.378 228.257 149.137 228.543 148.952C228.83 148.767 229.153 148.674 229.513 148.674C229.581 148.674 229.665 148.676 229.767 148.678C229.869 148.681 229.945 148.685 229.998 148.69V149.628C229.966 149.62 229.895 149.609 229.783 149.593C229.673 149.575 229.557 149.566 229.435 149.566C229.143 149.566 228.882 149.627 228.653 149.749C228.426 149.869 228.246 150.036 228.113 150.25C227.983 150.461 227.918 150.702 227.918 150.973V154.773H226.995ZM234.088 157.025V148.768H234.98V149.722H235.089C235.157 149.618 235.251 149.485 235.371 149.323C235.493 149.159 235.668 149.013 235.895 148.885C236.124 148.755 236.434 148.69 236.825 148.69C237.331 148.69 237.776 148.816 238.162 149.069C238.548 149.322 238.849 149.68 239.065 150.144C239.281 150.608 239.39 151.156 239.39 151.786C239.39 152.422 239.281 152.973 239.065 153.44C238.849 153.904 238.549 154.264 238.166 154.519C237.783 154.772 237.341 154.898 236.841 154.898C236.455 154.898 236.146 154.834 235.914 154.707C235.682 154.576 235.504 154.429 235.379 154.265C235.253 154.098 235.157 153.96 235.089 153.85H235.011V157.025H234.088ZM234.995 151.771C234.995 152.224 235.062 152.624 235.195 152.971C235.328 153.315 235.522 153.585 235.777 153.78C236.033 153.973 236.345 154.069 236.716 154.069C237.101 154.069 237.423 153.968 237.681 153.764C237.942 153.559 238.137 153.282 238.268 152.936C238.401 152.586 238.467 152.198 238.467 151.771C238.467 151.348 238.402 150.968 238.272 150.629C238.144 150.288 237.95 150.018 237.689 149.82C237.431 149.619 237.107 149.519 236.716 149.519C236.34 149.519 236.025 149.614 235.769 149.804C235.514 149.992 235.321 150.255 235.191 150.594C235.061 150.93 234.995 151.322 234.995 151.771ZM242.515 154.914C242.134 154.914 241.789 154.842 241.479 154.699C241.168 154.553 240.922 154.343 240.74 154.069C240.557 153.793 240.466 153.46 240.466 153.069C240.466 152.725 240.534 152.446 240.669 152.232C240.805 152.016 240.986 151.846 241.213 151.724C241.439 151.601 241.69 151.51 241.963 151.45C242.24 151.388 242.517 151.338 242.796 151.302C243.161 151.255 243.457 151.219 243.683 151.196C243.913 151.17 244.08 151.127 244.184 151.067C244.291 151.007 244.344 150.903 244.344 150.754V150.723C244.344 150.337 244.239 150.037 244.027 149.824C243.819 149.61 243.502 149.503 243.077 149.503C242.637 149.503 242.292 149.6 242.041 149.792C241.791 149.985 241.615 150.191 241.514 150.41L240.638 150.097C240.794 149.733 241.003 149.448 241.263 149.245C241.527 149.039 241.813 148.896 242.124 148.815C242.436 148.732 242.744 148.69 243.046 148.69C243.239 148.69 243.461 148.713 243.711 148.76C243.964 148.805 244.207 148.897 244.442 149.038C244.679 149.179 244.876 149.391 245.032 149.675C245.189 149.959 245.267 150.34 245.267 150.817V154.773H244.344V153.96H244.297C244.235 154.09 244.13 154.23 243.984 154.378C243.838 154.527 243.644 154.653 243.402 154.757C243.16 154.862 242.864 154.914 242.515 154.914ZM242.655 154.085C243.02 154.085 243.328 154.013 243.578 153.87C243.831 153.727 244.021 153.542 244.149 153.315C244.279 153.088 244.344 152.85 244.344 152.599V151.755C244.305 151.802 244.219 151.845 244.086 151.884C243.956 151.921 243.805 151.953 243.633 151.982C243.463 152.008 243.298 152.031 243.136 152.052C242.977 152.07 242.848 152.086 242.749 152.099C242.509 152.13 242.285 152.181 242.077 152.252C241.871 152.319 241.704 152.422 241.576 152.56C241.451 152.696 241.389 152.881 241.389 153.115C241.389 153.436 241.507 153.678 241.744 153.843C241.984 154.004 242.288 154.085 242.655 154.085ZM251.155 150.113L250.326 150.348C250.274 150.209 250.197 150.075 250.095 149.945C249.996 149.812 249.861 149.703 249.689 149.617C249.517 149.531 249.296 149.488 249.028 149.488C248.66 149.488 248.354 149.572 248.109 149.742C247.867 149.908 247.746 150.121 247.746 150.379C247.746 150.608 247.829 150.789 247.996 150.922C248.163 151.055 248.423 151.166 248.778 151.255L249.669 151.474C250.206 151.604 250.606 151.803 250.869 152.072C251.132 152.338 251.264 152.68 251.264 153.1C251.264 153.444 251.165 153.751 250.967 154.022C250.771 154.294 250.498 154.507 250.146 154.664C249.794 154.82 249.385 154.898 248.918 154.898C248.306 154.898 247.799 154.765 247.398 154.499C246.996 154.234 246.742 153.845 246.635 153.334L247.511 153.115C247.594 153.439 247.752 153.681 247.984 153.843C248.219 154.004 248.525 154.085 248.903 154.085C249.333 154.085 249.674 153.994 249.927 153.811C250.182 153.626 250.31 153.405 250.31 153.147C250.31 152.938 250.237 152.764 250.091 152.623C249.945 152.48 249.721 152.373 249.419 152.302L248.418 152.068C247.868 151.937 247.464 151.735 247.206 151.462C246.951 151.186 246.823 150.84 246.823 150.426C246.823 150.087 246.918 149.787 247.108 149.527C247.301 149.266 247.563 149.061 247.894 148.913C248.228 148.764 248.606 148.69 249.028 148.69C249.622 148.69 250.089 148.82 250.427 149.081C250.769 149.342 251.011 149.686 251.155 150.113ZM256.857 150.113L256.028 150.348C255.976 150.209 255.899 150.075 255.797 149.945C255.698 149.812 255.563 149.703 255.391 149.617C255.219 149.531 254.999 149.488 254.73 149.488C254.363 149.488 254.056 149.572 253.811 149.742C253.569 149.908 253.448 150.121 253.448 150.379C253.448 150.608 253.531 150.789 253.698 150.922C253.865 151.055 254.125 151.166 254.48 151.255L255.371 151.474C255.908 151.604 256.308 151.803 256.571 152.072C256.835 152.338 256.966 152.68 256.966 153.1C256.966 153.444 256.867 153.751 256.669 154.022C256.474 154.294 256.2 154.507 255.848 154.664C255.496 154.82 255.087 154.898 254.621 154.898C254.008 154.898 253.501 154.765 253.1 154.499C252.698 154.234 252.444 153.845 252.338 153.334L253.213 153.115C253.297 153.439 253.454 153.681 253.686 153.843C253.921 154.004 254.227 154.085 254.605 154.085C255.035 154.085 255.376 153.994 255.629 153.811C255.885 153.626 256.012 153.405 256.012 153.147C256.012 152.938 255.939 152.764 255.793 152.623C255.647 152.48 255.423 152.373 255.121 152.302L254.12 152.068C253.57 151.937 253.166 151.735 252.908 151.462C252.653 151.186 252.525 150.84 252.525 150.426C252.525 150.087 252.62 149.787 252.811 149.527C253.003 149.266 253.265 149.061 253.596 148.913C253.93 148.764 254.308 148.69 254.73 148.69C255.324 148.69 255.791 148.82 256.13 149.081C256.471 149.342 256.713 149.686 256.857 150.113ZM259.666 154.773L257.836 148.768H258.806L260.104 153.366H260.166L261.449 148.768H262.434L263.701 153.35H263.763L265.061 148.768H266.031L264.201 154.773H263.294L261.98 150.16H261.887L260.573 154.773H259.666ZM269.436 154.898C268.894 154.898 268.418 154.769 268.009 154.511C267.602 154.253 267.284 153.892 267.055 153.428C266.828 152.964 266.715 152.422 266.715 151.802C266.715 151.176 266.828 150.63 267.055 150.164C267.284 149.697 267.602 149.335 268.009 149.077C268.418 148.819 268.894 148.69 269.436 148.69C269.978 148.69 270.452 148.819 270.859 149.077C271.268 149.335 271.586 149.697 271.813 150.164C272.042 150.63 272.157 151.176 272.157 151.802C272.157 152.422 272.042 152.964 271.813 153.428C271.586 153.892 271.268 154.253 270.859 154.511C270.452 154.769 269.978 154.898 269.436 154.898ZM269.436 154.069C269.848 154.069 270.187 153.964 270.452 153.753C270.718 153.542 270.915 153.264 271.043 152.92C271.17 152.576 271.234 152.203 271.234 151.802C271.234 151.401 271.17 151.027 271.043 150.68C270.915 150.333 270.718 150.053 270.452 149.839C270.187 149.626 269.848 149.519 269.436 149.519C269.024 149.519 268.685 149.626 268.419 149.839C268.154 150.053 267.957 150.333 267.829 150.68C267.701 151.027 267.638 151.401 267.638 151.802C267.638 152.203 267.701 152.576 267.829 152.92C267.957 153.264 268.154 153.542 268.419 153.753C268.685 153.964 269.024 154.069 269.436 154.069ZM273.516 154.773V148.768H274.407V149.675H274.47C274.579 149.378 274.777 149.137 275.064 148.952C275.351 148.767 275.674 148.674 276.033 148.674C276.101 148.674 276.186 148.676 276.287 148.678C276.389 148.681 276.466 148.685 276.518 148.69V149.628C276.487 149.62 276.415 149.609 276.303 149.593C276.194 149.575 276.078 149.566 275.955 149.566C275.663 149.566 275.403 149.627 275.173 149.749C274.947 149.869 274.767 150.036 274.634 150.25C274.503 150.461 274.438 150.702 274.438 150.973V154.773H273.516ZM279.647 154.898C279.147 154.898 278.705 154.772 278.322 154.519C277.939 154.264 277.639 153.904 277.422 153.44C277.206 152.973 277.098 152.422 277.098 151.786C277.098 151.156 277.206 150.608 277.422 150.144C277.639 149.68 277.94 149.322 278.326 149.069C278.711 148.816 279.157 148.69 279.663 148.69C280.054 148.69 280.362 148.755 280.589 148.885C280.818 149.013 280.993 149.159 281.113 149.323C281.235 149.485 281.331 149.618 281.398 149.722H281.477V146.767H282.399V154.773H281.508V153.85H281.398C281.331 153.96 281.234 154.098 281.109 154.265C280.984 154.429 280.805 154.576 280.573 154.707C280.342 154.834 280.033 154.898 279.647 154.898ZM279.772 154.069C280.142 154.069 280.455 153.973 280.71 153.78C280.966 153.585 281.16 153.315 281.293 152.971C281.426 152.624 281.492 152.224 281.492 151.771C281.492 151.322 281.427 150.93 281.297 150.594C281.166 150.255 280.974 149.992 280.718 149.804C280.463 149.614 280.147 149.519 279.772 149.519C279.381 149.519 279.055 149.619 278.795 149.82C278.537 150.018 278.343 150.288 278.212 150.629C278.084 150.968 278.021 151.348 278.021 151.771C278.021 152.198 278.086 152.586 278.216 152.936C278.349 153.282 278.544 153.559 278.803 153.764C279.063 153.968 279.386 154.069 279.772 154.069Z" fill="#818186"/>
<g clip-path="url(#clip1_5463_5883)">
<path d="M385.547 151.846C386.415 151.846 387.119 151.142 387.119 150.273C387.119 149.404 386.415 148.7 385.547 148.7C384.678 148.7 383.974 149.404 383.974 150.273C383.974 151.142 384.678 151.846 385.547 151.846Z" fill="#C3C3C6"/>
<path fill-rule="evenodd" clip-rule="evenodd" d="M378.043 150.273C379.045 147.083 382.025 144.769 385.546 144.769C389.067 144.769 392.048 147.083 393.05 150.273C392.048 153.463 389.067 155.778 385.546 155.778C382.025 155.778 379.045 153.463 378.043 150.273ZM388.692 150.273C388.692 152.01 387.284 153.418 385.547 153.418C383.809 153.418 382.401 152.01 382.401 150.273C382.401 148.536 383.809 147.128 385.547 147.128C387.284 147.128 388.692 148.536 388.692 150.273Z" fill="#C3C3C6"/>
</g>
<g opacity="0.4">
<path d="M167.727 186.724C167.727 183.222 167.727 181.471 168.408 180.133C169.008 178.956 169.964 177.999 171.141 177.4C172.479 176.718 174.23 176.718 177.732 176.718H391.267C394.769 176.718 396.52 176.718 397.858 177.4C399.035 177.999 399.991 178.956 400.591 180.133C401.273 181.471 401.273 183.222 401.273 186.724V193.712C401.273 197.215 401.273 198.966 400.591 200.304C399.991 201.48 399.035 202.437 397.858 203.037C396.52 203.718 394.769 203.718 391.267 203.718H177.732C174.23 203.718 172.479 203.718 171.141 203.037C169.964 202.437 169.008 201.48 168.408 200.304C167.727 198.966 167.727 197.215 167.727 193.712V186.724Z" fill="#97979B"/>
<path d="M260.798 189.241C260.722 189.004 260.621 188.792 260.493 188.604C260.368 188.414 260.218 188.252 260.044 188.119C259.869 187.984 259.67 187.881 259.445 187.81C259.224 187.74 258.98 187.705 258.714 187.705C258.263 187.705 257.857 187.821 257.495 188.053C257.132 188.285 256.846 188.625 256.635 189.073C256.426 189.519 256.322 190.065 256.322 190.711C256.322 191.36 256.427 191.909 256.638 192.357C256.85 192.805 257.139 193.145 257.506 193.377C257.874 193.609 258.292 193.725 258.761 193.725C259.197 193.725 259.576 193.637 259.899 193.459C260.225 193.282 260.476 193.032 260.653 192.709C260.833 192.383 260.923 192 260.923 191.559L261.236 191.618H258.945V190.621H262.092V191.532C262.092 192.204 261.949 192.788 261.662 193.283C261.378 193.776 260.984 194.157 260.481 194.425C259.981 194.693 259.408 194.828 258.761 194.828C258.037 194.828 257.401 194.661 256.853 194.327C256.309 193.994 255.884 193.521 255.579 192.908C255.274 192.293 255.122 191.563 255.122 190.719C255.122 190.08 255.21 189.507 255.387 188.999C255.565 188.491 255.814 188.059 256.134 187.705C256.457 187.348 256.837 187.075 257.272 186.888C257.71 186.697 258.188 186.602 258.707 186.602C259.139 186.602 259.542 186.666 259.915 186.794C260.29 186.922 260.623 187.103 260.915 187.337C261.21 187.572 261.454 187.851 261.646 188.174C261.839 188.494 261.97 188.85 262.037 189.241H260.798ZM266.07 194.839C265.479 194.839 264.969 194.713 264.542 194.46C264.117 194.205 263.788 193.846 263.556 193.385C263.327 192.921 263.212 192.378 263.212 191.755C263.212 191.14 263.327 190.598 263.556 190.129C263.788 189.659 264.112 189.293 264.526 189.03C264.943 188.767 265.43 188.635 265.988 188.635C266.327 188.635 266.655 188.691 266.973 188.803C267.291 188.915 267.577 189.091 267.829 189.331C268.082 189.571 268.282 189.882 268.428 190.265C268.574 190.646 268.647 191.109 268.647 191.653V192.068H263.873V191.192H267.501C267.501 190.884 267.439 190.612 267.313 190.375C267.188 190.135 267.012 189.946 266.786 189.808C266.561 189.67 266.298 189.601 265.996 189.601C265.668 189.601 265.381 189.682 265.136 189.843C264.893 190.002 264.706 190.211 264.573 190.469C264.443 190.724 264.377 191.002 264.377 191.301V191.986C264.377 192.387 264.448 192.728 264.589 193.01C264.732 193.291 264.931 193.506 265.187 193.655C265.442 193.801 265.741 193.874 266.082 193.874C266.303 193.874 266.505 193.842 266.688 193.78C266.87 193.715 267.028 193.618 267.161 193.491C267.294 193.363 267.395 193.205 267.466 193.018L268.572 193.217C268.484 193.543 268.325 193.828 268.095 194.073C267.869 194.316 267.583 194.504 267.239 194.64C266.898 194.773 266.508 194.839 266.07 194.839ZM272.697 188.713V189.652H269.417V188.713H272.697ZM270.297 187.275H271.465V192.955C271.465 193.182 271.499 193.353 271.567 193.467C271.635 193.579 271.722 193.656 271.829 193.698C271.939 193.737 272.057 193.756 272.185 193.756C272.279 193.756 272.361 193.75 272.431 193.737C272.501 193.724 272.556 193.713 272.595 193.706L272.806 194.671C272.739 194.697 272.642 194.723 272.517 194.749C272.392 194.778 272.236 194.794 272.048 194.796C271.74 194.802 271.454 194.747 271.188 194.632C270.922 194.518 270.707 194.34 270.543 194.101C270.379 193.861 270.297 193.56 270.297 193.197V187.275ZM281.304 190.179L280.245 190.367C280.2 190.231 280.13 190.102 280.034 189.98C279.94 189.857 279.812 189.757 279.65 189.679C279.489 189.601 279.287 189.562 279.045 189.562C278.714 189.562 278.437 189.636 278.216 189.785C277.994 189.93 277.883 190.119 277.883 190.351C277.883 190.552 277.958 190.714 278.106 190.836C278.255 190.959 278.495 191.059 278.826 191.137L279.779 191.356C280.332 191.484 280.744 191.681 281.015 191.946C281.286 192.212 281.421 192.558 281.421 192.982C281.421 193.342 281.317 193.663 281.109 193.944C280.903 194.223 280.615 194.442 280.245 194.601C279.877 194.76 279.451 194.839 278.966 194.839C278.294 194.839 277.745 194.696 277.32 194.409C276.896 194.12 276.635 193.71 276.539 193.178L277.668 193.006C277.739 193.3 277.883 193.523 278.102 193.674C278.321 193.823 278.607 193.897 278.958 193.897C279.342 193.897 279.648 193.818 279.877 193.659C280.107 193.497 280.221 193.3 280.221 193.068C280.221 192.881 280.151 192.723 280.01 192.595C279.872 192.468 279.66 192.371 279.373 192.306L278.356 192.083C277.796 191.956 277.382 191.752 277.113 191.473C276.847 191.195 276.714 190.841 276.714 190.414C276.714 190.059 276.814 189.749 277.012 189.483C277.21 189.218 277.483 189.01 277.833 188.862C278.182 188.711 278.582 188.635 279.033 188.635C279.682 188.635 280.193 188.776 280.565 189.057C280.938 189.336 281.184 189.71 281.304 190.179ZM285.46 188.713V189.652H282.18V188.713H285.46ZM283.06 187.275H284.229V192.955C284.229 193.182 284.263 193.353 284.33 193.467C284.398 193.579 284.485 193.656 284.592 193.698C284.702 193.737 284.82 193.756 284.948 193.756C285.042 193.756 285.124 193.75 285.194 193.737C285.265 193.724 285.319 193.713 285.359 193.706L285.57 194.671C285.502 194.697 285.405 194.723 285.28 194.749C285.155 194.778 284.999 194.794 284.811 194.796C284.504 194.802 284.217 194.747 283.951 194.632C283.685 194.518 283.47 194.34 283.306 194.101C283.142 193.861 283.06 193.56 283.06 193.197V187.275ZM288.451 194.851C288.071 194.851 287.727 194.781 287.419 194.64C287.112 194.497 286.868 194.289 286.688 194.018C286.511 193.747 286.422 193.415 286.422 193.022C286.422 192.683 286.487 192.404 286.618 192.185C286.748 191.966 286.924 191.793 287.145 191.665C287.367 191.537 287.615 191.441 287.888 191.376C288.162 191.31 288.441 191.261 288.725 191.227C289.084 191.185 289.376 191.152 289.601 191.125C289.825 191.097 289.988 191.051 290.089 190.989C290.191 190.926 290.242 190.824 290.242 190.684V190.656C290.242 190.315 290.145 190.05 289.952 189.863C289.762 189.675 289.478 189.581 289.1 189.581C288.707 189.581 288.396 189.669 288.17 189.843C287.946 190.015 287.79 190.207 287.704 190.418L286.606 190.168C286.736 189.803 286.926 189.508 287.177 189.284C287.429 189.057 287.72 188.893 288.048 188.792C288.377 188.687 288.722 188.635 289.084 188.635C289.324 188.635 289.578 188.664 289.847 188.721C290.118 188.776 290.371 188.878 290.605 189.026C290.842 189.175 291.037 189.387 291.188 189.663C291.339 189.937 291.414 190.293 291.414 190.731V194.718H290.273V193.897H290.226C290.15 194.048 290.037 194.197 289.886 194.343C289.735 194.489 289.541 194.61 289.303 194.706C289.066 194.803 288.782 194.851 288.451 194.851ZM288.705 193.913C289.028 193.913 289.305 193.849 289.534 193.721C289.766 193.594 289.942 193.427 290.062 193.221C290.184 193.012 290.246 192.79 290.246 192.552V191.778C290.204 191.82 290.123 191.859 290.003 191.896C289.886 191.929 289.752 191.959 289.601 191.986C289.449 192.009 289.302 192.031 289.159 192.052C289.015 192.07 288.896 192.086 288.799 192.099C288.572 192.128 288.365 192.176 288.177 192.244C287.992 192.311 287.844 192.409 287.732 192.537C287.622 192.662 287.568 192.829 287.568 193.037C287.568 193.326 287.674 193.545 287.888 193.694C288.102 193.84 288.374 193.913 288.705 193.913ZM292.922 194.718V188.713H294.052V189.667H294.114C294.224 189.344 294.417 189.09 294.693 188.905C294.972 188.717 295.287 188.623 295.639 188.623C295.712 188.623 295.798 188.626 295.897 188.631C295.999 188.636 296.078 188.643 296.135 188.651V189.769C296.088 189.756 296.005 189.742 295.885 189.726C295.765 189.708 295.645 189.699 295.526 189.699C295.249 189.699 295.003 189.757 294.787 189.874C294.573 189.989 294.404 190.149 294.278 190.355C294.153 190.559 294.091 190.791 294.091 191.051V194.718H292.922ZM300.255 188.713V189.652H296.975V188.713H300.255ZM297.855 187.275H299.024V192.955C299.024 193.182 299.058 193.353 299.125 193.467C299.193 193.579 299.281 193.656 299.387 193.698C299.497 193.737 299.615 193.756 299.743 193.756C299.837 193.756 299.919 193.75 299.989 193.737C300.06 193.724 300.115 193.713 300.154 193.706L300.365 194.671C300.297 194.697 300.201 194.723 300.075 194.749C299.95 194.778 299.794 194.794 299.606 194.796C299.299 194.802 299.012 194.747 298.746 194.632C298.48 194.518 298.265 194.34 298.101 194.101C297.937 193.861 297.855 193.56 297.855 193.197V187.275ZM304.022 194.839C303.431 194.839 302.921 194.713 302.494 194.46C302.069 194.205 301.74 193.846 301.509 193.385C301.279 192.921 301.164 192.378 301.164 191.755C301.164 191.14 301.279 190.598 301.509 190.129C301.74 189.659 302.064 189.293 302.478 189.03C302.895 188.767 303.382 188.635 303.94 188.635C304.279 188.635 304.607 188.691 304.925 188.803C305.243 188.915 305.529 189.091 305.782 189.331C306.034 189.571 306.234 189.882 306.38 190.265C306.526 190.646 306.599 191.109 306.599 191.653V192.068H301.825V191.192H305.453C305.453 190.884 305.391 190.612 305.265 190.375C305.14 190.135 304.964 189.946 304.738 189.808C304.514 189.67 304.25 189.601 303.948 189.601C303.62 189.601 303.333 189.682 303.088 189.843C302.846 190.002 302.658 190.211 302.525 190.469C302.395 190.724 302.33 191.002 302.33 191.301V191.986C302.33 192.387 302.4 192.728 302.541 193.01C302.684 193.291 302.883 193.506 303.139 193.655C303.394 193.801 303.693 193.874 304.034 193.874C304.256 193.874 304.458 193.842 304.64 193.78C304.822 193.715 304.98 193.618 305.113 193.491C305.246 193.363 305.348 193.205 305.418 193.018L306.524 193.217C306.436 193.543 306.277 193.828 306.047 194.073C305.821 194.316 305.535 194.504 305.191 194.64C304.85 194.773 304.46 194.839 304.022 194.839ZM310.094 194.835C309.609 194.835 309.176 194.712 308.796 194.464C308.418 194.214 308.121 193.858 307.905 193.397C307.691 192.933 307.584 192.376 307.584 191.728C307.584 191.079 307.692 190.523 307.909 190.062C308.127 189.601 308.427 189.248 308.808 189.003C309.188 188.758 309.62 188.635 310.102 188.635C310.474 188.635 310.774 188.698 311.001 188.823C311.23 188.945 311.407 189.089 311.533 189.253C311.66 189.417 311.759 189.562 311.83 189.687H311.9V186.712H313.069V194.718H311.927V193.784H311.83C311.759 193.912 311.658 194.058 311.525 194.222C311.394 194.386 311.215 194.529 310.985 194.652C310.756 194.774 310.459 194.835 310.094 194.835ZM310.352 193.839C310.688 193.839 310.972 193.75 311.204 193.573C311.439 193.393 311.616 193.144 311.736 192.826C311.858 192.508 311.92 192.138 311.92 191.716C311.92 191.299 311.86 190.934 311.74 190.621C311.62 190.308 311.444 190.065 311.212 189.89C310.98 189.715 310.693 189.628 310.352 189.628C310 189.628 309.707 189.719 309.472 189.902C309.238 190.084 309.061 190.333 308.941 190.649C308.823 190.964 308.765 191.32 308.765 191.716C308.765 192.117 308.825 192.478 308.945 192.799C309.064 193.119 309.242 193.373 309.476 193.561C309.713 193.746 310.005 193.839 310.352 193.839Z" fill="white"/>
</g>
<path d="M167.727 222.3H233.727" stroke="#2D2D31" stroke-width="0.5"/>
<path d="M252.59 221.868C252.59 222.592 252.459 223.218 252.198 223.745C251.937 224.272 251.578 224.679 251.122 224.965C250.667 225.251 250.146 225.394 249.561 225.394C248.976 225.394 248.455 225.251 247.999 224.965C247.544 224.679 247.185 224.272 246.924 223.745C246.662 223.218 246.532 222.592 246.532 221.868C246.532 221.145 246.662 220.519 246.924 219.992C247.185 219.465 247.544 219.058 247.999 218.772C248.455 218.486 248.976 218.343 249.561 218.343C250.146 218.343 250.667 218.486 251.122 218.772C251.578 219.058 251.937 219.465 252.198 219.992C252.459 220.519 252.59 221.145 252.59 221.868ZM251.786 221.868C251.786 221.274 251.687 220.773 251.488 220.364C251.291 219.955 251.024 219.646 250.687 219.436C250.352 219.226 249.976 219.121 249.561 219.121C249.145 219.121 248.769 219.226 248.432 219.436C248.097 219.646 247.83 219.955 247.631 220.364C247.434 220.773 247.336 221.274 247.336 221.868C247.336 222.463 247.434 222.964 247.631 223.373C247.83 223.782 248.097 224.091 248.432 224.301C248.769 224.511 249.145 224.616 249.561 224.616C249.976 224.616 250.352 224.511 250.687 224.301C251.024 224.091 251.291 223.782 251.488 223.373C251.687 222.964 251.786 222.463 251.786 221.868ZM253.893 225.3V218.437H256.212C256.748 218.437 257.188 218.529 257.532 218.712C257.876 218.893 258.131 219.142 258.296 219.459C258.462 219.776 258.544 220.137 258.544 220.541C258.544 220.946 258.462 221.304 258.296 221.617C258.131 221.93 257.877 222.176 257.536 222.354C257.194 222.531 256.757 222.619 256.225 222.619H254.349V221.868H256.199C256.565 221.868 256.86 221.815 257.083 221.708C257.309 221.6 257.472 221.448 257.572 221.252C257.675 221.053 257.727 220.816 257.727 220.541C257.727 220.267 257.675 220.027 257.572 219.821C257.47 219.616 257.306 219.457 257.08 219.345C256.854 219.231 256.556 219.174 256.185 219.174H254.724V225.3H253.893ZM257.123 222.217L258.812 225.3H257.847L256.185 222.217H257.123ZM266.147 220.153C266.107 219.813 265.944 219.55 265.658 219.362C265.372 219.174 265.021 219.08 264.606 219.08C264.302 219.08 264.036 219.13 263.808 219.228C263.583 219.326 263.406 219.461 263.279 219.633C263.154 219.805 263.091 220.001 263.091 220.22C263.091 220.403 263.135 220.56 263.222 220.692C263.311 220.822 263.425 220.93 263.564 221.017C263.702 221.102 263.847 221.173 263.999 221.228C264.151 221.282 264.291 221.326 264.418 221.359L265.115 221.547C265.294 221.594 265.493 221.658 265.712 221.741C265.933 221.824 266.144 221.937 266.345 222.08C266.548 222.22 266.716 222.401 266.848 222.622C266.979 222.844 267.045 223.115 267.045 223.437C267.045 223.808 266.948 224.143 266.754 224.442C266.562 224.741 266.28 224.979 265.909 225.156C265.541 225.332 265.093 225.42 264.566 225.42C264.074 225.42 263.649 225.341 263.289 225.183C262.931 225.024 262.65 224.803 262.444 224.519C262.241 224.235 262.126 223.906 262.099 223.531H262.957C262.98 223.79 263.067 224.004 263.219 224.174C263.373 224.341 263.567 224.467 263.802 224.549C264.038 224.63 264.293 224.67 264.566 224.67C264.883 224.67 265.168 224.618 265.42 224.516C265.673 224.411 265.872 224.265 266.02 224.08C266.167 223.892 266.241 223.673 266.241 223.423C266.241 223.195 266.177 223.01 266.05 222.867C265.923 222.724 265.755 222.608 265.547 222.519C265.34 222.429 265.115 222.351 264.874 222.284L264.029 222.043C263.493 221.889 263.069 221.669 262.756 221.383C262.443 221.097 262.287 220.722 262.287 220.26C262.287 219.876 262.391 219.541 262.599 219.255C262.809 218.967 263.09 218.743 263.443 218.585C263.798 218.424 264.195 218.343 264.633 218.343C265.075 218.343 265.468 218.423 265.812 218.581C266.156 218.738 266.429 218.952 266.63 219.225C266.833 219.497 266.94 219.807 266.951 220.153H266.147ZM269.148 218.437V225.3H268.317V218.437H269.148ZM275.411 220.582C275.338 220.356 275.241 220.154 275.12 219.975C275.002 219.794 274.86 219.64 274.694 219.513C274.531 219.385 274.346 219.288 274.138 219.221C273.93 219.154 273.703 219.121 273.455 219.121C273.048 219.121 272.678 219.226 272.345 219.436C272.013 219.646 271.748 219.955 271.551 220.364C271.355 220.773 271.256 221.274 271.256 221.868C271.256 222.463 271.356 222.964 271.555 223.373C271.753 223.782 272.023 224.091 272.362 224.301C272.702 224.511 273.084 224.616 273.508 224.616C273.901 224.616 274.248 224.532 274.547 224.365C274.849 224.195 275.083 223.956 275.251 223.648C275.42 223.337 275.505 222.972 275.505 222.552L275.76 222.606H273.696V221.868H276.31V222.606C276.31 223.171 276.189 223.662 275.948 224.08C275.709 224.498 275.378 224.822 274.956 225.052C274.536 225.28 274.053 225.394 273.508 225.394C272.901 225.394 272.367 225.251 271.906 224.965C271.448 224.679 271.091 224.272 270.834 223.745C270.579 223.218 270.452 222.592 270.452 221.868C270.452 221.326 270.525 220.837 270.67 220.404C270.817 219.968 271.025 219.598 271.293 219.292C271.561 218.986 271.878 218.751 272.245 218.588C272.611 218.425 273.014 218.343 273.455 218.343C273.816 218.343 274.154 218.398 274.467 218.507C274.781 218.615 275.062 218.768 275.308 218.967C275.556 219.163 275.762 219.399 275.928 219.674C276.093 219.946 276.207 220.249 276.269 220.582H275.411ZM283.08 218.437V225.3H282.276L278.537 219.912H278.469V225.3H277.638V218.437H278.443L282.196 223.839H282.263V218.437H283.08ZM288.039 218.437V225.3H287.208V218.437H288.039ZM295.053 218.437V225.3H294.249L290.509 219.912H290.442V225.3H289.611V218.437H290.416L294.169 223.839H294.236V218.437H295.053ZM300.428 225.3L298.551 218.437H299.396L300.83 224.026H300.897L302.358 218.437H303.296L304.757 224.026H304.824L306.259 218.437H307.103L305.226 225.3H304.369L302.854 219.831H302.8L301.286 225.3H300.428ZM308.875 218.437V225.3H308.044V218.437H308.875ZM310.072 219.174V218.437H315.219V219.174H313.061V225.3H312.23V219.174H310.072ZM316.407 225.3V218.437H317.238V221.493H320.897V218.437H321.728V225.3H320.897V222.23H317.238V225.3H316.407Z" fill="#818186"/>
<path d="M335.551 222.3H401.551" stroke="#2D2D31" stroke-width="0.5"/>
<path d="M391.267 240.631H177.732H177.721C175.979 240.631 174.658 240.631 173.605 240.717C172.546 240.804 171.738 240.979 171.028 241.34C169.804 241.964 168.809 242.959 168.185 244.182C167.824 244.892 167.649 245.701 167.563 246.76C167.477 247.813 167.477 249.134 167.477 250.876V250.887V258.603V258.614C167.477 260.356 167.477 261.677 167.563 262.73C167.649 263.789 167.824 264.597 168.185 265.307C168.809 266.531 169.804 267.526 171.028 268.15C171.738 268.511 172.546 268.686 173.605 268.772C174.658 268.858 175.979 268.858 177.721 268.858H177.732H391.267H391.278C393.02 268.858 394.341 268.858 395.394 268.772C396.453 268.686 397.261 268.511 397.971 268.15C399.195 267.526 400.19 266.531 400.814 265.307C401.175 264.597 401.35 263.789 401.437 262.73C401.523 261.677 401.523 260.356 401.523 258.615V258.603V250.887V250.875C401.523 249.134 401.523 247.812 401.437 246.76C401.35 245.701 401.175 244.892 400.814 244.182C400.19 242.959 399.195 241.964 397.971 241.34C397.261 240.979 396.453 240.804 395.394 240.717C394.341 240.631 393.02 240.631 391.278 240.631H391.267Z" fill="#1D1D21"/>
<path d="M391.267 240.631H177.732H177.721C175.979 240.631 174.658 240.631 173.605 240.717C172.546 240.804 171.738 240.979 171.028 241.34C169.804 241.964 168.809 242.959 168.185 244.182C167.824 244.892 167.649 245.701 167.563 246.76C167.477 247.813 167.477 249.134 167.477 250.876V250.887V258.603V258.614C167.477 260.356 167.477 261.677 167.563 262.73C167.649 263.789 167.824 264.597 168.185 265.307C168.809 266.531 169.804 267.526 171.028 268.15C171.738 268.511 172.546 268.686 173.605 268.772C174.658 268.858 175.979 268.858 177.721 268.858H177.732H391.267H391.278C393.02 268.858 394.341 268.858 395.394 268.772C396.453 268.686 397.261 268.511 397.971 268.15C399.195 267.526 400.19 266.531 400.814 265.307C401.175 264.597 401.35 263.789 401.437 262.73C401.523 261.677 401.523 260.356 401.523 258.615V258.603V250.887V250.875C401.523 249.134 401.523 247.812 401.437 246.76C401.35 245.701 401.175 244.892 400.814 244.182C400.19 242.959 399.195 241.964 397.971 241.34C397.261 240.979 396.453 240.804 395.394 240.717C394.341 240.631 393.02 240.631 391.278 240.631H391.267Z" stroke="#414146" stroke-width="0.5"/>
<path d="M262.474 251.128C263.604 251.128 264.366 251.606 264.801 252.006L266.499 250.381C265.456 249.43 264.099 248.847 262.474 248.847C260.12 248.847 258.087 250.171 257.098 252.097L259.043 253.578C259.532 252.156 260.882 251.128 262.474 251.128" fill="#EB4335"/>
<path d="M259.051 255.911C258.924 255.544 258.851 255.151 258.851 254.745C258.851 254.339 258.924 253.945 259.045 253.579L259.041 253.5L257.16 252.069L257.099 252.098C256.691 252.897 256.457 253.795 256.457 254.745C256.457 255.695 256.691 256.593 257.099 257.392L259.051 255.911" fill="#FBBC05"/>
<path d="M262.474 260.643C264.099 260.643 265.463 260.118 266.459 259.214L264.56 257.772C264.052 258.12 263.37 258.362 262.474 258.362C260.882 258.362 259.532 257.333 259.05 255.911L258.98 255.917L257.122 257.326L257.098 257.392C258.087 259.319 260.12 260.643 262.474 260.643Z" fill="#34A853"/>
<path d="M268.25 254.876C268.25 254.391 268.21 254.037 268.123 253.67H262.473V255.859H265.789C265.722 256.403 265.361 257.222 264.559 257.772L264.548 257.845L266.334 259.202L266.458 259.214C267.595 258.185 268.25 256.671 268.25 254.876" fill="#4285F4"/>
<path d="M281.236 253.768C281.16 253.531 281.058 253.318 280.931 253.131C280.806 252.94 280.656 252.779 280.481 252.646C280.306 252.51 280.107 252.407 279.883 252.337C279.661 252.267 279.418 252.231 279.152 252.231C278.701 252.231 278.294 252.347 277.932 252.579C277.57 252.811 277.283 253.151 277.072 253.6C276.864 254.045 276.759 254.591 276.759 255.238C276.759 255.887 276.865 256.435 277.076 256.884C277.287 257.332 277.576 257.672 277.944 257.904C278.311 258.136 278.73 258.252 279.199 258.252C279.634 258.252 280.013 258.163 280.336 257.986C280.662 257.809 280.914 257.559 281.091 257.235C281.271 256.91 281.361 256.527 281.361 256.086L281.673 256.145H279.383V255.148H282.53V256.059C282.53 256.731 282.386 257.315 282.1 257.81C281.815 258.303 281.422 258.683 280.919 258.952C280.418 259.22 279.845 259.354 279.199 259.354C278.474 259.354 277.838 259.188 277.291 258.854C276.746 258.52 276.321 258.047 276.016 257.435C275.712 256.82 275.559 256.09 275.559 255.246C275.559 254.607 275.648 254.034 275.825 253.525C276.002 253.017 276.251 252.586 276.572 252.231C276.895 251.874 277.274 251.602 277.709 251.414C278.147 251.224 278.625 251.129 279.144 251.129C279.577 251.129 279.979 251.193 280.352 251.321C280.727 251.448 281.061 251.629 281.353 251.864C281.647 252.099 281.891 252.377 282.084 252.701C282.277 253.021 282.407 253.377 282.475 253.768H281.236ZM286.449 259.366C285.886 259.366 285.395 259.237 284.975 258.979C284.556 258.721 284.23 258.36 283.998 257.896C283.766 257.432 283.65 256.89 283.65 256.27C283.65 255.647 283.766 255.102 283.998 254.636C284.23 254.169 284.556 253.807 284.975 253.549C285.395 253.291 285.886 253.162 286.449 253.162C287.012 253.162 287.503 253.291 287.923 253.549C288.343 253.807 288.668 254.169 288.9 254.636C289.132 255.102 289.248 255.647 289.248 256.27C289.248 256.89 289.132 257.432 288.9 257.896C288.668 258.36 288.343 258.721 287.923 258.979C287.503 259.237 287.012 259.366 286.449 259.366ZM286.453 258.385C286.818 258.385 287.12 258.288 287.36 258.096C287.6 257.903 287.777 257.646 287.892 257.325C288.009 257.005 288.068 256.652 288.068 256.266C288.068 255.883 288.009 255.531 287.892 255.21C287.777 254.887 287.6 254.628 287.36 254.432C287.12 254.237 286.818 254.139 286.453 254.139C286.085 254.139 285.781 254.237 285.538 254.432C285.298 254.628 285.12 254.887 285.003 255.21C284.888 255.531 284.831 255.883 284.831 256.266C284.831 256.652 284.888 257.005 285.003 257.325C285.12 257.646 285.298 257.903 285.538 258.096C285.781 258.288 286.085 258.385 286.453 258.385ZM293.033 259.366C292.47 259.366 291.979 259.237 291.559 258.979C291.139 258.721 290.814 258.36 290.582 257.896C290.35 257.432 290.234 256.89 290.234 256.27C290.234 255.647 290.35 255.102 290.582 254.636C290.814 254.169 291.139 253.807 291.559 253.549C291.979 253.291 292.47 253.162 293.033 253.162C293.596 253.162 294.087 253.291 294.507 253.549C294.926 253.807 295.252 254.169 295.484 254.636C295.716 255.102 295.832 255.647 295.832 256.27C295.832 256.89 295.716 257.432 295.484 257.896C295.252 258.36 294.926 258.721 294.507 258.979C294.087 259.237 293.596 259.366 293.033 259.366ZM293.037 258.385C293.402 258.385 293.704 258.288 293.944 258.096C294.183 257.903 294.361 257.646 294.475 257.325C294.593 257.005 294.651 256.652 294.651 256.266C294.651 255.883 294.593 255.531 294.475 255.21C294.361 254.887 294.183 254.628 293.944 254.432C293.704 254.237 293.402 254.139 293.037 254.139C292.669 254.139 292.364 254.237 292.122 254.432C291.882 254.628 291.704 254.887 291.586 255.21C291.472 255.531 291.414 255.883 291.414 256.266C291.414 256.652 291.472 257.005 291.586 257.325C291.704 257.646 291.882 257.903 292.122 258.096C292.364 258.288 292.669 258.385 293.037 258.385ZM299.605 261.622C299.128 261.622 298.717 261.559 298.373 261.434C298.032 261.309 297.753 261.144 297.537 260.938C297.32 260.732 297.159 260.506 297.052 260.261L298.057 259.847C298.127 259.962 298.221 260.083 298.338 260.211C298.458 260.341 298.62 260.452 298.823 260.543C299.029 260.634 299.293 260.68 299.617 260.68C300.06 260.68 300.426 260.572 300.715 260.355C301.004 260.141 301.149 259.8 301.149 259.331V258.15H301.075C301.004 258.278 300.903 258.42 300.77 258.576C300.64 258.733 300.46 258.868 300.23 258.983C300.001 259.098 299.703 259.155 299.335 259.155C298.861 259.155 298.433 259.044 298.053 258.823C297.675 258.599 297.375 258.269 297.154 257.834C296.935 257.396 296.825 256.858 296.825 256.219C296.825 255.581 296.933 255.033 297.15 254.577C297.369 254.121 297.668 253.772 298.049 253.529C298.429 253.284 298.861 253.162 299.343 253.162C299.716 253.162 300.017 253.224 300.246 253.35C300.475 253.472 300.654 253.615 300.782 253.78C300.912 253.944 301.012 254.088 301.083 254.214H301.169V253.24H302.314V259.378C302.314 259.894 302.194 260.317 301.954 260.648C301.715 260.979 301.39 261.224 300.981 261.383C300.574 261.542 300.116 261.622 299.605 261.622ZM299.593 258.185C299.929 258.185 300.213 258.107 300.445 257.951C300.68 257.792 300.857 257.565 300.977 257.271C301.1 256.974 301.161 256.618 301.161 256.203C301.161 255.799 301.101 255.444 300.981 255.136C300.861 254.829 300.685 254.589 300.453 254.417C300.221 254.242 299.935 254.155 299.593 254.155C299.241 254.155 298.948 254.246 298.713 254.429C298.479 254.608 298.302 254.853 298.182 255.164C298.065 255.474 298.006 255.82 298.006 256.203C298.006 256.597 298.066 256.942 298.186 257.239C298.306 257.537 298.483 257.768 298.717 257.935C298.955 258.102 299.246 258.185 299.593 258.185ZM305.001 251.238V259.245H303.832V251.238H305.001ZM309.112 259.366C308.521 259.366 308.011 259.24 307.584 258.987C307.159 258.731 306.83 258.373 306.598 257.912C306.369 257.448 306.254 256.904 306.254 256.282C306.254 255.667 306.369 255.124 306.598 254.655C306.83 254.186 307.154 253.82 307.568 253.557C307.985 253.294 308.472 253.162 309.03 253.162C309.369 253.162 309.697 253.218 310.015 253.33C310.333 253.442 310.619 253.618 310.871 253.858C311.124 254.098 311.324 254.409 311.47 254.792C311.615 255.173 311.688 255.635 311.688 256.18V256.594H306.915V255.719H310.543C310.543 255.411 310.48 255.139 310.355 254.902C310.23 254.662 310.054 254.473 309.828 254.335C309.603 254.197 309.34 254.128 309.038 254.128C308.709 254.128 308.423 254.208 308.178 254.37C307.935 254.529 307.748 254.737 307.615 254.995C307.485 255.251 307.419 255.528 307.419 255.828V256.512C307.419 256.914 307.49 257.255 307.63 257.537C307.774 257.818 307.973 258.033 308.229 258.182C308.484 258.328 308.782 258.401 309.124 258.401C309.345 258.401 309.547 258.369 309.73 258.307C309.912 258.242 310.07 258.145 310.203 258.017C310.336 257.89 310.437 257.732 310.508 257.544L311.614 257.744C311.526 258.07 311.367 258.355 311.137 258.6C310.91 258.842 310.625 259.031 310.281 259.167C309.94 259.3 309.55 259.366 309.112 259.366Z" fill="#C3C3C6"/>
<path d="M0 42L568 42" stroke="white" stroke-opacity="0.06"/>
<path d="M417 0L417 326" stroke="white" stroke-opacity="0.06"/>
<path d="M152 0L152 326" stroke="white" stroke-opacity="0.06"/>
<path d="M0 284L568 284" stroke="white" stroke-opacity="0.06"/>
</g>
<defs>
<filter id="filter0_dd_5463_5883" x="140" y="31.9999" width="289" height="266" filterUnits="userSpaceOnUse" color-interpolation-filters="sRGB">
<feFlood flood-opacity="0" result="BackgroundImageFix"/>
<feColorMatrix in="SourceAlpha" type="matrix" values="0 0 0 0 0 0 0 0 0 0 0 0 0 0 0 0 0 0 127 0" result="hardAlpha"/>
<feOffset dy="6"/>
<feGaussianBlur stdDeviation="4"/>
<feComposite in2="hardAlpha" operator="out"/>
<feColorMatrix type="matrix" values="0 0 0 0 0 0 0 0 0 0 0 0 0 0 0 0 0 0 0.02 0"/>
<feBlend mode="normal" in2="BackgroundImageFix" result="effect1_dropShadow_5463_5883"/>
<feColorMatrix in="SourceAlpha" type="matrix" values="0 0 0 0 0 0 0 0 0 0 0 0 0 0 0 0 0 0 127 0" result="hardAlpha"/>
<feOffset dy="2"/>
<feGaussianBlur stdDeviation="6"/>
<feComposite in2="hardAlpha" operator="out"/>
<feColorMatrix type="matrix" values="0 0 0 0 0 0 0 0 0 0 0 0 0 0 0 0 0 0 0.02 0"/>
<feBlend mode="normal" in2="effect1_dropShadow_5463_5883" result="effect2_dropShadow_5463_5883"/>
<feBlend mode="normal" in="SourceGraphic" in2="effect2_dropShadow_5463_5883" result="shape"/>
</filter>
<clipPath id="clip0_5463_5883">
<rect width="568" height="326" fill="white"/>
</clipPath>
<clipPath id="clip1_5463_5883">
<rect width="15.727" height="15.727" fill="white" transform="translate(377.684 142.41)"/>
</clipPath>
</defs>
</svg>
