<svg width="568" height="326" viewBox="0 0 568 326" fill="none" xmlns="http://www.w3.org/2000/svg">
<g clip-path="url(#clip0_5463_3568)">
<path d="M0 0H568V326H0V0Z" fill="#19191C"/>
<g filter="url(#filter0_dd_5463_3568)">
<rect width="384" height="198" transform="translate(92 64)" fill="#1D1D21"/>
</g>
<path d="M0 64L568 64" stroke="white" stroke-opacity="0.06"/>
<path d="M476 0L476 326" stroke="white" stroke-opacity="0.06"/>
<path d="M92 0L92 326" stroke="white" stroke-opacity="0.06"/>
<path d="M0 262L568 262" stroke="white" stroke-opacity="0.06"/>
<circle cx="284" cy="163" r="41.5" fill="#232325" stroke="white" stroke-dasharray="2 2"/>
<path d="M297.199 163L274.649 150.57L274.649 175.1L297.199 163Z" fill="white"/>
<path d="M102.585 251.097C102.136 251.095 101.753 250.976 101.435 250.741C101.116 250.507 100.873 250.165 100.705 249.716C100.536 249.267 100.452 248.726 100.452 248.094C100.452 247.463 100.536 246.924 100.705 246.477C100.875 246.03 101.119 245.689 101.438 245.455C101.758 245.22 102.14 245.102 102.585 245.102C103.03 245.102 103.412 245.221 103.73 245.457C104.048 245.692 104.292 246.033 104.46 246.48C104.631 246.925 104.716 247.463 104.716 248.094C104.716 248.728 104.632 249.27 104.463 249.719C104.295 250.166 104.051 250.508 103.733 250.744C103.415 250.979 103.032 251.097 102.585 251.097ZM102.585 250.338C102.979 250.338 103.287 250.146 103.509 249.761C103.732 249.377 103.844 248.821 103.844 248.094C103.844 247.611 103.793 247.203 103.69 246.869C103.59 246.534 103.445 246.28 103.256 246.108C103.068 245.934 102.845 245.847 102.585 245.847C102.193 245.847 101.885 246.04 101.662 246.426C101.438 246.812 101.326 247.368 101.324 248.094C101.324 248.579 101.374 248.989 101.474 249.324C101.577 249.657 101.722 249.91 101.909 250.082C102.097 250.253 102.322 250.338 102.585 250.338ZM106.259 250.278C106.103 250.278 105.97 250.223 105.858 250.114C105.746 250.002 105.691 249.867 105.691 249.71C105.691 249.555 105.746 249.422 105.858 249.312C105.97 249.201 106.103 249.145 106.259 249.145C106.414 249.145 106.548 249.201 106.659 249.312C106.771 249.422 106.827 249.555 106.827 249.71C106.827 249.814 106.8 249.91 106.747 249.997C106.696 250.082 106.628 250.151 106.543 250.202C106.458 250.253 106.363 250.278 106.259 250.278ZM106.259 247.364C106.103 247.364 105.97 247.309 105.858 247.199C105.746 247.087 105.691 246.953 105.691 246.795C105.691 246.64 105.746 246.508 105.858 246.398C105.97 246.286 106.103 246.23 106.259 246.23C106.414 246.23 106.548 246.286 106.659 246.398C106.771 246.508 106.827 246.64 106.827 246.795C106.827 246.9 106.8 246.995 106.747 247.082C106.696 247.168 106.628 247.236 106.543 247.287C106.458 247.338 106.363 247.364 106.259 247.364ZM109.943 251.097C109.494 251.095 109.111 250.976 108.792 250.741C108.474 250.507 108.231 250.165 108.062 249.716C107.894 249.267 107.809 248.726 107.809 248.094C107.809 247.463 107.894 246.924 108.062 246.477C108.233 246.03 108.477 245.689 108.795 245.455C109.115 245.22 109.498 245.102 109.943 245.102C110.388 245.102 110.77 245.221 111.088 245.457C111.406 245.692 111.649 246.033 111.818 246.48C111.988 246.925 112.074 247.463 112.074 248.094C112.074 248.728 111.989 249.27 111.821 249.719C111.652 250.166 111.409 250.508 111.091 250.744C110.772 250.979 110.39 251.097 109.943 251.097ZM109.943 250.338C110.337 250.338 110.645 250.146 110.866 249.761C111.09 249.377 111.201 248.821 111.201 248.094C111.201 247.611 111.15 247.203 111.048 246.869C110.948 246.534 110.803 246.28 110.613 246.108C110.426 245.934 110.202 245.847 109.943 245.847C109.551 245.847 109.243 246.04 109.02 246.426C108.796 246.812 108.683 247.368 108.682 248.094C108.682 248.579 108.732 248.989 108.832 249.324C108.934 249.657 109.079 249.91 109.267 250.082C109.454 250.253 109.68 250.338 109.943 250.338ZM115.071 251.097C114.622 251.095 114.239 250.976 113.92 250.741C113.602 250.507 113.359 250.165 113.19 249.716C113.022 249.267 112.937 248.726 112.937 248.094C112.937 247.463 113.022 246.924 113.19 246.477C113.361 246.03 113.605 245.689 113.923 245.455C114.243 245.22 114.626 245.102 115.071 245.102C115.516 245.102 115.898 245.221 116.216 245.457C116.534 245.692 116.777 246.033 116.946 246.48C117.116 246.925 117.202 247.463 117.202 248.094C117.202 248.728 117.117 249.27 116.949 249.719C116.78 250.166 116.537 250.508 116.219 250.744C115.901 250.979 115.518 251.097 115.071 251.097ZM115.071 250.338C115.465 250.338 115.773 250.146 115.994 249.761C116.218 249.377 116.33 248.821 116.33 248.094C116.33 247.611 116.278 247.203 116.176 246.869C116.076 246.534 115.931 246.28 115.741 246.108C115.554 245.934 115.33 245.847 115.071 245.847C114.679 245.847 114.371 246.04 114.148 246.426C113.924 246.812 113.812 247.368 113.81 248.094C113.81 248.579 113.86 248.989 113.96 249.324C114.062 249.657 114.207 249.91 114.395 250.082C114.582 250.253 114.808 250.338 115.071 250.338Z" fill="#C3C3C6"/>
<rect x="126" y="248" width="334" height="1" fill="white" fill-opacity="0.1"/>
<rect x="126" y="248" width="4" height="1" fill="white"/>
</g>
<defs>
<filter id="filter0_dd_5463_3568" x="80" y="54" width="408" height="222" filterUnits="userSpaceOnUse" color-interpolation-filters="sRGB">
<feFlood flood-opacity="0" result="BackgroundImageFix"/>
<feColorMatrix in="SourceAlpha" type="matrix" values="0 0 0 0 0 0 0 0 0 0 0 0 0 0 0 0 0 0 127 0" result="hardAlpha"/>
<feOffset dy="6"/>
<feGaussianBlur stdDeviation="4"/>
<feComposite in2="hardAlpha" operator="out"/>
<feColorMatrix type="matrix" values="0 0 0 0 0 0 0 0 0 0 0 0 0 0 0 0 0 0 0.02 0"/>
<feBlend mode="normal" in2="BackgroundImageFix" result="effect1_dropShadow_5463_3568"/>
<feColorMatrix in="SourceAlpha" type="matrix" values="0 0 0 0 0 0 0 0 0 0 0 0 0 0 0 0 0 0 127 0" result="hardAlpha"/>
<feOffset dy="2"/>
<feGaussianBlur stdDeviation="6"/>
<feComposite in2="hardAlpha" operator="out"/>
<feColorMatrix type="matrix" values="0 0 0 0 0 0 0 0 0 0 0 0 0 0 0 0 0 0 0.02 0"/>
<feBlend mode="normal" in2="effect1_dropShadow_5463_3568" result="effect2_dropShadow_5463_3568"/>
<feBlend mode="normal" in="SourceGraphic" in2="effect2_dropShadow_5463_3568" result="shape"/>
</filter>
<clipPath id="clip0_5463_3568">
<rect width="568" height="326" fill="white"/>
</clipPath>
</defs>
</svg>
