<svg width="73" height="65" viewBox="0 0 73 65" fill="none" xmlns="http://www.w3.org/2000/svg">
<g filter="url(#filter0_d_320_18327)">
<g filter="url(#filter1_d_320_18327)">
<mask id="path-1-outside-1_320_18327" maskUnits="userSpaceOnUse" x="-0.745117" y="-0.499268" width="70" height="62" fill="black">
<rect fill="white" x="-0.745117" y="-0.499268" width="70" height="62"/>
<path fill-rule="evenodd" clip-rule="evenodd" d="M30.3937 3.50073L34.5689 3.50073V7.67598H32.4819V11.8512H32.4817V16.0264H28.3065L28.3065 11.8513H24.1325V11.8508H19.9586V7.67555H22.0455V3.50118L26.2207 3.50118V7.67604H26.2227V3.50085L30.3937 3.50085V3.50073ZM24.1311 11.8516H28.3063L28.3063 16.0269H24.1324V16.0272H19.9572L19.9572 11.8519H24.1311V11.8516ZM24.1322 16.0272H19.957V20.2024H24.1322V16.0272ZM15.7801 7.67591L19.9553 7.67591V11.8512H15.7801L15.7801 7.67591ZM19.9568 11.8515H15.7815V16.0268H19.9568L19.9568 11.8515ZM15.7799 16.0272H19.9552V20.2019H19.9553V24.3771H15.7801V20.2024H15.7799L15.7799 16.0272ZM7.43325 24.3776V28.5527H7.43176L7.43176 32.7279H7.43181L7.43181 36.9031H7.43185L7.43185 41.0783H7.43332L7.43332 45.2531H11.6029V45.2534H11.6044V49.4286H15.7797V45.2533H15.7781L15.7781 41.0786H15.7782V36.9033H11.6071V36.903H11.6071V36.903H15.7798L15.7798 32.7278H11.607V32.7274H15.7796V28.5522H15.7782L15.7782 24.3774H11.6029V24.3776H7.43325ZM7.43015 24.3775H3.2549L3.2549 28.5527H7.43015V24.3775ZM3.25632 28.5531H7.43157L7.43157 32.7274H7.43165L7.43165 36.9027H3.25641L3.25641 32.7283H3.25632L3.25632 28.5531ZM3.25488 36.9034H7.43013L7.43013 41.0786H3.25488L3.25488 36.9034ZM15.7796 20.2018L15.7796 16.0271H11.6044V16.0272H7.43189L7.43189 20.202H7.43183L7.43183 24.3772H11.6071V24.377H15.7798V20.2018H15.7796ZM11.6029 11.8515L15.7782 11.8515V16.0268H11.6029V11.8515ZM34.5708 7.67639H32.4821V11.8516H32.4824V16.0267L36.6562 16.0267V16.0269H40.8314V11.8516H36.6576V11.8515H36.6574V11.8512H40.8315V7.67599L38.7461 7.67599V3.50117L34.5708 3.50117V7.67639ZM40.8331 7.67607H45.0083V11.8512H45.0101V11.8515H49.184V11.8516H53.358V16.0267H53.3581V20.202H53.3566L53.3566 24.3771H49.1823V24.3772H45.0071L40.8333 24.3772L40.8333 20.2028H40.8332V16.0276H45.0085V20.2019H45.0086L49.1813 20.2019V20.2019L45.0088 20.2019V16.0267H45.0087V16.0264H40.8349V11.8513H40.8331V7.67607ZM57.5337 16.0271L53.3585 16.0271V20.2024H53.3599L53.3599 24.3772H57.5352L57.5352 20.2019H57.5337V16.0271ZM65.8832 28.5519H61.7079V28.5519H57.5354V32.7272H61.7107V32.7271H65.8832V28.5519ZM61.7108 45.2536H65.8819V49.4288H65.8834V53.6041H65.8834V57.7789H61.7107V57.7792H57.5355V53.6041H57.5354V49.4288H61.7066V49.4286H57.5356V45.2534H61.7108V45.2536ZM65.8817 32.7279H61.7064V32.7279H57.537V36.9031H61.7122V36.9031H65.8817V32.7279ZM65.8831 36.9033H61.7108V36.9032H57.5355V41.0785H61.7078V41.0786H65.8831V36.9033ZM57.5339 28.553H53.3587V32.7279H53.3584V36.9031H53.3599V41.0783H57.5352V36.903H57.5336V32.7282H57.5339V28.553ZM53.3586 45.2538H57.5339V49.429H53.3586V45.2538ZM53.36 49.4293H57.5353V53.6046H57.5352V57.7793H53.3599V53.604H53.36V49.4293ZM53.3582 28.5522H49.1829V32.7274H49.1827V32.9841H45.5603V36.7977L49.1827 36.7977V36.9027H53.358V32.7275H53.3582V28.5522ZM49.1842 45.2538H53.3581V49.429H49.1828V49.4284L45.0089 49.4284V45.2532L49.1842 45.2532V45.2538ZM49.1828 49.4293H53.3567V53.6046H53.3566V57.7793H49.1814V57.7789L45.0073 57.7789V57.7788H40.8335V53.6044H40.8331V49.4292H45.0076V49.4288H40.8335V45.2536H45.0087V49.4288L49.1828 49.4288V49.4293ZM53.3565 36.9034H49.1824V36.9034L45.0086 36.9034V36.903H40.8333V41.0783H45.0072V41.0786L49.1812 41.0786V41.0787H53.3565V36.9034ZM36.658 45.2537H40.8332V49.429H36.659L40.8328 49.429V53.6042H40.8313V57.7794H36.6561V57.7793H32.4823V53.6041H32.4838V49.429H32.4835L32.4835 45.2538H36.658V45.2537ZM28.306 45.2537H32.4804L32.4804 49.4289H28.3051V49.4286H24.1324V49.429L24.1337 49.429V49.4292H28.3078L32.4818 49.4292V53.6036H32.4819V57.7789H28.3077V57.7792H24.1337V57.7794H19.9585V53.6042H19.9584V49.429L19.9571 49.429L19.9571 45.2537H24.1308V45.2535H19.957V41.0782H24.1322V45.2533H28.306V45.2537ZM15.7815 45.2534H15.7814L15.7814 41.0786H15.78V36.9034H19.9552V41.0781H19.9567V45.2533H19.9567L19.9567 49.4286H15.7815V45.2534ZM19.9554 49.4289H15.7801V53.6042H19.9554V49.4289ZM40.8331 16.0271H36.6578V20.2023H40.8331V16.0271Z"/>
</mask>
<path d="M34.5689 3.50073L37.6198 3.50073V0.449885H34.5689V3.50073ZM30.3937 3.50073V0.449885H27.3428V3.50073L30.3937 3.50073ZM34.5689 7.67598V10.7268H37.6198V7.67598H34.5689ZM32.4819 7.67598V4.62513L29.4311 4.62513V7.67598L32.4819 7.67598ZM32.4819 11.8512V14.902L35.5328 14.902V11.8512L32.4819 11.8512ZM32.4817 11.8512V8.80033L29.4309 8.80033V11.8512H32.4817ZM32.4817 16.0264V19.0772L35.5326 19.0772V16.0264L32.4817 16.0264ZM28.3065 16.0264H25.2557V19.0772H28.3065V16.0264ZM28.3065 11.8513H31.3574V8.80044L28.3065 8.80044V11.8513ZM24.1325 11.8513H21.0816L21.0816 14.9021H24.1325L24.1325 11.8513ZM24.1325 11.8508H27.1833V8.79995H24.1325V11.8508ZM19.9586 11.8508H16.9077V14.9016H19.9586L19.9586 11.8508ZM19.9586 7.67555V4.6247L16.9077 4.6247V7.67555L19.9586 7.67555ZM22.0455 7.67555V10.7264H25.0963V7.67555H22.0455ZM22.0455 3.50118V0.450336L18.9946 0.450336V3.50118L22.0455 3.50118ZM26.2207 3.50118L29.2716 3.50118V0.450336L26.2207 0.450336V3.50118ZM26.2207 7.67604H23.1699V10.7269H26.2207V7.67604ZM26.2227 7.67604V10.7269H29.2736V7.67604H26.2227ZM26.2227 3.50085V0.449998H23.1719V3.50085H26.2227ZM30.3937 3.50085V6.55169L33.4445 6.55169V3.50085L30.3937 3.50085ZM28.3063 11.8516H31.3572V8.80078L28.3063 8.80078V11.8516ZM24.1311 11.8516V8.80078H21.0802V11.8516H24.1311ZM28.3063 16.0269V19.0777H31.3572V16.0269H28.3063ZM24.1324 16.0269V12.976H21.0816V16.0269H24.1324ZM24.1324 16.0272V19.078H27.1833V16.0272H24.1324ZM19.9572 16.0272H16.9063L16.9063 19.078H19.9572V16.0272ZM19.9572 11.8519V8.80106L16.9063 8.80106V11.8519H19.9572ZM24.1311 11.8519L24.1311 14.9028H27.1819L27.1819 11.8519H24.1311ZM19.957 16.0272V12.9763H16.9061V16.0272H19.957ZM24.1322 16.0272H27.1831V12.9763H24.1322V16.0272ZM19.957 20.2024H16.9061V23.2533H19.957V20.2024ZM24.1322 20.2024V23.2533L27.1831 23.2533V20.2024L24.1322 20.2024ZM19.9553 7.67591H23.0062V4.62506H19.9553V7.67591ZM15.7801 7.67591V4.62506H12.7292V7.67591H15.7801ZM19.9553 11.8512L19.9553 14.902H23.0062L23.0062 11.8512H19.9553ZM15.7801 11.8512L12.7292 11.8512V14.902L15.7801 14.902V11.8512ZM15.7815 11.8515V8.80066H12.7307V11.8515L15.7815 11.8515ZM19.9568 11.8515H23.0076V8.80066H19.9568V11.8515ZM15.7815 16.0268H12.7307L12.7307 19.0776H15.7815L15.7815 16.0268ZM19.9568 16.0268V19.0776H23.0076V16.0268H19.9568ZM19.9552 16.0272H23.006V12.9763H19.9552V16.0272ZM15.7799 16.0272V12.9763L12.7291 12.9763V16.0272H15.7799ZM19.9552 20.2019H16.9043V23.2527H19.9552V20.2019ZM19.9553 20.2019H23.0062V17.151H19.9553V20.2019ZM19.9553 24.3771V27.428H23.0062V24.3771H19.9553ZM15.7801 24.3771H12.7292L12.7292 27.428H15.7801L15.7801 24.3771ZM15.7801 20.2024H18.8309L18.8309 17.1516H15.7801L15.7801 20.2024ZM15.7799 20.2024H12.7291V23.2533H15.7799V20.2024ZM7.43325 28.5527L7.43325 31.6035H10.4841L10.4841 28.5527H7.43325ZM7.43325 24.3776L7.43325 21.3267H4.3824V24.3776H7.43325ZM7.43176 28.5527V25.5018H4.38091L4.38091 28.5527H7.43176ZM7.43176 32.7279H4.38091L4.38091 35.7788H7.43176L7.43176 32.7279ZM7.43181 32.7279H10.4827V29.6771H7.43181V32.7279ZM7.43181 36.9031H4.38096L4.38096 39.954H7.43181L7.43181 36.9031ZM7.43185 36.9031H10.4827V33.8523H7.43185V36.9031ZM7.43185 41.0783H4.381L4.381 44.1291H7.43185L7.43185 41.0783ZM7.43332 41.0783H10.4842V38.0274H7.43332V41.0783ZM7.43332 45.2531H4.38247L4.38247 48.304H7.43332L7.43332 45.2531ZM11.6029 45.2531H14.6537L14.6537 42.2023H11.6029L11.6029 45.2531ZM11.6029 45.2534H8.55202L8.55202 48.3043H11.6029V45.2534ZM11.6044 45.2534H14.6553L14.6553 42.2026H11.6044L11.6044 45.2534ZM11.6044 49.4286H8.55356L8.55356 52.4794H11.6044V49.4286ZM15.7797 49.4286V52.4794H18.8305V49.4286H15.7797ZM15.7797 45.2533H18.8305V42.2025H15.7797L15.7797 45.2533ZM15.7781 45.2533H12.7273V48.3042H15.7781V45.2533ZM15.7781 41.0786V38.0277H12.7273V41.0786H15.7781ZM15.7782 41.0786V44.1294H18.829V41.0786H15.7782ZM15.7782 36.9033H18.829V33.8525H15.7782L15.7782 36.9033ZM11.6071 36.9033H8.55625V39.9542H11.6071V36.9033ZM11.6071 36.903H14.6579L14.6579 33.8522H11.6071L11.6071 36.903ZM11.6071 36.903H8.55621V39.9539H11.6071V36.903ZM11.6071 36.903L11.6071 33.8521H8.55621V36.903H11.6071ZM15.7798 36.903V39.9538H18.8306V36.903H15.7798ZM15.7798 32.7278H18.8306V29.6769H15.7798V32.7278ZM11.607 32.7278H8.55616L8.55616 35.7786H11.607L11.607 32.7278ZM11.607 32.7274V29.6766H8.55616V32.7274H11.607ZM15.7796 32.7274L15.7796 35.7783H18.8305V32.7274H15.7796ZM15.7796 28.5522H18.8305L18.8305 25.5013H15.7796L15.7796 28.5522ZM15.7782 28.5522H12.7273V31.603H15.7782V28.5522ZM15.7782 24.3774H18.829V21.3266H15.7782V24.3774ZM11.6029 24.3774V21.3266H8.55208V24.3774H11.6029ZM11.6029 24.3776L11.6029 27.4284H14.6538L14.6538 24.3776H11.6029ZM3.2549 24.3775L3.2549 21.3266H0.204053L0.204053 24.3775H3.2549ZM7.43015 24.3775H10.481V21.3266H7.43015L7.43015 24.3775ZM3.2549 28.5527H0.204053L0.204053 31.6036H3.2549L3.2549 28.5527ZM7.43015 28.5527L7.43015 31.6036H10.481L10.481 28.5527H7.43015ZM7.43157 28.5531H10.4824V25.5022H7.43157V28.5531ZM3.25632 28.5531L3.25632 25.5022H0.205476L0.205476 28.5531H3.25632ZM7.43157 32.7274H4.38072L4.38072 35.7783H7.43157L7.43157 32.7274ZM7.43165 32.7274H10.4825V29.6766H7.43165V32.7274ZM7.43165 36.9027L7.43165 39.9535H10.4825V36.9027H7.43165ZM3.25641 36.9027H0.205558L0.205558 39.9535H3.25641L3.25641 36.9027ZM3.25641 32.7283H6.30725V29.6775H3.25641L3.25641 32.7283ZM3.25632 32.7283H0.205476L0.205476 35.7792H3.25632L3.25632 32.7283ZM7.43013 36.9034H10.481V33.8525H7.43013V36.9034ZM3.25488 36.9034L3.25488 33.8525H0.204035L0.204035 36.9034H3.25488ZM7.43013 41.0786L7.43013 44.1295H10.481V41.0786H7.43013ZM3.25488 41.0786H0.204035L0.204035 44.1295H3.25488L3.25488 41.0786ZM15.7796 16.0271H18.8305V12.9763H15.7796V16.0271ZM15.7796 20.2018H12.7288V23.2526H15.7796V20.2018ZM11.6044 16.0271V12.9763H8.55352L8.55352 16.0271H11.6044ZM11.6044 16.0272L11.6044 19.078H14.6552L14.6552 16.0272H11.6044ZM7.43189 16.0272L7.43189 12.9763H4.38104L4.38104 16.0272H7.43189ZM7.43189 20.202V23.2528H10.4827V20.202H7.43189ZM7.43183 20.202L7.43183 17.1511H4.38098L4.38098 20.202H7.43183ZM7.43183 24.3772H4.38098L4.38098 27.4281H7.43183V24.3772ZM11.6071 24.3772L11.6071 27.4281H14.6579L14.6579 24.3772H11.6071ZM11.6071 24.377V21.3262H8.55623V24.377H11.6071ZM15.7798 24.377L15.7798 27.4279H18.8306L18.8306 24.377H15.7798ZM15.7798 20.2018H18.8306L18.8306 17.1509H15.7798L15.7798 20.2018ZM15.7782 11.8515H18.829V8.80066H15.7782V11.8515ZM11.6029 11.8515V8.80066H8.55209L8.55209 11.8515H11.6029ZM15.7782 16.0268L15.7782 19.0776H18.829L18.829 16.0268H15.7782ZM11.6029 16.0268H8.55209V19.0776H11.6029L11.6029 16.0268ZM32.4821 7.67639V4.62555L29.4313 4.62555V7.67639L32.4821 7.67639ZM34.5708 7.67639V10.7272H37.6217V7.67639H34.5708ZM32.4821 11.8516H29.4313L29.4313 14.9025H32.4821V11.8516ZM32.4824 11.8516L35.5332 11.8516V8.80079H32.4824V11.8516ZM32.4824 16.0267H29.4315V19.0776H32.4824V16.0267ZM36.6562 16.0267H39.707V12.9759H36.6562V16.0267ZM36.6562 16.0269L33.6053 16.0269V19.0777L36.6562 19.0777V16.0269ZM40.8314 16.0269V19.0777H43.8823V16.0269H40.8314ZM40.8314 11.8516H43.8823V8.80077H40.8314V11.8516ZM36.6576 11.8516L33.6068 11.8516V14.9025L36.6576 14.9025V11.8516ZM36.6576 11.8515H39.7085V8.80063H36.6576V11.8515ZM36.6574 11.8515L33.6065 11.8515V14.9023L36.6574 14.9023V11.8515ZM36.6574 11.8512V8.80039H33.6065V11.8512L36.6574 11.8512ZM40.8315 11.8512V14.9021H43.8824V11.8512H40.8315ZM40.8315 7.67599H43.8824V4.62514H40.8315V7.67599ZM38.7461 7.67599H35.6952V10.7268H38.7461V7.67599ZM38.7461 3.50117L41.7969 3.50117V0.450319H38.7461V3.50117ZM34.5708 3.50117V0.450319L31.52 0.450319V3.50117L34.5708 3.50117ZM45.0083 7.67607H48.0592V4.62523H45.0083V7.67607ZM40.8331 7.67607V4.62523L37.7822 4.62523V7.67607L40.8331 7.67607ZM45.0083 11.8512H41.9575V14.902H45.0083V11.8512ZM45.0101 11.8512H48.061V8.80034H45.0101V11.8512ZM45.0101 11.8515H41.9593V14.9024H45.0101V11.8515ZM49.184 11.8515H52.2348V8.80066H49.184V11.8515ZM49.184 11.8516H46.1331V14.9024H49.184V11.8516ZM53.358 11.8516H56.4089V8.80073H53.358V11.8516ZM53.358 16.0267H50.3072V19.0776H53.358V16.0267ZM53.3581 16.0267H56.4089V12.9759H53.3581V16.0267ZM53.3581 20.202L53.3581 23.2528H56.4089L56.4089 20.202H53.3581ZM53.3566 20.202V17.1511H50.3057V20.202H53.3566ZM53.3566 24.3771V27.428H56.4074V24.3771H53.3566ZM49.1823 24.3771L49.1823 21.3263H46.1315L46.1315 24.3771H49.1823ZM49.1823 24.3772V27.428H52.2332V24.3772H49.1823ZM45.0071 24.3772L45.0071 27.428H45.0071V24.3772ZM40.8333 24.3772H37.7825V27.428L40.8333 27.428L40.8333 24.3772ZM40.8333 20.2028H43.8842V17.152H40.8333V20.2028ZM40.8332 20.2028H37.7824L37.7824 23.2536H40.8332L40.8332 20.2028ZM40.8332 16.0276V12.9767H37.7824V16.0276H40.8332ZM45.0085 16.0276H48.0593V12.9767H45.0085V16.0276ZM45.0085 20.2019H41.9576L41.9576 23.2528H45.0085L45.0085 20.2019ZM45.0086 20.2019L45.0086 17.1511H45.0086V20.2019ZM49.1813 20.2019L49.1813 23.2528L52.2322 23.2528L52.2322 20.2019H49.1813ZM49.1813 20.2019H52.2322V17.151L49.1813 17.151V20.2019ZM45.0088 20.2019H41.9579L41.9579 23.2527H45.0088L45.0088 20.2019ZM45.0088 16.0267H48.0596V12.9759H45.0088V16.0267ZM45.0087 16.0267H41.9579V19.0776H45.0087V16.0267ZM45.0087 16.0264H48.0596V12.9756H45.0087V16.0264ZM40.8349 16.0264H37.784V19.0773H40.8349V16.0264ZM40.8349 11.8513H43.8857V8.80047H40.8349V11.8513ZM40.8331 11.8513H37.7822V14.9022H40.8331V11.8513ZM53.3585 16.0271V12.9763H50.3076V16.0271H53.3585ZM57.5337 16.0271H60.5845V12.9763H57.5337V16.0271ZM53.3585 20.2024H50.3076L50.3076 23.2532H53.3585L53.3585 20.2024ZM53.3599 20.2024H56.4108V17.1515H53.3599V20.2024ZM53.3599 24.3772H50.3091V27.428H53.3599V24.3772ZM57.5352 24.3772V27.428H60.586V24.3772H57.5352ZM57.5352 20.2019H60.586V17.1511H57.5352V20.2019ZM57.5337 20.2019H54.4829L54.4829 23.2528H57.5337L57.5337 20.2019ZM61.7079 28.5519V25.501H58.6571V28.5519H61.7079ZM65.8832 28.5519L68.934 28.5519V25.501L65.8832 25.501V28.5519ZM61.7079 28.5519V31.6028H64.7588V28.5519H61.7079ZM57.5354 28.5519V25.5011H54.4846V28.5519H57.5354ZM57.5354 32.7272H54.4846V35.778H57.5354V32.7272ZM61.7107 32.7272V35.778H64.7615V32.7272H61.7107ZM61.7107 32.7271V29.6762H58.6598V32.7271H61.7107ZM65.8832 32.7271V35.7779H68.934V32.7271L65.8832 32.7271ZM65.8819 45.2536H68.9327V42.2028H65.8819V45.2536ZM61.7108 45.2536H58.66V48.3045H61.7108V45.2536ZM65.8819 49.4288H62.831V52.4797H65.8819V49.4288ZM65.8834 49.4288H68.9343V46.378H65.8834V49.4288ZM65.8834 53.6041V56.6549H68.9343V53.6041H65.8834ZM65.8834 53.6041V50.5532H62.8325V53.6041H65.8834ZM65.8834 57.7789L65.8834 60.8297H68.9342V57.7789H65.8834ZM61.7107 57.7789V54.728H58.6599V57.7789H61.7107ZM61.7107 57.7792L61.7107 60.8301H64.7616L64.7616 57.7792H61.7107ZM57.5355 57.7792H54.4846L54.4846 60.8301H57.5355L57.5355 57.7792ZM57.5355 53.6041H60.5863V50.5532H57.5355V53.6041ZM57.5354 53.6041H54.4846V56.6549H57.5354V53.6041ZM57.5354 49.4288V46.378H54.4846V49.4288H57.5354ZM61.7066 49.4288V52.4797H64.7575V49.4288H61.7066ZM61.7066 49.4286H64.7575V46.3778H61.7066V49.4286ZM57.5356 49.4286H54.4847V52.4795H57.5356V49.4286ZM57.5356 45.2534V42.2026H54.4847V45.2534H57.5356ZM61.7108 45.2534H64.7617V42.2026H61.7108V45.2534ZM61.7064 32.7279V29.677H58.6556V32.7279H61.7064ZM65.8817 32.7279L68.9325 32.7279V29.677L65.8817 29.677V32.7279ZM61.7064 32.7279V35.7787H64.7573V32.7279H61.7064ZM57.537 32.7279V29.677H54.4861V32.7279H57.537ZM57.537 36.9031H54.4861V39.954H57.537V36.9031ZM61.7122 36.9031V39.954H64.7631V36.9031H61.7122ZM61.7122 36.9031V33.8522H58.6614V36.9031H61.7122ZM65.8817 36.9031V39.9539H68.9325V36.9031H65.8817ZM61.7108 36.9033H58.6599V39.9542H61.7108V36.9033ZM65.8831 36.9033H68.9339V33.8525L65.8831 33.8525V36.9033ZM61.7108 36.9032H64.7616V33.8524H61.7108V36.9032ZM57.5355 36.9032V33.8524H54.4847V36.9032H57.5355ZM57.5355 41.0785H54.4847V44.1293H57.5355V41.0785ZM61.7078 41.0785H64.7587V38.0276H61.7078V41.0785ZM61.7078 41.0786H58.657V44.1294H61.7078V41.0786ZM65.8831 41.0786V44.1294H68.9339V41.0786H65.8831ZM53.3587 28.553V25.5021H50.3078V28.553H53.3587ZM57.5339 28.553H60.5848V25.5021H57.5339V28.553ZM53.3587 32.7279V35.7787H56.4095V32.7279H53.3587ZM53.3584 32.7279V29.677H50.3075V32.7279H53.3584ZM53.3584 36.9031H50.3075V39.954H53.3584V36.9031ZM53.3599 36.9031H56.4108V33.8523H53.3599V36.9031ZM53.3599 41.0783H50.3091V44.1291H53.3599V41.0783ZM57.5352 41.0783V44.1291H60.586V41.0783H57.5352ZM57.5352 36.903H60.586V33.8522H57.5352V36.903ZM57.5336 36.903H54.4828V39.9539H57.5336V36.903ZM57.5336 32.7282V29.6774H54.4828V32.7282H57.5336ZM57.5339 32.7282V35.7791H60.5848V32.7282H57.5339ZM57.5339 45.2538H60.5847V42.2029H57.5339V45.2538ZM53.3586 45.2538V42.2029H50.3078V45.2538H53.3586ZM57.5339 49.429V52.4799H60.5847V49.429H57.5339ZM53.3586 49.429H50.3078V52.4799H53.3586V49.429ZM57.5353 49.4293H60.5861V46.3785H57.5353V49.4293ZM53.36 49.4293V46.3785H50.3092V49.4293H53.36ZM57.5353 53.6046V56.6554H60.5861V53.6046H57.5353ZM57.5352 53.6046V50.5537H54.4843V53.6046H57.5352ZM57.5352 57.7793L57.5352 60.8301H60.586L60.586 57.7793H57.5352ZM53.3599 57.7793H50.3091L50.3091 60.8301H53.3599L53.3599 57.7793ZM53.3599 53.604V50.5532H50.3091V53.604H53.3599ZM53.36 53.604V56.6549H56.4109V53.604H53.36ZM49.1829 28.5522V25.5014H46.1321V28.5522H49.1829ZM53.3582 28.5522H56.409V25.5014H53.3582V28.5522ZM49.1829 32.7274V35.7783H52.2338V32.7274H49.1829ZM49.1827 32.7274V29.6766H46.1319V32.7274H49.1827ZM49.1827 32.9841V36.035H52.2336V32.9841H49.1827ZM45.5603 32.9841V29.9333H42.5094V32.9841H45.5603ZM45.5603 36.7977H42.5094V39.8485H45.5603V36.7977ZM49.1827 36.7977H52.2336V33.7468H49.1827V36.7977ZM49.1827 36.9027H46.1319V39.9535H49.1827V36.9027ZM53.358 36.9027V39.9535H56.4088V36.9027H53.358ZM53.358 32.7275V29.6766H50.3071V32.7275H53.358ZM53.3582 32.7275V35.7783H56.409V32.7275H53.3582ZM53.3581 45.2538H56.4089V42.2029H53.3581V45.2538ZM49.1842 45.2538H46.1333V48.3046H49.1842V45.2538ZM53.3581 49.429V52.4798H56.4089V49.429H53.3581ZM49.1828 49.429H46.132V52.4798H49.1828V49.429ZM49.1828 49.4284H52.2337V46.3776H49.1828V49.4284ZM45.0089 49.4284H41.9581V52.4793H45.0089V49.4284ZM45.0089 45.2532V42.2024H41.9581V45.2532H45.0089ZM49.1842 45.2532H52.235V42.2024H49.1842V45.2532ZM53.3567 49.4293H56.4076V46.3785H53.3567V49.4293ZM49.1828 49.4293H46.132V52.4802H49.1828V49.4293ZM53.3567 53.6046V56.6554H56.4076V53.6046H53.3567ZM53.3566 53.6046V50.5537H50.3058V53.6046H53.3566ZM53.3566 57.7793L53.3566 60.8302H56.4075L56.4075 57.7793H53.3566ZM49.1814 57.7793H46.1305L46.1305 60.8302H49.1814L49.1814 57.7793ZM49.1814 57.7789H52.2322V54.7281H49.1814V57.7789ZM45.0073 57.7789H41.9564L41.9564 60.8298H45.0073L45.0073 57.7789ZM45.0073 57.7788L48.0581 57.7788V54.7279L45.0073 54.7279V57.7788ZM40.8335 57.7788H37.7826L37.7826 60.8296H40.8335L40.8335 57.7788ZM40.8335 53.6044H43.8843V50.5536H40.8335V53.6044ZM40.8331 53.6044H37.7823V56.6553H40.8331V53.6044ZM40.8331 49.4292V46.3784H37.7823V49.4292H40.8331ZM45.0076 49.4292V52.48L48.0584 52.48V49.4292L45.0076 49.4292ZM45.0076 49.4288L48.0584 49.4288V46.378L45.0076 46.378V49.4288ZM40.8335 49.4288H37.7826V52.4797H40.8335V49.4288ZM40.8335 45.2536V42.2027H37.7826V45.2536H40.8335ZM45.0087 45.2536L48.0596 45.2536V42.2027L45.0087 42.2027V45.2536ZM45.0087 49.4288H41.9579V52.4796H45.0087V49.4288ZM49.1828 49.4288H52.2336V46.3779H49.1828V49.4288ZM49.1824 36.9034H46.1316V39.9543H49.1824V36.9034ZM53.3565 36.9034H56.4073V33.8526H53.3565V36.9034ZM49.1824 36.9034H52.2333V33.8525H49.1824V36.9034ZM45.0086 36.9034H41.9577V39.9542H45.0086V36.9034ZM45.0086 36.903L48.0594 36.903V33.8522H45.0086V36.903ZM40.8333 36.903V33.8522H37.7825V36.903H40.8333ZM40.8333 41.0783H37.7825V44.1291H40.8333V41.0783ZM45.0072 41.0783L48.058 41.0783V38.0274L45.0072 38.0274V41.0783ZM45.0072 41.0786H41.9563V44.1295H45.0072V41.0786ZM49.1812 41.0786H52.2321V38.0278H49.1812V41.0786ZM49.1812 41.0787H46.1304V44.1295H49.1812V41.0787ZM53.3565 41.0787V44.1295H56.4073V41.0787H53.3565ZM40.8332 45.2537H43.8841V42.2029H40.8332V45.2537ZM36.658 45.2537V42.2029H33.6071V45.2537H36.658ZM40.8332 49.429V52.4798H43.8841V49.429H40.8332ZM36.659 49.429V46.3781L36.659 52.4798L36.659 49.429ZM40.8328 49.429H43.8836V46.3782L40.8328 46.3781L40.8328 49.429ZM40.8328 53.6042V56.6551H43.8836V53.6042H40.8328ZM40.8313 53.6042V50.5534H37.7805V53.6042H40.8313ZM40.8313 57.7794L40.8313 60.8302H43.8822L43.8822 57.7794H40.8313ZM36.6561 57.7794H33.6052V60.8302H36.6561L36.6561 57.7794ZM36.6561 57.7793H39.7069V54.7285H36.6561V57.7793ZM32.4823 57.7793H29.4314V60.8302H32.4823V57.7793ZM32.4823 53.6041V50.5532H29.4314V53.6041H32.4823ZM32.4838 53.6041V56.6549H35.5346V53.6041H32.4838ZM32.4838 49.429H35.5346V46.3782H32.4838L32.4838 49.429ZM32.4835 49.429H29.4326V52.4799H32.4835V49.429ZM32.4835 45.2538V42.2029H29.4326V45.2538H32.4835ZM36.658 45.2538V48.3046H39.7088V45.2538H36.658ZM32.4804 45.2537H35.5312V42.2029H32.4804V45.2537ZM28.306 45.2537H25.2552V48.3046H28.306V45.2537ZM32.4804 49.4289V52.4798H35.5312V49.4289H32.4804ZM28.3051 49.4289H25.2543V52.4798H28.3051V49.4289ZM28.3051 49.4286H31.356L31.356 46.3777H28.3051L28.3051 49.4286ZM24.1324 49.4286L24.1324 46.3777H21.0815L21.0815 49.4286H24.1324ZM24.1324 49.429H21.0815V52.4886L24.1411 52.4798L24.1324 49.429ZM24.1337 49.429H27.1845L27.1845 46.3694L24.1249 46.3781L24.1337 49.429ZM24.1337 49.4292H21.0828V52.4801H24.1337V49.4292ZM28.3078 49.4292L28.3078 46.3784H28.3078L28.3078 49.4292ZM32.4818 49.4292H35.5326V46.3784L32.4818 46.3784L32.4818 49.4292ZM32.4818 53.6036H29.4309V56.6545H32.4818V53.6036ZM32.4819 53.6036H35.5327V50.5528H32.4819V53.6036ZM32.4819 57.7789V60.8297H35.5327L35.5327 57.7789H32.4819ZM28.3077 57.7789V54.728H25.2568V57.7789H28.3077ZM28.3077 57.7792V60.8301H31.3585V57.7792H28.3077ZM24.1337 57.7792V54.7284H21.0829V57.7792H24.1337ZM24.1337 57.7794V60.8303H27.1846V57.7794H24.1337ZM19.9585 57.7794H16.9076V60.8303H19.9585V57.7794ZM19.9585 53.6042H23.0093V50.5534H19.9585V53.6042ZM19.9584 53.6042H16.9076L16.9076 56.6551H19.9584V53.6042ZM19.9584 49.429H23.0093L23.0093 46.3694L19.9497 46.3781L19.9584 49.429ZM19.9571 49.429H16.9063V52.4886L19.9659 52.4798L19.9571 49.429ZM19.9571 45.2537V42.2029H16.9063V45.2537H19.9571ZM24.1308 45.2537V48.3046H27.1816V45.2537H24.1308ZM24.1308 45.2535H27.1816V42.2026H24.1308V45.2535ZM19.957 45.2535H16.9061V48.3043H19.957V45.2535ZM19.957 41.0782V38.0274H16.9061V41.0782H19.957ZM24.1322 41.0782H27.1831V38.0274H24.1322V41.0782ZM24.1322 45.2533H21.0814V48.3042H24.1322V45.2533ZM28.306 45.2533H31.3569V42.2025H28.306V45.2533ZM15.7814 45.2534H12.7306V48.3042H15.7814V45.2534ZM15.7815 45.2534H18.8323V42.2025H15.7815L15.7815 45.2534ZM15.7814 41.0786H18.8323V38.0278H15.7814V41.0786ZM15.78 41.0786H12.7291V44.1295H15.78V41.0786ZM15.78 36.9034L15.78 33.8525H12.7291L12.7291 36.9034H15.78ZM19.9552 36.9034H23.0061V33.8525H19.9552V36.9034ZM19.9552 41.0781H16.9044V44.129H19.9552V41.0781ZM19.9567 41.0781H23.0075V38.0273H19.9567V41.0781ZM19.9567 45.2533H16.9058V48.3042H19.9567V45.2533ZM19.9567 45.2533H23.0076V42.2025H19.9567V45.2533ZM19.9567 49.4286V52.4794H23.0076V49.4286H19.9567ZM15.7815 49.4286H12.7306V52.4794H15.7815V49.4286ZM15.7801 49.4289V46.3781H12.7293V49.4289H15.7801ZM19.9554 49.4289H23.0062L23.0062 46.3781H19.9554L19.9554 49.4289ZM15.7801 53.6042H12.7293L12.7293 56.655H15.7801L15.7801 53.6042ZM19.9554 53.6042V56.655H23.0062V53.6042H19.9554ZM36.6578 16.0271V12.9762L33.607 12.9762V16.0271L36.6578 16.0271ZM40.8331 16.0271H43.8839V12.9762H40.8331V16.0271ZM36.6578 20.2023H33.607V23.2532H36.6578L36.6578 20.2023ZM40.8331 20.2023L40.8331 23.2532H43.8839L43.8839 20.2023H40.8331ZM34.5689 0.449885L30.3937 0.449885V6.55158L34.5689 6.55158V0.449885ZM37.6198 7.67598V3.50073L31.5181 3.50073V7.67598H37.6198ZM32.4819 10.7268H34.5689V4.62513H32.4819V10.7268ZM35.5328 11.8512V7.67598L29.4311 7.67598V11.8512L35.5328 11.8512ZM32.4817 14.902H32.4819V8.80033H32.4817V14.902ZM35.5326 16.0264V11.8512L29.4309 11.8512L29.4309 16.0264L35.5326 16.0264ZM28.3065 19.0772H32.4817V12.9755H28.3065V19.0772ZM25.2557 11.8513L25.2557 16.0264H31.3574L31.3574 11.8513H25.2557ZM24.1325 14.9021H28.3065L28.3065 8.80044H24.1325L24.1325 14.9021ZM21.0816 11.8508V11.8513H27.1833V11.8508H21.0816ZM19.9586 14.9016H24.1325L24.1325 8.79995H19.9586L19.9586 14.9016ZM16.9077 7.67555V11.8508H23.0094V7.67555L16.9077 7.67555ZM22.0455 4.6247H19.9586V10.7264H22.0455V4.6247ZM18.9946 3.50118V7.67555L25.0963 7.67555V3.50118L18.9946 3.50118ZM26.2207 0.450336H22.0455V6.55203H26.2207V0.450336ZM29.2716 7.67604V3.50118L23.1699 3.50118V7.67604H29.2716ZM26.2227 4.62519H26.2207V10.7269H26.2227V4.62519ZM23.1719 3.50085V7.67604H29.2736V3.50085L23.1719 3.50085ZM30.3937 0.449998L26.2227 0.449998V6.55169H30.3937V0.449998ZM27.3428 3.50073V3.50085L33.4445 3.50085V3.50073L27.3428 3.50073ZM28.3063 8.80078H24.1311L24.1311 14.9025H28.3063L28.3063 8.80078ZM31.3572 16.0269L31.3572 11.8516H25.2555L25.2555 16.0269H31.3572ZM24.1324 19.0777H28.3063V12.976H24.1324V19.0777ZM27.1833 16.0272V16.0269H21.0816V16.0272H27.1833ZM19.9572 19.078H24.1324V12.9763H19.9572V19.078ZM16.9063 11.8519V16.0272H23.008L23.008 11.8519H16.9063ZM24.1311 8.80106H19.9572L19.9572 14.9028H24.1311L24.1311 8.80106ZM21.0802 11.8516V11.8519H27.1819V11.8516H21.0802ZM19.957 19.078H24.1322V12.9763H19.957V19.078ZM23.0078 20.2024V16.0272H16.9061L16.9061 20.2024H23.0078ZM24.1322 17.1516H19.957V23.2533H24.1322V17.1516ZM21.0814 16.0272V20.2024L27.1831 20.2024V16.0272H21.0814ZM19.9553 4.62506L15.7801 4.62506L15.7801 10.7268L19.9553 10.7268V4.62506ZM23.0062 11.8512V7.67591L16.9045 7.67591V11.8512H23.0062ZM15.7801 14.902H19.9553L19.9553 8.80031L15.7801 8.80031V14.902ZM12.7292 7.67591L12.7292 11.8512L18.8309 11.8512V7.67591H12.7292ZM15.7815 14.9024H19.9568L19.9568 8.80066L15.7815 8.80066V14.9024ZM18.8324 16.0268V11.8515L12.7307 11.8515V16.0268H18.8324ZM19.9568 12.9759H15.7815L15.7815 19.0776H19.9568V12.9759ZM16.9059 11.8515V16.0268H23.0076L23.0076 11.8515H16.9059ZM19.9552 12.9763H15.7799L15.7799 19.078H19.9552V12.9763ZM23.006 20.2019V16.0272H16.9043L16.9043 20.2019H23.006ZM19.9553 17.151H19.9552V23.2527H19.9553V17.151ZM23.0062 24.3771V20.2019H16.9045V24.3771H23.0062ZM15.7801 27.428H19.9553V21.3263H15.7801L15.7801 27.428ZM12.7292 20.2024V24.3771H18.8309V20.2024H12.7292ZM15.7799 23.2533H15.7801L15.7801 17.1516H15.7799L15.7799 23.2533ZM12.7291 16.0272L12.7291 20.2024H18.8308L18.8308 16.0272H12.7291ZM10.4841 28.5527V24.3776H4.3824L4.3824 28.5527H10.4841ZM7.43176 31.6035H7.43325L7.43325 25.5018H7.43176L7.43176 31.6035ZM10.4826 32.7279L10.4826 28.5527H4.38091V32.7279H10.4826ZM7.43181 29.6771H7.43176L7.43176 35.7788H7.43181L7.43181 29.6771ZM10.4827 36.9031L10.4827 32.7279H4.38096L4.38096 36.9031H10.4827ZM7.43185 33.8523H7.43181L7.43181 39.954H7.43185L7.43185 33.8523ZM10.4827 41.0783V36.9031H4.381L4.381 41.0783H10.4827ZM7.43332 38.0274H7.43185L7.43185 44.1291H7.43332L7.43332 38.0274ZM10.4842 45.2531V41.0783H4.38247L4.38247 45.2531H10.4842ZM11.6029 42.2023H7.43332L7.43332 48.304H11.6029L11.6029 42.2023ZM14.6537 45.2534V45.2531H8.55202V45.2534H14.6537ZM11.6044 42.2026H11.6029L11.6029 48.3043H11.6044L11.6044 42.2026ZM14.6553 49.4286V45.2534H8.55356L8.55356 49.4286H14.6553ZM15.7797 46.3777H11.6044V52.4794H15.7797V46.3777ZM12.7288 45.2533V49.4286H18.8305V45.2533H12.7288ZM15.7781 48.3042H15.7797L15.7797 42.2025H15.7781L15.7781 48.3042ZM12.7273 41.0786L12.7273 45.2533H18.829V41.0786H12.7273ZM15.7782 38.0277H15.7781V44.1294H15.7782V38.0277ZM12.7273 36.9033V41.0786H18.829V36.9033H12.7273ZM11.6071 39.9542H15.7782L15.7782 33.8525H11.6071L11.6071 39.9542ZM8.55625 36.903V36.9033H14.6579V36.903H8.55625ZM11.6071 39.9539H11.6071L11.6071 33.8522H11.6071L11.6071 39.9539ZM8.55621 36.903V36.903H14.6579V36.903H8.55621ZM15.7798 33.8521H11.6071L11.6071 39.9538H15.7798L15.7798 33.8521ZM12.7289 32.7278L12.7289 36.903H18.8306V32.7278H12.7289ZM11.607 35.7786H15.7798L15.7798 29.6769H11.607L11.607 35.7786ZM8.55616 32.7274V32.7278H14.6579V32.7274H8.55616ZM15.7796 29.6766H11.607L11.607 35.7783H15.7796L15.7796 29.6766ZM12.7288 28.5522V32.7274H18.8305V28.5522H12.7288ZM15.7782 31.603H15.7796L15.7796 25.5013H15.7782L15.7782 31.603ZM12.7273 24.3774L12.7273 28.5522H18.829L18.829 24.3774H12.7273ZM11.6029 27.4283H15.7782L15.7782 21.3266H11.6029L11.6029 27.4283ZM14.6538 24.3776V24.3774H8.55208V24.3776H14.6538ZM7.43325 27.4284H11.6029L11.6029 21.3267H7.43325L7.43325 27.4284ZM3.2549 27.4283H7.43015L7.43015 21.3266H3.2549L3.2549 27.4283ZM6.30575 28.5527L6.30575 24.3775H0.204053L0.204053 28.5527H6.30575ZM7.43015 25.5019H3.2549L3.2549 31.6036H7.43015L7.43015 25.5019ZM4.3793 24.3775L4.3793 28.5527H10.481V24.3775H4.3793ZM7.43157 25.5022H3.25632L3.25632 31.6039H7.43157L7.43157 25.5022ZM10.4824 32.7274L10.4824 28.5531H4.38072V32.7274H10.4824ZM7.43165 29.6766H7.43157L7.43157 35.7783H7.43165L7.43165 29.6766ZM10.4825 36.9027L10.4825 32.7274H4.3808L4.3808 36.9027H10.4825ZM3.25641 39.9535H7.43165L7.43165 33.8518H3.25641L3.25641 39.9535ZM0.205558 32.7283L0.205558 36.9027H6.30725L6.30725 32.7283H0.205558ZM3.25632 35.7792H3.25641L3.25641 29.6775H3.25632L3.25632 35.7792ZM0.205476 28.5531L0.205476 32.7283H6.30717V28.5531H0.205476ZM7.43013 33.8525H3.25488L3.25488 39.9542H7.43013L7.43013 33.8525ZM10.481 41.0786V36.9034H4.37928L4.37928 41.0786H10.481ZM3.25488 44.1295H7.43013L7.43013 38.0278H3.25488L3.25488 44.1295ZM0.204035 36.9034L0.204035 41.0786H6.30573V36.9034H0.204035ZM12.7288 16.0271L12.7288 20.2018H18.8305L18.8305 16.0271H12.7288ZM11.6044 19.078H15.7796L15.7796 12.9763L11.6044 12.9763L11.6044 19.078ZM14.6552 16.0272V16.0271H8.55352V16.0272H14.6552ZM7.43189 19.078H11.6044L11.6044 12.9763H7.43189L7.43189 19.078ZM10.4827 20.202V16.0272H4.38104L4.38104 20.202H10.4827ZM7.43183 23.2528H7.43189L7.43189 17.1511H7.43183L7.43183 23.2528ZM10.4827 24.3772V20.202H4.38098V24.3772H10.4827ZM11.6071 21.3264H7.43183L7.43183 27.4281H11.6071L11.6071 21.3264ZM8.55623 24.377V24.3772H14.6579V24.377H8.55623ZM15.7798 21.3262H11.6071L11.6071 27.4279H15.7798L15.7798 21.3262ZM12.7289 20.2018V24.377H18.8306V20.2018H12.7289ZM15.7796 23.2526H15.7798L15.7798 17.1509H15.7796L15.7796 23.2526ZM15.7782 8.80066H11.6029V14.9024L15.7782 14.9024V8.80066ZM18.829 16.0268V11.8515L12.7273 11.8515V16.0268H18.829ZM11.6029 19.0776H15.7782L15.7782 12.9759L11.6029 12.9759L11.6029 19.0776ZM8.55209 11.8515L8.55209 16.0268H14.6538V11.8515L8.55209 11.8515ZM32.4821 10.7272H34.5708V4.62555H32.4821V10.7272ZM35.533 11.8516V7.67639L29.4313 7.67639V11.8516L35.533 11.8516ZM32.4824 8.80079H32.4821V14.9025H32.4824V8.80079ZM35.5332 16.0267V11.8516L29.4315 11.8516L29.4315 16.0267L35.5332 16.0267ZM36.6562 12.9759L32.4824 12.9759V19.0776L36.6562 19.0776V12.9759ZM39.707 16.0269V16.0267L33.6053 16.0267V16.0269L39.707 16.0269ZM40.8314 12.976H36.6562V19.0777H40.8314V12.976ZM37.7806 11.8516V16.0269H43.8823V11.8516H37.7806ZM36.6576 14.9025H40.8314V8.80077H36.6576V14.9025ZM33.6068 11.8515V11.8516L39.7085 11.8516V11.8515L33.6068 11.8515ZM36.6574 14.9023H36.6576V8.80063H36.6574V14.9023ZM33.6065 11.8512V11.8515L39.7082 11.8515V11.8512L33.6065 11.8512ZM40.8315 8.80039H36.6574V14.9021H40.8315V8.80039ZM37.7807 7.67599V11.8512H43.8824V7.67599L37.7807 7.67599ZM38.7461 10.7268H40.8315V4.62514L38.7461 4.62514V10.7268ZM35.6952 3.50117V7.67599L41.7969 7.67599V3.50117L35.6952 3.50117ZM34.5708 6.55201L38.7461 6.55201V0.450319L34.5708 0.450319V6.55201ZM37.6217 7.67639V3.50117L31.52 3.50117V7.67639H37.6217ZM45.0083 4.62523H40.8331V10.7269H45.0083V4.62523ZM48.0592 11.8512V7.67607H41.9575V11.8512H48.0592ZM45.0101 8.80034H45.0083V14.902H45.0101V8.80034ZM48.061 11.8515V11.8512H41.9593V11.8515H48.061ZM49.184 8.80066H45.0101V14.9024H49.184V8.80066ZM52.2348 11.8516V11.8515H46.1331V11.8516H52.2348ZM53.358 8.80073H49.184V14.9024H53.358V8.80073ZM56.4089 16.0267V11.8516H50.3072V16.0267H56.4089ZM53.3581 12.9759H53.358V19.0776H53.3581V12.9759ZM56.4089 20.202V16.0267H50.3072V20.202H56.4089ZM53.3566 23.2528H53.3581L53.3581 17.1511H53.3566L53.3566 23.2528ZM56.4074 24.3771L56.4074 20.202H50.3057L50.3057 24.3771H56.4074ZM49.1823 27.428H53.3566L53.3566 21.3263H49.1823L49.1823 27.428ZM52.2332 24.3772V24.3771H46.1315V24.3772H52.2332ZM45.0071 27.428H49.1823L49.1823 21.3263H45.0071L45.0071 27.428ZM40.8333 27.428L45.0071 27.428L45.0071 21.3263L40.8333 21.3263L40.8333 27.428ZM37.7825 20.2028L37.7825 24.3772H43.8842L43.8842 20.2028H37.7825ZM40.8332 23.2536H40.8333L40.8333 17.152H40.8332L40.8332 23.2536ZM37.7824 16.0276V20.2028H43.8841V16.0276H37.7824ZM45.0085 12.9767H40.8332V19.0784H45.0085V12.9767ZM48.0593 20.2019V16.0276H41.9576V20.2019H48.0593ZM45.0086 17.1511H45.0085L45.0085 23.2528H45.0086L45.0086 17.1511ZM49.1814 17.1511L45.0086 17.1511L45.0085 23.2528L49.1813 23.2528L49.1814 17.1511ZM46.1305 20.2019V20.2019H52.2322V20.2019H46.1305ZM45.0088 23.2527L49.1813 23.2527L49.1813 17.151L45.0088 17.151L45.0088 23.2527ZM41.9579 16.0267V20.2019H48.0596V16.0267H41.9579ZM45.0087 19.0776H45.0088V12.9759H45.0087V19.0776ZM41.9579 16.0264V16.0267H48.0596V16.0264H41.9579ZM40.8349 19.0773H45.0087V12.9756H40.8349V19.0773ZM37.784 11.8513V16.0264H43.8857V11.8513H37.784ZM40.8331 14.9022H40.8349V8.80047H40.8331V14.9022ZM37.7822 7.67607V11.8513H43.8839V7.67607L37.7822 7.67607ZM53.3585 19.078L57.5337 19.078V12.9763L53.3585 12.9763V19.078ZM56.4093 20.2024V16.0271H50.3076V20.2024H56.4093ZM53.3599 17.1515H53.3585L53.3585 23.2532H53.3599L53.3599 17.1515ZM56.4108 24.3772L56.4108 20.2024H50.3091L50.3091 24.3772H56.4108ZM57.5352 21.3263H53.3599L53.3599 27.428H57.5352L57.5352 21.3263ZM54.4843 20.2019L54.4843 24.3772H60.586L60.586 20.2019H54.4843ZM57.5337 23.2528H57.5352L57.5352 17.1511H57.5337L57.5337 23.2528ZM54.4829 16.0271V20.2019H60.5845V16.0271L54.4829 16.0271ZM61.7079 31.6027H65.8832V25.501H61.7079V31.6027ZM64.7588 28.5519V28.5519H58.6571V28.5519H64.7588ZM57.5354 31.6028H61.7079V25.5011H57.5354V31.6028ZM60.5863 32.7272V28.5519H54.4846V32.7272H60.5863ZM61.7107 29.6763H57.5354V35.778H61.7107V29.6763ZM58.6598 32.7271V32.7272H64.7615V32.7271H58.6598ZM65.8832 29.6762H61.7107V35.7779H65.8832V29.6762ZM62.8323 28.5519V32.7271L68.934 32.7271V28.5519L62.8323 28.5519ZM65.8819 42.2028H61.7108V48.3045H65.8819V42.2028ZM68.9327 49.4288V45.2536H62.831V49.4288H68.9327ZM65.8834 46.378H65.8819V52.4797H65.8834V46.378ZM68.9343 53.6041V49.4288H62.8326V53.6041H68.9343ZM65.8834 56.6549H65.8834V50.5532H65.8834V56.6549ZM68.9342 57.7789V53.6041H62.8325V57.7789H68.9342ZM61.7107 60.8297H65.8834L65.8834 54.728H61.7107L61.7107 60.8297ZM64.7616 57.7792V57.7789H58.6599V57.7792H64.7616ZM57.5355 60.8301H61.7107L61.7107 54.7284H57.5355L57.5355 60.8301ZM54.4846 53.6041V57.7792H60.5863V53.6041H54.4846ZM57.5354 56.6549H57.5355V50.5532H57.5354V56.6549ZM54.4846 49.4288V53.6041H60.5863V49.4288H54.4846ZM61.7066 46.378H57.5354V52.4797H61.7066V46.378ZM58.6558 49.4286V49.4288H64.7575V49.4286H58.6558ZM57.5356 52.4795H61.7066V46.3778H57.5356V52.4795ZM54.4847 45.2534V49.4286H60.5864V45.2534H54.4847ZM61.7108 42.2026H57.5356V48.3043H61.7108V42.2026ZM64.7617 45.2536V45.2534H58.66V45.2536H64.7617ZM61.7064 35.7787H65.8817V29.677H61.7064V35.7787ZM64.7573 32.7279V32.7279H58.6556V32.7279H64.7573ZM57.537 35.7787H61.7064V29.677H57.537V35.7787ZM60.5878 36.9031V32.7279H54.4861V36.9031H60.5878ZM61.7122 33.8523H57.537V39.954H61.7122V33.8523ZM58.6614 36.9031V36.9031H64.7631V36.9031H58.6614ZM65.8817 33.8522H61.7122V39.9539H65.8817V33.8522ZM62.8308 32.7279V36.9031H68.9325V32.7279L62.8308 32.7279ZM61.7108 39.9542H65.8831V33.8525H61.7108V39.9542ZM58.6599 36.9032V36.9033H64.7616V36.9032H58.6599ZM57.5355 39.9541H61.7108V33.8524H57.5355V39.9541ZM60.5864 41.0785V36.9032H54.4847V41.0785H60.5864ZM61.7078 38.0276H57.5355V44.1293H61.7078V38.0276ZM64.7587 41.0786V41.0785H58.657V41.0786H64.7587ZM65.8831 38.0277H61.7078V44.1294H65.8831V38.0277ZM62.8322 36.9033V41.0786H68.9339L68.9339 36.9033H62.8322ZM53.3587 31.6038H57.5339V25.5021H53.3587V31.6038ZM56.4095 32.7279V28.553H50.3078V32.7279H56.4095ZM53.3584 35.7787H53.3587V29.677H53.3584V35.7787ZM56.4092 36.9031V32.7279H50.3075V36.9031H56.4092ZM53.3599 33.8523H53.3584V39.954H53.3599V33.8523ZM56.4108 41.0783V36.9031H50.3091V41.0783H56.4108ZM57.5352 38.0274H53.3599V44.1291H57.5352V38.0274ZM54.4843 36.903V41.0783H60.586V36.903H54.4843ZM57.5336 39.9539H57.5352V33.8522H57.5336V39.9539ZM54.4828 32.7282V36.903H60.5845V32.7282H54.4828ZM57.5339 29.6774H57.5336V35.7791H57.5339V29.6774ZM54.4831 28.553V32.7282H60.5848V28.553H54.4831ZM57.5339 42.2029H53.3586V48.3046H57.5339V42.2029ZM60.5847 49.429V45.2538H54.483V49.429H60.5847ZM53.3586 52.4799H57.5339V46.3782H53.3586V52.4799ZM50.3078 45.2538V49.429H56.4095V45.2538H50.3078ZM57.5353 46.3785H53.36V52.4802H57.5353V46.3785ZM60.5861 53.6046V49.4293H54.4844V53.6046H60.5861ZM57.5352 56.6554H57.5353V50.5537H57.5352V56.6554ZM60.586 57.7793V53.6046H54.4843V57.7793H60.586ZM53.3599 60.8301H57.5352L57.5352 54.7284H53.3599L53.3599 60.8301ZM50.3091 53.604V57.7793H56.4108V53.604H50.3091ZM53.36 50.5532H53.3599V56.6549H53.36V50.5532ZM50.3092 49.4293V53.604H56.4109V49.4293H50.3092ZM49.1829 31.6031H53.3582V25.5014H49.1829V31.6031ZM52.2338 32.7274V28.5522H46.1321V32.7274H52.2338ZM49.1827 35.7783H49.1829V29.6766H49.1827V35.7783ZM52.2336 32.9841V32.7274H46.1319V32.9841H52.2336ZM45.5603 36.035L49.1827 36.035V29.9333H45.5603V36.035ZM48.6111 36.7977V32.9841H42.5094V36.7977L48.6111 36.7977ZM49.1827 33.7468H45.5603V39.8485L49.1827 39.8485V33.7468ZM52.2336 36.9027V36.7977H46.1319V36.9027H52.2336ZM53.358 33.8518H49.1827V39.9535H53.358V33.8518ZM50.3071 32.7275V36.9027H56.4088V32.7275H50.3071ZM53.3582 29.6766H53.358V35.7783H53.3582V29.6766ZM50.3073 28.5522V32.7275H56.409V28.5522H50.3073ZM53.3581 42.2029H49.1842V48.3046H53.3581V42.2029ZM56.4089 49.429V45.2538H50.3072V49.429H56.4089ZM49.1828 52.4798H53.3581V46.3782H49.1828V52.4798ZM46.132 49.4284V49.429H52.2337V49.4284H46.132ZM45.0089 52.4793L49.1828 52.4793V46.3776L45.0089 46.3776V52.4793ZM41.9581 45.2532V49.4284L48.0598 49.4284V45.2532L41.9581 45.2532ZM49.1842 42.2024L45.0089 42.2024V48.3041L49.1842 48.3041V42.2024ZM52.235 45.2538V45.2532H46.1333V45.2538H52.235ZM53.3567 46.3785H49.1828V52.4802H53.3567V46.3785ZM56.4076 53.6046V49.4293H50.3059V53.6046H56.4076ZM53.3566 56.6554H53.3567V50.5537H53.3566V56.6554ZM56.4075 57.7793V53.6046H50.3058V57.7793H56.4075ZM49.1814 60.8302H53.3566L53.3566 54.7285H49.1814L49.1814 60.8302ZM46.1305 57.7789V57.7793H52.2322V57.7789H46.1305ZM45.0073 60.8298L49.1814 60.8298L49.1814 54.7281L45.0073 54.7281L45.0073 60.8298ZM41.9564 57.7788V57.7789L48.0581 57.7789V57.7788L41.9564 57.7788ZM40.8335 60.8296H45.0073L45.0073 54.7279H40.8335L40.8335 60.8296ZM37.7826 53.6044V57.7788H43.8843V53.6044H37.7826ZM40.8331 56.6553H40.8335V50.5536H40.8331V56.6553ZM37.7823 49.4292V53.6044H43.884V49.4292H37.7823ZM45.0076 46.3784H40.8331V52.48H45.0076V46.3784ZM41.9567 49.4288V49.4292L48.0584 49.4292V49.4288L41.9567 49.4288ZM40.8335 52.4797H45.0076V46.378H40.8335V52.4797ZM37.7826 45.2536V49.4288H43.8843V45.2536H37.7826ZM45.0087 42.2027H40.8335V48.3044H45.0087V42.2027ZM48.0596 49.4288V45.2536L41.9579 45.2536V49.4288L48.0596 49.4288ZM49.1828 46.3779L45.0087 46.3779V52.4796L49.1828 52.4796V46.3779ZM52.2336 49.4293V49.4288H46.132V49.4293H52.2336ZM49.1824 39.9543H53.3565V33.8526H49.1824V39.9543ZM46.1316 36.9034V36.9034H52.2333V36.9034H46.1316ZM45.0086 39.9542L49.1824 39.9542V33.8525H45.0086V39.9542ZM41.9577 36.903V36.9034L48.0594 36.9034V36.903L41.9577 36.903ZM40.8333 39.9539H45.0086V33.8522H40.8333V39.9539ZM43.8842 41.0783V36.903H37.7825V41.0783H43.8842ZM45.0072 38.0274H40.8333V44.1291H45.0072V38.0274ZM48.058 41.0786V41.0783L41.9563 41.0783V41.0786L48.058 41.0786ZM49.1812 38.0278L45.0072 38.0278V44.1295L49.1812 44.1295V38.0278ZM52.2321 41.0787V41.0786H46.1304V41.0787H52.2321ZM53.3565 38.0278H49.1812V44.1295H53.3565V38.0278ZM50.3056 36.9034V41.0787H56.4073V36.9034H50.3056ZM40.8332 42.2029H36.658V48.3046H40.8332V42.2029ZM43.8841 49.429V45.2537H37.7824V49.429H43.8841ZM36.659 52.4798H40.8332V46.3781H36.659V52.4798ZM40.8328 46.3781L36.659 46.3781L36.659 52.4798L40.8328 52.4798L40.8328 46.3781ZM43.8836 53.6042V49.429H37.7819V53.6042H43.8836ZM40.8313 56.6551H40.8328V50.5534H40.8313V56.6551ZM43.8822 57.7794V53.6042H37.7805V57.7794H43.8822ZM36.6561 60.8302H40.8313L40.8313 54.7285H36.6561L36.6561 60.8302ZM33.6052 57.7793V57.7794H39.7069V57.7793H33.6052ZM32.4823 60.8302H36.6561L36.6561 54.7285H32.4823V60.8302ZM29.4314 53.6041V57.7793H35.5331V53.6041H29.4314ZM32.4838 50.5532H32.4823V56.6549H32.4838V50.5532ZM29.4329 49.429V53.6041H35.5346V49.429H29.4329ZM32.4835 52.4799H32.4838L32.4838 46.3782H32.4835L32.4835 52.4799ZM29.4326 45.2538L29.4326 49.429H35.5343V45.2538H29.4326ZM36.658 42.2029H32.4835V48.3046H36.658V42.2029ZM33.6071 45.2537V45.2538H39.7088V45.2537H33.6071ZM32.4804 42.2029H28.306V48.3046H32.4804V42.2029ZM35.5312 49.4289V45.2537H29.4295L29.4295 49.4289H35.5312ZM28.3051 52.4798H32.4804L32.4804 46.3781H28.3051L28.3051 52.4798ZM25.2543 49.4286V49.4289H31.356V49.4286H25.2543ZM24.1324 52.4794H28.3051L28.3051 46.3777H24.1324L24.1324 52.4794ZM27.1832 49.429V49.4286H21.0815V49.429H27.1832ZM24.1249 46.3781L24.1236 46.3781L24.1411 52.4798L24.1425 52.4798L24.1249 46.3781ZM27.1845 49.4292V49.429H21.0828V49.4292H27.1845ZM28.3078 46.3784H24.1337L24.1337 52.4801H28.3078L28.3078 46.3784ZM32.4818 46.3784L28.3078 46.3784L28.3078 52.4801L32.4818 52.4801L32.4818 46.3784ZM35.5326 53.6036V49.4292H29.4309V53.6036H35.5326ZM32.4819 50.5528H32.4818V56.6545H32.4819V50.5528ZM35.5327 57.7789V53.6036H29.431V57.7789H35.5327ZM28.3077 60.8297H32.4819V54.728H28.3077V60.8297ZM31.3585 57.7792V57.7789H25.2568V57.7792H31.3585ZM24.1337 60.8301H28.3077V54.7284H24.1337V60.8301ZM27.1846 57.7794V57.7792H21.0829V57.7794H27.1846ZM19.9585 60.8303H24.1337V54.7286H19.9585V60.8303ZM16.9076 53.6042L16.9076 57.7794H23.0093V53.6042H16.9076ZM19.9584 56.6551H19.9585V50.5534H19.9584V56.6551ZM16.9076 49.429V53.6042H23.0093V49.429H16.9076ZM19.9659 52.4798L19.9672 52.4798L19.9497 46.3781L19.9483 46.3781L19.9659 52.4798ZM16.9063 45.2537V49.429H23.008L23.008 45.2537H16.9063ZM24.1308 42.2029H19.9571V48.3046H24.1308V42.2029ZM21.0799 45.2535V45.2537H27.1816V45.2535H21.0799ZM19.957 48.3043H24.1308V42.2026H19.957V48.3043ZM16.9061 41.0782V45.2535H23.0078V41.0782H16.9061ZM24.1322 38.0274H19.957V44.1291H24.1322V38.0274ZM27.1831 45.2533V41.0782H21.0814V45.2533H27.1831ZM28.306 42.2025H24.1322V48.3042H28.306V42.2025ZM31.3569 45.2537V45.2533H25.2552V45.2537H31.3569ZM15.7814 48.3042H15.7815L15.7815 42.2025H15.7814L15.7814 48.3042ZM12.7306 41.0786L12.7306 45.2534H18.8323V41.0786H12.7306ZM15.78 44.1295H15.7814V38.0278H15.78V44.1295ZM12.7291 36.9034V41.0786H18.8308V36.9034H12.7291ZM19.9552 33.8525H15.78L15.78 39.9542H19.9552V33.8525ZM23.0061 41.0781V36.9034H16.9044V41.0781H23.0061ZM19.9567 38.0273H19.9552V44.129H19.9567V38.0273ZM23.0075 45.2533V41.0781H16.9058V45.2533H23.0075ZM19.9567 42.2025H19.9567V48.3042H19.9567V42.2025ZM23.0076 49.4286L23.0076 45.2533H16.9059V49.4286H23.0076ZM15.7815 52.4794H19.9567L19.9567 46.3777H15.7815V52.4794ZM12.7306 45.2534V49.4286H18.8323V45.2534H12.7306ZM15.7801 52.4798H19.9554L19.9554 46.3781H15.7801V52.4798ZM18.831 53.6042V49.4289H12.7293V53.6042H18.831ZM19.9554 50.5533H15.7801L15.7801 56.655H19.9554V50.5533ZM16.9045 49.4289V53.6042H23.0062V49.4289H16.9045ZM36.6578 19.0779H40.8331V12.9762H36.6578V19.0779ZM39.7087 20.2023V16.0271L33.607 16.0271V20.2023H39.7087ZM40.8331 17.1515H36.6578L36.6578 23.2532H40.8331L40.8331 17.1515ZM37.7822 16.0271V20.2023H43.8839V16.0271H37.7822Z" fill="white" mask="url(#path-1-outside-1_320_18327)"/>
</g>
<rect x="26.2236" y="3.23804" width="4.17525" height="4.17525" fill="#FD366E"/>
<rect x="26.2236" y="3.23804" width="4.17525" height="4.17525" fill="white" fill-opacity="0.48"/>
<rect x="28.3076" y="7.41309" width="4.17525" height="4.17525" fill="#FD366E"/>
<rect x="28.3076" y="11.5881" width="4.17525" height="4.17525" fill="#FD366E"/>
<rect x="22.0459" y="3.23828" width="4.17525" height="4.17525" fill="#FD366E"/>
<rect x="22.0459" y="3.23828" width="4.17525" height="4.17525" fill="white" fill-opacity="0.48"/>
<rect x="24.1338" y="7.41309" width="4.17525" height="4.17525" fill="#FD366E"/>
<rect x="24.1318" y="11.5886" width="4.17525" height="4.17525" fill="#FD366E"/>
<rect x="19.959" y="7.4126" width="4.17525" height="4.17525" fill="#FD366E"/>
<rect x="19.958" y="11.5889" width="4.17525" height="4.17525" fill="#FD366E"/>
<rect x="19.958" y="15.7642" width="4.17525" height="4.17525" fill="#FD366E"/>
<rect x="15.7803" y="7.41309" width="4.17525" height="4.17525" fill="#FD366E"/>
<rect x="15.7803" y="7.41309" width="4.17525" height="4.17525" fill="white" fill-opacity="0.48"/>
<rect x="15.7822" y="11.5886" width="4.17525" height="4.17525" fill="#FD366E"/>
<rect x="15.7803" y="15.7642" width="4.17525" height="4.17525" fill="#FD366E"/>
<rect x="15.7803" y="19.939" width="4.17525" height="4.17525" fill="#FD366E"/>
<rect x="11.6055" y="28.2893" width="4.17525" height="4.17525" fill="#FD366E"/>
<rect x="3.25586" y="24.1145" width="4.17525" height="4.17525" fill="#FD366E"/>
<rect x="3.25586" y="24.1145" width="4.17525" height="4.17525" fill="white" fill-opacity="0.48"/>
<rect x="3.25684" y="28.29" width="4.17525" height="4.17525" fill="#FD366E"/>
<rect x="3.25684" y="28.29" width="4.17525" height="4.17525" fill="white" fill-opacity="0.48"/>
<rect x="3.25684" y="32.4646" width="4.17525" height="4.17525" fill="#FD366E"/>
<rect x="3.25684" y="32.4646" width="4.17525" height="4.17525" fill="white" fill-opacity="0.48"/>
<rect x="3.25586" y="36.6406" width="4.17525" height="4.17525" fill="#FD366E"/>
<rect x="3.25586" y="36.6406" width="4.17525" height="4.17525" fill="white" fill-opacity="0.48"/>
<rect x="7.43262" y="36.6401" width="4.17525" height="4.17525" fill="#FD366E"/>
<rect x="7.43262" y="32.4648" width="4.17525" height="4.17525" fill="#FD366E"/>
<rect x="7.43262" y="28.2898" width="4.17525" height="4.17525" fill="#FD366E"/>
<rect x="7.43359" y="24.1145" width="4.17525" height="4.17525" fill="#FD366E"/>
<rect x="7.43262" y="19.939" width="4.17525" height="4.17525" fill="#FD366E"/>
<rect x="7.43262" y="15.7642" width="4.17525" height="4.17525" fill="#FD366E"/>
<rect x="7.43262" y="15.7642" width="4.17525" height="4.17525" fill="white" fill-opacity="0.48"/>
<rect x="11.6055" y="15.7642" width="4.17525" height="4.17525" fill="#FD366E"/>
<rect x="11.6055" y="15.7642" width="4.17525" height="4.17525" fill="white" fill-opacity="0.48"/>
<rect x="11.6035" y="11.5886" width="4.17525" height="4.17525" fill="#FD366E"/>
<rect x="11.6035" y="11.5886" width="4.17525" height="4.17525" fill="white" fill-opacity="0.48"/>
<rect x="11.6045" y="19.939" width="4.17525" height="4.17525" fill="#FD366E"/>
<rect x="11.6035" y="36.6404" width="4.17525" height="4.17525" fill="#FD366E"/>
<rect x="11.6035" y="24.1145" width="4.17525" height="4.17525" fill="#FD366E"/>
<rect x="30.3945" y="3.23779" width="4.17525" height="4.17525" fill="#FD366E"/>
<rect x="30.3945" y="3.23779" width="4.17525" height="4.17525" fill="white" fill-opacity="0.48"/>
<rect x="32.4834" y="7.41357" width="4.17525" height="4.17525" fill="#FD366E"/>
<rect x="32.4834" y="11.5886" width="4.17525" height="4.17525" fill="#FD366E"/>
<rect x="34.5713" y="3.23828" width="4.17525" height="4.17525" fill="#FD366E"/>
<rect x="34.5713" y="3.23828" width="4.17525" height="4.17525" fill="white" fill-opacity="0.48"/>
<rect x="36.6572" y="7.41309" width="4.17525" height="4.17525" fill="#FD366E"/>
<rect x="36.6572" y="11.5886" width="4.17525" height="4.17525" fill="#FD366E"/>
<rect x="40.834" y="7.41309" width="4.17525" height="4.17525" fill="#FD366E"/>
<rect x="40.8359" y="11.5884" width="4.17525" height="4.17525" fill="#FD366E"/>
<rect x="45.0098" y="11.5886" width="4.17525" height="4.17525" fill="#FD366E"/>
<rect x="49.1836" y="11.5886" width="4.17525" height="4.17525" fill="#FD366E"/>
<rect x="49.1836" y="15.7639" width="4.17525" height="4.17525" fill="#FD366E"/>
<rect x="53.3594" y="15.7642" width="4.17525" height="4.17525" fill="#FD366E"/>
<rect x="53.3594" y="15.7642" width="4.17525" height="4.17525" fill="black" fill-opacity="0.16"/>
<rect x="49.1816" y="19.939" width="4.17525" height="4.17525" fill="#FD366E"/>
<rect x="49.1816" y="19.939" width="4.17525" height="4.17525" fill="black" fill-opacity="0.16"/>
<rect x="45.0078" y="19.939" width="4.17525" height="4.17525" fill="#FD366E"/>
<rect x="40.834" y="19.939" width="4.17525" height="4.17525" fill="#FD366E"/>
<rect x="61.709" y="28.2888" width="4.17525" height="4.17525" fill="#FD366E"/>
<rect x="61.709" y="28.2888" width="4.17525" height="4.17525" fill="black" fill-opacity="0.16"/>
<rect x="61.707" y="44.9907" width="4.17525" height="4.17525" fill="#FD366E"/>
<rect x="61.707" y="44.9907" width="4.17525" height="4.17525" fill="black" fill-opacity="0.16"/>
<rect x="61.707" y="32.4648" width="4.17525" height="4.17525" fill="#FD366E"/>
<rect x="61.707" y="32.4648" width="4.17525" height="4.17525" fill="black" fill-opacity="0.16"/>
<rect x="61.709" y="49.166" width="4.17525" height="4.17525" fill="#FD366E"/>
<rect x="61.709" y="49.166" width="4.17525" height="4.17525" fill="black" fill-opacity="0.16"/>
<rect x="61.709" y="36.6404" width="4.17525" height="4.17525" fill="#FD366E"/>
<rect x="61.709" y="36.6404" width="4.17525" height="4.17525" fill="black" fill-opacity="0.16"/>
<rect x="61.709" y="53.3408" width="4.17525" height="4.17525" fill="#FD366E"/>
<rect x="61.709" y="53.3408" width="4.17525" height="4.17525" fill="black" fill-opacity="0.16"/>
<rect x="53.3594" y="28.29" width="4.17525" height="4.17525" fill="#FD366E"/>
<rect x="53.3594" y="44.991" width="4.17525" height="4.17525" fill="#FD366E"/>
<rect x="53.3594" y="32.4648" width="4.17525" height="4.17525" fill="#FD366E"/>
<rect x="53.3604" y="49.1665" width="4.17525" height="4.17525" fill="#FD366E"/>
<rect x="53.3604" y="36.6401" width="4.17525" height="4.17525" fill="#FD366E"/>
<rect x="53.3604" y="36.6401" width="4.17525" height="4.17525" fill="black" fill-opacity="0.16"/>
<rect x="53.3604" y="53.3413" width="4.17525" height="4.17525" fill="#FD366E"/>
<rect x="53.3604" y="53.3413" width="4.17525" height="4.17525" fill="black" fill-opacity="0.16"/>
<rect x="49.1836" y="28.2893" width="4.17525" height="4.17525" fill="#FD366E"/>
<rect x="49.1836" y="44.9905" width="4.17525" height="4.17525" fill="#FD366E"/>
<rect x="49.1836" y="32.4646" width="4.17525" height="4.17525" fill="#FD366E"/>
<rect x="49.1826" y="49.1663" width="4.17525" height="4.17525" fill="#FD366E"/>
<rect x="49.1816" y="36.6404" width="4.17525" height="4.17525" fill="#FD366E"/>
<rect x="49.1816" y="53.3413" width="4.17525" height="4.17525" fill="#FD366E"/>
<rect x="49.1816" y="53.3413" width="4.17525" height="4.17525" fill="black" fill-opacity="0.16"/>
<rect x="45.0098" y="44.9907" width="4.17525" height="4.17525" fill="#FD366E"/>
<rect x="40.834" y="36.6401" width="4.17525" height="4.17525" fill="#FD366E"/>
<rect x="40.834" y="44.9907" width="4.17525" height="4.17525" fill="#FD366E"/>
<rect x="36.6582" y="44.9907" width="4.17525" height="4.17525" fill="#FD366E"/>
<rect x="32.4844" y="44.9907" width="4.17525" height="4.17525" fill="#FD366E"/>
<rect x="28.3057" y="44.9907" width="4.17525" height="4.17525" fill="#FD366E"/>
<rect x="24.1318" y="44.9902" width="4.17525" height="4.17525" fill="#FD366E"/>
<rect x="19.958" y="44.9907" width="4.17525" height="4.17525" fill="#FD366E"/>
<rect x="15.7822" y="44.9905" width="4.17525" height="4.17525" fill="#FD366E"/>
<rect x="11.6055" y="44.9905" width="4.17525" height="4.17525" fill="#FD366E"/>
<rect x="11.6055" y="44.9905" width="4.17525" height="4.17525" fill="white" fill-opacity="0.48"/>
<rect x="7.43359" y="40.8149" width="4.17525" height="4.17525" fill="#FD366E"/>
<rect x="7.43359" y="40.8149" width="4.17525" height="4.17525" fill="white" fill-opacity="0.48"/>
<rect x="11.6035" y="40.8152" width="4.17525" height="4.17525" fill="#FD366E"/>
<rect x="15.7822" y="40.8154" width="4.17525" height="4.17525" fill="#FD366E"/>
<rect x="19.958" y="40.8152" width="4.17525" height="4.17525" fill="#FD366E"/>
<rect x="15.7812" y="36.6404" width="4.17525" height="4.17525" fill="#FD366E"/>
<rect x="11.6055" y="32.4648" width="4.17525" height="4.17525" fill="#FD366E"/>
<rect x="40.834" y="49.1663" width="4.17525" height="4.17525" fill="#FD366E"/>
<rect x="36.6582" y="49.166" width="4.17525" height="4.17525" fill="#FD366E"/>
<rect x="32.4844" y="49.166" width="4.17525" height="4.17525" fill="#FD366E"/>
<rect x="28.3076" y="49.1663" width="4.17525" height="4.17525" fill="#FD366E"/>
<rect x="24.1338" y="49.1663" width="4.17525" height="4.17525" fill="#FD366E"/>
<rect x="19.959" y="49.166" width="4.17525" height="4.17525" fill="#FD366E"/>
<rect x="15.7803" y="49.166" width="4.17525" height="4.17525" fill="#FD366E"/>
<rect x="40.834" y="53.3406" width="4.17525" height="4.17525" fill="#FD366E"/>
<rect x="36.6572" y="53.3413" width="4.17525" height="4.17525" fill="#FD366E"/>
<rect x="32.4824" y="53.3411" width="4.17525" height="4.17525" fill="#FD366E"/>
<rect x="28.3076" y="53.3408" width="4.17525" height="4.17525" fill="#FD366E"/>
<rect x="24.1328" y="53.3411" width="4.17525" height="4.17525" fill="#FD366E"/>
<rect x="19.959" y="53.3411" width="4.17525" height="4.17525" fill="#FD366E"/>
<rect x="45.0078" y="36.6404" width="4.17525" height="4.17525" fill="#FD366E"/>
<rect x="45.0088" y="53.3408" width="4.17525" height="4.17525" fill="#FD366E"/>
<rect x="45.0078" y="32.4651" width="4.17525" height="4.17525" fill="#FD366E"/>
<rect x="45.0078" y="49.166" width="4.17525" height="4.17525" fill="#FD366E"/>
<rect x="57.5361" y="28.2891" width="4.17525" height="4.17525" fill="#FD366E"/>
<rect x="57.5361" y="44.9905" width="4.17525" height="4.17525" fill="#FD366E"/>
<rect x="57.5371" y="32.4651" width="4.17525" height="4.17525" fill="#FD366E"/>
<rect x="57.5361" y="49.1658" width="4.17525" height="4.17525" fill="#FD366E"/>
<rect x="57.5361" y="36.6404" width="4.17525" height="4.17525" fill="#FD366E"/>
<rect x="57.5361" y="36.6404" width="4.17525" height="4.17525" fill="black" fill-opacity="0.16"/>
<rect x="57.5361" y="53.3411" width="4.17525" height="4.17525" fill="#FD366E"/>
<rect x="57.5361" y="53.3411" width="4.17525" height="4.17525" fill="black" fill-opacity="0.16"/>
<rect x="40.834" y="15.7644" width="4.17525" height="4.17525" fill="#FD366E"/>
<rect x="36.6582" y="15.7642" width="4.17525" height="4.17525" fill="#FD366E"/>
<rect x="45.0098" y="15.7637" width="4.17525" height="4.17525" fill="#FD366E"/>
<rect x="53.3604" y="19.939" width="4.17525" height="4.17525" fill="#FD366E"/>
<rect x="53.3604" y="19.939" width="4.17525" height="4.17525" fill="black" fill-opacity="0.16"/>
</g>
<defs>
<filter id="filter0_d_320_18327" x="0.204102" y="0.449951" width="72.2116" height="63.8615" filterUnits="userSpaceOnUse" color-interpolation-filters="sRGB">
<feFlood flood-opacity="0" result="BackgroundImageFix"/>
<feColorMatrix in="SourceAlpha" type="matrix" values="0 0 0 0 0 0 0 0 0 0 0 0 0 0 0 0 0 0 127 0" result="hardAlpha"/>
<feOffset dx="3.48112" dy="3.48112"/>
<feComposite in2="hardAlpha" operator="out"/>
<feColorMatrix type="matrix" values="0 0 0 0 0 0 0 0 0 0 0 0 0 0 0 0 0 0 0.12 0"/>
<feBlend mode="normal" in2="BackgroundImageFix" result="effect1_dropShadow_320_18327"/>
<feBlend mode="normal" in="SourceGraphic" in2="effect1_dropShadow_320_18327" result="shape"/>
</filter>
<filter id="filter1_d_320_18327" x="0.204102" y="0.449951" width="68.7305" height="60.3804" filterUnits="userSpaceOnUse" color-interpolation-filters="sRGB">
<feFlood flood-opacity="0" result="BackgroundImageFix"/>
<feColorMatrix in="SourceAlpha" type="matrix" values="0 0 0 0 0 0 0 0 0 0 0 0 0 0 0 0 0 0 127 0" result="hardAlpha"/>
<feOffset/>
<feComposite in2="hardAlpha" operator="out"/>
<feColorMatrix type="matrix" values="0 0 0 0 0 0 0 0 0 0 0 0 0 0 0 0 0 0 0.25 0"/>
<feBlend mode="normal" in2="BackgroundImageFix" result="effect1_dropShadow_320_18327"/>
<feBlend mode="normal" in="SourceGraphic" in2="effect1_dropShadow_320_18327" result="shape"/>
</filter>
</defs>
</svg>
