<svg width="24" height="24" viewBox="0 0 24 24" fill="none" xmlns="http://www.w3.org/2000/svg">
    <path d="M9.08652 19.2043C8.07508 18.292 7.77984 16.375 8.20123 14.9861C8.93188 15.8618 9.94425 16.1391 10.9929 16.2957C12.6117 16.5373 14.2016 16.447 15.7054 15.7168C15.8775 15.6332 16.0364 15.522 16.2244 15.4095C16.3655 15.8135 16.4022 16.2213 16.353 16.6364C16.2331 17.6473 15.7233 18.4282 14.9124 19.0202C14.5882 19.257 14.2451 19.4687 13.9102 19.6919C12.8814 20.3781 12.603 21.1827 12.9896 22.3531C12.9988 22.3816 13.007 22.4101 13.0278 22.4797C12.5025 22.2478 12.1188 21.91 11.8265 21.4659C11.5177 20.9971 11.3708 20.4786 11.363 19.9176C11.3592 19.6446 11.3592 19.3691 11.322 19.0999C11.2311 18.4437 10.9189 18.1499 10.3309 18.133C9.7273 18.1156 9.24985 18.4838 9.12324 19.0637C9.11358 19.1082 9.09957 19.1521 9.08556 19.2038L9.08652 19.2043Z" fill="#C3C3C6"/>
    <path d="M4 15.4113C4 15.4113 6.76558 14.0674 9.53888 14.0674L11.6299 7.61234C11.7081 7.30016 11.9367 7.08803 12.1948 7.08803C12.4528 7.08803 12.6814 7.30016 12.7597 7.61234L14.8506 14.0674C18.1352 14.0674 20.3895 15.4113 20.3895 15.4113C20.3895 15.4113 15.6919 2.64609 15.6828 2.62048C15.5479 2.24307 15.3203 2 15.0135 2H9.37651C9.06966 2 8.85124 2.24307 8.70722 2.62048C8.69706 2.64561 4 15.4113 4 15.4113Z" fill="#C3C3C6"/>
</svg>
