<svg width="24" height="24" viewBox="0 0 24 24" fill="none" xmlns="http://www.w3.org/2000/svg">
<path d="M12.558,0.013c6.615,0.308 11.736,5.929 11.429,12.545c-0.308,6.615 -5.929,11.737 -12.545,11.429c-6.615,-0.308 -11.737,-5.929 -11.429,-12.544c0.308,-6.616 5.929,-11.737 12.545,-11.43Zm2.805,14.449c-0.757,-0.037 -1.505,-0.163 -2.106,-0.264c-0.457,-0.076 -0.891,-0.197 -1.247,-0.319c-0.058,-0.021 -0.123,-0.001 -0.16,0.048c-0.037,0.049 -0.042,0.121 -0.001,0.167c0.168,0.186 0.701,0.575 1.115,0.753c-0.354,0.292 -0.596,0.96 -0.691,1.306c-0.128,0.465 -0.147,1.135 -0.116,1.381c0.125,0.99 0.489,1.877 1.39,2.653c0.631,0.543 1.544,0.914 2.477,0.931c1.287,0.022 2.829,-0.531 4.04,-1.774c1.583,-1.735 2.62,-3.992 2.812,-6.513c0.459,-6.003 -4.043,-11.249 -10.046,-11.707c-6.003,-0.459 -11.249,4.043 -11.708,10.046c-0.237,3.109 0.856,6.015 2.799,8.158c0.054,0.059 0.141,0.073 0.211,0.034c0.07,-0.038 0.105,-0.119 0.084,-0.197c-1.44,-5.644 1.685,-11.736 5.174,-13.664c1.296,-0.716 2.557,-0.988 3.691,-0.529c1.735,0.702 2.727,1.865 4.875,2.844c2.148,0.978 2.381,2.61 1.782,4.259c-0.599,1.649 -2.528,2.478 -4.375,2.387Zm-3.758,-8.73c-0.704,0.055 -1.166,0.927 -1.227,1.487c-0.061,0.56 0.217,1.485 1.135,1.467c1.074,-0.021 1.4,-0.94 1.282,-1.83c-0.088,-0.668 -0.602,-1.17 -1.19,-1.124Z" fill="white"/>
</svg>
