<svg width="24" height="24" viewBox="0 0 24 24" fill="none" xmlns="http://www.w3.org/2000/svg">
<path fill-rule="evenodd" clip-rule="evenodd" d="M1.89654 10.1159C1.84998 10.1159 1.83834 10.0926 1.86162 10.0577L2.10606 9.74344C2.12934 9.70852 2.18754 9.68524 2.2341 9.68524H6.38966C6.43622 9.68524 6.44786 9.72016 6.42458 9.75508L6.2267 10.0577C6.20342 10.0926 6.14522 10.1276 6.1103 10.1276L1.89654 10.1159Z" fill="#C3C3C6"/>
<path fill-rule="evenodd" clip-rule="evenodd" d="M0.138846 11.1874C0.0922852 11.1874 0.0806449 11.1641 0.103925 11.1292L0.34837 10.8149C0.371651 10.78 0.429852 10.7567 0.476413 10.7567H5.78435C5.83092 10.7567 5.8542 10.7916 5.84256 10.8265L5.74943 11.1059C5.73779 11.1525 5.69123 11.1757 5.64467 11.1757L0.138846 11.1874Z" fill="#C3C3C6"/>
<path fill-rule="evenodd" clip-rule="evenodd" d="M2.95586 12.2578C2.9093 12.2578 2.89766 12.2229 2.92094 12.188L3.08391 11.897C3.10719 11.8621 3.15375 11.8271 3.20031 11.8271H5.52835C5.57491 11.8271 5.59819 11.8621 5.59819 11.9086L5.57491 12.188C5.57491 12.2346 5.52835 12.2695 5.49343 12.2695L2.95586 12.2578Z" fill="#C3C3C6"/>
<path fill-rule="evenodd" clip-rule="evenodd" d="M15.0384 9.90696C14.305 10.0932 13.8045 10.2329 13.0828 10.4191C12.9082 10.4657 12.8966 10.4773 12.7453 10.3027C12.5706 10.1048 12.4426 9.9768 12.1982 9.8604C11.4648 9.49955 10.7548 9.60431 10.0913 10.035C9.29975 10.5472 8.89234 11.3038 8.90398 12.2466C8.91562 13.1779 9.55583 13.9461 10.4754 14.0742C11.2669 14.1789 11.9304 13.8996 12.4542 13.3059C12.559 13.1779 12.6521 13.0382 12.7685 12.8752C12.3495 12.8752 11.8257 12.8752 10.522 12.8752C10.2775 12.8752 10.2193 12.7239 10.3008 12.526C10.4521 12.1652 10.7315 11.5599 10.8945 11.2572C10.9294 11.1874 11.0109 11.071 11.1855 11.071H15.4225C15.3992 11.3853 15.3992 11.6996 15.3527 12.0138C15.2246 12.8519 14.9103 13.6202 14.3982 14.2953C13.5601 15.4011 12.4659 16.0879 11.0807 16.2742C9.93996 16.4255 8.8807 16.2043 7.94948 15.5059C7.0881 14.8541 6.59921 13.9927 6.47117 12.9218C6.31985 11.653 6.69234 10.5123 7.46059 9.51119C8.28705 8.42865 9.38123 7.74188 10.7199 7.49743C11.814 7.29955 12.8617 7.42759 13.8045 8.06781C14.4214 8.47521 14.8638 9.03394 15.1548 9.70908C15.2246 9.81384 15.1781 9.87204 15.0384 9.90696Z" fill="#C3C3C6"/>
<path d="M18.8913 16.3441C17.8321 16.3208 16.8659 16.0181 16.0511 15.3197C15.3643 14.7261 14.9337 13.9695 14.794 13.0732C14.5844 11.7578 14.9453 10.5938 15.7368 9.55782C16.5866 8.44035 17.6109 7.85834 18.9961 7.6139C20.1834 7.40437 21.3009 7.52078 22.3136 8.20755C23.2331 8.83612 23.8035 9.68586 23.9548 10.8033C24.1527 12.3747 23.6987 13.6552 22.6162 14.7494C21.8479 15.5293 20.9051 16.0181 19.8225 16.2393C19.5083 16.2975 19.194 16.3091 18.8913 16.3441ZM21.6617 11.6414C21.6501 11.4901 21.6501 11.3737 21.6268 11.2573C21.4173 10.1049 20.358 9.45305 19.2522 9.70914C18.1696 9.95358 17.4712 10.6404 17.2151 11.7345C17.0056 12.6425 17.4479 13.5621 18.286 13.9345C18.9263 14.2139 19.5665 14.179 20.1834 13.8647C21.103 13.3874 21.6035 12.6425 21.6617 11.6414Z" fill="#C3C3C6"/>
</svg>
