<svg width="24" height="25" viewBox="0 0 24 25" fill="none" xmlns="http://www.w3.org/2000/svg">
    <path fill-rule="evenodd" clip-rule="evenodd" d="M16.4822 5.05712C17.9863 5.91947 17.5597 8.46304 17.2202 9.83468C17.6278 9.95124 18.1261 10.1085 18.6255 10.317H15.9759C15.5458 10.2282 15.0946 10.1539 14.6276 10.0952C14.7242 10.2458 14.8191 10.3975 14.9123 10.5501C14.6785 10.6779 14.4777 10.8527 14.3244 11.0606C14.1066 10.6999 13.8792 10.3449 13.6421 9.99644C12.5507 9.91372 11.4525 9.91391 10.361 9.99597C9.74422 10.8948 9.19653 11.8397 8.72265 12.8206C9.19887 13.8035 9.75053 14.7502 10.3703 15.6505C11.4609 15.7208 12.5581 15.7216 13.6484 15.6441C13.7678 15.4657 13.8851 15.2858 14 15.1043V16.4878C13.5299 17.1558 13.0495 17.7593 12.5687 18.2822C12.9101 18.6088 13.4298 19.0964 14 19.4789V20.3481C13.2359 19.9288 12.5312 19.3084 12.0332 18.8307C10.995 19.829 8.99836 21.4282 7.48996 20.5633C5.99158 19.7037 6.42995 17.2381 6.77819 15.8502C5.3905 15.4563 3 14.5323 3 12.8022C3 11.0671 5.39299 10.2179 6.78894 9.82359C6.44199 8.44335 5.9805 5.94196 7.47698 5.08048C8.97981 4.2154 10.9827 5.85358 12.0084 6.83128C13.0371 5.84374 14.9852 4.19852 16.4822 5.05712ZM7.52374 16.0375C7.26755 17.0599 6.75686 19.2601 7.87417 19.9008C8.99671 20.5444 10.8452 18.9098 11.4945 18.2851C10.9689 17.7242 10.4474 17.0836 9.94943 16.3867C9.07714 16.3164 8.26101 16.1997 7.52374 16.0375ZM6.99542 10.5602C5.96524 10.8498 3.76889 11.5087 3.76889 12.8022C3.76889 14.0965 6.00222 14.834 6.98451 15.1136C7.21186 14.3765 7.51155 13.6026 7.87274 12.8208C7.51617 12.0505 7.22071 11.2887 6.99542 10.5602ZM11.4695 7.3771C10.7248 6.66922 8.9841 5.0965 7.86222 5.74227C6.74155 6.38735 7.25475 8.52207 7.53426 9.63529C8.27925 9.46742 9.08965 9.3421 9.93621 9.26407C10.4299 8.57123 10.9466 7.9355 11.4695 7.3771ZM13.0679 9.19515C12.7185 8.73228 12.3633 8.30561 12.0086 7.92354C11.6484 8.31005 11.2901 8.73608 10.9404 9.19468C11.6492 9.16169 12.3591 9.16185 13.0679 9.19515ZM7.74193 10.3724C7.89839 10.8739 8.08997 11.3931 8.3139 11.9213C8.63826 11.2961 8.99197 10.686 9.3738 10.0938C8.80318 10.1647 8.25551 10.2581 7.74193 10.3724ZM7.73134 15.2999C8.24476 15.4111 8.80071 15.4997 9.39021 15.5652C9.00269 14.9673 8.64362 14.3513 8.31478 13.7197C8.08607 14.2592 7.89026 14.7896 7.73134 15.2999ZM10.9469 16.446C11.3019 16.9112 11.6654 17.3438 12.0299 17.7349C12.3821 17.3491 12.7361 16.916 13.0866 16.4423C12.3739 16.4739 11.6597 16.4738 10.9469 16.446ZM16.4757 9.64321C16.7209 8.64918 17.2204 6.36319 16.0982 5.71954C14.9869 5.08218 13.3017 6.65358 12.5474 7.3767C13.0619 7.9279 13.5743 8.56473 14.069 9.2651C14.918 9.34432 15.729 9.47186 16.4757 9.64321ZM12 11.2038C12.8877 11.2038 13.6073 11.9195 13.6073 12.8022C13.6073 13.685 12.8877 14.4007 12 14.4007C11.1123 14.4007 10.3927 13.685 10.3927 12.8022C10.3927 11.9195 11.1123 11.2038 12 11.2038Z" fill="#53C1DE"/>
    <path fill-rule="evenodd" clip-rule="evenodd" d="M15.9 10.817C15.1268 10.817 14.5 11.4326 14.5 12.192V20.442C14.5 21.2014 15.1268 21.817 15.9 21.817H20.1C20.8732 21.817 21.5 21.2014 21.5 20.442V12.192C21.5 11.4326 20.8732 10.817 20.1 10.817H15.9ZM18 20.442C18.3866 20.442 18.7 20.1342 18.7 19.7545C18.7 19.3748 18.3866 19.067 18 19.067C17.6134 19.067 17.3 19.3748 17.3 19.7545C17.3 20.1342 17.6134 20.442 18 20.442Z" fill="#53C1DE"/>
</svg>
