<svg width="24" height="24" viewBox="0 0 24 24" fill="none" xmlns="http://www.w3.org/2000/svg">
    <path d="M12.8547 2.5C17.628 2.5 20 4.82627 20 8.54224C20 11.3217 18.3308 13.1343 16.0759 13.4364C17.9794 13.8292 19.0921 14.947 19.2972 17.1524L19.3268 17.558L19.3527 17.9371L19.3751 18.2918L19.3907 18.5592L19.4074 18.8747L19.416 19.0548L19.4284 19.3409L19.4383 19.6111L19.4432 19.7664L19.4499 20.0152L19.4557 20.2998L19.4578 20.4372L19.4615 20.8357L19.4627 21.2514L19.4628 21.5H14.5404L14.5406 21.3963L14.5424 21.195L14.5453 20.9988L14.5538 20.5237L14.556 20.3644L14.5577 20.1147L14.5574 19.955L14.556 19.7875L14.554 19.656L14.55 19.472L14.5441 19.2768L14.5363 19.0693L14.5263 18.8482L14.5203 18.7321L14.5103 18.5509L14.4987 18.3604L14.4807 18.0913L14.4653 17.8774C14.4608 17.8115 14.4557 17.7471 14.4499 17.6842L14.4373 17.5604C14.2747 16.0995 13.7088 15.5024 12.7396 15.3033L12.6579 15.2876C12.6028 15.2777 12.5464 15.2691 12.4888 15.2615L12.4015 15.251C12.3868 15.2494 12.3721 15.2478 12.3572 15.2463L12.2671 15.2382L12.1751 15.2316L12.0813 15.2264L11.9866 15.2227L11.8901 15.2202L11.7918 15.219L4 15.2189V11.2613H11.9762C12.1066 11.2613 12.233 11.2587 12.3554 11.2536L12.4764 11.2475L12.5947 11.2397L12.7103 11.2301C12.7294 11.2283 12.7483 11.2265 12.7671 11.2246L12.8787 11.2122C12.9522 11.2033 13.0239 11.1932 13.0938 11.1819L13.1974 11.1639C14.4917 10.9236 15.1388 10.2201 15.1388 8.84717C15.1388 7.30644 14.0846 6.37267 11.9762 6.37267H4V2.5H12.8547ZM9.20477 18.5496C9.85059 18.5496 10.1208 18.9168 10.2171 19.2683L10.2298 19.3188L10.2402 19.3689L10.247 19.4084L10.2499 19.428L10.2547 19.4666L10.2584 19.5044L10.2598 19.5229L10.2618 19.5593L10.2624 19.5771L10.2629 19.6117V21.5H4V18.5496H9.20477Z" fill="#C3C3C6"/>
</svg>
