<svg width="24" height="25" viewBox="0 0 24 25" fill="none" xmlns="http://www.w3.org/2000/svg">
    <path d="M19.5593 5.64405C17.7119 2.98303 14.0339 2.20337 11.3898 3.88134L6.7288 6.86439C5.45762 7.661 4.57626 8.96609 4.32202 10.4407C4.10168 11.6779 4.28813 12.9491 4.88135 14.0508C4.47457 14.661 4.20338 15.339 4.08474 16.0508C3.81355 17.5593 4.16948 19.1186 5.05084 20.3559C6.91524 23.0169 10.5763 23.7966 13.2203 22.1186L17.8813 19.1525C19.1525 18.3559 20.0339 17.0508 20.2881 15.5763C20.5085 14.339 20.322 13.0678 19.7288 11.9661C20.1356 11.3559 20.4068 10.6779 20.5254 9.96609C20.8135 8.44066 20.4576 6.88134 19.5593 5.64405Z" fill="#FF3E00"/>
    <path d="M10.9323 20.6102C9.42378 21 7.84751 20.4068 6.96615 19.1356C6.42378 18.3899 6.22039 17.4577 6.37293 16.5424C6.40683 16.3899 6.44073 16.2543 6.47462 16.1017L6.55937 15.8305L6.79666 16C7.35598 16.4068 7.96615 16.7119 8.62717 16.9153L8.79666 16.9661L8.77971 17.1356C8.76276 17.3729 8.83056 17.6271 8.96615 17.8305C9.23734 18.2204 9.71191 18.4068 10.1695 18.2882C10.2712 18.2543 10.3729 18.2204 10.4577 18.1695L15.1017 15.2034C15.339 15.0509 15.4916 14.8305 15.5424 14.5594C15.5933 14.2882 15.5255 14 15.3729 13.7797C15.1017 13.3899 14.6272 13.2204 14.1695 13.339C14.0678 13.3729 13.9662 13.4068 13.8814 13.4577L12.1017 14.5933C11.8136 14.7797 11.4916 14.9153 11.1526 15C9.64412 15.3899 8.06785 14.7966 7.18649 13.5255C6.66107 12.7797 6.44073 11.8475 6.61022 10.9322C6.76276 10.0509 7.30513 9.25427 8.06785 8.77969L12.7289 5.81359C13.017 5.62715 13.339 5.49155 13.678 5.38986C15.1865 5.00003 16.7628 5.59325 17.6441 6.86444C18.1865 7.6102 18.3899 8.5424 18.2373 9.45766C18.2034 9.6102 18.1695 9.74579 18.1187 9.89833L18.0339 10.1695L17.7967 10C17.2373 9.59325 16.6272 9.28816 15.9662 9.08477L15.7967 9.03393L15.8136 8.86444C15.8306 8.62715 15.7628 8.37291 15.6272 8.16952C15.356 7.77969 14.8814 7.6102 14.4238 7.72884C14.3221 7.76274 14.2204 7.79664 14.1356 7.84749L9.49157 10.8136C9.25429 10.9661 9.10174 11.1865 9.0509 11.4577C9.00005 11.7288 9.06785 12.017 9.22039 12.2373C9.49157 12.6271 9.96615 12.7966 10.4238 12.678C10.5255 12.6441 10.6272 12.6102 10.7119 12.5594L12.4916 11.4238C12.7797 11.2373 13.1017 11.1017 13.4407 11C14.9492 10.6102 16.5255 11.2034 17.4068 12.4746C17.9492 13.2204 18.1526 14.1526 18 15.0678C17.8475 15.9492 17.3051 16.7458 16.5424 17.2204L11.8814 20.1865C11.5933 20.3729 11.2712 20.5085 10.9323 20.6102Z" fill="white"/>
</svg>
