<?xml version="1.0" encoding="utf-8"?>
<svg viewBox="0 0 128 128" xmlns="http://www.w3.org/2000/svg">
  <g>
    <path d="M 117.9 36.1 L 117.9 91.8 C 117.9 93.7 116.7 96.2 115 97.2 L 67 125.1 C 66.2 125.5 65.1 125.8 63.9 125.8 C 62.7 125.8 61.6 125.6 60.8 125.1 L 12.6 97.2 C 11.9 96.8 11.2 96.1 10.7 95.3 L 10.865 95.204 C 10.177 94.148 10 92.935 10 91.9 L 10 36.2 C 10 34.3 11.2 31.8 12.9 30.8 L 60.9 2.9 C 61.7 2.5 62.8 2.2 64 2.2 C 65.2 2.2 66.3 2.4 67.1 2.9 L 115.4 30.7 C 116.3 31.3 117.2 32.2 117.8 33.4 L 117.452 33.602 C 117.821 34.42 117.9 35.3 117.9 36.1 Z M 85.3 76.1 C 81.1 83.5 73.1 88.5 64 88.5 C 50.5 88.5 39.5 77.5 39.5 64 C 39.5 50.5 50.5 39.5 64 39.5 C 73.1 39.5 81.1 44.5 85.3 52 L 98.3 44.5 C 91.5 32.6 78.7 24.5 64 24.5 C 42.2 24.5 24.5 42.2 24.5 64 C 24.5 85.8 42.2 103.5 64 103.5 C 78.6 103.5 91.4 95.5 98.2 83.7 Z" style="fill: rgb(228, 228, 231);"/>
    <path d="M 98.881 83.521 L 98.633 83.95 C 91.749 95.837 78.732 104 64 104 C 52.998 104 42.934 99.492 35.721 92.279 C 28.509 85.066 24 75.002 24 64 C 24 52.998 28.509 42.934 35.721 35.721 C 42.934 28.508 52.998 24 64 24 C 78.834 24 91.851 32.265 98.734 44.252 L 98.982 44.684 L 85.11 52.687 L 84.864 52.244 C 80.749 44.834 72.968 40 64 40 C 57.352 40 51.416 42.666 47.041 47.041 C 42.666 51.416 40 57.352 40 64 C 40 70.648 42.666 76.584 47.041 80.959 C 51.416 85.334 57.352 88 64 88 C 72.968 88 80.75 83.165 84.865 75.853 L 85.114 75.41 Z M 64 89 C 57.148 89 50.834 86.166 46.334 81.666 C 41.834 77.166 39 70.852 39 64 C 39 57.148 41.834 50.834 46.334 46.334 C 50.834 41.834 57.148 39 64 39 C 73.233 39 81.132 43.969 85.483 51.317 L 97.617 44.317 C 90.841 32.743 78.566 25 64 25 C 53.202 25 43.516 29.342 36.429 36.429 C 29.341 43.516 25 53.202 25 64 C 25 74.798 29.341 84.484 36.429 91.571 C 43.516 98.659 53.202 103 64 103 C 78.467 103 90.743 95.355 97.518 83.878 L 85.478 76.785 C 81.127 84.036 73.233 89 64 89 Z" style="fill: rgb(228, 228, 231);"/>
  </g>
</svg>