<svg xmlns="http://www.w3.org/2000/svg" viewBox="0 0 128 128"><path d="M10.5 91.9V36.2c-.025-1.792 1.05-4.075 2.651-4.968L61.139 3.34c.752-.379 1.727-.64 2.861-.64 1.155 0 2.138.167 2.851.633l48.288 27.794c.832.544 1.432 1.337 2.007 2.495l.237.477.009-.005c.269.673.314 1.386.313 2.097v55.7c.025 1.792-1.05 4.075-2.651 4.968l-47.988 27.892c-.752.379-1.727.64-2.861.64-1.155 0-2.137-.167-2.85-.633L13.153 96.857c-.646-.359-1.256-.972-1.721-1.727l-.262-.426-.026.016c-.531-.897-.647-1.893-.644-2.82Zm86.89-30h.11v1.911l-.374 1.789H93.2v5.7h2.29l-1.2 6h5.82l1.2-6h2.78l-1.2 6h5.92l1.2-6h5.19v-5.7h-4.085l.691-3.3h3.394v-5.7h-2.292l1.2-6.1h-5.819l-1.2 6.1h-2.781l1.2-6.1h-5.92l-1.2 6.2H93.2v5.7h4.085ZM85.114 75.41l-.249.443C80.75 83.165 72.968 88 64 88c-6.648 0-12.584-2.666-16.959-7.041S40 70.648 40 64s2.666-12.584 7.041-16.959S57.352 40 64 40c8.968 0 16.749 4.834 20.864 12.244l.246.443 13.872-8.003-.248-.432C91.851 32.265 78.834 24 64 24c-11.002 0-21.066 4.508-28.279 11.721C28.509 42.934 24 52.998 24 64c0 11.002 4.509 21.066 11.721 28.279C42.934 99.492 52.998 104 64 104c14.732 0 27.749-8.163 34.633-20.05l.248-.429Zm17.992-13.01h2.779l-.691 3.3h-2.779Z" style="fill:#e4e4e7"/></svg>