<?xml version="1.0" encoding="utf-8"?>
<svg viewBox="0 0 128 128" xmlns="http://www.w3.org/2000/svg">
  <g>
    <path d="M 10.5 91.9 L 10.5 36.2 C 10.475 34.408 11.55 32.125 13.151 31.232 L 61.139 3.34 C 61.891 2.961 62.866 2.7 64 2.7 C 65.155 2.7 66.138 2.867 66.851 3.333 L 115.139 31.127 C 115.971 31.671 116.571 32.464 117.146 33.622 L 117.383 34.099 L 117.392 34.094 C 117.661 34.767 117.706 35.48 117.705 36.191 L 117.705 91.891 C 117.73 93.683 116.655 95.966 115.054 96.859 L 67.066 124.751 C 66.314 125.13 65.339 125.391 64.205 125.391 C 63.05 125.391 62.068 125.224 61.355 124.758 L 13.153 96.857 C 12.507 96.498 11.897 95.885 11.432 95.13 L 11.17 94.704 L 11.144 94.72 C 10.613 93.823 10.497 92.827 10.5 91.9 Z M 97.39 61.9 L 97.5 61.9 L 97.5 63.811 L 97.126 65.6 L 93.2 65.6 L 93.2 71.3 L 95.49 71.3 L 94.29 77.3 L 100.11 77.3 L 101.31 71.3 L 104.09 71.3 L 102.89 77.3 L 108.81 77.3 L 110.01 71.3 L 115.2 71.3 L 115.2 65.6 L 111.115 65.6 L 111.806 62.3 L 115.2 62.3 L 115.2 56.6 L 112.908 56.6 L 114.108 50.5 L 108.289 50.5 L 107.089 56.6 L 104.308 56.6 L 105.508 50.5 L 99.588 50.5 L 98.388 56.7 L 93.2 56.7 L 93.2 62.4 L 97.285 62.4 Z M 85.114 75.41 L 84.865 75.853 C 80.75 83.165 72.968 88 64 88 C 57.352 88 51.416 85.334 47.041 80.959 C 42.666 76.584 40 70.648 40 64 C 40 57.352 42.666 51.416 47.041 47.041 C 51.416 42.666 57.352 40 64 40 C 72.968 40 80.749 44.834 84.864 52.244 L 85.11 52.687 L 98.982 44.684 L 98.734 44.252 C 91.851 32.265 78.834 24 64 24 C 52.998 24 42.934 28.508 35.721 35.721 C 28.509 42.934 24 52.998 24 64 C 24 75.002 28.509 85.066 35.721 92.279 C 42.934 99.492 52.998 104 64 104 C 78.732 104 91.749 95.837 98.633 83.95 L 98.881 83.521 Z M 103.106 62.4 L 105.885 62.4 L 105.194 65.7 L 102.415 65.7 Z" style="fill: rgb(228, 228, 231);"/>
  </g>
</svg>
