<?xml version="1.0" encoding="utf-8"?>
<svg width="150" height="150" viewBox="0 0 150 150" fill="none" xmlns="http://www.w3.org/2000/svg">
  <path d="M 3.975 3.975 L 146.025 3.975 L 146.025 146.025 L 3.975 146.025 Z M 29.465 94.773 C 30.225 94.048 30.606 93.187 30.606 92.191 C 30.606 91.175 30.225 90.306 29.465 89.581 C 28.723 88.856 27.813 88.493 26.734 88.493 C 25.674 88.493 24.772 88.856 24.03 89.581 C 23.287 90.306 22.916 91.175 22.916 92.191 C 22.916 93.187 23.287 94.048 24.03 94.773 C 24.772 95.48 25.674 95.833 26.734 95.833 C 27.813 95.833 28.723 95.48 29.465 94.773 Z M 69.133 56.25 L 63.061 56.25 L 63.061 81.37 C 63.061 83.835 63.15 85.584 63.327 86.617 L 63.221 86.617 C 63.008 86.182 62.531 85.385 61.789 84.225 L 44.235 56.25 L 36.891 56.25 L 36.891 95.235 L 42.989 95.235 L 42.989 69.68 C 42.989 66.943 42.919 65.158 42.777 64.324 L 42.936 64.324 C 43.237 65.104 43.617 65.856 44.077 66.581 L 62.239 95.235 L 69.133 95.235 Z M 98.831 89.771 L 83.797 89.771 L 83.797 78.244 L 96.869 78.244 L 96.869 72.779 L 83.797 72.779 L 83.797 61.742 L 97.983 61.742 L 97.983 56.25 L 77.486 56.25 L 77.486 95.235 L 98.831 95.235 Z M 129.166 56.25 L 101.033 56.25 L 101.033 61.742 L 111.931 61.742 L 111.931 95.235 L 118.242 95.235 L 118.242 61.742 L 129.166 61.742 Z" style="fill: rgb(228, 228, 231);"/>
  <g clip-path="url(#clip0_1704_16)">
    <path d="M 26.734 96.333 C 25.582 96.333 24.504 95.889 23.68 95.131 C 22.883 94.326 22.416 93.286 22.416 92.19 C 22.416 91.077 22.883 90.029 23.68 89.223 C 24.504 88.445 25.58 87.993 26.734 87.993 C 27.905 87.993 28.988 88.444 29.813 89.221 C 30.629 90.027 31.106 91.075 31.106 92.19 C 31.106 93.288 30.626 94.33 29.81 95.135 C 28.986 95.894 27.903 96.333 26.734 96.333 Z M 29.121 94.411 C 29.824 93.766 30.106 93.086 30.106 92.191 C 30.106 91.276 29.824 90.587 29.12 89.943 C 28.46 89.271 27.72 88.993 26.734 88.993 C 25.767 88.993 25.04 89.267 24.379 89.938 C 23.692 90.583 23.416 91.274 23.416 92.191 C 23.416 93.088 23.689 93.768 24.377 94.413 C 25.037 95.067 25.765 95.333 26.734 95.333 C 27.722 95.333 28.46 95.066 29.121 94.411 Z" style="fill: rgb(228, 228, 231);"/>
    <path d="M 61.964 95.735 L 43.654 66.849 C 43.582 66.735 43.512 66.62 43.443 66.504 C 43.474 67.369 43.489 68.429 43.489 69.68 L 43.489 95.735 L 36.391 95.735 L 36.391 55.75 L 44.512 55.75 L 62.211 83.957 C 62.362 84.193 62.503 84.416 62.633 84.623 C 62.586 83.722 62.561 82.635 62.561 81.37 L 62.561 55.75 L 69.633 55.75 L 69.633 95.735 Z M 68.633 56.75 L 63.561 56.75 L 63.561 81.37 C 63.561 83.823 63.646 85.529 63.819 86.533 L 63.92 87.117 L 62.908 87.117 L 62.771 86.836 C 62.569 86.42 62.106 85.648 61.368 84.494 L 43.959 56.75 L 37.391 56.75 L 37.391 94.735 L 42.489 94.735 L 42.489 69.68 C 42.489 66.953 42.422 65.21 42.284 64.408 L 42.184 63.824 L 43.28 63.824 L 43.403 64.144 C 43.693 64.901 44.051 65.609 44.499 66.313 L 62.514 94.735 L 68.633 94.735 Z" style="fill: rgb(228, 228, 231);"/>
    <path d="M 76.986 95.735 L 76.986 55.75 L 98.483 55.75 L 98.483 62.242 L 84.297 62.242 L 84.297 72.279 L 97.369 72.279 L 97.369 78.744 L 84.297 78.744 L 84.297 89.271 L 99.331 89.271 L 99.331 95.735 Z M 98.331 90.271 L 83.297 90.271 L 83.297 77.744 L 96.369 77.744 L 96.369 73.279 L 83.297 73.279 L 83.297 61.242 L 97.483 61.242 L 97.483 56.75 L 77.986 56.75 L 77.986 94.735 L 98.331 94.735 Z" style="fill: rgb(228, 228, 231);"/>
    <path d="M 118.742 62.242 L 118.742 95.735 L 111.431 95.735 L 111.431 62.242 L 100.533 62.242 L 100.533 55.75 L 129.666 55.75 L 129.666 62.242 Z M 128.666 56.75 L 101.533 56.75 L 101.533 61.242 L 112.431 61.242 L 112.431 94.735 L 117.742 94.735 L 117.742 61.242 L 128.666 61.242 Z" style="fill: rgb(228, 228, 231);"/>
  </g>
  <defs>
    <clipPath id="clip0_1704_16">
      <rect width="150" height="150" fill="white"/>
    </clipPath>
  </defs>
</svg>
