<?xml version="1.0" encoding="utf-8"?>
<svg viewBox="0 0 128 128" xmlns="http://www.w3.org/2000/svg">
  <path d="M 1.408 1.408 L 126.592 1.408 L 126.592 126.593 L 1.408 126.593 Z M 116.347 96.736 C 115.43 91.025 111.706 86.228 100.675 81.755 C 96.843 79.994 92.571 78.733 91.298 75.829 C 90.846 74.139 90.786 73.187 91.072 72.164 C 91.893 68.844 95.856 67.809 98.997 68.761 C 101.02 69.439 102.935 70.998 104.09 73.485 C 109.492 69.987 109.481 70.01 113.253 67.606 C 111.872 65.465 111.135 64.477 110.231 63.561 C 106.982 59.932 102.555 58.063 95.475 58.206 L 91.787 58.683 C 88.253 59.576 84.885 61.431 82.91 63.918 C 76.984 70.642 78.674 82.41 85.885 87.253 C 92.989 92.585 103.425 93.798 104.758 98.784 C 106.055 104.888 100.272 106.864 94.524 106.162 C 90.288 105.281 87.932 103.128 85.385 99.213 C 80.697 101.926 80.697 101.926 75.877 104.698 C 77.02 107.197 78.221 108.328 80.137 110.493 C 89.205 119.691 111.897 119.239 115.967 105.317 C 116.132 104.839 117.228 101.651 116.347 96.736 Z M 69.462 58.943 L 57.753 58.943 L 57.705 89.215 C 57.705 95.653 58.038 101.555 56.991 103.364 C 55.278 106.922 50.839 106.481 48.816 105.791 C 46.757 104.779 45.71 103.34 44.497 101.306 C 44.164 100.722 43.914 100.27 43.83 100.235 L 34.31 106.065 C 35.893 109.314 38.225 112.134 41.212 113.966 C 45.674 116.644 51.671 117.465 57.943 116.025 C 62.025 114.836 65.547 112.373 67.391 108.624 C 70.057 103.709 69.485 97.76 69.461 91.18 C 69.521 80.445 69.462 69.712 69.462 58.943 Z" style="fill: rgb(228, 228, 231);"/>
</svg>