<?xml version="1.0" encoding="utf-8"?>
<svg viewBox="0 0 128 128" xmlns="http://www.w3.org/2000/svg">
  <g>
    <path d="M 117.9 36.1 L 117.9 91.8 C 117.9 93.7 116.7 96.2 115 97.2 L 67 125.1 C 66.2 125.5 65.1 125.8 63.9 125.8 C 62.7 125.8 61.6 125.6 60.8 125.1 L 12.6 97.2 C 11.9 96.8 11.2 96.1 10.7 95.3 L 10.865 95.204 C 10.177 94.148 10 92.935 10 91.9 L 10 36.2 C 10 34.3 11.2 31.8 12.9 30.8 L 60.9 2.9 C 61.7 2.5 62.8 2.2 64 2.2 C 65.2 2.2 66.3 2.4 67.1 2.9 L 115.051 30.901 C 115.951 31.501 116.851 32.401 117.451 33.601 L 117.452 33.602 C 117.821 34.42 117.9 35.3 117.9 36.1 Z M 85.3 76.1 C 81.1 83.5 73.1 88.5 64 88.5 C 50.5 88.5 39.5 77.5 39.5 64 C 39.5 50.5 50.5 39.5 64 39.5 C 73.1 39.5 81.1 44.5 85.3 52 L 98.3 44.5 C 91.5 32.6 78.7 24.5 64 24.5 C 42.2 24.5 24.5 42.2 24.5 64 C 24.5 85.8 42.2 103.5 64 103.5 C 78.6 103.5 91.4 95.5 98.2 83.7 L 85.3 76.1 Z" style="fill: rgb(228, 228, 231);"/>
  </g>
</svg>