<svg version="1.1"x="0px" y="0px" viewBox="0 0 512 512" xml:space="preserve">
        <style type="text/css">
            .st0{fill:#374149;}
        </style>
        <g>
            <path class="st0" d="M177.524,351.77c-0.454-7.015-2.004-12.351-3.493-17.558c-0.938-3.328-1.84-6.496-2.488-10.086
                c-0.742-4.141,1.293-11.676,3.102-18.367c-2-5.481-5.39-13.141-8.809-20.57c-0.519-1.176-0.988-2.25-1.546-3.508
                c-0.016,0.019-0.032,0.031-0.047,0.05c-0.023-0.054-0.047-0.105-0.074-0.156c-8.226,9.156-20.297,17.469-37.187,19.066
                c-0.641,0.051-1.266,0.149-1.914,0.18l0.016,0.035c-0.059,0.004-0.11,0.015-0.164,0.019c0.129,0.355,0.258,0.711,0.386,1.035
                c4.882,13.16,15.359,25.188,19.305,29.39c-1.262,9.895-1.649,26.094,6.176,37.993c7.469,45.461,2.941,56.586-14.227,66.703
                c-4.074,2.426-8.343,7.309-8.019,12.32c0.191,3.102,2.133,5.723,5.367,7.145c1.875,0.809,5.918,1.91,19.141,1.91
                c6.144,0,11.574-0.258,12.738-0.325c0.098,0.031,0.195,0.031,0.293,0.031c1.55,0,3.816-0.484,5.949-2.75
                c3.298-3.554,7.727-12.832,7.535-52.282c-0.066-14.644-0.746-31.426-2.004-49.89L177.524,351.77z" style="fill: rgb(75, 75, 75);"></path>
            <path class="st0" d="M445.571,353.614c3.102-7.278,5.558-13.031,1.746-21.504c-10.738-23.894-14.618-34.207-16.008-38.606
                c-1.242-0.75-2.375-1.562-3.527-2.363c-0.91-0.637-1.817-1.274-2.688-1.949c-1.766-1.367-3.41-2.801-4.961-4.282
                c-1.254-1.203-2.477-2.434-3.637-3.742c-0.946-1.058-1.875-2.121-2.73-3.218c-1.554-1.996-3.004-4.11-4.359-6.321
                c-0.527-0.851-1.062-1.699-1.551-2.562c-1.699-3.046-3.277-6.226-4.613-9.644c-0.008,0.007-0.02,0.011-0.028,0.019
                c-0.023-0.047-0.046-0.098-0.066-0.149c-1.538,1.168-3.179,2.352-4.859,3.532c-0.668,0.468-1.34,0.926-2.011,1.382
                c-2.887,1.973-5.993,3.93-9.27,5.859c-3.172,1.836-6.344,3.695-9.594,5.242c0,0,0.004,0.008,0.008,0.012
                c-0.046,0.023-0.094,0.05-0.141,0.074c3.426,5.242,7.242,9.801,11.219,11.966c1.875,17.394,9.473,38.09,15.55,46.625
                c9.25,12.902,6.664,34.434,2.879,53.77c-6.434,33.207-13.614,46.336-17.75,47.531c-1.586,0.422-3.394,0.875-5.335,1.324
                c-8.375,1.977-16.298,3.848-18.008,9.637c-0.618,2.004-0.489,5.887,2.973,9.508l1.133,1.195l1.582,0.164
                c1.035,0.094,2.168,0.192,3.332,0.321c4.946,0.515,15.778,0.906,21.211,0.969c8.082,0.098,9.442-1,12.156-2.551
                c4.141-2.363,6.79-11.672,15.91-40.742c1.422-4.558,2.782-8.859,3.848-12.058c3.683-11.027,12.609-37.539,16.262-46.367
                C444.696,355.583,445.149,354.552,445.571,353.614z" style="fill: rgb(75, 75, 75);"></path>
            <path class="st0" d="M509.59,328.876c-15.874-30.746-18.527-38.508-18.98-40.316c2.781-17.657,5.012-35.082,3.07-44.528
                c4.594-14.191,18.336-42.258-0.871-77.922c-6.758-12.543-21.5-23.086-30.07-27.969c-9.863-5.626-19.176-10.961-28.454-26.352
                c-16.586-27.515-36.507-56.875-62.859-56.875c-19.687,0-37.473,31.203-49.211,48.016c-5.43,7.793-7.402,12.062-15.969,12.062
                c-5.144,0-13.515-6.824-18.949-16.234c-8.535-14.809-26.254-45.168-49.598-45.168c-19.531,0-33.434,21.531-56.941,65.828
                c-7.504,14.102-20.078,33.274-32.95,44.782c-10.446,9.363-18.168,15.699-26.477,18.07c-0.347,0.09-0.691,0.215-1.039,0.293
                c6.738-19.898,11.422-73.246-1.434-88.207c-0.25-0.297-0.465-0.668-0.722-0.938c7.851-5.336,10.918-16.422,9.883-19.781
                c-0.578-1.875-3.618-3.332-9.051-3.332c-1.293,0-2.683,0.066-4.238,0.258c-2.812,0.293-5.816,1.102-9.05,2.394
                c-0.809-0.293-1.586-0.582-2.329-0.875c-11.187-4.234-18.105-6.851-25.965-6.851c-1.355,0-2.75,0.098-4.203,0.258
                c-5.465,0.614-9.538,2.942-13.484,5.172c-4.008,2.297-8.18,4.656-14.516,5.758c-1.906,0.321-3.914,0.614-6.078,0.871
                c-3.106,0.324-6.047,0.551-8.895,0.742c-2.519,0.195-4.914,0.359-7.144,0.617c-4.172,0.454-8.922,1.294-12.77,3.817
                c-3.656,2.422-8.442,7.886-9.894,15.355c-1.035,5.434-0.066,10.801,2.843,15.649c0,2.683,0.969,5.207,2.844,7.21
                c2.652,2.782,6.922,4.399,11.547,4.399c0.742,0,1.484-0.032,2.23-0.13c1.613-0.164,3.137-0.515,4.558-1.066
                c8.164,2.086,20.195,6.348,27.328,8.954c0.57,0.218,1.215,0.453,1.762,0.668c-8.797,16.75-23.074,46.91-14.507,81.851
                c8.179,33.559,36.179,71.942,80.511,72.684c0.418,0.031,0.871,0.031,1.325,0.031h0.84c25.066-0.27,37.801-19.558,43.011-30.43
                c0.367-0.734,0.699-1.426,0.996-2.062c0.301,0.27,0.524,0.492,0.68,0.645c1.324,2.652,7.66,15.617,13.254,28.098
                c2.848,6.305,5.497,12.511,7.242,17.172c4.883,13.125,15.394,25.152,19.336,29.39c-1.262,9.894-1.648,26.058,6.145,37.988
                c7.469,45.43,2.973,56.586-14.195,66.707c-4.106,2.426-8.34,7.274-8.051,12.286c0.195,3.137,2.168,5.758,5.367,7.145
                c1.875,0.808,5.918,1.91,19.141,1.91c6.145,0,11.578-0.226,12.774-0.293h0.289c1.52,0,3.817-0.449,5.918-2.714
                c3.332-3.559,7.726-12.868,7.566-52.317c-0.098-14.614-0.778-31.394-2.035-49.859v-0.387c-0.485-7.015-2.039-12.382-3.492-17.59
                c-0.973-3.328-1.879-6.465-2.524-10.086c-0.742-4.14,1.359-11.801,3.199-18.527c1.942-7.18,3.786-13.938,3.234-18.914
                c-0.363-3.266-1.473-6.718-2.687-9.98c-0.262-0.793-0.434-1.457-0.73-2.313c13.226,4.09,33.152,6.633,53.988,6.633
                c11.965,0,23.895-0.809,35.438-2.426c17.493-2.457,32.594-7.758,45.168-13.969c16.145-7.946,28.055-17.438,35.563-24.414
                c1.234-1.117,2.398-2.195,3.453-3.203c3.012,13.598,8.355,30.684,23.035,42.235c4.332,3.426,9.504,6.367,15.649,8.598
                c2.812,17.266,11.511,37.508,18.074,45.687c9.926,12.418,8.504,34.051,5.79,53.547c-4.657,33.496-11.059,47.012-15.164,48.402
                c-1.555,0.55-3.363,1.066-5.238,1.617c-8.278,2.458-16.07,4.719-17.493,10.606c-0.488,2.035-0.293,5.203,3.364,8.664l1.164,1.098
                l1.613,0.066c1.035,0.066,2.168,0.13,3.332,0.165c4.946,0.258,11.09,0.578,16.555,0.578c8.473,0,13.191-0.742,15.777-2.422
                c4.043-2.586,7.211-12.836,14.746-42.356c1.164-4.625,2.293-9.023,3.199-12.289c3.074-11.187,10.543-38.152,13.711-47.176
                c0.386-1.098,0.778-2.168,1.129-3.137C511.692,343.009,513.857,337.122,509.59,328.876z M59.539,92.227
                c0-2.778,2.004-5.043,4.461-5.043c2.426,0,4.43,2.266,4.43,5.043c0,2.817-2.004,5.078-4.43,5.078
                C61.543,97.305,59.539,95.044,59.539,92.227z" style="fill: rgb(75, 75, 75);"></path>
        </g>
    </svg>
