
<svg width="120" height="120" viewBox="0 0 120 120"  xmlns="http://www.w3.org/2000/svg"><path d="M57.700 0.119 C 57.370 0.167,56.249 0.395,55.209 0.627 C 53.461 1.016,51.678 1.868,31.526 11.939 C 19.541 17.929,9.193 23.198,8.530 23.648 C 4.667 26.271,1.597 30.863,0.472 35.700 C 0.121 37.210,0.100 38.576,0.100 60.000 C 0.100 85.317,0.026 83.862,1.501 87.538 C 2.867 90.940,5.824 94.598,8.800 96.568 C 9.515 97.041,19.730 102.239,31.500 108.119 C 56.162 120.439,54.821 119.883,59.900 119.894 C 63.173 119.901,64.630 119.643,67.341 118.578 C 69.506 117.727,109.700 97.557,111.200 96.569 C 114.030 94.704,117.087 90.984,118.394 87.815 C 118.710 87.048,119.179 85.628,119.435 84.660 L 119.900 82.900 119.900 60.100 C 119.900 38.578,119.879 37.210,119.528 35.700 C 118.403 30.863,115.333 26.271,111.470 23.648 C 110.807 23.198,100.463 17.931,88.483 11.943 C 64.080 -0.252,65.205 0.225,60.600 0.097 C 59.335 0.062,58.030 0.072,57.700 0.119 M64.791 20.601 C 68.105 21.410,71.646 23.417,74.114 25.886 C 76.593 28.364,78.562 31.847,79.445 35.312 L 79.900 37.100 79.900 60.000 L 79.900 82.900 79.445 84.688 C 77.610 91.893,72.167 97.429,65.024 99.355 C 63.343 99.808,62.709 99.874,60.000 99.874 C 57.291 99.874,56.657 99.808,54.976 99.355 C 50.269 98.086,46.201 95.231,43.562 91.344 C 42.366 89.582,41.073 86.720,40.555 84.688 L 40.100 82.900 40.100 60.000 L 40.100 37.100 40.555 35.312 C 41.078 33.258,42.363 30.425,43.611 28.575 C 46.518 24.265,51.684 21.073,57.163 20.202 C 58.917 19.922,62.858 20.129,64.791 20.601 M57.902 30.235 C 55.184 30.753,52.260 33.048,51.033 35.627 C 48.145 41.695,51.871 48.808,58.477 49.835 C 63.908 50.679,68.990 46.961,69.835 41.523 C 70.333 38.317,69.340 35.304,67.018 32.982 C 64.564 30.528,61.386 29.571,57.902 30.235 " style="fill:#e4e4e7" ></path></svg>

