<?xml version="1.0" encoding="utf-8"?>
<svg preserveAspectRatio="xMidYMid" version="1.1" viewBox="0 0 256 256" xmlns="http://www.w3.org/2000/svg">
  <g transform="matrix(0.592336, 0, 0, 0.592336, 52.180992, 4.794112)">
    <path d="M 0 288 L 0 192 C 0 188.565 47.207 183.654 101.078 176.001 C 47.207 168.347 0 163.435 0 160 L 0 64 C 0 56 256 40 256 0 L 256 96 C 256 101.827 250.567 107.145 241.284 112.003 C 250.567 116.86 256 122.176 256 128 L 256 224 C 256 229.827 250.567 235.145 241.284 240.003 C 250.567 244.86 256 250.176 256 256 L 256 352 C 256 392 0 408 0 416 L 0 320 C 0 316.565 47.207 311.654 101.078 304.001 C 47.207 296.347 0 291.435 0 288 Z" style="fill: rgb(228, 228, 231);"/>
    <path d="M -0.5 288 L -0.5 192 C -0.442 191.625 -0.147 191.183 0.276 190.916 C 0.667 190.669 1.254 190.413 1.972 190.167 C 3.389 189.682 5.475 189.171 8.119 188.637 C 13.397 187.572 20.996 186.395 30.268 185.087 C 48.807 182.473 71.893 179.604 97.506 176.001 C 71.893 172.398 48.807 169.528 30.268 166.913 C 20.996 165.606 13.397 164.428 8.119 163.363 C 5.475 162.829 3.389 162.318 1.972 161.833 C 1.254 161.587 0.667 161.331 0.276 161.085 C -0.147 160.817 -0.442 160.375 -0.5 160 L -0.5 64 C -0.429 63.576 -0.055 63.089 0.494 62.788 C 1.008 62.505 1.776 62.212 2.73 61.924 C 4.624 61.352 7.402 60.744 10.91 60.102 C 17.919 58.819 27.931 57.38 39.933 55.755 C 63.935 52.504 95.93 48.505 127.923 43.506 C 159.915 38.507 191.881 32.514 215.855 25.271 C 227.836 21.652 237.776 17.738 244.739 13.48 C 251.674 9.238 255.561 4.836 255.5 0 L 256.5 0 L 256.5 96 C 256.425 102.006 251.187 107.212 242.347 112.003 C 251.689 116.903 256.425 121.997 256.5 128 L 256.5 224 C 256.425 230.006 251.187 235.212 242.347 240.003 C 251.689 244.903 256.425 249.997 256.5 256 L 256.5 352 C 256.439 357.164 252.326 362.012 245.261 366.333 C 238.224 370.637 228.164 374.598 216.145 378.229 C 192.119 385.486 160.085 391.493 128.077 396.494 C 96.07 401.495 64.065 405.496 40.067 408.745 C 28.069 410.37 18.081 411.806 11.09 413.086 C 7.598 413.725 4.876 414.32 3.02 414.881 C 2.099 415.159 1.429 415.415 0.975 415.664 C 0.555 415.895 0.429 415.924 0.5 416 L -0.5 414.923 L -0.5 320 C -0.442 319.625 -0.147 319.183 0.276 318.916 C 0.667 318.669 1.254 318.413 1.972 318.167 C 3.389 317.682 5.475 317.171 8.119 316.637 C 13.397 315.572 20.996 314.395 30.268 313.087 C 48.807 310.473 71.893 307.604 97.506 304.001 C 71.893 300.398 48.807 297.528 30.268 294.913 C 20.996 293.606 13.397 292.428 8.119 291.363 C 5.475 290.829 3.389 290.318 1.972 289.833 C 1.254 289.587 0.667 289.331 0.276 289.085 C -0.147 288.817 -0.442 288.375 -0.5 288 Z M 0.81 288.239 C 1.137 288.445 1.617 288.654 2.296 288.887 C 3.671 289.358 5.693 289.853 8.317 290.383 C 13.573 291.444 21.143 292.617 30.407 293.923 C 48.939 296.537 74.209 299.678 101.148 303.506 L 104.633 304.001 L 101.148 304.496 C 74.209 308.323 48.939 311.464 30.407 314.077 C 21.143 315.384 13.573 316.557 8.317 317.617 C 5.693 318.147 3.67 318.643 2.296 319.113 C 1.617 319.346 1.137 319.555 0.81 319.761 C 0.516 319.947 0.442 319.946 0.5 320 L 0.5 414.784 C 1.014 414.503 1.78 414.211 2.73 413.924 C 4.624 413.352 7.402 412.744 10.91 412.102 C 17.919 410.819 27.931 409.38 39.933 407.755 C 63.935 404.504 95.93 400.505 127.923 395.506 C 159.915 390.507 191.881 384.514 215.855 377.271 C 227.836 373.652 237.776 369.738 244.739 365.48 C 251.674 361.238 255.561 356.836 255.5 352 L 255.5 256 C 255.575 250.355 250.276 245.26 241.052 240.446 L 240.203 240.003 L 241.052 239.56 C 250.276 234.745 255.575 229.648 255.5 224 L 255.5 128 C 255.575 122.355 250.276 117.26 241.052 112.446 L 240.203 112.003 L 241.052 111.56 C 250.276 106.745 255.575 101.648 255.5 96 L 255.5 4.302 C 253.875 7.865 252.326 10.012 245.261 14.333 C 238.224 18.637 228.164 22.598 216.145 26.229 C 192.119 33.486 160.085 39.493 128.077 44.494 C 96.07 49.495 64.065 53.496 40.067 56.745 C 28.069 58.37 18.081 59.806 11.09 61.086 C 7.598 61.725 4.876 62.32 3.02 62.881 C 2.099 63.159 1.429 63.415 0.975 63.664 C 0.555 63.895 0.429 63.924 0.5 64 L 0.5 160 C 0.442 160.054 0.516 160.053 0.81 160.239 C 1.137 160.445 1.617 160.654 2.296 160.887 C 3.671 161.358 5.693 161.853 8.317 162.383 C 13.573 163.444 21.143 164.617 30.407 165.923 C 48.939 168.537 74.209 171.678 101.148 175.506 L 104.633 176.001 L 101.148 176.496 C 74.209 180.323 48.939 183.464 30.407 186.077 C 21.143 187.384 13.573 188.557 8.317 189.617 C 5.693 190.147 3.671 190.643 2.296 191.113 C 1.617 191.346 1.137 191.555 0.81 191.761 C 0.516 191.947 0.442 191.946 0.5 192 L 0.5 288 C 0.442 288.054 0.516 288.053 0.81 288.239 Z" style="fill: none;"/>
  </g>
</svg>