<?xml version="1.0" encoding="utf-8"?>
<svg viewBox="0 0 128 128" xmlns="http://www.w3.org/2000/svg">
  <path d="M 110.846 18.026 C 99.182 1.33 76.145 -3.618 59.489 6.995 L 30.236 25.639 C 22.247 30.666 16.741 38.826 15.075 48.118 C 13.68 55.859 14.906 63.844 18.56 70.809 C 16.056 74.607 14.348 78.875 13.54 83.352 C 11.856 92.822 14.059 102.571 19.649 110.399 C 31.317 127.094 54.353 132.04 71.007 121.428 L 100.259 102.784 C 108.251 97.757 113.754 89.597 115.421 80.305 C 116.816 72.564 115.59 64.581 111.939 57.615 C 114.442 53.815 116.148 49.549 116.956 45.072 C 118.641 35.602 116.439 25.852 110.847 18.026" style="fill: rgb(255, 255, 255);"/>
  <path d="M 56.632 111.968 C 47.202 114.421 37.245 110.729 31.692 102.725 C 28.328 98.017 27.004 92.154 28.017 86.459 C 28.187 85.534 28.421 84.622 28.716 83.728 L 29.267 82.048 L 30.766 83.148 C 34.226 85.692 38.097 87.626 42.209 88.866 L 43.295 89.195 L 43.195 90.28 C 43.063 91.825 43.481 93.366 44.376 94.63 C 46.046 97.042 49.045 98.155 51.884 97.418 C 52.52 97.247 53.125 96.982 53.681 96.627 L 82.935 77.986 C 84.382 77.074 85.381 75.596 85.683 73.914 C 85.987 72.196 85.588 70.43 84.576 69.011 C 82.903 66.598 79.905 65.485 77.064 66.222 C 76.43 66.393 75.823 66.658 75.269 67.012 L 64.107 74.128 C 62.271 75.295 60.268 76.174 58.166 76.735 C 48.737 79.187 38.78 75.496 33.227 67.491 C 29.863 62.784 28.539 56.921 29.552 51.226 C 30.555 45.638 33.864 40.732 38.67 37.71 L 67.921 19.067 C 69.757 17.897 71.762 17.017 73.865 16.454 C 83.294 14.003 93.252 17.694 98.805 25.699 C 102.168 30.405 103.492 36.268 102.48 41.964 C 102.309 42.889 102.076 43.802 101.781 44.696 L 101.23 46.376 L 99.732 45.277 C 96.27 42.733 92.401 40.798 88.288 39.557 L 87.2 39.227 L 87.302 38.142 C 87.433 36.599 87.014 35.058 86.122 33.792 C 84.449 31.381 81.451 30.269 78.612 31.005 C 77.976 31.176 77.371 31.442 76.815 31.795 L 47.562 50.439 C 46.115 51.349 45.117 52.827 44.815 54.51 C 44.51 56.225 44.909 57.993 45.921 59.412 C 47.593 61.824 50.591 62.937 53.433 62.201 C 54.068 62.031 54.673 61.763 55.23 61.412 L 66.39 54.298 C 68.225 53.129 70.228 52.249 72.33 51.687 C 81.76 49.235 91.717 52.926 97.27 60.931 C 100.633 65.639 101.958 71.502 100.946 77.196 C 99.941 82.785 96.632 87.692 91.826 90.716 L 62.576 109.357 C 60.739 110.527 58.735 111.407 56.632 111.968" style="fill: rgb(28, 33, 56);"/>
</svg>