<svg xmlns="http://www.w3.org/2000/svg" id="Swift" viewBox="0 0 128 128"><defs><style/></defs><path style="fill:#e4e4e7" id="orignal" d="M126.34 34.06v59.88a78.43 78.43 0 0 1-.79 7.83 23.607 23.607 0 0 1-2.65 7.58 22.412 22.412 0 0 1-4.76 6.32 30.132 30.132 0 0 1-6.62 4.55 27.274 27.274 0 0 1-7.68 2.53 45.047 45.047 0 0 1-8.21.76H32.41c-2.65-.25-5.56-.25-8.21-.76a27.274 27.274 0 0 1-7.68-2.53 23.411 23.411 0 0 1-6.62-4.55 28.87 28.87 0 0 1-4.76-6.32 28.791 28.791 0 0 1-2.65-7.58 39.296 39.296 0 0 1-.79-7.83V33.55a78.43 78.43 0 0 1 .79-7.83 23.607 23.607 0 0 1 2.65-7.58 22.412 22.412 0 0 1 4.76-6.32c.53-.5 1.06-.75 1.59-1.26a33.878 33.878 0 0 1 5-3.28c.53-.25 1.32-.51 1.85-.76A21.837 21.837 0 0 1 24.16 5a45.493 45.493 0 0 1 6.09-.51h65.37c2.65.25 5.56.25 8.21.76 2.672.457 5.26 1.31 7.68 2.53a23.411 23.411 0 0 1 6.62 4.55 28.87 28.87 0 0 1 4.76 6.32 28.791 28.791 0 0 1 2.65 7.58c.525 2.577.789 5.2.79 7.83ZM95.702 94.783c3.958.238 7.849 1.952 10.607 7.232.122.211.331.442.521.517.224.088.6.007.778-.138.267-.216.523-.729.683-1.326.306-1.141.471-3.062.252-5.411-.435-4.656-2.417-11.293-7.76-17.698l-.016-.019c.13-.44.232-.758.376-1.301 2.674-9.838.813-20.7-4.424-30.557-5.232-9.849-13.884-18.847-24.659-25.075l-2.171-1.255 1.524 1.991C80.631 33.791 84.83 48.22 81.12 60.972c-.333 1.178-.505 1.767-.97 2.9-.348-.212-.498-.304-1.209-.685a265.953 265.953 0 0 1-44.373-34.796l-.756.649c8.162 11.477 15.645 20.428 24.5 29.751-8.462-5.241-23.005-15.275-35.143-25.868l-2.557-2.231 1.804 2.874a44.254 44.254 0 0 0 5.338 6.884C37.82 52.836 50.741 67.574 66.68 79.27c-11.008 6.211-26.026 6.672-41.786-.406a49.288 49.288 0 0 1-10.75-6.261l-2.401-1.84 1.681 2.515a65.33 65.33 0 0 0 29.638 24.155c15.474 6.308 30.932 5.68 42.153-.48 2.671-1.079 6.535-2.408 10.487-2.17Z"/></svg>