<svg width="32" height="32" viewBox="0 0 32 32" fill="none" xmlns="http://www.w3.org/2000/svg">
<g clip-path="url(#clip0_406_3144)">
<path d="M23.9963 28.8H7.86019C5.4936 28.8 4.05884 26.1879 5.3284 24.1906L12.4195 13.0351V6.8072H12.302C11.5268 6.8072 10.8984 6.17878 10.8984 5.4036C10.8984 4.62841 11.5269 4 12.302 4H19.2698C20.045 4 20.6734 4.62841 20.6734 5.4036C20.6734 6.17878 20.045 6.8072 19.2698 6.8072H19.1002V13.0351L26.4934 24.1372C27.8211 26.1309 26.3917 28.8 23.9963 28.8Z" stroke="#FD366E" stroke-width="1.2" stroke-linecap="round"/>
<path d="M26.3301 24.0899L21.827 17.6001H9.19844L5.16515 24.2432C3.95131 26.2424 5.39061 28.8001 7.72951 28.8001H23.8653C26.2868 28.8001 27.7105 26.0793 26.3301 24.0899Z" fill="url(#paint0_linear_406_3144)"/>
<path d="M9.59961 17.6001H14.7996M21.9996 17.6001H18.8996" stroke="#FD366E" stroke-width="1.2" stroke-linecap="round"/>
<circle cx="12.3984" cy="22.7998" r="1.4" fill="url(#paint1_linear_406_3144)" stroke="white" stroke-width="1.2" stroke-linecap="round"/>
<circle cx="16.7984" cy="17.6002" r="1.8" fill="url(#paint2_linear_406_3144)" stroke="white" stroke-width="1.2" stroke-linecap="round"/>
</g>
<defs>
<linearGradient id="paint0_linear_406_3144" x1="15.9984" y1="17.3003" x2="15.9984" y2="27.1573" gradientUnits="userSpaceOnUse">
<stop stop-color="#FD366E" stop-opacity="0"/>
<stop offset="1" stop-color="#FD366E" stop-opacity="0.4"/>
</linearGradient>
<linearGradient id="paint1_linear_406_3144" x1="12.3984" y1="20.7998" x2="12.3984" y2="24.7998" gradientUnits="userSpaceOnUse">
<stop stop-color="white" stop-opacity="0"/>
<stop offset="1" stop-color="white" stop-opacity="0.4"/>
</linearGradient>
<linearGradient id="paint2_linear_406_3144" x1="16.7984" y1="15.2002" x2="16.7984" y2="20.0002" gradientUnits="userSpaceOnUse">
<stop stop-color="white" stop-opacity="0"/>
<stop offset="1" stop-color="white" stop-opacity="0.4"/>
</linearGradient>
<clipPath id="clip0_406_3144">
<rect width="32" height="32" fill="white"/>
</clipPath>
</defs>
</svg>
