<svg width="32" height="32" viewBox="0 0 32 32" fill="none" xmlns="http://www.w3.org/2000/svg">
<path fill-rule="evenodd" clip-rule="evenodd" d="M7.60039 14.1018C7.60039 11.5921 9.08128 7.2002 14.4004 7.2002C17.5695 7.2002 19.3046 8.83345 20.2321 10.6403C20.659 10.485 21.1198 10.4002 21.6004 10.4002C23.8095 10.4002 25.6004 12.1911 25.6004 14.4002C25.6004 14.5864 25.5877 14.7697 25.563 14.9492C27.6597 15.7504 29.6004 17.2178 29.6004 19.7486C29.6004 24.266 25.1678 24.9771 22.9515 24.7679H9.04928C6.83298 24.9771 2.40039 24.266 2.40039 19.7486C2.40039 14.1018 6.99595 14.1018 7.60039 14.1018Z" fill="url(#paint0_linear_406_3149)"/>
<path d="M7.60039 14.1018V14.7018C7.93176 14.7018 8.20039 14.4332 8.20039 14.1018H7.60039ZM20.2321 10.6403L19.6984 10.9143C19.8365 11.1834 20.1532 11.3076 20.4374 11.2041L20.2321 10.6403ZM25.563 14.9492L24.9686 14.8676C24.9307 15.144 25.0882 15.4101 25.3488 15.5097L25.563 14.9492ZM22.9515 24.7679L23.0079 24.1706C22.9891 24.1688 22.9703 24.1679 22.9515 24.1679V24.7679ZM9.04928 24.7679V24.1679C9.03046 24.1679 9.01165 24.1688 8.99291 24.1706L9.04928 24.7679ZM14.4004 7.2002V6.6002C11.5485 6.6002 9.66926 7.79024 8.52186 9.35508C7.39532 10.8915 7.00039 12.7493 7.00039 14.1018H7.60039H8.20039C8.20039 12.9446 8.54591 11.3517 9.48959 10.0647C10.4124 8.80612 11.9332 7.8002 14.4004 7.8002V7.2002ZM20.2321 10.6403L20.7659 10.3663C19.7544 8.39585 17.8328 6.6002 14.4004 6.6002V7.2002V7.8002C17.3062 7.8002 18.8548 9.27106 19.6984 10.9143L20.2321 10.6403ZM20.2321 10.6403L20.4374 11.2041C20.7994 11.0724 21.1908 11.0002 21.6004 11.0002V10.4002V9.8002C21.0488 9.8002 20.5186 9.89755 20.0269 10.0765L20.2321 10.6403ZM21.6004 10.4002V11.0002C23.4782 11.0002 25.0004 12.5224 25.0004 14.4002H25.6004H26.2004C26.2004 11.8597 24.1409 9.8002 21.6004 9.8002V10.4002ZM25.6004 14.4002H25.0004C25.0004 14.5591 24.9895 14.7151 24.9686 14.8676L25.563 14.9492L26.1574 15.0308C26.1858 14.8244 26.2004 14.6138 26.2004 14.4002H25.6004ZM29.6004 19.7486H30.2004C30.2004 16.8332 27.946 15.2175 25.7772 14.3887L25.563 14.9492L25.3488 15.5097C27.3733 16.2833 29.0004 17.6025 29.0004 19.7486H29.6004ZM22.9515 24.7679L22.8951 25.3653C24.0782 25.4769 25.8649 25.3485 27.3827 24.5637C28.9453 23.7556 30.2004 22.2551 30.2004 19.7486H29.6004H29.0004C29.0004 21.7595 28.0391 22.8732 26.8315 23.4978C25.5788 24.1455 24.0411 24.2681 23.0079 24.1706L22.9515 24.7679ZM9.04928 24.7679V25.3679H22.9515V24.7679V24.1679H9.04928V24.7679ZM2.40039 19.7486H1.80039C1.80039 22.2551 3.05544 23.7556 4.61812 24.5637C6.13587 25.3485 7.92256 25.4769 9.10565 25.3653L9.04928 24.7679L8.99291 24.1706C7.95971 24.2681 6.42195 24.1455 5.16933 23.4978C3.96164 22.8732 3.00039 21.7595 3.00039 19.7486H2.40039ZM7.60039 14.1018V13.5018C7.28222 13.5018 5.84425 13.498 4.47407 14.2878C3.04986 15.1088 1.80039 16.7273 1.80039 19.7486H2.40039H3.00039C3.00039 17.1231 4.0487 15.9182 5.07338 15.3275C6.15209 14.7056 7.31412 14.7018 7.60039 14.7018V14.1018Z" fill="#FD366E"/>
<defs>
<linearGradient id="paint0_linear_406_3149" x1="16.0022" y1="7.0002" x2="16.0022" y2="25.0002" gradientUnits="userSpaceOnUse">
<stop stop-color="#FD366E" stop-opacity="0"/>
<stop offset="1" stop-color="#FD366E" stop-opacity="0.32"/>
</linearGradient>
</defs>
</svg>
