<svg width="32" height="32" viewBox="0 0 32 32" fill="none" xmlns="http://www.w3.org/2000/svg">
<path d="M13.4922 5.11279C14.6257 3.8859 16.5735 3.8859 17.707 5.11279L17.9854 5.43018C18.8462 6.35296 20.0909 6.8284 21.3564 6.70557C23.1566 6.53074 24.669 8.04313 24.4941 9.84326C24.3713 11.1088 24.8467 12.3535 25.7695 13.2144L26.0869 13.4927C27.3138 14.6262 27.3138 16.574 26.0869 17.7075L25.7695 17.9858C24.8467 18.8467 24.3713 20.0914 24.4941 21.3569C24.669 23.1571 23.1566 24.6695 21.3564 24.4946C20.0909 24.3718 18.8462 24.8472 17.9854 25.77L17.707 26.0874C16.5735 27.3143 14.6257 27.3143 13.4922 26.0874L13.2139 25.77C12.353 24.8472 11.1083 24.3718 9.84277 24.4946C8.04264 24.6695 6.53025 23.1571 6.70508 21.3569C6.82791 20.0914 6.35247 18.8467 5.42969 17.9858L5.1123 17.7075C3.88541 16.574 3.88541 14.6262 5.1123 13.4927L5.42969 13.2144C6.35247 12.3535 6.82792 11.1088 6.70508 9.84326C6.53025 8.04313 8.04264 6.53074 9.84277 6.70557C11.1083 6.8284 12.353 6.35296 13.2139 5.43018L13.4922 5.11279Z" fill="url(#paint0_linear_406_3126)" stroke="#FD366E" stroke-width="1.2"/>
<path d="M12 16.0001L14.4 18.4001L19.2 13.6001" stroke="white" stroke-width="1.2" stroke-linecap="round" stroke-linejoin="round"/>
<defs>
<linearGradient id="paint0_linear_406_3126" x1="15.5996" y1="1.6001" x2="15.5996" y2="29.6001" gradientUnits="userSpaceOnUse">
<stop stop-color="#FD366E" stop-opacity="0"/>
<stop offset="1" stop-color="#FD366E" stop-opacity="0.4"/>
</linearGradient>
</defs>
</svg>
