<svg width="20" height="20" viewBox="0 0 20 20" fill="none" xmlns="http://www.w3.org/2000/svg">
<path d="M14.2857 17V14.5132H15.5C16.6046 14.5132 17.5 13.6177 17.5 12.5132V5.5C17.5 4.39543 16.6046 3.5 15.5 3.5H4.5C3.39543 3.5 2.5 4.39543 2.5 5.5V12.5132C2.5 13.6177 3.39543 14.5132 4.5 14.5132H11.0714L14.2857 17Z" fill="url(#paint0_linear_7476_8036)"/>
<path d="M14.2857 14.5132V14.1382H13.9107V14.5132H14.2857ZM14.2857 17L14.0562 17.2966C14.1694 17.3841 14.3225 17.3997 14.4509 17.3367C14.5793 17.2736 14.6607 17.1431 14.6607 17H14.2857ZM11.0714 14.5132L11.3009 14.2166L11.1996 14.1382H11.0714V14.5132ZM13.9107 14.5132V17H14.6607V14.5132H13.9107ZM14.5152 16.7034L11.3009 14.2166L10.842 14.8098L14.0562 17.2966L14.5152 16.7034ZM11.0714 14.1382H4.5V14.8882H11.0714V14.1382ZM2.875 12.5132V5.5H2.125V12.5132H2.875ZM4.5 3.875H15.5V3.125H4.5V3.875ZM17.125 5.5V12.5132H17.875V5.5H17.125ZM15.5 14.1382H14.2857V14.8882H15.5V14.1382ZM17.125 12.5132C17.125 13.4106 16.3975 14.1382 15.5 14.1382V14.8882C16.8117 14.8882 17.875 13.8248 17.875 12.5132H17.125ZM15.5 3.875C16.3975 3.875 17.125 4.60254 17.125 5.5H17.875C17.875 4.18832 16.8117 3.125 15.5 3.125V3.875ZM2.875 5.5C2.875 4.60254 3.60254 3.875 4.5 3.875V3.125C3.18832 3.125 2.125 4.18833 2.125 5.5H2.875ZM4.5 14.1382C3.60254 14.1382 2.875 13.4106 2.875 12.5132H2.125C2.125 13.8248 3.18832 14.8882 4.5 14.8882V14.1382Z" fill="white"/>
<path d="M4.5 10H8" stroke="white" stroke-width="0.75" stroke-linecap="round" stroke-linejoin="round"/>
<path d="M4.5 8H15.5" stroke="white" stroke-width="0.75" stroke-linecap="round" stroke-linejoin="round"/>
<defs>
<linearGradient id="paint0_linear_7476_8036" x1="10" y1="3.5" x2="10" y2="17" gradientUnits="userSpaceOnUse">
<stop stop-color="white" stop-opacity="0"/>
<stop offset="1" stop-color="white" stop-opacity="0.4"/>
</linearGradient>
</defs>
</svg>
