<svg xmlns="http://www.w3.org/2000/svg" width="378" height="27" fill="none" viewBox="0 0 378 27"><path fill="#818186" d="M3.804 17.8599H0.96V9.45986H3.72C5.532 9.45986 6.48 10.3239 6.48 11.6799C6.48 12.6279 5.94 13.2279 5.124 13.5039C6.036 13.6719 6.84 14.2479 6.84 15.4599C6.84 16.9479 5.832 17.8599 3.804 17.8599ZM2.004 10.4079V13.1079H3.768C4.872 13.1079 5.436 12.6039 5.436 11.7519C5.436 10.9119 4.884 10.4079 3.768 10.4079H2.004ZM2.004 14.0439V16.9119H3.804C5.136 16.9119 5.772 16.3719 5.772 15.5079C5.772 14.5599 5.076 14.0439 3.804 14.0439H2.004ZM12.3717 17.9319C10.4277 17.9319 9.33572 16.8039 9.33572 14.6079V9.45986H10.3797V14.5959C10.3797 16.1919 11.0877 16.9719 12.3717 16.9719C13.6797 16.9719 14.3877 16.2039 14.3877 14.5959V9.45986H15.4317V14.6079C15.4317 16.8039 14.3397 17.9319 12.3717 17.9319ZM22.7678 9.45986V10.3239H20.9318V16.9959H22.7678V17.8599H18.0398V16.9959H19.8878V10.3239H18.0398V9.45986H22.7678ZM30.2848 17.8599H25.4728V9.45986H26.5168V16.8999H30.2848V17.8599ZM34.886 17.8599H33.842V10.4199H31.118V9.45986H37.61V10.4199H34.886V17.8599ZM46.9151 17.8599H45.6911L44.2991 9.45986H45.2951L46.3871 16.5159L47.6351 11.6079H48.6191L49.8311 16.5159L50.9231 9.45986H51.9191L50.5031 17.8599H49.2911L48.1031 13.0959L46.9151 17.8599ZM58.728 9.45986V10.3239H56.892V16.9959H58.728V17.8599H54V16.9959H55.848V10.3239H54V9.45986H58.728ZM64.601 17.8599H63.557V10.4199H60.833V9.45986H67.325V10.4199H64.601V17.8599ZM70.644 17.8599H69.6V9.45986H70.644V13.1079H74.448V9.45986H75.492V17.8599H74.448V14.0679H70.644V17.8599Z"/><path fill="#19191D" d="M114.209 19.5852C115.845 19.5852 116.672 18.7348 117.031 18.1558H117.193C117.265 18.771 117.696 19.35 118.541 19.35H120.14V17.5406H119.727C119.44 17.5406 119.296 17.3778 119.296 17.1245V9.86901H117.175V11.027H117.013C116.6 10.448 115.737 9.6338 114.155 9.6338C111.639 9.6338 109.77 11.7326 109.77 14.6095C109.77 17.4863 111.675 19.5852 114.209 19.5852ZM114.587 17.5225C113.095 17.5225 111.927 16.4188 111.927 14.6276C111.927 12.8725 113.059 11.6784 114.569 11.6784C116.007 11.6784 117.211 12.7459 117.211 14.6276C117.211 16.2379 116.186 17.5225 114.587 17.5225Z"/><path fill="#19191D" d="M121.393 23.0263H123.513V18.1558H123.675C124.071 18.7348 124.915 19.5852 126.587 19.5852C129.103 19.5852 130.936 17.4502 130.936 14.6095C130.936 11.7507 128.977 9.6338 126.443 9.6338C124.826 9.6338 124.035 10.5204 123.657 11.0089H123.496V9.86901H121.393V23.0263ZM126.138 17.5768C124.682 17.5768 123.478 16.4912 123.478 14.6095C123.478 12.9992 124.502 11.6422 126.102 11.6422C127.593 11.6422 128.762 12.8182 128.762 14.6095C128.762 16.3645 127.629 17.5768 126.138 17.5768Z"/><path fill="#19191D" d="M132.031 23.0263H134.152V18.1558H134.313C134.709 18.7348 135.554 19.5852 137.225 19.5852C139.741 19.5852 141.4 17.4502 141.4 14.6095C141.4 11.7507 139.615 9.6338 137.081 9.6338C135.464 9.6338 134.673 10.5204 134.295 11.0089H134.134V9.86901H132.031V23.0263ZM136.776 17.5768C135.32 17.5768 134.116 16.4912 134.116 14.6095C134.116 12.9992 135.14 11.6422 136.74 11.6422C138.232 11.6422 139.4 12.8182 139.4 14.6095C139.4 16.3645 138.267 17.5768 136.776 17.5768Z"/><path fill="#19191D" d="M144.203 19.5701H147.205L148.912 12.1337H149.02L150.728 19.5701H153.711L156.1 10.0892H153.963L152.255 17.5437H152.094L150.386 10.0892H147.564L145.839 17.5437H145.677L143.988 10.0892H141.723L144.203 19.5701Z"/><path fill="#19191D" d="M157.175 19.5701H159.296V14.8839C159.296 13.0927 160.122 11.989 161.668 11.989H162.603V9.85396H161.902C160.698 9.85396 159.781 10.6863 159.421 11.4824H159.278V10.0892H157.175V19.5701Z"/><path fill="#19191D" d="M173.127 19.5701H174.781V17.6703H173.145C172.498 17.6703 172.229 17.3808 172.229 16.7114V11.9709H174.889V10.0892H172.229V7.42944H170.216V10.0892H168.454V11.9709H170.09V16.7295C170.09 18.7378 171.294 19.5701 173.127 19.5701Z"/><path fill="#19191D" d="M180.471 19.5852C182.43 19.5852 184.155 18.6081 184.766 16.6359L182.825 16.1655C182.484 17.2149 181.495 17.7577 180.453 17.7577C178.907 17.7577 177.883 16.7445 177.865 15.1523H185V14.5552C185 11.7326 183.257 9.6338 180.381 9.6338C177.847 9.6338 175.672 11.6422 175.672 14.6276C175.672 17.5225 177.595 19.5852 180.471 19.5852ZM177.883 13.5963C178.008 12.4564 179.033 11.4974 180.381 11.4974C181.675 11.4974 182.735 12.3116 182.843 13.5963H177.883Z"/><path fill="#19191D" fill-rule="evenodd" d="M167.511 19.5701H165.39V11.9709H163.737V10.0892H167.511V19.5701Z" clip-rule="evenodd"/><path fill="#19191D" d="M166.293 8.7735C167.066 8.7735 167.641 8.19451 167.641 7.43459C167.641 6.69276 167.066 6.11377 166.293 6.11377C165.52 6.11377 164.945 6.69276 164.945 7.43459C164.945 8.19451 165.52 8.7735 166.293 8.7735Z"/><path fill="#FD366E" d="M103.517 17.2455V21.4296H93.1454C90.1236 21.4296 87.4852 19.7468 86.0736 17.2455C85.8683 16.8818 85.6887 16.5003 85.5381 16.1044C85.2423 15.3284 85.0564 14.4958 85 13.627V12.4957C85.0122 12.3021 85.0315 12.11 85.0568 11.9202C85.1084 11.5307 85.1863 11.1496 85.2887 10.7791C86.2576 7.26673 89.4082 4.69312 93.1454 4.69312C96.8826 4.69312 100.033 7.26673 101.002 10.7791H96.5668C95.8388 9.63418 94.5785 8.87724 93.1454 8.87724C91.7123 8.87724 90.452 9.63418 89.724 10.7791C89.502 11.1272 89.3299 11.5109 89.2171 11.9202C89.1169 12.2831 89.0634 12.6658 89.0634 13.0614C89.0634 14.2607 89.5555 15.3417 90.3444 16.1044C91.0755 16.8122 92.0611 17.2455 93.1454 17.2455H103.517Z"/><path fill="#FD366E" d="M103.517 11.9202V16.1043H95.9464C96.7353 15.3416 97.2274 14.2606 97.2274 13.0613C97.2274 12.6657 97.1739 12.283 97.0737 11.9202H103.517Z"/><line x1="201.25" x2="201.25" y1="7.86" y2="19.86" stroke="#D8D8DB" stroke-width=".5"/><path fill="#818186" d="M219.004 17.8599H217.96V9.45986H221.032C222.736 9.45986 223.864 10.4679 223.864 12.0399C223.864 13.6119 222.736 14.6319 221.032 14.6319H219.004V17.8599ZM219.004 10.4199V13.6719H220.936C222.064 13.6719 222.796 13.0359 222.796 12.0399C222.796 11.0439 222.076 10.4199 220.948 10.4199H219.004ZM229.482 17.9319C227.406 17.9319 226.026 16.2759 226.026 13.6599C226.026 11.0439 227.406 9.38786 229.482 9.38786C231.57 9.38786 232.962 11.0559 232.962 13.6599C232.962 16.2639 231.57 17.9319 229.482 17.9319ZM229.482 16.9719C230.982 16.9719 231.894 15.7479 231.894 13.6599C231.894 11.5719 230.982 10.3479 229.482 10.3479C228.006 10.3479 227.094 11.5479 227.094 13.6599C227.094 15.7719 228.006 16.9719 229.482 16.9719ZM237.317 17.8599H236.093L234.701 9.45986H235.697L236.789 16.5159L238.037 11.6079H239.021L240.233 16.5159L241.325 9.45986H242.321L240.905 17.8599H239.693L238.505 13.0959L237.317 17.8599ZM249.91 17.8599H244.582V9.45986H249.754V10.4199H245.626V13.1079H249.094V14.0679H245.626V16.8999H249.91V17.8599ZM253.36 17.8599H252.316V9.45986H255.316C257.02 9.45986 258.16 10.4679 258.16 12.0399C258.16 13.2159 257.428 14.1279 256.324 14.4279L258.244 17.8599H257.068L255.256 14.6319H253.36V17.8599ZM253.36 10.4199V13.6719H255.232C256.36 13.6719 257.092 13.0239 257.092 12.0399C257.092 11.0559 256.36 10.4199 255.244 10.4199H253.36ZM266.127 17.8599H260.799V9.45986H265.971V10.4199H261.843V13.1079H265.311V14.0679H261.843V16.8999H266.127V17.8599ZM271.148 17.8599H268.532V9.45986H271.148C273.644 9.45986 274.988 11.1399 274.988 13.6599C274.988 16.1679 273.644 17.8599 271.148 17.8599ZM269.576 10.4199V16.8999H271.148C273.056 16.8999 273.92 15.6159 273.92 13.6599C273.92 11.6919 273.056 10.4199 271.148 10.4199H269.576ZM285.425 17.8599H282.581V9.45986H285.341C287.153 9.45986 288.101 10.3239 288.101 11.6799C288.101 12.6279 287.561 13.2279 286.745 13.5039C287.657 13.6719 288.461 14.2479 288.461 15.4599C288.461 16.9479 287.453 17.8599 285.425 17.8599ZM283.625 10.4079V13.1079H285.389C286.493 13.1079 287.057 12.6039 287.057 11.7519C287.057 10.9119 286.505 10.4079 285.389 10.4079H283.625ZM283.625 14.0439V16.9119H285.425C286.757 16.9119 287.393 16.3719 287.393 15.5079C287.393 14.5599 286.697 14.0439 285.425 14.0439H283.625ZM293.805 17.8599H292.761V14.7519L289.665 9.45986H290.877L293.289 13.6119L295.725 9.45986H296.877L293.805 14.7519V17.8599Z"/><rect width="26" height="26" x="306" y=".86" fill="#EDEDF0" rx="6"/><path fill="#818186" d="M314.95 19.26C313.211 19.26 311.8 17.8497 311.8 16.11C311.8 14.4824 313.035 13.1432 314.618 12.9773C314.541 12.6844 314.5 12.377 314.5 12.06C314.5 10.0717 316.112 8.45996 318.1 8.45996C319.791 8.45996 321.21 9.6258 321.596 11.1975C321.777 11.1728 321.962 11.16 322.15 11.16C324.387 11.16 326.2 12.9732 326.2 15.21C326.2 17.4467 324.387 19.26 322.15 19.26H314.95Z"/><path fill="#818186" d="M340.176 17.9319C337.932 17.9319 336.636 16.3479 336.636 13.6599C336.636 10.9599 337.944 9.38786 340.224 9.38786C341.892 9.38786 343.068 10.4199 343.392 12.2079H342.288C342 10.9719 341.292 10.3479 340.212 10.3479C338.604 10.3479 337.704 11.5599 337.704 13.6599C337.704 15.7839 338.568 16.9719 340.176 16.9719C341.268 16.9719 341.976 16.3599 342.276 15.1119H343.38C343.056 16.9119 341.892 17.9319 340.176 17.9319ZM350.712 17.8599H345.9V9.45986H346.944V16.8999H350.712V17.8599ZM355.524 17.9319C353.448 17.9319 352.068 16.2759 352.068 13.6599C352.068 11.0439 353.448 9.38786 355.524 9.38786C357.612 9.38786 359.004 11.0559 359.004 13.6599C359.004 16.2639 357.612 17.9319 355.524 17.9319ZM355.524 16.9719C357.024 16.9719 357.936 15.7479 357.936 13.6599C357.936 11.5719 357.024 10.3479 355.524 10.3479C354.048 10.3479 353.136 11.5479 353.136 13.6599C353.136 15.7719 354.048 16.9719 355.524 16.9719ZM364.495 17.9319C362.551 17.9319 361.459 16.8039 361.459 14.6079V9.45986H362.503V14.5959C362.503 16.1919 363.211 16.9719 364.495 16.9719C365.803 16.9719 366.511 16.2039 366.511 14.5959V9.45986H367.555V14.6079C367.555 16.8039 366.463 17.9319 364.495 17.9319ZM372.959 17.8599H370.343V9.45986H372.959C375.455 9.45986 376.799 11.1399 376.799 13.6599C376.799 16.1679 375.455 17.8599 372.959 17.8599ZM371.387 10.4199V16.8999H372.959C374.867 16.8999 375.731 15.6159 375.731 13.6599C375.731 11.6919 374.867 10.4199 372.959 10.4199H371.387Z"/></svg>