<svg
    class="u-position-absolute u-inset-0"
    style="margin-inline-start:-70px;"
    xmlns="http://www.w3.org/2000/svg"
    width="584"
    height="528"
    viewBox="0 0 747 600"
    fill="none"
>
    <path
        d="M353 302.4L352.4 302.4L352.4 303.6L353 303.6L353 302.4ZM353 303.6L448 303.6L448 302.4L353 302.4L353 303.6Z"
        fill="url(#gradient0_linear_429_5250)"
    />
    <g filter="url(#filter0_f_429_5250)">
        <circle cx="300" cy="300" r="120" fill="url(#gradient1_radial_429_5250)" />
    </g>
    <path
        d="M282.5 381.156C282.5 381.156 351.594 348.494 351.594 299.5V254.903L282.5 217.844L213.406 254.903V299.5C213.406 348.494 282.5 381.156 282.5 381.156Z"
        fill="url(#gradient2_linear_429_5250)"
        stroke="#FD366E"
        stroke-width="1.2"
        stroke-linecap="round"
        stroke-linejoin="round"
    />
    <path
        opacity="0.6"
        d="M282.5 388C282.5 388 358 352.6 358 299.5V251.165L282.5 211L207 251.165V299.5C207 352.6 282.5 388 282.5 388Z"
        stroke="#FD366E"
        stroke-width="1.2"
        stroke-linecap="round"
        stroke-linejoin="round"
        stroke-dasharray="2.4 2.4"
    />
    <path
        opacity="0.4"
        d="M282.5 396C282.5 396 364 357.4 364 299.5V246.796L282.5 203L201 246.796V299.5C201 357.4 282.5 396 282.5 396Z"
        stroke="#FD366E"
        stroke-width="1.2"
        stroke-linecap="round"
        stroke-linejoin="round"
        stroke-dasharray="2.4 2.4"
    />
    <path
        opacity="0.2"
        d="M282.5 403C282.5 403 370 361.6 370 299.5V242.973L282.5 196L195 242.973V299.5C195 361.6 282.5 403 282.5 403Z"
        stroke="#FD366E"
        stroke-width="1.2"
        stroke-linecap="round"
        stroke-linejoin="round"
        stroke-dasharray="2.4 2.4"
    />
    <path
        d="M322.7 370.45C345.233 370.45 363.5 352.183 363.5 329.65C363.5 307.117 345.233 288.85 322.7 288.85C300.167 288.85 281.9 307.117 281.9 329.65C281.9 352.183 300.167 370.45 322.7 370.45Z"
        fill="#FBEBF1"
        stroke="url(#gradient3_linear_429_5250)"
        stroke-width="1.2"
        stroke-linecap="round"
        stroke-linejoin="round"
    />
    <path
        d="M345 340V350H320.355C313.174 350 306.905 345.978 303.551 340C303.063 339.131 302.637 338.219 302.279 337.273C301.576 335.418 301.134 333.428 301 331.352V328.648C301.029 328.185 301.075 327.726 301.135 327.273C301.257 326.342 301.443 325.431 301.686 324.545C303.988 316.151 311.474 310 320.355 310C329.235 310 336.72 316.151 339.022 324.545H328.485C326.755 321.809 323.76 320 320.355 320C316.949 320 313.955 321.809 312.225 324.545C311.698 325.377 311.288 326.295 311.02 327.273C310.782 328.14 310.655 329.055 310.655 330C310.655 332.866 311.825 335.45 313.699 337.273C315.436 338.965 317.778 340 320.355 340H345Z"
        fill="#FD366E"
    />
    <path
        d="M344.998 327.273V337.273H327.008C328.882 335.45 330.052 332.866 330.052 330C330.052 329.055 329.925 328.14 329.687 327.273H344.998Z"
        fill="#FD366E"
    />
    <g filter="url(#filter1_d_429_5250)">
        <rect
            x="448"
            y="156"
            width="299"
            height="288"
            rx="16"
            fill="url(#gradient4_linear_429_5250)"
            shape-rendering="crispEdges"
        />
        <rect
            x="448.6"
            y="156.6"
            width="297.8"
            height="286.8"
            rx="15.4"
            stroke="url(#gradient5_linear_429_5250)"
            stroke-width="1.2"
            shape-rendering="crispEdges"
        />
        <path
            d="M479.199 187.2V183.644C479.199 182.466 479.705 181.335 480.605 180.502C481.505 179.668 482.726 179.2 483.999 179.2C485.272 179.2 486.493 179.668 487.393 180.502C488.294 181.335 488.799 182.466 488.799 183.644V187.2"
            stroke="#FD366E"
            stroke-width="1.2"
            stroke-linecap="round"
            stroke-linejoin="round"
        />
        <path
            d="M492.712 187.2H475.29C473.915 187.2 472.801 188.633 472.801 190.4V201.6C472.801 203.367 473.915 204.8 475.29 204.8H492.712C494.086 204.8 495.201 203.367 495.201 201.6V190.4C495.201 188.633 494.086 187.2 492.712 187.2Z"
            fill="url(#gradient6_linear_429_5250)"
        />
        <path
            d="M475.29 187.8H492.712V186.6H475.29V187.8ZM492.712 187.8C493.624 187.8 494.601 188.815 494.601 190.4H495.801C495.801 188.45 494.549 186.6 492.712 186.6V187.8ZM494.601 190.4V201.6H495.801V190.4H494.601ZM494.601 201.6C494.601 203.185 493.624 204.2 492.712 204.2V205.4C494.549 205.4 495.801 203.55 495.801 201.6H494.601ZM492.712 204.2H475.29V205.4H492.712V204.2ZM475.29 204.2C474.378 204.2 473.401 203.185 473.401 201.6H472.201C472.201 203.55 473.452 205.4 475.29 205.4V204.2ZM473.401 201.6V190.4H472.201V201.6H473.401ZM473.401 190.4C473.401 188.815 474.378 187.8 475.29 187.8V186.6C473.452 186.6 472.201 188.45 472.201 190.4H473.401Z"
            fill="#FD366E"
        />
        <g filter="url(#filter2_b_429_5250)">
            <path
                fill-rule="evenodd"
                clip-rule="evenodd"
                d="M485.607 196.534C486.444 196.002 487 195.066 487 194C487 192.343 485.657 191 484 191C482.343 191 481 192.343 481 194C481 195.066 481.556 196.002 482.393 196.534L481.5 201H486.5L485.607 196.534Z"
                fill="white"
                fill-opacity="0.64"
            />
            <path
                d="M485.607 196.534L485.285 196.027C485.076 196.16 484.97 196.408 485.018 196.652L485.607 196.534ZM482.393 196.534L482.982 196.652C483.03 196.408 482.924 196.16 482.715 196.027L482.393 196.534ZM481.5 201L480.912 200.882C480.876 201.059 480.922 201.241 481.036 201.38C481.15 201.519 481.32 201.6 481.5 201.6V201ZM486.5 201V201.6C486.68 201.6 486.85 201.519 486.964 201.38C487.078 201.241 487.124 201.059 487.088 200.882L486.5 201ZM486.4 194C486.4 194.852 485.957 195.601 485.285 196.027L485.929 197.04C486.932 196.403 487.6 195.28 487.6 194H486.4ZM484 191.6C485.325 191.6 486.4 192.675 486.4 194H487.6C487.6 192.012 485.988 190.4 484 190.4V191.6ZM481.6 194C481.6 192.675 482.675 191.6 484 191.6V190.4C482.012 190.4 480.4 192.012 480.4 194H481.6ZM482.715 196.027C482.043 195.601 481.6 194.852 481.6 194H480.4C480.4 195.28 481.068 196.403 482.071 197.04L482.715 196.027ZM482.088 201.118L482.982 196.652L481.805 196.416L480.912 200.882L482.088 201.118ZM486.5 200.4H481.5V201.6H486.5V200.4ZM485.018 196.652L485.912 201.118L487.088 200.882L486.195 196.416L485.018 196.652Z"
                fill="#FD366E"
            />
        </g>
        <path
            d="M510.261 198H508.398L512.585 186.364H514.614L518.801 198H516.938L513.648 188.477H513.557L510.261 198ZM510.574 193.443H516.619V194.92H510.574V193.443ZM525.802 194.381V189.273H527.506V198H525.836V196.489H525.745C525.544 196.955 525.222 197.343 524.779 197.653C524.339 197.96 523.792 198.114 523.137 198.114C522.576 198.114 522.08 197.991 521.648 197.744C521.22 197.494 520.883 197.125 520.637 196.636C520.394 196.148 520.273 195.544 520.273 194.824V189.273H521.972V194.619C521.972 195.214 522.137 195.687 522.466 196.04C522.796 196.392 523.224 196.568 523.75 196.568C524.069 196.568 524.385 196.489 524.699 196.33C525.017 196.17 525.281 195.93 525.489 195.608C525.701 195.286 525.805 194.877 525.802 194.381ZM533.791 189.273V190.636H529.024V189.273H533.791ZM530.302 187.182H532.001V195.438C532.001 195.767 532.05 196.015 532.149 196.182C532.247 196.345 532.374 196.456 532.529 196.517C532.688 196.574 532.861 196.602 533.046 196.602C533.183 196.602 533.302 196.593 533.404 196.574C533.507 196.555 533.586 196.54 533.643 196.528L533.95 197.932C533.851 197.97 533.711 198.008 533.529 198.045C533.347 198.087 533.12 198.11 532.847 198.114C532.401 198.121 531.984 198.042 531.597 197.875C531.211 197.708 530.899 197.451 530.66 197.102C530.421 196.754 530.302 196.316 530.302 195.79V187.182ZM537.484 192.818V198H535.785V186.364H537.462V190.693H537.57C537.774 190.223 538.087 189.85 538.507 189.574C538.927 189.297 539.477 189.159 540.155 189.159C540.753 189.159 541.276 189.282 541.723 189.528C542.174 189.775 542.522 190.142 542.768 190.631C543.018 191.116 543.143 191.722 543.143 192.449V198H541.445V192.653C541.445 192.013 541.28 191.517 540.95 191.165C540.621 190.809 540.162 190.631 539.575 190.631C539.174 190.631 538.814 190.716 538.496 190.886C538.181 191.057 537.933 191.307 537.751 191.636C537.573 191.962 537.484 192.356 537.484 192.818ZM549.1 198.176C548.24 198.176 547.499 197.992 546.878 197.625C546.261 197.254 545.783 196.733 545.446 196.062C545.113 195.388 544.946 194.598 544.946 193.693C544.946 192.799 545.113 192.011 545.446 191.33C545.783 190.648 546.253 190.116 546.855 189.733C547.462 189.35 548.17 189.159 548.98 189.159C549.473 189.159 549.95 189.241 550.412 189.403C550.874 189.566 551.289 189.822 551.657 190.17C552.024 190.519 552.314 190.972 552.526 191.528C552.738 192.081 552.844 192.754 552.844 193.545V194.148H545.907V192.875H551.179C551.179 192.428 551.088 192.032 550.907 191.688C550.725 191.339 550.469 191.064 550.14 190.864C549.814 190.663 549.431 190.562 548.992 190.562C548.515 190.562 548.098 190.68 547.742 190.915C547.39 191.146 547.117 191.449 546.924 191.824C546.734 192.195 546.64 192.598 546.64 193.034V194.028C546.64 194.612 546.742 195.108 546.946 195.517C547.155 195.926 547.444 196.239 547.816 196.455C548.187 196.667 548.621 196.773 549.117 196.773C549.439 196.773 549.732 196.727 549.998 196.636C550.263 196.542 550.492 196.402 550.685 196.216C550.878 196.03 551.026 195.801 551.128 195.528L552.736 195.818C552.607 196.292 552.376 196.706 552.043 197.062C551.713 197.415 551.299 197.689 550.799 197.886C550.302 198.08 549.736 198.176 549.1 198.176ZM556.356 192.818V198H554.657V189.273H556.288V190.693H556.396C556.596 190.231 556.911 189.86 557.339 189.58C557.771 189.299 558.314 189.159 558.97 189.159C559.564 189.159 560.085 189.284 560.532 189.534C560.979 189.78 561.326 190.148 561.572 190.636C561.818 191.125 561.941 191.729 561.941 192.449V198H560.242V192.653C560.242 192.021 560.077 191.527 559.748 191.17C559.418 190.811 558.966 190.631 558.39 190.631C557.996 190.631 557.646 190.716 557.339 190.886C557.036 191.057 556.795 191.307 556.617 191.636C556.443 191.962 556.356 192.356 556.356 192.818ZM568.221 189.273V190.636H563.454V189.273H568.221ZM564.733 187.182H566.432V195.438C566.432 195.767 566.481 196.015 566.579 196.182C566.678 196.345 566.805 196.456 566.96 196.517C567.119 196.574 567.291 196.602 567.477 196.602C567.613 196.602 567.733 196.593 567.835 196.574C567.937 196.555 568.017 196.54 568.074 196.528L568.381 197.932C568.282 197.97 568.142 198.008 567.96 198.045C567.778 198.087 567.551 198.11 567.278 198.114C566.831 198.121 566.415 198.042 566.028 197.875C565.642 197.708 565.329 197.451 565.091 197.102C564.852 196.754 564.733 196.316 564.733 195.79V187.182ZM570.029 198V189.273H571.728V198H570.029ZM570.887 187.926C570.591 187.926 570.337 187.828 570.125 187.631C569.917 187.43 569.813 187.191 569.813 186.915C569.813 186.634 569.917 186.396 570.125 186.199C570.337 185.998 570.591 185.898 570.887 185.898C571.182 185.898 571.434 185.998 571.642 186.199C571.854 186.396 571.96 186.634 571.96 186.915C571.96 187.191 571.854 187.43 571.642 187.631C571.434 187.828 571.182 187.926 570.887 187.926ZM577.617 198.176C576.772 198.176 576.045 197.985 575.435 197.602C574.829 197.216 574.363 196.684 574.038 196.006C573.712 195.328 573.549 194.551 573.549 193.676C573.549 192.79 573.716 192.008 574.049 191.33C574.382 190.648 574.852 190.116 575.458 189.733C576.064 189.35 576.778 189.159 577.6 189.159C578.263 189.159 578.854 189.282 579.373 189.528C579.892 189.771 580.31 190.112 580.629 190.551C580.951 190.991 581.142 191.504 581.202 192.091H579.549C579.458 191.682 579.25 191.33 578.924 191.034C578.602 190.739 578.17 190.591 577.629 190.591C577.155 190.591 576.74 190.716 576.384 190.966C576.032 191.212 575.757 191.564 575.56 192.023C575.363 192.477 575.265 193.015 575.265 193.636C575.265 194.273 575.362 194.822 575.555 195.284C575.748 195.746 576.021 196.104 576.373 196.358C576.729 196.612 577.147 196.739 577.629 196.739C577.951 196.739 578.242 196.68 578.504 196.562C578.769 196.441 578.99 196.269 579.168 196.045C579.35 195.822 579.477 195.553 579.549 195.239H581.202C581.142 195.803 580.958 196.307 580.651 196.75C580.344 197.193 579.933 197.542 579.418 197.795C578.907 198.049 578.307 198.176 577.617 198.176ZM585.487 198.193C584.934 198.193 584.434 198.091 583.987 197.886C583.54 197.678 583.186 197.377 582.924 196.983C582.667 196.589 582.538 196.106 582.538 195.534C582.538 195.042 582.633 194.636 582.822 194.318C583.012 194 583.267 193.748 583.589 193.562C583.911 193.377 584.271 193.237 584.669 193.142C585.066 193.047 585.472 192.975 585.885 192.926C586.407 192.866 586.832 192.816 587.157 192.778C587.483 192.737 587.72 192.67 587.868 192.58C588.015 192.489 588.089 192.341 588.089 192.136V192.097C588.089 191.6 587.949 191.216 587.669 190.943C587.392 190.67 586.979 190.534 586.43 190.534C585.858 190.534 585.407 190.661 585.078 190.915C584.752 191.165 584.527 191.443 584.402 191.75L582.805 191.386C582.995 190.856 583.271 190.428 583.635 190.102C584.002 189.773 584.424 189.534 584.902 189.386C585.379 189.235 585.881 189.159 586.407 189.159C586.756 189.159 587.125 189.201 587.515 189.284C587.909 189.364 588.277 189.511 588.618 189.727C588.962 189.943 589.245 190.252 589.464 190.653C589.684 191.051 589.794 191.568 589.794 192.205V198H588.135V196.807H588.066C587.957 197.027 587.792 197.242 587.572 197.455C587.352 197.667 587.07 197.843 586.726 197.983C586.381 198.123 585.968 198.193 585.487 198.193ZM585.856 196.83C586.326 196.83 586.727 196.737 587.061 196.551C587.398 196.366 587.654 196.123 587.828 195.824C588.006 195.521 588.095 195.197 588.095 194.852V193.727C588.034 193.788 587.917 193.845 587.743 193.898C587.572 193.947 587.377 193.991 587.157 194.028C586.938 194.062 586.724 194.095 586.515 194.125C586.307 194.152 586.133 194.174 585.993 194.193C585.663 194.235 585.362 194.305 585.089 194.403C584.82 194.502 584.604 194.644 584.441 194.83C584.282 195.011 584.203 195.254 584.203 195.557C584.203 195.977 584.358 196.295 584.669 196.511C584.979 196.723 585.375 196.83 585.856 196.83ZM596.058 189.273V190.636H591.291V189.273H596.058ZM592.57 187.182H594.269V195.438C594.269 195.767 594.318 196.015 594.416 196.182C594.515 196.345 594.642 196.456 594.797 196.517C594.956 196.574 595.128 196.602 595.314 196.602C595.45 196.602 595.57 196.593 595.672 196.574C595.774 196.555 595.854 196.54 595.911 196.528L596.217 197.932C596.119 197.97 595.979 198.008 595.797 198.045C595.615 198.087 595.388 198.11 595.115 198.114C594.668 198.121 594.252 198.042 593.865 197.875C593.479 197.708 593.166 197.451 592.928 197.102C592.689 196.754 592.57 196.316 592.57 195.79V187.182ZM597.866 198V189.273H599.565V198H597.866ZM598.724 187.926C598.428 187.926 598.174 187.828 597.962 187.631C597.754 187.43 597.65 187.191 597.65 186.915C597.65 186.634 597.754 186.396 597.962 186.199C598.174 185.998 598.428 185.898 598.724 185.898C599.019 185.898 599.271 185.998 599.479 186.199C599.691 186.396 599.797 186.634 599.797 186.915C599.797 187.191 599.691 187.43 599.479 187.631C599.271 187.828 599.019 187.926 598.724 187.926ZM605.454 198.176C604.636 198.176 603.922 197.989 603.312 197.614C602.702 197.239 602.229 196.714 601.892 196.04C601.555 195.366 601.386 194.578 601.386 193.676C601.386 192.771 601.555 191.979 601.892 191.301C602.229 190.623 602.702 190.097 603.312 189.722C603.922 189.347 604.636 189.159 605.454 189.159C606.272 189.159 606.986 189.347 607.596 189.722C608.206 190.097 608.68 190.623 609.017 191.301C609.354 191.979 609.522 192.771 609.522 193.676C609.522 194.578 609.354 195.366 609.017 196.04C608.68 196.714 608.206 197.239 607.596 197.614C606.986 197.989 606.272 198.176 605.454 198.176ZM605.46 196.75C605.99 196.75 606.43 196.61 606.778 196.33C607.127 196.049 607.384 195.676 607.551 195.21C607.721 194.744 607.806 194.231 607.806 193.67C607.806 193.114 607.721 192.602 607.551 192.136C607.384 191.667 607.127 191.29 606.778 191.006C606.43 190.722 605.99 190.58 605.46 190.58C604.926 190.58 604.483 190.722 604.13 191.006C603.782 191.29 603.522 191.667 603.352 192.136C603.185 192.602 603.102 193.114 603.102 193.67C603.102 194.231 603.185 194.744 603.352 195.21C603.522 195.676 603.782 196.049 604.13 196.33C604.483 196.61 604.926 196.75 605.46 196.75ZM613.046 192.818V198H611.347V189.273H612.977V190.693H613.085C613.286 190.231 613.6 189.86 614.028 189.58C614.46 189.299 615.004 189.159 615.659 189.159C616.254 189.159 616.775 189.284 617.222 189.534C617.669 189.78 618.015 190.148 618.261 190.636C618.508 191.125 618.631 191.729 618.631 192.449V198H616.932V192.653C616.932 192.021 616.767 191.527 616.438 191.17C616.108 190.811 615.655 190.631 615.08 190.631C614.686 190.631 614.335 190.716 614.028 190.886C613.725 191.057 613.485 191.307 613.307 191.636C613.133 191.962 613.046 192.356 613.046 192.818Z"
            fill="#19191C"
        />
        <rect x="696" y="181.5" width="31" height="21" rx="10.5" fill="#FD366E" />
        <circle cx="716.5" cy="192" r="9" fill="white" />
        <path d="M468 220H727" stroke="white" stroke-opacity="0.12" stroke-width="1.2" />
        <path
            d="M483 259.188C483 259.188 493.312 254.312 493.312 247V240.344L483 234.812L472.688 240.344V247C472.688 254.312 483 259.188 483 259.188Z"
            fill="url(#gradient7_linear_429_5250)"
            stroke="#FD366E"
            stroke-width="1.2"
            stroke-linecap="round"
            stroke-linejoin="round"
        />
        <g filter="url(#filter3_b_429_5250)">
            <circle cx="489" cy="251.5" r="6" fill="#FD366E" />
            <circle cx="489" cy="251.5" r="6" fill="white" fill-opacity="0.9" />
            <circle
                cx="489"
                cy="251.5"
                r="6"
                stroke="#FD366E"
                stroke-width="1.2"
                stroke-linecap="round"
                stroke-linejoin="round"
            />
        </g>
        <path
            d="M486.188 252.625L488.062 254.125L491.812 249.25"
            stroke="#FD366E"
            stroke-width="1.2"
            stroke-linecap="round"
            stroke-linejoin="round"
        />
        <path
            d="M508.261 253H506.398L510.585 241.364H512.614L516.801 253H514.938L511.648 243.477H511.557L508.261 253ZM508.574 248.443H514.619V249.92H508.574V248.443ZM518.41 253V241.364H520.108V245.688H520.211C520.309 245.506 520.451 245.295 520.637 245.057C520.822 244.818 521.08 244.61 521.41 244.432C521.739 244.25 522.175 244.159 522.716 244.159C523.421 244.159 524.05 244.337 524.603 244.693C525.156 245.049 525.589 245.562 525.904 246.233C526.222 246.903 526.381 247.71 526.381 248.653C526.381 249.597 526.224 250.405 525.91 251.08C525.595 251.75 525.163 252.267 524.614 252.631C524.065 252.991 523.438 253.17 522.733 253.17C522.203 253.17 521.769 253.081 521.432 252.903C521.099 252.725 520.838 252.517 520.648 252.278C520.459 252.04 520.313 251.828 520.211 251.642H520.069V253H518.41ZM520.074 248.636C520.074 249.25 520.163 249.788 520.341 250.25C520.519 250.712 520.777 251.074 521.114 251.335C521.451 251.593 521.864 251.722 522.353 251.722C522.86 251.722 523.285 251.587 523.625 251.318C523.966 251.045 524.224 250.676 524.398 250.21C524.576 249.744 524.665 249.22 524.665 248.636C524.665 248.061 524.578 247.544 524.404 247.085C524.233 246.627 523.976 246.265 523.631 246C523.29 245.735 522.864 245.602 522.353 245.602C521.86 245.602 521.444 245.729 521.103 245.983C520.766 246.237 520.51 246.591 520.336 247.045C520.161 247.5 520.074 248.03 520.074 248.636ZM533.745 249.381V244.273H535.45V253H533.779V251.489H533.688C533.488 251.955 533.166 252.343 532.722 252.653C532.283 252.96 531.736 253.114 531.08 253.114C530.52 253.114 530.024 252.991 529.592 252.744C529.164 252.494 528.827 252.125 528.58 251.636C528.338 251.148 528.217 250.544 528.217 249.824V244.273H529.916V249.619C529.916 250.214 530.08 250.687 530.41 251.04C530.74 251.392 531.168 251.568 531.694 251.568C532.012 251.568 532.329 251.489 532.643 251.33C532.961 251.17 533.224 250.93 533.433 250.608C533.645 250.286 533.749 249.877 533.745 249.381ZM544.2 246.403L542.66 246.676C542.596 246.479 542.494 246.292 542.354 246.114C542.217 245.936 542.032 245.79 541.797 245.676C541.562 245.562 541.268 245.506 540.916 245.506C540.435 245.506 540.034 245.614 539.712 245.83C539.39 246.042 539.229 246.316 539.229 246.653C539.229 246.945 539.337 247.18 539.552 247.358C539.768 247.536 540.117 247.682 540.598 247.795L541.984 248.114C542.787 248.299 543.386 248.585 543.78 248.972C544.174 249.358 544.371 249.86 544.371 250.477C544.371 251 544.219 251.466 543.916 251.875C543.617 252.28 543.198 252.598 542.66 252.83C542.126 253.061 541.507 253.176 540.802 253.176C539.825 253.176 539.028 252.968 538.41 252.551C537.793 252.131 537.414 251.534 537.274 250.761L538.916 250.511C539.018 250.939 539.229 251.263 539.547 251.483C539.865 251.699 540.28 251.807 540.791 251.807C541.348 251.807 541.793 251.691 542.126 251.46C542.46 251.225 542.626 250.939 542.626 250.602C542.626 250.33 542.524 250.1 542.32 249.915C542.119 249.729 541.81 249.589 541.393 249.494L539.916 249.17C539.102 248.985 538.499 248.689 538.109 248.284C537.723 247.879 537.53 247.366 537.53 246.744C537.53 246.229 537.674 245.778 537.962 245.392C538.249 245.006 538.647 244.705 539.155 244.489C539.662 244.269 540.244 244.159 540.899 244.159C541.842 244.159 542.585 244.364 543.126 244.773C543.668 245.178 544.026 245.722 544.2 246.403ZM549.928 253.176C549.068 253.176 548.328 252.992 547.706 252.625C547.089 252.254 546.612 251.733 546.275 251.062C545.941 250.388 545.775 249.598 545.775 248.693C545.775 247.799 545.941 247.011 546.275 246.33C546.612 245.648 547.081 245.116 547.684 244.733C548.29 244.35 548.998 244.159 549.809 244.159C550.301 244.159 550.778 244.241 551.24 244.403C551.703 244.566 552.117 244.822 552.485 245.17C552.852 245.519 553.142 245.972 553.354 246.528C553.566 247.081 553.672 247.754 553.672 248.545V249.148H546.735V247.875H552.007C552.007 247.428 551.917 247.032 551.735 246.688C551.553 246.339 551.297 246.064 550.968 245.864C550.642 245.663 550.259 245.562 549.82 245.562C549.343 245.562 548.926 245.68 548.57 245.915C548.218 246.146 547.945 246.449 547.752 246.824C547.562 247.195 547.468 247.598 547.468 248.034V249.028C547.468 249.612 547.57 250.108 547.775 250.517C547.983 250.926 548.273 251.239 548.644 251.455C549.015 251.667 549.449 251.773 549.945 251.773C550.267 251.773 550.56 251.727 550.826 251.636C551.091 251.542 551.32 251.402 551.513 251.216C551.706 251.03 551.854 250.801 551.956 250.528L553.564 250.818C553.435 251.292 553.204 251.706 552.871 252.062C552.542 252.415 552.127 252.689 551.627 252.886C551.131 253.08 550.564 253.176 549.928 253.176ZM559.648 256.273V244.273H561.307V245.688H561.449C561.547 245.506 561.689 245.295 561.875 245.057C562.06 244.818 562.318 244.61 562.648 244.432C562.977 244.25 563.413 244.159 563.954 244.159C564.659 244.159 565.288 244.337 565.841 244.693C566.394 245.049 566.827 245.562 567.142 246.233C567.46 246.903 567.619 247.71 567.619 248.653C567.619 249.597 567.462 250.405 567.148 251.08C566.833 251.75 566.401 252.267 565.852 252.631C565.303 252.991 564.676 253.17 563.971 253.17C563.441 253.17 563.007 253.081 562.67 252.903C562.337 252.725 562.076 252.517 561.886 252.278C561.697 252.04 561.551 251.828 561.449 251.642H561.346V256.273H559.648ZM561.312 248.636C561.312 249.25 561.401 249.788 561.579 250.25C561.757 250.712 562.015 251.074 562.352 251.335C562.689 251.593 563.102 251.722 563.591 251.722C564.098 251.722 564.523 251.587 564.863 251.318C565.204 251.045 565.462 250.676 565.636 250.21C565.814 249.744 565.903 249.22 565.903 248.636C565.903 248.061 565.816 247.544 565.642 247.085C565.471 246.627 565.214 246.265 564.869 246C564.528 245.735 564.102 245.602 563.591 245.602C563.098 245.602 562.682 245.729 562.341 245.983C562.004 246.237 561.748 246.591 561.574 247.045C561.399 247.5 561.312 248.03 561.312 248.636ZM569.451 253V244.273H571.093V245.659H571.183C571.343 245.189 571.623 244.82 572.024 244.551C572.43 244.278 572.888 244.142 573.399 244.142C573.505 244.142 573.63 244.146 573.774 244.153C573.922 244.161 574.038 244.17 574.121 244.182V245.807C574.053 245.788 573.932 245.767 573.757 245.744C573.583 245.718 573.409 245.705 573.235 245.705C572.833 245.705 572.475 245.79 572.161 245.96C571.85 246.127 571.604 246.36 571.422 246.659C571.24 246.955 571.149 247.292 571.149 247.67V253H569.451ZM578.883 253.176C578.065 253.176 577.351 252.989 576.741 252.614C576.131 252.239 575.657 251.714 575.32 251.04C574.983 250.366 574.815 249.578 574.815 248.676C574.815 247.771 574.983 246.979 575.32 246.301C575.657 245.623 576.131 245.097 576.741 244.722C577.351 244.347 578.065 244.159 578.883 244.159C579.701 244.159 580.415 244.347 581.025 244.722C581.635 245.097 582.108 245.623 582.445 246.301C582.782 246.979 582.951 247.771 582.951 248.676C582.951 249.578 582.782 250.366 582.445 251.04C582.108 251.714 581.635 252.239 581.025 252.614C580.415 252.989 579.701 253.176 578.883 253.176ZM578.888 251.75C579.419 251.75 579.858 251.61 580.207 251.33C580.555 251.049 580.813 250.676 580.979 250.21C581.15 249.744 581.235 249.231 581.235 248.67C581.235 248.114 581.15 247.602 580.979 247.136C580.813 246.667 580.555 246.29 580.207 246.006C579.858 245.722 579.419 245.58 578.888 245.58C578.354 245.58 577.911 245.722 577.559 246.006C577.21 246.29 576.951 246.667 576.781 247.136C576.614 247.602 576.531 248.114 576.531 248.67C576.531 249.231 576.614 249.744 576.781 250.21C576.951 250.676 577.21 251.049 577.559 251.33C577.911 251.61 578.354 251.75 578.888 251.75ZM588.849 244.273V245.636H584.082V244.273H588.849ZM585.361 242.182H587.059V250.438C587.059 250.767 587.109 251.015 587.207 251.182C587.306 251.345 587.432 251.456 587.588 251.517C587.747 251.574 587.919 251.602 588.105 251.602C588.241 251.602 588.361 251.593 588.463 251.574C588.565 251.555 588.645 251.54 588.701 251.528L589.008 252.932C588.91 252.97 588.77 253.008 588.588 253.045C588.406 253.087 588.179 253.11 587.906 253.114C587.459 253.121 587.042 253.042 586.656 252.875C586.27 252.708 585.957 252.451 585.718 252.102C585.48 251.754 585.361 251.316 585.361 250.79V242.182ZM594.324 253.176C593.464 253.176 592.724 252.992 592.102 252.625C591.485 252.254 591.008 251.733 590.671 251.062C590.337 250.388 590.171 249.598 590.171 248.693C590.171 247.799 590.337 247.011 590.671 246.33C591.008 245.648 591.477 245.116 592.08 244.733C592.686 244.35 593.394 244.159 594.205 244.159C594.697 244.159 595.174 244.241 595.637 244.403C596.099 244.566 596.513 244.822 596.881 245.17C597.248 245.519 597.538 245.972 597.75 246.528C597.962 247.081 598.068 247.754 598.068 248.545V249.148H591.131V247.875H596.404C596.404 247.428 596.313 247.032 596.131 246.688C595.949 246.339 595.693 246.064 595.364 245.864C595.038 245.663 594.655 245.562 594.216 245.562C593.739 245.562 593.322 245.68 592.966 245.915C592.614 246.146 592.341 246.449 592.148 246.824C591.959 247.195 591.864 247.598 591.864 248.034V249.028C591.864 249.612 591.966 250.108 592.171 250.517C592.379 250.926 592.669 251.239 593.04 251.455C593.411 251.667 593.845 251.773 594.341 251.773C594.663 251.773 594.957 251.727 595.222 251.636C595.487 251.542 595.716 251.402 595.909 251.216C596.102 251.03 596.25 250.801 596.352 250.528L597.96 250.818C597.832 251.292 597.601 251.706 597.267 252.062C596.938 252.415 596.523 252.689 596.023 252.886C595.527 253.08 594.96 253.176 594.324 253.176ZM603.557 253.176C602.713 253.176 601.985 252.985 601.376 252.602C600.77 252.216 600.304 251.684 599.978 251.006C599.652 250.328 599.489 249.551 599.489 248.676C599.489 247.79 599.656 247.008 599.989 246.33C600.323 245.648 600.792 245.116 601.398 244.733C602.004 244.35 602.718 244.159 603.54 244.159C604.203 244.159 604.794 244.282 605.313 244.528C605.832 244.771 606.251 245.112 606.569 245.551C606.891 245.991 607.082 246.504 607.143 247.091H605.489C605.398 246.682 605.19 246.33 604.864 246.034C604.542 245.739 604.11 245.591 603.569 245.591C603.095 245.591 602.681 245.716 602.324 245.966C601.972 246.212 601.698 246.564 601.501 247.023C601.304 247.477 601.205 248.015 601.205 248.636C601.205 249.273 601.302 249.822 601.495 250.284C601.688 250.746 601.961 251.104 602.313 251.358C602.669 251.612 603.088 251.739 603.569 251.739C603.891 251.739 604.182 251.68 604.444 251.562C604.709 251.441 604.931 251.269 605.109 251.045C605.29 250.822 605.417 250.553 605.489 250.239H607.143C607.082 250.803 606.898 251.307 606.592 251.75C606.285 252.193 605.874 252.542 605.359 252.795C604.847 253.049 604.247 253.176 603.557 253.176ZM612.961 244.273V245.636H608.194V244.273H612.961ZM609.473 242.182H611.172V250.438C611.172 250.767 611.221 251.015 611.319 251.182C611.418 251.345 611.545 251.456 611.7 251.517C611.859 251.574 612.031 251.602 612.217 251.602C612.353 251.602 612.473 251.593 612.575 251.574C612.677 251.555 612.757 251.54 612.814 251.528L613.12 252.932C613.022 252.97 612.882 253.008 612.7 253.045C612.518 253.087 612.291 253.11 612.018 253.114C611.571 253.121 611.154 253.042 610.768 252.875C610.382 252.708 610.069 252.451 609.831 252.102C609.592 251.754 609.473 251.316 609.473 250.79V242.182ZM614.769 253V244.273H616.467V253H614.769ZM615.627 242.926C615.331 242.926 615.077 242.828 614.865 242.631C614.657 242.43 614.553 242.191 614.553 241.915C614.553 241.634 614.657 241.396 614.865 241.199C615.077 240.998 615.331 240.898 615.627 240.898C615.922 240.898 616.174 240.998 616.382 241.199C616.594 241.396 616.7 241.634 616.7 241.915C616.7 242.191 616.594 242.43 616.382 242.631C616.174 242.828 615.922 242.926 615.627 242.926ZM622.357 253.176C621.539 253.176 620.825 252.989 620.215 252.614C619.605 252.239 619.132 251.714 618.795 251.04C618.457 250.366 618.289 249.578 618.289 248.676C618.289 247.771 618.457 246.979 618.795 246.301C619.132 245.623 619.605 245.097 620.215 244.722C620.825 244.347 621.539 244.159 622.357 244.159C623.175 244.159 623.889 244.347 624.499 244.722C625.109 245.097 625.582 245.623 625.92 246.301C626.257 246.979 626.425 247.771 626.425 248.676C626.425 249.578 626.257 250.366 625.92 251.04C625.582 251.714 625.109 252.239 624.499 252.614C623.889 252.989 623.175 253.176 622.357 253.176ZM622.363 251.75C622.893 251.75 623.332 251.61 623.681 251.33C624.029 251.049 624.287 250.676 624.454 250.21C624.624 249.744 624.709 249.231 624.709 248.67C624.709 248.114 624.624 247.602 624.454 247.136C624.287 246.667 624.029 246.29 623.681 246.006C623.332 245.722 622.893 245.58 622.363 245.58C621.829 245.58 621.385 245.722 621.033 246.006C620.685 246.29 620.425 246.667 620.255 247.136C620.088 247.602 620.005 248.114 620.005 248.67C620.005 249.231 620.088 249.744 620.255 250.21C620.425 250.676 620.685 251.049 621.033 251.33C621.385 251.61 621.829 251.75 622.363 251.75ZM629.948 247.818V253H628.25V244.273H629.88V245.693H629.988C630.189 245.231 630.503 244.86 630.931 244.58C631.363 244.299 631.907 244.159 632.562 244.159C633.157 244.159 633.678 244.284 634.125 244.534C634.572 244.78 634.918 245.148 635.164 245.636C635.411 246.125 635.534 246.729 635.534 247.449V253H633.835V247.653C633.835 247.021 633.67 246.527 633.34 246.17C633.011 245.811 632.558 245.631 631.982 245.631C631.589 245.631 631.238 245.716 630.931 245.886C630.628 246.057 630.388 246.307 630.21 246.636C630.036 246.962 629.948 247.356 629.948 247.818Z"
            fill="#19191C"
        />
        <rect x="696" y="236.5" width="31" height="21" rx="10.5" fill="#FD366E" />
        <circle cx="716.5" cy="247" r="9" fill="white" />
        <path d="M468 274H727" stroke="white" stroke-opacity="0.12" stroke-width="1.2" />
        <path
            d="M483.453 287.663C483.37 287.487 483.194 287.375 483 287.375C482.806 287.375 482.63 287.487 482.547 287.663L481.647 289.581L479.643 289.889C479.458 289.918 479.304 290.047 479.245 290.225C479.185 290.403 479.23 290.599 479.361 290.733L480.825 292.232L480.479 294.357C480.448 294.546 480.528 294.736 480.684 294.846C480.841 294.957 481.047 294.968 481.214 294.875L483 293.888L484.786 294.875C484.953 294.968 485.159 294.957 485.316 294.846C485.472 294.736 485.552 294.546 485.521 294.357L485.175 292.232L486.639 290.733C486.77 290.599 486.815 290.403 486.755 290.225C486.696 290.047 486.542 289.918 486.357 289.889L484.353 289.581L483.453 287.663Z"
            fill="url(#gradient8_linear_429_5250)"
            stroke="#FD366E"
            stroke-linecap="round"
            stroke-linejoin="round"
        />
        <path
            d="M483.453 307.35C483.37 307.175 483.194 307.062 483 307.062C482.806 307.062 482.63 307.175 482.547 307.35L481.647 309.269L479.643 309.577C479.458 309.605 479.304 309.735 479.245 309.912C479.185 310.09 479.23 310.286 479.361 310.42L480.825 311.92L480.479 314.045C480.448 314.234 480.528 314.423 480.684 314.534C480.841 314.644 481.047 314.655 481.214 314.563L483 313.575L484.786 314.563C484.953 314.655 485.159 314.644 485.316 314.534C485.472 314.423 485.552 314.234 485.521 314.045L485.175 311.92L486.639 310.42C486.77 310.286 486.815 310.09 486.755 309.912C486.696 309.735 486.542 309.605 486.357 309.577L484.353 309.269L483.453 307.35Z"
            fill="url(#gradient9_linear_429_5250)"
            stroke="#FD366E"
            stroke-linecap="round"
            stroke-linejoin="round"
        />
        <path
            d="M492.359 292.35C492.276 292.175 492.1 292.062 491.906 292.062C491.712 292.062 491.536 292.175 491.454 292.35L490.553 294.269L488.549 294.577C488.364 294.605 488.21 294.735 488.151 294.912C488.091 295.09 488.136 295.286 488.267 295.42L489.732 296.92L489.385 299.045C489.354 299.234 489.434 299.423 489.591 299.534C489.747 299.644 489.953 299.655 490.12 299.563L491.906 298.575L493.692 299.563C493.86 299.655 494.065 299.644 494.222 299.534C494.379 299.423 494.458 299.234 494.428 299.045L494.081 296.92L495.545 295.42C495.676 295.286 495.721 295.09 495.662 294.912C495.602 294.735 495.449 294.605 495.263 294.577L493.26 294.269L492.359 292.35Z"
            fill="url(#gradient10_linear_429_5250)"
            stroke="#FD366E"
            stroke-linecap="round"
            stroke-linejoin="round"
        />
        <path
            d="M492.359 303.6C492.276 303.425 492.1 303.312 491.906 303.312C491.712 303.312 491.536 303.425 491.454 303.6L490.553 305.519L488.549 305.827C488.364 305.855 488.21 305.985 488.151 306.162C488.091 306.34 488.136 306.536 488.267 306.67L489.732 308.17L489.385 310.295C489.354 310.484 489.434 310.673 489.591 310.784C489.747 310.894 489.953 310.905 490.12 310.813L491.906 309.825L493.692 310.813C493.86 310.905 494.065 310.894 494.222 310.784C494.379 310.673 494.458 310.484 494.428 310.295L494.081 308.17L495.545 306.67C495.676 306.536 495.721 306.34 495.662 306.162C495.602 305.985 495.449 305.855 495.263 305.827L493.26 305.519L492.359 303.6Z"
            fill="url(#gradient11_linear_429_5250)"
            stroke="#FD366E"
            stroke-linecap="round"
            stroke-linejoin="round"
        />
        <path
            d="M474.546 292.35C474.464 292.175 474.288 292.062 474.094 292.062C473.9 292.062 473.724 292.175 473.641 292.35L472.74 294.269L470.737 294.577C470.551 294.605 470.398 294.735 470.338 294.912C470.279 295.09 470.324 295.286 470.455 295.42L471.919 296.92L471.572 299.045C471.542 299.234 471.621 299.423 471.778 299.534C471.935 299.644 472.14 299.655 472.308 299.563L474.094 298.575L475.88 299.563C476.047 299.655 476.253 299.644 476.409 299.534C476.566 299.423 476.646 299.234 476.615 299.045L476.268 296.92L477.733 295.42C477.864 295.286 477.909 295.09 477.849 294.912C477.79 294.735 477.636 294.605 477.451 294.577L475.447 294.269L474.546 292.35Z"
            fill="url(#gradient12_linear_429_5250)"
            stroke="#FD366E"
            stroke-linecap="round"
            stroke-linejoin="round"
        />
        <path
            d="M474.546 302.663C474.464 302.487 474.288 302.375 474.094 302.375C473.9 302.375 473.724 302.487 473.641 302.663L472.74 304.581L470.737 304.889C470.551 304.918 470.398 305.047 470.338 305.225C470.279 305.403 470.324 305.599 470.455 305.733L471.919 307.232L471.572 309.357C471.542 309.546 471.621 309.736 471.778 309.846C471.935 309.957 472.14 309.968 472.308 309.875L474.094 308.888L475.88 309.875C476.047 309.968 476.253 309.957 476.409 309.846C476.566 309.736 476.646 309.546 476.615 309.357L476.268 307.232L477.733 305.733C477.864 305.599 477.909 305.403 477.849 305.225C477.79 305.047 477.636 304.918 477.451 304.889L475.447 304.581L474.546 302.663Z"
            fill="url(#gradient13_linear_429_5250)"
            stroke="#FD366E"
            stroke-linecap="round"
            stroke-linejoin="round"
        />
        <path
            d="M515.153 299.04C515.044 298.695 514.896 298.386 514.71 298.114C514.528 297.837 514.311 297.602 514.057 297.409C513.803 297.212 513.513 297.062 513.188 296.96C512.866 296.858 512.511 296.807 512.125 296.807C511.47 296.807 510.879 296.975 510.352 297.312C509.826 297.65 509.409 298.144 509.102 298.795C508.799 299.443 508.648 300.237 508.648 301.176C508.648 302.119 508.801 302.917 509.108 303.568C509.415 304.22 509.835 304.714 510.369 305.051C510.903 305.388 511.511 305.557 512.193 305.557C512.826 305.557 513.377 305.428 513.847 305.17C514.32 304.913 514.686 304.549 514.943 304.08C515.205 303.606 515.335 303.049 515.335 302.409L515.79 302.494H512.46V301.045H517.034V302.369C517.034 303.347 516.826 304.195 516.409 304.915C515.996 305.631 515.424 306.184 514.693 306.574C513.966 306.964 513.133 307.159 512.193 307.159C511.14 307.159 510.216 306.917 509.42 306.432C508.629 305.947 508.011 305.259 507.568 304.369C507.125 303.475 506.903 302.415 506.903 301.188C506.903 300.259 507.032 299.426 507.29 298.688C507.547 297.949 507.909 297.322 508.375 296.807C508.845 296.288 509.396 295.892 510.028 295.619C510.665 295.343 511.36 295.205 512.114 295.205C512.742 295.205 513.328 295.297 513.869 295.483C514.415 295.669 514.9 295.932 515.324 296.273C515.752 296.614 516.106 297.019 516.386 297.489C516.667 297.955 516.856 298.472 516.955 299.04H515.153ZM522.958 307H519.191V295.364H523.077C524.217 295.364 525.196 295.597 526.015 296.062C526.833 296.525 527.46 297.189 527.895 298.057C528.335 298.92 528.554 299.956 528.554 301.165C528.554 302.377 528.333 303.419 527.89 304.29C527.45 305.161 526.814 305.831 525.981 306.301C525.147 306.767 524.14 307 522.958 307ZM520.946 305.466H522.861C523.748 305.466 524.484 305.299 525.071 304.966C525.659 304.629 526.098 304.142 526.39 303.506C526.681 302.866 526.827 302.085 526.827 301.165C526.827 300.252 526.681 299.477 526.39 298.841C526.102 298.205 525.672 297.722 525.1 297.392C524.528 297.062 523.818 296.898 522.969 296.898H520.946V305.466ZM530.666 307V295.364H534.813C535.719 295.364 536.469 295.528 537.063 295.858C537.658 296.187 538.103 296.638 538.399 297.21C538.694 297.778 538.842 298.419 538.842 299.131C538.842 299.847 538.692 300.491 538.393 301.062C538.097 301.631 537.651 302.081 537.052 302.415C536.457 302.744 535.709 302.909 534.808 302.909H531.955V301.42H534.649C535.221 301.42 535.685 301.322 536.041 301.125C536.397 300.924 536.658 300.652 536.825 300.307C536.991 299.962 537.075 299.57 537.075 299.131C537.075 298.691 536.991 298.301 536.825 297.96C536.658 297.619 536.395 297.352 536.035 297.159C535.679 296.966 535.209 296.869 534.626 296.869H532.421V307H530.666ZM540.828 307V295.364H544.976C545.877 295.364 546.625 295.519 547.22 295.83C547.819 296.14 548.266 296.57 548.561 297.119C548.856 297.665 549.004 298.295 549.004 299.011C549.004 299.723 548.855 300.35 548.555 300.892C548.26 301.43 547.813 301.848 547.214 302.148C546.62 302.447 545.872 302.597 544.97 302.597H541.828V301.085H544.811C545.379 301.085 545.841 301.004 546.197 300.841C546.557 300.678 546.82 300.441 546.987 300.131C547.154 299.82 547.237 299.447 547.237 299.011C547.237 298.572 547.152 298.191 546.981 297.869C546.815 297.547 546.552 297.301 546.192 297.131C545.836 296.956 545.368 296.869 544.788 296.869H542.584V307H540.828ZM546.572 301.75L549.447 307H547.447L544.629 301.75H546.572Z"
            fill="#19191C"
        />
        <rect x="696" y="290.5" width="31" height="21" rx="10.5" fill="#FD366E" />
        <circle cx="716.5" cy="301" r="9" fill="white" />
        <path d="M468 328H727" stroke="white" stroke-opacity="0.12" stroke-width="1.2" />
        <path
            d="M481.119 344.367C481.795 343.875 482.133 343.63 482.503 343.535C482.829 343.451 483.171 343.451 483.497 343.535C483.867 343.63 484.205 343.875 484.881 344.367L492.532 349.925C493.208 350.416 493.546 350.662 493.75 350.984C493.931 351.269 494.036 351.594 494.058 351.93C494.082 352.311 493.952 352.708 493.694 353.503L490.772 362.497C490.514 363.292 490.385 363.689 490.141 363.983C489.927 364.243 489.65 364.444 489.337 364.568C488.982 364.708 488.564 364.708 487.728 364.708H478.272C477.436 364.708 477.018 364.708 476.663 364.568C476.35 364.444 476.073 364.243 475.859 363.983C475.615 363.689 475.486 363.292 475.228 362.497L472.306 353.503C472.048 352.708 471.918 352.311 471.942 351.93C471.964 351.594 472.069 351.269 472.25 350.984C472.454 350.662 472.792 350.416 473.468 349.925L481.119 344.367Z"
            fill="url(#gradient14_linear_429_5250)"
            stroke="#FD366E"
            stroke-width="1.2"
            stroke-linecap="round"
            stroke-linejoin="round"
        />
        <g filter="url(#filter4_b_429_5250)">
            <path
                d="M481.824 349.854C482.525 349.345 483.475 349.345 484.176 349.854L487.531 352.292C488.232 352.801 488.525 353.704 488.257 354.528L486.976 358.472C486.708 359.296 485.94 359.854 485.074 359.854H480.926C480.06 359.854 479.292 359.296 479.024 358.472L477.743 354.528C477.475 353.704 477.768 352.801 478.469 352.292L481.824 349.854Z"
                fill="white"
                fill-opacity="0.64"
            />
            <path
                d="M481.824 349.854C482.525 349.345 483.475 349.345 484.176 349.854L487.531 352.292C488.232 352.801 488.525 353.704 488.257 354.528L486.976 358.472C486.708 359.296 485.94 359.854 485.074 359.854H480.926C480.06 359.854 479.292 359.296 479.024 358.472L477.743 354.528C477.475 353.704 477.768 352.801 478.469 352.292L481.824 349.854Z"
                stroke="#FD366E"
                stroke-width="1.2"
                stroke-linecap="round"
                stroke-linejoin="round"
            />
        </g>
        <path
            d="M513.625 352.42C513.564 351.883 513.314 351.466 512.875 351.17C512.436 350.871 511.883 350.722 511.216 350.722C510.739 350.722 510.326 350.797 509.977 350.949C509.629 351.097 509.358 351.301 509.165 351.562C508.975 351.82 508.881 352.114 508.881 352.443C508.881 352.72 508.945 352.958 509.074 353.159C509.206 353.36 509.379 353.528 509.591 353.665C509.807 353.797 510.038 353.909 510.284 354C510.53 354.087 510.767 354.159 510.994 354.216L512.131 354.511C512.502 354.602 512.883 354.725 513.273 354.881C513.663 355.036 514.025 355.241 514.358 355.494C514.691 355.748 514.96 356.062 515.165 356.438C515.373 356.812 515.477 357.261 515.477 357.784C515.477 358.443 515.307 359.028 514.966 359.54C514.629 360.051 514.138 360.455 513.494 360.75C512.854 361.045 512.08 361.193 511.17 361.193C510.299 361.193 509.545 361.055 508.909 360.778C508.273 360.502 507.775 360.11 507.415 359.602C507.055 359.091 506.856 358.485 506.818 357.784H508.58C508.614 358.205 508.75 358.555 508.989 358.835C509.231 359.112 509.54 359.318 509.915 359.455C510.294 359.587 510.708 359.653 511.159 359.653C511.655 359.653 512.097 359.576 512.483 359.42C512.873 359.261 513.18 359.042 513.403 358.761C513.627 358.477 513.739 358.146 513.739 357.767C513.739 357.422 513.64 357.14 513.443 356.92C513.25 356.701 512.987 356.519 512.653 356.375C512.324 356.231 511.951 356.104 511.534 355.994L510.159 355.619C509.227 355.366 508.489 354.992 507.943 354.5C507.402 354.008 507.131 353.356 507.131 352.545C507.131 351.875 507.313 351.29 507.676 350.79C508.04 350.29 508.532 349.902 509.153 349.625C509.775 349.345 510.475 349.205 511.256 349.205C512.044 349.205 512.739 349.343 513.341 349.619C513.947 349.896 514.424 350.277 514.773 350.761C515.121 351.242 515.303 351.795 515.318 352.42H513.625ZM527.611 355.182C527.611 356.424 527.384 357.492 526.929 358.386C526.475 359.277 525.852 359.962 525.06 360.443C524.272 360.92 523.376 361.159 522.373 361.159C521.365 361.159 520.465 360.92 519.674 360.443C518.886 359.962 518.265 359.275 517.81 358.381C517.356 357.487 517.128 356.42 517.128 355.182C517.128 353.939 517.356 352.873 517.81 351.983C518.265 351.089 518.886 350.403 519.674 349.926C520.465 349.445 521.365 349.205 522.373 349.205C523.376 349.205 524.272 349.445 525.06 349.926C525.852 350.403 526.475 351.089 526.929 351.983C527.384 352.873 527.611 353.939 527.611 355.182ZM525.873 355.182C525.873 354.235 525.719 353.437 525.412 352.79C525.109 352.138 524.693 351.646 524.162 351.312C523.636 350.975 523.039 350.807 522.373 350.807C521.702 350.807 521.104 350.975 520.577 351.312C520.051 351.646 519.634 352.138 519.327 352.79C519.024 353.437 518.873 354.235 518.873 355.182C518.873 356.129 519.024 356.928 519.327 357.58C519.634 358.227 520.051 358.72 520.577 359.057C521.104 359.39 521.702 359.557 522.373 359.557C523.039 359.557 523.636 359.39 524.162 359.057C524.693 358.72 525.109 358.227 525.412 357.58C525.719 356.928 525.873 356.129 525.873 355.182ZM539.393 353.148H537.62C537.552 352.769 537.425 352.436 537.24 352.148C537.054 351.86 536.827 351.616 536.558 351.415C536.289 351.214 535.988 351.062 535.654 350.96C535.325 350.858 534.974 350.807 534.603 350.807C533.933 350.807 533.332 350.975 532.802 351.312C532.276 351.65 531.859 352.144 531.552 352.795C531.249 353.447 531.097 354.242 531.097 355.182C531.097 356.129 531.249 356.928 531.552 357.58C531.859 358.231 532.277 358.723 532.808 359.057C533.338 359.39 533.935 359.557 534.597 359.557C534.965 359.557 535.313 359.508 535.643 359.409C535.976 359.307 536.277 359.157 536.546 358.96C536.815 358.763 537.043 358.523 537.228 358.239C537.418 357.951 537.548 357.621 537.62 357.25L539.393 357.256C539.298 357.828 539.115 358.354 538.842 358.835C538.573 359.312 538.226 359.725 537.802 360.074C537.382 360.419 536.901 360.686 536.359 360.875C535.817 361.064 535.226 361.159 534.586 361.159C533.579 361.159 532.681 360.92 531.893 360.443C531.105 359.962 530.484 359.275 530.029 358.381C529.579 357.487 529.353 356.42 529.353 355.182C529.353 353.939 529.58 352.873 530.035 351.983C530.49 351.089 531.111 350.403 531.899 349.926C532.686 349.445 533.582 349.205 534.586 349.205C535.204 349.205 535.779 349.294 536.313 349.472C536.851 349.646 537.334 349.903 537.762 350.244C538.19 350.581 538.544 350.994 538.825 351.483C539.105 351.968 539.294 352.523 539.393 353.148ZM546.427 354.443V355.92H541.268V354.443H546.427ZM548.128 361V359.727L552.066 355.648C552.486 355.205 552.833 354.816 553.105 354.483C553.382 354.146 553.588 353.826 553.725 353.523C553.861 353.22 553.929 352.898 553.929 352.557C553.929 352.17 553.838 351.837 553.657 351.557C553.475 351.273 553.227 351.055 552.912 350.903C552.598 350.748 552.244 350.67 551.85 350.67C551.433 350.67 551.069 350.756 550.759 350.926C550.448 351.097 550.21 351.337 550.043 351.648C549.876 351.958 549.793 352.322 549.793 352.739H548.117C548.117 352.03 548.28 351.411 548.605 350.881C548.931 350.35 549.378 349.939 549.946 349.648C550.515 349.352 551.16 349.205 551.884 349.205C552.615 349.205 553.259 349.35 553.816 349.642C554.376 349.93 554.814 350.324 555.128 350.824C555.443 351.32 555.6 351.881 555.6 352.506C555.6 352.938 555.518 353.36 555.355 353.773C555.196 354.186 554.918 354.646 554.52 355.153C554.123 355.657 553.569 356.269 552.861 356.989L550.549 359.409V359.494H555.787V361H548.128Z"
            fill="#19191C"
        />
        <rect x="696" y="344.5" width="31" height="21" rx="10.5" fill="#FD366E" />
        <circle cx="716.5" cy="355" r="9" fill="white" />
        <path d="M468 382H727" stroke="white" stroke-opacity="0.12" stroke-width="1.2" />
        <rect
            x="471.75"
            y="397"
            width="22.5"
            height="24"
            rx="2"
            fill="url(#gradient15_linear_429_5250)"
            stroke="#FD366E"
            stroke-width="1.2"
            stroke-linecap="round"
            stroke-linejoin="round"
        />
        <g filter="url(#filter5_b_429_5250)">
            <path
                fill-rule="evenodd"
                clip-rule="evenodd"
                d="M480.166 400H476.833V402.083H474.75V405.416H476.833V407.5H480.166V405.416H482.25V402.083H480.166V400Z"
                fill="white"
                fill-opacity="0.64"
            />
            <path
                d="M476.833 400V399.4C476.502 399.4 476.233 399.669 476.233 400H476.833ZM480.166 400H480.766C480.766 399.669 480.498 399.4 480.166 399.4V400ZM476.833 402.083V402.683C477.164 402.683 477.433 402.414 477.433 402.083H476.833ZM474.75 402.083V401.483C474.419 401.483 474.15 401.752 474.15 402.083H474.75ZM474.75 405.416H474.15C474.15 405.748 474.419 406.016 474.75 406.016V405.416ZM476.833 405.416H477.433C477.433 405.085 477.164 404.816 476.833 404.816V405.416ZM476.833 407.5H476.233C476.233 407.831 476.502 408.1 476.833 408.1V407.5ZM480.166 407.5V408.1C480.498 408.1 480.766 407.831 480.766 407.5H480.166ZM480.166 405.416V404.816C479.835 404.816 479.566 405.085 479.566 405.416H480.166ZM482.25 405.416V406.016C482.581 406.016 482.85 405.748 482.85 405.416H482.25ZM482.25 402.083H482.85C482.85 401.752 482.581 401.483 482.25 401.483V402.083ZM480.166 402.083H479.566C479.566 402.414 479.835 402.683 480.166 402.683V402.083ZM476.833 400.6H480.166V399.4H476.833V400.6ZM477.433 402.083V400H476.233V402.083H477.433ZM474.75 402.683H476.833V401.483H474.75V402.683ZM475.35 405.416V402.083H474.15V405.416H475.35ZM476.833 404.816H474.75V406.016H476.833V404.816ZM477.433 407.5V405.416H476.233V407.5H477.433ZM480.166 406.9H476.833V408.1H480.166V406.9ZM479.566 405.416V407.5H480.766V405.416H479.566ZM482.25 404.816H480.166V406.016H482.25V404.816ZM481.65 402.083V405.416H482.85V402.083H481.65ZM480.166 402.683H482.25V401.483H480.166V402.683ZM479.566 400V402.083H480.766V400H479.566Z"
                fill="#FD366E"
            />
        </g>
        <path
            d="M474.75 416.5H480"
            stroke="#FD366E"
            stroke-width="1.2"
            stroke-linecap="round"
            stroke-linejoin="round"
        />
        <path
            d="M474.75 413.5H491.25"
            stroke="#FD366E"
            stroke-width="1.2"
            stroke-linecap="round"
            stroke-linejoin="round"
        />
        <path
            d="M474.75 410.5H491.25"
            stroke="#FD366E"
            stroke-width="1.2"
            stroke-linecap="round"
            stroke-linejoin="round"
        />
        <path
            d="M507.278 415V403.364H509.034V408.42H514.835V403.364H516.597V415H514.835V409.926H509.034V415H507.278ZM520.837 403.364V415H519.081V403.364H520.837ZM523.322 415V403.364H527.47C528.375 403.364 529.125 403.528 529.72 403.858C530.314 404.187 530.759 404.638 531.055 405.21C531.35 405.778 531.498 406.419 531.498 407.131C531.498 407.847 531.348 408.491 531.049 409.062C530.754 409.631 530.307 410.081 529.708 410.415C529.114 410.744 528.365 410.909 527.464 410.909H524.612V409.42H527.305C527.877 409.42 528.341 409.322 528.697 409.125C529.053 408.924 529.314 408.652 529.481 408.307C529.648 407.962 529.731 407.57 529.731 407.131C529.731 406.691 529.648 406.301 529.481 405.96C529.314 405.619 529.051 405.352 528.691 405.159C528.335 404.966 527.865 404.869 527.282 404.869H525.078V415H523.322ZM533.233 415H531.369L535.557 403.364H537.585L541.773 415H539.909L536.619 405.477H536.528L533.233 415ZM533.545 410.443H539.591V411.92H533.545V410.443ZM544.364 415H542.5L546.688 403.364H548.716L552.904 415H551.04L547.75 405.477H547.659L544.364 415ZM544.676 410.443H550.722V411.92H544.676V410.443Z"
            fill="#19191C"
        />
        <rect x="696" y="398.5" width="31" height="21" rx="10.5" fill="#FD366E" />
        <circle cx="716.5" cy="409" r="9" fill="white" />
    </g>
    <defs>
        <filter
            id="filter0_f_429_5250"
            x="0"
            y="0"
            width="600"
            height="600"
            filterUnits="userSpaceOnUse"
            color-interpolation-filters="sRGB"
        >
            <feFlood flood-opacity="0" result="BackgroundImageFix" />
            <feBlend mode="normal" in="SourceGraphic" in2="BackgroundImageFix" result="shape" />
            <feGaussianBlur stdDeviation="90" result="effect1_foregroundBlur_429_5250" />
        </filter>
        <filter
            id="filter1_d_429_5250"
            x="380"
            y="88"
            width="443"
            height="432"
            filterUnits="userSpaceOnUse"
            color-interpolation-filters="sRGB"
        >
            <feFlood flood-opacity="0" result="BackgroundImageFix" />
            <feColorMatrix
                in="SourceAlpha"
                type="matrix"
                values="0 0 0 0 0 0 0 0 0 0 0 0 0 0 0 0 0 0 127 0"
                result="hardAlpha"
            />
            <feMorphology
                radius="24"
                operator="dilate"
                in="SourceAlpha"
                result="effect1_dropShadow_429_5250"
            />
            <feOffset dx="4" dy="4" />
            <feGaussianBlur stdDeviation="24" />
            <feComposite in2="hardAlpha" operator="out" />
            <feColorMatrix type="matrix" values="0 0 0 0 0 0 0 0 0 0 0 0 0 0 0 0 0 0 0.06 0" />
            <feBlend mode="normal" in2="BackgroundImageFix" result="effect1_dropShadow_429_5250" />
            <feBlend
                mode="normal"
                in="SourceGraphic"
                in2="effect1_dropShadow_429_5250"
                result="shape"
            />
        </filter>
        <filter
            id="filter2_b_429_5250"
            x="474.398"
            y="184.4"
            width="19.2031"
            height="23.2"
            filterUnits="userSpaceOnUse"
            color-interpolation-filters="sRGB"
        >
            <feFlood flood-opacity="0" result="BackgroundImageFix" />
            <feGaussianBlur in="BackgroundImageFix" stdDeviation="3" />
            <feComposite in2="SourceAlpha" operator="in" result="effect1_backgroundBlur_429_5250" />
            <feBlend
                mode="normal"
                in="SourceGraphic"
                in2="effect1_backgroundBlur_429_5250"
                result="shape"
            />
        </filter>
        <filter
            id="filter3_b_429_5250"
            x="478.398"
            y="240.9"
            width="21.2031"
            height="21.2"
            filterUnits="userSpaceOnUse"
            color-interpolation-filters="sRGB"
        >
            <feFlood flood-opacity="0" result="BackgroundImageFix" />
            <feGaussianBlur in="BackgroundImageFix" stdDeviation="2" />
            <feComposite in2="SourceAlpha" operator="in" result="effect1_backgroundBlur_429_5250" />
            <feBlend
                mode="normal"
                in="SourceGraphic"
                in2="effect1_backgroundBlur_429_5250"
                result="shape"
            />
        </filter>
        <filter
            id="filter4_b_429_5250"
            x="473.043"
            y="344.872"
            width="19.9141"
            height="19.5819"
            filterUnits="userSpaceOnUse"
            color-interpolation-filters="sRGB"
        >
            <feFlood flood-opacity="0" result="BackgroundImageFix" />
            <feGaussianBlur in="BackgroundImageFix" stdDeviation="2" />
            <feComposite in2="SourceAlpha" operator="in" result="effect1_backgroundBlur_429_5250" />
            <feBlend
                mode="normal"
                in="SourceGraphic"
                in2="effect1_backgroundBlur_429_5250"
                result="shape"
            />
        </filter>
        <filter
            id="filter5_b_429_5250"
            x="470.148"
            y="395.4"
            width="16.7031"
            height="16.7"
            filterUnits="userSpaceOnUse"
            color-interpolation-filters="sRGB"
        >
            <feFlood flood-opacity="0" result="BackgroundImageFix" />
            <feGaussianBlur in="BackgroundImageFix" stdDeviation="2" />
            <feComposite in2="SourceAlpha" operator="in" result="effect1_backgroundBlur_429_5250" />
            <feBlend
                mode="normal"
                in="SourceGraphic"
                in2="effect1_backgroundBlur_429_5250"
                result="shape"
            />
        </filter>
        <linearGradient
            id="gradient0_linear_429_5250"
            x1="353"
            y1="303.5"
            x2="448"
            y2="303.5"
            gradientUnits="userSpaceOnUse"
        >
            <stop offset="0.214942" stop-color="#972042" stop-opacity="0" />
            <stop offset="1" stop-color="#FD366E" />
        </linearGradient>
        <radialGradient
            id="gradient1_radial_429_5250"
            cx="0"
            cy="0"
            r="1"
            gradientUnits="userSpaceOnUse"
            gradientTransform="translate(300.016 300) rotate(90) scale(122.727 128.571)"
        >
            <stop stop-color="#FD366E" stop-opacity="0.4" />
            <stop offset="1" stop-color="#FD366E" stop-opacity="0" />
        </radialGradient>
        <linearGradient
            id="gradient2_linear_429_5250"
            x1="282.509"
            y1="215.988"
            x2="282.509"
            y2="383.012"
            gradientUnits="userSpaceOnUse"
        >
            <stop stop-color="#FD366E" stop-opacity="0" />
            <stop offset="1" stop-color="#FD366E" stop-opacity="0.4" />
        </linearGradient>
        <linearGradient
            id="gradient3_linear_429_5250"
            x1="322.7"
            y1="289.45"
            x2="322.7"
            y2="369.85"
            gradientUnits="userSpaceOnUse"
        >
            <stop stop-color="#FD366E" stop-opacity="0.32" />
            <stop offset="1" stop-color="#FD366E" />
        </linearGradient>
        <linearGradient
            id="gradient4_linear_429_5250"
            x1="485.768"
            y1="175.952"
            x2="743.036"
            y2="476.799"
            gradientUnits="userSpaceOnUse"
        >
            <stop stop-color="white" stop-opacity="0.72" />
            <stop offset="1" stop-color="white" stop-opacity="0" />
        </linearGradient>
        <linearGradient
            id="gradient5_linear_429_5250"
            x1="587.342"
            y1="136.089"
            x2="554.059"
            y2="480.2"
            gradientUnits="userSpaceOnUse"
        >
            <stop stop-color="white" stop-opacity="0.16" />
            <stop offset="1" stop-color="white" stop-opacity="0" />
        </linearGradient>
        <linearGradient
            id="gradient6_linear_429_5250"
            x1="484.002"
            y1="187"
            x2="484.002"
            y2="205"
            gradientUnits="userSpaceOnUse"
        >
            <stop stop-color="#FD366E" stop-opacity="0" />
            <stop offset="1" stop-color="#FD366E" stop-opacity="0.32" />
        </linearGradient>
        <linearGradient
            id="gradient7_linear_429_5250"
            x1="483.001"
            y1="234.536"
            x2="483.001"
            y2="259.464"
            gradientUnits="userSpaceOnUse"
        >
            <stop stop-color="#FD366E" stop-opacity="0" />
            <stop offset="1" stop-color="#FD366E" stop-opacity="0.4" />
        </linearGradient>
        <linearGradient
            id="gradient8_linear_429_5250"
            x1="483"
            y1="287.958"
            x2="483"
            y2="294.356"
            gradientUnits="userSpaceOnUse"
        >
            <stop stop-color="#FD366E" stop-opacity="0" />
            <stop offset="1" stop-color="#FD366E" stop-opacity="0.32" />
        </linearGradient>
        <linearGradient
            id="gradient9_linear_429_5250"
            x1="483"
            y1="307.645"
            x2="483"
            y2="314.044"
            gradientUnits="userSpaceOnUse"
        >
            <stop stop-color="#FD366E" stop-opacity="0" />
            <stop offset="1" stop-color="#FD366E" stop-opacity="0.32" />
        </linearGradient>
        <linearGradient
            id="gradient10_linear_429_5250"
            x1="491.907"
            y1="292.645"
            x2="491.907"
            y2="299.044"
            gradientUnits="userSpaceOnUse"
        >
            <stop stop-color="#FD366E" stop-opacity="0" />
            <stop offset="1" stop-color="#FD366E" stop-opacity="0.32" />
        </linearGradient>
        <linearGradient
            id="gradient11_linear_429_5250"
            x1="491.907"
            y1="303.895"
            x2="491.907"
            y2="310.294"
            gradientUnits="userSpaceOnUse"
        >
            <stop stop-color="#FD366E" stop-opacity="0" />
            <stop offset="1" stop-color="#FD366E" stop-opacity="0.32" />
        </linearGradient>
        <linearGradient
            id="gradient12_linear_429_5250"
            x1="474.094"
            y1="292.645"
            x2="474.094"
            y2="299.044"
            gradientUnits="userSpaceOnUse"
        >
            <stop stop-color="#FD366E" stop-opacity="0" />
            <stop offset="1" stop-color="#FD366E" stop-opacity="0.32" />
        </linearGradient>
        <linearGradient
            id="gradient13_linear_429_5250"
            x1="474.094"
            y1="302.958"
            x2="474.094"
            y2="309.356"
            gradientUnits="userSpaceOnUse"
        >
            <stop stop-color="#FD366E" stop-opacity="0" />
            <stop offset="1" stop-color="#FD366E" stop-opacity="0.32" />
        </linearGradient>
        <linearGradient
            id="gradient14_linear_429_5250"
            x1="483.001"
            y1="343.302"
            x2="483.001"
            y2="366.702"
            gradientUnits="userSpaceOnUse"
        >
            <stop stop-color="#FD366E" stop-opacity="0" />
            <stop offset="1" stop-color="#FD366E" stop-opacity="0.32" />
        </linearGradient>
        <linearGradient
            id="gradient15_linear_429_5250"
            x1="483.001"
            y1="397.302"
            x2="483.001"
            y2="420.702"
            gradientUnits="userSpaceOnUse"
        >
            <stop stop-color="#FD366E" stop-opacity="0" />
            <stop offset="1" stop-color="#FD366E" stop-opacity="0.32" />
        </linearGradient>
    </defs>
</svg>
