<svg width="40" height="40" viewBox="0 0 40 40" fill="none" xmlns="http://www.w3.org/2000/svg">
  <path d="M34 29.5V10.5C34 8.29086 32.2091 6.5 30 6.5H10C7.79086 6.5 6 8.29086 6 10.5V29.5C6 31.7091 7.79086 33.5 10 33.5H30C32.2091 33.5 34 31.7091 34 29.5Z" fill="url(#paint0_linear)"/>
  
  <!-- bottom segment -->
  <path d="M10 33.5C7.79086 33.5 6 31.7091 6 29.5V24.5H34V29.5C34 31.7091 32.2091 33.5 30 33.5H10Z" 
        stroke="#FD366E" stroke-width="1.2" stroke-linecap="round" stroke-linejoin="round"/>
  
  <!-- middle segment -->
  <path d="M6 24.5V15.5H34V24.5H6Z" 
        stroke="#FD366E" stroke-width="1.2" stroke-linecap="round" stroke-linejoin="round"/>
  
  <!-- top segment -->
  <path d="M6 15.5V10.5C6 8.29086 7.79086 6.5 10 6.5H30C32.2091 6.5 34 8.29086 34 10.5V15.5H6Z" 
        stroke="#FD366E" stroke-width="1.2" stroke-linecap="round" stroke-linejoin="round"/>
  
  <circle cx="11" cy="29" r="1" fill="#FD366E"/>
  <circle cx="11" cy="20" r="1" fill="#FD366E"/>
  <circle cx="11" cy="11" r="1" fill="#FD366E"/>
  
  <defs>
    <linearGradient id="paint0_linear" x1="20" y1="6.2" x2="20" y2="33.8" gradientUnits="userSpaceOnUse">
      <stop stop-color="#FD366E" stop-opacity="0"/>
      <stop offset="1" stop-color="#FD366E" stop-opacity="0.4"/>
    </linearGradient>
  </defs>
</svg>