<svg width="40" height="40" viewBox="0 0 40 40" fill="none" xmlns="http://www.w3.org/2000/svg">
<g clip-path="url(#clip0_872_25855)">
<path fill-rule="evenodd" clip-rule="evenodd" d="M31.2395 16.5269C31.2283 16.5269 31.2196 16.5174 31.2206 16.5063C31.2456 16.2169 31.2584 15.9242 31.2584 15.6287C31.2584 9.75864 26.2219 5 20.0091 5C13.7963 5 8.75985 9.75864 8.75985 15.6287C8.75985 15.9242 8.77261 16.2169 8.79765 16.5063C8.79861 16.5174 8.78989 16.5269 8.77878 16.5269C8.76832 16.5269 8.75985 16.5354 8.75985 16.5458V18.3217C8.75985 18.325 8.7565 18.3272 8.75348 18.3259C8.75058 18.3247 8.74733 18.3267 8.74712 18.3298C8.71588 18.8004 8.72088 19.2913 8.75985 19.7941V27.2009C8.75985 27.5965 8.52317 27.9537 8.15887 28.108C7.17027 28.5265 7.46933 30 8.54288 30H16.6499H23.3683H31.4754C32.5489 30 32.848 28.5265 31.8594 28.108C31.4951 27.9537 31.2584 27.5965 31.2584 27.2009V19.7937C31.2973 19.2911 31.3023 18.8003 31.2711 18.3298C31.2709 18.3266 31.2676 18.3247 31.2647 18.3259C31.2617 18.3272 31.2584 18.3249 31.2584 18.3217V16.5458C31.2584 16.5354 31.2499 16.5269 31.2395 16.5269Z" fill="url(#paint0_linear_872_25855)"/>
<path d="M8.75985 19.7941H9.25985C9.25985 19.7812 9.25935 19.7683 9.25836 19.7554L8.75985 19.7941ZM31.2584 19.7937L30.7599 19.7551C30.7589 19.7679 30.7584 19.7808 30.7584 19.7937H31.2584ZM8.74712 18.3298L9.24603 18.3629L8.74712 18.3298ZM31.2711 18.3298L31.77 18.2967L31.2711 18.3298ZM8.79765 16.5063L9.29579 16.4632L8.79765 16.5063ZM31.2206 16.5063L30.7224 16.4632L31.2206 16.5063ZM30.7584 15.6287C30.7584 15.9098 30.7462 16.1881 30.7224 16.4632L31.7187 16.5494C31.745 16.2457 31.7584 15.9386 31.7584 15.6287H30.7584ZM20.0091 5.5C25.9729 5.5 30.7584 10.0611 30.7584 15.6287H31.7584C31.7584 9.45614 26.4709 4.5 20.0091 4.5V5.5ZM9.25985 15.6287C9.25985 10.0611 14.0454 5.5 20.0091 5.5V4.5C13.5473 4.5 8.25985 9.45614 8.25985 15.6287H9.25985ZM9.29579 16.4632C9.27199 16.1881 9.25985 15.9098 9.25985 15.6287H8.25985C8.25985 15.9386 8.27324 16.2457 8.29951 16.5494L9.29579 16.4632ZM9.25985 18.3217V16.5458H8.25985V18.3217H9.25985ZM8.24822 18.2967C8.21524 18.7935 8.22071 19.3085 8.26135 19.8327L9.25836 19.7554C9.22105 19.2742 9.21652 18.8073 9.24603 18.3629L8.24822 18.2967ZM9.25985 27.2009V19.7941H8.25985V27.2009H9.25985ZM16.6499 29.5H8.54288V30.5H16.6499V29.5ZM16.6499 30.5H23.3683V29.5H16.6499V30.5ZM23.3683 30.5H31.4754V29.5H23.3683V30.5ZM30.7584 19.7937V27.2009H31.7584V19.7937H30.7584ZM30.7722 18.3629C30.8017 18.8072 30.7972 19.2739 30.7599 19.7551L31.7569 19.8323C31.7975 19.3083 31.803 18.7933 31.77 18.2967L30.7722 18.3629ZM30.7584 16.5458V18.3217H31.7584V16.5458H30.7584ZM31.7584 16.5458C31.7584 16.2592 31.5261 16.0269 31.2395 16.0269V17.0269C30.9738 17.0269 30.7584 16.8115 30.7584 16.5458H31.7584ZM32.0543 27.6475C31.8749 27.5716 31.7584 27.3957 31.7584 27.2009H30.7584C30.7584 27.7973 31.1152 28.3359 31.6644 28.5684L32.0543 27.6475ZM31.4754 30.5C33.0939 30.5 33.5447 28.2785 32.0543 27.6475L31.6644 28.5684C32.1512 28.7745 32.0039 29.5 31.4754 29.5V30.5ZM7.96394 27.6475C6.47351 28.2785 6.92438 30.5 8.54288 30.5V29.5C8.01429 29.5 7.86703 28.7745 8.3538 28.5684L7.96394 27.6475ZM8.25985 27.2009C8.25985 27.3957 8.14331 27.5716 7.96394 27.6475L8.3538 28.5684C8.90303 28.3359 9.25985 27.7973 9.25985 27.2009H8.25985ZM8.94842 17.8655C8.63009 17.7307 8.2713 17.949 8.24822 18.2967L9.24603 18.3629C9.22337 18.7043 8.87107 18.9186 8.55854 18.7863L8.94842 17.8655ZM31.77 18.2967C31.7469 17.949 31.3881 17.7307 31.0698 17.8654L31.4597 18.7863C31.1471 18.9186 30.7948 18.7043 30.7722 18.3629L31.77 18.2967ZM8.77878 16.0269C8.49218 16.0269 8.25985 16.2592 8.25985 16.5458H9.25985C9.25985 16.8115 9.04447 17.0269 8.77878 17.0269V16.0269ZM8.29951 16.5494C8.27526 16.2691 8.4961 16.0269 8.77878 16.0269V17.0269C9.08368 17.0269 9.32195 16.7657 9.29579 16.4632L8.29951 16.5494ZM31.0698 17.8654C31.3965 17.7271 31.7584 17.9669 31.7584 18.3217H30.7584C30.7584 18.683 31.127 18.9272 31.4597 18.7863L31.0698 17.8654ZM8.25985 18.3217C8.25985 17.9669 8.62176 17.7272 8.94842 17.8655L8.55854 18.7863C8.89124 18.9272 9.25985 18.683 9.25985 18.3217H8.25985ZM30.7224 16.4632C30.6963 16.7657 30.9346 17.0269 31.2395 17.0269V16.0269C31.5221 16.0269 31.743 16.2691 31.7187 16.5494L30.7224 16.4632Z" fill="#FD366E"/>
<mask id="path-3-inside-1_872_25855" fill="white">
<path d="M25.3801 32C25.3801 32.6566 25.2414 33.3068 24.9717 33.9134C24.702 34.52 24.3068 35.0712 23.8085 35.5355C23.3103 35.9998 22.7187 36.3681 22.0677 36.6194C21.4167 36.8707 20.7189 37 20.0143 37C19.3096 37 18.6119 36.8707 17.9609 36.6194C17.3099 36.3681 16.7183 35.9998 16.2201 35.5355C15.7218 35.0712 15.3265 34.52 15.0569 33.9134C14.7872 33.3068 14.6484 32.6566 14.6484 32L20.0143 32H25.3801Z"/>
</mask>
<path d="M25.3801 32C25.3801 32.6566 25.2414 33.3068 24.9717 33.9134C24.702 34.52 24.3068 35.0712 23.8085 35.5355C23.3103 35.9998 22.7187 36.3681 22.0677 36.6194C21.4167 36.8707 20.7189 37 20.0143 37C19.3096 37 18.6119 36.8707 17.9609 36.6194C17.3099 36.3681 16.7183 35.9998 16.2201 35.5355C15.7218 35.0712 15.3265 34.52 15.0569 33.9134C14.7872 33.3068 14.6484 32.6566 14.6484 32L20.0143 32H25.3801Z" fill="#EDEDF0" stroke="#FD366E" stroke-width="2.4" mask="url(#path-3-inside-1_872_25855)"/>
<path d="M16.6004 5.5C16.6004 5.18483 16.6887 4.77274 16.8603 4.48156C17.0319 4.19038 17.2835 3.9258 17.6005 3.70294C17.9176 3.48008 18.294 3.3033 18.7083 3.18269C19.1226 3.06208 19.5666 3 20.0151 3C20.4635 3 20.9075 3.06208 21.3218 3.18269C21.7361 3.3033 22.1125 3.48008 22.4296 3.70294C22.7466 3.9258 22.9982 4.19038 23.1698 4.48156C23.3414 4.77274 23.4297 5.18483 23.4297 5.5L20.0151 5L16.6004 5.5Z" fill="#FD366E"/>
<circle cx="30" cy="9" r="3.5" fill="#FD366E" stroke="#EDEDF0"/>
</g>
<defs>
<linearGradient id="paint0_linear_872_25855" x1="20.0106" y1="5" x2="20.0106" y2="30" gradientUnits="userSpaceOnUse">
<stop stop-color="#FD366E" stop-opacity="0"/>
<stop offset="1" stop-color="#FD366E" stop-opacity="0.4"/>
</linearGradient>
<clipPath id="clip0_872_25855">
<rect width="40" height="40" fill="white"/>
</clipPath>
</defs>
</svg>
