<svg xmlns="http://www.w3.org/2000/svg" width="48" height="48" viewBox="0 0 48 48" fill="none">
    <path d="M20.5116 6.85453C22.0082 5.03599 24.7926 5.03599 26.2892 6.85453L27.2536 8.02636C28.2992 9.29695 29.9088 9.96365 31.5466 9.80459L33.0571 9.65789C35.4013 9.43023 37.3702 11.3992 37.1425 13.7433L36.9958 15.2538C36.8368 16.8916 37.5035 18.5012 38.7741 19.5468L39.9459 20.5112C41.7644 22.0078 41.7644 24.7923 39.9459 26.2888L38.7741 27.2532C37.5035 28.2989 36.8368 29.9084 36.9958 31.5462L37.1425 33.0568C37.3702 35.4009 35.4013 37.3698 33.0571 37.1422L31.5466 36.9955C29.9088 36.8364 28.2992 37.5031 27.2536 38.7737L26.2892 39.9455C24.7926 41.7641 22.0082 41.7641 20.5116 39.9455L19.5472 38.7737C18.5016 37.5031 16.892 36.8364 15.2542 36.9955L13.7437 37.1422C11.3995 37.3698 9.4306 35.4009 9.65826 33.0568L9.80495 31.5462C9.96402 29.9084 9.29732 28.2989 8.02672 27.2532L6.8549 26.2888C5.03636 24.7923 5.03636 22.0078 6.8549 20.5112L8.02672 19.5468C9.29732 18.5012 9.96402 16.8916 9.80495 15.2538L9.65826 13.7433C9.4306 11.3991 11.3995 9.43023 13.7437 9.65789L15.2542 9.80459C16.892 9.96365 18.5016 9.29695 19.5472 8.02635L20.5116 6.85453Z" fill="url(#paint0_linear_277_6494)" stroke="#FD366E" stroke-width="1.2"/>
    <path d="M18 24L21.6 27.6L28.8 20.4" stroke="white" stroke-width="1.2" stroke-linecap="round" stroke-linejoin="round"/>
    <defs>
        <linearGradient id="paint0_linear_277_6494" x1="23.4004" y1="2.40002" x2="23.4004" y2="44.4" gradientUnits="userSpaceOnUse">
            <stop stop-color="#FD366E" stop-opacity="0"/>
            <stop offset="1" stop-color="#FD366E" stop-opacity="0.4"/>
        </linearGradient>
    </defs>
</svg>