<svg xmlns="http://www.w3.org/2000/svg" width="40" height="40" fill="none"><g clip-path="url(#a)"><path fill="url(#b)" stroke="#FD366E" stroke-linecap="round" stroke-linejoin="round" stroke-width="1.2" d="M16.602 33.647V33c0-5.523 4.477-10 10-10 5.522 0 10 4.477 10 10v.647h-20Z"/><circle cx="26.602" cy="17" r="5.4" stroke="#FD366E" stroke-width="1.2"/><circle cx="13.602" cy="13" r="5.4" stroke="#FD366E" stroke-width="1.2"/><path fill="url(#c)" fill-rule="evenodd" d="M3.602 29v.647h13.564c.3-.853.756-1.729 1.364-2.565 1.086-1.492 2.44-2.564 3.736-3.078A9.996 9.996 0 0 0 13.602 19c-5.523 0-10 4.477-10 10Z" clip-rule="evenodd"/><path fill="#FD366E" d="M3.602 29.647h-.6a.6.6 0 0 0 .6.6v-.6Zm13.564 0v.6a.6.6 0 0 0 .566-.401l-.566-.199Zm1.364-2.565.486.353-.485-.353Zm3.736-3.078.222.558a.6.6 0 0 0 .298-.858l-.52.3ZM4.202 29.648V29h-1.2v.647h1.2Zm9.4-.6h-10v1.2h10v-1.2Zm3 0h-3v1.2h3v-1.2Zm.564 0h-.564v1.2h.564v-1.2Zm.566.799a9.48 9.48 0 0 1 1.284-2.41l-.97-.707a10.68 10.68 0 0 0-1.446 2.72l1.132.397Zm1.284-2.41c1.03-1.418 2.3-2.409 3.472-2.874l-.443-1.115c-1.42.563-2.86 1.716-4 3.282l.97.706ZM13.602 19.6c3.48 0 6.52 1.891 8.145 4.705l1.039-.6a10.596 10.596 0 0 0-9.184-5.305v1.2Zm-9.4 9.4a9.4 9.4 0 0 1 9.4-9.4v-1.2c-5.855 0-10.6 4.746-10.6 10.6h1.2Z"/></g><defs><linearGradient id="b" x1="26.602" x2="26.602" y1="23" y2="42" gradientUnits="userSpaceOnUse"><stop stop-color="#FD366E" stop-opacity="0"/><stop offset="1" stop-color="#FD366E" stop-opacity=".6"/></linearGradient><linearGradient id="c" x1="13.602" x2="13.602" y1="19" y2="38" gradientUnits="userSpaceOnUse"><stop stop-color="#FD366E" stop-opacity="0"/><stop offset="1" stop-color="#FD366E" stop-opacity=".6"/></linearGradient><clipPath id="a"><path fill="#fff" d="M0 0h40v40H0z"/></clipPath></defs></svg>