<svg xmlns="http://www.w3.org/2000/svg" width="40" height="40" fill="none"><path fill="url(#a)" stroke="#FD366E" stroke-linecap="round" stroke-linejoin="round" stroke-width="1.2" d="M36 25.407v7.704C35.708 34.074 33.2 36 25.5 36S15.292 34.074 15 33.111v-7.704C15 24.393 17.8 23 25.5 23S36 24.393 36 25.407Z"/><path stroke="#FD366E" stroke-linecap="round" stroke-linejoin="round" stroke-width="1.2" d="M25.5 27.643c5.799 0 10.5-1.04 10.5-2.322S31.299 23 25.5 23 15 24.04 15 25.321c0 1.282 4.701 2.322 10.5 2.322Z"/><path fill="url(#b)" stroke="#FD366E" stroke-linecap="round" stroke-linejoin="round" stroke-width="1.2" d="M25 6.407v7.704C24.708 15.074 22.2 17 14.5 17S4.292 15.074 4 14.111V6.407C4 5.393 6.8 4 14.5 4S25 5.393 25 6.407Z"/><path stroke="#FD366E" stroke-linecap="round" stroke-linejoin="round" stroke-width="1.2" d="M14.5 8.643c5.799 0 10.5-1.04 10.5-2.322S20.299 4 14.5 4 4 5.04 4 6.321c0 1.283 4.701 2.322 10.5 2.322ZM29 10.5h1a2 2 0 0 1 2 2V19M11 30.5h-1a2 2 0 0 1-2-2V22"/><path stroke="#FD366E" stroke-linecap="round" stroke-linejoin="round" stroke-width="1.2" d="m5 24 3-3 3 3M29 17l3 3 3-3"/><defs><linearGradient id="a" x1="25.501" x2="25.501" y1="22.852" y2="36.148" gradientUnits="userSpaceOnUse"><stop stop-color="#FD366E" stop-opacity="0"/><stop offset="1" stop-color="#FD366E" stop-opacity=".4"/></linearGradient><linearGradient id="b" x1="14.501" x2="14.501" y1="3.852" y2="17.148" gradientUnits="userSpaceOnUse"><stop stop-color="#FD366E" stop-opacity="0"/><stop offset="1" stop-color="#FD366E" stop-opacity=".4"/></linearGradient></defs></svg>