<svg xmlns="http://www.w3.org/2000/svg" width="40" height="40" fill="none"><g clip-path="url(#a)"><path fill="url(#b)" d="M32.5 36v-3.5H34a3 3 0 0 0 3-3V20a3 3 0 0 0-3-3H19a3 3 0 0 0-3 3v9.5a3 3 0 0 0 3 3h9l4.5 3.5Z"/><path fill="#FD366E" d="M32.5 32.5v-.6h-.6v.6h.6Zm0 3.5-.368.474A.6.6 0 0 0 33.1 36h-.6ZM28 32.5l.368-.474-.162-.126H28v.6Zm3.9 0V36h1.2v-3.5h-1.2Zm.968 3.026-4.5-3.5-.736.948 4.5 3.5.736-.948ZM28 31.9h-9v1.2h9v-1.2Zm-11.4-2.4V20h-1.2v9.5h1.2ZM19 17.6h15v-1.2H19v1.2ZM36.4 20v9.5h1.2V20h-1.2ZM34 31.9h-1.5v1.2H34v-1.2Zm2.4-2.4a2.4 2.4 0 0 1-2.4 2.4v1.2a3.6 3.6 0 0 0 3.6-3.6h-1.2ZM34 17.6a2.4 2.4 0 0 1 2.4 2.4h1.2a3.6 3.6 0 0 0-3.6-3.6v1.2ZM16.6 20a2.4 2.4 0 0 1 2.4-2.4v-1.2a3.6 3.6 0 0 0-3.6 3.6h1.2ZM19 31.9a2.4 2.4 0 0 1-2.4-2.4h-1.2a3.6 3.6 0 0 0 3.6 3.6v-1.2Z"/><path fill="url(#c)" d="M7.5 23v-3.5H6a3 3 0 0 1-3-3V7a3 3 0 0 1 3-3h15a3 3 0 0 1 3 3v10h-4.969a3 3 0 0 0-2.785 1.886L16 19.5h-4L7.5 23Z"/><path fill="#FD366E" d="M7.5 19.5v-.6h.6v.6h-.6Zm0 3.5.368.474A.6.6 0 0 1 6.9 23h.6Zm4.5-3.5-.368-.474.162-.126H12v.6Zm4 0 .557.223-.15.377H16v-.6Zm8-2.5h.6v.6H24V17Zm-7.754 1.886.557.223-.557-.223ZM8.1 19.5V23H6.9v-3.5h1.2Zm-.968 3.026 4.5-3.5.736.948-4.5 3.5-.736-.948ZM21 4.6H6V3.4h15v1.2ZM3.6 7v9.5H2.4V7h1.2ZM6 18.9h1.5v1.2H6v-1.2Zm6 0h4v1.2h-4v-1.2ZM23.4 17V7h1.2v10h-1.2Zm.6.6h-4.969v-1.2H24v1.2Zm-7.197 1.509-.246.614-1.114-.446.246-.614 1.114.446ZM3.6 16.5A2.4 2.4 0 0 0 6 18.9v1.2a3.6 3.6 0 0 1-3.6-3.6h1.2ZM6 4.6A2.4 2.4 0 0 0 3.6 7H2.4A3.6 3.6 0 0 1 6 3.4v1.2Zm13.031 13a2.4 2.4 0 0 0-2.228 1.509l-1.114-.446A3.6 3.6 0 0 1 19.03 16.4v1.2ZM21 3.4A3.6 3.6 0 0 1 24.6 7h-1.2A2.4 2.4 0 0 0 21 4.6V3.4Z"/></g><defs><linearGradient id="b" x1="26.5" x2="26.5" y1="17" y2="36" gradientUnits="userSpaceOnUse"><stop stop-color="#FD366E" stop-opacity="0"/><stop offset="1" stop-color="#FD366E" stop-opacity=".4"/></linearGradient><linearGradient id="c" x1="13.5" x2="13.5" y1="4" y2="23" gradientUnits="userSpaceOnUse"><stop stop-color="#FD366E" stop-opacity="0"/><stop offset="1" stop-color="#FD366E" stop-opacity=".4"/></linearGradient><clipPath id="a"><path fill="#fff" d="M0 0h40v40H0z"/></clipPath></defs></svg>