<svg width="40" height="40" viewBox="0 0 40 40" fill="none" xmlns="http://www.w3.org/2000/svg">
<circle cx="20" cy="20" r="15.4" fill="url(#paint0_linear_1091_14407)" stroke="#FD366E" stroke-width="1.2"/>
<path d="M20 4.59961C20.7679 4.59961 21.5469 4.95308 22.3076 5.68848C23.0713 6.42677 23.7868 7.52428 24.4004 8.92676C25.6268 11.7299 26.4004 15.6445 26.4004 20C26.4004 24.3555 25.6268 28.2701 24.4004 31.0732C23.7868 32.4757 23.0713 33.5732 22.3076 34.3115C21.5469 35.0469 20.7679 35.4004 20 35.4004C19.2321 35.4004 18.4531 35.0469 17.6924 34.3115C16.9287 33.5732 16.2132 32.4757 15.5996 31.0732C14.3732 28.2701 13.5996 24.3555 13.5996 20C13.5996 15.6445 14.3732 11.7299 15.5996 8.92676C16.2132 7.52428 16.9287 6.42677 17.6924 5.68848C18.4531 4.95308 19.2321 4.59961 20 4.59961Z" stroke="#FD366E" stroke-width="1.2"/>
<path d="M4 20L36 20" stroke="#FD366E" stroke-width="1.2"/>
<defs>
<linearGradient id="paint0_linear_1091_14407" x1="20" y1="4" x2="20" y2="36" gradientUnits="userSpaceOnUse">
<stop stop-color="#FD366E" stop-opacity="0"/>
<stop offset="1" stop-color="#FD366E" stop-opacity="0.4"/>
</linearGradient>
</defs>
</svg>
