<svg xmlns="http://www.w3.org/2000/svg" width="40" height="40" fill="none"><rect width="30" height="32" x="5" y="4" fill="url(#a)" stroke="#FD366E" stroke-linecap="round" stroke-linejoin="round" stroke-width="1.2" rx="2"/><g filter="url(#b)"><path fill="#fff" fill-opacity=".64" fill-rule="evenodd" d="M16.222 8h-4.445v2.777H9v4.445h2.777V18h4.445v-2.778H19v-4.445h-2.778V8Z" clip-rule="evenodd"/><path fill="#FD366E" d="M11.777 8v-.6a.6.6 0 0 0-.6.6h.6Zm4.445 0h.6a.6.6 0 0 0-.6-.6V8Zm-4.445 2.777v.6a.6.6 0 0 0 .6-.6h-.6Zm-2.777 0v-.6a.6.6 0 0 0-.6.6H9Zm0 4.445h-.6a.6.6 0 0 0 .6.6v-.6Zm2.777 0h.6a.6.6 0 0 0-.6-.6v.6Zm0 2.778h-.6a.6.6 0 0 0 .6.6V18Zm4.445 0v.6a.6.6 0 0 0 .6-.6h-.6Zm0-2.778v-.6a.6.6 0 0 0-.6.6h.6Zm2.778 0v.6a.6.6 0 0 0 .6-.6H19Zm0-4.445h.6a.6.6 0 0 0-.6-.6v.6Zm-2.778 0h-.6a.6.6 0 0 0 .6.6v-.6ZM11.777 8.6h4.445V7.4h-4.445v1.2Zm.6 2.177V8h-1.2v2.777h1.2Zm-3.377.6h2.777v-1.2H9v1.2Zm.6 3.845v-4.445H8.4v4.445h1.2Zm2.177-.6H9v1.2h2.777v-1.2Zm.6 3.378v-2.778h-1.2V18h1.2Zm3.845-.6h-4.445v1.2h4.445v-1.2Zm-.6-2.178V18h1.2v-2.778h-1.2Zm3.378-.6h-2.778v1.2H19v-1.2Zm-.6-3.845v4.445h1.2v-4.445h-1.2Zm-2.178.6H19v-1.2h-2.778v1.2ZM15.622 8v2.777h1.2V8h-1.2Z"/></g><path stroke="#FD366E" stroke-linecap="round" stroke-linejoin="round" stroke-width="1.2" d="M9 30h7M9 26h22M9 22h22"/><defs><linearGradient id="a" x1="20.002" x2="20.002" y1="4.403" y2="35.603" gradientUnits="userSpaceOnUse"><stop stop-color="#FD366E" stop-opacity="0"/><stop offset="1" stop-color="#FD366E" stop-opacity=".32"/></linearGradient><filter id="b" width="19.199" height="19.203" x="4.4" y="3.398" color-interpolation-filters="sRGB" filterUnits="userSpaceOnUse"><feFlood flood-opacity="0" result="BackgroundImageFix"/><feGaussianBlur in="BackgroundImageFix" stdDeviation="2"/><feComposite in2="SourceAlpha" operator="in" result="effect1_backgroundBlur_1881_6166"/><feBlend in="SourceGraphic" in2="effect1_backgroundBlur_1881_6166" result="shape"/></filter></defs></svg>