<svg xmlns="http://www.w3.org/2000/svg" width="40" height="40" fill="none"><g clip-path="url(#a)"><path stroke="#FD366E" stroke-linecap="round" stroke-width="1.2" d="M31.398 36H8.462c-2.367 0-3.802-2.612-2.532-4.61l9.596-15.096V8.509h-.146a1.754 1.754 0 1 1 0-3.509h8.71a1.755 1.755 0 0 1 0 3.509h-.213v7.785l10.018 15.043C35.223 33.331 33.793 36 31.398 36Z"/><path fill="url(#b)" d="M33.732 31.29 27.286 22H11.5l-5.733 9.443C4.553 33.443 5.992 36 8.33 36h22.936c2.421 0 3.845-2.72 2.465-4.71Z"/><path stroke="#FD366E" stroke-linecap="round" stroke-width="1.2" d="M12 22h6.5m9 0h-3.875"/><circle cx="15.5" cy="28.5" r="1.9" fill="#EDEDF0" stroke="#FD366E" stroke-width="1.2"/><circle cx="21" cy="22" r="2.4" fill="#EDEDF0" stroke="#FD366E" stroke-width="1.2"/></g><defs><linearGradient id="b" x1="20" x2="20" y1="21.625" y2="33.947" gradientUnits="userSpaceOnUse"><stop stop-color="#FD366E" stop-opacity="0"/><stop offset="1" stop-color="#FD366E" stop-opacity=".4"/></linearGradient><clipPath id="a"><path fill="#fff" d="M0 0h40v40H0z"/></clipPath></defs></svg>