<svg xmlns="http://www.w3.org/2000/svg" width="40" height="40" fill="none" viewBox="0 0 40 40"><g clip-path="url(#clip0_872_25866)"><path fill="url(#paint0_linear_872_25866)" d="M28.5714 34V29.0263H32C33.6569 29.0263 35 27.6832 35 26.0263V10C35 8.34315 33.6569 7 32 7H8C6.34315 7 5 8.34315 5 10V26.0263C5 27.6832 6.34315 29.0263 8 29.0263H22.1429L28.5714 34Z"/><path fill="#FD366E" d="M28.5714 29.0263V28.4263H27.9714V29.0263H28.5714ZM28.5714 34L28.2043 34.4746C28.3853 34.6146 28.6302 34.6395 28.8357 34.5387C29.0412 34.4378 29.1714 34.2289 29.1714 34H28.5714ZM22.1429 29.0263L22.51 28.5518L22.3479 28.4263H22.1429V29.0263ZM27.9714 29.0263V34H29.1714V29.0263H27.9714ZM28.9386 33.5254L22.51 28.5518L21.7757 29.5009L28.2043 34.4746L28.9386 33.5254ZM22.1429 28.4263H8V29.6263H22.1429V28.4263ZM5.6 26.0263V10H4.4V26.0263H5.6ZM8 7.6H32V6.4H8V7.6ZM34.4 10V26.0263H35.6V10H34.4ZM32 28.4263H28.5714V29.6263H32V28.4263ZM34.4 26.0263C34.4 27.3518 33.3255 28.4263 32 28.4263V29.6263C33.9882 29.6263 35.6 28.0145 35.6 26.0263H34.4ZM32 7.6C33.3255 7.6 34.4 8.67452 34.4 10H35.6C35.6 8.01178 33.9882 6.4 32 6.4V7.6ZM5.6 10C5.6 8.67452 6.67452 7.6 8 7.6V6.4C6.01177 6.4 4.4 8.01178 4.4 10H5.6ZM8 28.4263C6.67452 28.4263 5.6 27.3518 5.6 26.0263H4.4C4.4 28.0145 6.01177 29.6263 8 29.6263V28.4263Z"/><path stroke="#FD366E" stroke-linecap="round" stroke-linejoin="round" stroke-width="1.2" d="M9 20H16"/><path stroke="#FD366E" stroke-linecap="round" stroke-linejoin="round" stroke-width="1.2" d="M9 16H31"/></g><defs><linearGradient id="paint0_linear_872_25866" x1="20" x2="20" y1="7" y2="34" gradientUnits="userSpaceOnUse"><stop stop-color="#FD366E" stop-opacity="0"/><stop offset="1" stop-color="#FD366E" stop-opacity=".4"/></linearGradient><clipPath id="clip0_872_25866"><rect width="40" height="40" fill="#fff"/></clipPath></defs></svg>