<svg xmlns="http://www.w3.org/2000/svg" width="40" height="40" fill="none"><path fill="url(#a)" stroke="#FD366E" stroke-linecap="round" stroke-linejoin="round" stroke-width="1.2" d="M6 13.713H2L20 2l18 11.713h-4V33.6c0 .902-.351 1.767-.976 2.404a3.3 3.3 0 0 1-2.357.996H9.333a3.3 3.3 0 0 1-2.357-.996A3.435 3.435 0 0 1 6 33.6V13.712Z"/><g filter="url(#b)"><path fill="#fff" fill-opacity=".64" d="M9 34v-7h22v7"/><path stroke="#FD366E" stroke-linecap="round" stroke-linejoin="round" stroke-width="1.2" d="M9 34v-7h22v7H9Z"/></g><g filter="url(#c)"><path fill="#fff" fill-opacity=".64" d="M9 24v-7h22v7"/><path stroke="#FD366E" stroke-linecap="round" stroke-linejoin="round" stroke-width="1.2" d="M9 24v-7h22v7H9Z"/></g><circle cx="14" cy="20.5" r="1" fill="#FD366E"/><circle cx="14" cy="30.5" r="1" fill="#FD366E"/><defs><filter id="b" width="31.199" height="16.203" x="4.4" y="22.398" color-interpolation-filters="sRGB" filterUnits="userSpaceOnUse"><feFlood flood-opacity="0" result="BackgroundImageFix"/><feGaussianBlur in="BackgroundImageFix" stdDeviation="2"/><feComposite in2="SourceAlpha" operator="in" result="effect1_backgroundBlur_1881_6180"/><feBlend in="SourceGraphic" in2="effect1_backgroundBlur_1881_6180" result="shape"/></filter><filter id="c" width="31.199" height="16.203" x="4.4" y="12.398" color-interpolation-filters="sRGB" filterUnits="userSpaceOnUse"><feFlood flood-opacity="0" result="BackgroundImageFix"/><feGaussianBlur in="BackgroundImageFix" stdDeviation="2"/><feComposite in2="SourceAlpha" operator="in" result="effect1_backgroundBlur_1881_6180"/><feBlend in="SourceGraphic" in2="effect1_backgroundBlur_1881_6180" result="shape"/></filter><linearGradient id="a" x1="20.002" x2="20.002" y1="3.428" y2="36.578" gradientUnits="userSpaceOnUse"><stop stop-color="#FD366E" stop-opacity="0"/><stop offset="1" stop-color="#FD366E" stop-opacity=".32"/></linearGradient></defs></svg>