<svg xmlns="http://www.w3.org/2000/svg" width="40" height="40" fill="none"><path fill="url(#a)" stroke="#FD366E" stroke-linecap="round" stroke-linejoin="round" stroke-width="1.2" d="M18.12 5.367c.675-.492 1.013-.737 1.383-.832a2 2 0 0 1 .994 0c.37.095.708.34 1.384.832l11.455 8.322c.676.491 1.014.737 1.218 1.059a2 2 0 0 1 .308.946c.024.38-.105.778-.364 1.573l-4.375 13.466c-.258.795-.387 1.192-.63 1.486a2 2 0 0 1-.805.585c-.355.14-.773.14-1.608.14H12.92c-.835 0-1.253 0-1.608-.14a2 2 0 0 1-.804-.585c-.244-.294-.373-.691-.631-1.486L5.502 17.267c-.259-.795-.388-1.192-.364-1.573a2 2 0 0 1 .308-.946c.204-.322.542-.568 1.218-1.059l11.455-8.322Z"/><g filter="url(#b)"><path fill="#fff" fill-opacity=".64" d="M18.824 12.854a2 2 0 0 1 2.352 0l5.257 3.82a2 2 0 0 1 .726 2.236l-2.008 6.18a2 2 0 0 1-1.902 1.382h-6.498a2 2 0 0 1-1.902-1.382l-2.008-6.18a2 2 0 0 1 .726-2.236l5.257-3.82Z"/><path stroke="#FD366E" stroke-linecap="round" stroke-linejoin="round" stroke-width="1.2" d="M18.824 12.854a2 2 0 0 1 2.352 0l5.257 3.82a2 2 0 0 1 .726 2.236l-2.008 6.18a2 2 0 0 1-1.902 1.382h-6.498a2 2 0 0 1-1.902-1.382l-2.008-6.18a2 2 0 0 1 .726-2.236l5.257-3.82Z"/></g><defs><linearGradient id="a" x1="20.002" x2="20.002" y1="4.403" y2="35.603" gradientUnits="userSpaceOnUse"><stop stop-color="#FD366E" stop-opacity="0"/><stop offset="1" stop-color="#FD366E" stop-opacity=".32"/></linearGradient><filter id="b" width="23.715" height="23.199" x="8.143" y="7.871" color-interpolation-filters="sRGB" filterUnits="userSpaceOnUse"><feFlood flood-opacity="0" result="BackgroundImageFix"/><feGaussianBlur in="BackgroundImageFix" stdDeviation="2"/><feComposite in2="SourceAlpha" operator="in" result="effect1_backgroundBlur_1881_6173"/><feBlend in="SourceGraphic" in2="effect1_backgroundBlur_1881_6173" result="shape"/></filter></defs></svg>