<svg xmlns="http://www.w3.org/2000/svg" width="40" height="40" fill="none"><path fill="url(#a)" stroke="#FD366E" stroke-linecap="round" stroke-linejoin="round" d="M20.453 2.288a.5.5 0 0 0-.906 0L18.31 4.926l-2.76.424a.5.5 0 0 0-.282.844l2.011 2.06-.475 2.915a.5.5 0 0 0 .735.519L20 10.326l2.462 1.362a.5.5 0 0 0 .735-.519l-.475-2.915 2.01-2.06a.5.5 0 0 0-.281-.844l-2.76-.424-1.238-2.638Z"/><path fill="url(#b)" stroke="#FD366E" stroke-linecap="round" stroke-linejoin="round" d="M20.453 28.538a.5.5 0 0 0-.906 0l-1.238 2.638-2.76.424a.5.5 0 0 0-.282.844l2.011 2.06-.475 2.916a.5.5 0 0 0 .735.518L20 36.576l2.462 1.362a.5.5 0 0 0 .735-.519l-.475-2.915 2.01-2.06a.5.5 0 0 0-.281-.844l-2.76-.424-1.238-2.638Z"/><path fill="url(#c)" stroke="#FD366E" stroke-linecap="round" stroke-linejoin="round" d="M32.328 8.538a.5.5 0 0 0-.906 0l-1.238 2.638-2.76.424a.5.5 0 0 0-.282.844l2.011 2.06-.475 2.915a.5.5 0 0 0 .735.519l2.462-1.362 2.462 1.362a.5.5 0 0 0 .735-.518l-.475-2.916 2.01-2.06a.5.5 0 0 0-.281-.844l-2.76-.424-1.238-2.638Z"/><path fill="url(#d)" stroke="#FD366E" stroke-linecap="round" stroke-linejoin="round" d="M32.328 23.538a.5.5 0 0 0-.906 0l-1.238 2.638-2.76.424a.5.5 0 0 0-.282.844l2.011 2.06-.475 2.915a.5.5 0 0 0 .735.519l2.462-1.362 2.462 1.362a.5.5 0 0 0 .735-.519l-.475-2.915 2.01-2.06a.5.5 0 0 0-.281-.844l-2.76-.424-1.238-2.638Z"/><path fill="url(#e)" stroke="#FD366E" stroke-linecap="round" stroke-linejoin="round" d="M8.578 8.538a.5.5 0 0 0-.906 0l-1.238 2.638-2.76.424a.5.5 0 0 0-.282.844l2.011 2.06-.475 2.915a.5.5 0 0 0 .735.519l2.462-1.362 2.462 1.362a.5.5 0 0 0 .735-.518l-.475-2.916 2.01-2.06a.5.5 0 0 0-.281-.844l-2.76-.424-1.238-2.638Z"/><path fill="url(#f)" stroke="#FD366E" stroke-linecap="round" stroke-linejoin="round" d="M8.578 22.288a.5.5 0 0 0-.906 0l-1.238 2.638-2.76.424a.5.5 0 0 0-.282.844l2.011 2.06-.475 2.915a.5.5 0 0 0 .735.519l2.462-1.362 2.462 1.362a.5.5 0 0 0 .735-.518l-.475-2.916 2.01-2.06a.5.5 0 0 0-.281-.844l-2.76-.424-1.238-2.638Z"/><defs><linearGradient id="a" x1="20" x2="20" y1="2.61" y2="11.142" gradientUnits="userSpaceOnUse"><stop stop-color="#FD366E" stop-opacity="0"/><stop offset="1" stop-color="#FD366E" stop-opacity=".32"/></linearGradient><linearGradient id="b" x1="20" x2="20" y1="28.86" y2="37.392" gradientUnits="userSpaceOnUse"><stop stop-color="#FD366E" stop-opacity="0"/><stop offset="1" stop-color="#FD366E" stop-opacity=".32"/></linearGradient><linearGradient id="c" x1="31.875" x2="31.875" y1="8.86" y2="17.392" gradientUnits="userSpaceOnUse"><stop stop-color="#FD366E" stop-opacity="0"/><stop offset="1" stop-color="#FD366E" stop-opacity=".32"/></linearGradient><linearGradient id="d" x1="31.875" x2="31.875" y1="23.86" y2="32.392" gradientUnits="userSpaceOnUse"><stop stop-color="#FD366E" stop-opacity="0"/><stop offset="1" stop-color="#FD366E" stop-opacity=".32"/></linearGradient><linearGradient id="e" x1="8.126" x2="8.126" y1="8.86" y2="17.392" gradientUnits="userSpaceOnUse"><stop stop-color="#FD366E" stop-opacity="0"/><stop offset="1" stop-color="#FD366E" stop-opacity=".32"/></linearGradient><linearGradient id="f" x1="8.126" x2="8.126" y1="22.61" y2="31.142" gradientUnits="userSpaceOnUse"><stop stop-color="#FD366E" stop-opacity="0"/><stop offset="1" stop-color="#FD366E" stop-opacity=".32"/></linearGradient></defs></svg>