<svg width="40" height="40" viewBox="0 0 40 40" fill="none" xmlns="http://www.w3.org/2000/svg">
<path d="M14.6865 8.27734C15.1375 7.05848 16.8625 7.05848 17.3135 8.27734L19.4395 14.0244C19.7028 14.736 20.264 15.2972 20.9756 15.5605L26.7227 17.6865C27.9415 18.1375 27.9415 19.8625 26.7227 20.3135L20.9756 22.4395C20.264 22.7028 19.7028 23.264 19.4395 23.9756L17.3135 29.7227C16.8625 30.9415 15.1375 30.9415 14.6865 29.7227L12.5605 23.9756C12.2972 23.264 11.736 22.7028 11.0244 22.4395L5.27734 20.3135C4.05848 19.8625 4.05848 18.1375 5.27734 17.6865L11.0244 15.5605C11.736 15.2972 12.2972 14.736 12.5605 14.0244L14.6865 8.27734Z" fill="url(#paint0_linear_1091_14412)" stroke="#FD366E" stroke-width="1.2"/>
<path d="M29.8438 26.2148C30.0693 25.6056 30.9307 25.6056 31.1562 26.2148L31.8652 28.1299C32.0374 28.5952 32.4048 28.9626 32.8701 29.1348L34.7852 29.8438C35.3944 30.0693 35.3944 30.9307 34.7852 31.1562L32.8701 31.8652C32.4048 32.0374 32.0374 32.4048 31.8652 32.8701L31.1562 34.7852C30.9307 35.3944 30.0693 35.3944 29.8438 34.7852L29.1348 32.8701C28.9626 32.4048 28.5952 32.0374 28.1299 31.8652L26.2148 31.1562C25.6056 30.9307 25.6056 30.0693 26.2148 29.8438L28.1299 29.1348C28.5952 28.9626 28.9626 28.5952 29.1348 28.1299L29.8438 26.2148Z" fill="url(#paint1_linear_1091_14412)" stroke="#FD366E"/>
<path d="M29.8438 5.21484C30.0693 4.60562 30.9307 4.60562 31.1562 5.21484L31.8652 7.12988C32.0374 7.59521 32.4048 7.96258 32.8701 8.13477L34.7852 8.84375C35.3944 9.06933 35.3944 9.93067 34.7852 10.1562L32.8701 10.8652C32.4048 11.0374 32.0374 11.4048 31.8652 11.8701L31.1562 13.7852C30.9307 14.3944 30.0693 14.3944 29.8438 13.7852L29.1348 11.8701C28.9626 11.4048 28.5952 11.0374 28.1299 10.8652L26.2148 10.1562C25.6056 9.93067 25.6056 9.06933 26.2148 8.84375L28.1299 8.13477C28.5952 7.96258 28.9626 7.59521 29.1348 7.12988L29.8438 5.21484Z" fill="url(#paint2_linear_1091_14412)" stroke="#FD366E"/>
<defs>
<linearGradient id="paint0_linear_1091_14412" x1="16" y1="3" x2="16" y2="35" gradientUnits="userSpaceOnUse">
<stop stop-color="#FD366E" stop-opacity="0"/>
<stop offset="1" stop-color="#FD366E" stop-opacity="0.4"/>
</linearGradient>
<linearGradient id="paint1_linear_1091_14412" x1="30.5" y1="23" x2="30.5" y2="38" gradientUnits="userSpaceOnUse">
<stop stop-color="#FD366E" stop-opacity="0"/>
<stop offset="1" stop-color="#FD366E" stop-opacity="0.4"/>
</linearGradient>
<linearGradient id="paint2_linear_1091_14412" x1="30.5" y1="2" x2="30.5" y2="17" gradientUnits="userSpaceOnUse">
<stop stop-color="#FD366E" stop-opacity="0"/>
<stop offset="1" stop-color="#FD366E" stop-opacity="0.4"/>
</linearGradient>
</defs>
</svg>
