<svg xmlns="http://www.w3.org/2000/svg" width="49" height="48" viewBox="0 0 49 48" fill="none">
    <path d="M9.66875 27.6V23.4H7.26875C5.6119 23.4 4.26875 22.0569 4.26875 20.4V7.80005C4.26875 6.14319 5.6119 4.80005 7.26875 4.80005H26.4688C28.1256 4.80005 29.4688 6.14319 29.4688 7.80005V20.4H23.0999C21.8731 20.4 20.77 21.1469 20.3144 22.2859L19.8688 23.4H15.0688L9.66875 27.6Z" fill="url(#paint0_linear_321_2153)"/>
    <path d="M9.66875 23.4V22.8H10.2688V23.4H9.66875ZM9.66875 27.6L10.0371 28.0737C9.85623 28.2144 9.611 28.2397 9.40514 28.139C9.19928 28.0384 9.06875 27.8292 9.06875 27.6H9.66875ZM15.0688 23.4L14.7004 22.9264L14.8629 22.8H15.0688V23.4ZM19.8688 23.4L20.4258 23.6229L20.275 24H19.8688V23.4ZM29.4688 20.4H30.0688V21H29.4688V20.4ZM20.3144 22.2859L20.8715 22.5087L20.8715 22.5087L20.3144 22.2859ZM10.2688 23.4V27.6H9.06875V23.4H10.2688ZM9.30039 27.1264L14.7004 22.9264L15.4371 23.8737L10.0371 28.0737L9.30039 27.1264ZM26.4688 5.40005H7.26875V4.20005H26.4688V5.40005ZM4.86875 7.80005V20.4H3.66875V7.80005H4.86875ZM7.26875 22.8H9.66875V24H7.26875V22.8ZM15.0688 22.8H19.8688V24H15.0688V22.8ZM28.8687 20.4V7.80005H30.0688V20.4H28.8687ZM29.4688 21H23.0999V19.8H29.4688V21ZM20.8715 22.5087L20.4258 23.6229L19.3117 23.1772L19.7573 22.063L20.8715 22.5087ZM4.86875 20.4C4.86875 21.7255 5.94327 22.8 7.26875 22.8V24C5.28053 24 3.66875 22.3883 3.66875 20.4H4.86875ZM7.26875 5.40005C5.94327 5.40005 4.86875 6.47457 4.86875 7.80005H3.66875C3.66875 5.81182 5.28053 4.20005 7.26875 4.20005V5.40005ZM23.0999 21C22.1185 21 21.236 21.5975 20.8715 22.5087L19.7573 22.063C20.304 20.6963 21.6278 19.8 23.0999 19.8V21ZM26.4688 4.20005C28.457 4.20005 30.0688 5.81182 30.0688 7.80005H28.8687C28.8687 6.47456 27.7942 5.40005 26.4688 5.40005V4.20005Z" fill="white"/>
    <path d="M39.6672 43.2V39H42.0672C43.724 39 45.0672 37.6569 45.0672 36V23.4C45.0672 21.7432 43.724 20.4 42.0672 20.4H22.8672C21.2103 20.4 19.8672 21.7432 19.8672 23.4V36C19.8672 37.6569 21.2103 39 22.8672 39H34.2672L39.6672 43.2Z" fill="url(#paint1_linear_321_2153)"/>
    <path d="M39.6672 39V38.4H39.0672V39H39.6672ZM39.6672 43.2L39.2988 43.6736C39.4797 43.8143 39.7249 43.8397 39.9308 43.739C40.1367 43.6383 40.2672 43.4292 40.2672 43.2H39.6672ZM34.2672 39L34.6356 38.5264L34.4731 38.4H34.2672V39ZM39.0672 39V43.2H40.2672V39H39.0672ZM40.0356 42.7264L34.6356 38.5264L33.8988 39.4736L39.2988 43.6736L40.0356 42.7264ZM34.2672 38.4H22.8672V39.6H34.2672V38.4ZM20.4672 36V23.4H19.2672V36H20.4672ZM22.8672 21H42.0672V19.8H22.8672V21ZM44.4672 23.4V36H45.6672V23.4H44.4672ZM42.0672 38.4H39.6672V39.6H42.0672V38.4ZM44.4672 36C44.4672 37.3255 43.3927 38.4 42.0672 38.4V39.6C44.0554 39.6 45.6672 37.9882 45.6672 36H44.4672ZM42.0672 21C43.3927 21 44.4672 22.0745 44.4672 23.4H45.6672C45.6672 21.4118 44.0554 19.8 42.0672 19.8V21ZM20.4672 23.4C20.4672 22.0745 21.5417 21 22.8672 21V19.8C20.879 19.8 19.2672 21.4118 19.2672 23.4H20.4672ZM22.8672 38.4C21.5417 38.4 20.4672 37.3255 20.4672 36H19.2672C19.2672 37.9883 20.879 39.6 22.8672 39.6V38.4Z" fill="#FD366E"/>
    <defs>
        <linearGradient id="paint0_linear_321_2153" x1="16.8688" y1="4.80005" x2="16.8688" y2="27.6" gradientUnits="userSpaceOnUse">
            <stop stop-color="white" stop-opacity="0"/>
            <stop offset="1" stop-color="white" stop-opacity="0.4"/>
        </linearGradient>
        <linearGradient id="paint1_linear_321_2153" x1="32.4672" y1="20.4" x2="32.4672" y2="43.2" gradientUnits="userSpaceOnUse">
            <stop stop-color="#FD366E" stop-opacity="0"/>
            <stop offset="1" stop-color="#FD366E" stop-opacity="0.4"/>
        </linearGradient>
    </defs>
</svg>