<svg xmlns="http://www.w3.org/2000/svg" width="40" height="40" fill="none"><g stroke="#FD366E"><path stroke-linecap="square" stroke-width="1.2" d="M10.5 12v20M29.5 12v20"/><path fill="url(#a)" stroke-linecap="round" stroke-linejoin="round" d="M30.889 11H9.11C7.393 11 6 12.79 6 15v14c0 2.21 1.393 4 3.111 4H30.89C32.607 33 34 31.21 34 29V15c0-2.21-1.393-4-3.111-4Z"/><path stroke-linecap="round" stroke-linejoin="round" stroke-width="1.2" d="m14 10.5.278-1.392A2 2 0 0 1 16.24 7.5h7.52a2 2 0 0 1 1.962 1.608L26 10.5"/></g><defs><linearGradient id="a" x1="20.002" x2="20.002" y1="11" y2="33" gradientUnits="userSpaceOnUse"><stop stop-color="#FD366E" stop-opacity="0"/><stop offset="1" stop-color="#FD366E" stop-opacity=".4"/></linearGradient></defs></svg>