<svg xmlns="http://www.w3.org/2000/svg" width="40" height="40" fill="none"><path stroke="#FD366E" stroke-linecap="round" stroke-linejoin="round" stroke-width="1.2" d="M14 14V9.556c0-1.474.632-2.887 1.757-3.929C16.883 4.585 18.41 4 20 4c1.591 0 3.117.585 4.243 1.627C25.368 6.67 26 8.082 26 9.556"/><path fill="url(#a)" d="M30.889 14H9.11C7.393 14 6 15.79 6 18v14c0 2.21 1.393 4 3.111 4H30.89C32.607 36 34 34.21 34 32V18c0-2.21-1.393-4-3.111-4Z"/><path fill="#FD366E" d="M9.111 14.6H30.89v-1.2H9.11v1.2Zm21.778 0c1.255 0 2.511 1.373 2.511 3.4h1.2c0-2.391-1.53-4.6-3.711-4.6v1.2ZM33.4 18v14h1.2V18h-1.2Zm0 14c0 2.027-1.256 3.4-2.511 3.4v1.2c2.181 0 3.711-2.209 3.711-4.6h-1.2Zm-2.511 3.4H9.11v1.2H30.89v-1.2Zm-21.778 0C7.856 35.4 6.6 34.027 6.6 32H5.4c0 2.391 1.53 4.6 3.711 4.6v-1.2ZM6.6 32V18H5.4v14h1.2Zm0-14c0-2.027 1.256-3.4 2.511-3.4v-1.2C6.93 13.4 5.4 15.609 5.4 18h1.2Z"/><g filter="url(#b)"><path fill="#EDEDF0" fill-rule="evenodd" d="M22.009 25.667a3.75 3.75 0 1 0-4.017 0l-1.117 5.583h6.25l-1.116-5.583Z" clip-rule="evenodd"/><path fill="#FD366E" d="m22.009 25.667-.322-.506a.6.6 0 0 0-.267.624l.588-.118Zm-4.018 0 .589.118a.6.6 0 0 0-.267-.624l-.322.506Zm-1.116 5.583-.588-.118a.6.6 0 0 0 .588.718v-.6Zm6.25 0v.6a.6.6 0 0 0 .588-.718l-.588.118Zm.025-8.75a3.147 3.147 0 0 1-1.463 2.66l.643 1.014a4.347 4.347 0 0 0 2.02-3.674h-1.2ZM20 19.35a3.15 3.15 0 0 1 3.15 3.15h1.2A4.35 4.35 0 0 0 20 18.15v1.2Zm-3.15 3.15A3.15 3.15 0 0 1 20 19.35v-1.2a4.35 4.35 0 0 0-4.35 4.35h1.2Zm1.463 2.66a3.147 3.147 0 0 1-1.463-2.66h-1.2c0 1.546.807 2.903 2.02 3.674l.643-1.013Zm-.85 6.208 1.117-5.583-1.177-.235-1.116 5.582 1.176.236Zm5.662-.718h-6.25v1.2h6.25v-1.2Zm-1.705-4.865 1.117 5.583 1.176-.236-1.116-5.582-1.177.235Z"/></g><path stroke="#FD366E" stroke-linecap="round" stroke-linejoin="round" stroke-width="1.2" d="m29 8 3.5-4.5M31 10l2-1"/><defs><linearGradient id="a" x1="20.002" x2="20.002" y1="13.75" y2="36.25" gradientUnits="userSpaceOnUse"><stop stop-color="#FD366E" stop-opacity="0"/><stop offset="1" stop-color="#FD366E" stop-opacity=".32"/></linearGradient><filter id="b" width="20.7" height="25.7" x="9.65" y="12.15" color-interpolation-filters="sRGB" filterUnits="userSpaceOnUse"><feFlood flood-opacity="0" result="BackgroundImageFix"/><feGaussianBlur in="BackgroundImageFix" stdDeviation="3"/><feComposite in2="SourceAlpha" operator="in" result="effect1_backgroundBlur_1025_2520"/><feBlend in="SourceGraphic" in2="effect1_backgroundBlur_1025_2520" result="shape"/></filter></defs></svg>