<svg width="158" height="90" viewBox="0 0 158 90" fill="none" xmlns="http://www.w3.org/2000/svg">
<path d="M0.704 0.399994H11.84V90H0.704V0.399994ZM27.668 24.72H36.756L38.164 33.552C42.004 28.56 48.66 23.952 59.668 23.952C74.388 23.952 86.036 32.016 86.036 53.648V90H75.54V54.288C75.54 40.72 69.268 33.552 57.876 33.552C45.588 33.552 38.164 42.64 38.164 57.36V90H27.668V24.72ZM99.418 24.72H109.914V90H99.418V24.72ZM98.01 6.92799C98.01 2.96 100.954 0.143997 104.794 0.143997C108.634 0.143997 111.578 2.96 111.578 6.92799C111.578 10.896 108.634 13.712 104.794 13.712C100.954 13.712 98.01 10.896 98.01 6.92799ZM129.157 72.976V34.32H117.381V24.72H129.157V6.41599H139.653V24.72H156.549V34.32H139.653V72.848C139.653 78.352 141.573 80.4 147.205 80.4H157.573V90H146.181C133.637 90 129.157 84.496 129.157 72.976Z" fill="white"/>
</svg>
