<svg xmlns="http://www.w3.org/2000/svg" width="112" height="47" viewBox="0 0 112 47" fill="none">
  <path d="M82.7529 46.4732V41.0583H111.404V46.4732H82.7529Z" fill="#FD366E" />
  <path
    d="M74.6844 39.5337C69.3222 39.5337 65.7999 37.1154 65.7999 31.28V17.4537H61.0159V11.9863H66.1679V4.2583H72.0559V11.9863H79.8364V17.4537H72.0559V31.2274C72.0559 33.1726 72.8444 34.0137 74.737 34.0137H79.521V39.5337H74.6844Z"
    fill="white" />
  <path
    d="M53.6666 7.728C51.4061 7.728 49.7238 6.04571 49.7238 3.83772C49.7238 1.68229 51.4061 0 53.6666 0C55.9272 0 57.6095 1.68229 57.6095 3.83772C57.6095 6.04571 55.9272 7.728 53.6666 7.728ZM50.5124 39.5337V17.4537H45.6758V11.9863H56.7158V39.5337H50.5124Z"
    fill="white" />
  <path
    d="M18.0388 39.5338V11.9864H24.2422V15.1407H24.7154C25.9245 13.0378 28.448 11.303 32.128 11.303C38.1737 11.303 42.0114 15.8241 42.0114 21.5018V39.5338H35.808V22.9738C35.808 19.5567 33.3897 17.191 30.2354 17.191C26.8182 17.191 24.2422 19.8195 24.2422 23.2893V39.5338H18.0388Z"
    fill="white" />
  <path
    d="M8.58656 7.728C6.32599 7.728 4.6437 6.04571 4.6437 3.83772C4.6437 1.68229 6.32599 0 8.58656 0C10.8471 0 12.5294 1.68229 12.5294 3.83772C12.5294 6.04571 10.8471 7.728 8.58656 7.728ZM5.43227 39.5337V17.4537H0.595703V11.9863H11.6357V39.5337H5.43227Z"
    fill="white" />
</svg>