<svg width="320" height="124" viewBox="0 0 320 124" fill="none" xmlns="http://www.w3.org/2000/svg">
<path d="M121.568 144.365L188.885 64.0612C200.068 49.8817 224.359 28.897 256.474 28.897C287.732 28.897 308.696 47.7212 318.748 70.5552" stroke="url(#paint0_linear_245_6940)" stroke-width="0.912596" stroke-linecap="round"/>
<path d="M202.564 148.126C207.828 155.451 225.98 170.103 256.474 170.103C294.593 170.103 325.632 136.862 325.632 102.797C325.632 93.8689 324.005 84.5447 320.786 75.6453" stroke="url(#paint1_linear_245_6940)" stroke-width="0.912596" stroke-linecap="round"/>
<path d="M156.867 51.5642C141.604 32.3846 108.452 4 64.6223 4C43.2804 4 25.4545 10.3728 11.2505 20.6094" stroke="url(#paint2_linear_245_6940)" stroke-width="0.912596" stroke-linecap="round"/>
<path d="M0.959961 29.2822C3.17321 27.1151 5.50415 25.0517 7.95218 23.1064" stroke="url(#paint3_linear_245_6940)" stroke-width="0.912596" stroke-linecap="round"/>
<path d="M329.959 41.0105C314.181 19.5134 289.442 4 256.144 4C225.887 4 200.718 17.5269 183.011 32.2144" stroke="url(#paint4_linear_245_6940)" stroke-width="0.912596" stroke-linecap="round"/>
<path d="M163.9 51.5642C167.754 46.7211 172.748 41.2911 178.768 35.8794" stroke="url(#paint5_linear_245_6940)" stroke-width="0.912596" stroke-linecap="round"/>
<path d="M182.568 165.272C189.752 175.181 214.525 195 256.144 195C308.167 195 350.529 150.037 350.529 103.959C350.529 85.9324 345.581 66.7115 335.841 49.9897" stroke="url(#paint6_linear_245_6940)" stroke-width="0.912596" stroke-linecap="round"/>
<path d="M131.789 159.796C125.214 168.885 102.544 187.062 64.4571 187.062C16.8488 187.062 -21.918 145.821 -21.918 103.558C-21.918 61.2943 7.66719 11.8733 64.4571 11.8733C104.567 11.8733 134.906 37.9082 148.873 55.5001" stroke="url(#paint7_linear_245_6940)" stroke-width="0.912596" stroke-linecap="round"/>
<path d="M188.296 160.41C194.933 169.586 217.82 187.94 256.27 187.94C304.333 187.94 343.469 146.301 343.469 103.629C343.469 60.9582 313.602 11.0603 256.27 11.0603C215.777 11.0603 185.15 37.3464 171.049 55.1081L128.166 107.046" stroke="url(#paint8_linear_245_6940)" stroke-width="0.912596" stroke-linecap="round"/>
<path d="M107.641 131.904L115.585 122.283L123.528 112.662" stroke="url(#paint9_linear_245_6940)" stroke-width="0.912596" stroke-linecap="round"/>
<path d="M140.81 59.5475C129.119 44.7837 104.761 23.4706 72.457 20.3291" stroke="url(#paint10_linear_245_6940)" stroke-width="0.912596" stroke-linecap="round"/>
<path d="M64.3645 19.9365C12.9367 19.9365 -13.855 64.8083 -13.855 103.181C-13.855 141.555 21.2514 178.999 64.3645 178.999C82.6012 178.999 96.9349 174.385 107.275 168.816" stroke="url(#paint11_linear_245_6940)" stroke-width="0.912596" stroke-linecap="round"/>
<path d="M124.317 156.276C132.014 147.602 149.13 128.092 156.02 119.442" stroke="url(#paint12_linear_245_6940)" stroke-width="0.912596" stroke-linecap="round"/>
<path d="M113.689 138.134L179.224 59.2115C190.485 44.9897 213.39 24.7461 243.798 20.176" stroke="url(#paint13_linear_245_6940)" stroke-width="0.912596" stroke-linecap="round"/>
<path d="M256.364 19.2354C308.259 19.2354 335.294 64.5208 335.294 103.248C335.294 141.975 299.869 179.765 256.364 179.765C247.847 179.765 240.173 178.767 233.352 177.138" stroke="url(#paint14_linear_245_6940)" stroke-width="0.912596" stroke-linecap="round"/>
<path d="M131.881 64.0612C120.698 49.8817 96.4067 28.897 64.2918 28.897C38.931 28.897 20.3462 41.2888 8.86816 58.16" stroke="url(#paint15_linear_245_6940)" stroke-width="0.912596" stroke-linecap="round"/>
<path d="M118.203 148.125C112.939 155.451 94.7869 170.103 64.2921 170.103C26.1736 170.103 -4.86572 136.862 -4.86572 102.797C-4.86572 88.9968 -0.978412 74.2503 6.6695 61.5886" stroke="url(#paint16_linear_245_6940)" stroke-width="0.912596" stroke-linecap="round"/>
<path opacity="0.7" d="M121.935 144.731L140.81 121.458" stroke="url(#paint17_linear_245_6940)" stroke-width="0.912596" stroke-linecap="round"/>
<path d="M122.22 68.9104C112.616 56.6712 91.7579 38.5581 64.1809 38.5581C25.1361 38.5581 4.79541 72.9415 4.79541 102.345C4.79541 120.807 15.3028 138.988 31.225 149.963" stroke="url(#paint18_linear_245_6940)" stroke-width="0.912596" stroke-linecap="round"/>
<path d="M210.449 141.369C214.964 147.682 230.532 160.308 256.686 160.308C289.378 160.308 315.999 131.663 315.999 102.309C315.999 72.9541 295.683 38.6282 256.686 38.6282C229.142 38.6282 208.309 56.711 198.718 68.9297L129.082 151.328" stroke="url(#paint19_linear_245_6940)" stroke-width="0.912596" stroke-linecap="round"/>
<path d="M103.934 135.841C100.043 141.316 86.627 152.266 64.0874 152.266C35.9128 152.266 12.9707 127.423 12.9707 101.964C12.9707 76.5044 30.4792 46.7334 64.0874 46.7334C87.8245 46.7334 105.779 62.4167 114.045 73.014" stroke="url(#paint20_linear_245_6940)" stroke-width="0.912596" stroke-linecap="round"/>
<path d="M135.862 157.742L208.247 73.7129C216.279 63.408 233.727 48.1575 256.795 48.1575C289.455 48.1575 306.47 77.107 306.47 101.864C306.47 110.514 303.748 119.091 299.039 126.589" stroke="url(#paint21_linear_245_6940)" stroke-width="0.912596" stroke-linecap="round"/>
<path d="M104.383 78.2367C97.6976 69.729 83.1758 57.1382 63.9767 57.1382C48.9823 57.1382 37.9501 64.4104 31.0713 74.3625" stroke="url(#paint22_linear_245_6940)" stroke-width="0.912596" stroke-linecap="round"/>
<path d="M63.9767 141.862C41.1885 141.862 22.6323 121.917 22.6323 101.478C22.6323 93.9801 24.5381 86.0163 28.2933 78.9375" stroke="url(#paint23_linear_245_6940)" stroke-width="0.912596" stroke-linecap="round"/>
<path d="M142.459 161.957L216.384 78.2367C223.069 69.729 237.591 57.1382 256.79 57.1382C258.174 57.1382 259.524 57.2001 260.84 57.3204" stroke="url(#paint24_linear_245_6940)" stroke-width="0.912596" stroke-linecap="round"/>
<path d="M224.561 128.675C227.708 133.071 238.559 141.862 256.79 141.862C279.578 141.862 298.134 121.917 298.134 101.478C298.134 84.1674 287.977 64.374 268.353 58.72" stroke="url(#paint25_linear_245_6940)" stroke-width="0.912596" stroke-linecap="round"/>
<path d="M93.3477 133.736C101.987 129.924 133.365 91.7949 153.866 65.7494C154.649 64.7535 155.417 63.7753 156.168 62.8174" stroke="url(#paint26_linear_245_6940)" stroke-width="0.912596" stroke-linecap="round"/>
<path d="M135.679 155.91L171.413 115.594M142.642 161.224L185.707 112.845" stroke="url(#paint27_linear_245_6940)" stroke-width="0.912596" stroke-linecap="round"/>
<g style="mix-blend-mode:screen" opacity="0.5" filter="url(#filter0_f_245_6940)">
<path d="M121.568 144.365L188.885 64.0612C200.068 49.8817 224.359 28.897 256.474 28.897C287.732 28.897 308.696 47.7212 318.748 70.5552" stroke="url(#paint28_linear_245_6940)" stroke-width="0.912596" stroke-linecap="round"/>
<path d="M202.564 148.126C207.828 155.451 225.98 170.103 256.474 170.103C294.593 170.103 325.632 136.862 325.632 102.797C325.632 93.8689 324.005 84.5447 320.786 75.6453" stroke="url(#paint29_linear_245_6940)" stroke-width="0.912596" stroke-linecap="round"/>
<path d="M156.867 51.5642C141.604 32.3846 108.452 4 64.6223 4C43.2804 4 25.4545 10.3728 11.2505 20.6094" stroke="url(#paint30_linear_245_6940)" stroke-width="0.912596" stroke-linecap="round"/>
<path d="M0.959961 29.2822C3.17321 27.1151 5.50415 25.0517 7.95218 23.1064" stroke="url(#paint31_linear_245_6940)" stroke-width="0.912596" stroke-linecap="round"/>
<path d="M329.959 41.0105C314.181 19.5134 289.442 4 256.144 4C225.887 4 200.718 17.5269 183.011 32.2144" stroke="url(#paint32_linear_245_6940)" stroke-width="0.912596" stroke-linecap="round"/>
<path d="M163.9 51.5642C167.754 46.7211 172.748 41.2911 178.768 35.8794" stroke="url(#paint33_linear_245_6940)" stroke-width="0.912596" stroke-linecap="round"/>
<path d="M182.568 165.272C189.752 175.181 214.525 195 256.144 195C308.167 195 350.529 150.037 350.529 103.959C350.529 85.9324 345.581 66.7115 335.841 49.9897" stroke="url(#paint34_linear_245_6940)" stroke-width="0.912596" stroke-linecap="round"/>
<path d="M131.789 159.796C125.214 168.885 102.544 187.062 64.4571 187.062C16.8488 187.062 -21.918 145.821 -21.918 103.558C-21.918 61.2943 7.66719 11.8733 64.4571 11.8733C104.567 11.8733 134.906 37.9082 148.873 55.5001" stroke="url(#paint35_linear_245_6940)" stroke-width="0.912596" stroke-linecap="round"/>
<path d="M188.296 160.41C194.933 169.586 217.82 187.94 256.27 187.94C304.333 187.94 343.469 146.301 343.469 103.629C343.469 60.9582 313.602 11.0603 256.27 11.0603C215.777 11.0603 185.15 37.3464 171.049 55.1081L128.166 107.046" stroke="url(#paint36_linear_245_6940)" stroke-width="0.912596" stroke-linecap="round"/>
<path d="M107.641 131.904L115.585 122.283L123.528 112.662" stroke="url(#paint37_linear_245_6940)" stroke-width="0.912596" stroke-linecap="round"/>
<path d="M140.81 59.5475C129.119 44.7837 104.761 23.4706 72.457 20.3291" stroke="url(#paint38_linear_245_6940)" stroke-width="0.912596" stroke-linecap="round"/>
<path d="M64.3645 19.9365C12.9367 19.9365 -13.855 64.8083 -13.855 103.181C-13.855 141.555 21.2514 178.999 64.3645 178.999C82.6012 178.999 96.9349 174.385 107.275 168.816" stroke="url(#paint39_linear_245_6940)" stroke-width="0.912596" stroke-linecap="round"/>
<path d="M124.317 156.276C132.014 147.602 149.13 128.092 156.02 119.442" stroke="url(#paint40_linear_245_6940)" stroke-width="0.912596" stroke-linecap="round"/>
<path d="M113.689 138.134L179.224 59.2115C190.485 44.9897 213.39 24.7461 243.798 20.176" stroke="url(#paint41_linear_245_6940)" stroke-width="0.912596" stroke-linecap="round"/>
<path d="M256.364 19.2354C308.259 19.2354 335.294 64.5208 335.294 103.248C335.294 141.975 299.869 179.765 256.364 179.765C247.847 179.765 240.173 178.767 233.352 177.138" stroke="url(#paint42_linear_245_6940)" stroke-width="0.912596" stroke-linecap="round"/>
<path d="M131.881 64.0612C120.698 49.8817 96.4067 28.897 64.2918 28.897C38.931 28.897 20.3462 41.2888 8.86816 58.16" stroke="url(#paint43_linear_245_6940)" stroke-width="0.912596" stroke-linecap="round"/>
<path d="M118.203 148.125C112.939 155.451 94.7869 170.103 64.2921 170.103C26.1736 170.103 -4.86572 136.862 -4.86572 102.797C-4.86572 88.9968 -0.978412 74.2503 6.6695 61.5886" stroke="url(#paint44_linear_245_6940)" stroke-width="0.912596" stroke-linecap="round"/>
<path opacity="0.7" d="M121.935 144.731L140.81 121.458" stroke="url(#paint45_linear_245_6940)" stroke-width="0.912596" stroke-linecap="round"/>
<path d="M122.22 68.9104C112.616 56.6712 91.7579 38.5581 64.1809 38.5581C25.1361 38.5581 4.79541 72.9415 4.79541 102.345C4.79541 120.807 15.3028 138.988 31.225 149.963" stroke="url(#paint46_linear_245_6940)" stroke-width="0.912596" stroke-linecap="round"/>
<path d="M210.449 141.369C214.964 147.682 230.532 160.308 256.686 160.308C289.378 160.308 315.999 131.663 315.999 102.309C315.999 72.9541 295.683 38.6282 256.686 38.6282C229.142 38.6282 208.309 56.711 198.718 68.9297L129.082 151.328" stroke="url(#paint47_linear_245_6940)" stroke-width="0.912596" stroke-linecap="round"/>
<path d="M103.934 135.841C100.043 141.316 86.627 152.266 64.0874 152.266C35.9128 152.266 12.9707 127.423 12.9707 101.964C12.9707 76.5044 30.4792 46.7334 64.0874 46.7334C87.8245 46.7334 105.779 62.4167 114.045 73.014" stroke="url(#paint48_linear_245_6940)" stroke-width="0.912596" stroke-linecap="round"/>
<path d="M135.862 157.742L208.247 73.7129C216.279 63.408 233.727 48.1575 256.795 48.1575C289.455 48.1575 306.47 77.107 306.47 101.864C306.47 110.514 303.748 119.091 299.039 126.589" stroke="url(#paint49_linear_245_6940)" stroke-width="0.912596" stroke-linecap="round"/>
<path d="M104.383 78.2367C97.6976 69.729 83.1758 57.1382 63.9767 57.1382C48.9823 57.1382 37.9501 64.4104 31.0713 74.3625" stroke="url(#paint50_linear_245_6940)" stroke-width="0.912596" stroke-linecap="round"/>
<path d="M63.9767 141.862C41.1885 141.862 22.6323 121.917 22.6323 101.478C22.6323 93.9801 24.5381 86.0163 28.2933 78.9375" stroke="url(#paint51_linear_245_6940)" stroke-width="0.912596" stroke-linecap="round"/>
<path d="M142.459 161.957L216.384 78.2367C223.069 69.729 237.591 57.1382 256.79 57.1382C258.174 57.1382 259.524 57.2001 260.84 57.3204" stroke="url(#paint52_linear_245_6940)" stroke-width="0.912596" stroke-linecap="round"/>
<path d="M224.561 128.675C227.708 133.071 238.559 141.862 256.79 141.862C279.578 141.862 298.134 121.917 298.134 101.478C298.134 84.1674 287.977 64.374 268.353 58.72" stroke="url(#paint53_linear_245_6940)" stroke-width="0.912596" stroke-linecap="round"/>
<path d="M93.3477 133.736C101.987 129.924 133.365 91.7949 153.866 65.7494C154.649 64.7535 155.417 63.7753 156.168 62.8174" stroke="url(#paint54_linear_245_6940)" stroke-width="0.912596" stroke-linecap="round"/>
<path d="M135.679 155.91L171.413 115.594M142.642 161.224L185.707 112.845" stroke="url(#paint55_linear_245_6940)" stroke-width="0.912596" stroke-linecap="round"/>
</g>
<defs>
<filter id="filter0_f_245_6940" x="-33.1508" y="0.611667" width="387.068" height="197.777" filterUnits="userSpaceOnUse" color-interpolation-filters="sRGB">
<feFlood flood-opacity="0" result="BackgroundImageFix"/>
<feBlend mode="normal" in="SourceGraphic" in2="BackgroundImageFix" result="shape"/>
<feGaussianBlur stdDeviation="1.46602" result="effect1_foregroundBlur_245_6940"/>
</filter>
<linearGradient id="paint0_linear_245_6940" x1="237.96" y1="49.7757" x2="171.238" y2="151.426" gradientUnits="userSpaceOnUse">
<stop stop-color="white"/>
<stop offset="0.894147" stop-color="white" stop-opacity="0"/>
</linearGradient>
<linearGradient id="paint1_linear_245_6940" x1="320.947" y1="75.6453" x2="175.884" y2="134.017" gradientUnits="userSpaceOnUse">
<stop stop-color="#FD366E" stop-opacity="0"/>
<stop offset="0.5" stop-color="white"/>
<stop offset="0.857963" stop-color="white" stop-opacity="0"/>
</linearGradient>
<linearGradient id="paint2_linear_245_6940" x1="156.913" y1="19.3858" x2="0.151091" y2="11.6326" gradientUnits="userSpaceOnUse">
<stop offset="0.0291348" stop-color="#FD366E" stop-opacity="0"/>
<stop offset="1" stop-color="white"/>
</linearGradient>
<linearGradient id="paint3_linear_245_6940" x1="8.50193" y1="22.5019" x2="0.994772" y2="29.3079" gradientUnits="userSpaceOnUse">
<stop offset="0.138043" stop-color="white" stop-opacity="0"/>
<stop offset="1" stop-color="white"/>
</linearGradient>
<linearGradient id="paint4_linear_245_6940" x1="329.926" y1="40.644" x2="160.418" y2="56.5869" gradientUnits="userSpaceOnUse">
<stop stop-color="white" stop-opacity="0"/>
<stop offset="0.440802" stop-color="white"/>
<stop offset="1" stop-color="white" stop-opacity="0"/>
</linearGradient>
<linearGradient id="paint5_linear_245_6940" x1="180.026" y1="36.0626" x2="163.35" y2="52.3721" gradientUnits="userSpaceOnUse">
<stop stop-color="white"/>
<stop offset="0.846212" stop-color="white" stop-opacity="0"/>
</linearGradient>
<linearGradient id="paint6_linear_245_6940" x1="336.34" y1="47.7907" x2="171.78" y2="158.475" gradientUnits="userSpaceOnUse">
<stop stop-color="white"/>
<stop offset="0.97039" stop-color="white" stop-opacity="0"/>
</linearGradient>
<linearGradient id="paint7_linear_245_6940" x1="262.11" y1="52.4151" x2="66.3535" y2="191.45" gradientUnits="userSpaceOnUse">
<stop offset="0.387871" stop-color="white" stop-opacity="0"/>
<stop offset="1" stop-color="white"/>
</linearGradient>
<linearGradient id="paint8_linear_245_6940" x1="235.735" y1="40.0943" x2="157.316" y2="132.719" gradientUnits="userSpaceOnUse">
<stop stop-color="white"/>
<stop offset="1" stop-color="white" stop-opacity="0"/>
</linearGradient>
<linearGradient id="paint9_linear_245_6940" x1="125.6" y1="112.662" x2="115.141" y2="136.46" gradientUnits="userSpaceOnUse">
<stop stop-color="white"/>
<stop offset="0.878441" stop-color="white" stop-opacity="0"/>
</linearGradient>
<linearGradient id="paint10_linear_245_6940" x1="243.355" y1="56.7464" x2="65.7716" y2="182.544" gradientUnits="userSpaceOnUse">
<stop offset="0.387871" stop-color="white" stop-opacity="0"/>
<stop offset="1" stop-color="white"/>
</linearGradient>
<linearGradient id="paint11_linear_245_6940" x1="67.1425" y1="19.9365" x2="44.8067" y2="158.343" gradientUnits="userSpaceOnUse">
<stop stop-color="white" stop-opacity="0"/>
<stop offset="1" stop-color="white"/>
</linearGradient>
<linearGradient id="paint12_linear_245_6940" x1="157.718" y1="118.309" x2="127.441" y2="160.184" gradientUnits="userSpaceOnUse">
<stop stop-color="white"/>
<stop offset="1" stop-color="white" stop-opacity="0"/>
</linearGradient>
<linearGradient id="paint13_linear_245_6940" x1="244.897" y1="20.8528" x2="186.759" y2="152.128" gradientUnits="userSpaceOnUse">
<stop stop-color="white"/>
<stop offset="0.949931" stop-color="white" stop-opacity="0"/>
</linearGradient>
<linearGradient id="paint14_linear_245_6940" x1="233.536" y1="177.167" x2="185.237" y2="39.2553" gradientUnits="userSpaceOnUse">
<stop stop-color="white"/>
<stop offset="0.978605" stop-color="white" stop-opacity="0"/>
</linearGradient>
<linearGradient id="paint15_linear_245_6940" x1="222.547" y1="61.5746" x2="65.1114" y2="172.649" gradientUnits="userSpaceOnUse">
<stop offset="0.387871" stop-color="white" stop-opacity="0"/>
<stop offset="1" stop-color="white"/>
</linearGradient>
<linearGradient id="paint16_linear_245_6940" x1="7.40251" y1="57.8697" x2="39.8606" y2="157.808" gradientUnits="userSpaceOnUse">
<stop offset="0.0548826" stop-color="#FD366E" stop-opacity="0"/>
<stop offset="1" stop-color="white"/>
</linearGradient>
<linearGradient id="paint17_linear_245_6940" x1="141.821" y1="120.742" x2="120.693" y2="147.587" gradientUnits="userSpaceOnUse">
<stop stop-color="white"/>
<stop offset="1" stop-color="white" stop-opacity="0"/>
</linearGradient>
<linearGradient id="paint18_linear_245_6940" x1="147.075" y1="84.8914" x2="53.0818" y2="149.38" gradientUnits="userSpaceOnUse">
<stop offset="0.105751" stop-color="white" stop-opacity="0"/>
<stop offset="1" stop-color="white"/>
</linearGradient>
<linearGradient id="paint19_linear_245_6940" x1="240.807" y1="56.6197" x2="180.102" y2="94.4946" gradientUnits="userSpaceOnUse">
<stop stop-color="white"/>
<stop offset="0.894147" stop-color="white" stop-opacity="0"/>
</linearGradient>
<linearGradient id="paint20_linear_245_6940" x1="181.058" y1="71.1556" x2="63.8391" y2="152.945" gradientUnits="userSpaceOnUse">
<stop offset="0.387871" stop-color="white" stop-opacity="0"/>
<stop offset="1" stop-color="white"/>
</linearGradient>
<linearGradient id="paint21_linear_245_6940" x1="299.506" y1="128.239" x2="162.088" y2="117.397" gradientUnits="userSpaceOnUse">
<stop stop-color="white"/>
<stop offset="0.894147" stop-color="white" stop-opacity="0"/>
</linearGradient>
<linearGradient id="paint22_linear_245_6940" x1="158.586" y1="76.7447" x2="64.2398" y2="143.067" gradientUnits="userSpaceOnUse">
<stop offset="0.387871" stop-color="white" stop-opacity="0"/>
<stop offset="1" stop-color="white"/>
</linearGradient>
<linearGradient id="paint23_linear_245_6940" x1="29.3928" y1="76.928" x2="64.2207" y2="141.582" gradientUnits="userSpaceOnUse">
<stop offset="0.0295412" stop-color="white" stop-opacity="0"/>
<stop offset="1" stop-color="white"/>
</linearGradient>
<linearGradient id="paint24_linear_245_6940" x1="227.855" y1="124.207" x2="181.437" y2="113.045" gradientUnits="userSpaceOnUse">
<stop stop-color="white"/>
<stop offset="0.851956" stop-color="#FD366E" stop-opacity="0"/>
</linearGradient>
<linearGradient id="paint25_linear_245_6940" x1="298.04" y1="111.746" x2="229.009" y2="75.0351" gradientUnits="userSpaceOnUse">
<stop stop-color="white"/>
<stop offset="0.661114" stop-color="white" stop-opacity="0"/>
</linearGradient>
<linearGradient id="paint26_linear_245_6940" x1="137.641" y1="66.4325" x2="176.329" y2="119.671" gradientUnits="userSpaceOnUse">
<stop stop-color="white"/>
<stop offset="0.894147" stop-color="white" stop-opacity="0"/>
</linearGradient>
<linearGradient id="paint27_linear_245_6940" x1="188.387" y1="111.357" x2="151.384" y2="172.842" gradientUnits="userSpaceOnUse">
<stop stop-color="white"/>
<stop offset="1" stop-color="white" stop-opacity="0"/>
</linearGradient>
<linearGradient id="paint28_linear_245_6940" x1="237.96" y1="49.7757" x2="171.238" y2="151.426" gradientUnits="userSpaceOnUse">
<stop stop-color="white"/>
<stop offset="0.894147" stop-color="white" stop-opacity="0"/>
</linearGradient>
<linearGradient id="paint29_linear_245_6940" x1="320.947" y1="75.6453" x2="175.884" y2="134.017" gradientUnits="userSpaceOnUse">
<stop stop-color="#FD366E" stop-opacity="0"/>
<stop offset="0.5" stop-color="white"/>
<stop offset="0.857963" stop-color="white" stop-opacity="0"/>
</linearGradient>
<linearGradient id="paint30_linear_245_6940" x1="156.913" y1="19.3858" x2="0.151091" y2="11.6326" gradientUnits="userSpaceOnUse">
<stop offset="0.0291348" stop-color="#FD366E" stop-opacity="0"/>
<stop offset="1" stop-color="white"/>
</linearGradient>
<linearGradient id="paint31_linear_245_6940" x1="8.50193" y1="22.5019" x2="0.994772" y2="29.3079" gradientUnits="userSpaceOnUse">
<stop offset="0.138043" stop-color="white" stop-opacity="0"/>
<stop offset="1" stop-color="white"/>
</linearGradient>
<linearGradient id="paint32_linear_245_6940" x1="329.926" y1="40.644" x2="160.418" y2="56.5869" gradientUnits="userSpaceOnUse">
<stop stop-color="white" stop-opacity="0"/>
<stop offset="0.440802" stop-color="white"/>
<stop offset="1" stop-color="white" stop-opacity="0"/>
</linearGradient>
<linearGradient id="paint33_linear_245_6940" x1="180.026" y1="36.0626" x2="163.35" y2="52.3721" gradientUnits="userSpaceOnUse">
<stop stop-color="white"/>
<stop offset="0.846212" stop-color="white" stop-opacity="0"/>
</linearGradient>
<linearGradient id="paint34_linear_245_6940" x1="336.34" y1="47.7907" x2="171.78" y2="158.475" gradientUnits="userSpaceOnUse">
<stop stop-color="white"/>
<stop offset="0.97039" stop-color="white" stop-opacity="0"/>
</linearGradient>
<linearGradient id="paint35_linear_245_6940" x1="262.11" y1="52.4151" x2="66.3535" y2="191.45" gradientUnits="userSpaceOnUse">
<stop offset="0.387871" stop-color="white" stop-opacity="0"/>
<stop offset="1" stop-color="white"/>
</linearGradient>
<linearGradient id="paint36_linear_245_6940" x1="235.735" y1="40.0943" x2="157.316" y2="132.719" gradientUnits="userSpaceOnUse">
<stop stop-color="white"/>
<stop offset="1" stop-color="white" stop-opacity="0"/>
</linearGradient>
<linearGradient id="paint37_linear_245_6940" x1="125.6" y1="112.662" x2="115.141" y2="136.46" gradientUnits="userSpaceOnUse">
<stop stop-color="white"/>
<stop offset="0.878441" stop-color="white" stop-opacity="0"/>
</linearGradient>
<linearGradient id="paint38_linear_245_6940" x1="243.355" y1="56.7464" x2="65.7716" y2="182.544" gradientUnits="userSpaceOnUse">
<stop offset="0.387871" stop-color="white" stop-opacity="0"/>
<stop offset="1" stop-color="white"/>
</linearGradient>
<linearGradient id="paint39_linear_245_6940" x1="67.1425" y1="19.9365" x2="44.8067" y2="158.343" gradientUnits="userSpaceOnUse">
<stop stop-color="white" stop-opacity="0"/>
<stop offset="1" stop-color="white"/>
</linearGradient>
<linearGradient id="paint40_linear_245_6940" x1="157.718" y1="118.309" x2="127.441" y2="160.184" gradientUnits="userSpaceOnUse">
<stop stop-color="white"/>
<stop offset="1" stop-color="white" stop-opacity="0"/>
</linearGradient>
<linearGradient id="paint41_linear_245_6940" x1="244.897" y1="20.8528" x2="186.759" y2="152.128" gradientUnits="userSpaceOnUse">
<stop stop-color="white"/>
<stop offset="0.949931" stop-color="white" stop-opacity="0"/>
</linearGradient>
<linearGradient id="paint42_linear_245_6940" x1="233.536" y1="177.167" x2="185.237" y2="39.2553" gradientUnits="userSpaceOnUse">
<stop stop-color="white"/>
<stop offset="0.978605" stop-color="#FD366E" stop-opacity="0"/>
</linearGradient>
<linearGradient id="paint43_linear_245_6940" x1="222.547" y1="61.5746" x2="65.1114" y2="172.649" gradientUnits="userSpaceOnUse">
<stop offset="0.387871" stop-color="white" stop-opacity="0"/>
<stop offset="1" stop-color="white"/>
</linearGradient>
<linearGradient id="paint44_linear_245_6940" x1="7.40251" y1="57.8697" x2="39.8606" y2="157.808" gradientUnits="userSpaceOnUse">
<stop offset="0.0548826" stop-color="#FD366E" stop-opacity="0"/>
<stop offset="1" stop-color="white"/>
</linearGradient>
<linearGradient id="paint45_linear_245_6940" x1="141.821" y1="120.742" x2="120.693" y2="147.587" gradientUnits="userSpaceOnUse">
<stop stop-color="white"/>
<stop offset="1" stop-color="white" stop-opacity="0"/>
</linearGradient>
<linearGradient id="paint46_linear_245_6940" x1="147.075" y1="84.8914" x2="53.0818" y2="149.38" gradientUnits="userSpaceOnUse">
<stop offset="0.105751" stop-color="white" stop-opacity="0"/>
<stop offset="1" stop-color="white"/>
</linearGradient>
<linearGradient id="paint47_linear_245_6940" x1="240.807" y1="56.6197" x2="180.102" y2="94.4946" gradientUnits="userSpaceOnUse">
<stop stop-color="white"/>
<stop offset="0.894147" stop-color="white" stop-opacity="0"/>
</linearGradient>
<linearGradient id="paint48_linear_245_6940" x1="181.058" y1="71.1556" x2="63.8391" y2="152.945" gradientUnits="userSpaceOnUse">
<stop offset="0.387871" stop-color="white" stop-opacity="0"/>
<stop offset="1" stop-color="white"/>
</linearGradient>
<linearGradient id="paint49_linear_245_6940" x1="299.506" y1="128.239" x2="162.088" y2="117.397" gradientUnits="userSpaceOnUse">
<stop stop-color="white"/>
<stop offset="0.894147" stop-color="white" stop-opacity="0"/>
</linearGradient>
<linearGradient id="paint50_linear_245_6940" x1="158.586" y1="76.7447" x2="64.2398" y2="143.067" gradientUnits="userSpaceOnUse">
<stop offset="0.387871" stop-color="white" stop-opacity="0"/>
<stop offset="1" stop-color="white"/>
</linearGradient>
<linearGradient id="paint51_linear_245_6940" x1="29.3928" y1="76.928" x2="64.2207" y2="141.582" gradientUnits="userSpaceOnUse">
<stop offset="0.0295412" stop-color="white" stop-opacity="0"/>
<stop offset="1" stop-color="white"/>
</linearGradient>
<linearGradient id="paint52_linear_245_6940" x1="227.855" y1="124.207" x2="181.437" y2="113.045" gradientUnits="userSpaceOnUse">
<stop stop-color="white"/>
<stop offset="0.851956" stop-color="#FD366E" stop-opacity="0"/>
</linearGradient>
<linearGradient id="paint53_linear_245_6940" x1="298.04" y1="111.746" x2="229.009" y2="75.0351" gradientUnits="userSpaceOnUse">
<stop stop-color="white"/>
<stop offset="0.661114" stop-color="white" stop-opacity="0"/>
</linearGradient>
<linearGradient id="paint54_linear_245_6940" x1="137.641" y1="66.4325" x2="176.329" y2="119.671" gradientUnits="userSpaceOnUse">
<stop stop-color="white"/>
<stop offset="0.894147" stop-color="white" stop-opacity="0"/>
</linearGradient>
<linearGradient id="paint55_linear_245_6940" x1="188.387" y1="111.357" x2="151.384" y2="172.842" gradientUnits="userSpaceOnUse">
<stop stop-color="white"/>
<stop offset="1" stop-color="white" stop-opacity="0"/>
</linearGradient>
</defs>
</svg>
