<svg xmlns="http://www.w3.org/2000/svg" width="291" height="224" fill="none" viewBox="0 0 291 224"><g clip-path="url(#clip0_10_8080)"><path stroke="url(#paint0_linear_10_8080)" stroke-linecap="round" stroke-width="1.125" d="M206.159 205.875L226.253 78.2159C229.058 56.1215 241.39 18.5029 275.33 -1.9122C308.363 -21.7822 342.485 -15.2149 367.623 2.52692"/><path stroke="url(#paint1_linear_10_8080)" stroke-linecap="round" stroke-width="1.125" d="M294.148 158.362C304.368 162.758 332.865 166.703 365.093 147.318C405.377 123.087 417.049 68.2251 395.394 32.224C389.719 22.7888 382.072 13.9691 373.012 6.61073"/><path stroke="url(#paint2_linear_10_8080)" stroke-linecap="round" stroke-width="1.125" d="M184.471 85.3626C156.149 74.7954 103.069 65.8721 56.7487 93.7342C34.194 107.301 19.4063 125.368 10.9024 145.215"/><path stroke="url(#paint3_linear_10_8080)" stroke-linecap="round" stroke-width="1.125" d="M5.54013 160.923C6.50153 157.226 7.65322 153.563 9.00381 149.951"/><path stroke="url(#paint4_linear_10_8080)" stroke-linecap="round" stroke-width="1.125" d="M237.024 217.4C235.731 232.439 222.149 269.131 178.165 295.588C142.258 317.186 98.5139 315.897 64.3259 298.837"/><path stroke="url(#paint5_linear_10_8080)" stroke-linecap="round" stroke-width="1.125" d="M43.3276 285.358C34.2632 277.999 26.4938 269.266 20.543 259.373C7.97862 238.485 0.787919 212.298 1.84871 186.088"/><path stroke="url(#paint6_linear_10_8080)" stroke-linecap="round" stroke-width="1.125" d="M360.691 -35.8239C330.351 -48.5126 294.344 -49.1812 259.154 -28.0138C227.177 -8.77973 209.177 21.5151 199.8 48.2936"/><path stroke="url(#paint7_linear_10_8080)" stroke-linecap="round" stroke-width="1.125" d="M191.903 80.892C192.898 73.3238 194.724 64.4102 197.646 54.8646"/><path stroke="url(#paint8_linear_10_8080)" stroke-linecap="round" stroke-width="1.125" d="M283.916 189.194C297.807 195.1 336.586 200.296 380.57 173.84C435.55 140.769 451.736 66.3221 422.445 17.6259C410.986 -1.42501 393.538 -18.5928 372.614 -30.0729"/><path stroke="url(#paint9_linear_10_8080)" stroke-linecap="round" stroke-width="1.125" d="M226.769 215.686C225.599 229.471 213.196 263.093 172.945 287.304C122.631 317.568 55.4449 298.628 28.5785 253.962C1.71204 209.297 1.56199 138.261 61.579 102.16C103.968 76.6627 152.581 84.8913 178.525 94.604"/><path stroke="url(#paint10_linear_10_8080)" stroke-linecap="round" stroke-width="1.125" d="M286.878 180.414C299.726 185.893 335.58 190.74 376.215 166.298C427.008 135.745 441.9 66.8618 414.774 21.7657C387.648 -23.3304 324.364 -57.0774 263.775 -20.6323C220.981 5.10846 205.322 52.358 201.711 80.0926L189.408 162.242"/><path stroke="url(#paint11_linear_10_8080)" stroke-linecap="round" stroke-width="1.125" d="M183.519 201.559L185.798 186.342L188.077 171.125"/><path stroke="url(#paint12_linear_10_8080)" stroke-linecap="round" stroke-width="1.125" d="M172.576 104.007C150.835 95.8362 111.545 88.7957 75.4084 106.011"/><path stroke="url(#paint13_linear_10_8080)" stroke-linecap="round" stroke-width="1.125" d="M210.028 234.669C211.738 230.979 213.009 227.531 213.913 224.452"/><path stroke="url(#paint14_linear_10_8080)" stroke-linecap="round" stroke-width="1.125" d="M66.6067 110.74C12.2565 143.432 12.4669 207.885 36.8602 248.439C61.2536 288.993 122.158 306.248 167.721 278.842C186.994 267.249 199.209 253.261 206.596 240.803"/><path stroke="url(#paint15_linear_10_8080)" stroke-linecap="round" stroke-width="1.125" d="M216.636 216.716C219.256 202.657 224.942 171.158 226.725 157.636"/><path stroke="url(#paint16_linear_10_8080)" stroke-linecap="round" stroke-width="1.125" d="M193.87 204.3L212.959 79.2324C215.819 57.0442 227.157 21.0898 256.388 -3.07007"/><path stroke="url(#paint17_linear_10_8080)" stroke-linecap="round" stroke-width="1.125" d="M269.07 -12.0523C323.914 -45.0414 381.273 -14.3685 405.892 26.5591C430.51 67.4866 417.094 129.943 371.117 157.599C362.116 163.013 353.372 166.837 345.128 169.451"/><path stroke="url(#paint18_linear_10_8080)" stroke-linecap="round" stroke-width="1.125" d="M290.21 170.307C297.848 173.575 314.454 176.608 335.358 172.062"/><path stroke="url(#paint19_linear_10_8080)" stroke-linecap="round" stroke-width="1.125" d="M166.01 114.453C145.177 106.577 106.166 99.8409 72.2261 120.256C45.4242 136.378 33.6607 161.288 32.2552 186.414"/><path stroke="url(#paint20_linear_10_8080)" stroke-linecap="round" stroke-width="1.125" d="M204.992 211.99C204.086 223.078 194.217 250.101 161.989 269.486C121.705 293.718 67.7705 278.319 46.1156 242.318C37.3432 227.734 32.0772 209.678 32.1109 191.436"/><path stroke="url(#paint21_linear_10_8080)" stroke-linecap="round" stroke-width="1.125" d="M206.779 206.03L211.932 169.435" opacity=".7"/><path stroke="url(#paint22_linear_10_8080)" stroke-linecap="round" stroke-width="1.125" d="M158.882 125.719C140.952 118.889 107.394 113.007 78.2503 130.537C36.9868 155.357 37.3474 204.625 56.039 235.699C67.775 255.21 90.4371 267.745 114.241 269.223"/><path stroke="url(#paint23_linear_10_8080)" stroke-linecap="round" stroke-width="1.125" d="M192.594 209.87C191.837 219.426 183.404 242.7 155.73 259.346C146.343 264.993 136.086 268.122 125.749 269.063"/><path stroke="url(#paint24_linear_10_8080)" stroke-linecap="round" stroke-width="1.125" d="M298.186 146.209C306.97 150.011 331.449 153.458 359.089 136.832C393.639 116.05 403.564 68.855 384.903 37.8323C366.243 6.80967 322.952 -16.5522 281.739 8.23801C252.63 25.7471 242.108 58.1008 239.739 77.111L218.526 208.459"/><path stroke="url(#paint25_linear_10_8080)" stroke-linecap="round" stroke-width="1.125" d="M182.104 208.077C181.473 216.337 174.255 236.438 150.434 250.766C120.659 268.676 80.6204 257.005 64.4362 230.099C48.252 203.193 47.8303 160.601 83.3483 139.236C108.434 124.147 137.378 129.308 152.851 135.253"/><path stroke="url(#paint26_linear_10_8080)" stroke-linecap="round" stroke-width="1.125" d="M229.769 210.927L252.85 76.1082C254.789 60.1114 263.533 32.9029 287.912 18.239C322.428 -2.52273 358.812 17.2559 374.55 43.4195C380.049 52.561 382.624 63.3553 382.414 74.2739"/><path stroke="url(#paint27_linear_10_8080)" stroke-linecap="round" stroke-width="1.125" d="M145.96 146.914C133.486 142.173 110.135 138.098 89.8453 150.303C73.9989 159.834 66.9627 174.533 66.0193 189.423"/><path stroke="url(#paint28_linear_10_8080)" stroke-linecap="round" stroke-width="1.125" d="M143.703 239.841C119.62 254.327 87.3308 245.045 74.3378 223.444C69.5715 215.52 66.523 205.892 65.9917 196.024"/><path stroke="url(#paint29_linear_10_8080)" stroke-linecap="round" stroke-width="1.125" d="M239.42 211.187L264.325 75.7167C265.982 62.4756 273.325 39.9379 293.615 27.7333C295.078 26.8536 296.544 26.0608 298.011 25.3513"/><path stroke="url(#paint30_linear_10_8080)" stroke-linecap="round" stroke-width="1.125" d="M305.03 123.823C311.15 126.468 328.207 128.86 347.473 117.271C371.556 102.785 378.488 69.9111 365.495 48.3105C354.491 30.0163 331.174 15.5552 306.841 22.0542"/><path stroke="url(#paint31_linear_10_8080)" stroke-linecap="round" stroke-width="1.125" d="M169.578 212.582C176.286 203.062 185.208 142.82 190.317 102.262C190.512 100.711 190.702 99.1891 190.886 97.6998"/><path stroke="url(#paint32_linear_10_8080)" stroke-linecap="round" stroke-width="1.125" d="M150.806 235.742C153.969 233.84 161.386 228.165 165.75 220.687"/><path stroke="url(#paint33_linear_10_8080)" stroke-linecap="round" stroke-width="1.125" d="M194.103 204.687L197.377 185.575"/><path stroke="url(#paint34_linear_10_8080)" stroke-linecap="round" stroke-width="1.125" d="M228.41 209.106L240.547 143.784M239.148 210.296L253.905 131.793"/><g style="mix-blend-mode:screen" filter="url(#filter0_f_10_8080)" opacity=".5"><path stroke="url(#paint35_linear_10_8080)" stroke-linecap="round" stroke-width="1.125" d="M206.159 205.875L226.253 78.2159C229.058 56.1215 241.39 18.5029 275.33 -1.9122C308.363 -21.7822 342.485 -15.2149 367.623 2.52692"/><path stroke="url(#paint36_linear_10_8080)" stroke-linecap="round" stroke-width="1.125" d="M294.148 158.362C304.368 162.758 332.865 166.703 365.093 147.318C405.377 123.087 417.049 68.2251 395.394 32.224C389.719 22.7888 382.072 13.9691 373.012 6.61073"/><path stroke="url(#paint37_linear_10_8080)" stroke-linecap="round" stroke-width="1.125" d="M184.471 85.3626C156.149 74.7954 103.069 65.8721 56.7487 93.7342C34.194 107.301 19.4063 125.368 10.9024 145.215"/><path stroke="url(#paint38_linear_10_8080)" stroke-linecap="round" stroke-width="1.125" d="M5.54013 160.923C6.50153 157.226 7.65322 153.563 9.00381 149.951"/><path stroke="url(#paint39_linear_10_8080)" stroke-linecap="round" stroke-width="1.125" d="M237.024 217.4C235.731 232.439 222.149 269.131 178.165 295.588C142.258 317.186 98.5139 315.897 64.3259 298.837"/><path stroke="url(#paint40_linear_10_8080)" stroke-linecap="round" stroke-width="1.125" d="M43.3276 285.358C34.2632 277.999 26.4938 269.266 20.543 259.373C7.97862 238.485 0.787919 212.298 1.84871 186.088"/><path stroke="url(#paint41_linear_10_8080)" stroke-linecap="round" stroke-width="1.125" d="M360.691 -35.8239C330.351 -48.5126 294.344 -49.1812 259.154 -28.0138C227.177 -8.77973 209.177 21.5151 199.8 48.2936"/><path stroke="url(#paint42_linear_10_8080)" stroke-linecap="round" stroke-width="1.125" d="M191.903 80.892C192.898 73.3238 194.724 64.4102 197.646 54.8646"/><path stroke="url(#paint43_linear_10_8080)" stroke-linecap="round" stroke-width="1.125" d="M283.916 189.194C297.807 195.1 336.586 200.296 380.57 173.84C435.55 140.769 451.736 66.3221 422.445 17.6259C410.986 -1.42501 393.538 -18.5928 372.614 -30.0729"/><path stroke="url(#paint44_linear_10_8080)" stroke-linecap="round" stroke-width="1.125" d="M226.769 215.686C225.599 229.471 213.196 263.093 172.945 287.304C122.631 317.568 55.4449 298.628 28.5785 253.962C1.71204 209.297 1.56199 138.261 61.579 102.16C103.968 76.6627 152.581 84.8913 178.525 94.604"/><path stroke="url(#paint45_linear_10_8080)" stroke-linecap="round" stroke-width="1.125" d="M286.878 180.414C299.726 185.893 335.58 190.74 376.215 166.298C427.008 135.745 441.9 66.8618 414.774 21.7657C387.648 -23.3304 324.364 -57.0774 263.775 -20.6323C220.981 5.10846 205.322 52.358 201.711 80.0926L189.408 162.242"/><path stroke="url(#paint46_linear_10_8080)" stroke-linecap="round" stroke-width="1.125" d="M183.519 201.559L185.798 186.342L188.077 171.125"/><path stroke="url(#paint47_linear_10_8080)" stroke-linecap="round" stroke-width="1.125" d="M172.576 104.007C150.835 95.8362 111.545 88.7957 75.4084 106.011"/><path stroke="url(#paint48_linear_10_8080)" stroke-linecap="round" stroke-width="1.125" d="M210.028 234.669C211.738 230.979 213.009 227.531 213.913 224.452"/><path stroke="url(#paint49_linear_10_8080)" stroke-linecap="round" stroke-width="1.125" d="M66.6067 110.74C12.2565 143.432 12.4669 207.885 36.8602 248.439C61.2536 288.993 122.158 306.248 167.721 278.842C186.994 267.249 199.209 253.261 206.596 240.803"/><path stroke="url(#paint50_linear_10_8080)" stroke-linecap="round" stroke-width="1.125" d="M216.636 216.716C219.256 202.657 224.942 171.158 226.725 157.636"/><path stroke="url(#paint51_linear_10_8080)" stroke-linecap="round" stroke-width="1.125" d="M193.87 204.3L212.959 79.2324C215.819 57.0442 227.157 21.0898 256.388 -3.07007"/><path stroke="url(#paint52_linear_10_8080)" stroke-linecap="round" stroke-width="1.125" d="M269.07 -12.0523C323.914 -45.0414 381.273 -14.3685 405.892 26.5591C430.51 67.4866 417.094 129.943 371.117 157.599C362.116 163.013 353.372 166.837 345.128 169.451"/><path stroke="url(#paint53_linear_10_8080)" stroke-linecap="round" stroke-width="1.125" d="M290.21 170.307C297.848 173.575 314.454 176.608 335.358 172.062"/><path stroke="url(#paint54_linear_10_8080)" stroke-linecap="round" stroke-width="1.125" d="M166.01 114.453C145.177 106.577 106.166 99.8409 72.2261 120.256C45.4242 136.378 33.6607 161.288 32.2552 186.414"/><path stroke="url(#paint55_linear_10_8080)" stroke-linecap="round" stroke-width="1.125" d="M204.992 211.99C204.086 223.078 194.217 250.101 161.989 269.486C121.705 293.718 67.7705 278.319 46.1156 242.318C37.3432 227.734 32.0772 209.678 32.1109 191.436"/><path stroke="url(#paint56_linear_10_8080)" stroke-linecap="round" stroke-width="1.125" d="M206.779 206.03L211.932 169.435" opacity=".7"/><path stroke="url(#paint57_linear_10_8080)" stroke-linecap="round" stroke-width="1.125" d="M158.882 125.719C140.952 118.889 107.394 113.007 78.2503 130.537C36.9868 155.357 37.3474 204.625 56.039 235.699C67.775 255.21 90.4371 267.745 114.241 269.223"/><path stroke="url(#paint58_linear_10_8080)" stroke-linecap="round" stroke-width="1.125" d="M192.594 209.87C191.837 219.426 183.404 242.7 155.73 259.346C146.343 264.993 136.086 268.122 125.749 269.063"/><path stroke="url(#paint59_linear_10_8080)" stroke-linecap="round" stroke-width="1.125" d="M298.186 146.209C306.97 150.011 331.449 153.458 359.089 136.832C393.639 116.05 403.564 68.855 384.903 37.8323C366.243 6.80967 322.952 -16.5522 281.739 8.23801C252.63 25.7471 242.108 58.1008 239.739 77.111L218.526 208.459"/><path stroke="url(#paint60_linear_10_8080)" stroke-linecap="round" stroke-width="1.125" d="M182.104 208.077C181.473 216.337 174.255 236.438 150.434 250.766C120.659 268.676 80.6204 257.005 64.4362 230.099C48.252 203.193 47.8303 160.601 83.3483 139.236C108.434 124.147 137.378 129.308 152.851 135.253"/><path stroke="url(#paint61_linear_10_8080)" stroke-linecap="round" stroke-width="1.125" d="M229.769 210.927L252.85 76.1082C254.789 60.1114 263.533 32.9029 287.912 18.239C322.428 -2.52273 358.812 17.2559 374.55 43.4195C380.049 52.561 382.624 63.3553 382.414 74.2739"/><path stroke="url(#paint62_linear_10_8080)" stroke-linecap="round" stroke-width="1.125" d="M145.96 146.914C133.486 142.173 110.135 138.098 89.8453 150.303C73.9989 159.834 66.9627 174.533 66.0193 189.423"/><path stroke="url(#paint63_linear_10_8080)" stroke-linecap="round" stroke-width="1.125" d="M143.703 239.841C119.62 254.327 87.3308 245.045 74.3378 223.444C69.5715 215.52 66.523 205.892 65.9917 196.024"/><path stroke="url(#paint64_linear_10_8080)" stroke-linecap="round" stroke-width="1.125" d="M239.42 211.187L264.325 75.7167C265.982 62.4756 273.325 39.9379 293.615 27.7333C295.078 26.8536 296.544 26.0608 298.011 25.3513"/><path stroke="url(#paint65_linear_10_8080)" stroke-linecap="round" stroke-width="1.125" d="M305.03 123.823C311.15 126.468 328.207 128.86 347.473 117.271C371.556 102.785 378.488 69.9111 365.495 48.3105C354.491 30.0163 331.174 15.5552 306.841 22.0542"/><path stroke="url(#paint66_linear_10_8080)" stroke-linecap="round" stroke-width="1.125" d="M169.578 212.582C176.286 203.062 185.208 142.82 190.317 102.262C190.512 100.711 190.702 99.1891 190.886 97.6998"/><path stroke="url(#paint67_linear_10_8080)" stroke-linecap="round" stroke-width="1.125" d="M150.806 235.742C153.969 233.84 161.386 228.165 165.75 220.687"/><path stroke="url(#paint68_linear_10_8080)" stroke-linecap="round" stroke-width="1.125" d="M194.103 204.687L197.377 185.575"/><path stroke="url(#paint69_linear_10_8080)" stroke-linecap="round" stroke-width="1.125" d="M228.41 209.106L240.547 143.784M239.148 210.296L253.905 131.793"/></g></g><defs><filter id="filter0_f_10_8080" width="443.438" height="364.834" x="-2.433" y="-48.936" color-interpolation-filters="sRGB" filterUnits="userSpaceOnUse"><feFlood flood-opacity="0" result="BackgroundImageFix"/><feBlend in="SourceGraphic" in2="BackgroundImageFix" mode="normal" result="shape"/><feGaussianBlur result="effect1_foregroundBlur_10_8080" stdDeviation="1.808"/></filter><linearGradient id="paint0_linear_10_8080" x1="269.035" x2="263.14" y1="31.923" y2="181.763" gradientUnits="userSpaceOnUse"><stop stop-color="#fff"/><stop offset=".894" stop-color="#fff" stop-opacity="0"/></linearGradient><linearGradient id="paint1_linear_10_8080" x1="373.183" x2="256.982" y1="6.508" y2="160.411" gradientUnits="userSpaceOnUse"><stop stop-color="#FD366E" stop-opacity="0"/><stop offset=".5" stop-color="#fff"/><stop offset=".858" stop-color="#fff" stop-opacity="0"/></linearGradient><linearGradient id="paint2_linear_10_8080" x1="164.065" x2="-6.534" y1="51.326" y2="142.784" gradientUnits="userSpaceOnUse"><stop offset=".029" stop-color="#FD366E" stop-opacity="0"/><stop offset="1" stop-color="#fff"/></linearGradient><linearGradient id="paint3_linear_10_8080" x1="9.201" x2="5.593" y1="148.963" y2="160.928" gradientUnits="userSpaceOnUse"><stop offset=".138" stop-color="#fff" stop-opacity="0"/><stop offset="1" stop-color="#fff"/></linearGradient><linearGradient id="paint4_linear_10_8080" x1="236.48" x2="67.783" y1="216.384" y2="306.428" gradientUnits="userSpaceOnUse"><stop stop-color="#fff"/><stop offset=".971" stop-color="#fff" stop-opacity="0"/></linearGradient><linearGradient id="paint5_linear_10_8080" x1=".671" x2="69.553" y1="181.259" y2="202.442" gradientUnits="userSpaceOnUse"><stop offset=".059" stop-color="#fff" stop-opacity="0"/><stop offset="1" stop-color="#fff"/></linearGradient><linearGradient id="paint6_linear_10_8080" x1="360.422" x2="191.417" y1="-36.19" y2="88.413" gradientUnits="userSpaceOnUse"><stop stop-color="#fff" stop-opacity="0"/><stop offset=".441" stop-color="#fff"/><stop offset="1" stop-color="#fff" stop-opacity="0"/></linearGradient><linearGradient id="paint7_linear_10_8080" x1="199.092" x2="191.836" y1="54.258" y2="82.095" gradientUnits="userSpaceOnUse"><stop stop-color="#fff"/><stop offset=".846" stop-color="#fff" stop-opacity="0"/></linearGradient><linearGradient id="paint8_linear_10_8080" x1="371.744" x2="268.193" y1="-32.714" y2="188.869" gradientUnits="userSpaceOnUse"><stop stop-color="#fff"/><stop offset=".97" stop-color="#fff" stop-opacity="0"/></linearGradient><linearGradient id="paint9_linear_10_8080" x1="296.236" x2="177.738" y1="19.36" y2="290.735" gradientUnits="userSpaceOnUse"><stop offset=".388" stop-color="#fff" stop-opacity="0"/><stop offset="1" stop-color="#fff"/></linearGradient><linearGradient id="paint10_linear_10_8080" x1="260.529" x2="236.534" y1="23.106" y2="170.843" gradientUnits="userSpaceOnUse"><stop stop-color="#fff"/><stop offset="1" stop-color="#fff" stop-opacity="0"/></linearGradient><linearGradient id="paint11_linear_10_8080" x1="190.267" x2="194.341" y1="169.808" y2="201.607" gradientUnits="userSpaceOnUse"><stop stop-color="#fff"/><stop offset=".878" stop-color="#fff" stop-opacity="0"/></linearGradient><linearGradient id="paint12_linear_10_8080" x1="279.168" x2="171.462" y1="35.86" y2="281.694" gradientUnits="userSpaceOnUse"><stop offset=".388" stop-color="#fff" stop-opacity="0"/><stop offset="1" stop-color="#fff"/></linearGradient><linearGradient id="paint13_linear_10_8080" x1="214.163" x2="209.703" y1="224.006" y2="235.606" gradientUnits="userSpaceOnUse"><stop stop-color="#fff"/><stop offset=".913" stop-color="#fff" stop-opacity="0"/></linearGradient><linearGradient id="paint14_linear_10_8080" x1="69.543" x2="133.921" y1="108.974" y2="269.444" gradientUnits="userSpaceOnUse"><stop stop-color="#fff" stop-opacity="0"/><stop offset="1" stop-color="#fff"/></linearGradient><linearGradient id="paint15_linear_10_8080" x1="227.799" x2="222.421" y1="155.359" y2="218.86" gradientUnits="userSpaceOnUse"><stop stop-color="#fff"/><stop offset="1" stop-color="#fff" stop-opacity="0"/></linearGradient><linearGradient id="paint16_linear_10_8080" x1="257.98" x2="279.989" y1="-3.054" y2="172.639" gradientUnits="userSpaceOnUse"><stop stop-color="#fff"/><stop offset=".95" stop-color="#fff" stop-opacity="0"/></linearGradient><linearGradient id="paint17_linear_10_8080" x1="345.34" x2="206.628" y1="169.365" y2="54.32" gradientUnits="userSpaceOnUse"><stop stop-color="#fff"/><stop offset=".979" stop-color="#fff" stop-opacity="0"/></linearGradient><linearGradient id="paint18_linear_10_8080" x1="336.389" x2="298.426" y1="171.585" y2="187.486" gradientUnits="userSpaceOnUse"><stop offset=".064" stop-color="#fff" stop-opacity="0"/><stop offset=".46" stop-color="#fff"/><stop offset=".986" stop-color="#fff" stop-opacity="0"/></linearGradient><linearGradient id="paint19_linear_10_8080" x1="260.247" x2="164.474" y1="54.19" y2="271.656" gradientUnits="userSpaceOnUse"><stop offset=".388" stop-color="#fff" stop-opacity="0"/><stop offset="1" stop-color="#fff"/></linearGradient><linearGradient id="paint20_linear_10_8080" x1="30.521" x2="128.354" y1="187.039" y2="272.024" gradientUnits="userSpaceOnUse"><stop offset=".055" stop-color="#FD366E" stop-opacity="0"/><stop offset="1" stop-color="#fff"/></linearGradient><linearGradient id="paint21_linear_10_8080" x1="212.546" x2="207.282" y1="168.036" y2="209.837" gradientUnits="userSpaceOnUse"><stop stop-color="#fff"/><stop offset="1" stop-color="#fff" stop-opacity="0"/></linearGradient><linearGradient id="paint22_linear_10_8080" x1="195.308" x2="136.969" y1="126.808" y2="254.712" gradientUnits="userSpaceOnUse"><stop offset=".106" stop-color="#fff" stop-opacity="0"/><stop offset="1" stop-color="#fff"/></linearGradient><linearGradient id="paint23_linear_10_8080" x1="194.341" x2="121.05" y1="209.028" y2="271.898" gradientUnits="userSpaceOnUse"><stop stop-color="#fff"/><stop offset=".94" stop-color="#fff" stop-opacity="0"/></linearGradient><linearGradient id="paint24_linear_10_8080" x1="276.394" x2="236.317" y1="37.346" y2="115.962" gradientUnits="userSpaceOnUse"><stop stop-color="#fff"/><stop offset=".894" stop-color="#fff" stop-opacity="0"/></linearGradient><linearGradient id="paint25_linear_10_8080" x1="222.491" x2="150.603" y1="90.689" y2="251.641" gradientUnits="userSpaceOnUse"><stop offset=".388" stop-color="#fff" stop-opacity="0"/><stop offset="1" stop-color="#fff"/></linearGradient><linearGradient id="paint26_linear_10_8080" x1="383.957" x2="231.839" y1="75.72" y2="151.617" gradientUnits="userSpaceOnUse"><stop stop-color="#fff"/><stop offset=".894" stop-color="#fff" stop-opacity="0"/></linearGradient><linearGradient id="paint27_linear_10_8080" x1="202.294" x2="144.747" y1="110.881" y2="240.947" gradientUnits="userSpaceOnUse"><stop offset=".388" stop-color="#fff" stop-opacity="0"/><stop offset="1" stop-color="#fff"/></linearGradient><linearGradient id="paint28_linear_10_8080" x1="65.876" x2="143.783" y1="193.202" y2="239.39" gradientUnits="userSpaceOnUse"><stop offset=".03" stop-color="#fff" stop-opacity="0"/><stop offset="1" stop-color="#fff"/></linearGradient><linearGradient id="paint29_linear_10_8080" x1="305.671" x2="249.52" y1="117.007" y2="134.718" gradientUnits="userSpaceOnUse"><stop stop-color="#fff"/><stop offset=".852" stop-color="#FD366E" stop-opacity="0"/></linearGradient><linearGradient id="paint30_linear_10_8080" x1="371.923" x2="275.633" y1="59.222" y2="64.307" gradientUnits="userSpaceOnUse"><stop stop-color="#fff"/><stop offset=".661" stop-color="#fff" stop-opacity="0"/></linearGradient><linearGradient id="paint31_linear_10_8080" x1="173.604" x2="248.333" y1="113.298" y2="144.967" gradientUnits="userSpaceOnUse"><stop stop-color="#fff"/><stop offset=".894" stop-color="#fff" stop-opacity="0"/></linearGradient><linearGradient id="paint32_linear_10_8080" x1="150.031" x2="160.891" y1="236.208" y2="239.405" gradientUnits="userSpaceOnUse"><stop stop-color="#fff" stop-opacity="0"/><stop offset="1" stop-color="#fff"/></linearGradient><linearGradient id="paint33_linear_10_8080" x1="197.725" x2="195.609" y1="184.839" y2="206.785" gradientUnits="userSpaceOnUse"><stop stop-color="#fff"/><stop offset=".748" stop-color="#fff" stop-opacity="0"/></linearGradient><linearGradient id="paint34_linear_10_8080" x1="255.791" x2="255.772" y1="128.516" y2="217.017" gradientUnits="userSpaceOnUse"><stop stop-color="#fff"/><stop offset="1" stop-color="#fff" stop-opacity="0"/></linearGradient><linearGradient id="paint35_linear_10_8080" x1="269.035" x2="263.14" y1="31.923" y2="181.763" gradientUnits="userSpaceOnUse"><stop stop-color="#fff"/><stop offset=".894" stop-color="#fff" stop-opacity="0"/></linearGradient><linearGradient id="paint36_linear_10_8080" x1="373.183" x2="256.982" y1="6.508" y2="160.411" gradientUnits="userSpaceOnUse"><stop stop-color="#FD366E" stop-opacity="0"/><stop offset=".5" stop-color="#fff"/><stop offset=".858" stop-color="#fff" stop-opacity="0"/></linearGradient><linearGradient id="paint37_linear_10_8080" x1="164.065" x2="-6.534" y1="51.326" y2="142.784" gradientUnits="userSpaceOnUse"><stop offset=".029" stop-color="#FD366E" stop-opacity="0"/><stop offset="1" stop-color="#fff"/></linearGradient><linearGradient id="paint38_linear_10_8080" x1="9.201" x2="5.593" y1="148.963" y2="160.928" gradientUnits="userSpaceOnUse"><stop offset=".138" stop-color="#fff" stop-opacity="0"/><stop offset="1" stop-color="#fff"/></linearGradient><linearGradient id="paint39_linear_10_8080" x1="236.48" x2="67.783" y1="216.384" y2="306.428" gradientUnits="userSpaceOnUse"><stop stop-color="#fff"/><stop offset=".971" stop-color="#fff" stop-opacity="0"/></linearGradient><linearGradient id="paint40_linear_10_8080" x1=".671" x2="69.553" y1="181.259" y2="202.442" gradientUnits="userSpaceOnUse"><stop offset=".059" stop-color="#fff" stop-opacity="0"/><stop offset="1" stop-color="#fff"/></linearGradient><linearGradient id="paint41_linear_10_8080" x1="360.422" x2="191.417" y1="-36.19" y2="88.413" gradientUnits="userSpaceOnUse"><stop stop-color="#fff" stop-opacity="0"/><stop offset=".441" stop-color="#fff"/><stop offset="1" stop-color="#fff" stop-opacity="0"/></linearGradient><linearGradient id="paint42_linear_10_8080" x1="199.092" x2="191.836" y1="54.258" y2="82.095" gradientUnits="userSpaceOnUse"><stop stop-color="#fff"/><stop offset=".846" stop-color="#fff" stop-opacity="0"/></linearGradient><linearGradient id="paint43_linear_10_8080" x1="371.744" x2="268.193" y1="-32.714" y2="188.869" gradientUnits="userSpaceOnUse"><stop stop-color="#fff"/><stop offset=".97" stop-color="#fff" stop-opacity="0"/></linearGradient><linearGradient id="paint44_linear_10_8080" x1="296.236" x2="177.738" y1="19.36" y2="290.735" gradientUnits="userSpaceOnUse"><stop offset=".388" stop-color="#fff" stop-opacity="0"/><stop offset="1" stop-color="#fff"/></linearGradient><linearGradient id="paint45_linear_10_8080" x1="260.529" x2="236.534" y1="23.106" y2="170.843" gradientUnits="userSpaceOnUse"><stop stop-color="#fff"/><stop offset="1" stop-color="#fff" stop-opacity="0"/></linearGradient><linearGradient id="paint46_linear_10_8080" x1="190.267" x2="194.341" y1="169.808" y2="201.607" gradientUnits="userSpaceOnUse"><stop stop-color="#fff"/><stop offset=".878" stop-color="#fff" stop-opacity="0"/></linearGradient><linearGradient id="paint47_linear_10_8080" x1="279.168" x2="171.462" y1="35.86" y2="281.694" gradientUnits="userSpaceOnUse"><stop offset=".388" stop-color="#fff" stop-opacity="0"/><stop offset="1" stop-color="#fff"/></linearGradient><linearGradient id="paint48_linear_10_8080" x1="214.163" x2="209.703" y1="224.006" y2="235.606" gradientUnits="userSpaceOnUse"><stop stop-color="#fff"/><stop offset=".913" stop-color="#fff" stop-opacity="0"/></linearGradient><linearGradient id="paint49_linear_10_8080" x1="69.543" x2="133.921" y1="108.974" y2="269.444" gradientUnits="userSpaceOnUse"><stop stop-color="#fff" stop-opacity="0"/><stop offset="1" stop-color="#fff"/></linearGradient><linearGradient id="paint50_linear_10_8080" x1="227.799" x2="222.421" y1="155.359" y2="218.86" gradientUnits="userSpaceOnUse"><stop stop-color="#fff"/><stop offset="1" stop-color="#fff" stop-opacity="0"/></linearGradient><linearGradient id="paint51_linear_10_8080" x1="257.98" x2="279.989" y1="-3.054" y2="172.639" gradientUnits="userSpaceOnUse"><stop stop-color="#fff"/><stop offset=".95" stop-color="#fff" stop-opacity="0"/></linearGradient><linearGradient id="paint52_linear_10_8080" x1="345.34" x2="206.628" y1="169.365" y2="54.32" gradientUnits="userSpaceOnUse"><stop stop-color="#fff"/><stop offset=".979" stop-color="#FD366E" stop-opacity="0"/></linearGradient><linearGradient id="paint53_linear_10_8080" x1="336.389" x2="298.426" y1="171.585" y2="187.486" gradientUnits="userSpaceOnUse"><stop offset=".064" stop-color="#fff" stop-opacity="0"/><stop offset=".46" stop-color="#fff"/><stop offset=".986" stop-color="#fff" stop-opacity="0"/></linearGradient><linearGradient id="paint54_linear_10_8080" x1="260.247" x2="164.474" y1="54.19" y2="271.656" gradientUnits="userSpaceOnUse"><stop offset=".388" stop-color="#fff" stop-opacity="0"/><stop offset="1" stop-color="#fff"/></linearGradient><linearGradient id="paint55_linear_10_8080" x1="30.521" x2="128.354" y1="187.039" y2="272.024" gradientUnits="userSpaceOnUse"><stop offset=".055" stop-color="#FD366E" stop-opacity="0"/><stop offset="1" stop-color="#fff"/></linearGradient><linearGradient id="paint56_linear_10_8080" x1="212.546" x2="207.282" y1="168.036" y2="209.837" gradientUnits="userSpaceOnUse"><stop stop-color="#fff"/><stop offset="1" stop-color="#fff" stop-opacity="0"/></linearGradient><linearGradient id="paint57_linear_10_8080" x1="195.308" x2="136.969" y1="126.808" y2="254.712" gradientUnits="userSpaceOnUse"><stop offset=".106" stop-color="#fff" stop-opacity="0"/><stop offset="1" stop-color="#fff"/></linearGradient><linearGradient id="paint58_linear_10_8080" x1="194.341" x2="121.05" y1="209.028" y2="271.898" gradientUnits="userSpaceOnUse"><stop stop-color="#fff"/><stop offset=".94" stop-color="#fff" stop-opacity="0"/></linearGradient><linearGradient id="paint59_linear_10_8080" x1="276.394" x2="236.317" y1="37.346" y2="115.962" gradientUnits="userSpaceOnUse"><stop stop-color="#fff"/><stop offset=".894" stop-color="#fff" stop-opacity="0"/></linearGradient><linearGradient id="paint60_linear_10_8080" x1="222.491" x2="150.603" y1="90.689" y2="251.641" gradientUnits="userSpaceOnUse"><stop offset=".388" stop-color="#fff" stop-opacity="0"/><stop offset="1" stop-color="#fff"/></linearGradient><linearGradient id="paint61_linear_10_8080" x1="383.957" x2="231.839" y1="75.72" y2="151.617" gradientUnits="userSpaceOnUse"><stop stop-color="#fff"/><stop offset=".894" stop-color="#fff" stop-opacity="0"/></linearGradient><linearGradient id="paint62_linear_10_8080" x1="202.294" x2="144.747" y1="110.881" y2="240.947" gradientUnits="userSpaceOnUse"><stop offset=".388" stop-color="#fff" stop-opacity="0"/><stop offset="1" stop-color="#fff"/></linearGradient><linearGradient id="paint63_linear_10_8080" x1="65.876" x2="143.783" y1="193.202" y2="239.39" gradientUnits="userSpaceOnUse"><stop offset=".03" stop-color="#fff" stop-opacity="0"/><stop offset="1" stop-color="#fff"/></linearGradient><linearGradient id="paint64_linear_10_8080" x1="305.671" x2="249.52" y1="117.007" y2="134.718" gradientUnits="userSpaceOnUse"><stop stop-color="#fff"/><stop offset=".852" stop-color="#FD366E" stop-opacity="0"/></linearGradient><linearGradient id="paint65_linear_10_8080" x1="371.923" x2="275.633" y1="59.222" y2="64.307" gradientUnits="userSpaceOnUse"><stop stop-color="#fff"/><stop offset=".661" stop-color="#fff" stop-opacity="0"/></linearGradient><linearGradient id="paint66_linear_10_8080" x1="173.604" x2="248.333" y1="113.298" y2="144.967" gradientUnits="userSpaceOnUse"><stop stop-color="#fff"/><stop offset=".894" stop-color="#fff" stop-opacity="0"/></linearGradient><linearGradient id="paint67_linear_10_8080" x1="150.031" x2="160.891" y1="236.208" y2="239.405" gradientUnits="userSpaceOnUse"><stop stop-color="#fff" stop-opacity="0"/><stop offset="1" stop-color="#fff"/></linearGradient><linearGradient id="paint68_linear_10_8080" x1="197.725" x2="195.609" y1="184.839" y2="206.785" gradientUnits="userSpaceOnUse"><stop stop-color="#fff"/><stop offset=".748" stop-color="#fff" stop-opacity="0"/></linearGradient><linearGradient id="paint69_linear_10_8080" x1="255.791" x2="255.772" y1="128.516" y2="217.017" gradientUnits="userSpaceOnUse"><stop stop-color="#fff"/><stop offset="1" stop-color="#fff" stop-opacity="0"/></linearGradient><clipPath id="clip0_10_8080"><rect width="291" height="224" fill="#fff"/></clipPath></defs></svg>