<svg width="613" height="286" viewBox="0 0 613 286" fill="none" xmlns="http://www.w3.org/2000/svg">
<g filter="url(#filter0_i_13_10274)">
<path d="M338.363 50.7974C338.363 40.4386 338.363 35.2592 340.379 31.3027C342.152 27.8225 344.982 24.993 348.462 23.2197C352.419 21.2037 357.598 21.2037 367.957 21.2037H725.019V401H338.363V50.7974Z" fill="white" fill-opacity="0.03"/>
<path d="M339.676 50.7974C339.676 45.5963 339.677 41.7745 339.923 38.7561C340.169 35.753 340.651 33.661 341.549 31.8987C343.196 28.6655 345.825 26.0368 349.058 24.3893C350.82 23.4914 352.912 23.0095 355.915 22.7641C358.934 22.5175 362.756 22.5165 367.957 22.5165H723.707V399.687H339.676V50.7974Z" stroke="url(#paint0_linear_13_10274)" stroke-opacity="0.15" stroke-width="2.62549"/>
<path d="M339.676 50.7974C339.676 45.5963 339.677 41.7745 339.923 38.7561C340.169 35.753 340.651 33.661 341.549 31.8987C343.196 28.6655 345.825 26.0368 349.058 24.3893C350.82 23.4914 352.912 23.0095 355.915 22.7641C358.934 22.5175 362.756 22.5165 367.957 22.5165H723.707V399.687H339.676V50.7974Z" stroke="url(#paint1_linear_13_10274)" stroke-width="2.62549"/>
<path d="M405.087 98.0236V103.655L380.204 119.174L377.257 115.114L400.372 100.839L377.257 86.6297L379.942 82.4388L405.087 98.0236ZM415.342 128.407H448.083V133.253H415.342V128.407Z" fill="white"/>
<g opacity="0.5" filter="url(#filter1_f_13_10274)">
<path d="M405.087 98.0236V103.655L380.204 119.174L377.257 115.114L400.372 100.839L377.257 86.6297L379.942 82.4388L405.087 98.0236ZM415.342 128.407H448.083V133.253H415.342V128.407Z" fill="white"/>
</g>
</g>
<path d="M198.502 37.4183H297.037" stroke="url(#paint2_linear_13_10274)" stroke-width="2.18274" stroke-linecap="round"/>
<path d="M25.2961 55.5039L253.231 55.5039" stroke="url(#paint3_linear_13_10274)" stroke-width="2.18274" stroke-linecap="round"/>
<path d="M204.281 100.406L338.363 100.406" stroke="url(#paint4_linear_13_10274)" stroke-width="2.18274" stroke-linecap="round"/>
<path d="M97.0146 100.406L178.711 100.406" stroke="url(#paint5_linear_13_10274)" stroke-width="2.18274" stroke-linecap="round"/>
<path d="M156.499 141.566L251.472 141.566" stroke="url(#paint6_linear_13_10274)" stroke-width="2.18274" stroke-linecap="round"/>
<path d="M8 156.307L235.934 156.307" stroke="url(#paint7_linear_13_10274)" stroke-width="2.18274" stroke-linecap="round"/>
<path d="M267.88 210.79L317.093 210.79" stroke="url(#paint8_linear_13_10274)" stroke-width="2.18274" stroke-linecap="round"/>
<path d="M228.141 192.704L297.104 192.704" stroke="url(#paint9_linear_13_10274)" stroke-width="2.18274" stroke-linecap="round"/>
<g style="mix-blend-mode:screen" filter="url(#filter2_f_13_10274)">
<path d="M198.502 37.4183H297.037" stroke="url(#paint10_linear_13_10274)" stroke-width="2.18274" stroke-linecap="round"/>
<path d="M25.2961 55.5039L253.231 55.5039" stroke="url(#paint11_linear_13_10274)" stroke-width="2.18274" stroke-linecap="round"/>
<path d="M204.281 100.406L338.363 100.406" stroke="url(#paint12_linear_13_10274)" stroke-width="2.18274" stroke-linecap="round"/>
<path d="M97.0146 100.406L178.711 100.406" stroke="url(#paint13_linear_13_10274)" stroke-width="2.18274" stroke-linecap="round"/>
<path d="M156.499 141.566L251.472 141.566" stroke="url(#paint14_linear_13_10274)" stroke-width="2.18274" stroke-linecap="round"/>
<path d="M8 156.307L235.934 156.307" stroke="url(#paint15_linear_13_10274)" stroke-width="2.18274" stroke-linecap="round"/>
<path d="M267.88 210.79L317.093 210.79" stroke="url(#paint16_linear_13_10274)" stroke-width="2.18274" stroke-linecap="round"/>
<path d="M228.141 192.704L297.104 192.704" stroke="url(#paint17_linear_13_10274)" stroke-width="2.18274" stroke-linecap="round"/>
</g>
<g filter="url(#filter3_f_13_10274)">
<g style="mix-blend-mode:screen" filter="url(#filter4_f_13_10274)">
<circle cx="337.908" cy="98.4404" r="11.3933" transform="rotate(90 337.908 98.4404)" fill="url(#paint18_radial_13_10274)" fill-opacity="0.5"/>
</g>
<g style="mix-blend-mode:screen">
<circle cx="337.906" cy="98.4401" r="6.24795" transform="rotate(90 337.906 98.4401)" fill="url(#paint19_radial_13_10274)"/>
</g>
</g>
<rect x="326.514" y="210.79" width="398.505" height="190.21" fill="url(#paint20_linear_13_10274)"/>
<rect x="529.197" y="401" width="379.796" height="195.823" transform="rotate(-90 529.197 401)" fill="url(#paint21_linear_13_10274)"/>
<defs>
<filter id="filter0_i_13_10274" x="338.363" y="21.2037" width="386.656" height="381.148" filterUnits="userSpaceOnUse" color-interpolation-filters="sRGB">
<feFlood flood-opacity="0" result="BackgroundImageFix"/>
<feBlend mode="normal" in="SourceGraphic" in2="BackgroundImageFix" result="shape"/>
<feColorMatrix in="SourceAlpha" type="matrix" values="0 0 0 0 0 0 0 0 0 0 0 0 0 0 0 0 0 0 127 0" result="hardAlpha"/>
<feOffset dy="1.35164"/>
<feGaussianBlur stdDeviation="0.675821"/>
<feComposite in2="hardAlpha" operator="arithmetic" k2="-1" k3="1"/>
<feColorMatrix type="matrix" values="0 0 0 0 1 0 0 0 0 1 0 0 0 0 1 0 0 0 0.25 0"/>
<feBlend mode="normal" in2="shape" result="effect1_innerShadow_13_10274"/>
</filter>
<filter id="filter1_f_13_10274" x="376.01" y="81.1916" width="73.3205" height="53.3086" filterUnits="userSpaceOnUse" color-interpolation-filters="sRGB">
<feFlood flood-opacity="0" result="BackgroundImageFix"/>
<feBlend mode="normal" in="SourceGraphic" in2="BackgroundImageFix" result="shape"/>
<feGaussianBlur stdDeviation="0.623639" result="effect1_foregroundBlur_13_10274"/>
</filter>
<filter id="filter2_f_13_10274" x="0.672299" y="30.0906" width="345.019" height="188.027" filterUnits="userSpaceOnUse" color-interpolation-filters="sRGB">
<feFlood flood-opacity="0" result="BackgroundImageFix"/>
<feBlend mode="normal" in="SourceGraphic" in2="BackgroundImageFix" result="shape"/>
<feGaussianBlur stdDeviation="3.1182" result="effect1_foregroundBlur_13_10274"/>
</filter>
<filter id="filter3_f_13_10274" x="318.429" y="78.9615" width="38.9578" height="38.9578" filterUnits="userSpaceOnUse" color-interpolation-filters="sRGB">
<feFlood flood-opacity="0" result="BackgroundImageFix"/>
<feBlend mode="normal" in="SourceGraphic" in2="BackgroundImageFix" result="shape"/>
<feGaussianBlur stdDeviation="4.04279" result="effect1_foregroundBlur_13_10274"/>
</filter>
<filter id="filter4_f_13_10274" x="322.839" y="83.3719" width="30.1372" height="30.1372" filterUnits="userSpaceOnUse" color-interpolation-filters="sRGB">
<feFlood flood-opacity="0" result="BackgroundImageFix"/>
<feBlend mode="normal" in="SourceGraphic" in2="BackgroundImageFix" result="shape"/>
<feGaussianBlur stdDeviation="1.83763" result="effect1_foregroundBlur_13_10274"/>
</filter>
<linearGradient id="paint0_linear_13_10274" x1="531.691" y1="47.9478" x2="531.691" y2="471.629" gradientUnits="userSpaceOnUse">
<stop stop-color="white"/>
<stop offset="1" stop-color="white" stop-opacity="0"/>
</linearGradient>
<linearGradient id="paint1_linear_13_10274" x1="320.278" y1="147.803" x2="407.899" y2="102.9" gradientUnits="userSpaceOnUse">
<stop stop-color="white" stop-opacity="0"/>
<stop offset="0.425" stop-color="white"/>
<stop offset="1" stop-color="white" stop-opacity="0"/>
</linearGradient>
<linearGradient id="paint2_linear_13_10274" x1="297.464" y1="37.4183" x2="192.104" y2="37.4183" gradientUnits="userSpaceOnUse">
<stop stop-color="#C2C2C3"/>
<stop offset="1" stop-color="white" stop-opacity="0"/>
</linearGradient>
<linearGradient id="paint3_linear_13_10274" x1="254.217" y1="55.5039" x2="10.4952" y2="55.5039" gradientUnits="userSpaceOnUse">
<stop stop-color="white"/>
<stop offset="1" stop-color="#FD366E" stop-opacity="0"/>
</linearGradient>
<linearGradient id="paint4_linear_13_10274" x1="338.944" y1="100.406" x2="195.574" y2="100.406" gradientUnits="userSpaceOnUse">
<stop stop-color="white"/>
<stop offset="1" stop-color="white" stop-opacity="0"/>
</linearGradient>
<linearGradient id="paint5_linear_13_10274" x1="179.065" y1="100.406" x2="91.7097" y2="100.406" gradientUnits="userSpaceOnUse">
<stop stop-color="white"/>
<stop offset="1" stop-color="white" stop-opacity="0"/>
</linearGradient>
<linearGradient id="paint6_linear_13_10274" x1="251.883" y1="141.566" x2="150.332" y2="141.566" gradientUnits="userSpaceOnUse">
<stop stop-color="white"/>
<stop offset="1" stop-color="white" stop-opacity="0"/>
</linearGradient>
<linearGradient id="paint7_linear_13_10274" x1="236.921" y1="156.307" x2="-6.80093" y2="156.307" gradientUnits="userSpaceOnUse">
<stop stop-color="white"/>
<stop offset="1" stop-color="#FD366E" stop-opacity="0"/>
</linearGradient>
<linearGradient id="paint8_linear_13_10274" x1="317.306" y1="210.79" x2="264.684" y2="210.79" gradientUnits="userSpaceOnUse">
<stop stop-color="white"/>
<stop offset="1" stop-color="#FD366E" stop-opacity="0"/>
</linearGradient>
<linearGradient id="paint9_linear_13_10274" x1="297.402" y1="192.704" x2="223.663" y2="192.704" gradientUnits="userSpaceOnUse">
<stop stop-color="white"/>
<stop offset="1" stop-color="white" stop-opacity="0"/>
</linearGradient>
<linearGradient id="paint10_linear_13_10274" x1="297.464" y1="37.4183" x2="192.104" y2="37.4183" gradientUnits="userSpaceOnUse">
<stop stop-color="#C2C2C3"/>
<stop offset="1" stop-color="white" stop-opacity="0"/>
</linearGradient>
<linearGradient id="paint11_linear_13_10274" x1="254.217" y1="55.5039" x2="10.4952" y2="55.5039" gradientUnits="userSpaceOnUse">
<stop stop-color="white"/>
<stop offset="1" stop-color="#FD366E" stop-opacity="0"/>
</linearGradient>
<linearGradient id="paint12_linear_13_10274" x1="338.944" y1="100.406" x2="195.574" y2="100.406" gradientUnits="userSpaceOnUse">
<stop stop-color="white"/>
<stop offset="1" stop-color="white" stop-opacity="0"/>
</linearGradient>
<linearGradient id="paint13_linear_13_10274" x1="179.065" y1="100.406" x2="91.7097" y2="100.406" gradientUnits="userSpaceOnUse">
<stop stop-color="white"/>
<stop offset="1" stop-color="white" stop-opacity="0"/>
</linearGradient>
<linearGradient id="paint14_linear_13_10274" x1="251.883" y1="141.566" x2="150.332" y2="141.566" gradientUnits="userSpaceOnUse">
<stop stop-color="white"/>
<stop offset="1" stop-color="white" stop-opacity="0"/>
</linearGradient>
<linearGradient id="paint15_linear_13_10274" x1="236.921" y1="156.307" x2="-6.80093" y2="156.307" gradientUnits="userSpaceOnUse">
<stop stop-color="white"/>
<stop offset="1" stop-color="#FD366E" stop-opacity="0"/>
</linearGradient>
<linearGradient id="paint16_linear_13_10274" x1="317.306" y1="210.79" x2="264.684" y2="210.79" gradientUnits="userSpaceOnUse">
<stop stop-color="white"/>
<stop offset="1" stop-color="#FD366E" stop-opacity="0"/>
</linearGradient>
<linearGradient id="paint17_linear_13_10274" x1="297.402" y1="192.704" x2="223.663" y2="192.704" gradientUnits="userSpaceOnUse">
<stop stop-color="white"/>
<stop offset="1" stop-color="white" stop-opacity="0"/>
</linearGradient>
<radialGradient id="paint18_radial_13_10274" cx="0" cy="0" r="1" gradientUnits="userSpaceOnUse" gradientTransform="translate(337.908 98.4404) rotate(90) scale(11.3933)">
<stop stop-color="white"/>
<stop offset="1" stop-color="white" stop-opacity="0"/>
</radialGradient>
<radialGradient id="paint19_radial_13_10274" cx="0" cy="0" r="1" gradientUnits="userSpaceOnUse" gradientTransform="translate(337.906 98.4401) rotate(90) scale(6.24795)">
<stop stop-color="white"/>
<stop offset="1" stop-color="white" stop-opacity="0"/>
</radialGradient>
<linearGradient id="paint20_linear_13_10274" x1="525.767" y1="210.79" x2="525.767" y2="401" gradientUnits="userSpaceOnUse">
<stop stop-color="#19191C" stop-opacity="0"/>
<stop offset="1" stop-color="#19191C"/>
</linearGradient>
<linearGradient id="paint21_linear_13_10274" x1="719.095" y1="401" x2="719.095" y2="596.823" gradientUnits="userSpaceOnUse">
<stop stop-color="#19191C" stop-opacity="0"/>
<stop offset="0.909146" stop-color="#19191C"/>
</linearGradient>
</defs>
</svg>
