<svg xmlns="http://www.w3.org/2000/svg" width="613" height="286" fill="none" viewBox="0 0 613 286"><g filter="url(#filter0_i_13_10274)"><path fill="#fff" fill-opacity=".03" d="M338.363 50.7974C338.363 40.4386 338.363 35.2592 340.379 31.3027C342.152 27.8225 344.982 24.993 348.462 23.2197C352.419 21.2037 357.598 21.2037 367.957 21.2037H725.019V401H338.363V50.7974Z"/><path stroke="url(#paint0_linear_13_10274)" stroke-opacity=".15" stroke-width="2.625" d="M339.676 50.7974C339.676 45.5963 339.677 41.7745 339.923 38.7561C340.169 35.753 340.651 33.661 341.549 31.8987C343.196 28.6655 345.825 26.0368 349.058 24.3893C350.82 23.4914 352.912 23.0095 355.915 22.7641C358.934 22.5175 362.756 22.5165 367.957 22.5165H723.707V399.687H339.676V50.7974Z"/><path stroke="url(#paint1_linear_13_10274)" stroke-width="2.625" d="M339.676 50.7974C339.676 45.5963 339.677 41.7745 339.923 38.7561C340.169 35.753 340.651 33.661 341.549 31.8987C343.196 28.6655 345.825 26.0368 349.058 24.3893C350.82 23.4914 352.912 23.0095 355.915 22.7641C358.934 22.5175 362.756 22.5165 367.957 22.5165H723.707V399.687H339.676V50.7974Z"/><path fill="#fff" d="M405.087 98.0236V103.655L380.204 119.174L377.257 115.114L400.372 100.839L377.257 86.6297L379.942 82.4388L405.087 98.0236ZM415.342 128.407H448.083V133.253H415.342V128.407Z"/><g filter="url(#filter1_f_13_10274)" opacity=".5"><path fill="#fff" d="M405.087 98.0236V103.655L380.204 119.174L377.257 115.114L400.372 100.839L377.257 86.6297L379.942 82.4388L405.087 98.0236ZM415.342 128.407H448.083V133.253H415.342V128.407Z"/></g></g><path stroke="url(#paint2_linear_13_10274)" stroke-linecap="round" stroke-width="2.183" d="M198.502 37.4183H297.037"/><path stroke="url(#paint3_linear_13_10274)" stroke-linecap="round" stroke-width="2.183" d="M25.2961 55.5039L253.231 55.5039"/><path stroke="url(#paint4_linear_13_10274)" stroke-linecap="round" stroke-width="2.183" d="M204.281 100.406L338.363 100.406"/><path stroke="url(#paint5_linear_13_10274)" stroke-linecap="round" stroke-width="2.183" d="M97.0146 100.406L178.711 100.406"/><path stroke="url(#paint6_linear_13_10274)" stroke-linecap="round" stroke-width="2.183" d="M156.499 141.566L251.472 141.566"/><path stroke="url(#paint7_linear_13_10274)" stroke-linecap="round" stroke-width="2.183" d="M8 156.307L235.934 156.307"/><path stroke="url(#paint8_linear_13_10274)" stroke-linecap="round" stroke-width="2.183" d="M267.88 210.79L317.093 210.79"/><path stroke="url(#paint9_linear_13_10274)" stroke-linecap="round" stroke-width="2.183" d="M228.141 192.704L297.104 192.704"/><g style="mix-blend-mode:screen" filter="url(#filter2_f_13_10274)"><path stroke="url(#paint10_linear_13_10274)" stroke-linecap="round" stroke-width="2.183" d="M198.502 37.4183H297.037"/><path stroke="url(#paint11_linear_13_10274)" stroke-linecap="round" stroke-width="2.183" d="M25.2961 55.5039L253.231 55.5039"/><path stroke="url(#paint12_linear_13_10274)" stroke-linecap="round" stroke-width="2.183" d="M204.281 100.406L338.363 100.406"/><path stroke="url(#paint13_linear_13_10274)" stroke-linecap="round" stroke-width="2.183" d="M97.0146 100.406L178.711 100.406"/><path stroke="url(#paint14_linear_13_10274)" stroke-linecap="round" stroke-width="2.183" d="M156.499 141.566L251.472 141.566"/><path stroke="url(#paint15_linear_13_10274)" stroke-linecap="round" stroke-width="2.183" d="M8 156.307L235.934 156.307"/><path stroke="url(#paint16_linear_13_10274)" stroke-linecap="round" stroke-width="2.183" d="M267.88 210.79L317.093 210.79"/><path stroke="url(#paint17_linear_13_10274)" stroke-linecap="round" stroke-width="2.183" d="M228.141 192.704L297.104 192.704"/></g><g filter="url(#filter3_f_13_10274)"><g style="mix-blend-mode:screen" filter="url(#filter4_f_13_10274)"><circle cx="337.908" cy="98.44" r="11.393" fill="url(#paint18_radial_13_10274)" fill-opacity=".5" transform="rotate(90 337.908 98.4404)"/></g><g style="mix-blend-mode:screen"><circle cx="337.906" cy="98.44" r="6.248" fill="url(#paint19_radial_13_10274)" transform="rotate(90 337.906 98.4401)"/></g></g><rect width="398.505" height="190.21" x="326.514" y="210.79" fill="url(#paint20_linear_13_10274)"/><rect width="379.796" height="195.823" x="529.197" y="401" fill="url(#paint21_linear_13_10274)" transform="rotate(-90 529.197 401)"/><defs><filter id="filter0_i_13_10274" width="386.656" height="381.148" x="338.363" y="21.204" color-interpolation-filters="sRGB" filterUnits="userSpaceOnUse"><feFlood flood-opacity="0" result="BackgroundImageFix"/><feBlend in="SourceGraphic" in2="BackgroundImageFix" mode="normal" result="shape"/><feColorMatrix in="SourceAlpha" result="hardAlpha" type="matrix" values="0 0 0 0 0 0 0 0 0 0 0 0 0 0 0 0 0 0 127 0"/><feOffset dy="1.352"/><feGaussianBlur stdDeviation=".676"/><feComposite in2="hardAlpha" k2="-1" k3="1" operator="arithmetic"/><feColorMatrix type="matrix" values="0 0 0 0 1 0 0 0 0 1 0 0 0 0 1 0 0 0 0.25 0"/><feBlend in2="shape" mode="normal" result="effect1_innerShadow_13_10274"/></filter><filter id="filter1_f_13_10274" width="73.32" height="53.309" x="376.01" y="81.192" color-interpolation-filters="sRGB" filterUnits="userSpaceOnUse"><feFlood flood-opacity="0" result="BackgroundImageFix"/><feBlend in="SourceGraphic" in2="BackgroundImageFix" mode="normal" result="shape"/><feGaussianBlur result="effect1_foregroundBlur_13_10274" stdDeviation=".624"/></filter><filter id="filter2_f_13_10274" width="345.019" height="188.027" x=".672" y="30.091" color-interpolation-filters="sRGB" filterUnits="userSpaceOnUse"><feFlood flood-opacity="0" result="BackgroundImageFix"/><feBlend in="SourceGraphic" in2="BackgroundImageFix" mode="normal" result="shape"/><feGaussianBlur result="effect1_foregroundBlur_13_10274" stdDeviation="3.118"/></filter><filter id="filter3_f_13_10274" width="38.958" height="38.958" x="318.429" y="78.962" color-interpolation-filters="sRGB" filterUnits="userSpaceOnUse"><feFlood flood-opacity="0" result="BackgroundImageFix"/><feBlend in="SourceGraphic" in2="BackgroundImageFix" mode="normal" result="shape"/><feGaussianBlur result="effect1_foregroundBlur_13_10274" stdDeviation="4.043"/></filter><filter id="filter4_f_13_10274" width="30.137" height="30.137" x="322.839" y="83.372" color-interpolation-filters="sRGB" filterUnits="userSpaceOnUse"><feFlood flood-opacity="0" result="BackgroundImageFix"/><feBlend in="SourceGraphic" in2="BackgroundImageFix" mode="normal" result="shape"/><feGaussianBlur result="effect1_foregroundBlur_13_10274" stdDeviation="1.838"/></filter><linearGradient id="paint0_linear_13_10274" x1="531.691" x2="531.691" y1="47.948" y2="471.629" gradientUnits="userSpaceOnUse"><stop stop-color="#fff"/><stop offset="1" stop-color="#fff" stop-opacity="0"/></linearGradient><linearGradient id="paint1_linear_13_10274" x1="320.278" x2="407.899" y1="147.803" y2="102.9" gradientUnits="userSpaceOnUse"><stop stop-color="#fff" stop-opacity="0"/><stop offset=".425" stop-color="#fff"/><stop offset="1" stop-color="#fff" stop-opacity="0"/></linearGradient><linearGradient id="paint2_linear_13_10274" x1="297.464" x2="192.104" y1="37.418" y2="37.418" gradientUnits="userSpaceOnUse"><stop stop-color="#C2C2C3"/><stop offset="1" stop-color="#fff" stop-opacity="0"/></linearGradient><linearGradient id="paint3_linear_13_10274" x1="254.217" x2="10.495" y1="55.504" y2="55.504" gradientUnits="userSpaceOnUse"><stop stop-color="#fff"/><stop offset="1" stop-color="#FD366E" stop-opacity="0"/></linearGradient><linearGradient id="paint4_linear_13_10274" x1="338.944" x2="195.574" y1="100.406" y2="100.406" gradientUnits="userSpaceOnUse"><stop stop-color="#fff"/><stop offset="1" stop-color="#fff" stop-opacity="0"/></linearGradient><linearGradient id="paint5_linear_13_10274" x1="179.065" x2="91.71" y1="100.406" y2="100.406" gradientUnits="userSpaceOnUse"><stop stop-color="#fff"/><stop offset="1" stop-color="#fff" stop-opacity="0"/></linearGradient><linearGradient id="paint6_linear_13_10274" x1="251.883" x2="150.332" y1="141.566" y2="141.566" gradientUnits="userSpaceOnUse"><stop stop-color="#fff"/><stop offset="1" stop-color="#fff" stop-opacity="0"/></linearGradient><linearGradient id="paint7_linear_13_10274" x1="236.921" x2="-6.801" y1="156.307" y2="156.307" gradientUnits="userSpaceOnUse"><stop stop-color="#fff"/><stop offset="1" stop-color="#FD366E" stop-opacity="0"/></linearGradient><linearGradient id="paint8_linear_13_10274" x1="317.306" x2="264.684" y1="210.79" y2="210.79" gradientUnits="userSpaceOnUse"><stop stop-color="#fff"/><stop offset="1" stop-color="#FD366E" stop-opacity="0"/></linearGradient><linearGradient id="paint9_linear_13_10274" x1="297.402" x2="223.663" y1="192.704" y2="192.704" gradientUnits="userSpaceOnUse"><stop stop-color="#fff"/><stop offset="1" stop-color="#fff" stop-opacity="0"/></linearGradient><linearGradient id="paint10_linear_13_10274" x1="297.464" x2="192.104" y1="37.418" y2="37.418" gradientUnits="userSpaceOnUse"><stop stop-color="#C2C2C3"/><stop offset="1" stop-color="#fff" stop-opacity="0"/></linearGradient><linearGradient id="paint11_linear_13_10274" x1="254.217" x2="10.495" y1="55.504" y2="55.504" gradientUnits="userSpaceOnUse"><stop stop-color="#fff"/><stop offset="1" stop-color="#FD366E" stop-opacity="0"/></linearGradient><linearGradient id="paint12_linear_13_10274" x1="338.944" x2="195.574" y1="100.406" y2="100.406" gradientUnits="userSpaceOnUse"><stop stop-color="#fff"/><stop offset="1" stop-color="#fff" stop-opacity="0"/></linearGradient><linearGradient id="paint13_linear_13_10274" x1="179.065" x2="91.71" y1="100.406" y2="100.406" gradientUnits="userSpaceOnUse"><stop stop-color="#fff"/><stop offset="1" stop-color="#fff" stop-opacity="0"/></linearGradient><linearGradient id="paint14_linear_13_10274" x1="251.883" x2="150.332" y1="141.566" y2="141.566" gradientUnits="userSpaceOnUse"><stop stop-color="#fff"/><stop offset="1" stop-color="#fff" stop-opacity="0"/></linearGradient><linearGradient id="paint15_linear_13_10274" x1="236.921" x2="-6.801" y1="156.307" y2="156.307" gradientUnits="userSpaceOnUse"><stop stop-color="#fff"/><stop offset="1" stop-color="#FD366E" stop-opacity="0"/></linearGradient><linearGradient id="paint16_linear_13_10274" x1="317.306" x2="264.684" y1="210.79" y2="210.79" gradientUnits="userSpaceOnUse"><stop stop-color="#fff"/><stop offset="1" stop-color="#FD366E" stop-opacity="0"/></linearGradient><linearGradient id="paint17_linear_13_10274" x1="297.402" x2="223.663" y1="192.704" y2="192.704" gradientUnits="userSpaceOnUse"><stop stop-color="#fff"/><stop offset="1" stop-color="#fff" stop-opacity="0"/></linearGradient><radialGradient id="paint18_radial_13_10274" cx="0" cy="0" r="1" gradientTransform="translate(337.908 98.4404) rotate(90) scale(11.3933)" gradientUnits="userSpaceOnUse"><stop stop-color="#fff"/><stop offset="1" stop-color="#fff" stop-opacity="0"/></radialGradient><radialGradient id="paint19_radial_13_10274" cx="0" cy="0" r="1" gradientTransform="translate(337.906 98.4401) rotate(90) scale(6.24795)" gradientUnits="userSpaceOnUse"><stop stop-color="#fff"/><stop offset="1" stop-color="#fff" stop-opacity="0"/></radialGradient><linearGradient id="paint20_linear_13_10274" x1="525.767" x2="525.767" y1="210.79" y2="401" gradientUnits="userSpaceOnUse"><stop stop-color="#19191C" stop-opacity="0"/><stop offset="1" stop-color="#19191C"/></linearGradient><linearGradient id="paint21_linear_13_10274" x1="719.095" x2="719.095" y1="401" y2="596.823" gradientUnits="userSpaceOnUse"><stop stop-color="#19191C" stop-opacity="0"/><stop offset=".909" stop-color="#19191C"/></linearGradient></defs></svg>