<svg viewBox="0 0 290 290" xmlns="http://www.w3.org/2000/svg" fill="none" width="20" height="20"><path d="M131.533 9.86499C134.257 9.86499 136.466 7.65664 136.466 4.9325C136.466 2.20835 134.257 0 131.533 0C128.809 0 126.601 2.20835 126.601 4.9325C126.601 7.65664 128.809 9.86499 131.533 9.86499Z" fill="#EDEDF0"/><path d="M182.502 8.22083C184.318 8.22083 185.791 6.74859 185.791 4.9325C185.791 3.1164 184.318 1.64417 182.502 1.64417C180.686 1.64417 179.214 3.1164 179.214 4.9325C179.214 6.74859 180.686 8.22083 182.502 8.22083Z" fill="#EDEDF0"/><path d="M60.8341 31.2391C60.8341 33.9633 58.6258 36.1716 55.9016 36.1716C53.1775 36.1716 50.9691 33.9633 50.9691 31.2391C50.9691 28.515 53.1775 26.3066 55.9016 26.3066C58.6258 26.3066 60.8341 28.515 60.8341 31.2391Z" fill="#EDEDF0"/><path fill-rule="evenodd" clip-rule="evenodd" d="M67.4108 82.2083C67.4108 74.0358 74.0358 67.4108 82.2083 67.4108C75.8519 67.4108 70.6991 62.258 70.6991 55.9016C70.6991 49.5453 75.8519 44.3925 82.2083 44.3925C88.5646 44.3925 93.7174 49.5453 93.7174 55.9016C93.7174 48.6372 99.6064 42.7483 106.871 42.7483C111.743 42.7483 115.996 45.3974 118.27 49.3338C119.75 46.3492 122.209 43.9356 125.226 42.5118C122.093 40.4553 120.024 36.9109 120.024 32.8833C120.024 26.527 125.177 21.3742 131.533 21.3742C137.89 21.3742 143.042 26.527 143.042 32.8833C143.042 36.9109 140.974 40.4553 137.841 42.5118C140.784 43.9008 143.196 46.2317 144.687 49.1158C146.177 46.2318 148.589 43.9008 151.533 42.5118C148.4 40.4553 146.331 36.9109 146.331 32.8833C146.331 26.527 151.484 21.3742 157.84 21.3742C164.196 21.3742 169.349 26.527 169.349 32.8833C169.349 36.9109 167.28 40.4553 164.147 42.5118C167.164 43.9356 169.623 46.3492 171.104 49.3338C173.377 45.3974 177.63 42.7483 182.502 42.7483C189.767 42.7483 195.656 48.6372 195.656 55.9016C195.656 59.7516 194.002 63.2152 191.365 65.6206C193.948 66.7462 196.217 68.4573 198.004 70.5863C200.524 68.5976 203.706 67.4108 207.165 67.4108C215.337 67.4108 221.962 74.0358 221.962 82.2083C221.962 86.0629 220.489 89.5732 218.074 92.2066C220.124 94.1838 221.708 96.6409 222.646 99.3969C225.02 95.9654 228.983 93.7174 233.471 93.7174C240.736 93.7174 246.625 99.6064 246.625 106.871C246.625 111.743 243.976 115.996 240.039 118.27C243.586 120.029 246.326 123.169 247.558 126.987C249.32 122.892 253.392 120.024 258.134 120.024C264.49 120.024 269.643 125.177 269.643 131.533C269.643 137.89 264.49 143.042 258.134 143.042C253.392 143.042 249.32 140.175 247.558 136.079C246.352 139.819 243.698 142.908 240.257 144.687C243.698 146.465 246.352 149.554 247.558 153.294C249.32 149.198 253.392 146.331 258.134 146.331C264.49 146.331 269.643 151.484 269.643 157.84C269.643 164.196 264.49 169.349 258.134 169.349C253.392 169.349 249.32 166.482 247.558 162.386C246.326 166.204 243.586 169.344 240.039 171.104C243.976 173.377 246.625 177.63 246.625 182.502C246.625 189.767 240.736 195.656 233.471 195.656C228.983 195.656 225.02 193.408 222.646 189.976C221.708 192.732 220.124 195.189 218.074 197.167C220.489 199.8 221.962 203.31 221.962 207.165C221.962 215.337 215.337 221.962 207.165 221.962C203.706 221.962 200.524 220.775 198.004 218.787C196.217 220.916 193.948 222.627 191.365 223.753C194.002 226.158 195.656 229.622 195.656 233.471C195.656 240.736 189.767 246.625 182.502 246.625C177.63 246.625 173.377 243.976 171.104 240.039C169.623 243.024 167.164 245.438 164.147 246.861C167.28 248.918 169.349 252.462 169.349 256.49C169.349 262.846 164.196 267.999 157.84 267.999C151.484 267.999 146.331 262.846 146.331 256.49C146.331 252.462 148.4 248.918 151.533 246.861C148.589 245.472 146.177 243.141 144.687 240.257C143.196 243.141 140.784 245.472 137.841 246.861C140.974 248.918 143.042 252.462 143.042 256.49C143.042 262.846 137.89 267.999 131.533 267.999C125.177 267.999 120.024 262.846 120.024 256.49C120.024 252.462 122.093 248.918 125.226 246.861C122.209 245.438 119.75 243.024 118.27 240.039C115.996 243.976 111.743 246.625 106.871 246.625C99.6064 246.625 93.7174 240.736 93.7174 233.471C93.7174 229.622 95.3715 226.158 98.0077 223.753C95.425 222.627 93.156 220.916 91.3687 218.787C88.8491 220.775 85.6673 221.962 82.2083 221.962C74.0358 221.962 67.4108 215.337 67.4108 207.165C67.4108 203.706 68.5976 200.524 70.5863 198.004C68.4573 196.217 66.7462 193.948 65.6206 191.365C63.2152 194.002 59.7516 195.656 55.9016 195.656C48.6372 195.656 42.7483 189.767 42.7483 182.502C42.7483 177.63 45.3974 173.377 49.3338 171.104C45.7872 169.344 43.0469 166.204 41.8156 162.386C40.0529 166.482 35.9809 169.349 31.2391 169.349C24.8828 169.349 19.73 164.196 19.73 157.84C19.73 151.484 24.8828 146.331 31.2391 146.331C35.9809 146.331 40.0529 149.198 41.8156 153.294C43.0215 149.554 45.675 146.465 49.1158 144.687C45.675 142.908 43.0215 139.819 41.8156 136.079C40.0529 140.175 35.9809 143.042 31.2391 143.042C24.8828 143.042 19.73 137.89 19.73 131.533C19.73 125.177 24.8828 120.024 31.2391 120.024C35.9809 120.024 40.0529 122.892 41.8156 126.987C43.0469 123.169 45.7872 120.029 49.3338 118.27C45.3974 115.996 42.7483 111.743 42.7483 106.871C42.7483 99.6064 48.6372 93.7174 55.9016 93.7174C59.7516 93.7174 63.2152 95.3715 65.6206 98.0077C66.7462 95.4249 68.4573 93.156 70.5863 91.3687C68.5976 88.8491 67.4108 85.6673 67.4108 82.2083ZM82.2083 67.4108C88.5646 67.4108 93.7174 62.258 93.7174 55.9016C93.7174 59.7516 95.3715 63.2152 98.0077 65.6206C95.4249 66.7462 93.156 68.4573 91.3687 70.5863C88.8491 68.5976 85.6673 67.4108 82.2083 67.4108ZM144.687 205.521C178.284 205.521 205.521 178.284 205.521 144.687C205.521 111.089 178.284 83.8524 144.687 83.8524C111.089 83.8524 83.8524 111.089 83.8524 144.687C83.8524 178.284 111.089 205.521 144.687 205.521Z" fill="#EDEDF0"/><path d="M67.4108 82.2083C67.4108 75.8519 62.258 70.6991 55.9016 70.6991C49.5453 70.6991 44.3925 75.8519 44.3925 82.2083C44.3925 88.5646 49.5453 93.7174 55.9016 93.7174C62.258 93.7174 67.4108 88.5646 67.4108 82.2083Z" fill="#EDEDF0"/><path d="M55.9016 195.656C49.5453 195.656 44.3925 200.809 44.3925 207.165C44.3925 213.521 49.5453 218.674 55.9016 218.674C62.258 218.674 67.4108 213.521 67.4108 207.165C67.4108 200.809 62.258 195.656 55.9016 195.656Z" fill="#EDEDF0"/><path d="M82.2083 221.962C88.5646 221.962 93.7174 227.115 93.7174 233.471C93.7174 239.828 88.5646 244.981 82.2083 244.981C75.8519 244.981 70.6991 239.828 70.6991 233.471C70.6991 227.115 75.8519 221.962 82.2083 221.962Z" fill="#EDEDF0"/><path d="M195.656 233.471C195.656 227.115 200.809 221.962 207.165 221.962C213.521 221.962 218.674 227.115 218.674 233.471C218.674 239.828 213.521 244.981 207.165 244.981C200.809 244.981 195.656 239.828 195.656 233.471Z" fill="#EDEDF0"/><path d="M221.962 207.165C221.962 213.521 227.115 218.674 233.471 218.674C239.828 218.674 244.981 213.521 244.981 207.165C244.981 200.809 239.828 195.656 233.471 195.656C227.115 195.656 221.962 200.809 221.962 207.165Z" fill="#EDEDF0"/><path d="M233.471 93.7174C227.115 93.7174 221.962 88.5646 221.962 82.2083C221.962 75.8519 227.115 70.6991 233.471 70.6991C239.828 70.6991 244.981 75.8519 244.981 82.2083C244.981 88.5646 239.828 93.7174 233.471 93.7174Z" fill="#EDEDF0"/><path d="M207.165 67.4108C213.521 67.4108 218.674 62.258 218.674 55.9016C218.674 49.5453 213.521 44.3925 207.165 44.3925C200.809 44.3925 195.656 49.5453 195.656 55.9016C195.656 62.258 200.809 67.4108 207.165 67.4108Z" fill="#EDEDF0"/><path d="M55.9016 64.1225C60.4419 64.1225 64.1225 60.4419 64.1225 55.9016C64.1225 51.3614 60.4419 47.6808 55.9016 47.6808C51.3614 47.6808 47.6808 51.3614 47.6808 55.9016C47.6808 60.4419 51.3614 64.1225 55.9016 64.1225Z" fill="#EDEDF0"/><path d="M55.9016 225.251C60.4419 225.251 64.1225 228.931 64.1225 233.471C64.1225 238.012 60.4419 241.692 55.9016 241.692C51.3614 241.692 47.6808 238.012 47.6808 233.471C47.6808 228.931 51.3614 225.251 55.9016 225.251Z" fill="#EDEDF0"/><path d="M60.8341 258.134C60.8341 260.858 58.6258 263.066 55.9016 263.066C53.1775 263.066 50.9691 260.858 50.9691 258.134C50.9691 255.41 53.1775 253.201 55.9016 253.201C58.6258 253.201 60.8341 255.41 60.8341 258.134Z" fill="#EDEDF0"/><path d="M238.404 31.2391C238.404 33.9633 236.196 36.1716 233.471 36.1716C230.747 36.1716 228.539 33.9633 228.539 31.2391C228.539 28.515 230.747 26.3066 233.471 26.3066C236.196 26.3066 238.404 28.515 238.404 31.2391Z" fill="#EDEDF0"/><path d="M238.404 258.134C238.404 260.858 236.196 263.066 233.471 263.066C230.747 263.066 228.539 260.858 228.539 258.134C228.539 255.41 230.747 253.201 233.471 253.201C236.196 253.201 238.404 255.41 238.404 258.134Z" fill="#EDEDF0"/><path d="M182.502 281.152C184.318 281.152 185.791 282.625 185.791 284.441C185.791 286.257 184.318 287.729 182.502 287.729C180.686 287.729 179.214 286.257 179.214 284.441C179.214 282.625 180.686 281.152 182.502 281.152Z" fill="#EDEDF0"/><path d="M106.871 8.22083C108.687 8.22083 110.159 6.74859 110.159 4.9325C110.159 3.1164 108.687 1.64417 106.871 1.64417C105.055 1.64417 103.582 3.1164 103.582 4.9325C103.582 6.74859 105.055 8.22083 106.871 8.22083Z" fill="#EDEDF0"/><path d="M106.871 281.152C108.687 281.152 110.159 282.625 110.159 284.441C110.159 286.257 108.687 287.729 106.871 287.729C105.055 287.729 103.582 286.257 103.582 284.441C103.582 282.625 105.055 281.152 106.871 281.152Z" fill="#EDEDF0"/><path d="M136.466 284.441C136.466 281.716 134.257 279.508 131.533 279.508C128.809 279.508 126.601 281.716 126.601 284.441C126.601 287.165 128.809 289.373 131.533 289.373C134.257 289.373 136.466 287.165 136.466 284.441Z" fill="#EDEDF0"/><path d="M162.772 4.9325C162.772 7.65664 160.564 9.86499 157.84 9.86499C155.116 9.86499 152.907 7.65664 152.907 4.9325C152.907 2.20835 155.116 0 157.84 0C160.564 0 162.772 2.20835 162.772 4.9325Z" fill="#EDEDF0"/><path d="M4.9325 103.582C6.74859 103.582 8.22083 105.055 8.22083 106.871C8.22083 108.687 6.74859 110.159 4.9325 110.159C3.1164 110.159 1.64417 108.687 1.64417 106.871C1.64417 105.055 3.1164 103.582 4.9325 103.582Z" fill="#EDEDF0"/><path d="M4.9325 179.214C6.74859 179.214 8.22083 180.686 8.22083 182.502C8.22083 184.318 6.74859 185.791 4.9325 185.791C3.1164 185.791 1.64417 184.318 1.64417 182.502C1.64417 180.686 3.1164 179.214 4.9325 179.214Z" fill="#EDEDF0"/><path d="M4.9325 152.907C7.65664 152.907 9.86499 155.116 9.86499 157.84C9.86499 160.564 7.65664 162.772 4.9325 162.772C2.20835 162.772 0 160.564 0 157.84C0 155.116 2.20835 152.907 4.9325 152.907Z" fill="#EDEDF0"/><path d="M4.9325 126.601C7.65664 126.601 9.86499 128.809 9.86499 131.533C9.86499 134.257 7.65664 136.466 4.9325 136.466C2.20835 136.466 0 134.257 0 131.533C0 128.809 2.20835 126.601 4.9325 126.601Z" fill="#EDEDF0"/><path d="M284.441 103.582C286.257 103.582 287.729 105.055 287.729 106.871C287.729 108.687 286.257 110.159 284.441 110.159C282.625 110.159 281.152 108.687 281.152 106.871C281.152 105.055 282.625 103.582 284.441 103.582Z" fill="#EDEDF0"/><path d="M284.441 179.214C286.257 179.214 287.729 180.686 287.729 182.502C287.729 184.318 286.257 185.791 284.441 185.791C282.625 185.791 281.152 184.318 281.152 182.502C281.152 180.686 282.625 179.214 284.441 179.214Z" fill="#EDEDF0"/><path d="M284.441 152.907C287.165 152.907 289.373 155.116 289.373 157.84C289.373 160.564 287.165 162.772 284.441 162.772C281.716 162.772 279.508 160.564 279.508 157.84C279.508 155.116 281.716 152.907 284.441 152.907Z" fill="#EDEDF0"/><path d="M284.441 126.601C287.165 126.601 289.373 128.809 289.373 131.533C289.373 134.257 287.165 136.466 284.441 136.466C281.716 136.466 279.508 134.257 279.508 131.533C279.508 128.809 281.716 126.601 284.441 126.601Z" fill="#EDEDF0"/><path d="M162.772 284.441C162.772 281.716 160.564 279.508 157.84 279.508C155.116 279.508 152.907 281.716 152.907 284.441C152.907 287.165 155.116 289.373 157.84 289.373C160.564 289.373 162.772 287.165 162.772 284.441Z" fill="#EDEDF0"/><path d="M37.8158 82.2083C37.8158 85.8405 34.8713 88.7849 31.2391 88.7849C27.607 88.7849 24.6625 85.8405 24.6625 82.2083C24.6625 78.5761 27.607 75.6316 31.2391 75.6316C34.8713 75.6316 37.8158 78.5761 37.8158 82.2083Z" fill="#EDEDF0"/><path d="M37.8158 207.165C37.8158 203.533 34.8713 200.588 31.2391 200.588C27.607 200.588 24.6625 203.533 24.6625 207.165C24.6625 210.797 27.607 213.742 31.2391 213.742C34.8713 213.742 37.8158 210.797 37.8158 207.165Z" fill="#EDEDF0"/><path d="M264.711 82.2083C264.711 85.8405 261.766 88.7849 258.134 88.7849C254.502 88.7849 251.557 85.8405 251.557 82.2083C251.557 78.5761 254.502 75.6316 258.134 75.6316C261.766 75.6316 264.711 78.5761 264.711 82.2083Z" fill="#EDEDF0"/><path d="M264.711 207.165C264.711 203.533 261.766 200.588 258.134 200.588C254.502 200.588 251.557 203.533 251.557 207.165C251.557 210.797 254.502 213.742 258.134 213.742C261.766 213.742 264.711 210.797 264.711 207.165Z" fill="#EDEDF0"/><path d="M263.066 55.9016C263.066 58.6258 260.858 60.8341 258.134 60.8341C255.41 60.8341 253.201 58.6258 253.201 55.9016C253.201 53.1775 255.41 50.9691 258.134 50.9691C260.858 50.9691 263.066 53.1775 263.066 55.9016Z" fill="#EDEDF0"/><path d="M263.066 233.471C263.066 230.747 260.858 228.539 258.134 228.539C255.41 228.539 253.201 230.747 253.201 233.471C253.201 236.196 255.41 238.404 258.134 238.404C260.858 238.404 263.066 236.196 263.066 233.471Z" fill="#EDEDF0"/><path d="M36.1716 55.9016C36.1716 58.6258 33.9633 60.8341 31.2391 60.8341C28.515 60.8341 26.3066 58.6258 26.3066 55.9016C26.3066 53.1775 28.515 50.9691 31.2391 50.9691C33.9633 50.9691 36.1716 53.1775 36.1716 55.9016Z" fill="#EDEDF0"/><path d="M36.1716 233.471C36.1716 230.747 33.9633 228.539 31.2391 228.539C28.515 228.539 26.3066 230.747 26.3066 233.471C26.3066 236.196 28.515 238.404 31.2391 238.404C33.9633 238.404 36.1716 236.196 36.1716 233.471Z" fill="#EDEDF0"/><path d="M241.692 55.9016C241.692 60.4419 238.012 64.1225 233.471 64.1225C228.931 64.1225 225.251 60.4419 225.251 55.9016C225.251 51.3614 228.931 47.6808 233.471 47.6808C238.012 47.6808 241.692 51.3614 241.692 55.9016Z" fill="#EDEDF0"/><path d="M241.692 233.471C241.692 228.931 238.012 225.251 233.471 225.251C228.931 225.251 225.251 228.931 225.251 233.471C225.251 238.012 228.931 241.692 233.471 241.692C238.012 241.692 241.692 238.012 241.692 233.471Z" fill="#EDEDF0"/><path d="M116.736 31.2391C116.736 36.6874 112.319 41.1041 106.871 41.1041C101.422 41.1041 97.0058 36.6874 97.0058 31.2391C97.0058 25.7909 101.422 21.3742 106.871 21.3742C112.319 21.3742 116.736 25.7909 116.736 31.2391Z" fill="#EDEDF0"/><path d="M116.736 258.134C116.736 252.686 112.319 248.269 106.871 248.269C101.422 248.269 97.0058 252.686 97.0058 258.134C97.0058 263.582 101.422 267.999 106.871 267.999C112.319 267.999 116.736 263.582 116.736 258.134Z" fill="#EDEDF0"/><path d="M31.2391 116.736C36.6874 116.736 41.1041 112.319 41.1041 106.871C41.1041 101.422 36.6874 97.0058 31.2391 97.0058C25.7909 97.0058 21.3742 101.422 21.3742 106.871C21.3742 112.319 25.7909 116.736 31.2391 116.736Z" fill="#EDEDF0"/><path d="M258.134 116.736C263.582 116.736 267.999 112.319 267.999 106.871C267.999 101.422 263.582 97.0058 258.134 97.0058C252.686 97.0058 248.269 101.422 248.269 106.871C248.269 112.319 252.686 116.736 258.134 116.736Z" fill="#EDEDF0"/><path d="M88.7849 31.2391C88.7849 34.8713 85.8405 37.8158 82.2083 37.8158C78.5761 37.8158 75.6316 34.8713 75.6316 31.2391C75.6316 27.607 78.5761 24.6625 82.2083 24.6625C85.8405 24.6625 88.7849 27.607 88.7849 31.2391Z" fill="#EDEDF0"/><path d="M88.7849 258.134C88.7849 254.502 85.8405 251.557 82.2083 251.557C78.5761 251.557 75.6316 254.502 75.6316 258.134C75.6316 261.766 78.5761 264.711 82.2083 264.711C85.8405 264.711 88.7849 261.766 88.7849 258.134Z" fill="#EDEDF0"/><path d="M213.742 31.2391C213.742 34.8713 210.797 37.8158 207.165 37.8158C203.533 37.8158 200.588 34.8713 200.588 31.2391C200.588 27.607 203.533 24.6625 207.165 24.6625C210.797 24.6625 213.742 27.607 213.742 31.2391Z" fill="#EDEDF0"/><path d="M213.742 258.134C213.742 254.502 210.797 251.557 207.165 251.557C203.533 251.557 200.588 254.502 200.588 258.134C200.588 261.766 203.533 264.711 207.165 264.711C210.797 264.711 213.742 261.766 213.742 258.134Z" fill="#EDEDF0"/><path d="M192.367 31.2391C192.367 36.6874 187.951 41.1041 182.502 41.1041C177.054 41.1041 172.637 36.6874 172.637 31.2391C172.637 25.7909 177.054 21.3742 182.502 21.3742C187.951 21.3742 192.367 25.7909 192.367 31.2391Z" fill="#EDEDF0"/><path d="M192.367 258.134C192.367 252.686 187.951 248.269 182.502 248.269C177.054 248.269 172.637 252.686 172.637 258.134C172.637 263.582 177.054 267.999 182.502 267.999C187.951 267.999 192.367 263.582 192.367 258.134Z" fill="#EDEDF0"/><path d="M31.2391 192.367C36.6874 192.367 41.1041 187.951 41.1041 182.502C41.1041 177.054 36.6874 172.637 31.2391 172.637C25.7909 172.637 21.3742 177.054 21.3742 182.502C21.3742 187.951 25.7909 192.367 31.2391 192.367Z" fill="#EDEDF0"/><path d="M258.134 192.367C263.582 192.367 267.999 187.951 267.999 182.502C267.999 177.054 263.582 172.637 258.134 172.637C252.686 172.637 248.269 177.054 248.269 182.502C248.269 187.951 252.686 192.367 258.134 192.367Z" fill="#EDEDF0"/></svg>
