<svg width="20" height="20" viewBox="0 0 20 20" fill="none" xmlns="http://www.w3.org/2000/svg">
<path d="M6.89 8.385V6.55C6.89 6.385 6.945 6.25 7.075 6.18L10.515 4.255C10.955 4.05 11.485 3.93 12.035 3.93C14.24 3.93 15.595 5.625 15.595 7.4C15.595 7.52 15.595 7.655 15.575 7.79L12.015 5.79C11.815 5.685 11.615 5.685 11.415 5.79L6.89 8.385ZM14.86 14.03V10.095C14.86 9.86 14.745 9.685 14.545 9.58L10.205 7.195L11.685 6.3C11.785 6.235 11.87 6.235 11.97 6.3L15.275 8.21C16.185 8.66 16.815 9.86 16.815 11C16.815 12.255 16.04 13.36 14.86 14.03ZM5.965 10.64L4.64 9.86C4.54 9.795 4.485 9.7 4.485 9.57V5.79C4.485 3.815 5.785 2.495 7.695 2.495C8.435 2.495 9.12 2.73 9.705 3.145L6.35 5.12C6.15 5.22 6.055 5.405 6.055 5.64V10.64ZM8.885 12.41L6.59 11.36V8.825L8.885 7.775L11.18 8.825V11.36L8.885 12.41ZM10.115 17.315C9.395 17.315 8.725 17.105 8.155 16.74L11.46 14.76C11.66 14.66 11.765 14.49 11.765 14.265V9.28L13.155 10.115C13.255 10.18 13.295 10.27 13.295 10.385V14.265C13.295 16.165 11.885 17.315 10.115 17.315ZM6.14 13.96L2.745 12.02C1.9 11.565 1.285 10.295 1.285 9.03C1.285 7.48 2.065 6.38 3.275 5.835V9.7C3.275 9.935 3.39 10.095 3.59 10.195L7.765 12.42L6.38 13.96C6.26 14.025 6.155 14.025 6.04 13.96H6.14ZM5.955 16.33C4.065 16.33 2.615 14.91 2.615 13.13C2.615 12.985 2.635 12.84 2.65 12.695L5.975 14.575C6.175 14.675 6.375 14.675 6.575 14.575L11.18 12.41V14.095C11.18 14.245 11.125 14.35 10.995 14.415L7.505 16.27C7.125 16.49 6.565 16.655 5.955 16.655V16.33ZM10.115 18.315C12.2 18.315 13.885 16.875 14.285 14.86C16.115 14.365 17.365 12.605 17.365 11C17.365 9.825 16.875 8.69 15.95 7.925C16.035 7.545 16.09 7.165 16.09 6.785C16.09 4.32 14.12 2.405 11.755 2.405C11.375 2.405 10.995 2.46 10.64 2.575C9.775 1.98 8.715 1.625 7.6 1.625C5.515 1.625 3.83 3.065 3.43 5.08C1.6 5.58 0.365 7.165 0.365 9.03C0.365 10.23 0.86 11.405 1.785 12.27C1.695 12.635 1.64 13 1.64 13.435C1.64 15.87 3.61 17.785 6.0 17.785C6.38 17.785 6.76 17.73 7.115 17.595C8.0 18.19 9.08 18.545 10.175 18.545L10.115 18.315Z" fill="#EDEDF0"/>
</svg>