<svg width="18" height="18" viewBox="0 0 18 18" fill="none" xmlns="http://www.w3.org/2000/svg">
<path d="M3.66995 14.3279L0.592268 11.2494C0.227389 10.8739 0 10.3449 0 9.82789C0 9.58854 0.134847 9.21431 0.236643 8.99877L3.07768 3.07855L3.66995 14.3279Z" fill="#01579B"/>
<path d="M14.2066 3.67088L11.1289 0.592418C10.8605 0.322656 10.3 0 9.82672 0C9.41954 0 9.02029 0.0819865 8.76117 0.236703L3.0791 3.07846L14.2066 3.67088Z" fill="#40C4FF"/>
<path d="M7.33889 17.9986H14.7978V14.8011L9.23336 13.0251L4.14355 14.8011L7.33889 17.9986Z" fill="#40C4FF"/>
<path d="M3.0791 12.6709C3.0791 13.6204 3.19808 13.8544 3.67137 14.3292L4.14465 14.8026H14.7989L9.59008 8.88236L3.0791 3.07983V12.6709Z" fill="#29B6F6"/>
<path d="M12.5491 3.07855H3.07812L14.7979 14.8013H17.9945V7.45954L14.2069 3.67097C13.6755 3.13674 13.2022 3.07855 12.5491 3.07855Z" fill="#01579B"/>
<path opacity="0.2" d="M3.78938 14.4469C3.31609 13.9709 3.19711 13.5027 3.19711 12.671V3.19756L3.07812 3.07855V12.6696C3.07945 13.5027 3.07945 13.7328 3.78938 14.4469L4.145 14.8026L3.78938 14.4469Z" fill="white"/>
<path opacity="0.2" d="M17.8763 7.34186V14.6836H14.6797L14.7987 14.8013H17.9953V7.46087L17.8763 7.34186Z" fill="#263238"/>
<path opacity="0.2" d="M14.2066 3.67097C13.6196 3.08384 13.1384 3.07855 12.4311 3.07855H3.0791L3.19808 3.19756H12.4324C12.7841 3.19756 13.6765 3.13806 14.2066 3.67097Z" fill="white"/>
<path opacity="0.2" d="M17.8771 7.34176L14.2071 3.67088L11.1294 0.592418C10.8611 0.322656 10.3005 0 9.82725 0C9.42007 0 9.02082 0.0819865 8.7617 0.236703L3.07963 3.07846L0.238596 8.99868C0.1368 9.21422 0.00195312 9.58845 0.00195312 9.8278C0.00195312 10.3448 0.229342 10.8738 0.594221 11.2493L3.43129 14.066C3.49871 14.1493 3.57803 14.2339 3.67322 14.3278L3.7922 14.4468L4.14783 14.8025L7.2255 17.881L7.34449 18H14.6844H14.8034V14.8025H18V14.7946V7.46077L17.8771 7.34176Z" fill="url(#paint0_radial_17356_630)"/>
<defs>
<radialGradient id="paint0_radial_17356_630" cx="0" cy="0" r="1" gradientUnits="userSpaceOnUse" gradientTransform="translate(9.00032 8.99952) scale(8.99837 9.00066)">
<stop stop-color="white" stop-opacity="0.1"/>
<stop offset="1" stop-color="white" stop-opacity="0"/>
</radialGradient>
</defs>
</svg>
