<svg width="18" height="18" viewBox="0 0 18 18" fill="none" xmlns="http://www.w3.org/2000/svg">
<rect width="18" height="18" rx="1" fill="#FFCA28"/>
<path d="M11.3158 15.1646L12.6178 14.2415C12.7198 14.585 13.366 15.4007 14.1822 15.4007C14.9984 15.4007 15.3773 14.9231 15.3773 14.6064C15.3773 13.7435 14.5439 13.4393 14.1436 13.2931C14.0783 13.2693 14.0246 13.2497 13.9879 13.2326C13.969 13.2238 13.9405 13.2121 13.9039 13.1971C13.4587 13.0149 11.8162 12.3425 11.8162 10.3936C11.8162 8.24687 13.7498 8 14.187 8C14.4731 8 15.8486 8.03757 16.5336 9.41682L15.2704 10.3614C14.9935 9.76029 14.5334 9.56172 14.2502 9.56172C13.5506 9.56172 13.4049 10.1112 13.4049 10.3614C13.4049 11.0632 14.1649 11.3778 14.8067 11.6434C14.9746 11.7129 15.1345 11.7791 15.2704 11.8479C15.97 12.2021 17 12.7817 17 14.6064C17 15.5204 16.2845 17 14.4834 17C12.064 17 11.4227 15.4436 11.3158 15.1646Z" fill="#3E3E3E"/>
<path d="M5 15.3479L6.35706 14.4253C6.46339 14.7686 6.87659 15.4015 7.47612 15.4015C8.07566 15.4015 8.38252 14.7417 8.38252 14.4253V8.20301H10.0515V14.4253C10.0785 15.2835 9.63425 17 7.67361 17C5.87095 17 5.12153 15.8521 5 15.3479Z" fill="#3E3E3E"/>
</svg>
