<svg width="24" height="24" viewBox="0 0 24 24" fill="none" xmlns="http://www.w3.org/2000/svg">
<g clip-path="url(#clip0_17358_3170)">
<path d="M24 0H0V24H24V0Z" fill="#512BD4"/>
<path d="M4.27766 15.3333C4.10796 15.3333 3.96372 15.2768 3.84493 15.1637C3.72614 15.0477 3.66675 14.9099 3.66675 14.7505C3.66675 14.588 3.72614 14.4489 3.84493 14.3329C3.96372 14.2169 4.10796 14.1589 4.27766 14.1589C4.45019 14.1589 4.59584 14.2169 4.71463 14.3329C4.83625 14.4489 4.89706 14.588 4.89706 14.7505C4.89706 14.9099 4.83625 15.0477 4.71463 15.1637C4.59584 15.2768 4.45019 15.3333 4.27766 15.3333Z" fill="white"/>
<path d="M11.0614 15.2376H9.95838L7.05232 10.6529C6.9788 10.5369 6.91796 10.4166 6.8699 10.2919H6.84443C6.86706 10.4253 6.87838 10.7109 6.87838 11.1488V15.2376H5.90259V9H7.07775L9.88627 13.4759C10.0051 13.6616 10.0814 13.7892 10.1154 13.8587H10.1323C10.1041 13.6935 10.0899 13.4136 10.0899 13.0192V9H11.0614V15.2376Z" fill="white"/>
<path d="M15.8131 15.2376H12.3979V9H15.6774V9.87868H13.4077V11.6447H15.4992V12.519H13.4077V14.3633H15.8131V15.2376Z" fill="white"/>
<path d="M20.6668 9.87868H18.9189V15.2376H17.9092V9.87868H16.1655V9H20.6668V9.87868Z" fill="white"/>
</g>
<defs>
<clipPath id="clip0_17358_3170">
<rect width="24" height="24" fill="white"/>
</clipPath>
</defs>
</svg>
