<svg width="17" height="18" viewBox="0 0 17 18" fill="none" xmlns="http://www.w3.org/2000/svg">
<path d="M9.26663 0.192035C8.80252 -0.0645882 8.19749 -0.0634343 7.73298 0.192035C5.40657 1.45431 3.08015 2.71698 0.753334 3.97868C0.300567 4.21287 -0.00481318 4.69092 5.74265e-05 5.18711V12.8139C-0.00321189 13.3198 0.317915 13.8025 0.782357 14.0334C1.4507 14.383 2.10002 14.7681 2.78044 15.0944C3.56641 15.4741 4.54974 15.5581 5.34532 15.1621C5.99111 14.8339 6.27794 14.104 6.27714 13.4331C6.28234 10.9161 6.27794 8.39897 6.27914 5.88191C6.29449 5.77004 6.20908 5.65048 6.08498 5.65317C5.78768 5.64856 5.48997 5.65048 5.19266 5.6524C5.0803 5.64195 4.97068 5.73369 4.97915 5.84473C4.97515 8.34556 4.97995 10.8472 4.97675 13.3484C4.98322 13.6944 4.7455 14.0269 4.40636 14.1438C3.62309 14.4137 1.38745 12.9865 1.38745 12.9865C1.3054 12.9491 1.2533 12.8617 1.26134 12.7748C1.26134 10.2585 1.26175 7.74212 1.26134 5.22622C1.25007 5.1248 1.31365 5.03344 1.4084 4.99203C3.72714 3.73719 6.04468 2.4792 8.36343 1.22359C8.44394 1.17074 8.55623 1.1709 8.63658 1.22398C10.9553 2.4792 13.2733 3.73603 15.5924 4.99094C15.6875 5.03229 15.7483 5.12518 15.7387 5.22622C15.7383 7.74212 15.7395 10.2585 15.7379 12.7744C15.7447 12.8634 15.698 12.9497 15.6134 12.9888C13.3163 14.2368 10.993 15.4446 8.71673 16.7289C8.61742 16.7849 8.50493 16.8484 8.39365 16.7867C7.79503 16.4611 7.20369 16.1229 6.60707 15.7942C6.54222 15.7544 6.45962 15.7374 6.39196 15.7819C6.12442 15.9205 5.87287 16.0327 5.5657 16.1523C5.13424 16.3202 5.2032 16.3889 5.59225 16.6117C6.29001 17 6.98891 17.3867 7.68661 17.7753C8.14592 18.0571 8.76308 18.0772 9.2372 17.8167C11.564 16.556 13.89 15.2938 16.2173 14.0331C16.6805 13.8009 17.0032 13.3201 17 12.8139V5.18711C17.0044 4.70098 16.7107 4.23146 16.2716 3.99381C13.9371 2.72538 11.6015 1.4597 9.26663 0.192035Z" fill="#8CC84B"/>
<path d="M12.7774 5.9183C11.8642 5.43794 10.7777 5.41237 9.76291 5.47513C9.02978 5.54635 8.25868 5.74527 7.72451 6.26198C7.17667 6.78144 7.05744 7.62022 7.31765 8.29834C7.50414 8.77748 7.97352 9.0891 8.45891 9.25392C9.08422 9.47094 9.74092 9.53805 10.3979 9.60517C10.9971 9.6664 11.5964 9.72765 12.1723 9.90269C12.4076 9.97936 12.6816 10.0966 12.7536 10.3482C12.8201 10.6463 12.7472 10.9927 12.5011 11.1998C11.7193 11.8081 9.54478 11.7149 8.77237 11.2361C8.46011 11.0321 8.32554 10.671 8.27083 10.327C8.26476 10.2197 8.17695 10.1214 8.05852 10.1295C7.76201 10.126 7.4655 10.1268 7.169 10.1291C7.06551 10.1206 6.95796 10.193 6.95229 10.2968C6.89137 11.8728 8.36358 12.5599 9.74483 12.7112C10.534 12.7851 11.3405 12.7809 12.1176 12.6144C12.7017 12.4836 13.2874 12.2429 13.6895 11.8005C14.1854 11.2628 14.2829 10.4624 14.0605 9.79274C13.8905 9.29309 13.4046 8.97256 12.9079 8.80767C12.2325 8.57997 11.4321 8.45759 10.8204 8.4003C9.93119 8.31702 8.87456 8.35104 8.62291 7.77657C8.52256 7.47578 8.60797 7.10229 8.88913 6.91728C9.63301 6.42117 11.1469 6.48705 11.9173 6.85766C12.2711 7.03184 12.4761 7.3895 12.5607 7.75061C12.5763 7.85671 12.6489 7.96736 12.7738 7.96274C13.0683 7.96851 13.3628 7.96428 13.6572 7.96466C13.7584 7.97165 13.8691 7.91549 13.8889 7.81369C13.8764 7.05896 13.4844 6.2864 12.7774 5.9183Z" fill="#8CC84B"/>
</svg>
