<svg width="18" height="18" viewBox="0 0 18 18" fill="none" xmlns="http://www.w3.org/2000/svg">
<path fill-rule="evenodd" clip-rule="evenodd" d="M7.08196 0C5.66956 0 4.52459 1.10863 4.52459 2.47619V4.19047H8.95081V4.66666H2.55737C1.14498 4.66666 0 5.77529 0 7.14285L2.79466e-07 10.8571C2.79466e-07 12.2247 1.14498 13.3333 2.55737 13.3333H4.03278V11.2381C4.03278 9.87052 5.17776 8.7619 6.59016 8.7619H11.3115C12.5066 8.7619 13.4754 7.82383 13.4754 6.66666V2.47619C13.4754 1.10863 12.3304 0 10.918 0H7.08196ZM6.4918 3.04762C6.98071 3.04762 7.37704 2.66386 7.37704 2.19047C7.37704 1.71709 6.98071 1.33333 6.4918 1.33333C6.00289 1.33333 5.60655 1.71709 5.60655 2.19047C5.60655 2.66386 6.00289 3.04762 6.4918 3.04762Z" fill="url(#paint0_linear_17356_569)"/>
<path fill-rule="evenodd" clip-rule="evenodd" d="M10.9176 17.9999C12.33 17.9999 13.475 16.8913 13.475 15.5237V13.8094H9.04876L9.04876 13.3332L15.4422 13.3332C16.8546 13.3332 17.9996 12.2246 17.9996 10.857V7.14275C17.9996 5.77519 16.8546 4.66657 15.4422 4.66657L13.9668 4.66656V6.7618C13.9668 8.12936 12.8218 9.23799 11.4094 9.23799L6.6881 9.23799C5.493 9.23799 4.52417 10.1761 4.52417 11.3332L4.52417 15.5237C4.52417 16.8913 5.66915 17.9999 7.08154 17.9999H10.9176ZM11.5078 14.9523C11.0189 14.9523 10.6225 15.336 10.6225 15.8094C10.6225 16.2828 11.0189 16.6666 11.5078 16.6666C11.9967 16.6666 12.393 16.2828 12.393 15.8094C12.393 15.336 11.9967 14.9523 11.5078 14.9523Z" fill="url(#paint1_linear_17356_569)"/>
<defs>
<linearGradient id="paint0_linear_17356_569" x1="6.7377" y1="0" x2="6.7377" y2="13.3333" gradientUnits="userSpaceOnUse">
<stop stop-color="#327EBD"/>
<stop offset="1" stop-color="#1565A7"/>
</linearGradient>
<linearGradient id="paint1_linear_17356_569" x1="11.2619" y1="4.66656" x2="11.2619" y2="17.9999" gradientUnits="userSpaceOnUse">
<stop stop-color="#FFDA4B"/>
<stop offset="1" stop-color="#F9C600"/>
</linearGradient>
</defs>
</svg>
