<svg width="28" height="28" viewBox="0 0 28 28" fill="none" xmlns="http://www.w3.org/2000/svg">
<path d="M14.214 7.55996C16.2259 7.55996 17.583 8.41162 18.3568 9.12333L21.3806 6.22999C19.5235 4.53833 17.1068 3.5 14.214 3.5C10.0235 3.5 6.40446 5.85664 4.64258 9.2866L8.10684 11.9233C8.97597 9.39164 11.3807 7.55996 14.214 7.55996" fill="#EDEDF0"/>
<path d="M8.11898 16.0767C7.89279 15.4234 7.76189 14.7233 7.76189 14C7.76189 13.2767 7.89279 12.5767 8.10708 11.9234L8.10109 11.7842L4.75239 9.2356L4.64282 9.28667C3.91667 10.71 3.5 12.3084 3.5 14C3.5 15.6917 3.91667 17.29 4.64282 18.7133L8.11898 16.0767" fill="#EDEDF0"/>
<path d="M14.214 24.5C17.1068 24.5 19.5353 23.5667 21.3091 21.9567L17.9282 19.39C17.0235 20.0083 15.8092 20.44 14.214 20.44C11.3807 20.44 8.97594 18.6083 8.11872 16.0767L7.99308 16.0871L4.68583 18.5955L4.64258 18.7133C6.40445 22.1433 10.0235 24.5 14.214 24.5Z" fill="#EDEDF0"/>
<path d="M24.5005 14.2331C24.5005 13.3697 24.429 12.7397 24.2743 12.0864H14.2148V15.983H20.1195C20.0005 16.9514 19.3577 18.4097 17.9291 19.3897L17.9091 19.5201L21.0897 21.9348L21.31 21.9564C23.3338 20.1247 24.5005 17.4297 24.5005 14.2331" fill="#EDEDF0"/>
</svg>
