<svg xmlns="http://www.w3.org/2000/svg" width="687" height="331" fill="none" viewBox="0 0 687 331"><g filter="url(#filter0_bi_11_21896)"><path fill="#fff" fill-opacity=".03" d="M227.197 115.846C227.197 107.724 227.197 103.662 228.71 100.427C230.043 97.5775 232.184 95.1819 234.866 93.5377C237.911 91.6714 241.947 91.2161 250.019 90.3057L668.491 43.1042C678.382 41.9885 683.327 41.4307 687.156 43.0162C690.519 44.4087 693.309 46.9018 695.069 50.0871C697.074 53.714 697.074 58.691 697.074 68.6449V336.017C697.074 345.783 697.074 350.666 695.119 354.258C693.401 357.414 690.674 359.902 687.376 361.326C683.621 362.946 678.758 362.502 669.032 361.613L250.56 323.366C242.313 322.612 238.189 322.235 235.07 320.387C232.324 318.759 230.125 316.35 228.754 313.467C227.197 310.193 227.197 306.052 227.197 297.77V115.846Z"/><path stroke="url(#paint0_linear_11_21896)" stroke-opacity=".15" stroke-width="2.28" d="M228.337 115.846C228.337 111.767 228.338 108.773 228.523 106.392C228.707 104.026 229.068 102.354 229.743 100.91C230.981 98.2629 232.97 96.0373 235.462 94.5098C236.821 93.677 238.442 93.1308 240.773 92.6829C243.118 92.2323 246.093 91.8959 250.146 91.4387L668.618 44.2372C673.584 43.6771 677.236 43.2661 680.128 43.187C683.008 43.1082 685.018 43.3648 686.72 44.0696C689.844 45.3633 692.436 47.6794 694.072 50.6386C694.963 52.2509 695.443 54.2197 695.688 57.0902C695.933 59.9723 695.934 63.6481 695.934 68.6449V336.017C695.934 340.92 695.933 344.526 695.694 347.357C695.455 350.176 694.987 352.116 694.117 353.713C692.521 356.644 689.988 358.956 686.924 360.279C685.254 361 683.28 361.289 680.451 361.27C677.609 361.251 674.018 360.924 669.136 360.478L250.664 322.231C246.522 321.852 243.481 321.573 241.084 321.163C238.701 320.755 237.043 320.231 235.652 319.406C233.1 317.894 231.057 315.656 229.783 312.977C229.089 311.517 228.717 309.818 228.528 307.407C228.338 304.982 228.337 301.929 228.337 297.77V115.846Z"/></g><circle cx="246.028" cy="109.304" r="5.482" fill="url(#paint1_linear_11_21896)" fill-opacity=".2"/><circle cx="264.711" cy="107.605" r="5.482" fill="url(#paint2_linear_11_21896)" fill-opacity=".2"/><circle cx="283.396" cy="105.907" r="5.482" fill="url(#paint3_linear_11_21896)" fill-opacity=".2"/><path fill="url(#paint4_linear_11_21896)" d="M657.756 362.702C657.387 363.2 657.492 363.903 657.99 364.273C658.488 364.642 659.192 364.537 659.561 364.039L657.756 362.702ZM681.565 330.56L657.756 362.702L659.561 364.039L683.369 331.897L681.565 330.56Z"/><path fill="url(#paint5_linear_11_21896)" d="M635.237 362.586C634.804 363.03 634.813 363.741 635.257 364.174C635.701 364.607 636.412 364.598 636.845 364.154L635.237 362.586ZM681.664 314.969L635.237 362.586L636.845 364.154L683.272 316.537L681.664 314.969Z"/><path fill="url(#paint6_linear_11_21896)" d="M607.931 362.517C607.459 362.92 607.404 363.628 607.807 364.1C608.21 364.571 608.918 364.627 609.39 364.224L607.931 362.517ZM681.737 299.424L607.931 362.517L609.39 364.224L683.197 301.131L681.737 299.424Z"/><path fill="url(#paint7_linear_11_21896)" d="M615.157 333.149C614.649 333.505 614.527 334.206 614.884 334.713C615.241 335.22 615.941 335.342 616.448 334.986L615.157 333.149ZM681.821 286.264L615.157 333.149L616.448 334.986L683.113 288.101L681.821 286.264Z"/><path fill="url(#paint8_linear_11_21896)" d="M529.535 362.395C528.997 362.702 528.809 363.388 529.116 363.926C529.423 364.465 530.109 364.653 530.648 364.346L529.535 362.395ZM681.911 275.493L529.535 362.395L530.648 364.346L683.023 277.444L681.911 275.493Z"/><path fill="url(#paint9_linear_11_21896)" d="M471.291 362.351C470.729 362.612 470.484 363.279 470.745 363.842C471.005 364.405 471.673 364.65 472.235 364.389L471.291 362.351ZM643.454 282.592L471.291 362.351L472.235 364.389L644.398 284.63L643.454 282.592Z"/><path fill="url(#paint10_linear_11_21896)" d="M659.378 275.214C658.816 275.475 658.571 276.142 658.832 276.705C659.092 277.268 659.76 277.513 660.322 277.252L659.378 275.214ZM681.997 264.736L659.378 275.214L660.322 277.252L682.941 266.773L681.997 264.736Z"/><path fill="url(#paint11_linear_11_21896)" d="M390.422 362.318C389.84 362.534 389.544 363.18 389.76 363.761C389.976 364.343 390.622 364.639 391.204 364.423L390.422 362.318ZM682.078 253.988L390.422 362.318L391.204 364.423L682.86 256.093L682.078 253.988Z"/><path fill="url(#paint12_linear_11_21896)" d="M352.421 334.366C351.823 334.529 351.47 335.146 351.634 335.744C351.797 336.343 352.414 336.695 353.012 336.532L352.421 334.366ZM682.172 244.434L352.421 334.366L353.012 336.532L682.762 246.6L682.172 244.434Z"/><path fill="url(#paint13_linear_11_21896)" d="M154.209 330.737C153.598 330.846 153.191 331.429 153.299 332.039C153.408 332.65 153.991 333.057 154.601 332.949L154.209 330.737ZM495.375 270.173L154.209 330.737L154.601 332.949L495.767 272.384L495.375 270.173Z"/><path fill="url(#paint14_linear_11_21896)" d="M9.72566 290.565C9.10811 290.621 8.65337 291.168 8.70996 291.785C8.76656 292.403 9.31305 292.858 9.93059 292.801L9.72566 290.565ZM682.368 228.923L9.72566 290.565L9.93059 292.801L682.573 231.16L682.368 228.923Z"/><path fill="url(#paint15_linear_11_21896)" d="M371.771 221.776C371.151 221.776 370.648 222.279 370.648 222.899C370.648 223.519 371.151 224.022 371.771 224.022L371.771 221.776ZM575.328 221.776L371.771 221.776L371.771 224.022L575.328 224.022L575.328 221.776Z"/><path fill="url(#paint16_linear_11_21896)" d="M591.995 221.776C591.375 221.776 590.872 222.279 590.872 222.899C590.872 223.519 591.375 224.022 591.995 224.022L591.995 221.776ZM682.468 221.776L591.995 221.776L591.995 224.022L682.468 224.022L682.468 221.776Z"/><path fill="url(#paint17_linear_11_21896)" d="M429.001 190.829C428.383 190.777 427.839 191.235 427.787 191.853C427.735 192.471 428.194 193.014 428.811 193.067L429.001 190.829ZM682.563 212.257L429.001 190.829L428.811 193.067L682.374 214.494L682.563 212.257Z"/><path fill="url(#paint18_linear_11_21896)" d="M71.1739 158.537C70.5563 158.481 70.0102 158.936 69.954 159.554C69.8979 160.171 70.353 160.717 70.9706 160.774L71.1739 158.537ZM392.105 187.711L71.1739 158.537L70.9706 160.774L391.902 189.947L392.105 187.711Z"/><path fill="url(#paint19_linear_11_21896)" d="M289.821 135.964C289.21 135.857 288.628 136.265 288.52 136.876C288.413 137.486 288.821 138.069 289.431 138.176L289.821 135.964ZM682.664 205.127L289.821 135.964L289.431 138.176L682.274 207.339L682.664 205.127Z"/><path fill="url(#paint20_linear_11_21896)" d="M201.894 64.6982C201.297 64.5321 200.678 64.8819 200.512 65.4794C200.346 66.0769 200.695 66.6958 201.293 66.8619L201.894 64.6982ZM620.867 181.126L201.894 64.6982L201.293 66.8619L620.265 183.289L620.867 181.126Z"/><path fill="url(#paint21_linear_11_21896)" d="M638.716 185.995C638.118 185.831 637.501 186.184 637.338 186.782C637.174 187.381 637.527 187.998 638.125 188.161L638.716 185.995ZM682.762 198.007L638.716 185.995L638.125 188.161L682.172 200.174L682.762 198.007Z"/><path fill="url(#paint22_linear_11_21896)" d="M388.814 80.1823C388.231 79.97 387.587 80.2702 387.374 80.8529C387.162 81.4356 387.462 82.08 388.045 82.2923L388.814 80.1823ZM535.832 133.752L388.814 80.1823L388.045 82.2923L535.063 135.862L535.832 133.752Z"/><path fill="url(#paint23_linear_11_21896)" d="M567.383 145.247C566.8 145.034 566.156 145.335 565.944 145.917C565.731 146.5 566.031 147.144 566.614 147.357L567.383 145.247ZM682.855 187.322L567.383 145.247L566.614 147.357L682.086 189.432L682.855 187.322Z"/><path fill="url(#paint24_linear_11_21896)" d="M330.09 10.5502C329.53 10.283 328.86 10.5201 328.593 11.0797C328.325 11.6393 328.563 12.3096 329.122 12.5767L330.09 10.5502ZM682.955 179.03L330.09 10.5502L329.122 12.5767L681.987 181.057L682.955 179.03Z"/><path fill="url(#paint25_linear_11_21896)" d="M534.243 80.2747C533.711 79.9557 533.022 80.1281 532.703 80.6598C532.384 81.1916 532.556 81.8813 533.088 82.2004L534.243 80.2747ZM683.047 169.557L534.243 80.2747L533.088 82.2004L681.892 171.483L683.047 169.557Z"/><path fill="url(#paint26_linear_11_21896)" d="M578.368 80.3295C577.867 79.9647 577.164 80.0756 576.8 80.5771C576.435 81.0786 576.546 81.7809 577.047 82.1456L578.368 80.3295ZM641.461 126.215L578.368 80.3295L577.047 82.1456L640.14 128.031L641.461 126.215Z"/><path fill="url(#paint27_linear_11_21896)" d="M660.214 139.851C659.713 139.486 659.01 139.597 658.646 140.099C658.281 140.6 658.392 141.302 658.893 141.667L660.214 139.851ZM683.13 156.517L660.214 139.851L658.893 141.667L681.809 158.333L683.13 156.517Z"/><path fill="url(#paint28_linear_11_21896)" d="M540.099 19.4464C539.63 19.0403 538.921 19.0909 538.515 19.5595C538.109 20.0281 538.159 20.7373 538.628 21.1434L540.099 19.4464ZM683.204 143.482L540.099 19.4464L538.628 21.1434L681.733 145.178L683.204 143.482Z"/><path fill="url(#paint29_linear_11_21896)" d="M636.835 80.4436C636.397 80.0051 635.686 80.0051 635.247 80.4436C634.809 80.8821 634.809 81.593 635.247 82.0315L636.835 80.4436ZM683.262 126.871L636.835 80.4436L635.247 82.0315L681.674 128.458L683.262 126.871Z"/><path fill="url(#paint30_linear_11_21896)" d="M659.521 80.5187C659.124 80.0423 658.416 79.978 657.94 80.375C657.463 80.772 657.399 81.48 657.796 81.9564L659.521 80.5187ZM683.33 109.089L659.521 80.5187L657.796 81.9564L681.605 110.527L683.33 109.089Z"/><g style="mix-blend-mode:screen" filter="url(#filter1_f_11_21896)"><path fill="url(#paint31_linear_11_21896)" d="M657.756 362.702C657.387 363.2 657.492 363.903 657.99 364.273C658.488 364.642 659.192 364.537 659.561 364.039L657.756 362.702ZM681.565 330.56L657.756 362.702L659.561 364.039L683.369 331.897L681.565 330.56Z"/><path fill="url(#paint32_linear_11_21896)" d="M635.237 362.586C634.804 363.03 634.813 363.741 635.257 364.174C635.701 364.607 636.412 364.598 636.845 364.154L635.237 362.586ZM681.664 314.969L635.237 362.586L636.845 364.154L683.272 316.537L681.664 314.969Z"/><path fill="url(#paint33_linear_11_21896)" d="M607.931 362.517C607.459 362.92 607.404 363.628 607.807 364.1C608.21 364.571 608.918 364.627 609.39 364.224L607.931 362.517ZM681.737 299.424L607.931 362.517L609.39 364.224L683.197 301.131L681.737 299.424Z"/><path fill="url(#paint34_linear_11_21896)" d="M615.157 333.149C614.649 333.505 614.527 334.206 614.884 334.713C615.241 335.22 615.941 335.342 616.448 334.986L615.157 333.149ZM681.821 286.264L615.157 333.149L616.448 334.986L683.113 288.101L681.821 286.264Z"/><path fill="url(#paint35_linear_11_21896)" d="M529.535 362.395C528.997 362.702 528.809 363.388 529.116 363.926C529.423 364.465 530.109 364.653 530.648 364.346L529.535 362.395ZM681.911 275.493L529.535 362.395L530.648 364.346L683.023 277.444L681.911 275.493Z"/><path fill="url(#paint36_linear_11_21896)" d="M471.291 362.351C470.729 362.612 470.484 363.279 470.745 363.842C471.005 364.405 471.673 364.65 472.235 364.389L471.291 362.351ZM643.454 282.592L471.291 362.351L472.235 364.389L644.398 284.63L643.454 282.592Z"/><path fill="url(#paint37_linear_11_21896)" d="M659.378 275.214C658.816 275.475 658.571 276.142 658.832 276.705C659.092 277.268 659.76 277.513 660.322 277.252L659.378 275.214ZM681.997 264.736L659.378 275.214L660.322 277.252L682.941 266.773L681.997 264.736Z"/><path fill="url(#paint38_linear_11_21896)" d="M390.422 362.318C389.84 362.534 389.544 363.18 389.76 363.761C389.976 364.343 390.622 364.639 391.204 364.423L390.422 362.318ZM682.078 253.988L390.422 362.318L391.204 364.423L682.86 256.093L682.078 253.988Z"/><path fill="url(#paint39_linear_11_21896)" d="M352.421 334.366C351.823 334.529 351.47 335.146 351.634 335.744C351.797 336.343 352.414 336.695 353.012 336.532L352.421 334.366ZM682.172 244.434L352.421 334.366L353.012 336.532L682.762 246.6L682.172 244.434Z"/><path fill="url(#paint40_linear_11_21896)" d="M154.209 330.737C153.598 330.846 153.191 331.429 153.299 332.039C153.408 332.65 153.991 333.057 154.601 332.949L154.209 330.737ZM495.375 270.173L154.209 330.737L154.601 332.949L495.767 272.384L495.375 270.173Z"/><path fill="url(#paint41_linear_11_21896)" d="M9.72566 290.565C9.10811 290.621 8.65337 291.168 8.70996 291.785C8.76656 292.403 9.31305 292.858 9.93059 292.801L9.72566 290.565ZM682.368 228.923L9.72566 290.565L9.93059 292.801L682.573 231.16L682.368 228.923Z"/><path fill="url(#paint42_linear_11_21896)" d="M371.771 221.776C371.151 221.776 370.648 222.279 370.648 222.899C370.648 223.519 371.151 224.022 371.771 224.022L371.771 221.776ZM575.328 221.776L371.771 221.776L371.771 224.022L575.328 224.022L575.328 221.776Z"/><path fill="url(#paint43_linear_11_21896)" d="M591.995 221.776C591.375 221.776 590.872 222.279 590.872 222.899C590.872 223.519 591.375 224.022 591.995 224.022L591.995 221.776ZM682.468 221.776L591.995 221.776L591.995 224.022L682.468 224.022L682.468 221.776Z"/><path fill="url(#paint44_linear_11_21896)" d="M429.001 190.829C428.383 190.777 427.839 191.235 427.787 191.853C427.735 192.471 428.194 193.014 428.811 193.067L429.001 190.829ZM682.563 212.257L429.001 190.829L428.811 193.067L682.374 214.494L682.563 212.257Z"/><path fill="url(#paint45_linear_11_21896)" d="M71.1739 158.537C70.5563 158.481 70.0102 158.936 69.954 159.554C69.8979 160.171 70.353 160.717 70.9706 160.774L71.1739 158.537ZM392.105 187.711L71.1739 158.537L70.9706 160.774L391.902 189.947L392.105 187.711Z"/><path fill="url(#paint46_linear_11_21896)" d="M289.821 135.964C289.21 135.857 288.628 136.265 288.52 136.876C288.413 137.486 288.821 138.069 289.431 138.176L289.821 135.964ZM682.664 205.127L289.821 135.964L289.431 138.176L682.274 207.339L682.664 205.127Z"/><path fill="url(#paint47_linear_11_21896)" d="M201.894 64.6982C201.297 64.5321 200.678 64.8819 200.512 65.4794C200.346 66.0769 200.695 66.6958 201.293 66.8619L201.894 64.6982ZM620.867 181.126L201.894 64.6982L201.293 66.8619L620.265 183.289L620.867 181.126Z"/><path fill="url(#paint48_linear_11_21896)" d="M638.716 185.995C638.118 185.831 637.501 186.184 637.338 186.782C637.174 187.381 637.527 187.998 638.125 188.161L638.716 185.995ZM682.762 198.007L638.716 185.995L638.125 188.161L682.172 200.174L682.762 198.007Z"/><path fill="url(#paint49_linear_11_21896)" d="M388.814 80.1823C388.231 79.97 387.587 80.2702 387.374 80.8529C387.162 81.4356 387.462 82.08 388.045 82.2923L388.814 80.1823ZM535.832 133.752L388.814 80.1823L388.045 82.2923L535.063 135.862L535.832 133.752Z"/><path fill="url(#paint50_linear_11_21896)" d="M567.383 145.247C566.8 145.034 566.156 145.335 565.944 145.917C565.731 146.5 566.031 147.144 566.614 147.357L567.383 145.247ZM682.855 187.322L567.383 145.247L566.614 147.357L682.086 189.432L682.855 187.322Z"/><path fill="url(#paint51_linear_11_21896)" d="M330.09 10.5502C329.53 10.283 328.86 10.5201 328.593 11.0797C328.325 11.6393 328.563 12.3096 329.122 12.5767L330.09 10.5502ZM682.955 179.03L330.09 10.5502L329.122 12.5767L681.987 181.057L682.955 179.03Z"/><path fill="url(#paint52_linear_11_21896)" d="M534.243 80.2747C533.711 79.9557 533.022 80.1281 532.703 80.6598C532.384 81.1916 532.556 81.8813 533.088 82.2004L534.243 80.2747ZM683.047 169.557L534.243 80.2747L533.088 82.2004L681.892 171.483L683.047 169.557Z"/><path fill="url(#paint53_linear_11_21896)" d="M578.368 80.3295C577.867 79.9647 577.164 80.0756 576.8 80.5771C576.435 81.0786 576.546 81.7809 577.047 82.1456L578.368 80.3295ZM641.461 126.215L578.368 80.3295L577.047 82.1456L640.14 128.031L641.461 126.215Z"/><path fill="url(#paint54_linear_11_21896)" d="M660.214 139.851C659.713 139.486 659.01 139.597 658.646 140.099C658.281 140.6 658.392 141.302 658.893 141.667L660.214 139.851ZM683.13 156.517L660.214 139.851L658.893 141.667L681.809 158.333L683.13 156.517Z"/><path fill="url(#paint55_linear_11_21896)" d="M540.099 19.4464C539.63 19.0403 538.921 19.0909 538.515 19.5595C538.109 20.0281 538.159 20.7373 538.628 21.1434L540.099 19.4464ZM683.204 143.482L540.099 19.4464L538.628 21.1434L681.733 145.178L683.204 143.482Z"/><path fill="url(#paint56_linear_11_21896)" d="M636.835 80.4436C636.397 80.0051 635.686 80.0051 635.247 80.4436C634.809 80.8821 634.809 81.593 635.247 82.0315L636.835 80.4436ZM683.262 126.871L636.835 80.4436L635.247 82.0315L681.674 128.458L683.262 126.871Z"/><path fill="url(#paint57_linear_11_21896)" d="M659.521 80.5187C659.124 80.0423 658.416 79.978 657.94 80.375C657.463 80.772 657.399 81.48 657.796 81.9564L659.521 80.5187ZM683.33 109.089L659.521 80.5187L657.796 81.9564L681.605 110.527L683.33 109.089Z"/></g><defs><filter id="filter0_bi_11_21896" width="697.907" height="548.407" x="113.182" y="-71.981" color-interpolation-filters="sRGB" filterUnits="userSpaceOnUse"><feFlood flood-opacity="0" result="BackgroundImageFix"/><feGaussianBlur in="BackgroundImageFix" stdDeviation="57.007"/><feComposite in2="SourceAlpha" operator="in" result="effect1_backgroundBlur_11_21896"/><feBlend in="SourceGraphic" in2="effect1_backgroundBlur_11_21896" mode="normal" result="shape"/><feColorMatrix in="SourceAlpha" result="hardAlpha" type="matrix" values="0 0 0 0 0 0 0 0 0 0 0 0 0 0 0 0 0 0 127 0"/><feOffset dy="1.174"/><feGaussianBlur stdDeviation=".587"/><feComposite in2="hardAlpha" k2="-1" k3="1" operator="arithmetic"/><feColorMatrix type="matrix" values="0 0 0 0 1 0 0 0 0 1 0 0 0 0 1 0 0 0 0.25 0"/><feBlend in2="shape" mode="normal" result="effect2_innerShadow_11_21896"/></filter><filter id="filter1_f_11_21896" width="693.648" height="373.037" x="-.787" y=".948" color-interpolation-filters="sRGB" filterUnits="userSpaceOnUse"><feFlood flood-opacity="0" result="BackgroundImageFix"/><feBlend in="SourceGraphic" in2="BackgroundImageFix" mode="normal" result="shape"/><feGaussianBlur result="effect1_foregroundBlur_11_21896" stdDeviation="4.746"/></filter><linearGradient id="paint0_linear_11_21896" x1="462.135" x2="462.135" y1="62.716" y2="424.484" gradientUnits="userSpaceOnUse"><stop stop-color="#fff"/><stop offset="1" stop-color="#fff" stop-opacity="0"/></linearGradient><linearGradient id="paint1_linear_11_21896" x1="246.028" x2="246.028" y1="99.985" y2="115.882" gradientUnits="userSpaceOnUse"><stop offset=".08" stop-color="#49494A" stop-opacity="0"/><stop offset="1" stop-color="#ADADB0"/></linearGradient><linearGradient id="paint2_linear_11_21896" x1="264.711" x2="264.711" y1="98.287" y2="114.183" gradientUnits="userSpaceOnUse"><stop offset=".08" stop-color="#49494A" stop-opacity="0"/><stop offset="1" stop-color="#ADADB0"/></linearGradient><linearGradient id="paint3_linear_11_21896" x1="283.396" x2="283.396" y1="96.588" y2="112.485" gradientUnits="userSpaceOnUse"><stop offset=".08" stop-color="#49494A" stop-opacity="0"/><stop offset="1" stop-color="#ADADB0"/></linearGradient><linearGradient id="paint4_linear_11_21896" x1="682.467" x2="658.526" y1="333.578" y2="367.313" gradientUnits="userSpaceOnUse"><stop stop-color="#fff" stop-opacity="0"/><stop offset="1" stop-color="#fff"/></linearGradient><linearGradient id="paint5_linear_11_21896" x1="656.894" x2="631.321" y1="338.474" y2="364.592" gradientUnits="userSpaceOnUse"><stop stop-color="#fff" stop-opacity="0"/><stop offset="1" stop-color="#fff"/></linearGradient><linearGradient id="paint6_linear_11_21896" x1="657.981" x2="616.628" y1="322.695" y2="357.519" gradientUnits="userSpaceOnUse"><stop stop-color="#fff" stop-opacity="0"/><stop offset="1" stop-color="#fff"/></linearGradient><linearGradient id="paint7_linear_11_21896" x1="666.143" x2="616.083" y1="298.209" y2="334.122" gradientUnits="userSpaceOnUse"><stop stop-color="#fff" stop-opacity="0"/><stop offset="1" stop-color="#fff"/></linearGradient><linearGradient id="paint8_linear_11_21896" x1="682.467" x2="530.112" y1="285.15" y2="363.504" gradientUnits="userSpaceOnUse"><stop stop-color="#FD366E" stop-opacity=".1"/><stop offset="1" stop-color="#fff"/></linearGradient><linearGradient id="paint9_linear_11_21896" x1="631.323" x2="471.763" y1="323.239" y2="283.611" gradientUnits="userSpaceOnUse"><stop stop-color="#fff" stop-opacity="0"/><stop offset="1" stop-color="#fff"/></linearGradient><linearGradient id="paint10_linear_11_21896" x1="680.836" x2="659.615" y1="268.282" y2="273.18" gradientUnits="userSpaceOnUse"><stop stop-color="#fff" stop-opacity="0"/><stop offset="1" stop-color="#fff"/></linearGradient><linearGradient id="paint11_linear_11_21896" x1="682.469" x2="390.813" y1="363.37" y2="255.041" gradientUnits="userSpaceOnUse"><stop stop-color="#fff" stop-opacity="0"/><stop offset="1" stop-color="#fff"/></linearGradient><linearGradient id="paint12_linear_11_21896" x1="682.467" x2="352.717" y1="335.449" y2="245.517" gradientUnits="userSpaceOnUse"><stop stop-color="#FD366E" stop-opacity="0"/><stop offset="1" stop-color="#fff"/></linearGradient><linearGradient id="paint13_linear_11_21896" x1="495.571" x2="175.344" y1="327.657" y2="271.279" gradientUnits="userSpaceOnUse"><stop stop-color="#fff" stop-opacity="0"/><stop offset="1" stop-color="#fff"/></linearGradient><linearGradient id="paint14_linear_11_21896" x1="682.471" x2="255.105" y1="267.16" y2="230.042" gradientUnits="userSpaceOnUse"><stop stop-color="#fff" stop-opacity="0"/><stop offset="1" stop-color="#fff"/></linearGradient><linearGradient id="paint15_linear_11_21896" x1="488.758" x2="175.342" y1="222.899" y2="222.899" gradientUnits="userSpaceOnUse"><stop stop-color="#FD366E" stop-opacity="0"/><stop offset=".597" stop-color="#fff"/></linearGradient><linearGradient id="paint16_linear_11_21896" x1="682.468" x2="591.998" y1="223.899" y2="222.715" gradientUnits="userSpaceOnUse"><stop stop-color="#fff" stop-opacity="0"/><stop offset="1" stop-color="#fff"/></linearGradient><linearGradient id="paint17_linear_11_21896" x1="682.468" x2="680.345" y1="213.376" y2="177.192" gradientUnits="userSpaceOnUse"><stop stop-color="#fff" stop-opacity="0"/><stop offset="1" stop-color="#fff"/></linearGradient><linearGradient id="paint18_linear_11_21896" x1="392.003" x2="390.189" y1="188.829" y2="157.912" gradientUnits="userSpaceOnUse"><stop stop-color="#fff" stop-opacity="0"/><stop offset="1" stop-color="#fff"/></linearGradient><linearGradient id="paint19_linear_11_21896" x1="682.469" x2="668.352" y1="206.233" y2="90.767" gradientUnits="userSpaceOnUse"><stop stop-color="#FD366E" stop-opacity=".1"/><stop offset="1" stop-color="#fff"/></linearGradient><linearGradient id="paint20_linear_11_21896" x1="620.566" x2="589.285" y1="182.208" y2="17.043" gradientUnits="userSpaceOnUse"><stop stop-color="#fff" stop-opacity="0"/><stop offset="1" stop-color="#fff"/></linearGradient><linearGradient id="paint21_linear_11_21896" x1="682.467" x2="678.745" y1="199.09" y2="179.441" gradientUnits="userSpaceOnUse"><stop stop-color="#fff" stop-opacity="0"/><stop offset="1" stop-color="#fff"/></linearGradient><linearGradient id="paint22_linear_11_21896" x1="535.448" x2="513.862" y1="134.807" y2="49.498" gradientUnits="userSpaceOnUse"><stop stop-color="#fff" stop-opacity="0"/><stop offset="1" stop-color="#fff"/></linearGradient><linearGradient id="paint23_linear_11_21896" x1="682.471" x2="665.516" y1="188.377" y2="121.373" gradientUnits="userSpaceOnUse"><stop stop-color="#fff" stop-opacity="0"/><stop offset="1" stop-color="#fff"/></linearGradient><linearGradient id="paint24_linear_11_21896" x1="682.471" x2="632.495" y1="180.043" y2="29.177" gradientUnits="userSpaceOnUse"><stop stop-color="#fff" stop-opacity="0"/><stop offset="1" stop-color="#fff"/></linearGradient><linearGradient id="paint25_linear_11_21896" x1="682.47" x2="628.759" y1="170.52" y2="41.615" gradientUnits="userSpaceOnUse"><stop stop-color="#fff" stop-opacity="0"/><stop offset="1" stop-color="#fff"/></linearGradient><linearGradient id="paint26_linear_11_21896" x1="640.801" x2="609.513" y1="127.123" y2="65.174" gradientUnits="userSpaceOnUse"><stop stop-color="#FD366E" stop-opacity="0"/><stop offset="1" stop-color="#fff"/></linearGradient><linearGradient id="paint27_linear_11_21896" x1="682.47" x2="671.106" y1="157.425" y2="134.925" gradientUnits="userSpaceOnUse"><stop stop-color="#fff" stop-opacity="0"/><stop offset="1" stop-color="#fff"/></linearGradient><linearGradient id="paint28_linear_11_21896" x1="645.468" x2="621.391" y1="110.486" y2="73.05" gradientUnits="userSpaceOnUse"><stop stop-color="#fff" stop-opacity="0"/><stop offset="1" stop-color="#fff"/></linearGradient><linearGradient id="paint29_linear_11_21896" x1="682.468" x2="645.612" y1="127.664" y2="74.591" gradientUnits="userSpaceOnUse"><stop stop-color="#fff" stop-opacity="0"/><stop offset="1" stop-color="#fff"/></linearGradient><linearGradient id="paint30_linear_11_21896" x1="682.467" x2="658.658" y1="109.808" y2="81.238" gradientUnits="userSpaceOnUse"><stop stop-color="#fff" stop-opacity="0"/><stop offset="1" stop-color="#fff"/></linearGradient><linearGradient id="paint31_linear_11_21896" x1="682.467" x2="658.526" y1="333.578" y2="367.313" gradientUnits="userSpaceOnUse"><stop stop-color="#fff" stop-opacity="0"/><stop offset="1" stop-color="#fff"/></linearGradient><linearGradient id="paint32_linear_11_21896" x1="656.894" x2="631.321" y1="338.474" y2="364.592" gradientUnits="userSpaceOnUse"><stop stop-color="#fff" stop-opacity="0"/><stop offset="1" stop-color="#fff"/></linearGradient><linearGradient id="paint33_linear_11_21896" x1="657.981" x2="616.628" y1="322.695" y2="357.519" gradientUnits="userSpaceOnUse"><stop stop-color="#fff" stop-opacity="0"/><stop offset="1" stop-color="#fff"/></linearGradient><linearGradient id="paint34_linear_11_21896" x1="666.143" x2="616.083" y1="298.209" y2="334.122" gradientUnits="userSpaceOnUse"><stop stop-color="#fff" stop-opacity="0"/><stop offset="1" stop-color="#fff"/></linearGradient><linearGradient id="paint35_linear_11_21896" x1="682.467" x2="530.112" y1="285.15" y2="363.504" gradientUnits="userSpaceOnUse"><stop stop-color="#FD366E" stop-opacity=".1"/><stop offset="1" stop-color="#fff"/></linearGradient><linearGradient id="paint36_linear_11_21896" x1="631.323" x2="471.763" y1="323.239" y2="283.611" gradientUnits="userSpaceOnUse"><stop stop-color="#fff" stop-opacity="0"/><stop offset="1" stop-color="#fff"/></linearGradient><linearGradient id="paint37_linear_11_21896" x1="680.836" x2="659.615" y1="268.282" y2="273.18" gradientUnits="userSpaceOnUse"><stop stop-color="#fff" stop-opacity="0"/><stop offset="1" stop-color="#fff"/></linearGradient><linearGradient id="paint38_linear_11_21896" x1="682.469" x2="390.813" y1="363.37" y2="255.041" gradientUnits="userSpaceOnUse"><stop stop-color="#fff" stop-opacity="0"/><stop offset="1" stop-color="#fff"/></linearGradient><linearGradient id="paint39_linear_11_21896" x1="682.467" x2="352.717" y1="335.449" y2="245.517" gradientUnits="userSpaceOnUse"><stop stop-color="#FD366E" stop-opacity="0"/><stop offset="1" stop-color="#fff"/></linearGradient><linearGradient id="paint40_linear_11_21896" x1="495.571" x2="175.344" y1="327.657" y2="271.279" gradientUnits="userSpaceOnUse"><stop stop-color="#fff" stop-opacity="0"/><stop offset="1" stop-color="#fff"/></linearGradient><linearGradient id="paint41_linear_11_21896" x1="682.471" x2="255.105" y1="267.16" y2="230.042" gradientUnits="userSpaceOnUse"><stop stop-color="#fff" stop-opacity="0"/><stop offset="1" stop-color="#fff"/></linearGradient><linearGradient id="paint42_linear_11_21896" x1="488.758" x2="175.342" y1="222.899" y2="222.899" gradientUnits="userSpaceOnUse"><stop stop-color="#FD366E" stop-opacity="0"/><stop offset=".597" stop-color="#fff"/></linearGradient><linearGradient id="paint43_linear_11_21896" x1="682.468" x2="591.998" y1="223.899" y2="222.715" gradientUnits="userSpaceOnUse"><stop stop-color="#fff" stop-opacity="0"/><stop offset="1" stop-color="#fff"/></linearGradient><linearGradient id="paint44_linear_11_21896" x1="682.468" x2="680.345" y1="213.376" y2="177.192" gradientUnits="userSpaceOnUse"><stop stop-color="#fff" stop-opacity="0"/><stop offset="1" stop-color="#fff"/></linearGradient><linearGradient id="paint45_linear_11_21896" x1="392.003" x2="390.189" y1="188.829" y2="157.912" gradientUnits="userSpaceOnUse"><stop stop-color="#fff" stop-opacity="0"/><stop offset="1" stop-color="#fff"/></linearGradient><linearGradient id="paint46_linear_11_21896" x1="682.469" x2="668.352" y1="206.233" y2="90.767" gradientUnits="userSpaceOnUse"><stop stop-color="#FD366E" stop-opacity=".1"/><stop offset="1" stop-color="#fff"/></linearGradient><linearGradient id="paint47_linear_11_21896" x1="620.566" x2="589.285" y1="182.208" y2="17.043" gradientUnits="userSpaceOnUse"><stop stop-color="#fff" stop-opacity="0"/><stop offset="1" stop-color="#fff"/></linearGradient><linearGradient id="paint48_linear_11_21896" x1="682.467" x2="678.745" y1="199.09" y2="179.441" gradientUnits="userSpaceOnUse"><stop stop-color="#fff" stop-opacity="0"/><stop offset="1" stop-color="#fff"/></linearGradient><linearGradient id="paint49_linear_11_21896" x1="535.448" x2="513.862" y1="134.807" y2="49.498" gradientUnits="userSpaceOnUse"><stop stop-color="#fff" stop-opacity="0"/><stop offset="1" stop-color="#fff"/></linearGradient><linearGradient id="paint50_linear_11_21896" x1="682.471" x2="665.516" y1="188.377" y2="121.373" gradientUnits="userSpaceOnUse"><stop stop-color="#fff" stop-opacity="0"/><stop offset="1" stop-color="#fff"/></linearGradient><linearGradient id="paint51_linear_11_21896" x1="682.471" x2="632.495" y1="180.043" y2="29.177" gradientUnits="userSpaceOnUse"><stop stop-color="#fff" stop-opacity="0"/><stop offset="1" stop-color="#fff"/></linearGradient><linearGradient id="paint52_linear_11_21896" x1="682.47" x2="628.759" y1="170.52" y2="41.615" gradientUnits="userSpaceOnUse"><stop stop-color="#fff" stop-opacity="0"/><stop offset="1" stop-color="#fff"/></linearGradient><linearGradient id="paint53_linear_11_21896" x1="640.801" x2="609.513" y1="127.123" y2="65.174" gradientUnits="userSpaceOnUse"><stop stop-color="#FD366E" stop-opacity="0"/><stop offset="1" stop-color="#fff"/></linearGradient><linearGradient id="paint54_linear_11_21896" x1="682.47" x2="671.106" y1="157.425" y2="134.925" gradientUnits="userSpaceOnUse"><stop stop-color="#fff" stop-opacity="0"/><stop offset="1" stop-color="#fff"/></linearGradient><linearGradient id="paint55_linear_11_21896" x1="645.468" x2="621.391" y1="110.486" y2="73.05" gradientUnits="userSpaceOnUse"><stop stop-color="#fff" stop-opacity="0"/><stop offset="1" stop-color="#fff"/></linearGradient><linearGradient id="paint56_linear_11_21896" x1="682.468" x2="645.612" y1="127.664" y2="74.591" gradientUnits="userSpaceOnUse"><stop stop-color="#fff" stop-opacity="0"/><stop offset="1" stop-color="#fff"/></linearGradient><linearGradient id="paint57_linear_11_21896" x1="682.467" x2="658.658" y1="109.808" y2="81.238" gradientUnits="userSpaceOnUse"><stop stop-color="#fff" stop-opacity="0"/><stop offset="1" stop-color="#fff"/></linearGradient></defs></svg>