<svg xmlns="http://www.w3.org/2000/svg" width="320" height="120" fill="none" viewBox="0 0 320 120"><g clip-path="url(#clip0_122_6634)"><g filter="url(#filter0_di_122_6634)"><path fill="#fff" fill-opacity=".03" d="M21.9609 29.8037C21.9609 21.624 21.9609 17.5341 23.5528 14.4099C24.9531 11.6617 27.1874 9.42743 29.9355 8.02718C33.0598 6.4353 37.1496 6.4353 45.3293 6.4353H558.279V292.564H45.3277C37.1486 292.564 33.059 292.564 29.935 290.973C27.187 289.573 24.9529 287.338 23.5527 284.59C21.9609 281.466 21.9609 277.377 21.9609 269.198V29.8037Z" shape-rendering="crispEdges"/><path stroke="url(#paint0_linear_122_6634)" stroke-opacity=".18" stroke-width="2.073" d="M22.9975 29.8037C22.9975 25.6967 22.9983 22.6788 23.1931 20.2954C23.3868 17.924 23.7674 16.2721 24.4764 14.8805C25.7773 12.3274 27.853 10.2517 30.4061 8.95079C31.7978 8.24172 33.4497 7.86119 35.821 7.66744C38.2045 7.47271 41.2223 7.4719 45.3293 7.4719H557.242V291.528H45.3277C41.221 291.528 38.2034 291.527 35.8201 291.332C33.4489 291.139 31.7971 290.758 30.4056 290.049C27.8527 288.748 25.7771 286.673 24.4763 284.12C23.7673 282.728 23.3868 281.076 23.1931 278.705C22.9983 276.322 22.9975 273.304 22.9975 269.198V29.8037Z" shape-rendering="crispEdges"/><path stroke="url(#paint1_linear_122_6634)" stroke-linecap="round" stroke-opacity=".7" stroke-width="1.219" d="M46.4447 45.1199H76.8047"/><path stroke="url(#paint2_linear_122_6634)" stroke-linecap="round" stroke-opacity=".7" stroke-width="1.219" d="M86.5984 45.1199H102.268"/><path stroke="url(#paint3_linear_122_6634)" stroke-linecap="round" stroke-opacity=".7" stroke-width="1.219" d="M62.6039 58.3413L131.159 58.3413"/><path stroke="url(#paint4_linear_122_6634)" stroke-linecap="round" stroke-opacity=".7" stroke-width="1.219" d="M140.953 58.3413L206.569 58.3413"/><path stroke="url(#paint5_linear_122_6634)" stroke-linecap="round" stroke-opacity=".7" stroke-width="1.219" d="M62.6041 71.5625L112.062 71.5625"/><path stroke="url(#paint6_linear_122_6634)" stroke-linecap="round" stroke-opacity=".7" stroke-width="1.219" d="M90.5156 85.0339L156.132 85.0339"/><path stroke="url(#paint7_linear_122_6634)" stroke-linecap="round" stroke-opacity=".7" stroke-width="1.219" d="M165.926 85.0339H197.265"/><path stroke="url(#paint8_linear_122_6634)" stroke-linecap="round" stroke-opacity=".7" stroke-width="1.219" d="M62.6042 98.2961H157.602"/><path stroke="url(#paint9_linear_122_6634)" stroke-linecap="round" stroke-opacity=".7" stroke-width="1.219" d="M167.395 98.2961L233.012 98.2961"/><path stroke="url(#paint10_linear_122_6634)" stroke-linecap="round" stroke-opacity=".7" stroke-width="1.219" d="M62.6043 111.716L162.009 111.716"/><g style="mix-blend-mode:screen" filter="url(#filter1_f_122_6634)" opacity=".5"><path stroke="url(#paint11_linear_122_6634)" stroke-linecap="round" stroke-opacity=".7" stroke-width="1.219" d="M46.4447 45.1199H76.8047"/><path stroke="url(#paint12_linear_122_6634)" stroke-linecap="round" stroke-opacity=".7" stroke-width="1.959" d="M86.5984 45.1199H102.268"/><path stroke="url(#paint13_linear_122_6634)" stroke-linecap="round" stroke-opacity=".7" stroke-width="1.959" d="M62.6039 58.3413L131.159 58.3413"/><path stroke="url(#paint14_linear_122_6634)" stroke-linecap="round" stroke-opacity=".7" stroke-width="1.959" d="M140.953 58.3413L206.569 58.3413"/><path stroke="url(#paint15_linear_122_6634)" stroke-linecap="round" stroke-opacity=".7" stroke-width="1.959" d="M62.6041 71.5625L112.062 71.5625"/><path stroke="url(#paint16_linear_122_6634)" stroke-linecap="round" stroke-opacity=".7" stroke-width="1.959" d="M90.5156 85.0339L156.132 85.0339"/><path stroke="url(#paint17_linear_122_6634)" stroke-linecap="round" stroke-opacity=".7" stroke-width="1.219" d="M165.926 85.0339H197.265"/><path stroke="url(#paint18_linear_122_6634)" stroke-linecap="round" stroke-opacity=".7" stroke-width="1.959" d="M62.6042 98.2961H157.602"/><path stroke="url(#paint19_linear_122_6634)" stroke-linecap="round" stroke-opacity=".7" stroke-width="1.219" d="M167.395 98.2961L233.012 98.2961"/><path stroke="url(#paint20_linear_122_6634)" stroke-linecap="round" stroke-opacity=".7" stroke-width="1.219" d="M62.6043 111.716L162.009 111.716"/></g><circle cx="39.414" cy="22.106" r="4.722" fill="url(#paint21_linear_122_6634)" fill-opacity=".08"/><circle cx="39.414" cy="22.106" r="3.959" stroke="url(#paint22_linear_122_6634)" stroke-opacity=".01" stroke-width="1.526"/><circle cx="54.524" cy="22.106" r="4.722" fill="url(#paint23_linear_122_6634)" fill-opacity=".08"/><circle cx="54.524" cy="22.106" r="3.959" stroke="url(#paint24_linear_122_6634)" stroke-opacity=".01" stroke-width="1.526"/><circle cx="69.634" cy="22.106" r="4.722" fill="url(#paint25_linear_122_6634)" fill-opacity=".08"/><circle cx="69.634" cy="22.106" r="3.959" stroke="url(#paint26_linear_122_6634)" stroke-opacity=".01" stroke-width="1.526"/></g></g><defs><filter id="filter0_di_122_6634" width="621.703" height="371.514" x="-7.924" y="-36.257" color-interpolation-filters="sRGB" filterUnits="userSpaceOnUse"><feFlood flood-opacity="0" result="BackgroundImageFix"/><feColorMatrix in="SourceAlpha" result="hardAlpha" type="matrix" values="0 0 0 0 0 0 0 0 0 0 0 0 0 0 0 0 0 0 127 0"/><feOffset dx="12.808"/><feGaussianBlur stdDeviation="21.346"/><feComposite in2="hardAlpha" operator="out"/><feColorMatrix type="matrix" values="0 0 0 0 0 0 0 0 0 0 0 0 0 0 0 0 0 0 0.16 0"/><feBlend in2="BackgroundImageFix" mode="normal" result="effect1_dropShadow_122_6634"/><feBlend in="SourceGraphic" in2="effect1_dropShadow_122_6634" mode="normal" result="shape"/><feColorMatrix in="SourceAlpha" result="hardAlpha" type="matrix" values="0 0 0 0 0 0 0 0 0 0 0 0 0 0 0 0 0 0 127 0"/><feOffset dy="1.067"/><feGaussianBlur stdDeviation=".534"/><feComposite in2="hardAlpha" k2="-1" k3="1" operator="arithmetic"/><feColorMatrix type="matrix" values="0 0 0 0 1 0 0 0 0 1 0 0 0 0 1 0 0 0 0.25 0"/><feBlend in2="shape" mode="normal" result="effect2_innerShadow_122_6634"/></filter><filter id="filter1_f_122_6634" width="306.682" height="231.297" x="43.586" y="42.078" color-interpolation-filters="sRGB" filterUnits="userSpaceOnUse"><feFlood flood-opacity="0" result="BackgroundImageFix"/><feBlend in="SourceGraphic" in2="BackgroundImageFix" mode="normal" result="shape"/><feGaussianBlur result="effect1_foregroundBlur_122_6634" stdDeviation="1.031"/></filter><linearGradient id="paint0_linear_122_6634" x1="21.961" x2="550.464" y1="142.893" y2="142.893" gradientUnits="userSpaceOnUse"><stop stop-color="#fff"/><stop offset="1" stop-color="#fff" stop-opacity="0"/></linearGradient><linearGradient id="paint1_linear_122_6634" x1="76.805" x2="46.445" y1="45.451" y2="45.451" gradientUnits="userSpaceOnUse"><stop stop-color="#fff"/><stop offset="1" stop-color="#FD366E" stop-opacity="0"/></linearGradient><linearGradient id="paint2_linear_122_6634" x1="102.268" x2="86.598" y1="45.451" y2="45.451" gradientUnits="userSpaceOnUse"><stop stop-color="#fff"/><stop offset="1" stop-color="#fff" stop-opacity="0"/></linearGradient><linearGradient id="paint3_linear_122_6634" x1="131.159" x2="62.604" y1="58.673" y2="58.673" gradientUnits="userSpaceOnUse"><stop stop-color="#fff"/><stop offset="1" stop-color="#fff" stop-opacity="0"/></linearGradient><linearGradient id="paint4_linear_122_6634" x1="206.569" x2="140.953" y1="58.673" y2="58.673" gradientUnits="userSpaceOnUse"><stop stop-color="#fff"/><stop offset="1" stop-color="#fff" stop-opacity="0"/></linearGradient><linearGradient id="paint5_linear_122_6634" x1="112.062" x2="62.604" y1="71.894" y2="71.894" gradientUnits="userSpaceOnUse"><stop stop-color="#fff"/><stop offset="1" stop-color="#fff" stop-opacity="0"/></linearGradient><linearGradient id="paint6_linear_122_6634" x1="156.132" x2="90.516" y1="85.365" y2="85.365" gradientUnits="userSpaceOnUse"><stop stop-color="#fff"/><stop offset="1" stop-color="#fff" stop-opacity="0"/></linearGradient><linearGradient id="paint7_linear_122_6634" x1="197.265" x2="165.926" y1="85.365" y2="85.365" gradientUnits="userSpaceOnUse"><stop stop-color="#fff"/><stop offset="1" stop-color="#FD366E" stop-opacity="0"/></linearGradient><linearGradient id="paint8_linear_122_6634" x1="157.602" x2="62.604" y1="98.627" y2="98.627" gradientUnits="userSpaceOnUse"><stop stop-color="#fff"/><stop offset="1" stop-color="#fff" stop-opacity="0"/></linearGradient><linearGradient id="paint9_linear_122_6634" x1="233.012" x2="167.395" y1="98.627" y2="98.627" gradientUnits="userSpaceOnUse"><stop stop-color="#fff"/><stop offset="1" stop-color="#fff" stop-opacity="0"/></linearGradient><linearGradient id="paint10_linear_122_6634" x1="162.009" x2="62.604" y1="112.047" y2="112.047" gradientUnits="userSpaceOnUse"><stop stop-color="#fff"/><stop offset="1" stop-color="#FD366E" stop-opacity="0"/></linearGradient><linearGradient id="paint11_linear_122_6634" x1="76.805" x2="46.445" y1="45.451" y2="45.451" gradientUnits="userSpaceOnUse"><stop stop-color="#fff"/><stop offset="1" stop-color="#FD366E" stop-opacity="0"/></linearGradient><linearGradient id="paint12_linear_122_6634" x1="102.268" x2="86.598" y1="45.451" y2="45.451" gradientUnits="userSpaceOnUse"><stop stop-color="#fff"/><stop offset="1" stop-color="#fff" stop-opacity="0"/></linearGradient><linearGradient id="paint13_linear_122_6634" x1="131.159" x2="62.604" y1="58.673" y2="58.673" gradientUnits="userSpaceOnUse"><stop stop-color="#fff"/><stop offset="1" stop-color="#fff" stop-opacity="0"/></linearGradient><linearGradient id="paint14_linear_122_6634" x1="206.569" x2="140.953" y1="58.673" y2="58.673" gradientUnits="userSpaceOnUse"><stop stop-color="#fff"/><stop offset="1" stop-color="#fff" stop-opacity="0"/></linearGradient><linearGradient id="paint15_linear_122_6634" x1="112.062" x2="62.604" y1="71.894" y2="71.894" gradientUnits="userSpaceOnUse"><stop stop-color="#fff"/><stop offset="1" stop-color="#fff" stop-opacity="0"/></linearGradient><linearGradient id="paint16_linear_122_6634" x1="156.132" x2="90.516" y1="85.365" y2="85.365" gradientUnits="userSpaceOnUse"><stop stop-color="#fff"/><stop offset="1" stop-color="#fff" stop-opacity="0"/></linearGradient><linearGradient id="paint17_linear_122_6634" x1="197.265" x2="165.926" y1="85.365" y2="85.365" gradientUnits="userSpaceOnUse"><stop stop-color="#fff"/><stop offset="1" stop-color="#FD366E" stop-opacity="0"/></linearGradient><linearGradient id="paint18_linear_122_6634" x1="157.602" x2="62.604" y1="98.627" y2="98.627" gradientUnits="userSpaceOnUse"><stop stop-color="#fff"/><stop offset="1" stop-color="#fff" stop-opacity="0"/></linearGradient><linearGradient id="paint19_linear_122_6634" x1="233.012" x2="167.395" y1="98.627" y2="98.627" gradientUnits="userSpaceOnUse"><stop stop-color="#fff"/><stop offset="1" stop-color="#fff" stop-opacity="0"/></linearGradient><linearGradient id="paint20_linear_122_6634" x1="162.009" x2="62.604" y1="112.047" y2="112.047" gradientUnits="userSpaceOnUse"><stop stop-color="#fff"/><stop offset="1" stop-color="#FD366E" stop-opacity="0"/></linearGradient><linearGradient id="paint21_linear_122_6634" x1="39.414" x2="39.414" y1="17.384" y2="26.828" gradientUnits="userSpaceOnUse"><stop stop-color="#fff" stop-opacity="0"/><stop offset="1" stop-color="#fff"/></linearGradient><linearGradient id="paint22_linear_122_6634" x1="39.414" x2="39.414" y1="17.384" y2="29.2" gradientUnits="userSpaceOnUse"><stop stop-color="#fff"/><stop offset="1" stop-color="#fff" stop-opacity="0"/></linearGradient><linearGradient id="paint23_linear_122_6634" x1="54.524" x2="54.524" y1="17.384" y2="26.828" gradientUnits="userSpaceOnUse"><stop stop-color="#fff" stop-opacity="0"/><stop offset="1" stop-color="#fff"/></linearGradient><linearGradient id="paint24_linear_122_6634" x1="54.524" x2="54.524" y1="17.384" y2="29.2" gradientUnits="userSpaceOnUse"><stop stop-color="#fff"/><stop offset="1" stop-color="#fff" stop-opacity="0"/></linearGradient><linearGradient id="paint25_linear_122_6634" x1="69.634" x2="69.634" y1="17.384" y2="26.828" gradientUnits="userSpaceOnUse"><stop stop-color="#fff" stop-opacity="0"/><stop offset="1" stop-color="#fff"/></linearGradient><linearGradient id="paint26_linear_122_6634" x1="69.634" x2="69.634" y1="17.384" y2="29.2" gradientUnits="userSpaceOnUse"><stop stop-color="#fff"/><stop offset="1" stop-color="#fff" stop-opacity="0"/></linearGradient><clipPath id="clip0_122_6634"><rect width="320" height="120" fill="#fff"/></clipPath></defs></svg>