<svg width="32" height="32" viewBox="0 0 32 32" fill="none" xmlns="http://www.w3.org/2000/svg">
<g filter="url(#filter0_bi_77_858)">
<mask id="path-1-inside-1_77_858" fill="white">
<path fill-rule="evenodd" clip-rule="evenodd" d="M14.8114 16.9057C16.6978 15.9495 17.9886 14.0083 17.9886 11.7692C17.9886 8.58297 15.3748 6 12.1506 6C8.92629 6 6.3125 8.58297 6.3125 11.7692C6.3125 13.9595 7.54764 15.8647 9.36717 16.8418C9.11857 16.9268 8.87312 17.024 8.6316 17.1331C7.56394 17.6155 6.59383 18.3227 5.77668 19.2141C4.95952 20.1056 4.31132 21.1639 3.86908 22.3286C3.42684 23.4933 3.19922 24.7417 3.19922 26.0023H11.9992H20.7992C20.7992 24.7417 20.5716 23.4933 20.1294 22.3286C19.6871 21.1639 19.0389 20.1056 18.2218 19.2141C17.4046 18.3227 16.4345 17.6155 15.3668 17.1331C15.1838 17.0504 14.9986 16.9746 14.8114 16.9057Z"/>
</mask>
<path fill-rule="evenodd" clip-rule="evenodd" d="M14.8114 16.9057C16.6978 15.9495 17.9886 14.0083 17.9886 11.7692C17.9886 8.58297 15.3748 6 12.1506 6C8.92629 6 6.3125 8.58297 6.3125 11.7692C6.3125 13.9595 7.54764 15.8647 9.36717 16.8418C9.11857 16.9268 8.87312 17.024 8.6316 17.1331C7.56394 17.6155 6.59383 18.3227 5.77668 19.2141C4.95952 20.1056 4.31132 21.1639 3.86908 22.3286C3.42684 23.4933 3.19922 24.7417 3.19922 26.0023H11.9992H20.7992C20.7992 24.7417 20.5716 23.4933 20.1294 22.3286C19.6871 21.1639 19.0389 20.1056 18.2218 19.2141C17.4046 18.3227 16.4345 17.6155 15.3668 17.1331C15.1838 17.0504 14.9986 16.9746 14.8114 16.9057Z" fill="url(#paint0_linear_77_858)" fill-opacity="0.32"/>
<path d="M14.8114 16.9057L14.6984 16.6827L14.1865 16.9422L14.7251 17.1404L14.8114 16.9057ZM9.36717 16.8418L9.44806 17.0784L9.99064 16.8928L9.48545 16.6215L9.36717 16.8418ZM8.6316 17.1331L8.73455 17.3609L8.6316 17.1331ZM5.77668 19.2141L5.59239 19.0452L5.77668 19.2141ZM3.86908 22.3286L3.63536 22.2398L3.63536 22.2398L3.86908 22.3286ZM3.19922 26.0023H2.94922V26.2523H3.19922V26.0023ZM20.7992 26.0023V26.2523H21.0492V26.0023H20.7992ZM20.1294 22.3286L19.8956 22.4173V22.4173L20.1294 22.3286ZM18.2218 19.2141L18.0375 19.383H18.0375L18.2218 19.2141ZM15.3668 17.1331L15.2639 17.3609L15.3668 17.1331ZM17.7386 11.7692C17.7386 13.9094 16.5051 15.7669 14.6984 16.6827L14.9245 17.1287C16.8905 16.1321 18.2386 14.1073 18.2386 11.7692H17.7386ZM12.1506 6.25C15.2396 6.25 17.7386 8.72383 17.7386 11.7692H18.2386C18.2386 8.44211 15.5101 5.75 12.1506 5.75V6.25ZM6.5625 11.7692C6.5625 8.72383 9.06155 6.25 12.1506 6.25V5.75C8.79102 5.75 6.0625 8.44211 6.0625 11.7692H6.5625ZM9.48545 16.6215C7.74281 15.6858 6.5625 13.8628 6.5625 11.7692H6.0625C6.0625 14.0563 7.35248 16.0437 9.2489 17.0621L9.48545 16.6215ZM9.28629 16.6052C9.03017 16.6928 8.77736 16.7929 8.52866 16.9053L8.73455 17.3609C8.96888 17.255 9.20697 17.1608 9.44806 17.0784L9.28629 16.6052ZM8.52866 16.9053C7.42918 17.4021 6.43165 18.1296 5.59239 19.0452L5.96097 19.383C6.75602 18.5157 7.6987 17.829 8.73455 17.3609L8.52866 16.9053ZM5.59239 19.0452C4.75317 19.9607 4.0885 21.0464 3.63536 22.2398L4.1028 22.4173C4.53414 21.2813 5.16587 20.2504 5.96097 19.383L5.59239 19.0452ZM3.63536 22.2398C3.18222 23.4333 2.94922 24.7117 2.94922 26.0023H3.44922C3.44922 24.7716 3.67145 23.5534 4.1028 22.4173L3.63536 22.2398ZM3.19922 26.2523H11.9992V25.7523H3.19922V26.2523ZM11.9992 26.2523H20.7992V25.7523H11.9992V26.2523ZM21.0492 26.0023C21.0492 24.7117 20.8162 23.4333 20.3631 22.2398L19.8956 22.4173C20.327 23.5534 20.5492 24.7716 20.5492 26.0023H21.0492ZM20.3631 22.2398C19.9099 21.0464 19.2453 19.9607 18.406 19.0452L18.0375 19.383C18.8326 20.2504 19.4643 21.2813 19.8956 22.4173L20.3631 22.2398ZM18.406 19.0452C17.5668 18.1296 16.5693 17.4021 15.4698 16.9053L15.2639 17.3609C16.2997 17.829 17.2424 18.5157 18.0375 19.383L18.406 19.0452ZM15.4698 16.9053C15.2813 16.8201 15.0905 16.742 14.8977 16.6711L14.7251 17.1404C14.9066 17.2072 15.0863 17.2807 15.2639 17.3609L15.4698 16.9053Z" fill="url(#paint1_linear_77_858)" mask="url(#path-1-inside-1_77_858)"/>
</g>
<g filter="url(#filter1_bi_77_858)">
<mask id="path-3-inside-2_77_858" fill="white">
<path fill-rule="evenodd" clip-rule="evenodd" d="M22.8114 16.9057C24.6978 15.9495 25.9886 14.0083 25.9886 11.7692C25.9886 8.58297 23.3748 6 20.1506 6C16.9263 6 14.3125 8.58297 14.3125 11.7692C14.3125 13.9595 15.5476 15.8647 17.3672 16.8418C17.1186 16.9268 16.8731 17.024 16.6316 17.1331C15.5639 17.6155 14.5938 18.3227 13.7767 19.2141C12.9595 20.1056 12.3113 21.1639 11.8691 22.3286C11.4268 23.4933 11.1992 24.7417 11.1992 26.0023H19.9992H28.7992C28.7992 24.7417 28.5716 23.4933 28.1294 22.3286C27.6871 21.1639 27.0389 20.1056 26.2218 19.2141C25.4046 18.3227 24.4345 17.6155 23.3668 17.1331C23.1838 17.0504 22.9986 16.9746 22.8114 16.9057Z"/>
</mask>
<path fill-rule="evenodd" clip-rule="evenodd" d="M22.8114 16.9057C24.6978 15.9495 25.9886 14.0083 25.9886 11.7692C25.9886 8.58297 23.3748 6 20.1506 6C16.9263 6 14.3125 8.58297 14.3125 11.7692C14.3125 13.9595 15.5476 15.8647 17.3672 16.8418C17.1186 16.9268 16.8731 17.024 16.6316 17.1331C15.5639 17.6155 14.5938 18.3227 13.7767 19.2141C12.9595 20.1056 12.3113 21.1639 11.8691 22.3286C11.4268 23.4933 11.1992 24.7417 11.1992 26.0023H19.9992H28.7992C28.7992 24.7417 28.5716 23.4933 28.1294 22.3286C27.6871 21.1639 27.0389 20.1056 26.2218 19.2141C25.4046 18.3227 24.4345 17.6155 23.3668 17.1331C23.1838 17.0504 22.9986 16.9746 22.8114 16.9057Z" fill="url(#paint2_linear_77_858)" fill-opacity="0.32"/>
<path d="M22.8114 16.9057L22.6984 16.6827L22.1865 16.9422L22.7251 17.1404L22.8114 16.9057ZM17.3672 16.8418L17.4481 17.0784L17.9906 16.8928L17.4854 16.6215L17.3672 16.8418ZM16.6316 17.1331L16.7345 17.3609L16.6316 17.1331ZM13.7767 19.2141L13.5924 19.0452L13.7767 19.2141ZM11.8691 22.3286L11.6354 22.2398L11.6354 22.2398L11.8691 22.3286ZM11.1992 26.0023H10.9492V26.2523H11.1992V26.0023ZM28.7992 26.0023V26.2523H29.0492V26.0023H28.7992ZM28.1294 22.3286L27.8956 22.4173V22.4173L28.1294 22.3286ZM26.2218 19.2141L26.0375 19.383H26.0375L26.2218 19.2141ZM23.3668 17.1331L23.2639 17.3609L23.3668 17.1331ZM25.7386 11.7692C25.7386 13.9094 24.5051 15.7669 22.6984 16.6827L22.9245 17.1287C24.8905 16.1321 26.2386 14.1073 26.2386 11.7692H25.7386ZM20.1506 6.25C23.2396 6.25 25.7386 8.72383 25.7386 11.7692H26.2386C26.2386 8.44211 23.5101 5.75 20.1506 5.75V6.25ZM14.5625 11.7692C14.5625 8.72383 17.0616 6.25 20.1506 6.25V5.75C16.791 5.75 14.0625 8.44211 14.0625 11.7692H14.5625ZM17.4854 16.6215C15.7428 15.6858 14.5625 13.8628 14.5625 11.7692H14.0625C14.0625 14.0563 15.3525 16.0437 17.2489 17.0621L17.4854 16.6215ZM17.2863 16.6052C17.0302 16.6928 16.7774 16.7929 16.5287 16.9053L16.7345 17.3609C16.9689 17.255 17.207 17.1608 17.4481 17.0784L17.2863 16.6052ZM16.5287 16.9053C15.4292 17.4021 14.4316 18.1296 13.5924 19.0452L13.961 19.383C14.756 18.5157 15.6987 17.829 16.7345 17.3609L16.5287 16.9053ZM13.5924 19.0452C12.7532 19.9607 12.0885 21.0464 11.6354 22.2398L12.1028 22.4173C12.5341 21.2813 13.1659 20.2504 13.961 19.383L13.5924 19.0452ZM11.6354 22.2398C11.1822 23.4333 10.9492 24.7117 10.9492 26.0023H11.4492C11.4492 24.7716 11.6715 23.5534 12.1028 22.4173L11.6354 22.2398ZM11.1992 26.2523H19.9992V25.7523H11.1992V26.2523ZM19.9992 26.2523H28.7992V25.7523H19.9992V26.2523ZM29.0492 26.0023C29.0492 24.7117 28.8162 23.4333 28.3631 22.2398L27.8956 22.4173C28.327 23.5534 28.5492 24.7716 28.5492 26.0023H29.0492ZM28.3631 22.2398C27.9099 21.0464 27.2453 19.9607 26.406 19.0452L26.0375 19.383C26.8326 20.2504 27.4643 21.2813 27.8956 22.4173L28.3631 22.2398ZM26.406 19.0452C25.5668 18.1296 24.5693 17.4021 23.4698 16.9053L23.2639 17.3609C24.2997 17.829 25.2424 18.5157 26.0375 19.383L26.406 19.0452ZM23.4698 16.9053C23.2813 16.8201 23.0905 16.742 22.8977 16.6711L22.7251 17.1404C22.9066 17.2072 23.0863 17.2807 23.2639 17.3609L23.4698 16.9053Z" fill="url(#paint3_linear_77_858)" mask="url(#path-3-inside-2_77_858)"/>
</g>
<defs>
<filter id="filter0_bi_77_858" x="-2.13411" y="0.666667" width="28.2666" height="30.669" filterUnits="userSpaceOnUse" color-interpolation-filters="sRGB">
<feFlood flood-opacity="0" result="BackgroundImageFix"/>
<feGaussianBlur in="BackgroundImageFix" stdDeviation="2.66667"/>
<feComposite in2="SourceAlpha" operator="in" result="effect1_backgroundBlur_77_858"/>
<feBlend mode="normal" in="SourceGraphic" in2="effect1_backgroundBlur_77_858" result="shape"/>
<feColorMatrix in="SourceAlpha" type="matrix" values="0 0 0 0 0 0 0 0 0 0 0 0 0 0 0 0 0 0 127 0" result="hardAlpha"/>
<feOffset dy="2"/>
<feGaussianBlur stdDeviation="2"/>
<feComposite in2="hardAlpha" operator="arithmetic" k2="-1" k3="1"/>
<feColorMatrix type="matrix" values="0 0 0 0 1 0 0 0 0 1 0 0 0 0 1 0 0 0 0.08 0"/>
<feBlend mode="normal" in2="shape" result="effect2_innerShadow_77_858"/>
</filter>
<filter id="filter1_bi_77_858" x="5.86589" y="0.666667" width="28.2666" height="30.669" filterUnits="userSpaceOnUse" color-interpolation-filters="sRGB">
<feFlood flood-opacity="0" result="BackgroundImageFix"/>
<feGaussianBlur in="BackgroundImageFix" stdDeviation="2.66667"/>
<feComposite in2="SourceAlpha" operator="in" result="effect1_backgroundBlur_77_858"/>
<feBlend mode="normal" in="SourceGraphic" in2="effect1_backgroundBlur_77_858" result="shape"/>
<feColorMatrix in="SourceAlpha" type="matrix" values="0 0 0 0 0 0 0 0 0 0 0 0 0 0 0 0 0 0 127 0" result="hardAlpha"/>
<feOffset dy="2"/>
<feGaussianBlur stdDeviation="2"/>
<feComposite in2="hardAlpha" operator="arithmetic" k2="-1" k3="1"/>
<feColorMatrix type="matrix" values="0 0 0 0 1 0 0 0 0 1 0 0 0 0 1 0 0 0 0.08 0"/>
<feBlend mode="normal" in2="shape" result="effect2_innerShadow_77_858"/>
</filter>
<linearGradient id="paint0_linear_77_858" x1="5.29768" y1="6" x2="20.2866" y2="27.6498" gradientUnits="userSpaceOnUse">
<stop stop-color="white" stop-opacity="0.4"/>
<stop offset="0.432292" stop-color="white" stop-opacity="0.4"/>
<stop offset="1" stop-color="white" stop-opacity="0"/>
</linearGradient>
<linearGradient id="paint1_linear_77_858" x1="3.13495" y1="17.2128" x2="20.7247" y2="18.7714" gradientUnits="userSpaceOnUse">
<stop stop-color="white" stop-opacity="0.08"/>
<stop offset="1" stop-color="white" stop-opacity="0"/>
</linearGradient>
<linearGradient id="paint2_linear_77_858" x1="13.2977" y1="6" x2="28.2866" y2="27.6498" gradientUnits="userSpaceOnUse">
<stop stop-color="white" stop-opacity="0.4"/>
<stop offset="0.432292" stop-color="white" stop-opacity="0.4"/>
<stop offset="1" stop-color="white" stop-opacity="0"/>
</linearGradient>
<linearGradient id="paint3_linear_77_858" x1="11.135" y1="17.2128" x2="28.7247" y2="18.7714" gradientUnits="userSpaceOnUse">
<stop stop-color="white" stop-opacity="0.08"/>
<stop offset="1" stop-color="white" stop-opacity="0"/>
</linearGradient>
</defs>
</svg>
