<svg width="34" height="32" viewBox="0 0 34 32" fill="none" xmlns="http://www.w3.org/2000/svg">
<g filter="url(#filter0_b_77_854)">
<path d="M7.06982 18.6344C7.38369 17.9697 7.54062 17.6374 7.78128 17.3941C7.99405 17.1791 8.25283 17.0151 8.53814 16.9145C8.86085 16.8008 9.22837 16.8008 9.96342 16.8008L24.0413 16.8008C24.7763 16.8008 25.1438 16.8008 25.4665 16.9145C25.7519 17.0151 26.0106 17.1791 26.2234 17.3941C26.4641 17.6374 26.621 17.9697 26.9349 18.6344L28.446 21.8344C29.1623 23.3513 29.5205 24.1098 29.4198 24.7242C29.3319 25.2609 29.0291 25.7387 28.5813 26.0474C28.0687 26.4008 27.2299 26.4008 25.5524 26.4008L8.4523 26.4008C6.77474 26.4008 5.93596 26.4008 5.42336 26.0474C4.97558 25.7387 4.67284 25.2609 4.58489 24.7242C4.48421 24.1098 4.84238 23.3513 5.55871 21.8344L7.06982 18.6344Z" fill="url(#paint0_linear_77_854)" fill-opacity="0.32"/>
<path d="M7.18285 18.6877C7.50069 18.0147 7.64812 17.7064 7.87014 17.482C8.06961 17.2804 8.31222 17.1267 8.5797 17.0324C8.87741 16.9275 9.21907 16.9258 9.96342 16.9258L24.0413 16.9258C24.7856 16.9258 25.1273 16.9275 25.425 17.0324L25.4665 16.9145L25.425 17.0324C25.6925 17.1267 25.9351 17.2804 26.1346 17.482L26.2234 17.3941L26.1346 17.482C26.3566 17.7064 26.504 18.0147 26.8218 18.6877L28.3329 21.8877C28.6922 22.6484 28.9578 23.2112 29.1218 23.6606C29.2859 24.11 29.3416 24.4287 29.2964 24.704C29.214 25.2072 28.9302 25.6551 28.5104 25.9445C28.2807 26.1028 27.9688 26.1886 27.4923 26.2321C27.0159 26.2757 26.3936 26.2758 25.5524 26.2758L8.4523 26.2758C7.61109 26.2758 6.98878 26.2757 6.51234 26.2321C6.03589 26.1886 5.72398 26.1028 5.49431 25.9445C5.07452 25.6551 4.79069 25.2072 4.70824 24.704C4.66314 24.4287 4.71876 24.11 4.88284 23.6606C5.04692 23.2112 5.31254 22.6484 5.67174 21.8877L7.18285 18.6877Z" stroke="url(#paint1_linear_77_854)" stroke-width="0.25"/>
</g>
<g filter="url(#filter1_b_77_854)">
<path d="M7.06982 12.234C7.38369 11.5693 7.54062 11.237 7.78128 10.9937C7.99405 10.7787 8.25283 10.6147 8.53814 10.5141C8.86085 10.4004 9.22837 10.4004 9.96342 10.4004L24.0413 10.4004C24.7763 10.4004 25.1438 10.4004 25.4665 10.5141C25.7519 10.6147 26.0106 10.7787 26.2234 10.9937C26.4641 11.237 26.621 11.5693 26.9349 12.234L28.446 15.434C29.1623 16.9509 29.5205 17.7094 29.4198 18.3238C29.3319 18.8605 29.0291 19.3383 28.5813 19.647C28.0687 20.0004 27.2299 20.0004 25.5524 20.0004L8.4523 20.0004C6.77474 20.0004 5.93596 20.0004 5.42336 19.647C4.97558 19.3383 4.67284 18.8605 4.58489 18.3238C4.48421 17.7094 4.84238 16.9509 5.55871 15.434L7.06982 12.234Z" fill="url(#paint2_linear_77_854)" fill-opacity="0.32"/>
<path d="M7.18285 12.2873C7.50069 11.6143 7.64812 11.3061 7.87014 11.0817C8.06961 10.88 8.31222 10.7263 8.5797 10.632C8.87741 10.5271 9.21907 10.5254 9.96342 10.5254L24.0413 10.5254C24.7856 10.5254 25.1273 10.5271 25.425 10.632L25.4665 10.5141L25.425 10.632C25.6925 10.7263 25.9351 10.88 26.1346 11.0817L26.2234 10.9937L26.1346 11.0817C26.3566 11.3061 26.504 11.6143 26.8218 12.2873L28.3329 15.4873C28.6922 16.248 28.9578 16.8108 29.1218 17.2602C29.2859 17.7096 29.3416 18.0283 29.2964 18.3036C29.214 18.8068 28.9302 19.2547 28.5104 19.5441C28.2807 19.7024 27.9688 19.7882 27.4923 19.8317C27.0159 19.8753 26.3936 19.8754 25.5524 19.8754L8.4523 19.8754C7.61109 19.8754 6.98878 19.8753 6.51234 19.8317C6.03589 19.7882 5.72398 19.7024 5.49431 19.5441C5.07452 19.2547 4.79069 18.8068 4.70824 18.3036C4.66314 18.0283 4.71876 17.7096 4.88284 17.2602C5.04692 16.8108 5.31254 16.248 5.67174 15.4873L7.18285 12.2873Z" stroke="url(#paint3_linear_77_854)" stroke-width="0.25"/>
</g>
<g filter="url(#filter2_bd_77_854)">
<path d="M7.06982 5.83358C7.38369 5.16892 7.54062 4.83658 7.78128 4.59335C7.99405 4.3783 8.25283 4.21432 8.53814 4.11375C8.86085 4 9.22837 4 9.96342 4L24.0413 4C24.7763 4 25.1438 4 25.4665 4.11375C25.7519 4.21432 26.0106 4.3783 26.2234 4.59335C26.4641 4.83658 26.621 5.16892 26.9349 5.83358L28.446 9.03358C29.1623 10.5505 29.5205 11.309 29.4198 11.9234C29.3319 12.4601 29.0291 12.9379 28.5813 13.2466C28.0687 13.6 27.2299 13.6 25.5524 13.6L8.4523 13.6C6.77474 13.6 5.93596 13.6 5.42336 13.2466C4.97558 12.9379 4.67284 12.4601 4.58489 11.9234C4.48421 11.309 4.84238 10.5505 5.55871 9.03358L7.06982 5.83358Z" fill="url(#paint4_linear_77_854)" fill-opacity="0.32" shape-rendering="crispEdges"/>
<path d="M7.18285 5.88696C7.50069 5.21388 7.64812 4.90566 7.87014 4.68127C8.06961 4.47965 8.31222 4.32592 8.5797 4.23164C8.87741 4.1267 9.21907 4.125 9.96342 4.125L24.0413 4.125C24.7856 4.125 25.1273 4.1267 25.425 4.23164L25.4665 4.11375L25.425 4.23164C25.6925 4.32592 25.9351 4.47965 26.1346 4.68126L26.2234 4.59335L26.1346 4.68127C26.3566 4.90566 26.504 5.21388 26.8218 5.88696L28.3329 9.08696C28.6922 9.84762 28.9578 10.4104 29.1218 10.8598C29.2859 11.3092 29.3416 11.6279 29.2964 11.9032C29.214 12.4064 28.9302 12.8543 28.5104 13.1437C28.2807 13.302 27.9688 13.3878 27.4923 13.4313C27.0159 13.4749 26.3936 13.475 25.5524 13.475L8.4523 13.475C7.61109 13.475 6.98878 13.4749 6.51234 13.4313C6.03589 13.3878 5.72398 13.302 5.49431 13.1437C5.07452 12.8543 4.79069 12.4064 4.70824 11.9032C4.66314 11.6279 4.71876 11.3092 4.88284 10.8598C5.04692 10.4104 5.31254 9.84762 5.67174 9.08696L7.18285 5.88696Z" stroke="url(#paint5_linear_77_854)" stroke-width="0.25" shape-rendering="crispEdges"/>
</g>
<defs>
<filter id="filter0_b_77_854" x="-3.43182" y="8.80078" width="40.8683" height="25.6" filterUnits="userSpaceOnUse" color-interpolation-filters="sRGB">
<feFlood flood-opacity="0" result="BackgroundImageFix"/>
<feGaussianBlur in="BackgroundImageFix" stdDeviation="4"/>
<feComposite in2="SourceAlpha" operator="in" result="effect1_backgroundBlur_77_854"/>
<feBlend mode="normal" in="SourceGraphic" in2="effect1_backgroundBlur_77_854" result="shape"/>
</filter>
<filter id="filter1_b_77_854" x="-3.43182" y="2.40039" width="40.8683" height="25.6" filterUnits="userSpaceOnUse" color-interpolation-filters="sRGB">
<feFlood flood-opacity="0" result="BackgroundImageFix"/>
<feGaussianBlur in="BackgroundImageFix" stdDeviation="4"/>
<feComposite in2="SourceAlpha" operator="in" result="effect1_backgroundBlur_77_854"/>
<feBlend mode="normal" in="SourceGraphic" in2="effect1_backgroundBlur_77_854" result="shape"/>
</filter>
<filter id="filter2_bd_77_854" x="-3.43182" y="-4" width="40.8683" height="25.6" filterUnits="userSpaceOnUse" color-interpolation-filters="sRGB">
<feFlood flood-opacity="0" result="BackgroundImageFix"/>
<feGaussianBlur in="BackgroundImageFix" stdDeviation="4"/>
<feComposite in2="SourceAlpha" operator="in" result="effect1_backgroundBlur_77_854"/>
<feColorMatrix in="SourceAlpha" type="matrix" values="0 0 0 0 0 0 0 0 0 0 0 0 0 0 0 0 0 0 127 0" result="hardAlpha"/>
<feOffset dy="4"/>
<feGaussianBlur stdDeviation="2"/>
<feComposite in2="hardAlpha" operator="out"/>
<feColorMatrix type="matrix" values="0 0 0 0 0 0 0 0 0 0 0 0 0 0 0 0 0 0 0.08 0"/>
<feBlend mode="normal" in2="effect1_backgroundBlur_77_854" result="effect2_dropShadow_77_854"/>
<feBlend mode="normal" in="SourceGraphic" in2="effect2_dropShadow_77_854" result="shape"/>
</filter>
<linearGradient id="paint0_linear_77_854" x1="22.6008" y1="28.8008" x2="22.6008" y2="19.6008" gradientUnits="userSpaceOnUse">
<stop stop-color="white" stop-opacity="0.64"/>
<stop offset="0.438454" stop-color="white" stop-opacity="0.4"/>
<stop offset="1" stop-color="white" stop-opacity="0"/>
<stop offset="1" stop-color="white" stop-opacity="0"/>
</linearGradient>
<linearGradient id="paint1_linear_77_854" x1="3.30302" y1="22.1823" x2="28.6382" y2="29.4107" gradientUnits="userSpaceOnUse">
<stop stop-color="white" stop-opacity="0.08"/>
<stop offset="1" stop-color="white" stop-opacity="0"/>
</linearGradient>
<linearGradient id="paint2_linear_77_854" x1="22.6008" y1="22.4004" x2="22.6008" y2="13.2004" gradientUnits="userSpaceOnUse">
<stop stop-color="white" stop-opacity="0.64"/>
<stop offset="0.438454" stop-color="white" stop-opacity="0.4"/>
<stop offset="1" stop-color="white" stop-opacity="0"/>
<stop offset="1" stop-color="white" stop-opacity="0"/>
</linearGradient>
<linearGradient id="paint3_linear_77_854" x1="3.30302" y1="15.7819" x2="28.6382" y2="23.0103" gradientUnits="userSpaceOnUse">
<stop stop-color="white" stop-opacity="0.08"/>
<stop offset="1" stop-color="white" stop-opacity="0"/>
</linearGradient>
<linearGradient id="paint4_linear_77_854" x1="22.6008" y1="16" x2="22.6008" y2="3.2" gradientUnits="userSpaceOnUse">
<stop stop-color="white" stop-opacity="0.64"/>
<stop offset="0.438454" stop-color="white" stop-opacity="0.4"/>
<stop offset="1" stop-color="white" stop-opacity="0"/>
<stop offset="1" stop-color="white" stop-opacity="0"/>
</linearGradient>
<linearGradient id="paint5_linear_77_854" x1="3.30302" y1="9.38153" x2="28.6382" y2="16.6099" gradientUnits="userSpaceOnUse">
<stop stop-color="white" stop-opacity="0.08"/>
<stop offset="1" stop-color="white" stop-opacity="0"/>
</linearGradient>
</defs>
</svg>
