<svg width="40" height="40" viewBox="0 0 40 40" fill="none" xmlns="http://www.w3.org/2000/svg">
<g filter="url(#filter0_bi_1417_6761)">
<mask id="path-1-inside-1_1417_6761" fill="white">
<path fill-rule="evenodd" clip-rule="evenodd" d="M18.5143 21.1322C20.8723 19.9369 22.4858 17.5104 22.4858 14.7115C22.4858 10.7287 19.2185 7.5 15.1882 7.5C11.1579 7.5 7.89062 10.7287 7.89062 14.7115C7.89062 17.4494 9.43455 19.8309 11.709 21.0523C11.3982 21.1585 11.0914 21.28 10.7895 21.4164C9.45492 22.0194 8.24229 22.9033 7.22085 24.0176C6.1994 25.132 5.38915 26.4548 4.83635 27.9107C4.28355 29.3666 3.99902 30.9271 3.99902 32.5029L14.999 32.5029H25.999C25.999 30.9271 25.7145 29.3666 25.1617 27.9107C24.6089 26.4548 23.7986 25.132 22.7772 24.0176C21.7558 22.9033 20.5431 22.0194 19.2085 21.4164C18.9798 21.313 18.7482 21.2183 18.5143 21.1322Z"/>
</mask>
<path fill-rule="evenodd" clip-rule="evenodd" d="M18.5143 21.1322C20.8723 19.9369 22.4858 17.5104 22.4858 14.7115C22.4858 10.7287 19.2185 7.5 15.1882 7.5C11.1579 7.5 7.89062 10.7287 7.89062 14.7115C7.89062 17.4494 9.43455 19.8309 11.709 21.0523C11.3982 21.1585 11.0914 21.28 10.7895 21.4164C9.45492 22.0194 8.24229 22.9033 7.22085 24.0176C6.1994 25.132 5.38915 26.4548 4.83635 27.9107C4.28355 29.3666 3.99902 30.9271 3.99902 32.5029L14.999 32.5029H25.999C25.999 30.9271 25.7145 29.3666 25.1617 27.9107C24.6089 26.4548 23.7986 25.132 22.7772 24.0176C21.7558 22.9033 20.5431 22.0194 19.2085 21.4164C18.9798 21.313 18.7482 21.2183 18.5143 21.1322Z" fill="url(#paint0_linear_1417_6761)" fill-opacity="0.64"/>
<path d="M18.5143 21.1322L18.4012 20.9092L17.8894 21.1686L18.428 21.3668L18.5143 21.1322ZM11.709 21.0523L11.7899 21.2888L12.3324 21.1033L11.8272 20.832L11.709 21.0523ZM10.7895 21.4164L10.8924 21.6442L10.7895 21.4164ZM7.22085 24.0176L7.03656 23.8487L7.22085 24.0176ZM4.83635 27.9107L4.60263 27.822L4.60263 27.822L4.83635 27.9107ZM3.99902 32.5029H3.74902V32.7529H3.99902L3.99902 32.5029ZM14.999 32.5029V32.2529V32.5029ZM25.999 32.5029V32.7529H26.249V32.5029H25.999ZM25.1617 27.9107L24.928 27.9995V27.9995L25.1617 27.9107ZM22.7772 24.0176L22.5929 24.1866L22.7772 24.0176ZM19.2085 21.4164L19.1056 21.6442L19.2085 21.4164ZM22.2358 14.7115C22.2358 17.4115 20.6795 19.7543 18.4012 20.9092L18.6273 21.3552C21.065 20.1195 22.7358 17.6094 22.7358 14.7115H22.2358ZM15.1882 7.75C19.0833 7.75 22.2358 10.8696 22.2358 14.7115H22.7358C22.7358 10.5879 19.3538 7.25 15.1882 7.25V7.75ZM8.14062 14.7115C8.14062 10.8696 11.2931 7.75 15.1882 7.75V7.25C11.0226 7.25 7.64062 10.5879 7.64062 14.7115H8.14062ZM11.8272 20.832C9.62972 19.652 8.14062 17.3526 8.14062 14.7115H7.64062C7.64062 17.5462 9.23939 20.0099 11.5907 21.2725L11.8272 20.832ZM11.6281 20.8157C11.3098 20.9245 10.9956 21.0489 10.6866 21.1886L10.8924 21.6442C11.1872 21.511 11.4866 21.3925 11.7899 21.2888L11.6281 20.8157ZM10.6866 21.1886C9.32016 21.806 8.0801 22.7103 7.03656 23.8487L7.40514 24.1866C8.40448 23.0964 9.58969 22.2329 10.8924 21.6442L10.6866 21.1886ZM7.03656 23.8487C5.99306 24.9871 5.16633 26.3374 4.60263 27.822L5.07007 27.9995C5.61197 26.5723 6.40575 25.2768 7.40514 24.1866L7.03656 23.8487ZM4.60263 27.822C4.03893 29.3066 3.74902 30.8971 3.74902 32.5029H4.24902C4.24902 30.957 4.52816 29.4267 5.07007 27.9995L4.60263 27.822ZM3.99902 32.7529L14.999 32.7529V32.2529L3.99902 32.2529L3.99902 32.7529ZM14.999 32.7529H25.999V32.2529H14.999V32.7529ZM26.249 32.5029C26.249 30.8971 25.9591 29.3066 25.3954 27.822L24.928 27.9995C25.4699 29.4267 25.749 30.957 25.749 32.5029H26.249ZM25.3954 27.822C24.8317 26.3374 24.005 24.9871 22.9615 23.8487L22.5929 24.1866C23.5923 25.2768 24.3861 26.5723 24.928 27.9995L25.3954 27.822ZM22.9615 23.8487C21.9179 22.7103 20.6779 21.806 19.3115 21.1886L19.1056 21.6442C20.4084 22.2329 21.5936 23.0964 22.5929 24.1866L22.9615 23.8487ZM19.3115 21.1886C19.0773 21.0827 18.8402 20.9857 18.6006 20.8975L18.428 21.3668C18.6563 21.4508 18.8823 21.5433 19.1056 21.6442L19.3115 21.1886Z" fill="url(#paint1_linear_1417_6761)" mask="url(#path-1-inside-1_1417_6761)"/>
</g>
<g filter="url(#filter1_bi_1417_6761)">
<mask id="path-3-inside-2_1417_6761" fill="white">
<path fill-rule="evenodd" clip-rule="evenodd" d="M28.5143 21.1322C30.8723 19.9369 32.4858 17.5104 32.4858 14.7115C32.4858 10.7287 29.2185 7.5 25.1882 7.5C21.1579 7.5 17.8906 10.7287 17.8906 14.7115C17.8906 17.4494 19.4346 19.8309 21.709 21.0523C21.3982 21.1585 21.0914 21.28 20.7895 21.4164C19.4549 22.0194 18.2423 22.9033 17.2208 24.0176C16.1994 25.132 15.3891 26.4548 14.8363 27.9107C14.2835 29.3666 13.999 30.9271 13.999 32.5029L24.999 32.5029H35.999C35.999 30.9271 35.7145 29.3666 35.1617 27.9107C34.6089 26.4548 33.7986 25.132 32.7772 24.0176C31.7558 22.9033 30.5431 22.0194 29.2085 21.4164C28.9798 21.313 28.7482 21.2183 28.5143 21.1322Z"/>
</mask>
<path fill-rule="evenodd" clip-rule="evenodd" d="M28.5143 21.1322C30.8723 19.9369 32.4858 17.5104 32.4858 14.7115C32.4858 10.7287 29.2185 7.5 25.1882 7.5C21.1579 7.5 17.8906 10.7287 17.8906 14.7115C17.8906 17.4494 19.4346 19.8309 21.709 21.0523C21.3982 21.1585 21.0914 21.28 20.7895 21.4164C19.4549 22.0194 18.2423 22.9033 17.2208 24.0176C16.1994 25.132 15.3891 26.4548 14.8363 27.9107C14.2835 29.3666 13.999 30.9271 13.999 32.5029L24.999 32.5029H35.999C35.999 30.9271 35.7145 29.3666 35.1617 27.9107C34.6089 26.4548 33.7986 25.132 32.7772 24.0176C31.7558 22.9033 30.5431 22.0194 29.2085 21.4164C28.9798 21.313 28.7482 21.2183 28.5143 21.1322Z" fill="url(#paint2_linear_1417_6761)" fill-opacity="0.64"/>
<path d="M28.5143 21.1322L28.4012 20.9092L27.8894 21.1686L28.428 21.3668L28.5143 21.1322ZM21.709 21.0523L21.7899 21.2888L22.3324 21.1033L21.8272 20.832L21.709 21.0523ZM20.7895 21.4164L20.8925 21.6442L20.7895 21.4164ZM17.2208 24.0176L17.0366 23.8487L17.2208 24.0176ZM14.8363 27.9107L14.6026 27.822L14.6026 27.822L14.8363 27.9107ZM13.999 32.5029H13.749V32.7529H13.999L13.999 32.5029ZM24.999 32.5029V32.2529V32.5029ZM35.999 32.5029V32.7529H36.249V32.5029H35.999ZM35.1617 27.9107L34.928 27.9995V27.9995L35.1617 27.9107ZM32.7772 24.0176L32.9615 23.8487L32.7772 24.0176ZM29.2085 21.4164L29.1056 21.6442L29.2085 21.4164ZM32.2358 14.7115C32.2358 17.4115 30.6795 19.7543 28.4012 20.9092L28.6273 21.3552C31.065 20.1195 32.7358 17.6094 32.7358 14.7115H32.2358ZM25.1882 7.75C29.0833 7.75 32.2358 10.8696 32.2358 14.7115H32.7358C32.7358 10.5879 29.3538 7.25 25.1882 7.25V7.75ZM18.1406 14.7115C18.1406 10.8696 21.2931 7.75 25.1882 7.75V7.25C21.0226 7.25 17.6406 10.5879 17.6406 14.7115H18.1406ZM21.8272 20.832C19.6297 19.652 18.1406 17.3526 18.1406 14.7115H17.6406C17.6406 17.5462 19.2394 20.0099 21.5907 21.2725L21.8272 20.832ZM21.6281 20.8157C21.3098 20.9245 20.9956 21.0489 20.6866 21.1886L20.8925 21.6442C21.1872 21.511 21.4866 21.3925 21.7899 21.2888L21.6281 20.8157ZM20.6866 21.1886C19.3202 21.806 18.0801 22.7103 17.0366 23.8487L17.4051 24.1866C18.4045 23.0964 19.5897 22.2329 20.8925 21.6442L20.6866 21.1886ZM17.0366 23.8487C15.9931 24.9871 15.1663 26.3374 14.6026 27.822L15.0701 27.9995C15.612 26.5723 16.4058 25.2768 17.4051 24.1866L17.0366 23.8487ZM14.6026 27.822C14.0389 29.3066 13.749 30.8971 13.749 32.5029H14.249C14.249 30.957 14.5282 29.4267 15.0701 27.9995L14.6026 27.822ZM13.999 32.7529L24.999 32.7529V32.2529L13.999 32.2529L13.999 32.7529ZM24.999 32.7529H35.999V32.2529H24.999V32.7529ZM36.249 32.5029C36.249 30.8971 35.9591 29.3066 35.3954 27.822L34.928 27.9995C35.4699 29.4267 35.749 30.957 35.749 32.5029H36.249ZM35.3954 27.822C34.8317 26.3374 34.005 24.9871 32.9615 23.8487L32.5929 24.1866C33.5923 25.2768 34.3861 26.5723 34.928 27.9995L35.3954 27.822ZM32.9615 23.8487C31.9179 22.7103 30.6779 21.806 29.3115 21.1886L29.1056 21.6442C30.4084 22.2329 31.5936 23.0964 32.5929 24.1866L32.9615 23.8487ZM29.3115 21.1886C29.0773 21.0827 28.8402 20.9857 28.6006 20.8975L28.428 21.3668C28.6563 21.4508 28.8823 21.5433 29.1056 21.6442L29.3115 21.1886Z" fill="url(#paint3_linear_1417_6761)" mask="url(#path-3-inside-2_1417_6761)"/>
</g>
<defs>
<filter id="filter0_bi_1417_6761" x="-1.33431" y="2.16667" width="32.6667" height="35.6696" filterUnits="userSpaceOnUse" color-interpolation-filters="sRGB">
<feFlood flood-opacity="0" result="BackgroundImageFix"/>
<feGaussianBlur in="BackgroundImageFix" stdDeviation="2.66667"/>
<feComposite in2="SourceAlpha" operator="in" result="effect1_backgroundBlur_1417_6761"/>
<feBlend mode="normal" in="SourceGraphic" in2="effect1_backgroundBlur_1417_6761" result="shape"/>
<feColorMatrix in="SourceAlpha" type="matrix" values="0 0 0 0 0 0 0 0 0 0 0 0 0 0 0 0 0 0 127 0" result="hardAlpha"/>
<feOffset dy="2"/>
<feGaussianBlur stdDeviation="2"/>
<feComposite in2="hardAlpha" operator="arithmetic" k2="-1" k3="1"/>
<feColorMatrix type="matrix" values="0 0 0 0 1 0 0 0 0 1 0 0 0 0 1 0 0 0 0.08 0"/>
<feBlend mode="normal" in2="shape" result="effect2_innerShadow_1417_6761"/>
</filter>
<filter id="filter1_bi_1417_6761" x="8.66569" y="2.16667" width="32.6667" height="35.6696" filterUnits="userSpaceOnUse" color-interpolation-filters="sRGB">
<feFlood flood-opacity="0" result="BackgroundImageFix"/>
<feGaussianBlur in="BackgroundImageFix" stdDeviation="2.66667"/>
<feComposite in2="SourceAlpha" operator="in" result="effect1_backgroundBlur_1417_6761"/>
<feBlend mode="normal" in="SourceGraphic" in2="effect1_backgroundBlur_1417_6761" result="shape"/>
<feColorMatrix in="SourceAlpha" type="matrix" values="0 0 0 0 0 0 0 0 0 0 0 0 0 0 0 0 0 0 127 0" result="hardAlpha"/>
<feOffset dy="2"/>
<feGaussianBlur stdDeviation="2"/>
<feComposite in2="hardAlpha" operator="arithmetic" k2="-1" k3="1"/>
<feColorMatrix type="matrix" values="0 0 0 0 1 0 0 0 0 1 0 0 0 0 1 0 0 0 0.08 0"/>
<feBlend mode="normal" in2="shape" result="effect2_innerShadow_1417_6761"/>
</filter>
<linearGradient id="paint0_linear_1417_6761" x1="6.6221" y1="7.5" x2="25.3582" y2="34.5623" gradientUnits="userSpaceOnUse">
<stop stop-color="#FD366E" stop-opacity="0.4"/>
<stop offset="0.432292" stop-color="#FD366E" stop-opacity="0.4"/>
<stop offset="1" stop-color="#FD366E" stop-opacity="0"/>
</linearGradient>
<linearGradient id="paint1_linear_1417_6761" x1="3.91869" y1="21.5161" x2="25.9058" y2="23.4642" gradientUnits="userSpaceOnUse">
<stop stop-color="white" stop-opacity="0.08"/>
<stop offset="1" stop-color="white" stop-opacity="0"/>
</linearGradient>
<linearGradient id="paint2_linear_1417_6761" x1="16.6221" y1="7.5" x2="35.3582" y2="34.5623" gradientUnits="userSpaceOnUse">
<stop stop-color="#FD366E" stop-opacity="0"/>
<stop offset="0.432292" stop-color="#FD366E" stop-opacity="0.64"/>
<stop offset="1" stop-color="#FD366E" stop-opacity="0"/>
</linearGradient>
<linearGradient id="paint3_linear_1417_6761" x1="13.9187" y1="21.5161" x2="35.9058" y2="23.4642" gradientUnits="userSpaceOnUse">
<stop stop-color="white" stop-opacity="0.08"/>
<stop offset="1" stop-color="white" stop-opacity="0"/>
</linearGradient>
</defs>
</svg>
