<svg width="32" height="32" viewBox="0 0 32 32" fill="none" xmlns="http://www.w3.org/2000/svg">
<g clip-path="url(#clip0_77_853)">
<g filter="url(#filter0_bdi_77_853)">
<rect x="14.3984" y="4" width="24" height="11.2" rx="4" transform="rotate(90 14.3984 4)" fill="url(#paint0_linear_77_853)" fill-opacity="0.32" shape-rendering="crispEdges"/>
<rect x="14.2734" y="4.125" width="23.75" height="10.95" rx="3.875" transform="rotate(90 14.2734 4.125)" stroke="url(#paint1_linear_77_853)" stroke-width="0.25" shape-rendering="crispEdges"/>
</g>
<g filter="url(#filter1_bdi_77_853)">
<path d="M20.5684 6.40039C23.1298 6.40039 24.4106 6.40039 25.3285 6.92101C26.1343 7.37798 26.7565 8.10044 27.0889 8.96506C27.4675 9.9501 27.2776 11.2167 26.8976 13.7498L26.4176 16.9498C26.1275 18.8836 25.9825 19.8505 25.511 20.5773C25.0955 21.2178 24.5053 21.726 23.8103 22.0419C23.0216 22.4004 22.0438 22.4004 20.0884 22.4004L17.0316 22.4004C14.4702 22.4004 13.1894 22.4004 12.2715 21.8798C11.4657 21.4228 10.8435 20.7003 10.5111 19.8357C10.1325 18.8507 10.3224 17.5841 10.7024 15.051L11.1824 11.851C11.4725 9.9172 11.6175 8.95029 12.089 8.2235C12.5045 7.58297 13.0947 7.07473 13.7897 6.75883C14.5784 6.40039 15.5562 6.40039 17.5116 6.40039L20.5684 6.40039Z" fill="url(#paint2_linear_77_853)" fill-opacity="0.32" shape-rendering="crispEdges"/>
<path d="M20.5684 6.52539C21.8513 6.52539 22.8056 6.5255 23.554 6.59001C24.3013 6.65441 24.8304 6.78222 25.2669 7.02974C26.0474 7.47243 26.6502 8.17231 26.9722 9.00992C27.1522 9.47824 27.2001 10.0205 27.153 10.769C27.1057 11.5188 26.9643 12.4625 26.774 13.7312L26.294 16.9312C26.1487 17.9 26.0406 18.6197 25.9105 19.1883C25.7807 19.7553 25.6308 20.163 25.4061 20.5093C25.0036 21.1298 24.4319 21.6221 23.7585 21.9281C23.3828 22.0989 22.9574 22.1867 22.3774 22.2309C21.7958 22.2753 21.068 22.2754 20.0884 22.2754L17.0316 22.2754C15.7487 22.2754 14.7944 22.2753 14.046 22.2108C13.2987 22.1464 12.7696 22.0186 12.3331 21.771C11.5526 21.3284 10.9498 20.6285 10.6278 19.7909C10.4478 19.3225 10.3999 18.7803 10.447 18.0317C10.4943 17.282 10.6357 16.3383 10.826 15.0696L11.306 11.8696C11.4513 10.9008 11.5594 10.1811 11.6895 9.61251C11.8193 9.04546 11.9692 8.63778 12.1939 8.29153C12.5964 7.67101 13.1681 7.17866 13.8415 6.87263C14.2172 6.70186 14.6426 6.61407 15.2226 6.56983C15.8042 6.52547 16.532 6.52539 17.5116 6.52539L20.5684 6.52539Z" stroke="url(#paint3_linear_77_853)" stroke-width="0.25" shape-rendering="crispEdges"/>
</g>
<g filter="url(#filter2_bdi_77_853)">
<path d="M21.5373 10.4004C24.047 10.4004 25.3019 10.4004 26.2107 10.9077C27.0087 11.3531 27.6301 12.0583 27.9715 12.906C28.3603 13.8714 28.2023 15.1163 27.8864 17.6061L27.2773 22.4061C27.0259 24.387 26.9002 25.3775 26.4328 26.1238C26.0209 26.7813 25.4268 27.3048 24.7226 27.6306C23.9235 28.0004 22.925 28.0004 20.9282 28.0004L10.008 28.0004C7.49827 28.0004 6.24341 28.0004 5.33461 27.4931C4.53664 27.0477 3.91525 26.3425 3.57383 25.4948C3.185 24.5294 3.34297 23.2845 3.65891 20.7947L4.26802 15.9947C4.5194 14.0138 4.64508 13.0233 5.11253 12.277C5.52438 11.6195 6.11856 11.096 6.82268 10.7702C7.62184 10.4004 8.62026 10.4004 10.6171 10.4004L21.5373 10.4004Z" fill="url(#paint4_linear_77_853)" fill-opacity="0.32" shape-rendering="crispEdges"/>
<path d="M21.5373 10.5254C22.7944 10.5254 23.7292 10.5255 24.4637 10.5883C25.1969 10.6511 25.7176 10.7756 26.1498 11.0168C26.9228 11.4483 27.5248 12.1315 27.8555 12.9527C28.0404 13.4118 28.0984 13.944 28.0683 14.6793C28.0382 15.4158 27.9206 16.3433 27.7624 17.5903L27.1533 22.3903C27.0274 23.3827 26.9337 24.12 26.8136 24.7027C26.6939 25.2839 26.5495 25.7019 26.3268 26.0574C25.9279 26.6944 25.3523 27.2015 24.6701 27.5172C24.2895 27.6933 23.8566 27.7839 23.2649 27.8295C22.6717 27.8753 21.9286 27.8754 20.9282 27.8754L10.008 27.8754C8.75094 27.8754 7.81607 27.8753 7.08161 27.8124C6.34841 27.7497 5.82769 27.6252 5.39553 27.384C4.6225 26.9525 4.02053 26.2693 3.68978 25.4481C3.50488 24.989 3.44691 24.4567 3.47697 23.7215C3.50709 22.9849 3.62467 22.0575 3.78292 20.8104L4.39202 16.0104C4.51796 15.0181 4.6116 14.2808 4.73168 13.6981C4.85144 13.1169 4.99579 12.6989 5.21846 12.3434C5.61744 11.7064 6.19305 11.1992 6.87517 10.8836C7.25585 10.7075 7.68874 10.6169 8.28038 10.5712C8.87356 10.5255 9.61676 10.5254 10.6171 10.5254L21.5373 10.5254Z" stroke="url(#paint5_linear_77_853)" stroke-width="0.25" shape-rendering="crispEdges"/>
</g>
</g>
<defs>
<filter id="filter0_bdi_77_853" x="-2.13491" y="-6" width="28.5333" height="40" filterUnits="userSpaceOnUse" color-interpolation-filters="sRGB">
<feFlood flood-opacity="0" result="BackgroundImageFix"/>
<feGaussianBlur in="BackgroundImageFix" stdDeviation="2.66667"/>
<feComposite in2="SourceAlpha" operator="in" result="effect1_backgroundBlur_77_853"/>
<feColorMatrix in="SourceAlpha" type="matrix" values="0 0 0 0 0 0 0 0 0 0 0 0 0 0 0 0 0 0 127 0" result="hardAlpha"/>
<feOffset dx="4" dy="-2"/>
<feGaussianBlur stdDeviation="4"/>
<feComposite in2="hardAlpha" operator="out"/>
<feColorMatrix type="matrix" values="0 0 0 0 0 0 0 0 0 0 0 0 0 0 0 0 0 0 0.06 0"/>
<feBlend mode="normal" in2="effect1_backgroundBlur_77_853" result="effect2_dropShadow_77_853"/>
<feBlend mode="normal" in="SourceGraphic" in2="effect2_dropShadow_77_853" result="shape"/>
<feColorMatrix in="SourceAlpha" type="matrix" values="0 0 0 0 0 0 0 0 0 0 0 0 0 0 0 0 0 0 127 0" result="hardAlpha"/>
<feOffset dy="4"/>
<feGaussianBlur stdDeviation="1.5"/>
<feComposite in2="hardAlpha" operator="arithmetic" k2="-1" k3="1"/>
<feColorMatrix type="matrix" values="0 0 0 0 1 0 0 0 0 1 0 0 0 0 1 0 0 0 0.08 0"/>
<feBlend mode="normal" in2="shape" result="effect3_innerShadow_77_853"/>
</filter>
<filter id="filter1_bdi_77_853" x="4.30499" y="0.400391" width="28.3233" height="27.3333" filterUnits="userSpaceOnUse" color-interpolation-filters="sRGB">
<feFlood flood-opacity="0" result="BackgroundImageFix"/>
<feGaussianBlur in="BackgroundImageFix" stdDeviation="2.66667"/>
<feComposite in2="SourceAlpha" operator="in" result="effect1_backgroundBlur_77_853"/>
<feColorMatrix in="SourceAlpha" type="matrix" values="0 0 0 0 0 0 0 0 0 0 0 0 0 0 0 0 0 0 127 0" result="hardAlpha"/>
<feOffset dx="-2" dy="-2"/>
<feGaussianBlur stdDeviation="2"/>
<feComposite in2="hardAlpha" operator="out"/>
<feColorMatrix type="matrix" values="0 0 0 0 0 0 0 0 0 0 0 0 0 0 0 0 0 0 0.16 0"/>
<feBlend mode="normal" in2="effect1_backgroundBlur_77_853" result="effect2_dropShadow_77_853"/>
<feBlend mode="normal" in="SourceGraphic" in2="effect2_dropShadow_77_853" result="shape"/>
<feColorMatrix in="SourceAlpha" type="matrix" values="0 0 0 0 0 0 0 0 0 0 0 0 0 0 0 0 0 0 127 0" result="hardAlpha"/>
<feOffset dy="4"/>
<feGaussianBlur stdDeviation="1.5"/>
<feComposite in2="hardAlpha" operator="arithmetic" k2="-1" k3="1"/>
<feColorMatrix type="matrix" values="0 0 0 0 1 0 0 0 0 1 0 0 0 0 1 0 0 0 0.08 0"/>
<feBlend mode="normal" in2="shape" result="effect3_innerShadow_77_853"/>
</filter>
<filter id="filter2_bdi_77_853" x="-2.65552" y="0.400391" width="42.8564" height="33.6" filterUnits="userSpaceOnUse" color-interpolation-filters="sRGB">
<feFlood flood-opacity="0" result="BackgroundImageFix"/>
<feGaussianBlur in="BackgroundImageFix" stdDeviation="3"/>
<feComposite in2="SourceAlpha" operator="in" result="effect1_backgroundBlur_77_853"/>
<feColorMatrix in="SourceAlpha" type="matrix" values="0 0 0 0 0 0 0 0 0 0 0 0 0 0 0 0 0 0 127 0" result="hardAlpha"/>
<feOffset dx="4" dy="-2"/>
<feGaussianBlur stdDeviation="4"/>
<feComposite in2="hardAlpha" operator="out"/>
<feColorMatrix type="matrix" values="0 0 0 0 0 0 0 0 0 0 0 0 0 0 0 0 0 0 0.06 0"/>
<feBlend mode="normal" in2="effect1_backgroundBlur_77_853" result="effect2_dropShadow_77_853"/>
<feBlend mode="normal" in="SourceGraphic" in2="effect2_dropShadow_77_853" result="shape"/>
<feColorMatrix in="SourceAlpha" type="matrix" values="0 0 0 0 0 0 0 0 0 0 0 0 0 0 0 0 0 0 127 0" result="hardAlpha"/>
<feOffset dy="4"/>
<feGaussianBlur stdDeviation="1.5"/>
<feComposite in2="hardAlpha" operator="arithmetic" k2="-1" k3="1"/>
<feColorMatrix type="matrix" values="0 0 0 0 1 0 0 0 0 1 0 0 0 0 1 0 0 0 0.08 0"/>
<feBlend mode="normal" in2="shape" result="effect3_innerShadow_77_853"/>
</filter>
<linearGradient id="paint0_linear_77_853" x1="7.19844" y1="18" x2="32.3984" y2="7.6" gradientUnits="userSpaceOnUse">
<stop stop-color="white" stop-opacity="0.4"/>
<stop offset="0.432292" stop-color="white" stop-opacity="0.4"/>
<stop offset="1" stop-color="white" stop-opacity="0"/>
</linearGradient>
<linearGradient id="paint1_linear_77_853" x1="35.1984" y1="10.9176" x2="30.4801" y2="21.1436" gradientUnits="userSpaceOnUse">
<stop stop-color="white" stop-opacity="0.08"/>
<stop offset="1" stop-color="white" stop-opacity="0"/>
</linearGradient>
<linearGradient id="paint2_linear_77_853" x1="19.2" y1="-7.19961" x2="17.37" y2="17.9837" gradientUnits="userSpaceOnUse">
<stop stop-color="white" stop-opacity="0.4"/>
<stop offset="0.432292" stop-color="white" stop-opacity="0.4"/>
<stop offset="1" stop-color="white" stop-opacity="0"/>
</linearGradient>
<linearGradient id="paint3_linear_77_853" x1="16.6353" y1="20.2671" x2="7.74829" y2="10.1623" gradientUnits="userSpaceOnUse">
<stop stop-color="white" stop-opacity="0.08"/>
<stop offset="1" stop-color="white" stop-opacity="0"/>
</linearGradient>
<linearGradient id="paint4_linear_77_853" x1="27.9687" y1="19.0404" x2="2.5975" y2="9.2811" gradientUnits="userSpaceOnUse">
<stop stop-color="white" stop-opacity="0.4"/>
<stop offset="0.432292" stop-color="white" stop-opacity="0.4"/>
<stop offset="1" stop-color="white" stop-opacity="0"/>
</linearGradient>
<linearGradient id="paint5_linear_77_853" x1="11.8533" y1="25.4404" x2="1.32156" y2="12.5203" gradientUnits="userSpaceOnUse">
<stop stop-color="white" stop-opacity="0.08"/>
<stop offset="1" stop-color="white" stop-opacity="0"/>
</linearGradient>
<clipPath id="clip0_77_853">
<rect width="32" height="32" fill="white"/>
</clipPath>
</defs>
</svg>
