<svg xmlns="http://www.w3.org/2000/svg" fill="none" viewBox="0 0 279 229"><g filter="url(#filter0_bd_399_1519)"><rect width="269" height="219" x="5" y="3" fill="#fff" fill-opacity=".04" rx="8" shape-rendering="crispEdges"/></g><g clip-path="url(#clip0_399_1519)"><mask id="mask0_399_1519" width="427" height="222" x="-73" y="3" maskUnits="userSpaceOnUse" style="mask-type:alpha"><rect width="427" height="222" x="-73" y="3" fill="url(#paint0_radial_399_1519)" fill-opacity=".77"/></mask><g mask="url(#mask0_399_1519)"><path stroke="#fff" stroke-linecap="round" stroke-width=".392" d="M38.1934 -3L38.1934 217.995"/><path stroke="#fff" stroke-linecap="round" stroke-width=".392" d="M71.916 -3L71.916 217.995"/><path stroke="#fff" stroke-linecap="round" stroke-width=".392" d="M105.639 -3L105.639 217.995"/><path stroke="#fff" stroke-linecap="round" stroke-width=".392" d="M139.361 -3L139.361 217.995"/><path stroke="#fff" stroke-linecap="round" stroke-width=".392" d="M173.084 -3L173.084 217.995"/><path stroke="#fff" stroke-linecap="round" stroke-width=".392" d="M206.807 -3L206.807 217.995"/><path stroke="#fff" stroke-linecap="round" stroke-width=".392" d="M240.529 -3L240.529 217.995"/><path stroke="#fff" stroke-linecap="round" stroke-width=".392" d="M413 36.915L-14 36.915"/><path stroke="#fff" stroke-linecap="round" stroke-width=".392" d="M413 72.207L-14 72.207"/><path stroke="#fff" stroke-linecap="round" stroke-width=".392" d="M413 107.498L-14 107.498"/><path stroke="#fff" stroke-linecap="round" stroke-width=".392" d="M413 142.789L-14 142.789"/><path stroke="#fff" stroke-linecap="round" stroke-width=".392" d="M413 178.08L-14 178.08"/><path stroke="#fff" stroke-linecap="round" stroke-width=".392" d="M413 213.371L-14 213.371"/></g></g><defs><filter id="filter0_bd_399_1519" width="319.192" height="269.192" x="-20.096" y="-22.096" color-interpolation-filters="sRGB" filterUnits="userSpaceOnUse"><feFlood flood-opacity="0" result="BackgroundImageFix"/><feGaussianBlur in="BackgroundImageFix" stdDeviation="12.548"/><feComposite in2="SourceAlpha" operator="in" result="effect1_backgroundBlur_399_1519"/><feColorMatrix in="SourceAlpha" result="hardAlpha" type="matrix" values="0 0 0 0 0 0 0 0 0 0 0 0 0 0 0 0 0 0 127 0"/><feOffset dy="2.099"/><feGaussianBlur stdDeviation="2.099"/><feComposite in2="hardAlpha" operator="out"/><feColorMatrix type="matrix" values="0 0 0 0 0 0 0 0 0 0 0 0 0 0 0 0 0 0 0.02 0"/><feBlend in2="effect1_backgroundBlur_399_1519" mode="normal" result="effect2_dropShadow_399_1519"/><feBlend in="SourceGraphic" in2="effect2_dropShadow_399_1519" mode="normal" result="shape"/></filter><radialGradient id="paint0_radial_399_1519" cx="0" cy="0" r="1" gradientTransform="translate(124.777 124.545) rotate(142.804) scale(188.811 184.302)" gradientUnits="userSpaceOnUse"><stop stop-color="#FED367"/><stop offset="1" stop-color="#FED367" stop-opacity="0"/></radialGradient><clipPath id="clip0_399_1519"><rect width="269" height="222" fill="#fff" transform="translate(5 3)"/></clipPath></defs></svg>