<svg xmlns="http://www.w3.org/2000/svg" width="32" height="32" fill="none" viewBox="0 0 32 32"><path fill="#6C6C71" d="M23.3482 12.6536L25.8442 8.33056C25.8882 8.25656 25.9142 8.16656 25.9142 8.07056C25.9142 7.78356 25.6822 7.55156 25.3952 7.55156C25.2042 7.55156 25.0372 7.65456 24.9472 7.80856L24.9462 7.81056L22.4192 12.1876C20.5322 11.3206 18.3252 10.8146 16.0002 10.8146C13.6752 10.8146 11.4682 11.3206 9.48322 12.2276L9.58122 12.1876L7.05422 7.80956C6.96322 7.65356 6.79522 7.54956 6.60422 7.54956C6.31722 7.54956 6.08522 7.78156 6.08522 8.06856C6.08522 8.16456 6.11122 8.25356 6.15622 8.33056L6.15522 8.32856L8.65122 12.6516C4.36522 15.0186 1.41522 19.3486 1.00822 24.3956L1.00522 24.4476H30.9962C30.5862 19.3486 27.6362 15.0186 23.4262 12.6896L23.3502 12.6516L23.3482 12.6536ZM9.09622 20.1766C8.40622 20.1766 7.84722 19.6176 7.84722 18.9276C7.84722 18.2376 8.40622 17.6786 9.09622 17.6786C9.78622 17.6786 10.3452 18.2376 10.3452 18.9276C10.3442 19.6166 9.78622 20.1756 9.09622 20.1766ZM22.9002 20.1766C22.2102 20.1766 21.6512 19.6176 21.6512 18.9276C21.6512 18.2376 22.2102 17.6786 22.9002 17.6786C23.5902 17.6786 24.1492 18.2376 24.1492 18.9276C24.1482 19.6166 23.5902 20.1756 22.9002 20.1766Z"/></svg>