<svg xmlns="http://www.w3.org/2000/svg" width="32" height="32" fill="none" viewBox="0 0 32 32"><path fill="#6C6C71" fill-rule="evenodd" d="M19.8908 7.37755C20.8143 6.30723 21.4368 4.81649 21.2664 3.33325C19.9356 3.38392 18.3256 4.18337 17.3714 5.25242C16.5145 6.20114 15.7665 7.71704 15.9676 9.17116C17.4521 9.28135 18.9673 8.44912 19.8908 7.37755ZM23.2197 16.7916C23.2569 20.6257 26.7292 21.9011 26.7677 21.9176C26.7395 22.0075 26.213 23.7349 24.9386 25.5209C23.8358 27.0637 22.692 28.6002 20.8899 28.6331C19.1197 28.6648 18.5498 27.6275 16.5247 27.6275C14.501 27.6275 13.8683 28.6001 12.1929 28.6647C10.4535 28.7267 9.12785 26.9955 8.01736 25.4578C5.74514 22.3127 4.00959 16.57 6.34073 12.6941C7.49862 10.77 9.56718 9.54977 11.8138 9.51937C13.5211 9.4877 15.1337 10.6203 16.1776 10.6203C17.2215 10.6203 19.1812 9.25863 21.2408 9.45876C22.1028 9.49296 24.5236 9.79179 26.0773 11.9717C25.9518 12.0464 23.189 13.5869 23.2197 16.7916Z" clip-rule="evenodd"/></svg>