<svg width="32" height="32" viewBox="0 0 32 32" fill="none" xmlns="http://www.w3.org/2000/svg">
<path d="M28.8 21.9095V27.7467H14.2097C9.95894 27.7467 6.24742 25.3991 4.26168 21.9095C3.97301 21.4022 3.72035 20.87 3.50842 20.3176C3.09237 19.235 2.83084 18.0734 2.7515 16.8614V15.2833C2.76872 15.0132 2.79587 14.7452 2.83136 14.4804C2.90392 13.937 3.01355 13.4053 3.15762 12.8884C4.5206 7.98835 8.95249 4.39795 14.2097 4.39795C19.4669 4.39795 23.8983 7.98835 25.2612 12.8884H19.0227C17.9985 11.2911 16.2257 10.2351 14.2097 10.2351C12.1937 10.2351 10.4209 11.2911 9.39673 12.8884C9.08456 13.374 8.84235 13.9094 8.68366 14.4804C8.54271 14.9866 8.46754 15.5205 8.46754 16.0723C8.46754 17.7455 9.15973 19.2536 10.2695 20.3176C11.2979 21.3051 12.6844 21.9095 14.2097 21.9095H28.8Z" fill="#6C6C71"/>
<path d="M28.8 14.4805V20.3177H18.1499C19.2597 19.2537 19.9519 17.7456 19.9519 16.0724C19.9519 15.5206 19.8767 14.9867 19.7357 14.4805H28.8Z" fill="#6C6C71"/>
</svg>
