<svg width="32" height="32" viewBox="0 0 32 32" fill="none" xmlns="http://www.w3.org/2000/svg">
<path d="M20.6526 4.70932C20.4223 3.95092 20.3067 3.57126 20.08 3.28995C19.8802 3.04176 19.6202 2.849 19.3246 2.73013C18.9895 2.59518 18.5926 2.59518 17.7997 2.59518H14.1771C13.385 2.59518 12.988 2.59518 12.6541 2.7292C12.3586 2.84809 12.0985 3.04047 11.8982 3.28809C11.6726 3.56832 11.557 3.94547 11.3266 4.69717L6.25293 21.2861C8.15674 20.2987 10.2006 19.6087 12.3133 19.2402L15.5597 8.14213C15.5854 8.0533 15.6393 7.97523 15.7132 7.91963C15.7871 7.86404 15.877 7.83392 15.9695 7.83382C16.062 7.83371 16.152 7.86362 16.2261 7.91905C16.3001 7.97448 16.3541 8.05243 16.3801 8.1412L19.6658 19.2458C21.7694 19.6159 23.8041 20.3047 25.6999 21.2886L20.6526 4.70932Z" fill="#6C6C71"/>
<path d="M16.278 23.2744C18.1908 23.2744 19.8516 22.7892 20.6837 22.0772C20.7974 22.434 20.8551 22.8063 20.8547 23.1807C20.8554 23.7838 20.7052 24.3775 20.4177 24.9078C19.8852 25.8918 19.1114 26.3826 18.4148 26.824L18.4142 26.8244C17.5386 27.3796 16.7861 27.8568 16.7861 29.1402C16.7857 29.5519 16.8791 29.9582 17.0593 30.3284C15.8902 29.8422 15.0682 28.6895 15.0682 27.344V27.2657C15.0691 26.3789 15.0698 25.2874 13.8183 25.2874C13.6447 25.2874 13.4728 25.3215 13.3124 25.388C13.152 25.4544 13.0063 25.5517 12.8835 25.6745C12.7608 25.7972 12.6634 25.9429 12.597 26.1033C12.5305 26.2636 12.4963 26.4355 12.4963 26.6091C11.0898 25.2026 11.2126 23.1807 11.2126 23.1807C11.2126 22.7682 11.2546 22.1236 11.441 21.56C11.9628 22.5433 13.9311 23.2744 16.278 23.2744Z" fill="#6C6C71"/>
</svg>
