<svg xmlns="http://www.w3.org/2000/svg" width="32" height="32" fill="none" viewBox="0 0 32 32"><path fill="#6C6C71" fill-rule="evenodd" d="M21.318 8.16436L19.6993 8.16433L19.6712 8.1644L7.91423 8.16441L24.051 24.8217L28 24.8217V14.6045L21.8991 8.52581C21.7057 8.32518 21.518 8.219 21.318 8.16436ZM20.3413 7.09035C20.39 7.08707 20.4397 7.08384 20.4902 7.08093L18.0158 4.54368C17.8614 4.43219 17.6122 4.29719 17.3187 4.18808C17.0067 4.07209 16.6837 4 16.4108 4C15.8383 4 15.3269 4.0892 15.0359 4.22018L8.95576 7.12332L19.6712 7.12331C19.8625 7.12331 20.0476 7.11055 20.2479 7.09675L20.3413 7.09035ZM23.3152 25.5536L7.17807 8.92751V23.0578L12.9249 29.3333L23.3152 29.3334V25.5536ZM2.89533 16.6127C2.78651 16.9187 2.66669 17.3843 2.66669 17.6373C2.66669 18.1991 2.99551 18.7195 3.4085 19.2751L6.13698 22.0035V9.91441L2.89533 16.6127Z" clip-rule="evenodd"/></svg>