<svg width="32" height="32" viewBox="0 0 32 32" fill="none" xmlns="http://www.w3.org/2000/svg">
<path fill-rule="evenodd" clip-rule="evenodd" d="M2 2H30V30H2V2ZM23.4044 25.4729C22.1067 25.4729 21.3729 24.796 20.8089 23.8751L18.6707 25.1173C19.4431 26.6436 21.0218 27.808 23.4653 27.808C25.9644 27.808 27.8253 26.5102 27.8253 24.1413C27.8253 21.944 26.5631 20.9667 24.3276 20.008L23.6698 19.7262C22.5409 19.2373 22.052 18.9178 22.052 18.1284C22.052 17.4898 22.5404 17.0009 23.3111 17.0009C24.0667 17.0009 24.5533 17.3196 25.0044 18.1284L27.0533 16.8129C26.1867 15.2884 24.984 14.7062 23.3111 14.7062C20.9613 14.7062 19.4578 16.2084 19.4578 18.1818C19.4578 20.324 20.7191 21.3373 22.6178 22.1462L23.2756 22.4284C24.4756 22.9533 25.1911 23.2729 25.1911 24.1751C25.1911 24.928 24.4947 25.4729 23.4044 25.4729ZM13.2076 25.4564C12.3036 25.4564 11.9276 24.8364 11.5142 24.1031L9.37244 25.3998C9.99289 26.7129 11.2129 27.8031 13.3196 27.8031C15.6511 27.8031 17.2484 26.5631 17.2484 23.8387V14.8564H14.6173V23.8031C14.6173 25.1182 14.072 25.4564 13.2076 25.4564Z" fill="#6C6C71"/>
</svg>
