<svg width="32" height="32" viewBox="0 0 32 32" fill="none" xmlns="http://www.w3.org/2000/svg">
<path d="M15.0689 8.95757C15.0474 9.02158 14.9472 9.01181 14.8902 9.03048C14.8392 9.05803 14.7977 9.10604 14.739 9.10604C14.6855 9.10604 14.5991 9.08382 14.5922 9.03048C14.5818 8.95757 14.6872 8.88289 14.7537 8.88289C14.7969 8.86156 14.847 8.85 14.8997 8.85C14.948 8.85 14.9938 8.85978 15.0353 8.87845L15.0327 8.87756C15.0517 8.88556 15.0655 8.90423 15.0655 8.92646C15.0655 8.92913 15.0655 8.9309 15.0646 8.93357V8.9558H15.0681L15.0689 8.95757ZM15.6632 8.95757V8.93357C15.6563 8.91134 15.677 8.88734 15.6943 8.87845C15.734 8.86067 15.7806 8.85 15.8299 8.85C15.8825 8.85 15.9326 8.86245 15.9767 8.88378L15.975 8.88289C16.0432 8.88289 16.1477 8.95757 16.1365 9.03314C16.1304 9.08737 16.0449 9.10604 15.9905 9.10604C15.9309 9.10604 15.8912 9.05803 15.8385 9.03048C15.7824 9.01003 15.6813 9.02158 15.6623 8.95846L15.6632 8.95757ZM16.8309 10.7161C16.3714 11.0157 15.8281 11.2264 15.246 11.3082L15.2253 11.3109C14.7019 11.2797 14.226 11.0904 13.8373 10.7881L13.8434 10.7925C13.6775 10.6441 13.5411 10.4947 13.4409 10.42C13.2638 10.2716 13.2854 10.0502 13.3614 10.0502C13.4789 10.068 13.5005 10.1987 13.5765 10.2725C13.6801 10.3454 13.8088 10.4947 13.9651 10.6423C14.308 10.9339 14.7416 11.1233 15.2175 11.1606L15.2253 11.1615C15.7901 11.1108 16.304 10.9241 16.748 10.6352L16.7342 10.6441C16.9449 10.4938 17.2144 10.2733 17.4337 10.1249C17.6022 9.97374 17.5944 9.82794 17.7352 9.82794C17.8734 9.84572 17.7723 9.97641 17.5763 10.1969C17.3638 10.364 17.1211 10.5356 16.8698 10.6948L16.8318 10.717L16.8309 10.7161ZM9.10425 20.7969H9.11461C9.17421 20.7969 9.23294 20.8031 9.28994 20.8138L9.2839 20.8129C9.75375 20.9373 10.1407 21.2378 10.3834 21.6406L10.3877 21.6486L11.3697 23.4969L11.3732 23.5004C11.7679 24.1877 12.192 24.7824 12.6661 25.331L12.6566 25.3194C13.0798 25.7817 13.3649 26.3827 13.4417 27.0495L13.4435 27.0637V27.0708C13.4331 27.7972 12.914 28.3964 12.2377 28.5075L12.23 28.5084C12.0572 28.5359 11.8569 28.5511 11.6539 28.5511C10.9137 28.5511 10.221 28.3439 9.62678 27.9821L9.64492 27.9927C8.73545 27.6007 7.68001 27.358 6.57448 27.3242H6.56152C6.24023 27.302 5.96039 27.133 5.78333 26.8832L5.7816 26.8806C5.73496 26.7259 5.70819 26.5481 5.70819 26.3631C5.70819 26.052 5.78419 25.7595 5.91893 25.5043L5.91461 25.5141V25.5097L5.9172 25.5061C5.95261 25.339 5.97334 25.146 5.97334 24.9487C5.97334 24.7051 5.94225 24.4695 5.88352 24.2455L5.88784 24.2641C5.85243 24.1308 5.8317 23.977 5.8317 23.8178C5.8317 23.6027 5.86884 23.3973 5.93793 23.2071L5.93448 23.2195C6.10722 22.8488 6.36201 22.775 6.67898 22.6274C7.05728 22.5092 7.38635 22.3305 7.6731 22.1002L7.66619 22.1055H7.66792V22.1029C7.9443 21.805 8.14813 21.4352 8.38911 21.1721C8.55753 20.9507 8.81404 20.8075 9.10338 20.7987H9.10511L9.10425 20.7969ZM20.7763 20.7426C20.7754 20.7578 20.7754 20.7764 20.7754 20.7951C20.7754 21.4557 21.1632 22.0229 21.7177 22.2691L21.7281 22.2736C21.7695 22.2762 21.8179 22.278 21.8662 22.278C22.584 22.278 23.2266 21.9482 23.6584 21.4272L23.661 21.4237L23.889 21.413C23.9348 21.4059 23.9875 21.4023 24.041 21.4023C24.3356 21.4023 24.6042 21.5197 24.8037 21.7117L24.8028 21.7108L24.8063 21.7144C25.0213 21.982 25.1708 22.3127 25.2269 22.6763L25.2286 22.6879C25.2761 23.1368 25.4342 23.5413 25.6751 23.8792L25.6708 23.8721C26.0301 24.1886 26.2797 24.6277 26.3557 25.1265L26.3575 25.138L26.3609 25.13V25.1496L26.3575 25.1363C26.3411 25.427 26.158 25.5763 25.8203 25.7977C24.7976 26.2396 23.9193 26.8272 23.1627 27.5473L23.1687 27.542C22.6436 28.2461 21.8723 28.7324 20.9896 28.8631L20.9715 28.8649C20.9075 28.8738 20.8333 28.8791 20.7581 28.8791C20.0948 28.8791 19.5248 28.4666 19.276 27.8781L19.2717 27.8674L19.2665 27.8638C19.1862 27.6096 19.1404 27.3171 19.1404 27.0139C19.1404 26.6441 19.2086 26.2911 19.3339 25.9666L19.327 25.9862C19.5291 25.3923 19.7027 24.6829 19.8176 23.9521L19.8271 23.8783C19.8409 23.1564 19.9169 22.462 20.0499 21.789L20.0378 21.8628C20.1112 21.4023 20.3669 21.0147 20.7236 20.7738L20.7296 20.7702L20.778 20.7462L20.7763 20.7426ZM18.4175 10.7908C18.9357 12.6995 19.574 14.3487 20.3582 15.909L20.29 15.7605C20.8194 16.7295 21.2314 17.8542 21.4672 19.0455L21.4793 19.1202C21.4871 19.1202 21.4966 19.1202 21.5061 19.1202C21.6935 19.1202 21.8749 19.1459 22.0476 19.1948L22.0329 19.1913C22.1279 18.8401 22.1824 18.4374 22.1824 18.0213C22.1824 16.7535 21.6754 15.6067 20.8583 14.7861L20.8574 14.7852C20.6199 14.563 20.607 14.4127 20.7244 14.4127C21.5631 15.2217 22.1832 16.2601 22.4907 17.4301L22.5011 17.4754C22.5779 17.7679 22.622 18.104 22.622 18.4507C22.622 18.7628 22.5866 19.0668 22.5192 19.3575L22.5244 19.3309C22.5883 19.3646 22.6626 19.3904 22.7412 19.4046L22.7464 19.4055C23.8605 19.9985 24.2716 20.4475 24.0739 21.1134V21.0654C24.0091 21.0618 23.9443 21.0654 23.8795 21.0654H23.8622C24.0255 20.5462 23.6662 20.1488 22.7127 19.7051C21.7255 19.2606 20.936 19.3317 20.8022 20.2217C20.7927 20.2652 20.7858 20.3159 20.7832 20.3684V20.371C20.7201 20.3977 20.645 20.4226 20.5672 20.4404L20.5577 20.4422C20.119 20.7409 19.8063 21.2058 19.7035 21.7481L19.7018 21.7606C19.574 22.3785 19.4937 23.0942 19.4807 23.8258V23.8365V23.8401C19.4021 24.4064 19.2821 24.9131 19.1197 25.3985L19.137 25.3399C18.2879 26.0546 17.1928 26.4867 15.9983 26.4867C15.0223 26.4867 14.112 26.1978 13.3441 25.6981L13.3649 25.7106C13.2388 25.4857 13.0945 25.291 12.9304 25.1176L12.9313 25.1185C12.8475 24.9762 12.7491 24.8544 12.6359 24.7495L12.6342 24.7486C12.813 24.7486 12.9857 24.7211 13.1489 24.6704L13.136 24.674C13.2915 24.5984 13.4106 24.4677 13.4737 24.3077L13.4754 24.3032C13.491 24.2206 13.5005 24.1263 13.5005 24.0294C13.5005 23.6338 13.3493 23.2755 13.1023 23.0106L13.1032 23.0115C12.5685 22.3349 11.9294 21.7713 11.2065 21.3401L11.1737 21.3223C10.5941 20.9774 10.1554 20.4377 9.93858 19.7914L9.93253 19.7718C9.85221 19.4891 9.80557 19.1637 9.80557 18.8277C9.80557 18.5138 9.84616 18.2098 9.92131 17.92L9.91612 17.944C10.2417 16.7758 10.7116 15.756 11.3153 14.8359L11.2911 14.8741C11.4069 14.8021 11.3309 15.0244 10.8506 15.9561C10.4413 16.59 10.1968 17.3696 10.1968 18.208C10.1968 18.9548 10.3903 19.6545 10.7289 20.2581L10.7185 20.2386C10.7634 19.0748 11.0165 17.9831 11.4388 16.9856L11.4172 17.0434C12.3284 15.3524 13.0185 13.3885 13.3821 11.3073L13.3994 11.1908C13.4512 11.2308 13.6335 11.3411 13.7112 11.4149C13.9461 11.5625 14.1215 11.7847 14.3478 11.9314C14.5784 12.1626 14.8945 12.3048 15.2417 12.3048C15.2598 12.3048 15.278 12.3048 15.2961 12.3039H15.2935C15.3358 12.3075 15.3747 12.311 15.4118 12.311C15.8083 12.303 16.1779 12.1937 16.4992 12.007L16.488 12.0132C16.8007 11.8647 17.0494 11.6425 17.2869 11.5687H17.2921C17.7542 11.4398 18.1411 11.1651 18.4149 10.7961L18.4184 10.7908H18.4175ZM15.3954 8.41082C15.398 8.41082 15.4006 8.41082 15.4032 8.41082C15.8946 8.41082 16.3481 8.57707 16.7134 8.858L16.7074 8.85356C17.0339 9.06159 17.4104 9.23851 17.8086 9.36386L17.8431 9.37275H17.8466C18.0591 9.47055 18.2344 9.62257 18.3596 9.81194L18.3622 9.81638V9.67058C18.402 9.75237 18.4261 9.84928 18.4261 9.95152C18.4261 10.0386 18.4089 10.1213 18.3786 10.1969L18.3804 10.1924C18.1316 10.6432 17.7283 10.9784 17.2463 11.1242L17.2325 11.1277V11.1295C16.9432 11.2797 16.6918 11.4993 16.3964 11.646C16.0942 11.8327 15.7305 11.943 15.341 11.943C15.3281 11.943 15.3151 11.943 15.3021 11.943H15.3039C15.2849 11.9438 15.2624 11.9447 15.24 11.9447C15.0897 11.9447 14.9446 11.9172 14.8116 11.8656L14.8202 11.8683C14.6829 11.7909 14.5697 11.718 14.46 11.6398L14.4721 11.6487C14.2761 11.4718 14.0601 11.302 13.8339 11.1464L13.8114 11.1322V11.1268H13.8062C13.4823 10.9499 13.2275 10.6788 13.0703 10.348L13.066 10.3374C13.0427 10.2778 13.0298 10.2084 13.0298 10.1364C13.0298 9.94263 13.1265 9.77193 13.2725 9.67236L13.2742 9.67147C13.516 9.52122 13.6844 9.37009 13.7959 9.29808C13.9081 9.21628 13.9505 9.18517 13.9859 9.15227H13.9876V9.14872C14.2191 8.84733 14.5257 8.61618 14.8789 8.4855L14.8927 8.48105C15.043 8.4366 15.2158 8.41082 15.3946 8.40904L15.3954 8.41082ZM13.9168 6.51539H13.9556C14.118 6.51895 14.2674 6.57495 14.3884 6.66653L14.3866 6.66475C14.5412 6.8061 14.6673 6.97769 14.7537 7.1715L14.7571 7.18128C14.8547 7.39909 14.9152 7.65247 14.9221 7.91918V7.92185V7.92629C14.9256 7.96719 14.9273 8.01431 14.9273 8.06142C14.9273 8.11743 14.9247 8.17344 14.9195 8.22856L14.9204 8.22145V8.31036C14.8884 8.31836 14.8599 8.32991 14.8306 8.33703C14.6656 8.40726 14.5265 8.48194 14.3944 8.5664L14.4065 8.55929C14.4134 8.51039 14.4169 8.45438 14.4169 8.39748C14.4169 8.35036 14.4143 8.30324 14.4091 8.25701L14.4099 8.26235V8.24545C14.3944 8.10854 14.3633 7.98319 14.3175 7.86495L14.321 7.87473C14.2856 7.75737 14.2234 7.6578 14.1422 7.57868C14.0947 7.53423 14.0316 7.50667 13.9617 7.50667C13.9556 7.50667 13.9496 7.50667 13.9435 7.50755H13.9444H13.922C13.833 7.51733 13.7587 7.57423 13.7216 7.65247L13.7207 7.65425C13.6542 7.73693 13.6084 7.83917 13.5912 7.95118V7.95474C13.5713 8.0312 13.5609 8.11921 13.5609 8.20989C13.5609 8.24901 13.5627 8.28813 13.567 8.32636V8.32191V8.3388C13.5808 8.47572 13.6119 8.60196 13.6568 8.71931L13.6533 8.70953C13.6896 8.82689 13.7509 8.92735 13.8321 9.00736C13.8425 9.01803 13.8546 9.02692 13.8684 9.03403H13.8693C13.7976 9.08115 13.7354 9.13094 13.6784 9.18606L13.6793 9.18517C13.6404 9.22073 13.5929 9.2474 13.5402 9.25985L13.5376 9.26074C13.4314 9.13005 13.3329 8.98336 13.2483 8.82866L13.2414 8.81444C13.1438 8.59662 13.0833 8.34414 13.0738 8.07654V8.07298C13.0703 8.03031 13.0686 7.98052 13.0686 7.92985C13.0686 7.71559 13.1023 7.50933 13.1636 7.31641L13.1602 7.33064C13.2241 7.10126 13.3286 6.90301 13.4676 6.73409L13.4659 6.73676C13.5756 6.6034 13.7363 6.51895 13.9168 6.5145H13.9176L13.9168 6.51539ZM17.1142 6.4496H17.128C17.1289 6.4496 17.1297 6.4496 17.1315 6.4496C17.369 6.4496 17.5866 6.53228 17.7611 6.67097L17.7585 6.66919C17.9563 6.82655 18.1152 7.02481 18.2266 7.25151L18.2309 7.26129C18.3354 7.49778 18.4002 7.77249 18.4097 8.06231V8.06587C18.4097 8.04364 18.4158 8.02142 18.4158 7.99919V8.11566L18.4115 8.09254L18.4071 8.06587C18.4045 8.35036 18.3458 8.61885 18.2404 8.86334L18.2456 8.85089C18.1921 8.9958 18.1143 9.12027 18.0159 9.2234C17.99 9.20739 17.958 9.19228 17.9261 9.17895L17.9209 9.17717C17.8043 9.13983 17.7024 9.08915 17.6099 9.02692L17.6143 9.02959C17.5478 9.00114 17.4683 8.97624 17.3862 8.95757L17.3767 8.9558C17.4467 8.88823 17.5115 8.81622 17.5711 8.73976L17.5745 8.73531C17.6289 8.60374 17.6626 8.45171 17.6695 8.29169V8.28902V8.26679C17.6695 8.25968 17.6695 8.25257 17.6695 8.24457C17.6695 8.09343 17.6454 7.94852 17.6004 7.81338L17.603 7.82316C17.5486 7.68181 17.4821 7.56001 17.4027 7.44888L17.4061 7.45332C17.331 7.37509 17.2316 7.32175 17.1202 7.30663H17.1176H17.1004C17.0995 7.30663 17.0978 7.30663 17.0969 7.30663C16.9829 7.30663 16.881 7.36442 16.8188 7.45243L16.8179 7.45332C16.7177 7.55378 16.6417 7.67825 16.5986 7.81783L16.5968 7.82405C16.5424 7.95474 16.507 8.10677 16.5001 8.26501V8.26768V8.28902C16.5018 8.3957 16.5096 8.49883 16.5234 8.59929L16.5217 8.58596C16.3135 8.51128 16.0492 8.43571 15.8661 8.36192C15.8558 8.29702 15.8489 8.22056 15.8471 8.14233V8.13966V8.11743C15.8463 8.09965 15.8463 8.07921 15.8463 8.05876C15.8463 7.77071 15.9059 7.49777 16.0138 7.25151L16.0086 7.26396C16.1002 7.01592 16.2617 6.81233 16.4681 6.67453L16.4725 6.67186C16.6486 6.53317 16.8723 6.4496 17.1142 6.4496ZM16.5433 2.66675C16.3757 2.66675 16.203 2.67564 16.0251 2.68986C11.4639 3.0597 12.6739 8.03031 12.604 9.68658C12.5608 10.9544 12.1427 12.1128 11.4596 13.0578L11.4708 13.0418C10.2556 14.466 9.26403 16.1303 8.57653 17.952L8.53939 18.0649C8.31656 18.6739 8.187 19.3771 8.187 20.1114C8.187 20.3648 8.20255 20.6146 8.23191 20.8591L8.22932 20.8298C8.18095 20.8707 8.14036 20.9205 8.11186 20.9774L8.111 20.98C7.83029 21.2778 7.6256 21.6468 7.39499 21.9117C7.15056 22.1047 6.86382 22.2567 6.55288 22.3509L6.53475 22.3554C6.13399 22.4789 5.80751 22.7483 5.60627 23.103L5.60195 23.111C5.51213 23.2995 5.45944 23.5209 5.45944 23.7556C5.45944 23.7645 5.45944 23.7725 5.45944 23.7814C5.46117 23.993 5.4819 24.1974 5.52249 24.3966L5.51904 24.3761C5.56741 24.5708 5.59504 24.7949 5.59504 25.0251C5.59504 25.1763 5.58295 25.3247 5.55963 25.4697L5.56136 25.4537C5.41712 25.7319 5.33334 26.0626 5.33334 26.4138C5.33334 26.661 5.3748 26.8975 5.45167 27.117L5.44735 27.1028C5.68314 27.4478 6.03985 27.6914 6.4527 27.7687L6.4622 27.7705C7.56255 27.8656 8.57912 28.1021 9.53782 28.4639L9.45664 28.4373C10.0595 28.8062 10.7859 29.024 11.5606 29.024C11.8145 29.024 12.0633 29.0009 12.3051 28.9556L12.2801 28.9591C12.8562 28.8249 13.326 28.4382 13.5791 27.9198L13.5842 27.9083C14.2182 27.9047 14.9118 27.6096 16.0233 27.5376C16.7773 27.4735 17.7222 27.8345 18.8044 27.7598C18.8364 27.9012 18.8787 28.0248 18.9323 28.1412L18.9271 28.1297L18.9305 28.1332C19.2622 28.848 19.9583 29.3334 20.765 29.3334C20.835 29.3334 20.9041 29.3299 20.9723 29.3227L20.9637 29.3236C21.9578 29.1725 22.8111 28.6409 23.3933 27.8807L23.3993 27.8727C24.1274 27.1899 24.9773 26.6272 25.9083 26.2253L25.9662 26.2031C26.3393 26.0333 26.6071 25.683 26.6658 25.2616L26.6667 25.2554C26.6157 24.6384 26.3281 24.1005 25.8997 23.7298L25.8963 23.7271V23.6196L25.8928 23.616C25.708 23.3226 25.5784 22.9741 25.5292 22.6007L25.5275 22.5874C25.4817 22.1313 25.2874 21.7286 24.9963 21.4254H24.9928C24.9289 21.3659 24.8598 21.3507 24.7899 21.2752C24.7329 21.2334 24.662 21.2076 24.5852 21.2041C24.7536 20.6689 24.8503 20.0536 24.8503 19.4144C24.8503 18.5787 24.6836 17.783 24.3831 17.0611L24.3977 17.1003C23.7897 15.6138 22.9994 14.3345 22.0381 13.2161L22.0502 13.2312C21.0958 12.2692 20.4714 10.9632 20.3677 9.50878L20.3669 9.49011C20.3954 7.09949 20.6217 2.67653 16.5415 2.6703L16.5433 2.66675Z" fill="#6C6C71"/>
</svg>
