<svg width="32" height="32" viewBox="0 0 32 32" fill="none" xmlns="http://www.w3.org/2000/svg">
<path fill-rule="evenodd" clip-rule="evenodd" d="M2 2H30V30H2V2ZM13.6179 19.7772H14.9048V12.5H13.7714V17.1891C13.7714 17.6492 13.7879 17.9757 13.8209 18.1685H13.8011C13.7615 18.0874 13.6724 17.9385 13.5338 17.7219L10.2572 12.5H8.88616V19.7772H10.0246V15.0069C10.0246 14.4961 10.0114 14.1629 9.98498 14.0072H10.0147C10.0708 14.1527 10.1417 14.2931 10.2275 14.4284L13.6179 19.7772ZM6.48547 19.691C6.62406 19.8229 6.79234 19.8889 6.99032 19.8889C7.1916 19.8889 7.36153 19.8229 7.50012 19.691C7.642 19.5556 7.71295 19.3949 7.71295 19.2089C7.71295 19.0194 7.642 18.857 7.50012 18.7217C7.36153 18.5864 7.1916 18.5187 6.99032 18.5187C6.79234 18.5187 6.62406 18.5864 6.48547 18.7217C6.34688 18.857 6.27759 19.0194 6.27759 19.2089C6.27759 19.3949 6.34688 19.5556 6.48547 19.691ZM20.4484 19.7772H16.4641V12.5H20.2901V13.5251H17.6421V15.5855H20.0822V16.6055H17.6421V18.7572H20.4484V19.7772ZM24.0717 13.5251H26.111V12.5H20.8595V13.5251H22.8937V19.7772H24.0717V13.5251Z" fill="#6C6C71"/>
</svg>
