<svg xmlns="http://www.w3.org/2000/svg" width="32" height="32" fill="none" viewBox="0 0 32 32"><path fill="#6C6C71" d="M15.1267 2.67392C15.0694 2.67914 14.8869 2.69738 14.7227 2.71041C10.9351 3.05184 7.38741 5.0952 5.14043 8.23583C3.8892 9.98207 3.08894 11.9629 2.78657 14.061C2.67969 14.7934 2.66666 15.0097 2.66666 16.0027C2.66666 16.9957 2.67969 17.212 2.78657 17.9444C3.51123 22.9512 7.07461 27.1578 11.9075 28.7164C12.7729 28.9952 13.6852 29.1855 14.7227 29.3002C15.1267 29.3445 16.8732 29.3445 17.2773 29.3002C19.0681 29.1021 20.5852 28.659 22.0815 27.8954C22.3108 27.7781 22.3552 27.7468 22.3239 27.7207C22.303 27.7051 21.3255 26.3941 20.1525 24.8095L18.0202 21.9295L15.3483 17.9757C13.8781 15.802 12.6686 14.0245 12.6582 14.0245C12.6478 14.0219 12.6373 15.7785 12.6321 17.9236C12.6243 21.6793 12.6217 21.8304 12.5748 21.9191C12.507 22.0468 12.4549 22.0989 12.3454 22.1562C12.262 22.1979 12.189 22.2058 11.7954 22.2058H11.3444L11.2245 22.1302C11.1463 22.0807 11.0889 22.0155 11.0498 21.9399L10.9951 21.8226L11.0003 16.5969L11.0081 11.3686L11.0889 11.267C11.1307 11.2123 11.2193 11.1419 11.2818 11.108C11.3887 11.0559 11.4304 11.0507 11.8814 11.0507C12.4132 11.0507 12.5018 11.0715 12.6399 11.2227C12.679 11.2644 14.1258 13.4433 15.8566 16.0679C17.5875 18.6924 19.9544 22.2761 21.117 24.0354L23.2284 27.2334L23.3353 27.163C24.2815 26.5479 25.2825 25.6722 26.0749 24.76C27.7615 22.8235 28.8485 20.4621 29.2134 17.9444C29.3203 17.212 29.3333 16.9957 29.3333 16.0027C29.3333 15.0097 29.3203 14.7934 29.2134 14.061C28.4888 9.05422 24.9254 4.8476 20.0925 3.28902C19.2401 3.01275 18.333 2.82248 17.3164 2.70781C17.0661 2.68174 15.3431 2.65307 15.1267 2.67392ZM20.5852 10.7379C20.7103 10.8005 20.812 10.9204 20.8485 11.0455C20.8693 11.1132 20.8745 12.5623 20.8693 15.8281L20.8615 20.5142L20.0352 19.2476L19.2062 17.9809V14.5744C19.2062 12.3721 19.2167 11.1341 19.2323 11.0741C19.274 10.9282 19.3653 10.8135 19.4904 10.7457C19.5973 10.691 19.6364 10.6858 20.0456 10.6858C20.4314 10.6858 20.4992 10.691 20.5852 10.7379Z"/></svg>