<svg xmlns="http://www.w3.org/2000/svg" width="32" height="32" fill="none" viewBox="0 0 32 32"><path fill="#6C6C71" d="M14.1081 8H16.1445L15.569 11.3656H17.3988C18.4023 11.3892 19.1499 11.6359 19.6418 12.1057C20.1436 12.5755 20.2911 13.4685 20.0845 14.7841L19.0958 20.6519H17.0299L17.9743 15.0484C18.0726 14.461 18.0431 14.044 17.8858 13.7973C17.7285 13.5506 17.3891 13.4273 16.8676 13.4273L15.2296 13.4097L14.0195 20.6519H11.9831L14.1081 8Z"/><path fill="#6C6C71" fill-rule="evenodd" d="M4.77686 11.3657H8.73165C9.89241 11.3773 10.7335 11.777 11.255 12.5639C11.7765 13.3509 11.9486 14.4258 11.7715 15.7886C11.7028 16.4113 11.5502 17.0221 11.3141 17.6212C11.0877 18.2203 10.7731 18.7606 10.3696 19.2423C9.87766 19.8531 9.35143 20.2407 8.79067 20.4053C8.22992 20.5699 7.6494 20.652 7.04939 20.652H5.27859L4.71783 24H2.66666L4.77686 11.3657ZM5.61799 18.6608L6.50044 13.3921H6.79852C6.90683 13.3921 7.01987 13.3861 7.13793 13.3745C7.92504 13.3629 8.57907 13.451 9.10056 13.6388C9.6318 13.8267 9.80888 14.5375 9.63181 15.771C9.41547 17.2395 8.99226 18.0969 8.36273 18.3436C7.73321 18.5787 6.94609 18.6901 6.00166 18.6784H5.79507C5.73604 18.6784 5.67702 18.6724 5.61799 18.6608Z" clip-rule="evenodd"/><path fill="#6C6C71" fill-rule="evenodd" d="M26.2261 11.3657H22.2713L20.1611 24H22.2123L22.773 20.652H24.5438C25.1439 20.652 25.7244 20.5699 26.2851 20.4053C26.8459 20.2407 27.3721 19.8531 27.8641 19.2423C28.2675 18.7606 28.5822 18.2203 28.8085 17.6212C29.0446 17.0221 29.1972 16.4113 29.266 15.7886C29.443 14.4258 29.271 13.3509 28.7495 12.5639C28.228 11.777 27.3869 11.3773 26.2261 11.3657ZM23.9949 13.3921L23.1124 18.6608C23.1715 18.6724 23.2305 18.6784 23.2895 18.6784H23.4961C24.4405 18.6901 25.2277 18.5787 25.8572 18.3436C26.4867 18.0969 26.9099 17.2395 27.1263 15.771C27.3033 14.5375 27.1263 13.8267 26.595 13.6388C26.0735 13.451 25.4195 13.3629 24.6324 13.3745C24.5143 13.3861 24.4013 13.3921 24.293 13.3921H23.9949Z" clip-rule="evenodd"/></svg>