<svg xmlns="http://www.w3.org/2000/svg" width="32" height="32" fill="none" viewBox="0 0 32 32"><path fill="#6C6C71" fill-rule="evenodd" d="M13.4426 4C11.5594 4 10.0328 5.47817 10.0328 7.30158V9.5873H15.9344V10.2222H7.40983C5.52663 10.2222 4 11.7004 4 13.5238L4 18.4762C4 20.2996 5.52663 21.7778 7.40983 21.7778H9.37705V18.9841C9.37705 17.1607 10.9037 15.6825 12.7869 15.6825H19.082C20.6754 15.6825 21.9672 14.4318 21.9672 12.8889V7.30158C21.9672 5.47817 20.4406 4 18.5574 4H13.4426ZM12.6557 8.06349C13.3076 8.06349 13.8361 7.55181 13.8361 6.92063C13.8361 6.28945 13.3076 5.77778 12.6557 5.77778C12.0039 5.77778 11.4754 6.28945 11.4754 6.92063C11.4754 7.55181 12.0039 8.06349 12.6557 8.06349Z" clip-rule="evenodd"/><path fill="#6C6C71" fill-rule="evenodd" d="M18.557 27.9999C20.4402 27.9999 21.9668 26.5218 21.9668 24.6983V22.4126L16.0652 22.4126L16.0652 21.7777L24.5897 21.7777C26.4729 21.7777 27.9996 20.2995 27.9996 18.4761V13.5238C27.9996 11.7003 26.4729 10.2222 24.5897 10.2222L22.6225 10.2222V13.0158C22.6225 14.8392 21.0959 16.3174 19.2127 16.3174L12.9176 16.3174C11.3241 16.3174 10.0324 17.5682 10.0324 19.111L10.0324 24.6983C10.0324 26.5218 11.559 27.9999 13.4422 27.9999H18.557ZM19.3438 23.9364C18.692 23.9364 18.1635 24.4481 18.1635 25.0793C18.1635 25.7105 18.692 26.2222 19.3438 26.2222C19.9957 26.2222 20.5242 25.7105 20.5242 25.0793C20.5242 24.4481 19.9957 23.9364 19.3438 23.9364Z" clip-rule="evenodd"/></svg>