<svg width="32" height="32" viewBox="0 0 32 32" fill="none" xmlns="http://www.w3.org/2000/svg">
  <path
    d="M29.7005 16C29.7005 14.1 27.5005 12.5 24.0005 11.5C24.9005 8 24.6005 5.3 23.0005 4.3C22.6005 4.1 22.2005 4 21.7005 4C20.2005 4 18.2005 5.1 16.2005 7C14.2005 5.1 12.3005 4 10.7005 4C10.2005 4 9.80053 4.1 9.40053 4.3C7.90053 5.3 7.60053 8 8.40053 11.5C5.00053 12.5 2.70053 14.2 2.70053 16C2.70053 17.9 4.90053 19.5 8.40053 20.5C7.60053 24 7.90053 26.8 9.50053 27.7C9.90053 27.9 10.3005 28 10.8005 28C12.3005 28 14.3005 26.9 16.3005 25C18.3005 26.9 20.2005 28 21.8005 28C22.3005 28 22.7005 27.9 23.1005 27.7C24.7005 26.8 25.0005 24 24.2005 20.5C27.5005 19.5 29.7005 17.8 29.7005 16ZM21.7005 5.3C22.0005 5.3 22.2005 5.3 22.3005 5.5C23.1005 5.9 23.4005 7.5 23.1005 9.6C23.0005 10.1 22.9005 10.7 22.8005 11.2C21.7005 10.9 20.6005 10.8 19.3005 10.6C18.6005 9.6 17.9005 8.7 17.1005 7.9C18.9005 6.2 20.6005 5.3 21.7005 5.3ZM19.9005 18.1C19.5005 18.8 19.1005 19.5 18.6005 20.1C17.8005 20.2 17.0005 20.2 16.2005 20.2C15.4005 20.2 14.6005 20.2 13.8005 20.1C13.4005 19.5 13.0005 18.8 12.5005 18.1C12.1005 17.4 11.7005 16.7 11.4005 16C11.7005 15.3 12.1005 14.6 12.5005 13.9C12.9005 13.2 13.4005 12.5 13.8005 11.8C14.6005 11.7 15.4005 11.7 16.2005 11.7C17.0005 11.7 17.8005 11.7 18.6005 11.8C19.0005 12.4 19.5005 13.1 19.9005 13.9C20.3005 14.6 20.7005 15.3 21.0005 16C20.7005 16.7 20.3005 17.4 19.9005 18.1ZM21.7005 17.5C22.0005 18.2 22.2005 18.9 22.4005 19.5C21.7005 19.7 21.0005 19.8 20.3005 19.9C20.5005 19.5 20.8005 19.1 21.0005 18.7C21.3005 18.4 21.5005 17.9 21.7005 17.5ZM16.2005 23.2C15.7005 22.7 15.2005 22.1 14.8005 21.5C15.3005 21.5 15.8005 21.5 16.2005 21.5C16.7005 21.5 17.2005 21.5 17.6005 21.5C17.2005 22.1 16.7005 22.7 16.2005 23.2ZM12.1005 20C11.4005 19.9 10.7005 19.8 10.0005 19.6C10.2005 18.9 10.5005 18.2 10.7005 17.6C10.9005 18 11.1005 18.4 11.4005 18.8C11.7005 19.2 11.9005 19.6 12.1005 20ZM10.7005 14.5C10.4005 13.8 10.2005 13.1 9.90053 12.4C10.6005 12.2 11.3005 12.1 12.1005 12C11.8005 12.4 11.6005 12.8 11.3005 13.2C11.2005 13.7 11.0005 14.1 10.7005 14.5ZM16.2005 8.8C16.7005 9.3 17.1005 9.9 17.6005 10.4C17.1005 10.4 16.7005 10.4 16.2005 10.4C15.7005 10.4 15.3005 10.4 14.8005 10.4C15.3005 9.9 15.8005 9.3 16.2005 8.8ZM21.0005 13.2C20.7005 12.8 20.5005 12.4 20.2005 12C21.0005 12.1 21.7005 12.2 22.4005 12.4C22.2005 13.1 21.9005 13.8 21.6005 14.5C21.5005 14.1 21.3005 13.7 21.0005 13.2ZM9.40053 9.5C9.10053 7.4 9.40053 5.9 10.2005 5.4C10.4005 5.3 10.6005 5.2 10.8005 5.2C11.9005 5.2 13.5005 6.1 15.3005 7.8C14.6005 8.6 13.8005 9.5 13.1005 10.5C11.9005 10.6 10.7005 10.8 9.60053 11.1C9.50053 10.6 9.40053 10 9.40053 9.5ZM7.20053 18.7C5.30053 17.9 4.00053 16.8 4.00053 16C4.00053 15.1 5.20053 14.1 7.10053 13.3C7.60053 13.1 8.10053 12.9 8.70053 12.8C9.00053 13.9 9.40053 15 10.0005 16.1C9.50053 17.2 9.10053 18.3 8.80053 19.3C8.20053 19.1 7.70053 18.9 7.20053 18.7ZM10.1005 26.6C9.30053 26.2 9.00053 24.6 9.30053 22.5C9.40053 22 9.50053 21.4 9.60053 20.8C10.7005 21 11.8005 21.2 13.0005 21.3C13.7005 22.3 14.5005 23.2 15.2005 24C13.4005 25.7 11.8005 26.6 10.7005 26.6C10.5005 26.7 10.3005 26.6 10.1005 26.6ZM23.1005 22.5C23.4005 24.6 23.1005 26.1 22.3005 26.6C22.1005 26.7 21.9005 26.8 21.7005 26.8C20.6005 26.8 19.0005 25.9 17.2005 24.2C18.0005 23.4 18.7005 22.5 19.4005 21.5C20.6005 21.4 21.8005 21.2 22.8005 21C22.9005 21.4 23.0005 21.9 23.1005 22.5ZM25.3005 18.7C24.8005 18.9 24.3005 19.1 23.7005 19.2C23.4005 18.2 23.0005 17.1 22.5005 16C23.0005 14.9 23.4005 13.8 23.8005 12.7C24.3005 12.9 24.9005 13 25.4005 13.2C27.3005 14 28.5005 15 28.5005 15.9C28.4005 16.8 27.2005 17.9 25.3005 18.7Z"
    fill="#6C6C71" />
  <path
    d="M16.3021 18.5C17.7021 18.5 18.8021 17.4 18.8021 16C18.8021 14.6 17.7021 13.5 16.3021 13.5C14.9021 13.5 13.8021 14.6 13.8021 16C13.8021 17.4 14.9021 18.5 16.3021 18.5Z"
    fill="#6C6C71" />
</svg>