<svg width="32" height="32" viewBox="0 0 32 32" fill="none" xmlns="http://www.w3.org/2000/svg">
  <path fill-rule="evenodd" clip-rule="evenodd"
    d="M10.5783 25.6859C15.8912 26.4005 21.1097 27.1024 26.4318 27.8179C24.6186 24.844 22.8519 21.9461 21.0712 19.0245L10.5783 25.6859ZM27.9313 9.22438C27.463 9.91728 26.9938 10.6096 26.526 11.3029C24.9197 13.6836 23.3137 16.0643 21.7089 18.4462C21.6196 18.5788 21.5037 18.684 21.6296 18.8885C23.1802 21.411 24.7186 23.9409 26.2608 26.4685C26.5042 26.8678 26.7502 27.2655 27.0649 27.6485C27.3768 21.5137 27.6884 15.3787 28 9.24382L27.9313 9.22438ZM6.76399 17.0895C6.83652 17.1572 7.01758 17.1966 7.10192 17.1557C8.58923 16.4355 10.086 15.7314 11.5409 14.952C12.0153 14.698 12.3802 14.2425 12.7889 13.8732C14.1424 12.6503 15.4937 11.425 16.8444 10.1995C16.927 10.1242 17.0249 10.0514 17.0742 9.95653C17.5594 9.02239 18.0362 8.08348 18.5298 7.11751C17.9412 6.8995 17.3832 6.68626 16.8181 6.49226C16.7415 6.46597 16.6208 6.51818 16.5378 6.56373C15.23 7.28349 13.8977 7.96494 12.6314 8.74988C11.9979 9.14263 11.4819 9.72138 10.9209 10.2254C10.0168 11.0384 9.11383 11.8532 8.22287 12.6803C7.98649 12.8998 7.77101 13.1506 7.58686 13.4147C6.97754 14.2888 6.3864 15.1755 5.76818 16.0874C6.11366 16.4393 6.4278 16.7759 6.76399 17.0895ZM12.1999 15.8945C11.46 18.9738 10.7246 22.0358 9.96455 25.1984C13.5282 22.9362 17.0096 20.7263 20.468 18.5312C17.7159 17.6536 14.9726 16.7787 12.1999 15.8945ZM27.023 9.25411C24.012 9.74977 21.0729 10.2334 18.096 10.7234C19.1099 13.1532 20.1036 15.5343 21.1255 17.9831C23.1026 15.0562 25.0406 12.188 27.023 9.25411ZM12.3241 15.2647C15.0354 16.1318 17.6928 16.9817 20.4274 17.8564C19.4119 15.4191 18.4312 13.0669 17.4302 10.665C15.725 12.2008 14.0454 13.7139 12.3241 15.2647ZM6.87598 18.8852C5.91442 21.1497 4.98555 23.3372 4.03985 25.5641C5.85736 25.5111 7.61916 25.4599 9.44151 25.4069C8.58595 23.2322 7.74721 21.1002 6.87598 18.8852ZM9.50534 23.8582L9.57227 23.8437C10.2209 21.1871 10.8787 18.5487 11.5409 15.7882C10.0638 16.5445 8.65481 17.2658 7.20734 18.0071C7.94606 19.8987 8.73373 21.894 9.50534 23.8582ZM25.9332 8.82325C25.0706 8.59819 24.2081 8.37237 23.3452 8.14884C22.1049 7.82755 20.8636 7.51026 19.6241 7.18611C19.4692 7.14552 19.3572 7.11903 19.266 7.30292C18.8279 8.18714 18.3762 9.06469 17.9312 9.94567C17.9174 9.97292 17.9203 10.0082 17.9097 10.0766C20.5957 9.67564 23.2638 9.27717 25.9314 8.87889L25.9332 8.82325ZM20.9292 6.81203L27.9592 8.72796C27.5561 7.5962 27.1822 6.54677 26.7976 5.46741L20.9394 6.74705L20.9292 6.81203ZM10.1013 26.196C9.23066 26.0971 8.3368 26.188 7.45377 26.2031C6.72839 26.2151 6.00301 26.2423 5.27763 26.2646C5.20297 26.2669 5.1285 26.2818 5.05402 26.3611C11.0511 26.9072 17.0479 27.4534 23.0448 27.9999L23.057 27.921C21.1346 27.6624 19.2121 27.4038 17.2897 27.1454C14.8942 26.8232 12.5028 26.4687 10.1013 26.196ZM4.15842 23.5257C4.93119 21.7591 5.70068 19.9915 6.47654 18.2263C6.55411 18.0492 6.54811 17.929 6.39627 17.7864C6.07168 17.4821 5.77012 17.1541 5.41536 16.7905C4.93584 19.1231 4.46811 21.3978 4 23.6724L4.05242 23.6966C4.08821 23.64 4.13192 23.5865 4.15842 23.5257ZM19.3895 6.34572C20.6926 6.01452 22.0147 5.75554 23.3291 5.46665C23.4142 5.44778 23.4974 5.42015 23.5812 5.39652L23.5682 5.33325C21.7169 5.57851 19.8657 5.82395 17.9211 6.08179C18.4513 6.30989 18.8598 6.48026 19.3895 6.34572Z"
    fill="#6C6C71" />
</svg>