<svg width="40" height="40" viewBox="0 0 40 40" fill="none" xmlns="http://www.w3.org/2000/svg">
  <path fill-rule="evenodd" clip-rule="evenodd"
    d="M26.3287 27.7429C24.6049 29.1536 22.4013 30 20 30C14.4772 30 10 25.5228 10 20C10 17.5987 10.8464 15.3951 12.2571 13.6713L26.3287 27.7429ZM27.7429 26.3287L13.6713 12.2571C15.3951 10.8464 17.5987 10 20 10C25.5228 10 30 14.4772 30 20C30 22.4013 29.1536 24.6049 27.7429 26.3287ZM32 20C32 26.6274 26.6274 32 20 32C13.3726 32 8 26.6274 8 20C8 13.3726 13.3726 8 20 8C26.6274 8 32 13.3726 32 20Z"
    fill="#6C6C71" />
</svg>