<svg width="32" height="32" viewBox="0 0 32 32" fill="none" xmlns="http://www.w3.org/2000/svg">
<path fill-rule="evenodd" clip-rule="evenodd" d="M21.0448 2.20114C23.2242 2.65465 25.1572 3.90209 26.4683 5.7011C27.102 6.55668 27.5535 7.53316 27.7948 8.57016C28.0361 9.60716 28.0621 10.6826 27.8713 11.7301C27.6858 12.7333 27.2935 13.6869 26.7193 14.5301C27.5582 16.0759 27.8406 17.8629 27.5193 19.5921C27.3243 20.625 26.9134 21.605 26.3135 22.4682C25.7137 23.3314 24.9384 24.0582 24.0383 24.6011L17.3203 28.7541C15.3996 29.8797 13.1291 30.2516 10.9497 29.7973C8.77031 29.3431 6.83742 28.0953 5.52629 26.2961C4.89345 25.4403 4.44273 24.4639 4.20194 23.4271C3.96115 22.3903 3.9354 21.3152 4.12629 20.2681C4.31173 19.2651 4.70369 18.3116 5.27729 17.4681C4.44029 15.9231 4.15795 14.138 4.47729 12.4101C4.67191 11.3771 5.08262 10.3968 5.68251 9.53361C6.28241 8.67039 7.05794 7.94368 7.95829 7.4011L14.6753 3.2471C16.5952 2.12043 18.8654 1.74763 21.0448 2.20114ZM10.8426 26.4908C11.8629 26.8579 12.9698 26.9102 14.0201 26.6408H14.0271C14.5086 26.5174 14.9685 26.3215 15.3911 26.0598L22.0981 21.9058C22.6383 21.5783 23.1035 21.1408 23.4634 20.6217C23.8233 20.1026 24.0699 19.5135 24.1871 18.8928C24.3019 18.263 24.2864 17.6164 24.1414 16.9929C23.9964 16.3694 23.725 15.7823 23.3441 15.2678C22.7055 14.3903 21.818 13.7248 20.7967 13.3577C19.7753 12.9906 18.6673 12.9387 17.6161 13.2088C17.1346 13.3322 16.6747 13.5281 16.2521 13.7898L13.6901 15.3748C13.5617 15.453 13.4226 15.512 13.2771 15.5498C12.9603 15.6309 12.6265 15.6151 12.3188 15.5043C12.011 15.3936 11.7436 15.1931 11.5511 14.9288C11.4372 14.7735 11.3567 14.5963 11.3147 14.4084C11.2727 14.2204 11.2701 14.0258 11.3071 13.8368C11.3424 13.6496 11.4169 13.4719 11.5256 13.3154C11.6344 13.1589 11.7749 13.0272 11.9381 12.9288L18.6601 8.7888C18.7874 8.70971 18.926 8.65037 19.0711 8.6128C19.3879 8.53134 19.7218 8.5471 20.0294 8.65803C20.3371 8.76897 20.6042 8.96994 20.7961 9.2348C21.0003 9.51422 21.0969 9.85791 21.0681 10.2028L21.0431 10.4398L21.2881 10.5138C22.2296 10.7876 23.118 11.2183 23.9161 11.7878L24.2601 12.0248L24.3871 11.6498C24.4551 11.4507 24.5082 11.2468 24.5461 11.0398C24.6603 10.4097 24.644 9.76286 24.4982 9.13933C24.3523 8.5158 24.08 7.92884 23.6981 7.4148C23.0598 6.53686 22.1724 5.87109 21.1509 5.50392C20.1295 5.13675 19.0213 5.08514 17.9701 5.3558C17.4888 5.47963 17.0289 5.67551 16.6061 5.9368L9.89811 10.0908C9.35856 10.4183 8.89381 10.8554 8.53395 11.3739C8.17409 11.8925 7.92715 12.4808 7.80911 13.1008C7.692 13.7302 7.70532 14.377 7.84826 15.001C7.9912 15.6251 8.26071 16.2131 8.64011 16.7288C9.27836 17.6065 10.1656 18.2722 11.1868 18.6395C12.208 19.0069 13.316 19.0589 14.3671 18.7888C14.8485 18.6646 15.3084 18.4684 15.7311 18.2068L18.3031 16.6228C18.4312 16.5439 18.5704 16.4845 18.7161 16.4468C19.033 16.3658 19.3669 16.3818 19.6746 16.4927C19.9824 16.6036 20.2497 16.8043 20.4421 17.0688C20.5552 17.2243 20.6352 17.4014 20.6771 17.589C20.7191 17.7767 20.7221 17.9709 20.6861 18.1598C20.6499 18.3471 20.5749 18.5248 20.4659 18.6813C20.3569 18.8379 20.2162 18.9699 20.0531 19.0688L13.3531 23.2228C13.2255 23.3012 13.087 23.3601 12.9421 23.3978C12.6214 23.4816 12.2827 23.4656 11.9713 23.352C11.6599 23.2384 11.3905 23.0325 11.1991 22.7618C10.9955 22.4821 10.8993 22.1385 10.9281 21.7938L10.9531 21.5568L10.7081 21.4838C9.76699 21.2092 8.87865 20.7785 8.08011 20.2098L7.73611 19.9718L7.60911 20.3468C7.54128 20.546 7.48814 20.7499 7.45011 20.9568C7.33582 21.5869 7.35211 22.2337 7.49797 22.8573C7.64384 23.4808 7.91618 24.0678 8.29811 24.5818C8.93596 25.4586 9.82242 26.1237 10.8426 26.4908Z" fill="#6C6C71"/>
</svg>
