<svg width="32" height="32" viewBox="0 0 32 32" fill="none" xmlns="http://www.w3.org/2000/svg">
<path fill-rule="evenodd" clip-rule="evenodd" d="M14.975 16.5209C14.9811 18.9196 14.9883 22.995 14.9943 26.1625C19.3311 26.749 23.668 27.3536 27.9976 28C27.9976 24.2185 28.0024 20.1189 27.9976 16.5209C23.6571 16.5209 19.3179 16.5209 14.975 16.5209ZM4 16.5221V24.666C7.27098 25.1074 10.542 25.5292 13.8069 26.0113C13.8129 22.8607 13.8045 19.7091 13.8045 16.5584C10.5359 16.5644 7.26857 16.5113 4 16.5221ZM4 7.41191V15.533C7.27098 15.5414 10.542 15.4919 13.8129 15.4955C13.8105 12.352 13.8105 9.21242 13.8069 6.06895C10.5335 6.47792 7.26015 6.91059 4 7.41191ZM28 15.366C23.6656 15.3828 19.3311 15.4489 14.9943 15.4621C14.9919 12.2671 14.9919 9.07584 14.9943 5.8832C19.3227 5.22236 23.6608 4.60086 27.9976 4C28 7.78991 27.9976 11.5761 28 15.366Z" fill="#6C6C71"/>
</svg>
