<svg width="3347" height="2352" fill="none" xmlns="http://www.w3.org/2000/svg"><g opacity=".55" filter="url(#a)"><path d="m361 1832.06 1786.43-432.66-949.24-302.04L361 1832.06Z" fill="#FD366E"/></g><g opacity=".55" filter="url(#b)"><path d="m1145.2 1850.86 779.64-639.59-422.14-217.915-357.5 857.505Z" fill="#FE9567"/></g><g opacity=".55" filter="url(#c)"><path d="m589.694 1613.32 1485.856-360.19-905.86-17.27-579.996 377.46Z" fill="url(#d)"/></g><g opacity=".4" filter="url(#e)"><path d="m1410.69 1242.96 598.94-3.28c78.8-.43 118.2-72.14 64.08-116.62l-232.04-190.705-430.98 310.605Z" fill="#fff"/></g><g filter="url(#f)"><path d="m1393.58 1069.56-491.627 567.18 835.397 214.75 268.07-482-611.84-299.93Z" fill="#FD366E" fill-opacity=".6"/></g><g opacity=".4" filter="url(#g)"><path d="m2056.15 501-634.63 732.16 1078.39 277.22 346.04-622.206L2056.15 501Z" fill="#FD366E" fill-opacity=".6"/></g><g style="mix-blend-mode:soft-light" opacity=".45" filter="url(#h)"><ellipse cx="479.672" cy="45.906" rx="479.672" ry="45.906" transform="matrix(-.95334 .30189 -.65607 -.7547 1738.88 1238.42)" fill="#EDEDF0"/></g><g style="mix-blend-mode:overlay" opacity=".35" filter="url(#i)"><ellipse cx="376.561" cy="45.906" rx="376.561" ry="45.906" transform="matrix(-.95334 .30189 -.65607 -.7547 1460.45 1323.44)" fill="#EDEDF0"/></g><g style="mix-blend-mode:soft-light" opacity=".45" filter="url(#j)"><ellipse cx="376.561" cy="37.931" rx="376.561" ry="37.931" transform="matrix(-.95334 .30189 -.65607 -.7547 1935.57 1332.57)" fill="#EDEDF0"/></g><g style="mix-blend-mode:soft-light" opacity=".45" filter="url(#k)"><ellipse cx="328.236" cy="37.931" rx="328.236" ry="37.931" transform="matrix(-.95334 .30189 -.65607 -.7547 1779.67 1548.86)" fill="#EDEDF0"/></g><g opacity=".65" filter="url(#l)"><path d="M836.697 1187.86 2538.69 1063.9l-1431.5-136.501-270.493 260.461Z" fill="#FE9567" fill-opacity=".5"/></g><defs><filter id="a" x=".587" y="736.943" width="2507.26" height="1455.53" filterUnits="userSpaceOnUse" color-interpolation-filters="sRGB"><feFlood flood-opacity="0" result="BackgroundImageFix"/><feBlend in="SourceGraphic" in2="BackgroundImageFix" result="shape"/><feGaussianBlur stdDeviation="180.206" result="effect1_foregroundBlur_7_666"/></filter><filter id="b" x="879.771" y="727.93" width="1310.5" height="1388.35" filterUnits="userSpaceOnUse" color-interpolation-filters="sRGB"><feFlood flood-opacity="0" result="BackgroundImageFix"/><feBlend in="SourceGraphic" in2="BackgroundImageFix" result="shape"/><feGaussianBlur stdDeviation="132.713" result="effect1_foregroundBlur_7_666"/></filter><filter id="c" x="324.268" y="970.431" width="2016.71" height="908.31" filterUnits="userSpaceOnUse" color-interpolation-filters="sRGB"><feFlood flood-opacity="0" result="BackgroundImageFix"/><feBlend in="SourceGraphic" in2="BackgroundImageFix" result="shape"/><feGaussianBlur stdDeviation="132.713" result="effect1_foregroundBlur_7_666"/></filter><filter id="e" x="1194.45" y="716.107" width="1120.51" height="743.104" filterUnits="userSpaceOnUse" color-interpolation-filters="sRGB"><feFlood flood-opacity="0" result="BackgroundImageFix"/><feBlend in="SourceGraphic" in2="BackgroundImageFix" result="shape"/><feGaussianBlur stdDeviation="108.124" result="effect1_foregroundBlur_7_666"/></filter><filter id="f" x="401.757" y="569.361" width="2103.86" height="1782.33" filterUnits="userSpaceOnUse" color-interpolation-filters="sRGB"><feFlood flood-opacity="0" result="BackgroundImageFix"/><feBlend in="SourceGraphic" in2="BackgroundImageFix" result="shape"/><feGaussianBlur stdDeviation="250.098" result="effect1_foregroundBlur_7_666"/></filter><filter id="g" x="921.32" y=".803" width="2424.83" height="2009.77" filterUnits="userSpaceOnUse" color-interpolation-filters="sRGB"><feFlood flood-opacity="0" result="BackgroundImageFix"/><feBlend in="SourceGraphic" in2="BackgroundImageFix" result="shape"/><feGaussianBlur stdDeviation="250.098" result="effect1_foregroundBlur_7_666"/></filter><filter id="h" x="667.023" y="1073.51" width="1168.89" height="550.144" filterUnits="userSpaceOnUse" color-interpolation-filters="sRGB"><feFlood flood-opacity="0" result="BackgroundImageFix"/><feBlend in="SourceGraphic" in2="BackgroundImageFix" result="shape"/><feGaussianBlur stdDeviation="63.072" result="effect1_foregroundBlur_7_666"/></filter><filter id="i" x="611.032" y="1183.56" width="920.626" height="437.824" filterUnits="userSpaceOnUse" color-interpolation-filters="sRGB"><feFlood flood-opacity="0" result="BackgroundImageFix"/><feBlend in="SourceGraphic" in2="BackgroundImageFix" result="shape"/><feGaussianBlur stdDeviation="50.02" result="effect1_foregroundBlur_7_666"/></filter><filter id="j" x="1065.68" y="1174.22" width="972.026" height="486.801" filterUnits="userSpaceOnUse" color-interpolation-filters="sRGB"><feFlood flood-opacity="0" result="BackgroundImageFix"/><feBlend in="SourceGraphic" in2="BackgroundImageFix" result="shape"/><feGaussianBlur stdDeviation="63.072" result="effect1_foregroundBlur_7_666"/></filter><filter id="k" x="1001.79" y="1390.01" width="880.141" height="458.628" filterUnits="userSpaceOnUse" color-interpolation-filters="sRGB"><feFlood flood-opacity="0" result="BackgroundImageFix"/><feBlend in="SourceGraphic" in2="BackgroundImageFix" result="shape"/><feGaussianBlur stdDeviation="63.072" result="effect1_foregroundBlur_7_666"/></filter><filter id="l" x="620.45" y="711.151" width="2134.49" height="692.952" filterUnits="userSpaceOnUse" color-interpolation-filters="sRGB"><feFlood flood-opacity="0" result="BackgroundImageFix"/><feBlend in="SourceGraphic" in2="BackgroundImageFix" result="shape"/><feGaussianBlur stdDeviation="108.124" result="effect1_foregroundBlur_7_666"/></filter><linearGradient id="d" x1="1807.41" y1="1265.53" x2="1446.35" y2="1782.95" gradientUnits="userSpaceOnUse"><stop stop-color="#FE9567"/><stop offset="1" stop-color="#F02E65"/></linearGradient></defs></svg>