<svg xmlns="http://www.w3.org/2000/svg" fill="none" viewBox="0 0 224 96"><path fill="#FD366E" d="M169.521 96V84.8145H223.6V96H169.521Z"/><path fill="#fff" d="M152.912 81.6652C141.874 81.6652 134.623 76.6697 134.623 64.6154V36.0543H124.775V24.7602H135.381V8.79638H147.501V24.7602H163.517V36.0543H147.501V64.5068C147.501 68.5249 149.124 70.2624 153.02 70.2624H162.868V81.6652H152.912Z"/><path fill="#fff" d="M109.647 15.9638C104.993 15.9638 101.53 12.4887 101.53 7.9276C101.53 3.47511 104.993 0 109.647 0C114.3 0 117.763 3.47511 117.763 7.9276C117.763 12.4887 114.3 15.9638 109.647 15.9638ZM103.154 81.6652V36.0543H93.1975V24.7602H115.923V81.6652H103.154Z"/><path fill="#fff" d="M36.3068 81.6652V24.7602H49.0766V31.276H50.0506C52.5396 26.9321 57.734 23.3484 65.3093 23.3484C77.7544 23.3484 85.6543 32.6878 85.6543 44.4163V81.6652H72.8846V47.457C72.8846 40.3982 67.9066 35.5113 61.4135 35.5113C54.3793 35.5113 49.0766 40.9412 49.0766 48.1086V81.6652H36.3068Z"/><path fill="#fff" d="M16.8496 15.9638C12.1962 15.9638 8.73319 12.4887 8.73319 7.9276C8.73319 3.47511 12.1962 0 16.8496 0C21.5029 0 24.9659 3.47511 24.9659 7.9276C24.9659 12.4887 21.5029 15.9638 16.8496 15.9638ZM10.3565 81.6652V36.0543H0.400391V24.7602H23.1262V81.6652H10.3565Z"/></svg>