<svg xmlns="http://www.w3.org/2000/svg" width="91" height="24" fill="none" viewBox="0 0 91 24"><path fill="#FD366E" d="M23.8742 16.399V21.8352H10.5018C6.60584 21.8352 3.20412 19.6488 1.38413 16.399C1.11955 15.9265 0.887988 15.4308 0.69374 14.9164C0.312422 13.9082 0.0727231 12.8264 0 11.6976V10.2279C0.0157886 9.97633 0.0406675 9.72675 0.0732016 9.48015C0.139705 8.97409 0.240178 8.4789 0.372228 7.99754C1.62144 3.43409 5.68341 0.090332 10.5018 0.090332C15.3202 0.090332 19.3817 3.43409 20.6309 7.99754H14.913C13.9743 6.51 12.3495 5.52654 10.5018 5.52654C8.65405 5.52654 7.02926 6.51 6.09056 7.99754C5.80445 8.44974 5.58246 8.94839 5.43701 9.48015C5.30783 9.95161 5.23894 10.4488 5.23894 10.9628C5.23894 12.521 5.87335 13.9255 6.89052 14.9164C7.83305 15.8361 9.10378 16.399 10.5018 16.399H23.8742Z"/><path fill="#FD366E" d="M23.8744 9.47998V14.9162H14.1133C15.1304 13.9253 15.7649 12.5208 15.7649 10.9626C15.7649 10.4486 15.696 9.95145 15.5668 9.47998H23.8744Z"/><g clip-path="url(#clip0_272_2002)"><path fill="#FD366E" d="M76.375 23.9331V21.1523H91.1158V23.9331H76.375Z"/><path fill="#fff" d="M72.2237 20.3691C69.4649 20.3691 67.6527 19.1272 67.6527 16.1305V9.03023H65.1914V6.22251H67.842V2.25391H70.8713V6.22251H74.8743V9.03023H70.8713V16.1035C70.8713 17.1024 71.277 17.5344 72.2507 17.5344H74.712V20.3691H72.2237Z"/><path fill="#fff" d="M61.41 4.03599C60.247 4.03599 59.3815 3.17207 59.3815 2.03819C59.3815 0.931297 60.247 0.0673828 61.41 0.0673828C62.573 0.0673828 63.4386 0.931297 63.4386 2.03819C63.4386 3.17207 62.573 4.03599 61.41 4.03599ZM59.7872 20.3694V9.03049H57.2988V6.22277H62.9788V20.3694H59.7872Z"/><path fill="#fff" d="M43.0801 20.3691V6.22255H46.2717V7.84239H46.5151C47.1372 6.76249 48.4354 5.87158 50.3287 5.87158C53.4392 5.87158 55.4136 8.19335 55.4136 11.1091V20.3691H52.2221V11.865C52.2221 10.1102 50.9779 8.89528 49.355 8.89528C47.597 8.89528 46.2717 10.2451 46.2717 12.027V20.3691H43.0801Z"/><path fill="#fff" d="M38.2167 4.03599C37.0536 4.03599 36.1881 3.17207 36.1881 2.03819C36.1881 0.931297 37.0536 0.0673828 38.2167 0.0673828C39.3797 0.0673828 40.2452 0.931297 40.2452 2.03819C40.2452 3.17207 39.3797 4.03599 38.2167 4.03599ZM36.5938 20.3694V9.03049H34.1055V6.22277H39.7854V20.3694H36.5938Z"/></g><defs><clipPath id="clip0_272_2002"><rect width="57" height="24" fill="#fff" transform="translate(34)"/></clipPath></defs></svg>