<svg xmlns="http://www.w3.org/2000/svg" width="308" height="224" fill="none" viewBox="0 0 308 224"><g clip-path="url(#clip0_461_11754)"><g filter="url(#filter0_b_461_11754)"><circle cx="41.921" cy="41.921" r="41.921" fill="url(#paint0_linear_461_11754)" transform="matrix(-0.946003 0.324158 0.324158 0.946003 107.314 85)"/><circle cx="41.921" cy="41.921" r="41.671" stroke="url(#paint1_linear_461_11754)" stroke-opacity=".1" stroke-width=".5" transform="matrix(-0.946003 0.324158 0.324158 0.946003 107.314 85)"/></g><g clip-path="url(#clip1_461_11754)"><path fill="#ADADB0" d="M96.7123 122.17C96.5032 122.489 92.4462 127.044 94.6048 133.344C97.1016 140.63 104.383 141.016 104.596 141.014C104.62 141.181 104.789 144.893 103.61 149.137C102.545 152.882 101.385 156.654 98.0463 157.798C94.7075 158.942 93.1837 157.297 89.3293 158.617C85.5732 159.905 84.9241 162.365 81.8701 163.412C78.8161 164.458 75.7262 162.39 72.0984 159.792C67.8774 156.729 63.436 151.245 61.3968 145.294C58.1261 135.749 62.5977 128.56 68.7057 126.467C71.9512 125.355 75.3868 126.559 77.4245 125.86C79.3639 125.196 81.6145 121.901 85.3068 120.636C86.7062 120.156 91.7777 118.561 96.7123 122.17ZM82.1693 117.195C83.0755 114.86 83.2942 111.976 82.4328 109.462C82.3134 109.114 82.1628 108.77 82.0014 108.507C79.5489 109.452 77.1281 112.026 76.0541 114.704C75.1999 116.774 74.7552 119.736 75.6284 122.284C75.7597 122.667 75.9547 123.028 76.0262 123.141C76.1935 123.117 76.4605 123.063 76.7159 122.976C78.945 122.212 81.2371 119.759 82.1693 117.195Z"/></g><g filter="url(#filter1_b_461_11754)"><circle cx="41.921" cy="41.921" r="41.921" fill="url(#paint2_linear_461_11754)" transform="matrix(-0.827545 -0.5614 -0.5614 0.827545 188.451 63.0703)"/><circle cx="41.921" cy="41.921" r="41.671" stroke="url(#paint3_linear_461_11754)" stroke-opacity=".1" stroke-width=".5" transform="matrix(-0.827545 -0.5614 -0.5614 0.827545 188.451 63.0703)"/></g><g clip-path="url(#clip2_461_11754)"><path fill="#ADADB0" d="M139.422 71.76L132.41 72.8433L133.879 62.0904L139.083 58.8628C140.257 58.2875 141.088 58.8664 140.981 60.1504L139.422 71.76Z"/><path fill="#ADADB0" d="M133.878 62.0917L132.409 72.8446L106.203 76.8909L133.878 62.0917Z"/><path fill="#ADADB0" d="M148.271 68.8354C149.539 68.618 150.163 69.4094 149.656 70.5925L137.353 97.731L117.844 96.6485C117.179 96.5892 115.812 95.8305 115.812 95.8305C115.812 95.8305 114.734 94.8951 114.465 94.3288L106.203 76.8893L148.271 68.8354Z"/><path fill="#ADADB0" d="M133.879 62.0923L106.205 76.8925L134.38 46.9382C135.289 46.026 135.953 46.3296 135.858 47.6137L133.879 62.0923Z"/></g><g filter="url(#filter2_b_461_11754)"><circle cx="41.921" cy="41.921" r="41.921" fill="url(#paint4_linear_461_11754)" transform="matrix(-1 -8.74228e-08 -8.74228e-08 1 186.842 140)"/><circle cx="41.921" cy="41.921" r="41.671" stroke="url(#paint5_linear_461_11754)" stroke-opacity=".1" stroke-width=".5" transform="matrix(-1 -8.74228e-08 -8.74228e-08 1 186.842 140)"/></g><g clip-path="url(#clip3_461_11754)"><path fill="#ADADB0" d="M144.975 172.154C139.55 172.154 135.138 176.56 135.138 181.967C135.138 187.374 139.552 191.78 144.975 191.78C150.398 191.78 154.813 187.374 154.813 181.967C154.813 176.56 150.398 172.154 144.975 172.154ZM129.66 181.967C129.66 173.526 136.521 166.678 144.975 166.678C153.43 166.678 160.29 173.534 160.29 181.974C160.29 182.558 160.236 183.089 160.184 183.62C160.079 185.107 161.141 186.221 162.63 186.221C165.13 186.221 165.388 182.983 165.388 181.921C165.388 170.614 156.24 161.485 144.914 161.485C133.588 161.485 124.448 170.614 124.448 181.921C124.448 193.229 133.595 202.358 144.922 202.358C150.923 202.358 156.302 199.757 160.079 195.669L164.28 199.172C159.547 204.481 152.634 207.826 144.922 207.826C130.564 207.827 118.971 196.201 118.971 181.921C118.971 167.588 130.616 156.016 144.922 156.016C159.28 156.016 170.873 167.642 170.873 181.921C170.873 187.655 168.116 192.326 162.63 192.326C160.184 192.326 158.748 191.211 157.898 189.991C155.186 194.344 150.399 197.21 144.868 197.21C136.519 197.263 129.659 190.414 129.659 181.975L129.66 181.967ZM144.975 177.455C147.475 177.455 149.496 179.471 149.496 181.913C149.496 184.409 147.475 186.426 144.975 186.426C142.476 186.426 140.455 184.417 140.455 181.921C140.509 179.48 142.476 177.463 144.975 177.463V177.455Z"/></g><g filter="url(#filter3_b_461_11754)"><circle cx="41.921" cy="41.921" r="41.921" fill="url(#paint6_linear_461_11754)" transform="matrix(-0.90776 0.41949 0.41949 0.90776 84.1094 -26)"/><circle cx="41.921" cy="41.921" r="41.671" stroke="url(#paint7_linear_461_11754)" stroke-opacity=".1" stroke-width=".5" transform="matrix(-0.90776 0.41949 0.41949 0.90776 84.1094 -26)"/></g><g clip-path="url(#clip4_461_11754)"><path fill="#ADADB0" d="M60.0134 24.2646C61.2472 26.9344 60.0645 30.1491 57.3947 31.3829C54.7249 32.6167 51.5101 31.4341 50.2763 28.7642C49.0426 26.0944 50.2252 22.8796 52.895 21.6458C55.5649 20.4121 58.7796 21.5947 60.0134 24.2646ZM58.2656 33.2675C55.5958 34.5013 54.4131 37.716 55.6469 40.3859C56.8807 43.0557 60.0954 44.2384 62.7653 43.0046C65.4351 41.7708 66.6178 38.5561 65.384 35.8862C64.1502 33.2164 60.9354 32.0337 58.2656 33.2675ZM87.1985 18.7537C93.2222 31.7888 87.5624 47.1737 74.5273 53.1974C61.4921 59.2211 46.1073 53.5613 40.0835 40.5262C34.0598 27.4911 39.7196 12.1062 52.7547 6.08248C65.7899 0.0587511 81.1747 5.71855 87.1985 18.7537ZM80.9165 21.6567C76.4894 12.0767 65.2378 7.93739 55.6577 12.3645C46.0777 16.7916 41.9384 28.0432 46.3655 37.6232C50.7926 47.2032 62.0442 51.3425 71.6243 46.9154C81.2043 42.4883 85.3435 31.2367 80.9165 21.6567ZM69.8873 27.897C67.2174 29.1307 66.0348 32.3455 67.2686 35.0153C68.5023 37.6852 71.7171 38.8678 74.3869 37.634C77.0568 36.4003 78.2394 33.1855 77.0057 30.5157C75.7719 27.8458 72.5571 26.6632 69.8873 27.897ZM64.5167 16.2753C61.8469 17.5091 60.6642 20.7238 61.898 23.3937C63.1318 26.0635 66.3465 27.2461 69.0164 26.0124C71.6862 24.7786 72.8689 21.5638 71.6351 18.894C70.4013 16.2242 67.1866 15.0415 64.5167 16.2753Z"/></g></g><defs><filter id="filter0_b_461_11754" width="115.645" height="115.645" x="23.424" y="80.424" color-interpolation-filters="sRGB" filterUnits="userSpaceOnUse"><feFlood flood-opacity="0" result="BackgroundImageFix"/><feGaussianBlur in="BackgroundImageFix" stdDeviation="7.945"/><feComposite in2="SourceAlpha" operator="in" result="effect1_backgroundBlur_461_11754"/><feBlend in="SourceGraphic" in2="effect1_backgroundBlur_461_11754" mode="normal" result="shape"/></filter><filter id="filter1_b_461_11754" width="115.631" height="115.631" x="72.41" y="16.412" color-interpolation-filters="sRGB" filterUnits="userSpaceOnUse"><feFlood flood-opacity="0" result="BackgroundImageFix"/><feGaussianBlur in="BackgroundImageFix" stdDeviation="7.945"/><feComposite in2="SourceAlpha" operator="in" result="effect1_backgroundBlur_461_11754"/><feBlend in="SourceGraphic" in2="effect1_backgroundBlur_461_11754" mode="normal" result="shape"/></filter><filter id="filter2_b_461_11754" width="115.622" height="115.622" x="87.109" y="124.11" color-interpolation-filters="sRGB" filterUnits="userSpaceOnUse"><feFlood flood-opacity="0" result="BackgroundImageFix"/><feGaussianBlur in="BackgroundImageFix" stdDeviation="7.945"/><feComposite in2="SourceAlpha" operator="in" result="effect1_backgroundBlur_461_11754"/><feBlend in="SourceGraphic" in2="effect1_backgroundBlur_461_11754" mode="normal" result="shape"/></filter><filter id="filter3_b_461_11754" width="115.642" height="115.642" x="5.819" y="-28.181" color-interpolation-filters="sRGB" filterUnits="userSpaceOnUse"><feFlood flood-opacity="0" result="BackgroundImageFix"/><feGaussianBlur in="BackgroundImageFix" stdDeviation="7.945"/><feComposite in2="SourceAlpha" operator="in" result="effect1_backgroundBlur_461_11754"/><feBlend in="SourceGraphic" in2="effect1_backgroundBlur_461_11754" mode="normal" result="shape"/></filter><linearGradient id="paint0_linear_461_11754" x1="83.842" x2="0" y1="0" y2="81.846" gradientUnits="userSpaceOnUse"><stop stop-color="#fff" stop-opacity=".12"/><stop offset=".616" stop-color="#fff" stop-opacity=".04"/></linearGradient><linearGradient id="paint1_linear_461_11754" x1="0" x2="83.842" y1="83.842" y2="0" gradientUnits="userSpaceOnUse"><stop stop-color="#fff" stop-opacity="0"/><stop offset="1" stop-color="#fff" stop-opacity=".54"/></linearGradient><linearGradient id="paint2_linear_461_11754" x1="83.842" x2="0" y1="0" y2="81.846" gradientUnits="userSpaceOnUse"><stop stop-color="#fff" stop-opacity=".12"/><stop offset=".616" stop-color="#fff" stop-opacity=".04"/></linearGradient><linearGradient id="paint3_linear_461_11754" x1="0" x2="83.842" y1="83.842" y2="0" gradientUnits="userSpaceOnUse"><stop stop-color="#fff" stop-opacity="0"/><stop offset="1" stop-color="#fff" stop-opacity=".54"/></linearGradient><linearGradient id="paint4_linear_461_11754" x1="83.842" x2="0" y1="0" y2="81.846" gradientUnits="userSpaceOnUse"><stop stop-color="#fff" stop-opacity=".12"/><stop offset=".616" stop-color="#fff" stop-opacity=".04"/></linearGradient><linearGradient id="paint5_linear_461_11754" x1="0" x2="83.842" y1="83.842" y2="0" gradientUnits="userSpaceOnUse"><stop stop-color="#fff" stop-opacity="0"/><stop offset="1" stop-color="#fff" stop-opacity=".54"/></linearGradient><linearGradient id="paint6_linear_461_11754" x1="83.842" x2="0" y1="0" y2="81.846" gradientUnits="userSpaceOnUse"><stop stop-color="#fff" stop-opacity=".12"/><stop offset=".616" stop-color="#fff" stop-opacity=".04"/></linearGradient><linearGradient id="paint7_linear_461_11754" x1="0" x2="83.842" y1="83.842" y2="0" gradientUnits="userSpaceOnUse"><stop stop-color="#fff" stop-opacity="0"/><stop offset="1" stop-color="#fff" stop-opacity=".54"/></linearGradient><clipPath id="clip0_461_11754"><rect width="308" height="224" fill="#fff"/></clipPath><clipPath id="clip1_461_11754"><rect width="51.902" height="51.902" fill="#fff" transform="translate(47.7148 120.258) rotate(-18.9146)"/></clipPath><clipPath id="clip2_461_11754"><rect width="51.902" height="51.902" fill="#fff" transform="translate(123.611 38.3828) rotate(34.1527)"/></clipPath><clipPath id="clip3_461_11754"><rect width="51.902" height="51.902" fill="#fff" transform="translate(118.971 155.973)"/></clipPath><clipPath id="clip4_461_11754"><rect width="51.902" height="51.902" fill="#fff" transform="translate(29.1973 16.9688) rotate(-24.8024)"/></clipPath></defs></svg>