<svg width="460" height="644" viewBox="0 0 460 644" fill="none" xmlns="http://www.w3.org/2000/svg">
<g clip-path="url(#clip0_320_8523)">
<g filter="url(#filter0_f_320_8523)">
<path d="M573.929 246.36L70.1877 797.782C55.4387 813.927 55.6944 838.732 70.7732 854.569C87.4504 872.086 115.493 871.753 131.75 853.846L633.772 300.857C650.107 282.864 647.011 254.633 627.166 240.607C610.507 228.833 587.688 231.298 573.929 246.36Z" fill="url(#paint0_linear_320_8523)"/>
</g>
<g filter="url(#filter1_f_320_8523)">
<path d="M626.929 -31.6402L123.188 519.782C108.439 535.927 108.694 560.732 123.773 576.569C140.45 594.086 168.493 593.753 184.75 575.846L686.772 22.8573C703.107 4.86406 700.011 -23.3668 680.166 -37.3932C663.507 -49.1675 640.688 -46.7016 626.929 -31.6402Z" fill="url(#paint1_linear_320_8523)"/>
</g>
<g filter="url(#filter2_f_320_8523)">
<path d="M433.929 -76.6402L-69.8123 474.782C-84.5613 490.927 -84.3056 515.732 -69.2268 531.569C-52.5496 549.086 -24.507 548.753 -8.25014 530.846L493.772 -22.1427C510.107 -40.1359 507.011 -68.3668 487.166 -82.3932C470.507 -94.1675 447.688 -91.7016 433.929 -76.6402Z" fill="url(#paint2_linear_320_8523)"/>
</g>
<g filter="url(#filter3_f_320_8523)">
<path d="M219.929 -103.64L-283.812 447.782C-298.561 463.927 -298.306 488.732 -283.227 504.569C-266.55 522.086 -238.507 521.753 -222.25 503.846L279.772 -49.1427C296.107 -67.1359 293.011 -95.3668 273.166 -109.393C256.507 -121.167 233.688 -118.702 219.929 -103.64Z" fill="url(#paint3_linear_320_8523)"/>
</g>
</g>
<defs>
<filter id="filter0_f_320_8523" x="-10.7072" y="163.185" width="724.987" height="774.31" filterUnits="userSpaceOnUse" color-interpolation-filters="sRGB">
<feFlood flood-opacity="0" result="BackgroundImageFix"/>
<feBlend mode="normal" in="SourceGraphic" in2="BackgroundImageFix" result="shape"/>
<feGaussianBlur stdDeviation="35" result="effect1_foregroundBlur_320_8523"/>
</filter>
<filter id="filter1_f_320_8523" x="42.2928" y="-114.815" width="724.987" height="774.31" filterUnits="userSpaceOnUse" color-interpolation-filters="sRGB">
<feFlood flood-opacity="0" result="BackgroundImageFix"/>
<feBlend mode="normal" in="SourceGraphic" in2="BackgroundImageFix" result="shape"/>
<feGaussianBlur stdDeviation="35" result="effect1_foregroundBlur_320_8523"/>
</filter>
<filter id="filter2_f_320_8523" x="-150.707" y="-159.815" width="724.987" height="774.31" filterUnits="userSpaceOnUse" color-interpolation-filters="sRGB">
<feFlood flood-opacity="0" result="BackgroundImageFix"/>
<feBlend mode="normal" in="SourceGraphic" in2="BackgroundImageFix" result="shape"/>
<feGaussianBlur stdDeviation="35" result="effect1_foregroundBlur_320_8523"/>
</filter>
<filter id="filter3_f_320_8523" x="-364.707" y="-186.815" width="724.987" height="774.31" filterUnits="userSpaceOnUse" color-interpolation-filters="sRGB">
<feFlood flood-opacity="0" result="BackgroundImageFix"/>
<feBlend mode="normal" in="SourceGraphic" in2="BackgroundImageFix" result="shape"/>
<feGaussianBlur stdDeviation="35" result="effect1_foregroundBlur_320_8523"/>
</filter>
<linearGradient id="paint0_linear_320_8523" x1="445.039" y1="329.736" x2="82.04" y2="827.018" gradientUnits="userSpaceOnUse">
<stop stop-color="#FD366E" stop-opacity="0.16"/>
<stop offset="1" stop-color="#FD366E" stop-opacity="0"/>
</linearGradient>
<linearGradient id="paint1_linear_320_8523" x1="498.039" y1="51.7361" x2="135.04" y2="549.018" gradientUnits="userSpaceOnUse">
<stop stop-color="#FD366E" stop-opacity="0.16"/>
<stop offset="1" stop-color="#FD366E" stop-opacity="0"/>
</linearGradient>
<linearGradient id="paint2_linear_320_8523" x1="305.039" y1="6.73605" x2="-57.96" y2="504.018" gradientUnits="userSpaceOnUse">
<stop stop-color="#FD366E" stop-opacity="0.16"/>
<stop offset="1" stop-color="#FD366E" stop-opacity="0"/>
</linearGradient>
<linearGradient id="paint3_linear_320_8523" x1="91.0395" y1="-20.2639" x2="-271.96" y2="477.018" gradientUnits="userSpaceOnUse">
<stop stop-color="#FD366E" stop-opacity="0.16"/>
<stop offset="1" stop-color="#FD366E" stop-opacity="0"/>
</linearGradient>
<clipPath id="clip0_320_8523">
<rect width="460" height="644" fill="white"/>
</clipPath>
</defs>
</svg>
