<svg width="687" height="292" viewBox="0 0 687 292" fill="none" xmlns="http://www.w3.org/2000/svg">
<path d="M36 52L36 91" stroke="#FD366E" stroke-opacity="0.64" stroke-dasharray="4.71 4.71"/>
<path d="M82 36L56 36" stroke="#FD366E" stroke-opacity="0.64" stroke-dasharray="4.71 4.71"/>
<g filter="url(#filter0_bd_461_11802)">
<rect x="128" y="16" width="435" height="260" rx="12" fill="url(#paint0_linear_461_11802)" fill-opacity="0.4" shape-rendering="crispEdges"/>
<rect x="127.5" y="15.5" width="436" height="261" rx="12.5" stroke="url(#paint1_linear_461_11802)" stroke-opacity="0.6" shape-rendering="crispEdges"/>
</g>
<circle cx="145" cy="33.0002" r="5" fill="#EDEDF0"/>
<circle cx="161" cy="33.0002" r="5" fill="#EDEDF0"/>
<circle cx="177" cy="33.0002" r="5" fill="#EDEDF0"/>
<g filter="url(#filter1_bd_461_11802)">
<rect x="132" y="50" width="427" height="219" rx="8" fill="white" fill-opacity="0.04" shape-rendering="crispEdges"/>
</g>
<mask id="mask0_461_11802" style="mask-type:alpha" maskUnits="userSpaceOnUse" x="132" y="50" width="427" height="222">
<rect x="132" y="50" width="427" height="222" fill="url(#paint2_radial_461_11802)" fill-opacity="0.77"/>
</mask>
<g mask="url(#mask0_461_11802)">
<path d="M142.025 43.9998L142.025 264.995" stroke="white" stroke-width="0.392123" stroke-linecap="round"/>
<path d="M175.748 43.9998L175.748 264.995" stroke="white" stroke-width="0.392123" stroke-linecap="round"/>
<path d="M209.471 43.9998L209.471 264.995" stroke="white" stroke-width="0.392123" stroke-linecap="round"/>
<path d="M243.193 43.9998L243.193 264.995" stroke="white" stroke-width="0.392123" stroke-linecap="round"/>
<path d="M276.916 43.9998L276.916 264.995" stroke="white" stroke-width="0.392123" stroke-linecap="round"/>
<path d="M310.638 43.9998L310.638 264.995" stroke="white" stroke-width="0.392123" stroke-linecap="round"/>
<path d="M344.361 43.9998L344.361 264.995" stroke="white" stroke-width="0.392123" stroke-linecap="round"/>
<path d="M378.084 43.9998L378.084 264.995" stroke="white" stroke-width="0.392123" stroke-linecap="round"/>
<path d="M411.806 43.9998L411.806 264.995" stroke="white" stroke-width="0.392123" stroke-linecap="round"/>
<path d="M445.529 43.9998L445.529 264.995" stroke="white" stroke-width="0.392123" stroke-linecap="round"/>
<path d="M479.251 43.9998L479.251 264.995" stroke="white" stroke-width="0.392123" stroke-linecap="round"/>
<path d="M512.974 43.9998L512.974 264.995" stroke="white" stroke-width="0.392123" stroke-linecap="round"/>
<path d="M541 83.9153L114 83.9153" stroke="white" stroke-width="0.392123" stroke-linecap="round"/>
<path d="M541 119.206L114 119.206" stroke="white" stroke-width="0.392123" stroke-linecap="round"/>
<path d="M541 154.498L114 154.498" stroke="white" stroke-width="0.392123" stroke-linecap="round"/>
<path d="M541 189.789L114 189.789" stroke="white" stroke-width="0.392123" stroke-linecap="round"/>
<path d="M541 225.08L114 225.08" stroke="white" stroke-width="0.392123" stroke-linecap="round"/>
<path d="M541 260.371L114 260.371" stroke="white" stroke-width="0.392123" stroke-linecap="round"/>
</g>
<rect width="104.614" height="104.614" transform="matrix(0.965798 0.259298 -0.965798 0.259298 345.037 64.6406)" fill="url(#paint3_linear_461_11802)"/>
<path d="M446.071 232.564L345.035 259.69V118.892L446.071 91.7656V232.564Z" fill="url(#paint4_linear_461_11802)"/>
<path d="M243.999 232.564L345.035 259.69V118.892L243.999 91.7656V232.564Z" fill="url(#paint5_linear_461_11802)"/>
<g filter="url(#filter2_b_461_11802)">
<path d="M132 229H559V264C559 268.418 555.418 272 551 272H140C135.582 272 132 268.418 132 264V229Z" fill="#35312B" fill-opacity="0.01"/>
</g>
<g clip-path="url(#clip0_461_11802)">
<rect x="16" y="223" width="43.1366" height="9.75708" rx="4.87854" fill="#FD366E"/>
<path d="M59 228.523H559" stroke="url(#paint6_linear_461_11802)"/>
</g>
<g filter="url(#filter3_b_461_11802)">
<circle cx="20" cy="20" r="20" transform="matrix(1 0 0 -1 16 56)" fill="url(#paint7_linear_461_11802)"/>
<circle cx="20" cy="20" r="19.7279" transform="matrix(1 0 0 -1 16 56)" stroke="url(#paint8_linear_461_11802)" stroke-opacity="0.1" stroke-width="0.54424"/>
</g>
<g clip-path="url(#clip1_461_11802)">
<mask id="mask1_461_11802" style="mask-type:alpha" maskUnits="userSpaceOnUse" x="23" y="27" width="25" height="19">
<path d="M47.7685 33.5079L35.6372 45.6392L23.5059 33.5079L31.2258 27.8711H39.926L47.7685 33.5079Z" fill="black"/>
</mask>
<g mask="url(#mask1_461_11802)">
<path fill-rule="evenodd" clip-rule="evenodd" d="M28.0781 31.6668C30.4874 30.2528 33.2215 29.5078 36.0056 29.5078C38.7896 29.5078 41.5237 30.2528 43.933 31.6668C46.3422 33.0808 48.3409 35.1134 49.7299 37.5589L47.7398 38.6972C46.5486 36.5998 44.8363 34.86 42.7766 33.6511C40.717 32.4423 38.3818 31.8065 36.0056 31.8065C33.6294 31.8065 31.2942 32.4423 29.2345 33.6511C27.1748 34.86 25.4626 36.5998 24.2714 38.6972L22.2812 37.5589C23.6702 35.1134 25.6689 33.0808 28.0781 31.6668Z" fill="#E4E4E7"/>
<path fill-rule="evenodd" clip-rule="evenodd" d="M30.9435 36.6451C32.4826 35.7344 34.2305 35.2539 36.0111 35.2539C37.7917 35.2539 39.5396 35.7344 41.0787 36.6451C42.6177 37.5557 43.8927 38.8636 44.778 40.4351L42.7839 41.5664C42.0943 40.3422 41.1041 39.3287 39.9153 38.6252C38.7266 37.9219 37.3802 37.5526 36.0111 37.5526C34.642 37.5526 33.2956 37.9219 32.1069 38.6252C30.9181 39.3287 29.928 40.3422 29.2383 41.5664L27.2443 40.4351C28.1295 38.8636 29.4045 37.5557 30.9435 36.6451Z" fill="#E4E4E7"/>
<path fill-rule="evenodd" clip-rule="evenodd" d="M37.4668 41.8253C36.9123 41.5348 36.3003 41.3828 35.6786 41.3828C35.057 41.3828 34.4449 41.5348 33.8905 41.8253C33.8174 41.8636 33.7453 41.9043 33.6743 41.9474C33.1605 42.2593 32.7201 42.6864 32.3838 43.1968C32.3212 43.2917 32.2622 43.3895 32.207 43.49L35.6786 45.5971L39.1503 43.49C39.0951 43.3895 39.0361 43.2917 38.9735 43.1968C38.6371 42.6864 38.1968 42.2593 37.683 41.9474C37.612 41.9043 37.5399 41.8636 37.4668 41.8253Z" fill="#E4E4E7"/>
</g>
</g>
<g filter="url(#filter4_b_461_11802)">
<circle cx="20" cy="20" r="20" transform="matrix(1 0 0 -1 84 56)" fill="url(#paint9_linear_461_11802)"/>
<circle cx="20" cy="20" r="19.7279" transform="matrix(1 0 0 -1 84 56)" stroke="url(#paint10_linear_461_11802)" stroke-opacity="0.1" stroke-width="0.54424"/>
</g>
<g clip-path="url(#clip2_461_11802)">
<circle cx="104" cy="30.5" r="5.4" stroke="#E4E4E7" stroke-width="1.2"/>
<mask id="path-43-inside-1_461_11802" fill="white">
<path d="M114.384 45.8026C114.384 43.0484 113.302 40.407 111.376 38.4596C109.451 36.5121 106.839 35.418 104.115 35.418C101.391 35.418 98.7793 36.5121 96.8535 38.4596C94.9276 40.407 93.8457 43.0484 93.8457 45.8026L104.115 45.8026H114.384Z"/>
</mask>
<path d="M114.384 45.8026C114.384 43.0484 113.302 40.407 111.376 38.4596C109.451 36.5121 106.839 35.418 104.115 35.418C101.391 35.418 98.7793 36.5121 96.8535 38.4596C94.9276 40.407 93.8457 43.0484 93.8457 45.8026L104.115 45.8026H114.384Z" stroke="#E4E4E7" stroke-width="2.4" mask="url(#path-43-inside-1_461_11802)"/>
</g>
<g filter="url(#filter5_b_461_11802)">
<circle cx="52" cy="52" r="52" transform="matrix(1 0 0 -1 567 168)" fill="url(#paint11_linear_461_11802)"/>
<circle cx="52" cy="52" r="51.6025" transform="matrix(1 0 0 -1 567 168)" stroke="url(#paint12_linear_461_11802)" stroke-opacity="0.1" stroke-width="0.795037"/>
</g>
<path d="M643.243 114.214C643.243 127.939 632.204 139.052 618.603 139.052C605.002 139.052 593.963 127.939 593.963 114.214C593.963 100.488 605.002 89.375 618.603 89.375C632.204 89.375 643.243 100.488 643.243 114.214Z" stroke="#D9D9D9" stroke-width="2"/>
<path d="M634.516 133.504L640.516 139.504" stroke="#D9D9D9" stroke-width="2"/>
<g filter="url(#filter6_b_461_11802)">
<circle cx="52" cy="52" r="52" transform="matrix(1 0 0 -1 567 276)" fill="url(#paint13_linear_461_11802)"/>
<circle cx="52" cy="52" r="51.6025" transform="matrix(1 0 0 -1 567 276)" stroke="url(#paint14_linear_461_11802)" stroke-opacity="0.1" stroke-width="0.795037"/>
</g>
<circle cx="619.392" cy="227.595" r="25.8142" stroke="#D9D9D9" stroke-width="2"/>
<path fill-rule="evenodd" clip-rule="evenodd" d="M619.392 212.117C610.841 212.117 603.908 219.05 603.908 227.601H601.908C601.908 217.945 609.736 210.117 619.392 210.117C624.941 210.117 629.887 212.703 633.088 216.732L632.588 217.129L632.6 217.141L625.896 223.847C626.535 224.951 626.901 226.234 626.901 227.602C626.901 231.748 623.539 235.11 619.393 235.11C615.246 235.11 611.885 231.748 611.885 227.602C611.885 223.455 615.246 220.094 619.393 220.094C621.446 220.094 623.306 220.918 624.661 222.253L630.301 216.612C627.501 213.833 623.647 212.117 619.392 212.117ZM624.901 227.602C624.901 230.644 622.435 233.11 619.393 233.11C616.351 233.11 613.885 230.644 613.885 227.602C613.885 224.56 616.351 222.094 619.393 222.094C622.435 222.094 624.901 224.56 624.901 227.602Z" fill="#D9D9D9"/>
<path d="M613.115 194.781H625.669" stroke="#D9D9D9" stroke-width="2"/>
<g filter="url(#filter7_bd_461_11802)">
<rect x="16" y="91" width="151" height="37" rx="8" fill="url(#paint15_linear_461_11802)"/>
</g>
<path d="M50 108C49.4477 108 49 108.448 49 109C49 109.552 49.4477 110 50 110L50 108ZM50 110L132 110L132 108L50 108L50 110Z" fill="url(#paint16_linear_461_11802)" fill-opacity="0.4"/>
<ellipse cx="32.5641" cy="109.113" rx="5.68515" ry="5.30865" fill="white"/>
<g filter="url(#filter8_bd_461_11802)">
<rect x="16" y="132" width="151" height="37" rx="8" fill="white" fill-opacity="0.1" shape-rendering="crispEdges"/>
</g>
<path d="M50 150C49.4477 150 49 150.448 49 151C49 151.552 49.4477 152 50 152L50 150ZM50 152L132 152L132 150L50 150L50 152Z" fill="url(#paint17_linear_461_11802)" fill-opacity="0.16"/>
<ellipse cx="32.5641" cy="150.676" rx="5.68515" ry="5.30865" fill="#ADADB0"/>
<g filter="url(#filter9_bd_461_11802)">
<rect x="16" y="173" width="151" height="38" rx="8" fill="white" fill-opacity="0.1" shape-rendering="crispEdges"/>
</g>
<path d="M50 191C49.4477 191 49 191.448 49 192C49 192.552 49.4477 193 50 193L50 191ZM50 193L132 193L132 191L50 191L50 193Z" fill="url(#paint18_linear_461_11802)" fill-opacity="0.16"/>
<ellipse cx="32.5641" cy="192.238" rx="5.68515" ry="5.30865" fill="#ADADB0"/>
<defs>
<filter id="filter0_bd_461_11802" x="111.474" y="-0.525545" width="468.051" height="293.051" filterUnits="userSpaceOnUse" color-interpolation-filters="sRGB">
<feFlood flood-opacity="0" result="BackgroundImageFix"/>
<feGaussianBlur in="BackgroundImageFix" stdDeviation="7.76277"/>
<feComposite in2="SourceAlpha" operator="in" result="effect1_backgroundBlur_461_11802"/>
<feColorMatrix in="SourceAlpha" type="matrix" values="0 0 0 0 0 0 0 0 0 0 0 0 0 0 0 0 0 0 127 0" result="hardAlpha"/>
<feOffset dy="2.48409"/>
<feGaussianBlur stdDeviation="2.48409"/>
<feComposite in2="hardAlpha" operator="out"/>
<feColorMatrix type="matrix" values="0 0 0 0 0 0 0 0 0 0 0 0 0 0 0 0 0 0 0.02 0"/>
<feBlend mode="normal" in2="effect1_backgroundBlur_461_11802" result="effect2_dropShadow_461_11802"/>
<feBlend mode="normal" in="SourceGraphic" in2="effect2_dropShadow_461_11802" result="shape"/>
</filter>
<filter id="filter1_bd_461_11802" x="106.904" y="24.9041" width="477.192" height="269.192" filterUnits="userSpaceOnUse" color-interpolation-filters="sRGB">
<feFlood flood-opacity="0" result="BackgroundImageFix"/>
<feGaussianBlur in="BackgroundImageFix" stdDeviation="12.5479"/>
<feComposite in2="SourceAlpha" operator="in" result="effect1_backgroundBlur_461_11802"/>
<feColorMatrix in="SourceAlpha" type="matrix" values="0 0 0 0 0 0 0 0 0 0 0 0 0 0 0 0 0 0 127 0" result="hardAlpha"/>
<feOffset dy="2.09868"/>
<feGaussianBlur stdDeviation="2.09868"/>
<feComposite in2="hardAlpha" operator="out"/>
<feColorMatrix type="matrix" values="0 0 0 0 0 0 0 0 0 0 0 0 0 0 0 0 0 0 0.02 0"/>
<feBlend mode="normal" in2="effect1_backgroundBlur_461_11802" result="effect2_dropShadow_461_11802"/>
<feBlend mode="normal" in="SourceGraphic" in2="effect2_dropShadow_461_11802" result="shape"/>
</filter>
<filter id="filter2_b_461_11802" x="110.825" y="207.825" width="469.349" height="85.3493" filterUnits="userSpaceOnUse" color-interpolation-filters="sRGB">
<feFlood flood-opacity="0" result="BackgroundImageFix"/>
<feGaussianBlur in="BackgroundImageFix" stdDeviation="10.5873"/>
<feComposite in2="SourceAlpha" operator="in" result="effect1_backgroundBlur_461_11802"/>
<feBlend mode="normal" in="SourceGraphic" in2="effect1_backgroundBlur_461_11802" result="shape"/>
</filter>
<filter id="filter3_b_461_11802" x="11.6461" y="11.6461" width="48.7078" height="48.7078" filterUnits="userSpaceOnUse" color-interpolation-filters="sRGB">
<feFlood flood-opacity="0" result="BackgroundImageFix"/>
<feGaussianBlur in="BackgroundImageFix" stdDeviation="2.17696"/>
<feComposite in2="SourceAlpha" operator="in" result="effect1_backgroundBlur_461_11802"/>
<feBlend mode="normal" in="SourceGraphic" in2="effect1_backgroundBlur_461_11802" result="shape"/>
</filter>
<filter id="filter4_b_461_11802" x="79.6461" y="11.6461" width="48.7078" height="48.7078" filterUnits="userSpaceOnUse" color-interpolation-filters="sRGB">
<feFlood flood-opacity="0" result="BackgroundImageFix"/>
<feGaussianBlur in="BackgroundImageFix" stdDeviation="2.17696"/>
<feComposite in2="SourceAlpha" operator="in" result="effect1_backgroundBlur_461_11802"/>
<feBlend mode="normal" in="SourceGraphic" in2="effect1_backgroundBlur_461_11802" result="shape"/>
</filter>
<filter id="filter5_b_461_11802" x="551.099" y="48.0993" width="135.801" height="135.801" filterUnits="userSpaceOnUse" color-interpolation-filters="sRGB">
<feFlood flood-opacity="0" result="BackgroundImageFix"/>
<feGaussianBlur in="BackgroundImageFix" stdDeviation="7.95037"/>
<feComposite in2="SourceAlpha" operator="in" result="effect1_backgroundBlur_461_11802"/>
<feBlend mode="normal" in="SourceGraphic" in2="effect1_backgroundBlur_461_11802" result="shape"/>
</filter>
<filter id="filter6_b_461_11802" x="551.099" y="156.099" width="135.801" height="135.801" filterUnits="userSpaceOnUse" color-interpolation-filters="sRGB">
<feFlood flood-opacity="0" result="BackgroundImageFix"/>
<feGaussianBlur in="BackgroundImageFix" stdDeviation="7.95037"/>
<feComposite in2="SourceAlpha" operator="in" result="effect1_backgroundBlur_461_11802"/>
<feBlend mode="normal" in="SourceGraphic" in2="effect1_backgroundBlur_461_11802" result="shape"/>
</filter>
<filter id="filter7_bd_461_11802" x="-59.2877" y="15.7123" width="301.575" height="187.575" filterUnits="userSpaceOnUse" color-interpolation-filters="sRGB">
<feFlood flood-opacity="0" result="BackgroundImageFix"/>
<feGaussianBlur in="BackgroundImageFix" stdDeviation="37.6438"/>
<feComposite in2="SourceAlpha" operator="in" result="effect1_backgroundBlur_461_11802"/>
<feColorMatrix in="SourceAlpha" type="matrix" values="0 0 0 0 0 0 0 0 0 0 0 0 0 0 0 0 0 0 127 0" result="hardAlpha"/>
<feOffset dy="6.29603"/>
<feGaussianBlur stdDeviation="6.29603"/>
<feComposite in2="hardAlpha" operator="out"/>
<feColorMatrix type="matrix" values="0 0 0 0 0 0 0 0 0 0 0 0 0 0 0 0 0 0 0.02 0"/>
<feBlend mode="normal" in2="effect1_backgroundBlur_461_11802" result="effect2_dropShadow_461_11802"/>
<feBlend mode="normal" in="SourceGraphic" in2="effect2_dropShadow_461_11802" result="shape"/>
</filter>
<filter id="filter8_bd_461_11802" x="-59.2877" y="56.7123" width="301.575" height="187.575" filterUnits="userSpaceOnUse" color-interpolation-filters="sRGB">
<feFlood flood-opacity="0" result="BackgroundImageFix"/>
<feGaussianBlur in="BackgroundImageFix" stdDeviation="37.6438"/>
<feComposite in2="SourceAlpha" operator="in" result="effect1_backgroundBlur_461_11802"/>
<feColorMatrix in="SourceAlpha" type="matrix" values="0 0 0 0 0 0 0 0 0 0 0 0 0 0 0 0 0 0 127 0" result="hardAlpha"/>
<feOffset dy="6.29603"/>
<feGaussianBlur stdDeviation="6.29603"/>
<feComposite in2="hardAlpha" operator="out"/>
<feColorMatrix type="matrix" values="0 0 0 0 0 0 0 0 0 0 0 0 0 0 0 0 0 0 0.02 0"/>
<feBlend mode="normal" in2="effect1_backgroundBlur_461_11802" result="effect2_dropShadow_461_11802"/>
<feBlend mode="normal" in="SourceGraphic" in2="effect2_dropShadow_461_11802" result="shape"/>
</filter>
<filter id="filter9_bd_461_11802" x="-59.2877" y="97.7123" width="301.575" height="188.575" filterUnits="userSpaceOnUse" color-interpolation-filters="sRGB">
<feFlood flood-opacity="0" result="BackgroundImageFix"/>
<feGaussianBlur in="BackgroundImageFix" stdDeviation="37.6438"/>
<feComposite in2="SourceAlpha" operator="in" result="effect1_backgroundBlur_461_11802"/>
<feColorMatrix in="SourceAlpha" type="matrix" values="0 0 0 0 0 0 0 0 0 0 0 0 0 0 0 0 0 0 127 0" result="hardAlpha"/>
<feOffset dy="6.29603"/>
<feGaussianBlur stdDeviation="6.29603"/>
<feComposite in2="hardAlpha" operator="out"/>
<feColorMatrix type="matrix" values="0 0 0 0 0 0 0 0 0 0 0 0 0 0 0 0 0 0 0.02 0"/>
<feBlend mode="normal" in2="effect1_backgroundBlur_461_11802" result="effect2_dropShadow_461_11802"/>
<feBlend mode="normal" in="SourceGraphic" in2="effect2_dropShadow_461_11802" result="shape"/>
</filter>
<linearGradient id="paint0_linear_461_11802" x1="345.5" y1="16" x2="345.5" y2="289.983" gradientUnits="userSpaceOnUse">
<stop stop-color="#232325"/>
<stop offset="1" stop-color="#232325" stop-opacity="0.6"/>
</linearGradient>
<linearGradient id="paint1_linear_461_11802" x1="345.5" y1="16" x2="345.5" y2="293.006" gradientUnits="userSpaceOnUse">
<stop stop-color="white" stop-opacity="0.24"/>
<stop offset="1" stop-color="white" stop-opacity="0"/>
</linearGradient>
<radialGradient id="paint2_radial_461_11802" cx="0" cy="0" r="1" gradientUnits="userSpaceOnUse" gradientTransform="translate(329.777 171.545) rotate(142.804) scale(188.811 184.302)">
<stop stop-color="#FED367"/>
<stop offset="1" stop-color="#FED367" stop-opacity="0"/>
</radialGradient>
<linearGradient id="paint3_linear_461_11802" x1="88.7581" y1="77.7802" x2="-414.737" y2="-83.3163" gradientUnits="userSpaceOnUse">
<stop stop-color="#FED367"/>
<stop offset="1" stop-color="#FEE5A4"/>
</linearGradient>
<linearGradient id="paint4_linear_461_11802" x1="395.358" y1="91.9464" x2="412.133" y2="170.552" gradientUnits="userSpaceOnUse">
<stop stop-color="#FFEDC2"/>
<stop offset="1" stop-color="#FEE5A4"/>
</linearGradient>
<linearGradient id="paint5_linear_461_11802" x1="294.987" y1="-242.494" x2="294.712" y2="292.654" gradientUnits="userSpaceOnUse">
<stop stop-color="#FFEDC2"/>
<stop offset="1" stop-color="#FED367"/>
</linearGradient>
<linearGradient id="paint6_linear_461_11802" x1="59" y1="228.523" x2="559.229" y2="228.523" gradientUnits="userSpaceOnUse">
<stop stop-color="#FD366E"/>
<stop offset="1" stop-color="#FE6C6A"/>
</linearGradient>
<linearGradient id="paint7_linear_461_11802" x1="40" y1="1.19209e-06" x2="-1.09613e-06" y2="39.0476" gradientUnits="userSpaceOnUse">
<stop stop-color="white" stop-opacity="0.12"/>
<stop offset="0.615652" stop-color="white" stop-opacity="0.04"/>
</linearGradient>
<linearGradient id="paint8_linear_461_11802" x1="0" y1="40" x2="40" y2="0" gradientUnits="userSpaceOnUse">
<stop stop-color="white" stop-opacity="0"/>
<stop offset="1" stop-color="white" stop-opacity="0.54"/>
</linearGradient>
<linearGradient id="paint9_linear_461_11802" x1="40" y1="1.19209e-06" x2="-1.09613e-06" y2="39.0476" gradientUnits="userSpaceOnUse">
<stop stop-color="white" stop-opacity="0.12"/>
<stop offset="0.615652" stop-color="white" stop-opacity="0.04"/>
</linearGradient>
<linearGradient id="paint10_linear_461_11802" x1="0" y1="40" x2="40" y2="0" gradientUnits="userSpaceOnUse">
<stop stop-color="white" stop-opacity="0"/>
<stop offset="1" stop-color="white" stop-opacity="0.54"/>
</linearGradient>
<linearGradient id="paint11_linear_461_11802" x1="104" y1="3.09944e-06" x2="-2.84994e-06" y2="101.524" gradientUnits="userSpaceOnUse">
<stop stop-color="white" stop-opacity="0.12"/>
<stop offset="0.615652" stop-color="white" stop-opacity="0.04"/>
</linearGradient>
<linearGradient id="paint12_linear_461_11802" x1="0" y1="104" x2="104" y2="0" gradientUnits="userSpaceOnUse">
<stop stop-color="white" stop-opacity="0"/>
<stop offset="1" stop-color="white" stop-opacity="0.54"/>
</linearGradient>
<linearGradient id="paint13_linear_461_11802" x1="104" y1="3.09944e-06" x2="-2.84994e-06" y2="101.524" gradientUnits="userSpaceOnUse">
<stop stop-color="white" stop-opacity="0.12"/>
<stop offset="0.615652" stop-color="white" stop-opacity="0.04"/>
</linearGradient>
<linearGradient id="paint14_linear_461_11802" x1="0" y1="104" x2="104" y2="0" gradientUnits="userSpaceOnUse">
<stop stop-color="white" stop-opacity="0"/>
<stop offset="1" stop-color="white" stop-opacity="0.54"/>
</linearGradient>
<linearGradient id="paint15_linear_461_11802" x1="23.6046" y1="90.6011" x2="279.684" y2="179.542" gradientUnits="userSpaceOnUse">
<stop stop-color="#FD366E"/>
<stop offset="1" stop-color="#FE9567"/>
</linearGradient>
<linearGradient id="paint16_linear_461_11802" x1="50" y1="109" x2="132" y2="109" gradientUnits="userSpaceOnUse">
<stop stop-color="white"/>
<stop offset="1" stop-color="white" stop-opacity="0"/>
</linearGradient>
<linearGradient id="paint17_linear_461_11802" x1="50" y1="151" x2="132" y2="151" gradientUnits="userSpaceOnUse">
<stop stop-color="white"/>
<stop offset="1" stop-color="white" stop-opacity="0"/>
</linearGradient>
<linearGradient id="paint18_linear_461_11802" x1="50" y1="192" x2="132" y2="192" gradientUnits="userSpaceOnUse">
<stop stop-color="white"/>
<stop offset="1" stop-color="white" stop-opacity="0"/>
</linearGradient>
<clipPath id="clip0_461_11802">
<rect width="543" height="10" fill="white" transform="translate(16 223)"/>
</clipPath>
<clipPath id="clip1_461_11802">
<rect width="24" height="24" fill="white" transform="translate(23.7734 24)"/>
</clipPath>
<clipPath id="clip2_461_11802">
<rect width="24" height="24" fill="white" transform="translate(92 24)"/>
</clipPath>
</defs>
</svg>
