<svg xmlns="http://www.w3.org/2000/svg" width="460" height="644" fill="none" viewBox="0 0 460 644"><g filter="url(#filter0_b_320_6457)"><mask id="path-1-inside-1_320_6457" fill="#fff"><path fill-rule="evenodd" d="M1.7439 8.73615C0 12.1587 0 16.6392 0 25.6V618.4C0 627.361 0 631.841 1.7439 635.264C3.27787 638.274 5.72556 640.722 8.73615 642.256C12.1587 644 16.6392 644 25.6 644H434.4C443.361 644 447.841 644 451.264 642.256C454.274 640.722 456.722 638.274 458.256 635.264C460 631.841 460 627.361 460 618.4V25.6C460 16.6392 460 12.1587 458.256 8.73615C456.722 5.72556 454.274 3.27787 451.264 1.7439C447.841 0 443.361 0 434.4 0H25.6C16.6392 0 12.1587 0 8.73615 1.7439C5.72556 3.27787 3.27787 5.72556 1.7439 8.73615ZM194 16C191.791 16 190 17.7909 190 20C190 22.2091 191.791 24 194 24H266C268.209 24 270 22.2091 270 20C270 17.7909 268.209 16 266 16H194Z" clip-rule="evenodd"/></mask><path fill="#151518" fill-rule="evenodd" d="M1.7439 8.73615C0 12.1587 0 16.6392 0 25.6V618.4C0 627.361 0 631.841 1.7439 635.264C3.27787 638.274 5.72556 640.722 8.73615 642.256C12.1587 644 16.6392 644 25.6 644H434.4C443.361 644 447.841 644 451.264 642.256C454.274 640.722 456.722 638.274 458.256 635.264C460 631.841 460 627.361 460 618.4V25.6C460 16.6392 460 12.1587 458.256 8.73615C456.722 5.72556 454.274 3.27787 451.264 1.7439C447.841 0 443.361 0 434.4 0H25.6C16.6392 0 12.1587 0 8.73615 1.7439C5.72556 3.27787 3.27787 5.72556 1.7439 8.73615ZM194 16C191.791 16 190 17.7909 190 20C190 22.2091 191.791 24 194 24H266C268.209 24 270 22.2091 270 20C270 17.7909 268.209 16 266 16H194Z" clip-rule="evenodd"/><path fill="#FD366E" fill-opacity=".12" fill-rule="evenodd" d="M1.7439 8.73615C0 12.1587 0 16.6392 0 25.6V618.4C0 627.361 0 631.841 1.7439 635.264C3.27787 638.274 5.72556 640.722 8.73615 642.256C12.1587 644 16.6392 644 25.6 644H434.4C443.361 644 447.841 644 451.264 642.256C454.274 640.722 456.722 638.274 458.256 635.264C460 631.841 460 627.361 460 618.4V25.6C460 16.6392 460 12.1587 458.256 8.73615C456.722 5.72556 454.274 3.27787 451.264 1.7439C447.841 0 443.361 0 434.4 0H25.6C16.6392 0 12.1587 0 8.73615 1.7439C5.72556 3.27787 3.27787 5.72556 1.7439 8.73615ZM194 16C191.791 16 190 17.7909 190 20C190 22.2091 191.791 24 194 24H266C268.209 24 270 22.2091 270 20C270 17.7909 268.209 16 266 16H194Z" clip-rule="evenodd"/><path fill="url(#paint0_linear_320_6457)" fill-opacity=".48" d="M1.7439 8.73615L0.852889 8.28216L0.852889 8.28216L1.7439 8.73615ZM1.7439 635.264L0.852888 635.718L0.852891 635.718L1.7439 635.264ZM8.73615 642.256L8.28216 643.147L8.28216 643.147L8.73615 642.256ZM451.264 642.256L451.718 643.147L451.718 643.147L451.264 642.256ZM458.256 635.264L459.147 635.718L459.147 635.718L458.256 635.264ZM458.256 8.73615L457.365 9.19014L457.365 9.19014L458.256 8.73615ZM451.264 1.7439L451.718 0.852889L451.718 0.852888L451.264 1.7439ZM8.73615 1.7439L8.28216 0.852889L8.28216 0.852889L8.73615 1.7439ZM1 25.6C1 21.1031 1.00078 17.7905 1.21467 15.1727C1.4276 12.5665 1.84675 10.737 2.6349 9.19014L0.852889 8.28216C-0.102859 10.1579 -0.555652 12.2799 -0.778692 15.0098C-1.00078 17.728 -1 21.1361 -1 25.6H1ZM1 618.4V25.6H-1V618.4H1ZM2.6349 634.81C1.84675 633.263 1.4276 631.434 1.21467 628.827C1.00078 626.209 1 622.897 1 618.4H-1C-1 622.864 -1.00078 626.272 -0.778692 628.99C-0.555652 631.72 -0.102859 633.842 0.852888 635.718L2.6349 634.81ZM9.19015 641.365C6.36771 639.927 4.073 637.632 2.6349 634.81L0.852891 635.718C2.48274 638.917 5.08341 641.517 8.28216 643.147L9.19015 641.365ZM25.6 643C21.1031 643 17.7905 642.999 15.1727 642.785C12.5665 642.572 10.737 642.153 9.19014 641.365L8.28216 643.147C10.1579 644.103 12.2799 644.556 15.0098 644.779C17.728 645.001 21.1361 645 25.6 645V643ZM434.4 643H25.6V645H434.4V643ZM450.81 641.365C449.263 642.153 447.434 642.572 444.827 642.785C442.209 642.999 438.897 643 434.4 643V645C438.864 645 442.272 645.001 444.99 644.779C447.72 644.556 449.842 644.103 451.718 643.147L450.81 641.365ZM457.365 634.81C455.927 637.632 453.632 639.927 450.81 641.365L451.718 643.147C454.917 641.517 457.517 638.917 459.147 635.718L457.365 634.81ZM459 618.4C459 622.897 458.999 626.209 458.785 628.827C458.572 631.434 458.153 633.263 457.365 634.81L459.147 635.718C460.103 633.842 460.556 631.72 460.779 628.99C461.001 626.272 461 622.864 461 618.4H459ZM459 25.6V618.4H461V25.6H459ZM457.365 9.19014C458.153 10.737 458.572 12.5665 458.785 15.1727C458.999 17.7905 459 21.1031 459 25.6H461C461 21.1361 461.001 17.728 460.779 15.0098C460.556 12.2799 460.103 10.1579 459.147 8.28216L457.365 9.19014ZM450.81 2.6349C453.632 4.073 455.927 6.36771 457.365 9.19014L459.147 8.28216C457.517 5.08341 454.917 2.48274 451.718 0.852889L450.81 2.6349ZM434.4 1C438.897 1 442.209 1.00078 444.827 1.21467C447.434 1.4276 449.263 1.84675 450.81 2.6349L451.718 0.852888C449.842 -0.102859 447.72 -0.555652 444.99 -0.778692C442.272 -1.00078 438.864 -1 434.4 -1V1ZM25.6 1H434.4V-1H25.6V1ZM9.19014 2.6349C10.737 1.84675 12.5665 1.4276 15.1727 1.21467C17.7905 1.00078 21.1031 1 25.6 1V-1C21.1361 -1 17.728 -1.00078 15.0098 -0.778692C12.2799 -0.555652 10.1579 -0.102859 8.28216 0.852889L9.19014 2.6349ZM2.6349 9.19014C4.073 6.36771 6.36771 4.073 9.19014 2.6349L8.28216 0.852889C5.08341 2.48274 2.48274 5.08341 0.852889 8.28216L2.6349 9.19014ZM191 20C191 18.3431 192.343 17 194 17V15C191.239 15 189 17.2386 189 20H191ZM194 23C192.343 23 191 21.6569 191 20H189C189 22.7614 191.239 25 194 25V23ZM266 23H194V25H266V23ZM269 20C269 21.6569 267.657 23 266 23V25C268.761 25 271 22.7614 271 20H269ZM266 17C267.657 17 269 18.3431 269 20H271C271 17.2386 268.761 15 266 15V17ZM194 17H266V15H194V17Z" mask="url(#path-1-inside-1_320_6457)"/><path fill="url(#paint1_linear_320_6457)" d="M1.7439 8.73615L0.852889 8.28216L0.852889 8.28216L1.7439 8.73615ZM1.7439 635.264L0.852888 635.718L0.852891 635.718L1.7439 635.264ZM8.73615 642.256L8.28216 643.147L8.28216 643.147L8.73615 642.256ZM451.264 642.256L451.718 643.147L451.718 643.147L451.264 642.256ZM458.256 635.264L459.147 635.718L459.147 635.718L458.256 635.264ZM458.256 8.73615L457.365 9.19014L457.365 9.19014L458.256 8.73615ZM451.264 1.7439L451.718 0.852889L451.718 0.852888L451.264 1.7439ZM8.73615 1.7439L8.28216 0.852889L8.28216 0.852889L8.73615 1.7439ZM1 25.6C1 21.1031 1.00078 17.7905 1.21467 15.1727C1.4276 12.5665 1.84675 10.737 2.6349 9.19014L0.852889 8.28216C-0.102859 10.1579 -0.555652 12.2799 -0.778692 15.0098C-1.00078 17.728 -1 21.1361 -1 25.6H1ZM1 618.4V25.6H-1V618.4H1ZM2.6349 634.81C1.84675 633.263 1.4276 631.434 1.21467 628.827C1.00078 626.209 1 622.897 1 618.4H-1C-1 622.864 -1.00078 626.272 -0.778692 628.99C-0.555652 631.72 -0.102859 633.842 0.852888 635.718L2.6349 634.81ZM9.19015 641.365C6.36771 639.927 4.073 637.632 2.6349 634.81L0.852891 635.718C2.48274 638.917 5.08341 641.517 8.28216 643.147L9.19015 641.365ZM25.6 643C21.1031 643 17.7905 642.999 15.1727 642.785C12.5665 642.572 10.737 642.153 9.19014 641.365L8.28216 643.147C10.1579 644.103 12.2799 644.556 15.0098 644.779C17.728 645.001 21.1361 645 25.6 645V643ZM434.4 643H25.6V645H434.4V643ZM450.81 641.365C449.263 642.153 447.434 642.572 444.827 642.785C442.209 642.999 438.897 643 434.4 643V645C438.864 645 442.272 645.001 444.99 644.779C447.72 644.556 449.842 644.103 451.718 643.147L450.81 641.365ZM457.365 634.81C455.927 637.632 453.632 639.927 450.81 641.365L451.718 643.147C454.917 641.517 457.517 638.917 459.147 635.718L457.365 634.81ZM459 618.4C459 622.897 458.999 626.209 458.785 628.827C458.572 631.434 458.153 633.263 457.365 634.81L459.147 635.718C460.103 633.842 460.556 631.72 460.779 628.99C461.001 626.272 461 622.864 461 618.4H459ZM459 25.6V618.4H461V25.6H459ZM457.365 9.19014C458.153 10.737 458.572 12.5665 458.785 15.1727C458.999 17.7905 459 21.1031 459 25.6H461C461 21.1361 461.001 17.728 460.779 15.0098C460.556 12.2799 460.103 10.1579 459.147 8.28216L457.365 9.19014ZM450.81 2.6349C453.632 4.073 455.927 6.36771 457.365 9.19014L459.147 8.28216C457.517 5.08341 454.917 2.48274 451.718 0.852889L450.81 2.6349ZM434.4 1C438.897 1 442.209 1.00078 444.827 1.21467C447.434 1.4276 449.263 1.84675 450.81 2.6349L451.718 0.852888C449.842 -0.102859 447.72 -0.555652 444.99 -0.778692C442.272 -1.00078 438.864 -1 434.4 -1V1ZM25.6 1H434.4V-1H25.6V1ZM9.19014 2.6349C10.737 1.84675 12.5665 1.4276 15.1727 1.21467C17.7905 1.00078 21.1031 1 25.6 1V-1C21.1361 -1 17.728 -1.00078 15.0098 -0.778692C12.2799 -0.555652 10.1579 -0.102859 8.28216 0.852889L9.19014 2.6349ZM2.6349 9.19014C4.073 6.36771 6.36771 4.073 9.19014 2.6349L8.28216 0.852889C5.08341 2.48274 2.48274 5.08341 0.852889 8.28216L2.6349 9.19014ZM191 20C191 18.3431 192.343 17 194 17V15C191.239 15 189 17.2386 189 20H191ZM194 23C192.343 23 191 21.6569 191 20H189C189 22.7614 191.239 25 194 25V23ZM266 23H194V25H266V23ZM269 20C269 21.6569 267.657 23 266 23V25C268.761 25 271 22.7614 271 20H269ZM266 17C267.657 17 269 18.3431 269 20H271C271 17.2386 268.761 15 266 15V17ZM194 17H266V15H194V17Z" mask="url(#path-1-inside-1_320_6457)"/></g><defs><filter id="filter0_b_320_6457" width="492" height="676" x="-16" y="-16" color-interpolation-filters="sRGB" filterUnits="userSpaceOnUse"><feFlood flood-opacity="0" result="BackgroundImageFix"/><feGaussianBlur in="BackgroundImageFix" stdDeviation="8"/><feComposite in2="SourceAlpha" operator="in" result="effect1_backgroundBlur_320_6457"/><feBlend in="SourceGraphic" in2="effect1_backgroundBlur_320_6457" mode="normal" result="shape"/></filter><linearGradient id="paint0_linear_320_6457" x1="460" x2="274.904" y1="0" y2="26.444" gradientUnits="userSpaceOnUse"><stop stop-color="#FD366E"/><stop offset="1" stop-color="#FD366E" stop-opacity="0"/></linearGradient><linearGradient id="paint1_linear_320_6457" x1="442.5" x2="332.894" y1="0" y2="151.707" gradientUnits="userSpaceOnUse"><stop stop-color="#fff" stop-opacity=".2"/><stop offset="1" stop-color="#fff" stop-opacity="0"/></linearGradient></defs></svg>