<svg xmlns="http://www.w3.org/2000/svg" width="460" height="644" fill="none" viewBox="0 0 460 644"><g clip-path="url(#clip0_372_2697)"><g filter="url(#filter0_d_372_2697)"><g clip-path="url(#clip1_372_2697)"><path fill="#000" fill-rule="evenodd" d="M0 16C0 7.16343 7.16344 0 16 0H444C452.837 0 460 7.16344 460 16V628C460 636.837 452.837 644 444 644H16C7.16343 644 0 636.837 0 628V16ZM190 20C190 17.7909 191.791 16 194 16H266C268.209 16 270 17.7909 270 20C270 22.2091 268.209 24 266 24H194C191.791 24 190 22.2091 190 20Z" clip-rule="evenodd"/><path fill="url(#paint0_linear_372_2697)" fill-opacity=".2" fill-rule="evenodd" d="M0 16C0 7.16343 7.16344 0 16 0H444C452.837 0 460 7.16344 460 16V628C460 636.837 452.837 644 444 644H16C7.16343 644 0 636.837 0 628V16ZM190 20C190 17.7909 191.791 16 194 16H266C268.209 16 270 17.7909 270 20C270 22.2091 268.209 24 266 24H194C191.791 24 190 22.2091 190 20Z" clip-rule="evenodd"/><g filter="url(#filter1_b_372_2697)"><rect width="459" height="643" x=".5" y=".5" stroke="url(#paint1_linear_372_2697)" stroke-opacity=".64" rx="15.5"/></g></g></g></g><defs><filter id="filter0_d_372_2697" width="648" height="832" x="-94" y="-90" color-interpolation-filters="sRGB" filterUnits="userSpaceOnUse"><feFlood flood-opacity="0" result="BackgroundImageFix"/><feColorMatrix in="SourceAlpha" result="hardAlpha" type="matrix" values="0 0 0 0 0 0 0 0 0 0 0 0 0 0 0 0 0 0 127 0"/><feOffset dy="4"/><feGaussianBlur stdDeviation="47"/><feComposite in2="hardAlpha" operator="out"/><feColorMatrix type="matrix" values="0 0 0 0 0 0 0 0 0 0 0 0 0 0 0 0 0 0 0.16 0"/><feBlend in2="BackgroundImageFix" mode="normal" result="effect1_dropShadow_372_2697"/><feBlend in="SourceGraphic" in2="effect1_dropShadow_372_2697" mode="normal" result="shape"/></filter><filter id="filter1_b_372_2697" width="492" height="676" x="-16" y="-16" color-interpolation-filters="sRGB" filterUnits="userSpaceOnUse"><feFlood flood-opacity="0" result="BackgroundImageFix"/><feGaussianBlur in="BackgroundImageFix" stdDeviation="8"/><feComposite in2="SourceAlpha" operator="in" result="effect1_backgroundBlur_372_2697"/><feBlend in="SourceGraphic" in2="effect1_backgroundBlur_372_2697" mode="normal" result="shape"/></filter><linearGradient id="paint0_linear_372_2697" x1="443" x2="-55.5" y1="14" y2="734.5" gradientUnits="userSpaceOnUse"><stop stop-color="#fff" stop-opacity=".48"/><stop offset="1" stop-opacity="0"/></linearGradient><linearGradient id="paint1_linear_372_2697" x1="487" x2="127.5" y1="14.5" y2="338.5" gradientUnits="userSpaceOnUse"><stop stop-color="#fff" stop-opacity=".44"/><stop offset="1" stop-color="#fff" stop-opacity="0"/></linearGradient><clipPath id="clip0_372_2697"><rect width="460" height="644" fill="#fff"/></clipPath><clipPath id="clip1_372_2697"><rect width="460" height="644" fill="#fff" rx="16"/></clipPath></defs></svg>