<svg width="49" height="48" viewBox="0 0 49 48" fill="none" xmlns="http://www.w3.org/2000/svg">
<g clip-path="url(#clip0_3913_35642)">
<path d="M38.4905 17.5828C38.4185 17.5063 38.342 17.4298 38.2655 17.3578C38.189 17.2858 38.117 17.2048 38.0405 17.1328C37.964 17.0608 37.892 16.9798 37.8155 16.9078C37.739 16.8358 37.667 16.7548 37.5905 16.6828C37.514 16.6108 37.442 16.5298 37.3655 16.4578C37.289 16.3858 37.217 16.3048 37.1405 16.2328C37.064 16.1608 36.992 16.0798 36.9155 16.0078C39.1476 18.2014 40.4263 21.1856 40.475 24.3148C40.475 31.7713 32.906 37.8373 23.6 37.8373C18.389 37.8373 13.727 35.9338 10.6265 32.9503L10.8515 33.1753L11.0765 33.4003L11.3015 33.6253L11.5265 33.8503L11.7515 34.0753L11.9765 34.3003L12.2015 34.5253C15.2975 37.6348 20.063 39.6373 25.4 39.6373C34.706 39.6373 42.275 33.5713 42.275 26.1373C42.275 22.9603 40.907 19.9498 38.4905 17.5828Z" fill="#C3C3C6"/>
<path fill-rule="evenodd" clip-rule="evenodd" d="M22.304 10.7387C22.3103 11.8012 22.0872 12.8526 21.65 13.821C21.2127 14.7895 20.5717 15.6522 19.7705 16.3502C19.6445 16.4627 19.7435 16.6787 19.9055 16.6157C21.422 16.0262 23.4695 14.2622 22.6055 10.7027C22.5695 10.5002 22.304 10.5542 22.304 10.7387ZM23.3255 10.7387C23.8761 11.6371 24.2259 12.6439 24.351 13.6901C24.476 14.7364 24.3734 15.7973 24.05 16.8002C23.996 16.9577 24.1895 17.0927 24.2975 16.9622C25.283 15.7022 26.1425 13.2002 23.5685 10.5002C23.438 10.3832 23.2355 10.5632 23.3255 10.7207V10.7387ZM24.5675 10.6622C25.4298 11.2726 26.1511 12.0609 26.6828 12.9738C27.2146 13.8867 27.5444 14.903 27.65 15.9542C27.6454 15.992 27.6556 16.0302 27.6785 16.0608C27.7013 16.0914 27.735 16.112 27.7727 16.1183C27.8103 16.1247 27.8489 16.1163 27.8805 16.095C27.9121 16.0736 27.9343 16.0409 27.9425 16.0037C28.3565 14.4332 28.1225 11.7557 24.716 10.3652C24.536 10.2932 24.419 10.5362 24.5675 10.6442V10.6622ZM16.2605 15.3422C17.2862 15.0357 18.2358 14.5167 19.0476 13.8189C19.8594 13.1211 20.5151 12.2602 20.972 11.2922C21.053 11.1302 21.3095 11.1932 21.269 11.3732C20.4905 14.9732 17.885 15.7247 16.265 15.6257C16.094 15.6302 16.0985 15.3917 16.2605 15.3422Z" fill="#C3C3C6"/>
<path d="M23.6 37.8376C14.294 37.8376 6.72498 31.7716 6.72498 24.3151C6.72498 19.8151 9.50598 15.6166 14.1635 13.1011C15.5135 12.3811 16.67 11.6566 17.7005 11.0221C18.2675 10.6711 18.803 10.3426 19.3205 10.0366C20.9 9.1006 22.25 8.4751 23.6 8.4751C24.95 8.4751 26.129 9.0151 27.605 9.8881C28.055 10.1446 28.505 10.4236 28.9865 10.7296C30.107 11.4226 31.3715 12.2056 33.0365 13.1011C37.694 15.6166 40.475 19.8106 40.475 24.3151C40.475 31.7716 32.906 37.8376 23.6 37.8376ZM23.6 9.6001C22.511 9.6001 21.35 10.1626 19.8875 11.0086C19.379 11.3056 18.8525 11.6341 18.2945 11.9761C17.246 12.6241 16.0445 13.3576 14.6945 14.0911C10.4105 16.4086 7.84998 20.2291 7.84998 24.3151C7.84998 31.1506 14.915 36.7126 23.6 36.7126C32.285 36.7126 39.35 31.1506 39.35 24.3151C39.35 20.2291 36.7895 16.4086 32.501 14.1001C30.8 13.2001 29.4725 12.3541 28.397 11.6881C27.9065 11.3866 27.4565 11.1076 27.047 10.8601C25.6835 10.0501 24.689 9.6001 23.6 9.6001Z" fill="#C3C3C6"/>
<path fill-rule="evenodd" clip-rule="evenodd" d="M25.9312 29.2489C26.3341 28.7746 26.6235 28.2107 26.7725 27.6002C26.7789 27.5516 26.7742 27.5022 26.7587 27.4557C26.7433 27.4092 26.7175 27.3668 26.6832 27.3317C26.649 27.2966 26.6073 27.2697 26.5611 27.2531C26.515 27.2365 26.4657 27.2305 26.417 27.2357H20.864C20.8149 27.2298 20.7651 27.2352 20.7184 27.2515C20.6717 27.2678 20.6294 27.2945 20.5946 27.3297C20.5599 27.3649 20.5337 27.4076 20.5179 27.4545C20.5022 27.5014 20.4975 27.5512 20.504 27.6002C20.6713 28.3003 21.0228 28.9401 21.5191 29.455C21.7626 29.0935 22.0882 28.7945 22.4694 28.5826C22.8613 28.3646 23.3004 28.2452 23.7487 28.2346C24.1677 28.2483 24.5795 28.3476 24.9587 28.5264C25.3277 28.7004 25.6583 28.946 25.9312 29.2489Z" fill="#C3C3C6"/>
<path fill-rule="evenodd" clip-rule="evenodd" d="M21.638 29.9357C22.185 30.4529 22.8906 30.77 23.6405 30.8357C24.3888 30.769 25.0927 30.4519 25.6385 29.9357C26.3351 29.3465 26.8254 28.5504 27.038 27.6632C27.0542 27.5846 27.0525 27.5033 27.033 27.4254C27.0135 27.3475 26.9768 27.275 26.9255 27.2132C26.8632 27.1395 26.7852 27.0806 26.6972 27.0409C26.6092 27.0012 26.5135 26.9817 26.417 26.9837H20.864C20.7673 26.9807 20.6713 26.9998 20.5832 27.0396C20.495 27.0793 20.4172 27.1387 20.3555 27.2132C20.3037 27.2748 20.2663 27.3471 20.2461 27.425C20.2258 27.5028 20.2232 27.5842 20.2385 27.6632C20.4511 28.5504 20.9414 29.3465 21.638 29.9357ZM20.7695 27.5462C20.774 27.5372 20.792 27.5057 20.864 27.5057L26.417 27.5147C26.4343 27.5125 26.4518 27.5151 26.4677 27.5223C26.4836 27.5294 26.4972 27.5408 26.507 27.5552C26.3837 28.056 26.1587 28.5228 25.8493 28.9282C25.2775 28.3856 24.523 28.023 23.7349 28.0098C23.3124 28.0134 22.896 28.1105 22.5156 28.2941C22.1394 28.4757 21.8076 28.7374 21.5433 29.0607C21.174 28.6244 20.9081 28.1067 20.7695 27.5462ZM21.8273 29.3609C21.8421 29.3741 21.8569 29.3872 21.8719 29.4003C22.095 29.1119 22.3805 28.8778 22.7071 28.7157C23.0337 28.5536 23.3928 28.4676 23.7574 28.4643C24.4283 28.4841 25.0677 28.8072 25.5509 29.2732C25.466 29.3601 25.3766 29.443 25.283 29.5217C24.8362 29.955 24.2588 30.2287 23.6405 30.3002C23.0206 30.2278 22.4426 29.9507 21.998 29.5127C21.9394 29.4637 21.8825 29.4131 21.8273 29.3609Z" fill="#C3C3C6"/>
<path d="M30.4491 27.8792C31.903 27.8792 33.0816 27.1861 33.0816 26.3312C33.0816 25.4763 31.903 24.7832 30.4491 24.7832C28.9952 24.7832 27.8166 25.4763 27.8166 26.3312C27.8166 27.1861 28.9952 27.8792 30.4491 27.8792Z" fill="#818186"/>
<path d="M16.8591 27.8792C15.4052 27.8792 14.2266 27.1861 14.2266 26.3312C14.2266 25.4763 15.4052 24.7832 16.8591 24.7832C18.313 24.7832 19.4916 25.4763 19.4916 26.3312C19.4916 27.1861 18.313 27.8792 16.8591 27.8792Z" fill="#818186"/>
<path fill-rule="evenodd" clip-rule="evenodd" d="M19.4438 25.2943C19.0354 25.5662 18.5556 25.7109 18.065 25.71C17.4082 25.7088 16.7787 25.447 16.3147 24.9822C15.8506 24.5173 15.59 23.8873 15.59 23.2305C15.59 22.7399 15.7356 22.2603 16.0082 21.8525C16.2809 21.4446 16.6684 21.1268 17.1217 20.9393C17.575 20.7518 18.0738 20.7029 18.5549 20.799C19.036 20.895 19.4778 21.1316 19.8244 21.4788C20.171 21.826 20.4068 22.2682 20.5019 22.7495C20.5971 23.2308 20.5473 23.7295 20.359 24.1825C20.1706 24.6354 19.8521 25.0224 19.4438 25.2943ZM30.5939 25.3009C30.1838 25.5712 29.7027 25.7135 29.2115 25.71C28.5567 25.7064 27.9299 25.4435 27.4686 24.9787C27.0072 24.514 26.7488 23.8853 26.75 23.2305C26.75 22.7393 26.8959 22.2592 27.1692 21.8511C27.4424 21.443 27.8307 21.1252 28.2849 20.938C28.739 20.7509 29.2384 20.7029 29.7199 20.8C30.2014 20.8972 30.6431 21.1351 30.9892 21.4837C31.3352 21.8322 31.5699 22.2757 31.6636 22.7579C31.7572 23.24 31.7055 23.7391 31.5151 24.1919C31.3246 24.6446 31.004 25.0306 30.5939 25.3009ZM17.819 23.2331C17.6652 23.3349 17.4847 23.3888 17.3002 23.3879C17.054 23.3867 16.8182 23.288 16.6445 23.1135C16.4707 22.9389 16.3732 22.7027 16.3732 22.4564C16.3732 22.272 16.428 22.0917 16.5305 21.9384C16.6331 21.7851 16.7788 21.6657 16.9493 21.5954C17.1198 21.525 17.3073 21.5068 17.4881 21.5431C17.6689 21.5794 17.8349 21.6686 17.965 21.7993C18.0951 21.9301 18.1834 22.0965 18.2189 22.2774C18.2543 22.4584 18.2352 22.6459 18.164 22.816C18.0928 22.9861 17.9727 23.1313 17.819 23.2331ZM28.9655 23.2331C28.8117 23.3349 28.6312 23.3888 28.4467 23.3879H28.4377C28.193 23.3843 27.9596 23.2846 27.7878 23.1103C27.616 22.936 27.5197 22.7011 27.5197 22.4564C27.5197 22.272 27.5745 22.0917 27.677 21.9384C27.7796 21.7851 27.9253 21.6657 28.0958 21.5954C28.2663 21.525 28.4538 21.5068 28.6346 21.5431C28.8154 21.5794 28.9814 21.6686 29.1115 21.7993C29.2416 21.9301 29.3299 22.0965 29.3654 22.2774C29.4008 22.4584 29.3817 22.6459 29.3105 22.816C29.2393 22.9861 29.1192 23.1313 28.9655 23.2331Z" fill="#C3C3C6"/>
</g>
<defs>
<clipPath id="clip0_3913_35642">
<rect width="36" height="31.5" fill="white" transform="translate(6.5 8.25)"/>
</clipPath>
</defs>
</svg>
