<svg width="47" height="48" viewBox="0 0 47 48" fill="none" xmlns="http://www.w3.org/2000/svg">
<path fill-rule="evenodd" clip-rule="evenodd" d="M41.5933 14C41.3143 13.5168 40.9294 13.0947 40.5062 12.8503L25.8118 4.36661C24.9654 3.8778 23.58 3.8778 22.7336 4.36661L8.03914 12.8503C7.19255 13.339 6.5 14.5387 6.5 15.5162V32.4838C6.5 32.9726 6.6732 33.517 6.95222 34.0001L6.95215 34.0001C7.23105 34.4832 7.61589 34.9053 8.03907 35.1496L22.7335 43.6334C23.58 44.1222 24.9653 44.1222 25.8118 43.6334L40.5062 35.1496C40.9295 34.9052 41.3142 34.4832 41.5931 34L32.0207 28.4734L34.5338 29.9276C32.4206 33.5798 28.4887 35.8485 24.2728 35.8485C17.7395 35.8485 12.4243 30.5333 12.4243 24.0001C12.4243 17.4668 17.7395 12.1516 24.2728 12.1516C28.4885 12.1516 32.4202 14.4202 34.5334 18.0721L29.4057 21.0394C28.3481 19.2114 26.3811 18.0758 24.2728 18.0758C21.0061 18.0758 18.3485 20.7334 18.3485 24.0001C18.3485 27.2666 21.0061 29.9243 24.2728 29.9243C26.3804 29.9243 28.3465 28.7898 29.4046 26.963L24.2727 24.0001L24.2728 24L29.4046 26.9629L29.4061 26.9604L31.9514 28.4333L41.5932 34C41.8721 33.5169 42.0454 32.9725 42.0454 32.4837V15.5161C42.0454 15.0273 41.8723 14.4831 41.5933 14L37.8986 16.1331L41.5933 14ZM36.1211 23.3418H34.8045V22.0254H33.4882V23.3418H32.1716V24.6583H33.4882V25.9749H34.8045V24.6583H36.1211V23.3418ZM39.7416 22.0254V23.3418H41.0581V24.6583H39.7416V25.9749H38.4252V24.6583H37.1086V23.3418H38.4252V22.0254H39.7416Z" fill="#C3C3C6"/>
</svg>
