<svg width="49" height="48" viewBox="0 0 49 48" fill="none" xmlns="http://www.w3.org/2000/svg">
<path d="M25.067 13.6059C34.1257 6.57335 29.4766 2 29.4766 2C30.1684 9.27016 21.9915 10.9868 19.7997 15.9826C18.304 19.3916 20.8238 22.3766 25.064 26.1387C24.6892 25.3055 24.111 24.4958 23.5257 23.6762C21.5295 20.8805 19.4498 17.9682 25.067 13.6059Z" fill="#C3C3C6"/>
<path d="M26.5132 27.6809C26.5132 27.6809 29.2385 25.4821 27.0803 23.0386C19.7642 14.7488 35.082 10.9868 35.082 10.9868C25.7298 15.4922 27.126 18.1665 29.4766 21.4152C31.9934 24.8989 26.5132 27.6809 26.5132 27.6809Z" fill="#C3C3C6"/>
<path d="M34.5385 34.2377C42.9332 29.948 39.0518 25.8257 36.3426 26.381C35.6786 26.5169 35.3825 26.6347 35.3825 26.6347C35.3825 26.6347 35.629 26.255 36.0999 26.0906C41.4595 24.2377 45.5814 31.5555 34.3697 34.4539C34.3697 34.454 34.4996 34.3398 34.5385 34.2377Z" fill="#C3C3C6"/>
<path d="M17.0704 28.8083C11.818 28.1185 19.9503 26.2191 19.9503 26.2191C19.9503 26.2191 16.7922 26.0097 12.9081 27.856C8.31544 30.0406 24.2686 31.0342 32.5267 28.8984C33.3853 28.3219 34.572 27.8222 34.572 27.8222C34.572 27.8222 31.1927 28.4157 27.8272 28.6949C23.7091 29.0342 19.2882 29.1003 17.0704 28.8083Z" fill="#C3C3C6"/>
<path d="M19.0687 32.9042C16.1398 32.6063 18.0576 31.2104 18.0576 31.2104C10.4786 33.684 22.2744 36.4891 32.8649 33.4439C31.7392 33.0536 31.0233 32.3399 31.0233 32.3399C25.8475 33.3199 22.8563 33.2885 19.0687 32.9042Z" fill="#C3C3C6"/>
<path d="M20.3449 37.3363C17.4182 37.0055 19.1281 36.0277 19.1281 36.0277C12.2482 37.918 23.3128 41.8235 32.072 38.1319C30.6374 37.5833 29.6101 36.9498 29.6101 36.9498C25.7027 37.6771 23.8906 37.7341 20.3449 37.3363Z" fill="#C3C3C6"/>
<path d="M38.6657 39.5908C38.6657 39.5908 39.931 40.6161 37.2721 41.4092C32.2162 42.9154 16.2288 43.3702 11.7875 41.4692C10.191 40.7863 13.1849 39.8384 14.1267 39.6396C15.1089 39.4301 15.6702 39.4691 15.6702 39.4691C13.8947 38.2392 4.19417 41.8842 10.7428 42.9281C28.6018 45.7761 43.2981 41.6456 38.6657 39.5908Z" fill="#C3C3C6"/>
<path d="M41.5 41.8309C41.207 45.5802 28.8331 46.3689 20.7752 45.8617C15.5184 45.5302 14.4649 44.7017 14.4495 44.6896C19.4806 45.5053 27.963 45.6538 34.8406 44.381C40.9367 43.2522 41.5 41.8309 41.5 41.8309Z" fill="#C3C3C6"/>
</svg>
