<svg width="72" height="48" viewBox="0 0 72 48" fill="none" xmlns="http://www.w3.org/2000/svg">
<g clip-path="url(#clip0_373_42818)">
<rect width="4" height="4" transform="matrix(-4.37114e-08 1 1 4.37114e-08 48 0)" fill="black"/>
<rect width="4" height="4" transform="matrix(-4.37114e-08 1 1 4.37114e-08 64 0)" fill="black"/>
<rect width="4" height="4" transform="matrix(-4.37114e-08 1 1 4.37114e-08 56 8)" fill="black"/>
<rect width="4" height="4" transform="matrix(-4.37114e-08 1 1 4.37114e-08 48 16)" fill="black"/>
<rect width="4" height="4" transform="matrix(-4.37114e-08 1 1 4.37114e-08 64 16)" fill="black"/>
<rect width="4" height="4" transform="matrix(-4.37114e-08 1 1 4.37114e-08 56 24)" fill="black"/>
<rect width="4" height="4" transform="matrix(-4.37114e-08 1 1 4.37114e-08 48 32)" fill="black"/>
<rect width="4" height="4" transform="matrix(-4.37114e-08 1 1 4.37114e-08 64 32)" fill="black"/>
<rect width="4" height="4" transform="matrix(-4.37114e-08 1 1 4.37114e-08 56 40)" fill="black"/>
</g>
<g clip-path="url(#clip1_373_42818)">
<rect width="4" height="4" transform="matrix(-4.37114e-08 1 1 4.37114e-08 24 0)" fill="black"/>
<rect width="4" height="4" transform="matrix(-4.37114e-08 1 1 4.37114e-08 32 0)" fill="black"/>
<rect width="4" height="4" transform="matrix(-4.37114e-08 1 1 4.37114e-08 40 0)" fill="black"/>
<rect width="4" height="4" transform="matrix(-4.37114e-08 1 1 4.37114e-08 24 8)" fill="black"/>
<rect width="4" height="4" transform="matrix(-4.37114e-08 1 1 4.37114e-08 32 8)" fill="black"/>
<rect width="4" height="4" transform="matrix(-4.37114e-08 1 1 4.37114e-08 40 8)" fill="black"/>
<rect width="4" height="4" transform="matrix(-4.37114e-08 1 1 4.37114e-08 24 16)" fill="black"/>
<rect width="4" height="4" transform="matrix(-4.37114e-08 1 1 4.37114e-08 32 16)" fill="black"/>
<rect width="4" height="4" transform="matrix(-4.37114e-08 1 1 4.37114e-08 40 16)" fill="black"/>
<rect width="4" height="4" transform="matrix(-4.37114e-08 1 1 4.37114e-08 24 24)" fill="black"/>
<rect width="4" height="4" transform="matrix(-4.37114e-08 1 1 4.37114e-08 32 24)" fill="black"/>
<rect width="4" height="4" transform="matrix(-4.37114e-08 1 1 4.37114e-08 40 24)" fill="black"/>
<rect width="4" height="4" transform="matrix(-4.37114e-08 1 1 4.37114e-08 24 32)" fill="black"/>
<rect width="4" height="4" transform="matrix(-4.37114e-08 1 1 4.37114e-08 32 32)" fill="black"/>
<rect width="4" height="4" transform="matrix(-4.37114e-08 1 1 4.37114e-08 40 32)" fill="black"/>
<rect width="4" height="4" transform="matrix(-4.37114e-08 1 1 4.37114e-08 24 40)" fill="black"/>
<rect width="4" height="4" transform="matrix(-4.37114e-08 1 1 4.37114e-08 32 40)" fill="black"/>
<rect width="4" height="4" transform="matrix(-4.37114e-08 1 1 4.37114e-08 40 40)" fill="black"/>
</g>
<g clip-path="url(#clip2_373_42818)">
<rect width="4" height="4" transform="matrix(-4.37114e-08 1 1 4.37114e-08 4 0)" fill="black"/>
<rect width="4" height="4" transform="matrix(-4.37114e-08 1 1 4.37114e-08 12 0)" fill="black"/>
<rect width="4" height="4" transform="matrix(-4.37114e-08 1 1 4.37114e-08 20 0)" fill="black"/>
<rect width="4" height="4" transform="matrix(-4.37114e-08 1 1 4.37114e-08 0 4)" fill="black"/>
<rect width="4" height="4" transform="matrix(-4.37114e-08 1 1 4.37114e-08 8 4)" fill="black"/>
<rect width="4" height="4" transform="matrix(-4.37114e-08 1 1 4.37114e-08 16 4)" fill="black"/>
<rect width="4" height="4" transform="matrix(-4.37114e-08 1 1 4.37114e-08 4 8)" fill="black"/>
<rect width="4" height="4" transform="matrix(-4.37114e-08 1 1 4.37114e-08 12 8)" fill="black"/>
<rect width="4" height="4" transform="matrix(-4.37114e-08 1 1 4.37114e-08 20 8)" fill="black"/>
<rect width="4" height="4" transform="matrix(-4.37114e-08 1 1 4.37114e-08 0 12)" fill="black"/>
<rect width="4" height="4" transform="matrix(-4.37114e-08 1 1 4.37114e-08 8 12)" fill="black"/>
<rect width="4" height="4" transform="matrix(-4.37114e-08 1 1 4.37114e-08 16 12)" fill="black"/>
<rect width="4" height="4" transform="matrix(-4.37114e-08 1 1 4.37114e-08 4 16)" fill="black"/>
<rect width="4" height="4" transform="matrix(-4.37114e-08 1 1 4.37114e-08 12 16)" fill="black"/>
<rect width="4" height="4" transform="matrix(-4.37114e-08 1 1 4.37114e-08 20 16)" fill="black"/>
<rect width="4" height="4" transform="matrix(-4.37114e-08 1 1 4.37114e-08 0 20)" fill="black"/>
<rect width="4" height="4" transform="matrix(-4.37114e-08 1 1 4.37114e-08 8 20)" fill="black"/>
<rect width="4" height="4" transform="matrix(-4.37114e-08 1 1 4.37114e-08 16 20)" fill="black"/>
<rect width="4" height="4" transform="matrix(-4.37114e-08 1 1 4.37114e-08 4 24)" fill="black"/>
<rect width="4" height="4" transform="matrix(-4.37114e-08 1 1 4.37114e-08 12 24)" fill="black"/>
<rect width="4" height="4" transform="matrix(-4.37114e-08 1 1 4.37114e-08 20 24)" fill="black"/>
<rect width="4" height="4" transform="matrix(-4.37114e-08 1 1 4.37114e-08 0 28)" fill="black"/>
<rect width="4" height="4" transform="matrix(-4.37114e-08 1 1 4.37114e-08 8 28)" fill="black"/>
<rect width="4" height="4" transform="matrix(-4.37114e-08 1 1 4.37114e-08 16 28)" fill="black"/>
<rect width="4" height="4" transform="matrix(-4.37114e-08 1 1 4.37114e-08 4 32)" fill="black"/>
<rect width="4" height="4" transform="matrix(-4.37114e-08 1 1 4.37114e-08 12 32)" fill="black"/>
<rect width="4" height="4" transform="matrix(-4.37114e-08 1 1 4.37114e-08 20 32)" fill="black"/>
<rect width="4" height="4" transform="matrix(-4.37114e-08 1 1 4.37114e-08 0 36)" fill="black"/>
<rect width="4" height="4" transform="matrix(-4.37114e-08 1 1 4.37114e-08 8 36)" fill="black"/>
<rect width="4" height="4" transform="matrix(-4.37114e-08 1 1 4.37114e-08 16 36)" fill="black"/>
<rect width="4" height="4" transform="matrix(-4.37114e-08 1 1 4.37114e-08 4 40)" fill="black"/>
<rect width="4" height="4" transform="matrix(-4.37114e-08 1 1 4.37114e-08 12 40)" fill="black"/>
<rect width="4" height="4" transform="matrix(-4.37114e-08 1 1 4.37114e-08 20 40)" fill="black"/>
<rect width="4" height="4" transform="matrix(-4.37114e-08 1 1 4.37114e-08 0 44)" fill="black"/>
<rect width="4" height="4" transform="matrix(-4.37114e-08 1 1 4.37114e-08 8 44)" fill="black"/>
<rect width="4" height="4" transform="matrix(-4.37114e-08 1 1 4.37114e-08 16 44)" fill="black"/>
</g>
<defs>
<clipPath id="clip0_373_42818">
<rect width="48" height="24" fill="white" transform="matrix(-4.37114e-08 1 1 4.37114e-08 48 0)"/>
</clipPath>
<clipPath id="clip1_373_42818">
<rect width="48" height="24" fill="white" transform="matrix(-4.37114e-08 1 1 4.37114e-08 24 0)"/>
</clipPath>
<clipPath id="clip2_373_42818">
<rect width="48" height="24" fill="white" transform="matrix(-4.37114e-08 1 1 4.37114e-08 0 0)"/>
</clipPath>
</defs>
</svg>
