<svg width="21" height="20" viewBox="0 0 21 20" fill="none" xmlns="http://www.w3.org/2000/svg">
<g id="social_icons / grayscale / apple ">
<path id="path4" d="M16.8698 14.6549C16.6154 15.2372 16.3143 15.7732 15.9655 16.266C15.49 16.9378 15.1007 17.4028 14.8007 17.661C14.3356 18.0848 13.8373 18.3019 13.3037 18.3143C12.9206 18.3143 12.4586 18.2062 11.9209 17.9871C11.3813 17.769 10.8855 17.661 10.4322 17.661C9.95668 17.661 9.44674 17.769 8.90129 17.9871C8.35501 18.2062 7.91494 18.3204 7.57847 18.3317C7.06677 18.3533 6.55672 18.1301 6.04761 17.661C5.72267 17.3801 5.31623 16.8987 4.82933 16.2166C4.30693 15.4882 3.87745 14.6436 3.54098 13.6806C3.18064 12.6406 3 11.6334 3 10.6583C3 9.54137 3.24355 8.57803 3.73138 7.77075C4.11477 7.12231 4.62482 6.6108 5.26318 6.2353C5.90154 5.8598 6.59129 5.66844 7.33409 5.6562C7.74053 5.6562 8.27352 5.78079 8.93586 6.02563C9.59633 6.27131 10.0204 6.39589 10.2064 6.39589C10.3454 6.39589 10.8165 6.25021 11.6151 5.95979C12.3704 5.69046 13.0078 5.57894 13.53 5.62287C14.945 5.73603 16.0081 6.28879 16.7151 7.28465C15.4496 8.0445 14.8236 9.10877 14.836 10.4741C14.8474 11.5375 15.2367 12.4225 16.0019 13.1251C16.3486 13.4512 16.7358 13.7033 17.1667 13.8823C17.0732 14.1508 16.9746 14.408 16.8698 14.6549ZM13.6245 1.99993C13.6245 2.83346 13.3172 3.61171 12.7047 4.33206C11.9655 5.18842 11.0714 5.68326 10.1019 5.60517C10.0896 5.50518 10.0824 5.39993 10.0824 5.28934C10.0824 4.48916 10.4339 3.6328 11.0582 2.93262C11.3698 2.5781 11.7662 2.28333 12.2468 2.04818C12.7265 1.81654 13.1802 1.68844 13.6068 1.6665C13.6193 1.77793 13.6245 1.88937 13.6245 1.99992V1.99993Z" fill="black" fill-opacity="0.2"/>
</g>
</svg>
