<svg width="15" height="14" viewBox="0 0 15 14" fill="none" xmlns="http://www.w3.org/2000/svg">
<g id="appwrite">
<path id="Vector" d="M15 10.5016V13.8909H6.59819C4.1504 13.8909 2.01312 12.5278 0.869638 10.5016C0.703406 10.207 0.557915 9.89795 0.435871 9.57719C0.196292 8.94862 0.0456913 8.27414 0 7.57038V6.65402C0.00991983 6.49719 0.0255511 6.34159 0.0459919 6.18783C0.0877755 5.87232 0.150902 5.56358 0.233867 5.26346C1.01874 2.41825 3.57084 0.333496 6.59819 0.333496C9.62554 0.333496 12.1773 2.41825 12.9622 5.26346H9.36973C8.77995 4.33601 7.75911 3.72285 6.59819 3.72285C5.43727 3.72285 4.41643 4.33601 3.82665 5.26346C3.64689 5.5454 3.50741 5.85629 3.41603 6.18783C3.33487 6.48178 3.29158 6.79175 3.29158 7.1122C3.29158 8.08372 3.69018 8.9594 4.32925 9.57719C4.92144 10.1506 5.71983 10.5016 6.59819 10.5016H15Z" fill="black" fill-opacity="0.2"/>
<path id="Vector_2" d="M15 6.18799V9.57734H8.86719C9.50627 8.95956 9.90486 8.08387 9.90486 7.11236C9.90486 6.79191 9.86157 6.48194 9.78041 6.18799H15Z" fill="black" fill-opacity="0.2"/>
</g>
</svg>
