<svg width="16" height="12" viewBox="0 0 16 12" fill="none" xmlns="http://www.w3.org/2000/svg">
<g id="&#229;&#155;&#190;&#229;&#177;&#130; 2">
<g id="Discord Logos">
<g id="Discord Logo - Large - White">
<path id="Vector" d="M13.5396 1.14357C12.5283 0.680544 11.4606 0.352059 10.3639 0.166504C10.2138 0.434789 10.078 0.710819 9.95706 0.993438C8.78883 0.817399 7.60083 0.817399 6.4326 0.993438C6.3116 0.710848 6.17581 0.434821 6.02579 0.166504C4.92837 0.353626 3.85998 0.682891 2.84761 1.14599C0.837784 4.11956 0.292952 7.01928 0.565368 9.87783C1.74237 10.7475 3.05977 11.4088 4.46031 11.8332C4.77567 11.409 5.05472 10.9591 5.29451 10.488C4.83907 10.3179 4.39949 10.1081 3.98086 9.86088C4.09104 9.78097 4.19879 9.69864 4.30292 9.61873C5.52103 10.1916 6.85055 10.4886 8.19665 10.4886C9.54274 10.4886 10.8723 10.1916 12.0904 9.61873C12.1957 9.70469 12.3035 9.78702 12.4124 9.86088C11.993 10.1085 11.5526 10.3187 11.0964 10.4893C11.3359 10.96 11.6149 11.4096 11.9306 11.8332C13.3323 11.4105 14.6507 10.7495 15.8279 9.87904C16.1476 6.56404 15.2819 3.69096 13.5396 1.14357ZM5.63957 8.11984C4.88044 8.11984 4.25327 7.43093 4.25327 6.58341C4.25327 5.7359 4.85864 5.04093 5.63715 5.04093C6.41565 5.04093 7.03797 5.7359 7.02465 6.58341C7.01133 7.43093 6.41323 8.11984 5.63957 8.11984ZM10.7537 8.11984C9.99338 8.11984 9.36864 7.43093 9.36864 6.58341C9.36864 5.7359 9.97401 5.04093 10.7537 5.04093C11.5334 5.04093 12.1509 5.7359 12.1376 6.58341C12.1243 7.43093 11.5274 8.11984 10.7537 8.11984Z" fill="black" fill-opacity="0.2"/>
</g>
</g>
</g>
</svg>
