<svg width="20" height="20" viewBox="0 0 20 20" fill="none" xmlns="http://www.w3.org/2000/svg">
<g id="tech_icons / grayscale / firebase">
<path id="icon" d="M4.60318 12.5478L6.17586 1.98978C6.23022 1.6297 6.69125 1.54463 6.85399 1.86651L8.54433 5.18076L4.60318 12.5478ZM15.8327 14.9999L14.2835 5.3891C14.2723 5.3204 14.2433 5.25623 14.1998 5.20355C14.1562 5.15086 14.0997 5.11166 14.0364 5.0902C13.9731 5.06874 13.9054 5.06584 13.8407 5.0818C13.7759 5.09776 13.7166 5.13199 13.669 5.18076L4.16602 14.9999L9.44783 18.1912C9.60991 18.2844 9.79179 18.3332 9.97664 18.3332C10.1615 18.3332 10.3434 18.2844 10.5055 18.1912L15.8327 14.9999ZM11.5359 6.62938L10.3248 4.21478C10.2947 4.15276 10.2488 4.10067 10.1922 4.06428C10.1355 4.0279 10.0704 4.00864 10.004 4.00864C9.93756 4.00864 9.87243 4.0279 9.8158 4.06428C9.75918 4.10067 9.71327 4.15276 9.68316 4.21478L4.35924 14.1575L11.5359 6.62938Z" fill="black" fill-opacity="0.2"/>
</g>
</svg>
