<svg width="21" height="20" viewBox="0 0 21 20" fill="none" xmlns="http://www.w3.org/2000/svg">
<g id="tech_icons / grayscale / mailgun">
<path id="Vector" d="M10.4999 8.70193C11.217 8.70193 11.7981 9.283 11.7981 9.99982C11.7981 10.7168 11.217 11.298 10.4999 11.298C9.78305 11.298 9.20186 10.7166 9.20186 9.99982C9.20186 9.283 9.78305 8.70193 10.4999 8.70193ZM6.07693 9.99982C6.07693 7.55709 8.05717 5.57694 10.4999 5.57694C12.9429 5.57694 14.923 7.55709 14.923 9.99982C14.923 10.1615 14.9144 10.321 14.8975 10.4779C14.8639 10.9091 15.1803 11.2382 15.6087 11.2382C16.3358 11.2382 16.4133 10.3008 16.4133 9.99982C16.4133 6.73386 13.7658 4.08652 10.4999 4.08652C7.23393 4.08652 4.58654 6.73392 4.58654 9.99982C4.58654 13.2656 7.23393 15.913 10.4998 15.913C12.2343 15.913 13.7944 15.1667 14.8761 13.9774L16.0918 14.9982C14.7186 16.5332 12.7221 17.5 10.4999 17.5C6.35777 17.5 3 14.1419 3 9.99982C3 5.85772 6.35777 2.5 10.4999 2.5C14.6422 2.5 18 5.85772 18 9.99988C18 11.6648 17.2072 13.0168 15.6149 13.0168C14.9141 13.0168 14.4881 12.6957 14.2555 12.3374C13.4745 13.5894 12.0847 14.4231 10.4999 14.4231C8.05711 14.4231 6.07693 12.4425 6.07693 9.99982ZM10.4999 7.16334C8.93344 7.16334 7.66336 8.43323 7.66336 9.99982C7.66336 11.5664 8.93344 12.8364 10.4999 12.8364C12.0664 12.8364 13.3366 11.5664 13.3366 9.99982C13.3366 8.43323 12.0664 7.16334 10.4999 7.16334Z" fill="black" fill-opacity="0.2"/>
</g>
</svg>
