<svg xmlns="http://www.w3.org/2000/svg" width="21" height="20" fill="none" viewBox="0 0 21 20"><g id="tech_icons / grayscale / msg91"><path id="Subtract" fill="#000" fill-opacity=".2" fill-rule="evenodd" d="M2.16602 8.69448V15.0391C2.16602 15.5752 2.58876 16.0159 3.12439 16.0382L17.1621 16.6231C17.7303 16.6468 18.2038 16.1926 18.2038 15.624V3.89826C18.2038 3.21255 17.5293 2.73026 16.8804 2.95196L2.8427 7.74819C2.43799 7.88647 2.16602 8.2668 2.16602 8.69448ZM15.5845 7.02628C15.7962 6.84901 15.8242 6.53366 15.6469 6.32193C15.4696 6.1102 15.1543 6.08225 14.9426 6.25952L9.40281 10.8974L3.91451 9.23819C3.65018 9.15828 3.37112 9.30778 3.29121 9.5721C3.2113 9.83643 3.36079 10.1155 3.62512 10.1954L9.37198 11.9328L9.63053 12.011L9.83764 11.8376L15.5845 7.02628Z" clip-rule="evenodd"/></g></svg>