<svg xmlns="http://www.w3.org/2000/svg" width="16" height="16" fill="none" viewBox="0 0 16 16"><g id="sendgrid-icon 1" clip-path="url(#clip0_982_524)"><path id="Vector" fill="#fff" d="M0.5 5.48047H5.50953V10.49H0.5V5.48047Z"/><path id="Vector_2" fill="#000" fill-opacity=".12" d="M0.5 5.48047H5.50953V10.49H0.5V5.48047Z"/><path id="Vector_3" fill="#fff" d="M5.50977 10.4902H10.4902V15.4707H5.50977V10.4902Z"/><path id="Vector_4" fill="#000" fill-opacity=".12" d="M5.50977 10.4902H10.4902V15.4707H5.50977V10.4902Z"/><path id="Vector_5" fill="#000" fill-opacity=".2" d="M0.5 15.4712H5.50953V15.5H0.5V15.4712ZM0.5 10.4907H5.50953V15.4712H0.5V10.4907Z"/><path id="Vector_6" fill="#000" fill-opacity=".16" d="M5.50977 0.5H10.4902V5.48047H5.50977V0.5ZM10.4907 5.50953H15.5002V10.49H10.4907V5.50953Z"/><path id="Vector_7" fill="#000" fill-opacity=".28" d="M5.50977 10.4905H10.4902V5.48047H5.50977V10.4905Z"/><g id="Group"><path id="Vector_8" fill="#000" fill-opacity=".2" d="M10.4902 0.5H15.4998V5.48047H10.4902V0.5Z"/><path id="Vector_9" fill="#000" fill-opacity=".2" d="M10.4902 5.48047H15.4998V5.5093H10.4902V5.48047Z"/></g></g><defs><clipPath id="clip0_982_524"><rect width="15" height="15" fill="#fff" transform="translate(0.5 0.5)"/></clipPath></defs></svg>