<svg width="16" height="16" viewBox="0 0 16 16" fill="none" xmlns="http://www.w3.org/2000/svg">
<g id="sendgrid-icon 1" clip-path="url(#clip0_982_524)">
<path id="Vector" d="M0.5 5.48047H5.50953V10.49H0.5V5.48047Z" fill="white"/>
<path id="Vector_2" d="M0.5 5.48047H5.50953V10.49H0.5V5.48047Z" fill="black" fill-opacity="0.12"/>
<path id="Vector_3" d="M5.50977 10.4902H10.4902V15.4707H5.50977V10.4902Z" fill="white"/>
<path id="Vector_4" d="M5.50977 10.4902H10.4902V15.4707H5.50977V10.4902Z" fill="black" fill-opacity="0.12"/>
<path id="Vector_5" d="M0.5 15.4712H5.50953V15.5H0.5V15.4712ZM0.5 10.4907H5.50953V15.4712H0.5V10.4907Z" fill="black" fill-opacity="0.2"/>
<path id="Vector_6" d="M5.50977 0.5H10.4902V5.48047H5.50977V0.5ZM10.4907 5.50953H15.5002V10.49H10.4907V5.50953Z" fill="black" fill-opacity="0.16"/>
<path id="Vector_7" d="M5.50977 10.4905H10.4902V5.48047H5.50977V10.4905Z" fill="black" fill-opacity="0.28"/>
<g id="Group">
<path id="Vector_8" d="M10.4902 0.5H15.4998V5.48047H10.4902V0.5Z" fill="black" fill-opacity="0.2"/>
<path id="Vector_9" d="M10.4902 5.48047H15.4998V5.5093H10.4902V5.48047Z" fill="black" fill-opacity="0.2"/>
</g>
</g>
<defs>
<clipPath id="clip0_982_524">
<rect width="15" height="15" fill="white" transform="translate(0.5 0.5)"/>
</clipPath>
</defs>
</svg>
