<svg width="15" height="16" viewBox="0 0 15 16" fill="none" xmlns="http://www.w3.org/2000/svg">
<g id="Group 338">
<path id="slack" d="M9.47554 11.5497C8.60443 11.5497 7.90039 10.8457 7.90039 9.97456C7.90039 9.10346 8.60443 8.39941 9.47554 8.39941H13.4253C14.2964 8.39941 15.0005 9.10346 15.0005 9.97456C15.0005 10.8457 14.2964 11.5497 13.4253 11.5497H9.47554Z" fill="black" fill-opacity="0.2"/>
<path id="slack_2" d="M9.47554 12.3374C10.3466 12.3374 11.0507 13.0414 11.0507 13.9125C11.0507 14.7837 10.3466 15.4877 9.47554 15.4877C8.60443 15.4877 7.90039 14.7837 7.90039 13.9125V12.3374H9.47554Z" fill="black" fill-opacity="0.2"/>
<path id="slack_3" d="M11.0507 6.02494C11.0507 6.89604 10.3466 7.60009 9.47554 7.60009C8.60443 7.60009 7.90039 6.89604 7.90039 6.02494V2.07515C7.90039 1.20404 8.60443 0.5 9.47554 0.5C10.3466 0.5 11.0507 1.20404 11.0507 2.07515V6.02494Z" fill="black" fill-opacity="0.2"/>
<path id="slack_4" d="M11.8379 6.02485C11.8379 5.15375 12.5419 4.44971 13.413 4.44971C14.2841 4.44971 14.9882 5.15375 14.9882 6.02485C14.9882 6.89596 14.2841 7.6 13.413 7.6H11.8379V6.02485Z" fill="black" fill-opacity="0.2"/>
<path id="slack_5" d="M5.52494 4.44971C6.39604 4.44971 7.10009 5.15375 7.10009 6.02485C7.10009 6.89596 6.39604 7.6 5.52494 7.6H1.57515C0.704042 7.6 0 6.89596 0 6.02485C0 5.15375 0.704042 4.44971 1.57515 4.44971H5.52494Z" fill="black" fill-opacity="0.2"/>
<path id="slack_6" d="M5.52436 3.65029C4.65326 3.65029 3.94922 2.94625 3.94922 2.07515C3.94922 1.20404 4.65326 0.5 5.52436 0.5C6.39547 0.5 7.09951 1.20404 7.09951 2.07515V3.65029H5.52436Z" fill="black" fill-opacity="0.2"/>
<path id="slack_7" d="M3.94922 9.97456C3.94922 9.10346 4.65326 8.39941 5.52436 8.39941C6.39547 8.39941 7.09951 9.10346 7.09951 9.97456V13.9124C7.09951 14.7835 6.39547 15.4876 5.52436 15.4876C4.65326 15.4876 3.94922 14.7835 3.94922 13.9124V9.97456Z" fill="black" fill-opacity="0.2"/>
<path id="slack_8" d="M3.16201 9.97456C3.16201 10.8457 2.45797 11.5497 1.58686 11.5497C0.715761 11.5497 0.0117188 10.8457 0.0117188 9.97456C0.0117188 9.10346 0.715761 8.39941 1.58686 8.39941H3.16201V9.97456Z" fill="black" fill-opacity="0.2"/>
</g>
</svg>
