<svg width="21" height="20" viewBox="0 0 21 20" fill="none" xmlns="http://www.w3.org/2000/svg">
<g id="tech_icons / grayscale / twilio">
<path id="Vector" d="M10.166 7.94428C10.166 8.88873 9.38824 9.6665 8.44379 9.6665C7.49935 9.6665 6.72157 8.88873 6.72157 7.94428C6.72157 6.99984 7.49935 6.22206 8.44379 6.22206C9.38824 6.22206 10.166 6.99984 10.166 7.94428ZM8.44379 10.3332C7.49935 10.3332 6.72157 11.1109 6.72157 12.0554C6.72157 12.9998 7.49935 13.7776 8.44379 13.7776C9.38824 13.7776 10.166 12.9998 10.166 12.0554C10.166 11.1109 9.38824 10.3332 8.44379 10.3332ZM18.8327 9.99984C18.8327 14.6109 15.1105 18.3332 10.4993 18.3332C5.88824 18.3332 2.16602 14.6109 2.16602 9.99984C2.16602 5.38873 5.88824 1.6665 10.4993 1.6665C15.1105 1.6665 18.8327 5.38873 18.8327 9.99984ZM16.6105 9.99984C16.6105 6.61095 13.8882 3.88873 10.4993 3.88873C7.11046 3.88873 4.38824 6.61095 4.38824 9.99984C4.38824 13.3887 7.11046 16.1109 10.4993 16.1109C13.8882 16.1109 16.6105 13.3887 16.6105 9.99984ZM12.5549 10.3332C11.6105 10.3332 10.8327 11.1109 10.8327 12.0554C10.8327 12.9998 11.6105 13.7776 12.5549 13.7776C13.4993 13.7776 14.2771 12.9998 14.2771 12.0554C14.2771 11.1109 13.4993 10.3332 12.5549 10.3332ZM12.5549 6.22206C11.6105 6.22206 10.8327 6.99984 10.8327 7.94428C10.8327 8.88873 11.6105 9.6665 12.5549 9.6665C13.4993 9.6665 14.2771 8.88873 14.2771 7.94428C14.2771 6.99984 13.4993 6.22206 12.5549 6.22206Z" fill="black" fill-opacity="0.2"/>
</g>
</svg>
