<svg xmlns="http://www.w3.org/2000/svg" width="21" height="20" fill="none" viewBox="0 0 21 20"><g id="social_icons / grayscale / whatsapp"><path id="whatsapp" fill="#000" fill-opacity=".2" fill-rule="evenodd" d="M15.75 4.65625C14.3438 3.25 12.4688 2.5 10.5 2.5C6.375 2.5 3 5.875 3 10C3 11.3125 3.37501 12.625 4.03126 13.75L3 17.5L6.93751 16.4688C8.06251 17.0312 9.28125 17.4062 10.5 17.4062C14.625 17.4062 18 14.0312 18 9.90625C18 7.9375 17.1563 6.0625 15.75 4.65625ZM10.5 16.1875C9.375 16.1875 8.25001 15.9063 7.31251 15.3438L7.12499 15.25L4.78124 15.9062L5.43751 13.6562L5.24999 13.375C4.59374 12.3438 4.31249 11.2188 4.31249 10.0938C4.31249 6.71875 7.125 3.90625 10.5 3.90625C12.1875 3.90625 13.6875 4.5625 14.9063 5.6875C16.125 6.90625 16.6875 8.40625 16.6875 10.0938C16.6875 13.375 13.9688 16.1875 10.5 16.1875ZM13.875 11.5C13.6875 11.4062 12.75 10.9375 12.5625 10.9375C12.375 10.8438 12.2812 10.8438 12.1875 11.0312C12.0937 11.2188 11.7188 11.5938 11.625 11.7812C11.5313 11.875 11.4375 11.875 11.25 11.875C11.0625 11.7812 10.5 11.5938 9.75001 10.9375C9.18751 10.4688 8.81251 9.8125 8.71876 9.625C8.62501 9.4375 8.71876 9.34375 8.81251 9.25C8.90626 9.15625 9 9.0625 9.09375 8.96875C9.1875 8.875 9.18751 8.78125 9.28126 8.6875C9.37501 8.59375 9.28126 8.5 9.28126 8.40625C9.28126 8.3125 8.90626 7.375 8.71876 7C8.62501 6.71875 8.43751 6.71875 8.34376 6.71875C8.25001 6.71875 8.15624 6.71875 7.96874 6.71875C7.87499 6.71875 7.68749 6.71875 7.49999 6.90625C7.31249 7.09375 6.84376 7.5625 6.84376 8.5C6.84376 9.4375 7.49999 10.2812 7.59374 10.4688C7.68749 10.5625 8.90624 12.5312 10.7812 13.2812C12.375 13.9375 12.6563 13.75 13.0313 13.75C13.4063 13.75 14.1562 13.2812 14.25 12.9062C14.4375 12.4375 14.4375 12.0625 14.3438 12.0625C14.25 11.5938 14.0625 11.5938 13.875 11.5Z" clip-rule="evenodd"/></g></svg>