<svg xmlns="http://www.w3.org/2000/svg" width="276" height="63" fill="none"><g clip-path="url(#a)"><path fill="#56565C" fill-rule="evenodd" d="M113.787 35.355c0-1.738-1.358-2.565-3.894-2.565h-5.706v5.1h5.706c2.536 0 3.894-.767 3.894-2.535Zm-9.6-10.904v4.861h4.861c2.384 0 3.682-.824 3.682-2.446 0-1.62-1.298-2.415-3.682-2.415h-4.861Zm14.523 11.405c0 3.566-2.899 5.627-8.455 5.627H99.326V20.854h10.326c5.283 0 8.001 2.152 8.001 5.365 0 2.064-1.088 3.652-2.809 4.537 2.355.739 3.866 2.507 3.866 5.1ZM137.343 24.745h-3.985v7.19h3.985c2.988 0 4.499-1.355 4.499-3.596 0-2.269-1.511-3.594-4.499-3.594Zm4.589 16.739-4.076-5.747H133.358v5.747h-4.889v-20.63h9.146c5.644 0 9.178 2.861 9.178 7.485 0 3.096-1.599 5.365-4.348 6.516l4.742 6.629h-5.255Z" clip-rule="evenodd"/><mask id="b" width="223" height="22" x="26" y="20" maskUnits="userSpaceOnUse" style="mask-type:alpha"><path fill="#fff" d="M26.5 41.837h222.415V20.5H26.5v21.337Z"/></mask><g fill="#56565C" fill-rule="evenodd" clip-rule="evenodd" mask="url(#b)"><path d="M156.699 41.481h4.89V20.854h-4.89v20.627ZM182.002 37.564c4.195 0 6.944-2.446 6.944-6.395 0-3.948-2.749-6.394-6.944-6.394h-4.47v12.789h4.47Zm-9.359-16.71h9.6c6.913 0 11.652 4.068 11.652 10.315 0 6.25-4.739 10.315-11.652 10.315h-9.6v-20.63ZM217.902 30.846h4.467v8.37c-2.324 1.707-5.524 2.623-8.543 2.623-6.641 0-11.533-4.45-11.533-10.669 0-6.217 4.892-10.669 11.624-10.669 3.713 0 6.791 1.24 8.846 3.567l-3.141 2.83c-1.539-1.593-3.319-2.33-5.464-2.33-4.107 0-6.913 2.681-6.913 6.602 0 3.86 2.806 6.602 6.853 6.602 1.327 0 2.565-.236 3.804-.886v-6.04ZM248.914 37.652h-11.11V32.88h6.851l2.689-3.715h-9.54v-4.477h8.142l2.775-3.832h-15.776v20.629h13.194l2.775-3.832ZM39.74 30.139h-8.35v-5.453h11.9l2.496-3.83H26.5v20.627h4.89V33.97h5.855l2.494-3.832ZM51.424 21.132v20.705h15.741v-3.905H56.394v-16.8h-4.97ZM86.043 21.132l-5.567 9.199-5.567-9.2h-5.12l8.068 13.313v7.393h4.822v-7.333l8.098-13.372h-4.734Z"/></g></g><defs><clipPath id="a"><path fill="#fff" d="M26.5 20.5h223v22h-223z"/></clipPath></defs></svg>