<svg width="223" height="22" viewBox="0 0 223 22" fill="none" xmlns="http://www.w3.org/2000/svg">
<path fill-rule="evenodd" clip-rule="evenodd" d="M87.2871 14.8547C87.2871 13.1169 85.9293 12.29 83.3927 12.29H77.6871V17.3891H83.3927C85.9293 17.3891 87.2871 16.6227 87.2871 14.8547ZM77.6871 3.95068V8.81216H82.5479C84.9319 8.81216 86.23 7.98755 86.23 6.36628C86.23 4.74501 84.9319 3.95068 82.5479 3.95068H77.6871ZM92.2101 15.3555C92.2101 18.9218 89.3107 20.9833 83.7554 20.9833H72.8262V0.354065H83.1517C88.4349 0.354065 91.1529 2.50644 91.1529 5.7187C91.1529 7.78256 90.0648 9.37122 88.3443 10.2564C90.6995 10.9948 92.2101 12.7628 92.2101 15.3555Z" fill="#151E2D"/>
<path fill-rule="evenodd" clip-rule="evenodd" d="M110.843 4.24485H106.858V11.4357H110.843C113.831 11.4357 115.342 10.08 115.342 7.83914C115.342 5.57029 113.831 4.24485 110.843 4.24485ZM115.432 20.984L111.356 15.2373H111.115H106.858V20.984H101.969V0.354736H111.115C116.759 0.354736 120.293 3.21525 120.293 7.83914C120.293 10.9349 118.694 13.2038 115.945 14.3545L120.687 20.984H115.432Z" fill="#151E2D"/>
<mask id="mask0_30_519" style="mask-type:alpha" maskUnits="userSpaceOnUse" x="0" y="0" width="223" height="22">
<path d="M0 21.3374H222.415V0H0V21.3374Z" fill="white"/>
</mask>
<g mask="url(#mask0_30_519)">
<path fill-rule="evenodd" clip-rule="evenodd" d="M130.199 20.981H135.089V0.354065H130.199V20.981Z" fill="#151E2D"/>
<path fill-rule="evenodd" clip-rule="evenodd" d="M155.502 17.0636C159.697 17.0636 162.446 14.6177 162.446 10.6694C162.446 6.72102 159.697 4.27514 155.502 4.27514H151.032V17.0636H155.502ZM146.143 0.354736H155.743C162.656 0.354736 167.395 4.42189 167.395 10.6694C167.395 16.9192 162.656 20.984 155.743 20.984H146.143V0.354736Z" fill="#151E2D"/>
<path fill-rule="evenodd" clip-rule="evenodd" d="M191.402 10.3461H195.869V18.7157C193.545 20.4231 190.345 21.3386 187.326 21.3386C180.685 21.3386 175.793 16.8894 175.793 10.6699C175.793 4.45266 180.685 0.00115967 187.417 0.00115967C191.13 0.00115967 194.208 1.24041 196.263 3.56749L193.122 6.39772C191.583 4.80441 189.803 4.06831 187.658 4.06831C183.551 4.06831 180.745 6.74946 180.745 10.6699C180.745 14.5297 183.551 17.2714 187.598 17.2714C188.925 17.2714 190.163 17.0361 191.402 16.3862V10.3461Z" fill="#151E2D"/>
<path fill-rule="evenodd" clip-rule="evenodd" d="M222.414 17.1521H211.304V12.3792H218.155L220.844 8.66375H211.304V4.18662H219.446L222.221 0.354736H206.445V20.984H219.639L222.414 17.1521Z" fill="#151E2D"/>
<path fill-rule="evenodd" clip-rule="evenodd" d="M13.2392 9.63866H4.88952V4.18551H16.79L19.286 0.355957H0V20.9829H4.88952V13.4705H10.7455L13.2392 9.63866Z" fill="#151E2D"/>
<path fill-rule="evenodd" clip-rule="evenodd" d="M24.9238 0.631531V21.3374H40.665V17.4324H29.8936V0.631531H24.9238Z" fill="#151E2D"/>
<path fill-rule="evenodd" clip-rule="evenodd" d="M59.5432 0.631531L53.9761 9.83051L48.4091 0.631531H43.2891L51.3573 13.9436V21.3374H56.1785V14.0044L64.2773 0.631531H59.5432Z" fill="#151E2D"/>
</g>
</svg>
