<?xml version="1.0" encoding="utf-8"?>
<!-- Generator: Adobe Illustrator 19.2.1, SVG Export Plug-In . SVG Version: 6.00 Build 0)  -->
<svg version="1.1" id="layer" xmlns="http://www.w3.org/2000/svg" xmlns:xlink="http://www.w3.org/1999/xlink" x="0px" y="0px"
	 viewBox="0 0 652 652" style="enable-background:new 0 0 652 652;" xml:space="preserve">
<style type="text/css">
	.st0{fill:#23223B;}
</style>
<title>Matrix_BW_Logo</title>
<desc>Created with Sketch.</desc>
<path class="st0" d="M622,285.1c-0.3,1.8-0.4,3.6-0.8,5.4c-1.3,5.8-3.2,11.4-7.5,15.9c-2.9,2.9-6.5,4.1-10.4,4.8
	c-5.9,1.1-11.1-0.6-16.3-3c-5.1-2.3-10.2-4.6-15.4-6.5c-4.1-1.5-8.4-2.3-12.2,0.7c-2,1.6-3.7,3.5-5.2,5.5c-2.4,3.2-3.8,6.9-4.9,10.8
	c0,0-0.1,0.1-0.1,0.1v12.1c0.4-0.4,0.9-0.9,1.3-1.4c3.8-4.2,8-7.8,13.5-9.6c8.1-2.7,17.4,0.2,23.1,7c4.5,5.3,6.6,11.5,7,18.3
	c0.4,7.5-1.1,14.3-5.6,20.5c-5,6.8-11.9,10.8-20.2,12.5c-2,0.4-4,0.6-6.1,0.9c-0.1-1-0.1-1.6,1-1.7c3-0.4,4.7-2.3,6.2-4.7
	c2.1-3.5,3.3-7.3,3.6-11.3c0.4-4.3,0.7-8.6,0.5-12.9c-0.3-6.1-1.8-11.9-6.4-16.4c-3.6-3.6-9.1-4-13.4-2c-4.5,2.1-4.6,2.3-4.6,7.3
	v69.2c0,2,0.4,2.4,2.4,2.5c2.7,0.2,5.4,0.3,8.1,0.5c0.5,0,1,0.6,1.5,0.8h-39.4c0.4-0.9,1.3-0.9,2.1-1c1.6-0.2,3.3-0.3,5-0.5
	c1-0.1,1.5-0.7,1.4-1.7V406c0-22.9,0-45.9,0-68.8c0-2-0.2-3.9-0.5-5.9c-0.3-1.8-1.3-3-3.2-3.5c-1.6-0.4-3.1-0.8-5.2-1.3
	c0.7-0.4,1-0.6,1.4-0.7c7.9-2.2,15.7-4.4,23.6-6.5c0.9-0.2,1.2-0.7,1.4-1.4c1.3-6.9,4.1-13.2,7.4-19.3c2.8-5,4.5-10.4,4.1-16.2
	c-0.2-3.6-1.5-6.5-4.8-8.3c-3.4-2-7.2-2.9-11-3.9c-4.1-1.1-8.3-2.1-12.3-3.5c-6.3-2.1-11.6-9.8-11.2-16c0.4-5.6,2.1-10.8,5.4-15.5
	c0.5-0.8,1.1-1.5,1.7-2.3l0.5,0.1c0,0.8,0,1.7-0.1,2.5c-0.6,3.6,0.1,6.8,3.1,9.2c2.4,1.9,5.2,2.8,8.1,3.1c4.5,0.4,8.9,1.2,13.1,2.7
	c6.1,2.2,9.4,6.8,11.2,12.7c1.8,6.2,1.5,12.4,0.1,18.6c-0.6,3-1.6,5.9-2.4,9.1c0.6-0.6,1.1-1,1.6-1.5c3.5-3.5,7.5-6.4,12.3-8
	c5.2-1.7,10.3-1.1,15.1,1.2c2.5,1.2,4.9,2.7,7.2,4.3c3.4,2.4,7.2,4.2,11.2,5.1c4,1,8.1-1,10.7-4.8c0.6-0.9,1.1-1.9,1.8-2.8
	c0.4-0.5,1-0.8,1.5-1.3C622,283.9,622,284.5,622,285.1L622,285.1z M622,285.1"/>
<path class="st0" d="M484,377h-33.5c0-0.1-0.1-0.3-0.2-0.4c0.5-0.2,0.9-0.5,1.4-0.5c1.4-0.2,2.8-0.4,4.2-0.5c1.2-0.1,1.6-0.9,1.7-2
	c0-0.6,0-1.2,0-1.8c0-10.1,0-20.2,0-30.3c0-1.6-0.2-3.2-0.5-4.8c-0.7-3.8-3.4-6.1-7.2-6.8c-3.8-0.7-7.3,0.1-10.6,1.7
	c-0.3,0.1-0.5,0.6-0.6,1c-0.1,0.4,0,0.9,0,1.3c0,12.9,0,25.9,0,38.9c0,2.9,0.3,2.6,2.9,3.1c1.2,0.2,2.6,0.2,3.8,0.3
	c0.4,0,0.7,0.4,1.1,0.6c-0.1,0.1-0.1,0.2-0.2,0.4h-34c-0.1-0.1-0.1-0.2-0.2-0.3c0.4-0.2,0.8-0.6,1.3-0.7c1.5-0.2,3.1-0.4,4.6-0.6
	c1.1-0.1,1.7-0.6,1.7-1.9c-0.1-13.3,0.1-26.6-0.1-39.9c-0.1-4.8-1.2-5.3-6.3-6.5c-0.6-0.1-1.2-0.3-2.2-0.5c0.5-0.4,0.7-0.7,1-0.8
	c8.8-2.4,17.5-4.8,26.3-7.1c0.2,0,0.4,0,0.5,0v11.5c1.2-1,2.3-2.1,3.6-3.1c3.7-3.1,7.7-5.8,12.2-7.5c5.9-2.1,11.5-1.8,16.5,2.5
	c2.2,1.9,3.5,4.3,4.3,7.1c0.5,1.7,0.6,1.7,1.9,0.5c3.6-3.3,7.3-6.5,11.7-8.7c3.2-1.6,6.6-2.8,10.2-2.7c6.3,0.1,12.2,4.5,13.6,11.1
	c1,4.6,1.1,9.3,1.2,14c0.1,9.8,0,19.6,0,29.4c0,2,0,2,2,2.4c1.7,0.3,3.4,0.5,5.1,0.8c0.4,0.1,0.8,0.4,1.2,0.6l-0.2,0.4h-33.8
	l-0.2-0.2c0.4-0.2,0.7-0.6,1.1-0.7c1.2-0.2,2.4-0.2,3.7-0.3c1.8-0.1,2.2-0.5,2.2-2.3c0-2.1,0-4.3,0-6.4c0-9.4,0.1-18.7-0.1-28.1
	c-0.1-6.7-4-8.9-9.5-9.3c-2.3-0.2-4.6,0.2-6.7,1.2c-1.6,0.8-2.5,1.9-2.5,3.9c0.1,12.9,0.1,25.8,0.1,38.7c0,1.8,0.1,1.9,1.8,2.1
	c1.6,0.2,3.2,0.3,4.7,0.5c0.4,0.1,0.7,0.4,1.1,0.7C484.1,376.8,484,376.9,484,377L484,377z M250.6,295.2c9.4-2.4,18.9-4.4,28.6-6.7
	v1.7c0,24.9,0,49.9,0,74.9c0,1.1,0.1,2.2,0.3,3.2c0.4,2,1.6,3.2,3.6,3.7c1.5,0.4,3,0.8,4.6,1.2c-0.7,0.8-25.6,5.7-27.5,5.5v-12.4
	l-0.5-0.4c-0.1,0.3-0.2,0.7-0.4,0.9c-3,3.8-6.5,7.1-10.9,9.4c-8,4.2-15.6,3.1-22.6-2.3c-5.7-4.4-8.9-10.4-10.2-17.4
	c-1.2-6.5-1-13,1.8-19.1c4.2-9.4,11.7-15,21.6-17.5c2.9-0.7,5.9-1,8.9-1.5c0.2,1,0.2,1.6-0.7,1.7c-3.1,0.5-5.3,2.2-7,4.7
	c-2,3-2.9,6.4-3.6,9.9c-0.9,4.8-1.1,9.6-0.8,14.5c0.4,5.6,1.6,10.9,5.4,15.4c3.8,4.6,10.2,5.6,15.3,2.4c3.8-2.3,3.8-2.3,3.8-6.7
	c0-18.3,0-36.6,0-54.9c0-1.6-0.3-3.3-0.4-4.9c-0.3-2.5-2-3.6-4.3-4c-1.6-0.3-3.2-0.6-4.9-0.9L250.6,295.2z M22.5,350.9
	c0.3,0.4,0.7,0.7,1,1.1c2.5,4.3,4.9,8.8,7.6,13c2.7,4.3,6.2,8,11.1,9.9c6.1,2.4,12.3,2.6,18.5,0.4c5.2-1.8,8.1-6.6,8.5-12
	c0.5-7.3-2.8-12.3-9-15.7c-2.1-1.1-4.2-2.1-6.4-3c-4.8-2-9.7-3.8-14.5-5.9c-4.3-1.8-8.1-4.3-10.9-8.1c-3.3-4.3-4.1-9.2-3.6-14.5
	c0.5-4.7,2.1-8.9,5-12.6c4.3-5.5,10.1-8.6,16.9-10c8.5-1.7,16.6-0.1,24.7,2.5c0.6,0.2,1.4,0.2,2,0c1.5-0.4,3-1,4.5-1.5
	c0.1,0,0.2,0,0.4,0.1l0.5,24.2l-0.3,0.3c-0.4-0.3-0.8-0.6-1.1-1c-4.2-6.7-8.4-13.4-12.6-20.1c-0.5-0.8-1.2-1.4-2-1.8
	c-2.3-1.1-4.8-1.6-7.3-1.6c-2.7,0-5.5-0.2-8.1,0.7c-5.1,1.8-8.1,5.3-8.5,10.7c-0.3,4.6,2,8.1,5.8,10.6c3.9,2.6,8.4,4.1,12.8,5.8
	c3.7,1.5,7.5,2.8,11.1,4.5c7.6,3.6,12.6,9.4,14,17.7c1.6,10.3-1.5,19-9.5,25.8c-6.3,5.4-13.8,7.8-22.2,7.7c-7.5-0.1-15-0.6-22.2-3
	c-0.2-0.1-0.3-0.1-0.5-0.2c-3.9-1.4-3.8-1.4-4.1-5.4c-0.3-3.9-0.8-7.9-1.2-11.8c-0.2-2.3-0.4-4.6-0.7-6.9
	C22.2,351.1,22.3,351,22.5,350.9L22.5,350.9z M381.1,365.6c-0.4,0.4-0.6,0.7-0.9,1c-3.3,3-6.3,6.4-9.9,8.9
	c-6.5,4.7-14.9,3.3-19.8-2.5c-4.1-4.9-3.1-12.1,0.6-16.2c3.6-3.9,8.3-6.3,13.1-8.1c5.3-2,10.7-3.6,16.1-5.3c0.9-0.3,1.3-0.6,1.3-1.6
	c-0.1-3.5,0.3-7.1-0.8-10.5c-1.6-4.8-4.4-8.3-9.7-9c-2.3-0.3-4.8-0.2-7.1,0.2c-2.1,0.3-2.5,1.9-1.3,3.6c0.9,1.2,1.7,2.4,2.6,3.7
	c2.3,3.3,0.7,7.4-2,9.4c-3.4,2.5-8.6,2.5-12,0.1c-2.8-2-3.6-6.2-1.4-9.5c1.1-1.7,2.7-3.2,4.4-4.4c4.7-3.4,10.2-5,15.9-6
	c2.6-0.5,5.2-0.8,7.8-0.9c4.7-0.2,9.4,0.1,13.9,2c4.9,2,7.4,5.9,8.3,11c0.8,4.9,0.3,9.9,0,14.8c-0.1,2-0.2,4-0.3,6
	c-0.1,4.2-0.3,8.5-0.3,12.7c0,2.8,2.4,5.1,5.2,4.9c0.8-0.1,1.7-0.5,2.3-1c0.9-0.8,1.6-1.8,2.5-2.7c0.3-0.3,0.8-0.3,1.2-0.5
	c0.1,0.1,0.2,0.3,0.2,0.4c-1,1.2-2,2.4-3,3.6c-2.3,2.6-4.8,5-7.8,6.9c-6.4,4.1-15.3,2.6-18.2-6.7
	C381.8,368.4,381.5,367.1,381.1,365.6L381.1,365.6z M381.3,344.9c-3.3,0.8-6.7,1.9-9.7,4c-1,0.7-1.9,1.5-2.6,2.4
	c-2.6,3.1-3.2,6.7-2.4,10.5c0.8,3.9,2.9,6.5,8,6.2c2.3-0.2,3.9-1.5,5.4-3c0.5-0.5,0.8-1.2,0.8-1.9c0.2-3.4,0.4-6.8,0.5-10.2
	C381.4,350.1,381.3,347.5,381.3,344.9L381.3,344.9z M147.5,339.6c-2.9,0-5.4,0-8,0c-1.7,0-3.5-0.1-5.2-0.1
	c-7.3-0.1-14.5-0.2-21.8-0.3c-0.7,0-1.3,0-1.3,0.9c-0.1,5.8,0.1,11.5,2.5,16.9c2.7,5.8,6.9,9.9,13.4,11.2c8.1,1.6,15.7-1.2,19.5-8.9
	c0.1-0.3,0.3-0.5,0.9-0.9c0.1,0.4,0.3,0.9,0.2,1.2c-4.2,10-10.8,17.4-22.3,19.1c-8,1.2-15.4,0.1-22-4.6
	c-6.7-4.7-10.5-11.2-11.8-19.2c-1.5-9.1,0.6-17.4,6.3-24.7c5.2-6.6,12.2-10.4,20.6-11.7c5.9-0.9,11.7-0.6,17.2,1.9
	c6.1,2.7,10.2,7.2,11.6,13.8C147.5,335.9,147.4,337.8,147.5,339.6L147.5,339.6z M129.9,337.3c-0.1-2.3-0.2-4.5-0.5-6.7
	c-0.4-2.7-0.9-5.4-2.7-7.7c-0.9-1.1-2.1-2.1-3.3-2.6c-2.7-1-4.8,0.3-6.6,2.2c-3.9,4.2-4.8,9.4-5.3,14.8H129.9z M209.3,339.7
	c-0.7,0-1.2,0-1.7,0c-11-0.2-22-0.4-33-0.6c-1,0-1.5,0.3-1.5,1.2c0,5.8,0.1,11.6,2.7,17c2.7,5.6,6.9,9.5,13.2,10.8
	c8,1.5,15.7-1.2,19.5-8.9c0.1-0.3,0.3-0.5,0.7-1.2c0.2,0.7,0.5,1.1,0.4,1.4c-4.2,10-10.7,17.5-22.2,19.2c-8.9,1.3-17-0.2-24-5.9
	c-5.1-4.1-8.3-9.4-9.6-15.7c-2.5-11.6,0.3-21.9,8.9-30.3c5.6-5.4,12.5-8.1,20.3-8.7c6.2-0.4,12.1,0.4,17.4,3.7
	c5.4,3.4,8.4,8.2,9,14.5C209.6,337.4,209.4,338.5,209.3,339.7L209.3,339.7z M173.5,337.3H192c-0.1-1.6-0.1-3.1-0.2-4.5
	c-0.3-3.2-0.8-6.4-2.5-9.2c-2.5-4.2-6.6-4.7-10.1-1.2C175.1,326.4,174.2,331.8,173.5,337.3L173.5,337.3z M344.7,358
	c0.2,0.6,0.5,1,0.4,1.3c-3.3,8.2-8.4,14.9-17.1,18.1c-11,4-24.1,1.4-32-7.7c-3.6-4.1-5.9-9.3-6.5-14.7c-1-7.7,0.3-14.9,4.3-21.6
	c4.9-7.9,12.1-12.5,21.2-14.3c7.2-1.4,14.3-0.9,21.1,2.1c3.6,1.6,6.7,3.9,7.9,7.9c1.5,4.6-0.5,9.4-4.6,11.4c-4.1,2-9.4,0.7-11.9-3.1
	c-1.7-2.5-2-5.2-0.7-7.9c0.7-1.5,1.7-2.8,2.6-4.2c0.9-1.4,0.7-2.4-0.6-3.3c-2.1-1.5-4.6-1.8-7.1-1.4c-5.6,0.9-8.2,4.9-9.9,9.6
	c-1.4,3.7-1.8,7.7-1.9,11.7c-0.1,4.9,0,9.8,1.6,14.6c2,5.9,5.5,10.2,11.9,11.7c5.8,1.3,11.4,0.9,16.1-3.1c1.8-1.6,3-3.8,4.5-5.8
	C344.3,358.8,344.4,358.6,344.7,358L344.7,358z M344.7,358"/>
</svg>
