<?xml version="1.0" encoding="utf-8"?>
<!-- Generator: Adobe Illustrator 19.2.1, SVG Export Plug-In . SVG Version: 6.00 Build 0)  -->
<svg version="1.1" id="layer" xmlns="http://www.w3.org/2000/svg" xmlns:xlink="http://www.w3.org/1999/xlink" x="0px" y="0px"
	 viewBox="0 0 652 652" style="enable-background:new 0 0 652 652;" xml:space="preserve">
<style type="text/css">
	.st0{fill:#545456;}
	.st1{fill:#E67B26;}
</style>
<path class="st0" d="M317.1,296.4c5.6,0.2,11.2,1.6,16.2,4c1,0.5,2,0.8,3,1c0.4,0,0.8-0.1,1-0.4l0.5-0.4c0.3-0.3,0.6-0.4,1-0.4
	c0.8,0,1.2,0.5,1.2,1.5l0,2.9l-0.2,5.7l0.1,3c0.1,0.7,0.1,1.5,0.2,2.4c0,0.3,0,0.6,0,0.7c0,0.9-0.4,1.3-1.3,1.3
	c-0.6,0-1-0.6-1.2-1.7c-0.7-3.7-2.6-7.1-5.3-9.7c-3.8-4.3-9.4-6.8-15.1-6.7c-5.3-0.1-10.4,2.3-13.5,6.7c-3.6,5.2-5.4,11.4-5.1,17.7
	c-0.2,7,1.6,14,5.2,20c3.5,5.4,7.8,8.1,12.9,8.1c2-0.1,3.9-0.4,5.8-1c1.9-0.5,3.7-1.2,5.4-2.2c1.1-0.7,1.9-1.9,2.3-3.1
	c0.5-2.1,0.7-4.3,0.6-6.4c0.3-2.4-0.4-4.9-1.8-6.9c-1.9-1.5-4.3-2.3-6.7-2.2c-0.9-0.1-1.3-0.5-1.3-1.2c0-0.8,0.5-1.2,1.5-1.2
	c0.3,0,0.8,0,1.5,0.1c2.7,0.2,5.8,0.4,9.2,0.4c2.6,0,5.2-0.1,7.8-0.3c1-0.2,2.1-0.2,3.1-0.3c1,0,1.5,0.4,1.5,1.1
	c0,0.7-0.5,1.1-1.5,1.3c-1.5,0.2-2.7,1.2-3.3,2.6c-0.7,2.3-1.1,4.6-0.9,7c0,0.9,0,1.8,0.1,2.7c0.1,1.4,0.2,2.3,0.2,2.9
	c0.1,0.7-0.1,1.3-0.5,1.9c-0.6,0.6-1.3,1-2.1,1.2c-0.6,0.2-2.8,1.2-6.6,2.8c-5.4,2.6-11.3,4-17.3,4.3c-6.9,0.2-13.6-2.5-18.3-7.6
	c-4.9-5.4-7.4-12.4-7.1-19.6c-0.2-8.3,2.7-16.4,8.2-22.6C301.7,299.6,309.2,296.2,317.1,296.4z M367.7,341.2c0,5.2,0.6,8.1,1.9,8.7
	c1.3,0.5,2.7,0.6,4.1,0.5c9.4,0,16-2.8,19.9-8.3c1.2-1.7,2-2.5,2.3-2.5c0.5,0,0.8,0.6,0.8,1.7c0,3.5-1.2,6.8-3.4,9.4
	c-2,2.4-5.1,3.8-8.3,3.7c-0.7,0-2-0.1-3.9-0.2l-5-0.3l-4.5-0.2c-1.5-0.1-3.3-0.1-5.2-0.1c-3.5,0-6.9,0.2-10.4,0.6
	c-1.1,0.1-1.9,0.2-2.3,0.2c-0.8,0-1.2-0.4-1.2-1.1c0-0.5,0.4-0.9,1.1-1.1c1.6-0.4,2.9-1.4,3.7-2.9c0.8-2.2,1.2-4.6,1-7v-34.6
	c0-4.4-1.8-6.9-5.5-7.5l-2.5-0.4c-1-0.2-1.6-0.6-1.6-1.3c-0.1-0.6,0.3-1.2,0.9-1.3c0.1,0,0.2,0,0.3,0c0.4,0,0.8,0.1,1.2,0.1
	c0.4,0,0.9,0.1,1.6,0.2l1.8,0.1c1.7,0.2,3,0.3,3.8,0.3c2.1-0.1,4.2-0.2,6.4-0.5c2.2-0.2,4.4-0.3,6.6-0.3c1.7,0,2.5,0.4,2.5,1.2
	c0,0.7-0.6,1.1-1.8,1.1c-2.8,0.2-4.2,2.1-4.2,5.8L367.7,341.2z M430.6,296.3c7.7-0.3,15.2,2.4,20.9,7.5c5.4,5.2,8.3,12.4,8,19.8
	c0.2,8.3-2.7,16.4-8.2,22.6c-5.3,6-12.7,9.1-22.1,9.1c-7.9,0.4-15.7-2.5-21.5-7.9c-5.5-5.6-8.4-13.2-8.1-21c0-3.8,0.7-7.6,2-11.2
	c2.6-7.5,8.3-13.5,15.8-16.3C421.6,297.1,426.1,296.3,430.6,296.3z M427.6,299.4c-5.1-0.2-10,2.1-13,6.2c-3.1,4.1-4.7,9.9-4.7,17.2
	c-0.3,7.5,1.7,14.9,5.9,21.2c3.4,5.1,9.2,8.2,15.3,8.2c5.4,0.1,10.5-2.4,13.6-6.7c3.6-5.3,5.4-11.6,5.1-18c0-4.4-0.8-8.7-2.4-12.7
	c-1.3-3.7-3.5-7.1-6.3-9.9C437.5,301.3,432.6,299.3,427.6,299.4L427.6,299.4z M472.7,309.4c0-5.6-2.3-8.6-6.8-9.2L464,300
	c-0.6-0.1-0.9-0.5-0.9-1.2c0-0.8,0.4-1.2,1.2-1.2l1,0l3.1,0.2c2.6,0.1,4.2,0.2,4.9,0.2c2,0,5.6-0.2,10.9-0.7c3.3-0.3,6-0.5,8.3-0.5
	c5-0.2,10,1.1,14.2,3.8c3.4,2.2,5.4,6.1,5.3,10.1c0.3,4.5-2.4,8.6-6.6,10.2c-1,0.4-1.5,0.8-1.6,1.1c0,0.5,0.5,0.8,1.6,1
	c3.2,0.5,6.1,2.1,8.2,4.5c2,2.5,3.1,5.7,3,9c0.2,4.9-1.8,9.7-5.5,13c-4.2,3.4-9.5,5.1-14.9,4.8l-8.4-0.2l-6.5-0.1
	c-3.6,0-7.2,0.1-10.8,0.5c-0.9,0.1-1.8,0.2-2.6,0.2c-0.8,0-1.3-0.4-1.3-1.1c0-0.6,0.4-1,1.1-1.2c3.3-0.6,5-3.4,5-8.6L472.7,309.4z
	 M482.2,305.8v11.9c-0.1,1.3,0.3,2.5,1.2,3.4c1.2,0.8,2.6,1.1,4.1,1l5.7,0.1l2.6-0.1c4.7-0.6,7.1-3.4,7.1-8.5
	c0.2-3.7-1.3-7.4-3.9-10c-2.8-2.6-6.6-4-10.4-3.8c-1.8-0.2-3.6,0.2-5,1.2C482.5,302.4,482,304.1,482.2,305.8L482.2,305.8z
	 M482.2,333.4v6.9l0.1,1.6l0.3,3.5c0.3,4,3.5,6,9.5,6c5.9,0,9.9-1.4,12.1-4.3c1.8-2.5,2.7-5.5,2.7-8.5c0-6.5-2.9-10.5-8.7-12
	c-3.7-0.9-7.6-1.3-11.4-1.3c-2,0-3.3,0.5-3.8,1.4C482.3,328.9,482.1,331.2,482.2,333.4L482.2,333.4z M551.6,302.1l18.9,43.4
	c0.7,1.9,1.9,3.5,3.3,4.9c1.4,1.1,3.1,1.9,4.9,2.2c0.5,0.1,0.7,0.5,0.7,1.2c0,0.8-0.3,1.1-1,1.1c-0.5,0-1.1-0.1-1.6-0.2
	c-3.4-0.6-6.9-0.8-10.3-0.7c-3.3-0.1-6.5,0.1-9.7,0.7c-0.3,0.1-0.7,0.2-1.1,0.2c-0.6,0.1-1.1-0.3-1.2-0.9c0-0.1,0-0.2,0-0.3
	c0-0.4,0.3-0.7,0.9-0.9c1.3-0.4,2.4-1.1,3.3-2.1c0.8-0.9,1.3-2,1.3-3.2c-0.7-3.6-1.9-7-3.6-10.2c-0.8-1.6-1.6-2.5-2.5-2.8
	c-3.2-0.4-6.4-0.5-9.5-0.4H539l-3.7,0.7c-1,0.5-2.2,2.3-3.5,5.5l-1.3,3.2c-0.4,0.9-0.6,1.8-0.6,2.8c0,3.5,2.4,5.5,7.3,6.1
	c1,0.1,1.6,0.5,1.5,1.2c-0.1,0.7-0.6,1.1-1.5,1.1c-0.7,0-1.4-0.1-2.1-0.2c-1.6-0.3-3.3-0.5-4.9-0.6c-1.3,0-3.4,0.1-6.3,0.4
	c-2.2,0.2-3.5,0.3-4,0.3c-0.8,0-1.2-0.3-1.2-1c0-0.6,0.4-1,1.2-1.3c1.4-0.4,2.7-1.4,3.6-2.6c1.6-2.5,2.9-5.2,4-7.9l11.3-26.1
	c0.9-2.1,1.5-3.5,1.9-4.3l3.9-7.9l2-3.9v0.1c0.9-2.1,1.5-3.2,1.8-3.2c0.4,0,1.2,1.2,2.3,3.5L551.6,302.1z M553.2,328l-5.4-12.7
	c-1.3-3-2.2-4.5-2.8-4.5c-0.3,0-0.9,1-1.8,2.9l-0.8,1.7l-4.8,11.1l-0.5,1c-0.2,0.3-0.3,0.7-0.3,1.1c0,0.9,1,1.4,3,1.4H552
	c1,0,1.6-0.3,1.6-0.9c0-0.2-0.1-0.5-0.2-0.7L553.2,328z M598.1,341.2c0,5.2,0.6,8.1,1.9,8.7c1.3,0.5,2.7,0.6,4,0.5
	c9.4,0,16-2.8,19.9-8.3c1.2-1.7,2-2.5,2.3-2.5c0.5,0,0.8,0.6,0.8,1.7c0,3.5-1.2,6.8-3.4,9.4c-2,2.4-5.1,3.8-8.3,3.7
	c-0.7,0-2-0.1-4-0.2l-5-0.3l-4.5-0.2c-1.5-0.1-3.3-0.1-5.2-0.1c-3.5,0-6.9,0.2-10.4,0.6c-1.1,0.1-1.9,0.2-2.3,0.2
	c-0.8,0-1.2-0.4-1.2-1.1c0-0.5,0.4-0.9,1.1-1.1c1.6-0.4,2.9-1.4,3.7-2.9c0.8-2.2,1.1-4.6,1-7v-34.6c0-4.4-1.8-6.9-5.5-7.5l-2.5-0.4
	c-1.1-0.2-1.6-0.6-1.6-1.3c-0.1-0.6,0.3-1.2,0.9-1.3c0.1,0,0.2,0,0.3,0c0.4,0,0.8,0.1,1.2,0.1c0.4,0,0.9,0.1,1.6,0.2l1.8,0.1
	c1.7,0.2,3,0.3,3.8,0.3c1.3,0,3.5-0.2,6.4-0.5c2.2-0.2,4.4-0.3,6.6-0.3c1.7,0,2.5,0.4,2.5,1.2c0,0.7-0.6,1.1-1.8,1.1
	c-2.8,0.2-4.2,2.1-4.2,5.8L598.1,341.2z"/>
<path class="st1" d="M59.4,307.4v31.3c-0.3,3.4,0.4,6.9,2,10c1.8,2.1,4.4,3.4,7.2,3.3c1,0.1,1.5,0.6,1.5,1.5c0,0.6-0.4,1-1.3,1
	c-0.2,0-0.5,0-1,0l-3.1-0.1l-5.2-0.3c-0.4,0-1,0-1.7,0c-1.6,0-3.1,0-4.3,0.1l-9.2,0.5c-1,0.1-1.6,0.2-2,0.2c-0.9,0-1.3-0.4-1.3-1.1
	c0-0.4,0.1-0.9,0.4-1.2c0.5-0.2,1.1-0.4,1.6-0.4c1.9,0,3.7-0.9,5-2.3c1.3-1.7,1.9-3.7,1.8-5.8l0-2V305c0-2.2-1.2-3.3-3.5-3.3
	c-3.8-0.2-7.7,0.2-11.3,1.2c-1.2,0.4-2.2,1.1-2.9,2.1c-0.9,1.8-1.5,3.7-2,5.7l-0.3,1.2c-0.3,1.1-0.8,1.7-1.4,1.7
	c-0.9,0-1.3-0.4-1.3-1.3c0.1-1.1,0.2-2.2,0.4-3.2l0.4-3.6l0.5-3.7l0.3-2.5c0-0.9,0.7-1.6,1.5-1.6c0.1,0,0.1,0,0.2,0
	c0.3,0,0.8,0,1.4,0.1c1.1,0.1,2.6,0.1,4.6,0.1l8.5,0.1l10.1,0.1c6.5,0,13.4-0.2,20.7-0.5c1.4-0.1,2.4-0.1,2.8-0.1
	c1.5,0,2.3,0.6,2.4,1.9l0.2,3c0,0.5,0.2,1.6,0.4,3.4c0.2,1.2,0.3,2.4,0.3,3.5c0,0.9-0.4,1.4-1.1,1.4c-0.6,0-1.1-0.5-1.3-1.6
	c-0.4-2.2-1.5-4.2-3.3-5.6c-2.2-1.3-4.7-1.9-7.2-1.7c-2.7-0.2-5.3,0.1-7.9,1C59.9,303.2,59.4,304.8,59.4,307.4z M101.4,341.3
	l0.3,4.2c0.2,1.9,1.1,3.6,2.4,4.9c1.4,1.2,3.2,1.8,5,1.7c1.4,0,2,0.4,2,1.3c0,0.8-0.9,1.2-2.7,1.2c-0.8,0-1.9-0.1-3.3-0.2
	c-2.9-0.4-5.8-0.6-8.8-0.6c-2.2,0-4.4,0.1-6.6,0.4c-1,0.2-2,0.3-3,0.4c-0.6,0-1.1-0.3-1.2-0.9l-0.1-0.3l1.2-1c1.6-0.4,3-1.3,4-2.6
	c0.8-1.6,1.1-3.4,1-5.2l0-3.7v-33c0.2-1.9-0.3-3.8-1.3-5.4c-1.3-1.3-3-2.1-4.9-2.2c-0.9-0.1-1.8-0.3-2.7-0.6
	c-0.4-0.2-0.6-0.6-0.6-1.1c0-0.8,0.3-1.2,1-1.1c0.8,0.1,1.5,0.2,2.2,0.3c1.7,0.3,3.3,0.4,5,0.3c1.5,0,3.5-0.1,5.8-0.3l3-0.2
	c2.8-0.2,5-0.3,6.6-0.3c0.9,0,1.4,0.3,1.4,1c0,0.4,0,0.7-0.2,1c-0.3,0.2-0.7,0.4-1,0.4c-1.4,0.1-2.8,0.7-3.8,1.7
	c-0.7,1.5-1,3.1-0.8,4.7L101.4,341.3z M143.2,296.4c5.6,0.2,11.1,1.6,16.2,4c1,0.5,2,0.8,3,1c0.4,0,0.8-0.1,1-0.4l0.5-0.4
	c0.3-0.3,0.6-0.4,1-0.4c0.8,0,1.2,0.5,1.2,1.5l0,2.9l-0.2,5.7l0.1,3c0.1,0.7,0.1,1.5,0.3,2.4c0,0.3,0,0.6,0,0.7
	c0,0.9-0.4,1.3-1.3,1.3c-0.6,0-1-0.6-1.2-1.7c-0.8-3.7-2.6-7.1-5.3-9.7c-3.8-4.3-9.4-6.8-15.1-6.7c-5.3-0.2-10.4,2.3-13.5,6.7
	c-3.6,5.2-5.4,11.4-5.1,17.7c-0.2,7,1.6,14,5.2,20c3.5,5.4,7.8,8.1,12.9,8.1c2-0.1,3.9-0.4,5.8-1c1.9-0.5,3.7-1.2,5.3-2.2
	c1.1-0.7,1.9-1.9,2.3-3.1c0.5-2.1,0.7-4.3,0.6-6.4c0.3-2.4-0.4-4.9-1.8-6.9c-1.9-1.5-4.3-2.3-6.7-2.2c-0.9-0.1-1.3-0.5-1.3-1.2
	c0-0.8,0.5-1.2,1.5-1.2c0.3,0,0.8,0,1.5,0.1c2.7,0.2,5.8,0.4,9.2,0.4c2.6,0,5.2-0.1,7.8-0.3c1-0.2,2.1-0.2,3.1-0.3
	c1,0,1.5,0.4,1.5,1.1c0,0.7-0.5,1.1-1.5,1.3c-1.5,0.2-2.7,1.2-3.3,2.6c-0.7,2.3-1,4.6-0.9,7c0,0.9,0,1.8,0.1,2.7
	c0.1,1.4,0.2,2.3,0.2,2.9c0.1,0.7-0.1,1.3-0.5,1.9c-0.6,0.6-1.3,1-2.1,1.2c-0.6,0.2-2.8,1.2-6.6,2.8c-5.4,2.6-11.3,4-17.3,4.3
	c-6.9,0.2-13.6-2.5-18.3-7.6c-4.9-5.4-7.4-12.4-7.1-19.6c-0.2-8.3,2.7-16.4,8.2-22.6C127.9,299.6,135.4,296.2,143.2,296.4z
	 M193.8,307v9c-0.1,1.7,0.1,3.3,0.6,4.9c0.4,0.7,1.3,1,2.7,1l1.3,0l1.8,0h3.5c2.8-0.1,5.4-1.9,6.4-4.5l1-2c0.2-0.5,0.7-0.8,1.2-0.8
	c0.6,0,0.9,0.4,0.9,1.1c0,0.2,0,0.8-0.1,1.8c-0.1,0.7-0.1,1.3-0.1,1.8c0,0.9,0.1,3,0.4,6.2c0.2,2.1,0.2,4,0.2,5.6l0.1,2.1
	c0,0.3,0,0.5-0.1,0.8c-0.2,0.2-0.4,0.3-0.7,0.3c-0.7,0.1-1.1-0.5-1.3-1.6c-0.2-2-1.1-3.9-2.5-5.4c-0.7-0.7-1.7-1.1-2.6-1.3
	c-1.9-0.2-3.9-0.3-5.8-0.3h-2.8c-0.9-0.1-1.9,0.1-2.7,0.6c-0.6,0.7-0.9,1.5-1,2.4c-0.2,2.2-0.3,4.4-0.3,6.6v3.7
	c-0.1,2.8,0.2,5.7,0.9,8.4c0.4,2.1,2.5,3.5,4.6,3.2c11.2,0,18.6-3.4,22-10.3c0.2-0.3,0.4-0.5,0.5-0.5c0.3-0.1,0.6,0.1,0.8,0.3
	c0.2,0.2,0.4,0.6,0.4,0.9c0,2.8-0.8,5.5-2.2,7.9c-1,2-2.6,3.6-4.6,4.6c-2.3,1-4.8,1.5-7.3,1.4c-2,0-3.9-0.1-5.9-0.3l-4.8-0.4
	c-1.8-0.2-4.2-0.3-7.2-0.3c-2,0-5.1,0.1-9.2,0.4c-1.1,0.1-1.9,0.1-2.4,0.1c-0.5,0.1-1-0.3-1.1-0.8c0,0,0-0.1,0-0.1
	c0-0.5,0.3-0.9,0.9-1.2c1.2-0.4,2.3-1,3.2-1.9c0.7-1.1,1.2-2.3,1.3-3.6c0.4-2,0.5-4,0.5-6V308c0.2-2.2-0.3-4.4-1.5-6.3
	c-1.8-1.4-4-2.2-6.3-2.3c-0.6,0-1.1-0.5-1.1-1.2c0,0,0,0,0,0c0-0.6,0.5-1,1.4-1c0.2,0,0.6,0,1.3,0.1c0.5,0,1.2,0,2,0l4.2,0.2
	l15.7,0.2c9.1,0,14.6-0.1,16.7-0.4c0.2,0,0.4,0,0.6,0c0.8,0,1.2,0.5,1.2,1.4c0,0.6,0.1,1.8,0.3,3.4c0.2,2.4,0.3,4.2,0.3,5.2
	c0,2.1-0.5,3.2-1.6,3.2c-0.5,0-0.8-0.6-0.8-1.8c0.2-2.4-1-4.7-3-6c-3-1.4-6.4-2.1-9.7-1.8h-5.1l-2.8,0.3c-1.4,0.4-2.1,1.8-2.1,4.2
	L193.8,307z M243.9,338c-0.3,3.6,0.2,7.3,1.5,10.7c1.2,2,3.4,3.2,5.7,3.2c1.2,0.1,1.7,0.6,1.7,1.4s-0.5,1.2-1.4,1.2
	c-0.3,0-0.9,0-1.7-0.1c-2.4-0.2-4.7-0.3-6.9-0.3c-1.8,0-3.5,0.1-4.9,0.2l-3.5,0.3l-2.8,0.2c-0.8,0.1-1.3,0.1-1.6,0.1
	c-1,0-1.5-0.4-1.5-1.1c-0.1-0.5,0.3-1,0.8-1.2c1.5-0.3,2.9-1.2,3.9-2.3c0.8-1.3,1.2-2.9,1.1-4.5v-3.9l0.1-1.6v-30
	c0.2-2.3-0.2-4.6-1.3-6.7c-1.6-2-4.1-3.2-6.6-3.3c-1.1-0.2-1.7-0.7-1.7-1.4c-0.1-0.6,0.3-1.1,0.9-1.2c0.1,0,0.2,0,0.3,0
	c0.5,0,1,0,1.5,0.1c2.3,0.2,4.7,0.4,7,0.3c2.8,0,6.2-0.2,10.2-0.5c4.7-0.4,7.9-0.5,9.7-0.5c4.7-0.2,9.4,1.4,13.1,4.3
	c3.3,2.6,5.3,6.6,5.2,10.8c0,2.7-0.8,5.3-2.3,7.5c-1.6,2.3-3.8,4.1-6.3,5.1c-0.5,0.2-0.8,0.5-0.8,0.8c0.1,0.4,0.2,0.7,0.4,1
	c0.2,0.4,0.6,1,1.1,1.9l3.7,6.6l4.3,7.6c1,2,2.3,3.8,3.9,5.3c1.1,1,2.6,1.5,4.1,1.5c0.6,0,1.2,0,1.8-0.2c0.3-0.1,0.6-0.1,0.9-0.1
	c0.5,0,0.8,0.3,0.8,1c0,0.8-1.1,1.7-3.4,2.7c-1.9,0.9-3.9,1.5-6,1.5c-3.1-0.1-6-1.7-7.9-4.2c-3.7-4.9-6.8-10.2-9.4-15.9
	c-0.9-2.1-2.1-4.1-3.7-5.8c-1.4-0.9-3.1-1.4-4.7-1.2h-2.6l-1.9,0.3c-0.4,0.2-0.6,0.9-0.6,2L243.9,338z M243.9,305.6v14.4
	c-0.1,1.2,0.1,2.3,0.7,3.4c1,0.6,2.1,0.9,3.3,0.7c3.1,0.1,6.1,0,9.2-0.3c1.2-0.2,2.4-0.8,3.3-1.7c2.1-1.9,3.2-4.7,3-7.6
	c0.2-7.7-5.8-14.2-13.6-14.4c-0.3,0-0.6,0-1,0c-1.4-0.2-2.8,0.3-3.9,1.2C244.1,302.5,243.7,304.1,243.9,305.6L243.9,305.6z"/>
</svg>
