<svg width="276" height="63" viewBox="0 0 276 63" fill="none" xmlns="http://www.w3.org/2000/svg">
<g clip-path="url(#clip0_4305_131704)">
<path d="M134.139 20.16C136.323 20.24 138.507 20.8 140.457 21.76C140.847 21.96 141.237 22.08 141.627 22.16C141.783 22.16 141.939 22.12 142.017 22L142.212 21.84C142.329 21.72 142.446 21.68 142.602 21.68C142.914 21.68 143.07 21.88 143.07 22.28V23.44L142.992 25.72L143.031 26.92C143.07 27.2 143.07 27.52 143.109 27.88C143.109 28 143.109 28.12 143.109 28.16C143.109 28.52 142.953 28.68 142.602 28.68C142.368 28.68 142.212 28.44 142.134 28C141.861 26.52 141.12 25.16 140.067 24.12C138.585 22.4 136.401 21.4 134.178 21.44C132.111 21.4 130.122 22.36 128.913 24.12C127.509 26.2 126.807 28.68 126.924 31.2C126.846 34 127.548 36.8 128.952 39.2C130.317 41.36 131.994 42.44 133.983 42.44C134.763 42.4 135.504 42.28 136.245 42.04C136.986 41.84 137.688 41.56 138.351 41.16C138.78 40.88 139.092 40.4 139.248 39.92C139.443 39.08 139.521 38.2 139.482 37.36C139.599 36.4 139.326 35.4 138.78 34.6C138.039 34 137.103 33.68 136.167 33.72C135.816 33.68 135.66 33.52 135.66 33.24C135.66 32.92 135.855 32.76 136.245 32.76C136.362 32.76 136.557 32.76 136.83 32.8C137.883 32.88 139.092 32.96 140.418 32.96C141.432 32.96 142.446 32.92 143.46 32.84C143.85 32.76 144.279 32.76 144.669 32.72C145.059 32.72 145.254 32.88 145.254 33.16C145.254 33.44 145.059 33.6 144.669 33.68C144.084 33.76 143.616 34.16 143.382 34.72C143.109 35.64 142.953 36.56 143.031 37.52C143.031 37.88 143.031 38.24 143.07 38.6C143.109 39.16 143.148 39.52 143.148 39.76C143.187 40.04 143.109 40.28 142.953 40.52C142.719 40.76 142.446 40.92 142.134 41C141.9 41.08 141.042 41.48 139.56 42.12C137.454 43.16 135.153 43.72 132.813 43.84C130.122 43.92 127.509 42.84 125.676 40.8C123.765 38.64 122.79 35.84 122.907 32.96C122.829 29.64 123.96 26.4 126.105 23.92C128.133 21.44 131.058 20.08 134.139 20.16ZM153.873 38.08C153.873 40.16 154.107 41.32 154.614 41.56C155.121 41.76 155.667 41.8 156.213 41.76C159.879 41.76 162.453 40.64 163.974 38.44C164.442 37.76 164.754 37.44 164.871 37.44C165.066 37.44 165.183 37.68 165.183 38.12C165.183 39.52 164.715 40.84 163.857 41.88C163.077 42.84 161.868 43.4 160.62 43.36C160.347 43.36 159.84 43.32 159.099 43.28L157.149 43.16L155.394 43.08C154.809 43.04 154.107 43.04 153.366 43.04C152.001 43.04 150.675 43.12 149.31 43.28C148.881 43.32 148.569 43.36 148.413 43.36C148.101 43.36 147.945 43.2 147.945 42.92C147.945 42.72 148.101 42.56 148.374 42.48C148.998 42.32 149.505 41.92 149.817 41.32C150.129 40.44 150.285 39.48 150.207 38.52V24.68C150.207 22.92 149.505 21.92 148.062 21.68L147.087 21.52C146.697 21.44 146.463 21.28 146.463 21C146.424 20.76 146.58 20.52 146.814 20.48C146.853 20.48 146.892 20.48 146.931 20.48C147.087 20.48 147.243 20.52 147.399 20.52C147.555 20.52 147.75 20.56 148.023 20.6L148.725 20.64C149.388 20.72 149.895 20.76 150.207 20.76C151.026 20.72 151.845 20.68 152.703 20.56C153.561 20.48 154.419 20.44 155.277 20.44C155.94 20.44 156.252 20.6 156.252 20.92C156.252 21.2 156.018 21.36 155.55 21.36C154.458 21.44 153.912 22.2 153.912 23.68L153.873 38.08ZM178.404 20.12C181.407 20 184.332 21.08 186.555 23.12C188.661 25.2 189.792 28.08 189.675 31.04C189.753 34.36 188.622 37.6 186.477 40.08C184.41 42.48 181.524 43.72 177.858 43.72C174.777 43.88 171.735 42.72 169.473 40.56C167.328 38.32 166.197 35.28 166.314 32.16C166.314 30.64 166.587 29.12 167.094 27.68C168.108 24.68 170.331 22.28 173.256 21.16C174.894 20.44 176.649 20.12 178.404 20.12ZM177.234 21.36C175.245 21.28 173.334 22.2 172.164 23.84C170.955 25.48 170.331 27.8 170.331 30.72C170.214 33.72 170.994 36.68 172.632 39.2C173.958 41.24 176.22 42.48 178.599 42.48C180.705 42.52 182.694 41.52 183.903 39.8C185.307 37.68 186.009 35.16 185.892 32.6C185.892 30.84 185.58 29.12 184.956 27.52C184.449 26.04 183.591 24.68 182.499 23.56C181.095 22.12 179.184 21.32 177.234 21.36ZM194.823 25.36C194.823 23.12 193.926 21.92 192.171 21.68L191.43 21.6C191.196 21.56 191.079 21.4 191.079 21.12C191.079 20.8 191.235 20.64 191.547 20.64H191.937L193.146 20.72C194.16 20.76 194.784 20.8 195.057 20.8C195.837 20.8 197.241 20.72 199.308 20.52C200.595 20.4 201.648 20.32 202.545 20.32C204.495 20.24 206.445 20.76 208.083 21.84C209.409 22.72 210.189 24.28 210.15 25.88C210.267 27.68 209.214 29.32 207.576 29.96C207.186 30.12 206.991 30.28 206.952 30.4C206.952 30.6 207.147 30.72 207.576 30.8C208.824 31 209.955 31.64 210.774 32.6C211.554 33.6 211.983 34.88 211.944 36.2C212.022 38.16 211.242 40.08 209.799 41.4C208.161 42.76 206.094 43.44 203.988 43.32L200.712 43.24L198.177 43.2C196.773 43.2 195.369 43.24 193.965 43.4C193.614 43.44 193.263 43.48 192.951 43.48C192.639 43.48 192.444 43.32 192.444 43.04C192.444 42.8 192.6 42.64 192.873 42.56C194.16 42.32 194.823 41.2 194.823 39.12V25.36ZM198.528 23.92V28.68C198.489 29.2 198.645 29.68 198.996 30.04C199.464 30.36 200.01 30.48 200.595 30.44L202.818 30.48L203.832 30.44C205.665 30.2 206.601 29.08 206.601 27.04C206.679 25.56 206.094 24.08 205.08 23.04C203.988 22 202.506 21.44 201.024 21.52C200.322 21.44 199.62 21.6 199.074 22C198.645 22.56 198.45 23.24 198.528 23.92ZM198.528 34.96V37.72L198.567 38.36L198.684 39.76C198.801 41.36 200.049 42.16 202.389 42.16C204.69 42.16 206.25 41.6 207.108 40.44C207.81 39.44 208.161 38.24 208.161 37.04C208.161 34.44 207.03 32.84 204.768 32.24C203.325 31.88 201.804 31.72 200.322 31.72C199.542 31.72 199.035 31.92 198.84 32.28C198.567 33.16 198.489 34.08 198.528 34.96ZM225.594 22.44L232.965 39.8C233.238 40.56 233.706 41.2 234.252 41.76C234.798 42.2 235.461 42.52 236.163 42.64C236.358 42.68 236.436 42.84 236.436 43.12C236.436 43.44 236.319 43.56 236.046 43.56C235.851 43.56 235.617 43.52 235.422 43.48C234.096 43.24 232.731 43.16 231.405 43.2C230.118 43.16 228.87 43.24 227.622 43.48C227.505 43.52 227.349 43.56 227.193 43.56C226.959 43.6 226.764 43.44 226.725 43.2C226.725 43.16 226.725 43.12 226.725 43.08C226.725 42.92 226.842 42.8 227.076 42.72C227.583 42.56 228.012 42.28 228.363 41.88C228.675 41.52 228.87 41.08 228.87 40.6C228.597 39.16 228.129 37.8 227.466 36.52C227.154 35.88 226.842 35.52 226.491 35.4C225.243 35.24 223.995 35.2 222.786 35.24H220.68L219.237 35.52C218.847 35.72 218.379 36.44 217.872 37.72L217.365 39C217.209 39.36 217.131 39.72 217.131 40.12C217.131 41.52 218.067 42.32 219.978 42.56C220.368 42.6 220.602 42.76 220.563 43.04C220.524 43.32 220.329 43.48 219.978 43.48C219.705 43.48 219.432 43.44 219.159 43.4C218.535 43.28 217.872 43.2 217.248 43.16C216.741 43.16 215.922 43.2 214.791 43.32C213.933 43.4 213.426 43.44 213.231 43.44C212.919 43.44 212.763 43.32 212.763 43.04C212.763 42.8 212.919 42.64 213.231 42.52C213.777 42.36 214.284 41.96 214.635 41.48C215.259 40.48 215.766 39.4 216.195 38.32L220.602 27.88C220.953 27.04 221.187 26.48 221.343 26.16L222.864 23L223.644 21.44V21.48C223.995 20.64 224.229 20.2 224.346 20.2C224.502 20.2 224.814 20.68 225.243 21.6L225.594 22.44ZM226.218 32.8L224.112 27.72C223.605 26.52 223.254 25.92 223.02 25.92C222.903 25.92 222.669 26.32 222.318 27.08L222.006 27.76L220.134 32.2L219.939 32.6C219.861 32.72 219.822 32.88 219.822 33.04C219.822 33.4 220.212 33.6 220.992 33.6H225.75C226.14 33.6 226.374 33.48 226.374 33.24C226.374 33.16 226.335 33.04 226.296 32.96L226.218 32.8ZM243.729 38.08C243.729 40.16 243.963 41.32 244.47 41.56C244.977 41.76 245.523 41.8 246.03 41.76C249.696 41.76 252.27 40.64 253.791 38.44C254.259 37.76 254.571 37.44 254.688 37.44C254.883 37.44 255 37.68 255 38.12C255 39.52 254.532 40.84 253.674 41.88C252.894 42.84 251.685 43.4 250.437 43.36C250.164 43.36 249.657 43.32 248.877 43.28L246.927 43.16L245.172 43.08C244.587 43.04 243.885 43.04 243.144 43.04C241.779 43.04 240.453 43.12 239.088 43.28C238.659 43.32 238.347 43.36 238.191 43.36C237.879 43.36 237.723 43.2 237.723 42.92C237.723 42.72 237.879 42.56 238.152 42.48C238.776 42.32 239.283 41.92 239.595 41.32C239.907 40.44 240.024 39.48 239.985 38.52V24.68C239.985 22.92 239.283 21.92 237.84 21.68L236.865 21.52C236.436 21.44 236.241 21.28 236.241 21C236.202 20.76 236.358 20.52 236.592 20.48C236.631 20.48 236.67 20.48 236.709 20.48C236.865 20.48 237.021 20.52 237.177 20.52C237.333 20.52 237.528 20.56 237.801 20.6L238.503 20.64C239.166 20.72 239.673 20.76 239.985 20.76C240.492 20.76 241.35 20.68 242.481 20.56C243.339 20.48 244.197 20.44 245.055 20.44C245.718 20.44 246.03 20.6 246.03 20.92C246.03 21.2 245.796 21.36 245.328 21.36C244.236 21.44 243.69 22.2 243.69 23.68L243.729 38.08Z" fill="#56565C"/>
<path d="M33.6361 24.56V37.08C33.5191 38.44 33.7921 39.84 34.4161 41.08C35.1181 41.92 36.1321 42.44 37.2241 42.4C37.6141 42.44 37.8091 42.64 37.8091 43C37.8091 43.24 37.6531 43.4 37.3021 43.4C37.2241 43.4 37.1071 43.4 36.9121 43.4L35.7031 43.36L33.6751 43.24C33.5191 43.24 33.2851 43.24 33.0121 43.24C32.3881 43.24 31.8031 43.24 31.3351 43.28L27.7471 43.48C27.3571 43.52 27.1231 43.56 26.9671 43.56C26.6161 43.56 26.4601 43.4 26.4601 43.12C26.4601 42.96 26.4991 42.76 26.6161 42.64C26.8111 42.56 27.0451 42.48 27.2401 42.48C27.9811 42.48 28.6831 42.12 29.1901 41.56C29.6971 40.88 29.9311 40.08 29.8921 39.24V38.44V23.6C29.8921 22.72 29.4241 22.28 28.5271 22.28C27.0451 22.2 25.5241 22.36 24.1201 22.76C23.6521 22.92 23.2621 23.2 22.9891 23.6C22.6381 24.32 22.4041 25.08 22.2091 25.88L22.0921 26.36C21.9751 26.8 21.7801 27.04 21.5461 27.04C21.1951 27.04 21.0391 26.88 21.0391 26.52C21.0781 26.08 21.1171 25.64 21.1951 25.24L21.3511 23.8L21.5461 22.32L21.6631 21.32C21.6631 20.96 21.9361 20.68 22.2481 20.68C22.2871 20.68 22.2871 20.68 22.3261 20.68C22.4431 20.68 22.6381 20.68 22.8721 20.72C23.3011 20.76 23.8861 20.76 24.6661 20.76L27.9811 20.8L31.9201 20.84C34.4551 20.84 37.1461 20.76 39.9931 20.64C40.5391 20.6 40.9291 20.6 41.0851 20.6C41.6701 20.6 41.9821 20.84 42.0211 21.36L42.0991 22.56C42.0991 22.76 42.1771 23.2 42.2551 23.92C42.3331 24.4 42.3721 24.88 42.3721 25.32C42.3721 25.68 42.2161 25.88 41.9431 25.88C41.7091 25.88 41.5141 25.68 41.4361 25.24C41.2801 24.36 40.8511 23.56 40.1491 23C39.2911 22.48 38.3161 22.24 37.3411 22.32C36.2881 22.24 35.2741 22.36 34.2601 22.72C33.8311 22.88 33.6361 23.52 33.6361 24.56ZM50.0161 38.12L50.1331 39.8C50.2111 40.56 50.5621 41.24 51.0691 41.76C51.6151 42.24 52.3171 42.48 53.0191 42.44C53.5651 42.44 53.7991 42.6 53.7991 42.96C53.7991 43.28 53.4481 43.44 52.7461 43.44C52.4341 43.44 52.0051 43.4 51.4591 43.36C50.3281 43.2 49.1971 43.12 48.0271 43.12C47.1691 43.12 46.3111 43.16 45.4531 43.28C45.0631 43.36 44.6731 43.4 44.2831 43.44C44.0491 43.44 43.8541 43.32 43.8151 43.08L43.7761 42.96L44.2441 42.56C44.8681 42.4 45.4141 42.04 45.8041 41.52C46.1161 40.88 46.2331 40.16 46.1941 39.44V37.96V24.76C46.2721 24 46.0771 23.24 45.6871 22.6C45.1801 22.08 44.5171 21.76 43.7761 21.72C43.4251 21.68 43.0741 21.6 42.7231 21.48C42.5671 21.4 42.4891 21.24 42.4891 21.04C42.4891 20.72 42.6061 20.56 42.8791 20.6C43.1911 20.64 43.4641 20.68 43.7371 20.72C44.4001 20.84 45.0241 20.88 45.6871 20.84C46.2721 20.84 47.0521 20.8 47.9491 20.72L49.1191 20.64C50.2111 20.56 51.0691 20.52 51.6931 20.52C52.0441 20.52 52.2391 20.64 52.2391 20.92C52.2391 21.08 52.2391 21.2 52.1611 21.32C52.0441 21.4 51.8881 21.48 51.7711 21.48C51.2251 21.52 50.6791 21.76 50.2891 22.16C50.0161 22.76 49.8991 23.4 49.9771 24.04L50.0161 38.12ZM66.3181 20.16C68.5021 20.24 70.6471 20.8 72.6361 21.76C73.0261 21.96 73.4161 22.08 73.8061 22.16C73.9621 22.16 74.1181 22.12 74.1961 22L74.3911 21.84C74.5081 21.72 74.6251 21.68 74.7811 21.68C75.0931 21.68 75.2491 21.88 75.2491 22.28V23.44L75.1711 25.72L75.2101 26.92C75.2491 27.2 75.2491 27.52 75.3271 27.88C75.3271 28 75.3271 28.12 75.3271 28.16C75.3271 28.52 75.1711 28.68 74.8201 28.68C74.5861 28.68 74.4301 28.44 74.3521 28C74.0401 26.52 73.3381 25.16 72.2851 24.12C70.8031 22.4 68.6191 21.4 66.3961 21.44C64.3291 21.36 62.3401 22.36 61.1311 24.12C59.7271 26.2 59.0251 28.68 59.1421 31.2C59.0641 34 59.7661 36.8 61.1701 39.2C62.5351 41.36 64.2121 42.44 66.2011 42.44C66.9811 42.4 67.7221 42.28 68.4631 42.04C69.2041 41.84 69.9061 41.56 70.5301 41.16C70.9591 40.88 71.2711 40.4 71.4271 39.92C71.6221 39.08 71.7001 38.2 71.6611 37.36C71.7781 36.4 71.5051 35.4 70.9591 34.6C70.2181 34 69.2821 33.68 68.3461 33.72C67.9951 33.68 67.8391 33.52 67.8391 33.24C67.8391 32.92 68.0341 32.76 68.4241 32.76C68.5411 32.76 68.7361 32.76 69.0091 32.8C70.0621 32.88 71.2711 32.96 72.5971 32.96C73.6111 32.96 74.6251 32.92 75.6391 32.84C76.0291 32.76 76.4581 32.76 76.8481 32.72C77.2381 32.72 77.4331 32.88 77.4331 33.16C77.4331 33.44 77.2381 33.6 76.8481 33.68C76.2631 33.76 75.7951 34.16 75.5611 34.72C75.2881 35.64 75.1711 36.56 75.2101 37.52C75.2101 37.88 75.2101 38.24 75.2491 38.6C75.2881 39.16 75.3271 39.52 75.3271 39.76C75.3661 40.04 75.2881 40.28 75.1321 40.52C74.8981 40.76 74.6251 40.92 74.3131 41C74.0791 41.08 73.2211 41.48 71.7391 42.12C69.6331 43.16 67.3321 43.72 64.9921 43.84C62.3011 43.92 59.6881 42.84 57.8551 40.8C55.9441 38.64 54.9691 35.84 55.0861 32.96C55.0081 29.64 56.1391 26.4 58.2841 23.92C60.3511 21.44 63.2761 20.08 66.3181 20.16ZM86.0521 24.4V28C86.0131 28.68 86.0911 29.32 86.2861 29.96C86.4421 30.24 86.7931 30.36 87.3391 30.36H87.8461H88.5481H89.9131C91.0051 30.32 92.0191 29.6 92.4091 28.56L92.7991 27.76C92.8771 27.56 93.0721 27.44 93.2671 27.44C93.5011 27.44 93.6181 27.6 93.6181 27.88C93.6181 27.96 93.6181 28.2 93.5791 28.6C93.5401 28.88 93.5401 29.12 93.5401 29.32C93.5401 29.68 93.5791 30.52 93.6961 31.8C93.7741 32.64 93.7741 33.4 93.7741 34.04L93.8131 34.88C93.8131 35 93.8131 35.08 93.7741 35.2C93.6961 35.28 93.6181 35.32 93.5011 35.32C93.2281 35.36 93.0721 35.12 92.9941 34.68C92.9161 33.88 92.5651 33.12 92.0191 32.52C91.7461 32.24 91.3561 32.08 91.0051 32C90.2641 31.92 89.4841 31.88 88.7431 31.88H87.6511C87.3001 31.84 86.9101 31.92 86.5981 32.12C86.3641 32.4 86.2471 32.72 86.2081 33.08C86.1301 33.96 86.0911 34.84 86.0911 35.72V37.2C86.0521 38.32 86.1691 39.48 86.4421 40.56C86.5981 41.4 87.4171 41.96 88.2361 41.84C92.6041 41.84 95.4901 40.48 96.8161 37.72C96.8941 37.6 96.9721 37.52 97.0111 37.52C97.1281 37.48 97.2451 37.56 97.3231 37.64C97.4011 37.72 97.4791 37.88 97.4791 38C97.4791 39.12 97.1671 40.2 96.6211 41.16C96.2311 41.96 95.6071 42.6 94.8271 43C93.9301 43.4 92.9551 43.6 91.9801 43.56C91.2001 43.56 90.4591 43.52 89.6791 43.44L87.8071 43.28C87.1051 43.2 86.1691 43.16 84.9991 43.16C84.2191 43.16 83.0101 43.2 81.4111 43.32C80.9821 43.36 80.6701 43.36 80.4751 43.36C80.2801 43.4 80.0851 43.24 80.0461 43.04V43C80.0461 42.8 80.1631 42.64 80.3971 42.52C80.8651 42.36 81.2941 42.12 81.6451 41.76C81.9181 41.32 82.1131 40.84 82.1521 40.32C82.3081 39.52 82.3471 38.72 82.3471 37.92V24.8C82.4251 23.92 82.2301 23.04 81.7621 22.28C81.0601 21.72 80.2021 21.4 79.3051 21.36C79.0711 21.36 78.8761 21.16 78.8761 20.88C78.8761 20.64 79.0711 20.48 79.4221 20.48C79.5001 20.48 79.6561 20.48 79.9291 20.52C80.1241 20.52 80.3971 20.52 80.7091 20.52L82.3471 20.6L88.4701 20.68C92.0191 20.68 94.1641 20.64 94.9831 20.52C95.0611 20.52 95.1391 20.52 95.2171 20.52C95.5291 20.52 95.6851 20.72 95.6851 21.08C95.6851 21.32 95.7241 21.8 95.8021 22.44C95.8801 23.4 95.9191 24.12 95.9191 24.52C95.9191 25.36 95.7241 25.8 95.2951 25.8C95.1001 25.8 94.9831 25.56 94.9831 25.08C95.0611 24.12 94.5931 23.2 93.8131 22.68C92.6431 22.12 91.3171 21.84 90.0301 21.96H88.0411L86.9491 22.08C86.4031 22.24 86.1301 22.8 86.1301 23.76L86.0521 24.4ZM105.591 36.8C105.474 38.24 105.669 39.72 106.176 41.08C106.644 41.88 107.502 42.36 108.399 42.36C108.867 42.4 109.062 42.6 109.062 42.92C109.062 43.24 108.867 43.4 108.516 43.4C108.399 43.4 108.165 43.4 107.853 43.36C106.917 43.28 106.02 43.24 105.162 43.24C104.46 43.24 103.797 43.28 103.251 43.32L101.886 43.44L100.794 43.52C100.482 43.56 100.287 43.56 100.17 43.56C99.7801 43.56 99.5851 43.4 99.5851 43.12C99.5461 42.92 99.7021 42.72 99.8971 42.64C100.482 42.52 101.028 42.16 101.418 41.72C101.73 41.2 101.886 40.56 101.847 39.92V38.36L101.886 37.72V25.72C101.964 24.8 101.808 23.88 101.379 23.04C100.755 22.24 99.7801 21.76 98.8051 21.72C98.3761 21.64 98.1421 21.44 98.1421 21.16C98.1031 20.92 98.2591 20.72 98.4931 20.68C98.5321 20.68 98.5711 20.68 98.6101 20.68C98.8051 20.68 99.0001 20.68 99.1951 20.72C100.092 20.8 101.028 20.88 101.925 20.84C103.017 20.84 104.343 20.76 105.903 20.64C107.736 20.48 108.984 20.44 109.686 20.44C111.519 20.36 113.352 21 114.795 22.16C116.082 23.2 116.862 24.8 116.823 26.48C116.823 27.56 116.511 28.6 115.926 29.48C115.302 30.4 114.444 31.12 113.469 31.52C113.274 31.6 113.157 31.72 113.157 31.84C113.196 32 113.235 32.12 113.313 32.24C113.391 32.4 113.547 32.64 113.742 33L115.185 35.64L116.862 38.68C117.252 39.48 117.759 40.2 118.383 40.8C118.812 41.2 119.397 41.4 119.982 41.4C120.216 41.4 120.45 41.4 120.684 41.32C120.801 41.28 120.918 41.28 121.035 41.28C121.23 41.28 121.347 41.4 121.347 41.68C121.347 42 120.918 42.36 120.021 42.76C119.28 43.12 118.5 43.36 117.681 43.36C116.472 43.32 115.341 42.68 114.6 41.68C113.157 39.72 111.948 37.6 110.934 35.32C110.583 34.48 110.115 33.68 109.491 33C108.945 32.64 108.282 32.44 107.658 32.52H106.644L105.903 32.64C105.747 32.72 105.669 33 105.669 33.44L105.591 36.8ZM105.591 23.84V29.6C105.552 30.08 105.63 30.52 105.864 30.96C106.254 31.2 106.683 31.32 107.151 31.24C108.36 31.28 109.53 31.24 110.739 31.12C111.207 31.04 111.675 30.8 112.026 30.44C112.845 29.68 113.274 28.56 113.196 27.4C113.274 24.32 110.934 21.72 107.892 21.64C107.775 21.64 107.658 21.64 107.502 21.64C106.956 21.56 106.41 21.76 105.981 22.12C105.669 22.6 105.513 23.24 105.591 23.84Z" fill="#56565C"/>
</g>
<defs>
<clipPath id="clip0_4305_131704">
<rect width="234" height="24" fill="white" transform="translate(21 20)"/>
</clipPath>
</defs>
</svg>
