<svg xmlns="http://www.w3.org/2000/svg" width="276" height="63" fill="none"><g fill="#56565C" clip-path="url(#a)"><path d="M134.139 20.16c2.184.08 4.368.64 6.318 1.6.39.2.78.32 1.17.4.156 0 .312-.04.39-.16l.195-.16a.494.494 0 0 1 .39-.16c.312 0 .468.2.468.6v1.16l-.078 2.28.039 1.2c.039.28.039.6.078.96v.28c0 .36-.156.52-.507.52-.234 0-.39-.24-.468-.68a7.364 7.364 0 0 0-2.067-3.88c-1.482-1.72-3.666-2.72-5.889-2.68-2.067-.04-4.056.92-5.265 2.68a11.683 11.683 0 0 0-1.989 7.08c-.078 2.8.624 5.6 2.028 8 1.365 2.16 3.042 3.24 5.031 3.24.78-.04 1.521-.16 2.262-.4.741-.2 1.443-.48 2.106-.88.429-.28.741-.76.897-1.24.195-.84.273-1.72.234-2.56.117-.96-.156-1.96-.702-2.76a3.914 3.914 0 0 0-2.613-.88c-.351-.04-.507-.2-.507-.48 0-.32.195-.48.585-.48.117 0 .312 0 .585.04 1.053.08 2.262.16 3.588.16 1.014 0 2.028-.04 3.042-.12.39-.08.819-.08 1.209-.12.39 0 .585.16.585.44s-.195.44-.585.52c-.585.08-1.053.48-1.287 1.04-.273.92-.429 1.84-.351 2.8 0 .36 0 .72.039 1.08.039.56.078.92.078 1.16.039.28-.039.52-.195.76-.234.24-.507.4-.819.48-.234.08-1.092.48-2.574 1.12-2.106 1.04-4.407 1.6-6.747 1.72-2.691.08-5.304-1-7.137-3.04a11.112 11.112 0 0 1-2.769-7.84c-.078-3.32 1.053-6.56 3.198-9.04 2.028-2.48 4.953-3.84 8.034-3.76Zm19.734 17.92c0 2.08.234 3.24.741 3.48.507.2 1.053.24 1.599.2 3.666 0 6.24-1.12 7.761-3.32.468-.68.78-1 .897-1 .195 0 .312.24.312.68 0 1.4-.468 2.72-1.326 3.76a4.032 4.032 0 0 1-3.237 1.48c-.273 0-.78-.04-1.521-.08l-1.95-.12-1.755-.08c-.585-.04-1.287-.04-2.028-.04-1.365 0-2.691.08-4.056.24-.429.04-.741.08-.897.08-.312 0-.468-.16-.468-.44 0-.2.156-.36.429-.44a2.223 2.223 0 0 0 1.443-1.16 6.78 6.78 0 0 0 .39-2.8V24.68c0-1.76-.702-2.76-2.145-3l-.975-.16c-.39-.08-.624-.24-.624-.52-.039-.24.117-.48.351-.52h.117c.156 0 .312.04.468.04.156 0 .351.04.624.08l.702.04c.663.08 1.17.12 1.482.12.819-.04 1.638-.08 2.496-.2.858-.08 1.716-.12 2.574-.12.663 0 .975.16.975.48 0 .28-.234.44-.702.44-1.092.08-1.638.84-1.638 2.32l-.039 14.4Zm24.531-17.96a11.38 11.38 0 0 1 8.151 3 10.55 10.55 0 0 1 3.12 7.92c.078 3.32-1.053 6.56-3.198 9.04-2.067 2.4-4.953 3.64-8.619 3.64-3.081.16-6.123-1-8.385-3.16-2.145-2.24-3.276-5.28-3.159-8.4 0-1.52.273-3.04.78-4.48 1.014-3 3.237-5.4 6.162-6.52 1.638-.72 3.393-1.04 5.148-1.04Zm-1.17 1.24c-1.989-.08-3.9.84-5.07 2.48-1.209 1.64-1.833 3.96-1.833 6.88-.117 3 .663 5.96 2.301 8.48 1.326 2.04 3.588 3.28 5.967 3.28a6.33 6.33 0 0 0 5.304-2.68 12.044 12.044 0 0 0 1.989-7.2c0-1.76-.312-3.48-.936-5.08a10.668 10.668 0 0 0-2.457-3.96c-1.404-1.44-3.315-2.24-5.265-2.2Zm17.589 4c0-2.24-.897-3.44-2.652-3.68l-.741-.08c-.234-.04-.351-.2-.351-.48 0-.32.156-.48.468-.48h.39l1.209.08c1.014.04 1.638.08 1.911.08.78 0 2.184-.08 4.251-.28 1.287-.12 2.34-.2 3.237-.2 1.95-.08 3.9.44 5.538 1.52 1.326.88 2.106 2.44 2.067 4.04a4.082 4.082 0 0 1-2.574 4.08c-.39.16-.585.32-.624.44 0 .2.195.32.624.4 1.248.2 2.379.84 3.198 1.8.78 1 1.209 2.28 1.17 3.6.078 1.96-.702 3.88-2.145 5.2a8.335 8.335 0 0 1-5.811 1.92l-3.276-.08-2.535-.04c-1.404 0-2.808.04-4.212.2-.351.04-.702.08-1.014.08-.312 0-.507-.16-.507-.44 0-.24.156-.4.429-.48 1.287-.24 1.95-1.36 1.95-3.44V25.36Zm3.705-1.44v4.76c-.039.52.117 1 .468 1.36.468.32 1.014.44 1.599.4l2.223.04 1.014-.04c1.833-.24 2.769-1.36 2.769-3.4.078-1.48-.507-2.96-1.521-4-1.092-1.04-2.574-1.6-4.056-1.52-.702-.08-1.404.08-1.95.48a2.65 2.65 0 0 0-.546 1.92Zm0 11.04v2.76l.039.64.117 1.4c.117 1.6 1.365 2.4 3.705 2.4 2.301 0 3.861-.56 4.719-1.72.702-1 1.053-2.2 1.053-3.4 0-2.6-1.131-4.2-3.393-4.8-1.443-.36-2.964-.52-4.446-.52-.78 0-1.287.2-1.482.56-.273.88-.351 1.8-.312 2.68Zm27.066-12.52 7.371 17.36c.273.76.741 1.4 1.287 1.96.546.44 1.209.76 1.911.88.195.04.273.2.273.48 0 .32-.117.44-.39.44-.195 0-.429-.04-.624-.08a19.402 19.402 0 0 0-4.017-.28c-1.287-.04-2.535.04-3.783.28a1.37 1.37 0 0 1-.429.08c-.234.04-.429-.12-.468-.36v-.12c0-.16.117-.28.351-.36.507-.16.936-.44 1.287-.84.312-.36.507-.8.507-1.28-.273-1.44-.741-2.8-1.404-4.08-.312-.64-.624-1-.975-1.12-1.248-.16-2.496-.2-3.705-.16h-2.106l-1.443.28c-.39.2-.858.92-1.365 2.2l-.507 1.28c-.156.36-.234.72-.234 1.12 0 1.4.936 2.2 2.847 2.44.39.04.624.2.585.48-.039.28-.234.44-.585.44-.273 0-.546-.04-.819-.08-.624-.12-1.287-.2-1.911-.24-.507 0-1.326.04-2.457.16-.858.08-1.365.12-1.56.12-.312 0-.468-.12-.468-.4 0-.24.156-.4.468-.52.546-.16 1.053-.56 1.404-1.04.624-1 1.131-2.08 1.56-3.16l4.407-10.44c.351-.84.585-1.4.741-1.72l1.521-3.16.78-1.56v.04c.351-.84.585-1.28.702-1.28.156 0 .468.48.897 1.4l.351.84Zm.624 10.36-2.106-5.08c-.507-1.2-.858-1.8-1.092-1.8-.117 0-.351.4-.702 1.16l-.312.68-1.872 4.44-.195.4a.822.822 0 0 0-.117.44c0 .36.39.56 1.17.56h4.758c.39 0 .624-.12.624-.36 0-.08-.039-.2-.078-.28l-.078-.16Zm17.511 5.28c0 2.08.234 3.24.741 3.48.507.2 1.053.24 1.56.2 3.666 0 6.24-1.12 7.761-3.32.468-.68.78-1 .897-1 .195 0 .312.24.312.68 0 1.4-.468 2.72-1.326 3.76a4.032 4.032 0 0 1-3.237 1.48c-.273 0-.78-.04-1.56-.08l-1.95-.12-1.755-.08c-.585-.04-1.287-.04-2.028-.04-1.365 0-2.691.08-4.056.24-.429.04-.741.08-.897.08-.312 0-.468-.16-.468-.44 0-.2.156-.36.429-.44a2.223 2.223 0 0 0 1.443-1.16c.312-.88.429-1.84.39-2.8V24.68c0-1.76-.702-2.76-2.145-3l-.975-.16c-.429-.08-.624-.24-.624-.52-.039-.24.117-.48.351-.52h.117c.156 0 .312.04.468.04.156 0 .351.04.624.08l.702.04c.663.08 1.17.12 1.482.12.507 0 1.365-.08 2.496-.2.858-.08 1.716-.12 2.574-.12.663 0 .975.16.975.48 0 .28-.234.44-.702.44-1.092.08-1.638.84-1.638 2.32l.039 14.4ZM33.636 24.56v12.52a7.52 7.52 0 0 0 .78 4c.702.84 1.716 1.36 2.808 1.32.39.04.585.24.585.6 0 .24-.156.4-.507.4h-.39l-1.209-.04-2.028-.12h-.663c-.624 0-1.209 0-1.677.04l-3.588.2c-.39.04-.624.08-.78.08-.35 0-.507-.16-.507-.44 0-.16.04-.36.156-.48.195-.08.43-.16.624-.16.741 0 1.443-.36 1.95-.92.507-.68.741-1.48.702-2.32V23.6c0-.88-.468-1.32-1.365-1.32a13.58 13.58 0 0 0-4.407.48 2.2 2.2 0 0 0-1.13.84c-.352.72-.586 1.48-.78 2.28l-.118.48c-.117.44-.312.68-.546.68-.35 0-.507-.16-.507-.52.04-.44.078-.88.156-1.28l.156-1.44.195-1.48.117-1c0-.36.273-.64.585-.64h.078c.117 0 .312 0 .546.04.43.04 1.014.04 1.794.04l3.315.04 3.94.04c2.534 0 5.225-.08 8.072-.2.546-.04.936-.04 1.092-.04.585 0 .897.24.936.76l.078 1.2c0 .2.078.64.156 1.36.078.48.117.96.117 1.4 0 .36-.156.56-.429.56-.234 0-.429-.2-.507-.64-.156-.88-.585-1.68-1.287-2.24a4.67 4.67 0 0 0-2.808-.68 7.373 7.373 0 0 0-3.08.4c-.43.16-.625.8-.625 1.84Zm16.38 13.56.117 1.68c.078.76.43 1.44.936 1.96.546.48 1.248.72 1.95.68.546 0 .78.16.78.52 0 .32-.35.48-1.053.48-.312 0-.74-.04-1.287-.08a24.334 24.334 0 0 0-3.432-.24c-.858 0-1.716.04-2.574.16-.39.08-.78.12-1.17.16-.234 0-.429-.12-.468-.36l-.039-.12.468-.4a2.81 2.81 0 0 0 1.56-1.04c.312-.64.43-1.36.39-2.08V24.76a3.488 3.488 0 0 0-.507-2.16 2.864 2.864 0 0 0-1.91-.88 4.999 4.999 0 0 1-1.054-.24c-.156-.08-.234-.24-.234-.44 0-.32.117-.48.39-.44.312.04.585.08.858.12.663.12 1.287.16 1.95.12.585 0 1.365-.04 2.262-.12l1.17-.08c1.092-.08 1.95-.12 2.574-.12.351 0 .546.12.546.4 0 .16 0 .28-.078.4-.117.08-.273.16-.39.16-.546.04-1.092.28-1.482.68-.273.6-.39 1.24-.312 1.88l.04 14.08Zm16.302-17.96c2.184.08 4.33.64 6.318 1.6.39.2.78.32 1.17.4.156 0 .312-.04.39-.16l.195-.16a.494.494 0 0 1 .39-.16c.312 0 .468.2.468.6v1.16l-.078 2.28.04 1.2c.038.28.038.6.116.96v.28c0 .36-.156.52-.507.52-.234 0-.39-.24-.468-.68-.312-1.48-1.014-2.84-2.067-3.88-1.482-1.72-3.666-2.72-5.889-2.68-2.067-.08-4.056.92-5.265 2.68a11.683 11.683 0 0 0-1.989 7.08c-.078 2.8.624 5.6 2.028 8 1.365 2.16 3.042 3.24 5.031 3.24.78-.04 1.521-.16 2.262-.4.741-.2 1.443-.48 2.067-.88.43-.28.741-.76.897-1.24.195-.84.273-1.72.234-2.56.117-.96-.156-1.96-.702-2.76a3.914 3.914 0 0 0-2.613-.88c-.35-.04-.507-.2-.507-.48 0-.32.195-.48.585-.48.117 0 .312 0 .585.04 1.053.08 2.262.16 3.588.16 1.014 0 2.028-.04 3.042-.12.39-.08.82-.08 1.21-.12.39 0 .584.16.584.44s-.195.44-.585.52c-.585.08-1.053.48-1.287 1.04-.273.92-.39 1.84-.35 2.8 0 .36 0 .72.038 1.08.04.56.078.92.078 1.16.04.28-.039.52-.195.76-.234.24-.507.4-.819.48-.234.08-1.092.48-2.574 1.12-2.106 1.04-4.407 1.6-6.747 1.72-2.69.08-5.304-1-7.137-3.04a11.112 11.112 0 0 1-2.769-7.84c-.078-3.32 1.053-6.56 3.198-9.04 2.067-2.48 4.992-3.84 8.034-3.76Zm19.734 4.24V28c-.039.68.04 1.32.234 1.96.156.28.507.4 1.053.4h2.574a2.813 2.813 0 0 0 2.496-1.8l.39-.8c.078-.2.273-.32.468-.32.234 0 .351.16.351.44 0 .08 0 .32-.039.72-.039.28-.039.52-.039.72 0 .36.04 1.2.156 2.48.078.84.078 1.6.078 2.24l.04.84c0 .12 0 .2-.04.32a.35.35 0 0 1-.273.12c-.273.04-.429-.2-.507-.64a3.774 3.774 0 0 0-.975-2.16c-.273-.28-.663-.44-1.014-.52-.74-.08-1.52-.12-2.262-.12h-1.092c-.35-.04-.74.04-1.053.24-.234.28-.35.6-.39.96-.078.88-.117 1.76-.117 2.64v1.48c-.039 1.12.078 2.28.351 3.36.156.84.975 1.4 1.794 1.28 4.368 0 7.254-1.36 8.58-4.12.078-.12.156-.2.195-.2.117-.04.234.04.312.12.078.08.156.24.156.36 0 1.12-.312 2.2-.858 3.16-.39.8-1.014 1.44-1.794 1.84-.897.4-1.872.6-2.847.56-.78 0-1.52-.04-2.3-.12l-1.873-.16c-.702-.08-1.638-.12-2.808-.12-.78 0-1.989.04-3.588.16-.429.04-.74.04-.936.04-.195.04-.39-.12-.429-.32V43c0-.2.117-.36.351-.48.468-.16.897-.4 1.248-.76.273-.44.468-.92.507-1.44.156-.8.195-1.6.195-2.4V24.8a4.096 4.096 0 0 0-.585-2.52 4.236 4.236 0 0 0-2.457-.92c-.234 0-.429-.2-.429-.48 0-.24.195-.4.546-.4.078 0 .234 0 .507.04h.78l1.638.08 6.123.08c3.55 0 5.694-.04 6.513-.16h.234c.312 0 .468.2.468.56 0 .24.04.72.117 1.36.078.96.117 1.68.117 2.08 0 .84-.195 1.28-.624 1.28-.195 0-.312-.24-.312-.72.078-.96-.39-1.88-1.17-2.4-1.17-.56-2.496-.84-3.783-.72h-1.989l-1.092.12c-.546.16-.819.72-.819 1.68l-.078.64Zm19.539 12.4c-.117 1.44.078 2.92.585 4.28.468.8 1.326 1.28 2.223 1.28.468.04.663.24.663.56 0 .32-.195.48-.546.48-.117 0-.351 0-.663-.04-.936-.08-1.833-.12-2.691-.12-.702 0-1.365.04-1.911.08l-1.365.12-1.092.08c-.312.04-.507.04-.624.04-.39 0-.585-.16-.585-.44-.039-.2.117-.4.312-.48.585-.12 1.131-.48 1.521-.92a3.16 3.16 0 0 0 .429-1.8v-1.56l.039-.64v-12a4.93 4.93 0 0 0-.507-2.68 3.491 3.491 0 0 0-2.574-1.32c-.429-.08-.663-.28-.663-.56a.412.412 0 0 1 .351-.48h.117c.195 0 .39 0 .585.04.897.08 1.833.16 2.73.12 1.092 0 2.418-.08 3.978-.2 1.833-.16 3.081-.2 3.783-.2 1.833-.08 3.666.56 5.109 1.72 1.287 1.04 2.067 2.64 2.028 4.32 0 1.08-.312 2.12-.897 3-.624.92-1.482 1.64-2.457 2.04-.195.08-.312.2-.312.32.039.16.078.28.156.4.078.16.234.4.429.76l1.443 2.64 1.677 3.04c.39.8.897 1.52 1.521 2.12.429.4 1.014.6 1.599.6.234 0 .468 0 .702-.08.117-.04.234-.04.351-.04.195 0 .312.12.312.4 0 .32-.429.68-1.326 1.08-.741.36-1.521.6-2.34.6-1.209-.04-2.34-.68-3.081-1.68-1.443-1.96-2.652-4.08-3.666-6.36-.351-.84-.819-1.64-1.443-2.32-.546-.36-1.209-.56-1.833-.48h-1.014l-.741.12c-.156.08-.234.36-.234.8l-.078 3.36Zm0-12.96v5.76c-.039.48.039.92.273 1.36.39.24.819.36 1.287.28 1.209.04 2.379 0 3.588-.12.468-.08.936-.32 1.287-.68.819-.76 1.248-1.88 1.17-3.04.078-3.08-2.262-5.68-5.304-5.76h-.39c-.546-.08-1.092.12-1.521.48a2.624 2.624 0 0 0-.39 1.72Z"/></g><defs><clipPath id="a"><path fill="#fff" d="M21 20h234v24H21z"/></clipPath></defs></svg>