<svg xmlns="http://www.w3.org/2000/svg" width="602" height="320" fill="none" viewBox="0 0 602 320"><g clip-path="url(#clip0_354_6049)"><g filter="url(#filter0_f_354_6049)"><path fill="url(#paint0_linear_354_6049)" d="M663.156 13.0741L241.371 474.815C229.022 488.334 229.236 509.102 241.861 522.363C255.825 537.031 279.308 536.753 292.92 521.757L713.266 58.7048C726.942 43.6387 724.351 20.0014 707.734 8.25669C693.785 -1.60326 674.677 0.461609 663.156 13.0741Z"/></g><g filter="url(#filter1_f_354_6049)"><path fill="url(#paint1_linear_354_6049)" d="M634.156 -165.926L212.37 295.815C200.022 309.334 200.236 330.102 212.86 343.363C226.825 358.031 250.307 357.752 263.92 342.757L684.265 -120.295C697.942 -135.362 695.35 -158.999 678.734 -170.743C664.784 -180.603 645.677 -178.539 634.156 -165.926Z"/></g><g filter="url(#filter2_f_354_6049)" opacity=".88"><path fill="url(#paint2_linear_354_6049)" d="M331.156 -37.926L-90.6296 423.815C-102.978 437.334 -102.764 458.102 -90.1394 471.363C-76.1749 486.031 -52.6926 485.752 -39.0801 470.757L381.265 7.70469C394.942 -7.36139 392.35 -30.9987 375.734 -42.7434C361.785 -52.6033 342.677 -50.5385 331.156 -37.926Z"/></g><g filter="url(#filter3_f_354_6049)"><path fill="url(#paint3_linear_354_6049)" d="M343.156 -240.926L-78.6295 220.815C-90.9782 234.334 -90.7641 255.102 -78.1393 268.363C-64.1748 283.031 -40.6925 282.753 -27.08 267.757L393.266 -195.295C406.942 -210.361 404.35 -233.999 387.734 -245.743C373.785 -255.603 354.677 -253.538 343.156 -240.926Z"/></g></g><defs><filter id="filter0_f_354_6049" width="531.379" height="572.71" x="211.467" y="-18.741" color-interpolation-filters="sRGB" filterUnits="userSpaceOnUse"><feFlood flood-opacity="0" result="BackgroundImageFix"/><feBlend in="SourceGraphic" in2="BackgroundImageFix" mode="normal" result="shape"/><feGaussianBlur result="effect1_foregroundBlur_354_6049" stdDeviation="10.391"/></filter><filter id="filter1_f_354_6049" width="531.379" height="572.71" x="182.466" y="-197.741" color-interpolation-filters="sRGB" filterUnits="userSpaceOnUse"><feFlood flood-opacity="0" result="BackgroundImageFix"/><feBlend in="SourceGraphic" in2="BackgroundImageFix" mode="normal" result="shape"/><feGaussianBlur result="effect1_foregroundBlur_354_6049" stdDeviation="10.391"/></filter><filter id="filter2_f_354_6049" width="531.379" height="572.71" x="-120.534" y="-69.741" color-interpolation-filters="sRGB" filterUnits="userSpaceOnUse"><feFlood flood-opacity="0" result="BackgroundImageFix"/><feBlend in="SourceGraphic" in2="BackgroundImageFix" mode="normal" result="shape"/><feGaussianBlur result="effect1_foregroundBlur_354_6049" stdDeviation="10.391"/></filter><filter id="filter3_f_354_6049" width="531.379" height="572.71" x="-108.534" y="-272.741" color-interpolation-filters="sRGB" filterUnits="userSpaceOnUse"><feFlood flood-opacity="0" result="BackgroundImageFix"/><feBlend in="SourceGraphic" in2="BackgroundImageFix" mode="normal" result="shape"/><feGaussianBlur result="effect1_foregroundBlur_354_6049" stdDeviation="10.391"/></filter><linearGradient id="paint0_linear_354_6049" x1="555.237" x2="251.269" y1="82.889" y2="499.274" gradientUnits="userSpaceOnUse"><stop stop-color="#fff" stop-opacity=".16"/><stop offset="1" stop-color="#fff" stop-opacity="0"/></linearGradient><linearGradient id="paint1_linear_354_6049" x1="526.237" x2="222.268" y1="-96.111" y2="320.274" gradientUnits="userSpaceOnUse"><stop stop-color="#fff" stop-opacity=".16"/><stop offset="1" stop-color="#fff" stop-opacity="0"/></linearGradient><linearGradient id="paint2_linear_354_6049" x1="223.237" x2="-80.732" y1="31.889" y2="448.274" gradientUnits="userSpaceOnUse"><stop stop-color="#fff" stop-opacity=".16"/><stop offset="1" stop-color="#fff" stop-opacity="0"/></linearGradient><linearGradient id="paint3_linear_354_6049" x1="235.237" x2="-68.731" y1="-171.111" y2="245.274" gradientUnits="userSpaceOnUse"><stop stop-color="#fff" stop-opacity=".16"/><stop offset="1" stop-color="#fff" stop-opacity="0"/></linearGradient><clipPath id="clip0_354_6049"><rect width="320" height="602" fill="#fff" transform="translate(602 2.67029e-05) rotate(90)"/></clipPath></defs></svg>