<svg width="107" height="107" viewBox="0 0 107 107" fill="none" xmlns="http://www.w3.org/2000/svg">
    <g filter="url(#filter0_d_615_86311)">
        <rect x="46.666" width="6.66667" height="6.66667" fill="#FD366E" />
        <rect x="46.666" y="93.3333" width="6.66667" height="6.66667" fill="#CA2B58" />
        <rect x="46.666" y="33.3333" width="6.66667" height="6.66667" fill="#FD366E" />
        <rect x="46.666" y="60" width="6.66667" height="6.66667" fill="#FD366E" />
        <rect x="53.334" width="6.66667" height="6.66667" fill="#FD366E" />
        <rect x="53.334" y="93.3333" width="6.66667" height="6.66667" fill="#CA2B58" />
        <rect x="53.334" y="6.66675" width="6.66667" height="6.66667" fill="#FD366E" />
        <rect x="60" y="6.66675" width="6.66667" height="6.66667" fill="#FD366E" />
        <rect x="53.334" y="33.3333" width="6.66667" height="6.66667" fill="#FD366E" />
        <rect x="53.334" y="60" width="6.66667" height="6.66667" fill="#FD366E" />
        <rect x="33.334" width="6.66667" height="6.66667" fill="#FD366E" />
        <rect x="33.334" y="93.3333" width="6.66667" height="6.66667" fill="#CA2B58" />
        <rect x="33.334" y="13.3333" width="6.66667" height="6.66667" fill="#FD366E" />
        <rect x="26.666" y="13.3333" width="6.66667" height="6.66667" fill="#EDEDF0" />
        <rect x="20" y="13.3333" width="6.66667" height="6.66667" fill="#EDEDF0" />
        <rect x="20" y="20" width="6.66667" height="6.66667" fill="#EDEDF0" />
        <rect x="13.334" y="20" width="6.66667" height="6.66667" fill="#EDEDF0" />
        <rect x="13.334" y="26.6667" width="6.66667" height="6.66667" fill="#EDEDF0" />
        <rect x="13.334" y="40" width="6.66667" height="6.66667" fill="#EDEDF0" />
        <rect x="6.66602" y="40" width="6.66667" height="6.66667" fill="#EDEDF0" />
        <rect x="33.334" y="40" width="6.66667" height="6.66667" fill="#EDEDF0" />
        <rect x="33.334" y="26.6667" width="6.66667" height="6.66667" fill="#EDEDF0" />
        <rect x="33.334" y="66.6667" width="6.66667" height="6.66667" fill="#EDEDF0" />
        <rect x="73.334" y="40" width="6.66667" height="6.66667" fill="#EDEDF0" />
        <rect x="6.66602" y="46.6667" width="6.66667" height="6.66667" fill="#EDEDF0" />
        <rect x="33.334" y="46.6667" width="6.66667" height="6.66667" fill="#EDEDF0" />
        <rect x="73.334" y="46.6667" width="6.66667" height="6.66667" fill="#EDEDF0" />
        <rect x="6.66602" y="53.3333" width="6.66667" height="6.66667" fill="#EDEDF0" />
        <rect x="33.334" y="53.3333" width="6.66667" height="6.66667" fill="#EDEDF0" />
        <rect x="73.334" y="53.3333" width="6.66667" height="6.66667" fill="#EDEDF0" />
        <rect x="20" y="40" width="6.66667" height="6.66667" fill="#EDEDF0" />
        <rect x="40" y="40" width="6.66667" height="6.66667" fill="#EDEDF0" />
        <rect x="40" y="26.6667" width="6.66667" height="6.66667" fill="#EDEDF0" />
        <rect x="40" y="66.6667" width="6.66667" height="6.66667" fill="#EDEDF0" />
        <rect x="40" y="20" width="6.66667" height="6.66667" fill="#EDEDF0" />
        <rect x="40" y="80" width="6.66667" height="6.66667" fill="#EDEDF0" />
        <rect x="20" y="80" width="6.66667" height="6.66667" fill="#EDEDF0" />
        <rect x="13.334" y="73.3333" width="6.66667" height="6.66667" fill="#EDEDF0" />
        <rect x="73.334" y="73.3333" width="6.66667" height="6.66667" fill="#EDEDF0" />
        <rect x="73.334" y="26.6667" width="6.66667" height="6.66667" fill="#EDEDF0" />
        <rect x="13.334" y="66.6667" width="6.66667" height="6.66667" fill="#EDEDF0" />
        <rect x="73.334" y="66.6667" width="6.66667" height="6.66667" fill="#EDEDF0" />
        <rect x="73.334" y="20" width="6.66667" height="6.66667" fill="#EDEDF0" />
        <rect x="66.666" y="13.3333" width="6.66667" height="6.66667" fill="#EDEDF0" />
        <rect x="66.666" y="80" width="6.66667" height="6.66667" fill="#EDEDF0" />
        <rect x="40" y="13.3333" width="6.66667" height="6.66667" fill="#EDEDF0" />
        <rect x="40" y="73.3333" width="6.66667" height="6.66667" fill="#EDEDF0" />
        <rect x="53.334" y="40" width="6.66667" height="6.66667" fill="#EDEDF0" />
        <rect x="53.334" y="26.6667" width="6.66667" height="6.66667" fill="#EDEDF0" />
        <rect x="53.334" y="66.6667" width="6.66667" height="6.66667" fill="#EDEDF0" />
        <rect x="53.334" y="20" width="6.66667" height="6.66667" fill="#EDEDF0" />
        <rect x="53.334" y="80" width="6.66667" height="6.66667" fill="#EDEDF0" />
        <rect x="53.334" y="13.3333" width="6.66667" height="6.66667" fill="#EDEDF0" />
        <rect x="53.334" y="73.3333" width="6.66667" height="6.66667" fill="#EDEDF0" />
        <rect x="80" y="40" width="6.66667" height="6.66667" fill="#EDEDF0" />
        <rect x="20" y="46.6667" width="6.66667" height="6.66667" fill="#EDEDF0" />
        <rect x="46.666" y="46.6667" width="6.66667" height="6.66667" fill="#EDEDF0" />
        <rect x="60" y="46.6667" width="6.66667" height="6.66667" fill="#EDEDF0" />
        <rect x="86.666" y="46.6667" width="6.66667" height="6.66667" fill="#EDEDF0" />
        <rect x="20" y="53.3333" width="6.66667" height="6.66667" fill="#EDEDF0" />
        <rect x="46.666" y="53.3333" width="6.66667" height="6.66667" fill="#EDEDF0" />
        <rect x="60" y="53.3333" width="6.66667" height="6.66667" fill="#EDEDF0" />
        <rect x="86.666" y="53.3333" width="6.66667" height="6.66667" fill="#EDEDF0" />
        <rect x="13.334" y="40" width="6.66667" height="6.66667" fill="#EDEDF0" />
        <rect x="46.666" y="40" width="6.66667" height="6.66667" fill="#EDEDF0" />
        <rect x="46.666" y="26.6667" width="6.66667" height="6.66667" fill="#EDEDF0" />
        <rect x="46.666" y="66.6667" width="6.66667" height="6.66667" fill="#EDEDF0" />
        <rect x="46.666" y="20" width="6.66667" height="6.66667" fill="#EDEDF0" />
        <rect x="46.666" y="80" width="6.66667" height="6.66667" fill="#EDEDF0" />
        <rect x="26.666" y="80" width="6.66667" height="6.66667" fill="#EDEDF0" />
        <rect x="20" y="73.3333" width="6.66667" height="6.66667" fill="#EDEDF0" />
        <rect x="80" y="73.3333" width="6.66667" height="6.66667" fill="#EDEDF0" />
        <rect x="80" y="26.6667" width="6.66667" height="6.66667" fill="#EDEDF0" />
        <rect x="20" y="66.6667" width="6.66667" height="6.66667" fill="#EDEDF0" />
        <rect x="80" y="66.6667" width="6.66667" height="6.66667" fill="#EDEDF0" />
        <rect x="80" y="20" width="6.66667" height="6.66667" fill="#EDEDF0" />
        <rect x="73.334" y="13.3333" width="6.66667" height="6.66667" fill="#EDEDF0" />
        <rect x="73.334" y="80" width="6.66667" height="6.66667" fill="#EDEDF0" />
        <rect x="46.666" y="86.6667" width="6.66667" height="6.66667" fill="#EDEDF0" />
        <rect x="46.666" y="13.3333" width="6.66667" height="6.66667" fill="#EDEDF0" />
        <rect x="46.666" y="73.3333" width="6.66667" height="6.66667" fill="#EDEDF0" />
        <rect x="46.666" y="6.66675" width="6.66667" height="6.66667" fill="#EDEDF0" />
        <rect x="60" y="40" width="6.66667" height="6.66667" fill="#EDEDF0" />
        <rect x="60" y="26.6667" width="6.66667" height="6.66667" fill="#EDEDF0" />
        <rect x="60" y="66.6667" width="6.66667" height="6.66667" fill="#EDEDF0" />
        <rect x="86.666" y="40" width="6.66667" height="6.66667" fill="#EDEDF0" />
        <rect x="13.334" y="46.6667" width="6.66667" height="6.66667" fill="#EDEDF0" />
        <rect x="40" y="46.6667" width="6.66667" height="6.66667" fill="#EDEDF0" />
        <rect x="53.334" y="46.6667" width="6.66667" height="6.66667" fill="#EDEDF0" />
        <rect x="80" y="46.6667" width="6.66667" height="6.66667" fill="#EDEDF0" />
        <rect x="13.334" y="53.3333" width="6.66667" height="6.66667" fill="#EDEDF0" />
        <rect x="40" y="53.3333" width="6.66667" height="6.66667" fill="#EDEDF0" />
        <rect x="53.334" y="53.3333" width="6.66667" height="6.66667" fill="#EDEDF0" />
        <rect x="80" y="53.3333" width="6.66667" height="6.66667" fill="#EDEDF0" />
        <rect x="20" y="26.6667" width="6.66667" height="6.66667" fill="#EDEDF0" />
        <rect x="33.334" y="80" width="6.66667" height="6.66667" fill="#FD366E" />
        <rect x="33.334" y="20" width="6.66667" height="6.66667" fill="#FD366E" />
        <rect x="26.666" y="20" width="6.66667" height="6.66667" fill="#FD366E" />
        <rect x="33.334" y="73.3333" width="6.66667" height="6.66667" fill="#FD366E" />
        <rect x="26.666" y="73.3333" width="6.66667" height="6.66667" fill="#FD366E" />
        <rect x="33.334" y="33.3333" width="6.66667" height="6.66667" fill="#FD366E" />
        <rect x="33.334" y="60" width="6.66667" height="6.66667" fill="#FD366E" />
        <rect x="26.666" y="6.66675" width="6.66667" height="6.66667" fill="#FD366E" />
        <rect x="20" y="6.66675" width="6.66667" height="6.66667" fill="#FD366E" />
        <rect x="26.666" y="66.6667" width="6.66667" height="6.66667" fill="#FD366E" />
        <rect x="26.666" y="26.6667" width="6.66667" height="6.66667" fill="#FD366E" />
        <rect x="26.666" y="33.3333" width="6.66667" height="6.66667" fill="#FD366E" />
        <rect x="26.666" y="40" width="6.66667" height="6.66667" fill="#FD366E" />
        <rect x="26.666" y="46.6667" width="6.66667" height="6.66667" fill="#FD366E" />
        <rect x="26.666" y="53.3333" width="6.66667" height="6.66667" fill="#FD366E" />
        <rect x="26.666" y="60" width="6.66667" height="6.66667" fill="#FD366E" />
        <rect x="60" width="6.66667" height="6.66667" fill="#FD366E" />
        <rect x="60" y="93.3333" width="6.66667" height="6.66667" fill="#CA2B58" />
        <rect x="60" y="13.3333" width="6.66667" height="6.66667" fill="#FD366E" />
        <rect x="60" y="80" width="6.66667" height="6.66667" fill="#FD366E" />
        <rect x="60" y="20" width="6.66667" height="6.66667" fill="#FD366E" />
        <rect x="66.666" y="20" width="6.66667" height="6.66667" fill="#FD366E" />
        <rect x="60" y="73.3333" width="6.66667" height="6.66667" fill="#FD366E" />
        <rect x="66.666" y="73.3333" width="6.66667" height="6.66667" fill="#FD366E" />
        <rect x="60" y="33.3333" width="6.66667" height="6.66667" fill="#FD366E" />
        <rect x="60" y="60" width="6.66667" height="6.66667" fill="#FD366E" />
        <rect x="66.666" y="6.66675" width="6.66667" height="6.66667" fill="#FD366E" />
        <rect x="73.334" y="6.66675" width="6.66667" height="6.66667" fill="#FD366E" />
        <rect x="66.666" y="66.6667" width="6.66667" height="6.66667" fill="#FD366E" />
        <rect x="66.666" y="26.6667" width="6.66667" height="6.66667" fill="#FD366E" />
        <rect x="66.666" y="33.3333" width="6.66667" height="6.66667" fill="#FD366E" />
        <rect x="66.666" y="40" width="6.66667" height="6.66667" fill="#FD366E" />
        <rect x="66.666" y="46.6667" width="6.66667" height="6.66667" fill="#FD366E" />
        <rect x="66.666" y="53.3333" width="6.66667" height="6.66667" fill="#FD366E" />
        <rect x="66.666" y="60" width="6.66667" height="6.66667" fill="#FD366E" />
        <rect x="73.334" y="33.3333" width="6.66667" height="6.66667" fill="#FD366E" />
        <rect x="73.334" y="60" width="6.66667" height="6.66667" fill="#FD366E" />
        <rect x="13.334" y="13.3333" width="6.66667" height="6.66667" fill="#FD366E" />
        <rect x="13.334" y="80" width="6.66667" height="6.66667" fill="#FD366E" />
        <rect x="13.334" y="33.3333" width="6.66667" height="6.66667" fill="#FD366E" />
        <rect x="13.334" y="60" width="6.66667" height="6.66667" fill="#FD366E" />
        <rect x="6.66602" y="20" width="6.66667" height="6.66667" fill="#FD366E" />
        <rect x="6.66602" y="73.3333" width="6.66667" height="6.66667" fill="#FD366E" />
        <rect x="6.66602" y="66.6667" width="6.66667" height="6.66667" fill="#FD366E" />
        <rect x="6.66602" y="26.6667" width="6.66667" height="6.66667" fill="#FD366E" />
        <rect x="6.66602" y="33.3333" width="6.66667" height="6.66667" fill="#FD366E" />
        <rect x="6.66602" y="60" width="6.66667" height="6.66667" fill="#FD366E" />
        <rect y="33.3333" width="6.66667" height="6.66667" fill="#FD366E" />
        <rect y="40" width="6.66667" height="6.66667" fill="#FD366E" />
        <rect y="46.6667" width="6.66667" height="6.66667" fill="#FD366E" />
        <rect y="53.3333" width="6.66667" height="6.66667" fill="#FD366E" />
        <rect y="60" width="6.66667" height="6.66667" fill="#FD366E" />
        <rect x="80" y="13.3333" width="6.66667" height="6.66667" fill="#FD366E" />
        <rect x="80" y="80" width="6.66667" height="6.66667" fill="#CA2B58" />
        <rect x="80" y="33.3333" width="6.66667" height="6.66667" fill="#FD366E" />
        <rect x="80" y="60" width="6.66667" height="6.66667" fill="#FD366E" />
        <rect x="86.666" y="20" width="6.66667" height="6.66667" fill="#CA2B58" />
        <rect x="86.666" y="73.3333" width="6.66667" height="6.66667" fill="#CA2B58" />
        <rect x="86.666" y="66.6667" width="6.66667" height="6.66667" fill="#CA2B58" />
        <rect x="86.666" y="26.6667" width="6.66667" height="6.66667" fill="#CA2B58" />
        <rect x="86.666" y="33.3333" width="6.66667" height="6.66667" fill="#FD366E" />
        <rect x="86.666" y="60" width="6.66667" height="6.66667" fill="#FD366E" />
        <rect x="93.334" y="33.3333" width="6.66667" height="6.66667" fill="#CA2B58" />
        <rect x="93.334" y="40" width="6.66667" height="6.66667" fill="#CA2B58" />
        <rect x="93.334" y="46.6667" width="6.66667" height="6.66667" fill="#CA2B58" />
        <rect x="93.334" y="53.3333" width="6.66667" height="6.66667" fill="#CA2B58" />
        <rect x="93.334" y="60" width="6.66667" height="6.66667" fill="#CA2B58" />
        <rect x="20" y="33.3333" width="6.66667" height="6.66667" fill="#FD366E" />
        <rect x="20" y="60" width="6.66667" height="6.66667" fill="#FD366E" />
        <rect x="40" width="6.66667" height="6.66667" fill="#FD366E" />
        <rect x="40" y="93.3333" width="6.66667" height="6.66667" fill="#CA2B58" />
        <rect x="40" y="6.66675" width="6.66667" height="6.66667" fill="#FD366E" />
        <rect x="33.334" y="6.66675" width="6.66667" height="6.66667" fill="#FD366E" />
        <rect x="40" y="33.3333" width="6.66667" height="6.66667" fill="#FD366E" />
        <rect x="40" y="60" width="6.66667" height="6.66667" fill="#FD366E" />
        <rect x="53.334" y="86.6667" width="6.66667" height="6.66667" fill="#FD366E" />
        <rect x="60" y="86.6667" width="6.66667" height="6.66667" fill="#FD366E" />
        <rect x="26.666" y="86.6667" width="6.66667" height="6.66667" fill="#CA2B58" />
        <rect x="33.334" y="86.6667" width="6.66667" height="6.66667" fill="#FD366E" />
        <rect x="20" y="86.6667" width="6.66667" height="6.66667" fill="#FD366E" />
        <rect x="66.666" y="86.6667" width="6.66667" height="6.66667" fill="#CA2B58" />
        <rect x="73.334" y="86.6667" width="6.66667" height="6.66667" fill="#CA2B58" />
        <rect x="40" y="86.6667" width="6.66667" height="6.66667" fill="#FD366E" />
    </g>
    <defs>
        <filter id="filter0_d_615_86311" x="0" y="0" width="106.667" height="106.667"
            filterUnits="userSpaceOnUse" color-interpolation-filters="sRGB">
            <feFlood flood-opacity="0" result="BackgroundImageFix" />
            <feColorMatrix in="SourceAlpha" type="matrix"
                values="0 0 0 0 0 0 0 0 0 0 0 0 0 0 0 0 0 0 127 0" result="hardAlpha" />
            <feOffset dx="6.66667" dy="6.66667" />
            <feComposite in2="hardAlpha" operator="out" />
            <feColorMatrix type="matrix" values="0 0 0 0 0 0 0 0 0 0 0 0 0 0 0 0 0 0 0.12 0" />
            <feBlend mode="normal" in2="BackgroundImageFix" result="effect1_dropShadow_615_86311" />
            <feBlend mode="normal" in="SourceGraphic" in2="effect1_dropShadow_615_86311"
                result="shape" />
        </filter>
    </defs>
</svg>
    