<svg xmlns="http://www.w3.org/2000/svg" id="Layer_1" x="0" y="0" version="1.1" viewBox="65.2 173.5 180 180" style="enable-background:new 65.2 173.5 180 180"><style type="text/css">.st0{fill:#0080ff}</style><g id="XMLID_229_"><g id="XMLID_690_"><g id="XMLID_691_"><g><g id="XMLID_44_"><g id="XMLID_48_"><path id="XMLID_49_" d="M155.2,351.7v-34.2c36.2,0,64.3-35.9,50.4-74c-5.1-14.1-16.4-25.4-30.5-30.5 c-38.1-13.8-74,14.2-74,50.4l0,0H67c0-57.7,55.8-102.7,116.3-83.8c26.4,8.3,47.5,29.3,55.7,55.7 C257.9,295.9,213,351.7,155.2,351.7z" class="st0" style="fill:#fff"/></g><polygon id="XMLID_47_" points="155.3 317.6 121.3 317.6 121.3 283.6 121.3 283.6 155.3 283.6 155.3 283.6" class="st0" style="fill:#fff"/><polygon id="XMLID_46_" points="121.3 343.8 95.1 343.8 95.1 343.8 95.1 317.6 121.3 317.6" class="st0" style="fill:#fff"/><path id="XMLID_45_" d="M95.1,317.6H73.2l0,0v-21.9l0,0h21.9l0,0V317.6z" class="st0" style="fill:#fff"/></g></g></g></g></g></svg>