<svg width="36" height="36" viewBox="0 0 36 36" fill="none" xmlns="http://www.w3.org/2000/svg">
<g clip-path="url(#clip0_1262_108074)">
<path d="M13.3141 5.87016L12.9535 4.93742L13.3141 5.87016ZM11.5697 5.90605L12.2768 5.19894L11.5697 5.90605ZM3.86056 9.51065L3.15346 10.2178L3.86056 9.51065ZM6.11131 12.7328L5.19725 12.3272L6.11131 12.7328ZM5.87016 13.3141L4.93742 12.9535L5.87016 13.3141ZM5.90813 24.435L5.20102 23.7279L5.90813 24.435ZM6.10939 23.2629L5.19518 23.6681L6.10939 23.2629ZM3.85786 27.8995L3.15076 28.6066L3.85786 27.8995ZM3.85786 26.4853L4.56497 27.1924L3.85786 26.4853ZM9.51472 32.1421L10.2218 32.8492L9.51472 32.1421ZM8.1005 32.1421L7.3934 32.8492L8.1005 32.1421ZM12.7371 29.8906L12.3319 30.8048L12.7371 29.8906ZM11.565 30.0919L12.2721 30.799L11.565 30.0919ZM13.3141 30.1298L13.6746 29.1971L13.3141 30.1298ZM22.6859 30.1298L23.0465 31.0626L22.6859 30.1298ZM23.2633 29.8904L23.6685 30.8046L23.2633 29.8904ZM27.9046 32.1467L28.6117 32.8538L27.9046 32.1467ZM29.8908 23.2625L30.805 23.6678L29.8908 23.2625ZM30.1298 22.6859L29.1971 22.3254L30.1298 22.6859ZM30.1298 13.3141L29.1971 13.6746L30.1298 13.3141ZM30.0919 11.565L29.3848 10.8579L30.0919 11.565ZM29.8906 12.7371L28.9764 13.1423L29.8906 12.7371ZM32.1421 8.1005L32.8492 7.3934L32.1421 8.1005ZM26.4853 3.85786L25.7782 3.15076L26.4853 3.85786ZM27.8995 3.85786L27.1924 4.56497L27.8995 3.85786ZM23.2629 6.10939L22.8577 7.02361L23.2629 6.10939ZM24.435 5.90813L23.7279 5.20102L24.435 5.90813ZM22.6859 5.87015L22.3254 6.80289L22.6859 5.87015ZM21 0H15V2H21V0ZM23 4.89916V2H21V4.89916H23ZM23.6681 5.19518C23.4635 5.10446 23.2562 5.01849 23.0465 4.93742L22.3254 6.80289C22.5049 6.8723 22.6824 6.94591 22.8577 7.02361L23.6681 5.19518ZM25.7782 3.15076L23.7279 5.20102L25.1421 6.61524L27.1924 4.56497L25.7782 3.15076ZM32.8492 7.3934L28.6066 3.15076L27.1924 4.56497L31.435 8.80761L32.8492 7.3934ZM30.799 12.2721L32.8492 10.2218L31.435 8.80761L29.3848 10.8579L30.799 12.2721ZM31.0626 12.9535C30.9815 12.7438 30.8955 12.5365 30.8048 12.3319L28.9764 13.1423C29.0541 13.3176 29.1277 13.4951 29.1971 13.6746L31.0626 12.9535ZM34 13H31.1008V15H34V13ZM36 21V15H34V21H36ZM31.1008 23H34V21H31.1008V23ZM30.805 23.6678C30.8956 23.4632 30.9816 23.2561 31.0626 23.0465L29.1971 22.3254C29.1277 22.5048 29.0542 22.6822 28.9765 22.8573L30.805 23.6678ZM32.8544 25.7827L30.7991 23.7275L29.3849 25.1417L31.4401 27.1969L32.8544 25.7827ZM28.6117 32.8538L32.8544 28.6112L31.4401 27.1969L27.1975 31.4396L28.6117 32.8538ZM23.7283 30.7988L25.7833 32.8538L27.1975 31.4396L25.1425 29.3846L23.7283 30.7988ZM23.0465 31.0626C23.2563 30.9815 23.4637 30.8954 23.6685 30.8046L22.858 28.9762C22.6826 29.054 22.505 29.1277 22.3254 29.1971L23.0465 31.0626ZM23 34V31.1008H21V34H23ZM15 36H21V34H15V36ZM13 31.1008V34H15V31.1008H13ZM12.3319 30.8048C12.5365 30.8955 12.7438 30.9815 12.9535 31.0626L13.6746 29.1971C13.4951 29.1277 13.3176 29.0541 13.1423 28.9764L12.3319 30.8048ZM10.2218 32.8492L12.2721 30.799L10.8579 29.3848L8.80761 31.435L10.2218 32.8492ZM3.15076 28.6066L7.3934 32.8492L8.80761 31.435L4.56497 27.1924L3.15076 28.6066ZM5.20102 23.7279L3.15076 25.7782L4.56497 27.1924L6.61524 25.1421L5.20102 23.7279ZM4.93742 23.0465C5.01849 23.2562 5.10446 23.4635 5.19518 23.6681L7.02361 22.8577C6.94591 22.6824 6.8723 22.5049 6.80289 22.3254L4.93742 23.0465ZM4.89916 21H2V23H4.89916V21ZM2 21V15H0V21H2ZM2 15H4.89916V13H2V15ZM5.19725 12.3272C5.10577 12.5334 5.01911 12.7422 4.93742 12.9535L6.80289 13.6746C6.87283 13.4937 6.94703 13.3149 7.02538 13.1383L5.19725 12.3272ZM3.15346 10.2178L5.20311 12.2674L6.61732 10.8532L4.56767 8.80354L3.15346 10.2178ZM7.3961 3.14669L3.15346 7.38933L4.56767 8.80354L8.81031 4.5609L7.3961 3.14669ZM12.2768 5.19894L10.2245 3.14669L8.81031 4.5609L10.8626 6.61315L12.2768 5.19894ZM12.9535 4.93742C12.7454 5.01788 12.5397 5.10316 12.3365 5.19312L13.1463 7.02184C13.3203 6.94479 13.4965 6.87177 13.6746 6.80289L12.9535 4.93742ZM13 2V4.89916H15V2H13ZM13.6746 6.80289C14.4339 6.50938 15 5.77819 15 4.89916H13C13 4.89928 13 4.89909 13 4.89877C13.0001 4.89848 13.0001 4.89845 13 4.89877C12.9998 4.8994 12.9988 4.90227 12.9955 4.90679C12.9885 4.9166 12.9746 4.92926 12.9535 4.93742L13.6746 6.80289ZM10.8626 6.61315C11.4842 7.23481 12.4018 7.35155 13.1463 7.02184L12.3365 5.19312C12.3159 5.20226 12.2972 5.20313 12.2853 5.20116C12.2798 5.20025 12.2771 5.19897 12.2765 5.19868C12.2762 5.19853 12.2762 5.19853 12.2765 5.1987C12.2767 5.19889 12.2769 5.19902 12.2768 5.19894L10.8626 6.61315ZM8.81031 4.5609L8.81031 4.5609L10.2245 3.14669C9.44347 2.36564 8.17715 2.36564 7.3961 3.14669L8.81031 4.5609ZM4.56767 8.80354H4.56767L3.15346 7.38933C2.37241 8.17037 2.37241 9.4367 3.15346 10.2178L4.56767 8.80354ZM7.02538 13.1383C7.35584 12.3935 7.23939 11.4753 6.61732 10.8532L5.20311 12.2674C5.20319 12.2675 5.20306 12.2674 5.20287 12.2671C5.2027 12.2669 5.2027 12.2668 5.20285 12.2671C5.20314 12.2677 5.20442 12.2705 5.20533 12.2759C5.20729 12.2878 5.20642 12.3065 5.19725 12.3272L7.02538 13.1383ZM4.89916 15C5.77819 15 6.50938 14.4339 6.80289 13.6746L4.93742 12.9535C4.92926 12.9746 4.9166 12.9885 4.90679 12.9955C4.90227 12.9988 4.8994 12.9998 4.89877 13C4.89845 13.0001 4.89848 13.0001 4.89877 13C4.89909 13 4.89928 13 4.89916 13V15ZM2 15V13C0.89543 13 0 13.8954 0 15H2ZM2 21H2H0C0 22.1046 0.895431 23 2 23V21ZM6.80289 22.3254C6.50938 21.5661 5.77819 21 4.89916 21V23C4.89928 23 4.89909 23 4.89877 23C4.89848 22.9999 4.89845 22.9999 4.89877 23C4.8994 23.0002 4.90227 23.0012 4.90679 23.0045C4.9166 23.0115 4.92926 23.0254 4.93742 23.0465L6.80289 22.3254ZM6.61524 25.1421C7.2371 24.5203 7.3537 23.6023 7.02361 22.8577L5.19518 23.6681C5.20434 23.6888 5.20521 23.7075 5.20324 23.7194C5.20234 23.7249 5.20106 23.7276 5.20076 23.7282C5.20061 23.7285 5.20061 23.7285 5.20078 23.7282C5.20097 23.728 5.20111 23.7278 5.20102 23.7279L6.61524 25.1421ZM4.56497 27.1924L3.15076 25.7782C2.36971 26.5592 2.36971 27.8256 3.15076 28.6066L4.56497 27.1924ZM8.80761 31.435L7.3934 32.8492C8.17445 33.6303 9.44078 33.6303 10.2218 32.8492L8.80761 31.435ZM13.1423 28.9764C12.3977 28.6463 11.4797 28.7629 10.8579 29.3848L12.2721 30.799C12.2722 30.7989 12.272 30.799 12.2718 30.7992C12.2715 30.7994 12.2715 30.7994 12.2718 30.7992C12.2724 30.7989 12.2751 30.7977 12.2806 30.7968C12.2925 30.7948 12.3112 30.7957 12.3319 30.8048L13.1423 28.9764ZM15 31.1008C15 30.2218 14.4339 29.4906 13.6746 29.1971L12.9535 31.0626C12.9746 31.0707 12.9885 31.0834 12.9955 31.0932C12.9988 31.0977 12.9998 31.1006 13 31.1012C13.0001 31.1015 13.0001 31.1015 13 31.1012C13 31.1009 13 31.1007 13 31.1008H15ZM15 34H13C13 35.1046 13.8954 36 15 36V34ZM21 34V36C22.1046 36 23 35.1046 23 34H21ZM22.3254 29.1971C21.5661 29.4906 21 30.2218 21 31.1008H23C23 31.1007 23 31.1009 23 31.1012C22.9999 31.1015 22.9999 31.1015 23 31.1012C23.0002 31.1006 23.0012 31.0977 23.0045 31.0932C23.0115 31.0834 23.0254 31.0707 23.0465 31.0626L22.3254 29.1971ZM25.1425 29.3846C24.5206 28.7627 23.6027 28.6461 22.858 28.9762L23.6685 30.8046C23.6892 30.7955 23.7079 30.7946 23.7198 30.7966C23.7252 30.7975 23.728 30.7988 23.7286 30.7991C23.7289 30.7992 23.7288 30.7992 23.7286 30.799C23.7283 30.7989 23.7282 30.7987 23.7283 30.7988L25.1425 29.3846ZM27.1975 31.4396L25.7833 32.8538C26.5643 33.6348 27.8307 33.6348 28.6117 32.8538L27.1975 31.4396ZM31.4401 27.1969L32.8544 28.6112C33.6354 27.8301 33.6354 26.5638 32.8544 25.7827L31.4401 27.1969ZM28.9765 22.8573C28.6465 23.602 28.7631 24.5199 29.3849 25.1417L30.7991 23.7275C30.7991 23.7274 30.7992 23.7276 30.7994 23.7278C30.7996 23.7281 30.7996 23.7281 30.7994 23.7278C30.7991 23.7272 30.7978 23.7245 30.7969 23.719C30.795 23.7071 30.7958 23.6884 30.805 23.6678L28.9765 22.8573ZM31.1008 21C30.2218 21 29.4906 21.5661 29.1971 22.3254L31.0626 23.0465C31.0707 23.0254 31.0834 23.0115 31.0932 23.0045C31.0977 23.0012 31.1006 23.0002 31.1012 23C31.1015 22.9999 31.1015 22.9999 31.1012 23C31.1009 23 31.1007 23 31.1008 23V21ZM34 21V23C35.1046 23 36 22.1046 36 21H34ZM34 15H36C36 13.8954 35.1046 13 34 13V15ZM29.1971 13.6746C29.4906 14.4339 30.2218 15 31.1008 15V13C31.1007 13 31.1009 13 31.1012 13C31.1015 13.0001 31.1015 13.0001 31.1012 13C31.1006 12.9998 31.0977 12.9988 31.0932 12.9955C31.0834 12.9885 31.0707 12.9746 31.0626 12.9535L29.1971 13.6746ZM29.3848 10.8579C28.7629 11.4797 28.6463 12.3977 28.9764 13.1423L30.8048 12.3319C30.7957 12.3112 30.7948 12.2925 30.7968 12.2806C30.7977 12.2751 30.7989 12.2724 30.7992 12.2718C30.7994 12.2715 30.7994 12.2715 30.7992 12.2718C30.799 12.272 30.7989 12.2722 30.799 12.2721L29.3848 10.8579ZM31.435 8.80761L32.8492 10.2218C33.6303 9.44078 33.6303 8.17445 32.8492 7.3934L31.435 8.80761ZM27.1924 4.56497V4.56497L28.6066 3.15076C27.8256 2.36971 26.5592 2.36971 25.7782 3.15076L27.1924 4.56497ZM22.8577 7.02361C23.6023 7.3537 24.5203 7.2371 25.1421 6.61524L23.7279 5.20102C23.7278 5.20111 23.728 5.20097 23.7282 5.20078C23.7285 5.20061 23.7285 5.20061 23.7282 5.20076C23.7276 5.20106 23.7249 5.20234 23.7194 5.20324C23.7075 5.20521 23.6888 5.20434 23.6681 5.19518L22.8577 7.02361ZM21 4.89916C21 5.77819 21.5661 6.50938 22.3254 6.80289L23.0465 4.93742C23.0254 4.92926 23.0115 4.9166 23.0045 4.90679C23.0012 4.90227 23.0002 4.8994 23 4.89877C22.9999 4.89845 22.9999 4.89848 23 4.89877C23 4.89909 23 4.89928 23 4.89916H21ZM15 0C13.8954 0 13 0.89543 13 2H15V0ZM21 2V2H23C23 0.895431 22.1046 0 21 0V2Z" fill="#E4E4E7"/>
<path d="M18 24C21.3137 24 24 21.3137 24 18C24 14.6863 21.3137 12 18 12C14.6863 12 12 14.6863 12 18C12 21.3137 14.6863 24 18 24Z" stroke="#E4E4E7" stroke-width="2" stroke-linecap="round" stroke-linejoin="round"/>
</g>
<defs>
<clipPath id="clip0_1262_108074">
<rect width="36" height="36" fill="white"/>
</clipPath>
</defs>
</svg>
