<svg width="32" height="32" viewBox="0 0 32 32" fill="none" xmlns="http://www.w3.org/2000/svg">
    <rect x="4" y="4" width="24" height="24" rx="1" fill="#FFCA28" />
    <path
        d="M19.0876 24.2195L20.8236 22.9887C20.9596 23.4466 21.8212 24.5343 22.9094 24.5343C23.9977 24.5343 24.5029 23.8975 24.5029 23.4753C24.5029 22.3247 23.3917 21.9191 22.858 21.7242C22.771 21.6925 22.6993 21.6663 22.6503 21.6434C22.6252 21.6317 22.5872 21.6161 22.5384 21.5962C21.9448 21.3532 19.7548 20.4567 19.7548 17.8581C19.7548 14.9958 22.3329 14.6667 22.9159 14.6667C23.2973 14.6667 25.1313 14.7168 26.0446 16.5558L24.3604 17.8152C23.9912 17.0137 23.3777 16.749 23.0001 16.749C22.0673 16.749 21.873 17.4817 21.873 17.8152C21.873 18.751 22.8864 19.1704 23.7422 19.5246C23.966 19.6173 24.1791 19.7055 24.3604 19.7973C25.2932 20.2696 26.6665 21.0423 26.6665 23.4753C26.6665 24.6938 25.7126 26.6667 23.311 26.6667C20.0851 26.6667 19.2301 24.5916 19.0876 24.2195Z"
        fill="#3E3E3E" />
    <path
        d="M10.6665 24.4639L12.4759 23.2337C12.6177 23.6914 13.1686 24.5354 13.968 24.5354C14.7674 24.5354 15.1765 23.6557 15.1765 23.2337V14.9374H17.4018V23.2337C17.4378 24.378 16.8455 26.6667 14.2313 26.6667C11.8278 26.6667 10.8285 25.1362 10.6665 24.4639Z"
        fill="#3E3E3E" />
</svg>