<svg width="40" height="40" viewBox="0 0 40 40" fill="none" xmlns="http://www.w3.org/2000/svg">
<path d="M36 25.4074V33.1111C35.7083 34.0741 33.2 36 25.5 36C17.8 36 15.2917 34.0741 15 33.1111V25.4074C15 24.3929 17.8 23 25.5 23C33.2 23 36 24.3929 36 25.4074Z" fill="url(#paint0_linear_1881_6185)" stroke="#FD366E" stroke-width="1.2" stroke-linecap="round" stroke-linejoin="round"/>
<path d="M25.5 27.6429C31.299 27.6429 36 26.6035 36 25.3214C36 24.0393 31.299 23 25.5 23C19.701 23 15 24.0393 15 25.3214C15 26.6035 19.701 27.6429 25.5 27.6429Z" stroke="#FD366E" stroke-width="1.2" stroke-linecap="round" stroke-linejoin="round"/>
<path d="M25 6.40741V14.1111C24.7083 15.0741 22.2 17 14.5 17C6.8 17 4.29167 15.0741 4 14.1111V6.40741C4 5.39286 6.8 4 14.5 4C22.2 4 25 5.39286 25 6.40741Z" fill="url(#paint1_linear_1881_6185)" stroke="#FD366E" stroke-width="1.2" stroke-linecap="round" stroke-linejoin="round"/>
<path d="M14.5 8.64286C20.299 8.64286 25 7.60352 25 6.32143C25 5.03934 20.299 4 14.5 4C8.70101 4 4 5.03934 4 6.32143C4 7.60352 8.70101 8.64286 14.5 8.64286Z" stroke="#FD366E" stroke-width="1.2" stroke-linecap="round" stroke-linejoin="round"/>
<path d="M29 10.5H30C31.1046 10.5 32 11.3954 32 12.5V19" stroke="#FD366E" stroke-width="1.2" stroke-linecap="round" stroke-linejoin="round"/>
<path d="M11 30.5L10 30.5C8.89543 30.5 8 29.6046 8 28.5L8 22" stroke="#FD366E" stroke-width="1.2" stroke-linecap="round" stroke-linejoin="round"/>
<path d="M5 24L8 21L11 24" stroke="#FD366E" stroke-width="1.2" stroke-linecap="round" stroke-linejoin="round"/>
<path d="M29 17L32 20L35 17" stroke="#FD366E" stroke-width="1.2" stroke-linecap="round" stroke-linejoin="round"/>
<defs>
<linearGradient id="paint0_linear_1881_6185" x1="25.5014" y1="22.8523" x2="25.5014" y2="36.1477" gradientUnits="userSpaceOnUse">
<stop stop-color="#FD366E" stop-opacity="0"/>
<stop offset="1" stop-color="#FD366E" stop-opacity="0.4"/>
</linearGradient>
<linearGradient id="paint1_linear_1881_6185" x1="14.5014" y1="3.85227" x2="14.5014" y2="17.1477" gradientUnits="userSpaceOnUse">
<stop stop-color="#FD366E" stop-opacity="0"/>
<stop offset="1" stop-color="#FD366E" stop-opacity="0.4"/>
</linearGradient>
</defs>
</svg>
