<svg width="40" height="40" viewBox="0 0 40 40" fill="none" xmlns="http://www.w3.org/2000/svg">
<g filter="url(#filter0_b_1388_57895)">
<path d="M25 18.7995V9.02275C25 6.79081 25 5.67484 24.5476 5.1222C24.1545 4.64197 23.5608 4.37144 22.9404 4.38992C22.2266 4.41119 21.3845 5.14346 19.7002 6.60801L8.45695 16.3848C6.45954 18.1217 5.46083 18.9901 5.36413 19.7456C5.28036 20.4002 5.52484 21.0539 6.01756 21.4929C6.58628 21.9995 7.90976 21.9995 10.5567 21.9995H21.8C22.9201 21.9995 23.4802 21.9995 23.908 21.7815C24.2843 21.5898 24.5903 21.2838 24.782 20.9075C25 20.4797 25 19.9196 25 18.7995Z" fill="url(#paint0_linear_1388_57895)"/>
</g>
<g filter="url(#filter1_bi_1388_57895)">
<path d="M16.001 20.1995V29.7657C16.001 32.0553 16.001 33.2001 16.4618 33.7555C16.862 34.2379 17.4652 34.5047 18.0914 34.4764C18.8123 34.4437 19.6594 33.6737 21.3535 32.1336L31.8764 22.5673L31.8764 22.5673C33.7795 20.8372 34.7311 19.9721 34.8153 19.2227C34.8882 18.5732 34.6392 17.929 34.1482 17.4974C33.5819 16.9995 32.2959 16.9995 29.7238 16.9995H19.201C18.0809 16.9995 17.5208 16.9995 17.093 17.2175C16.7167 17.4092 16.4107 17.7152 16.219 18.0915C16.001 18.5194 16.001 19.0794 16.001 20.1995Z" fill="url(#paint1_linear_1388_57895)" fill-opacity="0.32"/>
<path d="M31.7923 22.4748L31.7922 22.4747L31.7943 22.473C32.7467 21.6072 33.4548 20.9633 33.9361 20.4424C34.4213 19.9174 34.6539 19.5399 34.691 19.2088C34.7594 18.5998 34.5259 17.9959 34.0657 17.5913C33.8155 17.3713 33.3895 17.2484 32.6773 17.1863C31.9702 17.1246 31.0123 17.1245 29.7238 17.1245H19.201C18.6389 17.1245 18.2248 17.1246 17.8976 17.1513C17.5718 17.178 17.3431 17.2304 17.1497 17.3289C16.7969 17.5086 16.5101 17.7955 16.3303 18.1483C16.2318 18.3416 16.1794 18.5703 16.1528 18.8961C16.1261 19.2233 16.126 19.6374 16.126 20.1995V29.7657C16.126 30.913 16.1261 31.7649 16.1831 32.3997C16.2403 33.0379 16.3535 33.4292 16.558 33.6756C16.9332 34.1279 17.4987 34.3781 18.0858 34.3515C18.4056 34.337 18.7713 34.1575 19.282 33.7706C19.7901 33.3857 20.4205 32.8128 21.2695 32.0411L31.7923 22.4748Z" stroke="url(#paint2_linear_1388_57895)" stroke-width="0.25"/>
</g>
<defs>
<filter id="filter0_b_1388_57895" x="-77.569" y="-78.5277" width="185.486" height="183.444" filterUnits="userSpaceOnUse" color-interpolation-filters="sRGB">
<feFlood flood-opacity="0" result="BackgroundImageFix"/>
<feGaussianBlur in="BackgroundImageFix" stdDeviation="41.4583"/>
<feComposite in2="SourceAlpha" operator="in" result="effect1_backgroundBlur_1388_57895"/>
<feBlend mode="normal" in="SourceGraphic" in2="effect1_backgroundBlur_1388_57895" result="shape"/>
</filter>
<filter id="filter1_bi_1388_57895" x="10.6676" y="11.6662" width="29.4938" height="28.1457" filterUnits="userSpaceOnUse" color-interpolation-filters="sRGB">
<feFlood flood-opacity="0" result="BackgroundImageFix"/>
<feGaussianBlur in="BackgroundImageFix" stdDeviation="2.66667"/>
<feComposite in2="SourceAlpha" operator="in" result="effect1_backgroundBlur_1388_57895"/>
<feBlend mode="normal" in="SourceGraphic" in2="effect1_backgroundBlur_1388_57895" result="shape"/>
<feColorMatrix in="SourceAlpha" type="matrix" values="0 0 0 0 0 0 0 0 0 0 0 0 0 0 0 0 0 0 127 0" result="hardAlpha"/>
<feOffset dy="2"/>
<feGaussianBlur stdDeviation="2"/>
<feComposite in2="hardAlpha" operator="arithmetic" k2="-1" k3="1"/>
<feColorMatrix type="matrix" values="0 0 0 0 1 0 0 0 0 1 0 0 0 0 1 0 0 0 0.08 0"/>
<feBlend mode="normal" in2="shape" result="effect2_innerShadow_1388_57895"/>
</filter>
<linearGradient id="paint0_linear_1388_57895" x1="13.75" y1="10.625" x2="21.0467" y2="25.3943" gradientUnits="userSpaceOnUse">
<stop offset="0.36137" stop-color="#FD366E"/>
<stop offset="1" stop-color="#FE9567"/>
</linearGradient>
<linearGradient id="paint1_linear_1388_57895" x1="27.7343" y1="38.176" x2="21.3502" y2="15.5237" gradientUnits="userSpaceOnUse">
<stop stop-color="#FD366E" stop-opacity="0.4"/>
<stop offset="0.432292" stop-color="#FD366E" stop-opacity="0.4"/>
<stop offset="1" stop-color="#FD366E" stop-opacity="0"/>
</linearGradient>
<linearGradient id="paint2_linear_1388_57895" x1="35.0676" y1="24.6466" x2="24.0562" y2="12.3958" gradientUnits="userSpaceOnUse">
<stop stop-color="white" stop-opacity="0.08"/>
<stop offset="1" stop-color="white" stop-opacity="0"/>
</linearGradient>
</defs>
</svg>
