<svg width="41" height="40" viewBox="0 0 41 40" fill="none" xmlns="http://www.w3.org/2000/svg">
<circle cx="20.666" cy="20" r="15.4" fill="url(#paint0_linear_5402_24052)" stroke="#FD366E" stroke-width="1.2"/>
<path d="M20.666 4.59961C21.4339 4.59961 22.2129 4.95308 22.9736 5.68848C23.7373 6.42677 24.4528 7.52428 25.0664 8.92676C26.2928 11.7299 27.0664 15.6445 27.0664 20C27.0664 24.3555 26.2928 28.2701 25.0664 31.0732C24.4528 32.4757 23.7373 33.5732 22.9736 34.3115C22.2129 35.0469 21.4339 35.4004 20.666 35.4004C19.8981 35.4004 19.1191 35.0469 18.3584 34.3115C17.5947 33.5732 16.8792 32.4757 16.2656 31.0732C15.0393 28.2701 14.2656 24.3555 14.2656 20C14.2656 15.6445 15.0393 11.7299 16.2656 8.92676C16.8792 7.52428 17.5947 6.42677 18.3584 5.68848C19.1191 4.95308 19.8981 4.59961 20.666 4.59961Z" stroke="#FD366E" stroke-width="1.2"/>
<path d="M4.66602 20L36.666 20" stroke="#FD366E" stroke-width="1.2"/>
<defs>
<linearGradient id="paint0_linear_5402_24052" x1="20.666" y1="4" x2="20.666" y2="36" gradientUnits="userSpaceOnUse">
<stop stop-color="#FD366E" stop-opacity="0"/>
<stop offset="1" stop-color="#FD366E" stop-opacity="0.4"/>
</linearGradient>
</defs>
</svg>
