<svg xmlns="http://www.w3.org/2000/svg" width="415.11" height="100" viewBox="0 0 4151.1 1000" fill="none">
  <path
    d="m4141.3 44.118c-14.706-19.608-29.412-34.314-102.94-39.216-19.608 0-78.431-4.902-181.37-4.902-269.61 0-455.88 83.333-549.02 245.1 24.51-161.76-132.35-245.1-475.49-245.1-401.96 0-656.86 161.76-759.8 490.2-39.216 122.55-39.216 220.59-9.8039 299.02h-98.039c-73.529 4.902-171.57 9.8039-235.29 9.8039-147.06 0-240.2-24.51-274.51-73.529-29.412-44.118-29.412-127.45 9.8039-250 63.726-200.98 215.69-289.22 460.78-289.22 127.45 0 250 14.706 250 14.706 14.706 0 24.51-19.608 24.51-34.314l-4.9019-14.706-9.804-68.627c-4.9019-44.118-39.216-68.627-98.039-78.431-53.922-4.902-98.039-4.902-156.86-4.902h-4.902c-318.63 0-544.12 107.84-666.67 313.73 44.118-210.78-102.94-313.73-441.18-313.73-191.18 0-328.43 4.902-406.86 14.706-63.725 9.8039-102.94 34.314-117.65 78.431l-29.412 88.235c-4.902 14.706 4.902 24.51 24.51 24.51 14.706 0 73.529-9.8039 171.57-14.706 132.35-9.8039 225.49-14.706 289.22-14.706 186.27 0 269.61 49.02 240.2 142.16-4.902 19.608-19.608 34.314-44.118 39.216-176.47 29.412-318.63 49.02-421.57 63.725-294.12 39.216-465.69 127.45-509.8 274.51-63.725 200.98 93.137 299.02 470.59 299.02 186.27 0 348.04-9.8039 475.49-34.314 73.529-14.706 112.75-29.412 127.45-78.431l68.628-225.49c-4.902 225.49 147.06 338.24 470.59 338.24 137.25 0 269.61-4.902 333.33-14.706s98.039-24.51 112.75-73.529l14.706-68.627c68.628 107.84 220.59 161.76 450.98 161.76 245.1 0 387.25-4.902 426.47-19.608 34.314-9.8039 53.922-29.412 63.726-53.922 0-4.902 0-9.8039 4.9019-14.706l29.412-93.137c4.902-14.706-4.9019-24.51-24.51-24.51l-156.86 9.8039c-102.94 4.902-186.27 9.8039-245.1 9.8039-112.75 0-186.27-9.8039-230.39-24.51-63.726-24.51-93.137-68.627-88.235-142.16l495.1-63.725c220.59-29.412 372.55-98.039 446.08-205.88l-171.57 573.53c-4.9019 9.8039 0 19.608 4.902 24.51 4.9019 4.902 14.706 9.8039 34.314 9.8039h205.88c34.314 0 49.02-19.608 53.922-34.314l181.37-632.35c24.51-83.333 98.039-122.55 235.29-122.55 122.55 0 210.78 0 269.61 4.902h4.902c9.8039 0 29.412-4.902 44.118-29.412l29.412-88.235c0-14.706 0-29.412-9.8039-39.216zm-3303.9 754.9c-63.725 9.8039-156.86 14.706-274.51 14.706-210.78 0-299.02-44.118-274.51-127.45 19.608-58.824 73.529-98.039 161.76-107.84l475.49-63.725zm2191.2-509.8c-19.608 63.725-112.75 107.84-279.41 132.35l-397.06 53.922 9.8039-34.314c34.314-107.84 78.431-176.47 137.25-215.69 58.824-39.216 156.86-58.824 294.12-58.824 181.37 4.902 259.8 44.118 235.29 122.55z"
    fill="#ADADB0"
  />
</svg>
