<svg xmlns="http://www.w3.org/2000/svg" width="147" height="24" fill="none"><g clip-path="url(#a)"><path fill="#ADADB0" d="m130.771 16.663 2.552 4.287c.791 1.285 2.094 1.868 3.718 1.868h6.565L135.92 13.4l-1.09-.628-2.878.95-1.458 2.133.277.807Z"/><path fill="#19191C" d="m135.921 13.396-1.604-1.966-4.241 2.306.45 2.328.246.593c-.096-1.577 2.583-3.409 5.149-3.261Z"/><path fill="#ADADB0" d="m130.771 16.66-2.294-3.836c-.276-.435-.352-.816-.352-1.26 0-.488.206-.755.996-1.179.92-.445 2.773-.639 4.683-.639 3.104 0 3.848 1.007 4.165 2.094 0 0-.438-.176-1.469-.176-3.27 0-5.884 1.605-5.884 4.034 0 .51.155.961.155.961ZM120.918.34h3.086c1.302 0 1.835.538 2.362 1.066.603.554 2.43 3.055 6.294 7.936h-4.182c-1.71 0-2.251-.294-2.912-1.314L120.918.34ZM145.53 21.8l.223.812h.004l.227-.811h.19l.147 1.016h-.152l-.104-.83h-.003l-.235.83h-.163l-.227-.826h-.003l-.104.826h-.145l.146-1.016h.199Zm-.473 0v.131h-.296v.886h-.147v-.886h-.296v-.13h.739ZM72.632 9.354h-.035l-1.756 5.02h3.552l-1.761-5.02Zm3.144 8.975-.86-2.466h-4.599l-.861 2.466h-1.963l4.119-10.976h2.187l4.055 10.976h-2.078Zm16.66-11.416h1.92v1.835h-1.92V6.913Zm.021 3.056h1.877v8.36h-1.877v-8.36ZM78.602 6.912h1.92v1.836h-1.92V6.912Zm.022 3.057h1.877v8.36h-1.877v-8.36Zm11.785-3.046h-1.877V18.33h1.877V6.923Zm-5.981 7.329v4.077h-1.882v-6.212c0-.597-.068-1.734-.091-2.147h1.516c.163 0 .21.07.215.233l.016 1.036h.043c.148-.362.682-1.444 2.24-1.444.523 0 .91.17.973.196 0 .36-.037 1.15-.056 1.358-.012.138-.07.182-.138.182-.064 0-.094-.014-.13-.029a2.05 2.05 0 0 0-.768-.134c-1.002 0-1.938.731-1.938 2.884Zm17.09 4.077v-5.4c0-1.03-.465-1.659-1.339-1.659-1.154 0-1.92 1.242-1.92 2.918v4.14H96.38v-6.14c0-.677-.06-1.662-.092-2.218h1.508c.17 0 .219.07.22.225.005.18.02 1.044.02 1.044h.043c.226-.393.804-1.445 2.534-1.445 1.784 0 2.781 1.233 2.781 2.617v5.918h-1.877Zm5.194-5.04h3.473c.071-1.347-.628-2.102-1.684-2.102-1.105 0-1.739.808-1.789 2.103Zm4.63 3.204c.104 0 .135.092.143.187.032.357.062 1.163.058 1.369-.201.064-1.21.44-2.565.44-2.632 0-4.216-1.377-4.216-4.341 0-2.545 1.35-4.353 3.778-4.353 2.383 0 3.516 1.61 3.516 3.611 0 .236-.026.633-.067 1.16h-5.301c0 1.428.899 2.452 2.562 2.452.916 0 1.645-.331 1.934-.473.058-.028.091-.052.158-.052Zm4.396 1.995c2.443 0 3.612-1.01 3.612-2.511 0-1.478-1.038-2.1-2.139-2.468a80.464 80.464 0 0 1-.913-.306c-.753-.252-1.144-.582-1.144-1.076 0-.522.47-.886 1.447-.886.869 0 1.578.358 1.859.495.047.022.089.052.164.052.059 0 .132-.037.142-.185.019-.28.052-.788.052-1.276-.228-.106-1.049-.532-2.371-.532-2.018 0-3.259 1.061-3.259 2.462 0 1.359.918 1.979 1.929 2.317.233.08.664.223.917.31 1.055.354 1.356.675 1.356 1.174 0 .651-.686.973-1.866.973-.968 0-1.633-.36-1.9-.486-.055-.024-.087-.052-.161-.052-.139 0-.142.187-.144.218-.005.09-.05.956-.05 1.244.222.097 1.18.533 2.469.533ZM5.106 9.354h-.034l-1.758 5.02h3.55l-1.758-5.02ZM8.25 18.33l-.861-2.466H2.79l-.861 2.466H-.033L4.086 7.352H6.27l4.056 10.977H8.249ZM38.92 6.913h1.92v1.835h-1.92V6.912Zm.022 3.057h1.875v8.36h-1.875V9.97Zm-4.029 4.283v4.077h-1.879v-6.212c0-.598-.067-1.735-.092-2.148h1.517c.163 0 .212.071.212.233l.02 1.037h.042c.149-.362.681-1.444 2.24-1.444.521 0 .911.17.975.195 0 .36-.038 1.15-.056 1.36-.013.136-.073.18-.14.18a.285.285 0 0 1-.13-.028 2.036 2.036 0 0 0-.766-.134c-1.002 0-1.943.731-1.943 2.884ZM21.052 18.33v-5.35c0-.963-.403-1.71-1.376-1.71-1.095 0-1.727 1.212-1.727 2.91v4.15h-1.875v-5.366c0-.876-.362-1.694-1.368-1.694-1.111 0-1.733 1.21-1.733 2.97v4.09h-1.88v-6.09c0-.786-.069-1.898-.091-2.27h1.502c.17 0 .226.056.229.233l.017 1.037h.043c.114-.239.732-1.445 2.455-1.445 1.606 0 2.22 1.165 2.373 1.524.148-.316.86-1.524 2.478-1.524 1.682 0 2.83.913 2.83 2.747v5.788h-1.877Zm5.192-5.04h3.474c.072-1.346-.626-2.102-1.684-2.102-1.105 0-1.738.808-1.79 2.101Zm4.633 3.204c.102 0 .134.092.142.187.032.357.062 1.164.057 1.369-.2.064-1.208.44-2.563.44-2.633 0-4.217-1.38-4.217-4.343 0-2.541 1.35-4.351 3.78-4.351 2.38 0 3.515 1.61 3.515 3.611 0 .236-.026.633-.068 1.16H26.22c0 1.428.9 2.452 2.56 2.452.917 0 1.647-.331 1.936-.474.058-.029.09-.051.159-.051Zm23.543-2.406h-.32c-2.358 0-2.822.829-2.822 1.671 0 .688.45 1.34 1.33 1.34 1.172 0 1.811-1.143 1.811-2.346v-.665Zm.453 4.242c-.152 0-.278-.051-.294-.273l-.055-.8h-.026c-.11.153-.795 1.232-2.513 1.232-1.645 0-2.589-1.282-2.589-2.69 0-1.95 1.874-2.93 4.654-2.93h.37v-.307c0-.876-.616-1.345-1.767-1.345a5.122 5.122 0 0 0-2.23.54c-.023.01-.084.046-.14.046-.088 0-.139-.055-.143-.154-.015-.314-.047-.919-.052-1.302.338-.13 1.462-.552 2.698-.552 2.457 0 3.512 1.153 3.512 2.995v3.26c0 1.188.109 1.966.148 2.28H54.87Zm-6.487-1.836c.049 0 .119.033.135.18a19.6 19.6 0 0 1 .053 1.254c-.375.187-1.188.561-2.184.561-2.505 0-4.04-1.47-4.04-4.345 0-2.695 1.365-4.348 4.04-4.348.887 0 1.704.312 2.184.562 0 .297-.029.972-.053 1.255-.011.119-.068.176-.136.176-.074 0-.1-.02-.144-.04-.605-.299-1.173-.443-1.684-.443-1.595 0-2.25 1.055-2.25 2.838 0 1.59.524 2.835 2.25 2.835.66 0 1.26-.237 1.633-.419.1-.047.117-.066.196-.066Zm14.673 1.836v-5.4c0-1.03-.465-1.66-1.337-1.66-1.155 0-1.923 1.242-1.923 2.92v4.14h-1.876v-6.142c0-.675-.06-1.66-.09-2.218h1.505c.172 0 .221.072.222.226.005.178.019 1.044.019 1.044h.04c.23-.394.806-1.446 2.536-1.446 1.786 0 2.783 1.234 2.783 2.616v5.92h-1.879Z"/></g><defs><clipPath id="a"><path fill="#fff" d="M0 24h147V0H0z"/></clipPath></defs></svg>