<svg xmlns="http://www.w3.org/2000/svg" width="42" height="48" fill="none"><mask id="a" width="42" height="48" x="0" y="0" maskUnits="userSpaceOnUse" style="mask-type:luminance"><path fill="#fff" d="M41.741 0H0v47.956h41.741V0Z"/></mask><g mask="url(#a)"><path fill="#ADADB0" d="M34.8 46.036c-2.686 2.523-5.65 2.13-8.477.94-3.004-1.213-5.75-1.29-8.923 0-3.951 1.65-6.048 1.17-8.427-.94-13.435-13.38-11.452-33.76 3.817-34.528 3.703.192 6.296 1.98 8.477 2.13 3.242-.638 6.345-2.465 9.815-2.226 4.17.326 7.288 1.919 9.37 4.782-8.576 4.987-6.544 15.92 1.334 18.99-1.577 4.005-3.6 7.96-6.99 10.886l.005-.034ZM20.97 11.364C20.567 5.418 25.55.526 31.28.047c.789 6.858-6.444 11.989-10.31 11.317Z"/></g></svg>