<svg xmlns="http://www.w3.org/2000/svg" width="110" height="37" fill="none"><path fill="#ADADB0" fill-rule="evenodd" d="M13.303 22.626c0-1.363-1.008-2.306-3.124-2.306H5.94v4.647h4.344c1.77 0 3.02-.63 3.02-2.341Zm-.763-9.222c0-1.328-.904-2.236-2.257-2.236H5.94v4.401h4.24c1.525 0 2.36-1.117 2.36-2.165Zm7.084 9.885c0 3.983-3.68 6.603-7.398 6.603H.106V6.241h11.112c4.274 0 7.364 2.13 7.364 6.498 0 3.739-3.263 4.856-3.263 4.856 0 .036 4.305 1.014 4.305 5.694Zm18.143-5.239c0-3.703-1.702-6.708-5.068-6.708-3.369 0-5.036 3.005-5.036 6.708 0 3.738 1.667 6.742 5.037 6.742 3.365 0 5.067-3.004 5.067-6.742Zm5.834 0c0 6.952-3.994 12.401-10.901 12.401-6.877 0-10.906-5.45-10.906-12.401 0-6.917 4.029-12.402 10.902-12.402 6.91 0 10.905 5.485 10.905 12.402Zm20.366 4.68c0 5.206-4.722 7.721-9.165 7.721-5.14 0-7.782-1.956-9.863-4.436l3.783-3.704c1.599 2.027 3.684 3.04 6.01 3.04 1.91 0 3.194-.943 3.194-2.341 0-1.502-1.135-1.97-4.24-2.62l-.831-.175c-3.738-.783-6.808-2.899-6.808-7.126 0-4.646 3.787-7.44 8.79-7.44 4.235 0 6.98 1.816 8.647 3.7L59.8 12.985c-1.146-1.223-2.882-2.2-4.86-2.2-1.353 0-2.883.628-2.883 2.2 0 1.433 1.591 1.952 3.611 2.376l.836.175c3.38.708 7.463 1.747 7.463 7.196Zm22.555 2.586c-2.43 3.493-4.688 5.135-9.376 5.135-6.666 0-10.975-5.52-10.975-12.541 0-6.673 3.891-12.227 11.044-12.227 3.925 0 6.739 1.537 9.135 5.135l-4.792 3.18c-.974-1.678-2.223-2.656-4.309-2.656-2.637 0-5.174 2.353-5.174 6.568 0 4.723 2.744 6.882 5.35 6.882 2.255 0 3.297-1.118 4.27-2.725l4.827 3.249Zm22.244 4.576h-6.252v-9.327h-7.19v9.327h-6.215V6.242h6.214v8.698h7.191V6.241h6.252v23.652" clip-rule="evenodd"/></svg>