<svg xmlns="http://www.w3.org/2000/svg" width="127" height="32" fill="none"><g clip-path="url(#a)"><path fill="#ADADB0" fill-rule="evenodd" d="M-.098 31.269V-.023h126.504v31.377L-.098 31.269Zm43.495-13.322 7.085-10.464h4.647v16.426h-4.235l-.03-2.472h-4.88a8.51 8.51 0 0 1-5.938 2.472c-4.558 0-8.292-3.691-8.292-8.2 0-4.536 4.175-8.287 8.732-8.287 2.44 0 4.881 1.079 6.527 2.764l-2.116 3.198c-1.059-1.077-2.617-1.716-4.146-1.716-.206 0-.5.03-.72.058-2.22 0-4.043 1.803-4.043 4.013 0 2.179 1.824 3.984 4.027 3.984 1.353 0 2.645-.669 3.382-1.776Zm7.468-3.34-2.322 3.224h2.35l-.028-3.225Zm8.144 9.302h4.234v-12.59h3.29V7.482l-10.816.027v3.808h3.292v12.59ZM80.647 7.483Zm0 0h-4.233l-.03 6.134h-4.999l-.031-6.135h-4.23V23.91h4.261v-6.485h5.029v6.485h4.233V7.483Zm33.928 7.644V7.483h4.236l-.006 16.426h-3.85l-5.789-7.994v7.994h-4.265l-.029-5.962c-1.028 3.49-4.293 5.962-7.997 5.962-2.117 0-4.233-.873-5.791-2.298v2.298H81.22V7.483h4.314v12.442h4.195c-.705-1.28-1.145-2.76-1.145-4.216 0-4.536 3.734-8.226 8.29-8.226 3.704 0 7.027 2.528 7.997 6.018l.029-5.991 3.853-.027 5.821 7.644Zm-21.933.582c0 2.327 1.91 4.188 4.233 4.188 2.353 0 4.264-1.86 4.264-4.188 0-2.296-1.91-4.185-4.264-4.185-2.322 0-4.233 1.889-4.233 4.185Zm-66.008 1.918v2.299h5l.008 3.983h-9.651v-5.611c-1 3.053-3.882 5.32-7.144 5.61h-7.35V7.483l7.32.027c3.292.29 6.174 2.56 7.174 5.641V7.51l9.643-.027.008 4.041h-5.008v2.092h4.536l.008 4.01h-4.544Zm-11.787 2.501c1.146-.03 2.205-.812 2.469-1.918a7.925 7.925 0 0 0 .412-2.501c0-.813-.147-1.685-.412-2.44-.264-1.133-1.323-1.95-2.47-1.95h-2.704v8.81h2.705Z" clip-rule="evenodd"/></g><defs><clipPath id="a"><path fill="#fff" d="M0 0h126.308v31.394H0z"/></clipPath></defs></svg>