<svg xmlns="http://www.w3.org/2000/svg" width="103" height="20" fill="none"><path fill="#ADADB0" d="M97.44 17.28c0-1.485 1.222-2.69 2.726-2.69 1.506 0 2.727 1.205 2.727 2.69 0 1.486-1.221 2.691-2.727 2.691-1.504 0-2.727-1.204-2.727-2.69Zm-86.973-7.127c0-1.704-.334-2.969-1.002-3.793-.668-.823-1.68-1.234-3.042-1.234H4.975V15.55h1.108c1.512 0 2.62-.442 3.325-1.33.705-.886 1.059-2.241 1.059-4.066Zm5.163-.177c0 3.105-.845 5.498-2.537 7.177-1.692 1.68-4.07 2.52-7.136 2.52H0V1.067h6.373c2.956 0 5.238.764 6.846 2.291 1.607 1.528 2.412 3.733 2.412 6.619Zm16.5 9.698h4.741V.988h-4.74v18.686Zm11.4-6.968c0 1.191.158 2.1.473 2.724.316.625.844.938 1.587.938.736 0 1.256-.313 1.559-.938.303-.624.454-1.533.454-2.724 0-1.185-.153-2.08-.46-2.683-.308-.605-.833-.908-1.577-.908-.727 0-1.247.302-1.563.901-.315.6-.473 1.497-.473 2.69Zm8.897 0c0 2.27-.603 4.04-1.812 5.31-1.208 1.27-2.899 1.905-5.073 1.905-2.084 0-3.744-.65-4.976-1.948-1.233-1.3-1.85-3.054-1.85-5.267 0-2.263.605-4.021 1.813-5.275 1.21-1.253 2.904-1.88 5.087-1.88 1.348 0 2.541.29 3.575.87a5.906 5.906 0 0 1 2.394 2.494c.562 1.08.842 2.345.842 3.79Zm1.883 6.97h4.741V5.796h-4.74v13.88Zm-.001-15.56h4.74V.988h-4.74v3.128Zm14.346 12.02c.64 0 1.402-.16 2.291-.479v3.492a9.252 9.252 0 0 1-1.824.594c-.578.119-1.255.178-2.031.178-1.592 0-2.74-.395-3.444-1.183-.701-.788-1.053-1.998-1.053-3.63V9.385h-1.66V5.798h1.66V2.254l4.777-.82v4.364h3.025v3.588H67.37v5.402c0 .899.428 1.348 1.284 1.348Zm10.973 0c.64 0 1.403-.16 2.292-.479v3.492a9.24 9.24 0 0 1-1.825.594c-.578.119-1.253.178-2.03.178-1.592 0-2.74-.395-3.443-1.183-.703-.788-1.055-1.998-1.055-3.63V9.385h-1.66V5.798h1.66V2.2l4.777-.766v4.364h3.026v3.588h-3.026v5.402c0 .899.428 1.348 1.284 1.348Zm8.274-5.122c.064-.76.285-1.316.66-1.672.377-.355.843-.533 1.4-.533.608 0 1.09.2 1.449.602.36.399.548.934.563 1.604h-4.072Zm6.685-3.827c-1.127-1.09-2.725-1.636-4.794-1.636-2.174 0-3.847.627-5.02 1.88-1.171 1.254-1.757 3.052-1.757 5.396 0 2.27.633 4.02 1.897 5.25 1.265 1.228 3.041 1.843 5.33 1.843 1.098 0 2.043-.074 2.835-.221a8.287 8.287 0 0 0 2.29-.789l-.729-3.128c-.537.217-1.049.383-1.531.493-.698.16-1.463.24-2.297.24-.914 0-1.635-.22-2.164-.661-.528-.442-.81-1.05-.842-1.826h8.473v-2.131c0-2.05-.563-3.62-1.691-4.71Zm-72.666 3.827c.065-.76.285-1.316.66-1.672.377-.355.843-.533 1.401-.533.607 0 1.09.2 1.448.602.361.399.548.934.565 1.604H21.92Zm6.686-3.827c-1.127-1.09-2.725-1.636-4.794-1.636-2.175 0-3.847.627-5.02 1.88-1.17 1.254-1.758 3.052-1.758 5.396 0 2.27.633 4.02 1.899 5.25 1.264 1.228 3.04 1.843 5.328 1.843 1.098 0 2.043-.074 2.836-.221a8.3 8.3 0 0 0 2.29-.789l-.73-3.128c-.537.217-1.048.383-1.53.493-.7.16-1.464.24-2.297.24-.913 0-1.635-.22-2.164-.661-.53-.442-.81-1.05-.843-1.826h8.474v-2.131c0-2.05-.564-3.62-1.69-4.71Z"/></svg>