<svg xmlns="http://www.w3.org/2000/svg" width="193" height="52" viewBox="0 0 193 52" fill="none">
  <g clip-path="url(#first-media-clip)">
    <path
      d="M85.4548 21.435C86.2796 20.9564 87.1582 20.6871 88.1025 20.6393C88.2818 20.6273 88.4193 20.7948 88.3894 20.9683L87.7379 24.6356C87.714 24.7672 87.6005 24.8689 87.463 24.8689H86.6322C85.4428 24.8689 84.4865 25.1321 83.7633 25.6466C83.0461 26.1671 82.5261 27.0465 82.1974 28.2849C82.1974 28.2909 82.1974 28.3029 82.1914 28.3148L80.739 36.6066C80.7151 36.7382 80.6016 36.8399 80.4641 36.8399H76.9677C76.7943 36.8399 76.6628 36.6844 76.6927 36.5109L79.4182 21.0939C79.4421 20.9623 79.5556 20.8606 79.6931 20.8606H83.1896C83.3629 20.8606 83.4944 21.0162 83.4645 21.1897L83.0999 23.2716C83.082 23.3793 83.2135 23.4331 83.2792 23.3494C83.9127 22.5477 84.6359 21.9076 85.4488 21.435"
      fill="#ADADB0"
    />
    <path
      d="M90.7742 36.3751C89.8239 35.9803 89.0768 35.4359 88.527 34.73C87.9771 34.03 87.7021 33.2283 87.7021 32.319C87.7021 32.1874 87.7201 31.966 87.7619 31.6549H91.4018C91.5572 31.6549 91.6708 31.7806 91.6708 31.9361C91.6827 32.4805 91.8859 32.9292 92.2864 33.2822C92.7466 33.695 93.3981 33.9044 94.2468 33.9044C95.0118 33.9044 95.6513 33.7668 96.1654 33.4856C96.6734 33.2104 96.9304 32.7976 96.9304 32.2592C96.9304 31.7806 96.6973 31.3917 96.2251 31.1046C95.753 30.8174 95.0118 30.4884 93.9898 30.1234C92.9677 29.7585 92.125 29.4055 91.4556 29.0585C90.7802 28.7116 90.2064 28.233 89.7283 27.6168C89.2501 27.0006 89.0111 26.2228 89.0111 25.2836C89.0111 24.3443 89.286 23.5068 89.8359 22.7769C90.3798 22.047 91.1448 21.4787 92.125 21.0779C93.1052 20.6711 94.2289 20.4736 95.496 20.4736C96.763 20.4736 97.7731 20.677 98.6936 21.0779C99.614 21.4847 100.331 22.041 100.839 22.7649C101.347 23.4828 101.604 24.3084 101.604 25.2297C101.604 25.463 101.598 25.6365 101.574 25.7502H98.1078C97.9524 25.7502 97.8389 25.6246 97.8389 25.469C97.8269 24.9246 97.6297 24.4819 97.2531 24.1349C96.8109 23.7281 96.1654 23.5307 95.3226 23.5307C94.6293 23.5307 94.0675 23.6803 93.6252 23.9794C93.1829 24.2785 92.9618 24.6793 92.9618 25.1759C92.9618 25.6724 93.2128 26.0852 93.7089 26.4023C94.205 26.7194 94.976 27.0723 96.0159 27.4552C97.0559 27.862 97.8867 28.227 98.5083 28.568C99.1299 28.903 99.6738 29.3636 100.14 29.9499C100.6 30.5362 100.833 31.2721 100.833 32.1575C100.833 33.1386 100.534 33.9941 99.9427 34.724C99.345 35.4538 98.5322 36.0102 97.4922 36.3991C96.4522 36.782 95.2808 36.9734 93.9778 36.9734C92.8064 36.9734 91.7425 36.776 90.7922 36.3811"
      fill="#ADADB0"
    />
    <path
      d="M107.317 31.7747C107.299 31.8883 107.288 32.0439 107.288 32.2353C107.288 32.6182 107.401 32.8934 107.616 33.0609C107.837 33.2224 108.208 33.3062 108.728 33.3062H110.294C110.467 33.3062 110.599 33.4617 110.569 33.6352L110.061 36.4769C110.037 36.6085 109.923 36.7102 109.786 36.7102H107.455C104.574 36.7102 103.134 35.5077 103.134 33.1028C103.134 32.6421 103.169 32.1874 103.247 31.7447L104.544 24.3743C104.574 24.2008 104.443 24.0452 104.269 24.0452H103.038C102.865 24.0452 102.733 23.8897 102.763 23.7162L103.241 20.9583C103.265 20.8267 103.379 20.7249 103.516 20.7249H104.974C105.112 20.7249 105.225 20.6292 105.249 20.4916L105.859 17.0038C105.883 16.8722 105.997 16.7705 106.134 16.7705H109.63C109.804 16.7705 109.935 16.9261 109.905 17.0995L109.332 20.3959C109.302 20.5694 109.433 20.7249 109.607 20.7249H112.487C112.661 20.7249 112.792 20.8805 112.762 21.054L112.284 23.8119C112.26 23.9435 112.147 24.0452 112.009 24.0452H108.907C108.77 24.0452 108.656 24.141 108.632 24.2786L107.317 31.7806V31.7747Z"
      fill="#ADADB0"
    />
    <path
      d="M115.811 20.7585H118.531L117.993 23.7677C119.32 21.9968 121.28 20.5371 123.749 20.5371C126.217 20.5371 127.131 21.8353 127.131 23.989C128.494 22.0866 130.514 20.5371 133.043 20.5371C136.019 20.5371 136.868 22.4994 136.3 25.6342L134.339 36.7138H131.65L133.485 26.2384C133.897 23.8335 133.294 22.631 131.68 22.631C129.116 22.631 126.97 25.7 126.558 28.0452L125.04 36.7198H122.32L124.155 26.2444C124.567 23.8395 123.964 22.637 122.386 22.637C119.947 22.637 117.861 25.3889 117.294 27.7341L115.71 36.7258H112.99L115.805 20.7704L115.811 20.7585Z"
      fill="#ADADB0"
    />
    <path
      d="M150.244 27.0898C150.274 26.8983 150.274 26.7428 150.274 26.5813C150.274 24.272 148.977 22.6567 146.604 22.6567C143.95 22.6567 142.049 24.6489 141.165 27.0898H150.244ZM137.848 30.4819C137.848 25.6061 141.482 20.5449 147.052 20.5449C150.817 20.5449 152.999 23.0755 152.999 26.4317C152.999 27.2573 152.844 28.3641 152.557 29.1238H140.669C140.639 29.5067 140.603 29.8836 140.603 30.2605C140.603 33.2697 142.276 34.8192 144.87 34.8192C147.464 34.8192 148.857 33.0783 149.771 31.463L152.174 32.0972C150.943 34.6278 148.188 36.943 144.458 36.943C140.316 36.943 137.848 34.538 137.848 30.4879"
      fill="#ADADB0"
    />
    <path
      d="M160.852 34.7824C164.522 34.7824 166.925 30.8878 166.925 27.3462C166.925 24.5583 165.347 22.6918 163.034 22.6918C159.334 22.6918 157.153 26.6821 157.153 30.4152C157.153 33.1372 158.545 34.7824 160.852 34.7824ZM166.261 32.886C164.899 35.2311 162.687 36.9421 159.747 36.9421C156.423 36.9421 154.308 34.6628 154.308 30.834C154.308 25.5155 157.852 20.544 162.597 20.544C165.317 20.544 167.152 22.0636 167.72 24.5942L169.489 14.5615H172.178L168.287 36.7207H165.598L166.261 32.8919V32.886Z"
      fill="#ADADB0"
    />
    <path
      d="M183.344 34.943C185.783 34.943 188.466 33.1363 189.07 29.6904L189.291 28.3921C188.502 29.1818 187.205 29.6604 185.496 29.816C182.842 30.0373 180.625 30.4142 180.625 32.9209C180.625 34.3447 181.892 34.949 183.344 34.949M186.787 22.7207C184.605 22.7207 183.022 23.7976 182.011 25.6342L179.639 25.0001C180.906 22.4994 183.691 20.5371 187.325 20.5371C190.959 20.5371 193.015 22.4994 192.387 26.1427L190.522 36.7138H187.833L188.341 33.8661C186.763 35.8942 184.289 36.9352 181.922 36.9352C179.555 36.9352 177.654 35.7327 177.654 33.5491C177.654 29.9715 180.691 28.2964 185.084 27.9435C187.803 27.6922 189.447 27.4349 189.704 26.1367V26.1068C190.086 24.0189 189.166 22.7207 186.793 22.7207"
      fill="#ADADB0"
    />
    <path d="M174.737 20.7607H177.456L174.641 36.7161H171.922L174.737 20.7607Z" fill="#ADADB0" />
    <path
      d="M178.353 17.21C178.353 18.2091 177.546 19.0168 176.548 19.0168C175.55 19.0168 174.743 18.2091 174.743 17.21C174.743 16.211 175.55 15.4033 176.548 15.4033C177.546 15.4033 178.353 16.211 178.353 17.21Z"
      fill="#ADADB0"
    />
    <path
      d="M77.1657 21.1422C77.1956 20.9687 77.0641 20.8131 76.8908 20.8131H67.2322C67.0529 20.8131 66.9154 20.6396 66.9632 20.4661L67.6267 17.8219C67.8777 16.7809 68.8041 16.051 69.874 16.051C71.1112 16.051 72.0734 17.0082 72.175 18.1629C72.187 18.3124 72.3006 18.4321 72.45 18.4321H74.9603C75.1157 18.4321 75.2471 18.3005 75.2412 18.1389C75.1097 14.681 72.5815 12.635 69.348 12.9461C66.5927 12.9461 64.2079 14.8485 63.5804 17.5287L62.8691 20.5918C62.8392 20.7174 62.7257 20.8071 62.5942 20.8071H59.9644C59.8269 20.8071 59.7133 20.9028 59.6894 21.0404L59.2113 23.7984C59.1814 23.9719 59.3129 24.1274 59.4862 24.1274H61.6319C61.8052 24.1274 61.9367 24.283 61.9068 24.4565L59.7731 36.4634C59.7432 36.6369 59.8747 36.7924 60.048 36.7924H63.5445C63.682 36.7924 63.7955 36.6967 63.8194 36.5591L65.989 24.3607C66.0129 24.2291 66.1265 24.1274 66.264 24.1274H72.2468C72.4201 24.1274 72.5516 24.283 72.5217 24.4565L70.3939 36.5112C70.3641 36.6847 70.4956 36.8403 70.6689 36.8403H74.1653C74.3028 36.8403 74.4164 36.7445 74.4403 36.6069L77.1597 21.1422H77.1657Z"
      fill="#ADADB0"
    />
    <path
      d="M16.3923 11.8976C17.6594 17.5451 21.7715 21.4337 25.5847 20.5782C29.3979 19.7227 31.4659 14.4521 30.1988 8.79862C28.9377 3.15112 24.8196 -0.73751 21.0064 0.11799C17.1932 0.973489 15.1252 6.24408 16.3923 11.8976Z"
      fill="#ADADB0"
    />
    <path
      d="M37.1023 14.3993C32.6555 18.1025 29.7807 21.9851 30.6891 23.074C31.5916 24.1628 35.9308 22.039 40.3776 18.3418C44.8244 14.6386 47.6932 10.756 46.7907 9.66715C45.8882 8.57833 41.5491 10.7021 37.1023 14.3993Z"
      fill="#ADADB0"
    />
    <path
      d="M42.2241 28.0535C36.7015 26.3245 31.8005 26.2886 31.2745 27.9697C30.7485 29.6508 34.7949 32.4207 40.3175 34.1496C45.8401 35.8786 50.7411 35.9145 51.267 34.2334C51.793 32.5523 47.7467 29.7824 42.2241 28.0535Z"
      fill="#ADADB0"
    />
    <path
      d="M33.5165 40.8664C32.2494 35.2189 29.4881 31.0252 27.3425 31.5098C25.1968 31.9884 24.4855 36.9599 25.7466 42.6073C27.0137 48.2548 29.775 52.4486 31.9207 51.964C34.0664 51.4854 34.7776 46.5139 33.5165 40.8664Z"
      fill="#ADADB0"
    />
    <path
      d="M17.8811 40.8523C22.1366 36.9338 24.1986 32.2435 22.4832 30.3829C20.7738 28.5224 15.9326 30.1915 11.6771 34.11C7.42159 38.0286 5.35958 42.7189 7.07493 44.5794C8.79029 46.44 13.6256 44.7709 17.8811 40.8523Z"
      fill="#ADADB0"
    />
    <path
      d="M9.13021 26.6924C14.6528 28.4214 19.7869 27.7095 20.5998 25.1071C21.4126 22.5047 17.5994 18.987 12.0768 17.258C6.55419 15.5291 1.42008 16.241 0.607232 18.8434C-0.205619 21.4458 3.6076 24.9635 9.13021 26.6924Z"
      fill="#ADADB0"
    />
  </g>
  <defs>
    <clipPath id="first-media-clip">
      <rect width="192" height="52" fill="#fff" transform="translate(0.5)" />
    </clipPath>
  </defs>
</svg>
