<svg xmlns="http://www.w3.org/2000/svg" width="48" height="48" viewBox="0 0 48 48" fill="none">
    <g clip-path="url(#clip0_1895_40428)">
        <path d="M0 -0.0859375H48V47.8699H0V-0.0859375Z" fill="#ADADB0"/>
        <path d="M12.0059 32.0318H36.0201V35.9251H12.0059V32.0318ZM23.9128 11.9516H27.9703L29.9555 25.1349L31.9851 11.9516H35.9982V29.9642H33.3239V16.399L31.0701 29.9642H28.7593L26.5847 16.399V29.9377H23.9128V11.9516ZM18.3519 17.6711H21.094V16.3988C21.094 15.153 21.094 11.5781 16.5069 11.5781C12.0213 11.5781 12.0213 15.6606 12.0213 16.3988V25.7609C12.0213 28.4942 13.0217 30.285 15.6143 30.3024C17.1469 30.3048 18.2155 29.3466 18.4421 28.982V29.9377L21.094 29.964V20.2043H16.7797V22.3707H18.3519V25.2228C18.3519 26.6686 17.8989 27.6526 16.5509 27.6526C15.2007 27.6526 14.772 26.6047 14.772 25.2226V16.3988C14.772 15.6825 14.772 14.0479 16.5509 14.0479C18.3519 14.0479 18.3519 15.709 18.3519 16.3988V17.6711Z" fill="#19191C"/>
    </g>
    <defs>
        <clipPath id="clip0_1895_40428">
            <rect width="48" height="48" fill="white"/>
        </clipPath>
    </defs>
</svg>