<svg xmlns="http://www.w3.org/2000/svg" width="74" height="30" fill="none"><g fill="#ADADB0" clip-path="url(#a)"><path d="M0 27.793h14.388v2.08H0v-2.08ZM0 23.8h14.388v2.088H0V23.8Zm4.105-3.98h6.172v2.087H4.105V19.82Zm0-3.98h6.172v2.087H4.105V15.84Zm0-3.98h6.172v2.086H4.105V11.86Zm0-3.989h6.172v2.087H4.105V7.871Zm10.283-3.984H0v2.087h14.388V3.887Zm0-3.981H0v2.087h14.388V-.094Zm2.053 25.982H38.57a7.456 7.456 0 0 0 .822-2.087H16.44v2.087ZM36.846 15.84H20.553v2.087h18.016a8.335 8.335 0 0 0-1.723-2.087Zm-16.293-3.98v2.086h16.293a7.75 7.75 0 0 0 1.723-2.087H20.553ZM38.57 3.887H16.44v2.087h22.95a9.08 9.08 0 0 0-.821-2.087ZM31.768-.094H16.44v2.087h20.611a7.74 7.74 0 0 0-5.284-2.087Zm-5.051 7.965h-6.164v2.087h6.164V7.871Zm6.172 2.087h6.45a7.883 7.883 0 0 0 .278-2.087H32.89v2.087ZM20.553 19.82h6.164v2.087h-6.164V19.82Zm12.336 0v2.087h6.728c0-.718-.095-1.42-.278-2.087h-6.45ZM16.441 29.858l15.327.022a7.75 7.75 0 0 0 5.292-2.087H16.44v2.065Zm24.67-2.065h10.276v2.08H41.111v-2.08Zm0-3.993h10.276v2.088H41.111V23.8Zm4.106-3.98h6.171v2.087h-6.171V19.82Zm-.002-3.98h6.171v2.087h-6.171V15.84Zm9.031-11.953H41.111v2.087h13.846l-.711-2.087ZM52.883-.094H41.11v2.087h12.483l-.711-2.087Zm10.832 27.887h10.283v2.08H63.715v-2.08Zm0-3.993h10.283v2.088H63.715V23.8Zm.002-3.98h6.171v2.087h-6.171V19.82Zm-.002-3.98h6.171v2.087h-6.171V15.84Zm.002-1.894h6.171V11.86H58.132l-.58 1.688-.578-1.688H45.216v2.087h6.171V12.03l.653 1.916h11.024l.652-1.916v1.916Zm6.171-6.075H59.494l-.71 2.087h11.104V7.871ZM62.229-.094l-.711 2.087H74V-.094H62.229ZM57.55 29.858l.712-2.065H56.84l.71 2.065Zm-1.362-3.97h2.727l.733-2.087h-4.185l.725 2.087Zm-1.384-3.981H60.3l.726-2.087h-6.949l.726 2.087Zm-1.378-3.98h8.26l.704-2.087h-9.675l.71 2.087Zm-8.211-7.969h11.104l-.71-2.087H45.214v2.087Zm14.939-3.984H74V3.887H60.858l-.704 2.087Z"/></g><defs><clipPath id="a"><path fill="#fff" d="M0 0h74v30H0z"/></clipPath></defs></svg>