<svg xmlns="http://www.w3.org/2000/svg" width="74" height="30" fill="none"><g fill="#ADADB0" clip-path="url(#a)"><path d="M0 27.793h14.388v2.08H0v-2.08ZM0 23.8h14.388v2.088H0V23.8ZM4.105 19.82h6.172v2.087H4.105V19.82ZM4.105 15.84h6.172v2.087H4.105V15.84ZM4.105 11.86h6.172v2.086H4.105V11.86ZM4.105 7.871h6.172v2.087H4.105V7.871ZM14.388 3.887H0v2.087h14.388V3.887ZM14.388-.094H0v2.087h14.388V-.094ZM16.441 25.888H38.57a7.456 7.456 0 0 0 .822-2.087H16.44v2.087ZM36.846 15.84H20.553v2.087h18.016a8.335 8.335 0 0 0-1.723-2.087ZM20.553 11.86v2.086h16.293a7.75 7.75 0 0 0 1.723-2.087H20.553ZM38.57 3.887H16.44v2.087h22.95a9.08 9.08 0 0 0-.821-2.087ZM31.768-.094H16.44v2.087h20.611a7.74 7.74 0 0 0-5.284-2.087ZM26.717 7.871h-6.164v2.087h6.164V7.871ZM32.889 9.958h6.45c.183-.666.278-1.369.278-2.087H32.89v2.087ZM20.553 19.82h6.164v2.087h-6.164V19.82ZM32.889 19.82v2.087h6.728c0-.718-.095-1.42-.278-2.087h-6.45ZM16.441 29.858l15.327.022c2.052 0 3.906-.8 5.292-2.087H16.44v2.065ZM41.111 27.793h10.276v2.08H41.111v-2.08ZM41.111 23.8h10.276v2.088H41.111V23.8ZM45.217 19.82h6.171v2.087h-6.171V19.82ZM45.215 15.84h6.171v2.087h-6.171V15.84ZM54.246 3.887H41.111v2.087h13.846l-.711-2.087ZM52.883-.094H41.11v2.087h12.483l-.711-2.087ZM63.715 27.793h10.283v2.08H63.715v-2.08ZM63.715 23.8h10.283v2.088H63.715V23.8ZM63.717 19.82h6.171v2.087h-6.171V19.82ZM63.715 15.84h6.171v2.087h-6.171V15.84ZM63.717 13.946h6.171V11.86H58.132l-.58 1.688-.578-1.688H45.216v2.087h6.171V12.03l.653 1.916h11.024l.652-1.916v1.916ZM69.888 7.871H59.494l-.71 2.087h11.104V7.871ZM62.229-.094l-.711 2.087H74V-.094H62.229ZM57.55 29.858l.712-2.065H56.84l.71 2.065ZM56.188 25.888h2.727l.733-2.087h-4.185l.725 2.087ZM54.804 21.907H60.3l.726-2.087h-6.949l.726 2.087ZM53.426 17.927h8.26l.704-2.087h-9.675l.71 2.087ZM45.215 9.958h11.104l-.71-2.087H45.214v2.087ZM60.154 5.974H74V3.887H60.858l-.704 2.087Z"/></g><defs><clipPath id="a"><path fill="#fff" d="M0 0h74v30H0z"/></clipPath></defs></svg>