<svg xmlns="http://www.w3.org/2000/svg" width="76" height="30" fill="none"><g fill="#ADADB0" clip-path="url(#a)"><path d="M6.303.906h-5.4V6.31h5.4V.906ZM6.17 29.05V9.574H1.036V29.03H6.17v.02Zm33.982.192v-4.768c-.75 0-1.384-.038-1.845-.115-.538-.077-.942-.27-1.211-.539-.27-.269-.442-.653-.538-1.172-.077-.481-.116-1.115-.116-1.884v-6.787h3.71V9.574h-3.71V2H31.31v18.82c0 1.596.135 2.942.404 4.018.269 1.058.73 1.923 1.365 2.577.634.653 1.48 1.115 2.498 1.403 1.038.288 2.345.423 3.902.423h.673Zm29.37-.192V.5H64.39v28.55h5.132ZM26.37 11.497c-1.422-1.538-3.42-2.307-5.958-2.307-1.23 0-2.364.25-3.364.75a7.261 7.261 0 0 0-2.556 2.076l-.27.365V9.575H9.169V29.03h5.093V18.667v.711-.346c.058-1.826.5-3.172 1.346-4.037.903-.923 1.999-1.384 3.248-1.384 1.48 0 2.614.461 3.364 1.345.73.885 1.114 2.134 1.114 3.73V29.03h5.171V17.995c.02-2.768-.711-4.96-2.134-6.498Zm35.367 7.786c0-1.403-.25-2.71-.73-3.941a10.55 10.55 0 0 0-2.057-3.21c-.884-.923-1.941-1.635-3.171-2.154-1.23-.519-2.595-.769-4.075-.769-1.403 0-2.73.27-3.96.788-1.23.539-2.306 1.25-3.21 2.154a10.027 10.027 0 0 0-2.152 3.21c-.539 1.23-.788 2.557-.788 3.96 0 1.404.25 2.73.75 3.961a9.882 9.882 0 0 0 2.094 3.21c.884.904 1.98 1.635 3.249 2.154 1.268.538 2.671.807 4.17.807 4.345 0 7.035-1.98 8.65-3.825l-3.69-2.807c-.77.922-2.614 2.172-4.921 2.172-1.442 0-2.633-.327-3.537-1-.903-.653-1.518-1.576-1.845-2.71l-.058-.173h15.281v-1.827Zm-15.242-1.788c0-1.422 1.634-3.903 5.151-3.922 3.518 0 5.17 2.48 5.17 3.903l-10.321.02Zm28.87 9.094a1.817 1.817 0 0 0-.404-.596 1.914 1.914 0 0 0-1.326-.558c-.27 0-.5.058-.73.154-.231.096-.423.23-.596.404a1.914 1.914 0 0 0-.557 1.327c0 .269.057.5.153.73.096.23.23.423.404.596a1.913 1.913 0 0 0 1.326.557c.27 0 .5-.057.73-.153.231-.096.423-.231.596-.404a1.914 1.914 0 0 0 .557-1.327c0-.25-.057-.5-.153-.73Zm-.308 1.346a1.503 1.503 0 0 1-.326.5c-.135.134-.308.25-.5.326a1.593 1.593 0 0 1-.615.116 1.66 1.66 0 0 1-.615-.116 1.504 1.504 0 0 1-.5-.326 1.504 1.504 0 0 1-.327-.5 1.594 1.594 0 0 1-.115-.616c0-.211.038-.422.115-.615.077-.192.192-.365.327-.5a1.59 1.59 0 0 1 1.115-.442c.211 0 .423.039.615.116.192.076.365.192.5.326.134.135.25.308.326.5.077.192.116.385.116.615 0 .231-.039.423-.116.616Zm-1.076-.443a.595.595 0 0 0 .365-.173c.096-.096.154-.23.154-.422 0-.212-.058-.366-.192-.481-.116-.116-.327-.173-.577-.173h-.846v2.172h.404v-.884h.288l.538.884h.423l-.557-.923Zm-.212-.326h-.48v-.616h.48c.058 0 .116.02.173.039a.2.2 0 0 1 .116.096c.038.038.038.096.038.173a.386.386 0 0 1-.038.173.509.509 0 0 1-.116.096.561.561 0 0 1-.172.039Z"/></g><defs><clipPath id="a"><path fill="#fff" d="M0 0h76v30H0z"/></clipPath></defs></svg>