<svg xmlns="http://www.w3.org/2000/svg" width="88" height="32" viewBox="0 0 2048 747" fill="none" aria-hidden="true">
	<defs>
		<clipPath id="majik-kids-trusted-clip">
			<rect width="2048" height="747" />
		</clipPath>
	</defs>
	<g clip-path="url(#majik-kids-trusted-clip)">
		<path fill="#ADADB0" fill-rule="evenodd" d="M 859 304 L 856 305 L 850 313 L 850 545 L 852 549 L 858 553 L 936 553 L 941 550 L 944 545 L 944 313 L 943 310 L 938 305 L 935 304 Z M 798 304 L 720 304 L 712 312 L 712 619 L 711 620 L 711 626 L 708 635 L 708 639 L 704 647 L 694 656 L 687 660 L 678 662 L 664 661 L 652 657 L 639 650 L 634 650 L 628 653 L 619 669 L 602 705 L 599 709 L 599 718 L 605 726 L 609 727 L 610 729 L 632 739 L 659 746 L 702 746 L 726 740 L 747 730 L 750 727 L 752 727 L 758 723 L 775 707 L 786 692 L 798 666 L 803 648 L 805 630 L 806 629 L 806 312 L 804 308 Z M 476 310 L 472 317 L 472 323 L 473 324 L 473 330 L 475 337 L 479 368 L 481 373 L 484 376 L 491 378 L 508 373 L 516 373 L 517 372 L 535 370 L 536 369 L 545 369 L 546 368 L 570 369 L 580 373 L 585 378 L 589 388 L 590 401 L 587 402 L 584 400 L 571 396 L 561 394 L 554 394 L 553 393 L 523 394 L 513 396 L 494 403 L 491 406 L 486 408 L 481 412 L 479 412 L 472 419 L 461 433 L 455 445 L 452 454 L 452 463 L 451 464 L 452 500 L 455 510 L 467 530 L 479 542 L 491 550 L 514 558 L 526 559 L 527 560 L 548 560 L 571 555 L 579 551 L 587 549 L 600 540 L 611 530 L 613 532 L 621 549 L 627 553 L 664 553 L 669 550 L 671 545 L 671 387 L 670 386 L 670 377 L 669 376 L 669 365 L 666 353 L 660 339 L 650 326 L 649 323 L 640 315 L 636 314 L 623 306 L 607 301 L 591 299 L 590 298 L 556 297 L 555 298 L 530 299 L 529 300 L 521 300 L 520 301 L 513 301 L 506 303 L 494 304 L 489 306 L 485 306 Z M 553 446 L 564 446 L 569 448 L 581 458 L 585 467 L 585 476 L 583 482 L 579 488 L 570 495 L 561 498 L 555 498 L 549 496 L 541 491 L 535 484 L 532 477 L 532 466 L 537 456 L 541 452 Z M 0 310 L 0 548 L 3 551 L 7 553 L 82 553 L 88 549 L 90 544 L 90 414 L 98 395 L 110 385 L 125 379 L 140 379 L 153 384 L 163 394 L 169 406 L 171 414 L 171 422 L 172 423 L 172 547 L 178 553 L 249 553 L 254 550 L 255 548 L 255 417 L 256 412 L 261 400 L 270 390 L 279 383 L 291 379 L 304 379 L 314 382 L 323 388 L 330 395 L 334 402 L 334 406 L 337 413 L 337 419 L 338 420 L 338 546 L 340 550 L 345 553 L 421 553 L 428 548 L 429 545 L 429 415 L 428 414 L 428 405 L 427 404 L 426 393 L 423 381 L 413 357 L 413 354 L 399 334 L 386 321 L 378 315 L 358 305 L 342 300 L 332 298 L 321 298 L 320 297 L 296 298 L 277 303 L 251 315 L 236 326 L 229 334 L 226 334 L 213 320 L 205 314 L 199 312 L 196 309 L 188 305 L 180 303 L 177 301 L 163 298 L 139 297 L 138 298 L 124 299 L 103 306 L 97 310 L 87 314 L 78 320 L 76 323 L 63 334 L 61 334 L 54 314 L 51 309 L 44 304 L 7 304 L 2 307 Z M 1555 267 L 1545 267 L 1543 270 L 1543 277 L 1542 278 L 1542 285 L 1541 286 L 1541 293 L 1540 294 L 1540 301 L 1539 302 L 1539 309 L 1538 310 L 1538 317 L 1536 326 L 1536 341 L 1535 342 L 1535 349 L 1534 350 L 1534 357 L 1533 358 L 1533 365 L 1532 366 L 1532 373 L 1530 382 L 1530 390 L 1529 391 L 1526 421 L 1525 422 L 1525 430 L 1523 438 L 1523 446 L 1520 462 L 1520 470 L 1518 478 L 1518 486 L 1516 494 L 1516 510 L 1515 511 L 1512 542 L 1510 550 L 1510 556 L 1517 559 L 1544 560 L 1546 558 L 1547 512 L 1548 511 L 1549 465 L 1550 464 L 1551 418 L 1552 417 L 1552 394 L 1553 393 L 1554 347 L 1555 346 L 1555 299 L 1556 298 L 1556 276 L 1557 275 L 1557 269 Z M 1538 488 L 1539 489 L 1539 504 L 1538 505 L 1537 537 L 1536 538 L 1536 549 L 1534 550 L 1533 545 L 1534 544 L 1534 533 L 1535 532 L 1535 511 L 1536 510 L 1536 500 L 1537 499 L 1537 489 Z M 1539 476 L 1540 477 L 1540 488 L 1539 489 L 1538 488 L 1538 477 Z M 1540 465 L 1541 466 L 1540 471 L 1539 470 Z M 1942 248 L 1941 249 L 1927 250 L 1915 253 L 1912 255 L 1909 255 L 1894 264 L 1884 276 L 1878 288 L 1874 304 L 1874 317 L 1873 320 L 1874 321 L 1874 333 L 1876 341 L 1880 351 L 1890 364 L 1897 371 L 1902 373 L 1910 379 L 1926 387 L 1928 387 L 1932 390 L 1940 393 L 1947 394 L 1949 396 L 1968 403 L 1970 405 L 1984 412 L 1986 412 L 2001 425 L 2008 434 L 2008 437 L 2013 450 L 2013 468 L 2010 479 L 2008 482 L 2008 486 L 1997 501 L 1986 511 L 1965 519 L 1950 520 L 1949 519 L 1935 518 L 1926 515 L 1920 511 L 1918 511 L 1911 504 L 1907 492 L 1907 486 L 1906 485 L 1907 472 L 1911 452 L 1875 452 L 1872 451 L 1872 475 L 1873 476 L 1873 490 L 1877 510 L 1884 526 L 1896 540 L 1915 550 L 1921 550 L 1932 553 L 1958 554 L 1959 553 L 1968 553 L 1978 550 L 1984 550 L 1992 547 L 2007 539 L 2019 530 L 2028 521 L 2028 519 L 2033 512 L 2035 511 L 2041 499 L 2047 479 L 2047 444 L 2041 422 L 2036 412 L 2028 402 L 2028 400 L 2021 393 L 2006 381 L 1992 373 L 1989 373 L 1966 362 L 1933 350 L 1924 344 L 1912 332 L 1910 327 L 1910 307 L 1916 295 L 1922 290 L 1931 285 L 1946 282 L 1957 283 L 1963 286 L 1969 292 L 1977 304 L 1982 320 L 1994 320 L 1995 319 L 2005 319 L 2006 318 L 2016 318 L 2018 317 L 2017 297 L 2014 283 L 2007 266 L 2000 258 L 1996 255 L 1993 255 L 1986 251 L 1977 249 Z M 891 192 L 890 193 L 890 198 L 891 199 L 904 201 L 911 205 L 922 217 L 924 223 L 925 234 L 931 234 L 932 233 L 932 221 L 931 217 L 925 207 L 925 205 L 915 196 L 912 196 L 903 192 Z M 874 176 L 866 180 L 865 182 L 858 187 L 852 195 L 849 197 L 846 203 L 846 207 L 844 210 L 842 218 L 842 236 L 847 254 L 852 261 L 867 275 L 886 282 L 906 282 L 917 279 L 924 275 L 926 275 L 933 270 L 942 260 L 947 251 L 951 238 L 951 231 L 952 230 L 951 216 L 944 197 L 933 185 L 920 176 L 915 176 L 907 173 L 886 173 L 878 176 Z M 894 180 L 900 180 L 912 183 L 923 189 L 931 196 L 936 202 L 941 212 L 944 224 L 944 231 L 942 240 L 935 254 L 920 268 L 908 273 L 898 275 L 888 274 L 879 271 L 869 265 L 855 249 L 850 235 L 850 219 L 853 210 L 858 201 L 873 187 L 887 181 L 893 181 Z M 754 157 L 753 158 L 754 164 L 763 165 L 769 168 L 779 178 L 782 192 L 785 193 L 788 192 L 789 182 L 787 174 L 784 169 L 776 161 L 768 157 Z M 750 141 L 737 146 L 731 150 L 723 158 L 716 171 L 714 179 L 714 194 L 718 206 L 722 213 L 728 220 L 735 225 L 748 231 L 754 231 L 755 232 L 770 231 L 779 228 L 786 224 L 799 210 L 805 194 L 805 178 L 800 164 L 796 158 L 787 149 L 778 144 L 768 141 Z M 758 149 L 767 150 L 782 157 L 791 168 L 796 180 L 796 193 L 793 201 L 787 209 L 787 211 L 783 215 L 771 221 L 764 223 L 750 222 L 735 214 L 728 206 L 728 203 L 723 192 L 723 180 L 729 165 L 737 157 L 749 151 Z M 1790 120 L 1789 121 L 1781 121 L 1778 136 L 1778 142 L 1777 143 L 1777 154 L 1776 155 L 1777 194 L 1778 195 L 1779 213 L 1780 214 L 1781 230 L 1782 231 L 1784 255 L 1785 256 L 1785 265 L 1786 266 L 1787 331 L 1785 332 L 1769 324 L 1748 318 L 1717 317 L 1695 322 L 1680 329 L 1669 336 L 1651 354 L 1638 373 L 1634 381 L 1634 384 L 1629 394 L 1623 415 L 1622 430 L 1621 431 L 1621 455 L 1626 480 L 1635 500 L 1642 509 L 1651 516 L 1654 520 L 1673 530 L 1693 534 L 1727 534 L 1744 530 L 1750 530 L 1771 522 L 1789 511 L 1791 521 L 1792 596 L 1797 596 L 1798 595 L 1811 595 L 1812 594 L 1822 593 L 1832 589 L 1836 589 L 1838 588 L 1838 586 L 1835 579 L 1831 562 L 1831 551 L 1829 542 L 1828 519 L 1827 518 L 1825 467 L 1824 466 L 1824 443 L 1823 442 L 1823 401 L 1822 400 L 1822 280 L 1821 279 L 1821 263 L 1820 262 L 1820 252 L 1819 251 L 1819 241 L 1818 240 L 1817 219 L 1816 218 L 1816 205 L 1815 204 L 1816 158 L 1820 140 L 1823 132 L 1823 127 L 1809 121 Z M 1784 371 L 1787 374 L 1787 424 L 1788 425 L 1788 444 L 1789 445 L 1789 469 L 1782 471 L 1772 478 L 1771 480 L 1751 491 L 1747 491 L 1725 498 L 1697 499 L 1683 495 L 1675 491 L 1667 483 L 1660 470 L 1658 461 L 1658 439 L 1664 417 L 1671 405 L 1674 397 L 1693 374 L 1715 359 L 1734 353 L 1749 354 L 1762 359 Z M 994 118 L 988 125 L 988 546 L 989 548 L 996 553 L 1074 553 L 1080 550 L 1082 546 L 1082 446 L 1083 445 L 1098 462 L 1102 469 L 1118 489 L 1122 492 L 1124 497 L 1135 511 L 1139 514 L 1142 518 L 1142 520 L 1159 540 L 1165 550 L 1167 550 L 1171 553 L 1265 553 L 1272 547 L 1272 538 L 1270 534 L 1260 524 L 1259 521 L 1241 502 L 1236 494 L 1223 481 L 1218 473 L 1212 468 L 1201 455 L 1201 453 L 1195 448 L 1171 420 L 1173 415 L 1180 409 L 1185 401 L 1198 388 L 1203 380 L 1220 362 L 1221 359 L 1240 339 L 1240 337 L 1251 326 L 1255 319 L 1254 310 L 1249 305 L 1246 304 L 1167 304 L 1164 305 L 1151 316 L 1139 332 L 1132 338 L 1122 351 L 1083 395 L 1082 394 L 1082 125 L 1079 120 L 1074 117 L 996 117 Z M 1250 85 L 1249 87 L 1250 88 L 1253 136 L 1254 137 L 1256 169 L 1257 170 L 1258 190 L 1259 191 L 1259 200 L 1260 201 L 1260 220 L 1261 221 L 1261 230 L 1262 231 L 1263 249 L 1265 259 L 1265 268 L 1267 277 L 1267 286 L 1269 295 L 1270 313 L 1272 322 L 1272 331 L 1274 340 L 1274 349 L 1276 358 L 1278 386 L 1280 395 L 1280 413 L 1281 414 L 1281 424 L 1282 425 L 1284 453 L 1285 454 L 1289 509 L 1290 510 L 1290 521 L 1291 522 L 1291 534 L 1292 535 L 1296 610 L 1291 629 L 1308 629 L 1309 628 L 1317 628 L 1332 625 L 1329 556 L 1328 555 L 1326 517 L 1325 516 L 1325 505 L 1324 504 L 1324 493 L 1323 492 L 1323 483 L 1322 482 L 1322 471 L 1321 470 L 1319 442 L 1337 427 L 1349 414 L 1356 409 L 1378 451 L 1384 466 L 1388 472 L 1398 494 L 1399 500 L 1403 510 L 1405 512 L 1411 530 L 1413 532 L 1417 544 L 1417 549 L 1419 552 L 1422 563 L 1437 598 L 1438 605 L 1443 614 L 1448 628 L 1451 632 L 1457 647 L 1457 651 L 1459 656 L 1463 656 L 1476 650 L 1478 648 L 1482 648 L 1495 642 L 1497 640 L 1508 636 L 1511 634 L 1511 632 L 1486 607 L 1476 593 L 1475 589 L 1472 586 L 1457 559 L 1456 553 L 1451 545 L 1448 536 L 1440 520 L 1431 494 L 1417 463 L 1416 456 L 1412 449 L 1407 435 L 1398 417 L 1398 413 L 1396 411 L 1384 383 L 1407 356 L 1416 351 L 1418 348 L 1431 340 L 1438 334 L 1442 333 L 1467 315 L 1471 314 L 1472 311 L 1449 284 L 1444 275 L 1442 274 L 1437 263 L 1418 285 L 1415 291 L 1411 294 L 1399 309 L 1398 312 L 1383 330 L 1378 334 L 1378 336 L 1372 343 L 1339 376 L 1328 389 L 1316 401 L 1315 400 L 1313 377 L 1312 376 L 1311 361 L 1309 352 L 1308 334 L 1307 333 L 1305 300 L 1304 299 L 1304 289 L 1303 288 L 1303 278 L 1302 277 L 1302 267 L 1301 266 L 1301 256 L 1300 255 L 1300 245 L 1299 244 L 1299 223 L 1298 222 L 1298 213 L 1297 212 L 1297 201 L 1296 200 L 1296 190 L 1295 189 L 1295 179 L 1294 178 L 1294 168 L 1293 167 L 1293 157 L 1292 156 L 1292 146 L 1291 145 L 1290 124 L 1289 123 L 1289 113 L 1288 112 L 1288 98 L 1289 97 L 1290 83 L 1280 81 L 1267 81 Z M 815 67 L 813 69 L 813 75 L 826 78 L 833 88 L 834 96 L 835 97 L 841 97 L 842 96 L 842 86 L 840 80 L 829 70 L 825 68 Z M 812 53 L 798 59 L 791 66 L 787 73 L 785 83 L 785 93 L 787 102 L 790 108 L 796 115 L 810 122 L 826 123 L 842 117 L 851 106 L 855 96 L 855 79 L 850 68 L 846 62 L 841 58 L 828 53 Z M 820 60 L 829 62 L 836 66 L 844 75 L 846 79 L 846 85 L 847 86 L 846 97 L 843 102 L 835 110 L 825 115 L 816 115 L 808 112 L 800 105 L 793 92 L 794 80 L 798 73 L 809 63 Z M 1564 0 L 1562 0 L 1560 10 L 1560 15 L 1555 38 L 1555 47 L 1545 97 L 1544 98 L 1522 78 L 1520 78 L 1505 64 L 1503 64 L 1503 66 L 1514 80 L 1522 94 L 1533 108 L 1532 109 L 1486 113 L 1485 114 L 1476 114 L 1475 115 L 1455 116 L 1454 117 L 1434 117 L 1434 119 L 1443 120 L 1497 131 L 1529 136 L 1531 138 L 1502 173 L 1498 176 L 1498 178 L 1506 175 L 1528 158 L 1532 157 L 1542 149 L 1543 150 L 1552 249 L 1554 248 L 1555 233 L 1564 189 L 1565 178 L 1570 157 L 1570 152 L 1571 151 L 1574 152 L 1578 157 L 1580 157 L 1601 176 L 1603 176 L 1613 184 L 1610 177 L 1605 172 L 1593 153 L 1583 140 L 1584 138 L 1611 137 L 1612 136 L 1622 136 L 1623 135 L 1633 135 L 1634 134 L 1682 130 L 1681 128 L 1676 128 L 1671 126 L 1660 125 L 1622 117 L 1607 116 L 1585 111 L 1585 109 L 1610 79 L 1614 76 L 1617 69 L 1614 70 L 1613 72 L 1606 77 L 1602 78 L 1596 82 L 1594 85 L 1575 98 L 1573 97 Z" />
	</g>
</svg>
