<svg xmlns="http://www.w3.org/2000/svg" width="197" height="32" viewBox="0 0 2001 325" fill="none" aria-hidden="true">
  <path d="M 302.00 118.50 L 291.00 118.50 L 290.00 117.50 L 285.00 117.50 L 284.00 116.50 L 282.00 116.50 L 281.00 115.50 L 279.00 115.50 L 278.00 114.50 L 277.00 114.50 L 276.00 113.50 L 275.00 113.50 L 274.00 112.50 L 273.00 112.50 L 271.00 110.50 L 270.00 110.50 L 268.00 108.50 L 267.00 108.50 L 265.00 106.50 L 264.00 106.50 L 262.00 104.50 L 261.00 104.50 L 258.00 101.50 L 257.00 101.50 L 253.00 97.50 L 252.00 97.50 L 248.00 93.50 L 247.00 93.50 L 245.00 91.50 L 244.00 91.50 L 242.00 89.50 L 241.00 89.50 L 240.00 88.50 L 239.00 88.50 L 237.00 86.50 L 236.00 86.50 L 235.00 85.50 L 234.00 85.50 L 233.00 84.50 L 232.00 84.50 L 231.00 83.50 L 230.00 83.50 L 229.00 82.50 L 227.00 82.50 L 226.00 81.50 L 224.00 81.50 L 223.00 80.50 L 220.00 80.50 L 219.00 79.50 L 214.00 79.50 L 213.00 78.50 L 206.00 78.50 L 205.00 77.50 L 195.00 77.50 L 194.00 76.50 L 180.00 76.50 L 179.00 75.50 L 174.00 75.50 L 173.00 74.50 L 170.00 74.50 L 169.00 73.50 L 167.00 73.50 L 166.00 72.50 L 164.00 72.50 L 163.00 71.50 L 162.00 71.50 L 161.00 70.50 L 160.00 70.50 L 159.00 69.50 L 158.00 69.50 L 157.00 68.50 L 156.00 68.50 L 155.00 67.50 L 154.00 67.50 L 144.50 58.00 L 144.50 57.00 L 143.50 56.00 L 143.50 55.00 L 142.50 54.00 L 142.50 53.00 L 141.50 52.00 L 141.50 50.00 L 140.50 49.00 L 140.50 47.00 L 139.50 46.00 L 139.50 36.00 L 140.50 35.00 L 140.50 32.00 L 141.50 31.00 L 141.50 29.00 L 142.50 28.00 L 142.50 27.00 L 143.50 26.00 L 143.50 25.00 L 146.50 22.00 L 146.50 21.00 L 152.00 15.50 L 153.00 15.50 L 155.00 13.50 L 156.00 13.50 L 157.00 12.50 L 158.00 12.50 L 159.00 11.50 L 161.00 11.50 L 162.00 10.50 L 164.00 10.50 L 165.00 9.50 L 168.00 9.50 L 169.00 8.50 L 184.00 8.50 L 185.00 9.50 L 194.00 9.50 L 195.00 10.50 L 209.00 10.50 L 210.00 11.50 L 259.00 11.50 L 260.00 12.50 L 266.00 12.50 L 267.00 13.50 L 272.00 13.50 L 273.00 14.50 L 275.00 14.50 L 276.00 15.50 L 279.00 15.50 L 280.00 16.50 L 282.00 16.50 L 283.00 17.50 L 284.00 17.50 L 285.00 18.50 L 286.00 18.50 L 287.00 19.50 L 289.00 19.50 L 291.00 21.50 L 292.00 21.50 L 293.00 22.50 L 294.00 22.50 L 296.00 24.50 L 297.00 24.50 L 301.00 28.50 L 302.00 28.50 L 305.50 32.00 L 305.50 33.00 L 309.50 37.00 L 309.50 38.00 L 311.50 40.00 L 311.50 41.00 L 313.50 43.00 L 313.50 44.00 L 314.50 45.00 L 314.50 46.00 L 315.50 47.00 L 315.50 48.00 L 316.50 49.00 L 316.50 50.00 L 317.50 51.00 L 317.50 53.00 L 318.50 54.00 L 318.50 56.00 L 319.50 57.00 L 319.50 59.00 L 320.50 60.00 L 320.50 62.00 L 321.50 63.00 L 321.50 67.00 L 322.50 68.00 L 322.50 74.00 L 323.50 75.00 L 323.50 80.00 L 324.50 81.00 L 324.50 95.00 L 323.50 96.00 L 323.50 100.00 L 322.50 101.00 L 322.50 103.00 L 321.50 104.00 L 321.50 105.00 L 320.50 106.00 L 320.50 107.00 L 318.50 109.00 L 318.50 110.00 L 316.00 112.50 L 315.00 112.50 L 313.00 114.50 L 312.00 114.50 L 311.00 115.50 L 310.00 115.50 L 309.00 116.50 L 308.00 116.50 L 307.00 117.50 L 303.00 117.50 L 302.00 118.50 Z M 42.00 184.50 L 39.00 184.50 L 38.00 183.50 L 33.00 183.50 L 32.00 182.50 L 31.00 182.50 L 30.00 181.50 L 28.00 181.50 L 27.00 180.50 L 26.00 180.50 L 24.00 178.50 L 23.00 178.50 L 20.00 175.50 L 19.00 175.50 L 18.50 175.00 L 18.50 174.00 L 14.50 170.00 L 14.50 169.00 L 13.50 168.00 L 13.50 167.00 L 12.50 166.00 L 12.50 165.00 L 11.50 164.00 L 11.50 163.00 L 10.50 162.00 L 10.50 160.00 L 9.50 159.00 L 9.50 156.00 L 8.50 155.00 L 8.50 140.00 L 9.50 139.00 L 9.50 129.00 L 10.50 128.00 L 10.50 115.00 L 11.50 114.00 L 11.50 65.00 L 12.50 64.00 L 12.50 57.00 L 13.50 56.00 L 13.50 52.00 L 14.50 51.00 L 14.50 48.00 L 15.50 47.00 L 15.50 45.00 L 16.50 44.00 L 16.50 42.00 L 17.50 41.00 L 17.50 39.00 L 18.50 38.00 L 18.50 37.00 L 19.50 36.00 L 19.50 35.00 L 20.50 34.00 L 20.50 33.00 L 21.50 32.00 L 21.50 31.00 L 23.50 29.00 L 23.50 28.00 L 26.50 25.00 L 26.50 24.00 L 35.00 15.50 L 36.00 15.50 L 39.00 12.50 L 40.00 12.50 L 42.00 10.50 L 43.00 10.50 L 44.00 9.50 L 45.00 9.50 L 46.00 8.50 L 47.00 8.50 L 48.00 7.50 L 49.00 7.50 L 50.00 6.50 L 52.00 6.50 L 53.00 5.50 L 54.00 5.50 L 55.00 4.50 L 57.00 4.50 L 58.00 3.50 L 61.00 3.50 L 62.00 2.50 L 65.00 2.50 L 66.00 1.50 L 71.00 1.50 L 72.00 0.50 L 77.00 0.50 L 78.00 -0.50 L 97.00 -0.50 L 98.00 0.50 L 101.00 0.50 L 102.00 1.50 L 104.00 1.50 L 105.00 2.50 L 106.00 2.50 L 108.00 4.50 L 109.00 4.50 L 113.50 9.00 L 113.50 10.00 L 115.50 12.00 L 115.50 13.00 L 116.50 14.00 L 116.50 16.00 L 117.50 17.00 L 117.50 21.00 L 118.50 22.00 L 118.50 32.00 L 117.50 33.00 L 117.50 38.00 L 116.50 39.00 L 116.50 42.00 L 115.50 43.00 L 115.50 44.00 L 114.50 45.00 L 114.50 46.00 L 113.50 47.00 L 113.50 48.00 L 112.50 49.00 L 112.50 50.00 L 111.50 51.00 L 111.50 52.00 L 109.50 54.00 L 109.50 55.00 L 108.50 56.00 L 108.50 57.00 L 105.50 60.00 L 105.50 61.00 L 103.50 63.00 L 103.50 64.00 L 99.50 68.00 L 99.50 69.00 L 95.50 73.00 L 95.50 74.00 L 92.50 77.00 L 92.50 78.00 L 90.50 80.00 L 90.50 81.00 L 88.50 83.00 L 88.50 84.00 L 87.50 85.00 L 87.50 86.00 L 86.50 87.00 L 86.50 88.00 L 85.50 89.00 L 85.50 90.00 L 84.50 91.00 L 84.50 92.00 L 83.50 93.00 L 83.50 94.00 L 82.50 95.00 L 82.50 96.00 L 81.50 97.00 L 81.50 99.00 L 80.50 100.00 L 80.50 103.00 L 79.50 104.00 L 79.50 109.00 L 78.50 110.00 L 78.50 117.00 L 77.50 118.00 L 77.50 128.00 L 76.50 129.00 L 76.50 143.00 L 75.50 144.00 L 75.50 149.00 L 74.50 150.00 L 74.50 153.00 L 73.50 154.00 L 73.50 157.00 L 72.50 158.00 L 72.50 160.00 L 71.50 161.00 L 71.50 162.00 L 70.50 163.00 L 70.50 164.00 L 69.50 165.00 L 69.50 166.00 L 68.50 167.00 L 68.50 168.00 L 65.50 171.00 L 65.50 172.00 L 60.00 177.50 L 59.00 177.50 L 57.00 179.50 L 56.00 179.50 L 55.00 180.50 L 54.00 180.50 L 53.00 181.50 L 52.00 181.50 L 51.00 182.50 L 49.00 182.50 L 48.00 183.50 L 43.00 183.50 L 42.00 184.50 Z M 241.00 324.50 L 230.00 324.50 L 229.00 323.50 L 224.00 323.50 L 223.00 322.50 L 221.00 322.50 L 220.00 321.50 L 219.00 321.50 L 218.00 320.50 L 217.00 320.50 L 216.00 319.50 L 215.00 319.50 L 209.50 314.00 L 209.50 313.00 L 208.50 312.00 L 208.50 311.00 L 207.50 310.00 L 207.50 309.00 L 206.50 308.00 L 206.50 306.00 L 205.50 305.00 L 205.50 298.00 L 204.50 297.00 L 205.50 296.00 L 205.50 287.00 L 206.50 286.00 L 206.50 283.00 L 207.50 282.00 L 207.50 280.00 L 208.50 279.00 L 208.50 278.00 L 209.50 277.00 L 209.50 276.00 L 210.50 275.00 L 210.50 274.00 L 211.50 273.00 L 211.50 272.00 L 213.50 270.00 L 213.50 269.00 L 214.50 268.00 L 214.50 267.00 L 216.50 265.00 L 216.50 264.00 L 219.50 261.00 L 219.50 260.00 L 222.50 257.00 L 222.50 256.00 L 227.50 251.00 L 227.50 250.00 L 230.50 247.00 L 230.50 246.00 L 232.50 244.00 L 232.50 243.00 L 234.50 241.00 L 234.50 240.00 L 235.50 239.00 L 235.50 238.00 L 236.50 237.00 L 236.50 236.00 L 238.50 234.00 L 238.50 233.00 L 239.50 232.00 L 239.50 231.00 L 240.50 230.00 L 240.50 228.00 L 241.50 227.00 L 241.50 226.00 L 242.50 225.00 L 242.50 222.00 L 243.50 221.00 L 243.50 217.00 L 244.50 216.00 L 244.50 210.00 L 245.50 209.00 L 245.50 200.00 L 246.50 199.00 L 246.50 184.00 L 247.50 183.00 L 247.50 176.00 L 248.50 175.00 L 248.50 171.00 L 249.50 170.00 L 249.50 168.00 L 250.50 167.00 L 250.50 165.00 L 251.50 164.00 L 251.50 162.00 L 252.50 161.00 L 252.50 160.00 L 253.50 159.00 L 253.50 158.00 L 254.50 157.00 L 254.50 156.00 L 256.50 154.00 L 256.50 153.00 L 264.00 145.50 L 265.00 145.50 L 267.00 143.50 L 268.00 143.50 L 269.00 142.50 L 270.00 142.50 L 271.00 141.50 L 272.00 141.50 L 273.00 140.50 L 276.00 140.50 L 277.00 139.50 L 288.00 139.50 L 289.00 140.50 L 292.00 140.50 L 293.00 141.50 L 294.00 141.50 L 295.00 142.50 L 296.00 142.50 L 297.00 143.50 L 298.00 143.50 L 299.00 144.50 L 300.00 144.50 L 308.50 153.00 L 308.50 154.00 L 310.50 156.00 L 310.50 157.00 L 311.50 158.00 L 311.50 159.00 L 312.50 160.00 L 312.50 162.00 L 313.50 163.00 L 313.50 166.00 L 314.50 167.00 L 314.50 173.00 L 315.50 174.00 L 315.50 178.00 L 314.50 179.00 L 314.50 187.00 L 313.50 188.00 L 313.50 199.00 L 312.50 200.00 L 312.50 217.00 L 311.50 218.00 L 311.50 262.00 L 310.50 263.00 L 310.50 268.00 L 309.50 269.00 L 309.50 273.00 L 308.50 274.00 L 308.50 277.00 L 307.50 278.00 L 307.50 280.00 L 306.50 281.00 L 306.50 283.00 L 305.50 284.00 L 305.50 285.00 L 304.50 286.00 L 304.50 287.00 L 303.50 288.00 L 303.50 289.00 L 302.50 290.00 L 302.50 291.00 L 301.50 292.00 L 301.50 293.00 L 299.50 295.00 L 299.50 296.00 L 296.50 299.00 L 296.50 300.00 L 289.00 307.50 L 288.00 307.50 L 285.00 310.50 L 284.00 310.50 L 282.00 312.50 L 281.00 312.50 L 280.00 313.50 L 279.00 313.50 L 278.00 314.50 L 277.00 314.50 L 276.00 315.50 L 275.00 315.50 L 274.00 316.50 L 273.00 316.50 L 272.00 317.50 L 270.00 317.50 L 269.00 318.50 L 267.00 318.50 L 266.00 319.50 L 264.00 319.50 L 263.00 320.50 L 260.00 320.50 L 259.00 321.50 L 255.00 321.50 L 254.00 322.50 L 249.00 322.50 L 248.00 323.50 L 242.00 323.50 L 241.00 324.50 Z M 150.00 315.50 L 146.00 315.50 L 145.00 314.50 L 136.00 314.50 L 135.00 313.50 L 124.00 313.50 L 123.00 312.50 L 106.00 312.50 L 105.00 311.50 L 61.00 311.50 L 60.00 310.50 L 55.00 310.50 L 54.00 309.50 L 50.00 309.50 L 49.00 308.50 L 47.00 308.50 L 46.00 307.50 L 44.00 307.50 L 43.00 306.50 L 41.00 306.50 L 40.00 305.50 L 38.00 305.50 L 37.00 304.50 L 36.00 304.50 L 35.00 303.50 L 34.00 303.50 L 33.00 302.50 L 32.00 302.50 L 30.00 300.50 L 29.00 300.50 L 27.00 298.50 L 26.00 298.50 L 14.50 287.00 L 14.50 286.00 L 11.50 283.00 L 11.50 282.00 L 10.50 281.00 L 10.50 280.00 L 9.50 279.00 L 9.50 278.00 L 8.50 277.00 L 8.50 276.00 L 7.50 275.00 L 7.50 274.00 L 6.50 273.00 L 6.50 272.00 L 5.50 271.00 L 5.50 269.00 L 4.50 268.00 L 4.50 266.00 L 3.50 265.00 L 3.50 263.00 L 2.50 262.00 L 2.50 258.00 L 1.50 257.00 L 1.50 253.00 L 0.50 252.00 L 0.50 246.00 L -0.50 245.00 L -0.50 226.00 L 0.50 225.00 L 0.50 222.00 L 1.50 221.00 L 1.50 220.00 L 2.50 219.00 L 2.50 218.00 L 3.50 217.00 L 3.50 216.00 L 5.50 214.00 L 5.50 213.00 L 8.00 210.50 L 9.00 210.50 L 11.00 208.50 L 12.00 208.50 L 13.00 207.50 L 14.00 207.50 L 15.00 206.50 L 18.00 206.50 L 19.00 205.50 L 36.00 205.50 L 37.00 206.50 L 41.00 206.50 L 42.00 207.50 L 43.00 207.50 L 44.00 208.50 L 46.00 208.50 L 47.00 209.50 L 48.00 209.50 L 50.00 211.50 L 51.00 211.50 L 52.00 212.50 L 53.00 212.50 L 55.00 214.50 L 56.00 214.50 L 58.00 216.50 L 59.00 216.50 L 61.00 218.50 L 62.00 218.50 L 65.00 221.50 L 66.00 221.50 L 70.00 225.50 L 71.00 225.50 L 75.00 229.50 L 76.00 229.50 L 78.00 231.50 L 79.00 231.50 L 81.00 233.50 L 82.00 233.50 L 84.00 235.50 L 85.00 235.50 L 86.00 236.50 L 87.00 236.50 L 88.00 237.50 L 89.00 237.50 L 90.00 238.50 L 91.00 238.50 L 92.00 239.50 L 93.00 239.50 L 94.00 240.50 L 95.00 240.50 L 96.00 241.50 L 98.00 241.50 L 99.00 242.50 L 102.00 242.50 L 103.00 243.50 L 107.00 243.50 L 108.00 244.50 L 114.00 244.50 L 115.00 245.50 L 124.00 245.50 L 125.00 246.50 L 139.00 246.50 L 140.00 247.50 L 147.00 247.50 L 148.00 248.50 L 152.00 248.50 L 153.00 249.50 L 156.00 249.50 L 157.00 250.50 L 158.00 250.50 L 159.00 251.50 L 161.00 251.50 L 162.00 252.50 L 163.00 252.50 L 164.00 253.50 L 165.00 253.50 L 166.00 254.50 L 167.00 254.50 L 168.00 255.50 L 169.00 255.50 L 173.00 259.50 L 174.00 259.50 L 175.50 261.00 L 175.50 262.00 L 179.50 266.00 L 179.50 267.00 L 180.50 268.00 L 180.50 269.00 L 181.50 270.00 L 181.50 271.00 L 182.50 272.00 L 182.50 274.00 L 183.50 275.00 L 183.50 280.00 L 184.50 281.00 L 184.50 284.00 L 183.50 285.00 L 183.50 290.00 L 182.50 291.00 L 182.50 293.00 L 181.50 294.00 L 181.50 295.00 L 180.50 296.00 L 180.50 297.00 L 179.50 298.00 L 179.50 299.00 L 177.50 301.00 L 177.50 302.00 L 172.00 307.50 L 171.00 307.50 L 169.00 309.50 L 168.00 309.50 L 167.00 310.50 L 166.00 310.50 L 165.00 311.50 L 164.00 311.50 L 163.00 312.50 L 161.00 312.50 L 160.00 313.50 L 158.00 313.50 L 157.00 314.50 L 151.00 314.50 L 150.00 315.50 Z" fill="#ADADB0" fill-rule="evenodd"/>
  <path d="M 898.00 324.50 L 874.00 324.50 L 873.00 323.50 L 867.00 323.50 L 866.00 322.50 L 862.00 322.50 L 861.00 321.50 L 857.00 321.50 L 856.00 320.50 L 854.00 320.50 L 853.00 319.50 L 851.00 319.50 L 850.00 318.50 L 848.00 318.50 L 847.00 317.50 L 846.00 317.50 L 845.00 316.50 L 843.00 316.50 L 842.00 315.50 L 841.00 315.50 L 840.00 314.50 L 839.00 314.50 L 838.00 313.50 L 837.00 313.50 L 836.00 312.50 L 835.00 312.50 L 833.00 310.50 L 832.00 310.50 L 830.00 308.50 L 829.00 308.50 L 827.00 306.50 L 826.00 306.50 L 823.00 303.50 L 822.00 303.50 L 810.50 292.00 L 810.50 291.00 L 807.50 288.00 L 807.50 287.00 L 805.50 285.00 L 805.50 284.00 L 803.50 282.00 L 803.50 281.00 L 802.50 280.00 L 802.50 279.00 L 800.50 277.00 L 800.50 276.00 L 799.50 275.00 L 799.50 274.00 L 798.50 273.00 L 798.50 271.00 L 797.50 270.00 L 797.50 269.00 L 796.50 268.00 L 796.50 267.00 L 795.50 266.00 L 795.50 264.00 L 794.50 263.00 L 794.50 261.00 L 793.50 260.00 L 793.50 257.00 L 792.50 256.00 L 792.50 253.00 L 791.50 252.00 L 791.50 248.00 L 790.50 247.00 L 790.50 240.00 L 789.50 239.00 L 789.50 222.00 L 790.50 221.00 L 790.50 213.00 L 791.50 212.00 L 791.50 208.00 L 792.50 207.00 L 792.50 204.00 L 793.50 203.00 L 793.50 201.00 L 794.50 200.00 L 794.50 198.00 L 795.50 197.00 L 795.50 195.00 L 796.50 194.00 L 796.50 193.00 L 797.50 192.00 L 797.50 190.00 L 798.50 189.00 L 798.50 188.00 L 799.50 187.00 L 799.50 186.00 L 801.50 184.00 L 801.50 183.00 L 802.50 182.00 L 802.50 181.00 L 804.50 179.00 L 804.50 178.00 L 806.50 176.00 L 806.50 175.00 L 810.50 171.00 L 810.50 170.00 L 820.00 160.50 L 821.00 160.50 L 825.00 156.50 L 826.00 156.50 L 828.00 154.50 L 829.00 154.50 L 831.00 152.50 L 832.00 152.50 L 834.00 150.50 L 835.00 150.50 L 836.00 149.50 L 837.00 149.50 L 838.00 148.50 L 839.00 148.50 L 840.00 147.50 L 841.00 147.50 L 842.00 146.50 L 843.00 146.50 L 844.00 145.50 L 846.00 145.50 L 847.00 144.50 L 848.00 144.50 L 849.00 143.50 L 851.00 143.50 L 852.00 142.50 L 854.00 142.50 L 855.00 141.50 L 858.00 141.50 L 859.00 140.50 L 862.00 140.50 L 863.00 139.50 L 867.00 139.50 L 868.00 138.50 L 874.00 138.50 L 875.00 137.50 L 897.00 137.50 L 898.00 138.50 L 904.00 138.50 L 905.00 139.50 L 910.00 139.50 L 911.00 140.50 L 914.00 140.50 L 915.00 141.50 L 917.00 141.50 L 918.00 142.50 L 920.00 142.50 L 921.00 143.50 L 923.00 143.50 L 924.00 144.50 L 926.00 144.50 L 927.00 145.50 L 928.00 145.50 L 929.00 146.50 L 931.00 146.50 L 932.00 147.50 L 933.00 147.50 L 934.00 148.50 L 935.00 148.50 L 937.00 150.50 L 938.00 150.50 L 939.00 151.50 L 940.00 151.50 L 941.00 152.50 L 942.00 152.50 L 944.00 154.50 L 945.00 154.50 L 948.00 157.50 L 949.00 157.50 L 963.50 172.00 L 963.50 173.00 L 966.50 176.00 L 966.50 177.00 L 968.50 179.00 L 968.50 180.00 L 969.50 181.00 L 969.50 182.00 L 971.50 184.00 L 971.50 185.00 L 972.50 186.00 L 972.50 187.00 L 973.50 188.00 L 973.50 190.00 L 974.50 191.00 L 974.50 192.00 L 975.50 193.00 L 975.50 194.00 L 976.50 195.00 L 976.50 197.00 L 977.50 198.00 L 977.50 200.00 L 978.50 201.00 L 978.50 203.00 L 979.50 204.00 L 979.50 207.00 L 980.50 208.00 L 980.50 212.00 L 981.50 213.00 L 981.50 221.00 L 982.50 222.00 L 982.50 238.00 L 981.50 239.00 L 981.50 247.00 L 980.50 248.00 L 980.50 252.00 L 979.50 253.00 L 979.50 256.00 L 978.50 257.00 L 978.50 260.00 L 977.50 261.00 L 977.50 263.00 L 976.50 264.00 L 976.50 266.00 L 975.50 267.00 L 975.50 268.00 L 974.50 269.00 L 974.50 271.00 L 973.50 272.00 L 973.50 273.00 L 972.50 274.00 L 972.50 275.00 L 971.50 276.00 L 971.50 277.00 L 970.50 278.00 L 970.50 279.00 L 968.50 281.00 L 968.50 282.00 L 967.50 283.00 L 967.50 284.00 L 964.50 287.00 L 964.50 288.00 L 961.50 291.00 L 961.50 292.00 L 950.00 303.50 L 949.00 303.50 L 946.00 306.50 L 945.00 306.50 L 943.00 308.50 L 942.00 308.50 L 940.00 310.50 L 939.00 310.50 L 938.00 311.50 L 937.00 311.50 L 935.00 313.50 L 934.00 313.50 L 933.00 314.50 L 932.00 314.50 L 931.00 315.50 L 929.00 315.50 L 928.00 316.50 L 927.00 316.50 L 926.00 317.50 L 925.00 317.50 L 924.00 318.50 L 922.00 318.50 L 921.00 319.50 L 919.00 319.50 L 918.00 320.50 L 915.00 320.50 L 914.00 321.50 L 911.00 321.50 L 910.00 322.50 L 906.00 322.50 L 905.00 323.50 L 899.00 323.50 L 898.00 324.50 Z M 1999.00 318.50 L 1943.00 318.50 L 1942.50 318.00 L 1942.50 317.00 L 1940.50 315.00 L 1940.50 314.00 L 1939.50 313.00 L 1939.50 312.00 L 1937.50 310.00 L 1937.50 309.00 L 1936.50 308.00 L 1936.50 307.00 L 1934.50 305.00 L 1934.50 304.00 L 1933.50 303.00 L 1933.50 302.00 L 1931.50 300.00 L 1931.50 299.00 L 1930.50 298.00 L 1930.50 297.00 L 1929.50 296.00 L 1929.50 295.00 L 1927.50 293.00 L 1927.50 292.00 L 1926.50 291.00 L 1926.50 290.00 L 1924.50 288.00 L 1924.50 287.00 L 1923.50 286.00 L 1923.50 285.00 L 1921.50 283.00 L 1921.50 282.00 L 1920.50 281.00 L 1920.50 280.00 L 1918.50 278.00 L 1918.50 277.00 L 1917.50 276.00 L 1917.50 275.00 L 1915.50 273.00 L 1915.50 272.00 L 1914.50 271.00 L 1914.50 270.00 L 1913.50 269.00 L 1913.50 268.00 L 1911.50 266.00 L 1911.50 265.00 L 1910.50 264.00 L 1910.50 263.00 L 1908.00 260.50 L 1899.00 260.50 L 1898.50 261.00 L 1898.50 318.00 L 1898.00 318.50 L 1850.00 318.50 L 1849.50 318.00 L 1849.50 142.00 L 1850.00 141.50 L 1922.00 141.50 L 1923.00 142.50 L 1934.00 142.50 L 1935.00 143.50 L 1941.00 143.50 L 1942.00 144.50 L 1945.00 144.50 L 1946.00 145.50 L 1949.00 145.50 L 1950.00 146.50 L 1952.00 146.50 L 1953.00 147.50 L 1954.00 147.50 L 1955.00 148.50 L 1957.00 148.50 L 1958.00 149.50 L 1959.00 149.50 L 1960.00 150.50 L 1961.00 150.50 L 1963.00 152.50 L 1964.00 152.50 L 1965.00 153.50 L 1966.00 153.50 L 1969.00 156.50 L 1970.00 156.50 L 1977.50 164.00 L 1977.50 165.00 L 1980.50 168.00 L 1980.50 169.00 L 1981.50 170.00 L 1981.50 171.00 L 1982.50 172.00 L 1982.50 173.00 L 1983.50 174.00 L 1983.50 175.00 L 1984.50 176.00 L 1984.50 177.00 L 1985.50 178.00 L 1985.50 180.00 L 1986.50 181.00 L 1986.50 183.00 L 1987.50 184.00 L 1987.50 187.00 L 1988.50 188.00 L 1988.50 193.00 L 1989.50 194.00 L 1989.50 208.00 L 1988.50 209.00 L 1988.50 214.00 L 1987.50 215.00 L 1987.50 218.00 L 1986.50 219.00 L 1986.50 222.00 L 1985.50 223.00 L 1985.50 224.00 L 1984.50 225.00 L 1984.50 227.00 L 1983.50 228.00 L 1983.50 229.00 L 1982.50 230.00 L 1982.50 231.00 L 1980.50 233.00 L 1980.50 234.00 L 1978.50 236.00 L 1978.50 237.00 L 1969.00 246.50 L 1968.00 246.50 L 1966.00 248.50 L 1965.00 248.50 L 1963.00 250.50 L 1962.00 250.50 L 1961.00 251.50 L 1960.00 251.50 L 1959.00 252.50 L 1958.00 252.50 L 1956.50 254.00 L 1958.50 256.00 L 1958.50 257.00 L 1960.50 259.00 L 1960.50 260.00 L 1962.50 262.00 L 1962.50 263.00 L 1964.50 265.00 L 1964.50 266.00 L 1966.50 268.00 L 1966.50 269.00 L 1968.50 271.00 L 1968.50 272.00 L 1970.50 274.00 L 1970.50 275.00 L 1973.50 278.00 L 1973.50 279.00 L 1975.50 281.00 L 1975.50 282.00 L 1977.50 284.00 L 1977.50 285.00 L 1979.50 287.00 L 1979.50 288.00 L 1981.50 290.00 L 1981.50 291.00 L 1983.50 293.00 L 1983.50 294.00 L 1985.50 296.00 L 1985.50 297.00 L 1987.50 299.00 L 1987.50 300.00 L 1989.50 302.00 L 1989.50 303.00 L 1992.50 306.00 L 1992.50 307.00 L 1994.50 309.00 L 1994.50 310.00 L 1996.50 312.00 L 1996.50 313.00 L 1998.50 315.00 L 1998.50 316.00 L 1999.50 317.00 L 1999.50 318.00 L 1999.00 318.50 Z M 764.00 318.50 L 716.00 318.50 L 715.50 318.00 L 715.50 249.00 L 715.00 248.50 L 647.00 248.50 L 646.50 249.00 L 646.50 318.00 L 646.00 318.50 L 598.00 318.50 L 597.50 318.00 L 597.50 142.00 L 598.00 141.50 L 646.00 141.50 L 646.50 142.00 L 646.50 204.00 L 647.00 204.50 L 715.00 204.50 L 715.50 204.00 L 715.50 142.00 L 716.00 141.50 L 763.00 141.50 L 764.50 143.00 L 764.50 318.00 L 764.00 318.50 Z M 1815.00 318.50 L 1695.00 318.50 L 1693.50 317.00 L 1693.50 143.00 L 1695.00 141.50 L 1815.00 141.50 L 1816.50 143.00 L 1816.50 181.00 L 1815.00 182.50 L 1742.00 182.50 L 1741.50 183.00 L 1741.50 207.00 L 1742.00 207.50 L 1811.00 207.50 L 1811.50 208.00 L 1811.50 245.00 L 1810.00 246.50 L 1742.00 246.50 L 1741.50 247.00 L 1741.50 277.00 L 1742.00 277.50 L 1815.00 277.50 L 1816.50 279.00 L 1816.50 317.00 L 1815.00 318.50 Z M 1129.00 318.50 L 1008.00 318.50 L 1007.50 318.00 L 1007.50 143.00 L 1009.00 141.50 L 1129.00 141.50 L 1129.50 142.00 L 1129.50 182.00 L 1129.00 182.50 L 1056.00 182.50 L 1055.50 183.00 L 1055.50 207.00 L 1056.00 207.50 L 1124.00 207.50 L 1124.50 208.00 L 1124.50 246.00 L 1124.00 246.50 L 1056.00 246.50 L 1055.50 247.00 L 1055.50 277.00 L 1056.00 277.50 L 1129.00 277.50 L 1129.50 278.00 L 1129.50 318.00 L 1129.00 318.50 Z M 512.00 324.50 L 492.00 324.50 L 491.00 323.50 L 485.00 323.50 L 484.00 322.50 L 481.00 322.50 L 480.00 321.50 L 477.00 321.50 L 476.00 320.50 L 474.00 320.50 L 473.00 319.50 L 471.00 319.50 L 470.00 318.50 L 468.00 318.50 L 467.00 317.50 L 466.00 317.50 L 465.00 316.50 L 464.00 316.50 L 463.00 315.50 L 462.00 315.50 L 461.00 314.50 L 460.00 314.50 L 459.00 313.50 L 458.00 313.50 L 457.00 312.50 L 456.00 312.50 L 454.00 310.50 L 453.00 310.50 L 451.00 308.50 L 450.00 308.50 L 448.00 306.50 L 447.00 306.50 L 434.50 294.00 L 434.50 293.00 L 431.50 290.00 L 431.50 289.00 L 429.50 287.00 L 429.50 286.00 L 428.50 285.00 L 428.50 284.00 L 427.50 283.00 L 427.50 282.00 L 426.50 281.00 L 426.50 280.00 L 425.50 279.00 L 425.50 277.00 L 427.00 275.50 L 428.00 275.50 L 430.00 273.50 L 431.00 273.50 L 434.00 270.50 L 435.00 270.50 L 438.00 267.50 L 439.00 267.50 L 441.00 265.50 L 442.00 265.50 L 445.00 262.50 L 446.00 262.50 L 449.00 259.50 L 450.00 259.50 L 452.00 257.50 L 453.00 257.50 L 456.00 254.50 L 457.00 254.50 L 458.00 253.50 L 459.00 253.50 L 459.50 254.00 L 459.50 255.00 L 460.50 256.00 L 460.50 257.00 L 462.50 259.00 L 462.50 260.00 L 465.50 263.00 L 465.50 264.00 L 476.00 274.50 L 477.00 274.50 L 479.00 276.50 L 480.00 276.50 L 481.00 277.50 L 482.00 277.50 L 483.00 278.50 L 484.00 278.50 L 485.00 279.50 L 486.00 279.50 L 487.00 280.50 L 489.00 280.50 L 490.00 281.50 L 493.00 281.50 L 494.00 282.50 L 507.00 282.50 L 508.00 281.50 L 510.00 281.50 L 511.00 280.50 L 512.00 280.50 L 514.00 278.50 L 515.00 278.50 L 515.50 278.00 L 515.50 277.00 L 517.50 275.00 L 517.50 274.00 L 518.50 273.00 L 518.50 265.00 L 517.50 264.00 L 517.50 263.00 L 512.00 257.50 L 511.00 257.50 L 509.00 255.50 L 508.00 255.50 L 507.00 254.50 L 506.00 254.50 L 505.00 253.50 L 504.00 253.50 L 503.00 252.50 L 501.00 252.50 L 500.00 251.50 L 499.00 251.50 L 498.00 250.50 L 497.00 250.50 L 496.00 249.50 L 494.00 249.50 L 493.00 248.50 L 492.00 248.50 L 491.00 247.50 L 489.00 247.50 L 488.00 246.50 L 487.00 246.50 L 486.00 245.50 L 484.00 245.50 L 483.00 244.50 L 482.00 244.50 L 481.00 243.50 L 479.00 243.50 L 478.00 242.50 L 477.00 242.50 L 476.00 241.50 L 475.00 241.50 L 474.00 240.50 L 473.00 240.50 L 472.00 239.50 L 471.00 239.50 L 470.00 238.50 L 469.00 238.50 L 468.00 237.50 L 467.00 237.50 L 465.00 235.50 L 464.00 235.50 L 462.00 233.50 L 461.00 233.50 L 458.00 230.50 L 457.00 230.50 L 448.50 222.00 L 448.50 221.00 L 445.50 218.00 L 445.50 217.00 L 443.50 215.00 L 443.50 214.00 L 442.50 213.00 L 442.50 212.00 L 441.50 211.00 L 441.50 209.00 L 440.50 208.00 L 440.50 207.00 L 439.50 206.00 L 439.50 203.00 L 438.50 202.00 L 438.50 198.00 L 437.50 197.00 L 437.50 182.00 L 438.50 181.00 L 438.50 177.00 L 439.50 176.00 L 439.50 173.00 L 440.50 172.00 L 440.50 171.00 L 441.50 170.00 L 441.50 168.00 L 442.50 167.00 L 442.50 166.00 L 444.50 164.00 L 444.50 163.00 L 447.50 160.00 L 447.50 159.00 L 454.00 152.50 L 455.00 152.50 L 458.00 149.50 L 459.00 149.50 L 461.00 147.50 L 462.00 147.50 L 463.00 146.50 L 464.00 146.50 L 465.00 145.50 L 466.00 145.50 L 467.00 144.50 L 468.00 144.50 L 469.00 143.50 L 471.00 143.50 L 472.00 142.50 L 473.00 142.50 L 474.00 141.50 L 476.00 141.50 L 477.00 140.50 L 480.00 140.50 L 481.00 139.50 L 485.00 139.50 L 486.00 138.50 L 491.00 138.50 L 492.00 137.50 L 512.00 137.50 L 513.00 138.50 L 519.00 138.50 L 520.00 139.50 L 524.00 139.50 L 525.00 140.50 L 527.00 140.50 L 528.00 141.50 L 530.00 141.50 L 531.00 142.50 L 533.00 142.50 L 534.00 143.50 L 535.00 143.50 L 536.00 144.50 L 537.00 144.50 L 538.00 145.50 L 539.00 145.50 L 540.00 146.50 L 541.00 146.50 L 542.00 147.50 L 543.00 147.50 L 544.00 148.50 L 545.00 148.50 L 547.00 150.50 L 548.00 150.50 L 551.00 153.50 L 552.00 153.50 L 562.50 164.00 L 562.50 165.00 L 565.50 168.00 L 565.50 169.00 L 567.50 171.00 L 567.50 172.00 L 569.50 174.00 L 569.50 175.00 L 570.50 176.00 L 568.00 178.50 L 567.00 178.50 L 566.00 179.50 L 565.00 179.50 L 564.00 180.50 L 563.00 180.50 L 562.00 181.50 L 561.00 181.50 L 559.00 183.50 L 558.00 183.50 L 557.00 184.50 L 556.00 184.50 L 555.00 185.50 L 554.00 185.50 L 553.00 186.50 L 552.00 186.50 L 550.00 188.50 L 549.00 188.50 L 548.00 189.50 L 547.00 189.50 L 546.00 190.50 L 545.00 190.50 L 544.00 191.50 L 543.00 191.50 L 541.00 193.50 L 540.00 193.50 L 539.00 194.50 L 538.00 194.50 L 537.00 195.50 L 536.00 195.50 L 535.00 196.50 L 533.00 196.50 L 531.50 195.00 L 531.50 194.00 L 522.00 184.50 L 521.00 184.50 L 519.00 182.50 L 518.00 182.50 L 517.00 181.50 L 516.00 181.50 L 515.00 180.50 L 514.00 180.50 L 513.00 179.50 L 511.00 179.50 L 510.00 178.50 L 497.00 178.50 L 496.00 179.50 L 494.00 179.50 L 493.00 180.50 L 492.00 180.50 L 489.50 183.00 L 489.50 184.00 L 488.50 185.00 L 488.50 186.00 L 487.50 187.00 L 487.50 190.00 L 488.50 191.00 L 488.50 193.00 L 489.50 194.00 L 489.50 195.00 L 494.00 199.50 L 495.00 199.50 L 497.00 201.50 L 498.00 201.50 L 499.00 202.50 L 500.00 202.50 L 501.00 203.50 L 502.00 203.50 L 503.00 204.50 L 505.00 204.50 L 506.00 205.50 L 507.00 205.50 L 508.00 206.50 L 510.00 206.50 L 511.00 207.50 L 513.00 207.50 L 514.00 208.50 L 515.00 208.50 L 516.00 209.50 L 518.00 209.50 L 519.00 210.50 L 521.00 210.50 L 522.00 211.50 L 524.00 211.50 L 525.00 212.50 L 527.00 212.50 L 528.00 213.50 L 529.00 213.50 L 530.00 214.50 L 532.00 214.50 L 533.00 215.50 L 534.00 215.50 L 535.00 216.50 L 536.00 216.50 L 537.00 217.50 L 538.00 217.50 L 539.00 218.50 L 540.00 218.50 L 542.00 220.50 L 543.00 220.50 L 544.00 221.50 L 545.00 221.50 L 547.00 223.50 L 548.00 223.50 L 550.00 225.50 L 551.00 225.50 L 560.50 235.00 L 560.50 236.00 L 562.50 238.00 L 562.50 239.00 L 564.50 241.00 L 564.50 242.00 L 565.50 243.00 L 565.50 244.00 L 566.50 245.00 L 566.50 246.00 L 567.50 247.00 L 567.50 249.00 L 568.50 250.00 L 568.50 252.00 L 569.50 253.00 L 569.50 257.00 L 570.50 258.00 L 570.50 276.00 L 569.50 277.00 L 569.50 281.00 L 568.50 282.00 L 568.50 285.00 L 567.50 286.00 L 567.50 287.00 L 566.50 288.00 L 566.50 290.00 L 565.50 291.00 L 565.50 292.00 L 564.50 293.00 L 564.50 294.00 L 562.50 296.00 L 562.50 297.00 L 560.50 299.00 L 560.50 300.00 L 551.00 309.50 L 550.00 309.50 L 547.00 312.50 L 546.00 312.50 L 545.00 313.50 L 544.00 313.50 L 542.00 315.50 L 541.00 315.50 L 540.00 316.50 L 538.00 316.50 L 537.00 317.50 L 536.00 317.50 L 535.00 318.50 L 534.00 318.50 L 533.00 319.50 L 531.00 319.50 L 530.00 320.50 L 528.00 320.50 L 527.00 321.50 L 524.00 321.50 L 523.00 322.50 L 520.00 322.50 L 519.00 323.50 L 513.00 323.50 L 512.00 324.50 Z M 1626.00 318.50 L 1579.00 318.50 L 1577.50 317.00 L 1577.50 187.00 L 1577.00 186.50 L 1529.00 186.50 L 1528.50 186.00 L 1528.50 143.00 L 1530.00 141.50 L 1675.00 141.50 L 1676.50 143.00 L 1676.50 185.00 L 1675.00 186.50 L 1628.00 186.50 L 1627.50 187.00 L 1627.50 317.00 L 1626.00 318.50 Z M 1471.00 318.50 L 1423.00 318.50 L 1422.50 318.00 L 1422.50 187.00 L 1422.00 186.50 L 1374.00 186.50 L 1373.50 186.00 L 1373.50 142.00 L 1374.00 141.50 L 1520.00 141.50 L 1520.50 142.00 L 1520.50 186.00 L 1520.00 186.50 L 1472.00 186.50 L 1471.50 187.00 L 1471.50 318.00 L 1471.00 318.50 Z M 1209.00 318.50 L 1163.00 318.50 L 1162.50 318.00 L 1162.50 291.00 L 1163.00 290.50 L 1187.00 290.50 L 1188.00 289.50 L 1189.00 289.50 L 1190.50 288.00 L 1190.50 284.00 L 1188.00 281.50 L 1163.00 281.50 L 1162.50 281.00 L 1162.50 263.00 L 1164.00 261.50 L 1179.00 261.50 L 1181.50 259.00 L 1181.50 256.00 L 1179.00 253.50 L 1163.00 253.50 L 1162.50 253.00 L 1162.50 234.00 L 1163.00 233.50 L 1188.00 233.50 L 1189.00 232.50 L 1190.00 232.50 L 1190.50 232.00 L 1190.50 227.00 L 1189.00 225.50 L 1164.00 225.50 L 1162.50 224.00 L 1162.50 206.00 L 1163.00 205.50 L 1179.00 205.50 L 1180.50 204.00 L 1180.50 203.00 L 1181.50 202.00 L 1181.50 200.00 L 1180.50 199.00 L 1180.50 198.00 L 1180.00 197.50 L 1179.00 197.50 L 1178.00 196.50 L 1163.00 196.50 L 1162.50 196.00 L 1162.50 178.00 L 1163.00 177.50 L 1187.00 177.50 L 1188.00 176.50 L 1189.00 176.50 L 1190.50 175.00 L 1190.50 171.00 L 1188.00 168.50 L 1163.00 168.50 L 1162.50 168.00 L 1162.50 143.00 L 1164.00 141.50 L 1274.00 141.50 L 1274.50 142.00 L 1274.50 184.00 L 1274.00 184.50 L 1211.00 184.50 L 1210.50 185.00 L 1210.50 213.00 L 1211.00 213.50 L 1272.00 213.50 L 1272.50 214.00 L 1272.50 252.00 L 1272.00 252.50 L 1211.00 252.50 L 1210.50 253.00 L 1210.50 317.00 L 1209.00 318.50 Z M 1355.00 318.50 L 1306.00 318.50 L 1305.50 318.00 L 1305.50 142.00 L 1306.00 141.50 L 1354.00 141.50 L 1355.50 143.00 L 1355.50 318.00 L 1355.00 318.50 Z M 895.50 277.00 L 896.00 276.50 L 899.00 276.50 L 900.00 275.50 L 902.00 275.50 L 903.00 274.50 L 905.00 274.50 L 906.00 273.50 L 907.00 273.50 L 909.00 271.50 L 910.00 271.50 L 912.00 269.50 L 913.00 269.50 L 920.50 262.00 L 920.50 261.00 L 922.50 259.00 L 922.50 258.00 L 924.50 256.00 L 924.50 255.00 L 925.50 254.00 L 925.50 252.00 L 926.50 251.00 L 926.50 250.00 L 927.50 249.00 L 927.50 247.00 L 928.50 246.00 L 928.50 243.00 L 929.50 242.00 L 929.50 235.00 L 930.50 234.00 L 930.50 226.00 L 929.50 225.00 L 929.50 218.00 L 928.50 217.00 L 928.50 214.00 L 927.50 213.00 L 927.50 210.00 L 926.50 209.00 L 926.50 208.00 L 925.50 207.00 L 925.50 206.00 L 924.50 205.00 L 924.50 204.00 L 923.50 203.00 L 923.50 202.00 L 921.50 200.00 L 921.50 199.00 L 913.00 190.50 L 912.00 190.50 L 910.00 188.50 L 909.00 188.50 L 908.00 187.50 L 907.00 187.50 L 906.00 186.50 L 905.00 186.50 L 904.00 185.50 L 903.00 185.50 L 902.00 184.50 L 900.00 184.50 L 899.00 183.50 L 895.00 183.50 L 894.00 182.50 L 878.00 182.50 L 877.00 183.50 L 873.00 183.50 L 872.00 184.50 L 870.00 184.50 L 869.00 185.50 L 868.00 185.50 L 867.00 186.50 L 866.00 186.50 L 865.00 187.50 L 864.00 187.50 L 863.00 188.50 L 862.00 188.50 L 859.00 191.50 L 858.00 191.50 L 851.50 198.00 L 851.50 199.00 L 849.50 201.00 L 849.50 202.00 L 847.50 204.00 L 847.50 205.00 L 846.50 206.00 L 846.50 208.00 L 845.50 209.00 L 845.50 210.00 L 844.50 211.00 L 844.50 213.00 L 843.50 214.00 L 843.50 217.00 L 842.50 218.00 L 842.50 224.00 L 841.50 225.00 L 841.50 234.00 L 842.50 235.00 L 842.50 242.00 L 843.50 243.00 L 843.50 246.00 L 844.50 247.00 L 844.50 249.00 L 845.50 250.00 L 845.50 252.00 L 846.50 253.00 L 846.50 254.00 L 847.50 255.00 L 847.50 256.00 L 848.50 257.00 L 848.50 258.00 L 851.50 261.00 L 851.50 262.00 L 859.00 269.50 L 860.00 269.50 L 862.00 271.50 L 863.00 271.50 L 864.00 272.50 L 865.00 272.50 L 866.00 273.50 L 867.00 273.50 L 868.00 274.50 L 869.00 274.50 L 870.00 275.50 L 872.00 275.50 L 873.00 276.50 L 876.00 276.50 L 877.00 277.50 L 895.00 277.50 L 895.50 277.00 Z M 517.00 89.50 L 512.00 89.50 L 511.50 89.00 L 511.50 51.00 L 510.50 50.00 L 510.50 48.00 L 509.50 47.00 L 509.50 46.00 L 508.50 45.00 L 508.50 44.00 L 506.00 41.50 L 505.00 41.50 L 503.00 39.50 L 501.00 39.50 L 500.00 38.50 L 492.00 38.50 L 488.00 38.50 L 487.00 39.50 L 486.00 39.50 L 485.00 40.50 L 484.00 40.50 L 483.00 41.50 L 482.00 41.50 L 478.50 45.00 L 478.50 46.00 L 477.50 47.00 L 477.50 48.00 L 476.50 49.00 L 476.50 50.00 L 475.50 51.00 L 475.50 53.00 L 474.50 54.00 L 474.50 89.00 L 474.00 89.50 L 469.00 89.50 L 468.50 89.00 L 468.50 53.00 L 467.50 52.00 L 467.50 49.00 L 466.50 48.00 L 466.50 46.00 L 461.00 40.50 L 460.00 40.50 L 459.00 39.50 L 458.00 39.50 L 457.00 38.50 L 445.00 38.50 L 444.00 39.50 L 442.00 39.50 L 440.00 41.50 L 439.00 41.50 L 434.50 46.00 L 434.50 47.00 L 433.50 48.00 L 433.50 49.00 L 432.50 50.00 L 432.50 52.00 L 431.50 53.00 L 431.50 89.00 L 431.00 89.50 L 425.00 89.50 L 424.50 89.00 L 424.50 34.00 L 426.00 32.50 L 430.00 32.50 L 430.50 33.00 L 430.50 43.00 L 431.00 43.50 L 431.50 43.00 L 431.50 42.00 L 437.00 36.50 L 438.00 36.50 L 439.00 35.50 L 440.00 35.50 L 441.00 34.50 L 442.00 34.50 L 443.00 33.50 L 446.00 33.50 L 447.00 32.50 L 457.00 32.50 L 458.00 33.50 L 461.00 33.50 L 462.00 34.50 L 463.00 34.50 L 464.00 35.50 L 465.00 35.50 L 470.50 41.00 L 470.50 42.00 L 471.50 43.00 L 471.50 44.00 L 472.00 44.50 L 473.00 44.50 L 473.50 44.00 L 473.50 43.00 L 480.00 36.50 L 481.00 36.50 L 482.00 35.50 L 483.00 35.50 L 484.00 34.50 L 485.00 34.50 L 486.00 33.50 L 489.00 33.50 L 490.00 32.50 L 500.00 32.50 L 501.00 33.50 L 504.00 33.50 L 505.00 34.50 L 506.00 34.50 L 507.00 35.50 L 508.00 35.50 L 510.00 37.50 L 511.00 37.50 L 512.50 39.00 L 512.50 40.00 L 514.50 42.00 L 514.50 43.00 L 515.50 44.00 L 515.50 45.00 L 516.50 46.00 L 516.50 48.00 L 517.50 49.00 L 517.50 89.00 L 517.00 89.50 Z M 1920.50 222.00 L 1921.00 221.50 L 1924.00 221.50 L 1925.00 220.50 L 1927.00 220.50 L 1928.00 219.50 L 1929.00 219.50 L 1931.00 217.50 L 1932.00 217.50 L 1932.50 217.00 L 1933.50 216.00 L 1933.50 215.00 L 1935.50 213.00 L 1935.50 212.00 L 1936.50 211.00 L 1936.50 210.00 L 1937.50 209.00 L 1937.50 197.00 L 1936.50 196.00 L 1936.50 195.00 L 1935.50 194.00 L 1935.50 193.00 L 1930.00 187.50 L 1929.00 187.50 L 1928.00 186.50 L 1927.00 186.50 L 1926.00 185.50 L 1925.00 185.50 L 1924.00 184.50 L 1919.00 184.50 L 1918.00 183.50 L 1899.00 183.50 L 1898.50 184.00 L 1898.50 222.00 L 1899.00 222.50 L 1920.00 222.50 L 1920.50 222.00 Z M 538.00 111.50 L 537.00 111.50 L 536.00 110.50 L 531.00 110.50 L 530.00 109.50 L 529.00 109.50 L 528.00 108.50 L 527.00 108.50 L 524.50 106.00 L 524.50 104.00 L 527.00 101.50 L 528.00 101.50 L 531.00 104.50 L 533.00 104.50 L 534.00 105.50 L 540.00 105.50 L 541.00 104.50 L 543.00 104.50 L 546.50 101.00 L 546.50 100.00 L 548.50 98.00 L 548.50 97.00 L 549.50 96.00 L 549.50 95.00 L 550.50 94.00 L 550.50 92.00 L 551.50 91.00 L 551.50 90.00 L 552.50 89.00 L 551.50 88.00 L 551.50 87.00 L 550.50 86.00 L 550.50 84.00 L 549.50 83.00 L 549.50 82.00 L 548.50 81.00 L 548.50 80.00 L 547.50 79.00 L 547.50 78.00 L 546.50 77.00 L 546.50 76.00 L 545.50 75.00 L 545.50 73.00 L 544.50 72.00 L 544.50 71.00 L 543.50 70.00 L 543.50 69.00 L 542.50 68.00 L 542.50 67.00 L 541.50 66.00 L 541.50 65.00 L 540.50 64.00 L 540.50 62.00 L 539.50 61.00 L 539.50 60.00 L 538.50 59.00 L 538.50 58.00 L 537.50 57.00 L 537.50 56.00 L 536.50 55.00 L 536.50 53.00 L 535.50 52.00 L 535.50 51.00 L 534.50 50.00 L 534.50 49.00 L 533.50 48.00 L 533.50 47.00 L 532.50 46.00 L 532.50 45.00 L 531.50 44.00 L 531.50 42.00 L 530.50 41.00 L 530.50 40.00 L 529.50 39.00 L 529.50 38.00 L 528.50 37.00 L 528.50 36.00 L 527.50 35.00 L 527.50 33.00 L 528.00 32.50 L 532.00 32.50 L 534.50 35.00 L 534.50 36.00 L 535.50 37.00 L 535.50 38.00 L 536.50 39.00 L 536.50 40.00 L 537.50 41.00 L 537.50 43.00 L 538.50 44.00 L 538.50 45.00 L 539.50 46.00 L 539.50 47.00 L 540.50 48.00 L 540.50 49.00 L 541.50 50.00 L 541.50 52.00 L 542.50 53.00 L 542.50 54.00 L 543.50 55.00 L 543.50 56.00 L 544.50 57.00 L 544.50 58.00 L 545.50 59.00 L 545.50 61.00 L 546.50 62.00 L 546.50 63.00 L 547.50 64.00 L 547.50 65.00 L 548.50 66.00 L 548.50 67.00 L 549.50 68.00 L 549.50 69.00 L 550.50 70.00 L 550.50 72.00 L 551.50 73.00 L 551.50 74.00 L 552.50 75.00 L 552.50 76.00 L 553.50 77.00 L 553.50 78.00 L 554.50 79.00 L 554.50 81.00 L 555.00 81.50 L 556.00 81.50 L 556.50 81.00 L 556.50 80.00 L 557.50 79.00 L 557.50 78.00 L 558.50 77.00 L 558.50 75.00 L 559.50 74.00 L 559.50 73.00 L 560.50 72.00 L 560.50 71.00 L 561.50 70.00 L 561.50 69.00 L 562.50 68.00 L 562.50 66.00 L 563.50 65.00 L 563.50 64.00 L 564.50 63.00 L 564.50 62.00 L 565.50 61.00 L 565.50 60.00 L 566.50 59.00 L 566.50 57.00 L 567.50 56.00 L 567.50 55.00 L 568.50 54.00 L 568.50 53.00 L 569.50 52.00 L 569.50 51.00 L 570.50 50.00 L 570.50 48.00 L 571.50 47.00 L 571.50 46.00 L 572.50 45.00 L 572.50 44.00 L 573.50 43.00 L 573.50 42.00 L 574.50 41.00 L 574.50 40.00 L 575.50 39.00 L 575.50 37.00 L 576.50 36.00 L 576.50 35.00 L 579.00 32.50 L 583.00 32.50 L 583.50 33.00 L 583.50 35.00 L 582.50 36.00 L 582.50 37.00 L 581.50 38.00 L 581.50 40.00 L 580.50 41.00 L 580.50 42.00 L 579.50 43.00 L 579.50 44.00 L 578.50 45.00 L 578.50 46.00 L 577.50 47.00 L 577.50 48.00 L 576.50 49.00 L 576.50 51.00 L 575.50 52.00 L 575.50 53.00 L 574.50 54.00 L 574.50 55.00 L 573.50 56.00 L 573.50 57.00 L 572.50 58.00 L 572.50 59.00 L 571.50 60.00 L 571.50 62.00 L 570.50 63.00 L 570.50 64.00 L 569.50 65.00 L 569.50 66.00 L 568.50 67.00 L 568.50 68.00 L 567.50 69.00 L 567.50 71.00 L 566.50 72.00 L 566.50 73.00 L 565.50 74.00 L 565.50 75.00 L 564.50 76.00 L 564.50 77.00 L 563.50 78.00 L 563.50 79.00 L 562.50 80.00 L 562.50 82.00 L 561.50 83.00 L 561.50 84.00 L 560.50 85.00 L 560.50 86.00 L 559.50 87.00 L 559.50 88.00 L 558.50 89.00 L 558.50 90.00 L 557.50 91.00 L 557.50 93.00 L 556.50 94.00 L 556.50 95.00 L 555.50 96.00 L 555.50 97.00 L 554.50 98.00 L 554.50 99.00 L 553.50 100.00 L 553.50 101.00 L 552.50 102.00 L 552.50 103.00 L 547.00 108.50 L 546.00 108.50 L 545.00 109.50 L 544.00 109.50 L 543.00 110.50 L 539.00 110.50 L 538.00 111.50 Z" fill="#ADADB0" fill-rule="evenodd"/>
</svg>
