<svg xmlns="http://www.w3.org/2000/svg" width="119" height="34" viewBox="0 0 119 34" fill="none">
    <path d="M63.3724 9.47479C63.2062 9.67232 63.1122 9.89289 63.1122 10.2764V20.8218H63.0526C63.0526 20.8218 57.1644 10.5315 56.8797 10.0558C56.6782 9.7184 56.4532 9.48627 56.1568 9.31179C55.8605 9.14965 55.5523 9.04515 54.9604 9.04515H53.0175C52.5667 9.04515 52.2829 9.19577 52.0814 9.42868C51.9151 9.62538 51.8202 9.84679 51.8202 10.2295V25.1772C51.8202 25.5607 51.9151 25.7813 52.0814 25.9788C52.2829 26.2109 52.5667 26.3615 53.0175 26.3615H54.1191C54.5691 26.3615 54.8538 26.2109 55.0553 25.9788C55.2207 25.7813 55.3155 25.5607 55.3155 25.1772V14.3758H55.3752C55.3752 14.3758 61.4884 24.9911 61.7377 25.3862C62.0811 25.9434 62.6613 26.3615 63.4908 26.3615H65.3749C65.825 26.3615 66.1096 26.2109 66.3111 25.9788C66.4765 25.7813 66.5714 25.5607 66.5714 25.1772V11.6928H91.3223C91.5716 11.6928 91.7605 11.6237 91.9032 11.5076C92.0569 11.3677 92.1283 11.1817 92.1283 10.9035V9.88133C92.1283 9.60233 92.0569 9.41632 91.9032 9.27723C91.7605 9.16118 91.5716 9.09126 91.3223 9.09126H64.3086C63.8586 9.09126 63.574 9.2427 63.3724 9.47479ZM74.1783 13.4697C70.0667 13.4697 67.7561 16.6178 67.7561 19.9395C67.7561 23.4817 70.2329 26.5944 74.2017 26.5944C76.1807 26.5944 78.1236 25.8627 79.2369 24.5731C79.723 24.0159 80.1143 23.2373 80.1143 22.7616C80.1143 22.5987 80.0782 22.4595 79.9841 22.355C79.8893 22.239 79.7466 22.169 79.498 22.169H77.5904C77.2109 22.169 76.9506 22.3081 76.7609 22.5871C76.2042 23.3887 75.3982 23.8068 74.2135 23.8068C72.4361 23.8068 71.2875 22.4826 71.2043 21.0308H79.451C79.8179 21.0308 80.0782 20.9493 80.2562 20.7756C80.4577 20.5896 80.5526 20.3222 80.5526 19.8226C80.5526 18.3017 80.0664 16.7223 79.048 15.5141C78.0052 14.2944 76.4175 13.4697 74.1783 13.4697ZM86.8908 13.4697C83.6449 13.4697 81.5122 14.9799 81.5122 17.3955C81.5122 18.2547 81.8321 18.9519 82.3535 19.4975C82.9581 20.137 83.8228 20.5781 85.0789 20.8917L87.7917 21.5649C88.5381 21.7509 89.2014 21.9715 89.2014 22.6102C89.2014 23.5978 88.1351 23.9344 86.9983 23.9344C86.4408 23.9344 85.8606 23.8299 85.3862 23.5978C85.0546 23.4348 84.7708 23.2027 84.5693 22.8892C84.3913 22.6217 84.3325 22.4242 84.0596 22.2735C83.8934 22.1805 83.6918 22.169 83.4198 22.169H81.9505C81.6306 22.169 81.477 22.262 81.3703 22.3896C81.2637 22.5172 81.2276 22.7032 81.2276 22.8892C81.2276 23.3533 81.3939 23.9344 81.7851 24.457C82.6852 25.6414 84.5693 26.5944 86.9739 26.5944C89.3441 26.5944 92.6262 25.6298 92.6262 22.5172C92.6262 21.7164 92.3886 21.0308 91.9503 20.4736C91.3936 19.765 90.6002 19.2769 89.2492 18.9403L86.56 18.2662C85.4458 17.9881 84.9244 17.7906 84.9244 17.1165C84.9244 16.4663 85.5172 15.9437 86.8908 15.9437C87.6968 15.9437 88.4314 16.1182 88.9058 16.6062C89.2962 17.0128 89.2258 17.2219 89.5339 17.384C89.7228 17.477 89.9361 17.477 90.2686 17.477H91.6069C91.8201 17.477 91.9746 17.4424 92.0922 17.314C92.1879 17.2095 92.2466 17.0474 92.2466 16.7799C92.2466 16.1758 91.8436 15.3981 91.1333 14.8055C90.1854 14.0039 88.6926 13.4697 86.8908 13.4697ZM94.2726 13.9117H93.6094C93.3608 13.9117 93.1711 13.9808 93.0292 14.0968C92.8747 14.2368 92.8033 14.4228 92.8033 14.701V15.5026C92.8033 15.7816 92.8747 15.9668 93.0292 16.1067C93.1711 16.2227 93.3608 16.2927 93.6094 16.2927H94.2726V22.0875C94.2726 23.5739 94.6874 24.5031 95.4573 25.2471C96.1685 25.9319 97.0929 26.3615 98.7041 26.3615H99.7108C99.9602 26.3615 100.149 26.2924 100.292 26.1763C100.445 26.0364 100.54 25.8504 100.54 25.5722V24.5616C100.54 24.2826 100.445 24.0974 100.292 23.9575C100.149 23.8414 99.9602 23.7715 99.7108 23.7715H99.5689C98.9291 23.7715 98.4909 23.6093 98.1945 23.3303C97.8393 23.0052 97.6613 22.5056 97.6613 21.8555V16.2927H99.8183C100.067 16.2927 100.257 16.2227 100.398 16.1067C100.552 15.9668 100.623 15.7816 100.623 15.5026V14.701C100.623 14.4228 100.552 14.2368 100.398 14.0968C100.257 13.9808 100.067 13.9117 99.8183 13.9117H97.673V10.125C97.673 9.82291 97.5782 9.60234 97.4363 9.42868C97.2583 9.21964 97.0098 9.09126 96.6429 9.09126H95.3036C94.9359 9.09126 94.6874 9.21964 94.5094 9.42868C94.3675 9.60234 94.2726 9.82291 94.2726 10.125V13.9117ZM101.524 25.3278C101.524 25.6298 101.618 25.8504 101.761 26.0249C101.938 26.2339 102.188 26.3615 102.555 26.3615H103.964C104.332 26.3615 104.581 26.2339 104.759 26.0249C104.9 25.8504 104.995 25.6298 104.995 25.3278V10.1258C104.995 9.82372 104.9 9.60316 104.759 9.42868C104.581 9.21964 104.332 9.09126 103.964 9.09126H102.555C102.188 9.09126 101.938 9.21964 101.761 9.42868C101.618 9.60316 101.524 9.82372 101.524 10.1258V25.3278ZM71.2279 18.5568C71.3815 17.128 72.4957 16.0598 74.19 16.0598C75.8491 16.0598 76.9977 17.128 77.1522 18.5568H71.2279ZM117.827 11.6928C118.076 11.6928 118.265 11.6237 118.407 11.5076C118.562 11.3677 118.633 11.1817 118.633 10.9035V9.82291C118.633 9.40482 118.55 9.19576 118.407 9.04515C118.277 8.90524 118.064 8.82458 117.827 8.82458C117.637 8.82458 117.448 8.84763 117.129 8.88219L107.673 9.79985C107.401 9.8229 107.271 9.9044 107.176 10.0089C107.069 10.125 107.021 10.2764 107.021 10.4854V11.0887C107.021 11.3217 107.069 11.4261 107.152 11.5191C107.258 11.6352 107.413 11.6928 107.626 11.6928H117.827ZM112.602 13.4697C108.491 13.4697 106.18 16.6178 106.18 19.9395C106.18 23.4817 108.657 26.5944 112.626 26.5944C114.605 26.5944 116.548 25.8627 117.661 24.5731C118.147 24.0159 118.538 23.2373 118.538 22.7616C118.538 22.5987 118.502 22.4595 118.407 22.355C118.313 22.239 118.17 22.169 117.922 22.169H116.014C115.635 22.169 115.375 22.3081 115.185 22.5871C114.628 23.3887 113.822 23.8068 112.637 23.8068C110.86 23.8068 109.711 22.4826 109.628 21.0308H117.898C118.265 21.0308 118.526 20.9493 118.704 20.7756C118.905 20.5896 119 20.3222 119 19.8226C119 18.3017 118.514 16.7223 117.495 15.5141C116.453 14.2944 114.841 13.4697 112.602 13.4697ZM109.652 18.5568C109.806 17.128 110.92 16.0598 112.614 16.0598C114.273 16.0598 115.422 17.128 115.576 18.5568H109.652ZM38.4574 11.8321C35.3903 7.34745 32.6952 5.83635 31.937 5.12526C31.1041 4.34092 30.4694 3.45208 30.0655 3.02411C29.1671 2.06199 28.0043 0.874378 26.0916 0.874378C24.2453 0.874378 23.0254 2.05378 22.6291 3.07268C22.5141 3.36321 22.4234 3.71872 22.3411 3.84793C22.1597 4.13928 21.3436 5.50468 21.0053 6.04623H22.5309L21.7886 7.41986C22.6543 7.23385 23.2722 7.09641 24.0967 7.09641C24.8305 7.09641 25.3578 7.26676 25.5887 7.71859C26.0178 8.55972 26.0178 11.1045 26.7432 13.0205C27.4191 14.8213 29.0681 16.5834 30.9228 17.9331C30.947 17.9492 30.9758 17.9575 31.005 17.957C31.0957 17.957 31.1537 17.8928 31.1537 17.8278C31.1537 17.7792 31.1369 17.7471 31.0957 17.7068C29.5458 16.1875 28.2847 14.5069 27.6088 12.665C26.9405 10.8708 27.048 8.34903 26.4627 7.22561C26.0748 6.48242 25.2512 6.28901 24.4922 6.28901C23.8826 6.28901 23.3134 6.41002 23.0498 6.46598L23.7172 5.35899H22.5879C22.8272 4.94748 23.0741 4.56725 23.1983 4.34092C23.305 4.14668 23.347 3.90476 23.4788 3.57391C23.907 2.51468 24.8549 1.84388 26.0916 1.84388C27.6416 1.84388 28.5483 2.82166 29.4467 3.7994C29.859 4.25206 30.5349 5.1977 31.3182 5.90056C31.8539 6.38531 32.8765 6.92687 34.4508 8.51941C35.3576 9.44037 36.413 10.6362 37.5255 12.2362C41.5077 17.9487 44.1206 22.9832 45.5798 26.9106L45.5555 26.9271C41.3759 24.1469 37.7564 21.5206 34.8387 18.2804C32.7691 15.9776 30.9723 13.311 29.4056 9.90866C29.2981 9.68233 29.2083 9.47247 29.1092 9.25437C29.0681 9.16549 29.0269 9.14079 28.9606 9.14079C28.8783 9.14079 28.8204 9.19758 28.8204 9.27823C28.8204 9.36712 28.8615 9.56135 28.9522 9.949C29.7851 13.4723 32.0932 16.6319 34.5583 19.2582C37.015 21.8688 39.7924 24.1148 42.0761 25.7477L43.857 30.7409C43.8981 30.8628 43.9476 30.992 43.9476 31.113C43.9476 31.2019 43.9225 31.2742 43.8654 31.3228C43.8158 31.3714 43.7503 31.3961 43.6017 31.3961H43.0661C42.8352 31.3961 42.7436 31.3631 42.6614 31.2989C42.5791 31.2339 42.522 31.1368 42.48 31.0241C42.3238 30.5549 41.3835 27.9287 41.2029 27.3954C41.1694 27.2991 41.1114 27.2662 41.046 27.2662C41.0275 27.2661 41.0092 27.2696 40.9922 27.2764C40.9751 27.2833 40.9596 27.2934 40.9466 27.3062C40.9335 27.3189 40.9232 27.3341 40.9162 27.3509C40.9092 27.3676 40.9056 27.3855 40.9057 27.4036C40.9057 27.4686 40.9301 27.5411 40.9721 27.7674C41.2105 28.9632 41.4909 30.3047 41.606 30.8142C41.6563 31.0479 41.7134 31.2669 41.7134 31.4282C41.7134 31.573 41.6807 31.6545 41.5573 31.7755L41.0048 32.3253C40.873 32.4545 40.7983 32.4866 40.6916 32.4866C40.5598 32.4866 40.4524 32.3977 40.4028 32.1713C39.7765 29.3023 38.8285 25.7477 38.5809 24.7609C38.5229 24.5436 38.4818 24.4218 38.35 24.4218C38.2349 24.4218 38.1938 24.5025 38.1938 24.5996C38.1938 24.672 38.2097 24.7609 38.2181 24.8259C38.3667 25.844 38.9688 29.5533 39.6195 32.9393C39.7353 33.5211 39.9578 33.8438 40.4691 33.8438C40.7 33.8438 40.9217 33.7548 41.1282 33.5614C41.4666 33.2298 41.5648 33.1409 41.9695 32.7532C42.2575 32.4783 42.4557 32.3656 42.9502 32.3656H44.1702C44.459 32.3656 44.6151 32.2932 44.7554 32.1631C44.8872 32.0422 44.9695 31.8726 44.9695 31.6298C44.9695 31.3796 44.904 31.178 44.8133 30.927C44.5001 30.1031 43.4942 27.3147 43.197 26.5312L43.2222 26.5147C44.2524 27.2826 45.7528 28.2604 46.4127 28.2604C46.6184 28.2604 46.7427 28.1715 46.7427 27.8563C46.7427 26.3699 44.2197 20.2524 38.4574 11.8321ZM10.1568 2.442C10.3297 2.07 10.7092 1.81153 11.1626 1.81153C11.7806 1.81153 12.2751 2.28069 12.2751 2.90289C12.2751 3.26584 12.1021 3.58188 11.8301 3.77529C11.888 3.98598 11.9292 4.17113 11.9292 4.3489C11.9292 5.02789 11.5169 5.50446 10.7588 5.75548C10.6597 6.16699 10.4783 6.53896 10.1811 6.81384C9.68659 7.28214 9.18365 7.28219 9.18365 7.47642C9.18365 7.58177 9.25839 7.64596 9.46409 7.64596C10.3793 7.64596 11.2776 7.14557 11.3851 6.31267C12.2592 6.02214 12.7864 5.15712 12.7864 4.47072C12.7864 4.29212 12.7696 4.13906 12.6958 3.99421C12.935 3.76705 13.2155 3.37939 13.2155 2.80574C13.2155 2.30452 12.9921 1.79593 12.5967 1.42393C12.2507 1.09225 11.7638 0.874126 11.1954 0.874126C10.3709 0.874126 9.83518 1.31117 9.5304 1.73914C8.63118 1.73914 7.46917 2.71686 7.46917 4.11517H7.34575C7.26262 3.63041 6.75215 3.30617 6.32311 3.2823C5.97719 2.26423 5.19382 1.39183 3.90754 1.39183C3.75977 1.39183 3.57843 1.40006 3.42142 1.42393C3.04276 1.08402 2.6221 0.874126 2.03689 0.874126C0.915171 0.874126 0 1.75557 0 2.86994C0 3.56539 0.321559 4.04192 0.931955 4.46248C0.931955 4.46248 0.923577 4.5514 0.923577 4.59173C0.923577 5.48059 1.91263 6.87066 3.38027 6.87066C3.38027 7.09617 3.66909 7.40398 3.99066 7.45994V7.57352H3.86642C1.84715 7.57352 0.989889 8.52737 0.989889 9.16521C0.387888 9.408 0 10.0623 0 10.6681C0 11.8722 0.89921 12.7289 2.08642 12.7289C2.48188 12.7289 2.88574 12.5758 3.16617 12.3651C3.37187 12.4375 3.63551 12.4779 3.90754 12.4779C4.4768 12.4779 5.11156 12.2845 5.55655 11.6458C5.62288 11.6541 5.67996 11.6541 5.74629 11.6541C6.47171 11.6541 7.09805 11.1849 7.42802 10.5709C7.5103 10.4179 7.54307 10.2969 7.54307 10.2072C7.54307 10.1191 7.50192 10.0458 7.41124 10.0458C7.29621 10.0458 7.27941 10.1512 7.07371 10.3372C6.61192 10.7495 5.90245 10.9026 5.17703 10.9026C4.82271 11.4121 4.38613 11.6787 3.8832 11.6787C3.51209 11.6787 3.2241 11.5816 2.92688 11.3874C2.68759 11.6458 2.39121 11.7512 2.10238 11.7512C1.45168 11.7512 0.989889 11.3067 0.989889 10.6598C0.989889 10.2072 1.28629 9.80391 1.69854 9.65001C1.77243 8.85003 2.64645 8.30848 3.73459 8.30848C3.8748 8.30848 4.015 8.31669 4.16362 8.33315C4.32818 8.07472 4.72365 7.79983 5.28451 7.72658C5.40038 7.71094 5.49022 7.70272 5.55655 7.67062C5.62288 7.6377 5.65561 7.57353 5.65561 7.50028C5.65561 7.43608 5.63042 7.37926 5.56493 7.33893C5.507 7.30683 5.40792 7.29124 5.29289 7.26655C4.77317 7.16943 4.15522 6.8542 3.84205 6.08632C2.59691 6.08632 1.68173 5.10856 1.68173 4.00983V3.9374C1.26948 3.77526 0.989889 3.38764 0.989889 2.92675C0.989889 2.32101 1.47603 1.83624 2.09398 1.83624C2.46509 1.83624 2.78667 2.014 2.99321 2.28065C3.16617 2.2321 3.36348 2.21565 3.55323 2.21565C4.4768 2.21565 5.46586 2.7893 5.65561 3.90449C6.84282 4.00984 7.12325 4.99584 7.19713 5.40817C7.23827 5.61804 7.27102 5.79577 7.41124 5.79577C7.55985 5.79577 7.59259 5.63366 7.64213 5.41555C7.7328 5.00405 7.88981 4.67238 8.20298 4.41396C8.20298 3.35473 9.01069 2.442 10.1568 2.442ZM12.5555 8.77726C12.1676 9.31881 11.888 9.58546 11.0056 10.6035C9.84359 11.9533 9.2332 13.0446 8.21895 15.4684C8.38435 15.452 8.62363 15.4363 8.88727 15.4363C9.01909 15.4363 9.12572 15.4363 9.29952 15.4437L9.42294 15.1853C9.9922 13.9895 10.7579 12.373 11.8301 11.1286L12.2012 10.7006C13.3053 9.43236 13.9896 8.68015 14.4186 6.95098C14.5672 6.33701 14.6907 5.78804 15.1113 5.39134C15.49 5.0358 15.9685 4.88273 16.4547 4.88273C16.8669 4.88273 17.1726 4.97986 17.6175 5.16504C18.0214 5.33459 18.1692 5.36748 18.5982 5.36748C18.7468 5.36748 18.8535 5.35924 18.9525 5.35101L18.3757 6.11068L19.1591 6.65224C18.1776 6.93454 17.6587 7.86454 17.4849 8.29251C17.4522 8.38139 17.4362 8.43816 17.4362 8.49495C17.4362 8.55997 17.4689 8.6242 17.568 8.6242C17.6746 8.6242 17.7569 8.5435 17.8971 8.38137C18.3757 7.81596 18.7552 7.42751 20.5184 6.88678L19.2741 5.96501L20.2136 4.61609H19.332C18.7712 4.61609 18.4001 4.60784 17.9139 4.38974C17.254 4.09099 16.9165 3.96176 16.3313 3.96176C15.6142 3.96176 14.9627 4.21196 14.427 4.69672C13.8082 5.2539 13.6185 5.99791 13.3968 6.81435C13.223 7.44396 13.0173 8.13942 12.5555 8.77726Z" fill="#939CA1"/>
    <path d="M14.4519 14.2816C13.9817 14.9038 13.3386 15.7194 12.8441 16.5844C13.0011 16.6577 13.5208 16.9326 13.7021 17.0289C14.2705 16.1886 15.0623 15.1549 15.5812 14.3705C16.0514 13.6594 16.2411 13.3524 16.2739 12.3985C16.2823 12.2372 16.2823 12.0833 16.2982 11.9303C16.3393 11.4373 16.472 10.936 16.9497 10.476C17.3041 10.1278 17.8154 9.95087 18.3267 9.95087C18.8212 9.95087 19.1092 10.0875 19.5383 10.0875C19.843 10.0875 20.0655 10.0151 20.2637 9.94268L20.4207 9.88587L20.0412 10.7755L20.9312 11.1303C20.3628 11.4776 19.1176 12.973 19.1176 14.7425C19.1176 15.3812 19.2167 15.9705 19.3569 16.4955C19.3737 16.5523 19.4064 16.6091 19.4971 16.6091C19.5794 16.6091 19.6373 16.5606 19.6457 16.4717L19.6541 16.2857C19.6785 15.7441 19.7196 14.8882 19.9421 14.1203C20.3132 12.8274 21.3107 11.615 22.3081 11.0331L20.89 10.4274L21.5004 8.96489L20.8329 9.10238C20.4291 9.18304 20.1319 9.25544 19.7776 9.25544C19.5467 9.25544 19.283 9.22335 18.9699 9.1501C18.7306 9.09414 18.4745 9.04557 18.1126 9.04557C17.4611 9.04557 16.76 9.28753 16.2823 9.74019C15.4082 10.5566 15.3587 11.4373 15.3008 12.2216C15.2269 13.2636 15.0287 13.522 14.4519 14.2816ZM35.6054 14.7745C35.5474 14.702 35.4979 14.6691 35.4324 14.6691C35.3333 14.6691 35.2838 14.7341 35.2838 14.8066C35.2838 14.9201 35.3661 15.0575 35.5726 15.3974C36.199 16.4394 36.9739 17.4896 37.9303 18.4764C38.9605 19.5504 40.172 20.552 41.4667 21.4491L41.8706 21.724C41.9285 21.7652 41.9696 21.7891 42.0192 21.7891C42.1014 21.7891 42.1594 21.7084 42.1594 21.6434C42.1594 21.6031 42.1426 21.5619 42.0931 21.5216C40.8899 20.4475 39.5952 19.1381 38.3837 17.8781C37.4349 16.8839 36.4626 15.8337 35.6054 14.7745ZM9.07707 11.1141C9.20049 10.9124 9.57159 10.4194 9.7202 10.2655C9.08545 9.00549 8.04686 7.80143 7.59348 7.32408L7.21395 7.68781C7.65139 8.31002 8.38439 9.51412 9.07707 11.1141ZM3.03447 3.81725C2.95975 3.75223 2.94379 3.71189 2.94379 3.66334C2.94379 3.60737 2.98492 3.54237 3.0756 3.54237C3.10834 3.54237 3.14111 3.55058 3.18309 3.56704C3.79264 3.80901 4.31235 4.09212 4.77414 4.43944C5.1612 4.72996 5.54071 5.08636 5.91097 5.51433L5.56504 5.90198C5.13684 5.55384 3.7515 4.41559 3.03447 3.81725ZM8.87926 6.52426L8.43424 6.25758C8.72223 5.58681 9.0774 4.97287 9.4972 4.51197C9.79443 4.18112 10.0749 3.91365 10.388 3.64781C10.4619 3.59103 10.503 3.54243 10.5769 3.54243C10.66 3.54243 10.718 3.60748 10.718 3.67167C10.718 3.70377 10.7012 3.74408 10.6685 3.79264C10.1655 4.56051 9.18404 6.07983 8.87926 6.52426ZM3.29011 10.2736C3.18264 10.3139 3.13313 10.3386 3.07603 10.3386C2.98536 10.3386 2.94336 10.2654 2.94336 10.2086C2.94336 10.1526 2.96855 10.1205 3.02648 10.0711C4.03989 9.29584 4.93073 8.98888 6.15908 8.78641L6.30685 9.27197L3.29011 10.2736ZM24.435 4.00326C24.435 3.72014 24.5836 3.21069 25.1193 3.21069C25.3007 3.21069 25.4736 3.25101 25.6139 3.31602C25.812 3.40491 25.9438 3.53413 25.9438 3.67157C25.9438 3.81725 25.7952 3.96293 25.5727 4.1407C25.3418 4.32588 25.0454 4.49625 24.8062 4.49625C24.5182 4.49625 24.435 4.22877 24.435 4.00326ZM16.0677 6.36266C16.0677 6.01535 16.2818 5.63514 16.6941 5.63514C16.8754 5.63514 17.0896 5.70756 17.2466 5.85405C17.3372 5.93471 17.3784 6.02279 17.3784 6.1125C17.3784 6.30674 17.1886 6.4919 16.9661 6.62111C16.7932 6.71823 16.6118 6.78327 16.4556 6.78327C16.1996 6.78327 16.0677 6.6285 16.0677 6.36266Z" fill="#939CA1"/>
    <path d="M18.0043 11.3453C18.0043 11.2646 18.0127 11.1675 18.0455 11.0704C18.1118 10.8605 18.2512 10.658 18.5979 10.658C18.7549 10.658 18.9271 10.6984 19.0673 10.7963C19.1915 10.877 19.2411 10.9815 19.2411 11.0868C19.2411 11.4342 18.6475 11.8383 18.3503 11.8383C18.1362 11.8383 18.0043 11.6358 18.0043 11.3453ZM14.7563 21.543C13.6438 21.543 13.1484 21.0261 13.1484 20.3718C13.1484 19.2237 15.2013 18.1011 17.0476 17.4057L17.5262 18.0122C16.3885 18.4558 14.0972 19.4106 14.0972 20.2344C14.0972 20.5249 14.2702 20.7356 14.962 20.7356C16.166 20.7356 17.4607 20.1611 18.6555 19.5875C18.7461 19.5472 18.8536 19.5068 18.9527 19.5068C19.1089 19.5068 19.2079 19.5554 19.3229 19.7167L19.5211 19.9834C18.1282 20.7356 16.3885 21.543 14.7563 21.543Z" fill="#939CA1"/>
    <path d="M17.8229 21.8521C16.7347 22.4496 15.6054 22.8463 14.608 22.8463C13.4947 22.8463 12.5056 22.3771 11.6811 21.1566C11.3352 20.6397 11.0632 19.9937 10.7332 19.42C10.3377 18.741 9.90869 18.3773 9.15891 18.3773C8.47463 18.3773 7.80629 18.6521 7.09766 18.9509L7.1304 19.1048C7.18834 19.355 7.28742 19.5328 7.52587 19.5328C7.63334 19.5328 7.74079 19.4851 7.79872 19.4686C8.19418 19.3468 8.48218 19.2414 8.88688 19.2414C9.50483 19.2414 9.80121 19.5978 10.2219 20.4702L10.3788 20.7936C9.9498 20.9393 8.94396 21.0118 8.19419 21.0118H7.83987L7.89781 21.3591C7.92216 21.5047 7.98009 21.6257 8.10351 21.6825C8.25128 21.7549 8.46621 21.7631 8.83732 21.7631C9.77685 21.7631 10.4611 21.6504 10.8566 21.5525C11.8708 23.0323 13.2638 23.5977 14.608 23.5977C15.7532 23.5977 16.9161 23.1853 18.0294 22.5878L17.8229 21.8521ZM18.9437 22.2156L18.7464 21.4716C20.4441 20.5754 21.994 19.8561 24.4675 19.6215C24.5171 20.5507 24.4507 21.7227 25.1518 21.7227C25.7941 21.7227 27.1954 20.098 28.8117 18.0619C28.9603 18.1993 29.1987 18.345 29.4137 18.5063L29.0014 19.0314C27.4263 21.0198 26.0829 22.7169 24.978 22.7169C23.9478 22.7169 23.5599 21.5284 23.544 20.6396C21.9697 20.7935 20.4853 21.3103 18.9437 22.2156ZM40.7569 5.99737C40.1138 5.99737 39.9324 5.64923 39.9324 5.15707C39.9324 4.13899 40.5839 2.67648 40.9962 1.84359H39.9979C39.479 2.82957 37.4346 5.98913 36.3296 7.29856L36.9644 7.96851C37.558 7.32244 38.2095 6.22373 38.9181 5.14064H39.05C39.05 5.19743 39.0424 5.26163 39.0424 5.31841C39.0424 6.23197 39.5202 6.9101 40.699 6.9101C41.4244 6.9101 42.5621 6.55455 43.6342 6.199C44.5242 5.90025 45.3403 5.59327 45.7442 5.48052V4.51102C45.2824 4.64764 44.3429 5.00316 43.3698 5.33484C42.348 5.68216 41.3421 5.99737 40.7569 5.99737ZM42.9578 8.93053C43.9468 8.51902 45.7192 7.82358 46.7419 7.4598V6.47383C44.689 7.21784 41.0863 8.68037 38.6296 9.9898C38.6959 10.0696 39.1249 10.6597 39.1736 10.7329C40.2122 10.3124 41.1442 10.0375 41.9846 10.0375C43.1643 10.0375 44.1282 10.0375 45.7444 9.66549V8.92229C44.8377 9.08443 43.8729 9.27784 43.2466 9.27784C42.8755 9.27784 42.768 9.22929 42.768 9.1083C42.768 9.03588 42.8176 8.98732 42.9578 8.93053Z" fill="#939CA1"/>
    <path d="M21.8377 13.4727L21.4414 14.2167H25.6546L25.3414 13.4727H21.8377Z" fill="#939CA1"/>
    <path d="M6.66062 17.9068C7.10561 17.9068 7.46832 17.7612 7.81508 17.6245C8.14421 17.4945 8.47418 17.3653 8.91917 17.3653C9.97456 17.3653 11.2768 17.8665 12.4229 18.343C12.4912 18.369 12.5637 18.3826 12.637 18.3834C12.8192 18.3834 12.9594 18.3027 13.0492 18.1331L13.1978 17.8665C11.9367 17.1472 9.92504 16.3793 8.87805 16.3793C8.40031 16.3793 8.05353 16.5011 7.7244 16.6295C7.35329 16.776 7.03172 16.9291 6.69336 16.9291C5.86131 16.9291 3.72618 16.1209 3.72618 15.3374C3.72618 14.4164 7.1224 14.0608 7.49351 14.0608L7.83104 13.3086C5.36679 13.3086 2.43151 14.1571 2.43151 15.2806C2.43151 15.604 2.62127 15.7653 2.62127 16.0641C2.62127 16.4682 2.43151 16.7431 2.43151 17.1957C2.43151 17.4945 2.61287 17.8747 2.82697 18.2064C3.05786 18.5537 3.3299 18.7793 3.3299 19.0706C3.3299 19.2887 3.18213 19.5471 3.18213 20.0566C3.18213 21.1471 3.81687 21.8104 5.05278 23.1108L5.30045 23.3692C4.27864 23.7577 2.37358 24.5659 1.92858 24.7511C0.387058 25.3815 0 26.1494 0 27.3617C0 27.83 1.22922e-06 28.3633 0.032746 28.8398H0.329126C0.947919 28.8398 1.02181 28.4769 1.02181 28.1295C1.02181 27.895 1.01341 27.6283 1.01341 27.337C1.02181 26.667 1.04698 26.0687 2.15107 25.5839C2.5969 25.3897 4.78074 24.5173 6.40539 23.8383C6.88312 23.6359 7.32811 23.4663 7.82264 23.4663C8.3751 23.4663 9.00984 23.7009 9.8016 24.1618C10.4691 24.5494 11.1702 25.0745 11.7226 25.6802L12.4229 25.1551C11.8209 24.4605 10.9888 23.8383 10.1559 23.3536C9.32304 22.8688 8.58166 22.5857 7.95531 22.5857C7.68328 22.5857 7.46078 22.6343 7.27103 22.6828C7.04853 22.7396 6.84198 22.8038 6.57834 22.8038C6.27356 22.8038 6.01749 22.7314 5.64639 22.3108C5.50617 22.1577 4.61618 21.1635 4.42643 20.873C4.33575 20.7355 4.17117 20.4606 4.17117 20.1372C4.17117 19.9998 4.19554 19.8385 4.27866 19.6928C5.04439 20.2747 5.99313 20.6302 7.14676 20.7676L6.99059 19.9998C5.3332 19.5718 3.56919 18.1414 3.56919 17.2204C3.56919 17.0262 3.61871 16.8887 3.69343 16.7192C4.33574 17.3011 5.84451 17.9068 6.66062 17.9068ZM18.5236 18.0526C19.5622 17.3333 20.6335 17.2526 21.4992 17.2526C22.0189 17.2526 22.6284 17.325 23.2716 17.4057C23.7913 17.4707 24.2606 17.5192 24.8215 17.5192C25.9508 17.5192 27.0884 17.1151 27.5829 16.9044C27.7232 17.0748 27.9625 17.3012 28.1522 17.4625C27.9129 17.6082 26.3966 18.4155 24.8467 18.4155C24.1624 18.4155 23.5109 18.3357 22.95 18.2624C22.4555 18.1983 21.9198 18.1415 21.4001 18.1415C20.8317 18.1415 19.6856 18.3028 18.9769 18.6345L18.5236 18.0526Z" fill="#939CA1"/>
    <path d="M33.8327 20.9416C32.596 23.4954 30.7161 25.3538 28.7875 26.4286C27.8723 26.9373 27.0479 27.2689 25.2679 27.2689H21.4174C20.0413 27.2689 19.1757 27.4467 18.4998 27.6163C17.7735 27.8023 17.3126 27.9874 16.5788 27.9874C15.4906 27.9874 14.4848 27.4624 13.9986 26.962L14.9054 26.2591L14.452 25.6682C14.1884 25.855 10.9651 28.1899 10.2884 28.715L10.2472 28.6911C10.264 28.5298 10.264 28.3841 10.264 28.2384C10.264 26.4607 9.42275 26.0319 8.1457 25.5315L7.28006 26.032C9.03568 26.6064 9.47227 27.0665 9.47227 28.3512C9.47227 29.3701 9.10118 29.7734 8.5655 30.0812C8.01304 30.3964 7.32876 30.5413 6.7276 30.5413C6.47152 30.5413 6.35648 30.5898 6.2658 30.6787C6.16673 30.7758 6.11719 30.9215 6.11719 31.1231V31.4062H6.32373C7.42782 31.4062 8.45048 31.2367 9.57136 30.3717L13.2237 27.5759C13.7425 28.1578 15.054 28.966 16.6031 28.966C17.4771 28.966 18.038 28.7553 18.8457 28.5537C19.472 28.3998 20.0824 28.2623 21.4174 28.2623H25.2838C27.2628 28.2623 28.2191 27.8582 29.2737 27.2772C31.5658 26.0163 33.5196 23.883 34.6245 21.4337C34.3357 21.2568 34.0636 21.0947 33.8327 20.9416Z" fill="#939CA1"/>
    <path d="M27.6243 23.9759C28.6218 22.4081 29.5118 21.018 31.6964 19.8871C31.4656 19.7497 31.1364 19.5398 30.9626 19.4262C30.1138 19.79 29.2733 20.5167 28.5563 21.2525C26.9073 22.9331 27.0551 23.9026 25.3162 24.5578C24.8788 24.7191 24.3431 24.8968 23.6589 25.0508C23.255 23.8302 22.2416 22.6179 21.1694 22.6179C20.4272 22.6179 19.57 22.9973 18.5809 23.4261C17.4189 23.9273 16.3551 24.501 16.0176 24.7191L16.4709 25.3174C16.8169 25.1306 17.8143 24.6459 18.8118 24.2261C19.6774 23.8623 20.4608 23.5635 20.9881 23.5635C21.8369 23.5635 22.3894 24.5092 22.695 25.2681C21.5817 25.5273 19.7513 25.5915 19.1997 25.5915C18.9436 25.5915 18.8529 25.6318 18.7622 25.7051C18.68 25.7775 18.6137 25.9067 18.5725 26.0845L18.507 26.3594H19.0998C22.1837 26.3594 25.0938 25.8828 26.9644 24.7676C27.2289 24.8409 27.4598 24.8886 27.7562 24.8886C28.8275 24.8886 29.9324 24.315 30.6251 23.7899C30.872 23.6039 30.9299 23.4335 30.9299 23.2483C30.9299 23.1594 30.9215 23.0788 30.9131 22.9973L30.8804 22.683C29.8913 23.45 29.0668 24.0244 28.045 24.0244C27.8636 24.0244 27.7318 24.008 27.6243 23.9759Z" fill="#939CA1"/>
</svg>