<svg xmlns="http://www.w3.org/2000/svg" width="119" height="34" fill="none"><path fill="#939CA1" d="M63.372 9.475c-.166.197-.26.418-.26.801v10.546h-.06s-5.888-10.29-6.172-10.766c-.202-.338-.427-.57-.723-.744-.296-.162-.605-.267-1.197-.267h-1.943c-.45 0-.734.15-.936.384-.166.196-.26.418-.26.8v14.948c0 .384.094.604.26.802.202.232.486.383.936.383h1.102c.45 0 .735-.151.936-.383.166-.198.26-.418.26-.802V14.376h.06s6.113 10.615 6.363 11.01c.343.557.923.976 1.753.976h1.884c.45 0 .735-.151.936-.383.165-.198.26-.418.26-.802V11.693h24.751c.25 0 .438-.07.581-.185.154-.14.225-.326.225-.604V9.88c0-.279-.071-.465-.225-.604a.888.888 0 0 0-.58-.186H64.308c-.45 0-.735.152-.937.384Zm10.806 3.995c-4.111 0-6.422 3.148-6.422 6.47 0 3.542 2.477 6.654 6.446 6.654 1.979 0 3.922-.731 5.035-2.02.486-.558.877-1.337.877-1.812 0-.163-.036-.303-.13-.407-.095-.116-.237-.186-.486-.186H77.59c-.38 0-.64.14-.83.418-.556.802-1.362 1.22-2.547 1.22-1.777 0-2.925-1.324-3.009-2.776h8.247c.367 0 .627-.082.805-.255.202-.186.297-.454.297-.953 0-1.521-.487-3.1-1.505-4.309-1.043-1.22-2.63-2.044-4.87-2.044Zm12.713 0c-3.246 0-5.379 1.51-5.379 3.925 0 .86.32 1.557.841 2.102.605.64 1.47 1.081 2.726 1.395l2.713.673c.746.186 1.41.406 1.41 1.045 0 .988-1.067 1.324-2.204 1.324-.557 0-1.137-.104-1.612-.336a1.997 1.997 0 0 1-.817-.709c-.178-.267-.237-.465-.51-.616-.166-.093-.367-.104-.64-.104h-1.468c-.32 0-.474.093-.58.22-.107.128-.143.314-.143.5 0 .464.166 1.045.557 1.568.9 1.184 2.784 2.137 5.189 2.137 2.37 0 5.652-.964 5.652-4.077 0-.8-.237-1.486-.676-2.043-.556-.709-1.35-1.197-2.7-1.534l-2.69-.674c-1.114-.278-1.636-.475-1.636-1.15 0-.65.593-1.172 1.967-1.172.806 0 1.54.174 2.015.662.39.407.32.616.628.778.189.093.402.093.735.093h1.338c.213 0 .368-.035.485-.163.096-.105.155-.267.155-.534 0-.604-.403-1.382-1.114-1.975-.948-.801-2.44-1.335-4.242-1.335Zm7.382.442h-.664a.886.886 0 0 0-.58.185c-.154.14-.226.326-.226.604v.802c0 .279.072.464.226.604a.887.887 0 0 0 .58.186h.664v5.794c0 1.487.414 2.416 1.184 3.16.712.685 1.636 1.114 3.247 1.114h1.007a.89.89 0 0 0 .581-.185c.153-.14.248-.326.248-.604v-1.01c0-.28-.095-.465-.248-.605a.89.89 0 0 0-.581-.186h-.142c-.64 0-1.078-.162-1.374-.44-.356-.326-.534-.825-.534-1.476v-5.562h2.157c.249 0 .439-.07.58-.186.154-.14.225-.325.225-.604V14.7c0-.278-.071-.464-.225-.604-.141-.116-.331-.185-.58-.185h-2.145v-3.787c0-.302-.095-.523-.237-.696-.178-.21-.426-.338-.793-.338h-1.34c-.367 0-.616.129-.794.338a1.053 1.053 0 0 0-.236.696v3.787Zm7.251 11.416c0 .302.094.522.237.697.177.209.427.337.794.337h1.409c.368 0 .617-.128.795-.337.141-.175.236-.395.236-.697V10.126c0-.302-.095-.523-.236-.697-.178-.21-.427-.338-.795-.338h-1.409c-.367 0-.617.129-.794.338a1.052 1.052 0 0 0-.237.697v15.202Zm-30.296-6.771c.154-1.429 1.268-2.497 2.962-2.497 1.66 0 2.808 1.068 2.962 2.497h-5.924Zm46.599-6.864c.249 0 .438-.07.58-.185.155-.14.226-.326.226-.604V9.822c0-.418-.083-.627-.226-.778-.13-.14-.343-.22-.58-.22-.19 0-.379.023-.698.057l-9.456.918c-.272.023-.402.104-.497.209-.107.116-.155.267-.155.476v.604c0 .233.048.337.131.43.106.116.261.174.474.174h10.201Zm-5.225 1.777c-4.111 0-6.422 3.148-6.422 6.47 0 3.542 2.477 6.654 6.446 6.654 1.979 0 3.922-.731 5.035-2.02.486-.558.877-1.337.877-1.812 0-.163-.036-.303-.131-.407-.094-.116-.237-.186-.485-.186h-1.908c-.379 0-.639.14-.829.418-.557.802-1.363 1.22-2.548 1.22-1.777 0-2.926-1.324-3.009-2.776h8.27c.367 0 .628-.082.806-.255.201-.186.296-.454.296-.953 0-1.521-.486-3.1-1.505-4.309-1.042-1.22-2.654-2.044-4.893-2.044Zm-2.95 5.087c.154-1.429 1.268-2.497 2.962-2.497 1.659 0 2.808 1.068 2.962 2.497h-5.924Zm-71.195-6.725c-3.067-4.485-5.762-5.996-6.52-6.707-.833-.784-1.468-1.673-1.872-2.1-.898-.963-2.06-2.15-3.973-2.15-1.847 0-3.067 1.179-3.463 2.198-.115.29-.206.646-.288.775-.181.291-.997 1.657-1.336 2.198h1.526l-.742 1.374c.865-.186 1.483-.324 2.308-.324.733 0 1.26.17 1.492.623.429.84.429 3.385 1.154 5.301.676 1.801 2.325 3.563 4.18 4.913a.144.144 0 0 0 .082.024c.09 0 .149-.064.149-.13 0-.048-.017-.08-.058-.12-1.55-1.52-2.811-3.2-3.487-5.042-.669-1.794-.561-4.316-1.146-5.44-.388-.743-1.212-.936-1.97-.936-.61 0-1.18.121-1.443.177l.667-1.107h-1.13c.24-.412.487-.792.611-1.018.107-.194.149-.436.28-.767.429-1.06 1.377-1.73 2.614-1.73 1.55 0 2.456.978 3.355 1.955.412.453 1.088 1.399 1.871 2.102.536.484 1.558 1.026 3.133 2.618a28.033 28.033 0 0 1 3.075 3.717c3.982 5.713 6.595 10.747 8.054 14.675l-.024.016c-4.18-2.78-7.8-5.406-10.717-8.647-2.07-2.302-3.867-4.969-5.433-8.371-.108-.227-.198-.437-.297-.655-.04-.089-.082-.113-.148-.113-.083 0-.14.057-.14.137 0 .09.04.283.131.671.833 3.523 3.141 6.683 5.606 9.31 2.457 2.61 5.234 4.856 7.518 6.489l1.781 4.993c.041.122.09.251.09.372 0 .089-.025.161-.082.21-.05.048-.115.073-.263.073h-.536c-.23 0-.322-.033-.405-.097a.614.614 0 0 1-.181-.275c-.156-.47-1.096-3.095-1.277-3.629-.034-.096-.092-.129-.157-.129a.143.143 0 0 0-.1.04.134.134 0 0 0-.04.098c0 .065.024.137.066.363.239 1.196.519 2.538.634 3.047.05.234.107.453.107.614 0 .145-.032.226-.156.348l-.552.55c-.132.129-.207.16-.313.16-.132 0-.24-.088-.29-.315-.626-2.869-1.574-6.423-1.821-7.41-.058-.217-.1-.34-.231-.34-.115 0-.156.082-.156.179 0 .072.016.16.024.226.149 1.018.75 4.727 1.401 8.113.116.582.339.905.85.905.231 0 .453-.09.66-.283.338-.331.436-.42.84-.808.288-.275.487-.387.981-.387h1.22c.289 0 .445-.073.585-.203.132-.12.214-.29.214-.533 0-.25-.065-.452-.156-.703-.313-.824-1.319-3.612-1.616-4.396l.025-.016c1.03.768 2.53 1.745 3.19 1.745.206 0 .33-.088.33-.404 0-1.486-2.522-7.604-8.285-16.024Zm-28.3-9.39c.173-.372.552-.63 1.006-.63.618 0 1.112.469 1.112 1.09 0 .364-.173.68-.445.873.058.211.1.396.1.574 0 .679-.413 1.155-1.171 1.406-.1.412-.28.784-.578 1.059-.494.468-.997.468-.997.662 0 .106.074.17.28.17.915 0 1.814-.5 1.921-1.333.874-.29 1.401-1.156 1.401-1.842 0-.179-.016-.332-.09-.477.239-.227.52-.615.52-1.188 0-.501-.224-1.01-.62-1.382a2.007 2.007 0 0 0-1.4-.55c-.825 0-1.36.437-1.666.865-.899 0-2.06.978-2.06 2.376h-.124c-.083-.485-.594-.809-1.023-.833-.346-1.018-1.13-1.89-2.415-1.89-.148 0-.33.008-.487.032-.378-.34-.799-.55-1.384-.55C.915.874 0 1.756 0 2.87c0 .695.322 1.172.932 1.592 0 0-.008.09-.008.13 0 .889.989 2.279 2.456 2.279 0 .225.29.533.61.589v.114h-.124C1.847 7.574.99 8.527.99 9.165c-.602.243-.99.897-.99 1.503 0 1.204.9 2.06 2.086 2.06.396 0 .8-.152 1.08-.363.206.072.47.113.742.113.569 0 1.204-.194 1.649-.832.066.008.123.008.19.008.725 0 1.351-.47 1.681-1.083a.806.806 0 0 0 .115-.364c0-.088-.041-.161-.132-.161-.115 0-.132.105-.337.291-.462.412-1.172.566-1.897.566-.354.51-.79.776-1.294.776-.37 0-.659-.097-.956-.292-.24.259-.536.364-.825.364-.65 0-1.112-.444-1.112-1.091 0-.453.296-.856.709-1.01.073-.8.947-1.342 2.036-1.342.14 0 .28.009.429.025.164-.258.56-.533 1.12-.606.116-.016.206-.024.273-.056a.181.181 0 0 0 .099-.17.179.179 0 0 0-.091-.162c-.058-.032-.157-.048-.272-.072-.52-.098-1.138-.413-1.451-1.18-1.245 0-2.16-.978-2.16-2.077v-.073a1.078 1.078 0 0 1-.692-1.01c0-.606.486-1.09 1.104-1.09.371 0 .693.177.9.444.172-.049.37-.065.56-.065.923 0 1.912.573 2.102 1.688 1.187.106 1.467 1.092 1.541 1.504.041.21.074.388.214.388.149 0 .182-.162.231-.38.09-.412.248-.744.561-1.002 0-1.06.808-1.972 1.954-1.972Zm2.399 6.335c-.388.542-.668.808-1.55 1.827-1.162 1.35-1.773 2.44-2.787 4.864a8.479 8.479 0 0 1 1.08-.025l.124-.258c.57-1.196 1.335-2.812 2.407-4.056l.371-.428c1.104-1.269 1.789-2.02 2.218-3.75.148-.614.272-1.163.692-1.56.379-.355.857-.508 1.344-.508.412 0 .718.097 1.163.282.403.17.551.202.98.202.149 0 .256-.008.355-.016l-.577.76.783.541c-.981.283-1.5 1.213-1.674 1.64a.588.588 0 0 0-.049.203c0 .065.033.13.132.13.107 0 .189-.082.33-.244.478-.565.857-.953 2.62-1.494l-1.244-.922.94-1.349h-.882c-.56 0-.932-.008-1.418-.226-.66-.299-.998-.428-1.583-.428a2.78 2.78 0 0 0-1.904.735c-.619.557-.809 1.3-1.03 2.117-.174.63-.38 1.325-.841 1.963Z"/><path fill="#939CA1" d="M14.452 14.282c-.47.622-1.113 1.437-1.608 2.302.157.074.677.349.858.445.569-.84 1.36-1.874 1.88-2.659.47-.71.66-1.018.692-1.971.008-.162.008-.316.024-.469.041-.493.174-.994.652-1.454.354-.348.865-.525 1.377-.525.494 0 .782.136 1.211.136.305 0 .527-.072.726-.144l.157-.057-.38.89.89.354c-.568.348-1.813 1.843-1.813 3.612 0 .64.099 1.228.239 1.753.017.057.05.114.14.114.082 0 .14-.048.149-.137l.008-.186c.024-.542.066-1.398.288-2.166.371-1.293 1.369-2.505 2.366-3.087l-1.418-.606.61-1.462-.667.137c-.404.081-.701.153-1.055.153-.231 0-.495-.032-.808-.105a3.51 3.51 0 0 0-.857-.104c-.652 0-1.353.242-1.83.694-.875.817-.924 1.697-.982 2.482-.074 1.042-.272 1.3-.85 2.06Zm21.153.492c-.058-.072-.107-.105-.173-.105-.099 0-.148.065-.148.138 0 .113.082.25.289.59a17 17 0 0 0 2.357 3.08c1.03 1.073 2.242 2.075 3.537 2.972l.404.275c.057.041.099.065.148.065.082 0 .14-.08.14-.146 0-.04-.016-.081-.066-.121-1.203-1.074-2.498-2.384-3.71-3.644-.948-.994-1.92-2.044-2.778-3.104Zm-26.528-3.66c.123-.202.495-.695.643-.849-.635-1.26-1.673-2.464-2.127-2.94l-.38.363c.438.622 1.171 1.826 1.864 3.426ZM3.034 3.817c-.074-.065-.09-.105-.09-.154 0-.056.04-.12.132-.12a.29.29 0 0 1 .107.024 6.74 6.74 0 0 1 1.591.872c.387.291.767.647 1.137 1.075l-.346.388a375.899 375.899 0 0 1-2.53-2.085ZM8.88 6.524l-.445-.266c.288-.671.643-1.285 1.063-1.746.297-.33.578-.598.891-.864.074-.057.115-.106.189-.106.083 0 .141.065.141.13 0 .032-.017.072-.05.12-.502.769-1.484 2.288-1.789 2.732Zm-5.589 3.75c-.107.04-.157.065-.214.065a.13.13 0 0 1-.133-.13c0-.056.026-.088.083-.138C4.04 9.296 4.931 8.99 6.16 8.786l.148.486-3.017 1.002Zm21.145-6.27c0-.284.149-.793.684-.793.182 0 .355.04.495.105.198.089.33.218.33.356 0 .145-.149.29-.371.469-.231.185-.528.355-.767.355-.288 0-.371-.267-.371-.493Zm-8.367 2.359c0-.348.214-.728.626-.728.181 0 .396.073.553.22.09.08.131.168.131.257 0 .195-.19.38-.412.51-.173.096-.354.161-.51.161-.256 0-.388-.155-.388-.42Z"/><path fill="#939CA1" d="M18.004 11.345c0-.08.009-.178.041-.275.067-.21.206-.412.553-.412.157 0 .33.04.47.138.123.081.173.186.173.29 0 .348-.593.752-.89.752-.215 0-.347-.202-.347-.493Zm-3.248 10.198c-1.112 0-1.608-.517-1.608-1.171 0-1.148 2.053-2.27 3.9-2.966l.478.606c-1.137.444-3.429 1.399-3.429 2.222 0 .29.173.502.865.502 1.204 0 2.499-.575 3.694-1.149.09-.04.198-.08.297-.08.156 0 .255.048.37.21l.198.266c-1.393.753-3.133 1.56-4.765 1.56Z"/><path fill="#939CA1" d="M17.823 21.852c-1.088.598-2.218.994-3.215.994-1.113 0-2.102-.469-2.927-1.69-.346-.516-.618-1.162-.948-1.736-.395-.679-.824-1.043-1.574-1.043-.684 0-1.353.275-2.061.574l.032.154c.058.25.157.428.396.428.107 0 .215-.048.273-.064.395-.122.683-.228 1.088-.228.618 0 .914.357 1.335 1.23l.157.323c-.43.145-1.435.218-2.185.218H7.84l.058.347c.024.146.082.267.206.323.147.073.362.081.733.081.94 0 1.624-.113 2.02-.21 1.014 1.48 2.407 2.045 3.751 2.045 1.145 0 2.308-.413 3.421-1.01l-.206-.736Zm1.12.364-.197-.744c1.698-.897 3.248-1.616 5.722-1.85.05.929-.017 2.1.684 2.1.642 0 2.043-1.624 3.66-3.66.148.137.387.283.602.444l-.413.525c-1.575 1.989-2.918 3.686-4.023 3.686-1.03 0-1.418-1.189-1.434-2.077-1.574.154-3.059.67-4.6 1.576ZM40.758 5.997c-.643 0-.825-.348-.825-.84 0-1.018.652-2.48 1.064-3.313h-.998c-.519.986-2.563 4.145-3.668 5.455l.634.67c.594-.647 1.245-1.745 1.954-2.828h.132c0 .056-.008.12-.008.177 0 .914.478 1.592 1.657 1.592.725 0 1.863-.355 2.935-.711.89-.299 1.706-.606 2.11-.718v-.97c-.462.137-1.401.492-2.374.824-1.022.347-2.028.662-2.613.662Zm2.2 2.934a96.915 96.915 0 0 1 3.785-1.471v-.986c-2.053.744-5.656 2.206-8.112 3.516.066.08.495.67.544.743 1.038-.42 1.97-.696 2.81-.696 1.18 0 2.144 0 3.76-.372v-.743c-.906.162-1.871.356-2.497.356-.371 0-.479-.049-.479-.17 0-.072.05-.12.19-.177ZM21.838 13.473l-.397.744h4.214l-.314-.744h-3.503Z"/><path fill="#939CA1" d="M6.66 17.907c.446 0 .808-.146 1.155-.282.33-.13.66-.26 1.104-.26 1.056 0 2.358.502 3.504.978a.62.62 0 0 0 .214.04c.182 0 .322-.08.412-.25l.149-.267c-1.261-.719-3.273-1.487-4.32-1.487-.478 0-.824.122-1.154.25-.37.147-.692.3-1.03.3-.833 0-2.968-.808-2.968-1.592 0-.92 3.396-1.276 3.768-1.276l.337-.752c-2.464 0-5.4.848-5.4 1.972 0 .323.19.484.19.783 0 .404-.19.68-.19 1.132 0 .298.182.679.396 1.01.23.348.503.573.503.865 0 .218-.148.476-.148.986 0 1.09.635 1.753 1.87 3.054l.248.258c-1.021.389-2.926 1.197-3.371 1.382C.387 25.381 0 26.15 0 27.361c0 .469 0 1.002.033 1.479h.296c.619 0 .693-.363.693-.71 0-.235-.009-.502-.009-.793.009-.67.034-1.268 1.138-1.753.446-.194 2.63-1.067 4.254-1.746.478-.202.923-.372 1.418-.372.552 0 1.187.235 1.979.696.667.387 1.368.913 1.92 1.518l.7-.525c-.601-.695-1.433-1.317-2.266-1.801-.833-.485-1.574-.768-2.2-.768-.273 0-.495.048-.685.097-.222.057-.429.12-.693.12-.304 0-.56-.072-.932-.492-.14-.153-1.03-1.148-1.22-1.438-.09-.138-.255-.412-.255-.736 0-.137.025-.299.108-.444.765.582 1.714.937 2.868 1.075L6.99 20c-1.658-.428-3.422-1.859-3.422-2.78 0-.194.05-.331.124-.5.643.581 2.152 1.187 2.968 1.187Zm11.864.146c1.038-.72 2.11-.8 2.975-.8.52 0 1.13.072 1.773.153.52.065.989.113 1.55.113 1.129 0 2.266-.404 2.76-.615.141.17.38.397.57.558-.24.146-1.755.954-3.305.954-.685 0-1.336-.08-1.897-.154-.494-.064-1.03-.12-1.55-.12-.568 0-1.714.16-2.423.492l-.453-.581Z"/><path fill="#939CA1" d="M33.833 20.942c-1.237 2.553-3.117 4.412-5.045 5.487-.916.508-1.74.84-3.52.84h-3.85c-1.377 0-2.242.178-2.918.347-.727.186-1.187.371-1.921.371-1.088 0-2.094-.525-2.58-1.025l.906-.703-.453-.59c-.264.186-3.487 2.52-4.164 3.046l-.04-.024c.016-.161.016-.307.016-.453 0-1.777-.841-2.206-2.118-2.706l-.866.5c1.756.574 2.192 1.035 2.192 2.32 0 1.018-.37 1.421-.906 1.73-.553.314-1.237.46-1.838.46-.256 0-.372.048-.462.137-.1.097-.149.243-.149.444v.283h.207c1.104 0 2.126-.17 3.247-1.034l3.653-2.796c.518.582 1.83 1.39 3.38 1.39.873 0 1.434-.21 2.242-.412.626-.154 1.236-.292 2.571-.292h3.867c1.979 0 2.935-.404 3.99-.985 2.292-1.26 4.246-3.394 5.35-5.843-.288-.177-.56-.34-.791-.492Z"/><path fill="#939CA1" d="M27.624 23.976c.998-1.568 1.888-2.958 4.072-4.089-.23-.137-.56-.347-.733-.46-.85.363-1.69 1.09-2.407 1.826-1.649 1.68-1.5 2.65-3.24 3.305-.437.161-.973.339-1.657.493-.404-1.22-1.417-2.433-2.49-2.433-.742 0-1.599.38-2.588.808-1.162.501-2.226 1.075-2.563 1.293l.453.598a33.315 33.315 0 0 1 2.34-1.09c.866-.365 1.65-.663 2.177-.663.849 0 1.401.945 1.707 1.704-1.113.26-2.944.323-3.495.323-.256 0-.347.04-.438.114-.082.073-.148.202-.19.38l-.065.274h.593c3.084 0 5.994-.476 7.864-1.591.265.073.496.12.792.12 1.072 0 2.176-.573 2.87-1.098.246-.186.304-.357.304-.542 0-.089-.008-.17-.017-.25l-.033-.315c-.989.767-1.813 1.341-2.835 1.341-.181 0-.313-.016-.42-.048Z"/></svg>