<svg xmlns="http://www.w3.org/2000/svg" width="64" height="32" viewBox="0 0 1024 1024" fill="none" preserveAspectRatio="xMidYMid meet" aria-hidden="true">
	<defs>
		<clipPath id="open-mind-trusted-clip">
			<rect width="1024" height="1024" />
		</clipPath>
	</defs>
	<g clip-path="url(#open-mind-trusted-clip)" fill="#ADADB0">
		<path d="m665 360.5-.5-.5.5-.5.5.5zm-10 1-.5-.5.5-.5.5.5zm16 1h-14l-.5-.5.5-.5h14l.5.5zm-15 1h-2l-.5-.5.5-.5h2l.5.5zm19 0h-3l-.5-.5.5-.5h3l.5.5zm4 0-.5-.5.5-.5.5.5zm-26 1h-2l-.5-.5.5-.5h2l.5.5zm26 1h-1l-.5-.5-.5-.5h-1l-.5-.5.5-.5h2l.5.5.5.5.5.5zm-29 0h-1l-.5-.5.5-.5h1l.5.5zm-2 1-.5-.5.5-.5.5.5zm33 0h-1l-.5-.5.5-.5h1l.5.5zm-34 1h-1l-.5-.5.5-.5h1l.5.5zm35 0-.5-.5.5-.5.5.5zm-37 1-.5-.5.5-.5.5.5zm39 0-.5-.5.5-.5.5.5zm-40 1-.5-.5.5-.5.5.5zm41 0-.5-.5.5-.5.5.5zm-43 1-.5-.5.5-.5.5.5zm44 0-.5-.5.5-.5.5.5zm-45 1-.5-.5.5-.5.5.5zm47 1-.5-.5v-1l.5-.5.5.5v1zm-48 1-.5-.5.5-.5.5.5zm49 0-.5-.5.5-.5.5.5zm-50 1-.5-.5.5-.5.5.5zm23 0h-3l-.5-.5.5-.5h3l.5.5zm7 0h-2l-.5-.5.5-.5h2l.5.5zm21 0-.5-.5.5-.5.5.5zm-52 1-.5-.5.5-.5.5.5zm19 0h-1l-.5-.5.5-.5h1l.5.5zm15 0h-1l-.5-.5.5-.5h1l.5.5zm19 1-.5-.5v-1l.5-.5.5.5v1zm-54 1-.5-.5v-1l.5-.5.5.5v1zm17-1-.5-.5.5-.5.5.5zm21 0h-1l-.5-.5.5-.5h1l.5.5zm4 0h-1l-.5-.5.5-.5h1l.5.5zm-26 1h-1l-.5-.5.5-.5h1l.5.5zm23 0-.5-.5.5-.5.5.5zm16 0-.5-.5.5-.5.5.5zm-56 1-.5-.5.5-.5.5.5zm15 0-.5-.5.5-.5.5.5zm26 0-.5-.5.5-.5.5.5zm-27 1-.5-.5.5-.5.5.5zm28 0-.5-.5.5-.5.5.5zm15 0-.5-.5.5-.5.5.5zm-58 1-.5-.5.5-.5.5.5zm14 0-.5-.5.5-.5.5.5zm30 0-.5-.5.5-.5.5.5zm15 1-.5-.5v-1l.5-.5.5.5v1zm-46 0-.5-.5.5-.5.5.5zm-14 2-.5-.5v-1l.5-.5.5.5v1zm13-1-.5-.5.5-.5.5.5zm34 0-.5-.5.5-.5.5.5zm1 1-.5-.5.5-.5.5.5zm13 0-.5-.5.5-.5.5.5zm-62 2-.5-.5v-1l.5-.5.5.5v1zm13-1-.5-.5.5-.5.5.5zm-1 2-.5-.5v-1l.5-.5.5.5v1zm38-1-.5-.5.5-.5.5.5zm13 2-.5-.5v-2l.5-.5.5.5v2zm-34-1h-2l-.5-.5.5-.5h2l.5.5zm5 0h-2l-.5-.5.5-.5h2l.5.5zm-35 4-.5-.5v-3l.5-.5.5.5v3zm27-3-.5-.5.5-.5.5.5zm10 0h-1l-.5-.5.5-.5h1l.5.5zm15 1-.5-.5v-1l.5-.5.5.5v1zm-40 0-.5-.5.5-.5.5.5zm13 0-.5-.5.5-.5.5.5zm13 0-.5-.5.5-.5.5.5zm-14 2-.5-.5v-1l.5-.5.5.5v1zm15-1-.5-.5.5-.5.5.5zm14 3-.5-.5v-3l.5-.5.5.5v3zm12 1-.5-.5v-4l.5-.5.5.5v4zm-25-2-.5-.5v-1l.5-.5.5.5v1zm11-1-.5-.5.5-.5.5.5zm-40 10-.5-.5v-9l.5-.5.5.5v9zm12-7-.5-.5v-2l.5-.5.5.5v2zm18 0-.5-.5v-1l.5-.5.5.5v1zm-42 6-.5-.5v-6l.5-.5.5.5v6zm55-2-.5-.5v-3l.5-.5.5.5v3zm-32-1-.5-.5v-1l.5-.5.5.5v1zm20-1-.5-.5.5-.5.5.5zm23 2-.5-.5.5-.5.5.5zm-42 2-.5-.5v-1l.5-.5.5.5v1zm18 1-.5-.5v-2l.5-.5.5.5v2zm12 2-.5-.5v-3l.5-.5.5.5v3zm12 1-.5-.5v-4l.5-.5.5.5v4zm-41-2-.5-.5.5-.5.5.5zm16 0-.5-.5.5-.5.5.5zm-40 3-.5-.5v-2l.5-.5.5.5v2zm12-1-.5-.5v-1l.5-.5.5.5v1zm13-1-.5-.5.5-.5.5.5zm14 0-.5-.5.5-.5.5.5zm-13 1-.5-.5.5-.5.5.5zm12 0-.5-.5.5-.5.5.5zm-11 1-.5-.5.5-.5.5.5zm10 0-.5-.5.5-.5.5.5zm15 1-.5-.5v-1l.5-.5.5.5v1zm-39 1-.5-.5v-1l.5-.5.5.5v1zm17-1h-2l-.5-.5.5-.5h2l.5.5zm5 0h-1l-.5-.5.5-.5h1l.5.5zm29 2-.5-.5v-2l.5-.5.5.5v2zm-63 1-.5-.5v-2l.5-.5.5.5v2zm50-1-.5-.5v-1l.5-.5.5.5v1zm-37 1-.5-.5v-1l.5-.5.5.5v1zm36 0-.5-.5.5-.5.5.5zm-48 2-.5-.5v-1l.5-.5.5.5v1zm13-1-.5-.5.5-.5.5.5zm48 0-.5-.5.5-.5.5.5zm-47 1-.5-.5.5-.5.5.5zm33 0-.5-.5.5-.5.5.5zm-48 1-.5-.5.5-.5.5.5zm16 0-.5-.5.5-.5.5.5zm31 0-.5-.5.5-.5.5.5zm14 0-.5-.5.5-.5.5.5zm-59 1-.5-.5.5-.5.5.5zm15 0-.5-.5.5-.5.5.5zm29 0-.5-.5.5-.5.5.5zm-28 1-.5-.5.5-.5.5.5zm27 0-.5-.5.5-.5.5.5zm15 0-.5-.5.5-.5.5.5zm-57 1-.5-.5.5-.5.5.5zm16 0-.5-.5.5-.5.5.5zm24 0-.5-.5.5-.5.5.5zm-39 1-.5-.5.5-.5.5.5zm11 0-.5-.5.5-.5.5.5zm6 0h-1l-.5-.5.5-.5h1l.5.5zm21 0-.5-.5.5-.5.5.5zm17 0-.5-.5.5-.5.5.5zm-54 2-.5-.5v-1l.5-.5.5.5v1zm18-1h-1l-.5-.5.5-.5h1l.5.5zm18 0h-1l-.5-.5.5-.5h1l.5.5zm17 0-.5-.5.5-.5.5.5zm-486 1h-12l-.5-.5.5-.5h12l.5.5zm454 0h-1l-.5-.5.5-.5h1l.5.5zm12 0h-1l-.5-.5.5-.5h1l.5.5zm19 0-.5-.5.5-.5.5.5zm-500 1h-3l-.5-.5.5-.5h3l.5.5zm21 0h-4l-.5-.5.5-.5h4l.5.5zm428 0-.5-.5.5-.5.5.5zm30 0h-8l-.5-.5.5-.5h8l.5.5zm-484 1h-2l-.5-.5.5-.5h2l.5.5zm30 0h-1l-.5-.5.5-.5h1l.5.5zm425 0-.5-.5.5-.5.5.5zm49 0-.5-.5.5-.5.5.5zm-508 1h-1l-.5-.5.5-.5h1l.5.5zm37 0h-1l-.5-.5.5-.5h1l.5.5zm423 0-.5-.5.5-.5.5.5zm47 0-.5-.5.5-.5.5.5zm-509 1h-1l-.5-.5.5-.5h1l.5.5zm41 0h-1l-.5-.5.5-.5h1l.5.5zm148 0h-1l-.5-.5.5-.5h1l.5.5zm274 0-.5-.5.5-.5.5.5zm45 0-.5-.5.5-.5.5.5zm-510 1h-1l-.5-.5.5-.5h1l.5.5zm46 0h-1l-.5-.5.5-.5h1l.5.5zm49 0-.5-.5.5-.5.5.5zm8 0-.5-.5.5-.5.5.5zm5 0-.5-.5.5-.5.5.5zm4 0h-1l-.5-.5.5-.5h1l.5.5zm74 0h-5l-.5-.5.5-.5h5l.5.5zm18 0h-7l-.5-.5.5-.5h7l.5.5zm130 0h-1l-.5-.5.5-.5h1l.5.5zm3 0h-1l-.5-.5.5-.5h1l.5.5zm44 0h-4l-.5-.5.5-.5h4l.5.5zm11 0h-9l-.5-.5.5-.5h9l.5.5zm74 0-.5-.5.5-.5.5.5zm43 0-.5-.5.5-.5.5.5zm113 0-.5-.5.5-.5.5.5zm34 0h-1l-.5-.5.5-.5h1l.5.5zm2 0-.5-.5.5-.5.5.5zm-660 1h-1l-.5-.5.5-.5h1l.5.5zm49 0-.5-.5.5-.5.5.5zm40 123h-13l-.5-.5V423l.5-.5.5.5v122l.5.5h12l.5.5zm36-123h-4l-.5-.5.5-.5h4l.5.5zm56 0h-1l-.5-.5.5-.5h1l.5.5zm29 0h-2l-.5-.5.5-.5h2l.5.5zm83 91-.5-.5v-90l-.5-.5h-14l-.5-.5.5-.5h15l.5.5v91zm33 5-.5-.5v-96l.5-.5.5.5v96zm14 1-.5-.5v-97l.5-.5.5.5v97zm2-97-.5-.5.5-.5.5.5zm35 0h-2l-.5-.5.5-.5h2l.5.5zm21 0h-2l-.5-.5.5-.5h2l.5.5zm71 0-.5-.5.5-.5.5.5zm41 0h-1l-.5-.5.5-.5h1l.5.5zm2 0-.5-.5.5-.5.5.5zm42 0h-7l-.5-.5.5-.5h7l.5.5zm7 0-.5-.5.5-.5.5.5zm32 0-.5-.5.5-.5.5.5zm2 0-.5-.5.5-.5.5.5zm14 85-.5-.5v-85l.5-.5.5.5v85zm14 35-.5-.5V423l.5-.5.5.5v120zm47-120h-4l-.5-.5.5-.5h4l.5.5zm-672 1-.5-.5.5-.5.5.5zm53 0h-1l-.5-.5.5-.5h1l.5.5zm77 0h-2l-.5-.5.5-.5h2l.5.5zm50 0h-1l-.5-.5.5-.5h1l.5.5zm35 0h-1l-.5-.5.5-.5h1l.5.5zm62 0h-2l-.5-.5.5-.5h2l.5.5zm94 0-.5-.5.5-.5.5.5zm5 0h-1l-.5-.5.5-.5h1l.5.5zm26 0h-1l-.5-.5.5-.5h1l.5.5zm71 0h-1l-.5-.5.5-.5h1l.5.5zm37 0-.5-.5.5-.5.5.5zm29 0-.5-.5.5-.5.5.5zm6 0h-2l-.5-.5.5-.5h2l.5.5zm129 0h-1l-.5-.5.5-.5h1l.5.5zm3 0-.5-.5.5-.5.5.5zm-678 1-.5-.5.5-.5.5.5zm55 0-.5-.5.5-.5.5.5zm78 0h-1l-.5-.5.5-.5h1l.5.5zm46 0-.5-.5.5-.5.5.5zm39 0-.5-.5.5-.5.5.5zm56 0h-2l-.5-.5.5-.5h2l.5.5zm100 0-.5-.5.5-.5.5.5zm31 0h-1l-.5-.5.5-.5h1l.5.5zm71 0h-1l-.5-.5.5-.5h1l.5.5zm34 0-.5-.5.5-.5.5.5zm32 0h-1l-.5-.5.5-.5h1l.5.5zm135 0-.5-.5.5-.5.5.5zm-679 1-.5-.5.5-.5.5.5zm58 0-.5-.5.5-.5.5.5zm79 0h-1l-.5-.5.5-.5h1l.5.5zm42 0-.5-.5.5-.5.5.5zm43 0-.5-.5.5-.5.5.5zm51 0h-2l-.5-.5.5-.5h2l.5.5zm102 0h-1l-.5-.5.5-.5h1l.5.5zm34 0h-1l-.5-.5.5-.5h1l.5.5zm27 0-.5-.5.5-.5.5.5zm43 0-.5-.5.5-.5.5.5zm31 0-.5-.5.5-.5.5.5zm31 0-.5-.5.5-.5.5.5zm140 0-.5-.5.5-.5.5.5zm-682 1-.5-.5.5-.5.5.5zm60 0-.5-.5.5-.5.5.5zm79 0-.5-.5.5-.5.5.5zm39 0-.5-.5.5-.5.5.5zm46 0-.5-.5.5-.5.5.5zm47 0h-1l-.5-.5.5-.5h1l.5.5zm103 0-.5-.5.5-.5.5.5zm37 0-.5-.5.5-.5.5.5zm72 0h-1l-.5-.5.5-.5h1l.5.5zm26 0-.5-.5.5-.5.5.5zm31 0-.5-.5.5-.5.5.5zm144 0h-1l-.5-.5.5-.5h1l.5.5zm-685 2-.5-.5v-1l.5-.5.5.5v1zm62-1-.5-.5.5-.5.5.5zm80 0h-1l-.5-.5.5-.5h1l.5.5zm36 0-.5-.5.5-.5.5.5zm48 0-.5-.5.5-.5.5.5zm44 0-.5-.5.5-.5.5.5zm104 0-.5-.5.5-.5.5.5zm40 0h-1l-.5-.5.5-.5h1l.5.5zm32 0h-12l-.5-.5.5-.5h12l.5.5zm35 0-.5-.5.5-.5.5.5zm5 0h-1l-.5-.5.5-.5h1l.5.5zm22 0h-1l-.5-.5.5-.5h1l.5.5zm31 0-.5-.5.5-.5.5.5zm147 0-.5-.5.5-.5.5.5zm-623 1-.5-.5.5-.5.5.5zm80 0-.5-.5.5-.5.5.5zm33 0-.5-.5.5-.5.5.5zm52 0-.5-.5.5-.5.5.5zm40 0-.5-.5.5-.5.5.5zm63 0-.5-.5.5-.5.5.5zm42 0-.5-.5.5-.5.5.5zm42 0-.5-.5.5-.5.5.5zm18 0h-2l-.5-.5.5-.5h2l.5.5zm16 0h-1l-.5-.5.5-.5h1l.5.5zm41 0h-2l-.5-.5.5-.5h2l.5.5zm16 0-.5-.5.5-.5.5.5zm32 0h-1l-.5-.5.5-.5h1l.5.5zm150 0h-1l-.5-.5.5-.5h1l.5.5zm-689 1-.5-.5.5-.5.5.5zm37 0h-12l-.5-.5.5-.5h12l.5.5zm28 1-.5-.5v-1l.5-.5.5.5v1zm80-1-.5-.5.5-.5.5.5zm31 0-.5-.5.5-.5.5.5zm54 0-.5-.5.5-.5.5.5zm38 0-.5-.5.5-.5.5.5zm105 0-.5-.5.5-.5.5.5zm44 0-.5-.5.5-.5.5.5zm13 0h-1l-.5-.5.5-.5h1l.5.5zm22 0h-1l-.5-.5.5-.5h1l.5.5zm40 0-.5-.5.5-.5.5.5zm14 1-.5-.5v-1l.5-.5.5.5v1zm31-1-.5-.5.5-.5.5.5zm153 0-.5-.5.5-.5.5.5zm-691 2-.5-.5v-1l.5-.5.5.5v1zm25-1h-3l-.5-.5.5-.5h3l.5.5zm18 0h-2l-.5-.5.5-.5h2l.5.5zm104 0-.5-.5.5-.5.5.5zm29 0-.5-.5.5-.5.5.5zm92 0-.5-.5.5-.5.5.5zm104 1-.5-.5v-1l.5-.5.5.5v1zm47 0-.5-.5v-1l.5-.5.5.5v1zm10-1h-1l-.5-.5.5-.5h1l.5.5zm27 0h-1l-.5-.5.5-.5h1l.5.5zm35 0-.5-.5.5-.5.5.5zm46 0-.5-.5.5-.5.5.5zm155 0-.5-.5.5-.5.5.5zm-671 1h-1l-.5-.5.5-.5h1l.5.5zm25 0h-1l-.5-.5.5-.5h1l.5.5zm21 0-.5-.5.5-.5.5.5zm81 0-.5-.5.5-.5.5.5zm119 0-.5-.5.5-.5.5.5zm103 0-.5-.5.5-.5.5.5zm57 0-.5-.5.5-.5.5.5zm31 0h-1l-.5-.5.5-.5h1l.5.5zm36 9-.5-.5v-9l.5-.5.5.5v9zm42-9-.5-.5.5-.5.5.5zm157 1-.5-.5v-1l.5-.5.5.5v1zm-694 1-.5-.5v-1l.5-.5.5.5v1zm19-1-.5-.5.5-.5.5.5zm30 0h-1l-.5-.5.5-.5h1l.5.5zm101 0-.5-.5.5-.5.5.5zm26 0-.5-.5.5-.5.5.5zm58 0-.5-.5.5-.5.5.5zm33 0-.5-.5.5-.5.5.5zm105 0-.5-.5.5-.5.5.5zm49 0-.5-.5.5-.5.5.5zm5 0-.5-.5.5-.5.5.5zm34 0-.5-.5.5-.5.5.5zm49 11-.5-.5v-11l.5-.5.5.5v11zm27-11-.5-.5.5-.5.5.5zm-519 1-.5-.5.5-.5.5.5zm33 0-.5-.5.5-.5.5.5zm19 0-.5-.5.5-.5.5.5zm106 0-.5-.5.5-.5.5.5zm27 0h-4l-.5-.5.5-.5h4l.5.5zm10 0h-6l-.5-.5.5-.5h6l.5.5zm23 1-.5-.5v-1l.5-.5.5.5v1zm31-1-.5-.5.5-.5.5.5zm105 0-.5-.5.5-.5.5.5zm51 0-.5-.5.5-.5.5.5zm3 0-.5-.5.5-.5.5.5zm38 1h-1l-.5-.5-.5-.5-.5-.5.5-.5h1l.5.5.5.5.5.5zm72-1-.5-.5.5-.5.5.5zm160 0-.5-.5.5-.5.5.5zm-696 2-.5-.5v-1l.5-.5.5.5v1zm17-1-.5-.5.5-.5.5.5zm37 1h-1l-.5-.5-.5-.5-.5-.5.5-.5h1l.5.5.5.5.5.5zm47-1h-1l-.5-.5.5-.5h1l.5.5zm3 0h-1l-.5-.5.5-.5h1l.5.5zm2 0-.5-.5.5-.5.5.5zm24 0h-6l-.5-.5.5-.5h6l.5.5zm22 0-.5-.5.5-.5.5.5zm23 0-.5-.5.5-.5.5.5zm22 0h-1l-.5-.5.5-.5h1l.5.5zm19 0h-1l-.5-.5.5-.5h1l.5.5zm50 0-.5-.5.5-.5.5.5zm136 0h-9l-.5-.5.5-.5h9l.5.5zm23 1h-1l-.5-.5.5-.5.5-.5.5-.5.5.5v1zm110-1-.5-.5.5-.5.5.5zm113 0-.5-.5.5-.5.5.5zm27 0h-7l-.5-.5.5-.5h7l.5.5zm22 1-.5-.5v-1l.5-.5.5.5v1zm-681 0-.5-.5.5-.5.5.5zm55 0-.5-.5.5-.5.5.5zm62 0h-1l-.5-.5.5-.5h1l.5.5zm20 1-.5-.5v-1l.5-.5.5.5v1zm41-1h-1l-.5-.5.5-.5h1l.5.5zm25 0h-1l-.5-.5.5-.5h1l.5.5zm18 1-.5-.5v-1l.5-.5.5.5v1zm134-1-.5-.5.5-.5.5.5zm20 0h-1l-.5-.5.5-.5h1l.5.5zm14 0h-1l-.5-.5.5-.5h1l.5.5zm60 0-.5-.5.5-.5.5.5zm213 0h-1l-.5-.5.5-.5h1l.5.5zm-679 2-.5-.5v-1l.5-.5.5.5v1zm56 0-.5-.5v-1l.5-.5.5.5v1zm46-1-.5-.5.5-.5.5.5zm2 0-.5-.5.5-.5.5.5zm23 0h-1l-.5-.5.5-.5h1l.5.5zm9 0h-1l-.5-.5.5-.5h1l.5.5zm39 0-.5-.5.5-.5.5.5zm18 0-.5-.5.5-.5.5.5zm28 0-.5-.5.5-.5.5.5zm45 0-.5-.5.5-.5.5.5zm25 47-.5-.5v-46l-.5-.5h-3l-.5-.5.5-.5h4l.5.5v47zm45-47-.5-.5.5-.5.5.5zm54 0-.5-.5.5-.5.5.5zm18 0h-1l-.5-.5.5-.5h1l.5.5zm59 0-.5-.5.5-.5.5.5zm68 0-.5-.5.5-.5.5.5zm25 82-.5-.5v-81l-.5-.5h-2l-.5-.5.5-.5h3l.5.5v82zm110-82-.5-.5.5-.5.5.5zm11 0h-1l-.5-.5.5-.5h1l.5.5zm18 1-.5-.5v-1l.5-.5.5.5v1zm-683 0-.5-.5.5-.5.5.5zm57 2-.5-.5v-2l.5-.5.5.5v2zm61-2-.5-.5.5-.5.5.5zm3 0-.5-.5.5-.5.5.5zm18 1-.5-.5v-1l.5-.5.5.5v1zm37-1-.5-.5.5-.5.5.5zm30 0-.5-.5.5-.5.5.5zm17 1-.5-.5v-1l.5-.5.5.5v1zm26 0-.5-.5v-1l.5-.5.5.5v1zm20-1h-1l-.5-.5.5-.5h1l.5.5zm86 0-.5-.5.5-.5.5.5zm17 0-.5-.5.5-.5.5.5zm4 0-.5-.5.5-.5.5.5zm17 0-.5-.5.5-.5.5.5zm59 0-.5-.5.5-.5.5.5zm87 0h-1l-.5-.5.5-.5h1l.5.5zm123 0h-1l-.5-.5.5-.5h1l.5.5zm4 0-.5-.5.5-.5.5.5zm-667 1-.5-.5.5-.5.5.5zm42 0-.5-.5.5-.5.5.5zm18 0-.5-.5.5-.5.5.5zm27 0-.5-.5.5-.5.5.5zm34 0h-1l-.5-.5.5-.5h1l.5.5zm2 0-.5-.5.5-.5.5.5zm36 1-.5-.5v-1l.5-.5.5.5v1zm17-1-.5-.5.5-.5.5.5zm32 0-.5-.5.5-.5.5.5zm60 0-.5-.5.5-.5.5.5z"/>
		<path d="m452 439.5-.5-.5.5-.5.5.5zm81 0-.5-.5.5-.5.5.5zm17 0-.5-.5.5-.5.5.5zm20 0-.5-.5.5-.5.5.5zm3 0-.5-.5.5-.5.5.5zm124 0-.5-.5.5-.5.5.5zm18 0-.5-.5.5-.5.5.5zm6 0h-1l-.5-.5.5-.5h1l.5.5zm121 0-.5-.5.5-.5.5.5zm2 0-.5-.5.5-.5.5.5zm2 0-.5-.5.5-.5.5.5zm17 1-.5-.5v-1l.5-.5.5.5v1zm-701 4-.5-.5v-4l.5-.5.5.5v4zm59-3-.5-.5v-1l.5-.5.5.5v1zm98 1-.5-.5v-2l.5-.5.5.5v2zm68-2-.5-.5.5-.5.5.5zm4 0-.5-.5.5-.5.5.5zm36 1-.5-.5v-1l.5-.5.5.5v1zm17-1-.5-.5.5-.5.5.5zm105 0-.5-.5.5-.5.5.5zm25 0-.5-.5.5-.5.5.5zm40 0-.5-.5.5-.5.5.5zm18 0-.5-.5.5-.5.5.5zm81 0-.5-.5.5-.5.5.5zm134 0-.5-.5.5-.5.5.5zm-670 2-.5-.5v-1l.5-.5.5.5v1zm126-1-.5-.5.5-.5.5.5zm49 0-.5-.5.5-.5.5.5zm36 1-.5-.5v-1l.5-.5.5.5v1zm15 1-.5-.5v-2l.5-.5.5.5v2zm40-2-.5-.5.5-.5.5.5zm89 1-.5-.5v-1l.5-.5.5.5v1zm16-1-.5-.5.5-.5.5.5zm27 0-.5-.5.5-.5.5.5zm34 0h-4l-.5-.5.5-.5h4l.5.5zm24 0-.5-.5.5-.5.5.5zm63 0-.5-.5.5-.5.5.5zm16 0-.5-.5.5-.5.5.5zm136 0-.5-.5.5-.5.5.5zm-626 3-.5-.5v-2l.5-.5.5.5v2zm15 2-.5-.5v-4l.5-.5.5.5v4zm67-4-.5-.5.5-.5.5.5zm32 1-.5-.5v-1l.5-.5.5.5v1zm15-1-.5-.5.5-.5.5.5zm75 2-.5-.5v-2l.5-.5.5.5v2zm16-2-.5-.5.5-.5.5.5zm134 0-.5-.5.5-.5.5.5zm27 0h-1l-.5-.5.5-.5h1l.5.5zm10 0h-2l-.5-.5.5-.5h2l.5.5zm21 1-.5-.5v-1l.5-.5.5.5v1zm77-1-.5-.5.5-.5.5.5zm138 1-.5-.5v-1l.5-.5.5.5v1zm15 0-.5-.5v-1l.5-.5.5.5v1zm-688 5-.5-.5v-5l.5-.5.5.5v5zm213-4-.5-.5v-1l.5-.5.5.5v1zm52-1-.5-.5.5-.5.5.5zm106 0-.5-.5.5-.5.5.5zm30 1-.5-.5v-1l.5-.5.5.5v1zm23-1-.5-.5.5-.5.5.5zm15 0-.5-.5.5-.5.5.5zm80 2-.5-.5v-2l.5-.5.5.5v2zm26-2-.5-.5.5-.5.5.5zm-416 1-.5-.5.5-.5.5.5zm15 2-.5-.5v-2l.5-.5.5.5v2zm30-1-.5-.5v-1l.5-.5.5.5v1zm54 6h-1l-.5-.5.5-.5.5-.5v-6l.5-.5.5.5v7zm127-5-.5-.5v-2l.5-.5.5.5v2zm15-1-.5-.5v-1l.5-.5.5.5v1zm53-1-.5-.5.5-.5.5.5zm18 0-.5-.5.5-.5.5.5zm18 0-.5-.5.5-.5.5.5zm26 9-.5-.5v-9l.5-.5.5.5v9zm49-9-.5-.5.5-.5.5.5zm140 1-.5-.5v-1l.5-.5.5.5v1zm-627 5-.5-.5v-5l.5-.5.5.5v5zm217-5-.5-.5.5-.5.5.5zm138 1-.5-.5v-1l.5-.5.5.5v1zm20-1-.5-.5.5-.5.5.5zm20 0-.5-.5.5-.5.5.5zm247 2-.5-.5v-2l.5-.5.5.5v2zm-704 10-.5-.5v-11l.5-.5.5.5v11zm145-10-.5-.5v-1l.5-.5.5.5v1zm29 2-.5-.5v-3l.5-.5.5.5v3zm55 0-.5-.5v-3l.5-.5.5.5v3zm35 0-.5-.5v-3l.5-.5.5.5v3zm172-3-.5-.5.5-.5.5.5zm22 0-.5-.5.5-.5.5.5zm17 0-.5-.5.5-.5.5.5zm73 0-.5-.5.5-.5.5.5zm-360 5-.5-.5v-4l.5-.5.5.5v4zm90-1-.5-.5v-3l.5-.5.5.5v3zm106-2-.5-.5v-1l.5-.5.5.5v1zm32-1-.5-.5.5-.5.5.5zm19 0-.5-.5.5-.5.5.5zm24 0-.5-.5.5-.5.5.5zm74 4-.5-.5v-4l.5-.5.5.5v4zm27-4-.5-.5.5-.5.5.5zm130 2-.5-.5v-2l.5-.5.5.5v2zm-586 0-.5-.5v-1l.5-.5.5.5v1zm56 14-.5-.5v-15l.5-.5.5.5v15zm258-13-.5-.5v-2l.5-.5.5.5v2zm42-2-.5-.5.5-.5.5.5zm16 1-.5-.5v-1l.5-.5.5.5v1zm38 7-.5-.5v-8l.5-.5.5.5v8zm33-5-.5-.5v-3l.5-.5.5.5v3zm141-3-.5-.5.5-.5.5.5zm-542 36-.5-.5v-35l.5-.5.5.5v35zm223 61h-1l-.5-.5.5-.5.5-.5v-75l-.5-.5-.5-.5.5-.5.5-.5v-18l.5-.5.5.5v96zm65-95-.5-.5v-1l.5-.5.5.5v1zm-198 1h-6l-.5-.5v-1l.5-.5.5.5.5.5h5l.5.5zm147 95h-13l-.5-.5.5-.5h12l.5-.5v-95l.5-.5.5.5v96zm78-96-.5-.5.5-.5.5.5zm244 7-.5-.5v-7l.5-.5.5.5v7zm-243-5-.5-.5v-1l.5-.5.5.5v1zm15 0-.5-.5v-1l.5-.5.5.5v1zm214 4-.5-.5v-5l.5-.5.5.5v5zm-272 5-.5-.5v-9l.5-.5.5.5v9zm-315 2-.5-.5v-10l.5-.5.5.5v10zm159-10-.5-.5.5-.5.5.5zm14 10-.5-.5v-10l.5-.5.5.5v10zm61-10-.5-.5.5-.5.5.5zm125 1-.5-.5v-1l.5-.5.5.5v1zm-290 1-.5-.5v-1l.5-.5.5.5v1zm305 0-.5-.5v-1l.5-.5.5.5v1zm-463 8-.5-.5v-8l.5-.5.5.5v8zm517-4-.5-.5v-4l.5-.5.5.5v4zm14-4-.5-.5.5-.5.5.5zm-283 6-.5-.5v-5l.5-.5.5.5v5zm170 82-.5-.5v-87l.5-.5.5.5v87zm31-86-.5-.5v-1l.5-.5.5.5v1zm36-1-.5-.5.5-.5.5.5zm60 0-.5-.5.5-.5.5.5zm-559 10-.5-.5v-8l.5-.5.5.5v8zm478-5-.5-.5v-3l.5-.5.5.5v3zm-14 1-.5-.5v-3l.5-.5.5.5v3zm36 6-.5-.5v-9l.5-.5.5.5v9zm191-3-.5-.5v-6l.5-.5.5.5v6zm14 0-.5-.5v-6l.5-.5.5.5v6zm-146-5-.5-.5.5-.5.5.5zm-222 1-.5-.5.5-.5.5.5zm177 10-.5-.5v-10l.5-.5.5.5v10zm-327-8-.5-.5.5-.5.5.5zm150 0-.5-.5.5-.5.5.5zm142 9-.5-.5v-9l.5-.5.5.5v9zm80-9-.5-.5.5-.5.5.5zm-95 1-.5-.5.5-.5.5.5zm-449 7-.5-.5v-6l.5-.5.5.5v6zm88-6-.5-.5.5-.5.5.5zm56 6-.5-.5v-6l.5-.5.5.5v6zm28-6-.5-.5.5-.5.5.5zm359 11-.5-.5v-11l.5-.5.5.5v11zm-14 3-.5-.5v-13l.5-.5.5.5v13zm-224-12-.5-.5.5-.5.5.5zm157 8-.5-.5v-8l.5-.5.5.5v8zm94-7-.5-.5v-1l.5-.5.5.5v1zm-296 13-.5-.5v-13l.5-.5.5.5v13zm443-6-.5-.5v-7l.5-.5.5.5v7zm-705 0-.5-.5v-6l.5-.5.5.5v6zm102-4-.5-.5v-2l.5-.5.5.5v2zm174 10-.5-.5v-12l.5-.5.5.5v12zm415-4-.5-.5v-7l.5-.5.5.5v7zm-505-4-.5-.5v-2l.5-.5.5.5v2zm-27 1-.5-.5v-2l.5-.5.5.5v2zm-144 7-.5-.5v-8l.5-.5.5.5v8zm485-1-.5-.5v-7l.5-.5.5.5v7zm-342-1-.5-.5v-4l.5-.5.5.5v4zm28-4-.5-.5.5-.5.5.5zm328 6-.5-.5v-6l.5-.5.5.5v6zm-35 4-.5-.5v-9l.5-.5.5.5v9zm79-9-.5-.5.5-.5.5.5zm-346 3h-26l-.5-.5v-2l.5-.5.5.5v1l.5.5h25l.5.5zm-110-1-.5-.5.5-.5.5.5zm-101 7-.5-.5v-6l.5-.5.5.5v6zm306-6-.5-.5.5-.5.5.5zm399 6-.5-.5v-6l.5-.5.5.5v6zm-578 12h-26l-.5-.5v-17l.5-.5.5.5v16l.5.5h25l.5.5zm337-7-.5-.5v-10l.5-.5.5.5v10zm227-4-.5-.5v-6l.5-.5.5.5v6zm-534 1-.5-.5v-6l.5-.5.5.5v6zm178-6-.5-.5.5-.5.5.5zm210 11-.5-.5v-10l.5-.5.5.5v10zm-14 1-.5-.5v-10l.5-.5.5.5v10zm-516-2-.5-.5v-7l.5-.5.5.5v7zm261 4-.5-.5v-11l.5-.5.5.5v11zm329-11-.5-.5.5-.5.5.5zm-463 3-.5-.5v-1l.5-.5.5.5v1zm120 9-.5-.5v-10l.5-.5.5.5v10zm28-4-.5-.5v-6l.5-.5.5.5v6zm224 3-.5-.5v-9l.5-.5.5.5v9zm192-8-.5-.5.5-.5.5.5zm-705 7-.5-.5v-6l.5-.5.5.5v6zm73-6-.5-.5.5-.5.5.5zm67 1-.5-.5-.5-.5-.5-.5.5-.5h1l.5.5v1zm359 7-.5-.5v-8l.5-.5.5.5v8zm-344-6-.5-.5v-1l.5-.5.5.5v1zm391-1-.5-.5.5-.5.5.5zm145 7-.5-.5v-7l.5-.5.5.5v7zm14-2-.5-.5v-5l.5-.5.5.5v5zm-632-3-.5-.5v-1l.5-.5.5.5v1zm66-1-.5-.5.5-.5.5.5zm339 10-.5-.5v-10l.5-.5.5.5v10zm-340-9-.5-.5.5-.5.5.5zm16 2-.5-.5v-1l.5-.5.5.5v1zm30 13-.5-.5v-14l.5-.5h26l.5.5-.5.5h-25l-.5.5v13zm372-14-.5-.5.5-.5.5.5zm-483 1-.5-.5.5-.5.5.5zm63 0-.5-.5.5-.5.5.5zm-121 6-.5-.5v-5l.5-.5.5.5v5zm120-5-.5-.5.5-.5.5.5zm18 1-.5-.5v-1l.5-.5.5.5v1zm136 1-.5-.5v-2l.5-.5.5.5v2zm-216-1-.5-.5.5-.5.5.5zm60 0-.5-.5.5-.5.5.5zm36 0-.5-.5.5-.5.5.5zm295 10-.5-.5v-10l.5-.5.5.5v10zm-333-9h-2l-.5-.5.5-.5h2l.5.5zm21 1-.5-.5v-1l.5-.5.5.5v1zm379 11-.5-.5v-12l.5-.5.5.5v12zm41-11-.5-.5v-1l.5-.5.5.5v1zm-571 7-.5-.5v-7l.5-.5.5.5v7zm72-5-.5-.5v-1l.5-.5.5.5v1zm78-1-.5-.5.5-.5.5.5zm394 9-.5-.5v-9l.5-.5.5.5v9zm161-2-.5-.5v-7l.5-.5.5.5v7zm-556-6-.5-.5.5-.5.5.5zm126 10-.5-.5v-10l.5-.5.5.5v10zm13 3-.5-.5v-13l.5-.5.5.5v13zm-140-12-.5-.5.5-.5.5.5zm113 10-.5-.5v-10l.5-.5.5.5v10zm294-10-.5-.5.5-.5.5.5zm-408 1-.5-.5.5-.5.5.5zm352 12-.5-.5v-12l.5-.5.5.5v12zm192-7-.5-.5v-5l.5-.5.5.5v5zm-545-4-.5-.5.5-.5.5.5zm367 8-.5-.5v-8l.5-.5.5.5v8zm-498-2-.5-.5v-5l.5-.5.5.5v5zm130-5-.5-.5.5-.5.5.5zm-1 1-.5-.5.5-.5.5.5zm427 1-.5-.5v-1l.5-.5.5.5v1zm-429 0-.5-.5.5-.5.5.5zm336 7-.5-.5v-7l.5-.5.5.5v7zm-337-6h-1l-.5-.5.5-.5h1l.5.5zm-140 7-.5-.5v-6l.5-.5.5.5v6zm138-6h-1l-.5-.5.5-.5h1l.5.5zm567 9-.5-.5v-9l.5-.5.5.5v9zm-570-8h-2l-.5-.5.5-.5h2l.5.5zm47 24-.5-.5v-24l.5-.5.5.5v24zm-51-23h-33l-.5-.5.5-.5h33l.5.5zm332 10-.5-.5v-9l.5-.5.5.5v9zm154-8-.5-.5v-1l.5-.5.5.5v1zm-519 0-.5-.5.5-.5.5.5zm2 0-.5-.5.5-.5.5.5zm4 0h-2l-.5-.5.5-.5h2l.5.5zm14 0-.5-.5.5-.5.5.5zm49 0-.5-.5.5-.5.5.5zm524 9-.5-.5v-9l.5-.5.5.5v9zm-676-3-.5-.5v-5l.5-.5.5.5v5zm231 2-.5-.5v-6l-.5-.5h-12l-.5.5v6l-.5.5-.5-.5v-7l.5-.5h14l.5.5v7zm29 2-.5-.5v-9l.5-.5.5.5v9zm295-3-.5-.5v-6l.5-.5.5.5v6zm-472-5-.5-.5.5-.5.5.5zm415 12-.5-.5v-12l.5-.5.5.5v12zm31-3-.5-.5v-9l.5-.5.5.5v9zm10-9-.5-.5.5-.5.5.5zm-456 2-.5-.5.5-.5.5.5zm432 10-.5-.5v-10l.5-.5.5.5v10zm-529-4-.5-.5v-5l.5-.5.5.5v5zm55-2-.5-.5v-3l.5-.5.5.5v3zm205 8-.5-.5v-11l.5-.5.5.5v11zm-163 18-.5-.5v-28l.5-.5.5.5v28zm401-16-.5-.5v-12l.5-.5.5.5v12zm207-4-.5-.5v-8l.5-.5.5.5v8zm-89-2-.5-.5v-5l.5-.5.5.5v5zm-329-1-.5-.5v-3l.5-.5.5.5v3zm14-2-.5-.5v-1l.5-.5.5.5v1zm176 7-.5-.5v-8l.5-.5.5.5v8zm125-6-.5-.5v-2l.5-.5.5.5v2zm-587 0-.5-.5v-1l.5-.5.5.5v1zm54 2-.5-.5v-3l.5-.5.5.5v3zm161 0-.5-.5v-3l.5-.5.5.5v3zm341-3-.5-.5.5-.5.5.5zm-517 3-.5-.5v-2l.5-.5.5.5v2zm278-1-.5-.5v-1l.5-.5.5.5v1zm238 0-.5-.5v-1l.5-.5.5.5v1zm-268 1-.5-.5v-1l.5-.5.5.5v1zm28-1-.5-.5.5-.5.5.5zm16 2-.5-.5v-2l.5-.5.5.5v2zm-345 1-.5-.5v-2l.5-.5.5.5v2zm15-1-.5-.5v-1l.5-.5.5.5v1zm228 1-.5-.5v-2l.5-.5.5.5v2zm180-2-.5-.5.5-.5.5.5zm132 2-.5-.5v-2l.5-.5.5.5v2zm45-1-.5-.5v-1l.5-.5.5.5v1zm89 1-.5-.5v-2l.5-.5.5.5v2zm-637 0-.5-.5v-1l.5-.5.5.5v1zm235 1-.5-.5v-2l.5-.5.5.5v2zm43-1-.5-.5v-1l.5-.5.5.5v1zm132 6-.5-.5v-7l.5-.5.5.5v7zm108-6-.5-.5v-1l.5-.5.5.5v1zm-554 1-.5-.5v-1l.5-.5.5.5v1zm51 0-.5-.5v-1l.5-.5.5.5v1zm161-1-.5-.5.5-.5.5.5zm74 0-.5-.5.5-.5.5.5zm312 1-.5-.5v-1l.5-.5.5.5v1zm-563 1-.5-.5v-1l.5-.5.5.5v1zm278 0-.5-.5v-1l.5-.5.5.5v1zm15 1-.5-.5v-2l.5-.5.5.5v2zm199 10-.5-.5v-12l.5-.5.5.5v12zm28-11-.5-.5v-1l.5-.5.5.5v1zm28-1-.5-.5.5-.5.5.5zm104 3-.5-.5v-3l.5-.5.5.5v3zm-702-2-.5-.5.5-.5.5.5zm16 0-.5-.5.5-.5.5.5zm148 0-.5-.5.5-.5.5.5zm62 0-.5-.5.5-.5.5.5zm76 0-.5-.5.5-.5.5.5zm253 1-.5-.5v-1l.5-.5.5.5v1zm42 0-.5-.5v-1l.5-.5.5.5v1zm89 1-.5-.5v-1l.5-.5.5-.5.5-.5.5.5v1l-.5.5-.5.5zm-669-1-.5-.5.5-.5.5.5zm32 0-.5-.5.5-.5.5.5zm16 1-.5-.5v-1l.5-.5.5.5v1zm157 0-.5-.5v-1l.5-.5h1l.5.5-.5.5-.5.5zm3-1-.5-.5.5-.5.5.5zm16 0-.5-.5.5-.5.5.5zm46 1-.5-.5v-1l.5-.5.5.5v1zm16-1-.5-.5.5-.5.5.5zm23 1-.5-.5v-1l.5-.5h1l.5.5-.5.5-.5.5zm185 8-.5-.5v-9l.5-.5.5.5v9zm16-8-.5-.5v-1l.5-.5.5.5v1zm44-1-.5-.5.5-.5.5.5zm2 0-.5-.5.5-.5.5.5zm39 1-.5-.5v-1l.5-.5.5.5v1zm-611 1-.5-.5v-1l.5-.5.5.5v1zm47-1-.5-.5.5-.5.5.5zm176 0-.5-.5.5-.5.5.5zm49 9-.5-.5v-9l.5-.5.5.5v9zm299-9-.5-.5.5-.5.5.5zm24 0-.5-.5.5-.5.5.5zm-549 1-.5-.5.5-.5.5.5zm176 0-.5-.5.5-.5.5.5zm17 1-.5-.5v-1l.5-.5.5.5v1zm19 12-.5-.5v-13l.5-.5.5.5v13zm29-12-.5-.5v-1l.5-.5.5.5v1zm17-1-.5-.5.5-.5.5.5zm20 0-.5-.5.5-.5.5.5zm17 0-.5-.5.5-.5.5.5zm214 0-.5-.5.5-.5.5.5zm17 0-.5-.5.5-.5.5.5zm22 0-.5-.5.5-.5.5.5zm90 0-.5-.5.5-.5.5.5zm-683 2-.5-.5v-1l.5-.5.5.5v1zm18-1-.5-.5.5-.5.5.5zm26 0-.5-.5.5-.5.5.5zm18 0-.5-.5.5-.5.5.5zm158 0-.5-.5.5-.5.5.5zm84 0-.5-.5.5-.5.5.5zm18 0-.5-.5.5-.5.5.5zm250 0-.5-.5.5-.5.5.5zm20 0-.5-.5.5-.5.5.5zm17 0-.5-.5.5-.5.5.5zm67 0-.5-.5.5-.5.5.5zm2 0-.5-.5.5-.5.5.5zm4 0-.5-.5.5-.5.5.5zm17 1-.5-.5v-1l.5-.5.5.5v1zm-680 0-.5-.5.5-.5.5.5zm24 0h-1l-.5-.5.5-.5h1l.5.5zm34 0-.5-.5.5-.5.5.5zm141 0-.5-.5.5-.5.5.5zm19 1-.5-.5v-1l.5-.5.5.5v1zm50 0-.5-.5v-1l.5-.5.5.5v1zm19-1h-1l-.5-.5.5-.5h1l.5.5zm15 0h-1l-.5-.5.5-.5h1l.5.5zm18 0-.5-.5.5-.5.5.5zm187 10-.5-.5v-10l.5-.5.5.5v10zm29-10-.5-.5.5-.5.5.5zm18 0-.5-.5.5-.5.5.5zm18 0h-1l-.5-.5.5-.5h1l.5.5zm89 0-.5-.5.5-.5.5.5zm-679 1-.5-.5.5-.5.5.5zm20 0h-1l-.5-.5.5-.5h1l.5.5zm20 0h-1l-.5-.5.5-.5h1l.5.5zm20 0-.5-.5.5-.5.5.5zm155 0h-1l-.5-.5.5-.5h1l.5.5zm93 0h-1l-.5-.5.5-.5h1l.5.5zm10 0h-3l-.5-.5.5-.5h3l.5.5zm19 1-.5-.5v-1l.5-.5.5.5v1zm238-1h-1l-.5-.5.5-.5h1l.5.5zm13 0h-1l-.5-.5.5-.5h1l.5.5zm19 0-.5-.5.5-.5.5.5zm70 0h-1l-.5-.5.5-.5h1l.5.5zm-653 1h-2l-.5-.5.5-.5h2l.5.5zm14 0h-2l-.5-.5.5-.5h2l.5.5zm20 2-.5-.5v-1l.5-.5.5-.5.5-.5.5.5v1l-.5.5-.5.5zm154-2h-36l-.5-.5.5-.5h36l.5.5zm23 0-.5-.5.5-.5.5.5zm52 0-.5-.5.5-.5.5.5zm27 0h-4l-.5-.5.5-.5h4l.5.5zm160 12h-14l-.5-.5.5-.5h12l.5-.5v-11l.5-.5.5.5v11l.5.5.5.5zm20-3-.5-.5v-9l.5-.5.5.5v9zm61-9-.5-.5.5-.5.5.5zm31 0h-10l-.5-.5.5-.5h10l.5.5zm20 1-.5-.5v-1l.5-.5.5.5v1zm68-1h-35l-.5-.5.5-.5h35l.5.5zm23 0-.5-.5.5-.5.5.5zm-696 1-.5-.5.5-.5.5.5zm33 0h-9l-.5-.5.5-.5h9l.5.5zm254 1-.5-.5v-1l.5-.5.5.5v1zm48-1-.5-.5.5-.5.5.5zm221 2-.5-.5-.5-.5-.5-.5v-1l.5-.5.5.5.5.5.5.5v1zm-555-1-.5-.5.5-.5.5.5zm159 0-.5-.5.5-.5.5.5zm73 0-.5-.5.5-.5.5.5zm101 0-.5-.5.5-.5.5.5zm270 0-.5-.5.5-.5.5.5zm91 0-.5-.5.5-.5.5.5zm-693 1-.5-.5.5-.5.5.5zm54 0-.5-.5.5-.5.5.5zm176 0-.5-.5.5-.5.5.5zm56 0-.5-.5.5-.5.5.5zm45 0-.5-.5.5-.5.5.5zm270 0-.5-.5.5-.5.5.5zm91 0-.5-.5.5-.5.5.5zm-691 1-.5-.5.5-.5.5.5zm52 0-.5-.5.5-.5.5.5zm176 0-.5-.5.5-.5.5.5zm22 0-.5-.5.5-.5.5.5zm36 0-.5-.5.5-.5.5.5zm169 7-.5-.5v-7l.5-.5.5.5v7zm99-7-.5-.5.5-.5.5.5zm45 0-.5-.5.5-.5.5.5zm91 0-.5-.5.5-.5.5.5zm-691 1-.5-.5.5-.5.5.5zm2 0-.5-.5.5-.5.5.5zm50 0-.5-.5.5-.5.5.5zm176 0-.5-.5.5-.5.5.5zm60 0-.5-.5.5-.5.5.5zm268 0-.5-.5.5-.5.5.5zm43 0-.5-.5.5-.5.5.5zm91 0-.5-.5.5-.5.5.5zm-687 1-.5-.5.5-.5.5.5zm48 0-.5-.5.5-.5.5.5zm176 0-.5-.5.5-.5.5.5zm62 0-.5-.5.5-.5.5.5zm39 0-.5-.5.5-.5.5.5zm229 0-.5-.5.5-.5.5.5zm41 0-.5-.5.5-.5.5.5zm91 0-.5-.5.5-.5.5.5zm-685 1-.5-.5.5-.5.5.5zm45 0-.5-.5.5-.5.5.5zm177 0h-1l-.5-.5.5-.5h1l.5.5zm62 0-.5-.5.5-.5.5.5zm3 0h-1l-.5-.5.5-.5h1l.5.5zm36 0-.5-.5.5-.5.5.5zm210 5h-14l-.5-.5-.5-.5h-1l-.5-.5.5-.5h2l.5.5.5.5h11l.5-.5.5-.5.5-.5v-3l.5-.5.5.5v5zm21-5-.5-.5.5-.5.5.5zm39 0-.5-.5.5-.5.5.5zm91 0-.5-.5.5-.5.5.5zm-682 1-.5-.5.5-.5.5.5zm42 0-.5-.5.5-.5.5.5zm176 0-.5-.5.5-.5.5.5zm68 0-.5-.5.5-.5.5.5zm34 0-.5-.5.5-.5.5.5zm180 3-.5-.5v-3l.5-.5.5.5v3zm54-3-.5-.5.5-.5.5.5zm36 0h-1l-.5-.5.5-.5h1l.5.5zm91 0h-1l-.5-.5.5-.5h1l.5.5zm-687 1-.5-.5.5-.5.5.5zm10 1h-2l-.5-.5-.5-.5-.5-.5.5-.5h1l.5.5.5.5h1l.5.5zm37-1h-1l-.5-.5.5-.5h1l.5.5zm111 0-.5-.5.5-.5.5.5zm65 0h-1l-.5-.5.5-.5h1l.5.5zm45 2-.5-.5v-2l.5-.5.5.5v2zm26-2h-1l-.5-.5.5-.5h1l.5.5zm30 0-.5-.5.5-.5.5.5zm237 0-.5-.5.5-.5.5.5zm33 0-.5-.5.5-.5.5.5zm91 0h-1l-.5-.5.5-.5h1l.5.5zm-641 1h-1l-.5-.5.5-.5h1l.5.5zm176 0h-1l-.5-.5.5-.5h1l.5.5zm76 0h-1l-.5-.5.5-.5h1l.5.5zm27 0h-1l-.5-.5.5-.5h1l.5.5zm166 0-.5-.5.5-.5.5.5zm75 0h-1l-.5-.5.5-.5h1l.5.5zm29 0h-1l-.5-.5.5-.5h1l.5.5zm90 0h-2l-.5-.5.5-.5h2l.5.5zm-670 1h-2l-.5-.5.5-.5h2l.5.5zm29 0h-1l-.5-.5.5-.5h1l.5.5zm171 1h-54l-.5-.5v-1l.5-.5.5.5.5.5h53l.5.5zm5-1h-3l-.5-.5.5-.5h3l.5.5zm81 0h-2l-.5-.5.5-.5h2l.5.5zm22 0h-2l-.5-.5.5-.5h2l.5.5zm97 1h-13l-.5-.5.5-.5h12l.5-.5.5-.5h1l.5.5-.5.5-.5.5zm73-1-.5-.5.5-.5.5.5zm76 0h-2l-.5-.5.5-.5h2l.5.5zm24 0h-1l-.5-.5.5-.5h1l.5.5zm84 1h-53l-.5-.5v-1l.5-.5.5.5.5.5h52l.5.5zm5-1h-3l-.5-.5.5-.5h3l.5.5zm-663 1h-2l-.5-.5.5-.5h2l.5.5zm22 0h-2l-.5-.5.5-.5h2l.5.5zm228 0h-13l-.5-.5.5-.5h13l.5.5zm37 0h-4l-.5-.5.5-.5h4l.5.5zm13 0h-2l-.5-.5.5-.5h2l.5.5zm188 0h-13l-.5-.5.5-.5h13l.5.5zm65 0h-2l-.5-.5.5-.5h2l.5.5zm18 0h-2l-.5-.5.5-.5h2l.5.5zm-553 1h-16l-.5-.5.5-.5h16l.5.5zm278 0h-7l-.5-.5.5-.5h7l.5.5zm271 0h-12l-.5-.5.5-.5h12l.5.5zm-91 1-.5-.5.5-.5.5.5zm-361 386-.5-.5.5-.5.5.5z"/>
	</g>
</svg>
