<svg xmlns="http://www.w3.org/2000/svg" width="136" height="17" fill="none"><path fill="#ADADB0" fill-rule="evenodd" d="M95.15 1.138h2.794v13.18h12.115l-1.779 2.574H95.15V1.138ZM73.209 16.892 62.873 1.879c-.635-.974-2.329-.974-3.05.04l-10.25 14.973h3.39l3.091-4.524h6.608L64.4 9.794h-6.607l3.6-5.185 8.43 12.283h3.387Zm6.289-15.749c-4.722 0-7.83 3.524-7.83 7.872 0 4.347 3.108 7.872 7.83 7.872l11.482-.013 1.797-2.551H79.582c-3.183 0-5.045-2.377-5.045-5.308s1.861-5.308 5.045-5.308h11.754l1.735-2.571-13.573.007ZM7.83 3.707h12.114c3.184 0 5.046 2.377 5.046 5.308s-1.861 5.308-5.046 5.308H7.83c-3.184 0-5.045-2.377-5.045-5.308s1.86-5.308 5.045-5.308Zm0-2.564C3.108 1.143 0 4.667 0 9.015c0 4.347 3.108 7.872 7.831 7.872h12.114c4.723 0 7.831-3.525 7.831-7.872 0-4.348-3.108-7.872-7.831-7.872H7.83Zm105.214 9.12c.455 2.33 2.196 4.06 4.914 4.06h13.194l-1.798 2.551-11.481.013c-4.723 0-7.83-3.525-7.83-7.872 0-4.348 3.108-7.872 7.83-7.872l13.573-.007-1.734 2.572H117.96c-2.68 0-4.429 1.701-4.914 3.982h16.583l-1.779 2.574-14.805-.001Zm-69.465.228c1.331-.021 2.6-.523 3.533-1.397.933-.875 1.456-2.051 1.456-3.277 0-1.225-.523-2.402-1.456-3.276-.933-.874-2.202-1.376-3.533-1.398l-14.253-.005V16.89h3.135V3.708H43.58c.608 0 1.19.222 1.62.618.43.395.671.932.671 1.491a2.03 2.03 0 0 1-.67 1.492 2.395 2.395 0 0 1-1.62.618h-8.917l10.058 8.946h4.047l-7.2-6.376 2.011-.006Zm90.795-9.338c.727 0 1.302.528 1.302 1.23 0 .712-.575 1.236-1.302 1.236-.736 0-1.309-.524-1.309-1.237 0-.7.573-1.23 1.309-1.23V.907c-.885 0-1.632.626-1.632 1.476 0 .857.748 1.483 1.632 1.483.877 0 1.625-.626 1.625-1.483 0-.85-.748-1.476-1.625-1.476v.247Z" clip-rule="evenodd"/><path fill="#ADADB0" fill-rule="evenodd" d="M134.036 1.753h.384c.195 0 .403.04.403.25 0 .263-.212.28-.452.28h-.335v.219h.323l.49.74h.314l-.528-.752c.273-.03.481-.163.481-.469 0-.337-.218-.486-.655-.486h-.707v1.707h.281V1.753h.001Z" clip-rule="evenodd"/></svg>