<svg xmlns="http://www.w3.org/2000/svg" width="100" height="32" viewBox="0 0 100 32" fill="none" aria-hidden="true">
	<defs>
		<clipPath id="radar-trusted-clip">
			<rect width="100" height="32" />
		</clipPath>
	</defs>
	<g clip-path="url(#radar-trusted-clip)">
		<g transform="translate(16,16) scale(0.03690888581268743) translate(-433.323702,-418.5)">
			<path
				fill="#ADADB0"
				fill-rule="nonzero"
				d="M433.323702,0 C504.01615,0 561.323702,57.307552 561.323702,128 L561.323106,250.800829 C561.323064,259.637385 568.486473,266.800864 577.323029,266.800907 C579.002013,266.800915 580.670535,266.536653 582.267344,266.017822 L699.058668,228.070311 L699.058668,228.070311 C766.291182,206.225143 838.50291,243.018856 860.348078,310.25137 C882.193246,377.483883 845.399532,449.695611 778.167019,471.540779 L661.375524,509.487852 C652.971443,512.218447 648.372174,521.244885 651.102769,529.648966 C651.621606,531.245813 652.388556,532.751043 653.375465,534.109396 L725.556943,633.457943 L725.556943,633.457943 C767.108922,690.649335 754.430672,770.696652 697.23928,812.24863 C640.047888,853.800609 560.000571,841.122359 518.448593,783.930967 L446.267365,684.582335 C441.073357,677.433419 431.06744,675.848652 423.918523,681.04266 C422.560188,682.029551 421.365655,683.224094 420.378774,684.582437 L348.198811,783.930967 L348.198811,783.930967 C306.646833,841.122359 226.599516,853.800609 169.408124,812.24863 C112.216732,770.696652 99.5384816,690.649335 141.090461,633.457943 L213.270822,534.109294 C218.464788,526.960348 216.879964,516.95444 209.731017,511.760474 C208.372703,510.77361 206.867525,510.00669 205.270734,509.487867 L88.4803846,471.540779 L88.4803846,471.540779 C21.2478713,449.695611 -15.545842,377.483883 6.29932582,310.25137 C28.1444936,243.018856 100.356222,206.225143 167.588736,228.070311 L284.378823,266.017807 C292.782885,268.748459 301.809355,264.149252 304.540007,255.74519 C305.058832,254.148416 305.323098,252.479932 305.323106,250.800984 L305.323702,128 L305.323702,128 C305.323702,57.307552 362.631254,0 433.323702,0 Z"
			/>
		</g>
		<text
			x="40"
			y="21.5"
			fill="#ADADB0"
			font-family="system-ui, -apple-system, 'Segoe UI', Roboto, 'Helvetica Neue', Arial, sans-serif"
			font-size="13"
			font-weight="700"
			letter-spacing="0.14em"
		>RADAR</text>
	</g>
</svg>
