<svg xmlns="http://www.w3.org/2000/svg" width="126" height="32" viewBox="0 0 2816.52 715.81" fill="none" aria-hidden="true">
	<defs>
		<clipPath id="socialaize-trusted-clip">
			<rect width="2816.52" height="715.81" />
		</clipPath>
		<mask
			id="socialaize-bubble-ai-cutout"
			maskUnits="userSpaceOnUse"
			maskContentUnits="userSpaceOnUse"
			x="0"
			y="0"
			width="2816.52"
			height="715.81"
		>
			<path
				fill="white"
				d="M2191.1,656.97l-105.36-33.01-54.86-17.54c-44.38,26.69-96.32,42.06-151.82,42.06-162.79,0-294.79-132-294.79-294.84S1716.28,58.84,1879.07,58.84s294.84,132,294.84,294.79c0,41.36-8.5,80.7-23.92,116.43l17.64,79.02,23.47,107.88Z"
			/>
			<path
				fill="black"
				d="M1822.69,265.51v28.3c-4.38-5.32-9.26-10.21-14.62-14.62-7.49-6.19-16.28-10.92-26.37-14.19-10.09-3.23-21.17-4.85-33.19-4.85-22.43,0-42.3,5.76-59.52,17.31-17.27,11.55-30.75,27.44-40.52,47.58-9.74,20.18-14.62,43.6-14.62,70.29s4.93,49.24,14.86,69.54c9.93,20.34,23.45,36.31,40.52,47.86,17.07,11.55,36.35,17.31,57.83,17.31,12.02,0,23.02-1.7,32.95-5.12,9.89-3.43,18.92-8.12,27.08-14.15,5.01-3.74,9.58-7.84,13.64-12.38v27.28h91.26v-260.13h-89.29ZM1817.09,427.52c-4.1,9.11-9.85,16.04-17.34,20.73-7.49,4.73-16.44,7.1-26.84,7.1s-19.28-2.37-26.61-7.1c-7.29-4.69-12.93-11.63-16.83-20.73-3.9-9.11-5.83-19.83-5.83-32.21s1.93-23.57,5.83-32.68c3.9-9.11,9.54-16.04,16.83-20.77,7.33-4.69,16.2-7.06,26.61-7.06s19.36,2.37,26.84,7.06c7.49,4.73,13.25,11.67,17.34,20.77,4.06,9.11,6.07,19.99,6.07,32.68s-2.01,23.1-6.07,32.21Z"
			/>
			<path
				fill="black"
				d="M2018.87,216.21c-16.59,0-29.45-3.82-38.55-11.47-9.11-7.64-13.67-18.46-13.67-32.45,0-13.01,4.64-23.67,13.91-31.97,9.28-8.3,22.04-12.45,38.31-12.45s29.04,3.83,38.31,11.47c9.27,7.65,13.91,18.63,13.91,32.94,0,13.02-4.72,23.59-14.15,31.72-9.44,8.14-22.13,12.2-38.07,12.2ZM1973.49,525.62v-260.12h90.77v260.12h-90.77Z"
			/>
		</mask>
	</defs>
	<g clip-path="url(#socialaize-trusted-clip)">
		<path
			fill="#ADADB0"
			mask="url(#socialaize-bubble-ai-cutout)"
			d="M2191.1,656.97l-105.36-33.01-54.86-17.54c-44.38,26.69-96.32,42.06-151.82,42.06-162.79,0-294.79-132-294.79-294.84S1716.28,58.84,1879.07,58.84s294.84,132,294.84,294.79c0,41.36-8.5,80.7-23.92,116.43l17.64,79.02,23.47,107.88Z"
		/>
		<path
			fill="#ADADB0"
			d="M213.39,325.69c-17.5-9.09-34.64-13.64-51.43-13.64-8.75,0-15.83,1.76-21.25,5.25-5.43,3.5-8.14,8.23-8.14,14.17,0,3.15.44,5.69,1.31,7.61.87,1.93,2.8,3.76,5.77,5.51,2.97,1.76,7.35,3.33,13.12,4.72,5.77,1.4,13.38,3.15,22.83,5.25,26.24,5.25,45.83,14.61,58.77,28.08,12.94,13.47,19.41,30.7,19.41,51.69,0,15.74-3.15,29.91-9.44,42.51-6.3,12.59-15.05,23.18-26.24,31.75-11.2,8.58-24.67,15.22-40.41,19.94-15.74,4.72-33.06,7.08-51.95,7.08-36.39,0-72.25-10.31-107.58-30.96l34.64-67.17c26.58,18.19,51.77,27.29,75.57,27.29,8.74,0,15.91-1.92,21.52-5.77,5.59-3.84,8.4-8.74,8.4-14.69,0-3.49-.44-6.38-1.31-8.66-.88-2.27-2.72-4.37-5.51-6.3-2.8-1.92-6.91-3.67-12.33-5.25-5.43-1.57-12.51-3.23-21.25-4.98-29.39-5.94-49.94-14.78-61.66-26.5-11.73-11.72-17.58-27.89-17.58-48.54,0-15.04,2.8-28.6,8.4-40.67,5.59-12.07,13.64-22.3,24.14-30.7,10.5-8.39,23.17-14.86,38.05-19.41,14.86-4.54,31.4-6.82,49.59-6.82,29.73,0,58.6,5.77,86.59,17.32l-32.01,61.92Z"
		/>
		<path
			fill="#ADADB0"
			d="M291.58,388.66c0-19.94,4.02-38.57,12.07-55.89,8.04-17.32,19.24-32.35,33.58-45.13,14.34-12.77,31.4-22.83,51.16-30.17,19.76-7.35,41.37-11.02,64.81-11.02s44.52,3.59,64.28,10.76c19.76,7.17,36.91,17.14,51.43,29.91,14.51,12.78,25.8,27.99,33.85,45.66,8.04,17.67,12.07,37.18,12.07,58.51s-4.12,40.85-12.33,58.51c-8.23,17.67-19.51,32.89-33.85,45.66-14.35,12.78-31.58,22.66-51.69,29.65-20.12,7-41.9,10.5-65.33,10.5s-44.43-3.5-64.02-10.5c-19.6-6.99-36.47-16.97-50.64-29.91-14.17-12.94-25.28-28.42-33.32-46.44-8.05-18.02-12.07-38.05-12.07-60.09ZM391.81,389.71c0,9.1,1.66,17.41,4.99,24.93,3.32,7.53,7.69,14.09,13.12,19.68,5.42,5.6,11.89,9.97,19.42,13.12,7.52,3.15,15.48,4.72,23.88,4.72s16.35-1.57,23.88-4.72c7.52-3.15,13.99-7.52,19.42-13.12,5.42-5.59,9.79-12.15,13.12-19.68,3.32-7.52,4.99-15.65,4.99-24.4s-1.67-16.35-4.99-23.88c-3.33-7.52-7.7-14.08-13.12-19.68-5.43-5.59-11.9-9.97-19.42-13.12-7.53-3.15-15.48-4.72-23.88-4.72s-16.36,1.57-23.88,4.72c-7.53,3.15-14,7.53-19.42,13.12-5.43,5.6-9.8,12.07-13.12,19.42-3.33,7.35-4.99,15.22-4.99,23.61Z"
		/>
		<path
			fill="#ADADB0"
			d="M872.49,343.53c-16.45-11.19-33.06-16.79-49.85-16.79-9.1,0-17.58,1.57-25.45,4.72-7.87,3.15-14.78,7.61-20.73,13.38-5.95,5.77-10.59,12.6-13.91,20.47-3.33,7.87-4.99,16.71-4.99,26.5s1.66,18.11,4.99,25.98c3.32,7.87,7.87,14.69,13.64,20.47,5.77,5.77,12.68,10.23,20.73,13.38,8.04,3.15,16.61,4.72,25.71,4.72,17.84,0,34.46-6.12,49.85-18.37v80.82c-23.44,10.14-45.65,15.22-66.64,15.22-19.6,0-38.23-3.33-55.89-9.97-17.67-6.64-33.24-16.18-46.7-28.6-13.47-12.41-24.23-27.29-32.27-44.61-8.05-17.32-12.07-36.64-12.07-57.99s3.84-40.84,11.54-58.51c7.69-17.66,18.19-32.88,31.49-45.65,13.29-12.77,29.13-22.74,47.49-29.91,18.37-7.17,38.05-10.76,59.04-10.76,23.09,0,44.42,4.9,64.02,14.69v80.81Z"
		/>
		<path
			fill="#ADADB0"
			d="M920.24,153.04c0-7.35,1.39-14.25,4.2-20.73,2.8-6.47,6.64-12.15,11.55-17.05s10.58-8.74,17.05-11.54c6.47-2.8,13.38-4.2,20.73-4.2s14.25,1.4,20.73,4.2c6.47,2.8,12.15,6.65,17.05,11.54,4.9,4.9,8.74,10.59,11.55,17.05,2.8,6.48,4.2,13.38,4.2,20.73s-1.4,14.26-4.2,20.73c-2.81,6.48-6.65,12.16-11.55,17.05s-10.59,8.75-17.05,11.54c-6.48,2.81-13.38,4.2-20.73,4.2s-14.26-1.39-20.73-4.2c-6.48-2.8-12.16-6.64-17.05-11.54-4.9-4.9-8.75-10.58-11.55-17.05-2.8-6.47-4.2-13.38-4.2-20.73ZM1021.52,256.42v269.2h-94.98v-269.2h94.98Z"
		/>
		<path
			fill="#ADADB0"
			d="M1294.39,256.42h95.51v269.2h-95.51v-29.91c-20.29,25.54-47.75,38.31-82.39,38.31-19.6,0-37.61-3.59-54.05-10.76-16.45-7.16-30.79-17.23-43.03-30.17-12.25-12.94-21.78-28.16-28.6-45.65-6.82-17.49-10.23-36.55-10.23-57.2,0-19.24,3.32-37.52,9.97-54.84,6.64-17.32,15.91-32.44,27.81-45.39,11.89-12.94,26.06-23.17,42.51-30.7,16.44-7.52,34.64-11.28,54.58-11.28,33.58,0,61.4,11.73,83.44,35.16v-26.76ZM1174.75,390.23c0,8.75,1.57,16.88,4.72,24.4,3.15,7.53,7.43,14.09,12.86,19.68,5.42,5.6,11.89,9.97,19.41,13.12,7.52,3.15,15.65,4.72,24.4,4.72s16.35-1.57,23.88-4.72c7.52-3.15,13.99-7.52,19.42-13.12,5.42-5.59,9.79-12.07,13.12-19.42,3.32-7.35,4.99-15.22,4.99-23.61s-1.67-16.35-4.99-23.88c-3.33-7.52-7.7-14.08-13.12-19.68-5.43-5.59-11.9-9.97-19.42-13.12-7.53-3.15-15.48-4.72-23.88-4.72s-16.88,1.57-24.4,4.72c-7.53,3.15-14,7.53-19.41,13.12-5.43,5.6-9.71,11.99-12.86,19.15-3.15,7.17-4.72,14.96-4.72,23.35Z"
		/>
		<path fill="#ADADB0" d="M1549.42,90.07v435.56h-94.98V90.07h94.98Z" />
		<path
			fill="#ADADB0"
			d="M2339.77,446.38h113.35v79.24h-272.88l126.99-189.97h-109.68v-79.24h268.15l-125.94,189.96Z"
		/>
		<path
			fill="#ADADB0"
			d="M2595.85,407.03c0,40.93,19.24,61.4,57.72,61.4,20.64,0,36.21-8.4,46.71-25.19h91.83c-18.55,61.58-64.9,92.36-139.06,92.36-22.75,0-43.56-3.41-62.45-10.23-18.89-6.82-35.08-16.53-48.54-29.13-13.47-12.59-23.88-27.63-31.22-45.13-7.34-17.49-11.02-37.08-11.02-58.77s3.49-42.59,10.5-60.61c7-18.01,16.96-33.32,29.91-45.92,12.93-12.59,28.6-22.3,46.96-29.12,18.37-6.82,39.1-10.23,62.19-10.23s43.2,3.41,61.4,10.23c18.18,6.82,33.58,16.71,46.18,29.65,12.59,12.95,22.21,28.78,28.86,47.49,6.64,18.72,9.97,39.8,9.97,63.23v9.97h-199.93ZM2707.1,351.92c-3.15-13.29-9.63-23.96-19.42-32.01-9.8-8.04-21.7-12.07-35.68-12.07-14.69,0-26.68,3.85-35.95,11.55-9.27,7.7-15.13,18.55-17.58,32.53h108.63Z"
		/>
	</g>
</svg>
