<svg xmlns="http://www.w3.org/2000/svg" width="133" height="32" fill="none"><path fill="#ADADB0" fill-rule="evenodd" d="M50.713 8.283H33.709l.109 4.874h5.559V31.55h5.45V13.27h4.36l1.526-4.986Zm45.397 0H78.67v4.874h5.56V31.55h5.558V13.27h4.796l1.526-4.986Zm-38.857 7.423h-5.45v15.732h5.45V15.706Zm7.63-7.534h-5.45v23.155h5.45v-6.094l1.635-1.55 5.123 7.755h5.995l-7.63-11.08 6.867-6.757h-6.54l-5.45 5.428V8.172Zm55.365 0h-5.45v23.155h5.45v-6.094l1.635-1.55 5.123 7.755H133l-7.629-11.08 6.866-6.757h-6.539l-5.45 5.428V8.172Zm-62.995 2.88c0 1.53-1.22 2.77-2.725 2.77-1.505 0-2.725-1.24-2.725-2.77s1.22-2.77 2.725-2.77c1.505 0 2.725 1.24 2.725 2.77Zm36.66 10.972c0-5.318 4.25-9.528 9.373-9.528 5.123 0 9.374 4.32 9.374 9.528 0 5.318-4.142 9.528-9.374 9.528s-9.374-4.32-9.374-9.528Zm4.795 0c0 2.548 2.071 4.653 4.578 4.653s4.578-2.105 4.578-4.653c0-2.548-2.071-4.653-4.578-4.653s-4.578 2.105-4.578 4.653Z" clip-rule="evenodd"/><g clip-path="url(#a)"><path fill="#ADADB0" d="M28.66 8.48a7.721 7.721 0 0 1-4.716-1.601 7.967 7.967 0 0 1-2.967-4.793 8.11 8.11 0 0 1-.15-1.488h-5.058v14.046l-.006 7.693a4.645 4.645 0 0 1-3.145 4.414 4.506 4.506 0 0 1-3.793-.424 4.667 4.667 0 0 1-2.237-3.92c-.038-2.6 2.03-4.72 4.587-4.72.505 0 .99.083 1.443.235v-5.219a9.801 9.801 0 0 0-1.458-.11c-2.799 0-5.416 1.183-7.287 3.313a9.724 9.724 0 0 0-2.393 5.818 9.718 9.718 0 0 0 2.822 7.503c.29.291.595.561.914.81a9.602 9.602 0 0 0 5.944 2.043c.493 0 .98-.037 1.459-.11a9.609 9.609 0 0 0 5.4-2.744 9.701 9.701 0 0 0 2.84-6.849l-.026-11.489a12.72 12.72 0 0 0 2.84 1.684c1.587.68 3.27 1.025 5 1.025V8.479c.002.001-.012.001-.013.001Z"/></g><defs><clipPath id="a"><path fill="#fff" d="M0 0h31.483v32H0z"/></clipPath></defs></svg>