<svg xmlns="http://www.w3.org/2000/svg" width="144.965" height="52.53" viewBox="0 0 144.965 52.53">
  <defs>
    <clipPath id="clip-path">
      <rect id="Rectangle_1081" data-name="Rectangle 1081" width="144.965" height="10.845" fill="none"/>
    </clipPath>
  </defs>
  <g id="THE_TIMES_OF_INDIA_LOGO_" data-name="THE TIMES OF INDIA LOGO " transform="translate(-4187.13 -6443.225)">
    <g id="Group_162547" data-name="Group 162547" transform="translate(4187.129 6443.226)">
      <g id="Group_162543" data-name="Group 162543" transform="translate(20.381 0)">
        <g id="Group_162542" data-name="Group 162542" transform="translate(0 0)">
          <g id="Group_162546" data-name="Group 162546">
            <path id="Path_85387" data-name="Path 85387" d="M92.9,72.615c.583.235.73,1.976,0,2.195a1.76,1.76,0,0,1,0-2.195" transform="translate(-42.702 -68.826)" fill="#ADADB0" fill-rule="evenodd"/>
            <path id="Path_85388" data-name="Path 85388" d="M99.047,72.615a1.533,1.533,0,0,1,.572.859c-.092.418-.391.628-.286,1.241H98.76c-.026-.924-.183-1.566.287-2.1" transform="translate(-45.227 -68.826)" fill="#ADADB0" fill-rule="evenodd"/>
            <path id="Path_85391" data-name="Path 85391" d="M87.157,74.386c-.451.523.128,1.536-.668,1.622-.087-.582-.151-1.186-.573-1.432.223-.788.846-.888,1.24-.19" transform="translate(-40.018 -69.357)" fill="#ADADB0" fill-rule="evenodd"/>
            <path id="Path_85392" data-name="Path 85392" d="M105.8,74.463c-.229.471-.317,1.083-.572,1.527-1.079-.56-.04-3.3.572-1.527" transform="translate(-47.689 -69.339)" fill="#ADADB0" fill-rule="evenodd"/>
            <path id="Path_85393" data-name="Path 85393" d="M63.458,76.078c-.6.384-.486-.446-1.05-.381-.127,1.189-.8,2.64.286,3.244-.1.977.677,1.81.382,2.386-1.345-.334-.417-2.37-1.622-2.863a8.057,8.057,0,0,1,.668-3.436,1.177,1.177,0,0,1,1.336,1.05" transform="translate(-30.059 -69.809)" fill="#ADADB0" fill-rule="evenodd"/>
            <path id="Path_85394" data-name="Path 85394" d="M128.3,81.512c-.3-.583.462-1.336.382-2.29a5.7,5.7,0,0,0,.763-.859,9.639,9.639,0,0,0-.382-2.386c-.323.027-.585.115-.572.477-.122-.132-.451-.058-.573-.191.09-.818,1.365-1.489,1.813-.573-.3.953.356,1.508.382,2.195.04,1.13-1.153,1.9-1.051,3.34-.464-.122-.446.556-.763.286" transform="translate(-57.118 -69.899)" fill="#ADADB0" fill-rule="evenodd"/>
            <path id="Path_85395" data-name="Path 85395" d="M76.106,80.227c-.607-.156-.3-1.226-1.049-1.24a.913.913,0,0,1-.286.668.711.711,0,0,1-.763-.286c-.021-.69.484-.852.954-1.05-.039-.248-.285-.288-.286-.572,1.11-.292,1.88,1.821,1.431,2.481" transform="translate(-35.169 -70.904)" fill="#ADADB0" fill-rule="evenodd"/>
            <path id="Path_85396" data-name="Path 85396" d="M116.413,77.765a.783.783,0,0,1-.19.573c.283.453,1.009.346.953.954s-1.023.686-1.049-.286c-.515.184-.431.969-.764,1.336-.2-.056-.308-.2-.477-.287.394-.878.394-2.15,1.527-2.29" transform="translate(-51.811 -70.923)" fill="#ADADB0" fill-rule="evenodd"/>
            <path id="Path_85403" data-name="Path 85403" d="M45.826,85.49a13.049,13.049,0,0,0,3.912,2.767,2.408,2.408,0,0,1-.19.764,19.4,19.4,0,0,1-3.435-2.195c-.379-.356-.844-.917-.286-1.336" transform="translate(-23.592 -74.068)" fill="#ADADB0" fill-rule="evenodd"/>
            <path id="Path_85404" data-name="Path 85404" d="M143.97,85.812a1.38,1.38,0,0,1,.477.668,9.752,9.752,0,0,1-4.2,2.768c.074-.36-.117-.457-.095-.764a9.445,9.445,0,0,0,3.817-2.672" transform="translate(-62.096 -74.199)" fill="#ADADB0" fill-rule="evenodd"/>
            <path id="Path_85405" data-name="Path 85405" d="M43.327,86.456a16.728,16.728,0,0,0,6.393,4.2,2.135,2.135,0,0,1-.191.572c-2.6-.545-4.707-2.417-6.584-4.007a2.464,2.464,0,0,1,.382-.763" transform="translate(-22.525 -74.461)" fill="#ADADB0" fill-rule="evenodd"/>
            <path id="Path_85406" data-name="Path 85406" d="M144.711,86.777c1.314.884-.834,1.9-1.813,2.576a11.92,11.92,0,0,1-4.39,2.195.944.944,0,0,0-.286-.572,17.333,17.333,0,0,0,6.489-4.2" transform="translate(-61.311 -74.592)" fill="#ADADB0" fill-rule="evenodd"/>
            <path id="Path_85413" data-name="Path 85413" d="M88.349,88.223c1.12-.071,1.179.921,2,1.145-.037.471-.823.169-1.145.1-.46.144-.489.721-1.24.573,1.036-.956-.7-.382-.763-1.24.827-.111,1.256.186,1.813.095-.2-.242-.647-.243-.668-.668" transform="translate(-40.542 -75.179)" fill="#ADADB0" fill-rule="evenodd"/>
            <path id="Path_85414" data-name="Path 85414" d="M102.405,88.226c.028.409-.449.314-.477.668.235.072.94-.2,1.527-.095-.012.171.117.2.1.382-.287.158-.819.072-1.146.19-.3.282.5.386.191.668-.557.2-.757-.338-1.146-.573a1.379,1.379,0,0,1-1.049,0c.68-.4,1.007-1.156,2-1.24" transform="translate(-45.915 -75.182)" fill="#ADADB0" fill-rule="evenodd"/>
            <path id="Path_85416" data-name="Path 85416" d="M44.2,90.318a17.68,17.68,0,0,0,3.722,2.29c-.091.2-.2.378-.286.573a13.107,13.107,0,0,1-3.722-2.29c.038-.248.285-.288.286-.573" transform="translate(-22.918 -76.033)" fill="#ADADB0" fill-rule="evenodd"/>
            <path id="Path_85417" data-name="Path 85417" d="M145.935,90.479a1.387,1.387,0,0,1,.477.668c-1.213.792-2.408,1.6-3.722,2.29-.121-.165-.323-.25-.287-.573,1.071-.9,2.49-1.454,3.531-2.385" transform="translate(-63.011 -76.099)" fill="#ADADB0" fill-rule="evenodd"/>
            <path id="Path_85423" data-name="Path 85423" d="M44.263,93.054c1.046.385,1.649,1.214,2.767,1.527.046.3-.293.216-.191.572a11.791,11.791,0,0,1-2.767-1.622c.041-.182.206-.24.191-.477" transform="translate(-22.983 -77.147)" fill="#ADADB0" fill-rule="evenodd"/>
            <path id="Path_85424" data-name="Path 85424" d="M100.659,97.222h.954v-.859h-.954Zm1.622,0c.51-.062,1.269.125,1.622-.1-.6-.515-1.04-1.187-1.622-1.718Zm-3.818,0h1.527c-.063-.605.125-1.462-.1-1.908-.38.732-1.058,1.167-1.431,1.908m2.2-1.431h.954v-1.05h-.954Zm-.668-2.576c.433.111.39,0,.859.191.254.282-.355.28-.191.763.1.217.6.037.859.1.216-.1.036-.6.1-.859a3.622,3.622,0,0,1,.859.19c.474.1-.382.327-.286.668a15.415,15.415,0,0,0,2.386,2.672,19.305,19.305,0,0,0-.764,1.813H98.846c-.2-.695-.671-1.109-.859-1.813.575-1.333,2.158-1.658,2-3.721" transform="translate(-44.932 -77.213)" fill="#ADADB0" fill-rule="evenodd"/>
            <path id="Path_85425" data-name="Path 85425" d="M146.527,93.215a1.818,1.818,0,0,1,.381.668,16.039,16.039,0,0,1-2.767,1.432c-.084-.2-.29-.282-.286-.573a17.559,17.559,0,0,0,2.672-1.526" transform="translate(-63.604 -77.213)" fill="#ADADB0" fill-rule="evenodd"/>
            <path id="Path_85426" data-name="Path 85426" d="M86.657,97.19h.954v-.763h-.954a1.258,1.258,0,0,0,0,.763m1.622,0H89.71a11.715,11.715,0,0,0-1.431-1.527Zm-3.817,0h1.432c-.063-.573.126-1.4-.1-1.813-.356.694-1.037,1.063-1.336,1.813m2.1-2.29v.859h1.049V94.9c-.387-.1-.524.037-1.049,0m-.668-1.527a1.106,1.106,0,0,1,.859.19c.488.1-.373.265-.191.668.132.218.664.036.955.1.249-.132-.047-.81.191-.954.381,0,.572.19.953.19-.142.207-.477.222-.477.573.471,1.247,1.513,1.922,2.29,2.862-.132.728-.684,1.035-.859,1.718H84.844c-.146-.736-.883-1.063-.859-1.718.044-1.2,2.347-1.738,1.909-3.626" transform="translate(-39.231 -77.275)" fill="#ADADB0" fill-rule="evenodd"/>
            <path id="Path_85429" data-name="Path 85429" d="M27.836,97.919c.023-.359.359-.4.382-.763-.21-.235-.316-.575-.668-.668-.284.522-.414,1.263.286,1.431m-.286-2.29c.649.273.867.978,1.241,1.527a11.448,11.448,0,0,0-.955,1.909c-.506-.416-.658-1.187-1.145-1.622a5.765,5.765,0,0,1,.859-1.813" transform="translate(-15.908 -78.195)" fill="#ADADB0" fill-rule="evenodd"/>
            <path id="Path_85431" data-name="Path 85431" d="M163.831,98.336c-.095-.476.487-.276.477-.668-.309-.2-.24-.777-.668-.859a.933.933,0,0,0,.191,1.527m-.1-2.385a4.282,4.282,0,0,1,1.146,1.718c-.248.707-.964.945-1.05,1.813-.535-.451-.65-1.322-1.146-1.813.15-.773.7-1.148,1.05-1.718" transform="translate(-71.269 -78.326)" fill="#ADADB0" fill-rule="evenodd"/>
            <path id="Path_85432" data-name="Path 85432" d="M29.635,101.462a4.491,4.491,0,0,0,1.623-4.008,4.347,4.347,0,0,0-1.623,4.008m2-4.867a4.754,4.754,0,0,1-2.481,5.726A4.89,4.89,0,0,1,31.639,96.6" transform="translate(-16.849 -78.589)" fill="#ADADB0" fill-rule="evenodd"/>
            <path id="Path_85436" data-name="Path 85436" d="M161.331,101.688a4.589,4.589,0,0,0-1.813-3.722c.154,1.69.643,3.047,1.813,3.722m-2.386-4.771c2.022.749,3.273,2.765,2.768,5.726-1.983-.8-3.093-2.927-2.768-5.726" transform="translate(-69.724 -78.72)" fill="#ADADB0" fill-rule="evenodd"/>
            <path id="Path_85440" data-name="Path 85440" d="M25.3,101.252a3.471,3.471,0,0,0-2.29-2.768,3.639,3.639,0,0,0,2.29,2.768m-2.958-3.531c2.284.387,3.4,1.942,3.531,4.485-1.942-.73-3.456-1.888-3.531-4.485" transform="translate(-14.139 -79.047)" fill="#ADADB0" fill-rule="evenodd"/>
            <path id="Path_85441" data-name="Path 85441" d="M165.092,101.825c1.263-.741,2.423-1.586,2.577-3.435a4.443,4.443,0,0,0-2.577,3.435m2.958-4.1c.435,2.855-1.561,4.012-3.34,4.962a4.175,4.175,0,0,1,3.34-4.962" transform="translate(-72.054 -79.047)" fill="#ADADB0" fill-rule="evenodd"/>
            <path id="Path_85443" data-name="Path 85443" d="M51.236,98.522c.582-.055.751.326,1.432.381.069.292-.165.281-.1.573A10.669,10.669,0,0,1,51.141,99c-.079-.27.135-.248.1-.477" transform="translate(-25.854 -79.371)" fill="#ADADB0" fill-rule="evenodd"/>
            <path id="Path_85445" data-name="Path 85445" d="M140.17,98.526c.259.059.374.262.381.572a8.951,8.951,0,0,1-1.336.477c.025-.279-.215-.293-.191-.572a2.509,2.509,0,0,0,1.146-.477" transform="translate(-61.637 -79.375)" fill="#ADADB0" fill-rule="evenodd"/>
            <path id="Path_85449" data-name="Path 85449" d="M50.2,99.652c.645.119,1.084.443,1.718.573a.535.535,0,0,0-.1.381c-.676.3-1.169-.34-1.813-.381-.1-.356.237-.272.191-.573" transform="translate(-25.394 -79.833)" fill="#ADADB0" fill-rule="evenodd"/>
            <path id="Path_85450" data-name="Path 85450" d="M141.632,100.384a6.446,6.446,0,0,1-1.622.668c.046-.3-.294-.216-.191-.572.707.041,1.455-.933,1.813-.1" transform="translate(-61.953 -79.992)" fill="#ADADB0" fill-rule="evenodd"/>
            <path id="Path_85451" data-name="Path 85451" d="M20.9,102.593a1.577,1.577,0,0,1-.573-.764c-.352.06-.95-.124-1.145.1.532.553.787,1.124,1.718.668m-.191-1.336a5.163,5.163,0,0,0,1.622,1.909c-.717.205-1.818.027-2.576.191a9.148,9.148,0,0,1-1.432-1.718c.353-.57,1.514-.331,2.386-.382" transform="translate(-12.5 -80.483)" fill="#ADADB0" fill-rule="evenodd"/>
            <path id="Path_85452" data-name="Path 85452" d="M169.362,103.115c.978.182,1.248-.343,1.527-.859a1.237,1.237,0,0,0-1.527.859m2.386-1.241a5.511,5.511,0,0,1-1.431,2c-.857-.075-1.66-.532-2.481-.1.513-.76,1.324-1.221,1.718-2.1a3.984,3.984,0,0,1,2.195.191" transform="translate(-73.366 -80.624)" fill="#ADADB0" fill-rule="evenodd"/>
            <path id="Path_85459" data-name="Path 85459" d="M93.578,107.255h1.146V106.4H93.578Zm1.718,0c.51-.062,1.271.125,1.622-.1-.533-.58-1.083-1.143-1.622-1.718Zm-3.817,0h1.527c-.062-.574.126-1.4-.1-1.814a9.492,9.492,0,0,0-1.432,1.814m2.1-1.431h1.146v-1.049H93.578Zm-.572-2.481c.228.058.693-.12.764.1.481.074-.3.264-.192.573.164.218.729.035,1.05.1.215-.071.037-.535.1-.764.425-.075.572.127.954.1C94.6,104.953,97,105.8,97.49,106.969c-.114.745-.564,1.153-.764,1.813H91.86a16.814,16.814,0,0,0-.954-1.718c.515-1.426,2.194-1.687,2.1-3.722" transform="translate(-42.049 -81.329)" fill="#ADADB0" fill-rule="evenodd"/>
            <path id="Path_85460" data-name="Path 85460" d="M18.858,106.63c1.43.817,3.7.132,4.676-.668-1.539-.358-3.85-.275-4.676.668m5.725-.763c-1.188,1.392-4.742,2.375-6.584.859.963-1.919,4.762-2.116,6.584-.859" transform="translate(-12.369 -82.039)" fill="#ADADB0" fill-rule="evenodd"/>
            <path id="Path_85461" data-name="Path 85461" d="M165.023,106.5c.695.993,3.553,1.548,4.58.477a6.669,6.669,0,0,0-4.58-.477m5.534.477c-1.33,1.981-5.605,1.083-6.584-.573,1.8-1.211,5.273-.8,6.584.573" transform="translate(-71.794 -82.289)" fill="#ADADB0" fill-rule="evenodd"/>
            <path id="Path_85464" data-name="Path 85464" d="M161.547,110.025c.142-.844.794-1.178,1.24-1.718-.248-.228-.595-.541-.954-.382a3.977,3.977,0,0,1-.286.859c-.127-.1-.355-.09-.382-.286-.043-.489.228-.663.286-1.05a.638.638,0,0,0-.763-.382,5.682,5.682,0,0,0,.859,2.959m2.1-1.336c-1.233.326-1.826,1.291-1.813,2.863-.688-.534-2.674-4.62-1.145-5.153.356-.125,1.13.325,1.336.859a2.042,2.042,0,0,1,1.622,1.431" transform="translate(-70.227 -82.571)" fill="#ADADB0" fill-rule="evenodd"/>
            <path id="Path_85470" data-name="Path 85470" d="M9.172,110.428c.223,1.081,1.46,3.009,3.053,2.958,1.25-.04,2.141-1.76.954-2.481-.71.411-1.556,1.86-2.481,1.146.6-.318,1.326-.518,1.527-1.24-.866-.119-1.653.3-2.195.191a.536.536,0,0,0-.1-.382c.64-.473,2.1-.13,2.959-.382a6.384,6.384,0,0,1-1.241-.954c1.156-.319,1.609.865,2.385,1.24.334-2.889-4.44-1.807-4.866-.1m-.668-.1c.57-.97,2.386-2.606,4.39-2.195,1.207.248,2.547,1.762,1.335,2.959a2.043,2.043,0,0,1-1.335,2.767c-2.219.429-4.015-1.964-4.39-3.531" transform="translate(-8.504 -83.261)" fill="#ADADB0" fill-rule="evenodd"/>
            <path id="Path_85471" data-name="Path 85471" d="M174.607,109.563c-.016.3-.224.7,0,.954.856-.188,1.456-1.452,2.481-.859a4.445,4.445,0,0,0-1.336.859c1.166.043,2.4.016,2.958.668-.18.011-.066.315-.286.286a3.391,3.391,0,0,0-2.1-.286c.528.426.9,1.014,1.623,1.241-.2.091-.378.194-.573.286a17.718,17.718,0,0,1-2-1.622c-1.4.734-.283,2.293.86,2.385,1.667.135,2.82-1.38,3.244-2.29-.58-1.682-3.107-3.08-4.867-1.622m5.439,1.908c-.682,1.908-3.736,3.763-5.439,2a2.252,2.252,0,0,1-.477-1.049c-.054-.4.234-.774.192-1.241s-.492-.835-.382-1.431c.133-.72,1.171-1.326,2-1.432a3.739,3.739,0,0,1,4.1,3.149" transform="translate(-75.844 -83.35)" fill="#ADADB0" fill-rule="evenodd"/>
            <path id="Path_85474" data-name="Path 85474" d="M22.481,115.839c1.762-.131,3.405-4.032,1.431-4.581-1.207-.335-1.43.635-1.526,1.622.438.644,1.168.995,1.526,1.718-.168.087-.157.352-.381.382a7.741,7.741,0,0,0-1.145-1.241c-.316.621.209,1.275,0,1.622h-.477a10.119,10.119,0,0,1-.1-2.1c-.543-.037-.54.883-1.145.477.351-.889,1.246-1.235,1.336-2.386-2.747-.053-2.3,4.691.477,4.485m.763-5.153c.778-.433,1.831.579,2,1.049.778,2.118-1.077,4.666-2.767,4.772-3.593.225-4.1-6.859.286-5.535.169-.086.279-.231.477-.286" transform="translate(-13.033 -84.282)" fill="#ADADB0" fill-rule="evenodd"/>
            <path id="Path_85475" data-name="Path 85475" d="M166.44,111.952a1.169,1.169,0,0,0-1.909.192c-.85,1.673.66,4.184,2.481,4.1,2.36-.1,2.452-4.845.1-4.485-.062,1.131,1.446,1.646,1.049,2.481-.468-.1-.457-.688-.859-.859-.108.814.184,2.029-.477,2.29-.22-.289-.034-.985-.095-1.432-.6.2-.753.838-1.241,1.146.084-.307-.314-.131-.286-.382.677-.872,2.024-1.522,1.24-3.053m.1-.572c3.263-2.144,4.282,6.575-.477,5.344-1.572-.042-3.474-4.369-1.527-5.63a1.638,1.638,0,0,1,2,.286" transform="translate(-71.685 -84.404)" fill="#ADADB0" fill-rule="evenodd"/>
            <path id="Path_85481" data-name="Path 85481" d="M73.8,100.263c.428.145.685.46,1.146.573.049-.362.694-1.048.286-1.241-.492.208-.955.445-1.432.668m-12.5.573c.328-.387.583-.254.859-.668-.075-.021-.111-.08-.1-.19-.553.073-.954-.506-1.336-.287a4.512,4.512,0,0,0,.573,1.146m6.775-4.008c-.668-.254-1.263-.581-1.909-.859-1.227,1.6-1.735,3.926-3.53,4.961,3.263-.747,7.735-.271,10.783-.095-1.911-.889-2.076-3.523-3.531-4.867a5.957,5.957,0,0,1-1.813.859m24.714-.668c-6.642-.906-16.257-3.831-21.947-.382a24.11,24.11,0,0,0,2.29,3.817c4.8-2.26,12.841-.706,16.7.382a32.48,32.48,0,0,0,6.3,1.049c4.368.258,9.318.376,12.214-1.813a35.308,35.308,0,0,1-2.195-3.626c-4.35,1.428-8.917,1.178-13.359.573m-62.6-.859a34.183,34.183,0,0,0-2.481,3.626,19.187,19.187,0,0,0,10.878,2,79.274,79.274,0,0,0,8.493-1.24c4.891-.958,10.671-2.229,16.127-.1.711-1.387,1.686-2.512,2.29-4.007-10.6-4.679-24,3.979-35.307-.286m70.518-3.817c.73.739,1.849,1.83,1.049,3.244a11.307,11.307,0,0,0,3.435-.763c-1.079-1.942-.566-5.477-2.672-6.393-.551,1.357-1.233,2.585-1.813,3.912M48.226,87.572a10.252,10.252,0,0,1-1.813.477,10.347,10.347,0,0,0-.286,2c-.274,1.532-1.448,2.059-1.336,3.531a7.513,7.513,0,0,0,3.149,0c.843-.145,1.892-.261,2.195-.859-.9-.9-.057-2.065.286-3.054-.719-.713-1.5-1.366-2.195-2.1m-14.7-.1c-1.937.989-1.5,4.357-2.481,6.3a8.158,8.158,0,0,0,3.435.668,2.113,2.113,0,0,1,1.145-2.959c-.71-1.326-1.336-2.736-2.1-4.007m52.292,2.481a9.3,9.3,0,0,1,.763,2.1c-.091.386-.626.327-.477.954a11.852,11.852,0,0,0,5.248.764c.373-.975-.54-1.616-.858-2.385a27.556,27.556,0,0,1-.669-3.245c-.5-.267-1.047-.48-1.527-.763-.712.974-1.907,1.464-2.481,2.576M79.716,82.61A4.139,4.139,0,0,1,78,83.564c.331,3.051.682,6.559,4.39,5.917.353-.421,1.039-.811,1.049-1.622a1.147,1.147,0,0,0-1.431-1.241c-.712.211-.328,1.262-1.146,1.527-1.548-.686-.786-3.946-1.145-5.534M55,87.953c.158-2.128-2.692-1.693-2.195.382.149.624.757.649.954,1.146,3.776.615,4.069-3.049,4.581-6.012-.807-.116-1.2-.649-1.909-.859-.058,1.916.646,4.987-1.431,5.343M67.024,82.61c-.217-.069.088-.66-.286-.573-2.228-.221-4.865-.033-7.252-.1.176.524.793.607,1.146.955-.207.271-.272.683-.477.954-.518.073-.773-.117-1.241-.1.066.607-.161.92-.1,1.527,2.5,4.34,4.906,8.731,9.447,10.783,4.391-2.256,6.61-6.685,9.256-10.687-.074-.5-.157-.988-.191-1.527a8.99,8.99,0,0,0-1.336.1,10.731,10.731,0,0,0-.381-1.049,4.215,4.215,0,0,0,1.145-.859c-2.207-.21-4.795-.04-7.157-.1-.254.1-.189.511-.382.668-.554-.209-.77-.757-1.145-1.146a2.159,2.159,0,0,1-1.05,1.146m-13.168-.477c-.2-.044-.625-.7-.668-.286.249.991.254,3.053.859,4.008.8.061,1.052.665,1.527,1.049.349-2.1.534-5.425-1.241-6.012a2.6,2.6,0,0,1-.477,1.24m15.554-.668c.353-.06.951.124,1.145-.095-.536-.008-.926-.662-1.336-.477.167.088.211.3.191.572m-3.722,0h1.241c-.126-.3.283-.529,0-.668-.4.239-.871.4-1.241.668m1.718.382a4.177,4.177,0,0,0,.764-1.336c.241.523.362,1.165.859,1.431a2.715,2.715,0,0,0-1.049-2.29c-.253.607-.907,1.319-.573,2.194m13.359-2.767a11.084,11.084,0,0,1-4.389,4.2c2.344-.36,3.573-1.834,5.152-2.959a2.542,2.542,0,0,0-.191-1.24ZM56.719,81.846a8.425,8.425,0,0,0,3.053,1.432,19.267,19.267,0,0,1-3.34-2.863c-.535-.6-.777-1.536-1.622-1.336-.6,1.38,1.065,2.214,1.909,2.767m17.844-1.813c-.017-1.985-4.655-1.17-4.771.382.748,1.208,4.786,1.383,4.771-.382m-12.882-.1c-.452,1.778,3.92,1.738,4.676.477-.5-1.454-4.241-2.188-4.676-.477m6.68-.668c.334.366.553.847.859,1.24.63-.684-.305-1.286-.572-1.909.1.419-.323.314-.286.668m-1.718.668c.136.213.2.5.477.573a2.592,2.592,0,0,1,.764-1.24c-.153-.2-.088-.611-.382-.668a4,4,0,0,1-.859,1.336M69.7,79.27c.575-.388,1.389-1.526.955-2.29a2.44,2.44,0,0,0-.955,2.29m-3.148.1a2.26,2.26,0,0,0-1.24-2.386c.057,1.151.388,2.03,1.24,2.386m2.576-.764c.171-.613.991-1.7.286-2.29-.333.455-.751,1.651-.286,2.29m-1.909-.1c.213-.832.225-2.073-.572-2.385a2.521,2.521,0,0,0,.572,2.385m.955.1c.377-.548.485-2.263-.1-2.672a3,3,0,0,0,.1,2.672m2.576,0c0,.1.045.243.1.1a4.14,4.14,0,0,1,3.34-.1c.3.452.855.781.859,1.431,0,.583-.661.958-.478,1.241h2.481a57.536,57.536,0,0,1,.286-6.584c-6.108.063-12.468-.127-18.417.1.483,2.085-.04,5.014.192,6.489h2.672c-1.9-1.868,1.672-3.814,3.531-2.481a3.609,3.609,0,0,1-.287-2.29c.462.047.693.325,1.146.382.042-.562.088-1.121.477-1.336.49.082.532.613.954.764a1.027,1.027,0,0,1,.573-.955,4.979,4.979,0,0,1,.668,1.145c.539-1.23,1.1-1.034,1.241.382.4-.106.605-.412,1.049-.477a2.4,2.4,0,0,1-.382,2.194m-6.489-4.676c2.609-.063,5.471.127,7.921-.095-2.168-.608-5.908-.767-7.921.095M83.437,70.3c-1.757-.321-2.5.738-3.244,1.432-.361.337-.858.515-1.05.763a11.369,11.369,0,0,0-.573,1.527,5.722,5.722,0,0,0-.764,1.908c-.158,1.609.187,3.454-.095,5.344a3.6,3.6,0,0,0,2.1-2.863,5.44,5.44,0,0,0,3.15-.572c.065.222.317.256.381.477-.572.063-.735.537-1.24.668a13.806,13.806,0,0,0,.382,2c.755-.146.805-1.939,1.622-1.145-.752.624-.309,1.491-.382,2.385-.026.318-.306.611-.382.954a11.658,11.658,0,0,1-.477,2.672c2.433,1.306.5,5.423-2.29,4.294a15.75,15.75,0,0,1-2.29,2.1c1.6.245,3.805.2,5.63.477-.015-3.434,2.971-4.171,4.389-6.2.516-.738.512-1.587,1.145-2.385.856.682-.478,2.089-.763,2.863,1.629,1.169,4.981,1.424,7.634.954.435-1.379-.5-2.15-1.049-2.863,1.116-.735,1.91,1.359,1.909,2.195,0,1.095-.891,1.97-1.431,3.244-.258.608-.26,1.316-.477,1.813-.339.774-1.4,1.046-1.145,2,1.6.365,4.629.652,5.725.1-.548-1.692-.1-2.657.573-4.008.918-1.848,1.762-3.868,2.481-5.726.43.333.461,1.066,1.049,1.241-.222-2.28.864-3.689.573-5.439-.065-.387-.375-.719-.477-1.145-.1-.4.009-.865-.1-1.24-.365-1.306-1.785-1.906-2.958-2.863-.525-.429-.948-1.215-1.622-1.622-2.418-1.463-5.965-1.269-9.161-1.623.36,3.313-1.364,6.549-2.958,7.634a2.719,2.719,0,0,1-1.813.573c-.535-.094-1.608-1.124-.669-1.623.342.315.3.707.669.859.811.332,1.508-.6,1.908-1.05.231-.257.653-.4.859-.668a9.494,9.494,0,0,0,1.527-4.58c.039-3.352-3.456-2.954-4.293-.859.083-.307-.248-.2-.287-.382-.02-.529.512-.505.477-1.049-.824-.1-1.786-.059-2.195-.573m-25.1,4.867A12.867,12.867,0,0,0,57.2,72.59c-.322-.458-.806-.589-1.24-.954-.314-.266-.508-.743-.668-.859-1.677-1.212-2.8.048-4.676,0-.229.406.889,1.068,0,1.336-.557-1.75-3.614-2.228-4.1-.1.041.512-.055,1.035,0,1.527.3,2.68,2.054,5.716,4.58,5.725.321-.093-.048-.875.477-.764.6,1.15-.469,1.761-1.431,1.527-2.207-.536-4.656-4.833-4.1-8.111-4.248.237-7.7.065-9.924,2.1-.34.31-.494.673-.859.953a10.582,10.582,0,0,0-2.576,2,4.873,4.873,0,0,0-.477,1.909c-.122.662-.43,1.3-.477,1.814-.189,2.038.875,3.011.573,5.152.534-.229.46-1.067,1.049-1.24.661,1.06.657,2.373,1.336,3.626.123.227.457.393.573.668.48,1.143,1.536,2.94,1.527,3.722-.007.576-.484,1.017-.382,1.622,1.611.371,4.672.514,5.917-.286-.029-.666-.886-.958-1.241-1.622-.267-.5-.473-1.47-.859-2.29-.583-1.239-1.251-1.992-1.145-3.244.057-.676.929-2.732,1.813-1.813-.556.72-1.563,1.667-1.049,2.863,2.8.214,6.026.14,7.92-.859a7.256,7.256,0,0,1-1.336-2.767c.238.015.3-.15.477-.191.967,3.711,4.884,4.756,5.63,8.4,1.413.225,3.8-.2,5.535-.286-.789-.222-1.335-1.794-2.386-2-.261-.053-.676.192-.954.19-2.427-.007-3.592-3.163-1.336-4.389-.458-.7-.229-1.679-.382-2.577-.082-.489-.448-.866-.477-1.336-.025-.411.251-.792.191-1.145-.089-.527-.726-.706-.668-1.145.87-.537,1.09.931,1.622,1.336a6.872,6.872,0,0,0,.382-2.195c-.312-.356-.966-.371-1.146-.859.872-.532,2.152.69,3.626.477a.719.719,0,0,1-.1.764c.561.528,1.328,1.843,1.909,1.718-.231-2.2.319-4.136,0-5.821m7.443-5.726c-.1.365-.477.406-.668.764-.395.74,0,1.932-.668,2.29-.489-1.029-.952-2.516-2.29-2.385-1.218.548-.7,3.114-1.241,3.817h1.431a15.639,15.639,0,0,1,10.783-.572c.685.213,1.207.779,2.1.572-.75-.568-.036-3.38-1.432-3.817a3.1,3.1,0,0,0-.954.381c-.7.53-.663,1.679-1.527,2,.219-2.633-1.589-4-2.672-2-.323.6-.035,1.67-.764,1.718a2.564,2.564,0,0,0-2.1-2.767m8.97.573c.388.534.47,1.375.86,1.908a4.872,4.872,0,0,1,1.717-1.431c-.551-.276-.659-.994-.954-1.527a3.335,3.335,0,0,1-1.623,1.05m-15.936.477c.8.192,1.154.819,1.718,1.241.284-.544.47-1.185.764-1.718a7.717,7.717,0,0,1-1.718-1.05,4.156,4.156,0,0,1-.764,1.527m12.119-1.335a7.744,7.744,0,0,0,.955,1.335c.261-.5.9-.626,1.24-1.049-.451-.312-.619-.908-.954-1.336a1.912,1.912,0,0,1-1.241,1.05m-7.92.381a7.866,7.866,0,0,1,1.336.954c.044-.655.588-.812.764-1.335a3.593,3.593,0,0,1-1.336-1.05c-.109.623-.554.909-.763,1.431m3.913-.477c.483.28.7.831,1.24,1.049.207-.525.736-.727,1.049-1.146a6.473,6.473,0,0,1-1.145-1.908,7.467,7.467,0,0,1-1.145,2M83.055,81.751c-.457-.044-.34.486-.763.477a8.109,8.109,0,0,0-.572-1.24,8.469,8.469,0,0,1-.955.859c-.215,1.367-.685,3.873.095,5.153A1.576,1.576,0,0,1,82.2,85.95a27.958,27.958,0,0,0,.859-4.2M71.892,94.442c5.965-2.263,13.17-.069,18.608.764,5.07.775,10.777,1.257,16.031-.478.824,1.625,1.864,3.035,2.768,4.581-5.194,4.474-17.186,2.174-23.665.477a31.843,31.843,0,0,0-9.256-.382,19.193,19.193,0,0,1-1.24,2.577c-4.148-.779-10.162-1.174-14.123,0-.385-.888-.905-1.639-1.24-2.577-7.413-.745-13.365,1.838-20.326,2.195-4.84.248-9.392-.2-12.6-2.385A54.989,54.989,0,0,1,29.9,94.346c10.237,4.634,23.183-3.478,34.353,0a34.9,34.9,0,0,1-5.725-8.206,7.183,7.183,0,0,1-2,3.722c.607,1.015,1.983,1.261,2.29,2.576-.566.85-1.882.379-2.957.477-1.336.122-2.887.579-4.1.286-.129-1.079-.12-2.3-.859-2.767a2.135,2.135,0,0,0,0,2.481c-.99,1.361-3.935,1.551-6.2,1.431-1.61-.906.109-2.358.477-3.435.314-.918.224-1.77.477-2.577a23.9,23.9,0,0,1-5.248.191c.347.838.473,1.82,1.049,3.053.528,1.129,2.239,2.157,1.05,3.34-1.794.291-5.211.681-6.68-.192-.448-.962.492-1.665.1-2.576-.7.059-.672.854-1.146,1.145.157.585.856.995.477,1.813-1.634.108-7.105-.524-4.294-2.481.186-1.768.194-3.139.859-4.294.481-.835,1.655-1.29,1.431-2.385-.535-.1-.633,1-1.24,1.145-.532-.7-.235-1.472-.286-2.195-.084-1.176-.585-2.2-.668-3.148a8.285,8.285,0,0,1,.477-2.576c.182-.912.02-1.456.382-2.1.583-1.038,1.894-1.747,3.053-2.672.379-.3.633-.771.955-1.049A8.984,8.984,0,0,1,40.4,71.541c2.107-.17,3.993.375,5.725-.477.393-.193.706-.84,1.241-1.049a2.642,2.642,0,0,1,2.481.381c1.773-.286,3.785-1.394,5.535-.286a16.378,16.378,0,0,1,2.29,2c.388.518.529,1.357.859,1.813,3.505-.064,1.049-2.849-.668-3.244.832-.6.777-2.086,1.527-2.768a10.284,10.284,0,0,0,2.29,1.527c1.169-.327,1.178-1.811,2-2.481.843.461,1.13,1.478,2.1,1.813a4.218,4.218,0,0,0,1.909-2.481c.856-.266.714.317.955.764a15.656,15.656,0,0,0,1.336,1.717c1.279-.088,1.512-1.223,2.29-1.813.982.505.8,2.275,1.909,2.481.926.173,1.88-1.014,2.385-1.431.514,0,.645.374.573.954.331.623.7,1.211,1.049,1.813-1.054.535-2.137,1.043-2.576,2.195.283.735,1.068.966,2,1.05.679-1.706,2.027-2.745,3.244-3.913,1.754-.829,3.782,0,5.248.381,1.108-.811,3.518-.6,3.817.764,3.359.684,7.635,0,10.5,2.386.352.293.567.812.954,1.145,1.146.985,2.536,1.49,3.054,2.672a9.18,9.18,0,0,1,.19,1.527,11.234,11.234,0,0,1,.573,2.958c-.062.7-.569,1.524-.668,2.481-.1,1,.378,2.214-.477,2.767-.508-.193-.481-.918-1.049-1.049-.329,1.273.965,1.5,1.527,2.576s.321,2.363.668,3.722c.164.645,1,1.054.859,1.813a8.559,8.559,0,0,1-4.962,1.049c-.058-1.191.7-2.526-.668-3.053-.652,1.141,1.028,2.279-.286,2.959-.671.346-4.669.286-5.63.095-2.628-.522-.306-2.437.191-3.435.589-1.183.56-2.2,1.146-3.15a14.192,14.192,0,0,1-5.057-.286c-.764,2.563,2.411,3.954.953,6.012-1.086.25-6.135-.007-6.393-1.336-.1-.5.442-.709.477-1.145.044-.546-.375-.781-.477-1.527-.905.494-.478,2.321-1.144,3.053-2.1-.416-4.826-.2-6.68-.859-.022-1.645,1.731-1.514,2.29-2.577a6.175,6.175,0,0,1-2-3.721c-1.848,2.827-3.466,5.885-5.915,8.111" transform="translate(-15.973 -66.225)" fill="#ADADB0" fill-rule="evenodd"/>
            <path id="Path_85482" data-name="Path 85482" d="M43.5,118.947l.334-.026L44,121.2l1.094-.082.021.277-1.428.107Z" transform="translate(-22.75 -87.677)" fill="#ADADB0"/>
            <path id="Path_85483" data-name="Path 85483" d="M49.66,119.829l-.9.1.09.837,1.006-.107.027.251-1.309.14-.248-2.321,1.257-.134.027.251-.954.1.079.733.9-.1Z" transform="translate(-24.715 -87.543)" fill="#ADADB0"/>
            <path id="Path_85484" data-name="Path 85484" d="M53.705,118.108l-.771.123-.044-.278,1.877-.3.044.278-.775.124.362,2.257-.331.053Z" transform="translate(-26.573 -87.161)" fill="#ADADB0"/>
            <path id="Path_85485" data-name="Path 85485" d="M62.45,116.8l-.771.123-.044-.278,1.877-.3.044.278-.775.125.362,2.257-.331.053Z" transform="translate(-30.133 -86.63)" fill="#ADADB0"/>
            <path id="Path_85486" data-name="Path 85486" d="M67.575,115.8a3.468,3.468,0,0,1,.621-.149,1.057,1.057,0,0,1,.77.1.639.639,0,0,1,.27.453.677.677,0,0,1-.384.714v.011a.655.655,0,0,1,.448.458,4.715,4.715,0,0,0,.294.669l-.339.049A3.124,3.124,0,0,1,69,117.53c-.127-.34-.286-.451-.585-.419l-.31.045.161,1.1-.328.048Zm.5,1.105.336-.049c.35-.051.545-.276.5-.566-.048-.328-.307-.436-.653-.385a1.367,1.367,0,0,0-.32.078Z" transform="translate(-32.551 -86.337)" fill="#ADADB0"/>
            <path id="Path_85487" data-name="Path 85487" d="M72.916,114.972l.173,1.514c.065.568.346.781.687.742.375-.043.592-.321.528-.881l-.173-1.514.333-.038.17,1.491c.09.784-.286,1.149-.839,1.212-.522.06-.949-.19-1.041-.985l-.172-1.5Z" transform="translate(-34.59 -85.998)" fill="#ADADB0"/>
            <path id="Path_85488" data-name="Path 85488" d="M78.689,115.291l-.778-.067.024-.281,1.894.164-.024.281-.782-.068-.2,2.277-.334-.028Z" transform="translate(-36.759 -86.058)" fill="#ADADB0"/>
            <path id="Path_85489" data-name="Path 85489" d="M83.415,115.487l-.205,1.054,1.219.237.205-1.054.329.064-.49,2.52-.329-.064.23-1.182-1.219-.237-.23,1.182-.329-.064.49-2.52Z" transform="translate(-38.666 -86.253)" fill="#ADADB0"/>
            <path id="Path_85490" data-name="Path 85490" d="M107.327,115.537a3.464,3.464,0,0,1,.617-.165,1.058,1.058,0,0,1,.746.082.691.691,0,0,1,.32.488.745.745,0,0,1-.1.576,1.063,1.063,0,0,1-.722.417,1.161,1.161,0,0,1-.267.025l.183,1.012-.327.059Zm.545,1.156a1.1,1.1,0,0,0,.275-.022c.4-.072.6-.309.537-.65s-.326-.457-.685-.391a1.641,1.641,0,0,0-.3.082Z" transform="translate(-48.734 -86.221)" fill="#ADADB0"/>
            <path id="Path_85491" data-name="Path 85491" d="M113.355,115a3.5,3.5,0,0,1,.634-.077,1.06,1.06,0,0,1,.754.19.644.644,0,0,1,.217.481.677.677,0,0,1-.463.666v.011a.656.656,0,0,1,.393.506,4.652,4.652,0,0,0,.216.7l-.343.011a3.141,3.141,0,0,1-.187-.608c-.088-.352-.232-.481-.534-.483l-.312.01.036,1.112-.331.011Zm.368,1.155.339-.011c.354-.011.573-.212.564-.506-.011-.331-.255-.468-.605-.457a1.407,1.407,0,0,0-.327.04Z" transform="translate(-51.188 -86.047)" fill="#ADADB0"/>
            <path id="Path_85492" data-name="Path 85492" d="M120.776,116.424l-.994.021.02.926,1.112-.023.006.278-1.447.03-.053-2.567,1.39-.028.006.278-1.055.022.017.811.994-.021Z" transform="translate(-53.656 -86.105)" fill="#ADADB0"/>
            <path id="Path_85493" data-name="Path 85493" d="M125.09,118.281l-.51-2.653.359.046.237,1.3c.062.358.116.683.151.987h.007c.11-.286.253-.594.412-.912l.592-1.2.351.044-1.236,2.431Z" transform="translate(-55.757 -86.337)" fill="#ADADB0"/>
            <path id="Path_85494" data-name="Path 85494" d="M129.607,118.5l-.4.748-.338-.06,1.307-2.375.394.069.414,2.682-.349-.062-.129-.843Zm.875-.108-.122-.773c-.023-.174-.034-.331-.046-.484l-.011,0c-.06.14-.129.291-.205.435l-.377.688Z" transform="translate(-57.502 -86.819)" fill="#ADADB0"/>
            <rect id="Rectangle_1079" data-name="Rectangle 1079" width="2.567" height="0.335" transform="translate(74.883 33.235) rotate(-82.557)" fill="#ADADB0"/>
            <path id="Path_85495" data-name="Path 85495" d="M138.645,118.649l.333.039-.267,2.274,1.089.128-.032.276-1.422-.167Z" transform="translate(-61.361 -87.566)" fill="#ADADB0"/>
          </g>
        </g>
      </g>
      <g id="Group_162545" data-name="Group 162545" transform="translate(0 41.684)">
        <g id="Group_162544" data-name="Group 162544" transform="translate(0 0)" clip-path="url(#clip-path)" fill="#ADADB0">
          <path id="Path_85496" data-name="Path 85496" d="M5.721,9.836c0,1.033,1.51.516,1.51.914,0,.2-.159.2-.4.2-.715,0-1.112-.04-2.026-.04s-1.311.04-2.026.04c-.238,0-.4-.04-.4-.2,0-.4,1.51.119,1.51-.914V1.017A4.276,4.276,0,0,0,.437,3.6c-.159.358-.238.556-.318.556C0,4.155,0,4.076,0,4.036A3.8,3.8,0,0,1,.159,3.2L.636.7c0-.08.04-.278.159-.278.08,0,.119.08.2.119.079.079.238.119.556.119H8.1A1.278,1.278,0,0,0,8.661.54c.08-.08.119-.119.2-.119.119,0,.159.2.159.278l.477,2.5a3.8,3.8,0,0,1,.159.834.105.105,0,0,1-.119.119c-.08,0-.159-.2-.318-.556A4.276,4.276,0,0,0,5.76,1.017V9.836Z" transform="translate(0 -0.302)"/>
          <path id="Path_85497" data-name="Path 85497" d="M36.694,6.067V10.2c0,1.033,1.271.517,1.271.914,0,.2-.08.2-.318.2-.516,0-.914-.04-1.828-.04s-1.311.04-1.827.04c-.238,0-.318-.04-.318-.2,0-.4,1.271.119,1.271-.914v-8.1c0-1.033-1.271-.516-1.271-.914,0-.2.08-.2.318-.2.516,0,.914.04,1.827.04s1.311-.04,1.828-.04c.238,0,.318.04.318.2,0,.4-1.271-.119-1.271.914V5.67h4.37V2.094c0-1.033-1.271-.516-1.271-.914,0-.2.08-.2.318-.2.516,0,.914.04,1.827.04s1.311-.04,1.828-.04c.238,0,.318.04.318.2,0,.4-1.271-.119-1.271.914v8.1c0,1.033,1.271.517,1.271.914,0,.2-.079.2-.318.2-.516,0-.914-.04-1.828-.04s-1.311.04-1.827.04c-.238,0-.318-.04-.318-.2,0-.4,1.271.119,1.271-.914V6.067Z" transform="translate(-24.14 -0.704)"/>
          <path id="Path_85498" data-name="Path 85498" d="M72.971,2.234c0-1.033-1.271-.516-1.271-.914,0-.2.08-.2.318-.2.516,0,.914.04,1.827.04,3.337,0,4.449-.04,5.562-.04l.715,2.821a3.356,3.356,0,0,1,.08.4c0,.119-.04.159-.119.159-.2,0-.119-.4-.874-1.43C78.295,1.758,76.984,1.48,75.2,1.48h-.437V5.929h.318c1.311,0,2.3-.516,2.3-2.026,0-.238.079-.278.2-.278s.2.079.2.278V8.432c0,.238-.08.278-.2.278s-.2-.04-.2-.278c0-1.589-.993-2.106-2.3-2.106h-.318v3.933c0,.556.358.834,1.271.834A4.386,4.386,0,0,0,80.48,7.756c.08-.238.119-.318.238-.318s.119.079.119.159a2.145,2.145,0,0,1-.04.437l-.636,3.416c-1.271,0-2.542-.04-6.316-.04-.914,0-1.311.04-1.827.04-.238,0-.318-.04-.318-.2,0-.4,1.271.119,1.271-.914Z" transform="translate(-51.399 -0.804)"/>
          <path id="Path_85499" data-name="Path 85499" d="M121.9,9.836c0,1.033,1.51.516,1.51.914,0,.2-.159.2-.4.2-.715,0-1.112-.04-2.026-.04s-1.311.04-2.026.04c-.238,0-.4-.04-.4-.2,0-.4,1.51.119,1.51-.914V1.017A4.276,4.276,0,0,0,116.616,3.6c-.159.358-.238.556-.318.556-.119,0-.119-.079-.119-.119a3.8,3.8,0,0,1,.159-.834l.477-2.5c0-.08.04-.278.159-.278.08,0,.119.08.2.119.079.079.238.119.556.119h6.555A1.278,1.278,0,0,0,124.84.54c.08-.08.119-.119.2-.119.119,0,.159.2.159.278l.477,2.5a3.8,3.8,0,0,1,.159.834.105.105,0,0,1-.119.119c-.08,0-.159-.2-.318-.556a4.276,4.276,0,0,0-3.456-2.582Z" transform="translate(-83.285 -0.302)"/>
          <path id="Path_85500" data-name="Path 85500" d="M151.405,2.234c0-1.033-1.271-.516-1.271-.914,0-.2.08-.2.318-.2.517,0,.914.04,1.828.04s1.311-.04,1.827-.04c.238,0,.318.04.318.2,0,.4-1.271-.119-1.271.914v8.1c0,1.033,1.271.516,1.271.914,0,.2-.08.2-.318.2-.516,0-.914-.04-1.827-.04s-1.311.04-1.828.04c-.238,0-.318-.04-.318-.2,0-.4,1.271.119,1.271-.914Z" transform="translate(-107.626 -0.804)"/>
          <path id="Path_85501" data-name="Path 85501" d="M172.084,8.769l3.258-7.747h.715c.914,0,1.311-.04,1.828-.04.238,0,.318.04.318.2,0,.4-1.271-.119-1.271.914v8.1c0,1.033,1.271.516,1.271.914,0,.2-.08.2-.318.2-.517,0-.914-.04-1.828-.04s-1.311.04-1.827.04c-.238,0-.318-.04-.318-.2,0-.4,1.271.119,1.271-.914V2.334h-.04l-3.536,8.661c-.079.119-.119.318-.238.318-.079,0-.119-.159-.2-.318l-3.456-8.541h-.04V8.809c0,1.271.437,1.907,1.033,2.106.4.119.556.079.556.278,0,.119-.08.159-.318.159-.437,0-.834-.04-1.43-.04-.953,0-1.351.04-1.589.04-.2,0-.357,0-.357-.159,0-.238.159-.159.556-.278,1.073-.318,1.192-1.47,1.192-3.3V2.493c0-1.351-1.55-.874-1.55-1.232,0-.2.08-.2.318-.2.516,0,.914.04,1.827.04h.954Z" transform="translate(-118.691 -0.705)"/>
          <path id="Path_85502" data-name="Path 85502" d="M212.441,2.234c0-1.033-1.271-.516-1.271-.914,0-.2.08-.2.318-.2.517,0,.914.04,1.828.04,3.337,0,4.449-.04,5.562-.04l.715,2.821a3.294,3.294,0,0,1,.08.4c0,.119-.04.159-.119.159-.2,0-.119-.4-.874-1.43-.914-1.311-2.225-1.589-4.013-1.589h-.437V5.929h.318c1.311,0,2.3-.516,2.3-2.026,0-.238.079-.278.2-.278s.2.079.2.278V8.432c0,.238-.08.278-.2.278s-.2-.04-.2-.278c0-1.589-.993-2.106-2.3-2.106h-.318v3.933c0,.556.358.834,1.271.834a4.386,4.386,0,0,0,4.449-3.337c.08-.238.119-.318.238-.318s.119.079.119.159a2.131,2.131,0,0,1-.04.437l-.636,3.416c-1.271,0-2.543-.04-6.316-.04-.914,0-1.311.04-1.828.04-.238,0-.318-.04-.318-.2,0-.4,1.271.119,1.271-.914Z" transform="translate(-151.38 -0.804)"/>
          <path id="Path_85503" data-name="Path 85503" d="M245.547,6.537a.182.182,0,0,1,.159-.2c.159,0,.159.119.238.437.278,1.867,1.152,3.774,3.258,3.774,1.629,0,2.344-.914,2.344-1.947,0-3.059-6-1.827-6-5.562a3.211,3.211,0,0,1,3.417-2.9c1.43,0,1.986.6,2.622.6.477,0,.278-.477.556-.477.119,0,.159.079.159.238.2,2.105.278,3.178.278,3.377,0,.159-.079.2-.159.2-.119,0-.159-.2-.2-.358-.556-1.708-1.43-3.178-3.258-3.178-1.232,0-1.947.675-1.947,1.629,0,2.781,6,1.867,6,5.522,0,1.589-1.232,3.218-3.854,3.218a16.025,16.025,0,0,1-2.7-.556c-.675,0-.437.516-.715.516-.08,0-.159-.04-.159-.2Z" transform="translate(-176.024 -0.101)"/>
          <path id="Path_85504" data-name="Path 85504" d="M298.385,5.783a5.443,5.443,0,0,1-10.885,0,5.443,5.443,0,0,1,10.885,0M292.943.777c-1.986,0-3.456,1.589-3.456,5.006s1.47,5.006,3.456,5.006S296.4,9.2,296.4,5.783,294.929.777,292.943.777" transform="translate(-206.099 -0.3)"/>
          <path id="Path_85505" data-name="Path 85505" d="M328.62,2.234c0-1.033-1.271-.516-1.271-.914,0-.2.08-.2.318-.2.517,0,.914.04,1.828.04,3.337,0,4.449-.04,5.443-.04l.715,2.821a3.3,3.3,0,0,1,.08.4c0,.119-.04.159-.119.159-.2,0-.119-.4-.874-1.43-.914-1.311-2.225-1.589-4.012-1.589h-.318V5.929h.318c1.311,0,2.3-.516,2.3-2.026,0-.238.079-.278.2-.278s.2.079.2.278V8.432c0,.238-.08.278-.2.278s-.2-.04-.2-.278c0-1.589-.993-2.106-2.3-2.106h-.318v4.013c0,1.033,1.271.516,1.271.914,0,.2-.08.2-.318.2-.516,0-.914-.04-1.828-.04s-1.311.04-1.827.04c-.238,0-.318-.04-.318-.2,0-.4,1.271.119,1.271-.914Z" transform="translate(-234.665 -0.804)"/>
          <path id="Path_85506" data-name="Path 85506" d="M371.7,2.234c0-1.033-1.271-.516-1.271-.914,0-.2.08-.2.318-.2.516,0,.914.04,1.828.04s1.311-.04,1.827-.04c.238,0,.318.04.318.2,0,.4-1.271-.119-1.271.914v8.1c0,1.033,1.271.516,1.271.914,0,.2-.08.2-.318.2-.516,0-.914-.04-1.827-.04s-1.311.04-1.828.04c-.238,0-.318-.04-.318-.2,0-.4,1.271.119,1.271-.914Z" transform="translate(-265.545 -0.804)"/>
          <path id="Path_85507" data-name="Path 85507" d="M394.84,3.525c0-1.271-.556-1.907-1.152-2.106-.4-.119-.556-.079-.556-.278,0-.119.08-.159.318-.159.556,0,.953.04,1.589.04s1.033-.04,1.589-.04c.238,0,.318.04.318.159,0,.2-.2.159-.556.278-.556.2-1.152.795-1.152,2.106v7.786a.188.188,0,0,1-.2.2.362.362,0,0,1-.318-.159l-6.436-8.542h-.04V8.768c0,1.271.556,1.907,1.152,2.106.4.119.556.079.556.278,0,.119-.079.159-.318.159-.556,0-.954-.04-1.589-.04s-1.033.04-1.589.04c-.238,0-.318-.04-.318-.159,0-.2.2-.159.556-.278.556-.2,1.152-.794,1.152-2.106V2.293c-.874-1.271-1.708-.834-1.708-1.112,0-.159.119-.2.318-.2.358,0,.675.04,1.152.04H389l5.721,7.668h.04Z" transform="translate(-276.81 -0.704)"/>
          <path id="Path_85508" data-name="Path 85508" d="M424.033,2.234c0-1.033-1.271-.516-1.271-.914,0-.2.079-.2.318-.2.516,0,.914.04,1.828.04.636,0,1.311-.04,2.145-.04,3.575,0,5.8,2.106,5.8,5.2a4.824,4.824,0,0,1-5.165,5.125c-1.033,0-1.907-.04-2.781-.04-.914,0-1.311.04-1.828.04-.238,0-.318-.04-.318-.2,0-.4,1.271.119,1.271-.914ZM425.861,9.7c0,.953.556,1.351,1.669,1.351,1.708,0,3.377-.795,3.377-4.648,0-2.9-1.152-4.966-3.457-4.966H425.9V9.7Z" transform="translate(-303.063 -0.804)"/>
          <path id="Path_85509" data-name="Path 85509" d="M462.337,2.234c0-1.033-1.271-.516-1.271-.914,0-.2.08-.2.318-.2.516,0,.914.04,1.827.04s1.311-.04,1.827-.04c.238,0,.318.04.318.2,0,.4-1.271-.119-1.271.914v8.1c0,1.033,1.271.516,1.271.914,0,.2-.08.2-.318.2-.516,0-.914-.04-1.827-.04s-1.311.04-1.827.04c-.238,0-.318-.04-.318-.2,0-.4,1.271.119,1.271-.914Z" transform="translate(-330.522 -0.804)"/>
          <path id="Path_85510" data-name="Path 85510" d="M477.7,6.912a7.668,7.668,0,0,0-.6,2.026c0,1.51,1.271,1.152,1.271,1.51,0,.159-.079.159-.238.159-.318,0-.675-.04-1.708-.04-.516,0-.993.04-1.549.04-.159,0-.2-.079-.2-.2,0-.278.6-.119,1.033-.477a6.329,6.329,0,0,0,1.311-2.185c1.827-4.529,2.066-5.085,2.066-5.244,0-.119-.358-.4-.358-.556,0-.238.238-.2.675-1.073.318-.676.238-.874.437-.874s.2.516,1.073,2.5l3.218,7.151c.4.874,1.112.437,1.112.794,0,.159-.119.2-.238.2-.6,0-1.192-.04-1.827-.04-.6,0-1.192.04-1.827.04-.159,0-.238-.04-.238-.2,0-.4,1.073.08,1.073-.755a5.664,5.664,0,0,0-.238-.834l-.874-1.986Zm1.549-4.092-1.43,3.734h3.059Z" transform="translate(-340.279 0)"/>
        </g>
      </g>
    </g>
    <path id="Path_85511" data-name="Path 85511" d="M161.547,110.025c.142-.844.794-1.178,1.24-1.718-.248-.228-.595-.541-.954-.382a3.977,3.977,0,0,1-.286.859c-.127-.1-.355-.09-.382-.286-.043-.489.228-.663.286-1.05a.638.638,0,0,0-.763-.382,5.682,5.682,0,0,0,.859,2.959m2.1-1.336c-1.233.326-1.826,1.291-1.813,2.863-.688-.534-2.674-4.62-1.145-5.153.356-.125,1.13.325,1.336.859a2.042,2.042,0,0,1,1.622,1.431" transform="translate(4137.284 6360.655)" fill="#ADADB0" fill-rule="evenodd"/>
    <path id="Path_85512" data-name="Path 85512" d="M162.223,110.025c-.142-.844-.794-1.178-1.24-1.718.248-.228.595-.541.954-.382a3.978,3.978,0,0,0,.286.859c.127-.1.355-.09.382-.286.043-.489-.228-.663-.286-1.05a.638.638,0,0,1,.763-.382,5.682,5.682,0,0,1-.859,2.959m-2.1-1.336c1.233.325,1.826,1.291,1.813,2.863.688-.534,2.674-4.62,1.145-5.153-.356-.125-1.129.325-1.336.859a2.042,2.042,0,0,0-1.622,1.431" transform="translate(4058.427 6360.526)" fill="#ADADB0" fill-rule="evenodd"/>
  </g>
</svg>