<svg xmlns="http://www.w3.org/2000/svg" width="125" height="32" viewBox="-38 -10 540 139" fill="none" aria-hidden="true">
	<path fill="#ADADB0" d="M395 1h17v1h-17zM235 2h43v1h-43zm154 0h29v1h-29zM1 3h31v1H1zm68 0h32v1H69zm48 0h37v1h-37zm74 0h27v1h-27zm44 0h56v1h-56zm150 0h37v1h-37zM1 4h31v1H1zm68 0h32v1H69zm48 0h38v1h-38zm74 0h27v1h-27zm44 0h61v1h-61zm146 0h44v1h-44zM1 5h31v1H1zm68 0h32v1H69zm48 0h38v1h-38zm74 0h27v1h-27zm44 0h65v1h-65zm144 0h49v1h-49zM1 6h31v1H1zm68 0h32v1H69zm48 0h39v1h-39zm74 0h27v1h-27zm44 0h69v1h-69zm141 0h55v1h-55zM1 7h31v1H1zm68 0h32v1H69zm48 0h39v1h-39zm74 0h27v1h-27zm44 0h71v1h-71zm139 0h59v1h-59zM1 8h31v1H1zm68 0h32v1H69zm48 0h40v1h-40zm74 0h27v1h-27zm44 0h74v1h-74zm137 0h63v1h-63zM1 9h31v1H1zm68 0h32v1H69zm48 0h40v1h-40zm74 0h27v1h-27zm44 0h76v1h-76zm135 0h67v1h-67zM1 10h31v1H1zm68 0h32v1H69zm48 0h41v1h-41zm74 0h27v1h-27zm44 0h78v1h-78zm134 0h69v1h-69zM1 11h31v1H1zm68 0h32v1H69zm48 0h42v1h-42zm74 0h27v1h-27zm44 0h79v1h-79zm132 0h73v1h-73zM1 12h31v1H1zm68 0h32v1H69zm48 0h42v1h-42zm74 0h27v1h-27zm44 0h81v1h-81zm131 0h75v1h-75zM1 13h31v1H1zm68 0h32v1H69zm48 0h43v1h-43zm74 0h27v1h-27zm44 0h82v1h-82zm130 0h78v1h-78zM1 14h31v1H1zm68 0h32v1H69zm48 0h43v1h-43zm74 0h27v1h-27zm44 0h84v1h-84zm128 0h81v1h-81zM1 15h31v1H1zm68 0h32v1H69zm48 0h44v1h-44zm74 0h27v1h-27zm44 0h85v1h-85zm127 0h83v1h-83zM1 16h31v1H1zm68 0h32v1H69zm48 0h44v1h-44zm74 0h27v1h-27zm44 0h86v1h-86zm126 0h85v1h-85zM1 17h31v1H1zm68 0h32v1H69zm48 0h45v1h-45zm74 0h27v1h-27zm44 0h87v1h-87zm125 0h87v1h-87zM1 18h31v1H1zm68 0h32v1H69zm48 0h46v1h-46zm74 0h27v1h-27zm44 0h88v1h-88zm124 0h89v1h-89zM1 19h31v1H1zm68 0h32v1H69zm48 0h46v1h-46zm74 0h27v1h-27zm44 0h89v1h-89zm123 0h91v1h-91zM1 20h31v1H1zm68 0h32v1H69zm48 0h47v1h-47zm74 0h27v1h-27zm44 0h90v1h-90zm122 0h93v1h-93zM1 21h31v1H1zm68 0h32v1H69zm48 0h47v1h-47zm74 0h27v1h-27zm44 0h91v1h-91zm121 0h95v1h-95zM1 22h31v1H1zm68 0h32v1H69zm48 0h48v1h-48zm74 0h27v1h-27zm44 0h92v1h-92zm120 0h97v1h-97zM1 23h31v1H1zm68 0h32v1H69zm48 0h48v1h-48zm74 0h27v1h-27zm44 0h92v1h-92zm120 0h97v1h-97zM1 24h31v1H1zm68 0h32v1H69zm48 0h49v1h-49zm74 0h27v1h-27zm44 0h93v1h-93zm119 0h99v1h-99zM1 25h31v1H1zm68 0h32v1H69zm48 0h50v1h-50zm74 0h27v1h-27zm44 0h94v1h-94zm118 0h101v1H353zM1 26h31v1H1zm68 0h32v1H69zm48 0h50v1h-50zm74 0h27v1h-27zm44 0h94v1h-94zm118 0h44v1h-44zm56 0h45v1h-45zM1 27h31v1H1zm68 0h32v1H69zm48 0h51v1h-51zm74 0h27v1h-27zm44 0h32v1h-32zm46 0h49v1h-49zm71 0h41v1h-41zm61 0h42v1h-42zM1 28h31v1H1zm68 0h32v1H69zm48 0h51v1h-51zm74 0h27v1h-27zm44 0h32v1h-32zm52 0h43v1h-43zm64 0h40v1h-40zm64 0h41v1h-41zM1 29h31v1H1zm68 0h32v1H69zm48 0h52v1h-52zm74 0h27v1h-27zm44 0h32v1h-32zm54 0h42v1h-42zm62 0h38v1h-38zm66 0h39v1h-39zM1 30h31v1H1zm68 0h32v1H69zm48 0h52v1h-52zm74 0h27v1h-27zm44 0h32v1h-32zm57 0h39v1h-39zm58 0h38v1h-38zm68 0h39v1h-39zM1 31h31v1H1zm68 0h32v1H69zm48 0h53v1h-53zm74 0h27v1h-27zm44 0h32v1h-32zm58 0h39v1h-39zm57 0h37v1h-37zm70 0h37v1h-37zM1 32h31v1H1zm68 0h32v1H69zm48 0h54v1h-54zm74 0h27v1h-27zm44 0h32v1h-32zm60 0h37v1h-37zm54 0h36v1h-36zm72 0h37v1h-37zM1 33h31v1H1zm68 0h32v1H69zm48 0h54v1h-54zm74 0h27v1h-27zm44 0h32v1h-32zm61 0h37v1h-37zm53 0h35v1h-35zm73 0h36v1h-36zM1 34h31v1H1zm68 0h32v1H69zm48 0h55v1h-55zm74 0h27v1h-27zm44 0h32v1h-32zm62 0h36v1h-36zm51 0h36v1h-36zm74 0h37v1h-37zM1 35h31v1H1zm68 0h32v1H69zm48 0h55v1h-55zm74 0h27v1h-27zm44 0h32v1h-32zm63 0h36v1h-36zm50 0h35v1h-35zm75 0h36v1h-36zM1 36h31v1H1zm68 0h32v1H69zm48 0h56v1h-56zm74 0h27v1h-27zm44 0h32v1h-32zm63 0h36v1h-36zm49 0h35v1h-35zm77 0h35v1h-35zM1 37h31v1H1zm68 0h32v1H69zm48 0h56v1h-56zm74 0h27v1h-27zm44 0h32v1h-32zm64 0h35v1h-35zm48 0h35v1h-35zm78 0h35v1h-35zM1 38h31v1H1zm68 0h32v1H69zm48 0h57v1h-57zm74 0h27v1h-27zm44 0h32v1h-32zm65 0h34v1h-34zm47 0h34v1h-34zm78 0h35v1h-35zM1 39h31v1H1zm68 0h32v1H69zm48 0h58v1h-58zm74 0h27v1h-27zm44 0h32v1h-32zm65 0h35v1h-35zm46 0h34v1h-34zm80 0h34v1h-34zM1 40h31v1H1zm68 0h32v1H69zm48 0h58v1h-58zm74 0h27v1h-27zm44 0h32v1h-32zm66 0h34v1h-34zm45 0h34v1h-34zm80 0h35v1h-35zM1 41h31v1H1zm68 0h32v1H69zm48 0h59v1h-59zm74 0h27v1h-27zm44 0h32v1h-32zm66 0h34v1h-34zm45 0h34v1h-34zm81 0h34v1h-34zM1 42h31v1H1zm68 0h32v1H69zm48 0h59v1h-59zm74 0h27v1h-27zm44 0h32v1h-32zm66 0h34v1h-34zm44 0h34v1h-34zm82 0h34v1h-34zM1 43h31v1H1zm68 0h32v1H69zm48 0h60v1h-60zm74 0h27v1h-27zm44 0h32v1h-32zm67 0h34v1h-34zm43 0h34v1h-34zm82 0h34v1h-34zM1 44h31v1H1zm68 0h32v1H69zm48 0h60v1h-60zm74 0h27v1h-27zm44 0h32v1h-32zm67 0h34v1h-34zm43 0h34v1h-34zm83 0h34v1h-34zM1 45h31v1H1zm68 0h32v1H69zm48 0h28v1h-28zm29 0h32v1h-32zm45 0h27v1h-27zm44 0h32v1h-32zm67 0h34v1h-34zm43 0h33v1h-33zm83 0h34v1h-34zM1 46h31v1H1zm68 0h32v1H69zm48 0h28v1h-28zm30 0h32v1h-32zm44 0h27v1h-27zm44 0h32v1h-32zm67 0h34v1h-34zm42 0h34v1h-34zm84 0h34v1h-34zM1 47h31v1H1zm68 0h32v1H69zm48 0h28v1h-28zm31 0h31v1h-31zm43 0h27v1h-27zm44 0h32v1h-32zm68 0h33v1h-33zm41 0h34v1h-34zm84 0h34v1h-34zM1 48h31v1H1zm68 0h32v1H69zm48 0h28v1h-28zm31 0h32v1h-32zm43 0h27v1h-27zm44 0h32v1h-32zm68 0h33v1h-33zm41 0h34v1h-34zm85 0h33v1h-33zM1 49h31v1H1zm68 0h32v1H69zm48 0h28v1h-28zm32 0h31v1h-31zm42 0h27v1h-27zm44 0h32v1h-32zm68 0h34v1h-34zm41 0h33v1h-33zm85 0h33v1h-33zM1 50h31v1H1zm68 0h32v1H69zm48 0h28v1h-28zm32 0h32v1h-32zm42 0h27v1h-27zm44 0h32v1h-32zm68 0h34v1h-34zm41 0h33v1h-33zm85 0h34v1h-34zM1 51h31v1H1zm68 0h32v1H69zm48 0h28v1h-28zm33 0h31v1h-31zm41 0h27v1h-27zm44 0h32v1h-32zm68 0h34v1h-34zm41 0h33v1h-33zm85 0h34v1h-34zM1 52h31v1H1zm68 0h32v1H69zm48 0h28v1h-28zm34 0h31v1h-31zm40 0h27v1h-27zm44 0h32v1h-32zm68 0h34v1h-34zm41 0h33v1h-33zm85 0h34v1h-34zM1 53h31v1H1zm68 0h32v1H69zm48 0h28v1h-28zm34 0h32v1h-32zm40 0h27v1h-27zm44 0h32v1h-32zm68 0h34v1h-34zm40 0h34v1h-34zm86 0h34v1h-34zM1 54h31v1H1zm68 0h32v1H69zm48 0h28v1h-28zm35 0h31v1h-31zm39 0h27v1h-27zm44 0h32v1h-32zm68 0h34v1h-34zm40 0h34v1h-34zm86 0h34v1h-34zM1 55h31v1H1zm68 0h32v1H69zm48 0h28v1h-28zm35 0h32v1h-32zm39 0h27v1h-27zm44 0h32v1h-32zm68 0h34v1h-34zm40 0h34v1h-34zm86 0h34v1h-34zM1 56h31v1H1zm68 0h32v1H69zm48 0h28v1h-28zm36 0h31v1h-31zm38 0h27v1h-27zm44 0h32v1h-32zm69 0h33v1h-33zm39 0h34v1h-34zm86 0h34v1h-34zM1 57h31v1H1zm68 0h32v1H69zm48 0h28v1h-28zm36 0h32v1h-32zm38 0h27v1h-27zm44 0h32v1h-32zm69 0h33v1h-33zm39 0h34v1h-34zm87 0h33v1h-33zM1 58h31v1H1zm68 0h32v1H69zm48 0h28v1h-28zm37 0h31v1h-31zm37 0h27v1h-27zm44 0h32v1h-32zm69 0h33v1h-33zm39 0h34v1h-34zm87 0h33v1h-33zM1 59h31v1H1zm68 0h32v1H69zm48 0h28v1h-28zm38 0h31v1h-31zm36 0h27v1h-27zm44 0h32v1h-32zm69 0h33v1h-33zm39 0h34v1h-34zm87 0h33v1h-33zM1 60h31v1H1zm68 0h32v1H69zm48 0h28v1h-28zm38 0h32v1h-32zm36 0h27v1h-27zm44 0h32v1h-32zm69 0h33v1h-33zm39 0h34v1h-34zm87 0h33v1h-33zM1 61h31v1H1zm68 0h32v1H69zm48 0h28v1h-28zm39 0h31v1h-31zm35 0h27v1h-27zm44 0h32v1h-32zm68 0h34v1h-34zm40 0h34v1h-34zm86 0h34v1h-34zM1 62h31v1H1zm68 0h32v1H69zm48 0h28v1h-28zm39 0h32v1h-32zm35 0h27v1h-27zm44 0h32v1h-32zm68 0h34v1h-34zm40 0h34v1h-34zm86 0h34v1h-34zM1 63h31v1H1zm68 0h32v1H69zm48 0h28v1h-28zm40 0h31v1h-31zm34 0h27v1h-27zm44 0h32v1h-32zm68 0h34v1h-34zm40 0h34v1h-34zm86 0h34v1h-34zM1 64h31v1H1zm68 0h32v1H69zm48 0h28v1h-28zm41 0h31v1h-31zm33 0h27v1h-27zm44 0h32v1h-32zm68 0h34v1h-34zm40 0h34v1h-34zm86 0h34v1h-34zM1 65h31v1H1zm68 0h32v1H69zm48 0h28v1h-28zm41 0h31v1h-31zm33 0h27v1h-27zm44 0h32v1h-32zm68 0h34v1h-34zm40 0h34v1h-34zm86 0h34v1h-34zM1 66h31v1H1zm68 0h32v1H69zm48 0h28v1h-28zm42 0h59v1h-59zm76 0h32v1h-32zm68 0h34v1h-34zm41 0h33v1h-33zm85 0h34v1h-34zM1 67h31v1H1zm68 0h32v1H69zm48 0h28v1h-28zm42 0h59v1h-59zm76 0h32v1h-32zm68 0h34v1h-34zm41 0h33v1h-33zm85 0h33v1h-33zM1 68h31v1H1zm68 0h32v1H69zm48 0h28v1h-28zm43 0h58v1h-58zm75 0h32v1h-32zm68 0h33v1h-33zm41 0h33v1h-33zm85 0h33v1h-33zM1 69h31v1H1zm68 0h32v1H69zm48 0h28v1h-28zm43 0h58v1h-58zm75 0h32v1h-32zm68 0h33v1h-33zm41 0h34v1h-34zm85 0h33v1h-33zM1 70h31v1H1zm68 0h32v1H69zm48 0h28v1h-28zm44 0h57v1h-57zm74 0h32v1h-32zm68 0h33v1h-33zm41 0h34v1h-34zm84 0h34v1h-34zM1 71h32v1H1zm68 0h32v1H69zm48 0h28v1h-28zm45 0h56v1h-56zm73 0h32v1h-32zm67 0h34v1h-34zm42 0h34v1h-34zm84 0h34v1h-34zM1 72h32v1H1zm68 0h32v1H69zm48 0h28v1h-28zm45 0h56v1h-56zm73 0h32v1h-32zm67 0h34v1h-34zm42 0h34v1h-34zm84 0h34v1h-34zM1 73h32v1H1zm68 0h32v1H69zm48 0h28v1h-28zm46 0h55v1h-55zm72 0h32v1h-32zm67 0h34v1h-34zm43 0h33v1h-33zm83 0h34v1h-34zM1 74h32v1H1zm68 0h32v1H69zm48 0h28v1h-28zm46 0h55v1h-55zm72 0h32v1h-32zm67 0h33v1h-33zm43 0h34v1h-34zm82 0h34v1h-34zM1 75h32v1H1zm67 0h33v1H68zm49 0h28v1h-28zm47 0h54v1h-54zm71 0h32v1h-32zm66 0h34v1h-34zm44 0h34v1h-34zm82 0h34v1h-34zM1 76h32v1H1zm67 0h33v1H68zm49 0h28v1h-28zm48 0h53v1h-53zm70 0h32v1h-32zm66 0h34v1h-34zm44 0h34v1h-34zm82 0h34v1h-34zM1 77h32v1H1zm67 0h33v1H68zm49 0h28v1h-28zm48 0h53v1h-53zm70 0h32v1h-32zm65 0h35v1h-35zm46 0h34v1h-34zm80 0h35v1h-35zM1 78h32v1H1zm67 0h32v1H68zm49 0h28v1h-28zm49 0h52v1h-52zm69 0h32v1h-32zm65 0h34v1h-34zm46 0h34v1h-34zm80 0h34v1h-34zM1 79h32v1H1zm67 0h32v1H68zm49 0h28v1h-28zm49 0h52v1h-52zm69 0h32v1h-32zm64 0h35v1h-35zm47 0h35v1h-35zm79 0h35v1h-35zM1 80h33v1H1zm67 0h32v1H68zm49 0h28v1h-28zm50 0h51v1h-51zm68 0h32v1h-32zm64 0h35v1h-35zm47 0h35v1h-35zm79 0h35v1h-35zM1 81h33v1H1zm66 0h33v1H67zm50 0h28v1h-28zm50 0h51v1h-51zm68 0h32v1h-32zm63 0h35v1h-35zm49 0h35v1h-35zm77 0h35v1h-35zM2 82h32v1H2zm65 0h33v1H67zm50 0h28v1h-28zm51 0h50v1h-50zm67 0h32v1h-32zm63 0h35v1h-35zm49 0h36v1h-36zm77 0h35v1h-35zM2 83h32v1H2zm65 0h33v1H67zm50 0h28v1h-28zm52 0h49v1h-49zm66 0h32v1h-32zm62 0h36v1h-36zm50 0h36v1h-36zm76 0h35v1h-35zM2 84h33v1H2zm64 0h33v1H66zm51 0h28v1h-28zm52 0h49v1h-49zm66 0h32v1h-32zm61 0h36v1h-36zm52 0h36v1h-36zm74 0h36v1h-36zM2 85h33v1H2zm64 0h33v1H66zm51 0h28v1h-28zm53 0h48v1h-48zm65 0h32v1h-32zm60 0h37v1h-37zm53 0h37v1h-37zm73 0h37v1h-37zM3 86h33v1H3zm62 0h34v1H65zm52 0h28v1h-28zm53 0h48v1h-48zm65 0h32v1h-32zm58 0h38v1h-38zm56 0h37v1h-37zm71 0h37v1h-37zM3 87h34v1H3zm62 0h34v1H65zm52 0h28v1h-28zm54 0h47v1h-47zm64 0h32v1h-32zm57 0h39v1h-39zm57 0h38v1h-38zm70 0h38v1h-38zM3 88h35v1H3zm61 0h34v1H64zm53 0h28v1h-28zm55 0h46v1h-46zm63 0h32v1h-32zm55 0h41v1h-41zm60 0h39v1h-39zm68 0h38v1h-38zM3 89h36v1H3zm60 0h35v1H63zm54 0h28v1h-28zm55 0h46v1h-46zm63 0h32v1h-32zm52 0h43v1h-43zm63 0h40v1h-40zm66 0h40v1h-40zM4 90h36v1H4zm57 0h37v1H61zm56 0h28v1h-28zm56 0h45v1h-45zm62 0h32v1h-32zm48 0h46v1h-46zm68 0h41v1h-41zm63 0h41v1h-41zM4 91h38v1H4zm55 0h38v1H59zm58 0h28v1h-28zm56 0h45v1h-45zm62 0h94v1h-94zm116 0h44v1h-44zm61 0h42v1h-42zM5 92h41v1H5zm50 0h42v1H55zm62 0h28v1h-28zm57 0h44v1h-44zm61 0h93v1h-93zm117 0h47v1h-47zm56 0h46v1h-46zM5 93h91v1H5zm112 0h28v1h-28zm57 0h44v1h-44zm61 0h93v1h-93zm118 0h100v1H353zM5 94h91v1H5zm112 0h28v1h-28zm58 0h43v1h-43zm60 0h92v1h-92zm118 0h99v1h-99zM6 95h89v1H6zm111 0h28v1h-28zm59 0h42v1h-42zm59 0h91v1h-91zm119 0h98v1h-98zM6 96h89v1H6zm111 0h28v1h-28zm59 0h42v1h-42zm59 0h90v1h-90zm120 0h96v1h-96zM7 97h87v1H7zm110 0h28v1h-28zm60 0h41v1h-41zm58 0h89v1h-89zm121 0h94v1h-94zM8 98h86v1H8zm109 0h28v1h-28zm60 0h41v1h-41zm58 0h89v1h-89zm121 0h93v1h-93zM8 99h85v1H8zm109 0h28v1h-28zm61 0h40v1h-40zm57 0h88v1h-88zm122 0h91v1h-91zM9 100h83v1H9zm108 0h28v1h-28zm62 0h39v1h-39zm56 0h87v1h-87zm123 0h89v1h-89zm-348 1h82v1H10zm107 0h28v1h-28zm62 0h39v1h-39zm56 0h86v1h-86zm124 0h87v1h-87zm-348 1h80v1H11zm106 0h28v1h-28zm63 0h38v1h-38zm55 0h84v1h-84zm125 0h85v1h-85zm-349 1h79v1H11zm106 0h28v1h-28zm63 0h38v1h-38zm55 0h83v1h-83zm126 0h83v1h-83zm-349 1h77v1H12zm105 0h28v1h-28zm64 0h37v1h-37zm54 0h82v1h-82zm127 0h81v1h-81zm-349 1h75v1H13zm104 0h28v1h-28zm64 0h37v1h-37zm54 0h80v1h-80zm129 0h78v1h-78zm-349 1h72v1H15zm102 0h28v1h-28zm65 0h36v1h-36zm53 0h79v1h-79zm130 0h75v1h-75zm-349 1h70v1H16zm101 0h28v1h-28zm66 0h35v1h-35zm52 0h77v1h-77zm131 0h73v1h-73zm-349 1h67v1H17zm100 0h28v1h-28zm66 0h35v1h-35zm52 0h75v1h-75zm133 0h69v1h-69zm-350 1h65v1H18zm99 0h28v1h-28zm67 0h34v1h-34zm51 0h73v1h-73zm135 0h66v1h-66zm-350 1h61v1H20zm97 0h28v1h-28zm67 0h34v1h-34zm51 0h71v1h-71zm136 0h63v1h-63zm-349 1h58v1H22zm95 0h28v1h-28zm68 0h33v1h-33zm50 0h68v1h-68zm138 0h59v1h-59zm-349 1h54v1H24zm93 0h28v1h-28zm69 0h32v1h-32zm49 0h65v1h-65zm141 0h54v1h-54zm-350 1h49v1H26zm91 0h28v1h-28zm69 0h32v1h-32zm49 0h62v1h-62zm143 0h49v1h-49zm-349 1h44v1H29zm88 0h28v1h-28zm70 0h31v1h-31zm48 0h57v1h-57zm146 0h43v1h-43zm-349 1h37v1H32zm85 0h28v1h-28zm70 0h31v1h-31zm48 0h48v1h-48zm149 0h37v1h-37zm-348 1h29v1H36zm353 0h27v1h-27zm-345 1h13v1H44zm352 0h13v1h-13zM278 2h1v1h-1zm110 0h1v1h-1zm-4 1h1v1h-1zm-88 1h1v1h-1zm129 0h1v1h-1zM300 5h1v1h-1zm78 0h1v1h-1zm50 0h1v1h-1zM306 7h1v1h-1zM157 9h1v1h-1zm281 1h1v1h-1zm-124 1h1v1h-1zm3 2h1v1h-1zm47 0h1v1h-1zm-203 3h1v1h-1zm4 7h1v1h-1zm162 0h1v1h-1zm27 0h1v1h-1zm98 0h1v1h-1zm-123 3h1v1h-1zm23 0h1v1h-1zm102 0h1v1h-1zm-61 1h1v1h-1zm19 0h1v1h-1zm-126 1h1v1h-1zm44 0h1v1h-1zm59 1h1v1h-1zm-220 1h1v1h-1zm122 0h1v1h-1zm40 0h1v1h-1zm18 1h1v1h-1zm70 0h1v1h-1zm-125 1h1v1h-1zm91 0h1v1h-1zm35 0h1v1h-1zm-36 1h1v1h-1zm37 0h1v1h-1zm-124 2h1v1h-1zm-124 2h1v1h-1zm251 0h1v1h-1zm-125 1h1v1h-1zm35 0h1v1h-1zm46 1h1v1h-1zm-80 1h1v1h-1zm126 1h1v1h-1zm-91 1h1v1h-1zm-158 2h1v1h-1zm-30 3h1v1h-1zm34 4h1v1h-1zm-31 1h1v1h-1zm153 4h1v1h-1zm-118 2h1v1h-1zm-31 1h1v1h-1zm3 5h1v1h-1zm32 1h1v1h-1zm273 2h1v1h-1zM32 70h1v1h-1zm129 1h1v1h-1zm217 2h1v1h-1zm-214 3h1v1h-1zm215 0h1v1h-1zm-34 1h1v1h-1zm-11 1h1v1h-1zm47 2h1v1h-1zm-48 1h1v1h-1zm-36 1h1v1h-1zm126 0h1v1h-1zM34 83h1v1h-1zm134 0h1v1h-1zm128 0h1v1h-1zm87 0h1v1h-1zm75 0h1v1h-1zm-163 1h1v1h-1zM35 85h1v1h-1zm259 0h1v1h-1zM2 86h1v1H2zm329 0h1v1h-1zM64 87h1v1h-1zm227 0h1v1h-1zM63 88h1v1h-1zm108 0h1v1h-1zm118 0h1v1h-1zM62 89h1v1h-1zm267 1h1v1h-1zm125 1h1v1h-1zM4 92h1v1H4zm403 0h1v1h-1zm-55 1h1v1h-1zm100 1h1v1h-1zM95 95h1v1h-1zm229 2h1v1h-1zm31 0h1v1h-1zm93 2h1v1h-1zm-270 1h1v1h-1zm269 0h1v1h-1zm-1 1h1v1h-1zm-436 1h1v1h-1zm309 0h1v1h-1zm126 0h1v1h-1zm-1 1h1v1h-1zm-129 2h1v1h-1zm48 0h1v1h-1zm-349 1h1v1h-1zm426 0h1v1h-1zm-425 1h1v1h-1zm69 1h1v1h-1zm226 0h1v1h-1zm127 0h1v1h-1zm-129 1h1v1h-1zm61 0h1v1h-1zm-288 1h1v1h-1zm222 1h1v1h-1zm-118 1h1v1h-1zm115 0h1v1h-1zm75 0h1v1h-1zm52 1h1v1h-1zm-399 1h1v1h-1zm396 0h1v1h-1zm-141 1h1v1h-1zm133 1h1v1h-1zM394 1h1v1h-1zm28 2h1v1h-1zm-54 7h1v1h-1zm73 2h1v1h-1zm-44 14h1v1h-1zm-130 1h1v1h-1zm124 1h1v1h-1zm23 0h1v1h-1zm-64 1h1v1h-1zm66 0h1v1h-1zm-84 3h1v1h-1zm16 1h1v1h-1zm-2 5h1v1h-1zm79 1h1v1h-1zm2 5h1v1h-1zm-91 4h1v1h-1zm41 1h1v1h-1zm85 0h1v1h-1zm-311 5h1v1h-1zm7 12h1v1h-1zm144 4h1v1h-1zm42 3h1v1h-1zM68 74h1v1h-1zm233 0h1v1h-1zm34 0h1v1h-1zm-235 4h1v1h-1zm65 0h1v1h-1zm215 0h1v1h-1zM99 84h1v1h-1zm233 0h1v1h-1zm55 3h1v1h-1zm-38 1h1v1h-1zm68 0h1v1h-1zm-27 1h1v1h-1zM40 90h1v1h-1zm132 0h1v1h-1zm110 0h1v1h-1zM42 91h1v1h-1zm369 0h1v1h-1zM46 92h1v1h-1zm50 1h1v1h-1zm79 2h1v1h-1zm150 1h1v1h-1zM94 97h1v1h-1zM7 98h1v1H7zm442 0h1v1h-1zm-357 2h1v1h-1zm87 2h1v1h-1zm3 5h1v1h-1zm130 0h1v1h-1zm-6 3h1v1h-1zm-285 1h1v1h-1zm2 1h1v1h-1zm52 1h1v1h-1zm305 1h1v1h-1zm-311 1h1v1h-1zm319 1h1v1h-1zm-331 1h1v1h-1zM418 2h1v1h-1zM291 3h1v1h-1zM156 7h1v1h-1zm209 5h1v1h-1zm-205 2h1v1h-1zm161 2h1v1h-1zm125 0h1v1h-1zm-124 1h1v1h-1zm37 0h1v1h-1zm88 0h1v1h-1zm-124 1h1v1h-1zm35 0h1v1h-1zm90 0h1v1h-1zm-124 1h1v1h-1zm-160 2h1v1h-1zm244 5h1v1h-1zm-240 2h1v1h-1zm127 5h1v1h-1zm1 1h1v1h-1zm-124 1h1v1h-1zm210 1h1v1h-1zm77 0h1v1h-1zm1 3h1v1h-1zm-115 2h1v1h-1zm-169 1h1v1h-1zm125 1h1v1h-1zm160 0h1v1h-1zm-117 2h1v1h-1zm84 3h1v1h-1zm-280 1h1v1h-1zm32 0h1v1h-1zm4 7h1v1h-1zm245 1h1v1h-1zm-274 4h1v1h-1zm33 2h1v1h-1zm2 2h1v1h-1zm146 3h1v1h-1zm-174 5h1v1h-1zm264 3h1v1h-1zM33 79h1v1h-1zm34 1h1v1h-1zM1 82h1v1H1zm65 1h1v1h-1zm318 1h1v1h-1zm1 1h1v1h-1zm1 1h1v1h-1zM98 88h1v1h-1zm188 1h1v1h-1zm-19 1h1v1h-1zm125 0h1v1h-1zM58 91h1v1h-1zm-4 1h1v1h-1zm274 0h1v1h-1zm26 4h1v1h-1zm96 1h1v1h-1zM9 101h1v1H9zm309 2h1v1h-1zm125 1h1v1h-1zm-4 3h1v1h-1zm-72 1h1v1h-1zm65 3h1v1h-1zm-407 2h1v1h-1zm352 0h1v1h-1zm-191 1h1v1h-1zm106 0h1v1h-1zm-261 1h1v1h-1zm390 0h1v1h-1zm-356 1h1v1h-1zm-22 1h1v1h-1zM393 1h1v1h-1zm19 0h2v1h-2zM1 2h31v1H1zm68 0h32v1H69zm48 0h37v1h-37zm74 0h27v1h-27zm88 0h5v1h-5zM0 3h1v1H0zm32 0h1v1h-1zm158 0h1v1h-1zm28 0h1v1h-1zM0 4h1v1H0zm32 0h1v1h-1zm158 0h1v1h-1zm28 0h1v1h-1zM0 5h1v1H0zm32 0h1v1h-1zm158 0h1v1h-1zm28 0h1v1h-1zM0 6h1v1H0zm32 0h1v1h-1zm158 0h1v1h-1zm28 0h1v1h-1zM0 7h1v1H0zm32 0h1v1h-1zm158 0h1v1h-1zm28 0h1v1h-1zm155 0h1v1h-1zm60 0h1v1h-1zM0 8h1v1H0zm32 0h1v1h-1zm158 0h1v1h-1zm28 0h1v1h-1zm217 0h1v1h-1zM0 9h1v1H0zm32 0h1v1h-1zm158 0h1v1h-1zm28 0h1v1h-1zm93 0h1v1h-1zM0 10h1v1H0zm32 0h1v1h-1zm158 0h1v1h-1zm28 0h1v1h-1zM0 11h1v1H0zm32 0h1v1h-1zm158 0h1v1h-1zm28 0h1v1h-1zM0 12h1v1H0zm32 0h1v1h-1zm158 0h1v1h-1zm28 0h1v1h-1zm98 0h1v1h-1zM0 13h1v1H0zm32 0h1v1h-1zm158 0h1v1h-1zm28 0h1v1h-1zM0 14h1v1H0zm32 0h1v1h-1zm158 0h1v1h-1zm28 0h1v1h-1zM0 15h1v1H0zm32 0h1v1h-1zm158 0h1v1h-1zm28 0h1v1h-1zm102 0h1v1h-1zM0 16h1v1H0zm32 0h1v1h-1zm158 0h1v1h-1zm28 0h1v1h-1zm142 0h1v1h-1zM0 17h1v1H0zm32 0h1v1h-1zm158 0h1v1h-1zm28 0h1v1h-1zM0 18h1v1H0zm32 0h1v1h-1zm158 0h1v1h-1zm28 0h1v1h-1zM0 19h1v1H0zm32 0h1v1h-1zm158 0h1v1h-1zm28 0h1v1h-1zm231 0h1v1h-1zM0 20h1v1H0zm32 0h1v1h-1zm158 0h1v1h-1zm28 0h1v1h-1zm107 0h1v1h-1zM0 21h1v1H0zm32 0h1v1h-1zm158 0h1v1h-1zm28 0h1v1h-1zM0 22h1v1H0zm32 0h1v1h-1zm158 0h1v1h-1zm28 0h1v1h-1zM0 23h1v1H0zm32 0h1v1h-1zm158 0h1v1h-1zm28 0h1v1h-1zM0 24h1v1H0zm32 0h1v1h-1zm158 0h1v1h-1zm28 0h1v1h-1zm110 0h1v1h-1zm25 0h1v1h-1zM0 25h1v1H0zm32 0h1v1h-1zm158 0h1v1h-1zm28 0h1v1h-1zM0 26h1v1H0zm32 0h1v1h-1zm158 0h1v1h-1zm28 0h1v1h-1zM0 27h1v1H0zm32 0h1v1h-1zm158 0h1v1h-1zm28 0h1v1h-1zm61 0h2v1h-2zm72 0h1v1h-1zM0 28h1v1H0zm32 0h1v1h-1zm158 0h1v1h-1zm28 0h1v1h-1zm49 0h1v1h-1zM0 29h1v1H0zm32 0h1v1h-1zm158 0h1v1h-1zm28 0h1v1h-1zm49 0h1v1h-1zm189 0h1v1h-1zM0 30h1v1H0zm32 0h1v1h-1zm158 0h1v1h-1zm28 0h1v1h-1zm49 0h1v1h-1zM0 31h1v1H0zm32 0h1v1h-1zm158 0h1v1h-1zm28 0h1v1h-1zm49 0h1v1h-1zm190 0h1v1h-1zM0 32h1v1H0zm32 0h1v1h-1zm158 0h1v1h-1zm28 0h1v1h-1zm49 0h1v1h-1zM0 33h1v1H0zm32 0h1v1h-1zm158 0h1v1h-1zm28 0h1v1h-1zm49 0h1v1h-1zM0 34h1v1H0zm32 0h1v1h-1zm158 0h1v1h-1zm28 0h1v1h-1zm49 0h1v1h-1zM0 35h1v1H0zm32 0h1v1h-1zm158 0h1v1h-1zm28 0h1v1h-1zm49 0h1v1h-1zm80 0h1v1h-1zM0 36h1v1H0zm32 0h1v1h-1zm158 0h1v1h-1zm28 0h1v1h-1zm49 0h1v1h-1zM0 37h1v1H0zm32 0h1v1h-1zm158 0h1v1h-1zm28 0h1v1h-1zm49 0h1v1h-1zM0 38h1v1H0zm32 0h1v1h-1zm158 0h1v1h-1zm28 0h1v1h-1zm49 0h1v1h-1zM0 39h1v1H0zm32 0h1v1h-1zm158 0h1v1h-1zm28 0h1v1h-1zm49 0h1v1h-1zM0 40h1v1H0zm32 0h1v1h-1zm158 0h1v1h-1zm28 0h1v1h-1zm49 0h1v1h-1zM0 41h1v1H0zm32 0h1v1h-1zm158 0h1v1h-1zm28 0h1v1h-1zm49 0h1v1h-1zM0 42h1v1H0zm32 0h1v1h-1zm158 0h1v1h-1zm28 0h1v1h-1zm49 0h1v1h-1zM0 43h1v1H0zm32 0h1v1h-1zm158 0h1v1h-1zm28 0h1v1h-1zm49 0h1v1h-1zM0 44h1v1H0zm32 0h1v1h-1zm158 0h1v1h-1zm28 0h1v1h-1zm49 0h1v1h-1zM0 45h1v1H0zm32 0h1v1h-1zm158 0h1v1h-1zm28 0h1v1h-1zm49 0h1v1h-1zm111 0h1v1h-1zM0 46h1v1H0zm32 0h1v1h-1zm158 0h1v1h-1zm28 0h1v1h-1zm49 0h1v1h-1zM0 47h1v1H0zm32 0h1v1h-1zm158 0h1v1h-1zm28 0h1v1h-1zm49 0h1v1h-1zm35 0h1v1h-1zm34 0h1v1h-1zM0 48h1v1H0zm32 0h1v1h-1zm158 0h1v1h-1zm28 0h1v1h-1zm49 0h1v1h-1zm195 0h1v1h-1zM0 49h1v1H0zm32 0h1v1h-1zm158 0h1v1h-1zm28 0h1v1h-1zm49 0h1v1h-1zM0 50h1v1H0zm32 0h1v1h-1zm158 0h1v1h-1zm28 0h1v1h-1zm49 0h1v1h-1zm110 0h1v1h-1zM0 51h1v1H0zm32 0h1v1h-1zm158 0h1v1h-1zm28 0h1v1h-1zm49 0h1v1h-1zm76 0h1v1h-1zM0 52h1v1H0zm32 0h1v1h-1zm158 0h1v1h-1zm28 0h1v1h-1zm49 0h1v1h-1zm76 0h1v1h-1zM0 53h1v1H0zm32 0h1v1h-1zm158 0h1v1h-1zm28 0h1v1h-1zm49 0h1v1h-1zM0 54h1v1H0zm32 0h1v1h-1zm158 0h1v1h-1zm28 0h1v1h-1zm49 0h1v1h-1zM0 55h1v1H0zm32 0h1v1h-1zm158 0h1v1h-1zm28 0h1v1h-1zm49 0h1v1h-1zM0 56h1v1H0zm32 0h1v1h-1zm120 0h1v1h-1zm38 0h1v1h-1zm28 0h1v1h-1zm49 0h1v1h-1zM0 57h1v1H0zm32 0h1v1h-1zm158 0h1v1h-1zm28 0h1v1h-1zm49 0h1v1h-1zm36 0h1v1h-1zM0 58h1v1H0zm32 0h1v1h-1zm158 0h1v1h-1zm28 0h1v1h-1zm49 0h1v1h-1zm36 0h1v1h-1zm126 0h1v1h-1zM0 59h1v1H0zm32 0h1v1h-1zm158 0h1v1h-1zm28 0h1v1h-1zm49 0h1v1h-1zm36 0h1v1h-1zm126 0h1v1h-1zM0 60h1v1H0zm32 0h1v1h-1zm158 0h1v1h-1zm28 0h1v1h-1zm49 0h1v1h-1zm36 0h1v1h-1zm126 0h1v1h-1zM0 61h1v1H0zm32 0h1v1h-1zm158 0h1v1h-1zm28 0h1v1h-1zm49 0h1v1h-1zM0 62h1v1H0zm32 0h1v1h-1zm158 0h1v1h-1zm28 0h1v1h-1zm49 0h1v1h-1zM0 63h1v1H0zm32 0h1v1h-1zm158 0h1v1h-1zm28 0h1v1h-1zm49 0h1v1h-1zM0 64h1v1H0zm32 0h1v1h-1zm158 0h1v1h-1zm28 0h1v1h-1zm49 0h1v1h-1zM0 65h1v1H0zm32 0h1v1h-1zm186 0h1v1h-1zm49 0h1v1h-1zM0 66h1v1H0zm32 0h1v1h-1zm186 0h1v1h-1zm49 0h1v1h-1zm76 0h1v1h-1zM0 67h1v1H0zm32 0h1v1h-1zm186 0h1v1h-1zm49 0h1v1h-1zm76 0h1v1h-1zM0 68h1v1H0zm32 0h1v1h-1zm127 0h1v1h-1zm59 0h1v1h-1zm49 0h1v1h-1zm110 0h1v1h-1zm85 0h1v1h-1zM0 69h1v1H0zm32 0h1v1h-1zm186 0h1v1h-1zm49 0h1v1h-1zm69 0h1v1h-1zm92 0h1v1h-1zM0 70h1v1H0zm68 0h1v1h-1zm150 0h1v1h-1zm49 0h1v1h-1zM0 71h1v1H0zm68 0h1v1h-1zm150 0h1v1h-1zm49 0h1v1h-1zM0 72h1v1H0zm68 0h1v1h-1zm150 0h1v1h-1zm49 0h1v1h-1zM0 73h1v1H0zm68 0h1v1h-1zm150 0h1v1h-1zm49 0h1v1h-1zM0 74h1v1H0zm218 0h1v1h-1zm49 0h1v1h-1zm194 0h1v1h-1zM0 75h1v1H0zm218 0h1v1h-1zm49 0h1v1h-1zm-49 1h1v1h-1zm49 0h1v1h-1zm-49 1h1v1h-1zm49 0h1v1h-1zm-49 1h1v1h-1zm49 0h1v1h-1zm-167 1h1v1h-1zm118 0h1v1h-1zm49 0h1v1h-1zm-101 1h1v1h-1zm52 0h1v1h-1zm49 0h1v1h-1zm31 0h1v1h-1zm126 0h1v1h-1zm-206 1h1v1h-1zm49 0h1v1h-1zm-49 1h1v1h-1zm49 0h1v1h-1zm-49 1h1v1h-1zm49 0h1v1h-1zm155 0h1v1h-1zm-204 1h1v1h-1zm49 0h1v1h-1zM65 85h1v1h-1zm104 0h1v1h-1zm49 0h1v1h-1zm49 0h1v1h-1zm-49 1h1v1h-1zm49 0h1v1h-1zm81 0h1v1h-1zm-130 1h1v1h-1zm49 0h1v1h-1zm-49 1h1v1h-1zm49 0h1v1h-1zm-49 1h1v1h-1zm49 0h1v1h-1zM60 90h1v1h-1zm158 0h1v1h-1zm63 0h1v1h-1zm69 0h1v1h-1zM97 91h1v1h-1zm121 0h1v1h-1zM47 92h2v1h-2zm6 0h1v1h-1zm120 0h1v1h-1zm45 0h1v1h-1zm181 0h2v1h-2zm6 0h2v1h-2zm-187 1h1v1h-1zm235 0h1v1h-1zm-235 1h1v1h-1zm0 1h1v1h-1zm0 1h1v1h-1zm-42 1h1v1h-1zm42 0h1v1h-1zm0 1h1v1h-1zm0 1h1v1h-1zm0 1h1v1h-1zm0 1h1v1h-1zm0 1h1v1h-1zm0 1h1v1h-1zm0 1h1v1h-1zm0 1h1v1h-1zm0 1h1v1h-1zm146 0h1v1h-1zm-146 1h1v1h-1zm-202 1h1v1h-1zm202 0h1v1h-1zm-35 1h1v1h-1zm35 0h1v1h-1zm-199 1h1v1h-1zm199 0h1v1h-1zm216 0h1v1h-1zm-216 1h1v1h-1zm0 1h1v1h-1zm212 0h1v1h-1zm-212 1h1v1h-1zm79 0h1v1h-1zm-79 1h1v1h-1zm0 1h1v1h-1zm66 0h2v1h-2zm99 0h1v1h-1zm-348 1h1v1h-1zm382 0h1v1h-1zm-375 1h1v1h-1zm16 0h2v1h-2zm336 0h2v1h-2zm15 0h2v1h-2zM387 2h1v1h-1zm-95 1h1v1h-1zm5 1h1v1h-1zm83 0h1v1h-1zM155 5h1v1h-1zm149 1h1v1h-1zm127 0h1v1h-1zm9 5h1v1h-1zm-281 1h1v1h-1zm286 3h1v1h-1zm-282 4h1v1h-1zm290 5h1v1h-1zm-286 2h1v1h-1zm231 0h1v1h-1zm9 0h1v1h-1zm-129 1h1v1h-1zm7 1h1v1h-1zm103 2h1v1h-1zm-217 3h1v1h-1zm162 1h1v1h-1zm90 2h1v1h-1zm-89 1h1v1h-1zm-159 3h1v1h-1zm160 1h1v1h-1zm44 1h1v1h-1zm-234 3h1v1h-1zm34 2h1v1h-1zm-30 4h1v1h-1zm34 3h1v1h-1zm4 7h1v1h-1zm190 6h1v1h-1zm-75 2h1v1h-1zm160 0h1v1h-1zm-84 3h1v1h-1zm49 1h1v1h-1zm-83 1h1v1h-1zm-9 1h1v1h-1zm10 3h1v1h-1zm115 0h1v1h-1zm-114 3h1v1h-1zm113 0h1v1h-1zM2 87h1v1H2zm416 0h1v1h-1zm38 1h1v1h-1zM3 90h1v1H3zm392 1h1v1h-1zM52 92h1v1h-1zm274 3h1v1h-1zM93 99h1v1h-1zm87 5h1v1h-1zm134 2h1v1h-1zm-231 3h1v1h-1zm353 0h1v1h-1zm-363 5h1v1h-1zm213 1h1v1h-1zm101 1h1v1h-1zm-346 1h1v1h-1zm370 0h1v1h-1zM392 1h1v1h-1zm27 1h1v1h-1zm-36 1h1v1h-1zm40 0h1v1h-1zm3 1h1v1h-1zM301 5h1v1h-1zm74 1h1v1h-1zm-66 2h1v1h-1zm62 0h1v1h-1zm-58 2h1v1h-1zm131 4h1v1h-1zm-83 1h1v1h-1zm-4 4h1v1h-1zm-1 1h1v1h-1zm94 0h1v1h-1zm-56 7h1v1h-1zm17 0h1v1h-1zm-123 2h1v1h-1zm43 0h1v1h-1zm86 1h1v1h-1zm-125 1h1v1h-1zm166 2h1v1h-1zm3 9h1v1h-1zm-125 4h1v1h-1zm92 3h1v1h-1zm-85 1h1v1h-1zM156 63h1v1h-1zm187 5h1v1h-1zm-42 5h1v1h-1zm-138 2h1v1h-1zm216 0h1v1h-1zm-79 1h1v1h-1zm125 2h1v1h-1zm-91 1h1v1h-1zM34 82h1v1h-1zm299 0h1v1h-1zM1 83h1v1H1zm346 1h1v1h-1zm74 0h1v1h-1zM99 85h1v1h-1zm321 0h1v1h-1zm-1 1h1v1h-1zm38 0h1v1h-1zm-287 1h1v1h-1zm161 0h1v1h-1zm84 2h1v1h-1zm-2 1h1v1h-1zm42 0h1v1h-1zm-54 2h1v1h-1zM5 95h1v1H5zm348 0h1v1h-1zm98 1h1v1h-1zm-274 3h1v1h-1zm180 1h1v1h-1zm1 1h1v1h-1zm1 1h1v1h-1zm-269 1h1v1h-1zm-1 1h1v1h-1zm228 0h1v1h-1zm-229 1h1v1h-1zm354 0h1v1h-1zm-355 1h1v1h-1zm283 4h1v1h-1zm-66 1h1v1h-1zm68 0h1v1h-1zm-294 1h1v1h-1zm223 0h1v1h-1zm73 0h1v1h-1zm-81 2h1v1h-1zm132 0h1v1h-1zm-355 1h1v1h-1zm-4 1h1v1h-1zm327 1h1v1h-1zM0 2h1v1H0zm32 0h1v1h-1zm158 0h1v1h-1zm28 0h1v1h-1zm66 0h1v1h-1zm93 3h1v1h-1zm52 0h1v1h-1zM307 7h1v1h-1zm130 2h1v1h-1zm-71 2h1v1h-1zm-47 3h1v1h-1zm7 7h1v1h-1zm129 6h1v1h-1zM298 37h1v1h-1zm48 0h1v1h-1zm35 1h1v1h-1zm-36 2h1v1h-1zm35 0h1v1h-1zm46 2h1v1h-1zm-82 2h1v1h-1zm83 1h1v1h-1zm-281 1h1v1h-1zm316 1h1v1h-1zm-160 1h1v1h-1zM153 58h1v1h-1zm275 10h1v1h-1zM68 69h1v1h-1zm92 1h1v1h-1zm176 0h1v1h-1zM0 76h1v1H0zm33 2h1v1h-1zm34 1h1v1h-1zm33 1h1v1h-1zm282 1h1v1h-1zm76 3h1v1h-1zM36 86h1v1h-1zm256 0h1v1h-1zM43 91h1v1h-1zm367 0h1v1h-1zm-59 1h1v1h-1zm53 0h1v1h-1zM4 93h1v1H4zm4 7h1v1H8zm176 11h1v1h-1zm244 2h1v1h-1zm-401 1h1v1h-1zm352 0h1v1h-1zm-349 1h1v1h-1zm392 0h1v1h-1zm-388 1h1v1h-1zM391 1h1v1h-1zm23 0h1v1h-1zM285 2h2v1h-2zM68 3h1v1h-1zm86 0h1v1h-1zm139 0h1v1h-1zM68 4h1v1h-1zm0 1h1v1h-1zm0 1h1v1h-1zm0 1h1v1h-1zm0 1h1v1h-1zm0 1h1v1h-1zm301 0h1v1h-1zM68 10h1v1h-1zm90 0h1v1h-1zm-90 1h1v1h-1zm0 1h1v1h-1zm0 1h1v1h-1zm0 1h1v1h-1zm294 0h1v1h-1zM68 15h1v1h-1zm0 1h1v1h-1zm0 1h1v1h-1zm94 0h1v1h-1zm-94 1h1v1h-1zm0 1h1v1h-1zm0 1h1v1h-1zm0 1h1v1h-1zm0 1h1v1h-1zm0 1h1v1h-1zm0 1h1v1h-1zm98 0h1v1h-1zm-98 1h1v1h-1zm0 1h1v1h-1zm331 0h2v1h-2zm6 0h2v1h-2zM68 27h1v1h-1zm200 0h10v1h-10zm62 0h1v1h-1zM68 28h1v1h-1zm216 0h1v1h-1zM68 29h1v1h-1zm0 1h1v1h-1zm222 0h1v1h-1zM68 31h1v1h-1zm102 0h1v1h-1zm162 0h1v1h-1zM68 32h1v1h-1zm0 1h1v1h-1zm0 1h1v1h-1zm0 1h1v1h-1zm315 0h1v1h-1zM68 36h1v1h-1zm0 1h1v1h-1zm0 1h1v1h-1zm106 0h1v1h-1zm286 0h1v1h-1zM68 39h1v1h-1zm0 1h1v1h-1zm267 0h1v1h-1zM68 41h1v1h-1zm232 0h1v1h-1zM68 42h1v1h-1zm0 1h1v1h-1zm0 1h1v1h-1zm233 0h1v1h-1zM68 45h1v1h-1zm110 0h1v1h-1zm158 0h1v1h-1zM68 46h1v1h-1zm77 0h1v1h-1zm233 0h1v1h-1zM68 47h1v1h-1zm77 0h1v1h-1zm-77 1h1v1h-1zm77 0h1v1h-1zm-77 1h1v1h-1zm77 0h1v1h-1zm157 0h1v1h-1zm41 0h1v1h-1zM68 50h1v1h-1zm77 0h1v1h-1zm283 0h1v1h-1zM68 51h1v1h-1zm77 0h1v1h-1zm232 0h1v1h-1zM68 52h1v1h-1zm77 0h1v1h-1zm37 0h1v1h-1zm195 0h1v1h-1zM68 53h1v1h-1zm77 0h1v1h-1zm5 0h1v1h-1zm-82 1h1v1h-1zm77 0h1v1h-1zm-77 1h1v1h-1zm77 0h1v1h-1zm-77 1h1v1h-1zm77 0h1v1h-1zm-77 1h1v1h-1zm77 0h1v1h-1zm-77 1h1v1h-1zm77 0h1v1h-1zm-77 1h1v1h-1zm77 0h1v1h-1zm41 0h1v1h-1zM68 60h1v1h-1zm77 0h1v1h-1zm-77 1h1v1h-1zm77 0h1v1h-1zm-77 1h1v1h-1zm77 0h1v1h-1zm-77 1h1v1h-1zm77 0h1v1h-1zm-77 1h1v1h-1zm77 0h1v1h-1zm-77 1h1v1h-1zm77 0h1v1h-1zm12 0h1v1h-1zm-89 1h1v1h-1zm77 0h1v1h-1zm232 0h1v1h-1zM68 67h1v1h-1zm77 0h1v1h-1zm-77 1h1v1h-1zm77 0h1v1h-1zm157 0h1v1h-1zm-157 1h1v1h-1zm198 0h1v1h-1zm-198 1h1v1h-1zm317 0h1v1h-1zm-317 1h1v1h-1zm0 1h1v1h-1zm0 1h1v1h-1zm0 1h1v1h-1zm0 1h1v1h-1zm316 0h1v1h-1zm-316 1h1v1h-1zM0 77h1v1H0zm33 0h1v1h-1zm112 0h1v1h-1zm19 0h1v1h-1zm-19 1h1v1h-1zm154 0h1v1h-1zm-154 1h1v1h-1zm0 1h1v1h-1zm0 1h1v1h-1zm0 1h1v1h-1zm22 0h1v1h-1zm-22 1h1v1h-1zm0 1h1v1h-1zm0 1h1v1h-1zm187 0h1v1h-1zm-187 1h1v1h-1zm0 1h1v1h-1zm0 1h1v1h-1zm143 0h1v1h-1zm101 0h1v1h-1zM39 89h1v1h-1zm106 0h1v1h-1zm26 0h1v1h-1zm114 0h1v1h-1zm45 0h1v1h-1zm-185 1h1v1h-1zm134 0h2v1h-2zm-134 1h1v1h-1zm-96 1h3v1h-3zm96 0h1v1h-1zm257 0h2v1h-2zm-257 1h1v1h-1zm-49 1h1v1h-1zm49 0h1v1h-1zm29 0h1v1h-1zm-29 1h1v1h-1zm-50 1h1v1h-1zm50 0h1v1h-1zM6 97h1v1H6zm139 0h1v1h-1zm0 1h1v1h-1zm0 1h1v1h-1zm0 1h1v1h-1zm0 1h1v1h-1zm0 1h1v1h-1zm0 1h1v1h-1zm215 0h1v1h-1zm-215 1h1v1h-1zm0 1h1v1h-1zm0 1h1v1h-1zm36 0h1v1h-1zm-36 1h1v1h-1zm220 0h1v1h-1zm-220 1h1v1h-1zm166 0h1v1h-1zm127 0h1v1h-1zm-421 1h1v1h-1zm128 0h1v1h-1zm164 0h1v1h-1zm59 0h1v1h-1zm-223 1h1v1h-1zm-65 1h1v1h-1zm65 0h1v1h-1zm-123 1h1v1h-1zm123 0h1v1h-1zm-69 1h1v1h-1zm69 0h1v1h-1zm153 0h1v1h-1zm-153 1h1v1h-1zm0 1h1v1h-1zm142 0h1v1h-1zm99 1h1v1h-1zm32 0h1v1h-1zm-378 1h1v1h-1zm20 0h2v1h-2zm332 0h1v1h-1zm20 0h1v1h-1zm3-116h1v1h-1zm-29 1h1v1h-1zm-88 2h1v1h-1zm17 7h1v1h-1zm40 10h1v1h-1zm96 0h1v1h-1zm-99 4h1v1h-1zm-3 5h1v1h-1zm-1 2h1v1h-1zm74 3h1v1h-1zm37 0h1v1h-1zm-35 3h1v1h-1zm38 8h1v1h-1zm-315 2h1v1h-1zm230 17h1v1h-1zm51 2h1v1h-1zm-92 4h1v1h-1zm42 0h1v1h-1zm49 1h1v1h-1zm-83 3h1v1h-1zm-9 1h1v1h-1zm45 1h1v1h-1zM0 78h1v1H0zm381 1h1v1h-1zm-281 2h1v1h-1zm197 0h1v1h-1zM66 82h1v1h-1zM1 84h1v1H1zm34 0h1v1h-1zm29 2h1v1h-1zm226 1h1v1h-1zM98 89h1v1h-1zm180 1h1v1h-1zM57 91h1v1h-1zm272 0h1v1h-1zm125 1h1v1h-1zm-127 2h1v1h-1zm-149 7h1v1h-1zm-92 6h1v1h-1zm99 6h1v1h-1zm191 0h1v1h-1zm-82 1h1v1h-1zm-6 1h1v1h-1zm94 0h1v1h-1zm-343 2h1v1h-1zm374 0h1v1h-1zM403 0h1v1h-1zM68 2h1v1h-1zm352 0h1v1h-1zm-38 1h1v1h-1zm-80 2h1v1h-1zm3 1h1v1h-1zM157 8h1v1h-1zm161 5h1v1h-1zm125 0h1v1h-1zm-282 2h1v1h-1zm4 7h1v1h-1zm227 6h1v1h-1zm21 0h1v1h-1zm-244 1h1v1h-1zm221 0h1v1h-1zm25 0h1v1h-1zm-28 2h1v1h-1zm31 0h1v1h-1zm-71 3h1v1h-1zm37 0h1v1h-1zm-211 2h1v1h-1zm161 0h1v1h-1zm-35 3h1v1h-1zm126 1h1v1h-1zm36 1h1v1h-1zm-284 2h1v1h-1zm167 0h1v1h-1zm35 0h1v1h-1zm-198 7h1v1h-1zm4 7h1v1h-1zm-31 3h1v1h-1zm35 4h1v1h-1zm154 6h1v1h-1zm-182 2h1v1h-1zm265 3h1v1h-1zM67 78h1v1h-1zm278 1h1v1h-1zm115 0h1v1h-1zm-114 3h1v1h-1zm113 0h1v1h-1zm-291 2h1v1h-1zm-69 2h1v1h-1zm-62 1h1v1h-1zm311 0h1v1h-1zM2 88h1v1H2zm36 0h1v1h-1zm3 2h1v1h-1zm352 0h1v1h-1zM3 91h1v1H3zm393 0h1v1h-1zM97 92h1v1h-1zm78 4h1v1h-1zm148 3h1v1h-1zm33 0h1v1h-1zm-34 1h1v1h-1zm-1 1h1v1h-1zm-230 1h1v1h-1zm-80 2h1v1h-1zm350 0h1v1h-1zm-349 1h1v1h-1zm304 0h1v1h-1zm-303 1h1v1h-1zm428 0h1v1h-1zm-259 2h1v1h-1zm125 2h1v1h-1zm-287 1h1v1h-1zm413 0h1v1h-1zm-409 2h1v1h-1zm43 3h1v1h-1zm324 1h1v1h-1zM287 2h1v1h-1zm7 1h1v1h-1zm130 0h1v1h-1zm-45 1h1v1h-1zm48 0h1v1h-1zm12 6h1v1h-1zm-76 3h1v1h-1zm-36 9h1v1h-1zm2 3h1v1h-1zm125 0h1v1h-1zm-53 1h1v1h-1zm3 0h1v1h-1zm-9 1h1v1h-1zm15 0h1v1h-1zm-60 1h1v1h-1zm-63 1h1v1h-1zm6 3h1v1h-1zm40 1h1v1h-1zm10 15h1v1h-1zm-192 7h1v1h-1zm7 12h1v1h-1zm144 0h1v1h-1zm160 4h1v1h-1zm-161 1h1v1h-1zm78 2h1v1h-1zm-45 6h1v1h-1zM34 81h1v1h-1zm389 0h1v1h-1zm-90 2h1v1h-1zm-40 2h1v1h-1zM61 89h1v1h-1zm288 0h1v1h-1zm60 2h1v1h-1zm-57 3h1v1h-1zm100 1h1v1h-1zm-97 3h1v1h-1zm-42 9h1v1h-1zm-231 3h1v1h-1zm220 2h1v1h-1zm-228 2h1v1h-1zm352 0h1v1h-1zm-355 1h1v1h-1zm-38 1h1v1h-1zm386 0h1v1h-1zM397 0h6v1h-6zm7 0h5v1h-5zm-14 1h1v1h-1zm26 0h1v1h-1zM288 2h1v1h-1zM101 3h1v1h-1zm0 1h1v1h-1zm0 1h1v1h-1zm0 1h1v1h-1zm55 0h1v1h-1zm218 0h1v1h-1zm58 0h1v1h-1zM101 7h1v1h-1zm271 0h1v1h-1zm62 0h1v1h-1zM101 8h1v1h-1zm209 0h1v1h-1zM101 9h1v1h-1zm0 1h1v1h-1zm266 0h1v1h-1zm-266 1h1v1h-1zm0 1h1v1h-1zm0 1h1v1h-1zm59 0h1v1h-1zm-59 1h1v1h-1zm0 1h1v1h-1zm0 1h1v1h-1zm0 1h1v1h-1zm0 1h1v1h-1zm0 1h1v1h-1zm0 1h1v1h-1zm63 0h1v1h-1zm-63 1h1v1h-1zm0 1h1v1h-1zm253 0h1v1h-1zm98 0h1v1h-1zm-351 1h1v1h-1zm0 1h1v1h-1zm0 1h1v1h-1zm0 1h1v1h-1zm301 0h2v1h-2zm-301 1h1v1h-1zm67 0h1v1h-1zm-67 1h1v1h-1zm182 0h1v1h-1zm-182 1h1v1h-1zm0 1h1v1h-1zm356 0h1v1h-1zm-356 1h1v1h-1zm0 1h1v1h-1zm285 0h1v1h-1zm-285 1h1v1h-1zm0 1h1v1h-1zm71 0h1v1h-1zm249 0h1v1h-1zm-320 1h1v1h-1zm0 1h1v1h-1zm196 0h1v1h-1zm-196 1h1v1h-1zm0 1h1v1h-1zm0 1h1v1h-1zm234 0h1v1h-1zm-234 1h1v1h-1zm0 1h1v1h-1zm75 0h1v1h-1zm-75 1h1v1h-1zm0 1h1v1h-1zm0 1h1v1h-1zm235 0h1v1h-1zm-235 1h1v1h-1zm200 0h1v1h-1zm161 0h1v1h-1zm-361 1h1v1h-1zm326 0h1v1h-1zm-326 1h1v1h-1zm277 0h1v1h-1zm-277 1h1v1h-1zm79 0h1v1h-1zm-79 1h1v1h-1zm0 1h1v1h-1zm47 0h1v1h-1zm154 0h1v1h-1zm-201 1h1v1h-1zm201 0h1v1h-1zm126 0h1v1h-1zm-327 1h1v1h-1zm236 0h1v1h-1zm91 0h1v1h-1zm35 0h1v1h-1zm-362 1h1v1h-1zm236 0h1v1h-1zm40 0h1v1h-1zm86 0h1v1h-1zm-362 1h1v1h-1zm236 0h1v1h-1zm40 0h1v1h-1zm86 0h1v1h-1zm-362 1h1v1h-1zm83 0h1v1h-1zm153 0h1v1h-1zm40 0h1v1h-1zm86 0h1v1h-1zm-362 1h1v1h-1zm236 0h1v1h-1zm40 0h1v1h-1zm86 0h1v1h-1zm-362 1h1v1h-1zm236 0h1v1h-1zm126 0h1v1h-1zm-362 1h1v1h-1zm236 0h1v1h-1zm126 0h1v1h-1zm-362 1h1v1h-1zm236 0h1v1h-1zm126 0h1v1h-1zm-362 1h1v1h-1zm236 0h1v1h-1zm126 0h1v1h-1zm-362 1h1v1h-1zm236 0h1v1h-1zm126 0h1v1h-1zm-362 1h1v1h-1zm54 0h1v1h-1zm33 0h1v1h-1zm149 0h1v1h-1zm40 0h1v1h-1zm86 0h1v1h-1zm-362 1h1v1h-1zm236 0h1v1h-1zm40 0h1v1h-1zm86 0h1v1h-1zm-362 1h1v1h-1zm236 0h1v1h-1zm40 0h1v1h-1zm86 0h1v1h-1zm-362 1h1v1h-1zm0 1h1v1h-1zm201 0h1v1h-1zm126 0h1v1h-1zm-327 1h1v1h-1zm0 1h1v1h-1zm0 1h1v1h-1zm0 1h1v1h-1zm0 1h1v1h-1zm242 0h1v1h-1zm-242 1h1v1h-1zm235 0h1v1h-1zm-235 1h1v1h-1zm0 1h1v1h-1zm61 0h1v1h-1zM33 75h1v1h-1zm267 0h1v1h-1zM33 76h1v1h-1zm428 0h1v1h-1zM67 77h1v1h-1zM0 79h1v1H0zm165 0h1v1h-1zm-65 3h1v1h-1zm283 0h1v1h-1zM65 84h1v1h-1zm282 1h1v1h-1zm-178 1h1v1h-1zm288 1h1v1h-1zm-41 1h1v1h-1zm-132 1h1v1h-1zm107 0h1v1h-1zm-123 1h10v1h-10zm144 0h1v1h-1zM44 91h1v1h-1zm128 0h1v1h-1zm178 0h1v1h-1zM94 98h1v1h-1zm230 0h1v1h-1zM7 99h1v1H7zm85 2h1v1h-1zm-82 2h1v1h-1zm169 0h1v1h-1zm-94 5h1v1h-1zm350 2h1v1h-1zm-130 1h1v1h-1zm126 1h1v1h-1zm-132 1h1v1h-1zm-4 1h1v1h-1zm-266 1h1v1h-1zm157 0h1v1h-1zm103 0h1v1h-1zm134 0h1v1h-1zm-188 1h43v1h-43zm150 0h1v1h-1zm-347 1h1v1h-1zm24 0h1v1h-1zm328 0h1v1h-1zm24 0h1v1h-1zM101 2h1v1h-1zm284 0h1v1h-1zm-86 2h1v1h-1zm13 5h1v1h-1zm52 3h1v1h-1zm78 0h1v1h-1zm14 16h1v1h-1zm-37 4h1v1h-1zm39 0h1v1h-1zm-164 1h1v1h-1zm91 0h1v1h-1zm35 0h1v1h-1zm-38 4h1v1h-1zm78 0h1v1h-1zm-115 2h1v1h-1zm81 4h1v1h-1zm-83 4h1v1h-1zm-6 4h1v1h-1zm-185 6h1v1h-1zm225 4h1v1h-1zm51 4h1v1h-1zm-50 5h1v1h-1zm49 1h1v1h-1zm35 1h1v1h-1zm-361 3h1v1h-1zm243 1h1v1h-1zm-9 1h1v1h-1zm90 0h1v1h-1zM0 80h1v1H0zm296 2h1v1h-1zm-1 1h1v1h-1zm-1 1h1v1h-1zM1 85h1v1H1zm62 2h1v1h-1zm325 0h1v1h-1zM62 88h1v1h-1zm-3 2h1v1h-1zm-3 1h1v1h-1zm341 0h1v1h-1zm-69 2h1v1h-1zm-3 4h1v1h-1zm29 0h1v1h-1zm-178 1h1v1h-1zm273 1h1v1h-1zm-1 1h1v1h-1zm-1 1h1v1h-1zM9 102h1v1H9zm311 0h1v1h-1zm126 0h1v1h-1zm-127 1h1v1h-1zm126 0h1v1h-1zm-83 2h1v1h-1zm-348 2h1v1h-1zm426 0h1v1h-1zm-74 1h1v1h-1zm-348 2h1v1h-1zm165 0h1v1h-1zm-157 4h1v1h-1zm352 0h1v1h-1zm3 1h1v1h-1zm-318 2h1v1h-1zM409 0h1v1h-1zm-20 1h1v1h-1zM289 2h1v1h-1zm132 0h1v1h-1zM295 3h1v1h-1zM155 4h1v1h-1zm221 1h1v1h-1zm54 0h1v1h-1zM308 7h1v1h-1zm62 1h1v1h-1zm66 0h1v1h-1zm-277 3h1v1h-1zm158 1h1v1h-1zm-154 6h1v1h-1zm4 7h1v1h-1zm184 1h1v1h-1zm-180 6h1v1h-1zm125 3h1v1h-1zm50 1h1v1h-1zm-171 3h1v1h-1zm286 1h1v1h-1zm-81 1h1v1h-1zm-80 1h1v1h-1zm44 0h1v1h-1zm-8 1h1v1h-1zm-157 3h1v1h-1zm-30 6h1v1h-1zm34 1h1v1h-1zm4 7h1v1h-1zm-31 4h1v1h-1zm146 1h1v1h-1zm35 0h1v1h-1zm-178 4h1v1h-1zm140 8h1v1h-1zm-1 2h1v1h-1zm126 0h1v1h-1zM66 81h1v1h-1zm100 0h1v1h-1zm218 2h1v1h-1zm74 2h1v1h-1zm-171 3h1v1h-1zm44 0h1v1h-1zm83 1h1v1h-1zm42 0h1v1h-1zM98 90h1v1h-1zm75 3h1v1h-1zM4 94h1v1H4zm449 0h1v1h-1zM5 96h1v1H5zm175 9h1v1h-1zm135 1h1v1h-1zm122 3h1v1h-1zm-66 2h1v1h-1zm-292 1h1v1h-1zm294 0h1v1h-1zm56 1h1v1h-1zm-139 2h1v1h-1zm-222 1h1v1h-1zm210 0h1v1h-1zm-241 1h1v1h-1zM396 0h1v1h-1zM154 2h1v1h-1zm227 1h1v1h-1zm-78 2h1v1h-1zM158 9h1v1h-1zm210 0h1v1h-1zm70 0h1v1h-1zm-124 1h1v1h-1zm127 1h1v1h-1zm-120 4h1v1h-1zm125 0h1v1h-1zm-284 1h1v1h-1zm160 0h1v1h-1zm37 0h1v1h-1zm88 0h1v1h-1zm-124 1h1v1h-1zm35 0h1v1h-1zm90 0h1v1h-1zm-124 1h1v1h-1zm33 0h1v1h-1zm92 0h1v1h-1zm-124 1h1v1h-1zm-159 4h1v1h-1zm162 0h1v1h-1zm25 0h1v1h-1zm100 0h1v1h-1zm-123 3h1v1h-1zm125 0h1v1h-1zm-59 1h1v1h-1zm13 0h1v1h-1zm-127 1h1v1h-1zm49 0h1v1h-1zm62 0h1v1h-1zm-223 2h1v1h-1zm119 0h1v1h-1zm43 0h1v1h-1zm57 0h1v1h-1zm27 0h1v1h-1zm-125 1h1v1h-1zm57 0h1v1h-1zm-53 3h1v1h-1zm164 0h1v1h-1zm-125 1h1v1h-1zm-160 2h1v1h-1zm249 0h1v1h-1zm-125 1h1v1h-1zm83 1h1v1h-1zm-203 5h1v1h-1zm201 0h1v1h-1zm83 0h1v1h-1zm-316 3h1v1h-1zm36 4h1v1h-1zm120 1h1v1h-1zm-152 2h1v1h-1zm227 3h1v1h-1zm-191 1h1v1h-1zm-33 1h1v1h-1zm310 6h1v1h-1zm-303 6h1v1h-1zm141 0h1v1h-1zm35 2h1v1h-1zm90 1h1v1h-1zM67 76h1v1h-1zm96 0h1v1h-1zm217 0h1v1h-1zm-35 4h1v1h-1zm37 0h1v1h-1zm78 0h1v1h-1zm-38 2h1v1h-1zM35 83h1v1h-1zm65 0h1v1h-1zm67 0h1v1h-1zm179 0h1v1h-1zm39 1h1v1h-1zM36 85h1v1h-1zm350 0h1v1h-1zm-95 1h1v1h-1zm41 0h1v1h-1zm55 0h1v1h-1zM99 87h1v1h-1zm318 0h1v1h-1zm-247 1h1v1h-1zM2 89h1v1H2zm328 1h1v1h-1zm64 0h1v1h-1zm14 1h1v1h-1zm47 0h1v1h-1zm-104 2h1v1h-1zM96 95h1v1h-1zm78 0h1v1h-1zm152 1h1v1h-1zm27 0h1v1h-1zM6 98h1v1H6zm444 0h1v1h-1zm-357 2h1v1h-1zm84 0h1v1h-1zM8 101h1v1H8zm310 3h1v1h-1zm126 0h1v1h-1zm-1 1h1v1h-1zm-80 1h1v1h-1zm-182 1h1v1h-1zm-166 1h1v1h-1zm69 1h1v1h-1zm226 0h1v1h-1zm59 1h1v1h-1zm-288 1h1v1h-1zm-60 1h1v1h-1zm163 0h1v1h-1zm-107 1h1v1h-1zm298 0h1v1h-1zm-303 2h1v1h-1zm-40 1h1v1h-1zm388 0h1v1h-1zm-31 1h1v1h-1zm26 0h1v1h-1zm-365 1h1v1h-1zm352 0h1v1h-1z" />
</svg>
