<svg width="24" height="24" viewBox="0 0 24 24" fill="none" xmlns="http://www.w3.org/2000/svg">
<path d="M19.2091 5.28412C17.8644 4.65286 16.4266 4.19409 14.9234 3.93286C14.7388 4.26775 14.5232 4.71818 14.3745 5.07649C12.7766 4.83538 11.1933 4.83538 9.6248 5.07649C9.47613 4.71818 9.25556 4.26775 9.0693 3.93286C7.5645 4.19409 6.12505 4.65455 4.78037 5.28746C2.06814 9.39978 1.3329 13.4099 1.70052 17.3632C3.49941 18.7111 5.24276 19.5299 6.95668 20.0657C7.37986 19.4813 7.75728 18.8601 8.08241 18.2054C7.46318 17.9693 6.87009 17.678 6.30969 17.3397C6.45836 17.2292 6.60378 17.1137 6.74428 16.9948C10.1623 18.5989 13.8761 18.5989 17.2534 16.9948C17.3955 17.1137 17.5409 17.2292 17.688 17.3397C17.1259 17.6796 16.5312 17.971 15.912 18.2071C16.2371 18.8601 16.6129 19.483 17.0377 20.0673C18.7533 19.5315 20.4982 18.7127 22.2971 17.3632C22.7285 12.7804 21.5603 8.80703 19.2091 5.28412ZM8.54808 14.932C7.52201 14.932 6.68056 13.9709 6.68056 12.8005C6.68056 11.6301 7.50404 10.6673 8.54808 10.6673C9.59214 10.6673 10.4336 11.6284 10.4156 12.8005C10.4172 13.9709 9.59214 14.932 8.54808 14.932ZM15.4496 14.932C14.4235 14.932 13.582 13.9709 13.582 12.8005C13.582 11.6301 14.4055 10.6673 15.4496 10.6673C16.4936 10.6673 17.3351 11.6284 17.3171 12.8005C17.3171 13.9709 16.4936 14.932 15.4496 14.932Z" fill="#E4E4E7"/>
</svg>
