<?xml version="1.0" encoding="utf-8"?>
<svg viewBox="0 0 128 128" xmlns="http://www.w3.org/2000/svg">
  <text style="font-size: 36; font-family: Roboto; white-space: pre;" transform="matrix(1, 0, 0, 1, 69.784261, 14.418589)"/>
  <path fill="#01579B" d="M 28.456 96.488 L 8.732 76.765 C 6.392 74.365 4.943 70.975 4.943 67.661 C 4.943 66.127 5.808 63.728 6.46 62.355 L 24.666 24.432 L 28.456 96.488 Z" style=""/>
  <path fill="#40C4FF" d="M 95.968 28.222 L 76.244 8.498 C 74.523 6.769 70.937 4.709 67.904 4.709 C 65.293 4.709 62.734 5.234 61.08 6.226 L 24.676 24.432 L 95.968 28.222 Z" style=""/>
  <polygon fill="#40C4FF" points="51.969 120.001 99.757 120.001 99.757 99.523 64.106 88.14 31.49 99.523" style=""/>
  <path fill="#29B6F6" d="M 24.666 85.868 C 24.666 91.953 25.43 93.445 28.456 96.488 L 31.49 99.523 L 99.757 99.523 L 66.386 61.6 L 24.666 24.432 L 24.666 85.868 Z" style=""/>
  <path fill="#01579B" d="M 85.347 24.424 L 24.666 24.424 L 99.757 99.515 L 120.235 99.515 L 120.235 52.489 L 95.959 28.214 C 92.552 24.797 89.527 24.424 85.347 24.424 Z" style=""/>
  <path opacity="0.2" fill="#FFFFFF" enable-background="new    " d="M 29.219 97.243 C 26.184 94.2 25.43 91.199 25.43 85.868 L 25.43 25.187 L 24.676 24.432 L 24.676 85.868 C 24.666 91.199 24.666 92.674 29.219 97.243 L 31.49 99.515 L 31.49 99.515 L 29.219 97.243 Z" style=""/>
  <polygon opacity="0.2" fill="#263238" enable-background="new    " points="119.48 51.735 119.48 98.76 99.002 98.76 99.757 99.523 120.235 99.523 120.235 52.489" style=""/>
  <path opacity="0.2" fill="#FFFFFF" enable-background="new    " d="M 95.968 28.222 C 92.205 24.458 89.127 24.432 84.593 24.432 L 24.676 24.432 L 25.43 25.187 L 84.593 25.187 C 86.856 25.187 92.569 24.806 95.968 28.222 L 95.968 28.222 Z" style=""/>
</svg>