<svg xmlns="http://www.w3.org/2000/svg" viewBox="0 0 128 128"><path fill="#01579B" d="M28.456 96.488 8.732 76.765c-2.34-2.4-3.789-5.79-3.789-9.104 0-1.534.865-3.933 1.517-5.306l18.206-37.923 3.79 72.056Z"/><path fill="#40C4FF" d="M95.968 28.222 76.244 8.498c-1.721-1.729-5.307-3.789-8.34-3.789-2.611 0-5.17.525-6.824 1.517L24.676 24.432l71.292 3.79Zm-43.999 91.779h47.788V99.523L64.106 88.14 31.49 99.523z"/><path fill="#29B6F6" d="M24.666 85.868c0 6.085.764 7.577 3.79 10.62l3.034 3.035h68.267L66.386 61.6l-41.72-37.168v61.436Z"/><path fill="#01579B" d="M85.347 24.424H24.666l75.091 75.091h20.478V52.489L95.959 28.214c-3.407-3.417-6.432-3.79-10.612-3.79Z"/><path fill="#FFF" d="M29.219 97.243c-3.035-3.043-3.789-6.044-3.789-11.375V25.187l-.754-.755v61.436c-.01 5.331-.01 6.806 4.543 11.375l2.271 2.272-2.271-2.272Z" opacity=".2"/><path fill="#263238" d="M119.48 51.735V98.76H99.002l.755.763h20.478V52.489z" opacity=".2"/><path fill="#FFF" d="M95.968 28.222c-3.763-3.764-6.841-3.79-11.375-3.79H24.676l.754.755h59.163c2.263 0 7.976-.381 11.375 3.035Z" opacity=".2"/></svg>