<svg xmlns="http://www.w3.org/2000/svg" id="typescript" viewBox="0 0 128 128"><defs><style/></defs><path d="M59.997 6.57c-.262.028-1.103.126-1.86.195-10.778 1.143-21.389 5.758-30.043 13.09-1.599 1.338-5.237 5.018-6.56 6.635-7.166 8.657-11.356 18.373-12.9 29.874-.344 2.55-.344 11.166 0 13.717 1.544 11.5 5.734 21.216 12.9 29.873 1.323 1.617 4.961 5.297 6.56 6.636 8.558 7.248 18.163 11.486 29.532 13.047 2.522.349 11.039.349 13.56 0 11.37-1.56 20.976-5.799 29.534-13.047 1.598-1.339 5.236-5.019 6.56-6.636 7.165-8.657 11.355-18.373 12.898-29.873.345-2.551.345-11.166 0-13.717-1.543-11.5-5.733-21.217-12.899-29.874-1.323-1.617-4.96-5.297-6.56-6.635C92.19 12.634 82.488 8.34 71.27 6.82c-1.212-.167-2.976-.237-6.242-.265-2.495-.028-4.768-.014-5.03.014zm.689 6.022c0 1.631.11 5.172.262 8.531.082 1.645.179 4.001.22 5.228.152 4.35.606 15.766.675 16.784l.07 1.017-.62-.07c-.345-.027-.662-.11-.718-.153-.04-.055-.137-1.017-.192-2.146-.249-4.963-1.062-24.214-1.144-27.03l-.083-3.095.386-.056c.207-.027.551-.07.772-.083l.372-.014v1.087zm13.188-.334c.014.014.055 4.223.097 9.353.055 5.144.124 9.758.165 10.26.041.516.028.962-.041.99-.055.042-.4.042-.745 0l-.633-.056-.097-4.056a835.66 835.66 0 0 0-.152-5.535c-.11-2.467-.206-10.845-.124-11.054.056-.153.207-.167.786-.07.4.084.73.154.744.168zM42 16.928c.082.125.73 7.806 1.53 17.857.261 3.415.523 6.538.564 6.928.07.71.056.739-.385 1.017-.249.154-.497.28-.552.28-.041 0-.124-.363-.165-.81-.193-1.811-.937-10.566-1.46-16.895-.304-3.721-.58-7.053-.621-7.416-.069-.613-.055-.669.303-.864.441-.237.69-.279.786-.097zm37.939 2.801c.386.14.427.21.51 1.004.137 1.394.096 8.057-.055 8.057-.4 0-1.227-.473-1.296-.738-.041-.168-.083-2.147-.083-4.391 0-4.53-.055-4.266.924-3.932zm-25.454.656c0 .376.097 2.453.207 4.642.11 2.188.234 4.962.29 6.161.096 2.426.123 2.342-.8 2.398-.455.014-.455.014-.482-.683-.028-.39-.097-1.603-.18-2.719-.068-1.115-.234-3.526-.344-5.366a148.64 148.64 0 0 0-.29-4.057c-.082-.697-.068-.725.304-.864a2.88 2.88 0 0 1 .854-.154c.441-.014.441-.014.441.642zm38.229 1.91.468.195.097 1.868c.041 1.017.069 3.22.041 4.879l-.041 3.038-.579-.292-.579-.28-.041-4.627c-.028-2.551-.014-4.712.014-4.81.055-.209.055-.209.62.028zM67.549 24.12c.082.083.275 6.844.29 10.273l.013 2.063-.648-.097c-.372-.042-.675-.084-.689-.098-.041-.028-.455-10.357-.455-11.36V23.87l.703.083c.4.056.744.126.786.168zm31.737.99c.166.194.193 3.247.235 20.087.04 19.335.04 19.836-.207 19.836a.895.895 0 0 1-.482-.18c-.207-.154-.235-1.84-.304-18.36-.055-10.009-.124-19.098-.165-20.199l-.083-2.007.4.293c.234.167.496.404.606.53zm-12.361 2.857c.069.056.138.85.151 1.756.07 3.081.083 21.97.014 22.026-.027.028-.275-.042-.551-.154l-.496-.209V27.675l.386.084c.206.056.427.14.496.209zm-38.036.78c.042.377.11 1.227.152 1.924.041.683.138 2.245.22 3.458.166 2.453.138 2.606-.647 2.606-.414 0-.469-.042-.524-.46-.138-.822-.62-7.68-.551-7.792.069-.098.785-.349 1.116-.377.083-.014.193.28.234.642zm-22.794 3.555c.152 1.478.455 4.573.676 6.873.234 2.3.427 4.251.427 4.335 0 .167-1.061.697-1.171.586-.07-.07-1.447-12.407-1.447-12.965 0-.334 1.06-1.742 1.198-1.589.042.028.18 1.269.317 2.76zm54.036 1.464.4.237.013 3.011c.014 1.645.041 3.485.041 4.085.028 1.254-.124 1.463-.868 1.198l-.427-.153v-1.199c0-.669-.041-2.607-.096-4.321l-.083-3.095h.317c.165 0 .482.112.703.237zm-47.986 5.409c.248 2.676.648 7.193.91 10.037l.468 5.157-.537.544-.524.544-.096-1.102c-.055-.613-.331-3.457-.62-6.328-.29-2.872-.703-7.04-.91-9.256l-.386-4.015.538-.502c.482-.46.537-.474.634-.223.055.14.289 2.453.523 5.144zm-10.322 1.687c.303 2.746 1.103 10.05 1.792 16.226.689 6.175 1.337 12.127 1.46 13.243.11 1.115.304 2.802.414 3.763.193 1.631.193 1.743-.028 1.91-.33.251-.468.223-.468-.07 0-.125-.124-1.184-.276-2.327-.248-1.91-.661-5.144-1.585-12.407a1106.94 1106.94 0 0 1-.826-6.482 2198.593 2198.593 0 0 1-1.723-13.564c-.248-1.896-.4-3.582-.358-3.764.096-.376.91-1.686.992-1.603.028.042.303 2.314.606 5.075zm-4.217 6.008c.207 1.672.593 4.725.855 6.802.262 2.064.592 4.642.744 5.716l.262 1.951-.29.251c-.165.14-.33.195-.386.14-.055-.056-.165-.614-.248-1.227-.082-.613-.592-4.196-1.143-7.946l-.979-6.83.317-.948c.165-.516.345-.934.386-.934.055 0 .262 1.366.482 3.025zm75.658-1.826c.193.195.22 1.059.22 7.457v7.235H93.1c-.841 0-.827.21-.882-7.709l-.042-7.207h.441c.235 0 .538.098.648.224zM63.097 47.54c3.115.474 5.83 1.352 8.517 2.746 1.736.906 2.563 1.533 4.493 3.401 2.866 2.774 4.63 5.2 6.284 8.63 2.411 4.99 3.349 9.409 4.534 21.258.537 5.31 1.24 14.943 1.392 18.888.041 1.143.137 3.025.22 4.182.152 2.454.33 2.12-1.805 3.165-2.963 1.45-5.816 2.453-9.578 3.387-4.603 1.143-7.58 1.506-12.127 1.52l-3.308.014.028-1.604c0-.878.083-2.927.165-4.53.414-7.765.331-17.564-.206-23.001-.304-3.123-.896-6.914-1.227-7.75-.069-.182.248-.335 1.612-.81 2.495-.877 4.658-1.979 4.99-2.522.592-1.032-.47-2.51-1.82-2.51-.234 0-.937.251-1.585.544-3.087 1.436-9.274 3.123-12.844 3.5-2.466.264-6.298.11-8.957-.377-1.447-.265-4.038-1.255-6.202-2.384-2.494-1.31-4.024-3.053-4.479-5.116-.248-1.115-.179-3.346.138-4.6.345-1.38 1.31-3.388 2.191-4.559 3.928-5.227 12.031-9.758 20.341-11.347 2.646-.502 6.395-.557 9.233-.125zm42.515.432c.496.209.551.265.551.739.028 3.805-.055 12.504-.124 12.866-.014.126-.73.14-1.034.028-.193-.07-.22-.822-.22-6.97 0-4.405.055-6.886.138-6.886.069 0 .386.097.689.223zm6.022 7.653.496.21-.096 11.541c-.11 14.707-.124 15.14-.648 16.408-.854 2.077-.813 2.495-.73-6.622.027-4.558.096-9.172.124-10.246.027-1.073.055-4.098.069-6.733 0-3.178.04-4.767.137-4.767.083 0 .372.097.648.209zm-82.879 3.471c.083 1.13.055 1.24-.344 2.133l-.441.948-.166-1.394c-.262-2.23-.262-2.328.262-2.663.234-.167.482-.279.524-.25.041.027.124.585.165 1.226zm-8.517 8.406c.125 1.143 1.09 8.726 1.585 12.448.744 5.758.8 6.58.469 6.231-.041-.041-.358-1.979-.69-4.307-2.149-15.027-2.135-14.93-1.956-15.041.372-.251.496-.112.592.669zm9.923 6.384c.082.349.482 4.127.482 4.587 0 .39-.496.752-.716.53-.07-.07-.249-1.255-.386-2.621-.152-1.38-.304-2.816-.345-3.193l-.083-.697.483.558c.275.307.523.683.565.836zm11.121 5.256c.152.14.248.697.372 2.202.207 2.719.234 2.51-.33 2.51-.58 0-.566.041-.759-2.412-.192-2.495-.192-2.468.18-2.468.179 0 .413.084.537.168zm10.915.209c.027.14.096.976.151 1.854.042.878.166 2.858.276 4.391.386 5.632.4 6.343.165 6.343-.262 0-.29-.21-.592-4.182a297.54 297.54 0 0 0-.455-5.758c-.124-1.519-.207-2.788-.166-2.815.152-.168.552-.042.62.167zm-25.909 2.676c.083.126.607 4.587 1.254 10.678.193 1.84.386 3.61.428 3.945l.069.6-.345-.223c-.262-.181-.358-.363-.358-.683 0-.878-.593-6.664-1.048-10.204-.261-2.008-.468-3.778-.468-3.945 0-.293.33-.405.468-.168zm79.53 5.827-.096 5.827-.344.516c-.786 1.17-.745 1.394-.703-5.13l.027-5.98.51-.53c.276-.279.551-.516.606-.516.042 0 .042 2.621 0 5.813zm-12.747 9.242c.069 8.1.055 8.727-.165 8.978-.138.153-.262.25-.303.209-.097-.112-.235-17.774-.125-17.871.056-.056.193-.084.317-.07.18.042.221 1.032.276 8.754zm-45.009-5.548c.097.865.441 5.005.58 6.956.082 1.31.082 1.353-.221 1.45-.166.056-.359.042-.414-.028-.096-.097-.4-3.192-.772-7.96l-.096-1.143h.427c.4 0 .427.028.496.725zm-10.832 4.88c.097.097.166.445.166.794 0 .362.165 2.244.344 4.196.524 5.339.565 6.064.331 5.924-.358-.209-.675-.53-.606-.613.027-.056-.028-.753-.138-1.547a70.023 70.023 0 0 1-.276-2.928 92.368 92.368 0 0 0-.29-3.276c-.26-2.44-.247-2.718.056-2.718.138 0 .317.07.413.167zm6.519 9.381c.041.307.124 1.45.179 2.537.096 2.091.055 2.244-.51 1.812-.165-.125-.275-.655-.44-2.244-.29-2.872-.304-2.76.233-2.704.4.041.455.097.538.599z"/><path d="M38.83 54.217c-1.434.627-1.544 2.593-.194 3.29.979.502 1.97.265 2.48-.6.965-1.589-.606-3.429-2.287-2.69zm9.343 1.338c-1.323.823-1.323 2.802 0 3.625 1.309.794 3.004-.251 3.004-1.84 0-1.534-1.737-2.565-3.004-1.785z"/></svg>