<svg xmlns="http://www.w3.org/2000/svg" width="150" height="150" fill="none"><g clip-path="url(#a)"><path fill="#512BD4" d="M150 0H0v150h150V0Z"/><path fill="#fff" d="M26.734 95.833c-1.06 0-1.962-.353-2.704-1.06-.743-.725-1.114-1.586-1.114-2.582 0-1.016.371-1.885 1.114-2.61.742-.725 1.644-1.088 2.704-1.088 1.078 0 1.989.363 2.731 1.088.76.725 1.14 1.594 1.14 2.61 0 .996-.38 1.857-1.14 2.582-.742.707-1.652 1.06-2.73 1.06Zm42.399-.598H62.24L44.077 66.581c-.46-.725-.84-1.477-1.14-2.257h-.16c.142.834.212 2.62.212 5.356v25.555h-6.098V56.25h7.344L61.79 84.225c.742 1.16 1.22 1.957 1.432 2.392h.106c-.177-1.033-.266-2.782-.266-5.247V56.25h6.072v38.985Zm29.698 0H77.486V56.25h20.497v5.492H83.797v11.037H96.87v5.465H83.797V89.77h15.034v5.464Zm30.335-33.493h-10.924v33.493h-6.311V61.742h-10.898V56.25h28.133v5.492Z"/></g><defs><clipPath id="a"><path fill="#fff" d="M0 0h150v150H0z"/></clipPath></defs></svg>