<?xml version="1.0" encoding="utf-8"?>
<svg viewBox="0 0 128 128" xmlns="http://www.w3.org/2000/svg">
  <linearGradient id="a" gradientUnits="userSpaceOnUse" x1="70.252" y1="1237.476" x2="170.659" y2="1151.089" gradientTransform="matrix(0.563, 0, 0, -0.568, -29.215, 716.817017)">
    <stop offset="0" stop-color="#5A9FD4"/>
    <stop offset="1" stop-color="#306998"/>
  </linearGradient>
  <path fill="url(#a)" d="M 63.391 10.988 C 59.169 11.008 55.139 11.367 51.591 11.995 C 41.141 13.841 39.245 17.705 39.245 24.832 L 39.245 34.243 L 63.938 34.243 L 63.938 37.38 L 29.977 37.38 C 22.801 37.38 16.517 41.693 14.551 49.901 C 12.283 59.306 12.183 65.176 14.551 74.997 C 16.306 82.308 20.498 87.516 27.675 87.516 L 36.166 87.516 L 36.166 76.234 C 36.166 68.083 43.217 60.894 51.592 60.894 L 76.257 60.894 C 83.123 60.894 88.603 55.24 88.603 48.346 L 88.603 24.833 C 88.603 18.14 82.957 13.113 76.257 11.996 C 72.013 11.29 67.612 10.969 63.391 10.988 Z M 50.037 18.557 C 52.587 18.557 54.671 20.674 54.671 23.278 C 54.671 25.871 52.588 27.968 50.037 27.968 C 47.477 27.968 45.404 25.871 45.404 23.278 C 45.403 20.674 47.477 18.557 50.037 18.557 Z"/>
  <linearGradient id="b" gradientUnits="userSpaceOnUse" x1="209.474" y1="1098.811" x2="173.62" y2="1149.537" gradientTransform="matrix(0.563, 0, 0, -0.568, -29.215, 716.817017)">
    <stop offset="0" stop-color="#FFD43B"/>
    <stop offset="1" stop-color="#FFE873"/>
  </linearGradient>
  <path fill="url(#b)" d="M 91.682 37.38 L 91.682 48.346 C 91.682 56.846 84.474 64.001 76.256 64.001 L 51.591 64.001 C 44.835 64.001 39.245 69.784 39.245 76.55 L 39.245 100.065 C 39.245 106.756 45.063 110.693 51.591 112.612 C 59.407 114.909 66.903 115.325 76.256 112.612 C 82.472 110.811 88.602 107.189 88.602 100.065 L 88.602 90.653 L 63.938 90.653 L 63.938 87.515 L 100.95 87.515 C 108.126 87.515 110.802 82.51 113.298 74.996 C 115.876 67.261 115.765 59.822 113.298 49.9 C 111.524 42.755 108.137 37.379 100.95 37.379 L 91.682 37.379 Z M 77.809 96.927 C 80.37 96.927 82.443 99.024 82.443 101.619 C 82.443 104.221 80.369 106.338 77.809 106.338 C 75.259 106.338 73.176 104.221 73.176 101.619 C 73.176 99.024 75.259 96.927 77.809 96.927 Z"/>
</svg>