<svg xmlns="http://www.w3.org/2000/svg" preserveAspectRatio="xMidYMid" viewBox="0 0 256 256"><defs><linearGradient id="a" x1="0" x2="1" y1=".5" y2=".5"><stop offset="0" stop-color="#4F4F4F"/><stop offset="1"/></linearGradient><linearGradient id="b" x1="0" x2="1" y1=".5" y2=".5"><stop offset="0" stop-color="#C40000"/><stop offset="1" stop-color="red"/></linearGradient></defs><path fill="url(#a)" d="M0 288v-32c0-5.394 116.377-14.428 192.2-32 36.628 8.49 63.8 18.969 63.8 32v32c0 13.024-27.172 23.51-63.8 32C116.376 302.425 0 293.39 0 288" transform="matrix(.59234 0 0 -.59234 52.181 327.025)"/><path fill="url(#a)" d="M0 160v-32c0-5.394 116.377-14.428 192.2-32 36.628 8.49 63.8 18.969 63.8 32v32c0 13.024-27.172 23.51-63.8 32C116.376 174.425 0 165.39 0 160" transform="matrix(.59234 0 0 -.59234 52.181 175.387)"/><path fill="url(#b)" d="M0 224v-96c0 8 256 24 256 64v96c0-40-256-56-256-64" transform="matrix(.59234 0 0 -.59234 52.181 251.206)"/><path fill="url(#b)" d="M0 96V0c0 8 256 24 256 64v96c0-40-256-56-256-64" transform="matrix(.59234 0 0 -.59234 52.181 99.568)"/><path fill="url(#b)" d="M0 352v-96c0 8 256 24 256 64v96c0-40-256-56-256-64" transform="matrix(.59234 0 0 -.59234 52.181 402.844)"/></svg>