<svg xmlns="http://www.w3.org/2000/svg" viewBox="0 0 128 128"><path d="M110.846 18.026C99.182 1.33 76.145-3.618 59.489 6.995L30.236 25.639a33.56 33.56 0 0 0-15.161 22.479 35.348 35.348 0 0 0 3.485 22.691 33.647 33.647 0 0 0-5.02 12.543 35.767 35.767 0 0 0 6.109 27.047c11.668 16.695 34.704 21.641 51.358 11.029l29.252-18.644a33.555 33.555 0 0 0 15.162-22.479 35.364 35.364 0 0 0-3.482-22.69 33.671 33.671 0 0 0 5.017-12.543 35.75 35.75 0 0 0-6.109-27.046" style="fill:#ff3e00"/><path d="M56.632 111.968a23.235 23.235 0 0 1-24.94-9.243 21.5 21.5 0 0 1-3.675-16.266c.17-.925.404-1.837.699-2.731l.551-1.68 1.499 1.1a37.687 37.687 0 0 0 11.443 5.718l1.086.329-.1 1.085a6.56 6.56 0 0 0 1.181 4.35 6.995 6.995 0 0 0 7.508 2.788 6.442 6.442 0 0 0 1.797-.791l29.254-18.641a6.089 6.089 0 0 0 2.748-4.072 6.493 6.493 0 0 0-1.107-4.903 7 7 0 0 0-7.512-2.789 6.457 6.457 0 0 0-1.795.79l-11.162 7.116a21.325 21.325 0 0 1-5.941 2.607 23.235 23.235 0 0 1-24.939-9.244 21.497 21.497 0 0 1-3.675-16.265A20.174 20.174 0 0 1 38.67 37.71l29.251-18.643a21.316 21.316 0 0 1 5.944-2.613 23.239 23.239 0 0 1 24.94 9.245 21.504 21.504 0 0 1 3.675 16.265 20.763 20.763 0 0 1-.699 2.732l-.551 1.68-1.498-1.099a37.732 37.732 0 0 0-11.444-5.72l-1.088-.33.102-1.085a6.588 6.588 0 0 0-1.18-4.35 7.003 7.003 0 0 0-7.51-2.787 6.498 6.498 0 0 0-1.797.79L47.562 50.439a6.079 6.079 0 0 0-2.747 4.071 6.489 6.489 0 0 0 1.106 4.902 7.003 7.003 0 0 0 7.512 2.789 6.551 6.551 0 0 0 1.797-.789l11.16-7.114a21.287 21.287 0 0 1 5.94-2.611 23.236 23.236 0 0 1 24.94 9.244 21.508 21.508 0 0 1 3.676 16.265 20.194 20.194 0 0 1-9.12 13.52l-29.25 18.641a21.266 21.266 0 0 1-5.944 2.611" style="fill:#fff"/></svg>