<svg width="42" height="40" viewBox="0 0 42 40" fill="none" xmlns="http://www.w3.org/2000/svg">
<path d="M17.9351 33.6471V33C17.9351 27.4772 22.4122 23 27.9351 23C33.4579 23 37.9351 27.4771 37.9351 33V33.6471H27.9351H17.9351Z" fill="url(#paint0_linear_3129_11876)" stroke="#FD366E" stroke-width="1.2" stroke-linecap="round" stroke-linejoin="round"/>
<circle cx="27.9351" cy="17" r="5.4" stroke="#FD366E" stroke-width="1.2"/>
<circle cx="14.9351" cy="13" r="5.4" stroke="#FD366E" stroke-width="1.2"/>
<path fill-rule="evenodd" clip-rule="evenodd" d="M4.93506 29V29.6471H14.9351H17.9351H18.502C18.8019 28.7938 19.2587 27.9181 19.8667 27.0823C20.9513 25.5915 22.3054 24.5196 23.6004 24.0055C21.8722 21.0135 18.6388 19 14.9351 19C9.41221 19 4.93506 23.4772 4.93506 29Z" fill="url(#paint1_linear_3129_11876)"/>
<path d="M4.93506 29.6471H4.33506C4.33506 29.9784 4.60369 30.2471 4.93506 30.2471V29.6471ZM18.502 29.6471V30.2471C18.7567 30.2471 18.9836 30.0863 19.0681 29.846L18.502 29.6471ZM19.8667 27.0823L20.3519 27.4353L19.8667 27.0823ZM23.6004 24.0055L23.8218 24.5632C23.9838 24.4989 24.1099 24.3672 24.1672 24.2025C24.2244 24.0379 24.2072 23.8564 24.12 23.7054L23.6004 24.0055ZM5.53506 29.6471V29H4.33506V29.6471H5.53506ZM14.9351 29.0471H4.93506V30.2471H14.9351V29.0471ZM17.9351 29.0471H14.9351V30.2471H17.9351V29.0471ZM18.502 29.0471H17.9351V30.2471H18.502V29.0471ZM19.0681 29.846C19.3478 29.0504 19.7765 28.2262 20.3519 27.4353L19.3815 26.7294C18.7408 27.61 18.2561 28.5373 17.936 29.4481L19.0681 29.846ZM20.3519 27.4353C21.3821 26.0193 22.6503 25.0282 23.8218 24.5632L23.3791 23.4478C21.9605 24.0109 20.5206 25.1637 19.3815 26.7294L20.3519 27.4353ZM14.9351 19.6C18.4158 19.6 21.4554 21.4915 23.0809 24.3056L24.12 23.7054C22.2889 20.5354 18.8617 18.4 14.9351 18.4V19.6ZM5.53506 29C5.53506 23.8085 9.74358 19.6 14.9351 19.6V18.4C9.08084 18.4 4.33506 23.1458 4.33506 29H5.53506Z" fill="#FD366E"/>
<defs>
<linearGradient id="paint0_linear_3129_11876" x1="27.9351" y1="23" x2="27.9351" y2="42" gradientUnits="userSpaceOnUse">
<stop stop-color="#FD366E" stop-opacity="0"/>
<stop offset="1" stop-color="#FD366E" stop-opacity="0.6"/>
</linearGradient>
<linearGradient id="paint1_linear_3129_11876" x1="14.9354" y1="19" x2="14.9354" y2="38" gradientUnits="userSpaceOnUse">
<stop stop-color="#FD366E" stop-opacity="0"/>
<stop offset="1" stop-color="#FD366E" stop-opacity="0.6"/>
</linearGradient>
</defs>
</svg>
