<svg width="173" height="224" viewBox="0 0 173 224" fill="none" xmlns="http://www.w3.org/2000/svg">
<g opacity="0.25" filter="url(#filter0_b_13_11062)">
<path fill-rule="evenodd" clip-rule="evenodd" d="M197.601 62.1467C197.601 100.88 167.808 132.279 131.056 132.279C124.333 132.279 117.842 131.228 111.725 129.274L86.6918 155.656H64.5099V179.034H20.146V132.279L67.361 82.5192C65.5068 76.072 64.5099 69.2321 64.5099 62.1467C64.5099 23.4138 94.3034 -7.98541 131.056 -7.98541C167.808 -7.98541 197.601 23.4138 197.601 62.1467Z" fill="white" fill-opacity="0.04"/>
<path fill-rule="evenodd" clip-rule="evenodd" d="M197.601 62.1467C197.601 100.88 167.808 132.279 131.056 132.279C124.333 132.279 117.842 131.228 111.725 129.274L86.6918 155.656H64.5099V179.034H20.146V132.279L67.361 82.5192C65.5068 76.072 64.5099 69.2321 64.5099 62.1467C64.5099 23.4138 94.3034 -7.98541 131.056 -7.98541C167.808 -7.98541 197.601 23.4138 197.601 62.1467Z" fill="url(#paint0_linear_13_11062)" fill-opacity="0.15"/>
</g>
<g opacity="0.25" filter="url(#filter1_b_13_11062)">
<path fill-rule="evenodd" clip-rule="evenodd" d="M197.601 62.1467C197.601 100.88 167.808 132.279 131.056 132.279C124.333 132.279 117.842 131.228 111.725 129.274L86.6918 155.656H64.5099V179.034H20.146V132.279L67.361 82.5192C65.5068 76.072 64.5099 69.232 64.5099 62.1467C64.5099 23.4138 94.3034 -7.98541 131.056 -7.98541C167.808 -7.98541 197.601 23.4138 197.601 62.1467Z" fill="white" fill-opacity="0.04"/>
<path fill-rule="evenodd" clip-rule="evenodd" d="M197.601 62.1467C197.601 100.88 167.808 132.279 131.056 132.279C124.333 132.279 117.842 131.228 111.725 129.274L86.6918 155.656H64.5099V179.034H20.146V132.279L67.361 82.5192C65.5068 76.072 64.5099 69.232 64.5099 62.1467C64.5099 23.4138 94.3034 -7.98541 131.056 -7.98541C167.808 -7.98541 197.601 23.4138 197.601 62.1467Z" fill="url(#paint1_linear_13_11062)" fill-opacity="0.15"/>
</g>
<path d="M111.725 129.43C117.842 131.384 124.333 132.435 131.056 132.435C163.076 132.435 189.815 108.6 196.169 76.8462" stroke="url(#paint2_linear_13_11062)" stroke-width="0.96251" stroke-linecap="round"/>
<path d="M108.342 133.164L99.6042 142.374L88.1841 154.239" stroke="url(#paint3_linear_13_11062)" stroke-width="0.96251" stroke-linecap="round"/>
<path d="M64.5098 179.189V157.583C64.5098 156.605 65.3027 155.812 66.2808 155.812H84.2566" stroke="url(#paint4_linear_13_11062)" stroke-width="0.96251" stroke-linecap="round"/>
<path d="M58.577 179.189H21.917C20.9389 179.189 20.146 178.396 20.146 177.418V133.141C20.146 132.687 20.3201 132.251 20.6323 131.922L60.8793 89.5061" stroke="url(#paint5_linear_13_11062)" stroke-width="0.96251" stroke-linecap="round"/>
<path d="M67.3612 82.6751C65.7379 77.0307 64.7716 71.0853 64.5562 64.9378" stroke="url(#paint6_linear_13_11062)" stroke-width="0.963431" stroke-linecap="round"/>
<path d="M197.602 62.3025C197.602 23.5696 167.808 -7.82959 131.056 -7.82959C95.1408 -7.82959 65.871 22.1554 64.5562 59.6673" stroke="url(#paint7_linear_13_11062)" stroke-width="0.96251" stroke-linecap="round"/>
<path d="M131.056 -16.6846C88.9809 -16.6846 55.655 19.1229 55.655 62.3026" stroke="url(#paint8_linear_13_11062)" stroke-width="0.96251" stroke-linecap="round"/>
<path d="M192.253 15.0667C182.287 0.639707 168.068 -9.0024 152.3 -13.5658" stroke="url(#paint9_linear_13_11062)" stroke-width="0.96251" stroke-linecap="round"/>
<g filter="url(#filter2_f_13_11062)">
<g style="mix-blend-mode:screen" filter="url(#filter3_f_13_11062)">
<circle cx="8.82338" cy="8.82338" r="8.82338" transform="matrix(-4.37114e-08 1 1 4.37114e-08 55.6296 50.5214)" fill="url(#paint10_radial_13_11062)" fill-opacity="0.5"/>
</g>
<g style="mix-blend-mode:screen">
<circle cx="4.83863" cy="4.83863" r="4.83863" transform="matrix(-4.37114e-08 1 1 4.37114e-08 59.6143 54.5057)" fill="url(#paint11_radial_13_11062)"/>
</g>
</g>
<g opacity="0.15" filter="url(#filter4_f_13_11062)">
<g style="mix-blend-mode:screen" filter="url(#filter5_f_13_11062)">
<circle cx="26.7837" cy="26.7837" r="26.7837" transform="matrix(-4.37114e-08 1 1 4.37114e-08 169.433 49.5629)" fill="url(#paint12_radial_13_11062)" fill-opacity="0.5"/>
</g>
</g>
<g filter="url(#filter6_f_13_11062)">
<g style="mix-blend-mode:screen" filter="url(#filter7_f_13_11062)">
<circle cx="9.17765" cy="9.17765" r="9.17765" transform="matrix(-4.37114e-08 1 1 4.37114e-08 11 169.888)" fill="url(#paint13_radial_13_11062)" fill-opacity="0.5"/>
</g>
<g style="mix-blend-mode:screen">
<circle cx="5.0329" cy="5.0329" r="5.0329" transform="matrix(-4.37114e-08 1 1 4.37114e-08 15.1448 174.032)" fill="url(#paint14_radial_13_11062)"/>
</g>
</g>
<path d="M131.764 141.134C152.925 141.134 171.873 132.077 185.482 117.579" stroke="url(#paint15_linear_13_11062)" stroke-width="0.96251" stroke-linecap="round"/>
<path d="M112.416 141.311L89.2156 164.511" stroke="url(#paint16_linear_13_11062)" stroke-width="0.96251" stroke-linecap="round"/>
<path d="M53.4411 187.623L37.1479 187.623" stroke="url(#paint17_linear_13_11062)" stroke-width="0.96251" stroke-linecap="round"/>
<path d="M23.8025 115.922L46.8881 92.6082" stroke="url(#paint18_linear_13_11062)" stroke-width="0.96251" stroke-linecap="round"/>
<path d="M13.0621 126.08L19.1463 120.122" stroke="url(#paint19_linear_13_11062)" stroke-width="0.96251" stroke-linecap="round"/>
<defs>
<filter id="filter0_b_13_11062" x="-68.4605" y="-96.5919" width="354.668" height="364.232" filterUnits="userSpaceOnUse" color-interpolation-filters="sRGB">
<feFlood flood-opacity="0" result="BackgroundImageFix"/>
<feGaussianBlur in="BackgroundImageFix" stdDeviation="44.3032"/>
<feComposite in2="SourceAlpha" operator="in" result="effect1_backgroundBlur_13_11062"/>
<feBlend mode="normal" in="SourceGraphic" in2="effect1_backgroundBlur_13_11062" result="shape"/>
</filter>
<filter id="filter1_b_13_11062" x="-68.4605" y="-96.5919" width="354.668" height="364.232" filterUnits="userSpaceOnUse" color-interpolation-filters="sRGB">
<feFlood flood-opacity="0" result="BackgroundImageFix"/>
<feGaussianBlur in="BackgroundImageFix" stdDeviation="44.3032"/>
<feComposite in2="SourceAlpha" operator="in" result="effect1_backgroundBlur_13_11062"/>
<feBlend mode="normal" in="SourceGraphic" in2="effect1_backgroundBlur_13_11062" result="shape"/>
</filter>
<filter id="filter2_f_13_11062" x="50.752" y="45.6438" width="27.402" height="27.4021" filterUnits="userSpaceOnUse" color-interpolation-filters="sRGB">
<feFlood flood-opacity="0" result="BackgroundImageFix"/>
<feBlend mode="normal" in="SourceGraphic" in2="BackgroundImageFix" result="shape"/>
<feGaussianBlur stdDeviation="2.43882" result="effect1_foregroundBlur_13_11062"/>
</filter>
<filter id="filter3_f_13_11062" x="45.8744" y="40.7661" width="37.1573" height="37.1574" filterUnits="userSpaceOnUse" color-interpolation-filters="sRGB">
<feFlood flood-opacity="0" result="BackgroundImageFix"/>
<feBlend mode="normal" in="SourceGraphic" in2="BackgroundImageFix" result="shape"/>
<feGaussianBlur stdDeviation="4.87764" result="effect1_foregroundBlur_13_11062"/>
</filter>
<filter id="filter4_f_13_11062" x="154.626" y="34.7566" width="83.1798" height="83.1798" filterUnits="userSpaceOnUse" color-interpolation-filters="sRGB">
<feFlood flood-opacity="0" result="BackgroundImageFix"/>
<feBlend mode="normal" in="SourceGraphic" in2="BackgroundImageFix" result="shape"/>
<feGaussianBlur stdDeviation="7.40311" result="effect1_foregroundBlur_13_11062"/>
</filter>
<filter id="filter5_f_13_11062" x="139.82" y="19.9504" width="112.792" height="112.792" filterUnits="userSpaceOnUse" color-interpolation-filters="sRGB">
<feFlood flood-opacity="0" result="BackgroundImageFix"/>
<feBlend mode="normal" in="SourceGraphic" in2="BackgroundImageFix" result="shape"/>
<feGaussianBlur stdDeviation="14.8062" result="effect1_foregroundBlur_13_11062"/>
</filter>
<filter id="filter6_f_13_11062" x="5.92652" y="164.814" width="28.5022" height="28.5022" filterUnits="userSpaceOnUse" color-interpolation-filters="sRGB">
<feFlood flood-opacity="0" result="BackgroundImageFix"/>
<feBlend mode="normal" in="SourceGraphic" in2="BackgroundImageFix" result="shape"/>
<feGaussianBlur stdDeviation="2.53674" result="effect1_foregroundBlur_13_11062"/>
</filter>
<filter id="filter7_f_13_11062" x="0.853037" y="159.741" width="38.6492" height="38.6492" filterUnits="userSpaceOnUse" color-interpolation-filters="sRGB">
<feFlood flood-opacity="0" result="BackgroundImageFix"/>
<feBlend mode="normal" in="SourceGraphic" in2="BackgroundImageFix" result="shape"/>
<feGaussianBlur stdDeviation="5.07348" result="effect1_foregroundBlur_13_11062"/>
</filter>
<linearGradient id="paint0_linear_13_11062" x1="108.874" y1="112.83" x2="108.874" y2="179.034" gradientUnits="userSpaceOnUse">
<stop stop-color="white" stop-opacity="0"/>
<stop offset="1" stop-color="white"/>
</linearGradient>
<linearGradient id="paint1_linear_13_11062" x1="108.874" y1="112.83" x2="108.874" y2="179.034" gradientUnits="userSpaceOnUse">
<stop stop-color="white" stop-opacity="0"/>
<stop offset="1" stop-color="white"/>
</linearGradient>
<linearGradient id="paint2_linear_13_11062" x1="100.019" y1="121.83" x2="142.67" y2="78.7968" gradientUnits="userSpaceOnUse">
<stop offset="0.0513982" stop-color="white" stop-opacity="0"/>
<stop offset="1" stop-color="white"/>
</linearGradient>
<linearGradient id="paint3_linear_13_11062" x1="88.0937" y1="154.738" x2="96.6425" y2="128.86" gradientUnits="userSpaceOnUse">
<stop offset="0.104404" stop-color="white" stop-opacity="0"/>
<stop offset="1" stop-color="white"/>
</linearGradient>
<linearGradient id="paint4_linear_13_11062" x1="64.4212" y1="179.742" x2="74.869" y2="151.813" gradientUnits="userSpaceOnUse">
<stop offset="0.104404" stop-color="white" stop-opacity="0"/>
<stop offset="1" stop-color="white"/>
</linearGradient>
<linearGradient id="paint5_linear_13_11062" x1="63.0045" y1="85.7012" x2="91.3718" y2="168.599" gradientUnits="userSpaceOnUse">
<stop offset="0.0476086" stop-color="white" stop-opacity="0"/>
<stop offset="1" stop-color="white"/>
</linearGradient>
<linearGradient id="paint6_linear_13_11062" x1="65.9587" y1="64.9378" x2="68.4948" y2="82.6905" gradientUnits="userSpaceOnUse">
<stop offset="0.1" stop-color="white" stop-opacity="0"/>
<stop offset="1" stop-color="white"/>
</linearGradient>
<linearGradient id="paint7_linear_13_11062" x1="131.011" y1="-30.4773" x2="203.689" y2="-25.6622" gradientUnits="userSpaceOnUse">
<stop stop-color="white"/>
<stop offset="1" stop-color="white" stop-opacity="0"/>
</linearGradient>
<linearGradient id="paint8_linear_13_11062" x1="53.7955" y1="63.7407" x2="119.936" y2="-30.4412" gradientUnits="userSpaceOnUse">
<stop offset="0.137506" stop-color="white" stop-opacity="0"/>
<stop offset="1" stop-color="white"/>
</linearGradient>
<linearGradient id="paint9_linear_13_11062" x1="140.907" y1="-21.6877" x2="202.446" y2="7.81833" gradientUnits="userSpaceOnUse">
<stop offset="0.272355" stop-color="white" stop-opacity="0"/>
<stop offset="1" stop-color="white"/>
</linearGradient>
<radialGradient id="paint10_radial_13_11062" cx="0" cy="0" r="1" gradientUnits="userSpaceOnUse" gradientTransform="translate(8.82338 8.82338) rotate(90) scale(8.82338)">
<stop stop-color="white"/>
<stop offset="1" stop-color="white" stop-opacity="0"/>
</radialGradient>
<radialGradient id="paint11_radial_13_11062" cx="0" cy="0" r="1" gradientUnits="userSpaceOnUse" gradientTransform="translate(4.83863 4.83863) rotate(90) scale(4.83863)">
<stop stop-color="white"/>
<stop offset="1" stop-color="white" stop-opacity="0"/>
</radialGradient>
<radialGradient id="paint12_radial_13_11062" cx="0" cy="0" r="1" gradientUnits="userSpaceOnUse" gradientTransform="translate(26.7837 26.7837) rotate(90) scale(26.7837)">
<stop stop-color="white"/>
<stop offset="1" stop-color="white" stop-opacity="0"/>
</radialGradient>
<radialGradient id="paint13_radial_13_11062" cx="0" cy="0" r="1" gradientUnits="userSpaceOnUse" gradientTransform="translate(9.17765 9.17765) rotate(90) scale(9.17765)">
<stop stop-color="white"/>
<stop offset="1" stop-color="white" stop-opacity="0"/>
</radialGradient>
<radialGradient id="paint14_radial_13_11062" cx="0" cy="0" r="1" gradientUnits="userSpaceOnUse" gradientTransform="translate(5.0329 5.0329) rotate(90) scale(5.0329)">
<stop stop-color="white"/>
<stop offset="1" stop-color="white" stop-opacity="0"/>
</radialGradient>
<linearGradient id="paint15_linear_13_11062" x1="130.054" y1="142.008" x2="158.351" y2="98.4764" gradientUnits="userSpaceOnUse">
<stop stop-color="white"/>
<stop offset="0.941826" stop-color="white" stop-opacity="0"/>
</linearGradient>
<linearGradient id="paint16_linear_13_11062" x1="89.1115" y1="165.06" x2="98.1891" y2="136.332" gradientUnits="userSpaceOnUse">
<stop stop-color="white"/>
<stop offset="0.895596" stop-color="white" stop-opacity="0"/>
</linearGradient>
<linearGradient id="paint17_linear_13_11062" x1="36.6864" y1="187.937" x2="50.9941" y2="180.334" gradientUnits="userSpaceOnUse">
<stop stop-color="white"/>
<stop offset="0.895596" stop-color="white" stop-opacity="0"/>
</linearGradient>
<linearGradient id="paint18_linear_13_11062" x1="46.9895" y1="92.0593" x2="38.0535" y2="120.831" gradientUnits="userSpaceOnUse">
<stop stop-color="white"/>
<stop offset="0.895596" stop-color="white" stop-opacity="0"/>
</linearGradient>
<linearGradient id="paint19_linear_13_11062" x1="21.2087" y1="118.465" x2="17.9" y2="128.901" gradientUnits="userSpaceOnUse">
<stop stop-color="white"/>
<stop offset="0.803157" stop-color="white" stop-opacity="0"/>
</linearGradient>
</defs>
</svg>
