<svg width="320" height="170" viewBox="0 0 320 170" fill="none" xmlns="http://www.w3.org/2000/svg">
<g opacity="0.25" filter="url(#filter0_b_245_7850)">
<path fill-rule="evenodd" clip-rule="evenodd" d="M277.347 225.563C236.411 238.458 193.307 217.423 181.071 178.58C178.833 171.475 177.783 164.266 177.811 157.149L141.595 139.476L134.21 116.032L109.503 123.815L94.7332 76.9272L144.147 61.3617L212.456 94.6965C218.653 90.5904 225.55 87.2596 233.038 84.9007C273.974 72.0058 317.079 93.0407 329.314 131.883C341.55 170.726 318.283 212.668 277.347 225.563Z" fill="white" fill-opacity="0.04"/>
<path fill-rule="evenodd" clip-rule="evenodd" d="M277.347 225.563C236.411 238.458 193.307 217.423 181.071 178.58C178.833 171.475 177.783 164.266 177.811 157.149L141.595 139.476L134.21 116.032L109.503 123.815L94.7332 76.9272L144.147 61.3617L212.456 94.6965C218.653 90.5904 225.55 87.2596 233.038 84.9007C273.974 72.0058 317.079 93.0407 329.314 131.883C341.55 170.726 318.283 212.668 277.347 225.563Z" fill="url(#paint0_linear_245_7850)" fill-opacity="0.15"/>
</g>
<g opacity="0.25" filter="url(#filter1_b_245_7850)">
<path fill-rule="evenodd" clip-rule="evenodd" d="M277.347 225.563C236.411 238.458 193.307 217.423 181.071 178.58C178.833 171.475 177.783 164.265 177.811 157.149L141.595 139.476L134.21 116.032L109.503 123.815L94.7332 76.9272L144.147 61.3617L212.456 94.6965C218.653 90.5904 225.55 87.2596 233.038 84.9007C273.974 72.0058 317.079 93.0407 329.314 131.883C341.55 170.726 318.283 212.668 277.347 225.563Z" fill="white" fill-opacity="0.04"/>
<path fill-rule="evenodd" clip-rule="evenodd" d="M277.347 225.563C236.411 238.458 193.307 217.423 181.071 178.58C178.833 171.475 177.783 164.265 177.811 157.149L141.595 139.476L134.21 116.032L109.503 123.815L94.7332 76.9272L144.147 61.3617L212.456 94.6965C218.653 90.5904 225.55 87.2596 233.038 84.9007C273.974 72.0058 317.079 93.0407 329.314 131.883C341.55 170.726 318.283 212.668 277.347 225.563Z" fill="url(#paint1_linear_245_7850)" fill-opacity="0.15"/>
</g>
<path d="M177.646 157.201C177.618 164.317 178.668 171.526 180.906 178.632C191.567 212.474 225.659 232.798 261.334 228.942" stroke="url(#paint2_linear_245_7850)" stroke-width="1.06654" stroke-linecap="round"/>
<path d="M172.574 154.87L159.932 148.7L143.589 140.581" stroke="url(#paint3_linear_245_7850)" stroke-width="1.06654" stroke-linecap="round"/>
<path d="M109.338 123.866L132.173 116.673C133.207 116.347 134.309 116.922 134.635 117.955L140.619 136.954" stroke="url(#paint4_linear_245_7850)" stroke-width="1.06654" stroke-linecap="round"/>
<path d="M107.363 117.596L95.158 78.8507C94.8324 77.817 95.4064 76.715 96.4402 76.3894L143.236 61.6486C143.715 61.4976 144.234 61.5363 144.686 61.7568L202.914 90.172" stroke="url(#paint5_linear_245_7850)" stroke-width="1.06654" stroke-linecap="round"/>
<path d="M212.292 94.7484C217.717 91.1536 223.679 88.153 230.104 85.8787" stroke="url(#paint6_linear_245_7850)" stroke-width="1.06756" stroke-linecap="round"/>
<path d="M277.182 225.615C318.118 212.72 341.385 170.778 329.149 131.935C317.192 93.9775 275.757 73.0253 235.674 84.1241" stroke="url(#paint7_linear_245_7850)" stroke-width="1.06654" stroke-linecap="round"/>
<path d="M338.508 128.987C324.501 84.519 275.561 61.2185 229.926 75.5938" stroke="url(#paint8_linear_245_7850)" stroke-width="1.06654" stroke-linecap="round"/>
<path d="M325.324 204.236C337.254 188.9 342.711 170.662 342.284 152.478" stroke="url(#paint9_linear_245_7850)" stroke-width="1.06654" stroke-linecap="round"/>
<g filter="url(#filter2_f_245_7850)">
<g style="mix-blend-mode:screen" filter="url(#filter3_f_245_7850)">
<circle cx="9.77699" cy="9.77699" r="9.77699" transform="matrix(-0.953798 0.300448 0.300448 0.953798 242.368 71.6449)" fill="url(#paint10_radial_245_7850)" fill-opacity="0.5"/>
</g>
<g style="mix-blend-mode:screen">
<circle cx="5.36157" cy="5.36157" r="5.36157" transform="matrix(-0.953798 0.300448 0.300448 0.953798 239.484 77.1825)" fill="url(#paint11_radial_245_7850)"/>
</g>
</g>
<g opacity="0.15">
<g style="mix-blend-mode:screen" filter="url(#filter5_f_245_7850)">
<circle cx="29.6784" cy="29.6784" r="29.6784" transform="matrix(-0.953798 0.300448 0.300448 0.953798 281.269 191.602)" fill="url(#paint12_radial_245_7850)" fill-opacity="0.5"/>
</g>
</g>
<g filter="url(#filter6_f_245_7850)">
<g style="mix-blend-mode:screen" filter="url(#filter7_f_245_7850)">
<circle cx="10.1695" cy="10.1695" r="10.1695" transform="matrix(-0.953798 0.300448 0.300448 0.953798 101.354 64.2159)" fill="url(#paint13_radial_245_7850)" fill-opacity="0.5"/>
</g>
<g style="mix-blend-mode:screen">
<circle cx="5.57685" cy="5.57685" r="5.57685" transform="matrix(-0.953798 0.300448 0.300448 0.953798 98.354 69.976)" fill="url(#paint14_radial_245_7850)"/>
</g>
</g>
<path d="M165.32 161.887L133.076 145.091" stroke="url(#paint15_linear_245_7850)" stroke-width="1.06654" stroke-linecap="round"/>
<path d="M96.7398 114.976L91.3156 97.7556" stroke="url(#paint16_linear_245_7850)" stroke-width="1.06654" stroke-linecap="round"/>
<path d="M162.652 59.7807L194.978 76.4178" stroke="url(#paint17_linear_245_7850)" stroke-width="1.06654" stroke-linecap="round"/>
<path d="M148.34 51.811L156.663 56.2577" stroke="url(#paint18_linear_245_7850)" stroke-width="1.06654" stroke-linecap="round"/>
<defs>
<filter id="filter0_b_245_7850" x="-3.44987" y="-36.8211" width="434.207" height="364.361" filterUnits="userSpaceOnUse" color-interpolation-filters="sRGB">
<feFlood flood-opacity="0" result="BackgroundImageFix"/>
<feGaussianBlur in="BackgroundImageFix" stdDeviation="49.0914"/>
<feComposite in2="SourceAlpha" operator="in" result="effect1_backgroundBlur_245_7850"/>
<feBlend mode="normal" in="SourceGraphic" in2="effect1_backgroundBlur_245_7850" result="shape"/>
</filter>
<filter id="filter1_b_245_7850" x="-3.44939" y="-36.8211" width="434.207" height="364.361" filterUnits="userSpaceOnUse" color-interpolation-filters="sRGB">
<feFlood flood-opacity="0" result="BackgroundImageFix"/>
<feGaussianBlur in="BackgroundImageFix" stdDeviation="49.0914"/>
<feComposite in2="SourceAlpha" operator="in" result="effect1_backgroundBlur_245_7850"/>
<feBlend mode="normal" in="SourceGraphic" in2="effect1_backgroundBlur_245_7850" result="shape"/>
</filter>
<filter id="filter2_f_245_7850" x="220.796" y="68.7232" width="30.3687" height="30.3688" filterUnits="userSpaceOnUse" color-interpolation-filters="sRGB">
<feFlood flood-opacity="0" result="BackgroundImageFix"/>
<feBlend mode="normal" in="SourceGraphic" in2="BackgroundImageFix" result="shape"/>
<feGaussianBlur stdDeviation="2.7024" result="effect1_foregroundBlur_245_7850"/>
</filter>
<filter id="filter3_f_245_7850" x="215.391" y="63.3184" width="41.1783" height="41.1784" filterUnits="userSpaceOnUse" color-interpolation-filters="sRGB">
<feFlood flood-opacity="0" result="BackgroundImageFix"/>
<feBlend mode="normal" in="SourceGraphic" in2="BackgroundImageFix" result="shape"/>
<feGaussianBlur stdDeviation="5.4048" result="effect1_foregroundBlur_245_7850"/>
</filter>
<filter id="filter5_f_245_7850" x="199.379" y="166.327" width="124.998" height="124.998" filterUnits="userSpaceOnUse" color-interpolation-filters="sRGB">
<feFlood flood-opacity="0" result="BackgroundImageFix"/>
<feBlend mode="normal" in="SourceGraphic" in2="BackgroundImageFix" result="shape"/>
<feGaussianBlur stdDeviation="16.4064" result="effect1_foregroundBlur_245_7850"/>
</filter>
<filter id="filter6_f_245_7850" x="78.9158" y="61.177" width="31.5879" height="31.5881" filterUnits="userSpaceOnUse" color-interpolation-filters="sRGB">
<feFlood flood-opacity="0" result="BackgroundImageFix"/>
<feBlend mode="normal" in="SourceGraphic" in2="BackgroundImageFix" result="shape"/>
<feGaussianBlur stdDeviation="2.8109" result="effect1_foregroundBlur_245_7850"/>
</filter>
<filter id="filter7_f_245_7850" x="73.294" y="55.5552" width="42.8315" height="42.8317" filterUnits="userSpaceOnUse" color-interpolation-filters="sRGB">
<feFlood flood-opacity="0" result="BackgroundImageFix"/>
<feBlend mode="normal" in="SourceGraphic" in2="BackgroundImageFix" result="shape"/>
<feGaussianBlur stdDeviation="5.62181" result="effect1_foregroundBlur_245_7850"/>
</filter>
<linearGradient id="paint0_linear_245_7850" x1="194.242" y1="148.661" x2="124.272" y2="170.702" gradientUnits="userSpaceOnUse">
<stop stop-color="white" stop-opacity="0"/>
<stop offset="1" stop-color="white"/>
</linearGradient>
<linearGradient id="paint1_linear_245_7850" x1="194.242" y1="148.661" x2="124.272" y2="170.702" gradientUnits="userSpaceOnUse">
<stop stop-color="white" stop-opacity="0"/>
<stop offset="1" stop-color="white"/>
</linearGradient>
<linearGradient id="paint2_linear_245_7850" x1="181.781" y1="142.299" x2="241.462" y2="173.05" gradientUnits="userSpaceOnUse">
<stop offset="0.0513982" stop-color="white" stop-opacity="0"/>
<stop offset="1" stop-color="white"/>
</linearGradient>
<linearGradient id="paint3_linear_245_7850" x1="143.032" y1="140.651" x2="173.228" y2="141.071" gradientUnits="userSpaceOnUse">
<stop offset="0.104404" stop-color="white" stop-opacity="0"/>
<stop offset="1" stop-color="white"/>
</linearGradient>
<linearGradient id="paint4_linear_245_7850" x1="108.724" y1="123.957" x2="141.72" y2="125.701" gradientUnits="userSpaceOnUse">
<stop offset="0.104404" stop-color="white" stop-opacity="0"/>
<stop offset="1" stop-color="white"/>
</linearGradient>
<linearGradient id="paint5_linear_245_7850" x1="207.643" y1="91.1513" x2="129.473" y2="148.731" gradientUnits="userSpaceOnUse">
<stop offset="0.0476086" stop-color="white" stop-opacity="0"/>
<stop offset="1" stop-color="white"/>
</linearGradient>
<linearGradient id="paint6_linear_245_7850" x1="230.571" y1="87.361" x2="212.653" y2="95.9515" gradientUnits="userSpaceOnUse">
<stop offset="0.1" stop-color="white" stop-opacity="0"/>
<stop offset="1" stop-color="white"/>
</linearGradient>
<linearGradient id="paint7_linear_245_7850" x1="353.07" y1="124.349" x2="372.177" y2="202.763" gradientUnits="userSpaceOnUse">
<stop stop-color="white"/>
<stop offset="1" stop-color="white" stop-opacity="0"/>
</linearGradient>
<linearGradient id="paint8_linear_245_7850" x1="227.787" y1="74.1073" x2="349.345" y2="112.655" gradientUnits="userSpaceOnUse">
<stop offset="0.137506" stop-color="white" stop-opacity="0"/>
<stop offset="1" stop-color="white"/>
</linearGradient>
<linearGradient id="paint9_linear_245_7850" x1="347.075" y1="137.733" x2="336.379" y2="212.596" gradientUnits="userSpaceOnUse">
<stop offset="0.272355" stop-color="white" stop-opacity="0"/>
<stop offset="1" stop-color="white"/>
</linearGradient>
<radialGradient id="paint10_radial_245_7850" cx="0" cy="0" r="1" gradientUnits="userSpaceOnUse" gradientTransform="translate(9.77699 9.77699) rotate(90) scale(9.77699)">
<stop stop-color="white"/>
<stop offset="1" stop-color="white" stop-opacity="0"/>
</radialGradient>
<radialGradient id="paint11_radial_245_7850" cx="0" cy="0" r="1" gradientUnits="userSpaceOnUse" gradientTransform="translate(5.36157 5.36157) rotate(90) scale(5.36157)">
<stop stop-color="white"/>
<stop offset="1" stop-color="white" stop-opacity="0"/>
</radialGradient>
<radialGradient id="paint12_radial_245_7850" cx="0" cy="0" r="1" gradientUnits="userSpaceOnUse" gradientTransform="translate(29.6784 29.6784) rotate(90) scale(29.6784)">
<stop stop-color="white"/>
<stop offset="1" stop-color="white" stop-opacity="0"/>
</radialGradient>
<radialGradient id="paint13_radial_245_7850" cx="0" cy="0" r="1" gradientUnits="userSpaceOnUse" gradientTransform="translate(10.1695 10.1695) rotate(90) scale(10.1695)">
<stop stop-color="white"/>
<stop offset="1" stop-color="white" stop-opacity="0"/>
</radialGradient>
<radialGradient id="paint14_radial_245_7850" cx="0" cy="0" r="1" gradientUnits="userSpaceOnUse" gradientTransform="translate(5.57685 5.57685) rotate(90) scale(5.57685)">
<stop stop-color="white"/>
<stop offset="1" stop-color="white" stop-opacity="0"/>
</radialGradient>
<linearGradient id="paint15_linear_245_7850" x1="132.462" y1="145.163" x2="165.846" y2="145.193" gradientUnits="userSpaceOnUse">
<stop stop-color="white"/>
<stop offset="0.895596" stop-color="white" stop-opacity="0"/>
</linearGradient>
<linearGradient id="paint16_linear_245_7850" x1="90.8298" y1="97.3726" x2="103.629" y2="109.963" gradientUnits="userSpaceOnUse">
<stop stop-color="white"/>
<stop offset="0.895596" stop-color="white" stop-opacity="0"/>
</linearGradient>
<linearGradient id="paint17_linear_245_7850" x1="195.592" y1="76.3422" x2="162.208" y2="76.4766" gradientUnits="userSpaceOnUse">
<stop stop-color="white"/>
<stop offset="0.895596" stop-color="white" stop-opacity="0"/>
</linearGradient>
<linearGradient id="paint18_linear_245_7850" x1="159.101" y1="57.8858" x2="146.969" y2="57.8633" gradientUnits="userSpaceOnUse">
<stop stop-color="white"/>
<stop offset="0.803157" stop-color="white" stop-opacity="0"/>
</linearGradient>
</defs>
</svg>
