<svg xmlns="http://www.w3.org/2000/svg" width="173" height="224" fill="none" viewBox="0 0 173 224"><g filter="url(#filter0_b_13_11062)" opacity=".25"><path fill="#fff" fill-opacity=".04" fill-rule="evenodd" d="M197.601 62.1467C197.601 100.88 167.808 132.279 131.056 132.279C124.333 132.279 117.842 131.228 111.725 129.274L86.6918 155.656H64.5099V179.034H20.146V132.279L67.361 82.5192C65.5068 76.072 64.5099 69.2321 64.5099 62.1467C64.5099 23.4138 94.3034 -7.98541 131.056 -7.98541C167.808 -7.98541 197.601 23.4138 197.601 62.1467Z" clip-rule="evenodd"/><path fill="url(#paint0_linear_13_11062)" fill-opacity=".15" fill-rule="evenodd" d="M197.601 62.1467C197.601 100.88 167.808 132.279 131.056 132.279C124.333 132.279 117.842 131.228 111.725 129.274L86.6918 155.656H64.5099V179.034H20.146V132.279L67.361 82.5192C65.5068 76.072 64.5099 69.2321 64.5099 62.1467C64.5099 23.4138 94.3034 -7.98541 131.056 -7.98541C167.808 -7.98541 197.601 23.4138 197.601 62.1467Z" clip-rule="evenodd"/></g><g filter="url(#filter1_b_13_11062)" opacity=".25"><path fill="#fff" fill-opacity=".04" fill-rule="evenodd" d="M197.601 62.1467C197.601 100.88 167.808 132.279 131.056 132.279C124.333 132.279 117.842 131.228 111.725 129.274L86.6918 155.656H64.5099V179.034H20.146V132.279L67.361 82.5192C65.5068 76.072 64.5099 69.232 64.5099 62.1467C64.5099 23.4138 94.3034 -7.98541 131.056 -7.98541C167.808 -7.98541 197.601 23.4138 197.601 62.1467Z" clip-rule="evenodd"/><path fill="url(#paint1_linear_13_11062)" fill-opacity=".15" fill-rule="evenodd" d="M197.601 62.1467C197.601 100.88 167.808 132.279 131.056 132.279C124.333 132.279 117.842 131.228 111.725 129.274L86.6918 155.656H64.5099V179.034H20.146V132.279L67.361 82.5192C65.5068 76.072 64.5099 69.232 64.5099 62.1467C64.5099 23.4138 94.3034 -7.98541 131.056 -7.98541C167.808 -7.98541 197.601 23.4138 197.601 62.1467Z" clip-rule="evenodd"/></g><path stroke="url(#paint2_linear_13_11062)" stroke-linecap="round" stroke-width=".963" d="M111.725 129.43C117.842 131.384 124.333 132.435 131.056 132.435C163.076 132.435 189.815 108.6 196.169 76.8462"/><path stroke="url(#paint3_linear_13_11062)" stroke-linecap="round" stroke-width=".963" d="M108.342 133.164L99.6042 142.374L88.1841 154.239"/><path stroke="url(#paint4_linear_13_11062)" stroke-linecap="round" stroke-width=".963" d="M64.5098 179.189V157.583C64.5098 156.605 65.3027 155.812 66.2808 155.812H84.2566"/><path stroke="url(#paint5_linear_13_11062)" stroke-linecap="round" stroke-width=".963" d="M58.577 179.189H21.917C20.9389 179.189 20.146 178.396 20.146 177.418V133.141C20.146 132.687 20.3201 132.251 20.6323 131.922L60.8793 89.5061"/><path stroke="url(#paint6_linear_13_11062)" stroke-linecap="round" stroke-width=".963" d="M67.3612 82.6751C65.7379 77.0307 64.7716 71.0853 64.5562 64.9378"/><path stroke="url(#paint7_linear_13_11062)" stroke-linecap="round" stroke-width=".963" d="M197.602 62.3025C197.602 23.5696 167.808 -7.82959 131.056 -7.82959C95.1408 -7.82959 65.871 22.1554 64.5562 59.6673"/><path stroke="url(#paint8_linear_13_11062)" stroke-linecap="round" stroke-width=".963" d="M131.056 -16.6846C88.9809 -16.6846 55.655 19.1229 55.655 62.3026"/><path stroke="url(#paint9_linear_13_11062)" stroke-linecap="round" stroke-width=".963" d="M192.253 15.0667C182.287 0.639707 168.068 -9.0024 152.3 -13.5658"/><g filter="url(#filter2_f_13_11062)"><g style="mix-blend-mode:screen" filter="url(#filter3_f_13_11062)"><circle cx="8.823" cy="8.823" r="8.823" fill="url(#paint10_radial_13_11062)" fill-opacity=".5" transform="matrix(-4.37114e-08 1 1 4.37114e-08 55.6296 50.5214)"/></g><g style="mix-blend-mode:screen"><circle cx="4.839" cy="4.839" r="4.839" fill="url(#paint11_radial_13_11062)" transform="matrix(-4.37114e-08 1 1 4.37114e-08 59.6143 54.5057)"/></g></g><g filter="url(#filter4_f_13_11062)" opacity=".15"><g style="mix-blend-mode:screen" filter="url(#filter5_f_13_11062)"><circle cx="26.784" cy="26.784" r="26.784" fill="url(#paint12_radial_13_11062)" fill-opacity=".5" transform="matrix(-4.37114e-08 1 1 4.37114e-08 169.433 49.5629)"/></g></g><g filter="url(#filter6_f_13_11062)"><g style="mix-blend-mode:screen" filter="url(#filter7_f_13_11062)"><circle cx="9.178" cy="9.178" r="9.178" fill="url(#paint13_radial_13_11062)" fill-opacity=".5" transform="matrix(-4.37114e-08 1 1 4.37114e-08 11 169.888)"/></g><g style="mix-blend-mode:screen"><circle cx="5.033" cy="5.033" r="5.033" fill="url(#paint14_radial_13_11062)" transform="matrix(-4.37114e-08 1 1 4.37114e-08 15.1448 174.032)"/></g></g><path stroke="url(#paint15_linear_13_11062)" stroke-linecap="round" stroke-width=".963" d="M131.764 141.134C152.925 141.134 171.873 132.077 185.482 117.579"/><path stroke="url(#paint16_linear_13_11062)" stroke-linecap="round" stroke-width=".963" d="M112.416 141.311L89.2156 164.511"/><path stroke="url(#paint17_linear_13_11062)" stroke-linecap="round" stroke-width=".963" d="M53.4411 187.623L37.1479 187.623"/><path stroke="url(#paint18_linear_13_11062)" stroke-linecap="round" stroke-width=".963" d="M23.8025 115.922L46.8881 92.6082"/><path stroke="url(#paint19_linear_13_11062)" stroke-linecap="round" stroke-width=".963" d="M13.0621 126.08L19.1463 120.122"/><defs><filter id="filter0_b_13_11062" width="354.668" height="364.232" x="-68.46" y="-96.592" color-interpolation-filters="sRGB" filterUnits="userSpaceOnUse"><feFlood flood-opacity="0" result="BackgroundImageFix"/><feGaussianBlur in="BackgroundImageFix" stdDeviation="44.303"/><feComposite in2="SourceAlpha" operator="in" result="effect1_backgroundBlur_13_11062"/><feBlend in="SourceGraphic" in2="effect1_backgroundBlur_13_11062" mode="normal" result="shape"/></filter><filter id="filter1_b_13_11062" width="354.668" height="364.232" x="-68.46" y="-96.592" color-interpolation-filters="sRGB" filterUnits="userSpaceOnUse"><feFlood flood-opacity="0" result="BackgroundImageFix"/><feGaussianBlur in="BackgroundImageFix" stdDeviation="44.303"/><feComposite in2="SourceAlpha" operator="in" result="effect1_backgroundBlur_13_11062"/><feBlend in="SourceGraphic" in2="effect1_backgroundBlur_13_11062" mode="normal" result="shape"/></filter><filter id="filter2_f_13_11062" width="27.402" height="27.402" x="50.752" y="45.644" color-interpolation-filters="sRGB" filterUnits="userSpaceOnUse"><feFlood flood-opacity="0" result="BackgroundImageFix"/><feBlend in="SourceGraphic" in2="BackgroundImageFix" mode="normal" result="shape"/><feGaussianBlur result="effect1_foregroundBlur_13_11062" stdDeviation="2.439"/></filter><filter id="filter3_f_13_11062" width="37.157" height="37.157" x="45.874" y="40.766" color-interpolation-filters="sRGB" filterUnits="userSpaceOnUse"><feFlood flood-opacity="0" result="BackgroundImageFix"/><feBlend in="SourceGraphic" in2="BackgroundImageFix" mode="normal" result="shape"/><feGaussianBlur result="effect1_foregroundBlur_13_11062" stdDeviation="4.878"/></filter><filter id="filter4_f_13_11062" width="83.18" height="83.18" x="154.626" y="34.757" color-interpolation-filters="sRGB" filterUnits="userSpaceOnUse"><feFlood flood-opacity="0" result="BackgroundImageFix"/><feBlend in="SourceGraphic" in2="BackgroundImageFix" mode="normal" result="shape"/><feGaussianBlur result="effect1_foregroundBlur_13_11062" stdDeviation="7.403"/></filter><filter id="filter5_f_13_11062" width="112.792" height="112.792" x="139.82" y="19.95" color-interpolation-filters="sRGB" filterUnits="userSpaceOnUse"><feFlood flood-opacity="0" result="BackgroundImageFix"/><feBlend in="SourceGraphic" in2="BackgroundImageFix" mode="normal" result="shape"/><feGaussianBlur result="effect1_foregroundBlur_13_11062" stdDeviation="14.806"/></filter><filter id="filter6_f_13_11062" width="28.502" height="28.502" x="5.927" y="164.814" color-interpolation-filters="sRGB" filterUnits="userSpaceOnUse"><feFlood flood-opacity="0" result="BackgroundImageFix"/><feBlend in="SourceGraphic" in2="BackgroundImageFix" mode="normal" result="shape"/><feGaussianBlur result="effect1_foregroundBlur_13_11062" stdDeviation="2.537"/></filter><filter id="filter7_f_13_11062" width="38.649" height="38.649" x=".853" y="159.741" color-interpolation-filters="sRGB" filterUnits="userSpaceOnUse"><feFlood flood-opacity="0" result="BackgroundImageFix"/><feBlend in="SourceGraphic" in2="BackgroundImageFix" mode="normal" result="shape"/><feGaussianBlur result="effect1_foregroundBlur_13_11062" stdDeviation="5.073"/></filter><linearGradient id="paint0_linear_13_11062" x1="108.874" x2="108.874" y1="112.83" y2="179.034" gradientUnits="userSpaceOnUse"><stop stop-color="#fff" stop-opacity="0"/><stop offset="1" stop-color="#fff"/></linearGradient><linearGradient id="paint1_linear_13_11062" x1="108.874" x2="108.874" y1="112.83" y2="179.034" gradientUnits="userSpaceOnUse"><stop stop-color="#fff" stop-opacity="0"/><stop offset="1" stop-color="#fff"/></linearGradient><linearGradient id="paint2_linear_13_11062" x1="100.019" x2="142.67" y1="121.83" y2="78.797" gradientUnits="userSpaceOnUse"><stop offset=".051" stop-color="#fff" stop-opacity="0"/><stop offset="1" stop-color="#fff"/></linearGradient><linearGradient id="paint3_linear_13_11062" x1="88.094" x2="96.642" y1="154.738" y2="128.86" gradientUnits="userSpaceOnUse"><stop offset=".104" stop-color="#fff" stop-opacity="0"/><stop offset="1" stop-color="#fff"/></linearGradient><linearGradient id="paint4_linear_13_11062" x1="64.421" x2="74.869" y1="179.742" y2="151.813" gradientUnits="userSpaceOnUse"><stop offset=".104" stop-color="#fff" stop-opacity="0"/><stop offset="1" stop-color="#fff"/></linearGradient><linearGradient id="paint5_linear_13_11062" x1="63.005" x2="91.372" y1="85.701" y2="168.599" gradientUnits="userSpaceOnUse"><stop offset=".048" stop-color="#fff" stop-opacity="0"/><stop offset="1" stop-color="#fff"/></linearGradient><linearGradient id="paint6_linear_13_11062" x1="65.959" x2="68.495" y1="64.938" y2="82.691" gradientUnits="userSpaceOnUse"><stop offset=".1" stop-color="#fff" stop-opacity="0"/><stop offset="1" stop-color="#fff"/></linearGradient><linearGradient id="paint7_linear_13_11062" x1="131.011" x2="203.689" y1="-30.477" y2="-25.662" gradientUnits="userSpaceOnUse"><stop stop-color="#fff"/><stop offset="1" stop-color="#fff" stop-opacity="0"/></linearGradient><linearGradient id="paint8_linear_13_11062" x1="53.795" x2="119.936" y1="63.741" y2="-30.441" gradientUnits="userSpaceOnUse"><stop offset=".138" stop-color="#fff" stop-opacity="0"/><stop offset="1" stop-color="#fff"/></linearGradient><linearGradient id="paint9_linear_13_11062" x1="140.907" x2="202.446" y1="-21.688" y2="7.818" gradientUnits="userSpaceOnUse"><stop offset=".272" stop-color="#fff" stop-opacity="0"/><stop offset="1" stop-color="#fff"/></linearGradient><radialGradient id="paint10_radial_13_11062" cx="0" cy="0" r="1" gradientTransform="translate(8.82338 8.82338) rotate(90) scale(8.82338)" gradientUnits="userSpaceOnUse"><stop stop-color="#fff"/><stop offset="1" stop-color="#fff" stop-opacity="0"/></radialGradient><radialGradient id="paint11_radial_13_11062" cx="0" cy="0" r="1" gradientTransform="translate(4.83863 4.83863) rotate(90) scale(4.83863)" gradientUnits="userSpaceOnUse"><stop stop-color="#fff"/><stop offset="1" stop-color="#fff" stop-opacity="0"/></radialGradient><radialGradient id="paint12_radial_13_11062" cx="0" cy="0" r="1" gradientTransform="translate(26.7837 26.7837) rotate(90) scale(26.7837)" gradientUnits="userSpaceOnUse"><stop stop-color="#fff"/><stop offset="1" stop-color="#fff" stop-opacity="0"/></radialGradient><radialGradient id="paint13_radial_13_11062" cx="0" cy="0" r="1" gradientTransform="translate(9.17765 9.17765) rotate(90) scale(9.17765)" gradientUnits="userSpaceOnUse"><stop stop-color="#fff"/><stop offset="1" stop-color="#fff" stop-opacity="0"/></radialGradient><radialGradient id="paint14_radial_13_11062" cx="0" cy="0" r="1" gradientTransform="translate(5.0329 5.0329) rotate(90) scale(5.0329)" gradientUnits="userSpaceOnUse"><stop stop-color="#fff"/><stop offset="1" stop-color="#fff" stop-opacity="0"/></radialGradient><linearGradient id="paint15_linear_13_11062" x1="130.054" x2="158.351" y1="142.008" y2="98.476" gradientUnits="userSpaceOnUse"><stop stop-color="#fff"/><stop offset=".942" stop-color="#fff" stop-opacity="0"/></linearGradient><linearGradient id="paint16_linear_13_11062" x1="89.112" x2="98.189" y1="165.06" y2="136.332" gradientUnits="userSpaceOnUse"><stop stop-color="#fff"/><stop offset=".896" stop-color="#fff" stop-opacity="0"/></linearGradient><linearGradient id="paint17_linear_13_11062" x1="36.686" x2="50.994" y1="187.937" y2="180.334" gradientUnits="userSpaceOnUse"><stop stop-color="#fff"/><stop offset=".896" stop-color="#fff" stop-opacity="0"/></linearGradient><linearGradient id="paint18_linear_13_11062" x1="46.989" x2="38.053" y1="92.059" y2="120.831" gradientUnits="userSpaceOnUse"><stop stop-color="#fff"/><stop offset=".896" stop-color="#fff" stop-opacity="0"/></linearGradient><linearGradient id="paint19_linear_13_11062" x1="21.209" x2="17.9" y1="118.465" y2="128.901" gradientUnits="userSpaceOnUse"><stop stop-color="#fff"/><stop offset=".803" stop-color="#fff" stop-opacity="0"/></linearGradient></defs></svg>