<svg xmlns="http://www.w3.org/2000/svg" width="540" height="566" fill="none" viewBox="0 0 540 566"><path stroke="url(#paint0_linear_244_7999)" stroke-width="2.923" d="M258.173 11.4617C255.716 11.4617 253.039 12.8747 250.185 16.1979C247.34 19.5108 244.481 24.5461 241.68 31.3381C236.083 44.9107 230.965 64.8968 226.642 90.206C222.322 115.498 218.892 145.544 216.551 178.631C214.21 211.716 213.005 247.181 213.005 283C213.005 318.819 214.21 354.284 216.551 387.369C218.892 420.456 222.322 450.502 226.642 475.794C230.965 501.103 236.083 521.089 241.68 534.662C244.481 541.454 247.34 546.489 250.185 549.802C253.039 553.125 255.716 554.538 258.173 554.538C260.63 554.538 263.307 553.125 266.161 549.802C269.006 546.489 271.865 541.454 274.666 534.662C280.263 521.089 285.381 501.103 289.704 475.794C294.024 450.502 297.454 420.456 299.795 387.369C302.136 354.284 303.341 318.819 303.341 283C303.341 247.181 302.136 211.716 299.795 178.631C297.454 145.544 294.024 115.498 289.704 90.2059C285.381 64.8968 280.263 44.9107 274.666 31.3381C271.865 24.5461 269.006 19.5108 266.161 16.1979C263.307 12.8747 260.63 11.4617 258.173 11.4617L258.173 11.4617Z"/><path stroke="url(#paint1_linear_244_7999)" stroke-width="2.923" d="M410.818 48.7578C409.351 47.7545 406.895 47.601 403.045 49.0418C399.254 50.461 394.475 53.2995 388.743 57.6195C377.294 66.248 362.559 80.3946 345.37 99.2972C328.192 118.188 308.938 141.415 288.709 167.656C268.481 193.895 247.68 222.624 227.496 252.204C207.311 281.783 188.141 311.628 171.08 340.034C154.018 368.441 139.405 394.844 128.072 417.734C116.732 440.639 108.926 459.526 105.059 473.342C103.123 480.259 102.219 485.749 102.276 489.801C102.335 493.916 103.37 496.151 104.837 497.155C106.303 498.158 108.76 498.311 112.609 496.871C116.4 495.451 121.179 492.613 126.911 488.293C138.36 479.664 153.095 465.518 170.284 446.615C187.463 427.724 206.717 404.497 226.946 378.257C247.174 352.018 267.974 323.288 288.159 293.709C308.343 264.129 327.514 234.284 344.575 205.878C361.637 177.471 376.25 151.069 387.582 128.178C398.922 105.273 406.728 86.3863 410.596 72.5707C412.532 65.6537 413.436 60.1637 413.378 56.1113C413.32 51.9969 412.284 49.7611 410.818 48.7578L410.818 48.7578Z"/><path stroke="url(#paint2_linear_244_7999)" stroke-width="2.923" d="M102.019 61.9819C100.587 63.0337 99.626 65.3029 99.7047 69.4169C99.7821 73.469 100.868 78.9257 103.034 85.7742C107.359 99.453 115.79 118.069 127.886 140.582C139.975 163.082 155.459 188.981 173.458 216.803C191.455 244.624 211.609 273.812 232.767 302.701C253.926 331.59 275.672 359.609 296.762 385.158C317.854 410.708 337.871 433.279 355.669 451.586C373.478 469.904 388.676 483.551 400.406 491.792C406.278 495.919 411.149 498.596 414.986 499.888C418.881 501.199 421.331 500.964 422.763 499.912C424.195 498.86 425.156 496.591 425.077 492.477C425 488.425 423.914 482.968 421.748 476.12C417.423 462.441 408.992 443.825 396.896 421.312C384.807 398.812 369.323 372.912 351.324 345.091C333.327 317.27 313.173 288.082 292.015 259.193C270.856 230.304 249.11 202.285 228.02 176.736C206.928 151.186 186.911 128.614 169.113 110.308C151.304 91.9896 136.106 78.343 124.376 70.1015C118.504 65.9753 113.633 63.298 109.796 62.0062C105.901 60.6947 103.451 60.9302 102.019 61.9819L102.019 61.9819Z"/><path stroke="url(#paint3_linear_244_7999)" stroke-width="2.923" d="M525.008 193.271C524.927 193.031 524.656 192.64 523.764 192.241C522.875 191.843 521.548 191.522 519.718 191.332C516.07 190.952 510.775 191.123 503.836 191.889C489.981 193.42 470.151 197.258 445.452 203.201C420.765 209.143 391.738 217.061 360.029 226.507C328.32 235.952 294.556 246.738 260.665 258.247C226.774 269.756 193.424 281.763 162.519 293.581C131.612 305.399 103.763 316.795 80.5602 327.117C57.3464 337.444 39.2754 346.478 27.3492 353.702C21.376 357.321 17.0703 360.41 14.4051 362.934C13.0687 364.2 12.2106 365.262 11.7467 366.12C11.2808 366.981 11.3032 367.455 11.3846 367.696C11.466 367.936 11.7366 368.326 12.6293 368.726C13.5184 369.124 14.8451 369.444 16.6747 369.635C20.3234 370.015 25.6176 369.844 32.5567 369.077C46.4116 367.547 66.2422 363.709 90.9407 357.765C115.628 351.824 144.655 343.905 176.364 334.459C208.073 325.014 241.837 314.229 275.728 302.72C309.619 291.21 342.969 279.204 373.874 267.386C404.781 255.567 432.63 244.171 455.833 233.849C479.047 223.522 497.118 214.489 509.044 207.264C515.017 203.646 519.323 200.556 521.988 198.032C523.324 196.767 524.182 195.704 524.646 194.847C525.112 193.986 525.09 193.511 525.008 193.271L525.008 193.271Z"/><path stroke="url(#paint4_linear_244_7999)" stroke-width="2.923" d="M528.006 351.459C528.083 351.217 528.098 350.742 527.617 349.889C527.139 349.04 526.263 347.992 524.906 346.749C522.199 344.27 517.842 341.254 511.809 337.737C499.763 330.714 481.543 321.986 458.159 312.051C434.785 302.121 406.749 291.196 375.649 279.899C344.549 268.603 311.002 257.16 276.923 246.223C242.844 235.286 208.903 225.071 177.04 216.16C145.176 207.25 116.021 199.821 91.2372 194.296C66.4425 188.769 46.5502 185.266 32.6716 183.969C25.7206 183.319 20.4243 183.237 16.7825 183.679C14.9563 183.9 13.6352 184.243 12.7529 184.656C11.8671 185.07 11.6031 185.465 11.5257 185.707C11.4484 185.948 11.434 186.423 11.9142 187.276C12.3925 188.126 13.2683 189.174 14.6258 190.417C17.3329 192.895 21.6899 195.912 27.723 199.429C39.7689 206.452 57.989 215.18 81.373 225.114C104.746 235.045 132.783 245.97 163.883 257.266C194.982 268.563 228.53 280.006 262.609 290.943C296.688 301.88 330.628 312.095 362.491 321.005C394.355 329.916 423.511 337.345 448.294 342.869C473.089 348.396 492.981 351.9 506.86 353.197C513.811 353.846 519.107 353.928 522.749 353.487C524.575 353.266 525.896 352.923 526.779 352.51C527.664 352.095 527.928 351.701 528.006 351.459L528.006 351.459Z"/><g style="mix-blend-mode:screen" filter="url(#filter0_f_244_7999)"><path stroke="url(#paint5_linear_244_7999)" stroke-width="2.923" d="M258.173 11.4617C255.716 11.4617 253.039 12.8747 250.185 16.1979C247.34 19.5108 244.481 24.5461 241.68 31.3381C236.083 44.9107 230.965 64.8968 226.642 90.206C222.322 115.498 218.892 145.544 216.551 178.631C214.21 211.716 213.005 247.181 213.005 283C213.005 318.819 214.21 354.284 216.551 387.369C218.892 420.456 222.322 450.502 226.642 475.794C230.965 501.103 236.083 521.089 241.68 534.662C244.481 541.454 247.34 546.489 250.185 549.802C253.039 553.125 255.716 554.538 258.173 554.538C260.63 554.538 263.307 553.125 266.161 549.802C269.006 546.489 271.865 541.454 274.666 534.662C280.263 521.089 285.381 501.103 289.704 475.794C294.024 450.502 297.454 420.456 299.795 387.369C302.136 354.284 303.341 318.819 303.341 283C303.341 247.181 302.136 211.716 299.795 178.631C297.454 145.544 294.024 115.498 289.704 90.2059C285.381 64.8968 280.263 44.9107 274.666 31.3381C271.865 24.5461 269.006 19.5108 266.161 16.1979C263.307 12.8747 260.63 11.4617 258.173 11.4617L258.173 11.4617Z"/><path stroke="url(#paint6_linear_244_7999)" stroke-width="2.923" d="M410.818 48.7578C409.351 47.7545 406.895 47.601 403.045 49.0418C399.254 50.461 394.475 53.2995 388.743 57.6195C377.294 66.248 362.559 80.3946 345.37 99.2972C328.192 118.188 308.938 141.415 288.709 167.656C268.481 193.895 247.68 222.624 227.496 252.204C207.311 281.783 188.141 311.628 171.08 340.034C154.018 368.441 139.405 394.844 128.072 417.734C116.732 440.639 108.926 459.526 105.059 473.342C103.123 480.259 102.219 485.749 102.276 489.801C102.335 493.916 103.37 496.151 104.837 497.155C106.303 498.158 108.76 498.311 112.609 496.871C116.4 495.451 121.179 492.613 126.911 488.293C138.36 479.664 153.095 465.518 170.284 446.615C187.463 427.724 206.717 404.497 226.946 378.257C247.174 352.018 267.974 323.288 288.159 293.709C308.343 264.129 327.514 234.284 344.575 205.878C361.637 177.471 376.25 151.069 387.582 128.178C398.922 105.273 406.728 86.3863 410.596 72.5707C412.532 65.6537 413.436 60.1637 413.378 56.1113C413.32 51.9969 412.284 49.7611 410.818 48.7578L410.818 48.7578Z"/><path stroke="url(#paint7_linear_244_7999)" stroke-width="2.923" d="M102.019 61.9819C100.587 63.0337 99.626 65.3029 99.7047 69.4169C99.7821 73.469 100.868 78.9257 103.034 85.7742C107.359 99.453 115.79 118.069 127.886 140.582C139.975 163.082 155.459 188.981 173.458 216.803C191.455 244.624 211.609 273.812 232.767 302.701C253.926 331.59 275.672 359.609 296.762 385.158C317.854 410.708 337.871 433.279 355.669 451.586C373.478 469.904 388.676 483.551 400.406 491.792C406.278 495.919 411.149 498.596 414.986 499.888C418.881 501.199 421.331 500.964 422.763 499.912C424.195 498.86 425.156 496.591 425.077 492.477C425 488.425 423.914 482.968 421.748 476.12C417.423 462.441 408.992 443.825 396.896 421.312C384.807 398.812 369.323 372.912 351.324 345.091C333.327 317.27 313.173 288.082 292.015 259.193C270.856 230.304 249.11 202.285 228.02 176.736C206.928 151.186 186.911 128.614 169.113 110.308C151.304 91.9896 136.106 78.343 124.376 70.1015C118.504 65.9753 113.633 63.298 109.796 62.0062C105.901 60.6947 103.451 60.9302 102.019 61.9819L102.019 61.9819Z"/><path stroke="url(#paint8_linear_244_7999)" stroke-width="2.923" d="M525.008 193.271C524.927 193.031 524.656 192.64 523.764 192.241C522.875 191.843 521.548 191.522 519.718 191.332C516.07 190.952 510.775 191.123 503.836 191.889C489.981 193.42 470.151 197.258 445.452 203.201C420.765 209.143 391.738 217.061 360.029 226.507C328.32 235.952 294.556 246.738 260.665 258.247C226.774 269.756 193.424 281.763 162.519 293.581C131.612 305.399 103.763 316.795 80.5602 327.117C57.3464 337.444 39.2754 346.478 27.3492 353.702C21.376 357.321 17.0703 360.41 14.4051 362.934C13.0687 364.2 12.2106 365.262 11.7467 366.12C11.2808 366.981 11.3032 367.455 11.3846 367.696C11.466 367.936 11.7366 368.326 12.6293 368.726C13.5184 369.124 14.8451 369.444 16.6747 369.635C20.3234 370.015 25.6176 369.844 32.5567 369.077C46.4116 367.547 66.2422 363.709 90.9407 357.765C115.628 351.824 144.655 343.905 176.364 334.459C208.073 325.014 241.837 314.229 275.728 302.72C309.619 291.21 342.969 279.204 373.874 267.386C404.781 255.567 432.63 244.171 455.833 233.849C479.047 223.522 497.118 214.489 509.044 207.264C515.017 203.646 519.323 200.556 521.988 198.032C523.324 196.767 524.182 195.704 524.646 194.847C525.112 193.986 525.09 193.511 525.008 193.271L525.008 193.271Z"/><path stroke="url(#paint9_linear_244_7999)" stroke-width="2.923" d="M528.006 351.459C528.083 351.217 528.098 350.742 527.617 349.889C527.139 349.04 526.263 347.992 524.906 346.749C522.199 344.27 517.842 341.254 511.809 337.737C499.763 330.714 481.543 321.986 458.159 312.051C434.785 302.121 406.749 291.196 375.649 279.899C344.549 268.603 311.002 257.16 276.923 246.223C242.844 235.286 208.903 225.071 177.04 216.16C145.176 207.25 116.021 199.821 91.2372 194.296C66.4425 188.769 46.5502 185.266 32.6716 183.969C25.7206 183.319 20.4243 183.237 16.7825 183.679C14.9563 183.9 13.6352 184.243 12.7529 184.656C11.8671 185.07 11.6031 185.465 11.5257 185.707C11.4484 185.948 11.434 186.423 11.9142 187.276C12.3925 188.126 13.2683 189.174 14.6258 190.417C17.3329 192.895 21.6899 195.912 27.723 199.429C39.7689 206.452 57.989 215.18 81.373 225.114C104.746 235.045 132.783 245.97 163.883 257.266C194.982 268.563 228.53 280.006 262.609 290.943C296.688 301.88 330.628 312.095 362.491 321.005C394.355 329.916 423.511 337.345 448.294 342.869C473.089 348.396 492.981 351.9 506.86 353.197C513.811 353.846 519.107 353.928 522.749 353.487C524.575 353.266 525.896 352.923 526.779 352.51C527.664 352.095 527.928 351.701 528.006 351.459L528.006 351.459Z"/></g><g filter="url(#filter1_f_244_7999)"><g style="mix-blend-mode:screen" filter="url(#filter2_f_244_7999)"><ellipse cx="211" cy="275.418" fill="url(#paint10_radial_244_7999)" fill-opacity=".5" rx="25.923" ry="25.889" transform="rotate(90 211 275.418)"/></g><g style="mix-blend-mode:screen"><ellipse cx="210.999" cy="275.418" fill="url(#paint11_radial_244_7999)" rx="14.216" ry="14.197" transform="rotate(90 210.999 275.418)"/></g></g><defs><filter id="filter0_f_244_7999" width="539.36" height="565.728" x=".013" y=".136" color-interpolation-filters="sRGB" filterUnits="userSpaceOnUse"><feFlood flood-opacity="0" result="BackgroundImageFix"/><feBlend in="SourceGraphic" in2="BackgroundImageFix" mode="normal" result="shape"/><feGaussianBlur result="effect1_foregroundBlur_244_7999" stdDeviation="4.932"/></filter><filter id="filter1_f_244_7999" width="164.009" height="164.077" x="128.996" y="193.38" color-interpolation-filters="sRGB" filterUnits="userSpaceOnUse"><feFlood flood-opacity="0" result="BackgroundImageFix"/><feBlend in="SourceGraphic" in2="BackgroundImageFix" mode="normal" result="shape"/><feGaussianBlur result="effect1_foregroundBlur_244_7999" stdDeviation="28.058"/></filter><filter id="filter2_f_244_7999" width="74.991" height="75.059" x="173.505" y="237.889" color-interpolation-filters="sRGB" filterUnits="userSpaceOnUse"><feFlood flood-opacity="0" result="BackgroundImageFix"/><feBlend in="SourceGraphic" in2="BackgroundImageFix" mode="normal" result="shape"/><feGaussianBlur result="effect1_foregroundBlur_244_7999" stdDeviation="5.803"/></filter><linearGradient id="paint0_linear_244_7999" x1="304.803" x2="211.197" y1="251.555" y2="256.73" gradientUnits="userSpaceOnUse"><stop offset=".105" stop-color="#fff" stop-opacity="0"/><stop offset="1" stop-color="#fff"/></linearGradient><linearGradient id="paint1_linear_244_7999" x1="307.082" x2="241.698" y1="268.571" y2="228.167" gradientUnits="userSpaceOnUse"><stop offset=".12" stop-color="#FD366E" stop-opacity="0"/><stop offset="1" stop-color="#fff"/></linearGradient><linearGradient id="paint2_linear_244_7999" x1="274.621" x2="214.724" y1="232.971" y2="281.156" gradientUnits="userSpaceOnUse"><stop offset=".075" stop-color="#fff" stop-opacity="0"/><stop offset="1" stop-color="#fff"/></linearGradient><linearGradient id="paint3_linear_244_7999" x1="305.937" x2="288.398" y1="294.004" y2="246.976" gradientUnits="userSpaceOnUse"><stop offset=".125" stop-color="#fff" stop-opacity="0"/><stop offset="1" stop-color="#fff"/></linearGradient><linearGradient id="paint4_linear_244_7999" x1="292.068" x2="305.986" y1="301.932" y2="253.705" gradientUnits="userSpaceOnUse"><stop stop-color="#fff"/><stop offset=".965" stop-color="#FD366E" stop-opacity="0"/></linearGradient><linearGradient id="paint5_linear_244_7999" x1="304.803" x2="211.197" y1="251.555" y2="256.73" gradientUnits="userSpaceOnUse"><stop offset=".105" stop-color="#fff" stop-opacity="0"/><stop offset="1" stop-color="#fff"/></linearGradient><linearGradient id="paint6_linear_244_7999" x1="307.082" x2="241.698" y1="268.571" y2="228.167" gradientUnits="userSpaceOnUse"><stop offset=".12" stop-color="#FD366E" stop-opacity="0"/><stop offset="1" stop-color="#fff"/></linearGradient><linearGradient id="paint7_linear_244_7999" x1="274.621" x2="214.724" y1="232.971" y2="281.156" gradientUnits="userSpaceOnUse"><stop offset=".075" stop-color="#fff" stop-opacity="0"/><stop offset="1" stop-color="#fff"/></linearGradient><linearGradient id="paint8_linear_244_7999" x1="305.937" x2="288.398" y1="294.004" y2="246.976" gradientUnits="userSpaceOnUse"><stop offset=".04" stop-color="#fff" stop-opacity="0"/><stop offset="1" stop-color="#fff"/></linearGradient><linearGradient id="paint9_linear_244_7999" x1="292.068" x2="305.986" y1="301.932" y2="253.705" gradientUnits="userSpaceOnUse"><stop stop-color="#fff"/><stop offset=".965" stop-color="#FD366E" stop-opacity="0"/></linearGradient><radialGradient id="paint10_radial_244_7999" cx="0" cy="0" r="1" gradientTransform="translate(211 275.418) rotate(90) scale(25.8889 25.923)" gradientUnits="userSpaceOnUse"><stop stop-color="#fff"/><stop offset="1" stop-color="#fff" stop-opacity="0"/></radialGradient><radialGradient id="paint11_radial_244_7999" cx="0" cy="0" r="1" gradientTransform="translate(210.999 275.418) rotate(90) scale(14.1972 14.2159)" gradientUnits="userSpaceOnUse"><stop stop-color="#fff"/><stop offset="1" stop-color="#fff" stop-opacity="0"/></radialGradient></defs></svg>