<svg width="320" height="120" viewBox="0 0 320 120" fill="none" xmlns="http://www.w3.org/2000/svg">
<path d="M290.93 84.0851L183.499 84.085" stroke="url(#paint0_linear_245_7612)" stroke-width="1.32419" stroke-linecap="round"/>
<path d="M290.93 107.366L208.72 107.366" stroke="url(#paint1_linear_245_7612)" stroke-width="1.32419" stroke-linecap="round"/>
<path d="M276.622 61.2893L203.87 61.2893" stroke="url(#paint2_linear_245_7612)" stroke-width="1.32419" stroke-linecap="round"/>
<path d="M307 38.4932L234.248 38.4932" stroke="url(#paint3_linear_245_7612)" stroke-width="1.32419" stroke-linecap="round"/>
<g style="mix-blend-mode:screen" opacity="0.5" filter="url(#filter0_f_245_7612)">
<path d="M290.93 84.0851L183.499 84.085" stroke="url(#paint4_linear_245_7612)" stroke-width="1.32419" stroke-linecap="round"/>
<path d="M290.93 107.366L208.72 107.366" stroke="url(#paint5_linear_245_7612)" stroke-width="1.32419" stroke-linecap="round"/>
<path d="M276.622 61.2893L203.87 61.2893" stroke="url(#paint6_linear_245_7612)" stroke-width="1.32419" stroke-linecap="round"/>
<path d="M307 38.4932L234.248 38.4932" stroke="url(#paint7_linear_245_7612)" stroke-width="1.32419" stroke-linecap="round"/>
</g>
<g filter="url(#filter1_bi_245_7612)">
<path d="M174.344 103.397V137.862H88.4529C63.4293 137.862 41.5801 124.001 29.8903 103.397C28.1909 100.401 26.7035 97.2588 25.4559 93.9971C23.0067 87.6053 21.4671 80.7466 21 73.5903V64.2721C21.1014 62.6772 21.2612 61.095 21.4702 59.5315C21.8973 56.323 22.5427 53.1835 23.3908 50.1318C31.4145 21.1994 57.5045 0 88.4529 0C119.401 0 145.488 21.1994 153.512 50.1318H116.786C110.757 40.7007 100.321 34.4656 88.4529 34.4656C76.5849 34.4656 66.1489 40.7007 60.1196 50.1318C58.2819 52.9987 56.8561 56.1601 55.9219 59.5315C55.0921 62.5206 54.6496 65.6726 54.6496 68.9312C54.6496 78.8103 58.7245 87.7149 65.2577 93.9971C71.3116 99.828 79.4735 103.397 88.4529 103.397H174.344Z" fill="white" fill-opacity="0.02"/>
<path d="M174.344 103.397V137.862H88.4529C63.4293 137.862 41.5801 124.001 29.8903 103.397C28.1909 100.401 26.7035 97.2588 25.4559 93.9971C23.0067 87.6053 21.4671 80.7466 21 73.5903V64.2721C21.1014 62.6772 21.2612 61.095 21.4702 59.5315C21.8973 56.323 22.5427 53.1835 23.3908 50.1318C31.4145 21.1994 57.5045 0 88.4529 0C119.401 0 145.488 21.1994 153.512 50.1318H116.786C110.757 40.7007 100.321 34.4656 88.4529 34.4656C76.5849 34.4656 66.1489 40.7007 60.1196 50.1318C58.2819 52.9987 56.8561 56.1601 55.9219 59.5315C55.0921 62.5206 54.6496 65.6726 54.6496 68.9312C54.6496 78.8103 58.7245 87.7149 65.2577 93.9971C71.3116 99.828 79.4735 103.397 88.4529 103.397H174.344Z" fill="url(#paint8_linear_245_7612)" fill-opacity="0.08"/>
<path d="M26.1872 93.7173L26.1871 93.7169C23.7686 87.4052 22.2469 80.6324 21.783 73.5647V64.297C21.8833 62.7298 22.0407 61.1738 22.2463 59.6352L22.2464 59.6348C22.6687 56.4624 23.3068 53.3584 24.1452 50.3414L24.1454 50.341C32.0799 21.7301 57.8744 0.783026 88.4529 0.783026C118.677 0.783026 144.224 21.247 152.474 49.3487H117.212C111.013 39.9082 100.451 33.6826 88.4529 33.6826C76.3025 33.6826 65.6251 40.067 59.4604 49.7092C57.5809 52.6414 56.1226 55.8747 55.1673 59.3224C54.3188 62.3792 53.8666 65.6015 53.8666 68.9312C53.8666 79.0294 58.0327 88.1361 64.715 94.5615C70.9075 100.526 79.2613 104.18 88.4529 104.18H173.561V137.079H88.4529C63.7276 137.079 42.1303 123.384 30.5713 103.01C28.8911 100.049 27.4207 96.9419 26.1872 93.7173Z" stroke="url(#paint9_linear_245_7612)" stroke-opacity="0.15" stroke-width="1.56605"/>
<path d="M26.1872 93.7173L26.1871 93.7169C23.7686 87.4052 22.2469 80.6324 21.783 73.5647V64.297C21.8833 62.7298 22.0407 61.1738 22.2463 59.6352L22.2464 59.6348C22.6687 56.4624 23.3068 53.3584 24.1452 50.3414L24.1454 50.341C32.0799 21.7301 57.8744 0.783026 88.4529 0.783026C118.677 0.783026 144.224 21.247 152.474 49.3487H117.212C111.013 39.9082 100.451 33.6826 88.4529 33.6826C76.3025 33.6826 65.6251 40.067 59.4604 49.7092C57.5809 52.6414 56.1226 55.8747 55.1673 59.3224C54.3188 62.3792 53.8666 65.6015 53.8666 68.9312C53.8666 79.0294 58.0327 88.1361 64.715 94.5615C70.9075 100.526 79.2613 104.18 88.4529 104.18H173.561V137.079H88.4529C63.7276 137.079 42.1303 123.384 30.5713 103.01C28.8911 100.049 27.4207 96.9419 26.1872 93.7173Z" stroke="url(#paint10_linear_245_7612)" stroke-width="1.56605"/>
<path d="M26.1872 93.7173L26.1871 93.7169C23.7686 87.4052 22.2469 80.6324 21.783 73.5647V64.297C21.8833 62.7298 22.0407 61.1738 22.2463 59.6352L22.2464 59.6348C22.6687 56.4624 23.3068 53.3584 24.1452 50.3414L24.1454 50.341C32.0799 21.7301 57.8744 0.783026 88.4529 0.783026C118.677 0.783026 144.224 21.247 152.474 49.3487H117.212C111.013 39.9082 100.451 33.6826 88.4529 33.6826C76.3025 33.6826 65.6251 40.067 59.4604 49.7092C57.5809 52.6414 56.1226 55.8747 55.1673 59.3224C54.3188 62.3792 53.8666 65.6015 53.8666 68.9312C53.8666 79.0294 58.0327 88.1361 64.715 94.5615C70.9075 100.526 79.2613 104.18 88.4529 104.18H173.561V137.079H88.4529C63.7276 137.079 42.1303 123.384 30.5713 103.01C28.8911 100.049 27.4207 96.9419 26.1872 93.7173Z" stroke="url(#paint11_linear_245_7612)" stroke-width="1.56605"/>
</g>
<g filter="url(#filter2_bi_245_7612)">
<path d="M174.344 59.5315V93.9971H111.648C118.182 87.715 122.257 78.8103 122.257 68.9312C122.257 65.6726 121.814 62.5206 120.984 59.5315H174.344Z" fill="white" fill-opacity="0.02"/>
<path d="M174.344 59.5315V93.9971H111.648C118.182 87.715 122.257 78.8103 122.257 68.9312C122.257 65.6726 121.814 62.5206 120.984 59.5315H174.344Z" fill="url(#paint12_linear_245_7612)" fill-opacity="0.08"/>
<path d="M173.561 60.3145V93.2141H113.519C119.421 86.893 123.04 78.3428 123.04 68.9312C123.04 65.9597 122.679 63.0737 121.999 60.3145H173.561Z" stroke="url(#paint13_linear_245_7612)" stroke-opacity="0.15" stroke-width="1.56605"/>
<path d="M173.561 60.3145V93.2141H113.519C119.421 86.893 123.04 78.3428 123.04 68.9312C123.04 65.9597 122.679 63.0737 121.999 60.3145H173.561Z" stroke="url(#paint14_linear_245_7612)" stroke-width="1.56605"/>
<path d="M173.561 60.3145V93.2141H113.519C119.421 86.893 123.04 78.3428 123.04 68.9312C123.04 65.9597 122.679 63.0737 121.999 60.3145H173.561Z" stroke="url(#paint15_linear_245_7612)" stroke-width="1.56605"/>
</g>
<g filter="url(#filter3_f_245_7612)">
<g style="mix-blend-mode:screen" filter="url(#filter4_f_245_7612)">
<circle cx="8.97281" cy="8.97281" r="8.97281" transform="matrix(-4.37114e-08 1 1 4.37114e-08 164.355 122.157)" fill="url(#paint16_radial_245_7612)" fill-opacity="0.5"/>
</g>
</g>
<defs>
<filter id="filter0_f_245_7612" x="168.194" y="33.3739" width="143.925" height="102.392" filterUnits="userSpaceOnUse" color-interpolation-filters="sRGB">
<feFlood flood-opacity="0" result="BackgroundImageFix"/>
<feBlend mode="normal" in="SourceGraphic" in2="BackgroundImageFix" result="shape"/>
<feGaussianBlur stdDeviation="2.22857" result="effect1_foregroundBlur_245_7612"/>
</filter>
<filter id="filter1_bi_245_7612" x="-57.3026" y="-78.3026" width="309.949" height="294.468" filterUnits="userSpaceOnUse" color-interpolation-filters="sRGB">
<feFlood flood-opacity="0" result="BackgroundImageFix"/>
<feGaussianBlur in="BackgroundImageFix" stdDeviation="39.1513"/>
<feComposite in2="SourceAlpha" operator="in" result="effect1_backgroundBlur_245_7612"/>
<feBlend mode="normal" in="SourceGraphic" in2="effect1_backgroundBlur_245_7612" result="shape"/>
<feColorMatrix in="SourceAlpha" type="matrix" values="0 0 0 0 0 0 0 0 0 0 0 0 0 0 0 0 0 0 127 0" result="hardAlpha"/>
<feOffset dy="0.806229"/>
<feGaussianBlur stdDeviation="0.403115"/>
<feComposite in2="hardAlpha" operator="arithmetic" k2="-1" k3="1"/>
<feColorMatrix type="matrix" values="0 0 0 0 1 0 0 0 0 1 0 0 0 0 1 0 0 0 0.25 0"/>
<feBlend mode="normal" in2="shape" result="effect2_innerShadow_245_7612"/>
</filter>
<filter id="filter2_bi_245_7612" x="33.3458" y="-18.7711" width="219.301" height="191.071" filterUnits="userSpaceOnUse" color-interpolation-filters="sRGB">
<feFlood flood-opacity="0" result="BackgroundImageFix"/>
<feGaussianBlur in="BackgroundImageFix" stdDeviation="39.1513"/>
<feComposite in2="SourceAlpha" operator="in" result="effect1_backgroundBlur_245_7612"/>
<feBlend mode="normal" in="SourceGraphic" in2="effect1_backgroundBlur_245_7612" result="shape"/>
<feColorMatrix in="SourceAlpha" type="matrix" values="0 0 0 0 0 0 0 0 0 0 0 0 0 0 0 0 0 0 127 0" result="hardAlpha"/>
<feOffset dy="0.806229"/>
<feGaussianBlur stdDeviation="0.403115"/>
<feComposite in2="hardAlpha" operator="arithmetic" k2="-1" k3="1"/>
<feColorMatrix type="matrix" values="0 0 0 0 1 0 0 0 0 1 0 0 0 0 1 0 0 0 0.25 0"/>
<feBlend mode="normal" in2="shape" result="effect2_innerShadow_245_7612"/>
</filter>
<filter id="filter3_f_245_7612" x="157.987" y="115.789" width="30.6814" height="30.6812" filterUnits="userSpaceOnUse" color-interpolation-filters="sRGB">
<feFlood flood-opacity="0" result="BackgroundImageFix"/>
<feBlend mode="normal" in="SourceGraphic" in2="BackgroundImageFix" result="shape"/>
<feGaussianBlur stdDeviation="3.1839" result="effect1_foregroundBlur_245_7612"/>
</filter>
<filter id="filter4_f_245_7612" x="161.461" y="119.263" width="23.7347" height="23.7345" filterUnits="userSpaceOnUse" color-interpolation-filters="sRGB">
<feFlood flood-opacity="0" result="BackgroundImageFix"/>
<feBlend mode="normal" in="SourceGraphic" in2="BackgroundImageFix" result="shape"/>
<feGaussianBlur stdDeviation="1.44723" result="effect1_foregroundBlur_245_7612"/>
</filter>
<linearGradient id="paint0_linear_245_7612" x1="291.247" y1="84.0851" x2="182.41" y2="88.4948" gradientUnits="userSpaceOnUse">
<stop stop-color="#FD366E" stop-opacity="0"/>
<stop offset="1" stop-color="white"/>
</linearGradient>
<linearGradient id="paint1_linear_245_7612" x1="291.172" y1="107.366" x2="207.834" y2="110.025" gradientUnits="userSpaceOnUse">
<stop stop-color="white" stop-opacity="0"/>
<stop offset="1" stop-color="white"/>
</linearGradient>
<linearGradient id="paint2_linear_245_7612" x1="276.837" y1="61.2893" x2="217.492" y2="90.6046" gradientUnits="userSpaceOnUse">
<stop stop-color="white" stop-opacity="0"/>
<stop offset="1" stop-color="white"/>
</linearGradient>
<linearGradient id="paint3_linear_245_7612" x1="307.214" y1="38.4932" x2="247.87" y2="67.8084" gradientUnits="userSpaceOnUse">
<stop stop-color="white" stop-opacity="0"/>
<stop offset="1" stop-color="white"/>
</linearGradient>
<linearGradient id="paint4_linear_245_7612" x1="291.247" y1="84.0851" x2="182.41" y2="88.4948" gradientUnits="userSpaceOnUse">
<stop stop-color="#FD366E" stop-opacity="0"/>
<stop offset="1" stop-color="white"/>
</linearGradient>
<linearGradient id="paint5_linear_245_7612" x1="291.172" y1="107.366" x2="207.834" y2="110.025" gradientUnits="userSpaceOnUse">
<stop stop-color="white" stop-opacity="0"/>
<stop offset="1" stop-color="white"/>
</linearGradient>
<linearGradient id="paint6_linear_245_7612" x1="276.837" y1="61.2893" x2="217.492" y2="90.6046" gradientUnits="userSpaceOnUse">
<stop stop-color="white" stop-opacity="0"/>
<stop offset="1" stop-color="white"/>
</linearGradient>
<linearGradient id="paint7_linear_245_7612" x1="307.214" y1="38.4932" x2="247.87" y2="67.8084" gradientUnits="userSpaceOnUse">
<stop stop-color="white" stop-opacity="0"/>
<stop offset="1" stop-color="white"/>
</linearGradient>
<linearGradient id="paint8_linear_245_7612" x1="97.672" y1="89.0597" x2="97.672" y2="137.862" gradientUnits="userSpaceOnUse">
<stop stop-color="white" stop-opacity="0"/>
<stop offset="1" stop-color="white"/>
</linearGradient>
<linearGradient id="paint9_linear_245_7612" x1="97.672" y1="9.70784" x2="97.672" y2="163.5" gradientUnits="userSpaceOnUse">
<stop stop-color="white"/>
<stop offset="1" stop-color="white" stop-opacity="0"/>
</linearGradient>
<linearGradient id="paint10_linear_245_7612" x1="120.195" y1="43.8193" x2="155.922" y2="138.449" gradientUnits="userSpaceOnUse">
<stop offset="0.5" stop-color="white" stop-opacity="0"/>
<stop offset="1" stop-color="white"/>
</linearGradient>
<linearGradient id="paint11_linear_245_7612" x1="97.6625" y1="58.0309" x2="35.9599" y2="-7.88671" gradientUnits="userSpaceOnUse">
<stop offset="0.582792" stop-color="white" stop-opacity="0"/>
<stop offset="1" stop-color="white"/>
</linearGradient>
<linearGradient id="paint12_linear_245_7612" x1="142.996" y1="81.7964" x2="142.996" y2="93.9971" gradientUnits="userSpaceOnUse">
<stop stop-color="white" stop-opacity="0"/>
<stop offset="1" stop-color="white"/>
</linearGradient>
<linearGradient id="paint13_linear_245_7612" x1="142.996" y1="61.9585" x2="142.996" y2="100.407" gradientUnits="userSpaceOnUse">
<stop stop-color="white"/>
<stop offset="1" stop-color="white" stop-opacity="0"/>
</linearGradient>
<linearGradient id="paint14_linear_245_7612" x1="152.205" y1="70.4863" x2="158.129" y2="96.1484" gradientUnits="userSpaceOnUse">
<stop offset="0.5" stop-color="white" stop-opacity="0"/>
<stop offset="1" stop-color="white"/>
</linearGradient>
<linearGradient id="paint15_linear_245_7612" x1="142.992" y1="74.0392" x2="129.663" y2="50.75" gradientUnits="userSpaceOnUse">
<stop offset="0.582792" stop-color="white" stop-opacity="0"/>
<stop offset="1" stop-color="white"/>
</linearGradient>
<radialGradient id="paint16_radial_245_7612" cx="0" cy="0" r="1" gradientUnits="userSpaceOnUse" gradientTransform="translate(8.97281 8.97281) rotate(90) scale(8.97281)">
<stop stop-color="white"/>
<stop offset="1" stop-color="white" stop-opacity="0"/>
</radialGradient>
</defs>
</svg>
