<svg width="162" height="224" viewBox="0 0 162 224" fill="none" xmlns="http://www.w3.org/2000/svg">
<path d="M184.503 159.559L119.827 159.559" stroke="url(#paint0_linear_13_11003)" stroke-width="1.04176" stroke-linecap="round"/>
<path d="M212.358 122.928L127.84 122.928" stroke="url(#paint1_linear_13_11003)" stroke-width="1.04176" stroke-linecap="round"/>
<path d="M212.358 141.243L147.682 141.243" stroke="url(#paint2_linear_13_11003)" stroke-width="1.04176" stroke-linecap="round"/>
<path d="M201.101 104.994L143.866 104.994" stroke="url(#paint3_linear_13_11003)" stroke-width="1.04176" stroke-linecap="round"/>
<g style="mix-blend-mode:screen" opacity="0.5" filter="url(#filter0_f_13_11003)">
<path d="M184.503 159.559L119.827 159.559" stroke="url(#paint4_linear_13_11003)" stroke-width="1.04176" stroke-linecap="round"/>
<path d="M212.358 122.928L127.84 122.928" stroke="url(#paint5_linear_13_11003)" stroke-width="1.04176" stroke-linecap="round"/>
<path d="M212.358 141.243L147.682 141.243" stroke="url(#paint6_linear_13_11003)" stroke-width="1.04176" stroke-linecap="round"/>
<path d="M201.101 104.994L143.866 104.994" stroke="url(#paint7_linear_13_11003)" stroke-width="1.04176" stroke-linecap="round"/>
</g>
<g filter="url(#filter1_bi_13_11003)">
<path d="M120.638 138.121V165.235H53.0661C33.3797 165.235 16.1906 154.33 6.99409 138.121C5.65716 135.764 4.48705 133.292 3.50551 130.726C1.57869 125.697 0.367474 120.302 0 114.672V107.341C0.0797805 106.086 0.205495 104.841 0.369891 103.611C0.705936 101.087 1.21363 98.6173 1.88089 96.2164C8.19321 73.455 28.7186 56.7771 53.0661 56.7771C77.4137 56.7771 97.9366 73.455 104.249 96.2164H75.3563C70.613 88.7969 62.4028 83.8917 53.0661 83.8917C43.7294 83.8917 35.5192 88.7969 30.7759 96.2164C29.3302 98.4719 28.2084 100.959 27.4735 103.611C26.8207 105.963 26.4726 108.443 26.4726 111.006C26.4726 118.778 29.6783 125.784 34.8181 130.726C39.5808 135.313 46.0019 138.121 53.0661 138.121H120.638Z" fill="white" fill-opacity="0.02"/>
<path d="M120.638 138.121V165.235H53.0661C33.3797 165.235 16.1906 154.33 6.99409 138.121C5.65716 135.764 4.48705 133.292 3.50551 130.726C1.57869 125.697 0.367474 120.302 0 114.672V107.341C0.0797805 106.086 0.205495 104.841 0.369891 103.611C0.705936 101.087 1.21363 98.6173 1.88089 96.2164C8.19321 73.455 28.7186 56.7771 53.0661 56.7771C77.4137 56.7771 97.9366 73.455 104.249 96.2164H75.3563C70.613 88.7969 62.4028 83.8917 53.0661 83.8917C43.7294 83.8917 35.5192 88.7969 30.7759 96.2164C29.3302 98.4719 28.2084 100.959 27.4735 103.611C26.8207 105.963 26.4726 108.443 26.4726 111.006C26.4726 118.778 29.6783 125.784 34.8181 130.726C39.5808 135.313 46.0019 138.121 53.0661 138.121H120.638Z" fill="url(#paint8_linear_13_11003)" fill-opacity="0.08"/>
<path d="M53.0661 138.737H120.022V164.619H53.0661C33.6144 164.619 16.6235 153.845 7.52988 137.817C6.20807 135.487 5.05123 133.043 4.08087 130.506L4.08074 130.505C2.17807 125.54 0.980972 120.212 0.616017 114.651V107.36C0.694897 106.127 0.818697 104.903 0.980479 103.693L0.980521 103.693C1.31279 101.197 1.81475 98.7549 2.47441 96.3814L2.4745 96.381C8.71671 73.8724 29.0096 57.3931 53.0661 57.3931C76.8436 57.3931 96.9419 73.4924 103.432 95.6004H75.6912C70.8147 88.1734 62.5054 83.2756 53.0661 83.2756C43.507 83.2756 35.1067 88.2986 30.2569 95.8846C28.7785 98.1912 27.6314 100.735 26.8799 103.447C26.2124 105.851 25.8566 108.387 25.8566 111.006C25.8566 118.95 29.134 126.115 34.3908 131.17C39.2625 135.862 45.8348 138.737 53.0661 138.737Z" stroke="url(#paint9_linear_13_11003)" stroke-opacity="0.15" stroke-width="1.23203"/>
<path d="M53.0661 138.737H120.022V164.619H53.0661C33.6144 164.619 16.6235 153.845 7.52988 137.817C6.20807 135.487 5.05123 133.043 4.08087 130.506L4.08074 130.505C2.17807 125.54 0.980972 120.212 0.616017 114.651V107.36C0.694897 106.127 0.818697 104.903 0.980479 103.693L0.980521 103.693C1.31279 101.197 1.81475 98.7549 2.47441 96.3814L2.4745 96.381C8.71671 73.8724 29.0096 57.3931 53.0661 57.3931C76.8436 57.3931 96.9419 73.4924 103.432 95.6004H75.6912C70.8147 88.1734 62.5054 83.2756 53.0661 83.2756C43.507 83.2756 35.1067 88.2986 30.2569 95.8846C28.7785 98.1912 27.6314 100.735 26.8799 103.447C26.2124 105.851 25.8566 108.387 25.8566 111.006C25.8566 118.95 29.134 126.115 34.3908 131.17C39.2625 135.862 45.8348 138.737 53.0661 138.737Z" stroke="url(#paint10_linear_13_11003)" stroke-width="1.23203"/>
<path d="M53.0661 138.737H120.022V164.619H53.0661C33.6144 164.619 16.6235 153.845 7.52988 137.817C6.20807 135.487 5.05123 133.043 4.08087 130.506L4.08074 130.505C2.17807 125.54 0.980972 120.212 0.616017 114.651V107.36C0.694897 106.127 0.818697 104.903 0.980479 103.693L0.980521 103.693C1.31279 101.197 1.81475 98.7549 2.47441 96.3814L2.4745 96.381C8.71671 73.8724 29.0096 57.3931 53.0661 57.3931C76.8436 57.3931 96.9419 73.4924 103.432 95.6004H75.6912C70.8147 88.1734 62.5054 83.2756 53.0661 83.2756C43.507 83.2756 35.1067 88.2986 30.2569 95.8846C28.7785 98.1912 27.6314 100.735 26.8799 103.447C26.2124 105.851 25.8566 108.387 25.8566 111.006C25.8566 118.95 29.134 126.115 34.3908 131.17C39.2625 135.862 45.8348 138.737 53.0661 138.737Z" stroke="url(#paint11_linear_13_11003)" stroke-width="1.23203"/>
</g>
<g filter="url(#filter2_bi_13_11003)">
<path d="M120.638 103.611V130.726H71.3145C76.4542 125.784 79.66 118.778 79.66 111.006C79.66 108.443 79.3118 105.963 78.6591 103.611H120.638Z" fill="white" fill-opacity="0.02"/>
<path d="M120.638 103.611V130.726H71.3145C76.4542 125.784 79.66 118.778 79.66 111.006C79.66 108.443 79.3118 105.963 78.6591 103.611H120.638Z" fill="url(#paint12_linear_13_11003)" fill-opacity="0.08"/>
<path d="M120.022 104.227V130.11H72.786C77.429 125.137 80.276 118.41 80.276 111.006C80.276 108.668 79.9927 106.398 79.4573 104.227H120.022Z" stroke="url(#paint13_linear_13_11003)" stroke-opacity="0.15" stroke-width="1.23203"/>
<path d="M120.022 104.227V130.11H72.786C77.429 125.137 80.276 118.41 80.276 111.006C80.276 108.668 79.9927 106.398 79.4573 104.227H120.022Z" stroke="url(#paint14_linear_13_11003)" stroke-width="1.23203"/>
<path d="M120.022 104.227V130.11H72.786C77.429 125.137 80.276 118.41 80.276 111.006C80.276 108.668 79.9927 106.398 79.4573 104.227H120.022Z" stroke="url(#paint15_linear_13_11003)" stroke-width="1.23203"/>
</g>
<g filter="url(#filter3_f_13_11003)">
<g style="mix-blend-mode:screen" filter="url(#filter4_f_13_11003)">
<circle cx="7.05903" cy="7.05903" r="7.05903" transform="matrix(-4.37114e-08 1 1 4.37114e-08 112.779 152.88)" fill="url(#paint16_radial_13_11003)" fill-opacity="0.5"/>
</g>
<g style="mix-blend-mode:screen">
<circle cx="3.87108" cy="3.87108" r="3.87108" transform="matrix(-4.37114e-08 1 1 4.37114e-08 115.967 156.067)" fill="url(#paint17_radial_13_11003)"/>
</g>
</g>
<defs>
<filter id="filter0_f_13_11003" x="115.8" y="83.0329" width="113.228" height="80.553" filterUnits="userSpaceOnUse" color-interpolation-filters="sRGB">
<feFlood flood-opacity="0" result="BackgroundImageFix"/>
<feBlend mode="normal" in="SourceGraphic" in2="BackgroundImageFix" result="shape"/>
<feGaussianBlur stdDeviation="1.75325" result="effect1_foregroundBlur_13_11003"/>
</filter>
<filter id="filter1_bi_13_11003" x="-61.6017" y="-4.82464" width="243.841" height="231.662" filterUnits="userSpaceOnUse" color-interpolation-filters="sRGB">
<feFlood flood-opacity="0" result="BackgroundImageFix"/>
<feGaussianBlur in="BackgroundImageFix" stdDeviation="30.8009"/>
<feComposite in2="SourceAlpha" operator="in" result="effect1_backgroundBlur_13_11003"/>
<feBlend mode="normal" in="SourceGraphic" in2="effect1_backgroundBlur_13_11003" result="shape"/>
<feColorMatrix in="SourceAlpha" type="matrix" values="0 0 0 0 0 0 0 0 0 0 0 0 0 0 0 0 0 0 127 0" result="hardAlpha"/>
<feOffset dy="0.634271"/>
<feGaussianBlur stdDeviation="0.317136"/>
<feComposite in2="hardAlpha" operator="arithmetic" k2="-1" k3="1"/>
<feColorMatrix type="matrix" values="0 0 0 0 1 0 0 0 0 1 0 0 0 0 1 0 0 0 0.25 0"/>
<feBlend mode="normal" in2="shape" result="effect2_innerShadow_13_11003"/>
</filter>
<filter id="filter2_bi_13_11003" x="9.71272" y="42.0095" width="172.527" height="150.318" filterUnits="userSpaceOnUse" color-interpolation-filters="sRGB">
<feFlood flood-opacity="0" result="BackgroundImageFix"/>
<feGaussianBlur in="BackgroundImageFix" stdDeviation="30.8009"/>
<feComposite in2="SourceAlpha" operator="in" result="effect1_backgroundBlur_13_11003"/>
<feBlend mode="normal" in="SourceGraphic" in2="effect1_backgroundBlur_13_11003" result="shape"/>
<feColorMatrix in="SourceAlpha" type="matrix" values="0 0 0 0 0 0 0 0 0 0 0 0 0 0 0 0 0 0 127 0" result="hardAlpha"/>
<feOffset dy="0.634271"/>
<feGaussianBlur stdDeviation="0.317136"/>
<feComposite in2="hardAlpha" operator="arithmetic" k2="-1" k3="1"/>
<feColorMatrix type="matrix" values="0 0 0 0 1 0 0 0 0 1 0 0 0 0 1 0 0 0 0.25 0"/>
<feBlend mode="normal" in2="shape" result="effect2_innerShadow_13_11003"/>
</filter>
<filter id="filter3_f_13_11003" x="107.77" y="147.87" width="24.1374" height="24.1373" filterUnits="userSpaceOnUse" color-interpolation-filters="sRGB">
<feFlood flood-opacity="0" result="BackgroundImageFix"/>
<feBlend mode="normal" in="SourceGraphic" in2="BackgroundImageFix" result="shape"/>
<feGaussianBlur stdDeviation="2.50482" result="effect1_foregroundBlur_13_11003"/>
</filter>
<filter id="filter4_f_13_11003" x="110.502" y="150.603" width="18.6724" height="18.6723" filterUnits="userSpaceOnUse" color-interpolation-filters="sRGB">
<feFlood flood-opacity="0" result="BackgroundImageFix"/>
<feBlend mode="normal" in="SourceGraphic" in2="BackgroundImageFix" result="shape"/>
<feGaussianBlur stdDeviation="1.13855" result="effect1_foregroundBlur_13_11003"/>
</filter>
<linearGradient id="paint0_linear_13_11003" x1="184.694" y1="159.559" x2="125.866" y2="179.562" gradientUnits="userSpaceOnUse">
<stop stop-color="#FD366E" stop-opacity="0"/>
<stop offset="0.935" stop-color="white"/>
</linearGradient>
<linearGradient id="paint1_linear_13_11003" x1="212.607" y1="122.928" x2="126.983" y2="126.397" gradientUnits="userSpaceOnUse">
<stop stop-color="#FD366E" stop-opacity="0"/>
<stop offset="1" stop-color="white"/>
</linearGradient>
<linearGradient id="paint2_linear_13_11003" x1="212.548" y1="141.243" x2="146.985" y2="143.335" gradientUnits="userSpaceOnUse">
<stop stop-color="white" stop-opacity="0"/>
<stop offset="1" stop-color="white"/>
</linearGradient>
<linearGradient id="paint3_linear_13_11003" x1="201.27" y1="104.994" x2="154.583" y2="128.057" gradientUnits="userSpaceOnUse">
<stop stop-color="white" stop-opacity="0"/>
<stop offset="1" stop-color="white"/>
</linearGradient>
<linearGradient id="paint4_linear_13_11003" x1="184.694" y1="159.559" x2="125.866" y2="179.562" gradientUnits="userSpaceOnUse">
<stop stop-color="#FD366E" stop-opacity="0"/>
<stop offset="0.935" stop-color="white"/>
</linearGradient>
<linearGradient id="paint5_linear_13_11003" x1="212.607" y1="122.928" x2="126.983" y2="126.397" gradientUnits="userSpaceOnUse">
<stop stop-color="#FD366E" stop-opacity="0"/>
<stop offset="1" stop-color="white"/>
</linearGradient>
<linearGradient id="paint6_linear_13_11003" x1="212.548" y1="141.243" x2="146.985" y2="143.335" gradientUnits="userSpaceOnUse">
<stop stop-color="white" stop-opacity="0"/>
<stop offset="1" stop-color="white"/>
</linearGradient>
<linearGradient id="paint7_linear_13_11003" x1="201.27" y1="104.994" x2="154.583" y2="128.057" gradientUnits="userSpaceOnUse">
<stop stop-color="white" stop-opacity="0"/>
<stop offset="1" stop-color="white"/>
</linearGradient>
<linearGradient id="paint8_linear_13_11003" x1="60.3189" y1="126.842" x2="60.3189" y2="165.235" gradientUnits="userSpaceOnUse">
<stop stop-color="white" stop-opacity="0"/>
<stop offset="1" stop-color="white"/>
</linearGradient>
<linearGradient id="paint9_linear_13_11003" x1="60.3189" y1="64.4144" x2="60.3189" y2="185.405" gradientUnits="userSpaceOnUse">
<stop stop-color="white"/>
<stop offset="1" stop-color="white" stop-opacity="0"/>
</linearGradient>
<linearGradient id="paint10_linear_13_11003" x1="78.0381" y1="91.2503" x2="106.145" y2="165.697" gradientUnits="userSpaceOnUse">
<stop offset="0.5" stop-color="white" stop-opacity="0"/>
<stop offset="1" stop-color="white"/>
</linearGradient>
<linearGradient id="paint11_linear_13_11003" x1="60.3114" y1="102.431" x2="11.7691" y2="50.5725" gradientUnits="userSpaceOnUse">
<stop offset="0.582792" stop-color="white" stop-opacity="0"/>
<stop offset="1" stop-color="white"/>
</linearGradient>
<linearGradient id="paint12_linear_13_11003" x1="95.9763" y1="121.127" x2="95.9763" y2="130.726" gradientUnits="userSpaceOnUse">
<stop stop-color="white" stop-opacity="0"/>
<stop offset="1" stop-color="white"/>
</linearGradient>
<linearGradient id="paint13_linear_13_11003" x1="95.9763" y1="105.521" x2="95.9763" y2="135.768" gradientUnits="userSpaceOnUse">
<stop stop-color="white"/>
<stop offset="1" stop-color="white" stop-opacity="0"/>
</linearGradient>
<linearGradient id="paint14_linear_13_11003" x1="103.221" y1="112.23" x2="107.881" y2="132.418" gradientUnits="userSpaceOnUse">
<stop offset="0.5" stop-color="white" stop-opacity="0"/>
<stop offset="1" stop-color="white"/>
</linearGradient>
<linearGradient id="paint15_linear_13_11003" x1="95.9732" y1="115.025" x2="85.4865" y2="96.7027" gradientUnits="userSpaceOnUse">
<stop offset="0.582792" stop-color="white" stop-opacity="0"/>
<stop offset="1" stop-color="white"/>
</linearGradient>
<radialGradient id="paint16_radial_13_11003" cx="0" cy="0" r="1" gradientUnits="userSpaceOnUse" gradientTransform="translate(7.05903 7.05903) rotate(90) scale(7.05903)">
<stop stop-color="white"/>
<stop offset="1" stop-color="white" stop-opacity="0"/>
</radialGradient>
<radialGradient id="paint17_radial_13_11003" cx="0" cy="0" r="1" gradientUnits="userSpaceOnUse" gradientTransform="translate(3.87108 3.87108) rotate(90) scale(3.87108)">
<stop stop-color="white"/>
<stop offset="1" stop-color="white" stop-opacity="0"/>
</radialGradient>
</defs>
</svg>
