<svg width="35" height="28" viewBox="0 0 35 28" fill="none" xmlns="http://www.w3.org/2000/svg">
<g filter="url(#filter0_b_1417_5285)">
<path d="M4.80374 17.8346C5.11761 17.1699 5.27454 16.8376 5.5152 16.5943C5.72797 16.3793 5.98675 16.2153 6.27206 16.1147C6.59477 16.001 6.96229 16.001 7.69733 16.001L26.3085 16.001C27.0436 16.001 27.4111 16.001 27.7338 16.1147C28.0191 16.2153 28.2779 16.3793 28.4907 16.5943C28.7313 16.8376 28.8883 17.1699 29.2021 17.8346L31.8466 23.4346C32.5629 24.9515 32.9211 25.71 32.8204 26.3244C32.7324 26.8611 32.4297 27.3389 31.9819 27.6476C31.4693 28.001 30.6305 28.001 28.953 28.001L5.05289 28.001C3.37533 28.001 2.53654 28.001 2.02395 27.6476C1.57616 27.3389 1.27342 26.8611 1.18548 26.3244C1.0848 25.71 1.44296 24.9515 2.15929 23.4346L4.80374 17.8346Z" fill="url(#paint0_linear_1417_5285)" fill-opacity="0.32"/>
<path d="M4.91677 17.8879C5.23461 17.2149 5.38204 16.9066 5.60405 16.6822C5.80353 16.4806 6.04613 16.3269 6.31362 16.2326C6.61133 16.1277 6.95298 16.126 7.69733 16.126L26.3085 16.126C27.0529 16.126 27.3945 16.1277 27.6922 16.2326C27.9597 16.3269 28.2023 16.4806 28.4018 16.6822L28.4907 16.5943L28.4018 16.6822C28.6238 16.9066 28.7712 17.2149 29.0891 17.8879L31.7335 23.4879C32.0927 24.2486 32.3584 24.8114 32.5224 25.2608C32.6865 25.7102 32.7421 26.0289 32.697 26.3042C32.6146 26.8073 32.3308 27.2553 31.911 27.5447C31.6813 27.703 31.3694 27.7888 30.8929 27.8323C30.4165 27.8759 29.7942 27.876 28.953 27.876L5.05289 27.876C4.21168 27.876 3.58936 27.8759 3.11293 27.8323C2.63647 27.7888 2.32456 27.703 2.0949 27.5447C1.6751 27.2553 1.39128 26.8073 1.30883 26.3042C1.26372 26.0289 1.31934 25.7102 1.48343 25.2608C1.6475 24.8114 1.91312 24.2486 2.27233 23.4879L4.91677 17.8879Z" stroke="url(#paint1_linear_1417_5285)" stroke-width="0.25"/>
</g>
<g filter="url(#filter1_b_1417_5285)">
<path d="M4.80374 9.83407C5.11761 9.1694 5.27454 8.83707 5.5152 8.59384C5.72797 8.37879 5.98675 8.2148 6.27206 8.11424C6.59477 8.00049 6.96229 8.00049 7.69733 8.00049L26.3085 8.00049C27.0436 8.00049 27.4111 8.00049 27.7338 8.11424C28.0191 8.2148 28.2779 8.37879 28.4907 8.59384C28.7313 8.83707 28.8883 9.1694 29.2021 9.83407L31.8466 15.4341C32.5629 16.951 32.9211 17.7095 32.8204 18.3239C32.7324 18.8606 32.4297 19.3384 31.9819 19.6471C31.4693 20.0005 30.6305 20.0005 28.953 20.0005L5.05289 20.0005C3.37533 20.0005 2.53654 20.0005 2.02395 19.6471C1.57616 19.3384 1.27342 18.8606 1.18548 18.3239C1.0848 17.7095 1.44296 16.951 2.15929 15.4341L4.80374 9.83407Z" fill="url(#paint2_linear_1417_5285)" fill-opacity="0.32"/>
<path d="M4.91677 9.88744C5.23461 9.21437 5.38204 8.90615 5.60405 8.68175C5.80353 8.48014 6.04613 8.32641 6.31362 8.23213C6.61133 8.12719 6.95298 8.12549 7.69733 8.12549L26.3085 8.12549C27.0529 8.12549 27.3945 8.12719 27.6922 8.23213C27.9597 8.32641 28.2023 8.48014 28.4018 8.68175L28.4907 8.59384L28.4018 8.68175C28.6238 8.90615 28.7712 9.21437 29.0891 9.88744L31.7335 15.4874C32.0927 16.2481 32.3584 16.8109 32.5224 17.2603C32.6865 17.7097 32.7421 18.0284 32.697 18.3037C32.6146 18.8069 32.3308 19.2548 31.911 19.5442C31.6813 19.7025 31.3694 19.7883 30.8929 19.8318C30.4165 19.8754 29.7942 19.8755 28.953 19.8755L5.05289 19.8755C4.21168 19.8755 3.58936 19.8754 3.11293 19.8318C2.63647 19.7883 2.32456 19.7025 2.0949 19.5442C1.6751 19.2548 1.39128 18.8069 1.30883 18.3037C1.26372 18.0284 1.31934 17.7097 1.48343 17.2603C1.6475 16.8109 1.91312 16.2481 2.27233 15.4874L4.91677 9.88744Z" stroke="url(#paint3_linear_1417_5285)" stroke-width="0.25"/>
</g>
<path d="M4.80374 1.83358C5.11761 1.16892 5.27454 0.836584 5.5152 0.593349C5.72797 0.378298 5.98675 0.214316 6.27206 0.113748C6.59477 0 6.96229 0 7.69733 0L26.3085 0C27.0436 0 27.4111 0 27.7338 0.113748C28.0191 0.214316 28.2779 0.378298 28.4907 0.593349C28.7313 0.836584 28.8883 1.16892 29.2021 1.83358L31.8466 7.43358C32.5629 8.95052 32.9211 9.70898 32.8204 10.3234C32.7324 10.8601 32.4297 11.3379 31.9819 11.6466C31.4693 12 30.6305 12 28.953 12L5.05289 12C3.37533 12 2.53654 12 2.02395 11.6466C1.57616 11.3379 1.27342 10.8601 1.18548 10.3234C1.0848 9.70898 1.44296 8.95052 2.15929 7.43358L4.80374 1.83358Z" fill="url(#paint4_linear_1417_5285)"/>
<defs>
<filter id="filter0_b_1417_5285" x="-6.83105" y="8.00098" width="47.668" height="28" filterUnits="userSpaceOnUse" color-interpolation-filters="sRGB">
<feFlood flood-opacity="0" result="BackgroundImageFix"/>
<feGaussianBlur in="BackgroundImageFix" stdDeviation="4"/>
<feComposite in2="SourceAlpha" operator="in" result="effect1_backgroundBlur_1417_5285"/>
<feBlend mode="normal" in="SourceGraphic" in2="effect1_backgroundBlur_1417_5285" result="shape"/>
</filter>
<filter id="filter1_b_1417_5285" x="-6.83105" y="0.000488281" width="47.668" height="28" filterUnits="userSpaceOnUse" color-interpolation-filters="sRGB">
<feFlood flood-opacity="0" result="BackgroundImageFix"/>
<feGaussianBlur in="BackgroundImageFix" stdDeviation="4"/>
<feComposite in2="SourceAlpha" operator="in" result="effect1_backgroundBlur_1417_5285"/>
<feBlend mode="normal" in="SourceGraphic" in2="effect1_backgroundBlur_1417_5285" result="shape"/>
</filter>
<linearGradient id="paint0_linear_1417_5285" x1="24.001" y1="28.0005" x2="24.001" y2="10.5005" gradientUnits="userSpaceOnUse">
<stop stop-color="#FD366E" stop-opacity="0.64"/>
<stop offset="0.438454" stop-color="#FD366E" stop-opacity="0.4"/>
<stop offset="1" stop-color="white" stop-opacity="0"/>
<stop offset="1" stop-color="#FD366E" stop-opacity="0"/>
</linearGradient>
<linearGradient id="paint1_linear_1417_5285" x1="-0.121224" y1="22.7279" x2="31.5477" y2="31.7634" gradientUnits="userSpaceOnUse">
<stop stop-color="white" stop-opacity="0.08"/>
<stop offset="1" stop-color="white" stop-opacity="0"/>
</linearGradient>
<linearGradient id="paint2_linear_1417_5285" x1="24.001" y1="20" x2="24.001" y2="2.5" gradientUnits="userSpaceOnUse">
<stop stop-color="#FD366E" stop-opacity="0.64"/>
<stop offset="0.438454" stop-color="#FD366E" stop-opacity="0.4"/>
<stop offset="1" stop-color="white" stop-opacity="0"/>
<stop offset="1" stop-color="#FD366E" stop-opacity="0"/>
</linearGradient>
<linearGradient id="paint3_linear_1417_5285" x1="-0.121224" y1="14.7274" x2="31.5477" y2="23.7629" gradientUnits="userSpaceOnUse">
<stop stop-color="white" stop-opacity="0.08"/>
<stop offset="1" stop-color="white" stop-opacity="0"/>
</linearGradient>
<linearGradient id="paint4_linear_1417_5285" x1="25.125" y1="-1.94714e-09" x2="25.125" y2="11.875" gradientUnits="userSpaceOnUse">
<stop stop-color="#FD366E" stop-opacity="0.32"/>
<stop offset="0.423207" stop-color="#FD366E"/>
<stop offset="1" stop-color="#FD5E6B"/>
</linearGradient>
</defs>
</svg>
