<svg width="40" height="40" viewBox="0 0 40 40" fill="none" xmlns="http://www.w3.org/2000/svg">
<circle cx="14" cy="20" r="11" fill="url(#paint0_linear_1388_57272)"/>
<g clip-path="url(#clip0_1388_57272)">
<g filter="url(#filter0_bdi_1388_57272)">
<mask id="path-2-inside-1_1388_57272" fill="white">
<path fill-rule="evenodd" clip-rule="evenodd" d="M22.0002 32.7999C29.0694 32.7999 34.8002 27.0692 34.8002 20C34.8002 12.9307 29.0694 7.19995 22.0002 7.19995C14.931 7.19995 9.2002 12.9307 9.2002 20C9.2002 27.0692 14.931 32.7999 22.0002 32.7999ZM22.9997 13.6C22.9997 13.0477 22.552 12.6 21.9997 12.6C21.4474 12.6 20.9997 13.0477 20.9997 13.6V20C20.9997 20.2652 21.105 20.5196 21.2926 20.7071L25.8181 25.2326C26.2086 25.6231 26.8417 25.6231 27.2323 25.2326C27.6228 24.8421 27.6228 24.2089 27.2323 23.8184L22.9997 19.5858V13.6Z"/>
</mask>
<path fill-rule="evenodd" clip-rule="evenodd" d="M22.0002 32.7999C29.0694 32.7999 34.8002 27.0692 34.8002 20C34.8002 12.9307 29.0694 7.19995 22.0002 7.19995C14.931 7.19995 9.2002 12.9307 9.2002 20C9.2002 27.0692 14.931 32.7999 22.0002 32.7999ZM22.9997 13.6C22.9997 13.0477 22.552 12.6 21.9997 12.6C21.4474 12.6 20.9997 13.0477 20.9997 13.6V20C20.9997 20.2652 21.105 20.5196 21.2926 20.7071L25.8181 25.2326C26.2086 25.6231 26.8417 25.6231 27.2323 25.2326C27.6228 24.8421 27.6228 24.2089 27.2323 23.8184L22.9997 19.5858V13.6Z" fill="url(#paint1_linear_1388_57272)" fill-opacity="0.32" shape-rendering="crispEdges"/>
<path d="M25.8181 25.2326L25.9948 25.0558L25.8181 25.2326ZM27.2323 25.2326L27.0555 25.0558L27.2323 25.2326ZM27.2323 23.8184L27.409 23.6416L27.2323 23.8184ZM22.9997 19.5858H22.7497V19.6894L22.8229 19.7626L22.9997 19.5858ZM34.5502 20C34.5502 26.9311 28.9314 32.5499 22.0002 32.5499V33.0499C29.2075 33.0499 35.0502 27.2073 35.0502 20H34.5502ZM22.0002 7.44995C28.9314 7.44995 34.5502 13.0688 34.5502 20H35.0502C35.0502 12.7926 29.2075 6.94995 22.0002 6.94995V7.44995ZM9.4502 20C9.4502 13.0688 15.069 7.44995 22.0002 7.44995V6.94995C14.7929 6.94995 8.9502 12.7926 8.9502 20H9.4502ZM22.0002 32.5499C15.069 32.5499 9.4502 26.9311 9.4502 20H8.9502C8.9502 27.2073 14.7929 33.0499 22.0002 33.0499V32.5499ZM21.9997 12.85C22.4139 12.85 22.7497 13.1858 22.7497 13.6H23.2497C23.2497 12.9097 22.69 12.35 21.9997 12.35V12.85ZM21.2497 13.6C21.2497 13.1858 21.5855 12.85 21.9997 12.85V12.35C21.3093 12.35 20.7497 12.9097 20.7497 13.6H21.2497ZM21.2497 20V13.6H20.7497V20H21.2497ZM21.4693 20.5303C21.3287 20.3897 21.2497 20.1989 21.2497 20H20.7497C20.7497 20.3315 20.8814 20.6495 21.1158 20.8839L21.4693 20.5303ZM25.9948 25.0558L21.4693 20.5303L21.1158 20.8839L25.6413 25.4094L25.9948 25.0558ZM27.0555 25.0558C26.7626 25.3487 26.2877 25.3487 25.9948 25.0558L25.6413 25.4094C26.1294 25.8975 26.9209 25.8975 27.409 25.4094L27.0555 25.0558ZM27.0555 23.9952C27.3484 24.2881 27.3484 24.7629 27.0555 25.0558L27.409 25.4094C27.8972 24.9212 27.8972 24.1298 27.409 23.6416L27.0555 23.9952ZM22.8229 19.7626L27.0555 23.9952L27.409 23.6416L23.1765 19.409L22.8229 19.7626ZM22.7497 13.6V19.5858H23.2497V13.6H22.7497Z" fill="url(#paint2_linear_1388_57272)" mask="url(#path-2-inside-1_1388_57272)"/>
</g>
</g>
<defs>
<filter id="filter0_bdi_1388_57272" x="3.8702" y="1.86995" width="36.2596" height="36.2601" filterUnits="userSpaceOnUse" color-interpolation-filters="sRGB">
<feFlood flood-opacity="0" result="BackgroundImageFix"/>
<feGaussianBlur in="BackgroundImageFix" stdDeviation="2.665"/>
<feComposite in2="SourceAlpha" operator="in" result="effect1_backgroundBlur_1388_57272"/>
<feColorMatrix in="SourceAlpha" type="matrix" values="0 0 0 0 0 0 0 0 0 0 0 0 0 0 0 0 0 0 127 0" result="hardAlpha"/>
<feOffset dx="-2"/>
<feGaussianBlur stdDeviation="1.5"/>
<feComposite in2="hardAlpha" operator="out"/>
<feColorMatrix type="matrix" values="0 0 0 0 0 0 0 0 0 0 0 0 0 0 0 0 0 0 0.15 0"/>
<feBlend mode="normal" in2="effect1_backgroundBlur_1388_57272" result="effect2_dropShadow_1388_57272"/>
<feBlend mode="normal" in="SourceGraphic" in2="effect2_dropShadow_1388_57272" result="shape"/>
<feColorMatrix in="SourceAlpha" type="matrix" values="0 0 0 0 0 0 0 0 0 0 0 0 0 0 0 0 0 0 127 0" result="hardAlpha"/>
<feOffset dy="2"/>
<feGaussianBlur stdDeviation="2"/>
<feComposite in2="hardAlpha" operator="arithmetic" k2="-1" k3="1"/>
<feColorMatrix type="matrix" values="0 0 0 0 1 0 0 0 0 1 0 0 0 0 1 0 0 0 0.08 0"/>
<feBlend mode="normal" in2="shape" result="effect3_innerShadow_1388_57272"/>
</filter>
<linearGradient id="paint0_linear_1388_57272" x1="19.5" y1="16.5625" x2="0.937501" y2="41.3125" gradientUnits="userSpaceOnUse">
<stop stop-color="#FD366E"/>
<stop offset="1" stop-color="#FE9567"/>
</linearGradient>
<linearGradient id="paint1_linear_1388_57272" x1="1.69178" y1="2.15368" x2="36.1533" y2="37.846" gradientUnits="userSpaceOnUse">
<stop stop-color="#FD366E" stop-opacity="0"/>
<stop offset="0.479167" stop-color="#FD366E" stop-opacity="0.64"/>
<stop offset="1" stop-color="#FD366E" stop-opacity="0"/>
</linearGradient>
<linearGradient id="paint2_linear_1388_57272" x1="2.30717" y1="17.5383" x2="35" y2="23.9998" gradientUnits="userSpaceOnUse">
<stop stop-color="white" stop-opacity="0.08"/>
<stop offset="0.529508" stop-color="white" stop-opacity="0.17"/>
<stop offset="1" stop-color="white" stop-opacity="0"/>
</linearGradient>
<clipPath id="clip0_1388_57272">
<rect width="32" height="32" fill="white" transform="translate(6 4)"/>
</clipPath>
</defs>
</svg>
