<svg width="41" height="40" viewBox="0 0 41 40" fill="none" xmlns="http://www.w3.org/2000/svg">
<path d="M34.3998 28.6296C34.7719 28.979 34.9579 29.1537 35.0911 29.3608C35.2093 29.5443 35.2965 29.746 35.3495 29.9578C35.4092 30.1967 35.4092 30.4519 35.4092 30.9622L35.4092 33.2647C35.4092 34.2573 35.4092 34.7535 35.2259 35.1517C35.0644 35.5025 34.8048 35.799 34.4785 36.0054C34.1081 36.2398 33.6162 36.3054 32.6323 36.4366L28.0317 37.0503C27.1067 37.1737 26.2847 36.4541 26.2847 35.5209C26.2847 34.979 26.0005 34.4769 25.5359 34.198L20.956 31.449C20.679 31.2827 20.5405 31.1995 20.3928 31.1403C20.2547 31.0848 20.1108 31.0449 19.9638 31.0214C19.8067 30.9962 19.6452 30.9962 19.3221 30.9962H19.1621C18.2163 30.9962 17.7434 30.9962 17.3711 30.8395C16.8897 30.6368 16.5067 30.2538 16.304 29.7724C16.1472 29.4001 16.1472 28.9272 16.1472 27.9814C16.1472 27.6355 16.1472 27.4625 16.1189 27.296C16.0822 27.0805 16.0105 26.8725 15.9065 26.6802C15.8262 26.5316 15.7196 26.3954 15.5064 26.123L13.0122 22.9369C12.9222 22.822 12.8773 22.7645 12.8375 22.7055C12.6419 22.4153 12.5259 22.0789 12.501 21.7299C12.496 21.6589 12.496 21.5859 12.496 21.44C12.496 21.303 12.496 21.2345 12.4915 21.1676C12.4694 20.8389 12.3666 20.5208 12.192 20.2415C12.1565 20.1847 12.1163 20.1291 12.0361 20.018L10.2506 17.5463C10.2391 17.5303 10.2333 17.5224 10.2278 17.5146C9.9924 17.182 9.86418 16.7856 9.86027 16.3782C9.86018 16.3686 9.86018 16.3588 9.86018 16.3392C9.86018 16.3113 9.86018 16.2974 9.86 16.2841C9.85241 15.7144 9.60223 15.175 9.17224 14.8012C9.16218 14.7925 9.15154 14.7835 9.13027 14.7655L8.35747 14.1116C7.94082 13.7591 7.7325 13.5829 7.5828 13.3678C7.45016 13.1772 7.35172 12.9649 7.2919 12.7406C7.22438 12.4874 7.22438 12.2145 7.22438 11.6687V9.79338C7.22438 9.35721 7.01396 8.94783 6.65928 8.69397C6.15701 8.33447 5.96224 7.68029 6.18608 7.10461L7.08506 4.79249C7.08842 4.78384 7.09011 4.77951 7.09176 4.77521C7.17832 4.5495 7.22325 4.30998 7.22436 4.06825C7.22438 4.06364 7.22438 4.059 7.22438 4.04971C7.22438 4.00356 7.22438 3.98048 7.22476 3.96096C7.24573 2.88697 8.11135 2.02135 9.18534 2.00038C9.20486 2 9.22794 2 9.27409 2L15.583 2C16.7031 2 17.2632 2 17.691 2.21799C18.0673 2.40973 18.3733 2.71569 18.565 3.09202C18.783 3.51984 18.783 4.07989 18.783 5.2V9.7252C18.783 9.79229 18.7287 9.84667 18.6616 9.84667C17.3133 9.84667 16.4436 11.1925 16.4436 12.5383L16.4436 19.9915C16.4436 21.3373 17.3133 22.6831 18.6616 22.6831L26.8008 22.6831C27.269 22.6831 27.5031 22.6831 27.7245 22.7341C27.9208 22.7793 28.1092 22.8539 28.2832 22.9553C28.4795 23.0697 28.6502 23.23 28.9914 23.5505L34.3998 28.6296Z" fill="url(#paint0_linear_36_403)" stroke="#FD366E" stroke-width="1.2" stroke-linecap="round" stroke-linejoin="round"/>
<path d="M22.45 10.1766V8.08508C22.45 7.39171 22.745 6.72673 23.2701 6.23644C23.7952 5.74615 24.5073 5.4707 25.25 5.4707C25.9926 5.4707 26.7047 5.74615 27.2299 6.23644C27.755 6.72673 28.05 7.39171 28.05 8.08508V10.1766" fill="url(#paint1_linear_36_403)"/>
<path d="M22.45 10.1766V8.08508C22.45 7.39171 22.745 6.72673 23.2701 6.23644C23.7952 5.74615 24.5073 5.4707 25.25 5.4707C25.9926 5.4707 26.7047 5.74615 27.2299 6.23644C27.755 6.72673 28.05 7.39171 28.05 8.08508V10.1766" stroke="white" stroke-width="1.2" stroke-linecap="round" stroke-linejoin="round"/>
<path d="M30.3314 10.1763H20.1684C19.3666 10.1763 18.7166 11.019 18.7166 12.0586V18.6469C18.7166 19.6865 19.3666 20.5292 20.1684 20.5292H30.3314C31.1332 20.5292 31.7832 19.6865 31.7832 18.6469V12.0586C31.7832 11.019 31.1332 10.1763 30.3314 10.1763Z" fill="url(#paint2_linear_36_403)"/>
<path d="M20.1684 10.7763H30.3314V9.57627H20.1684V10.7763ZM30.3314 10.7763C30.6663 10.7763 31.1832 11.1962 31.1832 12.0586H32.3832C32.3832 10.8418 31.6001 9.57627 30.3314 9.57627V10.7763ZM31.1832 12.0586V18.6469H32.3832V12.0586H31.1832ZM31.1832 18.6469C31.1832 19.5093 30.6663 19.9292 30.3314 19.9292V21.1292C31.6001 21.1292 32.3832 19.8636 32.3832 18.6469H31.1832ZM30.3314 19.9292H20.1684V21.1292H30.3314V19.9292ZM20.1684 19.9292C19.8335 19.9292 19.3166 19.5093 19.3166 18.6469H18.1166C18.1166 19.8636 18.8996 21.1292 20.1684 21.1292V19.9292ZM19.3166 18.6469V12.0586H18.1166V18.6469H19.3166ZM19.3166 12.0586C19.3166 11.1962 19.8335 10.7763 20.1684 10.7763V9.57627C18.8996 9.57627 18.1166 10.8418 18.1166 12.0586H19.3166Z" fill="white"/>
<path fill-rule="evenodd" clip-rule="evenodd" d="M26.1873 15.6668C26.6758 15.3538 27 14.8032 27 14.1763C27 13.2017 26.2165 12.4116 25.25 12.4116C24.2835 12.4116 23.5 13.2017 23.5 14.1763C23.5 14.8032 23.8242 15.3538 24.3127 15.6668L23.7917 18.294H26.7083L26.1873 15.6668Z" fill="url(#paint3_linear_36_403)"/>
<path d="M26.1873 15.6668L25.8636 15.1617C25.6558 15.2948 25.5507 15.5415 25.5988 15.7836L26.1873 15.6668ZM24.3127 15.6668L24.9013 15.7836C24.9493 15.5415 24.8442 15.2948 24.6364 15.1617L24.3127 15.6668ZM23.7917 18.294L23.2031 18.1772C23.1682 18.3534 23.214 18.5359 23.328 18.6747C23.4419 18.8135 23.6121 18.894 23.7917 18.894V18.294ZM26.7083 18.294V18.894C26.8879 18.894 27.0581 18.8135 27.172 18.6747C27.286 18.5359 27.3318 18.3534 27.2969 18.1772L26.7083 18.294ZM26.4 14.1763C26.4 14.5918 26.1859 14.9551 25.8636 15.1617L26.511 16.172C27.1657 15.7525 27.6 15.0147 27.6 14.1763H26.4ZM25.25 13.0116C25.8804 13.0116 26.4 13.5283 26.4 14.1763H27.6C27.6 12.8751 26.5526 11.8116 25.25 11.8116V13.0116ZM24.1 14.1763C24.1 13.5283 24.6196 13.0116 25.25 13.0116V11.8116C23.9474 11.8116 22.9 12.8751 22.9 14.1763H24.1ZM24.6364 15.1617C24.3141 14.9551 24.1 14.5918 24.1 14.1763H22.9C22.9 15.0147 23.3343 15.7525 23.989 16.172L24.6364 15.1617ZM24.3802 18.4107L24.9013 15.7836L23.7242 15.5501L23.2031 18.1772L24.3802 18.4107ZM26.7083 17.694H23.7917V18.894H26.7083V17.694ZM25.5988 15.7836L26.1198 18.4107L27.2969 18.1772L26.7758 15.5501L25.5988 15.7836Z" fill="white"/>
<defs>
<linearGradient id="paint0_linear_36_403" x1="20.6093" y1="2.44449" x2="20.6093" y2="36.8457" gradientUnits="userSpaceOnUse">
<stop stop-color="#FD366E" stop-opacity="0"/>
<stop offset="1" stop-color="#FD366E" stop-opacity="0.32"/>
</linearGradient>
<linearGradient id="paint1_linear_36_403" x1="25.25" y1="5.4707" x2="25.25" y2="10.1766" gradientUnits="userSpaceOnUse">
<stop stop-color="white" stop-opacity="0"/>
<stop offset="1" stop-color="white" stop-opacity="0.4"/>
</linearGradient>
<linearGradient id="paint2_linear_36_403" x1="25.2499" y1="10.1763" x2="25.2499" y2="20.5292" gradientUnits="userSpaceOnUse">
<stop stop-color="white" stop-opacity="0"/>
<stop offset="1" stop-color="white" stop-opacity="0.4"/>
</linearGradient>
<linearGradient id="paint3_linear_36_403" x1="25.25" y1="12.4116" x2="25.25" y2="18.294" gradientUnits="userSpaceOnUse">
<stop stop-color="white" stop-opacity="0"/>
<stop offset="1" stop-color="white" stop-opacity="0.4"/>
</linearGradient>
</defs>
</svg>
