<svg width="41" height="40" viewBox="0 0 41 40" fill="none" xmlns="http://www.w3.org/2000/svg">
<rect x="5.5" y="4" width="30" height="32" rx="2" fill="url(#paint0_linear_36_416)" stroke="#FD366E" stroke-width="1.2" stroke-linecap="round" stroke-linejoin="round"/>
<path fill-rule="evenodd" clip-rule="evenodd" d="M16.7218 8H12.2773V10.7773L9.5 10.7773V15.2218H12.2773V18H16.7218V15.2218H19.5V10.7773L16.7218 10.7773V8Z" fill="url(#paint1_linear_36_416)"/>
<path d="M12.2773 8V7.4C11.946 7.4 11.6773 7.66863 11.6773 8H12.2773ZM16.7218 8H17.3218C17.3218 7.66863 17.0532 7.4 16.7218 7.4V8ZM12.2773 10.7773V11.3773C12.4365 11.3773 12.5891 11.3141 12.7016 11.2016C12.8141 11.0891 12.8773 10.9365 12.8773 10.7773H12.2773ZM9.5 10.7773L9.5 10.1773C9.34087 10.1773 9.18826 10.2406 9.07574 10.3531C8.96321 10.4656 8.9 10.6182 8.9 10.7773H9.5ZM9.5 15.2218H8.9C8.9 15.5532 9.16863 15.8218 9.5 15.8218V15.2218ZM12.2773 15.2218H12.8773C12.8773 14.8904 12.6087 14.6218 12.2773 14.6218V15.2218ZM12.2773 18H11.6773C11.6773 18.3314 11.946 18.6 12.2773 18.6V18ZM16.7218 18V18.6C17.0532 18.6 17.3218 18.3314 17.3218 18H16.7218ZM16.7218 15.2218V14.6218C16.3904 14.6218 16.1218 14.8904 16.1218 15.2218H16.7218ZM19.5 15.2218V15.8218C19.8314 15.8218 20.1 15.5532 20.1 15.2218H19.5ZM19.5 10.7773H20.1C20.1 10.446 19.8314 10.1773 19.5 10.1773V10.7773ZM16.7218 10.7773H16.1218C16.1218 11.1087 16.3904 11.3773 16.7218 11.3773V10.7773ZM12.2773 8.6H16.7218V7.4H12.2773V8.6ZM12.8773 10.7773V8H11.6773V10.7773H12.8773ZM9.5 11.3773L12.2773 11.3773V10.1773L9.5 10.1773L9.5 11.3773ZM10.1 15.2218V10.7773H8.9V15.2218H10.1ZM12.2773 14.6218H9.5V15.8218H12.2773V14.6218ZM12.8773 18V15.2218H11.6773V18H12.8773ZM16.7218 17.4H12.2773V18.6H16.7218V17.4ZM16.1218 15.2218V18H17.3218V15.2218H16.1218ZM19.5 14.6218H16.7218V15.8218H19.5V14.6218ZM18.9 10.7773V15.2218H20.1V10.7773H18.9ZM16.7218 11.3773L19.5 11.3773V10.1773L16.7218 10.1773V11.3773ZM16.1218 8V10.7773H17.3218V8H16.1218Z" fill="white"/>
<path d="M9.5 30H16.5" stroke="#FD366E" stroke-width="1.2" stroke-linecap="round" stroke-linejoin="round"/>
<path d="M9.5 26H31.5" stroke="#FD366E" stroke-width="1.2" stroke-linecap="round" stroke-linejoin="round"/>
<path d="M9.5 22H31.5" stroke="#FD366E" stroke-width="1.2" stroke-linecap="round" stroke-linejoin="round"/>
<defs>
<linearGradient id="paint0_linear_36_416" x1="20.5018" y1="4.40313" x2="20.5018" y2="35.6031" gradientUnits="userSpaceOnUse">
<stop stop-color="#FD366E" stop-opacity="0"/>
<stop offset="1" stop-color="#FD366E" stop-opacity="0.32"/>
</linearGradient>
<linearGradient id="paint1_linear_36_416" x1="14.5" y1="8" x2="14.5" y2="18" gradientUnits="userSpaceOnUse">
<stop stop-color="white" stop-opacity="0"/>
<stop offset="1" stop-color="white" stop-opacity="0.4"/>
</linearGradient>
</defs>
</svg>
