<svg width="41" height="40" viewBox="0 0 41 40" fill="none" xmlns="http://www.w3.org/2000/svg">
<path d="M18.8691 5.36656C19.5451 4.87542 19.8831 4.62985 20.2526 4.53497C20.5789 4.45119 20.9211 4.45119 21.2474 4.53497C21.6169 4.62985 21.9549 4.87542 22.6309 5.36656L34.086 13.6892C34.762 14.1803 35.1 14.4259 35.3044 14.748C35.4849 15.0324 35.5907 15.3579 35.6118 15.6941C35.6358 16.0748 35.5067 16.4722 35.2485 17.2669L30.873 30.7331C30.6148 31.5278 30.4857 31.9252 30.2425 32.2191C30.0278 32.4787 29.7509 32.6798 29.4377 32.8038C29.083 32.9443 28.6652 32.9443 27.8296 32.9443H13.6704C12.8348 32.9443 12.417 32.9443 12.0623 32.8038C11.7491 32.6798 11.4722 32.4787 11.2575 32.2191C11.0143 31.9252 10.8852 31.5278 10.627 30.7331L6.25154 17.2669C5.99333 16.4722 5.86423 16.0748 5.88818 15.6941C5.90934 15.3579 6.01507 15.0324 6.19558 14.748C6.40001 14.4259 6.73801 14.1803 7.41401 13.6892L18.8691 5.36656Z" fill="url(#paint0_linear_36_421)" stroke="#FD366E" stroke-width="1.2" stroke-linecap="round" stroke-linejoin="round"/>
<path d="M19.5744 12.8541C20.2754 12.3448 21.2246 12.3448 21.9256 12.8541L27.1829 16.6738C27.8839 17.1831 28.1772 18.0858 27.9094 18.9098L25.9013 25.0902C25.6336 25.9142 24.8656 26.4721 23.9992 26.4721H17.5008C16.6343 26.4721 15.8664 25.9142 15.5987 25.0902L13.5906 18.9098C13.3228 18.0858 13.6161 17.1831 14.3171 16.6738L19.5744 12.8541Z" fill="url(#paint1_linear_36_421)" stroke="white" stroke-width="1.2" stroke-linecap="round" stroke-linejoin="round"/>
<defs>
<linearGradient id="paint0_linear_36_421" x1="20.752" y1="4.40313" x2="20.752" y2="35.6031" gradientUnits="userSpaceOnUse">
<stop stop-color="#FD366E" stop-opacity="0"/>
<stop offset="1" stop-color="#FD366E" stop-opacity="0.32"/>
</linearGradient>
<linearGradient id="paint1_linear_36_421" x1="20.75" y1="12" x2="20.75" y2="28" gradientUnits="userSpaceOnUse">
<stop stop-color="white" stop-opacity="0"/>
<stop offset="1" stop-color="white" stop-opacity="0.4"/>
</linearGradient>
</defs>
</svg>
