<svg width="36" height="36" viewBox="0 0 36 36" fill="none" xmlns="http://www.w3.org/2000/svg"><path d="M14.513 8.183 C 14.231 8.284,13.955 8.483,13.805 8.693 C 13.739 8.786,13.308 9.877,12.848 11.119 C 12.388 12.360,11.948 13.490,11.871 13.630 C 11.793 13.770,11.622 13.960,11.490 14.051 C 11.358 14.143,10.224 14.597,8.970 15.061 C 7.716 15.525,6.589 15.971,6.466 16.053 C 5.726 16.541,5.647 17.719,6.312 18.343 C 6.505 18.525,6.702 18.605,9.120 19.499 C 10.291 19.932,11.353 20.357,11.479 20.444 C 11.605 20.531,11.773 20.713,11.853 20.849 C 11.932 20.985,12.377 22.121,12.841 23.373 C 13.378 24.823,13.744 25.726,13.850 25.860 C 14.096 26.171,14.584 26.400,15.000 26.400 C 15.416 26.400,15.904 26.171,16.150 25.860 C 16.256 25.726,16.622 24.823,17.159 23.373 C 17.623 22.121,18.068 20.985,18.147 20.849 C 18.227 20.713,18.395 20.531,18.521 20.444 C 18.647 20.357,19.709 19.932,20.880 19.498 C 23.308 18.601,23.496 18.523,23.688 18.343 C 24.353 17.719,24.274 16.541,23.534 16.053 C 23.411 15.971,22.284 15.525,21.030 15.061 C 19.776 14.597,18.642 14.143,18.510 14.051 C 18.378 13.960,18.207 13.771,18.130 13.631 C 18.053 13.492,17.627 12.400,17.184 11.205 C 16.740 10.010,16.328 8.937,16.268 8.821 C 15.976 8.255,15.150 7.955,14.513 8.183 " fill="url(#paint0_linear_4925_6722)" stroke="none" fill-rule="evenodd"></path></svg>