<svg xmlns="http://www.w3.org/2000/svg" width="20" height="20" fill="none"><path d="M12.878 1.082 C 12.065 1.292,11.290 1.778,10.813 2.377 C 10.247 3.086,9.994 3.752,9.987 4.550 L 9.983 4.917 10.306 4.911 C 11.017 4.898,11.605 4.629,12.186 4.051 C 12.991 3.249,13.400 2.326,13.400 1.311 L 13.400 1.000 13.292 1.002 C 13.232 1.003,13.046 1.039,12.878 1.082 M12.750 5.123 C 12.294 5.180,11.634 5.373,10.787 5.698 C 10.121 5.953,9.976 5.946,9.150 5.618 C 8.102 5.203,7.559 5.094,6.904 5.166 C 5.515 5.319,4.293 6.230,3.620 7.614 C 3.011 8.866,2.909 10.427,3.317 12.251 C 3.651 13.744,4.277 15.096,5.212 16.345 C 5.802 17.134,6.228 17.546,6.696 17.781 C 7.324 18.097,7.683 18.078,8.800 17.667 C 9.607 17.370,9.845 17.317,10.350 17.321 C 10.818 17.325,11.003 17.368,11.759 17.648 C 12.525 17.932,12.735 17.978,13.198 17.959 C 13.655 17.940,13.895 17.864,14.258 17.623 C 15.024 17.113,16.200 15.396,16.750 13.983 C 16.958 13.450,16.954 13.489,16.809 13.420 C 16.581 13.313,16.192 13.058,15.953 12.858 C 15.079 12.129,14.667 11.197,14.667 9.945 C 14.666 8.942,14.953 8.202,15.611 7.510 C 15.816 7.294,16.249 6.936,16.424 6.838 C 16.476 6.809,16.470 6.788,16.355 6.622 C 16.055 6.186,15.430 5.696,14.884 5.469 C 14.215 5.191,13.340 5.049,12.750 5.123 " stroke="none" fill-rule="evenodd" fill="black"></path></svg>