<svg xmlns="http://www.w3.org/2000/svg" width="20" height="20" fill="none" viewBox="0 0 20 20"><path fill="#19191C" fill-rule="evenodd" stroke="none" d="M12.878 1.082 C 12.059 1.294,11.285 1.781,10.806 2.387 C 10.237 3.105,9.947 3.889,9.974 4.639 L 9.983 4.917 10.300 4.913 C 11.006 4.904,11.600 4.634,12.181 4.058 C 12.991 3.253,13.400 2.338,13.400 1.329 L 13.400 1.000 13.292 1.002 C 13.232 1.003,13.046 1.039,12.878 1.082 M12.750 5.123 C 12.292 5.180,11.740 5.339,10.902 5.656 C 10.637 5.756,10.350 5.851,10.263 5.867 C 10.019 5.914,9.737 5.851,9.150 5.618 C 8.102 5.203,7.559 5.094,6.904 5.166 C 5.120 5.363,3.662 6.789,3.221 8.769 C 3.022 9.664,3.016 10.534,3.203 11.661 C 3.488 13.379,4.165 14.953,5.232 16.379 C 5.770 17.099,6.247 17.555,6.696 17.781 C 7.324 18.097,7.683 18.078,8.800 17.667 C 9.593 17.376,9.845 17.318,10.333 17.320 C 10.791 17.321,10.979 17.364,11.675 17.619 C 12.533 17.935,12.592 17.949,13.100 17.949 C 13.452 17.950,13.590 17.936,13.733 17.888 C 14.233 17.720,14.711 17.314,15.233 16.617 C 15.843 15.800,16.244 15.148,16.551 14.470 C 16.766 13.996,16.947 13.488,16.907 13.475 C 16.890 13.469,16.754 13.394,16.605 13.307 C 15.523 12.683,14.900 11.820,14.718 10.697 C 14.652 10.293,14.652 9.585,14.717 9.242 C 14.847 8.555,15.120 8.026,15.611 7.510 C 15.816 7.294,16.249 6.936,16.424 6.838 C 16.476 6.809,16.470 6.788,16.355 6.622 C 16.055 6.186,15.430 5.696,14.884 5.469 C 14.215 5.191,13.340 5.048,12.750 5.123"/></svg>