<svg width="20" height="20" viewBox="0 0 20 20" fill="none" xmlns="http://www.w3.org/2000/svg">
<path d="M18 13.6935V17.3418H8.8811C6.22438 17.3418 3.90468 15.8745 2.66359 13.6935C2.48317 13.3765 2.32526 13.0438 2.1928 12.6985C1.93277 12.022 1.76932 11.296 1.71973 10.5384V9.55209C1.73049 9.38328 1.74746 9.21579 1.76964 9.05029C1.81499 8.71068 1.88351 8.37835 1.97356 8.05532C2.82542 4.99278 5.59535 2.74878 8.8811 2.74878C12.1668 2.74878 14.9365 4.99278 15.7883 8.05532H11.8892C11.2491 7.05702 10.1411 6.39703 8.8811 6.39703C7.62109 6.39703 6.51312 7.05702 5.873 8.05532C5.67789 8.35879 5.52651 8.69343 5.42733 9.05029C5.33924 9.3667 5.29226 9.70035 5.29226 10.0453C5.29226 11.091 5.72488 12.0336 6.4185 12.6985C7.06123 13.3158 7.92777 13.6935 8.8811 13.6935H18Z" fill="#E4E4E7"/>
<path d="M18.0001 9.05029V12.6985H11.3438C12.0374 12.0336 12.47 11.091 12.47 10.0453C12.47 9.70034 12.423 9.3667 12.3349 9.05029H18.0001Z" fill="#E4E4E7"/>
</svg>
