<svg xmlns="http://www.w3.org/2000/svg" width="18" height="17" fill="none"><path d="M7.245 0.034 C 4.771 0.249,2.537 1.650,1.193 3.829 C 0.581 4.821,0.168 6.036,0.029 7.256 C -0.020 7.681,0.007 8.978,0.072 9.360 C 0.220 10.220,0.414 10.874,0.728 11.565 C 1.582 13.448,3.113 14.931,4.996 15.700 C 5.531 15.919,5.988 16.049,6.675 16.179 C 7.000 16.240,7.083 16.241,12.502 16.251 L 18.000 16.262 18.000 14.236 L 18.000 12.211 12.682 12.202 C 6.821 12.192,7.282 12.207,6.690 12.011 C 5.306 11.555,4.265 10.318,4.004 8.824 C 3.946 8.489,3.947 7.796,4.007 7.438 C 4.167 6.487,4.709 5.551,5.442 4.959 C 5.848 4.631,6.373 4.353,6.841 4.217 C 7.480 4.033,8.360 4.033,8.999 4.217 C 9.831 4.458,10.730 5.110,11.153 5.780 L 11.235 5.910 13.387 5.910 C 14.601 5.910,15.540 5.899,15.540 5.884 C 15.540 5.869,15.480 5.681,15.406 5.466 C 14.987 4.243,14.343 3.207,13.442 2.309 C 12.303 1.174,10.877 0.422,9.317 0.137 C 8.621 0.009,7.930 -0.025,7.245 0.034 M11.773 7.132 C 11.938 8.029,11.915 8.694,11.694 9.387 C 11.513 9.955,11.196 10.509,10.823 10.907 L 10.643 11.100 14.322 11.100 L 18.000 11.100 18.000 9.060 L 18.000 7.020 14.876 7.020 L 11.752 7.020 11.773 7.132 " stroke="none" fill-rule="evenodd" fill="black"></path></svg>