<svg xmlns="http://www.w3.org/2000/svg" width="18" height="17" fill="none" viewBox="0 0 18 17"><path fill="#414146" fill-rule="evenodd" stroke="none" d="M7.232 0.031 C 5.975 0.153,4.795 0.554,3.754 1.214 C 2.817 1.808,1.918 2.698,1.313 3.630 C 0.623 4.692,0.155 6.011,0.028 7.250 C -0.026 7.774,0.007 9.014,0.087 9.480 C 0.288 10.645,0.725 11.762,1.344 12.690 C 1.698 13.220,1.949 13.528,2.370 13.952 C 3.726 15.316,5.458 16.113,7.380 16.259 C 7.634 16.278,9.695 16.290,12.893 16.290 L 18.000 16.290 18.000 14.250 L 18.000 12.210 12.817 12.210 C 7.090 12.210,7.351 12.218,6.731 12.017 C 6.099 11.812,5.664 11.544,5.172 11.055 C 4.403 10.291,4.012 9.404,3.970 8.325 C 3.943 7.637,4.040 7.083,4.288 6.508 C 4.810 5.296,5.845 4.437,7.125 4.153 C 7.450 4.081,8.144 4.065,8.515 4.122 C 9.216 4.229,9.955 4.572,10.471 5.029 C 10.694 5.226,11.001 5.565,11.130 5.755 L 11.235 5.910 13.387 5.910 C 14.571 5.910,15.540 5.901,15.540 5.891 C 15.540 5.834,15.397 5.401,15.278 5.100 C 14.860 4.036,14.271 3.139,13.456 2.323 C 12.234 1.099,10.744 0.344,9.045 0.087 C 8.592 0.019,7.659 -0.010,7.232 0.031 M11.768 7.103 C 11.870 7.659,11.885 7.836,11.869 8.295 C 11.852 8.795,11.812 9.032,11.680 9.435 C 11.503 9.973,11.186 10.520,10.831 10.899 L 10.643 11.100 14.322 11.100 L 18.000 11.100 18.000 9.060 L 18.000 7.020 14.877 7.020 L 11.753 7.020 11.768 7.103"/></svg>