<svg xmlns="http://www.w3.org/2000/svg" viewBox="0 0 24 24" fill="#19191C"><path d="M5.000 4.510 L 5.000 6.020 7.410 8.430 L 9.820 10.840 8.620 12.040 L 7.421 13.240 6.770 12.590 L 6.120 11.941 5.410 12.650 L 4.700 13.360 7.020 15.680 L 9.339 18.000 10.030 17.310 C 10.409 16.931,10.720 16.603,10.720 16.581 C 10.720 16.559,10.437 16.257,10.090 15.910 L 9.461 15.280 10.660 14.080 L 11.860 12.880 13.070 14.090 L 14.280 15.299 13.640 15.940 L 13.000 16.581 13.710 17.290 L 14.421 18.000 16.730 15.690 L 19.040 13.379 18.330 12.670 L 17.619 11.960 16.980 12.600 L 16.341 13.240 15.130 12.030 L 13.920 10.820 16.960 7.780 L 20.000 4.740 20.000 3.870 L 20.000 3.000 19.050 3.000 L 18.100 3.000 15.060 6.040 L 12.020 9.080 8.980 6.040 L 5.940 3.000 5.470 3.000 L 5.000 3.000 5.000 4.510 " stroke="none" fill-rule="evenodd"></path></svg>