<svg xmlns="http://www.w3.org/2000/svg" width="20" height="20" fill="none"><path d="M9.750 4.963 C 9.591 5.036,9.520 5.110,9.451 5.275 C 9.406 5.383,9.400 5.856,9.400 9.224 L 9.400 13.050 7.625 11.276 C 6.397 10.049,5.812 9.487,5.726 9.451 C 5.563 9.384,5.414 9.388,5.250 9.463 C 5.091 9.536,5.020 9.610,4.951 9.775 C 4.886 9.931,4.886 10.069,4.951 10.226 C 5.022 10.398,9.561 14.947,9.750 15.036 C 9.919 15.115,10.081 15.115,10.250 15.036 C 10.439 14.947,14.978 10.398,15.049 10.226 C 15.116 10.063,15.112 9.914,15.037 9.750 C 14.964 9.591,14.890 9.520,14.725 9.451 C 14.569 9.386,14.431 9.386,14.274 9.451 C 14.188 9.487,13.603 10.049,12.375 11.276 L 10.600 13.050 10.599 9.217 C 10.599 5.568,10.596 5.377,10.537 5.250 C 10.464 5.091,10.390 5.020,10.225 4.951 C 10.064 4.884,9.914 4.888,9.750 4.963 " stroke="none" fill-rule="evenodd" fill="black"></path></svg>