<svg xmlns="http://www.w3.org/2000/svg" width="20" height="20" fill="none"><path d="M9.750 4.963 C 9.591 5.036,9.520 5.110,9.451 5.275 C 9.386 5.431,9.386 5.569,9.451 5.726 C 9.487 5.812,10.049 6.397,11.276 7.625 L 13.050 9.400 9.215 9.400 L 5.381 9.400 5.232 9.475 C 4.795 9.696,4.795 10.304,5.232 10.525 L 5.381 10.600 9.215 10.600 L 13.050 10.600 11.276 12.375 C 10.049 13.603,9.487 14.188,9.451 14.274 C 9.386 14.431,9.386 14.569,9.451 14.725 C 9.520 14.890,9.591 14.964,9.750 15.037 C 9.920 15.115,10.082 15.115,10.250 15.036 C 10.439 14.947,14.978 10.398,15.049 10.226 C 15.114 10.069,15.114 9.931,15.049 9.774 C 14.978 9.602,10.439 5.053,10.250 4.964 C 10.082 4.885,9.920 4.885,9.750 4.963 " stroke="none" fill-rule="evenodd" fill="black"></path></svg>