<svg xmlns="http://www.w3.org/2000/svg" width="20" height="20" fill="none"><path d="M9.750 4.964 C 9.561 5.053,5.022 9.602,4.951 9.774 C 4.886 9.931,4.886 10.069,4.951 10.226 C 5.022 10.398,9.561 14.947,9.750 15.036 C 9.918 15.115,10.080 15.115,10.250 15.037 C 10.409 14.964,10.480 14.890,10.549 14.725 C 10.614 14.569,10.614 14.431,10.549 14.274 C 10.513 14.188,9.951 13.603,8.724 12.375 L 6.950 10.600 10.785 10.600 L 14.619 10.600 14.768 10.525 C 15.205 10.304,15.205 9.696,14.768 9.475 L 14.619 9.400 10.785 9.400 L 6.950 9.400 8.724 7.625 C 9.951 6.397,10.513 5.812,10.549 5.726 C 10.616 5.563,10.612 5.414,10.537 5.250 C 10.464 5.091,10.390 5.020,10.225 4.951 C 10.063 4.884,9.913 4.888,9.750 4.964 " stroke="none" fill-rule="evenodd" fill="black"></path></svg>