<svg xmlns="http://www.w3.org/2000/svg" viewBox="0 0 24 24" fill="currentColor"><path d="M7.340 2.277 C 7.274 2.293,7.184 2.326,7.140 2.350 C 7.096 2.375,5.995 3.463,4.693 4.767 C 2.587 6.878,2.322 7.157,2.298 7.293 C 2.258 7.513,2.299 7.744,2.407 7.903 C 2.514 8.062,2.838 8.240,3.018 8.239 C 3.319 8.237,3.452 8.124,5.130 6.449 L 6.760 4.821 6.760 10.752 C 6.760 16.493,6.762 16.688,6.836 16.832 C 6.929 17.015,7.020 17.099,7.210 17.178 C 7.483 17.292,7.869 17.217,8.048 17.014 C 8.249 16.788,8.240 17.080,8.240 10.741 C 8.240 7.496,8.254 4.840,8.270 4.840 C 8.287 4.840,9.029 5.571,9.920 6.464 C 11.556 8.104,11.710 8.237,11.982 8.239 C 12.167 8.240,12.486 8.062,12.600 7.894 C 12.682 7.773,12.700 7.698,12.700 7.480 C 12.700 7.255,12.683 7.189,12.591 7.057 C 12.432 6.827,8.001 2.419,7.860 2.350 C 7.701 2.271,7.488 2.242,7.340 2.277 M16.201 6.823 C 16.018 6.903,15.928 6.988,15.836 7.168 C 15.762 7.312,15.760 7.507,15.760 13.247 L 15.760 19.178 14.110 17.533 C 13.203 16.629,12.397 15.858,12.321 15.819 C 12.148 15.732,11.818 15.728,11.659 15.811 C 11.504 15.892,11.336 16.071,11.283 16.213 C 11.223 16.369,11.229 16.618,11.296 16.771 C 11.328 16.845,12.368 17.913,13.746 19.287 C 15.801 21.336,16.163 21.680,16.306 21.722 C 16.519 21.784,16.704 21.748,16.924 21.601 C 17.216 21.407,21.626 16.963,21.698 16.791 C 21.856 16.412,21.707 16.002,21.341 15.811 C 21.184 15.729,20.853 15.732,20.679 15.817 C 20.603 15.854,19.808 16.622,18.912 17.522 C 18.017 18.423,17.275 19.160,17.262 19.160 C 17.250 19.160,17.240 16.501,17.239 13.250 C 17.238 7.601,17.235 7.333,17.165 7.180 C 17.077 6.990,16.988 6.904,16.790 6.822 C 16.605 6.744,16.381 6.745,16.201 6.823 " stroke="none" fill-rule="evenodd"></path></svg>