<svg xmlns="http://www.w3.org/2000/svg" width="20" height="20" fill="none"><path d="M9.750 4.964 C 9.561 5.053,5.022 9.602,4.951 9.774 C 4.884 9.937,4.888 10.086,4.963 10.250 C 5.036 10.409,5.110 10.480,5.275 10.549 C 5.431 10.614,5.569 10.614,5.726 10.549 C 5.812 10.513,6.397 9.951,7.625 8.724 L 9.400 6.950 9.400 10.785 L 9.400 14.619 9.475 14.768 C 9.696 15.205,10.304 15.205,10.525 14.768 L 10.600 14.619 10.600 10.785 L 10.600 6.950 12.375 8.724 C 13.603 9.951,14.188 10.513,14.274 10.549 C 14.437 10.616,14.586 10.612,14.750 10.537 C 14.909 10.464,14.980 10.390,15.049 10.225 C 15.114 10.069,15.114 9.931,15.049 9.774 C 14.978 9.602,10.439 5.053,10.250 4.964 C 10.177 4.930,10.064 4.901,10.000 4.901 C 9.936 4.901,9.823 4.930,9.750 4.964 " stroke="none" fill-rule="evenodd" fill="black"></path></svg>