<svg width="24" height="24" viewBox="0 0 24 24" fill="none" xmlns="http://www.w3.org/2000/svg"><path d="M5.724 4.841 C 4.694 4.941,3.478 5.262,2.630 5.658 L 2.400 5.766 2.400 11.762 L 2.400 17.758 2.499 17.721 C 2.553 17.700,2.665 17.649,2.749 17.607 C 2.977 17.492,3.795 17.213,4.233 17.101 C 6.749 16.458,9.531 16.893,11.690 18.268 C 11.839 18.363,11.977 18.440,11.996 18.440 C 12.015 18.440,12.189 18.341,12.381 18.220 C 13.482 17.529,14.783 17.071,16.200 16.875 C 16.762 16.798,18.152 16.808,18.720 16.894 C 19.619 17.030,20.592 17.308,21.276 17.624 C 21.438 17.699,21.578 17.760,21.586 17.760 C 21.594 17.760,21.600 15.063,21.600 11.766 L 21.600 5.771 21.288 5.628 C 19.418 4.774,17.083 4.577,15.033 5.101 C 14.566 5.220,13.799 5.486,13.464 5.645 L 13.220 5.760 13.200 10.230 L 13.180 14.700 13.068 14.929 C 12.933 15.204,12.703 15.411,12.412 15.520 C 11.842 15.733,11.202 15.477,10.932 14.929 L 10.820 14.700 10.809 10.235 L 10.799 5.771 10.487 5.628 C 9.787 5.308,8.817 5.029,7.960 4.901 C 7.446 4.825,6.234 4.792,5.724 4.841 " fill="currentColor" stroke="none" fill-rule="evenodd"></path></svg>