<svg xmlns="http://www.w3.org/2000/svg" fill="none" viewBox="0 0 24 24" stroke-width="1.5" stroke="currentColor"><path d="M5.460 3.023 C 4.565 3.089,3.806 3.227,3.059 3.460 C 2.715 3.567,2.591 3.626,2.491 3.728 C 2.220 4.009,2.240 3.406,2.240 11.369 C 2.240 16.322,2.254 18.628,2.283 18.733 C 2.346 18.961,2.588 19.182,2.833 19.235 C 3.016 19.274,3.077 19.265,3.501 19.141 C 5.028 18.691,6.498 18.643,7.960 18.993 C 9.115 19.270,10.275 19.853,11.246 20.644 C 11.668 20.988,11.767 21.040,12.000 21.040 C 12.233 21.040,12.332 20.988,12.754 20.644 C 13.925 19.690,15.264 19.089,16.740 18.854 C 16.938 18.823,17.381 18.786,17.725 18.773 C 18.676 18.736,19.489 18.843,20.499 19.141 C 20.923 19.265,20.984 19.274,21.167 19.235 C 21.412 19.182,21.654 18.961,21.717 18.733 C 21.746 18.628,21.760 16.322,21.760 11.369 C 21.760 3.410,21.780 4.008,21.510 3.730 C 21.411 3.628,21.286 3.569,20.939 3.461 C 19.943 3.150,19.100 3.026,17.960 3.024 C 16.948 3.022,16.185 3.125,15.284 3.386 C 14.255 3.684,13.051 4.275,12.270 4.866 C 12.143 4.962,12.022 5.040,12.000 5.040 C 11.978 5.040,11.857 4.962,11.730 4.866 C 11.207 4.470,10.270 3.953,9.587 3.682 C 8.901 3.411,7.984 3.176,7.240 3.081 C 6.876 3.034,5.790 2.999,5.460 3.023 M7.109 4.583 C 8.584 4.800,9.809 5.305,10.970 6.174 L 11.240 6.376 11.240 12.568 C 11.240 15.974,11.233 18.760,11.224 18.760 C 11.215 18.760,11.093 18.690,10.953 18.605 C 9.882 17.954,8.512 17.492,7.140 17.318 C 6.371 17.220,4.750 17.285,4.120 17.438 C 4.043 17.457,3.931 17.483,3.870 17.497 L 3.760 17.522 3.760 11.164 L 3.760 4.807 4.150 4.717 C 4.364 4.668,4.702 4.606,4.900 4.579 C 5.436 4.505,6.595 4.508,7.109 4.583 M19.063 4.578 C 19.303 4.610,19.667 4.675,19.870 4.722 L 20.240 4.807 20.240 11.164 L 20.240 17.522 20.130 17.497 C 20.070 17.483,19.957 17.457,19.880 17.438 C 19.249 17.284,17.623 17.219,16.860 17.317 C 15.487 17.493,14.113 17.957,13.047 18.605 C 12.907 18.690,12.785 18.760,12.776 18.760 C 12.767 18.760,12.760 15.974,12.760 12.568 L 12.760 6.376 13.030 6.174 C 13.949 5.486,15.012 4.982,16.060 4.736 C 16.972 4.523,18.169 4.459,19.063 4.578 " stroke="none" fill-rule="evenodd" fill="black"></path></svg>