<svg xmlns="http://www.w3.org/2000/svg" width="40" height="40" viewBox="0 0 40 40" fill="none"><path d="M4.015 4.066 C 3.386 4.200,2.770 4.680,2.463 5.277 C 2.236 5.716,2.064 6.483,2.023 7.233 C 1.935 8.835,2.638 17.067,2.973 18.357 C 3.589 20.735,5.311 22.511,7.700 23.232 C 8.757 23.552,9.349 23.630,10.709 23.632 L 11.985 23.633 11.309 23.811 C 9.494 24.287,8.019 25.049,7.075 25.999 C 5.448 27.635,5.423 29.739,7.004 32.000 C 7.474 32.673,9.092 34.267,9.833 34.789 C 12.203 36.458,14.280 36.389,16.049 34.584 C 16.654 33.967,16.770 33.822,17.217 33.133 C 17.895 32.087,18.469 30.836,19.112 29.002 C 19.311 28.435,19.483 27.962,19.494 27.951 C 19.505 27.939,19.657 28.343,19.831 28.848 C 20.459 30.672,21.101 32.082,21.783 33.133 C 22.230 33.822,22.346 33.967,22.951 34.584 C 24.131 35.788,25.508 36.235,26.930 35.876 C 28.186 35.558,29.303 34.831,30.735 33.401 C 31.772 32.364,32.258 31.722,32.666 30.848 C 33.293 29.506,33.328 28.241,32.768 27.135 C 32.028 25.676,30.176 24.463,27.691 23.811 L 27.015 23.633 28.291 23.632 C 29.651 23.630,30.243 23.552,31.300 23.232 C 33.689 22.511,35.411 20.735,36.027 18.357 C 36.329 17.194,36.950 10.234,36.961 7.900 C 36.966 6.701,36.951 6.514,36.816 6.045 C 36.533 5.072,36.180 4.596,35.482 4.253 C 35.055 4.043,35.005 4.034,34.301 4.041 C 33.713 4.047,33.447 4.084,32.967 4.228 C 30.211 5.051,27.121 7.741,23.683 12.309 C 22.331 14.106,20.761 16.557,19.901 18.215 L 19.502 18.983 19.077 18.175 C 17.210 14.622,14.087 10.393,11.391 7.765 C 9.470 5.892,7.671 4.706,6.037 4.235 C 5.380 4.046,4.469 3.970,4.015 4.066 " fill="#19191C" stroke="none" fill-rule="evenodd"></path></svg>