<svg width="16" height="16" viewBox="0 0 16 16" fill="none" xmlns="http://www.w3.org/2000/svg"><path d="M2.160 2.041 C 1.642 2.155,1.217 2.563,1.049 3.108 C 1.002 3.259,1.000 3.469,1.000 7.507 L 1.000 11.747 1.059 11.934 C 1.194 12.364,1.596 12.787,1.995 12.918 C 2.251 13.002,2.505 13.012,4.388 13.013 C 6.489 13.013,6.442 13.010,6.773 13.190 C 7.109 13.373,7.342 13.661,7.504 14.096 C 7.581 14.302,7.666 14.401,7.819 14.465 C 7.949 14.520,8.068 14.517,8.201 14.457 C 8.341 14.393,8.437 14.276,8.494 14.101 C 8.614 13.729,8.883 13.384,9.188 13.212 C 9.538 13.015,9.359 13.029,11.667 13.013 C 13.533 12.999,13.763 12.993,13.905 12.951 C 14.401 12.806,14.816 12.386,14.953 11.891 C 14.997 11.731,15.000 11.452,15.000 7.493 C 15.000 3.468,14.998 3.259,14.951 3.108 C 14.825 2.698,14.535 2.341,14.187 2.166 C 13.850 1.997,13.836 1.996,11.616 2.007 C 9.823 2.015,9.595 2.021,9.440 2.062 C 8.907 2.204,8.523 2.430,8.166 2.811 L 8.000 2.989 7.834 2.811 C 7.477 2.430,7.093 2.204,6.560 2.062 C 6.404 2.021,6.182 2.016,4.360 2.010 C 2.685 2.004,2.303 2.010,2.160 2.041 M6.402 3.056 C 6.780 3.169,7.152 3.468,7.327 3.802 C 7.501 4.135,7.493 3.893,7.493 8.382 L 7.493 12.457 7.416 12.402 C 7.279 12.304,6.900 12.136,6.680 12.075 C 6.470 12.016,6.431 12.015,4.395 12.001 C 2.355 11.987,2.323 11.986,2.250 11.932 C 2.210 11.901,2.140 11.831,2.095 11.776 L 2.013 11.675 2.006 7.551 C 1.998 3.066,1.991 3.293,2.141 3.152 C 2.295 3.008,2.204 3.014,4.308 3.013 C 6.024 3.013,6.274 3.018,6.402 3.056 M13.732 3.066 C 13.856 3.129,13.937 3.226,13.975 3.357 C 13.994 3.423,14.000 4.759,13.995 7.564 L 13.987 11.675 13.905 11.776 C 13.860 11.831,13.790 11.901,13.750 11.932 C 13.677 11.986,13.645 11.987,11.605 12.001 C 9.569 12.015,9.530 12.016,9.320 12.075 C 9.100 12.136,8.721 12.304,8.584 12.402 L 8.507 12.457 8.507 8.382 C 8.507 3.893,8.499 4.135,8.673 3.802 C 8.782 3.595,9.089 3.284,9.280 3.186 C 9.627 3.009,9.520 3.016,11.674 3.015 C 13.568 3.013,13.632 3.015,13.732 3.066 " stroke="none" fill-rule="evenodd" fill="black"></path></svg>