<svg xmlns="http://www.w3.org/2000/svg" width="20" height="20" fill="none"><path d="M6.750 3.463 C 6.499 3.578,6.400 3.770,6.400 4.144 L 6.400 4.390 5.958 4.411 C 5.715 4.422,5.432 4.454,5.329 4.482 C 4.445 4.723,3.733 5.438,3.475 6.347 C 3.421 6.535,3.417 6.848,3.417 10.500 C 3.417 14.152,3.421 14.465,3.475 14.653 C 3.735 15.568,4.432 16.265,5.347 16.525 C 5.535 16.579,5.873 16.583,9.983 16.583 C 13.689 16.583,14.447 16.576,14.600 16.536 C 15.552 16.292,16.292 15.552,16.536 14.600 C 16.606 14.327,16.606 6.673,16.536 6.400 C 16.299 5.474,15.574 4.728,14.671 4.482 C 14.568 4.454,14.285 4.422,14.042 4.411 L 13.600 4.390 13.600 4.135 C 13.600 3.938,13.583 3.848,13.525 3.732 C 13.304 3.295,12.696 3.295,12.475 3.732 C 12.416 3.848,12.400 3.937,12.400 4.140 L 12.400 4.400 10.000 4.400 L 7.600 4.400 7.599 4.142 C 7.598 3.755,7.495 3.564,7.225 3.451 C 7.064 3.384,6.914 3.388,6.750 3.463 M6.400 5.860 C 6.400 6.063,6.416 6.152,6.475 6.268 C 6.696 6.705,7.304 6.705,7.525 6.268 C 7.584 6.152,7.600 6.063,7.600 5.860 L 7.600 5.600 10.000 5.600 L 12.400 5.600 12.400 5.860 C 12.400 6.063,12.416 6.152,12.475 6.268 C 12.696 6.705,13.304 6.705,13.525 6.268 C 13.584 6.151,13.600 6.063,13.600 5.855 L 13.600 5.591 13.958 5.608 C 14.502 5.633,14.825 5.786,15.113 6.157 C 15.358 6.471,15.380 6.579,15.393 7.542 L 15.405 8.400 10.002 8.400 L 4.600 8.400 4.600 7.606 C 4.600 6.575,4.650 6.385,5.017 6.017 C 5.317 5.718,5.611 5.606,6.108 5.602 L 6.400 5.600 6.400 5.860 M15.393 11.958 L 15.383 14.317 15.308 14.504 C 15.163 14.861,14.861 15.163,14.504 15.308 L 14.317 15.383 10.000 15.383 L 5.683 15.383 5.496 15.308 C 5.393 15.266,5.241 15.179,5.157 15.113 C 4.955 14.956,4.785 14.733,4.692 14.504 L 4.617 14.317 4.607 11.958 L 4.598 9.600 10.000 9.600 L 15.402 9.600 15.393 11.958 " stroke="none" fill-rule="evenodd" fill="black"></path></svg>