<svg xmlns="http://www.w3.org/2000/svg" width="20" height="20" fill="none"><path d="M14.244 5.465 C 14.118 5.522,13.813 5.916,11.250 9.333 C 9.176 12.099,8.385 13.129,8.356 13.106 C 5.600 10.841,5.681 10.899,5.403 10.950 C 5.130 10.999,4.900 11.267,4.900 11.537 C 4.900 11.815,4.954 11.868,6.583 13.209 C 7.427 13.903,8.177 14.499,8.250 14.535 C 8.419 14.616,8.579 14.616,8.756 14.535 C 8.882 14.478,9.204 14.061,11.952 10.398 C 13.632 8.157,15.028 6.274,15.054 6.213 C 15.116 6.063,15.111 5.910,15.037 5.750 C 14.964 5.591,14.890 5.520,14.725 5.451 C 14.562 5.383,14.414 5.388,14.244 5.465 " stroke="none" fill-rule="evenodd" fill="black"></path></svg>