<svg xmlns="http://www.w3.org/2000/svg" width="20" height="20" fill="none" viewBox="0 0 20 20"><path fill="#000" fill-rule="evenodd" stroke="none" d="M14.244 5.465 C 14.118 5.522,13.813 5.916,11.250 9.333 C 9.176 12.099,8.385 13.129,8.356 13.106 C 5.600 10.841,5.681 10.899,5.403 10.950 C 5.130 10.999,4.899 11.268,4.901 11.536 C 4.903 11.818,4.927 11.843,6.597 13.214 C 7.461 13.924,8.220 14.526,8.283 14.552 C 8.438 14.617,8.589 14.611,8.756 14.535 C 8.882 14.478,9.204 14.061,11.952 10.398 C 13.632 8.157,15.028 6.274,15.054 6.213 C 15.116 6.063,15.111 5.910,15.037 5.750 C 14.964 5.591,14.890 5.520,14.725 5.451 C 14.562 5.383,14.414 5.388,14.244 5.465"/></svg>