<svg xmlns="http://www.w3.org/2000/svg" width="20" height="20" fill="none" viewBox="0 0 20 20"><path fill="#19191C" fill-rule="evenodd" stroke="none" d="M5.250 7.563 C 5.091 7.636,5.020 7.710,4.951 7.875 C 4.884 8.037,4.888 8.187,4.964 8.350 C 5.053 8.539,9.602 13.078,9.774 13.149 C 9.931 13.214,10.069 13.214,10.226 13.149 C 10.398 13.078,14.947 8.539,15.036 8.350 C 15.115 8.182,15.115 8.020,15.037 7.850 C 14.964 7.691,14.890 7.620,14.725 7.551 C 14.569 7.486,14.431 7.486,14.274 7.551 C 14.188 7.587,13.520 8.232,12.075 9.676 L 10.000 11.750 7.925 9.676 C 6.480 8.232,5.812 7.587,5.726 7.551 C 5.563 7.484,5.414 7.488,5.250 7.563"/></svg>