<svg xmlns="http://www.w3.org/2000/svg" width="20" height="20" fill="none"><path d="M14.250 7.555 C 14.195 7.583,13.216 8.539,12.075 9.678 L 10.000 11.750 7.925 9.676 C 6.778 8.530,5.808 7.588,5.756 7.568 C 5.635 7.523,5.397 7.523,5.277 7.569 C 5.023 7.665,4.870 7.979,4.938 8.262 C 4.973 8.407,5.121 8.563,7.296 10.745 C 8.882 12.337,9.659 13.094,9.750 13.136 C 9.919 13.215,10.081 13.215,10.250 13.136 C 10.341 13.094,11.124 12.331,12.722 10.729 C 14.942 8.503,15.063 8.376,15.091 8.233 C 15.148 7.945,15.035 7.687,14.799 7.566 C 14.643 7.487,14.391 7.481,14.250 7.555 " fill="#19191C" stroke="none" fill-rule="evenodd"></path></svg>