<svg xmlns="http://www.w3.org/2000/svg" width="20" height="20" fill="none"><path d="M12.017 5.295 C 11.928 5.338,11.099 6.145,9.543 7.705 C 7.331 9.922,7.202 10.058,7.181 10.191 C 7.154 10.362,7.154 10.338,7.181 10.509 C 7.202 10.642,7.330 10.778,9.526 12.979 C 11.112 14.568,11.892 15.327,11.983 15.369 C 12.152 15.448,12.313 15.449,12.483 15.371 C 12.642 15.298,12.713 15.223,12.782 15.058 C 12.850 14.896,12.846 14.746,12.769 14.583 C 12.727 14.493,12.044 13.788,10.653 12.400 L 8.600 10.350 10.682 8.267 C 12.132 6.816,12.780 6.146,12.816 6.059 C 13.019 5.566,12.495 5.065,12.017 5.295 " fill="#19191C" stroke="none" fill-rule="evenodd"></path></svg>