<svg xmlns="http://www.w3.org/2000/svg" width="20" height="20" fill="none"><path d="M7.538 5.269 C 7.384 5.331,7.258 5.446,7.197 5.580 C 7.121 5.747,7.117 5.896,7.184 6.059 C 7.220 6.146,7.868 6.816,9.318 8.267 L 11.400 10.350 9.347 12.400 C 7.956 13.788,7.273 14.493,7.231 14.583 C 7.154 14.746,7.150 14.896,7.218 15.058 C 7.287 15.223,7.358 15.298,7.517 15.371 C 7.687 15.449,7.848 15.448,8.017 15.369 C 8.108 15.327,8.888 14.568,10.474 12.979 C 12.670 10.778,12.798 10.642,12.819 10.509 C 12.846 10.338,12.846 10.362,12.819 10.191 C 12.798 10.058,12.669 9.922,10.457 7.705 C 8.859 6.104,8.074 5.340,7.983 5.297 C 7.839 5.230,7.664 5.219,7.538 5.269 " fill="#19191C" stroke="none" fill-rule="evenodd"></path></svg>