<svg xmlns="http://www.w3.org/2000/svg" width="20" height="20" fill="none" viewBox="0 0 20 20"><path fill="#19191C" fill-rule="evenodd" stroke="none" d="M7.461 5.334 C 7.231 5.456,7.119 5.716,7.176 6.000 C 7.204 6.142,7.316 6.260,9.303 8.250 L 11.399 10.351 9.333 12.417 C 8.196 13.553,7.243 14.533,7.214 14.594 C 7.185 14.655,7.161 14.770,7.161 14.850 C 7.161 15.241,7.499 15.504,7.900 15.424 C 8.042 15.396,8.169 15.276,10.391 13.056 C 11.681 11.769,12.757 10.668,12.786 10.607 C 12.848 10.476,12.854 10.259,12.801 10.117 C 12.752 9.987,8.194 5.418,8.026 5.331 C 7.867 5.248,7.621 5.250,7.461 5.334"/></svg>