<svg xmlns="http://www.w3.org/2000/svg" width="20" height="20" fill="none"><path d="M5.250 4.963 C 5.091 5.036,5.020 5.110,4.951 5.275 C 4.886 5.431,4.886 5.569,4.951 5.726 C 4.987 5.812,5.632 6.480,7.076 7.925 L 9.150 10.000 7.076 12.075 C 5.632 13.520,4.987 14.188,4.951 14.274 C 4.886 14.431,4.886 14.569,4.951 14.725 C 5.020 14.890,5.091 14.964,5.250 15.037 C 5.414 15.112,5.563 15.116,5.726 15.049 C 5.812 15.013,6.480 14.368,7.925 12.924 L 10.000 10.850 12.075 12.924 C 13.520 14.368,14.188 15.013,14.274 15.049 C 14.437 15.116,14.586 15.112,14.750 15.037 C 14.909 14.964,14.980 14.890,15.049 14.725 C 15.114 14.569,15.114 14.431,15.049 14.274 C 15.013 14.188,14.368 13.520,12.924 12.075 L 10.850 10.000 12.924 7.925 C 14.368 6.480,15.013 5.812,15.049 5.726 C 15.116 5.563,15.112 5.414,15.037 5.250 C 14.964 5.091,14.890 5.020,14.725 4.951 C 14.569 4.886,14.431 4.886,14.274 4.951 C 14.188 4.987,13.520 5.632,12.075 7.076 L 10.000 9.150 7.925 7.076 C 6.480 5.632,5.812 4.987,5.726 4.951 C 5.563 4.884,5.414 4.888,5.250 4.963 " stroke="none" fill-rule="evenodd" fill="black"></path></svg>