<svg xmlns="http://www.w3.org/2000/svg" width="20" height="20" fill="none"><path d="M4.696 2.050 C 3.719 2.236,2.857 2.879,2.384 3.775 C 2.103 4.308,1.977 4.876,2.010 5.460 C 2.097 6.982,3.242 8.352,4.674 8.647 C 4.871 8.688,5.137 8.700,5.816 8.700 L 6.701 8.700 6.692 10.025 L 6.683 11.350 5.683 11.369 C 4.790 11.387,4.659 11.397,4.454 11.460 C 3.588 11.728,2.854 12.344,2.422 13.164 C 1.840 14.268,1.865 15.452,2.492 16.467 C 2.692 16.791,3.209 17.308,3.533 17.508 C 4.633 18.188,5.990 18.153,7.122 17.416 C 7.478 17.184,7.908 16.773,8.129 16.453 C 8.592 15.780,8.719 15.223,8.694 13.975 L 8.681 13.333 10.141 13.333 L 11.600 13.333 11.600 14.125 C 11.600 15.229,11.674 15.654,11.966 16.233 C 12.120 16.539,12.246 16.716,12.498 16.979 C 12.970 17.472,13.416 17.735,14.100 17.922 C 14.425 18.011,15.225 18.002,15.576 17.906 C 16.811 17.569,17.709 16.592,17.950 15.325 C 18.255 13.712,17.179 11.964,15.582 11.480 C 15.293 11.392,15.252 11.389,14.308 11.375 L 13.333 11.360 13.333 10.026 L 13.333 8.691 14.042 8.708 C 14.431 8.717,14.886 8.712,15.052 8.697 C 15.771 8.632,16.441 8.297,16.977 7.736 C 18.135 6.524,18.325 4.821,17.452 3.483 C 17.014 2.810,16.316 2.301,15.550 2.096 C 15.169 1.994,14.466 1.991,14.067 2.091 C 13.448 2.245,12.854 2.578,12.389 3.030 C 12.047 3.362,11.833 3.654,11.651 4.039 C 11.399 4.570,11.364 4.777,11.343 5.825 L 11.325 6.733 10.017 6.733 L 8.709 6.733 8.691 5.825 C 8.675 5.037,8.663 4.879,8.600 4.633 C 8.456 4.078,8.183 3.591,7.773 3.161 C 7.260 2.622,6.650 2.260,5.983 2.097 C 5.625 2.009,5.024 1.987,4.696 2.050 M5.504 3.734 C 6.134 3.851,6.586 4.376,6.666 5.083 C 6.684 5.248,6.700 5.687,6.700 6.058 L 6.700 6.733 5.840 6.733 C 4.911 6.733,4.751 6.712,4.406 6.546 C 4.153 6.423,3.886 6.149,3.762 5.884 C 3.682 5.713,3.655 5.602,3.642 5.390 C 3.602 4.739,3.929 4.170,4.508 3.885 C 4.862 3.710,5.147 3.667,5.504 3.734 M15.104 3.733 C 15.875 3.876,16.462 4.643,16.390 5.413 C 16.337 5.980,15.996 6.409,15.417 6.636 C 15.227 6.710,15.169 6.715,14.271 6.726 L 13.326 6.739 13.341 5.844 C 13.354 5.057,13.364 4.925,13.425 4.742 C 13.668 4.000,14.346 3.593,15.104 3.733 M11.333 10.033 L 11.333 11.367 10.017 11.367 L 8.700 11.367 8.700 10.051 L 8.700 8.736 9.008 8.725 C 9.178 8.719,9.770 8.711,10.325 8.707 L 11.333 8.700 11.333 10.033 M6.700 14.026 C 6.700 14.919,6.664 15.212,6.517 15.524 C 6.301 15.985,5.930 16.266,5.439 16.341 C 4.632 16.466,3.826 15.889,3.665 15.069 C 3.527 14.370,3.890 13.708,4.547 13.458 C 4.827 13.352,4.946 13.341,5.842 13.337 L 6.700 13.333 6.700 14.026 M15.438 13.438 C 15.933 13.627,16.263 13.992,16.363 14.460 C 16.624 15.691,15.326 16.744,14.190 16.224 C 13.846 16.066,13.576 15.749,13.430 15.330 C 13.362 15.135,13.354 15.038,13.341 14.222 L 13.326 13.328 14.271 13.340 C 15.189 13.353,15.223 13.355,15.438 13.438 " fill="#414146" stroke="none" fill-rule="evenodd"></path></svg>