<svg xmlns="http://www.w3.org/2000/svg" width="20" height="20" fill="none" viewBox="0 0 20 20"><path fill="#414146" fill-rule="evenodd" stroke="none" d="M4.696 2.050 C 3.719 2.236,2.857 2.879,2.384 3.775 C 1.695 5.082,1.968 6.672,3.069 7.766 C 3.511 8.205,3.978 8.472,4.562 8.621 C 4.854 8.695,4.936 8.700,5.788 8.700 L 6.700 8.700 6.700 10.031 L 6.700 11.362 5.692 11.375 C 4.545 11.390,4.472 11.403,3.915 11.683 C 2.370 12.459,1.605 14.366,2.217 15.917 C 2.457 16.526,2.995 17.177,3.533 17.508 C 4.876 18.336,6.600 18.085,7.753 16.895 C 8.518 16.104,8.733 15.432,8.689 13.975 L 8.669 13.333 10.134 13.333 L 11.600 13.333 11.600 14.125 C 11.600 15.229,11.674 15.654,11.966 16.233 C 12.120 16.539,12.246 16.716,12.498 16.979 C 12.970 17.472,13.416 17.735,14.100 17.922 C 14.425 18.011,15.225 18.002,15.576 17.906 C 16.811 17.569,17.709 16.592,17.950 15.325 C 18.255 13.712,17.179 11.964,15.582 11.480 C 15.293 11.392,15.252 11.389,14.308 11.375 L 13.333 11.360 13.333 10.029 L 13.333 8.698 14.242 8.703 C 15.175 8.708,15.278 8.698,15.700 8.561 C 16.665 8.248,17.511 7.349,17.844 6.283 C 18.211 5.106,17.899 3.837,17.026 2.956 C 16.625 2.551,16.094 2.242,15.550 2.096 C 15.169 1.994,14.466 1.991,14.067 2.091 C 13.406 2.256,12.781 2.620,12.300 3.121 C 11.974 3.461,11.814 3.690,11.631 4.080 C 11.399 4.574,11.363 4.794,11.343 5.825 L 11.325 6.733 9.998 6.733 L 8.672 6.733 8.659 5.742 C 8.647 4.759,8.646 4.747,8.553 4.467 C 8.365 3.899,8.083 3.453,7.654 3.041 C 7.275 2.677,6.888 2.426,6.383 2.217 C 5.949 2.038,5.167 1.960,4.696 2.050 M5.504 3.734 C 6.134 3.851,6.586 4.376,6.666 5.083 C 6.684 5.248,6.700 5.687,6.700 6.058 L 6.700 6.733 5.840 6.733 C 4.911 6.733,4.751 6.712,4.406 6.546 C 4.153 6.423,3.886 6.149,3.762 5.884 C 3.682 5.713,3.655 5.602,3.642 5.390 C 3.602 4.739,3.929 4.170,4.508 3.885 C 4.862 3.710,5.147 3.667,5.504 3.734 M15.164 3.751 C 15.694 3.876,16.124 4.255,16.310 4.761 C 16.403 5.014,16.409 5.508,16.323 5.755 C 16.188 6.142,15.873 6.455,15.445 6.624 C 15.218 6.714,15.210 6.715,14.271 6.727 L 13.326 6.738 13.341 5.844 C 13.355 5.062,13.365 4.924,13.425 4.742 C 13.675 3.976,14.389 3.569,15.164 3.751 M11.333 10.033 L 11.333 11.367 10.000 11.367 L 8.667 11.367 8.667 10.052 L 8.667 8.737 8.875 8.725 C 8.990 8.718,9.590 8.710,10.208 8.706 L 11.333 8.700 11.333 10.033 M6.700 14.008 C 6.700 14.380,6.685 14.818,6.666 14.983 C 6.543 16.098,5.496 16.677,4.502 16.180 C 3.464 15.661,3.328 14.203,4.262 13.603 C 4.624 13.371,4.799 13.341,5.842 13.337 L 6.700 13.333 6.700 14.008 M15.408 13.425 C 15.984 13.639,16.336 14.080,16.390 14.654 C 16.481 15.627,15.564 16.492,14.601 16.342 C 14.033 16.255,13.631 15.907,13.430 15.330 C 13.362 15.135,13.354 15.038,13.341 14.222 L 13.326 13.328 14.271 13.341 C 15.135 13.353,15.233 13.360,15.408 13.425"/></svg>