<svg xmlns="http://www.w3.org/2000/svg" width="20" height="20" fill="none"><path d="M8.575 4.034 C 8.181 4.067,7.963 4.119,7.732 4.235 C 7.539 4.331,7.310 4.552,7.218 4.731 C 7.126 4.908,7.038 5.313,7.013 5.666 L 6.990 6.000 7.590 6.000 L 8.189 6.000 8.226 5.662 C 8.246 5.476,8.276 5.311,8.292 5.295 C 8.361 5.225,9.161 5.202,11.500 5.202 C 14.048 5.202,14.618 5.223,14.689 5.320 C 14.770 5.429,14.783 5.881,14.783 8.500 C 14.783 11.122,14.770 11.570,14.689 11.681 C 14.661 11.720,14.554 11.746,14.325 11.773 L 14.000 11.809 13.994 12.305 C 13.990 12.577,13.987 12.841,13.985 12.892 L 13.983 12.983 14.283 12.973 C 15.086 12.945,15.566 12.703,15.782 12.217 C 15.978 11.776,15.999 11.423,15.999 8.500 C 15.999 6.137,15.978 5.443,15.895 5.108 C 15.789 4.678,15.552 4.366,15.214 4.211 C 14.813 4.028,14.756 4.025,11.700 4.015 C 10.151 4.011,8.745 4.019,8.575 4.034 M5.168 7.036 C 4.923 7.084,4.662 7.234,4.448 7.448 C 4.224 7.671,4.085 7.922,4.034 8.196 C 3.988 8.441,3.988 14.559,4.034 14.804 C 4.085 15.078,4.224 15.329,4.448 15.552 C 4.671 15.776,4.922 15.915,5.196 15.966 C 5.441 16.012,11.559 16.012,11.804 15.966 C 12.078 15.915,12.329 15.776,12.552 15.552 C 12.776 15.329,12.915 15.078,12.966 14.804 C 13.012 14.559,13.012 8.441,12.966 8.196 C 12.915 7.922,12.776 7.671,12.552 7.448 C 12.329 7.224,12.078 7.085,11.804 7.034 C 11.581 6.992,5.383 6.994,5.168 7.036 M11.703 8.297 L 11.800 8.395 11.800 11.500 L 11.800 14.605 11.703 14.703 L 11.605 14.800 8.500 14.800 L 5.395 14.800 5.297 14.703 L 5.200 14.605 5.200 11.500 L 5.200 8.395 5.297 8.297 L 5.395 8.200 8.500 8.200 L 11.605 8.200 11.703 8.297 " fill="#19191C" stroke="none" fill-rule="evenodd"></path></svg>