<svg width="20" height="20" viewBox="0 0 20 20" fill="none" xmlns="http://www.w3.org/2000/svg"><path d="M13.750 2.914 C 13.517 2.971,13.319 3.079,13.067 3.285 C 12.947 3.383,11.791 4.525,10.497 5.823 C 7.967 8.360,8.038 8.279,7.918 8.749 C 7.847 9.023,7.846 10.546,7.916 10.876 C 8.045 11.485,8.515 11.955,9.124 12.084 C 9.454 12.154,10.977 12.153,11.251 12.082 C 11.724 11.961,11.628 12.046,14.286 9.387 C 15.793 7.880,16.802 6.845,16.874 6.733 C 17.208 6.214,17.216 5.562,16.893 5.058 C 16.714 4.778,15.221 3.285,14.940 3.106 C 14.603 2.890,14.144 2.816,13.750 2.914 M14.321 4.138 C 14.468 4.249,15.656 5.429,15.803 5.611 C 15.994 5.848,15.984 5.940,15.737 6.224 C 15.628 6.348,15.400 6.589,15.228 6.758 L 14.916 7.066 13.924 6.074 L 12.933 5.083 13.342 4.681 C 13.903 4.128,13.980 4.067,14.113 4.067 C 14.175 4.067,14.267 4.099,14.321 4.138 M4.733 4.438 C 4.093 4.525,3.540 5.078,3.435 5.733 C 3.388 6.028,3.387 14.966,3.434 15.267 C 3.536 15.920,4.077 16.460,4.733 16.565 C 5.028 16.612,13.966 16.613,14.267 16.566 C 14.920 16.464,15.460 15.923,15.565 15.267 C 15.586 15.138,15.600 14.352,15.600 13.324 C 15.600 11.492,15.598 11.463,15.440 11.289 C 15.174 10.995,14.666 11.062,14.472 11.417 C 14.423 11.505,14.415 11.730,14.400 13.341 L 14.383 15.165 14.274 15.274 L 14.165 15.383 9.500 15.383 L 4.835 15.383 4.726 15.274 L 4.617 15.165 4.617 10.500 L 4.617 5.835 4.726 5.726 L 4.835 5.617 6.742 5.600 C 8.591 5.584,8.654 5.581,8.767 5.515 C 9.173 5.276,9.156 4.699,8.736 4.477 L 8.590 4.400 6.770 4.404 C 5.769 4.406,4.852 4.422,4.733 4.438 M12.593 9.390 C 11.782 10.201,11.079 10.881,11.031 10.901 C 10.894 10.958,9.338 10.931,9.247 10.870 C 9.092 10.767,9.085 10.725,9.072 9.890 C 9.066 9.453,9.070 9.056,9.082 9.006 C 9.097 8.948,9.622 8.398,10.593 7.425 L 12.083 5.933 13.075 6.925 L 14.067 7.916 12.593 9.390 " stroke="none" fill-rule="evenodd" fill="black"></path></svg>