<svg xmlns="http://www.w3.org/2000/svg" width="20" height="20" fill="none"><path d="M9.735 4.038 C 7.762 4.244,5.938 5.509,5.036 7.295 C 4.780 7.801,4.569 8.451,4.461 9.067 C 4.402 9.400,4.402 10.600,4.461 10.933 C 4.608 11.765,4.883 12.498,5.307 13.181 C 5.866 14.083,6.780 14.908,7.736 15.376 C 10.597 16.775,14.024 15.721,15.606 12.956 C 15.857 12.518,15.844 12.302,15.555 12.086 C 15.475 12.026,15.394 12.015,14.923 11.995 C 14.099 11.962,13.432 11.800,12.783 11.477 C 11.148 10.662,10.095 9.050,10.011 7.231 C 9.970 6.342,10.145 5.532,10.551 4.727 C 10.633 4.565,10.700 4.395,10.700 4.348 C 10.700 4.223,10.609 4.068,10.513 4.032 C 10.415 3.995,10.131 3.997,9.735 4.038 M8.954 5.657 C 8.870 6.014,8.835 6.283,8.813 6.750 C 8.711 8.897,9.768 10.955,11.602 12.182 C 12.184 12.571,13.030 12.924,13.693 13.056 C 13.862 13.089,14.000 13.131,14.000 13.148 C 14.000 13.218,13.400 13.752,13.081 13.965 C 12.522 14.339,11.965 14.571,11.267 14.721 C 10.825 14.815,9.896 14.808,9.437 14.705 C 8.475 14.491,7.689 14.069,7.026 13.411 C 6.683 13.071,6.543 12.896,6.290 12.492 C 5.607 11.403,5.411 9.934,5.780 8.666 C 6.016 7.854,6.406 7.204,7.026 6.589 C 7.378 6.240,7.793 5.935,8.189 5.736 C 8.478 5.591,8.973 5.396,8.996 5.418 C 9.002 5.425,8.984 5.532,8.954 5.657 " stroke="none" fill-rule="evenodd" fill="black"></path></svg>