<svg xmlns="http://www.w3.org/2000/svg" width="20" height="20" fill="none" viewBox="0 0 20 20"><path fill="#000" fill-rule="evenodd" stroke="none" d="M9.735 4.038 C 9.369 4.076,8.763 4.213,8.403 4.339 C 6.546 4.986,5.062 6.602,4.582 8.498 C 3.950 10.998,4.949 13.583,7.100 15.014 C 8.824 16.161,11.096 16.310,12.983 15.400 C 14.092 14.866,14.992 14.028,15.599 12.968 C 15.806 12.607,15.837 12.410,15.713 12.244 C 15.557 12.034,15.510 12.020,14.907 11.994 C 14.071 11.959,13.442 11.806,12.789 11.480 C 11.388 10.780,10.437 9.544,10.093 7.975 C 9.995 7.528,9.988 6.604,10.079 6.117 C 10.161 5.676,10.335 5.159,10.537 4.758 C 10.626 4.578,10.700 4.394,10.700 4.348 C 10.700 4.223,10.608 4.068,10.513 4.032 C 10.415 3.995,10.131 3.997,9.735 4.038 M8.934 5.736 C 8.768 6.516,8.768 7.461,8.935 8.267 C 9.261 9.851,10.220 11.257,11.602 12.182 C 12.181 12.569,13.023 12.921,13.683 13.053 C 13.848 13.086,13.989 13.117,13.995 13.121 C 14.028 13.144,13.829 13.364,13.577 13.584 C 12.913 14.165,12.180 14.525,11.267 14.721 C 10.825 14.815,9.896 14.808,9.437 14.705 C 8.475 14.491,7.689 14.069,7.026 13.411 C 6.683 13.071,6.543 12.896,6.290 12.492 C 5.607 11.403,5.411 9.934,5.780 8.666 C 6.016 7.854,6.406 7.204,7.026 6.589 C 7.521 6.097,8.092 5.732,8.730 5.499 C 8.869 5.448,8.987 5.410,8.992 5.414 C 8.996 5.419,8.970 5.564,8.934 5.736"/></svg>