<svg xmlns="http://www.w3.org/2000/svg" viewBox="0 0 24 24" fill="currentColor" class="size-6"><path d="M10.800 1.544 C 10.723 1.552,10.462 1.579,10.220 1.604 C 7.612 1.866,5.187 2.863,3.978 4.169 C 2.557 5.704,2.702 7.530,4.360 8.951 C 5.772 10.161,8.052 10.975,10.660 11.198 C 11.277 11.251,12.723 11.251,13.340 11.198 C 16.995 10.885,19.959 9.400,20.767 7.475 C 21.540 5.637,20.305 3.727,17.593 2.564 C 16.512 2.100,15.406 1.812,13.951 1.615 C 13.524 1.558,11.156 1.504,10.800 1.544 M3.011 10.210 C 3.052 10.965,3.338 11.622,3.893 12.234 C 5.177 13.652,7.473 14.606,10.380 14.927 C 11.013 14.997,12.987 14.997,13.620 14.927 C 16.527 14.606,18.823 13.652,20.107 12.234 C 20.662 11.622,20.948 10.965,20.989 10.210 C 21.001 9.985,20.998 9.800,20.983 9.800 C 20.967 9.800,20.780 9.946,20.567 10.124 C 19.433 11.072,18.016 11.763,16.260 12.221 C 13.553 12.927,10.450 12.927,7.740 12.221 C 5.980 11.762,4.571 11.076,3.433 10.124 C 3.220 9.946,3.033 9.800,3.017 9.800 C 3.002 9.800,2.999 9.985,3.011 10.210 M3.011 13.950 C 3.056 14.826,3.411 15.537,4.166 16.263 C 4.747 16.823,5.459 17.278,6.380 17.677 C 9.048 18.835,12.669 19.075,15.760 18.299 C 18.146 17.700,19.912 16.589,20.637 15.233 C 20.867 14.802,20.964 14.450,20.989 13.950 C 21.002 13.693,20.996 13.520,20.974 13.520 C 20.953 13.520,20.865 13.593,20.778 13.683 C 20.370 14.104,19.463 14.711,18.660 15.100 C 13.880 17.417,6.574 16.769,3.273 13.733 C 3.145 13.616,3.029 13.520,3.015 13.520 C 3.000 13.520,2.999 13.713,3.011 13.950 M3.001 17.590 C 3.005 19.313,4.612 20.883,7.280 21.771 C 8.753 22.262,10.252 22.490,12.000 22.490 C 12.644 22.490,13.199 22.467,13.620 22.422 C 17.966 21.961,20.994 19.978,20.999 17.590 C 21.000 17.419,20.989 17.280,20.976 17.280 C 20.962 17.280,20.851 17.372,20.728 17.484 C 20.144 18.018,19.502 18.438,18.620 18.864 C 16.725 19.779,14.509 20.239,12.000 20.239 C 9.491 20.239,7.275 19.779,5.380 18.864 C 4.498 18.438,3.856 18.018,3.272 17.484 C 3.149 17.372,3.038 17.280,3.024 17.280 C 3.011 17.280,3.000 17.419,3.001 17.590 " stroke="none" fill-rule="evenodd"></path></svg>