<svg xmlns="http://www.w3.org/2000/svg" fill="none" viewBox="0 0 24 24"><path d="M11.000 2.428 C 9.073 2.518,7.098 2.961,5.762 3.604 C 4.648 4.139,3.961 4.756,3.696 5.460 C 3.592 5.734,3.592 6.266,3.696 6.540 C 4.244 7.993,6.679 9.135,10.008 9.501 C 10.803 9.588,12.436 9.621,13.220 9.564 C 16.899 9.301,19.644 8.149,20.285 6.599 C 20.414 6.287,20.414 5.713,20.285 5.401 C 19.501 3.506,15.479 2.218,11.000 2.428 M3.612 10.480 C 3.621 12.620,3.603 12.481,3.947 13.006 C 4.742 14.220,7.067 15.178,10.008 15.501 C 10.323 15.535,11.030 15.574,11.580 15.587 C 13.010 15.620,14.182 15.526,15.476 15.275 C 18.001 14.783,19.780 13.795,20.287 12.599 C 20.380 12.381,20.380 12.371,20.386 10.500 C 20.390 9.466,20.384 8.656,20.375 8.700 C 20.077 10.016,18.227 11.139,15.476 11.675 C 13.428 12.073,10.993 12.104,8.969 11.758 C 6.019 11.254,3.986 10.115,3.655 8.780 C 3.613 8.613,3.606 8.896,3.612 10.480 M3.612 16.480 C 3.621 18.620,3.603 18.481,3.947 19.006 C 4.742 20.220,7.067 21.178,10.008 21.501 C 10.323 21.535,11.030 21.574,11.580 21.587 C 13.010 21.620,14.182 21.526,15.476 21.275 C 18.001 20.783,19.780 19.795,20.287 18.599 C 20.380 18.381,20.380 18.371,20.386 16.500 C 20.390 15.466,20.384 14.656,20.375 14.700 C 20.077 16.016,18.227 17.139,15.476 17.675 C 13.428 18.073,10.993 18.104,8.969 17.758 C 6.019 17.254,3.986 16.115,3.655 14.780 C 3.613 14.613,3.606 14.896,3.612 16.480 " fill="#C3C3C6" stroke="none" fill-rule="evenodd"></path></svg>