<svg xmlns="http://www.w3.org/2000/svg" width="20" height="20" fill="none"><path d="M7.400 3.309 C 6.302 3.521,5.441 3.784,4.414 4.220 L 3.978 4.405 3.777 4.727 C 3.425 5.293,3.198 5.701,2.886 6.333 C 2.081 7.963,1.610 9.591,1.414 11.417 C 1.351 12.012,1.331 13.427,1.378 14.075 L 1.407 14.466 1.778 14.732 C 2.843 15.491,4.225 16.197,5.408 16.586 C 5.793 16.712,5.800 16.713,5.850 16.649 C 5.972 16.492,6.409 15.785,6.565 15.493 L 6.735 15.174 6.476 15.067 C 6.214 14.958,5.414 14.559,5.315 14.486 C 5.267 14.451,5.284 14.428,5.443 14.305 L 5.625 14.165 5.890 14.281 C 8.512 15.434,11.378 15.453,13.986 14.334 L 14.376 14.166 14.558 14.306 C 14.716 14.428,14.733 14.451,14.685 14.486 C 14.586 14.559,13.787 14.958,13.525 15.066 C 13.383 15.125,13.267 15.179,13.267 15.188 C 13.267 15.196,13.373 15.392,13.503 15.624 C 13.797 16.149,14.162 16.700,14.217 16.700 C 14.299 16.700,15.126 16.402,15.600 16.201 C 16.573 15.790,17.818 15.069,18.523 14.508 C 18.593 14.453,18.598 14.410,18.635 13.647 C 18.715 11.978,18.529 10.373,18.071 8.780 C 17.685 7.437,16.996 5.944,16.148 4.611 L 16.017 4.405 15.550 4.205 C 14.707 3.844,13.797 3.558,12.871 3.365 L 12.426 3.273 12.194 3.755 C 11.970 4.221,11.960 4.237,11.873 4.219 C 11.116 4.063,8.882 4.063,8.125 4.220 C 8.037 4.238,8.028 4.225,7.836 3.821 C 7.571 3.258,7.584 3.273,7.400 3.309 M7.747 9.045 C 8.320 9.328,8.667 9.936,8.667 10.656 C 8.667 11.385,8.316 12.007,7.745 12.289 C 7.527 12.397,7.456 12.415,7.205 12.427 C 6.730 12.449,6.390 12.301,6.040 11.918 C 5.189 10.986,5.556 9.341,6.700 8.960 C 6.840 8.914,6.956 8.902,7.193 8.912 C 7.468 8.923,7.529 8.938,7.747 9.045 M13.292 8.962 C 13.845 9.134,14.255 9.624,14.386 10.268 C 14.573 11.192,14.086 12.130,13.294 12.371 C 12.948 12.476,12.585 12.451,12.278 12.301 C 11.850 12.091,11.514 11.658,11.384 11.151 C 11.325 10.919,11.318 10.478,11.370 10.227 C 11.494 9.628,12.003 9.059,12.525 8.936 C 12.742 8.885,13.082 8.896,13.292 8.962 " fill="#19191C" stroke="none" fill-rule="evenodd"></path></svg>