<svg xmlns="http://www.w3.org/2000/svg" fill="none" viewBox="0 0 24 24" stroke-width="1.5" stroke="currentColor" class="size-6"><path d="M5.022 1.603 C 4.448 1.803,4.035 2.221,3.841 2.797 C 3.760 3.039,3.759 3.064,3.770 12.070 L 3.780 21.100 3.910 21.374 C 3.981 21.525,4.097 21.721,4.168 21.810 C 4.366 22.061,4.734 22.309,5.055 22.410 L 5.340 22.500 12.000 22.500 L 18.660 22.500 18.945 22.410 C 19.266 22.309,19.634 22.061,19.832 21.810 C 19.903 21.721,20.019 21.525,20.090 21.374 L 20.220 21.100 20.231 15.880 C 20.241 11.407,20.234 10.583,20.181 10.125 C 19.749 6.341,17.103 3.129,13.455 1.960 C 12.998 1.814,12.704 1.742,12.100 1.630 C 11.684 1.552,11.482 1.547,8.460 1.534 C 5.307 1.521,5.257 1.522,5.022 1.603 M10.672 3.063 C 11.443 3.220,12.119 3.746,12.477 4.467 C 12.703 4.924,12.726 5.075,12.757 6.380 C 12.783 7.493,12.792 7.597,12.875 7.810 C 13.021 8.180,13.352 8.555,13.728 8.775 C 14.057 8.968,14.291 9.000,15.370 9.000 C 16.502 9.000,16.806 9.042,17.260 9.261 C 17.935 9.586,18.446 10.199,18.669 10.947 C 18.732 11.161,18.739 11.569,18.750 15.911 C 18.764 21.090,18.775 20.846,18.536 20.954 C 18.393 21.020,5.607 21.020,5.464 20.954 C 5.225 20.845,5.240 21.459,5.240 12.000 C 5.240 2.588,5.227 3.157,5.452 3.048 C 5.511 3.019,6.338 3.005,7.952 3.003 C 9.995 3.000,10.410 3.010,10.672 3.063 M14.168 3.864 C 15.720 4.643,16.990 5.883,17.793 7.403 C 18.023 7.839,18.077 7.984,17.995 7.948 C 17.124 7.569,17.044 7.554,15.693 7.525 C 14.592 7.501,14.519 7.495,14.414 7.416 C 14.352 7.370,14.290 7.289,14.275 7.236 C 14.260 7.183,14.246 6.705,14.244 6.174 C 14.240 5.144,14.201 4.812,14.025 4.295 C 13.973 4.143,13.892 3.942,13.845 3.849 C 13.797 3.756,13.768 3.680,13.780 3.680 C 13.792 3.680,13.966 3.763,14.168 3.864 M8.083 14.269 C 7.907 14.303,7.683 14.477,7.596 14.647 C 7.418 14.997,7.540 15.441,7.870 15.647 L 8.020 15.740 12.000 15.740 L 15.980 15.740 16.130 15.647 C 16.609 15.349,16.604 14.650,16.120 14.366 L 15.940 14.260 12.060 14.255 C 9.926 14.252,8.137 14.258,8.083 14.269 M8.083 17.269 C 7.908 17.302,7.683 17.477,7.596 17.647 C 7.418 17.997,7.540 18.441,7.870 18.647 L 8.020 18.740 10.030 18.751 C 11.434 18.759,12.092 18.749,12.209 18.718 C 12.307 18.691,12.438 18.611,12.525 18.525 C 12.938 18.111,12.743 17.410,12.177 17.278 C 12.022 17.242,8.270 17.234,8.083 17.269 " stroke="none" fill-rule="evenodd" fill="black"></path></svg>