<svg xmlns="http://www.w3.org/2000/svg" width="20" height="20" fill="none"><path d="M9.517 4.212 C 9.391 4.270,9.249 4.421,9.202 4.544 C 9.178 4.607,9.167 5.552,9.167 7.477 L 9.167 10.316 7.875 9.026 C 7.165 8.317,6.541 7.721,6.489 7.702 C 6.265 7.618,5.989 7.681,5.827 7.854 C 5.662 8.031,5.622 8.262,5.718 8.493 C 5.753 8.578,6.326 9.174,7.560 10.410 C 8.544 11.396,9.399 12.234,9.458 12.271 C 9.592 12.355,9.878 12.364,10.018 12.290 C 10.072 12.261,10.944 11.408,11.956 10.394 C 13.601 8.744,13.799 8.535,13.833 8.406 C 13.949 7.964,13.581 7.596,13.110 7.682 C 12.999 7.702,12.827 7.861,11.676 9.009 L 10.368 10.314 10.359 7.449 C 10.349 4.249,10.366 4.471,10.113 4.279 C 9.970 4.169,9.679 4.137,9.517 4.212 M4.483 14.714 C 4.359 14.769,4.216 14.920,4.169 15.044 C 4.075 15.291,4.183 15.610,4.410 15.761 L 4.545 15.850 9.714 15.850 C 14.533 15.850,14.890 15.846,14.988 15.793 C 15.388 15.574,15.434 15.049,15.078 14.777 L 14.955 14.683 9.769 14.676 C 5.487 14.670,4.566 14.677,4.483 14.714 " stroke="none" fill-rule="evenodd" fill="black"></path></svg>