<svg xmlns="http://www.w3.org/2000/svg" width="20" height="20" fill="none" viewBox="0 0 20 20"><path fill="#000" fill-rule="evenodd" stroke="none" d="M9.517 4.212 C 9.391 4.270,9.249 4.421,9.202 4.544 C 9.178 4.607,9.167 5.552,9.167 7.477 L 9.167 10.316 7.875 9.026 C 7.165 8.317,6.541 7.721,6.489 7.702 C 5.977 7.510,5.482 8.048,5.731 8.526 C 5.828 8.712,9.387 12.252,9.541 12.316 C 9.714 12.387,9.868 12.379,10.020 12.292 C 10.091 12.250,10.970 11.392,11.972 10.383 C 13.557 8.789,13.799 8.532,13.831 8.413 C 13.948 7.967,13.583 7.596,13.110 7.682 C 12.999 7.702,12.827 7.861,11.676 9.009 L 10.368 10.314 10.359 7.449 C 10.349 4.249,10.366 4.471,10.113 4.279 C 9.970 4.169,9.679 4.137,9.517 4.212 M4.483 14.714 C 4.359 14.769,4.216 14.920,4.169 15.044 C 4.075 15.291,4.183 15.610,4.410 15.761 L 4.545 15.850 9.714 15.850 C 14.823 15.850,14.885 15.849,14.996 15.783 C 15.059 15.747,15.155 15.661,15.210 15.592 C 15.295 15.487,15.311 15.439,15.312 15.276 C 15.314 15.045,15.249 14.907,15.078 14.777 L 14.955 14.683 9.769 14.676 C 5.487 14.670,4.566 14.677,4.483 14.714"/></svg>