<svg width="21" height="20" viewBox="0 0 21 20" fill="none" xmlns="http://www.w3.org/2000/svg"><path d="M3.233 2.465 C 3.093 2.527,2.942 2.724,2.917 2.882 C 2.864 3.205,2.798 3.125,4.745 5.075 C 5.735 6.067,6.545 6.888,6.545 6.899 C 6.545 6.910,6.456 7.052,6.347 7.213 C 5.989 7.746,5.709 8.426,5.576 9.091 C 5.484 9.547,5.493 10.505,5.593 10.961 C 5.817 11.991,6.256 12.801,6.983 13.528 C 7.726 14.272,8.706 14.769,9.748 14.930 C 10.245 15.006,11.107 14.982,11.550 14.880 C 12.187 14.732,12.812 14.461,13.315 14.116 L 13.592 13.925 15.380 15.709 C 16.363 16.690,17.204 17.511,17.249 17.534 C 17.294 17.557,17.398 17.576,17.480 17.576 C 17.887 17.576,18.153 17.252,18.079 16.846 C 18.058 16.728,17.850 16.507,16.255 14.910 C 15.265 13.918,14.455 13.096,14.455 13.083 C 14.455 13.070,14.551 12.917,14.667 12.742 C 15.023 12.211,15.283 11.564,15.423 10.866 C 15.515 10.405,15.507 9.482,15.407 9.024 C 15.184 8.000,14.743 7.180,14.037 6.474 C 13.330 5.767,12.455 5.296,11.463 5.089 C 11.016 4.996,9.984 4.996,9.538 5.089 C 8.884 5.226,8.252 5.491,7.699 5.861 L 7.405 6.058 5.619 4.275 C 4.636 3.294,3.798 2.475,3.756 2.454 C 3.652 2.401,3.366 2.407,3.233 2.465 M10.982 6.231 C 11.798 6.333,12.514 6.681,13.131 7.273 C 13.710 7.829,14.079 8.505,14.225 9.275 C 14.302 9.677,14.296 10.365,14.214 10.763 C 13.933 12.115,12.893 13.248,11.581 13.628 C 10.701 13.883,9.800 13.826,8.963 13.463 C 8.213 13.138,7.483 12.444,7.114 11.708 C 6.840 11.160,6.720 10.638,6.720 9.992 C 6.720 9.159,6.926 8.493,7.392 7.816 C 7.594 7.523,8.085 7.039,8.375 6.848 C 9.162 6.329,10.062 6.116,10.982 6.231 " fill="#19191C" stroke="none" fill-rule="evenodd"></path></svg>