<svg xmlns="http://www.w3.org/2000/svg" width="20" height="20" fill="none" viewBox="0 0 20 20"><path fill="#000" fill-rule="evenodd" stroke="none" d="M9.814 6.600 L 6.578 6.617 6.460 6.706 C 6.133 6.956,6.164 7.490,6.517 7.690 L 6.650 7.766 9.175 7.766 C 10.564 7.766,11.700 7.778,11.700 7.791 C 11.700 7.805,10.486 9.031,9.002 10.516 C 7.492 12.027,6.288 13.258,6.268 13.311 C 6.213 13.459,6.227 13.690,6.300 13.833 C 6.436 14.100,6.816 14.213,7.093 14.069 C 7.162 14.033,8.403 12.817,9.900 11.319 L 12.583 8.633 12.600 11.208 L 12.617 13.783 12.694 13.892 C 12.934 14.229,13.477 14.205,13.685 13.849 L 13.764 13.715 13.768 10.360 C 13.772 6.725,13.781 6.918,13.594 6.743 C 13.485 6.641,13.289 6.565,13.159 6.575 C 13.099 6.579,11.594 6.590,9.814 6.600"/></svg>