<svg xmlns="http://www.w3.org/2000/svg" width="20" height="20" fill="none"><path d="M6.539 6.656 C 6.353 6.748,6.254 6.911,6.242 7.146 C 6.228 7.398,6.319 7.578,6.517 7.690 L 6.650 7.766 9.175 7.766 C 10.564 7.766,11.700 7.778,11.700 7.791 C 11.700 7.805,10.486 9.031,9.002 10.516 C 7.492 12.027,6.288 13.258,6.268 13.311 C 6.213 13.459,6.227 13.690,6.300 13.833 C 6.436 14.100,6.816 14.213,7.093 14.069 C 7.162 14.033,8.397 12.824,9.883 11.336 C 11.350 9.868,12.561 8.667,12.574 8.667 C 12.588 8.667,12.603 9.818,12.608 11.225 L 12.617 13.783 12.694 13.892 C 12.937 14.233,13.488 14.203,13.692 13.840 L 13.768 13.706 13.759 10.325 L 13.750 6.945 13.660 6.827 C 13.475 6.585,13.718 6.600,9.995 6.601 C 6.966 6.601,6.640 6.607,6.539 6.656 " stroke="none" fill-rule="evenodd" fill="black"></path></svg>