<svg fill="none" height="20" viewBox="0 0 24 24" width="20" xmlns="http://www.w3.org/2000/svg"><path d="M11.424 2.548 C 10.931 2.725,10.704 3.251,10.929 3.692 C 11.011 3.852,11.147 3.987,11.316 4.078 C 11.447 4.148,11.486 4.150,13.048 4.160 L 14.647 4.169 11.160 7.660 C 8.708 10.114,7.650 11.195,7.596 11.300 C 7.442 11.601,7.508 11.999,7.755 12.245 C 8.001 12.492,8.399 12.558,8.700 12.404 C 8.805 12.350,9.886 11.292,12.340 8.840 L 15.831 5.353 15.840 6.952 C 15.850 8.514,15.852 8.553,15.922 8.684 C 16.086 8.990,16.339 9.148,16.667 9.148 C 16.995 9.148,17.248 8.990,17.412 8.684 C 17.483 8.550,17.483 8.549,17.483 5.833 C 17.483 3.117,17.483 3.117,17.412 2.983 C 17.321 2.813,17.187 2.679,17.017 2.588 C 16.884 2.517,16.875 2.517,14.217 2.509 C 12.037 2.503,11.527 2.510,11.424 2.548 M4.575 4.203 C 4.075 4.288,3.642 4.520,3.248 4.914 C 2.842 5.320,2.621 5.740,2.535 6.270 C 2.487 6.564,2.487 15.103,2.535 15.397 C 2.682 16.301,3.334 17.062,4.226 17.371 L 4.550 17.483 9.167 17.483 L 13.783 17.483 14.108 17.371 C 14.509 17.232,14.852 17.011,15.138 16.707 C 15.416 16.413,15.569 16.159,15.707 15.765 L 15.817 15.450 15.817 13.450 C 15.817 11.467,15.816 11.449,15.745 11.316 C 15.581 11.010,15.328 10.852,15.000 10.852 C 14.672 10.852,14.419 11.010,14.255 11.316 C 14.185 11.447,14.183 11.486,14.167 13.350 C 14.150 15.217,14.149 15.252,14.078 15.383 C 13.984 15.558,13.852 15.680,13.667 15.764 C 13.518 15.831,13.472 15.832,9.167 15.832 C 4.862 15.832,4.815 15.831,4.667 15.764 C 4.465 15.673,4.341 15.550,4.246 15.350 L 4.167 15.183 4.168 10.833 C 4.168 6.529,4.169 6.482,4.236 6.333 C 4.320 6.148,4.442 6.016,4.617 5.922 C 4.748 5.851,4.783 5.850,6.650 5.833 C 8.514 5.817,8.553 5.815,8.684 5.745 C 8.990 5.581,9.148 5.328,9.148 5.000 C 9.148 4.672,8.990 4.419,8.684 4.255 C 8.552 4.184,8.526 4.183,6.650 4.178 C 5.605 4.176,4.671 4.187,4.575 4.203 " stroke="none" fill-rule="evenodd" fill="black"></path></svg>