<svg width="20" height="20" viewBox="0 0 20 20" fill="none" xmlns="http://www.w3.org/2000/svg"><path d="M6.345 1.731 C 6.284 1.768,6.225 1.841,6.204 1.906 C 6.184 1.967,5.823 4.342,5.401 7.183 C 4.979 10.025,4.625 12.387,4.614 12.433 C 4.602 12.487,4.607 12.505,4.627 12.483 C 4.658 12.451,8.488 5.304,8.522 5.214 C 8.532 5.190,8.152 4.409,7.679 3.480 C 6.974 2.096,6.800 1.778,6.717 1.728 C 6.589 1.650,6.477 1.651,6.345 1.731 M9.883 4.032 C 9.847 4.047,9.785 4.095,9.746 4.138 C 9.678 4.215,4.391 14.069,4.409 14.087 C 4.414 14.092,6.019 12.417,7.976 10.364 L 11.533 6.633 10.902 5.371 C 10.321 4.209,10.262 4.106,10.156 4.055 C 10.028 3.995,9.983 3.991,9.883 4.032 M13.778 5.104 C 13.705 5.141,4.180 14.967,4.187 14.999 C 4.197 15.047,9.538 18.241,9.681 18.284 C 9.885 18.345,10.078 18.347,10.270 18.289 C 10.395 18.251,15.674 15.125,15.791 15.019 C 15.823 14.990,15.663 13.933,15.051 10.135 C 14.271 5.300,14.269 5.287,14.175 5.193 C 14.069 5.087,13.891 5.047,13.778 5.104 " fill="#56565C" stroke="none" fill-rule="evenodd"></path></svg>