<svg xmlns="http://www.w3.org/2000/svg" width="24" height="24" fill="none"><path d="M7.057 1.039 C 6.917 1.095,6.771 1.304,6.744 1.487 C 6.730 1.582,6.243 4.729,5.662 8.480 C 5.082 12.231,4.611 15.304,4.616 15.310 C 4.622 15.315,5.837 13.142,7.317 10.480 L 10.007 5.641 8.827 3.410 C 7.572 1.037,7.546 0.997,7.264 1.003 C 7.196 1.004,7.103 1.020,7.057 1.039 M11.858 4.123 C 11.791 4.142,11.699 4.199,11.654 4.249 C 11.609 4.299,10.037 7.103,8.160 10.480 C 6.283 13.857,4.641 16.809,4.511 17.040 L 4.274 17.460 4.580 17.160 C 5.568 16.190,14.062 7.588,14.071 7.547 C 14.084 7.490,12.473 4.384,12.370 4.268 C 12.303 4.192,12.077 4.076,12.011 4.084 C 11.994 4.086,11.925 4.103,11.858 4.123 M17.133 5.571 C 17.010 5.641,4.035 18.564,4.049 18.604 C 4.074 18.677,11.309 22.854,11.540 22.929 C 11.820 23.020,12.247 23.008,12.499 22.903 C 12.648 22.841,19.791 18.735,19.931 18.631 C 19.995 18.583,19.928 18.151,18.941 12.260 C 18.359 8.784,17.872 5.897,17.859 5.844 C 17.846 5.791,17.781 5.697,17.713 5.634 C 17.615 5.542,17.556 5.520,17.406 5.521 C 17.304 5.522,17.181 5.545,17.133 5.571 " fill="#414146" stroke="none" fill-rule="evenodd"></path></svg>