<svg xmlns="http://www.w3.org/2000/svg" width="24" height="24" fill="none" viewBox="0 0 24 24"><path fill="#414146" fill-rule="evenodd" stroke="none" d="M7.057 1.039 C 6.917 1.095,6.771 1.304,6.744 1.487 C 6.730 1.582,6.243 4.729,5.662 8.480 C 5.082 12.231,4.611 15.304,4.616 15.309 C 4.621 15.314,5.836 13.141,7.316 10.480 L 10.007 5.642 8.827 3.411 C 7.572 1.036,7.546 0.997,7.264 1.003 C 7.196 1.004,7.103 1.020,7.057 1.039 M11.858 4.123 C 11.791 4.142,11.699 4.199,11.654 4.249 C 11.596 4.314,4.496 17.042,4.329 17.380 C 4.292 17.454,5.075 16.671,9.573 12.128 C 12.041 9.635,14.065 7.574,14.071 7.547 C 14.084 7.490,12.471 4.382,12.369 4.267 C 12.303 4.192,12.076 4.076,12.011 4.084 C 11.994 4.086,11.925 4.103,11.858 4.123 M17.223 5.542 C 17.114 5.579,15.666 6.998,11.330 11.313 C 3.959 18.648,4.015 18.592,4.061 18.632 C 4.083 18.651,5.730 19.613,7.722 20.770 C 10.202 22.210,11.418 22.895,11.580 22.942 C 11.853 23.021,12.258 23.004,12.500 22.903 C 12.646 22.841,19.793 18.733,19.931 18.631 C 19.995 18.584,19.926 18.142,18.939 12.240 C 18.355 8.753,17.858 5.850,17.834 5.789 C 17.745 5.566,17.472 5.456,17.223 5.542"/></svg>