<svg xmlns="http://www.w3.org/2000/svg" width="20" height="20" fill="none"><path d="M8.967 1.115 C 7.565 1.292,6.293 1.764,5.139 2.535 C 3.405 3.694,2.170 5.324,1.515 7.317 C 0.753 9.637,0.937 12.200,2.023 14.381 C 2.260 14.858,2.330 14.977,2.638 15.433 C 3.003 15.975,3.290 16.323,3.750 16.784 C 4.486 17.521,5.188 18.025,6.117 18.485 C 6.763 18.804,7.249 18.980,7.391 18.946 C 7.556 18.907,7.664 18.834,7.724 18.724 C 7.777 18.628,7.781 18.525,7.772 17.717 C 7.766 17.222,7.755 16.811,7.749 16.804 C 7.742 16.797,7.634 16.812,7.510 16.838 C 7.176 16.905,6.374 16.896,6.100 16.821 C 5.726 16.719,5.406 16.540,5.160 16.295 C 4.976 16.112,4.907 16.010,4.767 15.711 C 4.673 15.513,4.565 15.290,4.527 15.217 C 4.409 14.990,4.105 14.611,3.947 14.495 C 3.461 14.134,3.392 14.055,3.445 13.918 C 3.478 13.832,3.726 13.789,3.966 13.829 C 4.418 13.904,4.868 14.238,5.183 14.733 C 5.410 15.092,5.552 15.256,5.773 15.419 C 6.257 15.775,6.843 15.841,7.526 15.615 L 7.790 15.528 7.845 15.272 C 7.909 14.972,8.041 14.680,8.214 14.455 C 8.282 14.366,8.333 14.290,8.327 14.285 C 8.321 14.281,8.184 14.259,8.022 14.237 C 7.614 14.181,7.035 14.030,6.662 13.883 C 5.384 13.376,4.657 12.431,4.380 10.917 C 4.332 10.657,4.319 10.421,4.319 9.850 C 4.320 9.163,4.326 9.096,4.409 8.783 C 4.517 8.377,4.804 7.791,5.035 7.505 L 5.203 7.296 5.127 7.006 C 5.062 6.760,5.051 6.639,5.054 6.200 C 5.057 5.757,5.069 5.637,5.143 5.359 C 5.191 5.180,5.249 4.993,5.274 4.942 C 5.318 4.852,5.325 4.850,5.584 4.855 C 6.051 4.865,6.694 5.120,7.445 5.593 L 7.773 5.800 7.945 5.751 C 8.577 5.573,9.413 5.485,10.248 5.510 C 10.904 5.529,11.300 5.578,11.896 5.712 L 12.242 5.790 12.563 5.588 C 13.306 5.120,13.951 4.865,14.416 4.855 C 14.675 4.850,14.682 4.852,14.726 4.942 C 14.751 4.993,14.809 5.180,14.857 5.359 C 14.931 5.637,14.943 5.757,14.946 6.200 C 14.949 6.639,14.938 6.760,14.873 7.006 L 14.797 7.296 14.967 7.506 C 15.196 7.788,15.481 8.372,15.591 8.783 C 15.675 9.097,15.680 9.160,15.680 9.850 C 15.681 10.637,15.641 10.963,15.478 11.533 C 15.362 11.939,15.075 12.503,14.824 12.819 C 14.230 13.564,13.222 14.059,11.942 14.234 L 11.636 14.276 11.754 14.413 C 11.900 14.583,12.079 14.949,12.155 15.234 C 12.205 15.422,12.214 15.654,12.220 17.038 C 12.229 18.795,12.227 18.776,12.442 18.888 C 12.609 18.975,12.790 18.957,13.153 18.818 C 14.393 18.343,15.674 17.461,16.558 16.471 C 18.596 14.189,19.385 11.143,18.714 8.140 C 18.188 5.785,16.724 3.707,14.673 2.404 C 13.700 1.787,12.460 1.325,11.300 1.149 C 10.794 1.072,9.459 1.052,8.967 1.115 " fill="#19191C" stroke="none" fill-rule="evenodd"></path></svg>