<svg xmlns="http://www.w3.org/2000/svg" width="20" height="20" fill="none" viewBox="0 0 20 20"><path fill="#000" fill-rule="evenodd" stroke="none" d="M2.732 4.975 C 2.295 5.196,2.295 5.804,2.732 6.025 L 2.881 6.100 10.000 6.100 L 17.119 6.100 17.268 6.025 C 17.705 5.804,17.705 5.196,17.268 4.975 L 17.119 4.900 10.000 4.900 L 2.881 4.900 2.732 4.975 M2.732 13.975 C 2.295 14.196,2.295 14.804,2.732 15.025 L 2.881 15.100 10.000 15.100 L 17.119 15.100 17.268 15.025 C 17.705 14.804,17.705 14.196,17.268 13.975 L 17.119 13.900 10.000 13.900 L 2.881 13.900 2.732 13.975"/></svg>