<svg xmlns="http://www.w3.org/2000/svg" width="30" height="30" fill="none"><path d="M10.375 0.031 C 9.250 0.064,7.859 0.154,7.350 0.229 C 4.804 0.600,2.834 1.783,1.528 3.725 C 0.833 4.758,0.315 6.322,0.153 7.875 C 0.044 8.922,0.001 10.966,0.001 15.000 C 0.001 20.436,0.058 21.892,0.326 23.225 C 0.933 26.252,2.788 28.420,5.555 29.339 C 7.303 29.919,8.442 29.999,15.000 29.999 C 21.513 29.999,22.717 29.916,24.411 29.351 C 25.470 28.997,26.245 28.564,27.051 27.875 C 28.277 26.826,29.109 25.450,29.542 23.750 C 29.930 22.233,29.973 21.345,29.974 15.025 C 29.974 9.710,29.944 8.579,29.770 7.400 C 29.529 5.767,28.970 4.333,28.165 3.287 C 27.021 1.800,25.427 0.819,23.444 0.383 C 22.093 0.085,21.209 0.045,15.675 0.029 C 13.063 0.022,10.678 0.023,10.375 0.031 M21.147 2.797 C 22.474 2.889,23.242 3.047,24.050 3.395 C 24.615 3.638,24.989 3.892,25.491 4.373 C 26.203 5.053,26.655 5.857,26.924 6.917 C 27.227 8.111,27.270 9.119,27.271 14.975 C 27.272 21.218,27.214 22.271,26.797 23.518 C 26.073 25.685,24.416 26.878,21.761 27.147 C 20.680 27.257,17.315 27.312,13.575 27.283 C 8.791 27.245,7.856 27.189,6.778 26.875 C 5.764 26.580,5.080 26.193,4.446 25.556 C 3.502 24.607,3.028 23.466,2.854 21.725 C 2.698 20.164,2.662 11.586,2.802 9.076 C 2.889 7.512,3.057 6.696,3.477 5.807 C 3.757 5.217,4.041 4.820,4.507 4.370 C 5.317 3.587,6.268 3.146,7.625 2.924 C 8.067 2.851,9.418 2.762,10.550 2.731 C 11.884 2.695,20.434 2.747,21.147 2.797 M22.575 5.244 C 22.114 5.366,21.624 5.762,21.408 6.185 C 21.256 6.483,21.188 6.941,21.245 7.292 C 21.343 7.900,21.678 8.360,22.219 8.627 C 22.546 8.789,22.627 8.808,22.980 8.808 C 23.709 8.808,24.287 8.462,24.614 7.830 C 24.760 7.548,24.772 7.487,24.773 7.025 C 24.775 6.586,24.759 6.490,24.641 6.240 C 24.354 5.626,23.776 5.243,23.101 5.218 C 22.894 5.211,22.657 5.222,22.575 5.244 M13.941 7.373 C 12.252 7.615,10.795 8.349,9.572 9.572 C 8.532 10.611,7.870 11.773,7.533 13.150 C 7.103 14.900,7.284 16.698,8.049 18.287 C 8.426 19.069,8.858 19.699,9.425 20.293 C 10.557 21.478,11.873 22.209,13.500 22.556 C 14.215 22.708,15.629 22.721,16.375 22.582 C 17.970 22.283,19.254 21.601,20.427 20.427 C 21.601 19.254,22.283 17.970,22.582 16.375 C 22.721 15.629,22.708 14.215,22.556 13.500 C 22.209 11.873,21.478 10.557,20.293 9.425 C 19.211 8.392,17.823 7.686,16.351 7.419 C 15.751 7.311,14.537 7.287,13.941 7.373 M16.264 10.168 C 17.240 10.421,18.180 11.016,18.831 11.795 C 20.037 13.236,20.331 15.211,19.602 16.963 C 19.139 18.074,18.080 19.137,16.978 19.596 C 16.256 19.896,15.851 19.973,15.000 19.973 C 14.311 19.973,14.170 19.958,13.736 19.837 C 11.919 19.333,10.597 17.980,10.137 16.150 C 9.993 15.577,9.983 14.504,10.117 13.933 C 10.418 12.649,11.200 11.522,12.274 10.821 C 12.904 10.411,13.463 10.203,14.400 10.030 C 14.738 9.968,15.789 10.046,16.264 10.168 " fill="#19191C" stroke="none" fill-rule="evenodd"></path></svg>