<svg xmlns="http://www.w3.org/2000/svg" width="30" height="30" viewBox="0 0 30 30" fill="none"><path d="M10.375 0.031 C 9.250 0.064,7.859 0.154,7.350 0.229 C 5.392 0.514,3.783 1.277,2.553 2.502 C 1.586 3.465,1.038 4.367,0.597 5.719 C 0.088 7.282,0.000 8.647,0.000 15.000 C 0.000 21.460,0.086 22.729,0.633 24.391 C 1.424 26.792,3.137 28.515,5.556 29.343 C 7.226 29.914,8.467 30.000,15.018 30.000 C 21.544 29.999,22.704 29.918,24.425 29.345 C 26.565 28.633,28.221 27.121,29.091 25.086 C 29.908 23.175,30.035 21.556,29.984 13.750 C 29.953 8.945,29.910 7.999,29.668 6.800 C 29.482 5.878,29.077 4.749,28.694 4.086 C 27.595 2.185,25.765 0.894,23.444 0.383 C 22.093 0.085,21.209 0.045,15.675 0.029 C 13.063 0.022,10.678 0.023,10.375 0.031 M21.147 2.797 C 22.819 2.913,23.916 3.209,24.775 3.776 C 25.544 4.284,26.291 5.189,26.632 6.026 C 27.069 7.096,27.176 7.907,27.255 10.713 C 27.321 13.071,27.286 19.608,27.200 21.022 C 27.078 23.016,26.694 24.234,25.881 25.205 C 24.921 26.349,23.631 26.958,21.761 27.147 C 20.680 27.257,17.315 27.312,13.575 27.283 C 8.791 27.245,7.856 27.189,6.778 26.875 C 5.764 26.580,5.080 26.193,4.446 25.556 C 3.505 24.610,3.027 23.461,2.854 21.725 C 2.698 20.170,2.663 11.634,2.801 9.100 C 2.888 7.513,3.055 6.701,3.477 5.807 C 3.757 5.217,4.041 4.820,4.507 4.370 C 5.314 3.590,6.285 3.142,7.650 2.919 C 8.064 2.852,9.417 2.763,10.525 2.731 C 11.806 2.694,20.435 2.747,21.147 2.797 M22.514 5.270 C 21.719 5.529,21.239 6.180,21.239 7.000 C 21.239 7.839,21.771 8.518,22.593 8.728 C 23.215 8.886,23.866 8.689,24.316 8.206 C 24.683 7.811,24.775 7.570,24.775 7.000 C 24.775 6.590,24.757 6.486,24.641 6.240 C 24.357 5.633,23.775 5.245,23.107 5.217 C 22.875 5.207,22.642 5.228,22.514 5.270 M13.941 7.373 C 12.249 7.616,10.798 8.346,9.572 9.572 C 8.915 10.229,8.502 10.798,8.102 11.598 C 7.065 13.671,7.038 16.178,8.030 18.250 C 8.471 19.170,8.803 19.650,9.497 20.368 C 10.613 21.524,12.030 22.283,13.625 22.582 C 14.320 22.712,15.680 22.712,16.375 22.582 C 19.542 21.989,21.989 19.542,22.582 16.375 C 22.712 15.680,22.712 14.320,22.582 13.625 C 22.283 12.030,21.524 10.613,20.368 9.497 C 19.215 8.383,17.889 7.698,16.351 7.419 C 15.751 7.311,14.537 7.287,13.941 7.373 M16.175 10.144 C 17.970 10.592,19.337 11.932,19.836 13.732 C 19.958 14.171,19.973 14.310,19.973 15.000 C 19.973 15.851,19.896 16.256,19.596 16.978 C 19.142 18.068,18.068 19.142,16.978 19.596 C 16.256 19.896,15.851 19.973,15.000 19.973 C 14.310 19.973,14.171 19.958,13.732 19.836 C 10.960 19.068,9.387 16.230,10.235 13.526 C 10.801 11.721,12.266 10.434,14.167 10.071 C 14.656 9.977,15.653 10.014,16.175 10.144 " fill="#19191C" stroke="none" fill-rule="evenodd"></path></svg>