<svg xmlns="http://www.w3.org/2000/svg" width="20" height="20" fill="none"><path d="M9.750 2.463 C 9.429 2.610,9.400 2.714,9.400 3.709 C 9.400 4.483,9.403 4.526,9.475 4.668 C 9.696 5.105,10.304 5.105,10.525 4.668 C 10.597 4.526,10.600 4.484,10.599 3.701 C 10.599 2.979,10.591 2.868,10.537 2.750 C 10.464 2.591,10.390 2.520,10.225 2.451 C 10.064 2.384,9.914 2.388,9.750 2.463 M4.741 4.552 C 4.505 4.694,4.400 5.019,4.502 5.289 C 4.554 5.426,5.391 6.263,5.550 6.337 C 5.713 6.412,5.863 6.416,6.025 6.349 C 6.190 6.280,6.264 6.209,6.337 6.050 C 6.412 5.886,6.416 5.737,6.349 5.574 C 6.286 5.422,5.501 4.622,5.326 4.531 C 5.148 4.438,4.917 4.447,4.741 4.552 M14.683 4.521 C 14.523 4.605,13.733 5.402,13.664 5.550 C 13.585 5.719,13.585 5.880,13.663 6.050 C 13.736 6.209,13.810 6.280,13.975 6.349 C 14.137 6.416,14.287 6.412,14.450 6.337 C 14.609 6.263,15.446 5.426,15.498 5.289 C 15.601 5.018,15.490 4.689,15.247 4.547 C 15.086 4.452,14.837 4.441,14.683 4.521 M9.617 6.019 C 8.626 6.154,7.897 6.489,7.244 7.110 C 5.457 8.807,5.627 11.706,7.601 13.196 C 9.562 14.677,12.416 14.026,13.544 11.842 C 14.764 9.478,13.406 6.632,10.795 6.082 C 10.555 6.032,9.814 5.992,9.617 6.019 M10.482 7.251 C 11.479 7.425,12.310 8.129,12.637 9.077 C 13.054 10.288,12.598 11.639,11.536 12.336 C 10.019 13.332,7.953 12.633,7.363 10.923 C 6.667 8.904,8.382 6.885,10.482 7.251 M2.732 9.475 C 2.295 9.696,2.295 10.304,2.732 10.525 C 2.874 10.597,2.917 10.600,3.700 10.600 C 4.483 10.600,4.526 10.597,4.668 10.525 C 5.105 10.304,5.105 9.696,4.668 9.475 C 4.526 9.403,4.483 9.400,3.700 9.400 C 2.917 9.400,2.874 9.403,2.732 9.475 M15.332 9.475 C 14.895 9.696,14.895 10.304,15.332 10.525 C 15.474 10.597,15.517 10.600,16.300 10.600 C 17.083 10.600,17.126 10.597,17.268 10.525 C 17.705 10.304,17.705 9.696,17.268 9.475 C 17.126 9.403,17.083 9.400,16.300 9.400 C 15.517 9.400,15.474 9.403,15.332 9.475 M5.550 13.663 C 5.471 13.700,5.232 13.913,4.962 14.188 C 4.587 14.568,4.500 14.676,4.468 14.794 C 4.349 15.238,4.745 15.639,5.190 15.529 C 5.330 15.494,5.408 15.432,5.812 15.036 C 6.065 14.787,6.302 14.528,6.337 14.460 C 6.445 14.248,6.411 13.972,6.256 13.805 C 6.072 13.607,5.792 13.551,5.550 13.663 M13.967 13.671 C 13.721 13.768,13.571 14.086,13.639 14.362 C 13.673 14.496,13.741 14.581,14.145 14.992 C 14.543 15.397,14.637 15.475,14.770 15.515 C 15.256 15.659,15.682 15.193,15.500 14.717 C 15.452 14.591,14.625 13.753,14.481 13.684 C 14.361 13.627,14.094 13.620,13.967 13.671 M9.750 15.063 C 9.429 15.210,9.400 15.314,9.400 16.309 C 9.400 17.083,9.403 17.126,9.475 17.268 C 9.696 17.705,10.304 17.705,10.525 17.268 C 10.597 17.126,10.600 17.084,10.599 16.301 C 10.599 15.579,10.591 15.468,10.537 15.350 C 10.464 15.191,10.390 15.120,10.225 15.051 C 10.064 14.984,9.914 14.988,9.750 15.063 " fill="#19191C" stroke="none" fill-rule="evenodd"></path></svg>