<svg xmlns="http://www.w3.org/2000/svg" fill="none" viewBox="0 0 24 24" stroke-width="1.5" stroke="currentColor" class="size-6"><path d="M13.900 1.594 C 13.737 1.695,13.718 1.716,8.120 7.712 C 5.403 10.623,3.138 13.080,3.087 13.172 C 2.897 13.515,3.050 13.981,3.410 14.155 C 3.585 14.240,3.596 14.240,7.293 14.240 C 9.553 14.240,11.000 14.255,11.000 14.277 C 11.000 14.298,10.549 15.967,9.997 17.987 C 9.190 20.941,8.998 21.694,9.013 21.835 C 9.051 22.198,9.382 22.489,9.754 22.489 C 10.023 22.489,10.128 22.422,10.560 21.974 C 11.934 20.550,20.838 10.964,20.913 10.828 C 21.103 10.485,20.950 10.019,20.590 9.845 C 20.415 9.760,20.404 9.760,16.707 9.760 C 14.447 9.760,13.000 9.745,13.000 9.723 C 13.000 9.702,13.451 8.033,14.003 6.013 C 14.798 3.101,15.002 2.305,14.988 2.169 C 14.964 1.945,14.798 1.701,14.602 1.601 C 14.396 1.496,14.064 1.493,13.900 1.594 M12.002 7.641 C 11.609 9.082,11.275 10.326,11.260 10.407 C 11.212 10.663,11.399 11.025,11.655 11.172 C 11.719 11.208,12.579 11.225,15.127 11.240 L 18.514 11.260 14.907 15.126 C 12.923 17.252,11.296 18.989,11.292 18.985 C 11.288 18.981,11.605 17.799,11.998 16.359 C 12.391 14.918,12.725 13.674,12.740 13.593 C 12.788 13.337,12.601 12.975,12.345 12.828 C 12.281 12.792,11.421 12.775,8.873 12.760 L 5.486 12.740 9.093 8.874 C 11.077 6.748,12.704 5.011,12.708 5.015 C 12.712 5.019,12.395 6.201,12.002 7.641 " stroke="none" fill-rule="evenodd" fill="black"></path></svg>