<svg xmlns="http://www.w3.org/2000/svg" width="20" height="20" fill="none" viewBox="0 0 20 20"><path fill="#19191C" fill-rule="evenodd" stroke="none" d="M9.750 2.463 C 9.429 2.610,9.400 2.714,9.400 3.709 C 9.400 4.483,9.403 4.526,9.475 4.668 C 9.696 5.105,10.304 5.105,10.525 4.668 C 10.597 4.526,10.600 4.484,10.599 3.701 C 10.599 2.979,10.591 2.868,10.537 2.750 C 10.464 2.591,10.390 2.520,10.225 2.451 C 10.064 2.384,9.914 2.388,9.750 2.463 M4.783 4.522 C 4.522 4.660,4.403 4.917,4.473 5.196 C 4.506 5.328,4.574 5.415,4.964 5.813 C 5.534 6.396,5.706 6.482,6.025 6.349 C 6.190 6.280,6.264 6.209,6.337 6.050 C 6.412 5.886,6.416 5.737,6.349 5.574 C 6.286 5.422,5.501 4.622,5.326 4.531 C 5.176 4.453,4.922 4.449,4.783 4.522 M14.683 4.521 C 14.523 4.605,13.733 5.402,13.664 5.550 C 13.585 5.719,13.585 5.880,13.663 6.050 C 13.736 6.209,13.810 6.280,13.975 6.349 C 14.294 6.482,14.465 6.396,15.038 5.811 C 15.438 5.404,15.497 5.329,15.524 5.199 C 15.582 4.913,15.468 4.653,15.232 4.533 C 15.076 4.453,14.824 4.448,14.683 4.521 M9.617 6.019 C 8.626 6.154,7.897 6.489,7.244 7.110 C 5.458 8.807,5.628 11.706,7.601 13.196 C 9.562 14.677,12.416 14.026,13.544 11.842 C 14.764 9.478,13.406 6.632,10.795 6.082 C 10.555 6.032,9.814 5.992,9.617 6.019 M10.482 7.251 C 11.479 7.425,12.310 8.129,12.637 9.077 C 13.054 10.288,12.598 11.639,11.536 12.336 C 10.019 13.332,7.953 12.633,7.363 10.923 C 6.667 8.904,8.382 6.885,10.482 7.251 M2.732 9.475 C 2.295 9.696,2.295 10.304,2.732 10.525 C 2.874 10.597,2.917 10.600,3.700 10.600 C 4.483 10.600,4.526 10.597,4.668 10.525 C 5.105 10.304,5.105 9.696,4.668 9.475 C 4.526 9.403,4.483 9.400,3.700 9.400 C 2.917 9.400,2.874 9.403,2.732 9.475 M15.332 9.475 C 14.895 9.696,14.895 10.304,15.332 10.525 C 15.474 10.597,15.517 10.600,16.300 10.600 C 17.083 10.600,17.126 10.597,17.268 10.525 C 17.705 10.304,17.705 9.696,17.268 9.475 C 17.126 9.403,17.083 9.400,16.300 9.400 C 15.517 9.400,15.474 9.403,15.332 9.475 M5.550 13.663 C 5.470 13.700,5.235 13.910,4.962 14.189 C 4.562 14.596,4.503 14.671,4.476 14.801 C 4.376 15.292,4.821 15.677,5.283 15.500 C 5.425 15.446,6.261 14.612,6.337 14.450 C 6.415 14.281,6.415 14.120,6.337 13.950 C 6.264 13.791,6.190 13.720,6.025 13.651 C 5.863 13.584,5.713 13.588,5.550 13.663 M13.950 13.663 C 13.791 13.736,13.720 13.810,13.651 13.975 C 13.584 14.137,13.588 14.287,13.663 14.450 C 13.739 14.612,14.575 15.446,14.717 15.500 C 15.179 15.677,15.624 15.292,15.524 14.801 C 15.497 14.671,15.438 14.596,15.038 14.189 C 14.456 13.595,14.281 13.511,13.950 13.663 M9.750 15.063 C 9.429 15.210,9.400 15.314,9.400 16.309 C 9.400 17.083,9.403 17.126,9.475 17.268 C 9.696 17.705,10.304 17.705,10.525 17.268 C 10.597 17.126,10.600 17.084,10.599 16.301 C 10.599 15.579,10.591 15.468,10.537 15.350 C 10.464 15.191,10.390 15.120,10.225 15.051 C 10.064 14.984,9.914 14.988,9.750 15.063"/></svg>