<svg xmlns="http://www.w3.org/2000/svg" width="20" height="20" fill="none"><path d="M2.667 1.720 C 2.185 1.850,1.803 2.251,1.702 2.733 C 1.673 2.870,1.666 4.737,1.673 10.067 L 1.683 17.217 1.807 17.476 C 1.949 17.772,2.181 18.022,2.436 18.151 C 2.817 18.344,2.359 18.333,10.053 18.333 C 17.005 18.333,17.130 18.332,17.340 18.267 C 17.743 18.143,18.079 17.832,18.242 17.433 L 18.317 17.250 18.317 9.967 C 18.317 2.891,18.315 2.678,18.253 2.513 C 18.126 2.170,17.866 1.905,17.506 1.750 C 17.352 1.684,17.275 1.683,10.100 1.677 C 3.796 1.671,2.826 1.677,2.667 1.720 M6.307 4.573 C 6.543 4.683,6.766 4.908,6.890 5.159 C 6.976 5.335,6.983 5.381,6.983 5.733 C 6.983 6.091,6.977 6.130,6.886 6.309 C 6.769 6.539,6.493 6.810,6.275 6.908 C 6.031 7.018,5.515 7.031,5.255 6.933 C 4.979 6.829,4.746 6.627,4.603 6.367 C 4.491 6.163,4.484 6.128,4.472 5.793 C 4.462 5.512,4.472 5.400,4.518 5.272 C 4.639 4.934,4.920 4.651,5.260 4.525 C 5.380 4.480,5.499 4.469,5.767 4.475 C 6.066 4.482,6.144 4.496,6.307 4.573 M13.446 7.984 C 14.457 8.192,15.169 8.930,15.433 10.040 C 15.546 10.517,15.566 11.014,15.566 13.325 L 15.567 15.567 14.352 15.567 L 13.137 15.567 13.125 13.292 C 13.115 11.249,13.107 10.996,13.055 10.817 C 12.875 10.198,12.559 9.913,12.010 9.877 C 11.799 9.863,11.710 9.873,11.536 9.932 C 11.185 10.051,10.917 10.272,10.767 10.567 C 10.606 10.881,10.601 10.970,10.600 13.342 L 10.600 15.567 9.417 15.567 L 8.233 15.567 8.233 11.850 L 8.233 8.133 9.417 8.133 L 10.600 8.133 10.600 8.656 L 10.600 9.178 10.737 8.981 C 11.077 8.489,11.561 8.144,12.112 7.999 C 12.417 7.920,13.097 7.912,13.446 7.984 M6.867 11.850 L 6.867 15.567 5.650 15.567 L 4.433 15.567 4.433 11.850 L 4.433 8.133 5.650 8.133 L 6.867 8.133 6.867 11.850 " fill="#19191C" stroke="none" fill-rule="evenodd"></path></svg>