<svg xmlns="http://www.w3.org/2000/svg" width="20" height="20" fill="none" viewBox="0 0 20 20"><path fill="#000" fill-rule="evenodd" stroke="none" d="M9.500 2.419 C 9.436 2.427,9.242 2.449,9.070 2.470 C 8.375 2.551,7.592 2.798,6.876 3.163 C 4.433 4.409,3.063 7.037,3.485 9.667 C 3.858 11.995,5.754 14.578,8.750 16.843 C 9.947 17.747,9.981 17.754,10.689 17.256 C 12.689 15.849,14.443 14.073,15.418 12.469 C 16.484 10.714,16.818 9.069,16.446 7.403 C 15.877 4.855,13.723 2.894,11.039 2.481 C 10.722 2.433,9.729 2.393,9.500 2.419 M10.707 3.650 C 12.389 3.874,13.827 4.786,14.678 6.170 C 15.296 7.174,15.541 8.538,15.305 9.650 C 14.891 11.600,13.315 13.702,10.766 15.703 C 10.499 15.912,10.218 16.127,10.141 16.179 L 10.001 16.275 9.813 16.146 C 9.276 15.776,8.271 14.931,7.638 14.317 C 6.043 12.769,5.007 11.131,4.699 9.672 C 4.459 8.533,4.699 7.182,5.322 6.170 C 6.428 4.372,8.576 3.367,10.707 3.650 M9.667 6.419 C 9.016 6.532,8.588 6.745,8.167 7.167 C 7.828 7.506,7.601 7.891,7.479 8.339 C 7.400 8.628,7.398 9.368,7.477 9.653 C 7.725 10.558,8.444 11.276,9.347 11.523 C 9.609 11.595,10.339 11.602,10.600 11.536 C 11.550 11.295,12.296 10.548,12.536 9.600 C 12.596 9.359,12.596 8.641,12.536 8.400 C 12.301 7.471,11.561 6.715,10.655 6.480 C 10.457 6.429,9.832 6.390,9.667 6.419 M10.504 7.697 C 10.855 7.830,11.165 8.139,11.306 8.496 C 11.410 8.761,11.410 9.239,11.306 9.504 C 11.166 9.859,10.859 10.166,10.504 10.306 C 10.357 10.363,10.248 10.379,10.000 10.379 C 9.752 10.379,9.643 10.363,9.496 10.306 C 8.714 9.998,8.381 9.089,8.770 8.326 C 8.855 8.161,9.165 7.852,9.333 7.767 C 9.685 7.587,10.141 7.560,10.504 7.697"/></svg>