<svg xmlns="http://www.w3.org/2000/svg" width="20" height="20" fill="none"><path d="M4.750 4.463 C 4.591 4.536,4.520 4.610,4.451 4.775 C 4.406 4.884,4.400 5.485,4.400 10.009 L 4.400 15.119 4.475 15.268 C 4.696 15.705,5.304 15.705,5.525 15.268 L 5.600 15.119 5.599 10.001 C 5.599 5.106,5.596 4.878,5.537 4.750 C 5.464 4.591,5.390 4.520,5.225 4.451 C 5.064 4.384,4.914 4.388,4.750 4.463 M12.250 5.963 C 12.091 6.036,12.020 6.110,11.951 6.275 C 11.886 6.431,11.886 6.569,11.951 6.726 C 11.986 6.810,12.410 7.259,13.276 8.125 L 14.550 9.400 11.715 9.400 L 8.881 9.400 8.732 9.475 C 8.295 9.696,8.295 10.304,8.732 10.525 L 8.881 10.600 11.715 10.600 L 14.550 10.600 13.276 11.875 C 12.410 12.741,11.986 13.190,11.951 13.274 C 11.884 13.437,11.888 13.586,11.963 13.750 C 12.036 13.909,12.110 13.980,12.275 14.049 C 12.437 14.116,12.587 14.112,12.750 14.036 C 12.938 13.948,16.478 10.397,16.549 10.226 C 16.614 10.069,16.614 9.931,16.549 9.774 C 16.478 9.603,12.938 6.052,12.750 5.964 C 12.582 5.885,12.420 5.885,12.250 5.963 " stroke="none" fill-rule="evenodd" fill="black"></path></svg>