<svg xmlns="http://www.w3.org/2000/svg" width="20" height="20" fill="none"><path d="M15.250 4.463 C 15.091 4.536,15.020 4.610,14.951 4.775 C 14.906 4.884,14.900 5.485,14.900 10.009 L 14.900 15.119 14.975 15.268 C 15.196 15.705,15.804 15.705,16.025 15.268 L 16.100 15.119 16.099 10.001 C 16.099 5.106,16.096 4.878,16.037 4.750 C 15.964 4.591,15.890 4.520,15.725 4.451 C 15.564 4.384,15.414 4.388,15.250 4.463 M7.250 5.964 C 7.062 6.052,3.522 9.603,3.451 9.774 C 3.423 9.842,3.400 9.944,3.400 10.000 C 3.400 10.056,3.423 10.158,3.451 10.226 C 3.522 10.397,7.062 13.948,7.250 14.036 C 7.413 14.112,7.563 14.116,7.725 14.049 C 7.890 13.980,7.964 13.909,8.037 13.750 C 8.112 13.586,8.116 13.437,8.049 13.274 C 8.014 13.190,7.590 12.741,6.724 11.875 L 5.450 10.600 8.285 10.600 L 11.119 10.600 11.268 10.525 C 11.705 10.304,11.705 9.696,11.268 9.475 L 11.119 9.400 8.285 9.400 L 5.450 9.400 6.724 8.125 C 7.590 7.259,8.014 6.810,8.049 6.726 C 8.116 6.563,8.112 6.414,8.037 6.250 C 7.964 6.091,7.890 6.020,7.725 5.951 C 7.563 5.884,7.413 5.888,7.250 5.964 " stroke="none" fill-rule="evenodd" fill="black"></path></svg>