<svg xmlns="http://www.w3.org/2000/svg" width="24" height="24" fill="none" viewBox="0 0 24 24"><path fill="#414146" fill-rule="evenodd" stroke="none" d="M11.340 3.024 C 10.026 3.160,9.091 3.415,8.060 3.918 C 5.286 5.272,3.420 7.912,3.059 10.992 C 2.620 14.745,4.632 18.403,8.060 20.083 C 10.550 21.304,13.449 21.303,15.940 20.081 C 16.582 19.766,17.102 19.438,17.626 19.018 C 18.006 18.712,18.680 18.067,18.680 18.008 C 18.680 17.971,17.301 16.800,17.257 16.800 C 17.242 16.800,17.064 16.959,16.861 17.153 C 15.819 18.149,14.530 18.779,13.040 19.019 C 12.484 19.108,11.445 19.100,10.874 19.002 C 8.375 18.573,6.351 16.954,5.421 14.640 C 4.863 13.253,4.764 11.638,5.146 10.184 C 5.789 7.736,7.736 5.789,10.184 5.146 C 11.293 4.854,12.639 4.844,13.716 5.119 C 15.446 5.561,16.918 6.602,17.915 8.090 C 18.686 9.242,19.117 10.715,19.070 12.040 C 19.048 12.676,18.964 12.950,18.710 13.226 C 18.317 13.652,17.612 13.539,17.370 13.010 C 17.276 12.805,17.272 12.768,17.299 12.346 C 17.449 9.933,15.959 7.735,13.648 6.961 C 13.120 6.784,12.658 6.715,12.000 6.715 C 11.342 6.715,10.880 6.784,10.352 6.961 C 8.603 7.547,7.306 8.938,6.856 10.710 C 6.342 12.740,7.080 14.884,8.740 16.179 C 10.131 17.265,11.925 17.587,13.612 17.054 C 14.628 16.733,15.591 16.048,16.230 15.193 C 16.375 14.999,16.498 14.840,16.504 14.840 C 16.510 14.840,16.606 14.936,16.717 15.053 C 17.082 15.439,17.534 15.614,18.160 15.612 C 20.167 15.606,21.267 13.779,20.941 10.992 C 20.819 9.950,20.536 8.984,20.083 8.060 C 19.190 6.237,17.762 4.810,15.944 3.923 C 15.066 3.494,14.269 3.244,13.320 3.101 C 12.911 3.039,11.662 2.991,11.340 3.024 M12.840 8.702 C 12.983 8.738,13.263 8.845,13.462 8.941 C 14.174 9.282,14.717 9.824,15.057 10.534 C 15.314 11.070,15.377 11.357,15.377 12.000 C 15.377 12.642,15.314 12.930,15.059 13.462 C 14.718 14.176,14.200 14.700,13.500 15.041 C 12.914 15.326,12.689 15.377,12.000 15.377 C 11.311 15.377,11.086 15.326,10.500 15.041 C 9.800 14.700,9.282 14.176,8.941 13.462 C 8.686 12.930,8.623 12.642,8.623 12.000 C 8.623 11.363,8.685 11.077,8.938 10.540 C 9.401 9.558,10.294 8.869,11.380 8.657 C 11.731 8.588,12.481 8.611,12.840 8.702 M11.601 10.502 C 11.149 10.628,10.787 10.934,10.584 11.360 C 10.472 11.594,10.460 11.658,10.460 12.000 C 10.460 12.343,10.472 12.405,10.585 12.640 C 10.850 13.192,11.417 13.560,12.003 13.560 C 12.458 13.560,12.968 13.294,13.254 12.907 C 13.853 12.098,13.501 10.914,12.554 10.554 C 12.270 10.446,11.876 10.424,11.601 10.502"/></svg>