<svg width="20" height="20" viewBox="0 0 20 20" fill="none" xmlns="http://www.w3.org/2000/svg"><path d="M9.450 2.520 C 8.355 2.633,7.576 2.845,6.717 3.265 C 4.405 4.393,2.850 6.594,2.549 9.160 C 2.184 12.288,3.860 15.336,6.717 16.736 C 8.792 17.753,11.208 17.752,13.283 16.734 C 13.818 16.472,14.252 16.198,14.688 15.848 C 15.005 15.594,15.567 15.056,15.567 15.007 C 15.567 14.975,14.418 14.000,14.381 14.000 C 14.369 14.000,14.220 14.133,14.050 14.294 C 13.182 15.125,12.108 15.649,10.867 15.849 C 10.403 15.923,9.538 15.917,9.062 15.835 C 6.979 15.477,5.292 14.128,4.517 12.200 C 4.053 11.044,3.970 9.698,4.288 8.486 C 4.824 6.446,6.446 4.824,8.486 4.288 C 9.197 4.101,10.108 4.048,10.830 4.151 C 13.202 4.488,15.141 6.232,15.731 8.561 C 15.922 9.314,15.954 10.281,15.800 10.681 C 15.707 10.924,15.502 11.154,15.338 11.199 C 14.959 11.304,14.623 11.165,14.475 10.842 C 14.397 10.671,14.394 10.640,14.416 10.289 C 14.541 8.278,13.299 6.446,11.374 5.801 C 10.934 5.653,10.549 5.596,10.000 5.596 C 9.451 5.596,9.066 5.653,8.626 5.801 C 7.169 6.289,6.088 7.448,5.714 8.925 C 5.285 10.617,5.900 12.403,7.283 13.483 C 8.443 14.387,9.938 14.656,11.344 14.211 C 12.190 13.944,12.993 13.373,13.525 12.661 C 13.645 12.499,13.749 12.367,13.754 12.367 C 13.759 12.367,13.839 12.447,13.931 12.545 C 14.235 12.866,14.612 13.012,15.133 13.010 C 16.806 13.005,17.722 11.482,17.451 9.160 C 17.349 8.291,17.114 7.487,16.736 6.717 C 15.992 5.198,14.802 4.009,13.287 3.269 C 12.555 2.911,11.891 2.704,11.100 2.584 C 10.760 2.533,9.718 2.492,9.450 2.520 M10.700 7.251 C 10.819 7.281,11.052 7.371,11.219 7.451 C 11.812 7.735,12.264 8.187,12.548 8.778 C 12.762 9.225,12.814 9.464,12.814 10.000 C 12.814 10.535,12.762 10.775,12.549 11.219 C 12.265 11.813,11.833 12.250,11.250 12.534 C 10.761 12.772,10.574 12.814,10.000 12.814 C 9.426 12.814,9.239 12.772,8.750 12.534 C 8.167 12.250,7.735 11.813,7.451 11.219 C 7.238 10.775,7.186 10.535,7.186 10.000 C 7.186 9.469,7.237 9.231,7.448 8.783 C 7.834 7.965,8.578 7.391,9.483 7.214 C 9.776 7.156,10.401 7.176,10.700 7.251 M9.667 8.751 C 9.291 8.857,8.989 9.112,8.820 9.467 C 8.727 9.662,8.717 9.715,8.717 10.000 C 8.717 10.288,8.726 10.336,8.823 10.533 C 8.997 10.889,9.263 11.122,9.622 11.232 C 9.898 11.318,10.102 11.318,10.376 11.233 C 11.106 11.008,11.479 10.219,11.192 9.509 C 10.953 8.918,10.276 8.581,9.667 8.751 " fill="#56565C" stroke="none" fill-rule="evenodd"></path></svg>