<svg xmlns="http://www.w3.org/2000/svg" width="24" height="24" fill="none"><path d="M11.320 3.025 C 8.058 3.325,5.315 5.190,3.918 8.058 C 2.695 10.569,2.695 13.431,3.918 15.942 C 5.582 19.359,9.258 21.379,13.012 20.940 C 14.708 20.742,16.338 20.062,17.647 19.006 C 17.988 18.731,18.680 18.063,18.680 18.009 C 18.680 17.970,17.301 16.800,17.256 16.800 C 17.241 16.800,17.071 16.951,16.879 17.136 C 14.329 19.594,10.277 19.748,7.509 17.491 C 7.082 17.142,6.476 16.482,6.167 16.027 C 5.332 14.801,4.919 13.463,4.921 11.995 C 4.923 10.059,5.624 8.373,6.999 6.999 C 8.373 5.624,10.059 4.923,11.995 4.921 C 14.404 4.918,16.623 6.115,17.933 8.124 C 18.714 9.323,19.123 10.741,19.070 12.072 C 19.047 12.673,18.958 12.957,18.710 13.226 C 18.339 13.629,17.643 13.545,17.390 13.067 C 17.309 12.913,17.301 12.840,17.296 12.160 C 17.290 11.333,17.221 10.891,16.995 10.252 C 16.377 8.499,14.892 7.210,13.040 6.818 C 12.875 6.783,12.506 6.745,12.220 6.732 C 9.824 6.629,7.666 8.138,6.945 10.420 C 6.756 11.019,6.708 11.340,6.708 12.000 C 6.707 12.719,6.793 13.210,7.027 13.838 C 7.212 14.332,7.302 14.508,7.598 14.951 C 8.489 16.282,9.903 17.119,11.543 17.285 C 13.290 17.462,15.158 16.628,16.230 15.193 C 16.375 14.999,16.498 14.840,16.504 14.840 C 16.510 14.840,16.606 14.936,16.717 15.053 C 17.082 15.439,17.534 15.614,18.160 15.612 C 20.368 15.605,21.453 13.396,20.816 10.204 C 20.614 9.192,20.122 7.985,19.559 7.120 C 18.144 4.948,15.882 3.491,13.320 3.103 C 12.908 3.040,11.674 2.992,11.320 3.025 M12.840 8.702 C 12.983 8.738,13.263 8.845,13.462 8.941 C 14.174 9.282,14.717 9.824,15.057 10.534 C 15.314 11.070,15.377 11.357,15.377 12.000 C 15.377 12.642,15.314 12.930,15.059 13.462 C 14.718 14.176,14.200 14.700,13.500 15.041 C 12.910 15.328,12.688 15.378,12.000 15.378 C 11.312 15.378,11.090 15.328,10.500 15.041 C 9.800 14.700,9.282 14.176,8.941 13.462 C 8.686 12.930,8.623 12.642,8.623 12.000 C 8.623 11.357,8.686 11.070,8.943 10.534 C 9.414 9.550,10.298 8.869,11.380 8.657 C 11.731 8.588,12.481 8.611,12.840 8.702 M11.601 10.504 C 11.154 10.624,10.787 10.932,10.584 11.360 C 10.472 11.594,10.460 11.658,10.460 12.000 C 10.460 12.342,10.472 12.406,10.583 12.640 C 10.741 12.973,11.027 13.259,11.360 13.417 C 11.594 13.528,11.658 13.540,12.000 13.540 C 12.343 13.540,12.405 13.528,12.640 13.415 C 13.970 12.777,13.801 10.872,12.382 10.502 C 12.091 10.426,11.888 10.427,11.601 10.504 " fill="#414146" stroke="none" fill-rule="evenodd"></path></svg>