<svg xmlns="http://www.w3.org/2000/svg" width="156" height="174" fill="none" viewBox="0 0 156 174"><path fill="#000" fill-rule="evenodd" stroke="none" d="M85.450 1.455 C 81.141 2.234,76.461 4.304,72.822 7.040 C 71.652 7.920,56.551 22.842,35.705 43.717 C 5.175 74.290,0.524 79.047,0.282 79.950 C -0.169 81.632,-0.054 82.990,0.663 84.428 C 2.141 87.394,5.753 88.659,8.631 87.218 C 9.103 86.981,25.343 70.962,44.720 51.620 C 71.709 24.680,80.316 16.236,81.512 15.526 C 82.372 15.016,84.010 14.273,85.152 13.876 C 87.017 13.227,87.590 13.152,90.740 13.141 C 94.566 13.129,96.050 13.437,98.846 14.823 C 102.071 16.422,105.112 19.380,106.815 22.576 C 109.478 27.571,109.369 34.670,106.551 39.774 C 105.561 41.568,103.245 43.951,78.625 68.510 C 63.859 83.239,51.597 95.658,51.376 96.108 C 49.799 99.320,50.831 102.870,53.796 104.435 C 55.168 105.159,57.489 105.251,58.963 104.639 C 59.643 104.357,67.967 96.221,86.970 77.269 C 107.275 57.017,114.383 50.082,115.507 49.427 C 121.192 46.113,128.442 46.115,134.091 49.432 C 136.073 50.596,139.508 54.083,140.732 56.173 C 142.241 58.751,142.787 60.761,142.936 64.293 C 143.131 68.931,142.427 71.626,140.068 75.270 C 139.379 76.334,128.857 87.003,106.991 108.810 L 74.924 140.790 73.854 143.035 C 71.870 147.199,71.877 151.367,73.873 155.480 C 74.582 156.940,75.725 158.209,82.262 164.795 C 86.424 168.989,90.165 172.597,90.574 172.812 C 91.627 173.366,93.786 173.532,95.160 173.164 C 97.440 172.555,99.329 169.878,99.314 167.280 C 99.302 165.187,98.587 164.263,91.377 157.029 C 85.048 150.678,84.500 150.056,84.500 149.232 C 84.500 148.390,86.387 146.448,116.181 116.613 C 133.605 99.166,148.384 84.188,149.022 83.330 C 155.704 74.345,156.964 63.298,152.485 52.957 C 149.873 46.927,144.189 41.025,138.190 38.115 C 133.355 35.769,130.143 35.034,124.667 35.019 L 120.764 35.009 120.765 31.220 C 120.766 22.678,117.870 15.632,111.940 9.750 C 107.451 5.297,102.090 2.487,96.087 1.440 C 93.271 0.949,88.212 0.956,85.450 1.455 M88.400 25.498 C 87.493 25.906,81.620 31.626,62.308 50.907 C 37.311 75.865,34.383 78.887,32.634 81.522 C 30.557 84.651,28.818 88.943,28.052 92.831 C 27.565 95.301,27.643 101.341,28.193 103.870 C 29.577 110.226,32.363 115.302,36.833 119.616 C 47.455 129.867,63.723 130.867,75.660 122.002 C 76.819 121.142,88.184 109.995,103.668 94.532 C 124.060 74.168,129.839 68.256,130.247 67.340 C 131.563 64.387,130.220 60.827,127.259 59.422 C 126.130 58.886,123.449 58.902,122.239 59.451 C 121.628 59.729,111.809 69.333,94.640 86.446 C 70.071 110.937,67.847 113.084,66.158 113.952 C 63.380 115.379,60.769 116.005,57.634 115.996 C 51.934 115.979,47.144 113.709,43.646 109.368 C 40.910 105.971,39.778 102.684,39.784 98.155 C 39.791 93.042,41.016 89.812,44.429 85.904 C 45.541 84.631,57.567 72.534,71.154 59.020 C 88.076 42.189,96.001 34.134,96.315 33.446 C 96.897 32.167,96.912 29.733,96.344 28.536 C 94.911 25.516,91.369 24.162,88.400 25.498"/></svg>