<svg xmlns="http://www.w3.org/2000/svg" width="156" height="174" fill="none"><path d="M85.450 1.455 C 81.141 2.234,76.461 4.304,72.822 7.040 C 71.652 7.920,56.551 22.842,35.705 43.717 C 5.175 74.290,0.524 79.047,0.282 79.950 C -0.169 81.632,-0.054 82.990,0.663 84.428 C 2.141 87.394,5.753 88.659,8.631 87.218 C 9.103 86.981,25.343 70.962,44.720 51.620 C 71.709 24.680,80.316 16.236,81.512 15.526 C 82.372 15.016,84.010 14.273,85.152 13.876 C 87.017 13.227,87.590 13.152,90.740 13.141 C 93.443 13.133,94.609 13.240,95.810 13.611 C 101.872 15.478,106.503 20.129,108.149 26.002 C 108.900 28.682,108.908 32.877,108.167 35.744 C 106.980 40.337,108.289 38.880,78.364 68.900 C 55.954 91.381,51.222 96.249,50.945 97.110 C 49.636 101.169,52.353 105.040,56.510 105.040 C 57.328 105.040,58.432 104.859,58.963 104.639 C 59.643 104.357,67.967 96.221,86.970 77.269 C 107.275 57.017,114.383 50.082,115.507 49.427 C 121.192 46.113,128.442 46.115,134.091 49.432 C 136.073 50.596,139.508 54.083,140.732 56.173 C 142.241 58.751,142.787 60.761,142.936 64.293 C 143.131 68.932,142.426 71.630,140.067 75.270 C 139.379 76.332,128.821 87.037,106.988 108.810 L 74.921 140.790 73.853 143.035 C 71.871 147.201,71.877 151.369,73.873 155.480 C 74.582 156.940,75.725 158.209,82.262 164.795 C 86.424 168.989,90.165 172.597,90.574 172.812 C 91.627 173.366,93.786 173.532,95.160 173.164 C 97.440 172.555,99.329 169.878,99.314 167.280 C 99.302 165.187,98.587 164.263,91.377 157.029 C 85.048 150.678,84.500 150.056,84.500 149.232 C 84.500 148.390,86.387 146.448,116.181 116.613 C 133.605 99.166,148.384 84.188,149.022 83.330 C 155.704 74.345,156.964 63.298,152.485 52.957 C 149.881 46.947,144.169 41.016,138.190 38.115 C 133.355 35.769,130.143 35.034,124.667 35.019 L 120.764 35.009 120.765 31.220 C 120.766 22.678,117.870 15.632,111.940 9.750 C 107.451 5.297,102.090 2.487,96.087 1.440 C 93.271 0.949,88.212 0.956,85.450 1.455 M88.400 25.498 C 87.493 25.906,81.620 31.626,62.308 50.907 C 37.311 75.865,34.383 78.887,32.634 81.522 C 30.557 84.651,28.818 88.943,28.052 92.831 C 27.565 95.301,27.643 101.341,28.193 103.870 C 29.579 110.232,32.414 115.394,36.852 119.633 C 47.580 129.881,63.723 130.867,75.660 122.002 C 76.819 121.142,88.184 109.995,103.668 94.532 C 124.060 74.168,129.839 68.256,130.247 67.340 C 131.563 64.387,130.220 60.827,127.259 59.422 C 126.130 58.886,123.449 58.902,122.239 59.451 C 121.628 59.729,111.809 69.333,94.640 86.446 C 70.071 110.937,67.847 113.084,66.158 113.952 C 63.380 115.379,60.769 116.005,57.634 115.996 C 51.934 115.979,47.144 113.709,43.646 109.368 C 40.925 105.990,39.777 102.625,39.784 98.043 C 39.790 93.904,40.548 91.294,42.697 88.010 C 43.374 86.977,52.520 77.672,69.788 60.450 C 87.634 42.653,96.003 34.133,96.315 33.446 C 96.897 32.166,96.912 29.732,96.344 28.536 C 94.911 25.516,91.369 24.162,88.400 25.498 " stroke="none" fill-rule="evenodd" fill="black"></path></svg>