<svg xmlns="http://www.w3.org/2000/svg" width="20" height="20" fill="none" viewBox="0 0 20 20"><path fill="#000" fill-rule="evenodd" stroke="none" d="M3.750 3.463 C 3.591 3.536,3.520 3.610,3.451 3.775 C 3.406 3.883,3.400 4.410,3.400 8.263 C 3.400 11.267,3.411 12.658,3.435 12.723 C 3.479 12.839,3.618 12.988,3.750 13.061 C 3.837 13.109,4.005 13.118,5.025 13.127 L 6.200 13.137 6.200 14.620 C 6.200 15.878,6.208 16.121,6.251 16.225 C 6.320 16.390,6.391 16.464,6.550 16.537 C 6.717 16.614,6.881 16.615,7.040 16.541 C 7.108 16.509,8.023 15.733,9.073 14.817 L 10.983 13.150 13.567 13.133 C 15.892 13.118,16.160 13.111,16.250 13.061 C 16.382 12.988,16.521 12.839,16.565 12.723 C 16.589 12.658,16.600 11.266,16.599 8.256 C 16.599 4.084,16.596 3.877,16.537 3.750 C 16.464 3.591,16.390 3.520,16.225 3.451 C 16.116 3.406,15.416 3.400,9.993 3.401 C 4.136 3.401,3.878 3.404,3.750 3.463 M15.400 8.267 L 15.400 11.933 13.015 11.933 C 11.032 11.933,10.615 11.941,10.540 11.980 C 10.490 12.006,9.767 12.621,8.933 13.347 L 7.417 14.667 7.400 13.492 C 7.389 12.687,7.371 12.296,7.345 12.250 C 7.295 12.165,7.138 12.019,7.044 11.971 C 6.994 11.945,6.596 11.933,5.786 11.933 L 4.600 11.933 4.600 8.267 L 4.600 4.600 10.000 4.600 L 15.400 4.600 15.400 8.267"/></svg>