<svg xmlns="http://www.w3.org/2000/svg" viewBox="0 0 250 250">
<path fill="#A6A385" d="m132.118576,245.311905l-6.359024,-2.172424c0,0 0.776367,-32.416153 -10.856194,-34.742371c-7.755051,-8.99585 1.240746,-381.551559 29.158333,-1.240768c0,0 -9.615448,4.807755 -11.322021,13.02858c-1.861847,8.065567 -0.621094,25.126984 -0.621094,25.126984l0,0l0,0z"/>
<path fill="#499D4A" d="m133.219955,217.975906c0,0 62.153046,-34.939911 43.96405,-116.754906c-12.562012,-55.3708 -42.188004,-73.5177 -45.444,-80.497801c-3.567001,-4.963 -6.980003,-13.64824 -6.980003,-13.64824l2.326996,154.015036c0,0.156006 -6.245499,51.043503 6.008507,56.782501"/>
<path fill="#58AA50" d="m122.50312,215.996826c0,0 -52.269646,-35.674057 -49.167053,-98.489357c2.945869,-62.816769 39.86071,-93.681702 46.994659,-99.265772c4.6539,-4.962999 4.809174,-6.824864 5.119713,-11.787839c3.256439,6.980127 2.63678,104.384009 3.101166,115.86132c1.396027,44.204063 -2.481499,85.306969 -6.048485,93.681648l0,0l0,0z"/>
</svg>
