<svg xmlns="http://www.w3.org/2000/svg" width="24" height="24" fill="none"><path d="M9.314 5.041 C 9.211 5.058,9.042 5.122,8.938 5.183 C 8.557 5.407,8.666 5.232,6.639 8.860 C 3.704 14.113,2.102 17.063,2.038 17.327 C 1.893 17.934,2.241 18.599,2.865 18.904 L 3.080 19.009 5.950 18.990 C 8.721 18.971,8.831 18.968,9.140 18.885 C 10.175 18.609,10.973 18.105,11.594 17.332 C 11.906 16.945,12.097 16.618,13.780 13.600 C 15.050 11.323,15.641 10.280,15.662 10.280 C 15.697 10.280,19.280 16.702,19.280 16.766 C 19.280 16.785,18.401 16.800,17.326 16.800 C 16.252 16.800,15.156 16.812,14.892 16.826 L 14.411 16.852 13.830 17.896 C 13.287 18.871,13.255 18.942,13.334 18.966 C 13.381 18.980,15.113 18.994,17.182 18.996 L 20.944 19.000 21.162 18.892 C 21.678 18.636,21.975 18.165,21.977 17.600 C 21.978 17.223,21.970 17.206,20.861 15.180 C 18.665 11.167,16.805 7.869,16.608 7.638 C 16.535 7.552,16.364 7.428,16.223 7.359 C 16.003 7.250,15.927 7.234,15.648 7.234 C 15.406 7.234,15.278 7.255,15.133 7.319 C 14.763 7.482,14.588 7.729,13.661 9.393 C 13.424 9.818,13.216 10.151,13.199 10.133 C 13.182 10.115,12.736 9.324,12.209 8.375 C 10.740 5.732,10.571 5.450,10.360 5.295 C 10.067 5.078,9.670 4.982,9.314 5.041 M10.802 10.252 L 11.995 12.401 11.354 13.550 C 10.259 15.518,10.090 15.792,9.798 16.082 C 9.522 16.354,9.152 16.576,8.760 16.704 C 8.564 16.768,8.331 16.777,6.630 16.790 C 5.469 16.800,4.720 16.791,4.720 16.768 C 4.720 16.737,8.475 9.954,9.281 8.529 C 9.421 8.281,9.552 8.084,9.572 8.091 C 9.593 8.098,10.146 9.070,10.802 10.252 " fill="#373B4D" stroke="none" fill-rule="evenodd"></path></svg>