<svg width="20" height="20" viewBox="0 0 20 20" fill="none" xmlns="http://www.w3.org/2000/svg"><path d="M7.017 2.438 C 6.652 2.484,6.313 2.588,5.948 2.766 C 3.954 3.733,3.295 6.168,4.523 8.025 C 4.691 8.278,5.064 8.669,5.333 8.875 C 5.631 9.102,6.217 9.382,6.617 9.489 C 6.914 9.569,7.009 9.578,7.500 9.578 C 7.989 9.578,8.086 9.569,8.376 9.491 C 8.735 9.394,9.224 9.176,9.523 8.978 C 9.778 8.809,10.169 8.437,10.375 8.167 C 10.602 7.869,10.882 7.283,10.989 6.883 C 11.069 6.586,11.078 6.491,11.078 6.000 C 11.078 5.511,11.069 5.414,10.991 5.124 C 10.831 4.530,10.527 3.973,10.133 3.553 C 9.335 2.703,8.182 2.290,7.017 2.438 M8.133 3.681 C 8.234 3.709,8.444 3.794,8.600 3.871 C 8.829 3.984,8.942 4.070,9.187 4.315 C 9.448 4.575,9.513 4.664,9.643 4.934 C 9.840 5.347,9.883 5.537,9.883 6.000 C 9.883 6.467,9.840 6.656,9.641 7.067 C 9.510 7.335,9.441 7.430,9.184 7.687 C 8.925 7.947,8.835 8.014,8.566 8.144 C 7.857 8.486,7.143 8.486,6.434 8.144 C 6.165 8.014,6.074 7.946,5.814 7.686 C 5.552 7.425,5.487 7.336,5.357 7.066 C 5.160 6.653,5.117 6.463,5.117 6.000 C 5.117 5.537,5.160 5.347,5.357 4.934 C 5.487 4.664,5.552 4.575,5.814 4.314 C 6.074 4.053,6.165 3.987,6.434 3.857 C 6.608 3.774,6.832 3.689,6.933 3.670 C 7.034 3.650,7.147 3.627,7.183 3.619 C 7.310 3.589,7.951 3.631,8.133 3.681 M13.234 3.673 C 12.906 3.841,12.805 4.232,13.010 4.538 C 13.061 4.615,13.185 4.703,13.402 4.817 C 13.577 4.909,13.800 5.043,13.897 5.115 C 14.273 5.391,14.639 5.963,14.751 6.448 C 14.780 6.575,14.804 6.824,14.804 7.000 C 14.804 7.176,14.780 7.425,14.751 7.552 C 14.639 8.038,14.273 8.609,13.886 8.901 C 13.786 8.976,13.565 9.108,13.394 9.194 C 13.174 9.305,13.062 9.383,13.009 9.462 C 12.806 9.769,12.907 10.159,13.234 10.327 C 13.445 10.436,13.623 10.413,14.007 10.227 C 14.960 9.765,15.637 8.921,15.925 7.836 C 15.998 7.560,16.009 7.447,16.009 7.000 C 16.009 6.553,15.998 6.440,15.925 6.164 C 15.636 5.076,14.968 4.244,14.010 3.777 C 13.618 3.587,13.445 3.564,13.234 3.673 M4.952 10.438 C 4.337 10.497,3.556 10.743,3.025 11.046 C 1.978 11.644,1.149 12.594,0.749 13.656 C 0.464 14.411,0.401 14.858,0.401 16.135 C 0.400 17.090,0.402 17.124,0.475 17.268 C 0.696 17.705,1.304 17.705,1.525 17.268 C 1.597 17.125,1.600 17.085,1.600 16.242 C 1.600 14.895,1.669 14.485,2.014 13.783 C 2.406 12.987,2.987 12.406,3.783 12.014 C 4.216 11.801,4.605 11.685,5.044 11.636 C 5.472 11.588,9.528 11.588,9.956 11.636 C 11.453 11.803,12.759 12.884,13.216 14.333 C 13.357 14.781,13.399 15.211,13.399 16.218 C 13.400 17.086,13.403 17.125,13.475 17.268 C 13.696 17.706,14.301 17.705,14.527 17.266 C 14.604 17.117,14.604 17.116,14.590 15.983 C 14.574 14.720,14.550 14.537,14.311 13.833 C 13.676 11.963,11.966 10.619,9.983 10.434 C 9.544 10.393,5.385 10.396,4.952 10.438 M15.732 10.975 C 15.294 11.196,15.295 11.809,15.734 12.023 C 15.816 12.063,16.041 12.171,16.233 12.264 C 17.021 12.642,17.625 13.256,18.018 14.076 C 18.324 14.715,18.400 15.165,18.400 16.335 C 18.400 17.082,18.404 17.126,18.475 17.268 C 18.696 17.705,19.304 17.705,19.525 17.268 C 19.597 17.125,19.600 17.085,19.600 16.267 C 19.600 15.330,19.573 15.018,19.448 14.512 C 19.055 12.916,17.853 11.560,16.320 10.983 C 16.047 10.880,15.923 10.879,15.732 10.975 " stroke="none" fill-rule="evenodd" fill="black"></path></svg>