<svg xmlns="http://www.w3.org/2000/svg" width="16" height="16" fill="none"><path d="M5.573 2.423 C 5.225 2.453,5.020 2.580,4.888 2.847 C 4.788 3.051,4.783 3.335,4.877 3.526 C 4.956 3.688,5.127 3.860,5.280 3.931 C 5.399 3.986,5.416 3.987,8.000 3.987 L 10.600 3.987 10.725 3.925 C 11.325 3.630,11.353 2.818,10.775 2.510 L 10.611 2.422 8.205 2.413 C 6.882 2.408,5.698 2.413,5.573 2.423 M4.067 4.823 C 3.723 4.842,3.636 4.870,3.461 5.014 C 3.407 5.058,3.330 5.163,3.288 5.247 C 3.188 5.452,3.183 5.735,3.277 5.927 C 3.365 6.107,3.552 6.282,3.726 6.346 C 3.869 6.400,3.909 6.400,8.035 6.394 L 12.200 6.387 12.325 6.325 C 12.925 6.030,12.953 5.218,12.375 4.910 L 12.211 4.822 8.299 4.814 C 6.147 4.809,4.243 4.813,4.067 4.823 M3.600 7.224 C 2.798 7.241,2.784 7.242,2.620 7.312 C 2.180 7.499,1.824 7.881,1.679 8.320 L 1.613 8.520 1.613 10.400 L 1.613 12.280 1.687 12.494 C 1.854 12.980,2.255 13.373,2.737 13.522 L 2.947 13.587 8.000 13.587 L 13.053 13.587 13.263 13.522 C 13.741 13.374,14.148 12.976,14.313 12.494 L 14.387 12.280 14.387 10.400 L 14.387 8.520 14.321 8.320 C 14.157 7.823,13.725 7.407,13.223 7.262 C 13.097 7.226,12.557 7.220,8.747 7.214 C 6.363 7.210,4.047 7.215,3.600 7.224 " fill="#C3C3C6" stroke="none" fill-rule="evenodd"></path></svg>