<svg xmlns="http://www.w3.org/2000/svg" width="16" height="16" fill="none"><path fill="#C3C3C6" fill-rule="evenodd" stroke="none" d="M5.573 2.422 C 5.390 2.437,5.318 2.457,5.200 2.523 C 4.845 2.722,4.706 3.158,4.880 3.528 C 4.955 3.687,5.126 3.859,5.280 3.931 C 5.399 3.986,5.416 3.987,8.000 3.987 L 10.600 3.987 10.725 3.925 C 11.325 3.630,11.353 2.818,10.775 2.510 L 10.611 2.422 8.205 2.413 C 6.882 2.408,5.698 2.412,5.573 2.422 M4.067 4.823 C 3.775 4.838,3.734 4.847,3.600 4.923 C 3.245 5.123,3.106 5.558,3.281 5.929 C 3.363 6.105,3.552 6.281,3.726 6.346 C 3.869 6.400,3.909 6.400,8.035 6.394 L 12.200 6.387 12.325 6.325 C 12.925 6.030,12.953 5.218,12.375 4.910 L 12.211 4.822 8.299 4.814 C 6.147 4.809,4.243 4.813,4.067 4.823 M3.600 7.226 C 2.799 7.241,2.784 7.242,2.622 7.311 C 2.183 7.498,1.823 7.884,1.678 8.324 L 1.613 8.520 1.613 10.400 L 1.613 12.280 1.687 12.494 C 1.854 12.980,2.255 13.373,2.737 13.522 L 2.947 13.587 8.000 13.587 L 13.053 13.587 13.263 13.522 C 13.741 13.374,14.148 12.976,14.313 12.494 L 14.387 12.280 14.387 10.400 L 14.387 8.520 14.322 8.324 C 14.172 7.867,13.769 7.452,13.320 7.291 C 13.207 7.251,13.054 7.240,12.333 7.224 C 11.332 7.202,4.782 7.204,3.600 7.226"/></svg>