<svg width="20" height="20" viewBox="0 0 20 20" fill="none" xmlns="http://www.w3.org/2000/svg"><path d="M5.473 3.821 C 5.412 3.852,5.322 3.930,5.273 3.994 L 5.183 4.111 5.175 9.897 C 5.167 15.548,5.168 15.686,5.230 15.788 C 5.266 15.845,5.351 15.935,5.420 15.988 C 5.527 16.070,5.574 16.083,5.748 16.081 L 5.950 16.078 11.115 13.303 C 13.956 11.777,16.324 10.497,16.377 10.459 C 16.494 10.376,16.599 10.160,16.599 10.000 C 16.599 9.864,16.504 9.641,16.413 9.562 C 16.378 9.532,14.017 8.221,11.167 6.649 C 6.134 3.873,5.978 3.789,5.783 3.777 C 5.641 3.768,5.551 3.781,5.473 3.821 M11.573 8.243 C 13.310 9.200,14.720 9.993,14.707 10.006 C 14.666 10.045,6.459 14.442,6.395 14.458 C 6.335 14.474,6.333 14.328,6.333 9.943 C 6.333 7.450,6.342 5.403,6.352 5.393 C 6.362 5.383,6.831 5.628,7.393 5.939 C 7.956 6.249,9.837 7.286,11.573 8.243 " stroke="none" fill-rule="evenodd" fill="black"></path></svg>