<svg xmlns="http://www.w3.org/2000/svg" width="20" height="20" fill="none"><path d="M9.750 5.463 C 9.591 5.536,9.520 5.610,9.451 5.775 C 9.407 5.880,9.400 6.149,9.400 7.649 L 9.400 9.400 7.640 9.400 C 5.882 9.400,5.881 9.400,5.732 9.475 C 5.295 9.696,5.295 10.304,5.732 10.525 C 5.881 10.600,5.882 10.600,7.640 10.600 L 9.400 10.600 9.400 12.360 C 9.400 14.118,9.400 14.119,9.475 14.268 C 9.696 14.705,10.304 14.705,10.525 14.268 C 10.600 14.119,10.600 14.118,10.600 12.360 L 10.600 10.600 12.360 10.600 C 14.118 10.600,14.119 10.600,14.268 10.525 C 14.705 10.304,14.705 9.696,14.268 9.475 C 14.119 9.400,14.118 9.400,12.360 9.400 L 10.600 9.400 10.599 7.642 C 10.599 6.007,10.594 5.874,10.537 5.750 C 10.464 5.591,10.390 5.520,10.225 5.451 C 10.064 5.384,9.914 5.388,9.750 5.463 " stroke="none" fill-rule="evenodd" fill="black"></path></svg>