<svg width="20" height="20" viewBox="0 0 20 20" fill="none" xmlns="http://www.w3.org/2000/svg"><path d="M9.167 4.438 C 7.692 4.591,6.489 5.403,5.845 6.679 C 5.665 7.034,5.490 7.548,5.417 7.933 C 5.388 8.089,5.357 8.248,5.349 8.287 C 5.336 8.348,5.303 8.360,5.098 8.379 C 4.540 8.431,3.888 8.622,3.350 8.890 C 2.026 9.551,1.337 10.768,1.411 12.317 C 1.497 14.133,2.739 15.301,4.866 15.565 C 5.255 15.613,14.745 15.613,15.134 15.565 C 16.701 15.370,17.807 14.676,18.307 13.574 C 18.646 12.826,18.689 11.790,18.416 10.950 C 17.980 9.610,16.649 8.644,14.885 8.388 L 14.621 8.349 14.529 8.031 C 14.275 7.147,13.888 6.448,13.316 5.840 C 12.290 4.750,10.850 4.264,9.167 4.438 M10.305 5.635 C 11.168 5.723,11.851 6.047,12.419 6.638 C 13.064 7.309,13.425 8.176,13.517 9.275 L 13.539 9.533 13.995 9.533 C 15.366 9.534,16.567 10.061,17.063 10.881 C 17.464 11.544,17.505 12.528,17.158 13.178 C 16.817 13.817,16.071 14.239,15.057 14.366 C 14.685 14.412,5.315 14.412,4.943 14.366 C 3.718 14.212,2.914 13.644,2.677 12.763 C 2.593 12.452,2.602 11.738,2.694 11.395 C 2.917 10.563,3.522 10.006,4.519 9.717 C 4.960 9.589,5.406 9.533,5.983 9.533 L 6.500 9.533 6.501 9.275 C 6.501 8.850,6.561 8.267,6.631 7.994 C 7.068 6.287,8.387 5.440,10.305 5.635 " stroke="none" fill-rule="evenodd" fill="black"></path></svg>