<svg xmlns="http://www.w3.org/2000/svg" width="20" height="20" fill="none"><path d="M9.224 1.033 C 7.407 1.209,5.791 1.860,4.351 2.994 C 3.967 3.296,3.138 4.154,2.822 4.575 C 0.394 7.814,0.393 12.182,2.821 15.425 C 3.205 15.937,4.063 16.795,4.575 17.179 C 7.818 19.607,12.182 19.607,15.425 17.179 C 15.937 16.795,16.795 15.937,17.179 15.425 C 19.607 12.182,19.606 7.814,17.178 4.575 C 16.862 4.154,16.033 3.296,15.649 2.994 C 14.353 1.973,12.898 1.338,11.312 1.100 C 10.789 1.022,9.699 0.987,9.224 1.033 M11.963 5.594 C 12.737 5.799,13.399 6.272,13.823 6.922 C 14.180 7.470,14.333 7.988,14.333 8.650 C 14.333 9.309,14.180 9.831,13.827 10.372 C 13.404 11.020,12.748 11.493,11.976 11.708 C 11.731 11.776,11.634 11.781,10.175 11.792 L 8.633 11.804 8.633 13.152 L 8.633 14.500 7.750 14.500 L 6.867 14.500 6.867 9.999 L 6.867 5.497 9.275 5.508 C 11.639 5.520,11.688 5.521,11.963 5.594 M8.633 8.648 L 8.633 10.000 9.993 10.000 C 11.492 10.000,11.607 9.988,11.905 9.797 C 12.386 9.488,12.630 8.934,12.519 8.402 C 12.425 7.950,12.166 7.624,11.741 7.423 L 11.517 7.317 10.075 7.307 L 8.633 7.297 8.633 8.648 " fill="#19191C" stroke="none" fill-rule="evenodd"></path></svg>