<svg xmlns="http://www.w3.org/2000/svg" viewBox="0 0 24 24" fill="currentColor"><path d="M11.340 2.281 C 9.465 2.398,7.649 3.079,6.084 4.252 C 5.583 4.627,4.616 5.596,4.245 6.092 C 3.236 7.444,2.622 8.895,2.353 10.572 C 2.239 11.277,2.230 12.591,2.333 13.300 C 2.582 15.004,3.215 16.530,4.245 17.908 C 4.622 18.412,5.588 19.378,6.092 19.755 C 7.471 20.785,9.000 21.420,10.700 21.666 C 11.033 21.714,11.432 21.736,12.000 21.736 C 13.556 21.736,14.894 21.430,16.260 20.762 C 17.312 20.247,18.030 19.732,18.881 18.881 C 19.732 18.030,20.248 17.311,20.761 16.260 C 22.377 12.955,21.991 9.059,19.754 6.095 C 18.221 4.064,15.823 2.675,13.280 2.345 C 12.683 2.268,11.941 2.243,11.340 2.281 M10.453 7.818 C 10.723 7.915,16.332 11.051,16.492 11.195 C 16.745 11.424,16.819 11.606,16.819 12.000 C 16.819 12.391,16.750 12.562,16.493 12.805 C 16.267 13.020,10.601 16.156,10.341 16.210 C 10.067 16.267,9.812 16.221,9.556 16.068 C 9.319 15.927,9.108 15.653,9.040 15.399 C 9.012 15.297,9.002 14.119,9.009 11.912 L 9.020 8.580 9.128 8.375 C 9.383 7.893,9.970 7.646,10.453 7.818 " stroke="none" fill-rule="evenodd"></path></svg>