<svg xmlns="http://www.w3.org/2000/svg" width="24" height="24" fill="none" viewBox="0 0 24 24"><path fill="#414146" fill-rule="evenodd" stroke="none" d="M11.513 3.038 C 11.411 3.057,11.226 3.102,11.102 3.138 C 10.832 3.216,4.728 6.259,4.360 6.498 C 3.689 6.935,3.225 7.619,3.063 8.408 C 2.968 8.871,2.968 15.129,3.063 15.592 C 3.221 16.362,3.673 17.039,4.324 17.482 C 4.447 17.566,5.986 18.353,7.744 19.231 C 10.129 20.422,11.016 20.847,11.240 20.904 C 11.450 20.957,11.679 20.980,12.000 20.980 C 12.321 20.980,12.550 20.957,12.760 20.904 C 12.984 20.847,13.871 20.422,16.256 19.231 C 18.014 18.353,19.553 17.566,19.676 17.481 C 20.331 17.033,20.779 16.361,20.937 15.592 C 21.032 15.129,21.032 8.871,20.937 8.408 C 20.775 7.619,20.314 6.941,19.639 6.499 C 19.495 6.404,17.956 5.618,16.219 4.751 C 13.975 3.631,12.979 3.153,12.780 3.103 C 12.460 3.022,11.789 2.988,11.513 3.038 M12.756 6.097 C 13.093 6.189,13.595 6.447,13.873 6.671 C 14.402 7.096,14.814 7.779,14.937 8.434 C 15.031 8.936,15.031 15.066,14.937 15.566 C 14.754 16.534,14.012 17.438,13.118 17.780 C 11.594 18.364,9.984 17.723,9.298 16.260 C 9.007 15.639,9.020 15.844,9.020 12.000 C 9.020 9.242,9.031 8.495,9.074 8.320 C 9.155 7.988,9.489 7.328,9.702 7.080 C 10.159 6.549,10.828 6.162,11.503 6.040 C 11.770 5.991,12.491 6.024,12.756 6.097 M11.600 7.555 C 11.196 7.688,10.850 7.982,10.654 8.360 C 10.550 8.561,10.540 8.616,10.540 9.000 C 10.540 9.394,10.548 9.435,10.667 9.660 C 10.820 9.951,11.065 10.193,11.360 10.346 C 11.561 10.450,11.616 10.460,12.000 10.460 C 12.384 10.460,12.439 10.450,12.640 10.346 C 12.935 10.193,13.180 9.951,13.333 9.660 C 13.452 9.435,13.460 9.394,13.460 9.000 C 13.460 8.606,13.452 8.565,13.333 8.340 C 13.179 8.048,12.933 7.805,12.640 7.657 C 12.456 7.564,12.360 7.543,12.060 7.534 C 11.862 7.528,11.655 7.537,11.600 7.555"/></svg>