<svg width="21" height="20" viewBox="0 0 21 20" fill="none" xmlns="http://www.w3.org/2000/svg"><path d="M9.468 2.484 C 8.358 2.664,7.422 3.046,6.510 3.690 C 6.111 3.973,5.323 4.766,5.030 5.180 C 4.233 6.306,3.806 7.818,3.917 9.119 C 4.093 11.169,5.147 13.050,7.302 15.155 C 8.143 15.977,9.253 16.888,10.023 17.390 C 10.274 17.554,10.317 17.570,10.500 17.570 C 10.683 17.570,10.726 17.554,10.977 17.390 C 12.355 16.491,14.197 14.796,15.194 13.510 C 17.213 10.907,17.631 8.361,16.431 5.968 C 16.114 5.334,15.817 4.930,15.261 4.374 C 14.350 3.464,13.397 2.924,12.145 2.609 C 11.339 2.406,10.262 2.356,9.468 2.484 M11.242 3.657 C 13.450 3.949,15.235 5.489,15.746 7.543 C 15.985 8.501,15.920 9.509,15.557 10.483 C 14.974 12.050,13.662 13.713,11.765 15.290 C 11.209 15.752,10.560 16.240,10.500 16.240 C 10.438 16.240,9.772 15.737,9.196 15.256 C 6.995 13.419,5.618 11.502,5.214 9.713 C 5.070 9.073,5.086 8.182,5.255 7.528 C 5.915 4.961,8.494 3.294,11.242 3.657 M9.929 6.459 C 9.106 6.623,8.309 7.338,8.034 8.158 C 7.955 8.395,7.933 8.535,7.920 8.873 C 7.899 9.410,7.958 9.706,8.177 10.150 C 8.317 10.433,8.391 10.533,8.677 10.819 C 8.968 11.110,9.059 11.177,9.346 11.316 C 10.097 11.678,10.903 11.678,11.654 11.316 C 11.941 11.177,12.032 11.110,12.323 10.819 C 12.609 10.532,12.683 10.433,12.823 10.150 C 13.018 9.755,13.089 9.445,13.089 8.995 C 13.089 8.131,12.734 7.431,12.023 6.892 C 11.475 6.477,10.672 6.311,9.929 6.459 M11.085 7.733 C 11.957 8.142,12.162 9.297,11.482 9.976 C 11.296 10.163,11.095 10.277,10.833 10.347 C 10.371 10.471,9.871 10.329,9.518 9.976 C 8.977 9.435,8.975 8.556,9.514 8.018 C 9.701 7.830,9.970 7.678,10.197 7.629 C 10.456 7.574,10.841 7.619,11.085 7.733 " stroke="none" fill-rule="evenodd" fill="black"></path></svg>