<svg width="20" height="20" viewBox="0 0 20 20" fill="none" xmlns="http://www.w3.org/2000/svg"><path d="M4.500 4.430 L 4.500 5.864 7.558 5.875 C 10.958 5.886,10.756 5.873,11.250 6.116 C 11.552 6.264,11.697 6.387,11.864 6.637 C 12.064 6.937,12.138 7.207,12.141 7.650 C 12.144 8.103,12.095 8.350,11.942 8.643 C 11.800 8.914,11.631 9.070,11.317 9.219 C 10.830 9.450,10.919 9.444,7.542 9.458 L 4.500 9.470 4.500 10.917 L 4.500 12.364 7.425 12.375 C 10.607 12.388,10.509 12.382,10.893 12.579 C 11.334 12.804,11.577 13.269,11.664 14.050 C 11.726 14.604,11.771 15.911,11.748 16.458 L 11.724 17.000 13.434 17.000 L 15.144 17.000 15.123 16.025 C 15.075 13.762,14.977 13.042,14.624 12.350 C 14.520 12.148,14.418 12.014,14.202 11.800 C 13.868 11.468,13.649 11.331,13.213 11.181 C 12.873 11.064,12.813 11.033,12.926 11.033 C 13.030 11.033,13.525 10.872,13.717 10.775 C 14.682 10.288,15.313 9.298,15.470 8.023 C 15.521 7.616,15.487 6.775,15.404 6.363 C 15.064 4.683,14.059 3.644,12.344 3.201 C 11.653 3.022,11.706 3.025,7.975 3.010 L 4.500 2.996 4.500 4.430 M4.500 15.916 L 4.500 17.000 6.652 17.000 L 8.804 17.000 8.794 16.158 L 8.783 15.317 8.692 15.161 C 8.642 15.076,8.544 14.971,8.475 14.928 L 8.350 14.850 6.425 14.841 L 4.500 14.831 4.500 15.916 " fill="#2D2D31" stroke="none" fill-rule="evenodd"></path></svg>