<svg width="1800" height="1800" viewBox="0 0 1800 1800" fill="none" xmlns="http://www.w3.org/2000/svg"><path d="M450.000 517.223 L 450.000 584.688 677.250 585.773 C 870.883 586.698,906.719 587.540,919.500 591.464 C 960.376 604.015,990.740 627.621,1006.808 659.341 C 1014.961 675.436,1015.500 678.731,1015.500 712.500 C 1015.500 746.781,1015.041 749.468,1005.896 768.776 C 1000.613 779.927,989.401 796.337,980.979 805.241 C 955.880 831.780,937.083 839.592,829.237 868.303 C 723.268 896.514,700.782 905.450,686.641 924.971 C 667.473 951.432,668.549 978.327,690.182 1013.527 C 692.557 1017.391,772.400 1094.691,867.612 1185.304 L 1040.724 1350.055 1194.539 1349.277 L 1348.353 1348.500 1131.359 1141.500 L 914.365 934.500 982.932 932.664 C 1057.267 930.673,1081.028 927.131,1123.145 911.760 C 1159.148 898.621,1186.562 881.034,1213.859 853.564 C 1233.604 833.693,1240.848 823.696,1252.105 800.775 C 1272.544 759.163,1276.426 741.510,1276.466 690.000 C 1276.495 652.718,1275.495 643.284,1269.471 624.000 C 1246.523 550.544,1192.905 495.071,1120.449 469.823 C 1066.730 451.104,1082.967 451.943,752.250 450.801 L 450.000 449.758 450.000 517.223 " fill="#FDFDFD" stroke="none" fill-rule="evenodd"></path></svg>