<svg xmlns="http://www.w3.org/2000/svg" width="16" height="16" fill="none"><path d="M4.667 2.428 C 4.601 2.436,4.499 2.466,4.440 2.494 C 4.316 2.553,3.387 3.460,2.373 4.511 C 1.626 5.286,1.627 5.285,1.627 5.597 C 1.627 5.875,1.814 6.169,2.080 6.310 C 2.215 6.382,2.612 6.380,2.760 6.307 C 2.820 6.278,3.113 6.012,3.432 5.698 L 3.998 5.140 4.006 7.470 L 4.013 9.800 4.075 9.926 C 4.204 10.188,4.528 10.400,4.800 10.400 C 5.072 10.400,5.393 10.190,5.524 9.927 L 5.587 9.800 5.594 7.471 L 5.602 5.141 6.181 5.711 C 6.500 6.025,6.805 6.302,6.859 6.328 C 7.386 6.578,7.999 6.203,8.000 5.630 C 8.000 5.345,7.968 5.282,7.625 4.911 C 7.104 4.346,5.328 2.602,5.193 2.522 C 5.055 2.441,4.851 2.405,4.667 2.428 M11.040 5.624 C 10.799 5.674,10.594 5.832,10.488 6.047 L 10.413 6.200 10.406 8.530 L 10.398 10.861 9.872 10.341 C 9.248 9.725,9.114 9.627,8.873 9.607 C 8.518 9.579,8.227 9.737,8.078 10.039 C 7.999 10.200,7.994 10.228,8.005 10.420 C 8.014 10.563,8.037 10.664,8.079 10.747 C 8.121 10.830,8.537 11.264,9.436 12.162 C 10.831 13.555,10.844 13.565,11.143 13.593 C 11.340 13.610,11.465 13.571,11.653 13.432 C 11.826 13.304,13.549 11.603,13.998 11.116 C 14.341 10.745,14.374 10.682,14.373 10.397 C 14.372 9.999,14.045 9.657,13.640 9.632 C 13.299 9.610,13.207 9.670,12.488 10.382 L 12.002 10.863 11.994 8.531 L 11.987 6.200 11.926 6.079 C 11.763 5.752,11.378 5.554,11.040 5.624 " fill="#C3C3C6" stroke="none" fill-rule="evenodd"></path></svg>