<svg xmlns="http://www.w3.org/2000/svg" width="16" height="16" fill="none"><path fill="#C3C3C6" fill-rule="evenodd" stroke="none" d="M4.640 2.425 C 4.589 2.435,4.499 2.466,4.440 2.494 C 4.316 2.553,3.392 3.456,2.373 4.511 C 1.626 5.286,1.627 5.285,1.627 5.597 C 1.627 5.875,1.814 6.169,2.080 6.310 C 2.215 6.382,2.612 6.380,2.760 6.307 C 2.820 6.278,3.113 6.012,3.432 5.698 L 3.998 5.140 4.006 7.470 L 4.013 9.800 4.075 9.926 C 4.204 10.188,4.528 10.400,4.800 10.400 C 5.072 10.400,5.396 10.188,5.525 9.926 L 5.587 9.800 5.594 7.471 L 5.602 5.141 6.181 5.711 C 6.513 6.037,6.807 6.304,6.867 6.333 C 6.935 6.366,7.048 6.389,7.178 6.395 C 7.353 6.404,7.404 6.396,7.527 6.340 C 7.903 6.168,8.088 5.754,7.968 5.354 C 7.925 5.209,7.538 4.795,6.303 3.571 C 5.480 2.757,5.264 2.556,5.146 2.500 C 4.987 2.425,4.787 2.395,4.640 2.425 M11.027 5.623 C 10.785 5.686,10.570 5.861,10.471 6.076 C 10.414 6.199,10.413 6.210,10.406 8.530 L 10.398 10.861 9.872 10.341 C 9.248 9.725,9.114 9.627,8.873 9.607 C 8.518 9.579,8.227 9.737,8.078 10.039 C 7.999 10.200,7.994 10.228,8.005 10.420 C 8.014 10.563,8.037 10.664,8.079 10.747 C 8.169 10.927,10.688 13.436,10.860 13.518 C 11.018 13.593,11.263 13.618,11.403 13.573 C 11.586 13.515,11.781 13.342,12.743 12.388 C 13.917 11.225,14.299 10.815,14.342 10.673 C 14.391 10.507,14.380 10.245,14.318 10.107 C 14.197 9.838,13.880 9.627,13.600 9.627 C 13.277 9.627,13.193 9.684,12.488 10.382 L 12.002 10.863 11.994 8.531 C 11.987 6.348,11.984 6.193,11.938 6.097 C 11.866 5.943,11.668 5.746,11.522 5.683 C 11.376 5.620,11.145 5.592,11.027 5.623"/></svg>