<svg width="24" height="24" viewBox="0 0 24 24" fill="none" xmlns="http://www.w3.org/2000/svg"><path d="M11.843 0.049 C 11.787 0.078,11.599 0.337,11.405 0.650 C 11.067 1.197,11.065 1.200,10.917 1.200 C 10.795 1.200,10.745 1.173,10.639 1.050 C 10.568 0.967,10.367 0.751,10.192 0.570 C 9.918 0.284,9.857 0.240,9.740 0.240 C 9.517 0.240,9.427 0.363,9.197 0.989 C 8.998 1.530,8.981 1.560,8.855 1.602 C 8.700 1.653,8.747 1.676,8.160 1.257 C 7.651 0.894,7.578 0.860,7.427 0.917 C 7.262 0.980,7.210 1.107,7.120 1.660 C 7.004 2.379,7.013 2.351,6.874 2.423 C 6.750 2.487,6.743 2.485,6.160 2.224 C 5.836 2.079,5.550 1.960,5.524 1.960 C 5.425 1.960,5.245 2.083,5.216 2.170 C 5.199 2.219,5.190 2.548,5.194 2.900 L 5.202 3.540 5.095 3.617 C 4.988 3.693,4.985 3.693,4.444 3.567 C 3.677 3.388,3.530 3.399,3.445 3.642 C 3.409 3.745,3.426 3.866,3.541 4.347 C 3.617 4.667,3.679 4.949,3.679 4.974 C 3.678 4.999,3.641 5.064,3.596 5.118 C 3.514 5.216,3.513 5.216,2.845 5.205 C 2.230 5.195,2.169 5.200,2.079 5.273 C 1.920 5.402,1.950 5.585,2.234 6.198 C 2.460 6.687,2.479 6.746,2.436 6.849 C 2.410 6.912,2.360 6.978,2.325 6.996 C 2.289 7.014,2.001 7.070,1.685 7.121 C 1.023 7.227,0.904 7.289,0.904 7.529 C 0.904 7.640,0.973 7.766,1.244 8.144 C 1.431 8.406,1.597 8.643,1.615 8.671 C 1.632 8.699,1.626 8.782,1.602 8.855 C 1.560 8.980,1.528 9.000,1.089 9.161 C 0.318 9.443,0.240 9.498,0.240 9.755 C 0.240 9.853,0.300 9.933,0.570 10.191 C 0.751 10.365,0.970 10.570,1.055 10.646 C 1.199 10.775,1.208 10.795,1.182 10.942 C 1.156 11.094,1.135 11.112,0.635 11.417 C 0.091 11.748,0.000 11.832,0.000 12.000 C -0.000 12.168,0.091 12.252,0.635 12.583 C 1.129 12.884,1.156 12.908,1.181 13.051 C 1.207 13.201,1.204 13.206,0.834 13.551 C 0.254 14.092,0.240 14.109,0.240 14.277 C 0.240 14.490,0.333 14.555,0.988 14.798 C 1.507 14.991,1.559 15.018,1.598 15.130 C 1.621 15.197,1.640 15.264,1.640 15.278 C 1.640 15.292,1.477 15.528,1.278 15.802 C 1.080 16.076,0.908 16.337,0.896 16.382 C 0.867 16.496,0.940 16.665,1.048 16.735 C 1.099 16.768,1.383 16.833,1.680 16.880 C 2.364 16.988,2.349 16.983,2.424 17.127 C 2.485 17.246,2.482 17.259,2.246 17.776 C 1.950 18.426,1.936 18.478,2.017 18.635 C 2.104 18.803,2.214 18.823,2.919 18.800 L 3.520 18.780 3.606 18.897 L 3.693 19.014 3.548 19.628 C 3.395 20.275,3.396 20.352,3.553 20.494 C 3.670 20.600,3.750 20.595,4.404 20.443 C 4.985 20.308,4.989 20.308,5.094 20.384 L 5.200 20.460 5.196 21.120 C 5.194 21.483,5.205 21.812,5.221 21.851 C 5.250 21.925,5.437 22.040,5.526 22.040 C 5.553 22.040,5.841 21.922,6.164 21.777 C 6.744 21.517,6.754 21.515,6.875 21.578 C 7.015 21.650,7.011 21.638,7.122 22.340 C 7.208 22.890,7.261 23.020,7.427 23.083 C 7.577 23.140,7.650 23.106,8.160 22.744 C 8.413 22.564,8.643 22.403,8.671 22.385 C 8.699 22.368,8.782 22.374,8.856 22.399 C 8.985 22.441,9.001 22.469,9.201 23.012 C 9.430 23.634,9.520 23.760,9.737 23.760 C 9.850 23.760,9.915 23.712,10.190 23.430 C 10.366 23.248,10.570 23.031,10.643 22.946 C 10.764 22.805,10.789 22.793,10.931 22.812 C 11.017 22.824,11.091 22.839,11.097 22.847 C 11.103 22.854,11.248 23.090,11.420 23.370 C 11.591 23.651,11.758 23.902,11.791 23.929 C 11.867 23.992,12.133 23.993,12.209 23.929 C 12.241 23.902,12.409 23.651,12.581 23.370 C 12.753 23.090,12.899 22.854,12.904 22.847 C 12.909 22.839,12.983 22.824,13.069 22.812 C 13.211 22.793,13.236 22.805,13.357 22.946 C 13.430 23.031,13.634 23.248,13.810 23.430 C 14.085 23.712,14.150 23.760,14.263 23.760 C 14.484 23.760,14.574 23.635,14.801 23.012 C 15.002 22.462,15.013 22.442,15.149 22.397 C 15.282 22.353,15.301 22.359,15.515 22.513 C 16.322 23.095,16.390 23.134,16.524 23.096 C 16.731 23.037,16.791 22.910,16.880 22.340 C 16.991 21.627,16.985 21.646,17.132 21.576 C 17.260 21.515,17.270 21.517,17.792 21.756 C 18.083 21.890,18.364 22.010,18.416 22.023 C 18.540 22.054,18.746 21.946,18.784 21.830 C 18.801 21.781,18.810 21.452,18.806 21.100 L 18.798 20.460 18.905 20.384 C 19.011 20.308,19.015 20.308,19.596 20.443 C 20.250 20.595,20.330 20.600,20.447 20.494 C 20.604 20.352,20.605 20.275,20.452 19.628 L 20.307 19.014 20.394 18.897 L 20.480 18.780 21.087 18.800 C 21.753 18.822,21.910 18.794,21.990 18.640 C 22.063 18.499,22.034 18.392,21.758 17.785 C 21.518 17.259,21.515 17.246,21.576 17.127 C 21.651 16.983,21.636 16.988,22.320 16.880 C 22.893 16.790,23.020 16.739,23.083 16.571 C 23.141 16.419,23.088 16.304,22.731 15.814 C 22.326 15.257,22.347 15.300,22.399 15.144 C 22.441 15.015,22.469 14.999,23.012 14.799 C 23.635 14.569,23.760 14.480,23.760 14.262 C 23.760 14.112,23.735 14.082,23.166 13.551 C 22.796 13.206,22.793 13.201,22.819 13.051 C 22.844 12.908,22.871 12.884,23.365 12.583 C 23.909 12.252,24.000 12.168,24.000 12.000 C 24.000 11.832,23.909 11.748,23.365 11.417 C 22.865 11.112,22.844 11.094,22.818 10.942 C 22.793 10.797,22.802 10.774,22.925 10.667 C 22.999 10.602,23.218 10.396,23.412 10.210 C 23.753 9.881,23.764 9.865,23.752 9.707 C 23.736 9.493,23.645 9.432,22.966 9.182 C 22.455 8.994,22.440 8.985,22.402 8.848 C 22.357 8.684,22.331 8.736,22.725 8.192 C 22.896 7.957,23.054 7.728,23.077 7.685 C 23.148 7.554,23.126 7.440,23.010 7.324 C 22.913 7.228,22.834 7.204,22.340 7.125 C 21.631 7.011,21.651 7.017,21.576 6.873 C 21.515 6.754,21.518 6.741,21.764 6.206 C 22.050 5.584,22.080 5.402,21.920 5.272 C 21.829 5.198,21.772 5.193,21.154 5.206 L 20.487 5.220 20.397 5.105 L 20.306 4.990 20.451 4.376 C 20.686 3.381,20.618 3.319,19.556 3.567 C 19.015 3.693,19.012 3.693,18.905 3.617 L 18.798 3.540 18.806 2.900 C 18.810 2.548,18.801 2.219,18.784 2.170 C 18.755 2.083,18.575 1.960,18.476 1.960 C 18.450 1.960,18.164 2.079,17.840 2.224 C 17.257 2.485,17.250 2.487,17.126 2.423 C 16.985 2.350,16.991 2.368,16.879 1.661 C 16.792 1.111,16.739 0.980,16.573 0.917 C 16.422 0.860,16.349 0.894,15.840 1.257 C 15.253 1.677,15.300 1.653,15.144 1.601 C 15.015 1.559,14.999 1.531,14.799 0.988 C 14.569 0.364,14.480 0.240,14.261 0.240 C 14.143 0.240,14.081 0.286,13.787 0.590 C 13.601 0.783,13.400 0.998,13.341 1.070 C 13.254 1.175,13.203 1.200,13.082 1.200 C 12.931 1.200,12.930 1.200,12.601 0.661 C 12.419 0.365,12.248 0.104,12.221 0.081 C 12.138 0.012,11.945 -0.005,11.843 0.049 M12.321 2.220 C 12.650 2.391,12.767 2.904,12.551 3.231 C 12.417 3.433,12.166 3.540,11.896 3.510 C 11.501 3.465,11.221 3.067,11.298 2.658 C 11.331 2.481,11.567 2.213,11.735 2.161 C 11.893 2.113,12.166 2.140,12.321 2.220 M10.981 3.938 C 11.337 4.312,11.617 4.572,11.690 4.598 C 11.849 4.653,12.072 4.649,12.209 4.588 C 12.269 4.562,12.609 4.262,12.964 3.922 L 13.610 3.304 13.954 3.375 C 15.019 3.594,16.375 4.228,17.319 4.948 C 17.722 5.256,18.223 5.720,18.533 6.074 C 18.902 6.496,19.372 7.132,19.517 7.405 L 19.613 7.588 19.183 8.563 C 18.946 9.100,18.743 9.596,18.731 9.665 C 18.703 9.842,18.779 10.044,18.931 10.190 C 19.013 10.269,19.356 10.445,19.880 10.676 C 20.623 11.003,20.702 11.048,20.725 11.149 C 20.739 11.210,20.753 11.553,20.755 11.910 L 20.760 12.560 20.285 12.560 C 19.953 12.560,19.798 12.575,19.770 12.610 C 19.747 12.638,19.722 12.870,19.712 13.128 C 19.697 13.549,19.683 13.618,19.576 13.828 C 19.434 14.107,19.166 14.289,18.808 14.352 C 18.434 14.418,17.978 14.299,17.785 14.085 C 17.742 14.038,17.652 13.774,17.576 13.477 C 17.392 12.751,17.221 12.422,16.820 12.016 C 16.644 11.838,16.441 11.648,16.369 11.594 L 16.237 11.496 16.523 11.301 C 17.180 10.852,17.737 10.202,17.916 9.674 C 18.327 8.467,17.599 7.100,16.194 6.442 C 16.010 6.356,15.725 6.244,15.560 6.193 L 15.260 6.101 10.367 6.081 L 5.474 6.060 5.867 5.672 C 6.083 5.458,6.377 5.190,6.520 5.075 C 7.181 4.545,8.205 3.968,9.000 3.678 C 9.375 3.541,10.170 3.324,10.307 3.322 C 10.367 3.320,10.569 3.505,10.981 3.938 M3.802 8.681 C 4.212 8.890,4.303 9.443,3.985 9.794 C 3.597 10.222,2.849 9.980,2.771 9.402 C 2.696 8.842,3.295 8.423,3.802 8.681 M20.649 8.642 C 20.965 8.730,21.160 8.996,21.160 9.341 C 21.160 9.563,21.090 9.708,20.904 9.871 C 20.492 10.233,19.815 9.944,19.769 9.387 C 19.741 9.045,19.913 8.770,20.227 8.658 C 20.415 8.591,20.460 8.589,20.649 8.642 M6.080 11.520 L 6.080 14.320 4.826 14.320 L 3.573 14.320 3.528 14.170 C 3.306 13.427,3.181 12.020,3.265 11.214 L 3.290 10.976 4.041 10.644 C 4.958 10.239,5.016 10.204,5.118 10.003 C 5.241 9.762,5.221 9.590,5.019 9.144 C 4.921 8.925,4.840 8.741,4.840 8.734 C 4.840 8.726,5.119 8.720,5.460 8.720 L 6.080 8.720 6.080 11.520 M13.404 8.894 C 13.877 9.089,14.063 9.327,14.032 9.700 C 14.006 10.014,13.834 10.195,13.420 10.346 C 13.242 10.410,13.046 10.420,11.630 10.432 L 10.040 10.445 10.040 9.622 L 10.040 8.800 11.610 8.801 C 13.157 8.802,13.183 8.803,13.404 8.894 M12.771 12.897 C 13.043 12.999,13.373 13.314,13.519 13.613 C 13.602 13.781,13.692 14.103,13.801 14.620 C 14.013 15.622,14.100 15.931,14.246 16.204 C 14.404 16.502,14.721 16.854,14.954 16.990 L 15.140 17.100 17.094 17.120 L 19.048 17.140 18.874 17.363 C 18.778 17.486,18.601 17.696,18.480 17.829 L 18.260 18.071 17.441 17.894 C 16.583 17.709,16.485 17.705,16.253 17.846 C 16.064 17.961,15.985 18.174,15.795 19.090 L 15.623 19.921 15.221 20.076 C 14.703 20.276,14.511 20.336,14.000 20.459 C 13.093 20.678,11.849 20.742,10.892 20.619 C 10.107 20.519,9.040 20.221,8.481 19.948 L 8.302 19.860 8.119 19.000 C 8.018 18.527,7.906 18.083,7.869 18.014 C 7.772 17.831,7.570 17.720,7.335 17.720 C 7.227 17.720,6.820 17.789,6.431 17.873 L 5.724 18.026 5.527 17.823 C 5.419 17.711,5.244 17.512,5.138 17.380 L 4.946 17.140 8.593 17.130 L 12.240 17.120 12.240 15.780 L 12.240 14.440 11.140 14.440 L 10.040 14.440 10.040 13.617 L 10.040 12.794 11.310 12.809 C 12.410 12.823,12.606 12.834,12.771 12.897 M7.000 18.702 C 7.361 18.884,7.489 19.381,7.263 19.723 C 7.078 20.002,6.722 20.109,6.410 19.978 C 6.212 19.896,6.123 19.810,6.035 19.620 C 5.757 19.015,6.403 18.400,7.000 18.702 M17.493 18.698 C 18.131 18.926,18.104 19.827,17.453 20.042 C 17.016 20.187,16.551 19.837,16.551 19.363 C 16.551 19.147,16.623 18.987,16.786 18.835 C 16.988 18.648,17.225 18.602,17.493 18.698 " fill="#6C6C71" stroke="none" fill-rule="evenodd"></path></svg>