<svg xmlns="http://www.w3.org/2000/svg" width="20" height="20" fill="none" viewBox="0 0 20 20"><path fill="#19191C" fill-rule="evenodd" stroke="none" d="M8.900 4.037 C 6.770 4.278,4.966 5.726,4.299 7.730 C 4.067 8.428,4.020 8.724,4.020 9.500 C 4.020 10.083,4.031 10.235,4.095 10.533 C 4.419 12.044,5.214 13.240,6.448 14.072 C 7.029 14.463,7.708 14.743,8.467 14.904 C 8.937 15.004,9.988 15.014,10.450 14.923 C 11.125 14.791,11.868 14.506,12.394 14.178 L 12.640 14.025 13.745 15.126 C 14.818 16.196,14.855 16.229,15.005 16.251 C 15.215 16.281,15.349 16.246,15.488 16.125 C 15.728 15.914,15.781 15.625,15.625 15.364 C 15.577 15.283,15.094 14.774,14.552 14.234 C 14.010 13.693,13.567 13.239,13.567 13.224 C 13.567 13.210,13.651 13.098,13.754 12.977 C 14.311 12.320,14.736 11.402,14.923 10.450 C 15.014 9.989,15.004 8.936,14.904 8.471 C 14.579 6.951,13.784 5.758,12.540 4.922 C 11.497 4.222,10.153 3.895,8.900 4.037 M10.333 5.283 C 12.061 5.628,13.427 7.026,13.737 8.767 C 13.795 9.088,13.795 9.912,13.737 10.233 C 13.584 11.091,13.154 11.915,12.534 12.534 C 10.856 14.212,8.160 14.220,6.481 12.551 C 5.979 12.052,5.618 11.463,5.408 10.800 C 5.261 10.338,5.218 10.043,5.218 9.500 C 5.218 9.234,5.238 8.904,5.263 8.767 C 5.368 8.178,5.652 7.498,6.003 7.000 C 6.228 6.680,6.680 6.228,7.000 6.003 C 7.509 5.645,8.220 5.350,8.767 5.270 C 8.904 5.250,9.054 5.227,9.100 5.219 C 9.260 5.191,10.085 5.234,10.333 5.283"/></svg>