<svg xmlns="http://www.w3.org/2000/svg" width="20" height="20" fill="none"><path d="M8.935 4.036 C 6.541 4.267,4.582 6.065,4.091 8.481 C 3.985 9.007,3.986 10.055,4.094 10.555 C 4.580 12.813,6.231 14.452,8.479 14.908 C 8.796 14.972,8.950 14.983,9.533 14.981 C 10.108 14.980,10.270 14.968,10.550 14.906 C 11.225 14.758,11.875 14.501,12.395 14.177 L 12.639 14.025 13.745 15.126 C 14.818 16.195,14.855 16.228,15.006 16.251 C 15.516 16.326,15.881 15.794,15.621 15.356 C 15.575 15.280,15.094 14.774,14.552 14.234 C 14.010 13.693,13.567 13.239,13.567 13.224 C 13.567 13.210,13.651 13.099,13.754 12.977 C 14.844 11.693,15.256 9.810,14.817 8.121 C 14.136 5.501,11.650 3.775,8.935 4.036 M10.333 5.283 C 12.061 5.628,13.427 7.026,13.737 8.767 C 13.795 9.088,13.795 9.912,13.737 10.233 C 13.584 11.091,13.154 11.915,12.534 12.534 C 10.856 14.212,8.160 14.220,6.481 12.551 C 5.979 12.052,5.618 11.463,5.408 10.800 C 5.261 10.338,5.218 10.043,5.218 9.500 C 5.218 9.234,5.238 8.904,5.263 8.767 C 5.368 8.178,5.652 7.498,6.003 7.000 C 6.228 6.680,6.680 6.228,7.000 6.003 C 7.509 5.645,8.220 5.350,8.767 5.270 C 8.904 5.250,9.054 5.227,9.100 5.219 C 9.260 5.191,10.085 5.234,10.333 5.283 " fill="#19191C" stroke="none" fill-rule="evenodd"></path></svg>