<svg xmlns="http://www.w3.org/2000/svg" width="24" height="24" fill="none"><path d="M9.664 3.063 C 9.436 3.146,9.257 3.297,9.131 3.511 L 9.020 3.700 9.020 6.000 L 9.020 8.300 9.131 8.489 C 9.192 8.592,9.301 8.723,9.374 8.778 C 9.667 9.001,9.649 9.000,12.227 9.000 C 14.850 9.000,14.763 8.992,14.922 9.252 C 14.997 9.375,15.000 9.470,15.000 11.760 C 15.000 13.276,15.015 14.194,15.042 14.289 C 15.104 14.512,15.316 14.763,15.539 14.878 L 15.738 14.980 17.936 14.991 C 20.430 15.003,20.395 15.007,20.701 14.701 C 21.023 14.379,21.003 14.790,20.991 8.918 L 20.980 3.700 20.869 3.511 C 20.740 3.291,20.563 3.146,20.322 3.061 C 20.070 2.972,9.906 2.974,9.664 3.063 M3.664 9.063 C 3.436 9.146,3.257 9.297,3.131 9.511 L 3.020 9.700 3.020 15.000 L 3.020 20.300 3.131 20.489 C 3.192 20.592,3.301 20.723,3.374 20.778 C 3.680 21.011,3.390 21.000,8.998 21.000 C 14.783 21.000,14.381 21.021,14.701 20.701 C 15.003 20.399,15.000 20.427,15.000 18.000 C 15.000 15.573,15.003 15.601,14.701 15.299 C 14.396 14.994,14.455 15.000,11.763 15.000 C 9.470 15.000,9.375 14.997,9.252 14.922 C 8.992 14.763,9.000 14.850,9.000 12.229 C 9.000 9.546,9.006 9.604,8.701 9.299 C 8.398 8.996,8.430 9.000,5.983 9.003 C 4.210 9.005,3.792 9.016,3.664 9.063 " fill="#414146" stroke="none" fill-rule="evenodd"></path></svg>