<svg width="24" height="24" viewBox="0 0 24 24" fill="none" xmlns="http://www.w3.org/2000/svg"><path d="M9.664 3.063 C 9.436 3.146,9.257 3.297,9.131 3.511 L 9.020 3.700 9.020 6.000 L 9.020 8.300 9.131 8.489 C 9.192 8.592,9.301 8.723,9.374 8.778 C 9.667 9.001,9.649 9.000,12.227 9.000 C 14.850 9.000,14.763 8.992,14.922 9.252 C 14.997 9.375,15.000 9.470,15.000 11.760 C 15.000 13.276,15.015 14.194,15.042 14.289 C 15.104 14.512,15.316 14.763,15.539 14.878 L 15.738 14.980 17.936 14.991 C 20.430 15.003,20.395 15.007,20.701 14.701 C 21.023 14.379,21.003 14.790,20.991 8.918 L 20.980 3.700 20.869 3.511 C 20.740 3.291,20.563 3.146,20.322 3.061 C 20.070 2.972,9.906 2.974,9.664 3.063 M3.708 9.058 C 3.444 9.152,3.264 9.300,3.139 9.524 L 3.020 9.740 3.020 15.000 C 3.020 20.122,3.022 20.264,3.097 20.416 C 3.196 20.615,3.385 20.804,3.584 20.903 C 3.736 20.978,3.888 20.980,8.914 20.991 C 12.237 20.997,14.140 20.987,14.234 20.962 C 14.498 20.890,14.731 20.710,14.860 20.477 L 14.980 20.260 14.991 18.089 C 14.998 16.719,14.988 15.863,14.962 15.769 C 14.890 15.502,14.711 15.269,14.477 15.140 L 14.260 15.020 11.771 15.000 L 9.281 14.980 9.151 14.849 L 9.020 14.719 9.000 12.229 L 8.980 9.740 8.860 9.523 C 8.732 9.292,8.502 9.112,8.241 9.040 C 8.157 9.016,7.250 9.001,5.980 9.002 C 4.301 9.003,3.828 9.015,3.708 9.058 " fill="#414146" stroke="none" fill-rule="evenodd"></path></svg>