<svg xmlns="http://www.w3.org/2000/svg" viewBox="0 0 24 24" fill="#19191C"><path d="M10.407 1.923 C 9.575 2.031,8.731 2.399,8.080 2.938 C 7.865 3.116,7.855 3.120,7.576 3.120 C 6.450 3.120,5.264 3.696,4.556 4.585 C 4.314 4.889,4.027 5.380,3.940 5.638 C 3.889 5.789,3.839 5.845,3.649 5.967 C 2.883 6.460,2.211 7.286,1.939 8.069 C 1.726 8.681,1.709 9.412,1.895 10.044 L 1.996 10.388 1.881 10.684 C 1.686 11.187,1.627 11.609,1.652 12.340 C 1.681 13.205,1.836 13.792,2.202 14.419 C 2.974 15.740,4.339 16.477,6.140 16.547 C 6.761 16.571,7.185 16.535,7.707 16.414 L 7.993 16.347 8.274 16.513 C 8.911 16.892,9.549 17.078,10.320 17.108 C 10.867 17.130,11.208 17.097,11.725 16.973 L 11.990 16.909 12.386 17.173 C 12.604 17.318,12.921 17.500,13.090 17.577 C 13.384 17.711,14.032 17.925,14.312 17.981 C 14.424 18.003,14.605 18.198,15.537 19.295 C 16.139 20.003,16.707 20.652,16.801 20.736 C 17.127 21.031,17.702 21.199,18.116 21.121 C 18.420 21.063,19.231 20.803,19.454 20.692 C 19.998 20.419,20.400 19.771,20.400 19.165 C 20.400 18.792,20.304 18.527,19.860 17.667 L 19.438 16.850 19.540 16.784 C 19.739 16.654,20.204 16.185,20.421 15.898 C 20.833 15.349,21.127 14.684,21.260 13.993 C 21.337 13.597,21.345 12.623,21.276 12.151 L 21.230 11.836 21.454 11.405 C 22.138 10.087,22.266 8.667,21.820 7.333 C 21.670 6.883,21.522 6.575,21.293 6.232 C 20.694 5.336,19.860 4.687,18.860 4.338 C 18.564 4.234,18.508 4.195,18.118 3.823 C 17.470 3.203,16.800 2.846,15.960 2.671 C 15.637 2.604,15.476 2.595,14.880 2.613 C 14.459 2.625,14.086 2.657,13.945 2.692 L 13.709 2.752 13.505 2.621 C 12.587 2.035,11.474 1.784,10.407 1.923 M11.409 3.981 C 11.469 4.004,11.457 4.038,11.315 4.247 C 11.014 4.690,10.901 5.017,10.820 5.673 C 10.775 6.037,10.755 6.101,10.654 6.207 C 10.498 6.371,10.282 6.475,9.958 6.543 C 9.449 6.649,9.258 6.774,9.096 7.105 C 9.002 7.297,8.992 7.356,9.009 7.621 C 9.044 8.175,9.372 8.513,9.909 8.548 C 10.266 8.572,10.857 8.421,11.327 8.187 L 11.674 8.014 11.896 8.164 C 12.252 8.403,12.744 8.561,13.135 8.560 C 13.487 8.559,13.928 8.235,14.042 7.895 C 14.158 7.549,14.083 7.173,13.848 6.912 C 13.683 6.729,13.474 6.613,13.247 6.576 C 13.098 6.553,13.080 6.535,12.987 6.325 C 12.779 5.854,12.810 5.632,13.130 5.293 C 13.499 4.903,14.036 4.643,14.657 4.554 C 15.696 4.403,16.604 4.916,17.114 5.941 C 17.250 6.213,17.260 6.220,17.610 6.260 C 17.998 6.304,18.553 6.473,18.895 6.650 C 19.642 7.038,20.036 7.680,20.104 8.620 C 20.125 8.912,20.075 9.538,20.027 9.586 C 20.016 9.597,19.907 9.525,19.786 9.426 C 19.093 8.863,18.079 8.462,17.092 8.362 C 16.631 8.316,16.500 8.332,16.232 8.465 C 15.680 8.741,15.546 9.500,15.966 9.977 C 16.177 10.217,16.349 10.288,16.820 10.326 C 17.362 10.371,17.561 10.420,17.958 10.609 C 18.644 10.936,19.198 11.659,19.341 12.414 C 19.417 12.815,19.416 13.429,19.339 13.756 C 19.196 14.358,18.697 14.999,18.091 15.357 C 17.491 15.712,16.603 15.951,15.548 16.041 C 14.966 16.091,14.926 16.088,14.428 15.954 L 14.117 15.870 14.530 15.445 C 14.997 14.964,15.272 14.567,15.549 13.971 L 15.740 13.560 16.162 13.560 C 16.536 13.560,16.608 13.548,16.792 13.456 C 17.053 13.326,17.225 13.122,17.306 12.844 C 17.455 12.335,17.202 11.841,16.670 11.599 C 16.532 11.536,16.410 11.522,16.020 11.522 C 14.726 11.524,14.049 11.908,13.825 12.767 C 13.711 13.206,13.412 13.664,12.952 14.106 C 12.360 14.674,11.552 15.045,10.771 15.108 C 10.105 15.162,9.181 14.758,8.638 14.175 C 8.376 13.893,8.218 13.648,8.014 13.208 C 7.805 12.758,7.695 12.626,7.420 12.495 C 6.641 12.127,5.766 12.832,5.980 13.655 C 6.013 13.778,6.111 14.023,6.199 14.199 C 6.288 14.375,6.360 14.528,6.360 14.539 C 6.360 14.581,5.917 14.558,5.653 14.502 C 5.028 14.369,4.638 14.186,4.329 13.880 C 3.794 13.349,3.578 12.570,3.722 11.685 C 3.780 11.330,3.891 11.128,4.070 11.053 C 4.533 10.860,5.361 10.836,5.900 11.001 C 6.611 11.219,6.613 11.219,6.855 11.165 C 7.440 11.034,7.766 10.457,7.591 9.865 C 7.561 9.761,7.468 9.625,7.341 9.498 C 7.175 9.332,7.084 9.278,6.820 9.191 C 6.177 8.979,5.718 8.908,4.980 8.906 C 4.600 8.905,4.195 8.925,4.063 8.952 C 3.933 8.978,3.817 8.991,3.806 8.979 C 3.771 8.944,3.923 8.510,4.047 8.291 C 4.208 8.006,4.582 7.678,5.056 7.407 L 5.453 7.180 5.565 6.845 C 5.973 5.631,6.494 5.200,7.556 5.200 C 7.749 5.200,8.056 5.220,8.237 5.244 L 8.566 5.289 8.953 4.911 C 9.705 4.178,10.295 3.900,11.020 3.938 C 11.196 3.947,11.371 3.967,11.409 3.981 M12.215 9.358 C 11.103 9.533,10.278 10.357,10.057 11.511 C 9.905 12.305,10.051 12.801,10.512 13.052 C 10.887 13.256,11.285 13.229,11.615 12.978 C 11.850 12.798,11.962 12.556,12.005 12.136 C 12.045 11.737,12.175 11.443,12.347 11.363 C 12.409 11.334,12.594 11.295,12.758 11.276 C 13.130 11.234,13.370 11.095,13.535 10.829 C 13.827 10.356,13.657 9.734,13.161 9.464 C 12.926 9.336,12.590 9.298,12.215 9.358 M17.997 18.280 C 18.149 18.599,18.279 18.884,18.287 18.914 C 18.295 18.947,18.240 18.990,18.150 19.022 L 17.999 19.076 17.520 18.480 C 17.256 18.152,17.040 17.868,17.040 17.849 C 17.040 17.815,17.577 17.683,17.671 17.694 C 17.699 17.697,17.846 17.961,17.997 18.280 " stroke="none" fill-rule="evenodd"></path></svg>