<svg width="20" height="20" viewBox="0 0 20 20" fill="none" xmlns="http://www.w3.org/2000/svg"><path d="M10.359 3.533 C 10.347 3.579,10.328 3.729,10.317 3.867 C 10.231 4.927,9.870 6.002,9.308 6.867 C 8.254 8.489,6.294 9.627,4.050 9.919 C 3.830 9.947,3.590 9.983,3.517 9.998 L 3.383 10.025 3.562 10.029 C 3.809 10.035,4.375 10.120,4.833 10.221 C 5.428 10.352,6.067 10.579,6.650 10.865 C 7.440 11.252,7.890 11.560,8.429 12.081 C 9.566 13.183,10.161 14.485,10.331 16.247 C 10.370 16.646,10.400 16.743,10.400 16.468 C 10.400 16.020,10.630 14.922,10.849 14.319 C 11.096 13.642,11.417 13.020,11.796 12.485 C 12.064 12.105,12.659 11.502,13.067 11.195 C 13.456 10.902,14.234 10.497,14.683 10.353 C 15.214 10.184,15.999 10.035,16.375 10.034 C 16.647 10.033,16.548 9.983,16.190 9.940 C 15.261 9.830,14.172 9.448,13.373 8.953 C 11.565 7.831,10.538 5.988,10.391 3.600 C 10.383 3.480,10.377 3.467,10.359 3.533 " fill="#EDEDF0" stroke="none" fill-rule="evenodd"></path></svg>