<svg xmlns="http://www.w3.org/2000/svg" width="20" height="20" fill="none" viewBox="0 0 20 20"><path fill="#000" fill-rule="evenodd" stroke="none" d="M9.793 3.034 C 9.582 3.070,9.317 3.219,9.177 3.382 C 9.112 3.458,8.722 4.194,8.283 5.067 C 7.855 5.919,7.485 6.643,7.461 6.675 C 7.425 6.723,7.098 6.779,5.633 6.988 C 4.523 7.146,3.784 7.266,3.675 7.307 C 3.458 7.387,3.209 7.623,3.103 7.850 C 2.928 8.221,2.985 8.694,3.243 9.001 C 3.320 9.094,3.931 9.689,4.600 10.323 C 5.333 11.018,5.821 11.504,5.826 11.547 C 5.832 11.586,5.706 12.352,5.546 13.250 C 5.375 14.214,5.256 14.980,5.254 15.119 C 5.250 15.548,5.498 15.916,5.919 16.106 C 6.118 16.195,6.519 16.210,6.700 16.135 C 6.764 16.108,7.526 15.722,8.393 15.276 C 9.259 14.831,9.982 14.467,9.999 14.467 C 10.016 14.467,10.739 14.831,11.606 15.276 C 12.474 15.722,13.236 16.108,13.300 16.135 C 13.481 16.210,13.882 16.195,14.081 16.106 C 14.345 15.987,14.518 15.823,14.639 15.577 C 14.732 15.387,14.748 15.321,14.746 15.119 C 14.744 14.980,14.625 14.214,14.454 13.250 C 14.294 12.352,14.168 11.585,14.174 11.546 C 14.180 11.502,14.654 11.029,15.400 10.322 C 16.069 9.689,16.680 9.094,16.757 9.002 C 17.233 8.432,16.961 7.497,16.257 7.283 C 16.161 7.254,15.299 7.119,14.340 6.982 C 13.380 6.846,12.581 6.726,12.564 6.715 C 12.547 6.704,12.174 5.980,11.735 5.106 C 11.260 4.159,10.890 3.460,10.818 3.376 C 10.593 3.115,10.164 2.972,9.793 3.034 M10.812 5.933 C 11.524 7.336,11.623 7.515,11.765 7.642 C 11.852 7.720,11.989 7.808,12.071 7.837 C 12.152 7.867,12.994 8.002,13.942 8.137 C 14.891 8.272,15.663 8.392,15.658 8.404 C 15.654 8.415,15.140 8.908,14.517 9.498 C 13.182 10.762,13.149 10.796,13.038 11.033 C 12.904 11.319,12.923 11.530,13.243 13.317 C 13.397 14.178,13.519 14.888,13.514 14.894 C 13.510 14.900,12.801 14.544,11.940 14.102 C 10.238 13.228,10.142 13.190,9.813 13.259 C 9.684 13.286,9.133 13.551,8.060 14.102 C 7.199 14.544,6.490 14.900,6.485 14.894 C 6.480 14.888,6.603 14.178,6.757 13.317 C 7.077 11.530,7.096 11.319,6.962 11.033 C 6.851 10.796,6.821 10.765,5.483 9.498 C 4.860 8.908,4.346 8.415,4.342 8.404 C 4.337 8.392,5.109 8.272,6.058 8.137 C 7.006 8.002,7.848 7.867,7.929 7.837 C 8.011 7.808,8.148 7.720,8.235 7.642 C 8.377 7.515,8.476 7.337,9.188 5.933 C 9.625 5.072,9.990 4.367,10.000 4.367 C 10.009 4.367,10.374 5.072,10.812 5.933"/></svg>