<svg xmlns="http://www.w3.org/2000/svg" width="20" height="20" fill="none"><path d="M9.774 3.034 C 9.569 3.076,9.311 3.227,9.177 3.382 C 9.110 3.460,8.721 4.196,8.260 5.117 C 7.819 5.997,7.457 6.719,7.454 6.723 C 7.452 6.726,6.640 6.844,5.650 6.985 C 4.528 7.145,3.784 7.266,3.675 7.307 C 3.459 7.386,3.212 7.621,3.099 7.850 C 3.032 7.989,3.018 8.067,3.017 8.317 C 3.016 8.824,2.992 8.792,4.508 10.233 C 5.296 10.981,5.821 11.504,5.826 11.546 C 5.832 11.585,5.700 12.389,5.533 13.333 C 5.198 15.233,5.197 15.249,5.371 15.597 C 5.556 15.968,5.904 16.180,6.333 16.182 C 6.479 16.183,6.632 16.163,6.700 16.135 C 6.764 16.108,7.526 15.722,8.392 15.277 C 9.259 14.831,9.982 14.467,10.000 14.467 C 10.017 14.467,10.741 14.831,11.607 15.276 C 12.474 15.722,13.236 16.108,13.300 16.135 C 13.368 16.163,13.522 16.183,13.669 16.182 C 14.116 16.181,14.471 15.949,14.662 15.535 C 14.794 15.249,14.778 15.074,14.454 13.253 C 14.294 12.356,14.168 11.589,14.173 11.548 C 14.180 11.501,14.624 11.057,15.400 10.323 C 16.069 9.689,16.680 9.095,16.757 9.002 C 17.015 8.693,17.072 8.221,16.897 7.850 C 16.791 7.623,16.542 7.387,16.325 7.307 C 16.216 7.266,15.479 7.146,14.373 6.988 C 13.396 6.849,12.582 6.726,12.564 6.715 C 12.547 6.704,12.174 5.980,11.735 5.106 C 11.260 4.159,10.890 3.460,10.818 3.376 C 10.590 3.112,10.130 2.960,9.774 3.034 M10.812 5.933 C 11.533 7.354,11.622 7.514,11.770 7.647 C 11.860 7.728,11.998 7.816,12.077 7.843 C 12.156 7.869,12.996 8.002,13.943 8.137 C 14.891 8.272,15.663 8.392,15.658 8.404 C 15.654 8.416,15.095 8.952,14.417 9.595 C 13.314 10.640,13.171 10.787,13.067 10.987 C 12.959 11.193,12.950 11.230,12.956 11.480 C 12.960 11.647,13.069 12.345,13.243 13.317 C 13.397 14.178,13.519 14.888,13.514 14.894 C 13.510 14.900,12.801 14.544,11.940 14.102 C 10.238 13.228,10.142 13.190,9.813 13.259 C 9.684 13.286,9.133 13.551,8.060 14.102 C 7.199 14.544,6.490 14.900,6.485 14.894 C 6.480 14.888,6.603 14.178,6.757 13.317 C 7.077 11.528,7.096 11.318,6.962 11.033 C 6.848 10.792,6.837 10.781,5.500 9.515 C 4.867 8.916,4.346 8.416,4.342 8.404 C 4.337 8.392,5.109 8.272,6.057 8.137 C 7.004 8.002,7.844 7.869,7.923 7.843 C 8.002 7.816,8.140 7.728,8.230 7.647 C 8.378 7.514,8.467 7.354,9.188 5.933 C 9.626 5.072,9.991 4.367,10.000 4.367 C 10.009 4.367,10.374 5.072,10.812 5.933 " stroke="none" fill-rule="evenodd" fill="black"></path></svg>