<svg xmlns="http://www.w3.org/2000/svg" width="20" height="20" fill="none" viewBox="0 0 20 20"><path fill="#000" fill-rule="evenodd" stroke="none" d="M5.667 4.421 C 5.055 4.514,4.587 4.746,4.167 5.167 C 3.833 5.501,3.605 5.889,3.475 6.347 C 3.422 6.533,3.417 6.798,3.417 9.500 C 3.417 12.202,3.422 12.467,3.475 12.653 C 3.735 13.568,4.432 14.265,5.347 14.525 C 5.535 14.579,5.873 14.583,9.983 14.583 C 13.689 14.583,14.447 14.576,14.600 14.536 C 15.552 14.292,16.292 13.552,16.536 12.600 C 16.606 12.329,16.606 6.671,16.536 6.400 C 16.299 5.475,15.607 4.761,14.671 4.476 C 14.498 4.424,14.132 4.419,10.117 4.414 C 7.715 4.411,5.713 4.414,5.667 4.421 M14.504 5.692 C 14.861 5.837,15.163 6.139,15.308 6.496 L 15.383 6.683 15.383 9.500 L 15.383 12.317 15.308 12.504 C 15.163 12.861,14.861 13.163,14.504 13.308 L 14.317 13.383 10.000 13.383 L 5.683 13.383 5.496 13.308 C 5.139 13.163,4.837 12.861,4.692 12.504 L 4.617 12.317 4.608 9.569 C 4.598 6.609,4.595 6.670,4.770 6.326 C 4.855 6.161,5.165 5.852,5.333 5.767 C 5.663 5.598,5.514 5.603,10.067 5.610 L 14.317 5.617 14.504 5.692 M8.732 15.475 C 8.295 15.696,8.295 16.304,8.732 16.525 C 8.878 16.598,8.906 16.600,10.000 16.600 C 11.094 16.600,11.122 16.598,11.268 16.525 C 11.705 16.304,11.705 15.696,11.268 15.475 C 11.122 15.402,11.094 15.400,10.000 15.400 C 8.906 15.400,8.878 15.402,8.732 15.475"/></svg>