<svg width="20" height="20" viewBox="0 0 20 20" fill="none" xmlns="http://www.w3.org/2000/svg"><path d="M8.910 2.065 C 7.790 2.215,6.959 2.466,6.000 2.947 C 3.867 4.015,2.351 5.826,1.748 8.026 C 1.542 8.779,1.520 8.959,1.518 9.933 C 1.517 10.642,1.529 10.889,1.578 11.183 C 1.852 12.822,2.590 14.249,3.783 15.450 C 4.485 16.157,5.200 16.669,6.083 17.101 C 6.932 17.515,7.688 17.750,8.679 17.906 C 9.368 18.015,10.613 18.016,11.287 17.907 C 12.981 17.635,14.327 17.041,15.585 16.008 C 17.126 14.742,18.060 13.153,18.405 11.211 C 18.505 10.645,18.514 9.455,18.423 8.883 C 18.147 7.153,17.445 5.771,16.218 4.550 C 14.874 3.210,13.081 2.338,11.150 2.083 C 10.504 1.998,9.475 1.990,8.910 2.065 M11.067 2.884 C 12.628 3.117,13.977 3.734,15.187 4.771 C 17.048 6.365,17.915 8.894,17.430 11.317 C 17.282 12.054,16.914 12.955,16.495 13.600 C 16.249 13.979,16.244 13.983,16.058 13.904 C 15.831 13.806,14.917 13.463,14.317 13.249 C 13.784 13.060,13.567 13.002,13.567 13.050 C 13.567 13.064,13.626 13.183,13.700 13.316 C 13.773 13.448,13.823 13.566,13.811 13.578 C 13.799 13.590,13.746 13.600,13.693 13.600 C 13.598 13.600,13.433 13.465,13.433 13.388 C 13.433 13.368,13.343 13.191,13.233 12.995 C 13.123 12.798,13.033 12.631,13.033 12.623 C 13.033 12.615,13.100 12.584,13.182 12.552 C 13.337 12.493,13.467 12.337,13.467 12.209 C 13.467 12.109,13.347 11.976,13.217 11.933 C 13.127 11.904,13.010 11.907,12.683 11.949 C 11.983 12.040,11.601 11.945,11.296 11.604 C 11.141 11.430,10.835 10.887,10.872 10.850 C 10.881 10.841,10.959 10.937,11.045 11.063 C 11.228 11.331,11.501 11.599,11.686 11.692 C 11.828 11.764,12.033 11.818,12.033 11.784 C 12.033 11.747,11.969 11.635,11.648 11.113 C 11.478 10.837,11.247 10.447,11.135 10.247 C 11.022 10.047,10.899 9.857,10.861 9.825 C 10.768 9.745,10.595 9.751,10.485 9.838 C 10.392 9.911,10.381 10.019,10.448 10.175 C 10.471 10.228,10.448 10.234,10.212 10.236 C 10.068 10.237,9.785 10.256,9.584 10.277 C 9.289 10.309,9.215 10.328,9.207 10.372 C 9.201 10.403,9.297 10.590,9.419 10.789 C 9.955 11.656,10.282 12.158,10.377 12.258 L 10.480 12.367 10.905 12.367 C 11.138 12.367,11.338 12.380,11.348 12.396 C 11.375 12.440,11.213 12.495,10.950 12.532 C 10.822 12.550,10.613 12.586,10.487 12.612 C 10.360 12.639,10.239 12.654,10.217 12.646 C 10.187 12.634,9.221 11.022,8.790 10.263 C 8.569 9.874,8.261 9.787,8.114 10.072 C 8.034 10.226,8.072 10.341,8.354 10.802 C 8.504 11.047,8.615 11.267,8.625 11.339 C 8.638 11.438,8.602 11.549,8.437 11.922 C 8.158 12.550,8.060 12.739,7.993 12.780 C 7.899 12.837,7.888 12.781,7.930 12.479 C 7.960 12.268,7.961 12.181,7.934 12.154 C 7.913 12.133,7.748 12.113,7.557 12.107 C 7.080 12.094,7.082 12.095,6.971 11.874 C 6.705 11.345,6.582 10.718,6.609 10.037 C 6.641 9.227,6.838 8.590,7.242 7.983 C 7.378 7.780,7.562 7.567,7.602 7.567 C 7.614 7.567,7.602 7.645,7.575 7.742 C 7.508 7.983,7.483 8.642,7.531 8.917 C 7.633 9.500,7.784 9.573,8.148 9.214 C 8.631 8.739,8.818 8.146,8.637 7.667 C 8.588 7.540,8.583 7.500,8.617 7.500 C 8.667 7.500,9.374 7.971,9.833 8.311 C 10.008 8.440,10.274 8.664,10.425 8.809 C 10.577 8.953,10.718 9.066,10.740 9.059 C 10.946 8.990,11.062 8.354,10.948 7.915 C 10.778 7.258,10.313 6.824,9.671 6.723 C 9.541 6.702,9.433 6.676,9.433 6.666 C 9.433 6.655,9.612 6.611,9.831 6.568 C 10.330 6.471,10.932 6.484,11.332 6.599 C 11.468 6.638,11.614 6.662,11.656 6.651 C 11.995 6.566,11.390 5.674,10.780 5.358 C 10.004 4.955,9.286 5.081,8.619 5.737 C 8.453 5.900,8.306 6.033,8.292 6.033 C 8.278 6.033,8.267 5.974,8.267 5.902 C 8.267 5.411,8.021 4.970,7.597 4.698 C 7.204 4.446,6.641 4.392,6.149 4.559 C 5.793 4.680,5.370 4.923,5.346 5.021 C 5.319 5.128,5.345 5.154,5.542 5.218 C 5.784 5.297,6.113 5.473,6.347 5.649 C 6.592 5.832,6.907 6.104,6.893 6.118 C 6.887 6.124,6.740 6.092,6.566 6.048 C 5.948 5.890,5.487 5.956,5.019 6.269 C 4.591 6.556,4.310 6.929,4.122 7.458 C 4.030 7.719,4.019 7.791,4.019 8.133 C 4.018 8.573,4.049 8.667,4.199 8.667 C 4.274 8.667,4.368 8.599,4.628 8.358 C 4.812 8.188,5.084 7.976,5.232 7.888 C 5.769 7.569,6.561 7.282,7.015 7.243 L 7.248 7.222 6.881 7.586 C 6.247 8.215,5.861 8.812,5.617 9.541 C 5.342 10.364,5.227 11.395,5.338 12.033 C 5.407 12.426,5.430 12.388,5.000 12.606 C 4.610 12.802,4.089 13.168,3.703 13.515 L 3.489 13.707 3.428 13.629 C 3.286 13.448,2.836 12.488,2.706 12.089 C 2.472 11.375,2.397 10.946,2.376 10.213 C 2.351 9.312,2.441 8.633,2.689 7.850 C 2.995 6.887,3.734 5.714,4.487 4.998 C 4.945 4.562,5.624 4.106,6.450 3.679 C 7.420 3.177,8.189 2.943,9.233 2.834 C 9.622 2.793,10.642 2.821,11.067 2.884 M9.335 12.392 C 9.449 12.581,9.536 12.742,9.527 12.751 C 9.518 12.760,9.444 12.744,9.364 12.715 C 9.283 12.687,9.123 12.654,9.008 12.643 C 8.894 12.633,8.800 12.618,8.800 12.611 C 8.800 12.604,8.836 12.526,8.881 12.439 C 8.925 12.351,8.972 12.220,8.985 12.148 C 9.030 11.898,9.038 11.904,9.335 12.392 M12.477 12.917 C 12.664 13.221,12.804 13.474,12.793 13.485 C 12.751 13.527,12.517 13.412,12.411 13.298 C 12.344 13.226,12.260 13.167,12.224 13.167 C 12.161 13.167,11.242 13.350,11.125 13.387 C 11.042 13.412,11.053 13.492,11.167 13.683 C 11.221 13.775,11.266 13.861,11.266 13.873 C 11.267 13.908,11.049 13.943,10.975 13.919 C 10.913 13.900,10.565 13.385,10.521 13.248 C 10.502 13.186,10.527 13.177,10.858 13.122 C 11.250 13.056,11.968 12.892,12.100 12.837 C 12.254 12.773,12.409 12.806,12.477 12.917 M7.883 13.882 C 8.531 13.975,9.002 14.115,10.094 14.538 C 11.362 15.030,11.966 15.199,12.717 15.268 C 13.352 15.328,14.199 15.241,14.900 15.047 C 15.386 14.912,15.380 14.913,15.339 14.990 C 15.193 15.262,14.545 15.593,13.844 15.752 C 13.485 15.833,12.562 15.852,12.098 15.787 C 11.283 15.673,10.610 15.466,9.624 15.029 C 8.382 14.478,7.638 14.300,6.572 14.300 C 5.788 14.300,5.092 14.436,4.597 14.685 C 4.352 14.808,4.300 14.809,4.300 14.690 C 4.301 14.637,4.355 14.582,4.492 14.495 C 5.038 14.147,5.506 13.991,6.400 13.855 C 6.620 13.822,7.583 13.839,7.883 13.882 M7.867 15.416 C 8.240 15.498,8.717 15.668,9.350 15.944 C 10.202 16.316,10.883 16.513,11.683 16.619 C 11.992 16.660,11.726 16.709,11.110 16.726 C 10.198 16.750,9.608 16.653,8.917 16.366 C 7.462 15.762,7.146 15.684,6.005 15.643 C 5.503 15.626,5.436 15.617,5.505 15.579 C 5.638 15.505,5.893 15.428,6.161 15.381 C 6.508 15.320,7.526 15.341,7.867 15.416 " fill="#FFFFFF" stroke="none" fill-rule="evenodd"></path></svg>