<svg width="128" height="128" viewBox="0 0 128 128" fill="none" xmlns="http://www.w3.org/2000/svg"><path d="M11.309 24.036 L 11.311 42.347 26.977 51.467 C 35.593 56.483,42.697 60.587,42.762 60.587 C 42.827 60.587,42.879 52.355,42.877 42.293 L 42.874 24.000 27.299 14.933 C 18.733 9.947,11.630 5.835,11.515 5.796 C 11.380 5.750,11.307 12.192,11.309 24.036 M46.345 44.606 L 46.400 62.972 61.760 71.928 C 70.208 76.853,77.288 80.976,77.493 81.089 C 77.848 81.285,77.867 80.354,77.867 62.882 L 77.867 44.469 62.220 35.354 C 53.614 30.341,46.510 26.240,46.432 26.240 C 46.354 26.240,46.315 34.505,46.345 44.606 M97.123 35.372 L 81.498 44.480 81.496 62.862 L 81.493 81.245 91.573 75.373 C 97.117 72.144,104.221 68.010,107.360 66.188 L 113.067 62.874 113.067 44.557 C 113.067 34.483,112.995 26.245,112.907 26.252 C 112.819 26.258,105.716 30.362,97.123 35.372 M46.507 85.498 L 46.507 103.822 62.027 112.850 C 70.563 117.815,77.619 121.917,77.707 121.965 C 77.795 122.013,77.867 113.804,77.867 103.724 L 77.867 85.397 62.347 76.370 C 53.811 71.405,46.755 67.305,46.667 67.259 C 46.579 67.213,46.507 75.420,46.507 85.498 " fill="#5C4EE5" stroke="none" fill-rule="evenodd"></path></svg>