<svg width="24" height="24" viewBox="0 0 24 24" fill="none" xmlns="http://www.w3.org/2000/svg"><path d="M3.000 9.040 L 3.000 15.080 4.100 15.080 L 5.200 15.080 5.200 18.529 C 5.200 21.957,5.200 21.977,5.279 21.899 C 5.322 21.855,6.606 20.308,8.133 18.460 L 10.908 15.100 8.054 15.090 L 5.200 15.079 5.200 10.160 L 5.200 5.240 12.126 5.240 C 18.719 5.240,19.049 5.243,18.992 5.310 C 18.705 5.640,10.960 15.040,10.960 15.057 C 10.960 15.070,13.219 15.080,15.980 15.080 L 21.000 15.080 21.000 9.040 L 21.000 3.000 12.000 3.000 L 3.000 3.000 3.000 9.040 " fill="#414146" stroke="none" fill-rule="evenodd"></path></svg>