<svg width="16" height="17" viewBox="0 0 16 17" fill="none" xmlns="http://www.w3.org/2000/svg"><path d="M1.755 5.473 C 1.470 5.648,1.417 5.983,1.634 6.231 C 1.797 6.417,1.361 6.401,7.197 6.430 C 10.110 6.445,12.734 6.453,13.029 6.448 C 13.562 6.440,13.565 6.440,13.675 6.367 C 14.003 6.150,13.951 5.637,13.587 5.492 C 13.507 5.460,8.305 5.420,3.667 5.415 L 1.853 5.414 1.755 5.473 M1.830 8.491 C 1.610 8.573,1.471 8.800,1.505 9.023 C 1.527 9.174,1.644 9.336,1.777 9.402 C 1.876 9.451,1.991 9.454,4.693 9.470 C 6.241 9.478,8.863 9.490,10.520 9.495 C 13.843 9.506,13.600 9.517,13.765 9.342 C 13.987 9.108,13.913 8.703,13.623 8.566 C 13.508 8.511,13.477 8.511,9.547 8.495 C 7.369 8.487,4.765 8.474,3.760 8.466 C 2.214 8.455,1.918 8.458,1.830 8.491 M1.755 11.580 C 1.554 11.703,1.456 11.930,1.516 12.131 C 1.557 12.266,1.690 12.422,1.805 12.471 C 1.877 12.500,2.689 12.507,6.493 12.507 C 11.442 12.507,11.192 12.513,11.343 12.379 C 11.423 12.308,11.492 12.132,11.493 12.000 C 11.493 11.848,11.428 11.720,11.298 11.615 L 11.195 11.533 6.524 11.527 L 1.853 11.520 1.755 11.580 " stroke="none" fill-rule="evenodd" fill="black"></path></svg>