<svg xmlns="http://www.w3.org/2000/svg" fill="none" viewBox="0 0 24 24" stroke-width="1.5" stroke="currentColor"><path d="M2.891 4.559 C 2.428 4.669,1.905 5.107,1.686 5.567 C 1.497 5.964,1.474 6.254,1.488 8.020 C 1.502 9.864,1.474 9.750,2.016 10.150 C 2.563 10.554,2.880 11.063,2.970 11.684 C 3.094 12.531,2.726 13.352,1.992 13.872 C 1.800 14.008,1.658 14.143,1.596 14.252 L 1.500 14.420 1.488 15.980 C 1.480 16.919,1.492 17.665,1.517 17.853 C 1.629 18.690,2.283 19.360,3.104 19.479 C 3.482 19.533,20.518 19.533,20.896 19.479 C 21.717 19.360,22.371 18.690,22.483 17.853 C 22.508 17.665,22.520 16.919,22.512 15.980 L 22.500 14.420 22.404 14.252 C 22.342 14.143,22.200 14.008,22.008 13.872 C 20.670 12.926,20.670 11.074,22.008 10.128 C 22.200 9.992,22.342 9.857,22.404 9.748 L 22.500 9.580 22.512 8.020 C 22.526 6.254,22.503 5.964,22.314 5.567 C 22.144 5.210,21.789 4.857,21.420 4.677 L 21.140 4.540 12.080 4.534 C 7.097 4.531,2.962 4.542,2.891 4.559 M15.760 6.457 C 15.760 6.968,15.789 7.082,15.970 7.269 C 16.252 7.562,16.748 7.562,17.030 7.269 C 17.211 7.082,17.240 6.968,17.240 6.457 L 17.240 6.000 18.958 6.000 C 20.205 6.000,20.705 6.013,20.781 6.048 C 20.992 6.144,21.000 6.203,21.000 7.643 L 21.000 8.970 20.667 9.295 C 19.891 10.053,19.509 10.945,19.509 12.000 C 19.509 13.055,19.891 13.947,20.667 14.705 L 21.000 15.030 21.000 16.358 C 21.000 17.738,20.994 17.793,20.825 17.929 C 20.747 17.992,20.588 17.998,18.990 17.999 L 17.240 18.000 17.240 17.543 C 17.240 17.043,17.210 16.919,17.047 16.745 C 16.907 16.595,16.726 16.520,16.504 16.520 C 16.280 16.520,16.132 16.575,15.985 16.713 C 15.799 16.887,15.760 17.030,15.760 17.539 L 15.760 18.000 9.510 17.999 C 3.649 17.998,3.255 17.994,3.175 17.929 C 3.006 17.793,3.000 17.738,3.000 16.358 L 3.000 15.031 3.334 14.703 C 4.114 13.935,4.491 13.055,4.491 12.000 C 4.491 10.944,4.107 10.050,3.332 9.297 L 3.000 8.974 3.001 7.637 C 3.003 6.208,3.009 6.164,3.204 6.056 C 3.283 6.012,4.436 6.003,9.530 6.001 L 15.760 6.000 15.760 6.457 M16.167 9.084 C 16.068 9.134,15.948 9.241,15.887 9.333 C 15.785 9.487,15.779 9.520,15.768 10.097 C 15.755 10.779,15.783 10.877,16.055 11.096 C 16.324 11.314,16.818 11.273,17.045 11.014 C 17.213 10.824,17.240 10.700,17.240 10.135 C 17.240 9.657,17.229 9.563,17.155 9.410 C 16.982 9.052,16.525 8.901,16.167 9.084 M7.167 12.086 C 6.848 12.243,6.682 12.662,6.798 13.013 C 6.868 13.227,7.110 13.424,7.369 13.478 C 7.520 13.509,8.393 13.519,10.263 13.511 C 12.693 13.501,12.951 13.494,13.064 13.432 C 13.229 13.342,13.433 13.105,13.463 12.969 C 13.476 12.909,13.493 12.838,13.501 12.812 C 13.530 12.717,13.410 12.355,13.315 12.253 C 13.263 12.196,13.148 12.116,13.060 12.076 C 12.909 12.006,12.737 12.002,10.120 12.001 C 7.357 12.000,7.339 12.001,7.167 12.086 M16.152 12.842 C 16.071 12.885,15.954 12.986,15.892 13.067 C 15.783 13.210,15.780 13.227,15.767 13.808 C 15.755 14.354,15.761 14.418,15.842 14.584 C 15.971 14.850,16.187 14.980,16.500 14.980 C 16.811 14.980,17.029 14.850,17.155 14.590 C 17.229 14.438,17.240 14.343,17.240 13.866 C 17.240 13.287,17.197 13.116,17.014 12.955 C 16.781 12.750,16.416 12.702,16.152 12.842 M7.420 14.259 C 7.398 14.267,7.331 14.284,7.271 14.297 C 7.211 14.310,7.095 14.379,7.015 14.450 C 6.595 14.818,6.699 15.443,7.220 15.684 C 7.367 15.752,7.507 15.758,9.000 15.758 C 10.493 15.758,10.633 15.752,10.780 15.684 C 11.075 15.547,11.240 15.303,11.240 15.000 C 11.240 14.799,11.181 14.647,11.047 14.506 C 10.810 14.255,10.854 14.261,9.080 14.252 C 8.189 14.248,7.442 14.251,7.420 14.259 " stroke="none" fill-rule="evenodd" fill="black"></path></svg>