<svg xmlns="http://www.w3.org/2000/svg" width="40" height="40" viewBox="0 0 40 40" fill="none"><path d="M20.933 15.427 C 20.933 27.068,20.957 26.455,20.471 27.433 C 19.554 29.280,17.606 30.221,15.707 29.735 C 14.100 29.324,12.853 27.987,12.526 26.324 C 12.414 25.752,12.486 24.537,12.662 24.033 C 13.214 22.458,14.427 21.383,15.983 21.089 L 16.600 20.972 16.600 18.419 L 16.600 15.867 16.417 15.868 C 16.316 15.869,15.918 15.912,15.533 15.964 C 11.480 16.512,8.319 19.669,7.623 23.866 C 7.487 24.688,7.487 26.179,7.623 27.001 C 8.204 30.507,10.559 33.375,13.768 34.487 C 14.884 34.873,15.425 34.961,16.700 34.964 C 17.921 34.967,18.480 34.885,19.500 34.555 C 21.214 34.001,22.910 32.774,24.036 31.274 C 24.872 30.160,25.559 28.557,25.839 27.067 C 25.947 26.497,25.961 25.860,25.984 20.721 L 26.009 15.009 26.569 15.374 C 28.134 16.394,30.132 17.074,31.878 17.180 L 32.535 17.220 32.517 14.660 L 32.500 12.100 32.033 12.053 C 30.985 11.946,29.712 11.463,28.843 10.843 C 27.985 10.230,27.175 9.279,26.692 8.317 C 26.217 7.372,26.024 6.668,25.896 5.417 L 25.854 5.000 23.393 5.000 L 20.933 5.000 20.933 15.427 " fill="#19191C" stroke="none" fill-rule="evenodd"></path></svg>