<svg xmlns="http://www.w3.org/2000/svg" width="40" height="40" fill="none"><path d="M20.933 15.427 C 20.933 27.066,20.957 26.454,20.471 27.433 C 19.555 29.280,17.607 30.221,15.707 29.735 C 14.079 29.319,12.815 27.945,12.524 26.277 C 12.418 25.666,12.488 24.534,12.663 24.033 C 13.212 22.460,14.427 21.383,15.983 21.089 L 16.600 20.972 16.600 18.419 L 16.600 15.867 16.417 15.868 C 16.316 15.869,15.918 15.912,15.533 15.964 C 11.480 16.512,8.319 19.669,7.623 23.866 C 7.487 24.688,7.487 26.179,7.623 27.001 C 8.044 29.539,9.350 31.701,11.386 33.231 C 12.381 33.978,13.678 34.555,15.002 34.840 C 15.793 35.010,17.608 35.014,18.400 34.847 C 20.307 34.445,21.752 33.660,23.136 32.271 C 24.279 31.125,25.000 29.947,25.485 28.433 C 25.965 26.937,25.956 27.078,25.984 20.717 L 26.009 15.001 26.388 15.257 C 27.399 15.941,28.640 16.512,29.800 16.827 C 30.551 17.030,31.615 17.199,32.151 17.200 L 32.535 17.200 32.517 14.650 L 32.500 12.100 32.233 12.081 C 31.736 12.046,30.902 11.854,30.367 11.651 C 29.393 11.281,28.643 10.780,27.875 9.986 C 27.335 9.427,27.055 9.032,26.694 8.317 C 26.218 7.376,26.024 6.671,25.896 5.417 L 25.854 5.000 23.393 5.000 L 20.933 5.000 20.933 15.427 " fill="#19191C" stroke="none" fill-rule="evenodd"></path></svg>