<svg xmlns="http://www.w3.org/2000/svg" width="20" height="20" fill="none" viewBox="0 0 20 20"><path fill="#19191C" fill-rule="evenodd" stroke="none" d="M12.717 2.833 C 11.410 3.115,10.379 4.024,9.955 5.268 C 9.776 5.793,9.720 6.469,9.812 6.992 L 9.854 7.233 9.701 7.233 C 9.466 7.233,8.763 7.140,8.300 7.048 C 6.090 6.607,3.978 5.413,2.532 3.787 L 2.217 3.433 2.159 3.508 C 2.066 3.628,1.844 4.225,1.783 4.517 C 1.504 5.863,2.007 7.240,3.094 8.106 L 3.338 8.300 3.220 8.300 C 2.911 8.300,2.166 8.101,1.822 7.927 C 1.751 7.891,1.685 7.871,1.673 7.882 C 1.635 7.920,1.730 8.584,1.816 8.880 C 2.172 10.104,3.137 11.063,4.361 11.411 L 4.640 11.490 4.428 11.536 C 4.289 11.567,4.009 11.583,3.608 11.583 C 3.215 11.583,3.000 11.595,3.000 11.618 C 3.000 11.700,3.379 12.403,3.530 12.602 C 3.870 13.050,4.346 13.443,4.858 13.697 C 5.278 13.906,5.570 13.986,6.293 14.088 C 6.353 14.096,6.394 14.116,6.385 14.131 C 6.346 14.193,5.682 14.612,5.328 14.798 C 4.754 15.099,4.113 15.333,3.457 15.484 C 2.842 15.624,1.860 15.696,1.300 15.641 C 1.126 15.624,0.980 15.612,0.976 15.615 C 0.958 15.628,1.591 15.982,1.950 16.160 C 3.063 16.711,4.332 17.072,5.617 17.202 C 6.174 17.258,7.370 17.249,7.913 17.185 C 9.971 16.940,11.636 16.272,13.200 15.066 C 13.611 14.749,14.516 13.845,14.865 13.403 C 15.836 12.174,16.499 10.832,16.885 9.314 C 17.095 8.491,17.168 7.954,17.190 7.083 L 17.209 6.349 17.396 6.211 C 17.794 5.918,18.394 5.323,18.762 4.856 C 19.078 4.454,19.078 4.455,18.752 4.584 C 18.405 4.720,17.978 4.846,17.583 4.930 C 17.241 5.002,16.967 5.044,16.967 5.023 C 16.967 5.016,17.049 4.955,17.149 4.888 C 17.612 4.581,18.094 4.018,18.349 3.486 C 18.588 2.987,18.597 3.001,18.161 3.219 C 17.586 3.508,17.073 3.696,16.442 3.848 L 16.201 3.907 15.992 3.717 C 15.560 3.326,15.008 3.027,14.440 2.877 C 13.988 2.757,13.163 2.736,12.717 2.833"/></svg>