<svg xmlns="http://www.w3.org/2000/svg" width="20" height="20" fill="none"><path d="M12.717 2.833 C 11.950 2.998,11.286 3.370,10.759 3.929 C 10.344 4.369,10.037 4.923,9.876 5.524 C 9.798 5.813,9.788 5.912,9.788 6.400 C 9.788 6.702,9.804 7.014,9.823 7.092 L 9.860 7.233 9.705 7.233 C 9.255 7.232,8.200 7.053,7.526 6.863 C 5.599 6.320,3.767 5.189,2.518 3.769 L 2.219 3.430 2.160 3.507 C 2.066 3.628,1.844 4.224,1.783 4.517 C 1.586 5.467,1.791 6.502,2.335 7.303 C 2.515 7.568,2.889 7.961,3.147 8.156 L 3.350 8.309 3.092 8.287 C 2.690 8.251,2.243 8.119,1.708 7.878 C 1.656 7.855,1.654 8.003,1.702 8.352 C 1.902 9.787,2.865 10.920,4.278 11.382 L 4.610 11.491 4.430 11.537 C 4.308 11.568,4.049 11.583,3.625 11.583 C 3.220 11.583,3.000 11.595,3.000 11.618 C 3.000 11.700,3.379 12.403,3.530 12.602 C 4.144 13.411,5.093 13.951,6.094 14.062 C 6.246 14.079,6.378 14.100,6.387 14.109 C 6.406 14.129,6.067 14.373,5.758 14.562 C 4.948 15.057,3.901 15.435,2.933 15.581 C 2.481 15.650,1.628 15.680,1.267 15.641 C 1.111 15.624,0.980 15.612,0.976 15.615 C 0.958 15.628,1.589 15.981,1.950 16.160 C 3.063 16.711,4.332 17.072,5.617 17.202 C 6.174 17.258,7.370 17.249,7.913 17.185 C 9.971 16.940,11.636 16.272,13.200 15.066 C 13.612 14.748,14.516 13.845,14.868 13.400 C 15.807 12.213,16.491 10.840,16.867 9.389 C 17.100 8.488,17.199 7.739,17.201 6.871 L 17.202 6.350 17.399 6.207 C 17.624 6.043,18.117 5.590,18.380 5.304 C 18.586 5.079,18.950 4.626,19.003 4.529 C 19.034 4.469,19.031 4.465,18.976 4.495 C 18.869 4.552,18.133 4.799,17.869 4.866 C 17.572 4.941,16.998 5.043,16.979 5.023 C 16.972 5.016,17.048 4.955,17.149 4.889 C 17.607 4.584,18.096 4.013,18.348 3.489 C 18.588 2.987,18.597 3.001,18.161 3.219 C 17.586 3.508,17.073 3.696,16.442 3.848 L 16.201 3.907 15.992 3.718 C 15.562 3.328,15.004 3.025,14.440 2.877 C 13.988 2.757,13.163 2.736,12.717 2.833 " fill="#19191C" stroke="none" fill-rule="evenodd"></path></svg>