<svg xmlns="http://www.w3.org/2000/svg" viewBox="0 0 24 24" fill="currentColor"><path d="M11.540 3.026 C 11.187 3.081,10.722 3.215,10.460 3.336 C 9.274 3.884,8.461 4.974,8.283 6.255 C 8.225 6.676,8.229 6.925,8.301 7.339 C 8.444 8.159,8.779 8.819,9.339 9.382 C 10.066 10.112,10.978 10.492,12.000 10.492 C 13.453 10.492,14.722 9.696,15.360 8.386 C 15.644 7.803,15.736 7.392,15.733 6.720 C 15.730 6.116,15.661 5.782,15.429 5.243 C 14.985 4.216,14.002 3.384,12.920 3.119 C 12.587 3.038,11.800 2.984,11.540 3.026 M4.700 6.803 C 3.606 6.988,2.674 7.856,2.352 8.988 C 2.249 9.350,2.230 10.095,2.315 10.400 C 2.667 11.665,3.520 12.471,4.752 12.704 C 5.950 12.930,7.251 12.305,7.868 11.207 C 8.096 10.800,8.205 10.405,8.230 9.896 C 8.256 9.338,8.181 8.962,7.941 8.460 C 7.636 7.820,7.192 7.376,6.540 7.059 C 5.983 6.789,5.325 6.698,4.700 6.803 M18.101 6.824 C 17.429 6.974,16.751 7.412,16.349 7.955 C 15.657 8.889,15.569 10.206,16.132 11.207 C 16.749 12.305,18.050 12.930,19.248 12.704 C 20.539 12.460,21.460 11.539,21.704 10.248 C 21.973 8.823,21.069 7.347,19.647 6.891 C 19.245 6.762,18.517 6.730,18.101 6.824 M11.254 12.044 C 10.242 12.162,9.271 12.501,8.427 13.031 C 7.234 13.781,6.281 14.904,5.774 16.160 C 5.398 17.089,5.265 17.763,5.262 18.760 C 5.259 19.844,5.306 19.915,6.367 20.434 C 9.125 21.782,12.172 22.104,15.123 21.359 C 16.079 21.118,17.076 20.738,17.920 20.294 C 18.680 19.894,18.739 19.785,18.738 18.780 C 18.738 18.050,18.694 17.689,18.532 17.064 C 18.216 15.845,17.685 14.925,16.761 13.997 C 16.157 13.390,15.641 13.016,14.944 12.680 C 13.809 12.133,12.471 11.902,11.254 12.044 M19.042 14.457 C 19.441 15.129,19.784 15.933,19.963 16.620 C 20.141 17.303,20.208 17.795,20.235 18.625 L 20.260 19.390 20.713 19.298 C 21.217 19.196,22.134 18.916,22.265 18.823 C 22.433 18.703,22.492 18.496,22.492 18.021 C 22.493 16.519,21.675 15.238,20.305 14.598 C 19.935 14.425,19.627 14.338,19.211 14.289 L 18.922 14.255 19.042 14.457 M4.420 14.346 C 3.640 14.511,2.767 15.067,2.286 15.706 C 1.762 16.403,1.507 17.160,1.508 18.021 C 1.508 18.496,1.567 18.703,1.735 18.823 C 1.866 18.916,2.783 19.196,3.287 19.298 L 3.740 19.390 3.765 18.625 C 3.792 17.795,3.859 17.303,4.037 16.620 C 4.215 15.938,4.545 15.151,4.904 14.555 C 4.979 14.431,5.040 14.318,5.040 14.305 C 5.040 14.262,4.712 14.284,4.420 14.346 " stroke="none" fill-rule="evenodd"></path></svg>