<svg xmlns="http://www.w3.org/2000/svg" viewBox="0 0 24 24" fill="currentColor"><path d="M11.173 1.579 C 10.328 1.733,9.438 2.203,8.815 2.827 C 7.069 4.573,7.072 7.430,8.821 9.179 C 10.381 10.739,12.890 10.935,14.645 9.634 C 16.439 8.304,17.001 5.969,16.011 3.964 C 15.414 2.756,14.148 1.814,12.805 1.579 C 12.398 1.508,11.567 1.508,11.173 1.579 M10.880 12.064 C 8.561 12.372,6.425 13.721,5.108 15.707 C 4.318 16.898,3.842 18.338,3.772 19.742 C 3.744 20.312,3.780 20.456,3.994 20.650 C 4.295 20.922,6.146 21.616,7.420 21.935 C 8.985 22.326,10.346 22.491,12.020 22.489 C 13.785 22.488,15.296 22.288,16.925 21.841 C 18.197 21.492,19.729 20.900,20.006 20.650 C 20.221 20.456,20.256 20.312,20.227 19.742 C 20.097 17.128,18.620 14.639,16.369 13.243 C 15.362 12.619,14.227 12.211,13.086 12.064 C 12.487 11.986,11.464 11.987,10.880 12.064 " stroke="none" fill-rule="evenodd"></path></svg>