<svg xmlns="http://www.w3.org/2000/svg" width="25" height="24" fill="none"><path d="M3.715 4.042 C 3.743 4.123,12.980 19.955,13.000 19.955 C 13.020 19.955,22.257 4.123,22.285 4.042 C 22.294 4.015,21.103 4.000,18.821 4.000 L 15.344 4.001 14.203 6.000 C 13.576 7.099,13.053 7.999,13.042 7.999 C 13.030 7.999,12.488 7.100,11.837 6.000 L 10.654 4.001 7.178 4.000 C 4.897 4.000,3.706 4.015,3.715 4.042 M7.500 4.250 C 7.525 4.296,7.535 4.333,7.524 4.333 C 7.512 4.333,7.483 4.296,7.458 4.250 C 7.434 4.204,7.423 4.167,7.435 4.167 C 7.446 4.167,7.475 4.204,7.500 4.250 M18.542 4.250 C 18.517 4.296,18.488 4.333,18.476 4.333 C 18.465 4.333,18.475 4.296,18.500 4.250 C 18.525 4.204,18.554 4.167,18.565 4.167 C 18.577 4.167,18.566 4.204,18.542 4.250 M7.792 4.750 C 7.816 4.796,7.827 4.833,7.815 4.833 C 7.804 4.833,7.775 4.796,7.750 4.750 C 7.725 4.704,7.715 4.667,7.726 4.667 C 7.738 4.667,7.767 4.704,7.792 4.750 M7.917 4.958 C 7.941 5.004,7.952 5.042,7.940 5.042 C 7.929 5.042,7.900 5.004,7.875 4.958 C 7.850 4.912,7.840 4.875,7.851 4.875 C 7.863 4.875,7.892 4.912,7.917 4.958 M18.125 4.958 C 18.100 5.004,18.071 5.042,18.060 5.042 C 18.048 5.042,18.059 5.004,18.083 4.958 C 18.108 4.912,18.137 4.875,18.149 4.875 C 18.160 4.875,18.150 4.912,18.125 4.958 M9.877 10.292 C 11.583 13.202,12.988 15.583,13.000 15.583 C 13.012 15.583,14.417 13.202,16.123 10.292 L 19.225 5.000 19.904 5.000 C 20.278 5.000,20.583 5.009,20.583 5.021 C 20.583 5.062,13.024 18.000,13.000 18.000 C 12.976 18.000,5.417 5.062,5.417 5.021 C 5.417 5.009,5.722 5.000,6.096 5.000 L 6.775 5.000 9.877 10.292 M8.208 5.458 C 8.233 5.504,8.244 5.542,8.232 5.542 C 8.221 5.542,8.191 5.504,8.167 5.458 C 8.142 5.412,8.131 5.375,8.143 5.375 C 8.154 5.375,8.184 5.412,8.208 5.458 M17.833 5.458 C 17.809 5.504,17.779 5.542,17.768 5.542 C 17.756 5.542,17.767 5.504,17.792 5.458 C 17.816 5.412,17.846 5.375,17.857 5.375 C 17.869 5.375,17.858 5.412,17.833 5.458 M8.500 5.958 C 8.525 6.004,8.535 6.042,8.524 6.042 C 8.512 6.042,8.483 6.004,8.458 5.958 C 8.434 5.912,8.423 5.875,8.435 5.875 C 8.446 5.875,8.475 5.912,8.500 5.958 M8.625 6.167 C 8.650 6.212,8.660 6.250,8.649 6.250 C 8.637 6.250,8.608 6.212,8.583 6.167 C 8.559 6.121,8.548 6.083,8.560 6.083 C 8.571 6.083,8.600 6.121,8.625 6.167 M17.417 6.167 C 17.392 6.212,17.363 6.250,17.351 6.250 C 17.340 6.250,17.350 6.212,17.375 6.167 C 17.400 6.121,17.429 6.083,17.440 6.083 C 17.452 6.083,17.441 6.121,17.417 6.167 M8.917 6.667 C 8.941 6.712,8.952 6.750,8.940 6.750 C 8.929 6.750,8.900 6.712,8.875 6.667 C 8.850 6.621,8.840 6.583,8.851 6.583 C 8.863 6.583,8.892 6.621,8.917 6.667 M17.125 6.667 C 17.100 6.712,17.071 6.750,17.060 6.750 C 17.048 6.750,17.059 6.712,17.083 6.667 C 17.108 6.621,17.137 6.583,17.149 6.583 C 17.160 6.583,17.150 6.621,17.125 6.667 M9.208 7.167 C 9.233 7.212,9.244 7.250,9.232 7.250 C 9.221 7.250,9.191 7.212,9.167 7.167 C 9.142 7.121,9.131 7.083,9.143 7.083 C 9.154 7.083,9.184 7.121,9.208 7.167 M9.333 7.375 C 9.358 7.421,9.369 7.458,9.357 7.458 C 9.346 7.458,9.316 7.421,9.292 7.375 C 9.267 7.329,9.256 7.292,9.268 7.292 C 9.279 7.292,9.309 7.329,9.333 7.375 M16.708 7.375 C 16.684 7.421,16.654 7.458,16.643 7.458 C 16.631 7.458,16.642 7.421,16.667 7.375 C 16.691 7.329,16.721 7.292,16.732 7.292 C 16.744 7.292,16.733 7.329,16.708 7.375 M9.625 7.875 C 9.650 7.921,9.660 7.958,9.649 7.958 C 9.637 7.958,9.608 7.921,9.583 7.875 C 9.559 7.829,9.548 7.792,9.560 7.792 C 9.571 7.792,9.600 7.829,9.625 7.875 M16.417 7.875 C 16.392 7.921,16.363 7.958,16.351 7.958 C 16.340 7.958,16.350 7.921,16.375 7.875 C 16.400 7.829,16.429 7.792,16.440 7.792 C 16.452 7.792,16.441 7.829,16.417 7.875 M9.917 8.375 C 9.941 8.421,9.952 8.458,9.940 8.458 C 9.929 8.458,9.900 8.421,9.875 8.375 C 9.850 8.329,9.840 8.292,9.851 8.292 C 9.863 8.292,9.892 8.329,9.917 8.375 M10.042 8.583 C 10.066 8.629,10.077 8.667,10.065 8.667 C 10.054 8.667,10.025 8.629,10.000 8.583 C 9.975 8.537,9.965 8.500,9.976 8.500 C 9.988 8.500,10.017 8.537,10.042 8.583 M16.000 8.583 C 15.975 8.629,15.946 8.667,15.935 8.667 C 15.923 8.667,15.934 8.629,15.958 8.583 C 15.983 8.537,16.012 8.500,16.024 8.500 C 16.035 8.500,16.025 8.537,16.000 8.583 M10.333 9.083 C 10.358 9.129,10.369 9.167,10.357 9.167 C 10.346 9.167,10.316 9.129,10.292 9.083 C 10.267 9.037,10.256 9.000,10.268 9.000 C 10.279 9.000,10.309 9.037,10.333 9.083 M15.708 9.083 C 15.684 9.129,15.654 9.167,15.643 9.167 C 15.631 9.167,15.642 9.129,15.667 9.083 C 15.691 9.037,15.721 9.000,15.732 9.000 C 15.744 9.000,15.733 9.037,15.708 9.083 M10.625 9.583 C 10.650 9.629,10.660 9.667,10.649 9.667 C 10.637 9.667,10.608 9.629,10.583 9.583 C 10.559 9.537,10.548 9.500,10.560 9.500 C 10.571 9.500,10.600 9.537,10.625 9.583 M10.750 9.792 C 10.775 9.837,10.785 9.875,10.774 9.875 C 10.762 9.875,10.733 9.837,10.708 9.792 C 10.684 9.746,10.673 9.708,10.685 9.708 C 10.696 9.708,10.725 9.746,10.750 9.792 M15.292 9.792 C 15.267 9.837,15.238 9.875,15.226 9.875 C 15.215 9.875,15.225 9.837,15.250 9.792 C 15.275 9.746,15.304 9.708,15.315 9.708 C 15.327 9.708,15.316 9.746,15.292 9.792 M11.042 10.292 C 11.066 10.337,11.077 10.375,11.065 10.375 C 11.054 10.375,11.025 10.337,11.000 10.292 C 10.975 10.246,10.965 10.208,10.976 10.208 C 10.988 10.208,11.017 10.246,11.042 10.292 M15.000 10.292 C 14.975 10.337,14.946 10.375,14.935 10.375 C 14.923 10.375,14.934 10.337,14.958 10.292 C 14.983 10.246,15.012 10.208,15.024 10.208 C 15.035 10.208,15.025 10.246,15.000 10.292 M11.333 10.792 C 11.358 10.838,11.369 10.875,11.357 10.875 C 11.346 10.875,11.316 10.838,11.292 10.792 C 11.267 10.746,11.256 10.708,11.268 10.708 C 11.279 10.708,11.309 10.746,11.333 10.792 M11.458 11.000 C 11.483 11.046,11.494 11.083,11.482 11.083 C 11.471 11.083,11.441 11.046,11.417 11.000 C 11.392 10.954,11.381 10.917,11.393 10.917 C 11.404 10.917,11.434 10.954,11.458 11.000 M14.583 11.000 C 14.559 11.046,14.529 11.083,14.518 11.083 C 14.506 11.083,14.517 11.046,14.542 11.000 C 14.566 10.954,14.596 10.917,14.607 10.917 C 14.619 10.917,14.608 10.954,14.583 11.000 M11.750 11.500 C 11.775 11.546,11.785 11.583,11.774 11.583 C 11.762 11.583,11.733 11.546,11.708 11.500 C 11.684 11.454,11.673 11.417,11.685 11.417 C 11.696 11.417,11.725 11.454,11.750 11.500 M14.292 11.500 C 14.267 11.546,14.238 11.583,14.226 11.583 C 14.215 11.583,14.225 11.546,14.250 11.500 C 14.275 11.454,14.304 11.417,14.315 11.417 C 14.327 11.417,14.316 11.454,14.292 11.500 M12.042 12.000 C 12.066 12.046,12.077 12.083,12.065 12.083 C 12.054 12.083,12.025 12.046,12.000 12.000 C 11.975 11.954,11.965 11.917,11.976 11.917 C 11.988 11.917,12.017 11.954,12.042 12.000 M12.167 12.208 C 12.191 12.254,12.202 12.292,12.190 12.292 C 12.179 12.292,12.150 12.254,12.125 12.208 C 12.100 12.162,12.090 12.125,12.101 12.125 C 12.113 12.125,12.142 12.162,12.167 12.208 M13.875 12.208 C 13.850 12.254,13.821 12.292,13.810 12.292 C 13.798 12.292,13.809 12.254,13.833 12.208 C 13.858 12.162,13.887 12.125,13.899 12.125 C 13.910 12.125,13.900 12.162,13.875 12.208 M12.458 12.708 C 12.483 12.754,12.494 12.792,12.482 12.792 C 12.471 12.792,12.441 12.754,12.417 12.708 C 12.392 12.662,12.381 12.625,12.393 12.625 C 12.404 12.625,12.434 12.662,12.458 12.708 M13.583 12.708 C 13.559 12.754,13.529 12.792,13.518 12.792 C 13.506 12.792,13.517 12.754,13.542 12.708 C 13.566 12.662,13.596 12.625,13.607 12.625 C 13.619 12.625,13.608 12.662,13.583 12.708 M12.750 13.208 C 12.775 13.254,12.785 13.292,12.774 13.292 C 12.762 13.292,12.733 13.254,12.708 13.208 C 12.684 13.162,12.673 13.125,12.685 13.125 C 12.696 13.125,12.725 13.162,12.750 13.208 M12.875 13.417 C 12.900 13.463,12.910 13.500,12.899 13.500 C 12.887 13.500,12.858 13.463,12.833 13.417 C 12.809 13.371,12.798 13.333,12.810 13.333 C 12.821 13.333,12.850 13.371,12.875 13.417 M13.167 13.417 C 13.142 13.463,13.113 13.500,13.101 13.500 C 13.090 13.500,13.100 13.463,13.125 13.417 C 13.150 13.371,13.179 13.333,13.190 13.333 C 13.202 13.333,13.191 13.371,13.167 13.417 " stroke="none" fill-rule="evenodd" fill="black"></path></svg>