<svg width="53" height="53" viewBox="0 0 53 53" fill="none" xmlns="http://www.w3.org/2000/svg" xmlns:xlink="http://www.w3.org/1999/xlink"><path d="M8.675 0.095 C 6.506 0.376,4.243 1.541,2.724 3.159 C 1.334 4.639,0.443 6.456,0.130 8.449 C 0.010 9.217,-0.003 11.376,0.023 26.898 C 0.056 46.083,0.019 44.691,0.539 46.210 C 1.771 49.806,5.001 52.437,8.765 52.909 C 9.810 53.040,43.139 53.033,44.211 52.902 C 46.437 52.629,48.436 51.649,50.043 50.043 C 51.649 48.436,52.629 46.437,52.902 44.211 C 53.029 43.178,53.035 9.721,52.909 8.745 C 52.621 6.520,51.495 4.287,49.899 2.778 C 48.352 1.314,46.353 0.363,44.255 0.091 C 43.442 -0.014,9.486 -0.011,8.675 0.095 M20.935 9.899 C 22.644 10.009,24.261 10.206,25.352 10.438 C 26.422 10.666,28.333 11.292,29.025 11.642 C 33.120 13.709,35.137 17.732,35.379 24.318 L 35.429 25.661 35.216 25.128 C 34.661 23.742,34.072 22.837,33.086 21.856 C 30.294 19.079,25.214 17.492,18.331 17.244 L 16.588 17.181 16.126 15.988 C 14.377 11.474,14.119 10.746,14.172 10.468 C 14.223 10.195,14.482 9.884,14.752 9.773 C 14.926 9.700,19.193 9.788,20.935 9.899 M21.642 20.276 C 25.355 20.680,28.218 21.593,30.454 23.087 C 32.816 24.666,34.509 27.365,35.146 30.570 C 35.419 31.945,35.512 32.822,35.571 34.605 C 35.611 35.795,35.599 36.217,35.524 36.217 C 35.468 36.217,35.421 36.147,35.421 36.062 C 35.419 35.741,34.635 34.005,34.168 33.288 C 31.901 29.809,27.596 27.978,20.994 27.683 C 20.233 27.649,19.610 27.615,19.610 27.608 C 19.610 27.600,19.349 26.861,19.030 25.965 C 17.093 20.523,17.141 20.728,17.691 20.266 L 17.974 20.027 19.212 20.087 C 19.892 20.120,20.986 20.205,21.642 20.276 M23.673 30.612 C 29.282 31.254,32.500 33.379,34.138 37.524 C 34.785 39.161,35.101 40.859,35.256 43.539 C 35.339 44.959,35.285 46.833,35.176 46.331 C 35.049 45.745,34.463 44.185,34.120 43.518 C 32.966 41.280,31.379 39.895,29.106 39.144 C 27.878 38.738,26.761 38.582,24.653 38.523 L 22.761 38.469 21.979 36.261 C 21.549 35.046,20.999 33.493,20.757 32.810 C 20.515 32.127,20.317 31.444,20.317 31.293 C 20.317 31.127,20.407 30.912,20.545 30.747 C 20.772 30.478,20.783 30.475,21.627 30.475 C 22.097 30.475,23.017 30.537,23.673 30.612 " stroke="none" fill="black" fill-rule="evenodd"></path></svg>