<svg width="20" height="20" viewBox="0 0 20 20" fill="none" xmlns="http://www.w3.org/2000/svg"><path d="M4.287 2.047 C 4.115 2.111,3.946 2.280,3.880 2.455 C 3.775 2.729,3.812 2.870,4.370 4.317 L 4.885 5.650 5.767 5.688 C 7.869 5.780,9.338 6.035,10.717 6.549 C 11.188 6.725,11.961 7.129,12.332 7.392 C 13.124 7.955,13.718 8.726,14.000 9.559 L 14.099 9.850 14.099 9.427 C 14.100 9.194,14.084 8.812,14.065 8.577 C 13.827 5.688,12.921 3.971,11.131 3.020 C 9.884 2.357,8.283 2.083,5.267 2.017 C 4.571 2.002,4.393 2.007,4.287 2.047 M5.746 7.097 C 5.481 7.218,5.309 7.569,5.369 7.870 C 5.385 7.950,5.620 8.632,5.891 9.383 L 6.383 10.750 7.067 10.772 C 9.231 10.842,10.878 11.274,12.103 12.094 C 13.065 12.738,13.767 13.688,14.078 14.766 L 14.159 15.050 14.183 14.700 C 14.210 14.296,14.155 13.244,14.080 12.733 C 13.917 11.617,13.577 10.658,13.084 9.917 C 11.952 8.217,9.932 7.315,6.702 7.068 C 6.074 7.020,5.905 7.025,5.746 7.097 M7.345 12.100 C 7.167 12.140,7.022 12.246,6.920 12.411 C 6.738 12.706,6.746 12.745,7.368 14.475 L 7.917 16.000 8.528 16.000 C 10.510 16.000,11.730 16.388,12.650 17.312 C 13.261 17.926,13.568 18.501,13.994 19.833 C 14.053 20.017,14.016 18.053,13.951 17.536 C 13.791 16.260,13.452 15.252,12.911 14.442 C 12.522 13.858,11.818 13.245,11.152 12.909 C 10.373 12.516,9.273 12.231,8.167 12.135 C 7.481 12.076,7.454 12.075,7.345 12.100 " fill="#2D2D31" stroke="none" fill-rule="evenodd"></path></svg>