<svg xmlns="http://www.w3.org/2000/svg" width="20" height="20" fill="none" viewBox="0 0 20 20"><path fill-rule="evenodd" stroke="none" d="M1.224 2.042 C 1.706 2.660,7.867 10.737,7.867 10.749 C 7.867 10.759,6.449 12.387,4.717 14.367 C 2.984 16.346,1.567 17.974,1.567 17.983 C 1.567 17.992,2.171 18.000,2.910 18.000 L 4.254 18.000 6.685 15.219 C 8.023 13.690,9.132 12.442,9.150 12.447 C 9.168 12.451,10.136 13.701,11.300 15.225 L 13.417 17.996 16.142 17.998 C 17.640 17.999,18.867 17.992,18.867 17.983 C 18.867 17.974,17.306 15.903,15.398 13.381 C 13.490 10.859,11.934 8.783,11.940 8.767 C 11.945 8.751,13.238 7.265,14.813 5.466 C 16.387 3.667,17.712 2.151,17.757 2.098 L 17.839 2.000 16.478 2.002 L 15.117 2.004 12.950 4.487 C 11.758 5.852,10.753 6.998,10.716 7.033 C 10.648 7.098,10.644 7.092,8.720 4.549 L 6.792 2.000 3.992 2.000 C 1.757 2.000,1.198 2.008,1.224 2.042 M10.759 9.867 C 13.388 13.341,15.568 16.225,15.605 16.275 L 15.671 16.367 14.922 16.367 L 14.172 16.367 9.298 9.992 C 6.617 6.485,4.409 3.598,4.391 3.574 C 4.364 3.540,4.517 3.534,5.169 3.541 L 5.980 3.550 10.759 9.867"/></svg>