<svg xmlns="http://www.w3.org/2000/svg" width="20" height="20" fill="none" viewBox="0 0 20 20"><path fill="#19191C" fill-rule="evenodd" stroke="none" d="M7.215 4.069 C 5.119 4.109,3.868 4.185,3.407 4.303 C 3.125 4.374,2.783 4.545,2.563 4.725 C 1.909 5.256,1.593 6.513,1.499 8.951 C 1.434 10.651,1.581 13.093,1.799 13.946 C 1.883 14.275,2.018 14.611,2.150 14.817 C 2.398 15.207,2.879 15.531,3.404 15.664 C 4.666 15.983,10.685 16.061,15.150 15.816 C 16.432 15.746,16.645 15.713,17.017 15.525 C 17.633 15.214,17.905 14.808,18.151 13.833 C 18.541 12.291,18.626 9.486,18.347 7.317 C 18.218 6.311,17.970 5.393,17.737 5.060 C 17.502 4.723,17.037 4.424,16.559 4.303 C 16.075 4.179,14.981 4.116,12.517 4.067 C 10.679 4.031,9.188 4.032,7.215 4.069 M9.567 8.055 C 9.833 8.193,10.676 8.646,11.442 9.062 C 12.666 9.726,12.827 9.822,12.775 9.860 C 12.655 9.949,11.222 10.701,8.958 11.861 L 8.300 12.199 8.300 9.817 L 8.300 7.436 8.692 7.620 C 8.907 7.721,9.301 7.917,9.567 8.055"/></svg>