<svg xmlns="http://www.w3.org/2000/svg" width="20" height="20" fill="none"><path d="M7.061 4.069 C 5.087 4.109,3.863 4.187,3.412 4.302 C 2.981 4.411,2.564 4.667,2.304 4.982 C 1.973 5.383,1.714 6.316,1.584 7.575 C 1.403 9.325,1.488 12.398,1.754 13.743 C 1.955 14.760,2.432 15.362,3.243 15.618 C 3.867 15.815,5.484 15.916,8.633 15.954 C 11.549 15.990,16.025 15.838,16.600 15.684 C 17.057 15.562,17.535 15.227,17.765 14.870 C 18.278 14.070,18.582 11.750,18.497 9.287 C 18.441 7.684,18.278 6.500,17.994 5.642 C 17.838 5.170,17.704 4.957,17.422 4.729 C 17.036 4.418,16.607 4.267,15.930 4.203 C 14.447 4.062,10.436 4.002,7.061 4.069 M9.500 8.021 C 10.598 8.588,12.831 9.815,12.808 9.838 C 12.744 9.901,11.480 10.563,8.808 11.936 L 8.300 12.197 8.300 9.816 L 8.300 7.436 8.625 7.586 C 8.804 7.669,9.197 7.865,9.500 8.021 " fill="#19191C" stroke="none" fill-rule="evenodd"></path></svg>