<svg width="212" height="272" viewBox="0 0 212 272" fill="none" xmlns="http://www.w3.org/2000/svg">
<g opacity="0.12">
<path d="M5.99902 0V12" stroke="#FD366E" stroke-width="0.603399"/>
<path d="M12 5.99902L1.3411e-07 5.99902" stroke="#FD366E" stroke-width="0.603399"/>
<path d="M5.99902 32.5V44.5" stroke="#FD366E" stroke-width="0.603399"/>
<path d="M12 38.499L1.3411e-07 38.499" stroke="#FD366E" stroke-width="0.603399"/>
<path d="M5.99902 65V77" stroke="#FD366E" stroke-width="0.603399"/>
<path d="M12 70.999L1.3411e-07 70.999" stroke="#FD366E" stroke-width="0.603399"/>
<path d="M5.99902 97.5V109.5" stroke="#FD366E" stroke-width="0.603399"/>
<path d="M12 103.499L1.3411e-07 103.499" stroke="#FD366E" stroke-width="0.603399"/>
<path d="M5.99902 130V142" stroke="#FD366E" stroke-width="0.603399"/>
<path d="M12 135.999L1.3411e-07 135.999" stroke="#FD366E" stroke-width="0.603399"/>
<path d="M5.99902 162.5V174.5" stroke="#FD366E" stroke-width="0.603399"/>
<path d="M12 168.499L1.3411e-07 168.499" stroke="#FD366E" stroke-width="0.603399"/>
<path d="M5.99902 195V207" stroke="#FD366E" stroke-width="0.603399"/>
<path d="M12 200.999L1.3411e-07 200.999" stroke="#FD366E" stroke-width="0.603399"/>
<path d="M5.99902 227.5V239.5" stroke="#FD366E" stroke-width="0.603399"/>
<path d="M12 233.499L1.3411e-07 233.499" stroke="#FD366E" stroke-width="0.603399"/>
<path d="M5.99902 260V272" stroke="#FD366E" stroke-width="0.603399"/>
<path d="M12 265.999L1.3411e-07 265.999" stroke="#FD366E" stroke-width="0.603399"/>
<path d="M39.332 0V12" stroke="#FD366E" stroke-width="0.603399"/>
<path d="M45.333 5.99902L33.333 5.99902" stroke="#FD366E" stroke-width="0.603399"/>
<path d="M39.332 32.5V44.5" stroke="#FD366E" stroke-width="0.603399"/>
<path d="M45.333 38.499L33.333 38.499" stroke="#FD366E" stroke-width="0.603399"/>
<path d="M39.332 65V77" stroke="#FD366E" stroke-width="0.603399"/>
<path d="M45.333 70.999L33.333 70.999" stroke="#FD366E" stroke-width="0.603399"/>
<path d="M39.332 97.5V109.5" stroke="#FD366E" stroke-width="0.603399"/>
<path d="M45.333 103.499L33.333 103.499" stroke="#FD366E" stroke-width="0.603399"/>
<path d="M39.332 130V142" stroke="#FD366E" stroke-width="0.603399"/>
<path d="M45.333 135.999L33.333 135.999" stroke="#FD366E" stroke-width="0.603399"/>
<path d="M39.332 162.5V174.5" stroke="#FD366E" stroke-width="0.603399"/>
<path d="M45.333 168.499L33.333 168.499" stroke="#FD366E" stroke-width="0.603399"/>
<path d="M39.332 195V207" stroke="#FD366E" stroke-width="0.603399"/>
<path d="M45.333 200.999L33.333 200.999" stroke="#FD366E" stroke-width="0.603399"/>
<path d="M39.332 227.5V239.5" stroke="#FD366E" stroke-width="0.603399"/>
<path d="M45.333 233.499L33.333 233.499" stroke="#FD366E" stroke-width="0.603399"/>
<path d="M39.332 260V272" stroke="#FD366E" stroke-width="0.603399"/>
<path d="M45.333 265.999L33.333 265.999" stroke="#FD366E" stroke-width="0.603399"/>
<path d="M72.666 0V12" stroke="#FD366E" stroke-width="0.603399"/>
<path d="M78.667 5.99902L66.667 5.99902" stroke="#FD366E" stroke-width="0.603399"/>
<path d="M72.666 32.5V44.5" stroke="#FD366E" stroke-width="0.603399"/>
<path d="M78.667 38.499L66.667 38.499" stroke="#FD366E" stroke-width="0.603399"/>
<path d="M72.666 65V77" stroke="#FD366E" stroke-width="0.603399"/>
<path d="M78.667 70.999L66.667 70.999" stroke="#FD366E" stroke-width="0.603399"/>
<path d="M72.666 97.5V109.5" stroke="#FD366E" stroke-width="0.603399"/>
<path d="M78.667 103.499L66.667 103.499" stroke="#FD366E" stroke-width="0.603399"/>
<path d="M72.666 130V142" stroke="#FD366E" stroke-width="0.603399"/>
<path d="M78.667 135.999L66.667 135.999" stroke="#FD366E" stroke-width="0.603399"/>
<path d="M72.666 162.5V174.5" stroke="#FD366E" stroke-width="0.603399"/>
<path d="M78.667 168.499L66.667 168.499" stroke="#FD366E" stroke-width="0.603399"/>
<path d="M72.666 195V207" stroke="#FD366E" stroke-width="0.603399"/>
<path d="M78.667 200.999L66.667 200.999" stroke="#FD366E" stroke-width="0.603399"/>
<path d="M72.666 227.5V239.5" stroke="#FD366E" stroke-width="0.603399"/>
<path d="M78.667 233.499L66.667 233.499" stroke="#FD366E" stroke-width="0.603399"/>
<path d="M72.666 260V272" stroke="#FD366E" stroke-width="0.603399"/>
<path d="M78.667 265.999L66.667 265.999" stroke="#FD366E" stroke-width="0.603399"/>
<path d="M105.999 0V12" stroke="#FD366E" stroke-width="0.603399"/>
<path d="M112 5.99902L100 5.99902" stroke="#FD366E" stroke-width="0.603399"/>
<path d="M105.999 32.5V44.5" stroke="#FD366E" stroke-width="0.603399"/>
<path d="M112 38.499L100 38.499" stroke="#FD366E" stroke-width="0.603399"/>
<path d="M105.999 65V77" stroke="#FD366E" stroke-width="0.603399"/>
<path d="M112 70.999L100 70.999" stroke="#FD366E" stroke-width="0.603399"/>
<path d="M105.999 97.5V109.5" stroke="#FD366E" stroke-width="0.603399"/>
<path d="M112 103.499L100 103.499" stroke="#FD366E" stroke-width="0.603399"/>
<path d="M105.999 130V142" stroke="#FD366E" stroke-width="0.603399"/>
<path d="M112 135.999L100 135.999" stroke="#FD366E" stroke-width="0.603399"/>
<path d="M105.999 162.5V174.5" stroke="#FD366E" stroke-width="0.603399"/>
<path d="M112 168.499L100 168.499" stroke="#FD366E" stroke-width="0.603399"/>
<path d="M105.999 195V207" stroke="#FD366E" stroke-width="0.603399"/>
<path d="M112 200.999L100 200.999" stroke="#FD366E" stroke-width="0.603399"/>
<path d="M105.999 227.5V239.5" stroke="#FD366E" stroke-width="0.603399"/>
<path d="M112 233.499L100 233.499" stroke="#FD366E" stroke-width="0.603399"/>
<path d="M105.999 260V272" stroke="#FD366E" stroke-width="0.603399"/>
<path d="M112 265.999L100 265.999" stroke="#FD366E" stroke-width="0.603399"/>
<path d="M139.332 0V12" stroke="#FD366E" stroke-width="0.603399"/>
<path d="M145.333 5.99902L133.333 5.99902" stroke="#FD366E" stroke-width="0.603399"/>
<path d="M139.332 32.5V44.5" stroke="#FD366E" stroke-width="0.603399"/>
<path d="M145.333 38.499L133.333 38.499" stroke="#FD366E" stroke-width="0.603399"/>
<path d="M139.332 65V77" stroke="#FD366E" stroke-width="0.603399"/>
<path d="M145.333 70.999L133.333 70.999" stroke="#FD366E" stroke-width="0.603399"/>
<path d="M139.332 97.5V109.5" stroke="#FD366E" stroke-width="0.603399"/>
<path d="M145.333 103.499L133.333 103.499" stroke="#FD366E" stroke-width="0.603399"/>
<path d="M139.332 130V142" stroke="#FD366E" stroke-width="0.603399"/>
<path d="M145.333 135.999L133.333 135.999" stroke="#FD366E" stroke-width="0.603399"/>
<path d="M139.332 162.5V174.5" stroke="#FD366E" stroke-width="0.603399"/>
<path d="M145.333 168.499L133.333 168.499" stroke="#FD366E" stroke-width="0.603399"/>
<path d="M139.332 195V207" stroke="#FD366E" stroke-width="0.603399"/>
<path d="M145.333 200.999L133.333 200.999" stroke="#FD366E" stroke-width="0.603399"/>
<path d="M139.332 227.5V239.5" stroke="#FD366E" stroke-width="0.603399"/>
<path d="M145.333 233.499L133.333 233.499" stroke="#FD366E" stroke-width="0.603399"/>
<path d="M139.332 260V272" stroke="#FD366E" stroke-width="0.603399"/>
<path d="M145.333 265.999L133.333 265.999" stroke="#FD366E" stroke-width="0.603399"/>
<path d="M172.666 0V12" stroke="#FD366E" stroke-width="0.603399"/>
<path d="M178.667 5.99902L166.667 5.99902" stroke="#FD366E" stroke-width="0.603399"/>
<path d="M172.666 32.5V44.5" stroke="#FD366E" stroke-width="0.603399"/>
<path d="M178.667 38.499L166.667 38.499" stroke="#FD366E" stroke-width="0.603399"/>
<path d="M172.666 65V77" stroke="#FD366E" stroke-width="0.603399"/>
<path d="M178.667 70.999L166.667 70.999" stroke="#FD366E" stroke-width="0.603399"/>
<path d="M172.666 97.5V109.5" stroke="#FD366E" stroke-width="0.603399"/>
<path d="M178.667 103.499L166.667 103.499" stroke="#FD366E" stroke-width="0.603399"/>
<path d="M172.666 130V142" stroke="#FD366E" stroke-width="0.603399"/>
<path d="M178.667 135.999L166.667 135.999" stroke="#FD366E" stroke-width="0.603399"/>
<path d="M172.666 162.5V174.5" stroke="#FD366E" stroke-width="0.603399"/>
<path d="M178.667 168.499L166.667 168.499" stroke="#FD366E" stroke-width="0.603399"/>
<path d="M172.666 195V207" stroke="#FD366E" stroke-width="0.603399"/>
<path d="M178.667 200.999L166.667 200.999" stroke="#FD366E" stroke-width="0.603399"/>
<path d="M172.666 227.5V239.5" stroke="#FD366E" stroke-width="0.603399"/>
<path d="M178.667 233.499L166.667 233.499" stroke="#FD366E" stroke-width="0.603399"/>
<path d="M172.666 260V272" stroke="#FD366E" stroke-width="0.603399"/>
<path d="M178.667 265.999L166.667 265.999" stroke="#FD366E" stroke-width="0.603399"/>
<path d="M205.999 0V12" stroke="#FD366E" stroke-width="0.603399"/>
<path d="M212 5.99902L200 5.99902" stroke="#FD366E" stroke-width="0.603399"/>
<path d="M205.999 32.5V44.5" stroke="#FD366E" stroke-width="0.603399"/>
<path d="M212 38.499L200 38.499" stroke="#FD366E" stroke-width="0.603399"/>
<path d="M205.999 65V77" stroke="#FD366E" stroke-width="0.603399"/>
<path d="M212 70.999L200 70.999" stroke="#FD366E" stroke-width="0.603399"/>
<path d="M205.999 97.5V109.5" stroke="#FD366E" stroke-width="0.603399"/>
<path d="M212 103.499L200 103.499" stroke="#FD366E" stroke-width="0.603399"/>
<path d="M205.999 130V142" stroke="#FD366E" stroke-width="0.603399"/>
<path d="M212 135.999L200 135.999" stroke="#FD366E" stroke-width="0.603399"/>
<path d="M205.999 162.5V174.5" stroke="#FD366E" stroke-width="0.603399"/>
<path d="M212 168.499L200 168.499" stroke="#FD366E" stroke-width="0.603399"/>
<path d="M205.999 195V207" stroke="#FD366E" stroke-width="0.603399"/>
<path d="M212 200.999L200 200.999" stroke="#FD366E" stroke-width="0.603399"/>
<path d="M205.999 227.5V239.5" stroke="#FD366E" stroke-width="0.603399"/>
<path d="M212 233.499L200 233.499" stroke="#FD366E" stroke-width="0.603399"/>
<path d="M205.999 260V272" stroke="#FD366E" stroke-width="0.603399"/>
<path d="M212 265.999L200 265.999" stroke="#FD366E" stroke-width="0.603399"/>
</g>
</svg>
