<svg width="233" height="293" viewBox="0 0 233 293" fill="none" xmlns="http://www.w3.org/2000/svg">
<g opacity="0.12">
<path d="M16.5 10.5V22.5" stroke="#FD366E" stroke-width="0.603399"/>
<path d="M22.5 16.499L10.5 16.499" stroke="#FD366E" stroke-width="0.603399"/>
<path d="M16.5 43V55" stroke="#FD366E" stroke-width="0.603399"/>
<path d="M22.5 48.999L10.5 48.999" stroke="#FD366E" stroke-width="0.603399"/>
<path d="M16.5 75.5V87.5" stroke="#FD366E" stroke-width="0.603399"/>
<path d="M22.5 81.499L10.5 81.499" stroke="#FD366E" stroke-width="0.603399"/>
<path d="M16.5 108V120" stroke="#FD366E" stroke-width="0.603399"/>
<path d="M22.5 113.999L10.5 113.999" stroke="#FD366E" stroke-width="0.603399"/>
<path d="M16.5 140.5V152.5" stroke="#FD366E" stroke-width="0.603399"/>
<path d="M22.5 146.499L10.5 146.499" stroke="#FD366E" stroke-width="0.603399"/>
<path d="M16.5 173V185" stroke="#FD366E" stroke-width="0.603399"/>
<path d="M22.5 178.999L10.5 178.999" stroke="#FD366E" stroke-width="0.603399"/>
<path d="M16.5 205.5V217.5" stroke="#FD366E" stroke-width="0.603399"/>
<path d="M22.5 211.499L10.5 211.499" stroke="#FD366E" stroke-width="0.603399"/>
<path d="M16.5 238V250" stroke="#FD366E" stroke-width="0.603399"/>
<path d="M22.5 243.999L10.5 243.999" stroke="#FD366E" stroke-width="0.603399"/>
<path d="M16.5 270.5V282.5" stroke="#FD366E" stroke-width="0.603399"/>
<path d="M22.5 276.499L10.5 276.499" stroke="#FD366E" stroke-width="0.603399"/>
<path d="M49.834 10.5V22.5" stroke="#FD366E" stroke-width="0.603399"/>
<path d="M55.834 16.499L43.834 16.499" stroke="#FD366E" stroke-width="0.603399"/>
<path d="M49.834 43V55" stroke="#FD366E" stroke-width="0.603399"/>
<path d="M55.834 48.999L43.834 48.999" stroke="#FD366E" stroke-width="0.603399"/>
<path d="M49.834 75.5V87.5" stroke="#FD366E" stroke-width="0.603399"/>
<path d="M55.834 81.499L43.834 81.499" stroke="#FD366E" stroke-width="0.603399"/>
<path d="M49.834 108V120" stroke="#FD366E" stroke-width="0.603399"/>
<path d="M55.834 113.999L43.834 113.999" stroke="#FD366E" stroke-width="0.603399"/>
<path d="M49.834 140.5V152.5" stroke="#FD366E" stroke-width="0.603399"/>
<path d="M55.834 146.499L43.834 146.499" stroke="#FD366E" stroke-width="0.603399"/>
<path d="M49.834 173V185" stroke="#FD366E" stroke-width="0.603399"/>
<path d="M55.834 178.999L43.834 178.999" stroke="#FD366E" stroke-width="0.603399"/>
<path d="M49.834 205.5V217.5" stroke="#FD366E" stroke-width="0.603399"/>
<path d="M55.834 211.499L43.834 211.499" stroke="#FD366E" stroke-width="0.603399"/>
<path d="M49.834 238V250" stroke="#FD366E" stroke-width="0.603399"/>
<path d="M55.834 243.999L43.834 243.999" stroke="#FD366E" stroke-width="0.603399"/>
<path d="M49.834 270.5V282.5" stroke="#FD366E" stroke-width="0.603399"/>
<path d="M55.834 276.499L43.834 276.499" stroke="#FD366E" stroke-width="0.603399"/>
<path d="M83.166 10.5V22.5" stroke="#FD366E" stroke-width="0.603399"/>
<path d="M89.166 16.499L77.166 16.499" stroke="#FD366E" stroke-width="0.603399"/>
<path d="M83.166 43V55" stroke="#FD366E" stroke-width="0.603399"/>
<path d="M89.166 48.999L77.166 48.999" stroke="#FD366E" stroke-width="0.603399"/>
<path d="M83.166 75.5V87.5" stroke="#FD366E" stroke-width="0.603399"/>
<path d="M89.166 81.499L77.166 81.499" stroke="#FD366E" stroke-width="0.603399"/>
<path d="M83.166 108V120" stroke="#FD366E" stroke-width="0.603399"/>
<path d="M89.166 113.999L77.166 113.999" stroke="#FD366E" stroke-width="0.603399"/>
<path d="M83.166 140.5V152.5" stroke="#FD366E" stroke-width="0.603399"/>
<path d="M89.166 146.499L77.166 146.499" stroke="#FD366E" stroke-width="0.603399"/>
<path d="M83.166 173V185" stroke="#FD366E" stroke-width="0.603399"/>
<path d="M89.166 178.999L77.166 178.999" stroke="#FD366E" stroke-width="0.603399"/>
<path d="M83.166 205.5V217.5" stroke="#FD366E" stroke-width="0.603399"/>
<path d="M89.166 211.499L77.166 211.499" stroke="#FD366E" stroke-width="0.603399"/>
<path d="M83.166 238V250" stroke="#FD366E" stroke-width="0.603399"/>
<path d="M89.166 243.999L77.166 243.999" stroke="#FD366E" stroke-width="0.603399"/>
<path d="M83.166 270.5V282.5" stroke="#FD366E" stroke-width="0.603399"/>
<path d="M89.166 276.499L77.166 276.499" stroke="#FD366E" stroke-width="0.603399"/>
<path d="M116.5 10.5V22.5" stroke="#FD366E" stroke-width="0.603399"/>
<path d="M122.5 16.499L110.5 16.499" stroke="#FD366E" stroke-width="0.603399"/>
<path d="M116.5 43V55" stroke="#FD366E" stroke-width="0.603399"/>
<path d="M122.5 48.999L110.5 48.999" stroke="#FD366E" stroke-width="0.603399"/>
<path d="M116.5 75.5V87.5" stroke="#FD366E" stroke-width="0.603399"/>
<path d="M122.5 81.499L110.5 81.499" stroke="#FD366E" stroke-width="0.603399"/>
<path d="M116.5 108V120" stroke="#FD366E" stroke-width="0.603399"/>
<path d="M122.5 113.999L110.5 113.999" stroke="#FD366E" stroke-width="0.603399"/>
<path d="M116.5 140.5V152.5" stroke="#FD366E" stroke-width="0.603399"/>
<path d="M122.5 146.499L110.5 146.499" stroke="#FD366E" stroke-width="0.603399"/>
<path d="M116.5 173V185" stroke="#FD366E" stroke-width="0.603399"/>
<path d="M122.5 178.999L110.5 178.999" stroke="#FD366E" stroke-width="0.603399"/>
<path d="M116.5 205.5V217.5" stroke="#FD366E" stroke-width="0.603399"/>
<path d="M122.5 211.499L110.5 211.499" stroke="#FD366E" stroke-width="0.603399"/>
<path d="M116.5 238V250" stroke="#FD366E" stroke-width="0.603399"/>
<path d="M122.5 243.999L110.5 243.999" stroke="#FD366E" stroke-width="0.603399"/>
<path d="M116.5 270.5V282.5" stroke="#FD366E" stroke-width="0.603399"/>
<path d="M122.5 276.499L110.5 276.499" stroke="#FD366E" stroke-width="0.603399"/>
<path d="M149.834 10.5V22.5" stroke="#FD366E" stroke-width="0.603399"/>
<path d="M155.834 16.499L143.834 16.499" stroke="#FD366E" stroke-width="0.603399"/>
<path d="M149.834 43V55" stroke="#FD366E" stroke-width="0.603399"/>
<path d="M155.834 48.999L143.834 48.999" stroke="#FD366E" stroke-width="0.603399"/>
<path d="M149.834 75.5V87.5" stroke="#FD366E" stroke-width="0.603399"/>
<path d="M155.834 81.499L143.834 81.499" stroke="#FD366E" stroke-width="0.603399"/>
<path d="M149.834 108V120" stroke="#FD366E" stroke-width="0.603399"/>
<path d="M155.834 113.999L143.834 113.999" stroke="#FD366E" stroke-width="0.603399"/>
<path d="M149.834 140.5V152.5" stroke="#FD366E" stroke-width="0.603399"/>
<path d="M155.834 146.499L143.834 146.499" stroke="#FD366E" stroke-width="0.603399"/>
<path d="M149.834 173V185" stroke="#FD366E" stroke-width="0.603399"/>
<path d="M155.834 178.999L143.834 178.999" stroke="#FD366E" stroke-width="0.603399"/>
<path d="M149.834 205.5V217.5" stroke="#FD366E" stroke-width="0.603399"/>
<path d="M155.834 211.499L143.834 211.499" stroke="#FD366E" stroke-width="0.603399"/>
<path d="M149.834 238V250" stroke="#FD366E" stroke-width="0.603399"/>
<path d="M155.834 243.999L143.834 243.999" stroke="#FD366E" stroke-width="0.603399"/>
<path d="M149.834 270.5V282.5" stroke="#FD366E" stroke-width="0.603399"/>
<path d="M155.834 276.499L143.834 276.499" stroke="#FD366E" stroke-width="0.603399"/>
<path d="M183.166 10.5V22.5" stroke="#FD366E" stroke-width="0.603399"/>
<path d="M189.166 16.499L177.166 16.499" stroke="#FD366E" stroke-width="0.603399"/>
<path d="M183.166 43V55" stroke="#FD366E" stroke-width="0.603399"/>
<path d="M189.166 48.999L177.166 48.999" stroke="#FD366E" stroke-width="0.603399"/>
<path d="M183.166 75.5V87.5" stroke="#FD366E" stroke-width="0.603399"/>
<path d="M189.166 81.499L177.166 81.499" stroke="#FD366E" stroke-width="0.603399"/>
<path d="M183.166 108V120" stroke="#FD366E" stroke-width="0.603399"/>
<path d="M189.166 113.999L177.166 113.999" stroke="#FD366E" stroke-width="0.603399"/>
<path d="M183.166 140.5V152.5" stroke="#FD366E" stroke-width="0.603399"/>
<path d="M189.166 146.499L177.166 146.499" stroke="#FD366E" stroke-width="0.603399"/>
<path d="M183.166 173V185" stroke="#FD366E" stroke-width="0.603399"/>
<path d="M189.166 178.999L177.166 178.999" stroke="#FD366E" stroke-width="0.603399"/>
<path d="M183.166 205.5V217.5" stroke="#FD366E" stroke-width="0.603399"/>
<path d="M189.166 211.499L177.166 211.499" stroke="#FD366E" stroke-width="0.603399"/>
<path d="M183.166 238V250" stroke="#FD366E" stroke-width="0.603399"/>
<path d="M189.166 243.999L177.166 243.999" stroke="#FD366E" stroke-width="0.603399"/>
<path d="M183.166 270.5V282.5" stroke="#FD366E" stroke-width="0.603399"/>
<path d="M189.166 276.499L177.166 276.499" stroke="#FD366E" stroke-width="0.603399"/>
<path d="M216.5 10.5V22.5" stroke="#FD366E" stroke-width="0.603399"/>
<path d="M222.5 16.499L210.5 16.499" stroke="#FD366E" stroke-width="0.603399"/>
<path d="M216.5 43V55" stroke="#FD366E" stroke-width="0.603399"/>
<path d="M222.5 48.999L210.5 48.999" stroke="#FD366E" stroke-width="0.603399"/>
<path d="M216.5 75.5V87.5" stroke="#FD366E" stroke-width="0.603399"/>
<path d="M222.5 81.499L210.5 81.499" stroke="#FD366E" stroke-width="0.603399"/>
<path d="M216.5 108V120" stroke="#FD366E" stroke-width="0.603399"/>
<path d="M222.5 113.999L210.5 113.999" stroke="#FD366E" stroke-width="0.603399"/>
<path d="M216.5 140.5V152.5" stroke="#FD366E" stroke-width="0.603399"/>
<path d="M222.5 146.499L210.5 146.499" stroke="#FD366E" stroke-width="0.603399"/>
<path d="M216.5 173V185" stroke="#FD366E" stroke-width="0.603399"/>
<path d="M222.5 178.999L210.5 178.999" stroke="#FD366E" stroke-width="0.603399"/>
<path d="M216.5 205.5V217.5" stroke="#FD366E" stroke-width="0.603399"/>
<path d="M222.5 211.499L210.5 211.499" stroke="#FD366E" stroke-width="0.603399"/>
<path d="M216.5 238V250" stroke="#FD366E" stroke-width="0.603399"/>
<path d="M222.5 243.999L210.5 243.999" stroke="#FD366E" stroke-width="0.603399"/>
<path d="M216.5 270.5V282.5" stroke="#FD366E" stroke-width="0.603399"/>
<path d="M222.5 276.499L210.5 276.499" stroke="#FD366E" stroke-width="0.603399"/>
</g>
</svg>
