<svg width="50" height="50" viewBox="0 0 50 50" fill="none" xmlns="http://www.w3.org/2000/svg">
<path fill-rule="evenodd" clip-rule="evenodd" d="M25.0022 0.836914C38.3485 0.836914 49.1672 11.9285 49.1672 25.6131C49.1672 36.5574 42.2511 45.8417 32.6552 49.1208C31.43 49.3649 30.9951 48.5912 30.9951 47.9315C30.9951 47.1147 31.0241 44.447 31.0241 41.1315C31.0241 38.8214 30.2508 37.3136 29.3833 36.5451C34.7648 35.9314 40.4194 33.8361 40.4194 24.3199C40.4194 21.6134 39.4818 19.4048 37.9304 17.6698C38.1817 17.0439 39.0106 14.5238 37.6936 11.1117C37.6936 11.1117 35.6686 10.4479 31.0555 13.6521C29.1247 13.1036 27.0562 12.8276 25.0022 12.8179C22.9481 12.8276 20.882 13.1036 18.9537 13.6521C14.3357 10.4479 12.3059 11.1117 12.3059 11.1117C10.9937 14.5238 11.8226 17.0439 12.0715 17.6698C10.5273 19.4048 9.58248 21.6134 9.58248 24.3199C9.58248 33.8119 15.225 35.9393 20.5921 36.5652C19.9009 37.1838 19.2751 38.2751 19.0576 39.8773C17.6802 40.5104 14.1811 41.6061 12.0255 37.8195C12.0255 37.8195 10.7472 35.4389 8.32106 35.2649C8.32106 35.2649 5.96497 35.2336 8.15673 36.7705C8.15673 36.7705 9.73954 37.5317 10.8391 40.3953C10.8391 40.3953 12.2575 44.8174 18.9802 43.3191C18.9923 45.3901 19.0141 47.3418 19.0141 47.9315C19.0141 48.5863 18.5694 49.3528 17.3636 49.1232C7.76042 45.8488 0.837158 36.5598 0.837158 25.6131C0.837158 11.9285 11.6582 0.836914 25.0022 0.836914Z" fill="white"/>
</svg>
