<svg width="1950" height="167" viewBox="0 0 1950 167" fill="none" xmlns="http://www.w3.org/2000/svg">
<g opacity="0.1" style="mix-blend-mode:difference">
<path d="M94.0387 1V17.9714H57.9095V149.029H94.0387V166H1V149.029H37.3654V17.9714H1V1H94.0387Z" stroke="white" stroke-width="2"/>
<path d="M124.044 166H104.208V1H124.044L203.15 127.814V1H222.75V166H203.15L124.044 38.95V166Z" stroke="white" stroke-width="2"/>
<path d="M325.886 1V17.9714H289.757V149.029H325.886V166H232.848V149.029H269.213V17.9714H232.848V1H325.886Z" stroke="white" stroke-width="2"/>
<path d="M408.396 166H387.852V19.8572H334.249V1H462V19.8572H408.396V166Z" stroke="white" stroke-width="2"/>
</g>
<path d="M587.039 1V17.9714H550.909V149.029H587.039V166H494V149.029H530.365V17.9714H494V1H587.039Z" fill="white"/>
<path d="M620.044 166H600.208V1H620.044L699.15 127.814V1H718.75V166H699.15L620.044 38.95V166Z" fill="white"/>
<path d="M823.886 1V17.9714H787.757V149.029H823.886V166H730.848V149.029H767.213V17.9714H730.848V1H823.886Z" fill="white"/>
<path d="M909.396 166H888.852V19.8572H835.249V1H963V19.8572H909.396V166Z" fill="white"/>
<path d="M587.039 1V17.9714H550.909V149.029H587.039V166H494V149.029H530.365V17.9714H494V1H587.039Z" stroke="black" stroke-opacity="0.16"/>
<path d="M620.044 166H600.208V1H620.044L699.15 127.814V1H718.75V166H699.15L620.044 38.95V166Z" stroke="black" stroke-opacity="0.16"/>
<path d="M823.886 1V17.9714H787.757V149.029H823.886V166H730.848V149.029H767.213V17.9714H730.848V1H823.886Z" stroke="black" stroke-opacity="0.16"/>
<path d="M909.396 166H888.852V19.8572H835.249V1H963V19.8572H909.396V166Z" stroke="black" stroke-opacity="0.16"/>
<g opacity="0.1" style="mix-blend-mode:difference">
<path d="M1088.04 1V17.9714H1051.91V149.029H1088.04V166H995V149.029H1031.37V17.9714H995V1H1088.04Z" stroke="white" stroke-width="2"/>
<path d="M1118.04 166H1098.21V1H1118.04L1197.15 127.814V1H1216.75V166H1197.15L1118.04 38.95V166Z" stroke="white" stroke-width="2"/>
<path d="M1319.89 1V17.9714H1283.76V149.029H1319.89V166H1226.85V149.029H1263.21V17.9714H1226.85V1H1319.89Z" stroke="white" stroke-width="2"/>
<path d="M1402.4 166H1381.85V19.8572H1328.25V1H1456V19.8572H1402.4V166Z" stroke="white" stroke-width="2"/>
</g>
<g opacity="0.1" style="mix-blend-mode:difference">
<path d="M1581.04 1V17.9714H1544.91V149.029H1581.04V166H1488V149.029H1524.37V17.9714H1488V1H1581.04Z" stroke="white" stroke-width="2"/>
<path d="M1611.04 166H1591.21V1H1611.04L1690.15 127.814V1H1709.75V166H1690.15L1611.04 38.95V166Z" stroke="white" stroke-width="2"/>
<path d="M1812.89 1V17.9714H1776.76V149.029H1812.89V166H1719.85V149.029H1756.21V17.9714H1719.85V1H1812.89Z" stroke="white" stroke-width="2"/>
<path d="M1895.4 166H1874.85V19.8572H1821.25V1H1949V19.8572H1895.4V166Z" stroke="white" stroke-width="2"/>
</g>
</svg>
