<svg width="1440" height="411" viewBox="0 0 1440 411" fill="none" xmlns="http://www.w3.org/2000/svg">
<g style="mix-blend-mode:difference" opacity="0.32">
<path d="M5.99902 0V12" stroke="#FD366E" stroke-width="0.603399"/>
<path d="M12 5.99951L1.3411e-07 5.99951" stroke="#FD366E" stroke-width="0.603399"/>
<path d="M5.99902 79.7998V91.7998" stroke="#FD366E" stroke-width="0.603399"/>
<path d="M12 85.7993L1.3411e-07 85.7993" stroke="#FD366E" stroke-width="0.603399"/>
<path d="M5.99902 159.6V171.6" stroke="#FD366E" stroke-width="0.603399"/>
<path d="M12 165.6L1.3411e-07 165.6" stroke="#FD366E" stroke-width="0.603399"/>
<path d="M5.99902 239.4V251.4" stroke="#FD366E" stroke-width="0.603399"/>
<path d="M12 245.398L1.3411e-07 245.398" stroke="#FD366E" stroke-width="0.603399"/>
<path d="M5.99902 319.2V331.2" stroke="#FD366E" stroke-width="0.603399"/>
<path d="M12 325.2L1.3411e-07 325.2" stroke="#FD366E" stroke-width="0.603399"/>
<path d="M5.99902 399V411" stroke="#FD366E" stroke-width="0.603399"/>
<path d="M12 404.999L1.3411e-07 404.999" stroke="#FD366E" stroke-width="0.603399"/>
<path d="M95.249 0V12" stroke="#FD366E" stroke-width="0.603399"/>
<path d="M101.25 5.99951L89.25 5.99951" stroke="#FD366E" stroke-width="0.603399"/>
<path d="M95.249 79.7998V91.7998" stroke="#FD366E" stroke-width="0.603399"/>
<path d="M101.25 85.7993L89.25 85.7993" stroke="#FD366E" stroke-width="0.603399"/>
<path d="M95.249 159.6V171.6" stroke="#FD366E" stroke-width="0.603399"/>
<path d="M101.25 165.6L89.25 165.6" stroke="#FD366E" stroke-width="0.603399"/>
<path d="M95.249 239.4V251.4" stroke="#FD366E" stroke-width="0.603399"/>
<path d="M101.25 245.398L89.25 245.398" stroke="#FD366E" stroke-width="0.603399"/>
<path d="M95.249 319.2V331.2" stroke="#FD366E" stroke-width="0.603399"/>
<path d="M101.25 325.2L89.25 325.2" stroke="#FD366E" stroke-width="0.603399"/>
<path d="M95.249 399V411" stroke="#FD366E" stroke-width="0.603399"/>
<path d="M101.25 404.999L89.25 404.999" stroke="#FD366E" stroke-width="0.603399"/>
<path d="M184.499 0V12" stroke="#FD366E" stroke-width="0.603399"/>
<path d="M190.5 5.99951L178.5 5.99951" stroke="#FD366E" stroke-width="0.603399"/>
<path d="M184.499 79.7998V91.7998" stroke="#FD366E" stroke-width="0.603399"/>
<path d="M190.5 85.7993L178.5 85.7993" stroke="#FD366E" stroke-width="0.603399"/>
<path d="M184.499 159.6V171.6" stroke="#FD366E" stroke-width="0.603399"/>
<path d="M190.5 165.6L178.5 165.6" stroke="#FD366E" stroke-width="0.603399"/>
<path d="M184.499 239.4V251.4" stroke="#FD366E" stroke-width="0.603399"/>
<path d="M190.5 245.398L178.5 245.398" stroke="#FD366E" stroke-width="0.603399"/>
<path d="M184.499 319.2V331.2" stroke="#FD366E" stroke-width="0.603399"/>
<path d="M190.5 325.2L178.5 325.2" stroke="#FD366E" stroke-width="0.603399"/>
<path d="M184.499 399V411" stroke="#FD366E" stroke-width="0.603399"/>
<path d="M190.5 404.999L178.5 404.999" stroke="#FD366E" stroke-width="0.603399"/>
<path d="M273.749 0V12" stroke="#FD366E" stroke-width="0.603399"/>
<path d="M279.75 5.99951L267.75 5.99951" stroke="#FD366E" stroke-width="0.603399"/>
<path d="M273.749 79.7998V91.7998" stroke="#FD366E" stroke-width="0.603399"/>
<path d="M279.75 85.7993L267.75 85.7993" stroke="#FD366E" stroke-width="0.603399"/>
<path d="M273.749 159.6V171.6" stroke="#FD366E" stroke-width="0.603399"/>
<path d="M279.75 165.6L267.75 165.6" stroke="#FD366E" stroke-width="0.603399"/>
<path d="M273.749 239.4V251.4" stroke="#FD366E" stroke-width="0.603399"/>
<path d="M279.75 245.398L267.75 245.398" stroke="#FD366E" stroke-width="0.603399"/>
<path d="M273.749 319.2V331.2" stroke="#FD366E" stroke-width="0.603399"/>
<path d="M279.75 325.2L267.75 325.2" stroke="#FD366E" stroke-width="0.603399"/>
<path d="M273.749 399V411" stroke="#FD366E" stroke-width="0.603399"/>
<path d="M279.75 404.999L267.75 404.999" stroke="#FD366E" stroke-width="0.603399"/>
<path d="M362.999 0V12" stroke="#FD366E" stroke-width="0.603399"/>
<path d="M369 5.99951L357 5.99951" stroke="#FD366E" stroke-width="0.603399"/>
<path d="M362.999 79.7998V91.7998" stroke="#FD366E" stroke-width="0.603399"/>
<path d="M369 85.7993L357 85.7993" stroke="#FD366E" stroke-width="0.603399"/>
<path d="M362.999 159.6V171.6" stroke="#FD366E" stroke-width="0.603399"/>
<path d="M369 165.6L357 165.6" stroke="#FD366E" stroke-width="0.603399"/>
<path d="M362.999 239.4V251.4" stroke="#FD366E" stroke-width="0.603399"/>
<path d="M369 245.398L357 245.398" stroke="#FD366E" stroke-width="0.603399"/>
<path d="M362.999 319.2V331.2" stroke="#FD366E" stroke-width="0.603399"/>
<path d="M369 325.2L357 325.2" stroke="#FD366E" stroke-width="0.603399"/>
<path d="M362.999 399V411" stroke="#FD366E" stroke-width="0.603399"/>
<path d="M369 404.999L357 404.999" stroke="#FD366E" stroke-width="0.603399"/>
<path d="M452.249 0V12" stroke="#FD366E" stroke-width="0.603399"/>
<path d="M458.25 5.99951L446.25 5.99951" stroke="#FD366E" stroke-width="0.603399"/>
<path d="M452.249 79.7998V91.7998" stroke="#FD366E" stroke-width="0.603399"/>
<path d="M458.25 85.7993L446.25 85.7993" stroke="#FD366E" stroke-width="0.603399"/>
<path d="M452.249 159.6V171.6" stroke="#FD366E" stroke-width="0.603399"/>
<path d="M458.25 165.6L446.25 165.6" stroke="#FD366E" stroke-width="0.603399"/>
<path d="M452.249 239.4V251.4" stroke="#FD366E" stroke-width="0.603399"/>
<path d="M458.25 245.398L446.25 245.398" stroke="#FD366E" stroke-width="0.603399"/>
<path d="M452.249 319.2V331.2" stroke="#FD366E" stroke-width="0.603399"/>
<path d="M458.25 325.2L446.25 325.2" stroke="#FD366E" stroke-width="0.603399"/>
<path d="M452.249 399V411" stroke="#FD366E" stroke-width="0.603399"/>
<path d="M458.25 404.999L446.25 404.999" stroke="#FD366E" stroke-width="0.603399"/>
<path d="M541.499 0V12" stroke="#FD366E" stroke-width="0.603399"/>
<path d="M547.5 5.99951L535.5 5.99951" stroke="#FD366E" stroke-width="0.603399"/>
<path d="M541.499 79.7998V91.7998" stroke="#FD366E" stroke-width="0.603399"/>
<path d="M547.5 85.7993L535.5 85.7993" stroke="#FD366E" stroke-width="0.603399"/>
<path d="M541.499 159.6V171.6" stroke="#FD366E" stroke-width="0.603399"/>
<path d="M547.5 165.6L535.5 165.6" stroke="#FD366E" stroke-width="0.603399"/>
<path d="M541.499 239.4V251.4" stroke="#FD366E" stroke-width="0.603399"/>
<path d="M547.5 245.398L535.5 245.398" stroke="#FD366E" stroke-width="0.603399"/>
<path d="M541.499 319.2V331.2" stroke="#FD366E" stroke-width="0.603399"/>
<path d="M547.5 325.2L535.5 325.2" stroke="#FD366E" stroke-width="0.603399"/>
<path d="M541.499 399V411" stroke="#FD366E" stroke-width="0.603399"/>
<path d="M547.5 404.999L535.5 404.999" stroke="#FD366E" stroke-width="0.603399"/>
<path d="M630.749 0V12" stroke="#FD366E" stroke-width="0.603399"/>
<path d="M636.75 5.99951L624.75 5.99951" stroke="#FD366E" stroke-width="0.603399"/>
<path d="M630.749 79.7998V91.7998" stroke="#FD366E" stroke-width="0.603399"/>
<path d="M636.75 85.7993L624.75 85.7993" stroke="#FD366E" stroke-width="0.603399"/>
<path d="M630.749 159.6V171.6" stroke="#FD366E" stroke-width="0.603399"/>
<path d="M636.75 165.6L624.75 165.6" stroke="#FD366E" stroke-width="0.603399"/>
<path d="M630.749 239.4V251.4" stroke="#FD366E" stroke-width="0.603399"/>
<path d="M636.75 245.398L624.75 245.398" stroke="#FD366E" stroke-width="0.603399"/>
<path d="M630.749 319.2V331.2" stroke="#FD366E" stroke-width="0.603399"/>
<path d="M636.75 325.2L624.75 325.2" stroke="#FD366E" stroke-width="0.603399"/>
<path d="M630.749 399V411" stroke="#FD366E" stroke-width="0.603399"/>
<path d="M636.75 404.999L624.75 404.999" stroke="#FD366E" stroke-width="0.603399"/>
<path d="M719.999 0V12" stroke="#FD366E" stroke-width="0.603399"/>
<path d="M726 5.99951L714 5.99951" stroke="#FD366E" stroke-width="0.603399"/>
<path d="M719.999 79.7998V91.7998" stroke="#FD366E" stroke-width="0.603399"/>
<path d="M726 85.7993L714 85.7993" stroke="#FD366E" stroke-width="0.603399"/>
<path d="M719.999 159.6V171.6" stroke="#FD366E" stroke-width="0.603399"/>
<path d="M726 165.6L714 165.6" stroke="#FD366E" stroke-width="0.603399"/>
<path d="M719.999 239.4V251.4" stroke="#FD366E" stroke-width="0.603399"/>
<path d="M726 245.398L714 245.398" stroke="#FD366E" stroke-width="0.603399"/>
<path d="M719.999 319.2V331.2" stroke="#FD366E" stroke-width="0.603399"/>
<path d="M726 325.2L714 325.2" stroke="#FD366E" stroke-width="0.603399"/>
<path d="M719.999 399V411" stroke="#FD366E" stroke-width="0.603399"/>
<path d="M726 404.999L714 404.999" stroke="#FD366E" stroke-width="0.603399"/>
<path d="M809.249 0V12" stroke="#FD366E" stroke-width="0.603399"/>
<path d="M815.25 5.99951L803.25 5.99951" stroke="#FD366E" stroke-width="0.603399"/>
<path d="M809.249 79.7998V91.7998" stroke="#FD366E" stroke-width="0.603399"/>
<path d="M815.25 85.7993L803.25 85.7993" stroke="#FD366E" stroke-width="0.603399"/>
<path d="M809.249 159.6V171.6" stroke="#FD366E" stroke-width="0.603399"/>
<path d="M815.25 165.6L803.25 165.6" stroke="#FD366E" stroke-width="0.603399"/>
<path d="M809.249 239.4V251.4" stroke="#FD366E" stroke-width="0.603399"/>
<path d="M815.25 245.398L803.25 245.398" stroke="#FD366E" stroke-width="0.603399"/>
<path d="M809.249 319.2V331.2" stroke="#FD366E" stroke-width="0.603399"/>
<path d="M815.25 325.2L803.25 325.2" stroke="#FD366E" stroke-width="0.603399"/>
<path d="M809.249 399V411" stroke="#FD366E" stroke-width="0.603399"/>
<path d="M815.25 404.999L803.25 404.999" stroke="#FD366E" stroke-width="0.603399"/>
<path d="M898.499 0V12" stroke="#FD366E" stroke-width="0.603399"/>
<path d="M904.5 5.99951L892.5 5.99951" stroke="#FD366E" stroke-width="0.603399"/>
<path d="M898.499 79.7998V91.7998" stroke="#FD366E" stroke-width="0.603399"/>
<path d="M904.5 85.7993L892.5 85.7993" stroke="#FD366E" stroke-width="0.603399"/>
<path d="M898.499 159.6V171.6" stroke="#FD366E" stroke-width="0.603399"/>
<path d="M904.5 165.6L892.5 165.6" stroke="#FD366E" stroke-width="0.603399"/>
<path d="M898.499 239.4V251.4" stroke="#FD366E" stroke-width="0.603399"/>
<path d="M904.5 245.398L892.5 245.398" stroke="#FD366E" stroke-width="0.603399"/>
<path d="M898.499 319.2V331.2" stroke="#FD366E" stroke-width="0.603399"/>
<path d="M904.5 325.2L892.5 325.2" stroke="#FD366E" stroke-width="0.603399"/>
<path d="M898.499 399V411" stroke="#FD366E" stroke-width="0.603399"/>
<path d="M904.5 404.999L892.5 404.999" stroke="#FD366E" stroke-width="0.603399"/>
<path d="M987.749 0V12" stroke="#FD366E" stroke-width="0.603399"/>
<path d="M993.75 5.99951L981.75 5.99951" stroke="#FD366E" stroke-width="0.603399"/>
<path d="M987.749 79.7998V91.7998" stroke="#FD366E" stroke-width="0.603399"/>
<path d="M993.75 85.7993L981.75 85.7993" stroke="#FD366E" stroke-width="0.603399"/>
<path d="M987.749 159.6V171.6" stroke="#FD366E" stroke-width="0.603399"/>
<path d="M993.75 165.6L981.75 165.6" stroke="#FD366E" stroke-width="0.603399"/>
<path d="M987.749 239.4V251.4" stroke="#FD366E" stroke-width="0.603399"/>
<path d="M993.75 245.398L981.75 245.398" stroke="#FD366E" stroke-width="0.603399"/>
<path d="M987.749 319.2V331.2" stroke="#FD366E" stroke-width="0.603399"/>
<path d="M993.75 325.2L981.75 325.2" stroke="#FD366E" stroke-width="0.603399"/>
<path d="M987.749 399V411" stroke="#FD366E" stroke-width="0.603399"/>
<path d="M993.75 404.999L981.75 404.999" stroke="#FD366E" stroke-width="0.603399"/>
<path d="M1077 0V12" stroke="#FD366E" stroke-width="0.603399"/>
<path d="M1083 5.99951L1071 5.99951" stroke="#FD366E" stroke-width="0.603399"/>
<path d="M1077 79.7998V91.7998" stroke="#FD366E" stroke-width="0.603399"/>
<path d="M1083 85.7993L1071 85.7993" stroke="#FD366E" stroke-width="0.603399"/>
<path d="M1077 159.6V171.6" stroke="#FD366E" stroke-width="0.603399"/>
<path d="M1083 165.6L1071 165.6" stroke="#FD366E" stroke-width="0.603399"/>
<path d="M1077 239.4V251.4" stroke="#FD366E" stroke-width="0.603399"/>
<path d="M1083 245.398L1071 245.398" stroke="#FD366E" stroke-width="0.603399"/>
<path d="M1077 319.2V331.2" stroke="#FD366E" stroke-width="0.603399"/>
<path d="M1083 325.2L1071 325.2" stroke="#FD366E" stroke-width="0.603399"/>
<path d="M1077 399V411" stroke="#FD366E" stroke-width="0.603399"/>
<path d="M1083 404.999L1071 404.999" stroke="#FD366E" stroke-width="0.603399"/>
<path d="M1166.25 0V12" stroke="#FD366E" stroke-width="0.603399"/>
<path d="M1172.25 5.99951L1160.25 5.99951" stroke="#FD366E" stroke-width="0.603399"/>
<path d="M1166.25 79.7998V91.7998" stroke="#FD366E" stroke-width="0.603399"/>
<path d="M1172.25 85.7993L1160.25 85.7993" stroke="#FD366E" stroke-width="0.603399"/>
<path d="M1166.25 159.6V171.6" stroke="#FD366E" stroke-width="0.603399"/>
<path d="M1172.25 165.6L1160.25 165.6" stroke="#FD366E" stroke-width="0.603399"/>
<path d="M1166.25 239.4V251.4" stroke="#FD366E" stroke-width="0.603399"/>
<path d="M1172.25 245.398L1160.25 245.398" stroke="#FD366E" stroke-width="0.603399"/>
<path d="M1166.25 319.2V331.2" stroke="#FD366E" stroke-width="0.603399"/>
<path d="M1172.25 325.2L1160.25 325.2" stroke="#FD366E" stroke-width="0.603399"/>
<path d="M1166.25 399V411" stroke="#FD366E" stroke-width="0.603399"/>
<path d="M1172.25 404.999L1160.25 404.999" stroke="#FD366E" stroke-width="0.603399"/>
<path d="M1255.5 0V12" stroke="#FD366E" stroke-width="0.603399"/>
<path d="M1261.5 5.99951L1249.5 5.99951" stroke="#FD366E" stroke-width="0.603399"/>
<path d="M1255.5 79.7998V91.7998" stroke="#FD366E" stroke-width="0.603399"/>
<path d="M1261.5 85.7993L1249.5 85.7993" stroke="#FD366E" stroke-width="0.603399"/>
<path d="M1255.5 159.6V171.6" stroke="#FD366E" stroke-width="0.603399"/>
<path d="M1261.5 165.6L1249.5 165.6" stroke="#FD366E" stroke-width="0.603399"/>
<path d="M1255.5 239.4V251.4" stroke="#FD366E" stroke-width="0.603399"/>
<path d="M1261.5 245.398L1249.5 245.398" stroke="#FD366E" stroke-width="0.603399"/>
<path d="M1255.5 319.2V331.2" stroke="#FD366E" stroke-width="0.603399"/>
<path d="M1261.5 325.2L1249.5 325.2" stroke="#FD366E" stroke-width="0.603399"/>
<path d="M1255.5 399V411" stroke="#FD366E" stroke-width="0.603399"/>
<path d="M1261.5 404.999L1249.5 404.999" stroke="#FD366E" stroke-width="0.603399"/>
<path d="M1344.75 0V12" stroke="#FD366E" stroke-width="0.603399"/>
<path d="M1350.75 5.99951L1338.75 5.99951" stroke="#FD366E" stroke-width="0.603399"/>
<path d="M1344.75 79.7998V91.7998" stroke="#FD366E" stroke-width="0.603399"/>
<path d="M1350.75 85.7993L1338.75 85.7993" stroke="#FD366E" stroke-width="0.603399"/>
<path d="M1344.75 159.6V171.6" stroke="#FD366E" stroke-width="0.603399"/>
<path d="M1350.75 165.6L1338.75 165.6" stroke="#FD366E" stroke-width="0.603399"/>
<path d="M1344.75 239.4V251.4" stroke="#FD366E" stroke-width="0.603399"/>
<path d="M1350.75 245.398L1338.75 245.398" stroke="#FD366E" stroke-width="0.603399"/>
<path d="M1344.75 319.2V331.2" stroke="#FD366E" stroke-width="0.603399"/>
<path d="M1350.75 325.2L1338.75 325.2" stroke="#FD366E" stroke-width="0.603399"/>
<path d="M1344.75 399V411" stroke="#FD366E" stroke-width="0.603399"/>
<path d="M1350.75 404.999L1338.75 404.999" stroke="#FD366E" stroke-width="0.603399"/>
<path d="M1434 0V12" stroke="#FD366E" stroke-width="0.603399"/>
<path d="M1440 5.99951L1428 5.99951" stroke="#FD366E" stroke-width="0.603399"/>
<path d="M1434 79.7998V91.7998" stroke="#FD366E" stroke-width="0.603399"/>
<path d="M1440 85.7993L1428 85.7993" stroke="#FD366E" stroke-width="0.603399"/>
<path d="M1434 159.6V171.6" stroke="#FD366E" stroke-width="0.603399"/>
<path d="M1440 165.6L1428 165.6" stroke="#FD366E" stroke-width="0.603399"/>
<path d="M1434 239.4V251.4" stroke="#FD366E" stroke-width="0.603399"/>
<path d="M1440 245.398L1428 245.398" stroke="#FD366E" stroke-width="0.603399"/>
<path d="M1434 319.2V331.2" stroke="#FD366E" stroke-width="0.603399"/>
<path d="M1440 325.2L1428 325.2" stroke="#FD366E" stroke-width="0.603399"/>
<path d="M1434 399V411" stroke="#FD366E" stroke-width="0.603399"/>
<path d="M1440 404.999L1428 404.999" stroke="#FD366E" stroke-width="0.603399"/>
</g>
</svg>
