<svg width="679" height="500" viewBox="0 0 679 500" fill="none" xmlns="http://www.w3.org/2000/svg">
<path d="M0 0H679V500H0V0Z" fill="#19191C"/>
<path d="M678.5 0.5V499.5H0.5V0.5H678.5Z" stroke="#FD366E" stroke-opacity="0.16"/>
<g clip-path="url(#clip0_388_7116)">
<circle opacity="0.2" cx="201" cy="266.5" r="162" transform="rotate(90 201 266.5)" stroke="#FD366E"/>
<ellipse opacity="0.2" cx="201" cy="266.5" rx="176" ry="176" transform="rotate(90 201 266.5)" stroke="#FD366E"/>
<ellipse opacity="0.2" cx="201" cy="266.5" rx="191" ry="191" transform="rotate(90 201 266.5)" stroke="#FD366E"/>
<ellipse opacity="0.2" cx="201" cy="266.5" rx="207" ry="207" transform="rotate(90 201 266.5)" stroke="#FD366E"/>
<ellipse opacity="0.2" cx="201" cy="266.5" rx="222" ry="222" transform="rotate(90 201 266.5)" stroke="#FD366E"/>
<ellipse opacity="0.2" cx="201" cy="266.5" rx="238" ry="238" transform="rotate(90 201 266.5)" stroke="#FD366E"/>
<ellipse opacity="0.2" cx="201" cy="266.5" rx="255" ry="255" transform="rotate(90 201 266.5)" stroke="#FD366E"/>
<circle opacity="0.2" cx="201" cy="266.5" r="272" transform="rotate(90 201 266.5)" stroke="#FD366E"/>
<circle opacity="0.2" cx="201" cy="266.5" r="287" transform="rotate(90 201 266.5)" stroke="#FD366E"/>
<circle opacity="0.2" cx="479" cy="266.5" r="162" transform="rotate(90 479 266.5)" stroke="#FD366E"/>
<ellipse opacity="0.2" cx="479" cy="266.5" rx="176" ry="176" transform="rotate(90 479 266.5)" stroke="#FD366E"/>
<ellipse opacity="0.2" cx="479" cy="266.5" rx="191" ry="191" transform="rotate(90 479 266.5)" stroke="#FD366E"/>
<ellipse opacity="0.2" cx="479" cy="266.5" rx="207" ry="207" transform="rotate(90 479 266.5)" stroke="#FD366E"/>
<ellipse opacity="0.2" cx="479" cy="266.5" rx="222" ry="222" transform="rotate(90 479 266.5)" stroke="#FD366E"/>
<ellipse opacity="0.2" cx="479" cy="266.5" rx="238" ry="238" transform="rotate(90 479 266.5)" stroke="#FD366E"/>
<ellipse opacity="0.2" cx="479" cy="266.5" rx="255" ry="255" transform="rotate(90 479 266.5)" stroke="#FD366E"/>
<circle opacity="0.2" cx="479" cy="266.5" r="272" transform="rotate(90 479 266.5)" stroke="#FD366E"/>
<circle opacity="0.2" cx="479" cy="266.5" r="287" transform="rotate(90 479 266.5)" stroke="#FD366E"/>
<circle cx="200.999" cy="266.499" r="132" transform="rotate(71.1806 200.999 266.499)" stroke="url(#paint0_linear_388_7116)" stroke-width="14"/>
<circle cx="139" cy="139" r="132" transform="matrix(0.512363 0.858769 0.858769 -0.512363 288.412 218.35)" stroke="url(#paint1_linear_388_7116)" stroke-width="14"/>
<ellipse cx="339.5" cy="266.5" rx="276.5" ry="100" fill="url(#paint2_radial_388_7116)"/>
<path d="M201.584 285.5V248.606H206.169V264.628H225.249V248.606H229.834V285.5H225.249V268.845H206.169V285.5H201.584ZM243.637 285.658L233.148 258.62H237.734L246.008 280.071L254.02 258.62H258.605L246.219 290.033C245.306 292.387 244.445 293.968 243.637 294.776C242.829 295.62 241.528 296.041 239.736 296.041H234.571V292.088H238.419C239.613 292.088 240.422 291.895 240.843 291.508C241.3 291.122 241.792 290.261 242.319 288.926L243.637 285.658ZM274.847 258.304C278.642 258.304 281.734 259.534 284.123 261.993C286.548 264.418 287.76 267.773 287.76 272.06C287.76 276.136 286.548 279.456 284.123 282.021C281.699 284.551 278.607 285.816 274.847 285.816C270.56 285.816 267.486 284.34 265.624 281.389V296.041H261.302V258.62H265.044L265.624 262.942C267.872 259.85 270.947 258.304 274.847 258.304ZM274.426 281.969C277.096 281.969 279.239 281.055 280.856 279.228C282.507 277.366 283.333 274.976 283.333 272.06C283.333 269.144 282.507 266.772 280.856 264.945C279.239 263.082 277.096 262.151 274.426 262.151C271.79 262.151 269.647 263.065 267.995 264.892C266.379 266.719 265.571 269.073 265.571 271.955C265.571 274.906 266.379 277.313 267.995 279.175C269.647 281.038 271.79 281.969 274.426 281.969ZM304.558 285.816C300.552 285.816 297.319 284.551 294.86 282.021C292.435 279.492 291.223 276.171 291.223 272.06C291.223 267.984 292.4 264.681 294.754 262.151C297.109 259.586 300.183 258.304 303.978 258.304C307.808 258.304 310.865 259.446 313.149 261.73C315.433 263.978 316.627 267.088 316.733 271.059C316.733 271.445 316.698 272.06 316.627 272.903H295.756V273.272C295.826 275.872 296.617 277.981 298.128 279.597C299.674 281.178 301.712 281.969 304.241 281.969C306.174 281.969 307.808 281.494 309.143 280.546C310.513 279.562 311.427 278.209 311.884 276.487H316.258C315.731 279.228 314.414 281.477 312.305 283.234C310.197 284.955 307.615 285.816 304.558 285.816ZM296.019 269.319H312.095C311.884 267.035 311.058 265.261 309.617 263.996C308.177 262.731 306.315 262.099 304.031 262.099C301.993 262.099 300.201 262.766 298.655 264.101C297.109 265.437 296.23 267.176 296.019 269.319ZM333.576 258.62H334.788V262.836H332.627C330.062 262.836 328.218 263.697 327.093 265.419C326.004 267.141 325.459 269.267 325.459 271.796V285.5H321.137V258.62H324.88L325.459 262.678C327.111 259.973 329.816 258.62 333.576 258.62ZM338.007 285.5V248.606H342.329V285.5H338.007ZM369.701 282.021C367.242 284.551 364.044 285.816 360.109 285.816C356.174 285.816 352.958 284.551 350.464 282.021C348.004 279.456 346.774 276.136 346.774 272.06C346.774 267.984 348.004 264.681 350.464 262.151C352.958 259.586 356.174 258.304 360.109 258.304C364.044 258.304 367.242 259.586 369.701 262.151C372.196 264.681 373.443 267.984 373.443 272.06C373.443 276.136 372.196 279.456 369.701 282.021ZM353.679 279.175C355.33 281.038 357.474 281.969 360.109 281.969C362.744 281.969 364.888 281.038 366.539 279.175C368.19 277.313 369.016 274.941 369.016 272.06C369.016 269.179 368.19 266.807 366.539 264.945C364.888 263.082 362.744 262.151 360.109 262.151C357.474 262.151 355.33 263.082 353.679 264.945C352.027 266.807 351.202 269.179 351.202 272.06C351.202 274.941 352.027 277.313 353.679 279.175ZM399.851 282.021C397.391 284.551 394.194 285.816 390.258 285.816C386.323 285.816 383.108 284.551 380.613 282.021C378.154 279.456 376.924 276.136 376.924 272.06C376.924 267.984 378.154 264.681 380.613 262.151C383.108 259.586 386.323 258.304 390.258 258.304C394.194 258.304 397.391 259.586 399.851 262.151C402.346 264.681 403.593 267.984 403.593 272.06C403.593 276.136 402.346 279.456 399.851 282.021ZM383.828 279.175C385.48 281.038 387.623 281.969 390.258 281.969C392.894 281.969 395.037 281.038 396.688 279.175C398.34 277.313 399.166 274.941 399.166 272.06C399.166 269.179 398.34 266.807 396.688 264.945C395.037 263.082 392.894 262.151 390.258 262.151C387.623 262.151 385.48 263.082 383.828 264.945C382.177 266.807 381.351 269.179 381.351 272.06C381.351 274.941 382.177 277.313 383.828 279.175ZM421.567 258.304C425.362 258.304 428.454 259.534 430.843 261.993C433.268 264.418 434.48 267.773 434.48 272.06C434.48 276.136 433.268 279.456 430.843 282.021C428.419 284.551 425.327 285.816 421.567 285.816C417.28 285.816 414.206 284.34 412.344 281.389V296.041H408.022V258.62H411.764L412.344 262.942C414.592 259.85 417.667 258.304 421.567 258.304ZM421.146 281.969C423.816 281.969 425.959 281.055 427.576 279.228C429.227 277.366 430.053 274.976 430.053 272.06C430.053 269.144 429.227 266.772 427.576 264.945C425.959 263.082 423.816 262.151 421.146 262.151C418.51 262.151 416.367 263.065 414.715 264.892C413.099 266.719 412.291 269.073 412.291 271.955C412.291 274.906 413.099 277.313 414.715 279.175C416.367 281.038 418.51 281.969 421.146 281.969ZM452.791 285.5V248.606H465.862C469.728 248.606 472.732 249.484 474.875 251.241C477.018 252.963 478.09 255.335 478.09 258.356C478.09 262.362 476.158 265.033 472.293 266.368C474.436 266.789 476.193 267.703 477.563 269.108C478.933 270.514 479.619 272.464 479.619 274.959C479.619 278.262 478.459 280.844 476.14 282.707C473.856 284.569 470.553 285.5 466.231 285.5H452.791ZM466.073 252.77H457.377V264.628H466.073C468.427 264.628 470.255 264.101 471.555 263.047C472.855 261.993 473.505 260.535 473.505 258.673C473.505 256.81 472.855 255.37 471.555 254.351C470.29 253.297 468.463 252.77 466.073 252.77ZM466.231 268.74H457.377V281.336H466.231C469.042 281.336 471.186 280.792 472.661 279.702C474.172 278.613 474.928 277.102 474.928 275.17C474.928 273.097 474.172 271.515 472.661 270.426C471.151 269.302 469.007 268.74 466.231 268.74Z" fill="#E4E4E7"/>
</g>
<g filter="url(#filter0_n_388_7116)">
<path d="M0 0.5H679V32.5H0V0.5Z" fill="#FD366E" fill-opacity="0.06"/>
<path d="M678.5 1V32H0.5V1H678.5Z" stroke="#FD366E" stroke-opacity="0.16"/>
<path d="M588.872 21.584C586.254 21.584 584.742 19.736 584.742 16.6C584.742 13.45 586.268 11.616 588.928 11.616C590.874 11.616 592.246 12.82 592.624 14.906H591.336C591 13.464 590.174 12.736 588.914 12.736C587.038 12.736 585.988 14.15 585.988 16.6C585.988 19.078 586.996 20.464 588.872 20.464C590.146 20.464 590.972 19.75 591.322 18.294H592.61C592.232 20.394 590.874 21.584 588.872 21.584ZM598.085 21.584C595.663 21.584 594.053 19.652 594.053 16.6C594.053 13.548 595.663 11.616 598.085 11.616C600.521 11.616 602.145 13.562 602.145 16.6C602.145 19.638 600.521 21.584 598.085 21.584ZM598.085 20.464C599.835 20.464 600.899 19.036 600.899 16.6C600.899 14.164 599.835 12.736 598.085 12.736C596.363 12.736 595.299 14.136 595.299 16.6C595.299 19.064 596.363 20.464 598.085 20.464ZM605.177 21.5H604.001V11.7H605.177L609.867 19.232V11.7H611.029V21.5H609.867L605.177 13.954V21.5ZM616.77 21.584C614.474 21.584 613.004 20.282 612.934 18.294H614.194C614.292 19.624 615.328 20.478 616.784 20.478C618.1 20.478 618.982 19.848 618.982 18.812C618.982 17.79 618.198 17.398 616.35 17.09C614.32 16.754 613.172 15.998 613.172 14.402C613.172 12.736 614.516 11.616 616.49 11.616C618.576 11.616 619.962 12.792 620.074 14.598H618.814C618.688 13.45 617.764 12.722 616.49 12.722C615.188 12.722 614.39 13.31 614.39 14.332C614.39 15.34 615.16 15.69 617.036 15.998C619.038 16.32 620.2 17.132 620.2 18.7C620.2 20.394 618.786 21.584 616.77 21.584ZM625.756 21.584C623.334 21.584 621.724 19.652 621.724 16.6C621.724 13.548 623.334 11.616 625.756 11.616C628.192 11.616 629.816 13.562 629.816 16.6C629.816 19.638 628.192 21.584 625.756 21.584ZM625.756 20.464C627.506 20.464 628.57 19.036 628.57 16.6C628.57 14.164 627.506 12.736 625.756 12.736C624.034 12.736 622.97 14.136 622.97 16.6C622.97 19.064 624.034 20.464 625.756 20.464ZM637.287 21.5H631.673V11.7H632.891V20.38H637.287V21.5ZM645.039 21.5H638.823V11.7H644.857V12.82H640.041V15.956H644.087V17.076H640.041V20.38H645.039V21.5ZM657.573 21.5H651.007V20.506L654.703 17.202C655.599 16.404 656.299 15.648 656.299 14.598C656.299 13.366 655.487 12.666 654.255 12.666C653.051 12.666 652.239 13.506 652.239 14.85V15.032H651.063V14.78C651.063 12.932 652.323 11.616 654.255 11.616C656.299 11.616 657.503 12.778 657.503 14.542C657.503 15.998 656.593 16.936 655.459 17.93L652.631 20.422H657.573V21.5ZM660.199 21.584C659.709 21.584 659.345 21.248 659.345 20.744C659.345 20.24 659.709 19.89 660.199 19.89C660.689 19.89 661.067 20.24 661.067 20.744C661.067 21.248 660.689 21.584 660.199 21.584ZM666.543 11.616C668.685 11.616 670.015 13.394 670.015 16.376V16.824C670.015 19.806 668.685 21.584 666.543 21.584C664.401 21.584 663.071 19.806 663.071 16.824V16.376C663.071 13.394 664.401 11.616 666.543 11.616ZM664.233 16.418V16.782C664.233 17.328 664.275 17.818 664.359 18.238L668.349 13.842C667.957 13.072 667.341 12.666 666.543 12.666C665.087 12.666 664.233 14.038 664.233 16.418ZM668.853 16.782V16.418C668.853 15.872 668.811 15.382 668.727 14.948L664.737 19.372C665.143 20.114 665.759 20.52 666.543 20.52C667.999 20.52 668.853 19.162 668.853 16.782Z" fill="#FD366E"/>
<path d="M14.426 11.7V12.708H12.284V20.492H14.426V21.5H8.91V20.492H11.066V12.708H8.91V11.7H14.426ZM17.6378 21.5H16.4618V11.7H17.6378L22.3278 19.232V11.7H23.4898V21.5H22.3278L17.6378 13.954V21.5ZM31.0373 11.7V12.708H28.8953V20.492H31.0373V21.5H25.5213V20.492H27.6773V12.708H25.5213V11.7H31.0373ZM36.7691 21.5H35.5511V12.82H32.3731V11.7H39.9471V12.82H36.7691V21.5Z" fill="#FD366E"/>
</g>
<defs>
<filter id="filter0_n_388_7116" x="0" y="0.5" width="679" height="32" filterUnits="userSpaceOnUse" color-interpolation-filters="sRGB">
<feFlood flood-opacity="0" result="BackgroundImageFix"/>
<feBlend mode="normal" in="SourceGraphic" in2="BackgroundImageFix" result="shape"/>
<feTurbulence type="fractalNoise" baseFrequency="1 1" stitchTiles="stitch" numOctaves="3" result="noise" seed="249" />
<feColorMatrix in="noise" type="luminanceToAlpha" result="alphaNoise" />
<feComponentTransfer in="alphaNoise" result="coloredNoise1">
<feFuncA type="discrete" tableValues="0 0 0 0 0 0 0 0 0 0 0 0 0 0 0 0 0 1 1 1 1 1 1 1 1 1 1 1 1 1 1 1 1 1 0 0 0 0 0 0 0 0 0 0 0 0 0 0 0 0 0 0 0 0 0 0 0 0 0 0 0 0 0 0 0 0 0 0 0 0 0 0 0 0 0 0 0 0 0 0 0 0 0 0 0 0 0 0 0 0 0 0 0 0 0 0 0 0 0 0 "/>
</feComponentTransfer>
<feComposite operator="in" in2="shape" in="coloredNoise1" result="noise1Clipped" />
<feFlood flood-color="rgba(0, 0, 0, 0.08)" result="color1Flood" />
<feComposite operator="in" in2="noise1Clipped" in="color1Flood" result="color1" />
<feMerge result="effect1_noise_388_7116">
<feMergeNode in="shape" />
<feMergeNode in="color1" />
</feMerge>
</filter>
<linearGradient id="paint0_linear_388_7116" x1="200.999" y1="183.202" x2="200.999" y2="443.316" gradientUnits="userSpaceOnUse">
<stop stop-color="#19191C" stop-opacity="0"/>
<stop offset="0.17" stop-color="#2F1820"/>
<stop offset="0.34" stop-color="#531A2C"/>
<stop offset="0.51" stop-color="#9F1D42"/>
<stop offset="0.68" stop-color="#FD366E"/>
<stop offset="0.85" stop-color="#FEAFC5"/>
<stop offset="1" stop-color="#EDEDF0"/>
</linearGradient>
<linearGradient id="paint1_linear_388_7116" x1="139" y1="55.7022" x2="139" y2="315.816" gradientUnits="userSpaceOnUse">
<stop stop-color="#19191C" stop-opacity="0"/>
<stop offset="0.17" stop-color="#2F1820"/>
<stop offset="0.34" stop-color="#531A2C"/>
<stop offset="0.51" stop-color="#9F1D42"/>
<stop offset="0.68" stop-color="#FD366E"/>
<stop offset="0.85" stop-color="#FEAFC5"/>
<stop offset="1" stop-color="#EDEDF0"/>
</linearGradient>
<radialGradient id="paint2_radial_388_7116" cx="0" cy="0" r="1" gradientUnits="userSpaceOnUse" gradientTransform="translate(339.5 266.5) scale(322.282 116.558)">
<stop offset="0.415539" stop-color="#19191C"/>
<stop offset="1" stop-color="#19191C" stop-opacity="0"/>
</radialGradient>
<clipPath id="clip0_388_7116">
<rect width="679" height="467" fill="white" transform="translate(0 32.5)"/>
</clipPath>
</defs>
</svg>
