<svg width="679" height="500" viewBox="0 0 679 500" fill="none" xmlns="http://www.w3.org/2000/svg">
<g clip-path="url(#clip0_441_7071)">
<path d="M0 0H679V500H0V0Z" fill="#19191C"/>
<g clip-path="url(#clip1_441_7071)">
<rect opacity="0.1" x="147" y="73.5" width="385" height="385" stroke="#FD366E"/>
<rect opacity="0.1" x="133" y="59.5" width="413" height="413" stroke="#FD366E"/>
<rect opacity="0.1" x="119" y="45.5" width="441" height="441" stroke="#FD366E"/>
<rect opacity="0.1" x="105" y="31.5" width="469" height="469" stroke="#FD366E"/>
<rect opacity="0.1" x="91" y="17.5" width="497" height="497" stroke="#FD366E"/>
<rect opacity="0.1" x="77" y="3.5" width="525" height="525" stroke="#FD366E"/>
<rect opacity="0.1" x="63" y="-10.5" width="553" height="553" stroke="#FD366E"/>
<rect opacity="0.1" x="49" y="-24.5" width="581" height="581" stroke="#FD366E"/>
<rect opacity="0.1" x="35" y="-38.5" width="609" height="609" stroke="#FD366E"/>
<rect opacity="0.1" x="21" y="-52.5" width="637" height="637" stroke="#FD366E"/>
<rect opacity="0.1" x="7" y="-66.5" width="665" height="665" stroke="#FD366E"/>
<rect opacity="0.2" x="189.309" y="115.809" width="300.383" height="300.383" stroke="#FD366E"/>
<rect opacity="0.6" x="175" y="101.5" width="329" height="329" stroke="#FD366E"/>
<rect x="161" y="87.5" width="357" height="357" stroke="#FD366E"/>
<rect x="203.5" y="130" width="273" height="273" fill="url(#paint0_linear_441_7071)"/>
<rect x="203.5" y="130" width="273" height="273" stroke="#FD366E"/>
</g>
<g filter="url(#filter0_n_441_7071)">
<path d="M0 0.5H679V32.5H0V0.5Z" fill="#FD366E" fill-opacity="0.06"/>
<path d="M678.5 1V32H0.5V1H678.5Z" stroke="#FD366E" stroke-opacity="0.16"/>
<path d="M588.872 21.584C586.254 21.584 584.742 19.736 584.742 16.6C584.742 13.45 586.268 11.616 588.928 11.616C590.874 11.616 592.246 12.82 592.624 14.906H591.336C591 13.464 590.174 12.736 588.914 12.736C587.038 12.736 585.988 14.15 585.988 16.6C585.988 19.078 586.996 20.464 588.872 20.464C590.146 20.464 590.972 19.75 591.322 18.294H592.61C592.232 20.394 590.874 21.584 588.872 21.584ZM598.085 21.584C595.663 21.584 594.053 19.652 594.053 16.6C594.053 13.548 595.663 11.616 598.085 11.616C600.521 11.616 602.145 13.562 602.145 16.6C602.145 19.638 600.521 21.584 598.085 21.584ZM598.085 20.464C599.835 20.464 600.899 19.036 600.899 16.6C600.899 14.164 599.835 12.736 598.085 12.736C596.363 12.736 595.299 14.136 595.299 16.6C595.299 19.064 596.363 20.464 598.085 20.464ZM605.177 21.5H604.001V11.7H605.177L609.867 19.232V11.7H611.029V21.5H609.867L605.177 13.954V21.5ZM616.77 21.584C614.474 21.584 613.004 20.282 612.934 18.294H614.194C614.292 19.624 615.328 20.478 616.784 20.478C618.1 20.478 618.982 19.848 618.982 18.812C618.982 17.79 618.198 17.398 616.35 17.09C614.32 16.754 613.172 15.998 613.172 14.402C613.172 12.736 614.516 11.616 616.49 11.616C618.576 11.616 619.962 12.792 620.074 14.598H618.814C618.688 13.45 617.764 12.722 616.49 12.722C615.188 12.722 614.39 13.31 614.39 14.332C614.39 15.34 615.16 15.69 617.036 15.998C619.038 16.32 620.2 17.132 620.2 18.7C620.2 20.394 618.786 21.584 616.77 21.584ZM625.756 21.584C623.334 21.584 621.724 19.652 621.724 16.6C621.724 13.548 623.334 11.616 625.756 11.616C628.192 11.616 629.816 13.562 629.816 16.6C629.816 19.638 628.192 21.584 625.756 21.584ZM625.756 20.464C627.506 20.464 628.57 19.036 628.57 16.6C628.57 14.164 627.506 12.736 625.756 12.736C624.034 12.736 622.97 14.136 622.97 16.6C622.97 19.064 624.034 20.464 625.756 20.464ZM637.287 21.5H631.673V11.7H632.891V20.38H637.287V21.5ZM645.039 21.5H638.823V11.7H644.857V12.82H640.041V15.956H644.087V17.076H640.041V20.38H645.039V21.5ZM657.573 21.5H651.007V20.506L654.703 17.202C655.599 16.404 656.299 15.648 656.299 14.598C656.299 13.366 655.487 12.666 654.255 12.666C653.051 12.666 652.239 13.506 652.239 14.85V15.032H651.063V14.78C651.063 12.932 652.323 11.616 654.255 11.616C656.299 11.616 657.503 12.778 657.503 14.542C657.503 15.998 656.593 16.936 655.459 17.93L652.631 20.422H657.573V21.5ZM660.199 21.584C659.709 21.584 659.345 21.248 659.345 20.744C659.345 20.24 659.709 19.89 660.199 19.89C660.689 19.89 661.067 20.24 661.067 20.744C661.067 21.248 660.689 21.584 660.199 21.584ZM666.543 11.616C668.685 11.616 670.015 13.394 670.015 16.376V16.824C670.015 19.806 668.685 21.584 666.543 21.584C664.401 21.584 663.071 19.806 663.071 16.824V16.376C663.071 13.394 664.401 11.616 666.543 11.616ZM664.233 16.418V16.782C664.233 17.328 664.275 17.818 664.359 18.238L668.349 13.842C667.957 13.072 667.341 12.666 666.543 12.666C665.087 12.666 664.233 14.038 664.233 16.418ZM668.853 16.782V16.418C668.853 15.872 668.811 15.382 668.727 14.948L664.737 19.372C665.143 20.114 665.759 20.52 666.543 20.52C667.999 20.52 668.853 19.162 668.853 16.782Z" fill="#FD366E"/>
<path d="M14.426 11.7V12.708H12.284V20.492H14.426V21.5H8.91V20.492H11.066V12.708H8.91V11.7H14.426ZM17.6378 21.5H16.4618V11.7H17.6378L22.3278 19.232V11.7H23.4898V21.5H22.3278L17.6378 13.954V21.5ZM31.0373 11.7V12.708H28.8953V20.492H31.0373V21.5H25.5213V20.492H27.6773V12.708H25.5213V11.7H31.0373ZM36.7691 21.5H35.5511V12.82H32.3731V11.7H39.9471V12.82H36.7691V21.5Z" fill="#FD366E"/>
</g>
<path d="M0 32.5H125V62.5H0V32.5Z" fill="#FD366E"/>
<path d="M0 32.5H125V62.5H0V32.5Z" stroke="#FD366E"/>
<path d="M17.202 49.394H13.932L13.272 51.5H12.246L14.934 43.238H16.266L18.954 51.5H17.862L17.202 49.394ZM14.202 48.53H16.932L15.576 44.114L14.202 48.53ZM23.4373 43.106C23.9773 43.106 24.4293 43.174 24.7933 43.31C25.1573 43.446 25.5033 43.646 25.8313 43.91L25.2493 44.588C24.9893 44.368 24.7133 44.212 24.4213 44.12C24.1333 44.024 23.8313 43.976 23.5153 43.976C23.0633 43.976 22.6453 44.084 22.2613 44.3C21.8773 44.512 21.5673 44.866 21.3313 45.362C21.0993 45.854 20.9833 46.522 20.9833 47.366C20.9833 48.186 21.0933 48.844 21.3133 49.34C21.5373 49.836 21.8393 50.194 22.2193 50.414C22.5993 50.634 23.0233 50.744 23.4913 50.744C23.9553 50.744 24.3353 50.674 24.6313 50.534C24.9313 50.394 25.1913 50.234 25.4113 50.054L25.9513 50.738C25.6993 50.982 25.3713 51.194 24.9673 51.374C24.5633 51.55 24.0673 51.638 23.4793 51.638C22.8113 51.638 22.2053 51.474 21.6613 51.146C21.1213 50.818 20.6933 50.338 20.3773 49.706C20.0613 49.07 19.9033 48.29 19.9033 47.366C19.9033 46.438 20.0633 45.658 20.3833 45.026C20.7073 44.394 21.1373 43.916 21.6733 43.592C22.2133 43.268 22.8013 43.106 23.4373 43.106ZM30.3806 44.132V51.5H29.3426V44.132H26.7626V43.238H32.9966L32.8886 44.132H30.3806ZM39.3879 43.238V44.072H37.5519V50.666H39.3879V51.5H34.6599V50.666H36.4959V44.072H34.6599V43.238H39.3879ZM44.1893 50.318L46.4213 43.238H47.4713L44.7053 51.5H43.6253L40.8593 43.238H41.9813L44.1893 50.318ZM53.6706 43.238V44.072H51.8346V50.666H53.6706V51.5H48.9426V50.666H50.7786V44.072H48.9426V43.238H53.6706ZM58.9459 44.132V51.5H57.9079V44.132H55.3279V43.238H61.5619L61.4539 44.132H58.9459ZM67.9532 43.238V44.072H66.1172V50.666H67.9532V51.5H63.2252V50.666H65.0612V44.072H63.2252V43.238H67.9532ZM71.6805 44.09V46.874H74.7405V47.732H71.6805V50.666H75.4365V51.5H70.6365V43.238H75.3285L75.2085 44.09H71.6805ZM82.7098 49.214C82.7098 49.686 82.5918 50.106 82.3558 50.474C82.1198 50.838 81.7778 51.124 81.3298 51.332C80.8818 51.536 80.3358 51.638 79.6918 51.638C79.0878 51.638 78.5398 51.546 78.0478 51.362C77.5598 51.178 77.1418 50.918 76.7938 50.582L77.4118 49.886C77.6998 50.154 78.0298 50.368 78.4018 50.528C78.7738 50.684 79.2098 50.762 79.7098 50.762C80.0458 50.762 80.3598 50.708 80.6518 50.6C80.9438 50.488 81.1798 50.32 81.3598 50.096C81.5398 49.868 81.6298 49.58 81.6298 49.232C81.6298 48.964 81.5778 48.736 81.4738 48.548C81.3698 48.36 81.1858 48.194 80.9218 48.05C80.6578 47.902 80.2898 47.758 79.8178 47.618C79.2738 47.458 78.8018 47.278 78.4018 47.078C78.0058 46.874 77.6978 46.624 77.4778 46.328C77.2618 46.032 77.1538 45.666 77.1538 45.23C77.1538 44.818 77.2678 44.452 77.4958 44.132C77.7238 43.812 78.0378 43.562 78.4378 43.382C78.8418 43.198 79.3058 43.106 79.8298 43.106C80.4018 43.106 80.8978 43.188 81.3178 43.352C81.7418 43.512 82.1258 43.744 82.4698 44.048L81.8578 44.726C81.5618 44.462 81.2438 44.272 80.9038 44.156C80.5638 44.036 80.2178 43.976 79.8658 43.976C79.5658 43.976 79.2898 44.022 79.0378 44.114C78.7898 44.202 78.5898 44.336 78.4378 44.516C78.2898 44.692 78.2158 44.918 78.2158 45.194C78.2158 45.43 78.2798 45.634 78.4078 45.806C78.5358 45.978 78.7518 46.136 79.0558 46.28C79.3598 46.42 79.7738 46.568 80.2978 46.724C80.7258 46.848 81.1218 47.004 81.4858 47.192C81.8538 47.376 82.1498 47.628 82.3738 47.948C82.5978 48.264 82.7098 48.686 82.7098 49.214ZM95.7564 49.394H92.4864L91.8264 51.5H90.8004L93.4884 43.238H94.8204L97.5084 51.5H96.4164L95.7564 49.394ZM92.7564 48.53H95.4864L94.1304 44.114L92.7564 48.53ZM103.264 45.788C103.264 45.36 103.18 45.022 103.012 44.774C102.844 44.522 102.614 44.342 102.322 44.234C102.03 44.122 101.696 44.066 101.32 44.066H100.126V47.594H101.278C101.666 47.594 102.008 47.542 102.304 47.438C102.6 47.33 102.834 47.146 103.006 46.886C103.178 46.622 103.264 46.256 103.264 45.788ZM104.38 45.776C104.38 46.42 104.242 46.936 103.966 47.324C103.694 47.712 103.318 47.994 102.838 48.17C102.358 48.346 101.806 48.434 101.182 48.434H100.126V51.5H99.0817V43.238H101.194C102.178 43.238 102.954 43.446 103.522 43.862C104.094 44.274 104.38 44.912 104.38 45.776ZM110.801 43.238V44.072H108.965V50.666H110.801V51.5H106.073V50.666H107.909V44.072H106.073V43.238H110.801Z" fill="#19191C"/>
<path d="M125 32.5H214V62.5H125V32.5Z" fill="#CA2B58"/>
<path d="M125 32.5H214V62.5H125V32.5Z" stroke="#FD366E"/>
<path d="M143.33 43.238V48.824C143.33 49.38 143.216 49.87 142.988 50.294C142.764 50.718 142.446 51.048 142.034 51.284C141.626 51.52 141.144 51.638 140.588 51.638C140.02 51.638 139.532 51.52 139.124 51.284C138.72 51.044 138.41 50.712 138.194 50.288C137.978 49.864 137.87 49.376 137.87 48.824V43.238H138.902V48.86C138.902 49.488 139.048 49.958 139.34 50.27C139.636 50.582 140.052 50.738 140.588 50.738C141.128 50.738 141.544 50.582 141.836 50.27C142.132 49.958 142.28 49.488 142.28 48.86V43.238H143.33ZM150.579 49.214C150.579 49.686 150.461 50.106 150.225 50.474C149.989 50.838 149.647 51.124 149.199 51.332C148.751 51.536 148.205 51.638 147.561 51.638C146.957 51.638 146.409 51.546 145.917 51.362C145.429 51.178 145.011 50.918 144.663 50.582L145.281 49.886C145.569 50.154 145.899 50.368 146.271 50.528C146.643 50.684 147.079 50.762 147.579 50.762C147.915 50.762 148.229 50.708 148.521 50.6C148.813 50.488 149.049 50.32 149.229 50.096C149.409 49.868 149.499 49.58 149.499 49.232C149.499 48.964 149.447 48.736 149.343 48.548C149.239 48.36 149.055 48.194 148.791 48.05C148.527 47.902 148.159 47.758 147.687 47.618C147.143 47.458 146.671 47.278 146.271 47.078C145.875 46.874 145.567 46.624 145.347 46.328C145.131 46.032 145.023 45.666 145.023 45.23C145.023 44.818 145.137 44.452 145.365 44.132C145.593 43.812 145.907 43.562 146.307 43.382C146.711 43.198 147.175 43.106 147.699 43.106C148.271 43.106 148.767 43.188 149.187 43.352C149.611 43.512 149.995 43.744 150.339 44.048L149.727 44.726C149.431 44.462 149.113 44.272 148.773 44.156C148.433 44.036 148.087 43.976 147.735 43.976C147.435 43.976 147.159 44.022 146.907 44.114C146.659 44.202 146.459 44.336 146.307 44.516C146.159 44.692 146.085 44.918 146.085 45.194C146.085 45.43 146.149 45.634 146.277 45.806C146.405 45.978 146.621 46.136 146.925 46.28C147.229 46.42 147.643 46.568 148.167 46.724C148.595 46.848 148.991 47.004 149.355 47.192C149.723 47.376 150.019 47.628 150.243 47.948C150.467 48.264 150.579 48.686 150.579 49.214ZM156.485 49.394H153.215L152.555 51.5H151.529L154.217 43.238H155.549L158.237 51.5H157.145L156.485 49.394ZM153.485 48.53H156.215L154.859 44.114L153.485 48.53ZM162.186 51.638C161.534 51.638 160.966 51.48 160.482 51.164C160.002 50.848 159.63 50.374 159.366 49.742C159.102 49.11 158.97 48.318 158.97 47.366C158.97 46.654 159.064 46.032 159.252 45.5C159.444 44.968 159.702 44.524 160.026 44.168C160.354 43.812 160.724 43.546 161.136 43.37C161.552 43.194 161.982 43.106 162.426 43.106C162.966 43.106 163.414 43.184 163.77 43.34C164.126 43.492 164.466 43.716 164.79 44.012L164.16 44.666C163.908 44.43 163.642 44.256 163.362 44.144C163.086 44.032 162.776 43.976 162.432 43.976C162.132 43.976 161.842 44.034 161.562 44.15C161.282 44.266 161.03 44.456 160.806 44.72C160.586 44.98 160.41 45.326 160.278 45.758C160.15 46.19 160.086 46.726 160.086 47.366C160.086 48.162 160.168 48.81 160.332 49.31C160.5 49.81 160.746 50.178 161.07 50.414C161.398 50.646 161.802 50.762 162.282 50.762C162.57 50.762 162.842 50.728 163.098 50.66C163.358 50.592 163.61 50.494 163.854 50.366V47.846H162.228L162.102 46.982H164.886V50.918C164.514 51.118 164.118 51.288 163.698 51.428C163.278 51.568 162.774 51.638 162.186 51.638ZM168.115 44.09V46.874H171.175V47.732H168.115V50.666H171.871V51.5H167.071V43.238H171.763L171.643 44.09H168.115ZM185.05 49.394H181.78L181.12 51.5H180.094L182.782 43.238H184.114L186.802 51.5H185.71L185.05 49.394ZM182.05 48.53H184.78L183.424 44.114L182.05 48.53ZM192.557 45.788C192.557 45.36 192.473 45.022 192.305 44.774C192.137 44.522 191.907 44.342 191.615 44.234C191.323 44.122 190.989 44.066 190.613 44.066H189.419V47.594H190.571C190.959 47.594 191.301 47.542 191.597 47.438C191.893 47.33 192.127 47.146 192.299 46.886C192.471 46.622 192.557 46.256 192.557 45.788ZM193.673 45.776C193.673 46.42 193.535 46.936 193.259 47.324C192.987 47.712 192.611 47.994 192.131 48.17C191.651 48.346 191.099 48.434 190.475 48.434H189.419V51.5H188.375V43.238H190.487C191.471 43.238 192.247 43.446 192.815 43.862C193.387 44.274 193.673 44.912 193.673 45.776ZM200.095 43.238V44.072H198.259V50.666H200.095V51.5H195.367V50.666H197.203V44.072H195.367V43.238H200.095Z" fill="#19191C"/>
<path d="M214 32.5H296V62.5H214V32.5Z" fill="#CA2B58"/>
<path d="M214 32.5H296V62.5H214V32.5Z" stroke="#FD366E"/>
<path d="M227.626 51.5V43.238H228.67V50.57H232.438L232.318 51.5H227.626ZM239.783 47.378C239.783 48.21 239.669 48.948 239.441 49.592C239.217 50.232 238.879 50.734 238.427 51.098C237.975 51.458 237.413 51.638 236.741 51.638C236.073 51.638 235.511 51.462 235.055 51.11C234.603 50.754 234.263 50.258 234.035 49.622C233.811 48.986 233.699 48.242 233.699 47.39C233.699 46.554 233.811 45.814 234.035 45.17C234.263 44.526 234.603 44.022 235.055 43.658C235.511 43.29 236.073 43.106 236.741 43.106C237.413 43.106 237.975 43.284 238.427 43.64C238.879 43.996 239.217 44.494 239.441 45.134C239.669 45.774 239.783 46.522 239.783 47.378ZM238.691 47.378C238.691 46.278 238.539 45.436 238.235 44.852C237.935 44.268 237.437 43.976 236.741 43.976C236.045 43.976 235.545 44.27 235.241 44.858C234.941 45.446 234.791 46.29 234.791 47.39C234.791 48.49 234.947 49.328 235.259 49.904C235.571 50.476 236.065 50.762 236.741 50.762C237.437 50.762 237.935 50.474 238.235 49.898C238.539 49.318 238.691 48.478 238.691 47.378ZM244.045 51.638C243.393 51.638 242.825 51.48 242.341 51.164C241.861 50.848 241.489 50.374 241.225 49.742C240.961 49.11 240.829 48.318 240.829 47.366C240.829 46.654 240.923 46.032 241.111 45.5C241.303 44.968 241.561 44.524 241.885 44.168C242.213 43.812 242.583 43.546 242.995 43.37C243.411 43.194 243.841 43.106 244.285 43.106C244.825 43.106 245.273 43.184 245.629 43.34C245.985 43.492 246.325 43.716 246.649 44.012L246.019 44.666C245.767 44.43 245.501 44.256 245.221 44.144C244.945 44.032 244.635 43.976 244.291 43.976C243.991 43.976 243.701 44.034 243.421 44.15C243.141 44.266 242.889 44.456 242.665 44.72C242.445 44.98 242.269 45.326 242.137 45.758C242.009 46.19 241.945 46.726 241.945 47.366C241.945 48.162 242.027 48.81 242.191 49.31C242.359 49.81 242.605 50.178 242.929 50.414C243.257 50.646 243.661 50.762 244.141 50.762C244.429 50.762 244.701 50.728 244.957 50.66C245.217 50.592 245.469 50.494 245.713 50.366V47.846H244.087L243.961 46.982H246.745V50.918C246.373 51.118 245.977 51.288 245.557 51.428C245.137 51.568 244.633 51.638 244.045 51.638ZM253.862 49.214C253.862 49.686 253.744 50.106 253.508 50.474C253.272 50.838 252.93 51.124 252.482 51.332C252.034 51.536 251.488 51.638 250.844 51.638C250.24 51.638 249.692 51.546 249.2 51.362C248.712 51.178 248.294 50.918 247.946 50.582L248.564 49.886C248.852 50.154 249.182 50.368 249.554 50.528C249.926 50.684 250.362 50.762 250.862 50.762C251.198 50.762 251.512 50.708 251.804 50.6C252.096 50.488 252.332 50.32 252.512 50.096C252.692 49.868 252.782 49.58 252.782 49.232C252.782 48.964 252.73 48.736 252.626 48.548C252.522 48.36 252.338 48.194 252.074 48.05C251.81 47.902 251.442 47.758 250.97 47.618C250.426 47.458 249.954 47.278 249.554 47.078C249.158 46.874 248.85 46.624 248.63 46.328C248.414 46.032 248.306 45.666 248.306 45.23C248.306 44.818 248.42 44.452 248.648 44.132C248.876 43.812 249.19 43.562 249.59 43.382C249.994 43.198 250.458 43.106 250.982 43.106C251.554 43.106 252.05 43.188 252.47 43.352C252.894 43.512 253.278 43.744 253.622 44.048L253.01 44.726C252.714 44.462 252.396 44.272 252.056 44.156C251.716 44.036 251.37 43.976 251.018 43.976C250.718 43.976 250.442 44.022 250.19 44.114C249.942 44.202 249.742 44.336 249.59 44.516C249.442 44.692 249.368 44.918 249.368 45.194C249.368 45.43 249.432 45.634 249.56 45.806C249.688 45.978 249.904 46.136 250.208 46.28C250.512 46.42 250.926 46.568 251.45 46.724C251.878 46.848 252.274 47.004 252.638 47.192C253.006 47.376 253.302 47.628 253.526 47.948C253.75 48.264 253.862 48.686 253.862 49.214ZM266.909 49.394H263.639L262.979 51.5H261.953L264.641 43.238H265.973L268.661 51.5H267.569L266.909 49.394ZM263.909 48.53H266.639L265.283 44.114L263.909 48.53ZM274.416 45.788C274.416 45.36 274.332 45.022 274.164 44.774C273.996 44.522 273.766 44.342 273.474 44.234C273.182 44.122 272.848 44.066 272.472 44.066H271.278V47.594H272.43C272.818 47.594 273.16 47.542 273.456 47.438C273.752 47.33 273.986 47.146 274.158 46.886C274.33 46.622 274.416 46.256 274.416 45.788ZM275.532 45.776C275.532 46.42 275.394 46.936 275.118 47.324C274.846 47.712 274.47 47.994 273.99 48.17C273.51 48.346 272.958 48.434 272.334 48.434H271.278V51.5H270.234V43.238H272.346C273.33 43.238 274.106 43.446 274.674 43.862C275.246 44.274 275.532 44.912 275.532 45.776ZM281.953 43.238V44.072H280.117V50.666H281.953V51.5H277.225V50.666H279.061V44.072H277.225V43.238H281.953Z" fill="#19191C"/>
<path d="M296 32.5H406V62.5H296V32.5Z" fill="#CA2B58"/>
<path d="M296 32.5H406V62.5H296V32.5Z" stroke="#FD366E"/>
<path d="M313.568 45.788C313.568 45.36 313.484 45.022 313.316 44.774C313.148 44.522 312.918 44.342 312.626 44.234C312.334 44.122 312 44.066 311.624 44.066H310.43V47.594H311.582C311.97 47.594 312.312 47.542 312.608 47.438C312.904 47.33 313.138 47.146 313.31 46.886C313.482 46.622 313.568 46.256 313.568 45.788ZM314.684 45.776C314.684 46.42 314.546 46.936 314.27 47.324C313.998 47.712 313.622 47.994 313.142 48.17C312.662 48.346 312.11 48.434 311.486 48.434H310.43V51.5H309.386V43.238H311.498C312.482 43.238 313.258 43.446 313.826 43.862C314.398 44.274 314.684 44.912 314.684 45.776ZM316.767 51.5V43.238H317.811V50.57H321.579L321.459 51.5H316.767ZM327.485 49.394H324.215L323.555 51.5H322.529L325.217 43.238H326.549L329.237 51.5H328.145L327.485 49.394ZM324.485 48.53H327.215L325.859 44.114L324.485 48.53ZM333.522 44.132V51.5H332.484V44.132H329.904V43.238H336.138L336.03 44.132H333.522ZM339.259 44.09V46.982H342.499V47.822H339.259V51.5H338.227V43.238H343.093L342.967 44.09H339.259ZM350.349 47.378C350.349 48.21 350.235 48.948 350.007 49.592C349.783 50.232 349.445 50.734 348.993 51.098C348.541 51.458 347.979 51.638 347.307 51.638C346.639 51.638 346.077 51.462 345.621 51.11C345.169 50.754 344.829 50.258 344.601 49.622C344.377 48.986 344.265 48.242 344.265 47.39C344.265 46.554 344.377 45.814 344.601 45.17C344.829 44.526 345.169 44.022 345.621 43.658C346.077 43.29 346.639 43.106 347.307 43.106C347.979 43.106 348.541 43.284 348.993 43.64C349.445 43.996 349.783 44.494 350.007 45.134C350.235 45.774 350.349 46.522 350.349 47.378ZM349.257 47.378C349.257 46.278 349.105 45.436 348.801 44.852C348.501 44.268 348.003 43.976 347.307 43.976C346.611 43.976 346.111 44.27 345.807 44.858C345.507 45.446 345.357 46.29 345.357 47.39C345.357 48.49 345.513 49.328 345.825 49.904C346.137 50.476 346.631 50.762 347.307 50.762C348.003 50.762 348.501 50.474 348.801 49.898C349.105 49.318 349.257 48.478 349.257 47.378ZM357.298 45.554C357.298 45.966 357.208 46.326 357.028 46.634C356.852 46.942 356.612 47.196 356.308 47.396C356.004 47.596 355.662 47.742 355.282 47.834L357.73 51.5H356.482L354.226 47.954H353.11V51.5H352.066V43.238H354.19C355.21 43.238 355.982 43.434 356.506 43.826C357.034 44.214 357.298 44.79 357.298 45.554ZM356.182 45.554C356.182 45.022 356.03 44.642 355.726 44.414C355.422 44.182 354.95 44.066 354.31 44.066H353.11V47.138H354.31C354.902 47.138 355.362 47.018 355.69 46.778C356.018 46.534 356.182 46.126 356.182 45.554ZM364.355 43.238L364.823 51.5H363.821L363.563 47.186C363.551 46.894 363.539 46.598 363.527 46.298C363.515 45.998 363.507 45.71 363.503 45.434C363.499 45.158 363.497 44.912 363.497 44.696C363.497 44.48 363.497 44.312 363.497 44.192L362.105 50.018H361.061L359.567 44.192C359.571 44.308 359.575 44.48 359.579 44.708C359.583 44.932 359.585 45.186 359.585 45.47C359.589 45.754 359.587 46.046 359.579 46.346C359.575 46.642 359.567 46.918 359.555 47.174L359.333 51.5H358.355L358.823 43.238H360.275L361.613 48.896L362.891 43.238H364.355ZM377.474 49.394H374.204L373.544 51.5H372.518L375.206 43.238H376.538L379.226 51.5H378.134L377.474 49.394ZM374.474 48.53H377.204L375.848 44.114L374.474 48.53ZM384.981 45.788C384.981 45.36 384.897 45.022 384.729 44.774C384.561 44.522 384.331 44.342 384.039 44.234C383.747 44.122 383.413 44.066 383.037 44.066H381.843V47.594H382.995C383.383 47.594 383.725 47.542 384.021 47.438C384.317 47.33 384.551 47.146 384.723 46.886C384.895 46.622 384.981 46.256 384.981 45.788ZM386.097 45.776C386.097 46.42 385.959 46.936 385.683 47.324C385.411 47.712 385.035 47.994 384.555 48.17C384.075 48.346 383.523 48.434 382.899 48.434H381.843V51.5H380.799V43.238H382.911C383.895 43.238 384.671 43.446 385.239 43.862C385.811 44.274 386.097 44.912 386.097 45.776ZM392.518 43.238V44.072H390.682V50.666H392.518V51.5H387.79V50.666H389.626V44.072H387.79V43.238H392.518Z" fill="#19191C"/>
</g>
<path d="M678.5 0.5V499.5H0.5V0.5H678.5Z" stroke="#FD366E" stroke-opacity="0.16"/>
<defs>
<filter id="filter0_n_441_7071" x="0" y="0.5" width="679" height="32" filterUnits="userSpaceOnUse" color-interpolation-filters="sRGB">
<feFlood flood-opacity="0" result="BackgroundImageFix"/>
<feBlend mode="normal" in="SourceGraphic" in2="BackgroundImageFix" result="shape"/>
<feTurbulence type="fractalNoise" baseFrequency="1 1" stitchTiles="stitch" numOctaves="3" result="noise" seed="249" />
<feColorMatrix in="noise" type="luminanceToAlpha" result="alphaNoise" />
<feComponentTransfer in="alphaNoise" result="coloredNoise1">
<feFuncA type="discrete" tableValues="0 0 0 0 0 0 0 0 0 0 0 0 0 0 0 0 0 1 1 1 1 1 1 1 1 1 1 1 1 1 1 1 1 1 0 0 0 0 0 0 0 0 0 0 0 0 0 0 0 0 0 0 0 0 0 0 0 0 0 0 0 0 0 0 0 0 0 0 0 0 0 0 0 0 0 0 0 0 0 0 0 0 0 0 0 0 0 0 0 0 0 0 0 0 0 0 0 0 0 0 "/>
</feComponentTransfer>
<feComposite operator="in" in2="shape" in="coloredNoise1" result="noise1Clipped" />
<feFlood flood-color="rgba(0, 0, 0, 0.08)" result="color1Flood" />
<feComposite operator="in" in2="noise1Clipped" in="color1Flood" result="color1" />
<feMerge result="effect1_noise_441_7071">
<feMergeNode in="shape" />
<feMergeNode in="color1" />
</feMerge>
</filter>
<linearGradient id="paint0_linear_441_7071" x1="340" y1="185" x2="340" y2="439.5" gradientUnits="userSpaceOnUse">
<stop stop-color="#19191C"/>
<stop offset="0.17" stop-color="#2F1820"/>
<stop offset="0.34" stop-color="#531A2C"/>
<stop offset="0.51" stop-color="#9F1D42"/>
<stop offset="0.68" stop-color="#FD366E"/>
<stop offset="0.85" stop-color="#FEAFC5"/>
<stop offset="1" stop-color="#EDEDF0"/>
</linearGradient>
<clipPath id="clip0_441_7071">
<path d="M0 0H679V500H0V0Z" fill="white"/>
</clipPath>
<clipPath id="clip1_441_7071">
<rect width="679" height="467" fill="white" transform="translate(0 32.5)"/>
</clipPath>
</defs>
</svg>
