<svg width="679" height="467" viewBox="0 0 679 467" fill="none" xmlns="http://www.w3.org/2000/svg">
<path d="M495.519 323.789L495.269 323.933L340.25 413.433L340 413.577L339.75 413.433L184.731 323.933L184.481 323.789V144.211L184.731 144.067L339.75 54.5674L340 54.4229L340.25 54.5674L495.269 144.067L495.519 144.211V323.789Z" fill="url(#paint0_linear_215_7323)" stroke="#FD366E"/>
<path d="M340 234L340 413" stroke="#FD366E"/>
<g opacity="0.2">
<path d="M262.501 99.75C324.431 135.51 367.803 160.554 417.934 189.5" stroke="#FD366E"/>
<path d="M417.9 99.75C355.969 135.51 312.597 160.554 262.467 189.5" stroke="#FD366E"/>
<path d="M301.499 77.2695L456.898 167" stroke="#FD366E"/>
<path d="M378.899 77.2695L223.5 167" stroke="#FD366E"/>
<path d="M223.5 122.23L379 212.019" stroke="#FD366E"/>
<path d="M456.898 122.23L301.398 212.019" stroke="#FD366E"/>
</g>
<g opacity="0.2">
<path d="M262.729 189.015C262.725 260.528 262.723 310.612 262.72 368.499" stroke="#FD366E"/>
<path d="M340.427 323.595C278.493 287.842 235.118 262.802 184.985 233.861" stroke="#FD366E"/>
<path d="M301.697 211.55L301.688 390.995" stroke="#FD366E"/>
<path d="M340.397 278.58L184.988 188.865" stroke="#FD366E"/>
<path d="M223.76 166.481L223.75 346.042" stroke="#FD366E"/>
<path d="M340.459 368.61L184.95 278.838" stroke="#FD366E"/>
</g>
<g opacity="0.2">
<path d="M417.668 189.015C417.671 260.528 417.674 310.612 417.677 368.499" stroke="#FD366E"/>
<path d="M339.969 323.595C401.903 287.842 445.278 262.802 495.411 233.861" stroke="#FD366E"/>
<path d="M378.7 211.55L378.709 390.995" stroke="#FD366E"/>
<path d="M340 278.58L495.408 188.865" stroke="#FD366E"/>
<path d="M456.637 166.481L456.646 346.042" stroke="#FD366E"/>
<path d="M339.938 368.61L495.447 278.838" stroke="#FD366E"/>
</g>
<path d="M495 145L417.933 189.5L339.99 234.5" stroke="#FD366E"/>
<path d="M185.001 145L340.02 234.5" stroke="#FD366E"/>
<path d="M254.132 153.132C249.641 157.623 242.36 157.623 237.869 153.132C233.378 148.641 233.378 141.359 237.869 136.868C242.36 132.377 249.641 132.377 254.132 136.868C258.623 141.359 258.623 148.641 254.132 153.132Z" fill="#FD366E" fill-opacity="0.4" stroke="url(#paint1_linear_215_7323)"/>
<path d="M243.132 303.132C238.641 307.623 231.36 307.623 226.869 303.132C222.378 298.641 222.378 291.359 226.869 286.868C231.36 282.377 238.641 282.377 243.132 286.868C247.623 291.359 247.623 298.641 243.132 303.132Z" fill="#FD366E" fill-opacity="0.4" stroke="url(#paint2_linear_215_7323)"/>
<path d="M271.132 238.132C266.641 242.623 259.36 242.623 254.869 238.132C250.378 233.641 250.378 226.359 254.869 221.868C259.36 217.377 266.641 217.377 271.132 221.868C275.623 226.359 275.623 233.641 271.132 238.132Z" fill="#FD366E" fill-opacity="0.4" stroke="url(#paint3_linear_215_7323)"/>
<path d="M391.132 153.132C386.641 157.623 379.36 157.623 374.869 153.132C370.378 148.641 370.378 141.359 374.869 136.868C379.36 132.377 386.641 132.377 391.132 136.868C395.623 141.359 395.623 148.641 391.132 153.132Z" fill="#FD366E" fill-opacity="0.4" stroke="url(#paint4_linear_215_7323)"/>
<path d="M477.132 320.132C472.641 324.623 465.36 324.623 460.869 320.132C456.378 315.641 456.378 308.359 460.869 303.868C465.36 299.377 472.641 299.377 477.132 303.868C481.623 308.359 481.623 315.641 477.132 320.132Z" fill="#FD366E" fill-opacity="0.4" stroke="url(#paint5_linear_215_7323)"/>
<path d="M391.132 243.132C386.641 247.623 379.36 247.623 374.869 243.132C370.378 238.641 370.378 231.359 374.869 226.868C379.36 222.377 386.641 222.377 391.132 226.868C395.623 231.359 395.623 238.641 391.132 243.132Z" fill="#FD366E" fill-opacity="0.4" stroke="url(#paint6_linear_215_7323)"/>
<path d="M391.132 355.132C386.641 359.623 379.36 359.623 374.869 355.132C370.378 350.641 370.378 343.359 374.869 338.868C379.36 334.377 386.641 334.377 391.132 338.868C395.623 343.359 395.623 350.641 391.132 355.132Z" fill="#FD366E" fill-opacity="0.4" stroke="url(#paint7_linear_215_7323)"/>
<circle cx="560" cy="168" r="11" stroke="#FD366E"/>
<circle cx="157" cy="99" r="11" stroke="#FD366E"/>
<circle cx="135" cy="365" r="11" stroke="#FD366E"/>
<circle cx="478" cy="407" r="11" stroke="#FD366E"/>
<circle cx="236" cy="40.5" r="11" stroke="#FD366E"/>
<defs>
<linearGradient id="paint0_linear_215_7323" x1="340" y1="177.045" x2="340" y2="445.545" gradientUnits="userSpaceOnUse">
<stop stop-color="#19191C"/>
<stop offset="0.17" stop-color="#2F1820"/>
<stop offset="0.34" stop-color="#531A2C"/>
<stop offset="0.51" stop-color="#9F1D42"/>
<stop offset="0.68" stop-color="#FD366E"/>
<stop offset="0.85" stop-color="#FEAFC5"/>
<stop offset="1" stop-color="#EDEDF0"/>
</linearGradient>
<linearGradient id="paint1_linear_215_7323" x1="248.475" y1="147.475" x2="236.808" y2="135.808" gradientUnits="userSpaceOnUse">
<stop stop-color="#19191C"/>
<stop offset="0.17" stop-color="#2F1820"/>
<stop offset="0.34" stop-color="#531A2C"/>
<stop offset="0.51" stop-color="#9F1D42"/>
<stop offset="0.68" stop-color="#FD366E"/>
<stop offset="0.85" stop-color="#FEAFC5"/>
<stop offset="1" stop-color="#EDEDF0"/>
</linearGradient>
<linearGradient id="paint2_linear_215_7323" x1="237.475" y1="297.475" x2="225.808" y2="285.808" gradientUnits="userSpaceOnUse">
<stop stop-color="#19191C"/>
<stop offset="0.17" stop-color="#2F1820"/>
<stop offset="0.34" stop-color="#531A2C"/>
<stop offset="0.51" stop-color="#9F1D42"/>
<stop offset="0.68" stop-color="#FD366E"/>
<stop offset="0.85" stop-color="#FEAFC5"/>
<stop offset="1" stop-color="#EDEDF0"/>
</linearGradient>
<linearGradient id="paint3_linear_215_7323" x1="265.475" y1="232.475" x2="253.808" y2="220.808" gradientUnits="userSpaceOnUse">
<stop stop-color="#19191C"/>
<stop offset="0.17" stop-color="#2F1820"/>
<stop offset="0.34" stop-color="#531A2C"/>
<stop offset="0.51" stop-color="#9F1D42"/>
<stop offset="0.68" stop-color="#FD366E"/>
<stop offset="0.85" stop-color="#FEAFC5"/>
<stop offset="1" stop-color="#EDEDF0"/>
</linearGradient>
<linearGradient id="paint4_linear_215_7323" x1="385.475" y1="147.475" x2="373.808" y2="135.808" gradientUnits="userSpaceOnUse">
<stop stop-color="#19191C"/>
<stop offset="0.17" stop-color="#2F1820"/>
<stop offset="0.34" stop-color="#531A2C"/>
<stop offset="0.51" stop-color="#9F1D42"/>
<stop offset="0.68" stop-color="#FD366E"/>
<stop offset="0.85" stop-color="#FEAFC5"/>
<stop offset="1" stop-color="#EDEDF0"/>
</linearGradient>
<linearGradient id="paint5_linear_215_7323" x1="471.475" y1="314.475" x2="459.808" y2="302.808" gradientUnits="userSpaceOnUse">
<stop stop-color="#19191C"/>
<stop offset="0.17" stop-color="#2F1820"/>
<stop offset="0.34" stop-color="#531A2C"/>
<stop offset="0.51" stop-color="#9F1D42"/>
<stop offset="0.68" stop-color="#FD366E"/>
<stop offset="0.85" stop-color="#FEAFC5"/>
<stop offset="1" stop-color="#EDEDF0"/>
</linearGradient>
<linearGradient id="paint6_linear_215_7323" x1="385.475" y1="237.475" x2="373.808" y2="225.808" gradientUnits="userSpaceOnUse">
<stop stop-color="#19191C"/>
<stop offset="0.17" stop-color="#2F1820"/>
<stop offset="0.34" stop-color="#531A2C"/>
<stop offset="0.51" stop-color="#9F1D42"/>
<stop offset="0.68" stop-color="#FD366E"/>
<stop offset="0.85" stop-color="#FEAFC5"/>
<stop offset="1" stop-color="#EDEDF0"/>
</linearGradient>
<linearGradient id="paint7_linear_215_7323" x1="385.475" y1="349.475" x2="373.808" y2="337.808" gradientUnits="userSpaceOnUse">
<stop stop-color="#19191C"/>
<stop offset="0.17" stop-color="#2F1820"/>
<stop offset="0.34" stop-color="#531A2C"/>
<stop offset="0.51" stop-color="#9F1D42"/>
<stop offset="0.68" stop-color="#FD366E"/>
<stop offset="0.85" stop-color="#FEAFC5"/>
<stop offset="1" stop-color="#EDEDF0"/>
</linearGradient>
</defs>
</svg>
