<svg width="679" height="500" viewBox="0 0 679 500" fill="none" xmlns="http://www.w3.org/2000/svg">
<g filter="url(#filter0_n_388_6945)">
<g clip-path="url(#clip0_388_6945)">
<path d="M0 0H679V500H0V0Z" fill="#19191C"/>
<g clip-path="url(#clip1_388_6945)">
<path opacity="0.2" d="M48 125.5L631 125.5" stroke="#FD366E"/>
<path opacity="0.2" d="M48 170.5L631 170.5" stroke="#FD366E"/>
<path opacity="0.2" d="M48 215.5L631 215.5" stroke="#FD366E"/>
<path opacity="0.2" d="M48 260.5L631 260.5" stroke="#FD366E"/>
<path opacity="0.2" d="M48 305.5L631 305.5" stroke="#FD366E"/>
<path opacity="0.2" d="M48 350.5L631 350.5" stroke="#FD366E"/>
<path opacity="0.2" d="M48 395.057H631" stroke="#FD366E"/>
<path d="M48 80.5H144V110.5H48V80.5Z" fill="#FD366E"/>
<path d="M48 80.5H144V110.5H48V80.5Z" stroke="#FD366E"/>
<path d="M65.568 93.788C65.568 93.36 65.484 93.022 65.316 92.774C65.148 92.522 64.918 92.342 64.626 92.234C64.334 92.122 64 92.066 63.624 92.066H62.43V95.594H63.582C63.97 95.594 64.312 95.542 64.608 95.438C64.904 95.33 65.138 95.146 65.31 94.886C65.482 94.622 65.568 94.256 65.568 93.788ZM66.684 93.776C66.684 94.42 66.546 94.936 66.27 95.324C65.998 95.712 65.622 95.994 65.142 96.17C64.662 96.346 64.11 96.434 63.486 96.434H62.43V99.5H61.386V91.238H63.498C64.482 91.238 65.258 91.446 65.826 91.862C66.398 92.274 66.684 92.912 66.684 93.776ZM73.7833 95.378C73.7833 96.21 73.6693 96.948 73.4413 97.592C73.2173 98.232 72.8793 98.734 72.4273 99.098C71.9753 99.458 71.4133 99.638 70.7413 99.638C70.0733 99.638 69.5113 99.462 69.0553 99.11C68.6033 98.754 68.2633 98.258 68.0353 97.622C67.8113 96.986 67.6993 96.242 67.6993 95.39C67.6993 94.554 67.8113 93.814 68.0353 93.17C68.2633 92.526 68.6033 92.022 69.0553 91.658C69.5113 91.29 70.0733 91.106 70.7413 91.106C71.4133 91.106 71.9753 91.284 72.4273 91.64C72.8793 91.996 73.2173 92.494 73.4413 93.134C73.6693 93.774 73.7833 94.522 73.7833 95.378ZM72.6913 95.378C72.6913 94.278 72.5393 93.436 72.2353 92.852C71.9353 92.268 71.4373 91.976 70.7413 91.976C70.0453 91.976 69.5453 92.27 69.2413 92.858C68.9413 93.446 68.7913 94.29 68.7913 95.39C68.7913 96.49 68.9473 97.328 69.2593 97.904C69.5713 98.476 70.0653 98.762 70.7413 98.762C71.4373 98.762 71.9353 98.474 72.2353 97.898C72.5393 97.318 72.6913 96.478 72.6913 95.378ZM80.7206 97.214C80.7206 97.686 80.6026 98.106 80.3666 98.474C80.1306 98.838 79.7886 99.124 79.3406 99.332C78.8926 99.536 78.3466 99.638 77.7026 99.638C77.0986 99.638 76.5506 99.546 76.0586 99.362C75.5706 99.178 75.1526 98.918 74.8046 98.582L75.4226 97.886C75.7106 98.154 76.0406 98.368 76.4126 98.528C76.7846 98.684 77.2206 98.762 77.7206 98.762C78.0566 98.762 78.3706 98.708 78.6626 98.6C78.9546 98.488 79.1906 98.32 79.3706 98.096C79.5506 97.868 79.6406 97.58 79.6406 97.232C79.6406 96.964 79.5886 96.736 79.4846 96.548C79.3806 96.36 79.1966 96.194 78.9326 96.05C78.6686 95.902 78.3006 95.758 77.8286 95.618C77.2846 95.458 76.8126 95.278 76.4126 95.078C76.0166 94.874 75.7086 94.624 75.4886 94.328C75.2726 94.032 75.1646 93.666 75.1646 93.23C75.1646 92.818 75.2786 92.452 75.5066 92.132C75.7346 91.812 76.0486 91.562 76.4486 91.382C76.8526 91.198 77.3166 91.106 77.8406 91.106C78.4126 91.106 78.9086 91.188 79.3286 91.352C79.7526 91.512 80.1366 91.744 80.4806 92.048L79.8686 92.726C79.5726 92.462 79.2546 92.272 78.9146 92.156C78.5746 92.036 78.2286 91.976 77.8766 91.976C77.5766 91.976 77.3006 92.022 77.0486 92.114C76.8006 92.202 76.6006 92.336 76.4486 92.516C76.3006 92.692 76.2266 92.918 76.2266 93.194C76.2266 93.43 76.2906 93.634 76.4186 93.806C76.5466 93.978 76.7626 94.136 77.0666 94.28C77.3706 94.42 77.7846 94.568 78.3086 94.724C78.7366 94.848 79.1326 95.004 79.4966 95.192C79.8646 95.376 80.1606 95.628 80.3846 95.948C80.6086 96.264 80.7206 96.686 80.7206 97.214ZM85.5219 92.132V99.5H84.4839V92.132H81.9039V91.238H88.1379L88.0299 92.132H85.5219ZM92.3273 99.638C91.6753 99.638 91.1073 99.48 90.6233 99.164C90.1433 98.848 89.7713 98.374 89.5073 97.742C89.2433 97.11 89.1113 96.318 89.1113 95.366C89.1113 94.654 89.2053 94.032 89.3933 93.5C89.5853 92.968 89.8433 92.524 90.1673 92.168C90.4953 91.812 90.8653 91.546 91.2773 91.37C91.6933 91.194 92.1233 91.106 92.5673 91.106C93.1073 91.106 93.5553 91.184 93.9113 91.34C94.2673 91.492 94.6073 91.716 94.9313 92.012L94.3013 92.666C94.0493 92.43 93.7833 92.256 93.5033 92.144C93.2273 92.032 92.9173 91.976 92.5733 91.976C92.2733 91.976 91.9833 92.034 91.7033 92.15C91.4233 92.266 91.1713 92.456 90.9473 92.72C90.7273 92.98 90.5513 93.326 90.4193 93.758C90.2913 94.19 90.2273 94.726 90.2273 95.366C90.2273 96.162 90.3093 96.81 90.4733 97.31C90.6413 97.81 90.8873 98.178 91.2113 98.414C91.5393 98.646 91.9433 98.762 92.4233 98.762C92.7113 98.762 92.9833 98.728 93.2393 98.66C93.4993 98.592 93.7513 98.494 93.9953 98.366V95.846H92.3693L92.2433 94.982H95.0273V98.918C94.6553 99.118 94.2593 99.288 93.8393 99.428C93.4193 99.568 92.9153 99.638 92.3273 99.638ZM102.157 93.554C102.157 93.966 102.067 94.326 101.887 94.634C101.711 94.942 101.471 95.196 101.167 95.396C100.863 95.596 100.521 95.742 100.141 95.834L102.589 99.5H101.341L99.0846 95.954H97.9686V99.5H96.9246V91.238H99.0486C100.069 91.238 100.841 91.434 101.365 91.826C101.893 92.214 102.157 92.79 102.157 93.554ZM101.041 93.554C101.041 93.022 100.889 92.642 100.585 92.414C100.281 92.182 99.8086 92.066 99.1686 92.066H97.9686V95.138H99.1686C99.7606 95.138 100.221 95.018 100.549 94.778C100.877 94.534 101.041 94.126 101.041 93.554ZM105.398 92.09V94.874H108.458V95.732H105.398V98.666H109.154V99.5H104.354V91.238H109.046L108.926 92.09H105.398ZM116.427 97.214C116.427 97.686 116.309 98.106 116.073 98.474C115.837 98.838 115.495 99.124 115.047 99.332C114.599 99.536 114.053 99.638 113.409 99.638C112.805 99.638 112.257 99.546 111.765 99.362C111.277 99.178 110.859 98.918 110.511 98.582L111.129 97.886C111.417 98.154 111.747 98.368 112.119 98.528C112.491 98.684 112.927 98.762 113.427 98.762C113.763 98.762 114.077 98.708 114.369 98.6C114.661 98.488 114.897 98.32 115.077 98.096C115.257 97.868 115.347 97.58 115.347 97.232C115.347 96.964 115.295 96.736 115.191 96.548C115.087 96.36 114.903 96.194 114.639 96.05C114.375 95.902 114.007 95.758 113.535 95.618C112.991 95.458 112.519 95.278 112.119 95.078C111.723 94.874 111.415 94.624 111.195 94.328C110.979 94.032 110.871 93.666 110.871 93.23C110.871 92.818 110.985 92.452 111.213 92.132C111.441 91.812 111.755 91.562 112.155 91.382C112.559 91.198 113.023 91.106 113.547 91.106C114.119 91.106 114.615 91.188 115.035 91.352C115.459 91.512 115.843 91.744 116.187 92.048L115.575 92.726C115.279 92.462 114.961 92.272 114.621 92.156C114.281 92.036 113.935 91.976 113.583 91.976C113.283 91.976 113.007 92.022 112.755 92.114C112.507 92.202 112.307 92.336 112.155 92.516C112.007 92.692 111.933 92.918 111.933 93.194C111.933 93.43 111.997 93.634 112.125 93.806C112.253 93.978 112.469 94.136 112.773 94.28C113.077 94.42 113.491 94.568 114.015 94.724C114.443 94.848 114.839 95.004 115.203 95.192C115.571 95.376 115.867 95.628 116.091 95.948C116.315 96.264 116.427 96.686 116.427 97.214ZM123.773 95.378C123.773 95.962 123.719 96.498 123.611 96.986C123.503 97.474 123.323 97.904 123.071 98.276C122.823 98.648 122.487 98.95 122.063 99.182C122.451 99.258 122.781 99.372 123.053 99.524C123.329 99.676 123.561 99.882 123.749 100.142C123.941 100.406 124.105 100.74 124.241 101.144L123.143 101.576C122.979 101.152 122.791 100.794 122.579 100.502C122.371 100.21 122.109 99.988 121.793 99.836C121.481 99.688 121.087 99.614 120.611 99.614C119.979 99.614 119.443 99.44 119.003 99.092C118.567 98.74 118.237 98.248 118.013 97.616C117.789 96.984 117.677 96.242 117.677 95.39C117.677 94.554 117.791 93.814 118.019 93.17C118.251 92.526 118.593 92.022 119.045 91.658C119.497 91.29 120.057 91.106 120.725 91.106C121.397 91.106 121.959 91.284 122.411 91.64C122.863 91.996 123.203 92.494 123.431 93.134C123.659 93.774 123.773 94.522 123.773 95.378ZM122.693 95.378C122.693 94.274 122.539 93.432 122.231 92.852C121.927 92.268 121.425 91.976 120.725 91.976C120.029 91.976 119.527 92.27 119.219 92.858C118.911 93.442 118.757 94.286 118.757 95.39C118.757 96.49 118.915 97.328 119.231 97.904C119.551 98.476 120.049 98.762 120.725 98.762C121.421 98.762 121.923 98.474 122.231 97.898C122.539 97.318 122.693 96.478 122.693 95.378ZM125.898 99.5V91.238H126.942V98.57H130.71L130.59 99.5H125.898Z" fill="#19191C"/>
<path d="M144 80.5H233V110.5H144V80.5Z" fill="#CA2B58"/>
<path d="M144 80.5H233V110.5H144V80.5Z" stroke="#FD366E"/>
<path d="M159.624 98.318L161.856 91.238H162.906L160.14 99.5H159.06L156.294 91.238H157.416L159.624 98.318ZM165.691 92.09V94.874H168.751V95.732H165.691V98.666H169.447V99.5H164.647V91.238H169.339L169.219 92.09H165.691ZM174.579 91.106C175.119 91.106 175.571 91.174 175.935 91.31C176.299 91.446 176.645 91.646 176.973 91.91L176.391 92.588C176.131 92.368 175.855 92.212 175.563 92.12C175.275 92.024 174.973 91.976 174.657 91.976C174.205 91.976 173.787 92.084 173.403 92.3C173.019 92.512 172.709 92.866 172.473 93.362C172.241 93.854 172.125 94.522 172.125 95.366C172.125 96.186 172.235 96.844 172.455 97.34C172.679 97.836 172.981 98.194 173.361 98.414C173.741 98.634 174.165 98.744 174.633 98.744C175.097 98.744 175.477 98.674 175.773 98.534C176.073 98.394 176.333 98.234 176.553 98.054L177.093 98.738C176.841 98.982 176.513 99.194 176.109 99.374C175.705 99.55 175.209 99.638 174.621 99.638C173.953 99.638 173.347 99.474 172.803 99.146C172.263 98.818 171.835 98.338 171.519 97.706C171.203 97.07 171.045 96.29 171.045 95.366C171.045 94.438 171.205 93.658 171.525 93.026C171.849 92.394 172.279 91.916 172.815 91.592C173.355 91.268 173.943 91.106 174.579 91.106ZM181.522 92.132V99.5H180.484V92.132H177.904V91.238H184.138L184.03 92.132H181.522ZM191.207 95.378C191.207 96.21 191.093 96.948 190.865 97.592C190.641 98.232 190.303 98.734 189.851 99.098C189.399 99.458 188.837 99.638 188.165 99.638C187.497 99.638 186.935 99.462 186.479 99.11C186.027 98.754 185.687 98.258 185.459 97.622C185.235 96.986 185.123 96.242 185.123 95.39C185.123 94.554 185.235 93.814 185.459 93.17C185.687 92.526 186.027 92.022 186.479 91.658C186.935 91.29 187.497 91.106 188.165 91.106C188.837 91.106 189.399 91.284 189.851 91.64C190.303 91.996 190.641 92.494 190.865 93.134C191.093 93.774 191.207 94.522 191.207 95.378ZM190.115 95.378C190.115 94.278 189.963 93.436 189.659 92.852C189.359 92.268 188.861 91.976 188.165 91.976C187.469 91.976 186.969 92.27 186.665 92.858C186.365 93.446 186.215 94.29 186.215 95.39C186.215 96.49 186.371 97.328 186.683 97.904C186.995 98.476 187.489 98.762 188.165 98.762C188.861 98.762 189.359 98.474 189.659 97.898C189.963 97.318 190.115 96.478 190.115 95.378ZM198.157 93.554C198.157 93.966 198.067 94.326 197.887 94.634C197.711 94.942 197.471 95.196 197.167 95.396C196.863 95.596 196.521 95.742 196.141 95.834L198.589 99.5H197.341L195.085 95.954H193.969V99.5H192.925V91.238H195.049C196.069 91.238 196.841 91.434 197.365 91.826C197.893 92.214 198.157 92.79 198.157 93.554ZM197.041 93.554C197.041 93.022 196.889 92.642 196.585 92.414C196.281 92.182 195.809 92.066 195.169 92.066H193.969V95.138H195.169C195.761 95.138 196.221 95.018 196.549 94.778C196.877 94.534 197.041 94.126 197.041 93.554ZM211.509 95.33C211.509 94.61 211.433 94.034 211.281 93.602C211.129 93.17 210.929 92.846 210.681 92.63C210.433 92.414 210.161 92.27 209.865 92.198C209.573 92.126 209.285 92.09 209.001 92.09H208.029V98.666H209.013C209.309 98.666 209.603 98.62 209.895 98.528C210.191 98.432 210.461 98.264 210.705 98.024C210.949 97.78 211.143 97.442 211.287 97.01C211.435 96.574 211.509 96.014 211.509 95.33ZM212.619 95.33C212.619 96.018 212.545 96.606 212.397 97.094C212.253 97.578 212.055 97.978 211.803 98.294C211.551 98.61 211.263 98.856 210.939 99.032C210.619 99.204 210.281 99.326 209.925 99.398C209.573 99.466 209.227 99.5 208.887 99.5H206.991V91.238H208.755C209.239 91.238 209.709 91.292 210.165 91.4C210.625 91.508 211.039 91.708 211.407 92C211.779 92.288 212.073 92.7 212.289 93.236C212.509 93.772 212.619 94.47 212.619 95.33ZM218.507 97.178C218.507 96.762 218.425 96.442 218.261 96.218C218.101 95.99 217.887 95.832 217.619 95.744C217.351 95.656 217.057 95.612 216.737 95.612H215.327V98.642H216.689C216.893 98.642 217.101 98.622 217.313 98.582C217.525 98.542 217.721 98.47 217.901 98.366C218.085 98.262 218.231 98.116 218.339 97.928C218.451 97.736 218.507 97.486 218.507 97.178ZM218.177 93.374C218.177 92.906 218.031 92.574 217.739 92.378C217.451 92.178 217.057 92.078 216.557 92.078H215.327V94.754H216.659C217.147 94.754 217.521 94.646 217.781 94.43C218.045 94.21 218.177 93.858 218.177 93.374ZM219.605 97.142C219.605 97.59 219.515 97.966 219.335 98.27C219.159 98.574 218.921 98.816 218.621 98.996C218.325 99.176 217.993 99.306 217.625 99.386C217.261 99.462 216.889 99.5 216.509 99.5H214.289V91.238H216.323C216.687 91.238 217.041 91.272 217.385 91.34C217.733 91.404 218.045 91.516 218.321 91.676C218.601 91.832 218.825 92.044 218.993 92.312C219.161 92.58 219.245 92.916 219.245 93.32C219.245 93.676 219.171 93.978 219.023 94.226C218.879 94.47 218.689 94.666 218.453 94.814C218.221 94.962 217.973 95.066 217.709 95.126C218.017 95.174 218.315 95.268 218.603 95.408C218.895 95.544 219.135 95.752 219.323 96.032C219.511 96.308 219.605 96.678 219.605 97.142Z" fill="#19191C"/>
<path opacity="0.2" d="M48 69.5L48 462.5" stroke="#FD366E"/>
<path opacity="0.2" d="M145.166 69.5L145.166 462.5" stroke="#FD366E"/>
<path opacity="0.2" d="M242.334 69.5L242.334 462.5" stroke="#FD366E"/>
<path opacity="0.2" d="M339.5 69.5L339.5 462.5" stroke="#FD366E"/>
<path opacity="0.2" d="M436.666 69.5L436.666 462.5" stroke="#FD366E"/>
<path opacity="0.2" d="M533.834 69.5L533.834 462.5" stroke="#FD366E"/>
<path opacity="0.2" d="M631 69.5L631 462.5" stroke="#FD366E"/>
<path d="M513.728 238.854C532.808 115.675 426.048 158.896 405.604 197.449L405.599 197.525C413.451 206.342 419.558 216.747 423.379 228.198L423.364 228.197L423.35 228.197C426.278 236.971 427.865 246.358 427.865 256.117C427.865 270.793 424.278 284.632 417.932 296.804C414.026 304.296 409.073 311.157 403.27 317.193C402.85 317.63 402.426 318.063 401.998 318.491C401.632 318.855 401.263 319.217 400.892 319.575C419.236 379.38 496.242 351.738 513.728 238.854Z" fill="#19191C"/>
<path d="M513.728 238.854C532.808 115.675 426.048 158.896 405.604 197.449L405.599 197.525C413.451 206.342 419.558 216.747 423.379 228.198L423.364 228.197L423.35 228.197C426.278 236.971 427.865 246.358 427.865 256.117C427.865 270.793 424.278 284.632 417.932 296.804C414.026 304.296 409.073 311.157 403.27 317.193C402.85 317.63 402.426 318.063 401.998 318.491C401.632 318.855 401.263 319.217 400.892 319.575C419.236 379.38 496.242 351.738 513.728 238.854Z" fill="url(#paint0_linear_388_6945)"/>
<path d="M408.39 232.934C407.456 233.325 406.531 233.732 405.615 234.154C406.53 233.73 407.457 233.325 408.39 232.934Z" fill="#19191C"/>
<path d="M408.39 232.934C407.456 233.325 406.531 233.732 405.615 234.154C406.53 233.73 407.457 233.325 408.39 232.934Z" fill="url(#paint1_linear_388_6945)"/>
<path d="M165.737 238.854C146.657 115.675 253.417 158.896 273.861 197.449L273.872 197.582C266.044 206.387 259.955 216.772 256.142 228.197C256.133 228.195 256.122 228.199 256.113 228.197C253.185 236.971 251.599 246.358 251.599 256.117C251.599 270.793 255.185 284.632 261.531 296.804C265.437 304.296 270.39 311.157 276.193 317.193C276.97 318.002 277.765 318.797 278.573 319.576C260.228 379.379 183.223 351.737 165.737 238.854Z" fill="#19191C"/>
<path d="M165.737 238.854C146.657 115.675 253.417 158.896 273.861 197.449L273.872 197.582C266.044 206.387 259.955 216.772 256.142 228.197C256.133 228.195 256.122 228.199 256.113 228.197C253.185 236.971 251.599 246.358 251.599 256.117C251.599 270.793 255.185 284.632 261.531 296.804C265.437 304.296 270.39 311.157 276.193 317.193C276.97 318.002 277.765 318.797 278.573 319.576C260.228 379.379 183.223 351.737 165.737 238.854Z" fill="url(#paint2_linear_388_6945)"/>
<path fill-rule="evenodd" clip-rule="evenodd" d="M402.714 235.569L402.592 235.615C373.919 250.157 354.269 279.917 354.269 314.267C354.269 323.445 355.673 332.296 358.276 340.616C358.37 340.914 358.464 341.212 358.562 341.508L358.783 342.186C359.35 343.882 359.965 345.555 360.629 347.203L360.65 347.254L353.3 394.845C352.305 401.284 346.763 406.036 340.247 406.036C333.702 406.036 328.144 401.243 327.183 394.769L319.77 344.852C320.097 343.97 320.409 343.082 320.707 342.186C320.881 341.665 321.05 341.142 321.215 340.617C323.818 332.296 325.222 323.446 325.222 314.267C325.222 299.813 321.731 286.177 315.564 274.141C307.076 257.561 293.485 244.028 276.871 235.601C270.383 232.311 263.43 229.806 256.142 228.197C259.955 216.772 266.044 206.387 273.872 197.582" fill="#19191C"/>
<path fill-rule="evenodd" clip-rule="evenodd" d="M402.714 235.569L402.592 235.615C373.919 250.157 354.269 279.917 354.269 314.267C354.269 323.445 355.673 332.296 358.276 340.616C358.37 340.914 358.464 341.212 358.562 341.508L358.783 342.186C359.35 343.882 359.965 345.555 360.629 347.203L360.65 347.254L353.3 394.845C352.305 401.284 346.763 406.036 340.247 406.036C333.702 406.036 328.144 401.243 327.183 394.769L319.77 344.852C320.097 343.97 320.409 343.082 320.707 342.186C320.881 341.665 321.05 341.142 321.215 340.617C323.818 332.296 325.222 323.446 325.222 314.267C325.222 299.813 321.731 286.177 315.564 274.141C307.076 257.561 293.485 244.028 276.871 235.601C270.383 232.311 263.43 229.806 256.142 228.197C259.955 216.772 266.044 206.387 273.872 197.582" fill="url(#paint3_linear_388_6945)"/>
<path fill-rule="evenodd" clip-rule="evenodd" d="M358.276 340.616C355.673 332.296 354.269 323.445 354.269 314.267C354.269 279.917 373.919 250.157 402.592 235.615C402.703 235.559 402.813 235.503 402.924 235.447C402.978 235.42 403.032 235.393 403.086 235.366C403.145 235.336 403.204 235.307 403.263 235.278C403.321 235.249 403.378 235.221 403.435 235.193C403.45 235.186 403.465 235.178 403.48 235.171C403.496 235.163 403.513 235.155 403.529 235.146C403.668 235.078 403.806 235.011 403.945 234.943C404.498 234.674 405.055 234.411 405.615 234.154C406.742 233.635 407.883 233.139 409.036 232.667C407.884 233.139 406.741 233.632 405.615 234.154C404.637 234.607 403.671 235.083 402.711 235.569C402.671 235.59 402.629 235.609 402.588 235.63C373.932 250.178 354.296 279.929 354.296 314.267C354.296 323.445 355.701 332.296 358.276 340.616ZM358.783 342.186C359.35 343.882 359.965 345.555 360.629 347.203C360.636 347.22 360.643 347.237 360.65 347.254C368.286 366.158 382.285 381.808 399.996 391.548C395.705 381.174 393.337 369.803 393.337 357.879C393.337 343.203 396.924 329.365 403.27 317.193C402.85 317.63 402.426 318.063 401.998 318.491C401.632 318.855 401.263 319.217 400.892 319.575C389.409 330.646 374.925 338.629 358.783 342.186Z" fill="#19191C"/>
<path fill-rule="evenodd" clip-rule="evenodd" d="M358.276 340.616C355.673 332.296 354.269 323.445 354.269 314.267C354.269 279.917 373.919 250.157 402.592 235.615C402.703 235.559 402.813 235.503 402.924 235.447C402.978 235.42 403.032 235.393 403.086 235.366C403.145 235.336 403.204 235.307 403.263 235.278C403.321 235.249 403.378 235.221 403.435 235.193C403.45 235.186 403.465 235.178 403.48 235.171C403.496 235.163 403.513 235.155 403.529 235.146C403.668 235.078 403.806 235.011 403.945 234.943C404.498 234.674 405.055 234.411 405.615 234.154C406.742 233.635 407.883 233.139 409.036 232.667C407.884 233.139 406.741 233.632 405.615 234.154C404.637 234.607 403.671 235.083 402.711 235.569C402.671 235.59 402.629 235.609 402.588 235.63C373.932 250.178 354.296 279.929 354.296 314.267C354.296 323.445 355.701 332.296 358.276 340.616ZM358.783 342.186C359.35 343.882 359.965 345.555 360.629 347.203C360.636 347.22 360.643 347.237 360.65 347.254C368.286 366.158 382.285 381.808 399.996 391.548C395.705 381.174 393.337 369.803 393.337 357.879C393.337 343.203 396.924 329.365 403.27 317.193C402.85 317.63 402.426 318.063 401.998 318.491C401.632 318.855 401.263 319.217 400.892 319.575C389.409 330.646 374.925 338.629 358.783 342.186Z" fill="url(#paint4_linear_388_6945)"/>
<path fill-rule="evenodd" clip-rule="evenodd" d="M278.57 319.575C277.763 318.796 276.968 318.001 276.19 317.192C282.536 329.364 286.123 343.203 286.123 357.879C286.123 369.803 283.756 381.174 279.465 391.548C297.921 381.399 312.348 364.831 319.741 344.851C320.068 343.969 320.38 343.08 320.678 342.185C304.536 338.628 290.054 330.646 278.57 319.575Z" fill="#19191C"/>
<path fill-rule="evenodd" clip-rule="evenodd" d="M278.57 319.575C277.763 318.796 276.968 318.001 276.19 317.192C282.536 329.364 286.123 343.203 286.123 357.879C286.123 369.803 283.756 381.174 279.465 391.548C297.921 381.399 312.348 364.831 319.741 344.851C320.068 343.969 320.38 343.08 320.678 342.185C304.536 338.628 290.054 330.646 278.57 319.575Z" fill="url(#paint5_linear_388_6945)"/>
<path fill-rule="evenodd" clip-rule="evenodd" d="M360.65 347.254L360.656 347.202C359.992 345.554 359.377 343.881 358.81 342.185C359.348 343.88 359.965 345.555 360.629 347.203L360.65 347.254ZM354.296 314.267C354.296 279.929 373.932 250.178 402.588 235.63C402.629 235.609 402.671 235.59 402.711 235.569C409.182 232.296 416.113 229.799 423.379 228.198L423.364 228.197L423.35 228.197C418.41 229.286 413.627 230.788 409.036 232.667C407.883 233.139 406.742 233.635 405.615 234.154C405.055 234.411 404.498 234.674 403.945 234.943C403.806 235.011 403.668 235.078 403.529 235.146C403.513 235.155 403.496 235.163 403.48 235.171C403.465 235.178 403.45 235.186 403.435 235.193C403.378 235.221 403.321 235.249 403.263 235.278C403.204 235.307 403.145 235.336 403.086 235.366C403.032 235.393 402.978 235.42 402.924 235.447C402.813 235.503 402.703 235.559 402.592 235.615C373.919 250.157 354.269 279.917 354.269 314.267C354.269 323.445 355.673 332.296 358.276 340.616C358.37 340.914 358.463 341.21 358.589 341.507C358.491 341.211 358.397 340.914 358.303 340.616C355.7 332.296 354.296 323.445 354.296 314.267Z" fill="#19191C"/>
<path fill-rule="evenodd" clip-rule="evenodd" d="M360.65 347.254L360.656 347.202C359.992 345.554 359.377 343.881 358.81 342.185C359.348 343.88 359.965 345.555 360.629 347.203L360.65 347.254ZM354.296 314.267C354.296 279.929 373.932 250.178 402.588 235.63C402.629 235.609 402.671 235.59 402.711 235.569C409.182 232.296 416.113 229.799 423.379 228.198L423.364 228.197L423.35 228.197C418.41 229.286 413.627 230.788 409.036 232.667C407.883 233.139 406.742 233.635 405.615 234.154C405.055 234.411 404.498 234.674 403.945 234.943C403.806 235.011 403.668 235.078 403.529 235.146C403.513 235.155 403.496 235.163 403.48 235.171C403.465 235.178 403.45 235.186 403.435 235.193C403.378 235.221 403.321 235.249 403.263 235.278C403.204 235.307 403.145 235.336 403.086 235.366C403.032 235.393 402.978 235.42 402.924 235.447C402.813 235.503 402.703 235.559 402.592 235.615C373.919 250.157 354.269 279.917 354.269 314.267C354.269 323.445 355.673 332.296 358.276 340.616C358.37 340.914 358.463 341.21 358.589 341.507C358.491 341.211 358.397 340.914 358.303 340.616C355.7 332.296 354.296 323.445 354.296 314.267Z" fill="url(#paint6_linear_388_6945)"/>
<path fill-rule="evenodd" clip-rule="evenodd" d="M400.892 319.575C401.263 319.217 401.632 318.855 401.998 318.491C402.426 318.063 402.85 317.63 403.27 317.193C409.073 311.157 414.026 304.296 417.932 296.804C424.278 284.632 427.865 270.793 427.865 256.117C427.865 246.358 426.278 236.971 423.35 228.197C418.41 229.286 413.627 230.788 409.036 232.667C407.884 233.139 406.741 233.632 405.615 234.154C404.637 234.607 403.671 235.083 402.711 235.569C402.671 235.59 402.629 235.609 402.588 235.63C373.932 250.178 354.296 279.929 354.296 314.267C354.296 323.445 355.7 332.296 358.303 340.616C358.397 340.914 358.492 341.212 358.562 341.508L358.783 342.186C374.925 338.629 389.409 330.646 400.892 319.575Z" fill="#19191C"/>
<path fill-rule="evenodd" clip-rule="evenodd" d="M400.892 319.575C401.263 319.217 401.632 318.855 401.998 318.491C402.426 318.063 402.85 317.63 403.27 317.193C409.073 311.157 414.026 304.296 417.932 296.804C424.278 284.632 427.865 270.793 427.865 256.117C427.865 246.358 426.278 236.971 423.35 228.197C418.41 229.286 413.627 230.788 409.036 232.667C407.884 233.139 406.741 233.632 405.615 234.154C404.637 234.607 403.671 235.083 402.711 235.569C402.671 235.59 402.629 235.609 402.588 235.63C373.932 250.178 354.296 279.929 354.296 314.267C354.296 323.445 355.7 332.296 358.303 340.616C358.397 340.914 358.492 341.212 358.562 341.508L358.783 342.186C374.925 338.629 389.409 330.646 400.892 319.575Z" fill="url(#paint7_linear_388_6945)"/>
<path d="M273.872 197.582C290.015 179.423 313.55 167.983 339.76 167.983C365.942 167.983 389.457 179.399 405.599 197.525C413.451 206.342 419.558 216.747 423.379 228.198L423.364 228.197L423.35 228.197C418.41 229.286 413.63 230.788 409.039 232.667C407.885 233.139 406.744 233.635 405.617 234.153C405.057 234.411 404.501 234.674 403.947 234.943C403.808 235.01 403.671 235.078 403.532 235.146C403.516 235.155 403.499 235.163 403.482 235.171C403.468 235.178 403.453 235.186 403.438 235.193C403.381 235.221 403.323 235.249 403.266 235.278C403.207 235.307 403.145 235.336 403.086 235.366C403.032 235.393 402.978 235.42 402.924 235.447C402.813 235.503 402.703 235.559 402.592 235.615C373.919 250.157 354.269 279.917 354.269 314.267C354.269 323.445 355.673 332.296 358.276 340.616C358.37 340.914 358.464 341.212 358.562 341.508L358.783 342.186C359.35 343.882 359.965 345.555 360.629 347.203L360.65 347.254L353.3 394.845C352.305 401.284 346.763 406.036 340.247 406.036C333.702 406.036 328.144 401.243 327.183 394.769L319.77 344.852C320.097 343.97 320.409 343.082 320.707 342.186C320.881 341.665 321.05 341.142 321.215 340.617C323.818 332.296 325.222 323.446 325.222 314.267C325.222 291.852 316.855 271.392 303.073 255.839C295.728 247.55 286.845 240.655 276.871 235.601C270.381 232.313 263.432 229.804 256.142 228.197C259.955 216.772 266.044 206.387 273.872 197.582Z" fill="#19191C"/>
<path d="M273.872 197.582C290.015 179.423 313.55 167.983 339.76 167.983C365.942 167.983 389.457 179.399 405.599 197.525C413.451 206.342 419.558 216.747 423.379 228.198L423.364 228.197L423.35 228.197C418.41 229.286 413.63 230.788 409.039 232.667C407.885 233.139 406.744 233.635 405.617 234.153C405.057 234.411 404.501 234.674 403.947 234.943C403.808 235.01 403.671 235.078 403.532 235.146C403.516 235.155 403.499 235.163 403.482 235.171C403.468 235.178 403.453 235.186 403.438 235.193C403.381 235.221 403.323 235.249 403.266 235.278C403.207 235.307 403.145 235.336 403.086 235.366C403.032 235.393 402.978 235.42 402.924 235.447C402.813 235.503 402.703 235.559 402.592 235.615C373.919 250.157 354.269 279.917 354.269 314.267C354.269 323.445 355.673 332.296 358.276 340.616C358.37 340.914 358.464 341.212 358.562 341.508L358.783 342.186C359.35 343.882 359.965 345.555 360.629 347.203L360.65 347.254L353.3 394.845C352.305 401.284 346.763 406.036 340.247 406.036C333.702 406.036 328.144 401.243 327.183 394.769L319.77 344.852C320.097 343.97 320.409 343.082 320.707 342.186C320.881 341.665 321.05 341.142 321.215 340.617C323.818 332.296 325.222 323.446 325.222 314.267C325.222 291.852 316.855 271.392 303.073 255.839C295.728 247.55 286.845 240.655 276.871 235.601C270.381 232.313 263.432 229.804 256.142 228.197C259.955 216.772 266.044 206.387 273.872 197.582Z" fill="url(#paint8_linear_388_6945)"/>
<path fill-rule="evenodd" clip-rule="evenodd" d="M339.76 167.983C313.55 167.983 290.015 179.423 273.872 197.582C266.044 206.387 259.955 216.772 256.142 228.197C256.133 228.195 256.122 228.199 256.113 228.197C253.185 236.971 251.599 246.358 251.599 256.117C251.599 270.793 255.185 284.632 261.531 296.804C265.437 304.296 270.39 311.157 276.193 317.193C276.97 318.002 277.765 318.797 278.573 319.576C290.056 330.647 304.536 338.628 320.678 342.185C320.852 341.664 321.022 341.142 321.187 340.617C323.79 332.296 325.194 323.445 325.194 314.267C325.194 299.82 321.722 286.178 315.564 274.141C321.731 286.177 325.222 299.813 325.222 314.267C325.222 323.446 323.818 332.296 321.215 340.617C321.05 341.142 320.881 341.665 320.707 342.186C320.409 343.082 320.097 343.97 319.77 344.852L327.183 394.769C328.144 401.243 333.702 406.036 340.247 406.036C346.763 406.036 352.305 401.284 353.3 394.845L360.65 347.254L360.629 347.203C359.965 345.555 359.35 343.882 358.783 342.186L358.562 341.508C358.464 341.212 358.37 340.914 358.276 340.616C355.673 332.296 354.269 323.445 354.269 314.267C354.269 279.917 373.919 250.157 402.592 235.615L402.714 235.569C404.78 234.524 406.884 233.55 409.039 232.667C413.63 230.788 418.41 229.286 423.35 228.197L423.364 228.197L423.379 228.198C419.558 216.747 413.451 206.342 405.599 197.525C389.457 179.399 365.942 167.983 339.76 167.983Z" fill="#19191C"/>
<path fill-rule="evenodd" clip-rule="evenodd" d="M339.76 167.983C313.55 167.983 290.015 179.423 273.872 197.582C266.044 206.387 259.955 216.772 256.142 228.197C256.133 228.195 256.122 228.199 256.113 228.197C253.185 236.971 251.599 246.358 251.599 256.117C251.599 270.793 255.185 284.632 261.531 296.804C265.437 304.296 270.39 311.157 276.193 317.193C276.97 318.002 277.765 318.797 278.573 319.576C290.056 330.647 304.536 338.628 320.678 342.185C320.852 341.664 321.022 341.142 321.187 340.617C323.79 332.296 325.194 323.445 325.194 314.267C325.194 299.82 321.722 286.178 315.564 274.141C321.731 286.177 325.222 299.813 325.222 314.267C325.222 323.446 323.818 332.296 321.215 340.617C321.05 341.142 320.881 341.665 320.707 342.186C320.409 343.082 320.097 343.97 319.77 344.852L327.183 394.769C328.144 401.243 333.702 406.036 340.247 406.036C346.763 406.036 352.305 401.284 353.3 394.845L360.65 347.254L360.629 347.203C359.965 345.555 359.35 343.882 358.783 342.186L358.562 341.508C358.464 341.212 358.37 340.914 358.276 340.616C355.673 332.296 354.269 323.445 354.269 314.267C354.269 279.917 373.919 250.157 402.592 235.615L402.714 235.569C404.78 234.524 406.884 233.55 409.039 232.667C413.63 230.788 418.41 229.286 423.35 228.197L423.364 228.197L423.379 228.198C419.558 216.747 413.451 206.342 405.599 197.525C389.457 179.399 365.942 167.983 339.76 167.983Z" fill="url(#paint9_linear_388_6945)"/>
<path d="M400.808 319.575C419.152 379.38 496.158 351.738 513.644 238.854C532.724 115.675 425.964 158.896 405.52 197.449L405.515 197.525M400.808 319.575C401.179 319.217 401.548 318.855 401.914 318.491C402.342 318.063 402.766 317.63 403.186 317.193M400.808 319.575C389.325 330.646 374.841 338.629 358.699 342.186M403.186 317.193C408.989 311.157 413.942 304.296 417.848 296.804C424.194 284.632 427.781 270.793 427.781 256.117C427.781 246.358 426.194 236.971 423.266 228.197M403.186 317.193C396.84 329.365 393.253 343.203 393.253 357.879C393.253 369.803 395.621 381.174 399.912 391.548C382.201 381.808 368.202 366.158 360.566 347.254M423.266 228.197L423.28 228.197L423.295 228.198M423.266 228.197C418.326 229.286 413.543 230.788 408.952 232.667M423.266 228.197C418.326 229.286 413.546 230.788 408.955 232.667M405.515 197.525C413.367 206.342 419.474 216.747 423.295 228.198M405.515 197.525C389.373 179.399 365.858 167.983 339.676 167.983C313.466 167.983 289.931 179.423 273.788 197.582M408.952 232.667C408.757 232.747 408.563 232.827 408.368 232.909C408.348 232.917 408.327 232.926 408.306 232.934M408.952 232.667C407.799 233.139 406.658 233.635 405.531 234.154M408.952 232.667C407.8 233.139 406.657 233.632 405.531 234.154M408.952 232.667C408.897 232.69 408.842 232.712 408.787 232.734M408.952 232.667C408.943 232.671 408.934 232.673 408.925 232.676C408.879 232.695 408.833 232.715 408.787 232.734M408.306 232.934C407.372 233.325 406.447 233.732 405.531 234.154M408.306 232.934C407.373 233.325 406.446 233.73 405.531 234.154M405.531 234.154C404.553 234.607 403.587 235.083 402.627 235.569M405.531 234.154C404.971 234.411 404.414 234.674 403.861 234.943M405.531 234.154C404.579 234.594 403.641 235.056 402.707 235.527M405.531 234.154C406.603 233.657 407.691 233.186 408.787 232.734M405.531 234.154L405.42 234.203L404.87 234.458C404.533 234.617 404.196 234.78 403.861 234.943M405.531 234.154C406.34 233.779 407.156 233.418 407.977 233.071C408.247 232.957 408.518 232.846 408.787 232.734M403.861 234.943C403.722 235.011 403.584 235.078 403.445 235.146M403.861 234.943L403.445 235.146M403.445 235.146C403.429 235.155 403.412 235.163 403.396 235.171M403.445 235.146L403.396 235.171M402.627 235.569C402.587 235.59 402.545 235.609 402.504 235.63M402.627 235.569C409.098 232.296 416.029 229.799 423.295 228.198M402.627 235.569L402.84 235.447M402.627 235.569C402.654 235.555 402.681 235.541 402.707 235.527M402.627 235.569L402.504 235.63M403.179 235.278L403.351 235.193M403.179 235.278C403.12 235.307 403.061 235.336 403.002 235.366M403.179 235.278C403.237 235.249 403.294 235.221 403.351 235.193M403.179 235.278L403.002 235.366M403.351 235.193L403.396 235.171M403.351 235.193C403.366 235.186 403.381 235.178 403.396 235.171M403.002 235.366L402.84 235.447M403.002 235.366C402.948 235.393 402.894 235.42 402.84 235.447M403.002 235.366C403.061 235.336 403.123 235.307 403.182 235.278M402.84 235.447C402.729 235.503 402.619 235.559 402.508 235.615M273.788 197.582L273.777 197.449C253.333 158.896 146.573 115.675 165.653 238.854C183.139 351.737 260.144 379.379 278.489 319.576M273.788 197.582C265.96 206.387 259.871 216.772 256.058 228.197M402.63 235.569C403.59 235.083 404.555 234.606 405.533 234.153M402.63 235.569L402.508 235.615M402.63 235.569C404.696 234.524 406.8 233.55 408.955 232.667M405.533 234.153C405.61 234.118 405.688 234.082 405.765 234.047M405.533 234.153C404.582 234.594 403.643 235.057 402.71 235.528M405.533 234.153C405.588 234.128 405.64 234.103 405.695 234.078C406.77 233.587 407.858 233.116 408.955 232.667M405.533 234.153C406.66 233.632 407.802 233.14 408.955 232.667M405.533 234.153C406.66 233.635 407.801 233.139 408.955 232.667M405.533 234.153C404.973 234.411 404.417 234.674 403.863 234.943C403.724 235.01 403.587 235.078 403.448 235.146C403.432 235.155 403.415 235.163 403.398 235.171M405.765 234.047C406.816 233.565 407.881 233.107 408.955 232.667M405.765 234.047C406.762 233.59 407.772 233.155 408.79 232.735M403.182 235.278L403.354 235.193M403.182 235.278C403.239 235.249 403.297 235.221 403.354 235.193M403.354 235.193L403.398 235.171M403.354 235.193C403.369 235.186 403.384 235.178 403.398 235.171M278.489 319.576C277.681 318.797 276.886 318.002 276.109 317.193C270.306 311.157 265.353 304.296 261.447 296.804C255.101 284.632 251.515 270.793 251.515 256.117C251.515 246.358 253.101 236.971 256.029 228.197C256.038 228.199 256.049 228.195 256.058 228.197M278.489 319.576C289.972 330.647 304.452 338.628 320.594 342.185M256.058 228.197C263.346 229.806 270.299 232.311 276.787 235.601M256.058 228.197C263.348 229.804 270.297 232.313 276.787 235.601M402.508 235.615C373.835 250.157 354.185 279.917 354.185 314.267M354.185 314.267C354.185 323.445 355.589 332.296 358.192 340.616M354.185 314.267C354.185 279.917 373.834 250.157 402.504 235.63M358.192 340.616C358.286 340.914 358.38 341.212 358.478 341.508M358.192 340.616C355.617 332.296 354.212 323.445 354.212 314.267M358.192 340.616C358.286 340.914 358.379 341.21 358.505 341.507C358.407 341.211 358.313 340.914 358.219 340.616M358.478 341.508L358.699 342.186M358.478 341.508C358.408 341.212 358.313 340.914 358.219 340.616M358.699 342.186C359.266 343.882 359.881 345.555 360.545 347.203M360.545 347.203L360.566 347.254M360.545 347.203C360.552 347.22 360.559 347.237 360.566 347.254M360.545 347.203C359.881 345.555 359.264 343.88 358.726 342.185C359.293 343.881 359.908 345.554 360.572 347.202L360.566 347.254M360.566 347.254L353.216 394.845C352.221 401.284 346.679 406.036 340.163 406.036C333.618 406.036 328.06 401.243 327.099 394.769L319.686 344.852C320.013 343.97 320.325 343.082 320.623 342.186C320.797 341.665 320.966 341.142 321.131 340.617C323.734 332.296 325.138 323.446 325.138 314.267M325.138 314.267C325.138 299.813 321.647 286.177 315.48 274.141M325.138 314.267C325.138 291.852 316.771 271.392 302.989 255.839C295.644 247.55 286.761 240.655 276.787 235.601M315.48 274.141C306.992 257.561 293.401 244.028 276.787 235.601M315.48 274.141C310.653 264.713 304.178 256.276 296.433 249.197M315.48 274.141C321.638 286.178 325.11 299.82 325.11 314.267C325.11 323.445 323.706 332.296 321.103 340.617C320.938 341.142 320.768 341.664 320.594 342.185M276.787 235.601C283.956 239.237 290.56 243.824 296.433 249.197M276.787 235.601C283.954 239.237 290.558 243.827 296.433 249.197M276.787 235.601C286.868 240.714 295.833 247.708 303.221 256.123M402.504 235.63C373.848 250.178 354.212 279.929 354.212 314.267M354.212 314.267C354.212 321.15 355.002 327.85 356.483 334.279C356.982 336.424 357.568 338.535 358.219 340.616M354.212 314.267C354.212 323.445 355.616 332.296 358.219 340.616M320.594 342.185C320.296 343.08 319.984 343.969 319.657 344.851C312.264 364.831 297.837 381.399 279.381 391.548C283.672 381.174 286.039 369.803 286.039 357.879C286.039 343.203 282.452 329.364 276.106 317.192C276.884 318.001 277.679 318.796 278.486 319.575C289.97 330.646 304.452 338.628 320.594 342.185ZM402.707 235.527C404.691 234.526 406.722 233.586 408.787 232.734" stroke="#FD366E"/>
</g>
<rect x="47.5" y="80" width="584" height="372" stroke="#FD366E"/>
<g filter="url(#filter1_n_388_6945)">
<path d="M0 0H679V32H0V0Z" fill="#FD366E" fill-opacity="0.06"/>
<path d="M678.5 0.5V31.5H0.5V0.5H678.5Z" stroke="#FD366E" stroke-opacity="0.16"/>
<path d="M588.872 21.084C586.254 21.084 584.742 19.236 584.742 16.1C584.742 12.95 586.268 11.116 588.928 11.116C590.874 11.116 592.246 12.32 592.624 14.406H591.336C591 12.964 590.174 12.236 588.914 12.236C587.038 12.236 585.988 13.65 585.988 16.1C585.988 18.578 586.996 19.964 588.872 19.964C590.146 19.964 590.972 19.25 591.322 17.794H592.61C592.232 19.894 590.874 21.084 588.872 21.084ZM598.085 21.084C595.663 21.084 594.053 19.152 594.053 16.1C594.053 13.048 595.663 11.116 598.085 11.116C600.521 11.116 602.145 13.062 602.145 16.1C602.145 19.138 600.521 21.084 598.085 21.084ZM598.085 19.964C599.835 19.964 600.899 18.536 600.899 16.1C600.899 13.664 599.835 12.236 598.085 12.236C596.363 12.236 595.299 13.636 595.299 16.1C595.299 18.564 596.363 19.964 598.085 19.964ZM605.177 21H604.001V11.2H605.177L609.867 18.732V11.2H611.029V21H609.867L605.177 13.454V21ZM616.77 21.084C614.474 21.084 613.004 19.782 612.934 17.794H614.194C614.292 19.124 615.328 19.978 616.784 19.978C618.1 19.978 618.982 19.348 618.982 18.312C618.982 17.29 618.198 16.898 616.35 16.59C614.32 16.254 613.172 15.498 613.172 13.902C613.172 12.236 614.516 11.116 616.49 11.116C618.576 11.116 619.962 12.292 620.074 14.098H618.814C618.688 12.95 617.764 12.222 616.49 12.222C615.188 12.222 614.39 12.81 614.39 13.832C614.39 14.84 615.16 15.19 617.036 15.498C619.038 15.82 620.2 16.632 620.2 18.2C620.2 19.894 618.786 21.084 616.77 21.084ZM625.756 21.084C623.334 21.084 621.724 19.152 621.724 16.1C621.724 13.048 623.334 11.116 625.756 11.116C628.192 11.116 629.816 13.062 629.816 16.1C629.816 19.138 628.192 21.084 625.756 21.084ZM625.756 19.964C627.506 19.964 628.57 18.536 628.57 16.1C628.57 13.664 627.506 12.236 625.756 12.236C624.034 12.236 622.97 13.636 622.97 16.1C622.97 18.564 624.034 19.964 625.756 19.964ZM637.287 21H631.673V11.2H632.891V19.88H637.287V21ZM645.039 21H638.823V11.2H644.857V12.32H640.041V15.456H644.087V16.576H640.041V19.88H645.039V21ZM657.573 21H651.007V20.006L654.703 16.702C655.599 15.904 656.299 15.148 656.299 14.098C656.299 12.866 655.487 12.166 654.255 12.166C653.051 12.166 652.239 13.006 652.239 14.35V14.532H651.063V14.28C651.063 12.432 652.323 11.116 654.255 11.116C656.299 11.116 657.503 12.278 657.503 14.042C657.503 15.498 656.593 16.436 655.459 17.43L652.631 19.922H657.573V21ZM660.199 21.084C659.709 21.084 659.345 20.748 659.345 20.244C659.345 19.74 659.709 19.39 660.199 19.39C660.689 19.39 661.067 19.74 661.067 20.244C661.067 20.748 660.689 21.084 660.199 21.084ZM666.543 11.116C668.685 11.116 670.015 12.894 670.015 15.876V16.324C670.015 19.306 668.685 21.084 666.543 21.084C664.401 21.084 663.071 19.306 663.071 16.324V15.876C663.071 12.894 664.401 11.116 666.543 11.116ZM664.233 15.918V16.282C664.233 16.828 664.275 17.318 664.359 17.738L668.349 13.342C667.957 12.572 667.341 12.166 666.543 12.166C665.087 12.166 664.233 13.538 664.233 15.918ZM668.853 16.282V15.918C668.853 15.372 668.811 14.882 668.727 14.448L664.737 18.872C665.143 19.614 665.759 20.02 666.543 20.02C667.999 20.02 668.853 18.662 668.853 16.282Z" fill="#FD366E"/>
<path d="M14.426 11.2V12.208H12.284V19.992H14.426V21H8.91V19.992H11.066V12.208H8.91V11.2H14.426ZM17.6378 21H16.4618V11.2H17.6378L22.3278 18.732V11.2H23.4898V21H22.3278L17.6378 13.454V21ZM31.0373 11.2V12.208H28.8953V19.992H31.0373V21H25.5213V19.992H27.6773V12.208H25.5213V11.2H31.0373ZM36.7691 21H35.5511V12.32H32.3731V11.2H39.9471V12.32H36.7691V21Z" fill="#FD366E"/>
</g>
</g>
<path d="M678.5 0.5V499.5H0.5V0.5H678.5Z" stroke="#FD366E" stroke-opacity="0.16"/>
</g>
<defs>
<filter id="filter0_n_388_6945" x="0" y="0" width="679" height="500" filterUnits="userSpaceOnUse" color-interpolation-filters="sRGB">
<feFlood flood-opacity="0" result="BackgroundImageFix"/>
<feBlend mode="normal" in="SourceGraphic" in2="BackgroundImageFix" result="shape"/>
<feTurbulence type="fractalNoise" baseFrequency="1 1" stitchTiles="stitch" numOctaves="3" result="noise" seed="249" />
<feColorMatrix in="noise" type="luminanceToAlpha" result="alphaNoise" />
<feComponentTransfer in="alphaNoise" result="coloredNoise1">
<feFuncA type="discrete" tableValues="0 0 0 0 0 0 0 0 0 0 0 0 0 0 0 0 0 1 1 1 1 1 1 1 1 1 1 1 1 1 1 1 1 1 0 0 0 0 0 0 0 0 0 0 0 0 0 0 0 0 0 0 0 0 0 0 0 0 0 0 0 0 0 0 0 0 0 0 0 0 0 0 0 0 0 0 0 0 0 0 0 0 0 0 0 0 0 0 0 0 0 0 0 0 0 0 0 0 0 0 "/>
</feComponentTransfer>
<feComposite operator="in" in2="shape" in="coloredNoise1" result="noise1Clipped" />
<feFlood flood-color="rgba(0, 0, 0, 0.08)" result="color1Flood" />
<feComposite operator="in" in2="noise1Clipped" in="color1Flood" result="color1" />
<feMerge result="effect1_noise_388_6945">
<feMergeNode in="shape" />
<feMergeNode in="color1" />
</feMerge>
</filter>
<filter id="filter1_n_388_6945" x="0" y="0" width="679" height="32" filterUnits="userSpaceOnUse" color-interpolation-filters="sRGB">
<feFlood flood-opacity="0" result="BackgroundImageFix"/>
<feBlend mode="normal" in="SourceGraphic" in2="BackgroundImageFix" result="shape"/>
<feTurbulence type="fractalNoise" baseFrequency="1 1" stitchTiles="stitch" numOctaves="3" result="noise" seed="249" />
<feColorMatrix in="noise" type="luminanceToAlpha" result="alphaNoise" />
<feComponentTransfer in="alphaNoise" result="coloredNoise1">
<feFuncA type="discrete" tableValues="0 0 0 0 0 0 0 0 0 0 0 0 0 0 0 0 0 1 1 1 1 1 1 1 1 1 1 1 1 1 1 1 1 1 0 0 0 0 0 0 0 0 0 0 0 0 0 0 0 0 0 0 0 0 0 0 0 0 0 0 0 0 0 0 0 0 0 0 0 0 0 0 0 0 0 0 0 0 0 0 0 0 0 0 0 0 0 0 0 0 0 0 0 0 0 0 0 0 0 0 "/>
</feComponentTransfer>
<feComposite operator="in" in2="shape" in="coloredNoise1" result="noise1Clipped" />
<feFlood flood-color="rgba(0, 0, 0, 0.08)" result="color1Flood" />
<feComposite operator="in" in2="noise1Clipped" in="color1Flood" result="color1" />
<feMerge result="effect1_noise_388_6945">
<feMergeNode in="shape" />
<feMergeNode in="color1" />
</feMerge>
</filter>
<linearGradient id="paint0_linear_388_6945" x1="339.733" y1="236.004" x2="339.733" y2="440.374" gradientUnits="userSpaceOnUse">
<stop stop-color="#19191C"/>
<stop offset="0.17" stop-color="#2F1820"/>
<stop offset="0.34" stop-color="#531A2C"/>
<stop offset="0.51" stop-color="#9F1D42"/>
<stop offset="0.68" stop-color="#FD366E"/>
<stop offset="0.85" stop-color="#FEAFC5"/>
<stop offset="1" stop-color="#EDEDF0"/>
</linearGradient>
<linearGradient id="paint1_linear_388_6945" x1="339.733" y1="236.004" x2="339.733" y2="440.374" gradientUnits="userSpaceOnUse">
<stop stop-color="#19191C"/>
<stop offset="0.17" stop-color="#2F1820"/>
<stop offset="0.34" stop-color="#531A2C"/>
<stop offset="0.51" stop-color="#9F1D42"/>
<stop offset="0.68" stop-color="#FD366E"/>
<stop offset="0.85" stop-color="#FEAFC5"/>
<stop offset="1" stop-color="#EDEDF0"/>
</linearGradient>
<linearGradient id="paint2_linear_388_6945" x1="339.733" y1="236.004" x2="339.733" y2="440.374" gradientUnits="userSpaceOnUse">
<stop stop-color="#19191C"/>
<stop offset="0.17" stop-color="#2F1820"/>
<stop offset="0.34" stop-color="#531A2C"/>
<stop offset="0.51" stop-color="#9F1D42"/>
<stop offset="0.68" stop-color="#FD366E"/>
<stop offset="0.85" stop-color="#FEAFC5"/>
<stop offset="1" stop-color="#EDEDF0"/>
</linearGradient>
<linearGradient id="paint3_linear_388_6945" x1="339.733" y1="236.004" x2="339.733" y2="440.374" gradientUnits="userSpaceOnUse">
<stop stop-color="#19191C"/>
<stop offset="0.17" stop-color="#2F1820"/>
<stop offset="0.34" stop-color="#531A2C"/>
<stop offset="0.51" stop-color="#9F1D42"/>
<stop offset="0.68" stop-color="#FD366E"/>
<stop offset="0.85" stop-color="#FEAFC5"/>
<stop offset="1" stop-color="#EDEDF0"/>
</linearGradient>
<linearGradient id="paint4_linear_388_6945" x1="339.733" y1="236.004" x2="339.733" y2="440.374" gradientUnits="userSpaceOnUse">
<stop stop-color="#19191C"/>
<stop offset="0.17" stop-color="#2F1820"/>
<stop offset="0.34" stop-color="#531A2C"/>
<stop offset="0.51" stop-color="#9F1D42"/>
<stop offset="0.68" stop-color="#FD366E"/>
<stop offset="0.85" stop-color="#FEAFC5"/>
<stop offset="1" stop-color="#EDEDF0"/>
</linearGradient>
<linearGradient id="paint5_linear_388_6945" x1="339.733" y1="236.004" x2="339.733" y2="440.374" gradientUnits="userSpaceOnUse">
<stop stop-color="#19191C"/>
<stop offset="0.17" stop-color="#2F1820"/>
<stop offset="0.34" stop-color="#531A2C"/>
<stop offset="0.51" stop-color="#9F1D42"/>
<stop offset="0.68" stop-color="#FD366E"/>
<stop offset="0.85" stop-color="#FEAFC5"/>
<stop offset="1" stop-color="#EDEDF0"/>
</linearGradient>
<linearGradient id="paint6_linear_388_6945" x1="339.733" y1="236.004" x2="339.733" y2="440.374" gradientUnits="userSpaceOnUse">
<stop stop-color="#19191C"/>
<stop offset="0.17" stop-color="#2F1820"/>
<stop offset="0.34" stop-color="#531A2C"/>
<stop offset="0.51" stop-color="#9F1D42"/>
<stop offset="0.68" stop-color="#FD366E"/>
<stop offset="0.85" stop-color="#FEAFC5"/>
<stop offset="1" stop-color="#EDEDF0"/>
</linearGradient>
<linearGradient id="paint7_linear_388_6945" x1="339.733" y1="236.004" x2="339.733" y2="440.374" gradientUnits="userSpaceOnUse">
<stop stop-color="#19191C"/>
<stop offset="0.17" stop-color="#2F1820"/>
<stop offset="0.34" stop-color="#531A2C"/>
<stop offset="0.51" stop-color="#9F1D42"/>
<stop offset="0.68" stop-color="#FD366E"/>
<stop offset="0.85" stop-color="#FEAFC5"/>
<stop offset="1" stop-color="#EDEDF0"/>
</linearGradient>
<linearGradient id="paint8_linear_388_6945" x1="339.733" y1="236.004" x2="339.733" y2="440.374" gradientUnits="userSpaceOnUse">
<stop stop-color="#19191C"/>
<stop offset="0.17" stop-color="#2F1820"/>
<stop offset="0.34" stop-color="#531A2C"/>
<stop offset="0.51" stop-color="#9F1D42"/>
<stop offset="0.68" stop-color="#FD366E"/>
<stop offset="0.85" stop-color="#FEAFC5"/>
<stop offset="1" stop-color="#EDEDF0"/>
</linearGradient>
<linearGradient id="paint9_linear_388_6945" x1="339.733" y1="236.004" x2="339.733" y2="440.374" gradientUnits="userSpaceOnUse">
<stop stop-color="#19191C"/>
<stop offset="0.17" stop-color="#2F1820"/>
<stop offset="0.34" stop-color="#531A2C"/>
<stop offset="0.51" stop-color="#9F1D42"/>
<stop offset="0.68" stop-color="#FD366E"/>
<stop offset="0.85" stop-color="#FEAFC5"/>
<stop offset="1" stop-color="#EDEDF0"/>
</linearGradient>
<clipPath id="clip0_388_6945">
<path d="M0 0H679V500H0V0Z" fill="white"/>
</clipPath>
<clipPath id="clip1_388_6945">
<rect x="48" y="80.5" width="583" height="371" fill="white"/>
</clipPath>
</defs>
</svg>
