<svg width="679" height="500" viewBox="0 0 679 500" fill="none" xmlns="http://www.w3.org/2000/svg">
<g filter="url(#filter0_n_388_7192)">
<g clip-path="url(#clip0_388_7192)">
<path d="M0 0H679V500H0V0Z" fill="#19191C"/>
<path opacity="0.2" d="M1 63.5L674 63.5" stroke="#FD366E"/>
<path opacity="0.2" d="M1 130.833L674 130.833" stroke="#FD366E"/>
<path opacity="0.2" d="M1 198.167L674 198.167" stroke="#FD366E"/>
<path opacity="0.2" d="M1 265.5L674 265.5" stroke="#FD366E"/>
<path opacity="0.2" d="M1 332.833L674 332.833" stroke="#FD366E"/>
<path opacity="0.2" d="M1 400.167L674 400.167" stroke="#FD366E"/>
<path opacity="0.2" d="M1 467.5H674" stroke="#FD366E"/>
<path opacity="0.2" d="M1 31.5L0.999983 500.5" stroke="#FD366E"/>
<path opacity="0.2" d="M113.166 31.5L113.166 500.5" stroke="#FD366E"/>
<path opacity="0.2" d="M225.334 31.5L225.334 500.5" stroke="#FD366E"/>
<path opacity="0.2" d="M337.5 31.5L337.5 500.5" stroke="#FD366E"/>
<path opacity="0.2" d="M449.666 31.5L449.666 500.5" stroke="#FD366E"/>
<path opacity="0.2" d="M561.834 31.5L561.834 500.5" stroke="#FD366E"/>
<path opacity="0.2" d="M674 31.5L674 500.5" stroke="#FD366E"/>
<g opacity="0.12">
<path d="M6 0V12" stroke="#FD366E" stroke-width="0.603399"/>
<path d="M12 5.99902L1.3411e-07 5.99902" stroke="#FD366E" stroke-width="0.603399"/>
<path d="M6 61V73" stroke="#FD366E" stroke-width="0.603399"/>
<path d="M12 66.999L1.3411e-07 66.999" stroke="#FD366E" stroke-width="0.603399"/>
<path d="M6 122V134" stroke="#FD366E" stroke-width="0.603399"/>
<path d="M12 127.999L1.3411e-07 127.999" stroke="#FD366E" stroke-width="0.603399"/>
<path d="M6 183V195" stroke="#FD366E" stroke-width="0.603399"/>
<path d="M12 188.999L1.3411e-07 188.999" stroke="#FD366E" stroke-width="0.603399"/>
<path d="M6 244V256" stroke="#FD366E" stroke-width="0.603399"/>
<path d="M12 249.999L1.3411e-07 249.999" stroke="#FD366E" stroke-width="0.603399"/>
<path d="M6 305V317" stroke="#FD366E" stroke-width="0.603399"/>
<path d="M12 310.999L1.3411e-07 310.999" stroke="#FD366E" stroke-width="0.603399"/>
<path d="M6 366V378" stroke="#FD366E" stroke-width="0.603399"/>
<path d="M12 371.999L1.3411e-07 371.999" stroke="#FD366E" stroke-width="0.603399"/>
<path d="M6 427V439" stroke="#FD366E" stroke-width="0.603399"/>
<path d="M12 432.999L1.3411e-07 432.999" stroke="#FD366E" stroke-width="0.603399"/>
<path d="M6 488V500" stroke="#FD366E" stroke-width="0.603399"/>
<path d="M12 493.999L1.3411e-07 493.999" stroke="#FD366E" stroke-width="0.603399"/>
<path d="M118.334 0V12" stroke="#FD366E" stroke-width="0.603399"/>
<path d="M124.334 5.99902L112.334 5.99902" stroke="#FD366E" stroke-width="0.603399"/>
<path d="M118.334 61V73" stroke="#FD366E" stroke-width="0.603399"/>
<path d="M124.334 66.999L112.334 66.999" stroke="#FD366E" stroke-width="0.603399"/>
<path d="M118.334 122V134" stroke="#FD366E" stroke-width="0.603399"/>
<path d="M124.334 127.999L112.334 127.999" stroke="#FD366E" stroke-width="0.603399"/>
<path d="M118.334 183V195" stroke="#FD366E" stroke-width="0.603399"/>
<path d="M124.334 188.999L112.334 188.999" stroke="#FD366E" stroke-width="0.603399"/>
<path d="M118.334 244V256" stroke="#FD366E" stroke-width="0.603399"/>
<path d="M124.334 249.999L112.334 249.999" stroke="#FD366E" stroke-width="0.603399"/>
<path d="M118.334 305V317" stroke="#FD366E" stroke-width="0.603399"/>
<path d="M124.334 310.999L112.334 310.999" stroke="#FD366E" stroke-width="0.603399"/>
<path d="M118.334 366V378" stroke="#FD366E" stroke-width="0.603399"/>
<path d="M124.334 371.999L112.334 371.999" stroke="#FD366E" stroke-width="0.603399"/>
<path d="M118.334 427V439" stroke="#FD366E" stroke-width="0.603399"/>
<path d="M124.334 432.999L112.334 432.999" stroke="#FD366E" stroke-width="0.603399"/>
<path d="M118.334 488V500" stroke="#FD366E" stroke-width="0.603399"/>
<path d="M124.334 493.999L112.334 493.999" stroke="#FD366E" stroke-width="0.603399"/>
<path d="M230.666 0V12" stroke="#FD366E" stroke-width="0.603399"/>
<path d="M236.666 5.99902L224.666 5.99902" stroke="#FD366E" stroke-width="0.603399"/>
<path d="M230.666 61V73" stroke="#FD366E" stroke-width="0.603399"/>
<path d="M236.666 66.999L224.666 66.999" stroke="#FD366E" stroke-width="0.603399"/>
<path d="M230.666 122V134" stroke="#FD366E" stroke-width="0.603399"/>
<path d="M236.666 127.999L224.666 127.999" stroke="#FD366E" stroke-width="0.603399"/>
<path d="M230.666 183V195" stroke="#FD366E" stroke-width="0.603399"/>
<path d="M236.666 188.999L224.666 188.999" stroke="#FD366E" stroke-width="0.603399"/>
<path d="M230.666 244V256" stroke="#FD366E" stroke-width="0.603399"/>
<path d="M236.666 249.999L224.666 249.999" stroke="#FD366E" stroke-width="0.603399"/>
<path d="M230.666 305V317" stroke="#FD366E" stroke-width="0.603399"/>
<path d="M236.666 310.999L224.666 310.999" stroke="#FD366E" stroke-width="0.603399"/>
<path d="M230.666 366V378" stroke="#FD366E" stroke-width="0.603399"/>
<path d="M236.666 371.999L224.666 371.999" stroke="#FD366E" stroke-width="0.603399"/>
<path d="M230.666 427V439" stroke="#FD366E" stroke-width="0.603399"/>
<path d="M236.666 432.999L224.666 432.999" stroke="#FD366E" stroke-width="0.603399"/>
<path d="M230.666 488V500" stroke="#FD366E" stroke-width="0.603399"/>
<path d="M236.666 493.999L224.666 493.999" stroke="#FD366E" stroke-width="0.603399"/>
<path d="M343 0V12" stroke="#FD366E" stroke-width="0.603399"/>
<path d="M349 5.99902L337 5.99902" stroke="#FD366E" stroke-width="0.603399"/>
<path d="M343 61V73" stroke="#FD366E" stroke-width="0.603399"/>
<path d="M349 66.999L337 66.999" stroke="#FD366E" stroke-width="0.603399"/>
<path d="M343 122V134" stroke="#FD366E" stroke-width="0.603399"/>
<path d="M349 127.999L337 127.999" stroke="#FD366E" stroke-width="0.603399"/>
<path d="M343 183V195" stroke="#FD366E" stroke-width="0.603399"/>
<path d="M349 188.999L337 188.999" stroke="#FD366E" stroke-width="0.603399"/>
<path d="M343 244V256" stroke="#FD366E" stroke-width="0.603399"/>
<path d="M349 249.999L337 249.999" stroke="#FD366E" stroke-width="0.603399"/>
<path d="M343 305V317" stroke="#FD366E" stroke-width="0.603399"/>
<path d="M349 310.999L337 310.999" stroke="#FD366E" stroke-width="0.603399"/>
<path d="M343 366V378" stroke="#FD366E" stroke-width="0.603399"/>
<path d="M349 371.999L337 371.999" stroke="#FD366E" stroke-width="0.603399"/>
<path d="M343 427V439" stroke="#FD366E" stroke-width="0.603399"/>
<path d="M349 432.999L337 432.999" stroke="#FD366E" stroke-width="0.603399"/>
<path d="M343 488V500" stroke="#FD366E" stroke-width="0.603399"/>
<path d="M349 493.999L337 493.999" stroke="#FD366E" stroke-width="0.603399"/>
<path d="M455.334 0V12" stroke="#FD366E" stroke-width="0.603399"/>
<path d="M461.334 5.99902L449.334 5.99902" stroke="#FD366E" stroke-width="0.603399"/>
<path d="M455.334 61V73" stroke="#FD366E" stroke-width="0.603399"/>
<path d="M461.334 66.999L449.334 66.999" stroke="#FD366E" stroke-width="0.603399"/>
<path d="M455.334 122V134" stroke="#FD366E" stroke-width="0.603399"/>
<path d="M461.334 127.999L449.334 127.999" stroke="#FD366E" stroke-width="0.603399"/>
<path d="M455.334 183V195" stroke="#FD366E" stroke-width="0.603399"/>
<path d="M461.334 188.999L449.334 188.999" stroke="#FD366E" stroke-width="0.603399"/>
<path d="M455.334 244V256" stroke="#FD366E" stroke-width="0.603399"/>
<path d="M461.334 249.999L449.334 249.999" stroke="#FD366E" stroke-width="0.603399"/>
<path d="M455.334 305V317" stroke="#FD366E" stroke-width="0.603399"/>
<path d="M461.334 310.999L449.334 310.999" stroke="#FD366E" stroke-width="0.603399"/>
<path d="M455.334 366V378" stroke="#FD366E" stroke-width="0.603399"/>
<path d="M461.334 371.999L449.334 371.999" stroke="#FD366E" stroke-width="0.603399"/>
<path d="M455.334 427V439" stroke="#FD366E" stroke-width="0.603399"/>
<path d="M461.334 432.999L449.334 432.999" stroke="#FD366E" stroke-width="0.603399"/>
<path d="M455.334 488V500" stroke="#FD366E" stroke-width="0.603399"/>
<path d="M461.334 493.999L449.334 493.999" stroke="#FD366E" stroke-width="0.603399"/>
<path d="M567.666 0V12" stroke="#FD366E" stroke-width="0.603399"/>
<path d="M573.666 5.99902L561.666 5.99902" stroke="#FD366E" stroke-width="0.603399"/>
<path d="M567.666 61V73" stroke="#FD366E" stroke-width="0.603399"/>
<path d="M573.666 66.999L561.666 66.999" stroke="#FD366E" stroke-width="0.603399"/>
<path d="M567.666 122V134" stroke="#FD366E" stroke-width="0.603399"/>
<path d="M573.666 127.999L561.666 127.999" stroke="#FD366E" stroke-width="0.603399"/>
<path d="M567.666 183V195" stroke="#FD366E" stroke-width="0.603399"/>
<path d="M573.666 188.999L561.666 188.999" stroke="#FD366E" stroke-width="0.603399"/>
<path d="M567.666 244V256" stroke="#FD366E" stroke-width="0.603399"/>
<path d="M573.666 249.999L561.666 249.999" stroke="#FD366E" stroke-width="0.603399"/>
<path d="M567.666 305V317" stroke="#FD366E" stroke-width="0.603399"/>
<path d="M573.666 310.999L561.666 310.999" stroke="#FD366E" stroke-width="0.603399"/>
<path d="M567.666 366V378" stroke="#FD366E" stroke-width="0.603399"/>
<path d="M573.666 371.999L561.666 371.999" stroke="#FD366E" stroke-width="0.603399"/>
<path d="M567.666 427V439" stroke="#FD366E" stroke-width="0.603399"/>
<path d="M573.666 432.999L561.666 432.999" stroke="#FD366E" stroke-width="0.603399"/>
<path d="M567.666 488V500" stroke="#FD366E" stroke-width="0.603399"/>
<path d="M573.666 493.999L561.666 493.999" stroke="#FD366E" stroke-width="0.603399"/>
<path d="M686 5.99902L674 5.99902" stroke="#FD366E" stroke-width="0.603399"/>
<path d="M686 66.999L674 66.999" stroke="#FD366E" stroke-width="0.603399"/>
<path d="M686 127.999L674 127.999" stroke="#FD366E" stroke-width="0.603399"/>
<path d="M686 188.999L674 188.999" stroke="#FD366E" stroke-width="0.603399"/>
<path d="M686 249.999L674 249.999" stroke="#FD366E" stroke-width="0.603399"/>
<path d="M686 310.999L674 310.999" stroke="#FD366E" stroke-width="0.603399"/>
<path d="M686 371.999L674 371.999" stroke="#FD366E" stroke-width="0.603399"/>
<path d="M686 432.999L674 432.999" stroke="#FD366E" stroke-width="0.603399"/>
<path d="M686 493.999L674 493.999" stroke="#FD366E" stroke-width="0.603399"/>
</g>
<g clip-path="url(#clip1_388_7192)">
<path opacity="0.2" d="M211 210C211 194.26 268.756 181.5 340 181.5C411.244 181.5 469 194.26 469 210" stroke="#FD366E"/>
<path d="M211 210C211 210.167 211.006 210.333 211.02 210.5C212.227 226.01 269.512 238.5 340 238.5C410.488 238.5 467.773 226.01 468.98 210.5C468.994 210.333 469 210.167 469 210" stroke="#FD366E"/>
<path fill-rule="evenodd" clip-rule="evenodd" d="M468.98 210.5C467.773 226.01 410.488 238.5 340 238.5C269.512 238.5 212.227 226.01 211.02 210.5H211V267C211 267.192 211.008 267.383 211.025 267.574C211.053 267.884 211.104 268.193 211.176 268.5C214.707 283.543 271.033 295.5 340 295.5C408.967 295.5 465.293 283.543 468.824 268.5C468.941 268.003 469 267.503 469 267V210.5H468.98Z" fill="#19191C"/>
<path fill-rule="evenodd" clip-rule="evenodd" d="M468.98 210.5C467.773 226.01 410.488 238.5 340 238.5C269.512 238.5 212.227 226.01 211.02 210.5H211V267C211 267.192 211.008 267.383 211.025 267.574C211.053 267.884 211.104 268.193 211.176 268.5C214.707 283.543 271.033 295.5 340 295.5C408.967 295.5 465.293 283.543 468.824 268.5C468.941 268.003 469 267.503 469 267V210.5H468.98Z" fill="#FD366E" fill-opacity="0.06"/>
<path fill-rule="evenodd" clip-rule="evenodd" d="M468.98 210.5C467.773 226.01 410.488 238.5 340 238.5C269.512 238.5 212.227 226.01 211.02 210.5H211V267C211 267.192 211.008 267.383 211.025 267.574C211.053 267.884 211.104 268.193 211.176 268.5C214.707 283.543 271.033 295.5 340 295.5C408.967 295.5 465.293 283.543 468.824 268.5C468.941 268.003 469 267.503 469 267V210.5H468.98Z" stroke="#FD366E"/>
<path fill-rule="evenodd" clip-rule="evenodd" d="M468.98 267.5C467.773 283.01 410.488 295.5 340 295.5C269.512 295.5 212.227 283.01 211.02 267.5H211V324C211 324.192 211.008 324.383 211.025 324.574C211.053 324.884 211.104 325.193 211.176 325.5C214.707 340.543 271.033 352.5 340 352.5C408.967 352.5 465.293 340.543 468.824 325.5C468.941 325.003 469 324.503 469 324V267.5H468.98Z" fill="#19191C"/>
<path fill-rule="evenodd" clip-rule="evenodd" d="M468.98 267.5C467.773 283.01 410.488 295.5 340 295.5C269.512 295.5 212.227 283.01 211.02 267.5H211V324C211 324.192 211.008 324.383 211.025 324.574C211.053 324.884 211.104 325.193 211.176 325.5C214.707 340.543 271.033 352.5 340 352.5C408.967 352.5 465.293 340.543 468.824 325.5C468.941 325.003 469 324.503 469 324V267.5H468.98Z" fill="#FD366E" fill-opacity="0.06"/>
<path fill-rule="evenodd" clip-rule="evenodd" d="M468.98 267.5C467.773 283.01 410.488 295.5 340 295.5C269.512 295.5 212.227 283.01 211.02 267.5H211V324C211 324.192 211.008 324.383 211.025 324.574C211.053 324.884 211.104 325.193 211.176 325.5C214.707 340.543 271.033 352.5 340 352.5C408.967 352.5 465.293 340.543 468.824 325.5C468.941 325.003 469 324.503 469 324V267.5H468.98Z" stroke="#FD366E"/>
<path opacity="0.2" d="M211 267C211 251.26 268.756 238.5 340 238.5C411.244 238.5 469 251.26 469 267" stroke="#FD366E"/>
<path d="M211 267C211 267.167 211.006 267.333 211.02 267.5C212.227 283.01 269.512 295.5 340 295.5C410.488 295.5 467.773 283.01 468.98 267.5C468.994 267.333 469 267.167 469 267" stroke="#FD366E"/>
<path opacity="0.2" d="M211 324C211 308.26 268.756 295.5 340 295.5C411.244 295.5 469 308.26 469 324" stroke="#FD366E"/>
<path d="M211 324C211 324.167 211.006 324.333 211.02 324.5C212.227 340.01 269.512 352.5 340 352.5C410.488 352.5 467.773 340.01 468.98 324.5C468.994 324.333 469 324.167 469 324" stroke="#FD366E"/>
<path fill-rule="evenodd" clip-rule="evenodd" d="M468.98 324.5C467.773 340.01 410.488 352.5 340 352.5C269.512 352.5 212.227 340.01 211.02 324.5H211V381C211 381.192 211.008 381.383 211.025 381.574C211.053 381.884 211.104 382.193 211.176 382.5C214.707 397.543 271.033 409.5 340 409.5C408.967 409.5 465.293 397.543 468.824 382.5C468.941 382.003 469 381.503 469 381V324.5H468.98Z" fill="#19191C"/>
<path fill-rule="evenodd" clip-rule="evenodd" d="M468.98 324.5C467.773 340.01 410.488 352.5 340 352.5C269.512 352.5 212.227 340.01 211.02 324.5H211V381C211 381.192 211.008 381.383 211.025 381.574C211.053 381.884 211.104 382.193 211.176 382.5C214.707 397.543 271.033 409.5 340 409.5C408.967 409.5 465.293 397.543 468.824 382.5C468.941 382.003 469 381.503 469 381V324.5H468.98Z" fill="#FD366E" fill-opacity="0.06"/>
<path fill-rule="evenodd" clip-rule="evenodd" d="M468.98 324.5C467.773 340.01 410.488 352.5 340 352.5C269.512 352.5 212.227 340.01 211.02 324.5H211V381C211 381.192 211.008 381.383 211.025 381.574C211.053 381.884 211.104 382.193 211.176 382.5C214.707 397.543 271.033 409.5 340 409.5C408.967 409.5 465.293 397.543 468.824 382.5C468.941 382.003 469 381.503 469 381V324.5H468.98Z" stroke="#FD366E"/>
<path opacity="0.2" d="M211 381C211 365.26 268.756 352.5 340 352.5C411.244 352.5 469 365.26 469 381" stroke="#FD366E"/>
<path d="M211 381C211 381.167 211.006 381.333 211.02 381.5C212.227 397.01 269.512 409.5 340 409.5C410.488 409.5 467.773 397.01 468.98 381.5C468.994 381.333 469 381.167 469 381" stroke="#FD366E"/>
<path fill-rule="evenodd" clip-rule="evenodd" d="M468.98 381.5C467.773 397.01 410.488 409.5 340 409.5C269.512 409.5 212.227 397.01 211.02 381.5H211V438C211 438.192 211.008 438.383 211.025 438.574C211.053 438.884 211.104 439.193 211.176 439.5C214.707 454.543 271.033 466.5 340 466.5C408.967 466.5 465.293 454.543 468.824 439.5C468.941 439.003 469 438.503 469 438V381.5H468.98Z" fill="#19191C"/>
<path fill-rule="evenodd" clip-rule="evenodd" d="M468.98 381.5C467.773 397.01 410.488 409.5 340 409.5C269.512 409.5 212.227 397.01 211.02 381.5H211V438C211 438.192 211.008 438.383 211.025 438.574C211.053 438.884 211.104 439.193 211.176 439.5C214.707 454.543 271.033 466.5 340 466.5C408.967 466.5 465.293 454.543 468.824 439.5C468.941 439.003 469 438.503 469 438V381.5H468.98Z" fill="#FD366E" fill-opacity="0.06"/>
<path fill-rule="evenodd" clip-rule="evenodd" d="M468.98 381.5C467.773 397.01 410.488 409.5 340 409.5C269.512 409.5 212.227 397.01 211.02 381.5H211V438C211 438.192 211.008 438.383 211.025 438.574C211.053 438.884 211.104 439.193 211.176 439.5C214.707 454.543 271.033 466.5 340 466.5C408.967 466.5 465.293 454.543 468.824 439.5C468.941 439.003 469 438.503 469 438V381.5H468.98Z" stroke="#FD366E"/>
<ellipse cx="340" cy="210" rx="129" ry="28.5" fill="url(#paint0_linear_388_7192)" stroke="#FD366E"/>
<path d="M358 238.5C358 101.533 451.572 -9.5 567 -9.5" stroke="url(#paint1_linear_388_7192)"/>
<path d="M368 238.5C368 101.533 534.102 -9.5 739 -9.5" stroke="url(#paint2_linear_388_7192)"/>
<path d="M348 238.5C348 91.5923 410.68 -27.5 488 -27.5" stroke="url(#paint3_linear_388_7192)"/>
<path d="M317 238.5C317 101.533 223.428 -9.5 108 -9.5" stroke="url(#paint4_linear_388_7192)"/>
<path d="M307 238.5C307 101.533 140.898 -9.5 -64 -9.5" stroke="url(#paint5_linear_388_7192)"/>
<path d="M327 238.5C327 91.5923 264.32 -27.5 187 -27.5" stroke="url(#paint6_linear_388_7192)"/>
</g>
<g filter="url(#filter1_n_388_7192)">
<path d="M0 0H679V32H0V0Z" fill="#FD366E" fill-opacity="0.06"/>
<path d="M678.5 0.5V31.5H0.5V0.5H678.5Z" stroke="#FD366E" stroke-opacity="0.16"/>
<path d="M588.872 21.084C586.254 21.084 584.742 19.236 584.742 16.1C584.742 12.95 586.268 11.116 588.928 11.116C590.874 11.116 592.246 12.32 592.624 14.406H591.336C591 12.964 590.174 12.236 588.914 12.236C587.038 12.236 585.988 13.65 585.988 16.1C585.988 18.578 586.996 19.964 588.872 19.964C590.146 19.964 590.972 19.25 591.322 17.794H592.61C592.232 19.894 590.874 21.084 588.872 21.084ZM598.085 21.084C595.663 21.084 594.053 19.152 594.053 16.1C594.053 13.048 595.663 11.116 598.085 11.116C600.521 11.116 602.145 13.062 602.145 16.1C602.145 19.138 600.521 21.084 598.085 21.084ZM598.085 19.964C599.835 19.964 600.899 18.536 600.899 16.1C600.899 13.664 599.835 12.236 598.085 12.236C596.363 12.236 595.299 13.636 595.299 16.1C595.299 18.564 596.363 19.964 598.085 19.964ZM605.177 21H604.001V11.2H605.177L609.867 18.732V11.2H611.029V21H609.867L605.177 13.454V21ZM616.77 21.084C614.474 21.084 613.004 19.782 612.934 17.794H614.194C614.292 19.124 615.328 19.978 616.784 19.978C618.1 19.978 618.982 19.348 618.982 18.312C618.982 17.29 618.198 16.898 616.35 16.59C614.32 16.254 613.172 15.498 613.172 13.902C613.172 12.236 614.516 11.116 616.49 11.116C618.576 11.116 619.962 12.292 620.074 14.098H618.814C618.688 12.95 617.764 12.222 616.49 12.222C615.188 12.222 614.39 12.81 614.39 13.832C614.39 14.84 615.16 15.19 617.036 15.498C619.038 15.82 620.2 16.632 620.2 18.2C620.2 19.894 618.786 21.084 616.77 21.084ZM625.756 21.084C623.334 21.084 621.724 19.152 621.724 16.1C621.724 13.048 623.334 11.116 625.756 11.116C628.192 11.116 629.816 13.062 629.816 16.1C629.816 19.138 628.192 21.084 625.756 21.084ZM625.756 19.964C627.506 19.964 628.57 18.536 628.57 16.1C628.57 13.664 627.506 12.236 625.756 12.236C624.034 12.236 622.97 13.636 622.97 16.1C622.97 18.564 624.034 19.964 625.756 19.964ZM637.287 21H631.673V11.2H632.891V19.88H637.287V21ZM645.039 21H638.823V11.2H644.857V12.32H640.041V15.456H644.087V16.576H640.041V19.88H645.039V21ZM657.573 21H651.007V20.006L654.703 16.702C655.599 15.904 656.299 15.148 656.299 14.098C656.299 12.866 655.487 12.166 654.255 12.166C653.051 12.166 652.239 13.006 652.239 14.35V14.532H651.063V14.28C651.063 12.432 652.323 11.116 654.255 11.116C656.299 11.116 657.503 12.278 657.503 14.042C657.503 15.498 656.593 16.436 655.459 17.43L652.631 19.922H657.573V21ZM660.199 21.084C659.709 21.084 659.345 20.748 659.345 20.244C659.345 19.74 659.709 19.39 660.199 19.39C660.689 19.39 661.067 19.74 661.067 20.244C661.067 20.748 660.689 21.084 660.199 21.084ZM666.543 11.116C668.685 11.116 670.015 12.894 670.015 15.876V16.324C670.015 19.306 668.685 21.084 666.543 21.084C664.401 21.084 663.071 19.306 663.071 16.324V15.876C663.071 12.894 664.401 11.116 666.543 11.116ZM664.233 15.918V16.282C664.233 16.828 664.275 17.318 664.359 17.738L668.349 13.342C667.957 12.572 667.341 12.166 666.543 12.166C665.087 12.166 664.233 13.538 664.233 15.918ZM668.853 16.282V15.918C668.853 15.372 668.811 14.882 668.727 14.448L664.737 18.872C665.143 19.614 665.759 20.02 666.543 20.02C667.999 20.02 668.853 18.662 668.853 16.282Z" fill="#FD366E"/>
<path d="M14.426 11.2V12.208H12.284V19.992H14.426V21H8.91V19.992H11.066V12.208H8.91V11.2H14.426ZM17.6378 21H16.4618V11.2H17.6378L22.3278 18.732V11.2H23.4898V21H22.3278L17.6378 13.454V21ZM31.0373 11.2V12.208H28.8953V19.992H31.0373V21H25.5213V19.992H27.6773V12.208H25.5213V11.2H31.0373ZM36.7691 21H35.5511V12.32H32.3731V11.2H39.9471V12.32H36.7691V21Z" fill="#FD366E"/>
</g>
</g>
<path d="M678.5 0.5V499.5H0.5V0.5H678.5Z" stroke="#FD366E" stroke-opacity="0.16"/>
</g>
<defs>
<filter id="filter0_n_388_7192" x="0" y="0" width="679" height="500" filterUnits="userSpaceOnUse" color-interpolation-filters="sRGB">
<feFlood flood-opacity="0" result="BackgroundImageFix"/>
<feBlend mode="normal" in="SourceGraphic" in2="BackgroundImageFix" result="shape"/>
<feTurbulence type="fractalNoise" baseFrequency="1 1" stitchTiles="stitch" numOctaves="3" result="noise" seed="249" />
<feColorMatrix in="noise" type="luminanceToAlpha" result="alphaNoise" />
<feComponentTransfer in="alphaNoise" result="coloredNoise1">
<feFuncA type="discrete" tableValues="0 0 0 0 0 0 0 0 0 0 0 0 0 0 0 0 0 1 1 1 1 1 1 1 1 1 1 1 1 1 1 1 1 1 0 0 0 0 0 0 0 0 0 0 0 0 0 0 0 0 0 0 0 0 0 0 0 0 0 0 0 0 0 0 0 0 0 0 0 0 0 0 0 0 0 0 0 0 0 0 0 0 0 0 0 0 0 0 0 0 0 0 0 0 0 0 0 0 0 0 "/>
</feComponentTransfer>
<feComposite operator="in" in2="shape" in="coloredNoise1" result="noise1Clipped" />
<feFlood flood-color="rgba(0, 0, 0, 0.08)" result="color1Flood" />
<feComposite operator="in" in2="noise1Clipped" in="color1Flood" result="color1" />
<feMerge result="effect1_noise_388_7192">
<feMergeNode in="shape" />
<feMergeNode in="color1" />
</feMerge>
</filter>
<filter id="filter1_n_388_7192" x="0" y="0" width="679" height="32" filterUnits="userSpaceOnUse" color-interpolation-filters="sRGB">
<feFlood flood-opacity="0" result="BackgroundImageFix"/>
<feBlend mode="normal" in="SourceGraphic" in2="BackgroundImageFix" result="shape"/>
<feTurbulence type="fractalNoise" baseFrequency="1 1" stitchTiles="stitch" numOctaves="3" result="noise" seed="249" />
<feColorMatrix in="noise" type="luminanceToAlpha" result="alphaNoise" />
<feComponentTransfer in="alphaNoise" result="coloredNoise1">
<feFuncA type="discrete" tableValues="0 0 0 0 0 0 0 0 0 0 0 0 0 0 0 0 0 1 1 1 1 1 1 1 1 1 1 1 1 1 1 1 1 1 0 0 0 0 0 0 0 0 0 0 0 0 0 0 0 0 0 0 0 0 0 0 0 0 0 0 0 0 0 0 0 0 0 0 0 0 0 0 0 0 0 0 0 0 0 0 0 0 0 0 0 0 0 0 0 0 0 0 0 0 0 0 0 0 0 0 "/>
</feComponentTransfer>
<feComposite operator="in" in2="shape" in="coloredNoise1" result="noise1Clipped" />
<feFlood flood-color="rgba(0, 0, 0, 0.08)" result="color1Flood" />
<feComposite operator="in" in2="noise1Clipped" in="color1Flood" result="color1" />
<feMerge result="effect1_noise_388_7192">
<feMergeNode in="shape" />
<feMergeNode in="color1" />
</feMerge>
</filter>
<linearGradient id="paint0_linear_388_7192" x1="340" y1="172" x2="340" y2="228.5" gradientUnits="userSpaceOnUse">
<stop stop-color="#EDEDF0"/>
<stop offset="0.15" stop-color="#FEAFC5"/>
<stop offset="0.32" stop-color="#FD366E"/>
<stop offset="0.49" stop-color="#9F1D42"/>
<stop offset="0.66" stop-color="#531A2C"/>
<stop offset="0.83" stop-color="#2F1820"/>
<stop offset="1" stop-color="#19191C" stop-opacity="0"/>
</linearGradient>
<linearGradient id="paint1_linear_388_7192" x1="462.5" y1="-9.5" x2="462.5" y2="238.5" gradientUnits="userSpaceOnUse">
<stop offset="0.105769" stop-color="#FD366E" stop-opacity="0"/>
<stop offset="1" stop-color="#FD366E"/>
</linearGradient>
<linearGradient id="paint2_linear_388_7192" x1="553.5" y1="-9.5" x2="553.5" y2="238.5" gradientUnits="userSpaceOnUse">
<stop offset="0.105769" stop-color="#FD366E" stop-opacity="0"/>
<stop offset="1" stop-color="#FD366E"/>
</linearGradient>
<linearGradient id="paint3_linear_388_7192" x1="418" y1="-27.5" x2="418" y2="238.5" gradientUnits="userSpaceOnUse">
<stop offset="0.105769" stop-color="#FD366E" stop-opacity="0"/>
<stop offset="1" stop-color="#FD366E"/>
</linearGradient>
<linearGradient id="paint4_linear_388_7192" x1="212.5" y1="-9.5" x2="212.5" y2="238.5" gradientUnits="userSpaceOnUse">
<stop offset="0.105769" stop-color="#FD366E" stop-opacity="0"/>
<stop offset="1" stop-color="#FD366E"/>
</linearGradient>
<linearGradient id="paint5_linear_388_7192" x1="121.5" y1="-9.5" x2="121.5" y2="238.5" gradientUnits="userSpaceOnUse">
<stop offset="0.105769" stop-color="#FD366E" stop-opacity="0"/>
<stop offset="1" stop-color="#FD366E"/>
</linearGradient>
<linearGradient id="paint6_linear_388_7192" x1="257" y1="-27.5" x2="257" y2="238.5" gradientUnits="userSpaceOnUse">
<stop offset="0.105769" stop-color="#FD366E" stop-opacity="0"/>
<stop offset="1" stop-color="#FD366E"/>
</linearGradient>
<clipPath id="clip0_388_7192">
<path d="M0 0H679V500H0V0Z" fill="white"/>
</clipPath>
<clipPath id="clip1_388_7192">
<rect width="679" height="467" fill="white" transform="translate(0 33.5)"/>
</clipPath>
</defs>
</svg>
