<svg width="679" height="467" viewBox="0 0 679 467" fill="none" xmlns="http://www.w3.org/2000/svg">
<g clip-path="url(#clip0_395_6275)">
<circle opacity="0.2" cx="201" cy="234" r="162" transform="rotate(90 201 234)" stroke="#FD366E"/>
<ellipse opacity="0.2" cx="201" cy="234" rx="176" ry="176" transform="rotate(90 201 234)" stroke="#FD366E"/>
<ellipse opacity="0.2" cx="201" cy="234" rx="191" ry="191" transform="rotate(90 201 234)" stroke="#FD366E"/>
<ellipse opacity="0.2" cx="201" cy="234" rx="207" ry="207" transform="rotate(90 201 234)" stroke="#FD366E"/>
<ellipse opacity="0.2" cx="201" cy="234" rx="222" ry="222" transform="rotate(90 201 234)" stroke="#FD366E"/>
<ellipse opacity="0.2" cx="201" cy="234" rx="238" ry="238" transform="rotate(90 201 234)" stroke="#FD366E"/>
<ellipse opacity="0.2" cx="201" cy="234" rx="255" ry="255" transform="rotate(90 201 234)" stroke="#FD366E"/>
<circle opacity="0.2" cx="201" cy="234" r="272" transform="rotate(90 201 234)" stroke="#FD366E"/>
<circle opacity="0.2" cx="201" cy="234" r="287" transform="rotate(90 201 234)" stroke="#FD366E"/>
<circle opacity="0.2" cx="479" cy="234" r="162" transform="rotate(90 479 234)" stroke="#FD366E"/>
<ellipse opacity="0.2" cx="479" cy="234" rx="176" ry="176" transform="rotate(90 479 234)" stroke="#FD366E"/>
<ellipse opacity="0.2" cx="479" cy="234" rx="191" ry="191" transform="rotate(90 479 234)" stroke="#FD366E"/>
<ellipse opacity="0.2" cx="479" cy="234" rx="207" ry="207" transform="rotate(90 479 234)" stroke="#FD366E"/>
<ellipse opacity="0.2" cx="479" cy="234" rx="222" ry="222" transform="rotate(90 479 234)" stroke="#FD366E"/>
<ellipse opacity="0.2" cx="479" cy="234" rx="238" ry="238" transform="rotate(90 479 234)" stroke="#FD366E"/>
<ellipse opacity="0.2" cx="479" cy="234" rx="255" ry="255" transform="rotate(90 479 234)" stroke="#FD366E"/>
<circle opacity="0.2" cx="479" cy="234" r="272" transform="rotate(90 479 234)" stroke="#FD366E"/>
<circle opacity="0.2" cx="479" cy="234" r="287" transform="rotate(90 479 234)" stroke="#FD366E"/>
<circle cx="200.999" cy="233.999" r="132" transform="rotate(71.1806 200.999 233.999)" stroke="url(#paint0_linear_395_6275)" stroke-width="14"/>
<circle cx="139" cy="139" r="132" transform="matrix(0.512363 0.858769 0.858769 -0.512363 288.412 185.85)" stroke="url(#paint1_linear_395_6275)" stroke-width="14"/>
<ellipse cx="339.5" cy="234" rx="276.5" ry="100" fill="url(#paint2_radial_395_6275)"/>
<path d="M201.584 253V216.106H206.169V232.128H225.249V216.106H229.834V253H225.249V236.345H206.169V253H201.584ZM243.637 253.158L233.148 226.12H237.734L246.008 247.571L254.02 226.12H258.605L246.219 257.533C245.306 259.887 244.445 261.468 243.637 262.276C242.829 263.12 241.528 263.541 239.736 263.541H234.571V259.588H238.419C239.613 259.588 240.422 259.395 240.843 259.008C241.3 258.622 241.792 257.761 242.319 256.426L243.637 253.158ZM274.847 225.804C278.642 225.804 281.734 227.034 284.123 229.493C286.548 231.918 287.76 235.273 287.76 239.56C287.76 243.636 286.548 246.956 284.123 249.521C281.699 252.051 278.607 253.316 274.847 253.316C270.56 253.316 267.486 251.84 265.624 248.889V263.541H261.302V226.12H265.044L265.624 230.442C267.872 227.35 270.947 225.804 274.847 225.804ZM274.426 249.469C277.096 249.469 279.239 248.555 280.856 246.728C282.507 244.866 283.333 242.476 283.333 239.56C283.333 236.644 282.507 234.272 280.856 232.445C279.239 230.582 277.096 229.651 274.426 229.651C271.79 229.651 269.647 230.565 267.995 232.392C266.379 234.219 265.571 236.573 265.571 239.455C265.571 242.406 266.379 244.813 267.995 246.675C269.647 248.538 271.79 249.469 274.426 249.469ZM304.558 253.316C300.552 253.316 297.319 252.051 294.86 249.521C292.435 246.992 291.223 243.671 291.223 239.56C291.223 235.484 292.4 232.181 294.754 229.651C297.109 227.086 300.183 225.804 303.978 225.804C307.808 225.804 310.865 226.946 313.149 229.23C315.433 231.478 316.627 234.588 316.733 238.559C316.733 238.945 316.698 239.56 316.627 240.403H295.756V240.772C295.826 243.372 296.617 245.481 298.128 247.097C299.674 248.678 301.712 249.469 304.241 249.469C306.174 249.469 307.808 248.994 309.143 248.046C310.513 247.062 311.427 245.709 311.884 243.987H316.258C315.731 246.728 314.414 248.977 312.305 250.734C310.197 252.455 307.615 253.316 304.558 253.316ZM296.019 236.819H312.095C311.884 234.535 311.058 232.761 309.617 231.496C308.177 230.231 306.315 229.599 304.031 229.599C301.993 229.599 300.201 230.266 298.655 231.601C297.109 232.937 296.23 234.676 296.019 236.819ZM333.576 226.12H334.788V230.336H332.627C330.062 230.336 328.218 231.197 327.093 232.919C326.004 234.641 325.459 236.767 325.459 239.296V253H321.137V226.12H324.88L325.459 230.178C327.111 227.473 329.816 226.12 333.576 226.12ZM338.007 253V216.106H342.329V253H338.007ZM369.701 249.521C367.242 252.051 364.044 253.316 360.109 253.316C356.174 253.316 352.958 252.051 350.464 249.521C348.004 246.956 346.774 243.636 346.774 239.56C346.774 235.484 348.004 232.181 350.464 229.651C352.958 227.086 356.174 225.804 360.109 225.804C364.044 225.804 367.242 227.086 369.701 229.651C372.196 232.181 373.443 235.484 373.443 239.56C373.443 243.636 372.196 246.956 369.701 249.521ZM353.679 246.675C355.33 248.538 357.474 249.469 360.109 249.469C362.744 249.469 364.888 248.538 366.539 246.675C368.19 244.813 369.016 242.441 369.016 239.56C369.016 236.679 368.19 234.307 366.539 232.445C364.888 230.582 362.744 229.651 360.109 229.651C357.474 229.651 355.33 230.582 353.679 232.445C352.027 234.307 351.202 236.679 351.202 239.56C351.202 242.441 352.027 244.813 353.679 246.675ZM399.851 249.521C397.391 252.051 394.194 253.316 390.258 253.316C386.323 253.316 383.108 252.051 380.613 249.521C378.154 246.956 376.924 243.636 376.924 239.56C376.924 235.484 378.154 232.181 380.613 229.651C383.108 227.086 386.323 225.804 390.258 225.804C394.194 225.804 397.391 227.086 399.851 229.651C402.346 232.181 403.593 235.484 403.593 239.56C403.593 243.636 402.346 246.956 399.851 249.521ZM383.828 246.675C385.48 248.538 387.623 249.469 390.258 249.469C392.894 249.469 395.037 248.538 396.688 246.675C398.34 244.813 399.166 242.441 399.166 239.56C399.166 236.679 398.34 234.307 396.688 232.445C395.037 230.582 392.894 229.651 390.258 229.651C387.623 229.651 385.48 230.582 383.828 232.445C382.177 234.307 381.351 236.679 381.351 239.56C381.351 242.441 382.177 244.813 383.828 246.675ZM421.567 225.804C425.362 225.804 428.454 227.034 430.843 229.493C433.268 231.918 434.48 235.273 434.48 239.56C434.48 243.636 433.268 246.956 430.843 249.521C428.419 252.051 425.327 253.316 421.567 253.316C417.28 253.316 414.206 251.84 412.344 248.889V263.541H408.022V226.12H411.764L412.344 230.442C414.592 227.35 417.667 225.804 421.567 225.804ZM421.146 249.469C423.816 249.469 425.959 248.555 427.576 246.728C429.227 244.866 430.053 242.476 430.053 239.56C430.053 236.644 429.227 234.272 427.576 232.445C425.959 230.582 423.816 229.651 421.146 229.651C418.51 229.651 416.367 230.565 414.715 232.392C413.099 234.219 412.291 236.573 412.291 239.455C412.291 242.406 413.099 244.813 414.715 246.675C416.367 248.538 418.51 249.469 421.146 249.469ZM452.791 253V216.106H465.862C469.728 216.106 472.732 216.984 474.875 218.741C477.018 220.463 478.09 222.835 478.09 225.856C478.09 229.862 476.158 232.533 472.293 233.868C474.436 234.289 476.193 235.203 477.563 236.608C478.933 238.014 479.619 239.964 479.619 242.459C479.619 245.762 478.459 248.344 476.14 250.207C473.856 252.069 470.553 253 466.231 253H452.791ZM466.073 220.27H457.377V232.128H466.073C468.427 232.128 470.255 231.601 471.555 230.547C472.855 229.493 473.505 228.035 473.505 226.173C473.505 224.31 472.855 222.87 471.555 221.851C470.29 220.797 468.463 220.27 466.073 220.27ZM466.231 236.24H457.377V248.836H466.231C469.042 248.836 471.186 248.292 472.661 247.202C474.172 246.113 474.928 244.602 474.928 242.67C474.928 240.597 474.172 239.015 472.661 237.926C471.151 236.802 469.007 236.24 466.231 236.24Z" fill="#E4E4E7"/>
</g>
<defs>
<linearGradient id="paint0_linear_395_6275" x1="200.999" y1="150.702" x2="200.999" y2="410.816" gradientUnits="userSpaceOnUse">
<stop stop-color="#19191C" stop-opacity="0"/>
<stop offset="0.17" stop-color="#2F1820"/>
<stop offset="0.34" stop-color="#531A2C"/>
<stop offset="0.51" stop-color="#9F1D42"/>
<stop offset="0.68" stop-color="#FD366E"/>
<stop offset="0.85" stop-color="#FEAFC5"/>
<stop offset="1" stop-color="#EDEDF0"/>
</linearGradient>
<linearGradient id="paint1_linear_395_6275" x1="139" y1="55.7022" x2="139" y2="315.816" gradientUnits="userSpaceOnUse">
<stop stop-color="#19191C" stop-opacity="0"/>
<stop offset="0.17" stop-color="#2F1820"/>
<stop offset="0.34" stop-color="#531A2C"/>
<stop offset="0.51" stop-color="#9F1D42"/>
<stop offset="0.68" stop-color="#FD366E"/>
<stop offset="0.85" stop-color="#FEAFC5"/>
<stop offset="1" stop-color="#EDEDF0"/>
</linearGradient>
<radialGradient id="paint2_radial_395_6275" cx="0" cy="0" r="1" gradientUnits="userSpaceOnUse" gradientTransform="translate(339.5 234) scale(322.282 116.558)">
<stop offset="0.415539" stop-color="#19191C"/>
<stop offset="1" stop-color="#19191C" stop-opacity="0"/>
</radialGradient>
<clipPath id="clip0_395_6275">
<rect width="679" height="467" fill="white"/>
</clipPath>
</defs>
</svg>
