<svg width="679" height="500" viewBox="0 0 679 500" fill="none" xmlns="http://www.w3.org/2000/svg">
<g filter="url(#filter0_n_388_6484)">
<g clip-path="url(#clip0_388_6484)">
<path d="M0 0H679V500H0V0Z" fill="#19191C"/>
<g opacity="0.12">
<path d="M14.998 30.5V62.5" stroke="#FD366E"/>
<path d="M31 46.498L-1 46.498" stroke="#FD366E"/>
<path d="M14.998 132.25V164.25" stroke="#FD366E"/>
<path d="M31 148.248L-1 148.248" stroke="#FD366E"/>
<path d="M14.998 234V266" stroke="#FD366E"/>
<path d="M31 249.998L-1 249.998" stroke="#FD366E"/>
<path d="M14.998 335.75V367.75" stroke="#FD366E"/>
<path d="M31 351.748L-1 351.748" stroke="#FD366E"/>
<path d="M14.998 437.5V469.5" stroke="#FD366E"/>
<path d="M31 453.498L-1 453.498" stroke="#FD366E"/>
<path d="M122.998 30.5V62.5" stroke="#FD366E"/>
<path d="M139 46.498L107 46.498" stroke="#FD366E"/>
<path d="M122.998 132.25V164.25" stroke="#FD366E"/>
<path d="M139 148.248L107 148.248" stroke="#FD366E"/>
<path d="M122.998 234V266" stroke="#FD366E"/>
<path d="M139 249.998L107 249.998" stroke="#FD366E"/>
<path d="M122.998 335.75V367.75" stroke="#FD366E"/>
<path d="M139 351.748L107 351.748" stroke="#FD366E"/>
<path d="M122.998 437.5V469.5" stroke="#FD366E"/>
<path d="M139 453.498L107 453.498" stroke="#FD366E"/>
<path d="M230.998 30.5V62.5" stroke="#FD366E"/>
<path d="M247 46.498L215 46.498" stroke="#FD366E"/>
<path d="M230.998 132.25V164.25" stroke="#FD366E"/>
<path d="M247 148.248L215 148.248" stroke="#FD366E"/>
<path d="M230.998 234V266" stroke="#FD366E"/>
<path d="M247 249.998L215 249.998" stroke="#FD366E"/>
<path d="M230.998 335.75V367.75" stroke="#FD366E"/>
<path d="M247 351.748L215 351.748" stroke="#FD366E"/>
<path d="M230.998 437.5V469.5" stroke="#FD366E"/>
<path d="M247 453.498L215 453.498" stroke="#FD366E"/>
<path d="M338.998 30.5V62.5" stroke="#FD366E"/>
<path d="M355 46.498L323 46.498" stroke="#FD366E"/>
<path d="M338.998 132.25V164.25" stroke="#FD366E"/>
<path d="M355 148.248L323 148.248" stroke="#FD366E"/>
<path d="M338.998 234V266" stroke="#FD366E"/>
<path d="M355 249.998L323 249.998" stroke="#FD366E"/>
<path d="M338.998 335.75V367.75" stroke="#FD366E"/>
<path d="M355 351.748L323 351.748" stroke="#FD366E"/>
<path d="M338.998 437.5V469.5" stroke="#FD366E"/>
<path d="M355 453.498L323 453.498" stroke="#FD366E"/>
<path d="M446.998 30.5V62.5" stroke="#FD366E"/>
<path d="M463 46.498L431 46.498" stroke="#FD366E"/>
<path d="M446.998 132.25V164.25" stroke="#FD366E"/>
<path d="M463 148.248L431 148.248" stroke="#FD366E"/>
<path d="M446.998 234V266" stroke="#FD366E"/>
<path d="M463 249.998L431 249.998" stroke="#FD366E"/>
<path d="M446.998 335.75V367.75" stroke="#FD366E"/>
<path d="M463 351.748L431 351.748" stroke="#FD366E"/>
<path d="M446.998 437.5V469.5" stroke="#FD366E"/>
<path d="M463 453.498L431 453.498" stroke="#FD366E"/>
<path d="M554.998 30.5V62.5" stroke="#FD366E"/>
<path d="M571 46.498L539 46.498" stroke="#FD366E"/>
<path d="M554.998 132.25V164.25" stroke="#FD366E"/>
<path d="M571 148.248L539 148.248" stroke="#FD366E"/>
<path d="M554.998 234V266" stroke="#FD366E"/>
<path d="M571 249.998L539 249.998" stroke="#FD366E"/>
<path d="M554.998 335.75V367.75" stroke="#FD366E"/>
<path d="M571 351.748L539 351.748" stroke="#FD366E"/>
<path d="M554.998 437.5V469.5" stroke="#FD366E"/>
<path d="M571 453.498L539 453.498" stroke="#FD366E"/>
<path d="M662.998 30.5V62.5" stroke="#FD366E"/>
<path d="M679 46.498L647 46.498" stroke="#FD366E"/>
<path d="M662.998 132.25V164.25" stroke="#FD366E"/>
<path d="M679 148.248L647 148.248" stroke="#FD366E"/>
<path d="M662.998 234V266" stroke="#FD366E"/>
<path d="M679 249.998L647 249.998" stroke="#FD366E"/>
<path d="M662.998 335.75V367.75" stroke="#FD366E"/>
<path d="M679 351.748L647 351.748" stroke="#FD366E"/>
<path d="M662.998 437.5V469.5" stroke="#FD366E"/>
<path d="M679 453.498L647 453.498" stroke="#FD366E"/>
</g>
<rect x="66" y="112" width="548" height="347" fill="#19191C" stroke="url(#paint0_linear_388_6484)" stroke-width="2"/>
<foreignObject x="118" y="348" width="245.5" height="64"><div xmlns="http://www.w3.org/1999/xhtml" style="backdrop-filter:blur(2px);clip-path:url(#bgblur_1_388_6484_clip_path);height:100%;width:100%"></div></foreignObject><rect data-figma-bg-blur-radius="4" x="122" y="352" width="237.5" height="56" fill="#FD366E" fill-opacity="0.08"/>
<foreignObject x="118" y="412" width="491" height="50"><div xmlns="http://www.w3.org/1999/xhtml" style="backdrop-filter:blur(2px);clip-path:url(#bgblur_2_388_6484_clip_path);height:100%;width:100%"></div></foreignObject><rect data-figma-bg-blur-radius="4" x="122" y="416" width="483" height="42" fill="#FD366E" fill-opacity="0.08"/>
<foreignObject x="363.5" y="348" width="245.5" height="64"><div xmlns="http://www.w3.org/1999/xhtml" style="backdrop-filter:blur(2px);clip-path:url(#bgblur_3_388_6484_clip_path);height:100%;width:100%"></div></foreignObject><rect data-figma-bg-blur-radius="4" x="367.5" y="352" width="237.5" height="56" fill="#FD366E" fill-opacity="0.08"/>
<foreignObject x="71" y="117" width="48" height="337"><div xmlns="http://www.w3.org/1999/xhtml" style="backdrop-filter:blur(2px);clip-path:url(#bgblur_4_388_6484_clip_path);height:100%;width:100%"></div></foreignObject><rect data-figma-bg-blur-radius="4" x="75" y="121" width="40" height="329" fill="#FD366E" fill-opacity="0.08"/>
<foreignObject x="118" y="117" width="491" height="44"><div xmlns="http://www.w3.org/1999/xhtml" style="backdrop-filter:blur(2px);clip-path:url(#bgblur_5_388_6484_clip_path);height:100%;width:100%"></div></foreignObject><rect data-figma-bg-blur-radius="4" x="122" y="121" width="483" height="36" fill="#FD366E" fill-opacity="0.08"/>
<foreignObject x="134" y="128" width="57" height="22"><div xmlns="http://www.w3.org/1999/xhtml" style="backdrop-filter:blur(2px);clip-path:url(#bgblur_6_388_6484_clip_path);height:100%;width:100%"></div></foreignObject><rect data-figma-bg-blur-radius="4" x="138" y="132" width="49" height="14" fill="#FD366E" fill-opacity="0.08"/>
<foreignObject x="118" y="161" width="491" height="187"><div xmlns="http://www.w3.org/1999/xhtml" style="backdrop-filter:blur(2px);height:100%;width:100%"></div></foreignObject><rect data-figma-bg-blur-radius="4" x="122.5" y="165.5" width="482" height="178" stroke="#FD366E" stroke-opacity="0.16"/>
<path d="M217.702 286.158C190.95 284.968 153.497 259.396 123 286.158V343.25H604V208.25C505.553 208.25 515.719 271.29 453.654 279.616C391.59 287.942 327.385 235.013 292.607 242.744C257.83 250.475 244.454 287.347 217.702 286.158Z" fill="#19191C"/>
<path d="M217.702 286.158C190.95 284.968 153.497 259.396 123 286.158V343.25H604V208.25C505.553 208.25 515.719 271.29 453.654 279.616C391.59 287.942 327.385 235.013 292.607 242.744C257.83 250.475 244.454 287.347 217.702 286.158Z" fill="url(#paint1_linear_388_6484)"/>
<path d="M123 286.222C153.497 259.438 190.95 285.031 217.702 286.222C244.454 287.412 257.83 250.51 292.607 242.772C327.385 235.035 391.59 288.008 453.654 279.675C515.719 271.342 505.553 208.25 604 208.25" stroke="#FD366E" stroke-width="2"/>
<foreignObject x="134" y="173" width="57" height="22"><div xmlns="http://www.w3.org/1999/xhtml" style="backdrop-filter:blur(2px);clip-path:url(#bgblur_7_388_6484_clip_path);height:100%;width:100%"></div></foreignObject><rect data-figma-bg-blur-radius="4" x="138" y="177" width="49" height="14" fill="#FD366E" fill-opacity="0.08"/>
<foreignObject x="520" y="128" width="73" height="22"><div xmlns="http://www.w3.org/1999/xhtml" style="backdrop-filter:blur(2px);clip-path:url(#bgblur_8_388_6484_clip_path);height:100%;width:100%"></div></foreignObject><rect data-figma-bg-blur-radius="4" x="524" y="132" width="65" height="14" fill="#FD366E" fill-opacity="0.08"/>
<foreignObject x="451" y="128" width="73" height="22"><div xmlns="http://www.w3.org/1999/xhtml" style="backdrop-filter:blur(2px);clip-path:url(#bgblur_9_388_6484_clip_path);height:100%;width:100%"></div></foreignObject><rect data-figma-bg-blur-radius="4" x="455" y="132" width="65" height="14" fill="#FD366E" fill-opacity="0.08"/>
<foreignObject x="79" y="152" width="32" height="32"><div xmlns="http://www.w3.org/1999/xhtml" style="backdrop-filter:blur(2px);clip-path:url(#bgblur_10_388_6484_clip_path);height:100%;width:100%"></div></foreignObject><rect data-figma-bg-blur-radius="4" x="83" y="156" width="24" height="24" fill="#FD366E" fill-opacity="0.08"/>
<foreignObject x="79" y="179" width="32" height="32"><div xmlns="http://www.w3.org/1999/xhtml" style="backdrop-filter:blur(2px);clip-path:url(#bgblur_11_388_6484_clip_path);height:100%;width:100%"></div></foreignObject><rect data-figma-bg-blur-radius="4" x="83" y="183" width="24" height="24" fill="#FD366E" fill-opacity="0.08"/>
<foreignObject x="79" y="206" width="32" height="32"><div xmlns="http://www.w3.org/1999/xhtml" style="backdrop-filter:blur(2px);clip-path:url(#bgblur_12_388_6484_clip_path);height:100%;width:100%"></div></foreignObject><rect data-figma-bg-blur-radius="4" x="83" y="210" width="24" height="24" fill="#FD366E" fill-opacity="0.08"/>
<foreignObject x="79" y="233" width="32" height="32"><div xmlns="http://www.w3.org/1999/xhtml" style="backdrop-filter:blur(2px);clip-path:url(#bgblur_13_388_6484_clip_path);height:100%;width:100%"></div></foreignObject><rect data-figma-bg-blur-radius="4" x="83" y="237" width="24" height="24" fill="#FD366E" fill-opacity="0.08"/>
<foreignObject x="79" y="125" width="32" height="32"><div xmlns="http://www.w3.org/1999/xhtml" style="backdrop-filter:blur(2px);clip-path:url(#bgblur_14_388_6484_clip_path);height:100%;width:100%"></div></foreignObject><rect data-figma-bg-blur-radius="4" x="83" y="129" width="24" height="24" fill="#FD366E" fill-opacity="0.08"/>
<rect width="110" height="30" transform="translate(67 83)" fill="#FD366E"/>
<path d="M84.202 99.894H80.932L80.272 102H79.246L81.934 93.738H83.266L85.954 102H84.862L84.202 99.894ZM81.202 99.03H83.932L82.576 94.614L81.202 99.03ZM91.7093 96.288C91.7093 95.86 91.6253 95.522 91.4573 95.274C91.2893 95.022 91.0593 94.842 90.7673 94.734C90.4753 94.622 90.1413 94.566 89.7653 94.566H88.5713V98.094H89.7233C90.1113 98.094 90.4533 98.042 90.7493 97.938C91.0453 97.83 91.2793 97.646 91.4513 97.386C91.6233 97.122 91.7093 96.756 91.7093 96.288ZM92.8253 96.276C92.8253 96.92 92.6873 97.436 92.4113 97.824C92.1393 98.212 91.7633 98.494 91.2833 98.67C90.8033 98.846 90.2513 98.934 89.6273 98.934H88.5713V102H87.5273V93.738H89.6393C90.6233 93.738 91.3993 93.946 91.9673 94.362C92.5393 94.774 92.8253 95.412 92.8253 96.276ZM98.8506 96.288C98.8506 95.86 98.7666 95.522 98.5986 95.274C98.4306 95.022 98.2006 94.842 97.9086 94.734C97.6166 94.622 97.2826 94.566 96.9066 94.566H95.7126V98.094H96.8646C97.2526 98.094 97.5946 98.042 97.8906 97.938C98.1866 97.83 98.4206 97.646 98.5926 97.386C98.7646 97.122 98.8506 96.756 98.8506 96.288ZM99.9666 96.276C99.9666 96.92 99.8286 97.436 99.5526 97.824C99.2806 98.212 98.9046 98.494 98.4246 98.67C97.9446 98.846 97.3926 98.934 96.7686 98.934H95.7126V102H94.6686V93.738H96.7806C97.7646 93.738 98.5406 93.946 99.1086 94.362C99.6806 94.774 99.9666 95.412 99.9666 96.276ZM107.57 93.738L106.31 102H104.942L103.994 95.766L103.04 102H101.642L100.478 93.738H101.522L102.404 100.854L103.394 94.698H104.672L105.614 100.854L106.604 93.738H107.57ZM114.015 96.054C114.015 96.466 113.925 96.826 113.745 97.134C113.569 97.442 113.329 97.696 113.025 97.896C112.721 98.096 112.379 98.242 111.999 98.334L114.447 102H113.199L110.943 98.454H109.827V102H108.783V93.738H110.907C111.927 93.738 112.699 93.934 113.223 94.326C113.751 94.714 114.015 95.29 114.015 96.054ZM112.899 96.054C112.899 95.522 112.747 95.142 112.443 94.914C112.139 94.682 111.667 94.566 111.027 94.566H109.827V97.638H111.027C111.619 97.638 112.079 97.518 112.407 97.278C112.735 97.034 112.899 96.626 112.899 96.054ZM120.671 93.738V94.572H118.835V101.166H120.671V102H115.943V101.166H117.779V94.572H115.943V93.738H120.671ZM125.946 94.632V102H124.908V94.632H122.328V93.738H128.562L128.454 94.632H125.946ZM131.539 94.59V97.374H134.599V98.232H131.539V101.166H135.295V102H130.495V93.738H135.187L135.067 94.59H131.539ZM146.506 93.606C147.026 93.606 147.47 93.706 147.838 93.906C148.21 94.106 148.496 94.38 148.696 94.728C148.896 95.076 148.996 95.47 148.996 95.91C148.996 96.29 148.93 96.662 148.798 97.026C148.666 97.386 148.454 97.766 148.162 98.166C147.874 98.562 147.494 99.002 147.022 99.486C146.554 99.97 145.978 100.522 145.294 101.142H149.188L149.062 102H144.148V101.178C144.772 100.582 145.302 100.06 145.738 99.612C146.178 99.164 146.54 98.772 146.824 98.436C147.112 98.096 147.336 97.788 147.496 97.512C147.66 97.236 147.774 96.974 147.838 96.726C147.902 96.474 147.934 96.214 147.934 95.946C147.934 95.482 147.802 95.116 147.538 94.848C147.278 94.58 146.918 94.446 146.458 94.446C146.05 94.446 145.716 94.516 145.456 94.656C145.196 94.796 144.936 95.02 144.676 95.328L143.98 94.788C144.308 94.388 144.672 94.092 145.072 93.9C145.472 93.704 145.95 93.606 146.506 93.606ZM152.951 101.076C152.951 100.88 152.997 100.704 153.089 100.548C153.181 100.388 153.305 100.262 153.461 100.17C153.621 100.074 153.801 100.026 154.001 100.026C154.205 100.026 154.387 100.074 154.547 100.17C154.707 100.262 154.833 100.388 154.925 100.548C155.017 100.704 155.063 100.88 155.063 101.076C155.063 101.272 155.017 101.452 154.925 101.616C154.833 101.776 154.707 101.904 154.547 102C154.387 102.092 154.205 102.138 154.001 102.138C153.801 102.138 153.621 102.092 153.461 102C153.305 101.904 153.181 101.776 153.089 101.616C152.997 101.452 152.951 101.272 152.951 101.076ZM161.154 93.606C162.046 93.606 162.72 93.974 163.176 94.71C163.632 95.446 163.86 96.498 163.86 97.866C163.86 99.238 163.632 100.294 163.176 101.034C162.72 101.77 162.046 102.138 161.154 102.138C160.266 102.138 159.592 101.77 159.132 101.034C158.676 100.294 158.448 99.238 158.448 97.866C158.448 96.498 158.676 95.446 159.132 94.71C159.592 93.974 160.266 93.606 161.154 93.606ZM161.154 94.416C160.646 94.416 160.246 94.686 159.954 95.226C159.662 95.762 159.516 96.642 159.516 97.866C159.516 98.486 159.548 99.016 159.612 99.456C159.676 99.896 159.774 100.254 159.906 100.53C160.042 100.802 160.212 101.002 160.416 101.13C160.624 101.258 160.87 101.322 161.154 101.322C161.498 101.322 161.792 101.204 162.036 100.968C162.284 100.732 162.472 100.36 162.6 99.852C162.732 99.34 162.798 98.678 162.798 97.866C162.798 97.042 162.74 96.376 162.624 95.868C162.512 95.36 162.334 94.992 162.09 94.764C161.85 94.532 161.538 94.416 161.154 94.416ZM162.372 94.71L162.636 95.592L160.008 100.914L159.636 100.212L162.372 94.71Z" fill="#19191C"/>
<g filter="url(#filter16_n_388_6484)">
<path d="M0 0H679V32H0V0Z" fill="#FD366E" fill-opacity="0.06"/>
<path d="M678.5 0.5V31.5H0.5V0.5H678.5Z" stroke="#FD366E" stroke-opacity="0.16"/>
<path d="M588.872 21.084C586.254 21.084 584.742 19.236 584.742 16.1C584.742 12.95 586.268 11.116 588.928 11.116C590.874 11.116 592.246 12.32 592.624 14.406H591.336C591 12.964 590.174 12.236 588.914 12.236C587.038 12.236 585.988 13.65 585.988 16.1C585.988 18.578 586.996 19.964 588.872 19.964C590.146 19.964 590.972 19.25 591.322 17.794H592.61C592.232 19.894 590.874 21.084 588.872 21.084ZM598.085 21.084C595.663 21.084 594.053 19.152 594.053 16.1C594.053 13.048 595.663 11.116 598.085 11.116C600.521 11.116 602.145 13.062 602.145 16.1C602.145 19.138 600.521 21.084 598.085 21.084ZM598.085 19.964C599.835 19.964 600.899 18.536 600.899 16.1C600.899 13.664 599.835 12.236 598.085 12.236C596.363 12.236 595.299 13.636 595.299 16.1C595.299 18.564 596.363 19.964 598.085 19.964ZM605.177 21H604.001V11.2H605.177L609.867 18.732V11.2H611.029V21H609.867L605.177 13.454V21ZM616.77 21.084C614.474 21.084 613.004 19.782 612.934 17.794H614.194C614.292 19.124 615.328 19.978 616.784 19.978C618.1 19.978 618.982 19.348 618.982 18.312C618.982 17.29 618.198 16.898 616.35 16.59C614.32 16.254 613.172 15.498 613.172 13.902C613.172 12.236 614.516 11.116 616.49 11.116C618.576 11.116 619.962 12.292 620.074 14.098H618.814C618.688 12.95 617.764 12.222 616.49 12.222C615.188 12.222 614.39 12.81 614.39 13.832C614.39 14.84 615.16 15.19 617.036 15.498C619.038 15.82 620.2 16.632 620.2 18.2C620.2 19.894 618.786 21.084 616.77 21.084ZM625.756 21.084C623.334 21.084 621.724 19.152 621.724 16.1C621.724 13.048 623.334 11.116 625.756 11.116C628.192 11.116 629.816 13.062 629.816 16.1C629.816 19.138 628.192 21.084 625.756 21.084ZM625.756 19.964C627.506 19.964 628.57 18.536 628.57 16.1C628.57 13.664 627.506 12.236 625.756 12.236C624.034 12.236 622.97 13.636 622.97 16.1C622.97 18.564 624.034 19.964 625.756 19.964ZM637.287 21H631.673V11.2H632.891V19.88H637.287V21ZM645.039 21H638.823V11.2H644.857V12.32H640.041V15.456H644.087V16.576H640.041V19.88H645.039V21ZM657.573 21H651.007V20.006L654.703 16.702C655.599 15.904 656.299 15.148 656.299 14.098C656.299 12.866 655.487 12.166 654.255 12.166C653.051 12.166 652.239 13.006 652.239 14.35V14.532H651.063V14.28C651.063 12.432 652.323 11.116 654.255 11.116C656.299 11.116 657.503 12.278 657.503 14.042C657.503 15.498 656.593 16.436 655.459 17.43L652.631 19.922H657.573V21ZM660.199 21.084C659.709 21.084 659.345 20.748 659.345 20.244C659.345 19.74 659.709 19.39 660.199 19.39C660.689 19.39 661.067 19.74 661.067 20.244C661.067 20.748 660.689 21.084 660.199 21.084ZM666.543 11.116C668.685 11.116 670.015 12.894 670.015 15.876V16.324C670.015 19.306 668.685 21.084 666.543 21.084C664.401 21.084 663.071 19.306 663.071 16.324V15.876C663.071 12.894 664.401 11.116 666.543 11.116ZM664.233 15.918V16.282C664.233 16.828 664.275 17.318 664.359 17.738L668.349 13.342C667.957 12.572 667.341 12.166 666.543 12.166C665.087 12.166 664.233 13.538 664.233 15.918ZM668.853 16.282V15.918C668.853 15.372 668.811 14.882 668.727 14.448L664.737 18.872C665.143 19.614 665.759 20.02 666.543 20.02C667.999 20.02 668.853 18.662 668.853 16.282Z" fill="#FD366E"/>
<path d="M14.426 11.2V12.208H12.284V19.992H14.426V21H8.91V19.992H11.066V12.208H8.91V11.2H14.426ZM17.6378 21H16.4618V11.2H17.6378L22.3278 18.732V11.2H23.4898V21H22.3278L17.6378 13.454V21ZM31.0373 11.2V12.208H28.8953V19.992H31.0373V21H25.5213V19.992H27.6773V12.208H25.5213V11.2H31.0373ZM36.7691 21H35.5511V12.32H32.3731V11.2H39.9471V12.32H36.7691V21Z" fill="#FD366E"/>
</g>
</g>
<path d="M678.5 0.5V499.5H0.5V0.5H678.5Z" stroke="#FD366E" stroke-opacity="0.16"/>
</g>
<defs>
<filter id="filter0_n_388_6484" x="0" y="0" width="679" height="500" filterUnits="userSpaceOnUse" color-interpolation-filters="sRGB">
<feFlood flood-opacity="0" result="BackgroundImageFix"/>
<feBlend mode="normal" in="SourceGraphic" in2="BackgroundImageFix" result="shape"/>
<feTurbulence type="fractalNoise" baseFrequency="1 1" stitchTiles="stitch" numOctaves="3" result="noise" seed="249" />
<feColorMatrix in="noise" type="luminanceToAlpha" result="alphaNoise" />
<feComponentTransfer in="alphaNoise" result="coloredNoise1">
<feFuncA type="discrete" tableValues="0 0 0 0 0 0 0 0 0 0 0 0 0 0 0 0 0 1 1 1 1 1 1 1 1 1 1 1 1 1 1 1 1 1 0 0 0 0 0 0 0 0 0 0 0 0 0 0 0 0 0 0 0 0 0 0 0 0 0 0 0 0 0 0 0 0 0 0 0 0 0 0 0 0 0 0 0 0 0 0 0 0 0 0 0 0 0 0 0 0 0 0 0 0 0 0 0 0 0 0 "/>
</feComponentTransfer>
<feComposite operator="in" in2="shape" in="coloredNoise1" result="noise1Clipped" />
<feFlood flood-color="rgba(0, 0, 0, 0.08)" result="color1Flood" />
<feComposite operator="in" in2="noise1Clipped" in="color1Flood" result="color1" />
<feMerge result="effect1_noise_388_6484">
<feMergeNode in="shape" />
<feMergeNode in="color1" />
</feMerge>
</filter>
<clipPath id="bgblur_1_388_6484_clip_path" transform="translate(-118 -348)"><rect x="122" y="352" width="237.5" height="56"/>
</clipPath><clipPath id="bgblur_2_388_6484_clip_path" transform="translate(-118 -412)"><rect x="122" y="416" width="483" height="42"/>
</clipPath><clipPath id="bgblur_3_388_6484_clip_path" transform="translate(-363.5 -348)"><rect x="367.5" y="352" width="237.5" height="56"/>
</clipPath><clipPath id="bgblur_4_388_6484_clip_path" transform="translate(-71 -117)"><rect x="75" y="121" width="40" height="329"/>
</clipPath><clipPath id="bgblur_5_388_6484_clip_path" transform="translate(-118 -117)"><rect x="122" y="121" width="483" height="36"/>
</clipPath><clipPath id="bgblur_6_388_6484_clip_path" transform="translate(-134 -128)"><rect x="138" y="132" width="49" height="14"/>
</clipPath><clipPath id="bgblur_7_388_6484_clip_path" transform="translate(-134 -173)"><rect x="138" y="177" width="49" height="14"/>
</clipPath><clipPath id="bgblur_8_388_6484_clip_path" transform="translate(-520 -128)"><rect x="524" y="132" width="65" height="14"/>
</clipPath><clipPath id="bgblur_9_388_6484_clip_path" transform="translate(-451 -128)"><rect x="455" y="132" width="65" height="14"/>
</clipPath><clipPath id="bgblur_10_388_6484_clip_path" transform="translate(-79 -152)"><rect x="83" y="156" width="24" height="24"/>
</clipPath><clipPath id="bgblur_11_388_6484_clip_path" transform="translate(-79 -179)"><rect x="83" y="183" width="24" height="24"/>
</clipPath><clipPath id="bgblur_12_388_6484_clip_path" transform="translate(-79 -206)"><rect x="83" y="210" width="24" height="24"/>
</clipPath><clipPath id="bgblur_13_388_6484_clip_path" transform="translate(-79 -233)"><rect x="83" y="237" width="24" height="24"/>
</clipPath><clipPath id="bgblur_14_388_6484_clip_path" transform="translate(-79 -125)"><rect x="83" y="129" width="24" height="24"/>
</clipPath><filter id="filter16_n_388_6484" x="0" y="0" width="679" height="32" filterUnits="userSpaceOnUse" color-interpolation-filters="sRGB">
<feFlood flood-opacity="0" result="BackgroundImageFix"/>
<feBlend mode="normal" in="SourceGraphic" in2="BackgroundImageFix" result="shape"/>
<feTurbulence type="fractalNoise" baseFrequency="1 1" stitchTiles="stitch" numOctaves="3" result="noise" seed="249" />
<feColorMatrix in="noise" type="luminanceToAlpha" result="alphaNoise" />
<feComponentTransfer in="alphaNoise" result="coloredNoise1">
<feFuncA type="discrete" tableValues="0 0 0 0 0 0 0 0 0 0 0 0 0 0 0 0 0 1 1 1 1 1 1 1 1 1 1 1 1 1 1 1 1 1 0 0 0 0 0 0 0 0 0 0 0 0 0 0 0 0 0 0 0 0 0 0 0 0 0 0 0 0 0 0 0 0 0 0 0 0 0 0 0 0 0 0 0 0 0 0 0 0 0 0 0 0 0 0 0 0 0 0 0 0 0 0 0 0 0 0 "/>
</feComponentTransfer>
<feComposite operator="in" in2="shape" in="coloredNoise1" result="noise1Clipped" />
<feFlood flood-color="rgba(0, 0, 0, 0.08)" result="color1Flood" />
<feComposite operator="in" in2="noise1Clipped" in="color1Flood" result="color1" />
<feMerge result="effect1_noise_388_6484">
<feMergeNode in="shape" />
<feMergeNode in="color1" />
</feMerge>
</filter>
<linearGradient id="paint0_linear_388_6484" x1="340" y1="113" x2="340" y2="651.134" gradientUnits="userSpaceOnUse">
<stop stop-color="#EDEDF0"/>
<stop offset="0.15" stop-color="#FEAFC5"/>
<stop offset="0.32" stop-color="#FD366E"/>
<stop offset="0.49" stop-color="#9F1D42"/>
<stop offset="0.66" stop-color="#531A2C"/>
<stop offset="0.83" stop-color="#2F1820"/>
<stop offset="1" stop-color="#19191C"/>
</linearGradient>
<linearGradient id="paint1_linear_388_6484" x1="363.5" y1="193.382" x2="363.5" y2="333.735" gradientUnits="userSpaceOnUse">
<stop stop-color="#EDEDF0"/>
<stop offset="0.15" stop-color="#FEAFC5"/>
<stop offset="0.32" stop-color="#FD366E"/>
<stop offset="0.49" stop-color="#9F1D42"/>
<stop offset="0.66" stop-color="#531A2C"/>
<stop offset="0.83" stop-color="#2F1820"/>
<stop offset="1" stop-color="#19191C"/>
</linearGradient>
<clipPath id="clip0_388_6484">
<path d="M0 0H679V500H0V0Z" fill="white"/>
</clipPath>
</defs>
</svg>
