<svg width="24" height="24" viewBox="0 0 24 24" fill="none" xmlns="http://www.w3.org/2000/svg">
    <path
        d="M17.1352 10.2102L18.7113 7.47994C18.8002 7.32688 18.7464 7.13245 18.5955 7.04351C18.4445 6.95457 18.248 7.00628 18.1611 7.15934L16.5643 9.92474C15.3461 9.36835 13.9747 9.05809 12.5 9.05809C11.0253 9.05809 9.65392 9.36835 8.43566 9.92474L6.83888 7.15934C6.74994 7.00628 6.55551 6.95457 6.40245 7.04351C6.2494 7.13245 6.19769 7.32688 6.28663 7.47994L7.86271 10.2102C5.14489 11.6829 3.30404 14.4338 3 17.6542H22C21.696 14.4337 19.8551 11.6828 17.1352 10.2102ZM8.13781 14.986C7.69725 14.986 7.34149 14.6282 7.34149 14.1897C7.34149 13.7491 7.69932 13.3934 8.13781 13.3934C8.57837 13.3934 8.93413 13.7512 8.93413 14.1897C8.93621 14.6282 8.57837 14.986 8.13781 14.986ZM16.8601 14.986C16.4196 14.986 16.0638 14.6282 16.0638 14.1897C16.0638 13.7491 16.4216 13.3934 16.8601 13.3934C17.3007 13.3934 17.6564 13.7512 17.6564 14.1897C17.6585 14.6282 17.3007 14.986 16.8601 14.986Z"
        fill="#32DE84" />
</svg>