<svg width="28" height="28" viewBox="0 0 28 28" fill="none" xmlns="http://www.w3.org/2000/svg">
    <path
        d="M22.9177 20.5171C22.5616 21.3323 22.1401 22.0827 21.6517 22.7726C20.9861 23.7131 20.441 24.3641 20.021 24.7256C19.3699 25.319 18.6722 25.6229 17.9252 25.6402C17.3889 25.6402 16.7421 25.4889 15.9892 25.1821C15.2339 24.8768 14.5397 24.7256 13.905 24.7256C13.2394 24.7256 12.5254 24.8768 11.7618 25.1821C10.997 25.4889 10.3809 25.6488 9.90986 25.6646C9.19347 25.6949 8.47941 25.3823 7.76665 24.7256C7.31173 24.3324 6.74272 23.6583 6.06107 22.7034C5.32971 21.6837 4.72843 20.5012 4.25738 19.1531C3.75289 17.697 3.5 16.2869 3.5 14.9218C3.5 13.3581 3.84097 12.0094 4.52393 10.8792C5.06068 9.97144 5.77474 9.25533 6.66845 8.72962C7.56216 8.20392 8.52781 7.93603 9.56773 7.91889C10.1367 7.91889 10.8829 8.09331 11.8102 8.43609C12.7349 8.78003 13.3286 8.95445 13.5889 8.95445C13.7835 8.95445 14.4431 8.75051 15.5612 8.34391C16.6185 7.96685 17.5109 7.81072 18.242 7.87222C20.223 8.03065 21.7113 8.80452 22.7011 10.1987C20.9294 11.2625 20.053 12.7525 20.0704 14.6639C20.0864 16.1527 20.6314 17.3916 21.7026 18.3754C22.188 18.8319 22.7302 19.1848 23.3333 19.4354C23.2025 19.8113 23.0645 20.1714 22.9177 20.5171V20.5171ZM18.3743 2.80011C18.3743 3.96705 17.9441 5.05661 17.0865 6.06509C16.0517 7.26399 14.8 7.95677 13.4427 7.84745C13.4254 7.70745 13.4154 7.56011 13.4154 7.40528C13.4154 6.28503 13.9075 5.08613 14.7814 4.10587C15.2177 3.60955 15.7727 3.19687 16.4456 2.86766C17.1171 2.54337 17.7522 2.36402 18.3496 2.33331C18.367 2.48931 18.3743 2.64532 18.3743 2.8001V2.80011Z"
        fill="black" />
</svg>