<svg width="24" height="24" viewBox="0 0 24 24" fill="none" xmlns="http://www.w3.org/2000/svg">
    <path
        d="M8.55664 22.4199C9.48656 22.7942 10.4954 23.0163 11.5547 23.0533C12.9883 23.1034 14.3516 22.807 15.5704 22.2439C14.1089 21.6697 12.7853 20.83 11.6556 19.786C10.9234 20.9584 9.84032 21.8845 8.55664 22.4199Z"
        fill="#FF9100" />
    <path
        d="M11.6555 19.7864C9.07686 17.4015 7.51254 13.9497 7.64474 10.1637C7.64906 10.0408 7.65554 9.91789 7.66314 9.79505C7.2013 9.67561 6.71914 9.60273 6.22298 9.58541C5.51278 9.56061 4.82498 9.64869 4.17566 9.83153C3.48729 11.0373 3.07189 12.4208 3.02014 13.9028C2.88659 17.7272 5.20102 21.0689 8.5565 22.4203C9.84022 21.8849 10.9232 20.9599 11.6555 19.7864Z"
        fill="#FFC400" />
    <path
        d="M11.6557 19.7863C12.2553 18.8268 12.6187 17.702 12.6611 16.4902C12.7724 13.3024 10.6294 10.5601 7.66337 9.79492C7.65577 9.91776 7.64929 10.0406 7.64497 10.1636C7.51277 13.9496 9.07709 17.4014 11.6557 19.7863Z"
        fill="#FF9100" />
    <path
        d="M12.329 0.834351C10.6398 2.18765 9.30586 3.97209 8.49878 6.02773C8.03674 7.20517 7.74638 8.46993 7.66162 9.79573C10.6276 10.5609 12.7707 13.3032 12.6593 16.4909C12.617 17.7028 12.2525 18.8265 11.654 19.7871C12.7836 20.8322 14.1072 21.6708 15.5687 22.245C18.5022 20.889 20.5835 17.9711 20.704 14.5199C20.7821 12.2839 19.923 10.2909 18.709 8.60877C17.427 6.82969 12.329 0.834351 12.329 0.834351Z"
        fill="#DD2C00" />
</svg>