<svg width="23" height="24" viewBox="0 0 23 24" fill="none" xmlns="http://www.w3.org/2000/svg">
    <g clip-path="url(#clip0_4874_2723)">
        <path
            d="M13.3082 23.4232C12.7109 24.188 11.4998 23.7689 11.4854 22.7924L11.2749 8.50891H20.7209C22.4319 8.50891 23.3861 10.5181 22.3222 11.8805L13.3082 23.4232Z"
            fill="url(#paint0_linear_4874_2723)" />
        <path
            d="M13.3082 23.4232C12.7109 24.188 11.4998 23.7689 11.4854 22.7924L11.2749 8.50891H20.7209C22.4319 8.50891 23.3861 10.5181 22.3222 11.8805L13.3082 23.4232Z"
            fill="url(#paint1_linear_4874_2723)" fill-opacity="0.2" />
        <path
            d="M9.46658 0.439812C10.0639 -0.325087 11.2751 0.0940224 11.2895 1.0706L11.3817 15.354H2.05387C0.342882 15.354 -0.611364 13.3448 0.452576 11.9824L9.46658 0.439812Z"
            fill="#3ECF8E" />
    </g>
    <defs>
        <linearGradient id="paint0_linear_4874_2723" x1="11.2749" y1="11.6759" x2="19.7114"
            y2="15.1559" gradientUnits="userSpaceOnUse">
            <stop stop-color="#249361" />
            <stop offset="1" stop-color="#3ECF8E" />
        </linearGradient>
        <linearGradient id="paint1_linear_4874_2723" x1="7.55286" y1="6.49446" x2="11.4816"
            y2="13.7684" gradientUnits="userSpaceOnUse">
            <stop />
            <stop offset="1" stop-opacity="0" />
        </linearGradient>
        <clipPath id="clip0_4874_2723">
            <rect width="22.7692" height="24" fill="white" />
        </clipPath>
    </defs>
</svg>